v 143.9101 -223.7933 -274.5121
v 143.9101 223.7934 -274.5121
v 143.9101 -223.7934 274.5121
v 143.9101 223.7933 274.5121
v -143.9101 -223.7933 -274.5121
v -143.9101 223.7934 -274.5121
v -143.9101 -223.7934 274.5121
v -143.9101 223.7933 274.5121

vn 0.5773504 -0.5773503 -0.5773503
vn 0.4082484 0.8164967 -0.4082485
vn 0.4082484 -0.4082485 0.8164967
vn 0.8164968 0.4082483 0.4082483
vn -0.8164968 -0.4082483 -0.4082483
vn -0.4082484 0.4082485 -0.8164967
vn -0.4082484 -0.8164967 0.4082485
vn -0.5773504 0.5773503 0.5773503

f 1//1 7//7 5//5
f 1//1 3//3 7//7
f 1//1 4//4 3//3
f 1//1 2//2 4//4
f 3//3 8//8 7//7
f 3//3 4//4 8//8
f 5//5 7//7 8//8
f 5//5 8//8 6//6
f 1//1 5//5 6//6
f 1//1 6//6 2//2
f 2//2 6//6 8//8
f 2//2 8//8 4//4
