####
#
# OBJ File Generated by Meshlab
#
####
# Object column.obj
#
# Vertices: 8
# Faces: 12
#
####
vn -0.881580 -0.881580 -1.246742
v -35.355339 -35.355339 -50.000000
vn -0.881580 -0.881580 1.246742
v -35.355339 -35.355339 50.000000
vn -0.881580 0.881580 -1.246742
v -35.355339 35.355339 -50.000000
vn -0.881580 0.881580 1.246742
v -35.355339 35.355339 50.000000
vn 0.881580 -0.881580 -1.246742
v 35.355339 -35.355339 -50.000000
vn 0.881580 -0.881580 1.246742
v 35.355339 -35.355339 50.000000
vn 0.881580 0.881580 -1.246742
v 35.355339 35.355339 -50.000000
vn 0.881580 0.881580 1.246742
v 35.355339 35.355339 50.000000
# 8 vertices, 0 vertices normals

f 1//1 7//7 5//5
f 1//1 3//3 7//7
f 1//1 4//4 3//3
f 1//1 2//2 4//4
f 3//3 8//8 7//7
f 3//3 4//4 8//8
f 5//5 7//7 8//8
f 5//5 8//8 6//6
f 1//1 5//5 6//6
f 1//1 6//6 2//2
f 2//2 6//6 8//8
f 2//2 8//8 4//4
# 12 faces, 0 coords texture

# End of File
