####
#
# OBJ File Generated by Meshlab
#
####
# Object cylinder.obj
#
# Vertices: 16
# Faces: 28
#
####
vn 0.873012 0.120538 -3.779763
v 49.999996 0.000001 -50.000000 0.752941 0.752941 0.752941
vn 0.702545 -0.532079 -0.629961
v 35.355347 -35.355350 -50.000004 0.752941 0.752941 0.752941
vn 0.120538 -0.873012 -1.259921
v 0.000000 -50.000000 -50.000004 0.752941 0.752941 0.752941
vn -0.532079 -0.702546 -1.259921
v -35.355347 -35.355350 -50.000004 0.752941 0.752941 0.752941
vn -0.873012 -0.120538 -1.259921
v -49.999996 0.000001 -50.000000 0.752941 0.752941 0.752941
vn -0.702545 0.532079 -1.259921
v -35.355347 35.355350 -49.999996 0.752941 0.752941 0.752941
vn -0.120538 0.873012 -1.259921
v 0.000000 50.000000 -49.999996 0.752941 0.752941 0.752941
vn 0.532079 0.702546 -0.629960
v 35.355347 35.355350 -49.999996 0.752941 0.752941 0.752941
vn 0.873012 -0.120538 0.629961
v 49.999996 -0.000001 50.000000 0.752941 0.752941 0.752941
vn 0.532079 -0.702546 3.779763
v 35.355347 -35.355350 49.999996 0.752941 0.752941 0.752941
vn 0.702545 0.532079 1.259921
v 35.355347 35.355350 50.000004 0.752941 0.752941 0.752941
vn 0.120538 0.873012 1.259921
v 0.000000 50.000000 50.000004 0.752941 0.752941 0.752941
vn -0.532079 0.702546 1.259921
v -35.355347 35.355350 50.000004 0.752941 0.752941 0.752941
vn -0.873012 0.120538 1.259921
v -49.999996 -0.000001 50.000000 0.752941 0.752941 0.752941
vn -0.702545 -0.532079 1.259921
v -35.355347 -35.355350 49.999996 0.752941 0.752941 0.752941
vn -0.120538 -0.873012 0.629960
v 0.000000 -50.000000 49.999996 0.752941 0.752941 0.752941
# 16 vertices, 0 vertices normals

f 1//1 2//2 3//3
f 1//1 3//3 4//4
f 1//1 4//4 5//5
f 1//1 5//5 6//6
f 1//1 6//6 7//7
f 1//1 7//7 8//8
f 2//2 1//1 9//9
f 2//2 9//9 10//10
f 1//1 8//8 11//11
f 1//1 11//11 9//9
f 8//8 7//7 12//12
f 8//8 12//12 11//11
f 7//7 6//6 13//13
f 7//7 13//13 12//12
f 6//6 5//5 14//14
f 6//6 14//14 13//13
f 5//5 4//4 15//15
f 5//5 15//15 14//14
f 4//4 3//3 16//16
f 4//4 16//16 15//15
f 3//3 2//2 10//10
f 3//3 10//10 16//16
f 10//10 9//9 11//11
f 10//10 11//11 12//12
f 10//10 12//12 13//13
f 10//10 13//13 14//14
f 10//10 14//14 15//15
f 10//10 15//15 16//16
# 28 faces, 0 coords texture

# End of File
