####
#
# OBJ File Generated by Meshlab
#
####
# Object finesphere.obj
#
# Vertices: 103
# Faces: 202
#
####
vn 0.807412 0.499373 -0.314185
v 40.787430 25.104763 -15.335135 0.752941 0.752941 0.752941
vn -0.011627 0.785896 0.618250
v 0.660740 39.264862 31.948498 0.752941 0.752941 0.752941
vn -0.142506 0.514322 0.845674
v -7.054353 25.800253 42.479904 0.752941 0.752941 0.752941
vn 0.429171 0.011587 0.903149
v 20.682499 0.475147 46.034668 0.752941 0.752941 0.752941
vn 0.027185 0.251035 0.967596
v 0.000000 12.940949 48.296291 0.752941 0.752941 0.752941
vn -0.998412 0.005390 -0.056066
v -50.000000 0.000000 0.000000 0.752941 0.752941 0.752941
vn 0.905661 0.423637 -0.017603
v 46.324711 19.786657 -0.250016 0.752941 0.752941 0.752941
vn -0.519483 0.479480 0.707273
v -26.055780 24.402643 35.477932 0.752941 0.752941 0.752941
vn 0.593467 -0.695250 0.405492
v 29.538113 -34.566505 21.180218 0.752941 0.752941 0.752941
vn 0.271754 -0.812644 0.515518
v 13.981524 -39.367146 28.405098 0.752941 0.752941 0.752941
vn 0.447766 0.884919 -0.128153
v 24.157190 43.732445 -5.664125 0.752941 0.752941 0.752941
vn -0.675899 0.733291 -0.073797
v -34.607403 36.917313 -1.837231 0.752941 0.752941 0.752941
vn -0.297940 0.706967 0.641428
v -12.273854 34.946556 33.793339 0.752941 0.752941 0.752941
vn 0.538065 -0.516185 0.666362
v 27.406239 -24.842163 34.094311 0.752941 0.752941 0.752941
vn 0.802914 -0.496615 0.329701
v 40.787430 -25.104763 15.335135 0.752941 0.752941 0.752941
vn 0.799832 0.492672 0.342847
v 39.684624 25.104774 17.997522 0.752941 0.752941 0.752941
vn 0.201203 0.529865 0.823869
v 11.207192 25.000000 41.825809 0.752941 0.752941 0.752941
vn -0.326253 -0.515778 -0.792169
v -17.026701 -25.562534 -39.818489 0.752941 0.752941 0.752941
vn 0.792292 0.004549 0.610125
v 41.006359 0.762218 29.104046 0.752941 0.752941 0.752941
vn 0.701591 0.711495 0.039298
v 35.355343 35.355343 0.000000 0.752941 0.752941 0.752941
vn 0.366707 -0.913279 -0.177336
v 16.777111 -46.057850 -10.779463 0.752941 0.752941 0.752941
vn 0.368228 0.912896 0.176151
v 16.943825 46.117050 10.383038 0.752941 0.752941 0.752941
vn -0.901545 0.359564 -0.240687
v -45.073956 18.814768 -12.077529 0.752941 0.752941 0.752941
vn -0.005230 0.269991 -0.962849
v -4.723890 13.247311 -48.384800 0.752941 0.752941 0.752941
vn -0.762642 0.251000 -0.596134
v -37.788639 12.881721 -30.690681 0.752941 0.752941 0.752941
vn -0.443528 0.391255 -0.806351
v -23.378862 19.786676 -39.993362 0.752941 0.752941 0.752941
vn -0.086867 -0.784696 0.613765
v -1.893419 -38.799706 32.383373 0.752941 0.752941 0.752941
vn -0.875657 0.018103 0.482594
v -43.301270 0.000000 25.000000 0.752941 0.752941 0.752941
vn -0.697099 0.527058 -0.486069
v -33.674324 25.104761 -27.655399 0.752941 0.752941 0.752941
vn 0.696109 -0.717238 0.031641
v 34.705284 -36.101173 4.071498 0.752941 0.752941 0.752941
vn 0.685765 0.316424 -0.655440
v 32.996426 18.814783 -32.996422 0.752941 0.752941 0.752941
vn -0.697260 0.115022 0.707530
v -35.756710 4.608168 35.092457 0.752941 0.752941 0.752941
vn -0.519896 0.711468 -0.472781
v -27.846292 35.787945 -21.505568 0.752941 0.752941 0.752941
vn 0.351728 0.027151 -0.935708
v 20.242800 -0.000001 -46.313042 0.752941 0.752941 0.752941
vn -0.954085 -0.099173 0.282641
v -48.188831 -7.529699 12.573810 0.752941 0.752941 0.752941
vn -0.433359 0.900718 0.030124
v -24.461168 43.791275 -1.656790 0.752941 0.752941 0.752941
vn 0.306439 0.797989 0.518950
v 16.093224 40.453079 25.586754 0.752941 0.752941 0.752941
vn -0.612124 0.004686 -0.790748
v -32.067768 0.472262 -38.786095 0.752941 0.752941 0.752941
vn -0.315840 0.914825 -0.251676
v -16.025410 46.359291 -11.486100 0.752941 0.752941 0.752941
vn -0.799974 -0.525809 -0.289078
v -40.280396 -25.700731 -15.550986 0.752941 0.752941 0.752941
vn -0.675927 -0.734702 0.057754
v -34.767380 -36.187481 4.076679 0.752941 0.752941 0.752941
vn 0.064275 -0.727500 -0.683090
v 3.710651 -35.748707 -34.982166 0.752941 0.752941 0.752941
vn 0.368861 0.277024 -0.887242
v 20.054592 13.859602 -43.952919 0.752941 0.752941 0.752941
vn -0.963072 0.237839 0.126195
v -48.124409 13.775681 5.177298 0.752941 0.752941 0.752941
vn -0.375843 -0.244103 -0.893955
v -19.333055 -13.500602 -44.494640 0.752941 0.752941 0.752941
vn -0.002339 -0.261140 -0.965298
v 0.000000 -12.940949 -48.296291 0.752941 0.752941 0.752941
vn -0.012536 -0.918933 -0.394214
v -0.000003 -45.624981 -21.167795 0.752941 0.752941 0.752941
vn -0.939317 -0.342146 -0.024908
v -46.663998 -18.814770 -0.000002 0.752941 0.752941 0.752941
vn -0.917429 -0.035560 -0.396308
v -46.081200 -1.339914 -20.318579 0.752941 0.752941 0.752941
vn -0.184965 0.019645 -0.982549
v -6.505763 0.000000 -49.901657 0.752941 0.752941 0.752941
vn -0.212974 0.736537 -0.641993
v -10.124052 35.089661 -34.635948 0.752941 0.752941 0.752941
vn 0.603111 0.723433 0.336007
v 31.620268 35.880558 15.354552 0.752941 0.752941 0.752941
vn 0.094414 -0.994970 0.033477
v 3.839667 -50.111202 4.041471 0.752941 0.752941 0.752941
vn -0.280407 -0.850036 -0.445882
v -12.500000 -43.301270 -21.650635 0.752941 0.752941 0.752941
vn 0.235189 0.808889 -0.538873
v 12.721464 40.435818 -27.640854 0.752941 0.752941 0.752941
vn -0.331997 -0.925987 -0.179794
v -18.502171 -45.259403 -11.443718 0.752941 0.752941 0.752941
vn -0.073682 0.975899 0.205408
v -3.551444 49.468994 9.302576 0.752941 0.752941 0.752941
vn -0.894299 -0.279461 -0.349472
v -45.144623 -13.775702 -17.456383 0.752941 0.752941 0.752941
vn 0.900446 -0.279684 -0.333126
v 44.444370 -12.881708 -19.864473 0.752941 0.752941 0.752941
vn 0.949771 0.086414 0.300779
v 48.272461 5.235738 13.347351 0.752941 0.752941 0.752941
vn 0.436954 -0.881738 0.177790
v 23.621115 -43.730522 8.335132 0.752941 0.752941 0.752941
vn 0.925501 -0.012617 -0.378535
v 46.966568 -0.340291 -18.229578 0.752941 0.752941 0.752941
vn 0.140883 -0.524444 0.839709
v 6.672637 -25.700735 42.659336 0.752941 0.752941 0.752941
vn 0.875027 -0.482248 -0.042013
v 43.301270 -25.000000 0.000000 0.752941 0.752941 0.752941
vn -0.494430 -0.138513 0.858110
v -26.085812 -7.551246 42.423401 0.752941 0.752941 0.752941
vn -0.225143 -0.550488 0.803911
v -11.207192 -25.000000 41.825809 0.752941 0.752941 0.752941
vn 0.777581 -0.511118 -0.366233
v 39.684624 -25.104773 -17.997526 0.752941 0.752941 0.752941
vn 0.706152 -0.151485 -0.691666
v 35.410629 -5.746614 -35.233517 0.752941 0.752941 0.752941
vn -0.026234 0.908055 -0.418028
v 0.410167 45.719101 -20.889927 0.752941 0.752941 0.752941
vn -0.158213 -0.296370 0.941878
v -7.995422 -13.859587 47.645771 0.752941 0.752941 0.752941
vn 0.324274 -0.254019 0.911219
v 18.953272 -13.898149 44.591984 0.752941 0.752941 0.752941
vn -0.375743 0.240492 0.894976
v -19.333054 13.500596 44.494644 0.752941 0.752941 0.752941
vn 0.968096 -0.235759 0.084896
v 48.422199 -12.881698 5.019038 0.752941 0.752941 0.752941
vn -0.840625 0.525386 0.131605
v -42.932758 25.700747 4.595729 0.752941 0.752941 0.752941
vn 0.328764 0.526325 -0.784153
v 17.026699 25.562538 -39.818489 0.752941 0.752941 0.752941
vn -0.599845 0.687379 0.409507
v -28.760937 35.367462 21.199375 0.752941 0.752941 0.752941
vn 0.637859 0.684911 -0.352182
v 31.338814 35.910858 -17.077980 0.752941 0.752941 0.752941
vn -0.364742 0.866144 0.341698
v -17.677671 43.301270 17.677671 0.752941 0.752941 0.752941
vn -0.090216 -0.023957 0.995634
v -8.063117 -0.475148 49.819099 0.752941 0.752941 0.752941
vn 0.126738 0.983041 -0.132544
v 5.216154 49.843723 -5.215154 0.752941 0.752941 0.752941
vn 0.997614 0.049288 -0.048351
v 50.000000 0.000000 0.000000 0.752941 0.752941 0.752941
vn -0.219528 -0.717552 -0.661004
v -12.206894 -35.336559 -33.462250 0.752941 0.752941 0.752941
vn -0.557613 -0.707228 -0.434622
v -30.084480 -35.513348 -19.575388 0.752941 0.752941 0.752941
vn -0.049994 0.544686 -0.837148
v -4.595719 25.700737 -42.932766 0.752941 0.752941 0.752941
vn -0.511624 -0.460149 0.725605
v -25.369143 -25.104773 35.428619 0.752941 0.752941 0.752941
vn 0.522887 -0.520852 -0.674761
v 25.369152 -25.104769 -35.428616 0.752941 0.752941 0.752941
vn -0.365517 -0.871284 0.327509
v -17.677671 -43.301270 17.677671 0.752941 0.752941 0.752941
vn 0.613801 -0.724337 -0.313982
v 32.463505 -35.787945 -13.565635 0.752941 0.752941 0.752941
vn -0.461837 -0.721552 0.515819
v -23.987705 -36.881241 24.966398 0.752941 0.752941 0.752941
vn 0.379321 0.279376 0.882080
v 17.881756 13.375398 45.045509 0.752941 0.752941 0.752941
vn 0.722629 0.250732 0.644159
v 37.788639 12.881721 30.690680 0.752941 0.752941 0.752941
vn -0.839671 0.329420 0.431782
v -41.073845 17.632240 23.152365 0.752941 0.752941 0.752941
vn 0.528386 0.526782 0.665815
v 25.369144 25.104769 35.428619 0.752941 0.752941 0.752941
vn 0.914957 0.245249 -0.320480
v 45.473225 12.881717 -17.380587 0.752941 0.752941 0.752941
vn -0.683229 -0.358699 -0.636029
v -32.996426 -18.814789 -32.996422 0.752941 0.752941 0.752941
vn -0.764383 -0.243574 0.596985
v -37.788643 -12.881714 30.690678 0.752941 0.752941 0.752941
vn 0.357665 -0.284730 -0.889384
v 17.881756 -13.375396 -45.045509 0.752941 0.752941 0.752941
vn 0.106347 -0.537726 -0.836385
v 4.595721 -25.700741 -42.932762 0.752941 0.752941 0.752941
vn -0.783909 -0.497498 0.371459
v -39.684624 -25.104773 17.997522 0.752941 0.752941 0.752941
vn 0.777771 -0.227907 0.585773
v 38.005131 -12.519953 30.574953 0.752941 0.752941 0.752941
vn 0.332746 -0.765183 -0.551157
v 16.102608 -40.423065 -25.781626 0.752941 0.752941 0.752941
vn -0.444768 -0.892588 0.073946
v -24.574074 -43.301270 3.235238 0.752941 0.752941 0.752941
vn -0.117088 -0.970426 0.211102
v -4.097667 -49.658726 8.678401 0.752941 0.752941 0.752941
# 103 vertices, 0 vertices normals

f 30//30 67//67 64//64
f 44//44 92//92 74//74
f 10//10 53//53 61//61
f 72//72 8//8 32//32
f 31//31 68//68 34//34
f 37//37 22//22 57//57
f 17//17 2//2 3//3
f 60//60 7//7 16//16
f 20//20 7//7 77//77
f 15//15 30//30 64//64
f 60//60 73//73 81//81
f 8//8 3//3 13//13
f 55//55 69//69 80//80
f 86//86 68//68 67//67
f 95//95 40//40 58//58
f 22//22 11//11 80//80
f 15//15 9//9 30//30
f 20//20 77//77 11//11
f 31//31 62//62 68//68
f 70//70 66//66 63//63
f 80//80 69//69 39//39
f 15//15 64//64 73//73
f 60//60 100//100 73//73
f 55//55 11//11 77//77
f 13//13 78//78 76//76
f 30//30 9//9 61//61
f 101//101 47//47 42//42
f 49//49 48//48 6//6
f 93//93 37//37 17//17
f 55//55 84//84 51//51
f 72//72 32//32 65//65
f 7//7 60//60 81//81
f 12//12 78//78 36//36
f 44//44 35//35 92//92
f 23//23 12//12 29//29
f 45//45 38//38 50//50
f 73//73 59//59 62//62
f 26//26 29//29 33//33
f 30//30 88//88 67//67
f 84//84 24//24 26//26
f 47//47 82//82 42//42
f 52//52 93//93 16//16
f 54//54 83//83 82//82
f 72//72 5//5 3//3
f 39//39 33//33 12//12
f 47//47 21//21 53//53
f 94//94 7//7 81//81
f 4//4 100//100 19//19
f 18//18 83//83 95//95
f 75//75 55//55 77//77
f 31//31 75//75 77//77
f 43//43 34//34 24//24
f 73//73 64//64 59//59
f 14//14 9//9 15//15
f 103//103 53//53 10//10
f 23//23 25//25 49//49
f 102//102 41//41 56//56
f 49//49 58//58 48//48
f 27//27 103//103 10//10
f 20//20 22//22 52//52
f 66//66 27//27 63//63
f 99//99 85//85 96//96
f 91//91 60//60 16//16
f 100//100 4//4 71//71
f 5//5 79//79 4//4
f 100//100 71//71 14//14
f 93//93 52//52 37//37
f 69//69 51//51 39//39
f 21//21 88//88 30//30
f 71//71 70//70 63//63
f 41//41 40//40 83//83
f 38//38 95//95 49//49
f 38//38 26//26 50//50
f 10//10 14//14 63//63
f 60//60 91//91 19//19
f 66//66 85//85 89//89
f 97//97 98//98 46//46
f 37//37 52//52 22//22
f 5//5 72//72 79//79
f 41//41 99//99 48//48
f 7//7 20//20 16//16
f 5//5 17//17 3//3
f 18//18 98//98 82//82
f 94//94 62//62 31//31
f 35//35 96//96 28//28
f 20//20 52//52 16//16
f 98//98 86//86 101//101
f 11//11 22//22 20//20
f 97//97 46//46 34//34
f 92//92 28//28 32//32
f 102//102 56//56 103//103
f 41//41 102//102 87//87
f 27//27 10//10 63//63
f 46//46 18//18 45//45
f 54//54 56//56 83//83
f 99//99 35//35 48//48
f 2//2 13//13 3//3
f 92//92 8//8 76//76
f 95//95 58//58 49//49
f 25//25 38//38 49//49
f 31//31 43//43 75//75
f 5//5 4//4 90//90
f 23//23 49//49 6//6
f 71//71 79//79 70//70
f 100//100 15//15 73//73
f 12//12 33//33 29//29
f 87//87 27//27 89//89
f 54//54 82//82 47//47
f 1//1 31//31 77//77
f 94//94 81//81 62//62
f 25//25 23//23 29//29
f 26//26 24//24 50//50
f 21//21 47//47 101//101
f 76//76 78//78 12//12
f 100//100 60//60 19//19
f 56//56 53//53 103//103
f 74//74 76//76 12//12
f 13//13 2//2 78//78
f 67//67 68//68 59//59
f 2//2 37//37 57//57
f 43//43 24//24 75//75
f 45//45 18//18 95//95
f 10//10 9//9 14//14
f 97//97 86//86 98//98
f 94//94 1//1 7//7
f 23//23 74//74 12//12
f 63//63 14//14 71//71
f 91//91 93//93 90//90
f 88//88 86//86 67//67
f 100//100 14//14 15//15
f 7//7 1//1 77//77
f 9//9 10//10 61//61
f 94//94 31//31 1//1
f 93//93 91//91 16//16
f 84//84 55//55 75//75
f 5//5 90//90 17//17
f 54//54 47//47 56//56
f 96//96 32//32 28//28
f 64//64 67//67 59//59
f 88//88 21//21 101//101
f 8//8 13//13 76//76
f 72//72 3//3 8//8
f 37//37 2//2 17//17
f 99//99 41//41 89//89
f 61//61 21//21 30//30
f 58//58 40//40 48//48
f 11//11 55//55 80//80
f 4//4 91//91 90//90
f 4//4 19//19 91//91
f 85//85 70//70 65//65
f 44//44 74//74 23//23
f 65//65 32//32 96//96
f 85//85 65//65 96//96
f 68//68 97//97 34//34
f 82//82 83//83 18//18
f 90//90 93//93 17//17
f 38//38 45//45 95//95
f 85//85 99//99 89//89
f 83//83 40//40 95//95
f 62//62 59//59 68//68
f 22//22 80//80 57//57
f 4//4 79//79 71//71
f 44//44 23//23 6//6
f 81//81 73//73 62//62
f 82//82 98//98 42//42
f 92//92 35//35 28//28
f 103//103 27//27 87//87
f 98//98 101//101 42//42
f 50//50 46//46 45//45
f 27//27 66//66 89//89
f 51//51 84//84 26//26
f 35//35 44//44 6//6
f 8//8 92//92 32//32
f 102//102 103//103 87//87
f 70//70 85//85 66//66
f 70//70 79//79 65//65
f 79//79 72//72 65//65
f 36//36 39//39 12//12
f 40//40 41//41 48//48
f 2//2 57//57 78//78
f 34//34 46//46 50//50
f 24//24 84//84 75//75
f 57//57 80//80 39//39
f 69//69 55//55 51//51
f 89//89 41//41 87//87
f 35//35 99//99 96//96
f 68//68 86//86 97//97
f 92//92 76//76 74//74
f 78//78 57//57 36//36
f 56//56 41//41 83//83
f 38//38 25//25 26//26
f 48//48 35//35 6//6
f 25//25 29//29 26//26
f 57//57 39//39 36//36
f 43//43 31//31 34//34
f 34//34 50//50 24//24
f 51//51 26//26 33//33
f 51//51 33//33 39//39
f 47//47 53//53 56//56
f 18//18 46//46 98//98
f 86//86 88//88 101//101
f 53//53 21//21 61//61
# 202 faces, 0 coords texture

# End of File
