v -9.999966 193.595 -107.6796
v -50.00002 193.595 -107.6796
v -9.999966 193.595 -107.6796
v -9.999966 193.595 -107.6796
v -9.999966 195.8825 -104.9369
v -9.999966 196.7975 -103.8398
v -9.999966 196.7975 -103.8398
v -50.00002 196.7975 -103.8398
v -90.00008 196.7975 -103.8398
v -9.999966 197.033 -103.9133
v -90.00008 198.917 -104.5011
v -9.999966 197.0623 -103.9224
v -90.00008 199.1803 -104.5833
v -9.999966 197.0705 -103.925
v -90.00008 199.2543 -104.6064
v -9.999966 197.1628 -103.9538
v -90.00008 200.0853 -104.8657
v -9.999966 198.3013 -104.309
v -90.00008 200.2118 -104.9051
v -9.999966 199.3807 -104.6458
v -9.999966 199.5048 -104.6845
v -90.00008 200.3456 -104.9469
v -9.999966 199.7638 -104.7654
v -90.00008 200.3743 -104.9558
v -9.999966 200.4506 -104.9797
v -90.00008 200.4506 -104.9797
v -9.999966 200.6309 -104.8851
v -90.00008 201.4433 -104.4591
v -90.00008 202.0731 -104.1289
v -9.999966 200.6756 -104.8617
v -90.00008 202.4756 -103.9178
v -9.999966 200.6889 -104.8547
v -90.00008 202.5954 -103.855
v -9.999966 200.7896 -104.8019
v -90.00008 203.5009 -103.3802
v -9.999969 201.9438 -104.1967
v -90.00008 203.6291 -103.313
v -9.999969 202.8973 -103.6967
v -90.00008 203.7351 -103.2574
v -9.999969 203.8398 -103.2025
v -90.00008 203.8398 -103.2025
v -9.999969 203.875 -103.0898
v -90.00008 204.1564 -102.1879
v -9.999969 203.9538 -102.8372
v -90.00008 204.8657 -99.91467
v -9.999969 204.1737 -102.1325
v -9.999969 204.2616 -101.8507
v -90.00008 204.8999 -99.80506
v -9.999969 204.5614 -100.8898
v -90.00008 204.9332 -99.6983
v -9.999969 204.8083 -100.0986
v -90.00008 204.9606 -99.61038
v -9.999969 204.9797 -99.54936
v -90.00008 204.9797 -99.54936
v -90.00008 204.9797 -99.54935
v -9.999969 204.874 -99.34794
v -90.00008 204.0291 -97.7365
v -9.999969 204.8429 -99.28864
v -90.00008 203.7493 -97.20291
v -9.999969 204.8398 -99.28259
v -90.00008 203.7207 -97.14844
v -9.999969 204.8383 -99.27979
v -90.00008 203.7074 -97.12318
v -9.999969 204.8364 -99.27624
v -90.00008 203.6907 -97.09126
v -9.999969 204.8019 -99.21045
v -90.00008 203.3802 -96.49911
v -9.999969 203.2025 -96.16021
v -90.00008 203.2025 -96.1602
v -9.999969 203.2025 -96.1602
v -90.00008 203.2025 -96.1602
v -9.999969 203.2025 -96.1602
v -9.999969 203.2025 -96.1602
v -9.999969 204.1175 -95.06312
v -9.999969 206.405 -92.3204
v -9.999969 206.405 -92.3204
v -9.999969 206.405 -92.3204
v -9.999969 203.2025 -96.1602
v -9.999969 203.2025 -96.1602
v -9.999969 203.2025 -96.1602
v -90.00008 203.2025 -96.1602
v -90.00008 203.2025 -96.1602
v -90.00008 203.2025 -96.1602
v -9.999969 203.2025 -96.1602
v -9.999969 209.9593 -99.09872
v -9.999969 203.2025 -96.1602
v -90.00008 203.2025 -96.1602
v -9.999969 203.2025 -96.1602
v -50.00002 203.2025 -96.1602
v -90.00008 203.2025 -96.1602
v -50.00003 206.405 -92.3204
v -90.00003 203.2025 -96.1602
v -90.00008 203.2025 -96.1602
v -90.00008 204.1175 -95.06311
v -90.00007 209.9593 -99.09872
v -90.00008 203.2025 -96.1602
v -9.999969 209.9593 -99.09872
v -90.00008 206.405 -92.3204
v -90.00007 209.9593 -99.09872
v -90.00008 204.9797 -99.54935
v -90.00008 204.9797 -99.54936
v -50.00002 193.595 -107.6796
v -9.999966 193.595 -107.6796
v -9.999966 193.595 -107.6796
v -9.999966 195.8825 -104.9369
v -50.00002 196.7975 -103.8398
v -9.999966 196.7975 -103.8398
v -90.00008 195.471 -105.4303
v -90.00008 193.595 -107.6796
v -90.00008 196.7975 -103.8398
v -9.999966 193.595 -107.6796
v -9.999966 200.9013 -109.9593
v -9.999969 207.6796 -106.405
v -9.999966 200.4506 -104.9797
v -9.999966 199.7638 -104.7654
v -9.999966 199.5048 -104.6845
v -9.999966 199.3807 -104.6458
v -9.999966 198.3013 -104.309
v -9.999966 197.1628 -103.9538
v -9.999966 197.0705 -103.925
v -9.999966 197.0623 -103.9224
v -9.999966 197.033 -103.9133
v -9.999966 196.7975 -103.8398
v -9.999966 200.6309 -104.8851
v -9.999966 200.6756 -104.8617
v -9.999966 200.6889 -104.8547
v -9.999966 200.7896 -104.8019
v -9.999969 201.9438 -104.1967
v -9.999969 202.8973 -103.6967
v -9.999969 203.8398 -103.2025
v -9.999969 203.875 -103.0898
v -9.999969 203.9538 -102.8372
v -9.999969 204.1737 -102.1325
v -9.999969 209.9593 -99.09872
v -9.999969 204.2616 -101.8507
v -9.999969 204.5614 -100.8898
v -9.999969 204.8083 -100.0986
v -9.999969 204.9797 -99.54936
v -9.999969 204.874 -99.34794
v -9.999969 204.8429 -99.28864
v -9.999969 204.8398 -99.28259
v -9.999969 204.8383 -99.27979
v -9.999969 204.8364 -99.27624
v -9.999969 204.8019 -99.21045
v -9.999969 203.2025 -96.16021
v -9.999969 203.2025 -96.1602
v -9.999969 203.2025 -96.1602
v -9.999969 206.405 -92.3204
v -9.999966 193.595 -107.6796
v -90.00006 200.9013 -109.9593
v -9.999966 200.9013 -109.9593
v -50.00002 193.595 -107.6796
v -90.00006 207.6796 -106.405
v -9.999969 207.6796 -106.405
v -90.00007 209.9593 -99.09872
v -9.999969 209.9593 -99.09872
v -90.00008 193.595 -107.6796
v -9.999969 206.405 -92.3204
v -50.00002 203.2025 -96.1602
v -9.999969 203.2025 -96.1602
v -50.00003 206.405 -92.3204
v -90.00003 203.2025 -96.1602
v -90.00008 206.405 -92.3204
v -90.00008 204.1175 -95.06311
v -90.00008 203.2025 -96.1602
v -90.00008 196.7975 -103.8398
v -90.00006 200.9013 -109.9593
v -90.00008 195.471 -105.4303
v -90.00006 200.9013 -109.9593
v -90.00008 193.595 -107.6796
v -90.00008 196.7975 -103.8398
v -90.00008 198.917 -104.5011
v -90.00008 196.7975 -103.8398
v -90.00008 199.1803 -104.5833
v -90.00008 199.2543 -104.6064
v -90.00008 200.0853 -104.8657
v -90.00008 200.2118 -104.9051
v -90.00008 200.3456 -104.9469
v -90.00008 200.3743 -104.9558
v -90.00008 200.4506 -104.9797
v -90.00006 207.6796 -106.405
v -90.00008 201.4433 -104.4591
v -90.00008 202.0731 -104.1289
v -90.00008 202.4756 -103.9178
v -90.00008 202.5954 -103.855
v -90.00008 203.5009 -103.3802
v -90.00008 203.6291 -103.313
v -90.00008 203.7351 -103.2574
v -90.00008 203.8398 -103.2025
v -90.00008 204.1564 -102.1879
v -90.00008 204.8657 -99.91467
v -90.00008 204.8999 -99.80506
v -90.00008 204.9332 -99.6983
v -90.00008 204.9606 -99.61038
v -90.00008 204.9797 -99.54936
v -90.00007 209.9593 -99.09872
v -90.00008 204.9797 -99.54935
v -90.00008 204.0291 -97.7365
v -90.00008 203.7493 -97.20291
v -90.00008 203.7207 -97.14844
v -90.00008 203.7074 -97.12318
v -90.00008 203.6907 -97.09126
v -90.00008 203.3802 -96.49911
v -90.00008 203.2025 -96.1602
v -90.00008 204.1175 -95.06311
v -90.00008 203.2025 -96.1602
v -90.00008 206.405 -92.3204

vn 6.681677E-07 -0.6404985 -0.7679596
vn 5.155799E-07 -0.6404985 -0.7679596
vn 0.6507915 -0.4863027 -0.5830784
vn 1 0 -1.341105E-07
vn 1 0 -1.341105E-07
vn -1.885255E-07 0.2978534 0.9546118
vn 0.1414208 0.6340613 0.7602413
vn -2.201936E-07 -0.5937372 0.8046592
vn -4.663407E-07 0.2978577 0.9546103
vn -4.252191E-07 0.2978586 0.9546102
vn -4.639611E-07 0.2978582 0.9546102
vn -5.475449E-07 0.2978573 0.9546106
vn -6.060571E-07 0.2978562 0.9546108
vn -1.43415E-08 0.2978618 0.9546092
vn -3.019043E-07 0.2978591 0.95461
vn -3.499724E-07 0.2978586 0.9546101
vn -3.328236E-07 0.2978588 0.9546102
vn -3.316608E-07 0.2978588 0.95461
vn -3.456228E-07 0.2978586 0.9546101
vn -3.648176E-07 0.2978589 0.95461
vn -3.590307E-07 0.2978578 0.9546104
vn -4.017175E-07 0.2978563 0.9546108
vn -2.912278E-07 0.2978584 0.9546102
vn -3.050439E-07 0.2978592 0.95461
vn -2.987181E-07 0.1504646 0.9886156
vn -2.651392E-07 -0.4277836 0.9038813
vn -3.151762E-07 -0.464396 0.8856279
vn -2.75688E-07 -0.4643953 0.8856282
vn -2.559891E-07 -0.464395 0.8856284
vn -1.026663E-07 -0.4643932 0.8856294
vn -1.821073E-08 -0.464392 0.88563
vn 1.980307E-07 -0.4643905 0.8856307
vn -6.857648E-08 -0.464393 0.8856295
vn -2.468099E-07 -0.464394 0.8856288
vn -3.05913E-07 -0.4643946 0.8856287
vn -3.646495E-07 -0.4643946 0.8856286
vn -2.660736E-07 -0.4643936 0.8856291
vn -2.867305E-07 -0.4643942 0.8856288
vn -3.275609E-07 -0.4643953 0.8856282
vn -3.280824E-07 -0.5216785 0.8531424
vn -7.694364E-08 -0.9328785 0.3601922
vn -2.736838E-08 -0.9546099 0.2978595
vn -5.481349E-08 -0.9546103 0.2978585
vn -9.550156E-08 -0.9546105 0.2978579
vn -6.702513E-08 -0.9546105 0.2978579
vn -4.927102E-08 -0.9546103 0.2978583
vn 7.69032E-08 -0.9546102 0.2978588
vn 7.437719E-09 -0.9546103 0.2978584
vn 2.989539E-08 -0.9546103 0.2978588
vn 3.74129E-08 -0.9546103 0.2978584
vn 4.435056E-08 -0.9546104 0.2978584
vn 5.303527E-08 -0.9546102 0.2978588
vn 1.404156E-07 -0.9945884 0.1038969
vn 5.506842E-08 -0.9546033 0.2978811
vn 2.742569E-07 -0.8856292 -0.4643935
vn 2.292263E-07 -0.8856285 -0.4643946
vn 1.923622E-07 -0.8856284 -0.4643951
vn 8.441717E-08 -0.8856277 -0.4643961
vn 2.856097E-07 -0.8856288 -0.4643943
vn 5.739987E-07 -0.8856296 -0.4643929
vn 8.529823E-07 -0.8856307 -0.4643904
vn 6.468863E-06 -0.8856518 -0.4643503
vn 2.886124E-06 -0.8856387 -0.4643755
vn -4.672311E-07 -0.8856254 -0.4644008
vn -7.795744E-08 -0.8856273 -0.4643971
vn 2.596515E-07 -0.8856286 -0.4643945
vn 2.852524E-07 -0.8856289 -0.464394
vn 2.850331E-07 -0.8856291 -0.4643938
vn 2.150524E-07 -0.8856314 -0.4643893
vn 2.066086E-07 -0.950908 -0.3094744
vn 3.248452E-07 -0.6404985 -0.7679596
vn 3.248452E-07 -0.6404985 -0.7679596
vn 3.248452E-07 -0.6404985 -0.7679596
vn 1 0 -1.341105E-07
vn -4.175161E-07 0.8856287 0.4643943
vn 1 0 -1.341105E-07
vn -1.852033E-07 -0.6782074 0.7348709
vn 0.7603926 -0.4159806 -0.4987621
vn 0.8262197 -0.3608238 -0.4326289
vn 0.07104934 -0.6388799 -0.7660188
vn 3.248455E-07 -0.6404985 -0.7679596
vn 3.248452E-07 -0.6404985 -0.7679596
vn 3.248448E-07 -0.6404985 -0.7679596
vn 0.103003 -0.6370918 -0.7638749
vn 1 0 -1.341105E-07
vn 0.0126635 -0.6404516 -0.7678943
vn 3.248462E-07 -0.6404985 -0.7679596
vn 0.1414217 -0.6340612 -0.7602412
vn 3.248462E-07 -0.6404935 -0.7679638
vn -0.06004148 -0.6393382 -0.7665781
vn -3.471912E-07 0.8856287 0.4643943
vn 3.24848E-07 -0.6404803 -0.7679747
vn -1 -4.446825E-06 -5.197645E-06
vn -1 0 1.341105E-07
vn -1 3.314387E-07 -1.423181E-07
vn 0 0 0
vn -3.370004E-07 0.8856288 0.4643943
vn -3.017051E-07 0.8856288 0.4643943
vn -3.268097E-07 0.8856288 0.4643943
vn -1 3.314387E-07 -1.423181E-07
vn -1 3.314387E-07 -1.423181E-07
vn -1.192093E-07 -0.7679597 0.6404985
vn -1.192092E-07 -0.7679597 0.6404985
vn -1.192093E-07 -0.7679597 0.6404985
vn -1.192093E-07 -0.7679597 0.6404985
vn -1.192093E-07 -0.7679597 0.6404985
vn -1.192093E-07 -0.7679597 0.6404985
vn -1.192093E-07 -0.7679597 0.6404985
vn -1.192093E-07 -0.7679597 0.6404985
vn -1.192093E-07 -0.7679597 0.6404985
vn 1 0 -1.341105E-07
vn 1 0 -1.341105E-07
vn 1 0 -1.341105E-07
vn 1 0 -1.341105E-07
vn 1 0 -1.341105E-07
vn 1 0 -1.341105E-07
vn 1 0 -1.341105E-07
vn 1 0 -1.341105E-07
vn 1 0 -1.341105E-07
vn 1 0 -1.341105E-07
vn 1 0 -1.341105E-07
vn 1 0 -1.341105E-07
vn 1 0 -1.341105E-07
vn 1 0 -1.341104E-07
vn 1 0 -1.341105E-07
vn 1 0 -1.341105E-07
vn 1 0 -1.341104E-07
vn 1 0 -1.341105E-07
vn 1 0 -1.341105E-07
vn 1 0 -1.341105E-07
vn 1 0 -1.341104E-07
vn 1 0 -1.341105E-07
vn 1 0 -1.341105E-07
vn 1 0 -1.341105E-07
vn 1 0 -1.341105E-07
vn 1 0 -1.341105E-07
vn 1 0 -1.341105E-07
vn 1 0 -1.341105E-07
vn 1 0 -1.341105E-07
vn 1 0 -1.341105E-07
vn 1 0 -1.341105E-07
vn 1 0 -1.341104E-07
vn 1 0 -1.341105E-07
vn 1 0 -1.341104E-07
vn 1 0 -1.341104E-07
vn 1 0 -1.341105E-07
vn 1 0 -1.341104E-07
vn 1 0 -1.341104E-07
vn 4.66691E-07 -0.2978582 -0.9546103
vn 4.161514E-07 -0.04693539 -0.9988981
vn 3.42909E-07 0.2254988 -0.9742436
vn 4.476399E-07 -0.2978581 -0.9546102
vn 1.714547E-07 0.6731395 -0.739516
vn 5.524072E-08 0.848346 -0.5294428
vn -4.407642E-08 0.9546103 -0.2978582
vn -5.132182E-08 0.9546103 -0.2978583
vn 3.809804E-07 -0.2978583 -0.9546102
vn -1.192093E-07 -0.7679597 0.6404985
vn -1.192093E-07 -0.7679597 0.6404985
vn -1.192093E-07 -0.7679597 0.6404985
vn -1.192093E-07 -0.7679597 0.6404985
vn -1.192093E-07 -0.7679597 0.6404985
vn -1.192093E-07 -0.7679597 0.6404985
vn -1.283792E-07 -0.7679597 0.6404985
vn -1.283792E-07 -0.7679597 0.6404985
vn -0.2028034 0.6271886 0.752001
vn -1 -4.718929E-07 -4.316905E-07
vn -1 1.657193E-07 -4.103831E-09
vn -1 1.079695E-07 -1.012568E-07
vn -1 1.657194E-07 -4.103832E-09
vn -1 1.657194E-07 -4.103832E-09
vn -1 -9.838831E-08 -1.812161E-07
vn -1 -9.838847E-08 -1.812162E-07
vn -1 -9.838781E-08 -1.812159E-07
vn -1 -9.838865E-08 -1.812162E-07
vn -1 -9.838873E-08 -1.812162E-07
vn -1 -9.838809E-08 -1.812161E-07
vn -1 -9.838584E-08 -1.812158E-07
vn -1 -9.839115E-08 -1.812164E-07
vn -1 1.511253E-07 -1.586359E-07
vn -1 2.343626E-07 -6.135413E-08
vn -1 1.533987E-07 -1.584297E-07
vn -1 1.533985E-07 -1.584302E-07
vn -1 1.533982E-07 -1.584309E-07
vn -1 1.533984E-07 -1.584305E-07
vn -1 1.533985E-07 -1.584304E-07
vn -1 1.533985E-07 -1.584303E-07
vn -1 1.533989E-07 -1.584298E-07
vn -1 2.991146E-07 1.628385E-08
vn -1 3.153267E-07 3.572196E-08
vn -1 3.153268E-07 3.572211E-08
vn -1 3.153261E-07 3.572179E-08
vn -1 3.153278E-07 3.572247E-08
vn -1 3.15327E-07 3.572218E-08
vn -1 3.153266E-07 3.572199E-08
vn -1 2.509266E-07 7.01491E-08
vn -1 2.925407E-07 2.875091E-07
vn -1 2.925408E-07 2.875093E-07
vn -1 2.925409E-07 2.875097E-07
vn -1 2.925387E-07 2.875027E-07
vn -1 2.925412E-07 2.875104E-07
vn -1 2.92541E-07 2.875099E-07
vn -1 2.925404E-07 2.875084E-07
vn -1 2.9254E-07 2.875073E-07
vn -1 1.657194E-07 -4.10383E-09
vn -1 1.657194E-07 -4.103832E-09
vn -1 1.657194E-07 -4.10384E-09

f 1//1 2//2 3//3
f 4//4 1//1 3//3
f 3//3 5//5 4//4
f 3//3 6//6 5//5
f 5//5 6//6 7//7
f 8//8 7//7 6//6
f 9//9 8//8 6//6
f 10//10 9//9 6//6
f 9//9 10//10 11//11
f 11//11 10//10 12//12
f 13//13 11//11 12//12
f 13//13 12//12 14//14
f 13//13 14//14 15//15
f 15//15 14//14 16//16
f 15//15 16//16 17//17
f 18//18 17//17 16//16
f 19//19 17//17 18//18
f 19//19 18//18 20//20
f 21//21 19//19 20//20
f 22//22 19//19 21//21
f 22//22 21//21 23//23
f 24//24 22//22 23//23
f 24//24 23//23 25//25
f 26//26 24//24 25//25
f 26//26 25//25 27//27
f 28//28 26//26 27//27
f 28//28 27//27 29//29
f 29//29 27//27 30//30
f 31//31 29//29 30//30
f 31//31 30//30 32//32
f 33//33 31//31 32//32
f 33//33 32//32 34//34
f 35//35 33//33 34//34
f 35//35 34//34 36//36
f 37//37 35//35 36//36
f 37//37 36//36 38//38
f 39//39 37//37 38//38
f 39//39 38//38 40//40
f 41//41 39//39 40//40
f 41//41 40//40 42//42
f 41//41 42//42 43//43
f 43//43 42//42 44//44
f 45//45 43//43 44//44
f 45//45 44//44 46//46
f 47//47 45//45 46//46
f 48//48 45//45 47//47
f 48//48 47//47 49//49
f 50//50 48//48 49//49
f 50//50 49//49 51//51
f 52//52 50//50 51//51
f 52//52 51//51 53//53
f 54//54 52//52 53//53
f 55//55 54//54 53//53
f 55//55 53//53 56//56
f 55//55 56//56 57//57
f 57//57 56//56 58//58
f 57//57 58//58 59//59
f 59//59 58//58 60//60
f 59//59 60//60 61//61
f 61//61 60//60 62//62
f 61//61 62//62 63//63
f 63//63 62//62 64//64
f 63//63 64//64 65//65
f 65//65 64//64 66//66
f 65//65 66//66 67//67
f 68//68 67//67 66//66
f 69//69 67//67 68//68
f 69//69 68//68 70//70
f 71//71 69//69 70//70
f 72//72 71//71 73//73
f 74//74 75//75 76//76
f 77//77 74//74 76//76
f 75//75 77//77 76//76
f 78//78 75//75 74//74
f 79//79 75//75 78//78
f 78//78 74//74 80//80
f 81//81 78//78 80//80
f 82//82 78//78 81//81
f 82//82 83//83 78//78
f 83//83 84//84 79//79
f 84//84 85//85 79//79
f 80//80 74//74 86//86
f 87//87 80//80 86//86
f 81//81 80//80 87//87
f 86//86 74//74 88//88
f 88//88 74//74 77//77
f 86//86 88//88 89//89
f 90//90 86//86 89//89
f 87//87 86//86 90//90
f 75//75 91//91 77//77
f 90//90 89//89 92//92
f 90//90 92//92 93//93
f 94//94 90//90 93//93
f 95//95 83//83 82//82
f 95//95 82//82 81//81
f 95//95 81//81 87//87
f 95//95 87//87 90//90
f 95//95 96//96 83//83
f 97//97 91//91 75//75
f 97//97 98//98 91//91
f 97//97 99//99 98//98
f 100//100 95//95 101//101
f 102//102 103//103 104//104
f 102//102 104//104 105//105
f 102//102 105//105 106//106
f 106//106 105//105 107//107
f 108//108 102//102 106//106
f 109//109 102//102 108//108
f 110//110 108//108 106//106
f 111//111 112//112 113//113
f 111//111 113//113 114//114
f 111//111 114//114 115//115
f 111//111 115//115 116//116
f 111//111 116//116 117//117
f 117//117 118//118 111//111
f 118//118 119//119 111//111
f 120//120 111//111 119//119
f 120//120 121//121 111//111
f 121//121 122//122 111//111
f 111//111 122//122 123//123
f 114//114 113//113 124//124
f 124//124 113//113 125//125
f 125//125 113//113 126//126
f 126//126 113//113 127//127
f 127//127 113//113 128//128
f 128//128 113//113 129//129
f 129//129 113//113 130//130
f 130//130 113//113 131//131
f 131//131 113//113 132//132
f 132//132 113//113 133//133
f 133//133 113//113 134//134
f 133//133 134//134 135//135
f 135//135 134//134 136//136
f 134//134 137//137 136//136
f 137//137 134//134 138//138
f 138//138 134//134 139//139
f 139//139 134//134 140//140
f 140//140 134//134 141//141
f 134//134 142//142 141//141
f 134//134 143//143 142//142
f 134//134 144//144 143//143
f 144//144 134//134 145//145
f 145//145 134//134 146//146
f 147//147 134//134 148//148
f 149//149 150//150 151//151
f 149//149 152//152 150//150
f 151//151 150//150 153//153
f 151//151 153//153 154//154
f 154//154 153//153 155//155
f 154//154 155//155 156//156
f 152//152 157//157 150//150
f 158//158 159//159 160//160
f 161//161 159//159 158//158
f 162//162 159//159 161//161
f 163//163 162//162 161//161
f 164//164 162//162 163//163
f 165//165 162//162 164//164
f 9//9 166//166 8//8
f 166//166 9//9 167//167
f 168//168 169//169 170//170
f 168//168 171//171 169//169
f 172//172 169//169 173//173
f 174//174 169//169 172//172
f 169//169 174//174 175//175
f 176//176 169//169 175//175
f 177//177 169//169 176//176
f 178//178 169//169 177//177
f 178//178 179//179 169//169
f 179//179 180//180 169//169
f 180//180 181//181 169//169
f 182//182 181//181 180//180
f 182//182 183//183 181//181
f 183//183 184//184 181//181
f 184//184 185//185 181//181
f 185//185 186//186 181//181
f 186//186 187//187 181//181
f 187//187 188//188 181//181
f 188//188 189//189 181//181
f 181//181 189//189 190//190
f 181//181 190//190 191//191
f 192//192 181//181 191//191
f 193//193 181//181 192//192
f 194//194 181//181 193//193
f 195//195 181//181 194//194
f 195//195 196//196 181//181
f 196//196 197//197 198//198
f 196//196 198//198 199//199
f 199//199 200//200 196//196
f 196//196 200//200 201//201
f 201//201 202//202 196//196
f 196//196 202//202 203//203
f 196//196 203//203 204//204
f 205//205 196//196 206//206
f 207//207 196//196 205//205
