v 9.999969 205.9343 -8.048885
v 50.00002 205.9343 -8.048886
v 9.999969 205.9343 -8.048885
v 9.999969 205.9343 -8.048883
v 9.999969 203.8149 -5.174284
v 9.999969 202.9671 -4.024444
v 9.999969 202.9671 -4.024444
v 50.00002 202.9671 -4.024445
v 90.00008 202.9671 -4.024445
v 9.999969 202.7277 -4.083708
v 90.00008 200.8119 -4.557832
v 9.999969 202.6979 -4.091074
v 90.00008 200.5441 -4.624112
v 9.999969 202.6896 -4.093141
v 90.00008 200.4689 -4.642721
v 9.999969 202.5957 -4.116379
v 90.00008 199.6239 -4.851861
v 9.999969 201.438 -4.402883
v 90.00008 199.4952 -4.883695
v 9.999969 200.3404 -4.674524
v 9.999969 200.2141 -4.705774
v 90.00008 199.3592 -4.917349
v 9.999969 199.9508 -4.770953
v 90.00008 199.33 -4.924591
v 9.999969 199.2524 -4.943797
v 90.00008 199.2524 -4.943797
v 9.999969 199.0781 -4.838655
v 90.00008 198.2926 -4.364846
v 90.00008 197.6837 -3.997535
v 9.999969 199.0348 -4.812568
v 90.00008 197.2945 -3.762754
v 9.999969 199.022 -4.804805
v 90.00008 197.1787 -3.692883
v 9.999969 198.9247 -4.746131
v 90.00008 196.3032 -3.164806
v 9.999969 197.8088 -4.072969
v 90.00008 196.1792 -3.09001
v 9.999969 196.8868 -3.516833
v 90.00008 196.0768 -3.028217
v 9.999969 195.9756 -2.967138
v 90.00008 195.9756 -2.967139
v 9.999969 195.9472 -2.852505
v 90.00008 195.7202 -1.935441
v 9.999969 195.8836 -2.595662
v 90.00008 195.1481 0.3761494
v 9.999969 195.7063 -1.87911
v 9.999969 195.6354 -1.592547
v 90.00008 195.1206 0.4876072
v 9.999969 195.3935 -0.6154192
v 90.00008 195.0937 0.5961748
v 9.999969 195.1944 0.1891405
v 90.00008 195.0716 0.6855728
v 9.999969 195.0562 0.7476254
v 90.00008 195.0562 0.7476241
v 90.00008 195.0562 0.7476256
v 9.999969 195.1737 0.9423766
v 90.00008 196.1135 2.500388
v 9.999969 195.2083 0.9997
v 90.00008 196.4247 3.016293
v 9.999969 195.2118 1.005552
v 90.00008 196.4565 3.068959
v 9.999969 195.2134 1.008265
v 90.00008 196.4712 3.093383
v 9.999969 195.2155 1.011696
v 90.00008 196.4899 3.124249
v 9.999969 195.2539 1.075307
v 90.00008 196.8352 3.696758
v 9.999969 197.0329 4.024437
v 90.00008 197.0329 4.02444
v 9.999969 197.0329 4.02444
v 90.00008 197.0329 4.02444
v 9.999969 197.0329 4.02444
v 9.999969 197.0329 4.02444
v 9.999969 196.1851 5.174281
v 9.999969 194.0657 8.048882
v 9.999969 194.0657 8.048882
v 9.999969 194.0657 8.048881
v 9.999969 197.0329 4.02444
v 9.999969 197.0329 4.02444
v 9.999969 197.0329 4.02444
v 90.00008 197.0329 4.02444
v 90.00008 197.0329 4.02444
v 90.00008 197.0329 4.02444
v 9.999969 197.0329 4.02444
v 9.999969 190.1124 1.495253
v 9.999969 197.0329 4.02444
v 90.00008 197.0329 4.02444
v 9.999969 197.0329 4.02444
v 50.00002 197.0329 4.02444
v 90.00008 197.0329 4.02444
v 50.00002 194.0657 8.048881
v 90.00003 197.0329 4.02444
v 90.00008 197.0329 4.02444
v 90.00008 196.1851 5.174279
v 90.00006 190.1124 1.495252
v 90.00008 197.0329 4.02444
v 9.999969 190.1124 1.495253
v 90.00008 194.0657 8.04888
v 90.00006 190.1124 1.495252
v 90.00008 195.0562 0.7476256
v 90.00008 195.0562 0.7476241
v 50.00002 205.9343 -8.048886
v 9.999969 205.9343 -8.048885
v 9.999969 205.9343 -8.048883
v 9.999969 203.8149 -5.174284
v 50.00002 202.9671 -4.024445
v 9.999969 202.9671 -4.024444
v 90.00008 204.1962 -5.691424
v 90.00008 205.9343 -8.048886
v 90.00008 202.9671 -4.024445
v 9.999969 205.9343 -8.048885
v 9.999969 198.5047 -9.887589
v 9.999969 191.9511 -5.934276
v 9.999969 199.2524 -4.943797
v 9.999969 199.9508 -4.770953
v 9.999969 200.2141 -4.705774
v 9.999969 200.3404 -4.674524
v 9.999969 201.438 -4.402883
v 9.999969 202.5957 -4.116379
v 9.999969 202.6896 -4.093141
v 9.999969 202.6979 -4.091074
v 9.999969 202.7277 -4.083708
v 9.999969 202.9671 -4.024444
v 9.999969 199.0781 -4.838655
v 9.999969 199.0348 -4.812568
v 9.999969 199.022 -4.804805
v 9.999969 198.9247 -4.746131
v 9.999969 197.8088 -4.072969
v 9.999969 196.8868 -3.516833
v 9.999969 195.9756 -2.967138
v 9.999969 195.9472 -2.852505
v 9.999969 195.8836 -2.595662
v 9.999969 195.7063 -1.87911
v 9.999969 190.1124 1.495253
v 9.999969 195.6354 -1.592547
v 9.999969 195.3935 -0.6154192
v 9.999969 195.1944 0.1891405
v 9.999969 195.0562 0.7476254
v 9.999969 195.1737 0.9423766
v 9.999969 195.2083 0.9997
v 9.999969 195.2118 1.005552
v 9.999969 195.2134 1.008265
v 9.999969 195.2155 1.011696
v 9.999969 195.2539 1.075307
v 9.999969 197.0329 4.024437
v 9.999969 197.0329 4.02444
v 9.999969 197.0329 4.02444
v 9.999969 194.0657 8.048882
v 9.999969 205.9343 -8.048885
v 90.00006 198.5047 -9.887589
v 9.999969 198.5047 -9.887589
v 50.00002 205.9343 -8.048886
v 90.00006 191.9511 -5.934276
v 9.999969 191.9511 -5.934276
v 90.00006 190.1124 1.495252
v 9.999969 190.1124 1.495253
v 90.00008 205.9343 -8.048886
v 9.999969 194.0657 8.048881
v 50.00002 197.0329 4.02444
v 9.999969 197.0329 4.02444
v 50.00002 194.0657 8.048881
v 90.00003 197.0329 4.02444
v 90.00008 194.0657 8.04888
v 90.00008 196.1851 5.174279
v 90.00008 197.0329 4.02444
v 90.00008 202.9671 -4.024445
v 90.00006 198.5047 -9.887589
v 90.00008 204.1962 -5.691424
v 90.00006 198.5047 -9.887589
v 90.00008 205.9343 -8.048886
v 90.00008 202.9671 -4.024445
v 90.00008 200.8119 -4.557832
v 90.00008 202.9671 -4.024445
v 90.00008 200.5441 -4.624112
v 90.00008 200.4689 -4.642721
v 90.00008 199.6239 -4.851861
v 90.00008 199.4952 -4.883695
v 90.00008 199.3592 -4.917349
v 90.00008 199.33 -4.924591
v 90.00008 199.2524 -4.943797
v 90.00006 191.9511 -5.934276
v 90.00008 198.2926 -4.364846
v 90.00008 197.6837 -3.997535
v 90.00008 197.2945 -3.762754
v 90.00008 197.1787 -3.692883
v 90.00008 196.3032 -3.164806
v 90.00008 196.1792 -3.09001
v 90.00008 196.0768 -3.028217
v 90.00008 195.9756 -2.967139
v 90.00008 195.7202 -1.935441
v 90.00008 195.1481 0.3761494
v 90.00008 195.1206 0.4876072
v 90.00008 195.0937 0.5961748
v 90.00008 195.0716 0.6855728
v 90.00008 195.0562 0.7476241
v 90.00006 190.1124 1.495252
v 90.00008 195.0562 0.7476256
v 90.00008 196.1135 2.500388
v 90.00008 196.4247 3.016293
v 90.00008 196.4565 3.068959
v 90.00008 196.4712 3.093383
v 90.00008 196.4899 3.124249
v 90.00008 196.8352 3.696758
v 90.00008 197.0329 4.02444
v 90.00008 196.1851 5.174279
v 90.00008 197.0329 4.02444
v 90.00008 194.0657 8.04888

vn -4.744526E-07 0.5934271 -0.8048879
vn -3.218648E-07 0.5934271 -0.8048879
vn -0.6507914 0.4505634 -0.6111165
vn -1 -2.980232E-08 -5.960464E-08
vn -1 -2.980232E-08 -5.960464E-08
vn 2.096142E-08 -0.2402332 0.9707153
vn -0.141421 -0.587463 0.7967985
vn 2.031041E-07 0.6407941 0.7677127
vn 2.987761E-07 -0.2402377 0.9707142
vn 2.576545E-07 -0.2402385 0.9707141
vn 2.963965E-07 -0.2402382 0.9707141
vn 3.799803E-07 -0.2402372 0.9707144
vn 4.384927E-07 -0.2402361 0.9707146
vn -1.532235E-07 -0.2402418 0.9707132
vn 1.343396E-07 -0.2402391 0.9707139
vn 1.824078E-07 -0.2402385 0.970714
vn 1.652589E-07 -0.2402387 0.9707141
vn 1.640961E-07 -0.2402388 0.970714
vn 1.780581E-07 -0.2402385 0.970714
vn 1.972529E-07 -0.2402388 0.970714
vn 1.914662E-07 -0.2402377 0.9707142
vn 2.341531E-07 -0.2402361 0.9707146
vn 1.236632E-07 -0.2402383 0.970714
vn 1.374792E-07 -0.2402391 0.9707139
vn 1.484049E-07 -0.09107476 0.9958442
vn 2.107941E-07 0.4810712 0.8766816
vn 2.685788E-07 0.5165265 0.8562713
vn 2.290904E-07 0.5165257 0.8562716
vn 2.093915E-07 0.5165255 0.8562719
vn 5.606833E-08 0.5165238 0.856273
vn -2.838752E-08 0.5165226 0.8562736
vn -2.446293E-07 0.5165212 0.8562745
vn 2.197845E-08 0.5165236 0.8562731
vn 2.002121E-07 0.5165246 0.8562723
vn 2.593153E-07 0.5165251 0.8562722
vn 3.180517E-07 0.5165251 0.856272
vn 2.194757E-07 0.5165241 0.8562726
vn 2.401327E-07 0.5165248 0.8562723
vn 2.809633E-07 0.5165258 0.8562717
vn 2.941159E-07 0.5717638 0.8204184
vn 1.673319E-07 0.9527487 0.3037601
vn 1.290334E-07 0.9707136 0.2402394
vn 1.564787E-07 0.970714 0.2402384
vn 1.971669E-07 0.9707142 0.2402377
vn 1.686905E-07 0.9707141 0.2402377
vn 1.509363E-07 0.9707139 0.2402381
vn 2.476198E-08 0.9707139 0.2402387
vn 9.422754E-08 0.970714 0.2402382
vn 7.17698E-08 0.970714 0.2402386
vn 6.425235E-08 0.9707139 0.2402382
vn 5.731469E-08 0.970714 0.2402383
vn 4.862991E-08 0.9707138 0.2402387
vn -7.722767E-09 0.9990213 0.04423311
vn 4.659286E-08 0.9707083 0.2402613
vn -8.388265E-08 0.8562726 -0.5165243
vn -3.885205E-08 0.8562719 -0.5165253
vn -1.98784E-09 0.8562717 -0.5165258
vn 1.059572E-07 0.856271 -0.5165268
vn -9.523539E-08 0.8562722 -0.516525
vn -3.836245E-07 0.8562731 -0.5165237
vn -6.626082E-07 0.8562744 -0.5165213
vn -6.278492E-06 0.8562978 -0.5164826
vn -2.695751E-06 0.8562831 -0.5165069
vn 6.576057E-07 0.8562684 -0.5165313
vn 2.683319E-07 0.8562706 -0.5165278
vn -6.92772E-08 0.856272 -0.5165253
vn -9.487817E-08 0.8562723 -0.5165247
vn -9.465889E-08 0.8562725 -0.5165246
vn -2.467838E-08 0.8562751 -0.5165203
vn -2.673035E-08 0.930699 -0.3657862
vn -1.311301E-07 0.5934271 -0.8048879
vn -1.311301E-07 0.5934271 -0.8048879
vn -1.311301E-07 0.5934271 -0.8048879
vn -1 -2.980232E-08 -5.960464E-08
vn 2.271418E-07 -0.8562722 0.5165251
vn -1 -2.980232E-08 -5.960464E-08
vn 1.895775E-07 0.7209397 0.6929979
vn -0.7603925 0.3854094 -0.5227456
vn -0.8262196 0.3343062 -0.4534323
vn -0.07104915 0.5919274 -0.8028538
vn -1.311304E-07 0.5934271 -0.8048879
vn -1.311301E-07 0.5934271 -0.8048879
vn -1.311297E-07 0.5934271 -0.8048879
vn -0.1030028 0.5902707 -0.8006067
vn -1 -2.980232E-08 -5.960464E-08
vn -0.0126633 0.5933841 -0.8048199
vn -1.311311E-07 0.5934271 -0.8048879
vn -0.1414215 0.5874628 -0.7967983
vn -1.311313E-07 0.5934218 -0.8048918
vn 0.06004167 0.5923514 -0.8034395
vn 1.568169E-07 -0.8562721 0.516525
vn -1.311336E-07 0.593408 -0.8049019
vn 1 4.149822E-06 -5.528535E-06
vn 1 2.980232E-08 5.960464E-08
vn 1 -3.175739E-07 -1.965087E-07
vn 0 0 0
vn 1.466261E-07 -0.8562722 0.516525
vn 1.113308E-07 -0.8562722 0.516525
vn 1.364354E-07 -0.8562722 0.5165251
vn 1 -3.175739E-07 -1.965087E-07
vn 1 -3.175739E-07 -1.965087E-07
vn 1.490116E-07 0.8048878 0.5934271
vn 1.490116E-07 0.8048877 0.5934271
vn 1.490116E-07 0.8048878 0.5934271
vn 1.490116E-07 0.8048878 0.5934271
vn 1.490116E-07 0.8048878 0.5934271
vn 1.490116E-07 0.8048878 0.5934271
vn 1.490116E-07 0.8048878 0.5934271
vn 1.490116E-07 0.8048878 0.5934271
vn 1.490116E-07 0.8048878 0.5934271
vn -1 -2.980232E-08 -5.960464E-08
vn -1 -2.980232E-08 -5.960464E-08
vn -1 -2.980232E-08 -5.960464E-08
vn -1 -2.980232E-08 -5.960464E-08
vn -1 -2.980232E-08 -5.960464E-08
vn -1 -2.980232E-08 -5.960464E-08
vn -1 -2.980232E-08 -5.960464E-08
vn -1 -2.980232E-08 -5.960464E-08
vn -1 -2.980232E-08 -5.960464E-08
vn -1 -2.980232E-08 -5.960464E-08
vn -1 -2.980232E-08 -5.960464E-08
vn -1 -2.980232E-08 -5.960464E-08
vn -1 -2.980232E-08 -5.960464E-08
vn -1 -2.980232E-08 -5.960464E-08
vn -1 -2.980232E-08 -5.960464E-08
vn -1 -2.980232E-08 -5.960464E-08
vn -1 -2.980232E-08 -5.960464E-08
vn -1 -2.980232E-08 -5.960464E-08
vn -1 -2.980232E-08 -5.960464E-08
vn -1 -2.980232E-08 -5.960464E-08
vn -1 -2.980232E-08 -5.960464E-08
vn -1 -2.980232E-08 -5.960464E-08
vn -1 -2.980232E-08 -5.960464E-08
vn -1 -2.980232E-08 -5.960464E-08
vn -1 -2.980232E-08 -5.960464E-08
vn -1 -2.980232E-08 -5.960464E-08
vn -1 -2.980232E-08 -5.960464E-08
vn -1 -2.980232E-08 -5.960464E-08
vn -1 -2.980232E-08 -5.960464E-08
vn -1 -2.980232E-08 -5.960464E-08
vn -1 -2.980232E-08 -5.960464E-08
vn -1 -2.980232E-08 -5.960464E-08
vn -1 -2.980232E-08 -5.960464E-08
vn -1 -2.980232E-08 -5.960464E-08
vn -1 -2.980232E-08 -5.960464E-08
vn -1 -2.980232E-08 -5.960464E-08
vn -1 -2.980232E-08 -5.960464E-08
vn -1 -2.980232E-08 -5.960464E-08
vn -2.991264E-07 0.2402381 -0.9707142
vn -2.797196E-07 -0.01288402 -0.9999171
vn -2.497116E-07 -0.2833562 -0.9590148
vn -2.800753E-07 0.2402381 -0.970714
vn -1.744818E-07 -0.7161586 -0.6979377
vn -1.112581E-07 -0.8784889 -0.4777629
vn -5.758885E-08 -0.970714 -0.2402381
vn -5.034346E-08 -0.970714 -0.2402381
vn -2.134158E-07 0.2402382 -0.9707141
vn 1.490116E-07 0.8048878 0.5934271
vn 1.490116E-07 0.8048878 0.5934271
vn 1.490116E-07 0.8048878 0.5934271
vn 1.490116E-07 0.8048878 0.5934271
vn 1.490116E-07 0.8048878 0.5934271
vn 1.490116E-07 0.8048878 0.5934271
vn 1.581816E-07 0.8048878 0.5934271
vn 1.581816E-07 0.8048877 0.5934271
vn 0.2028032 -0.5810954 0.7881619
vn 1 4.67015E-07 -5.334036E-07
vn 1 -1.438858E-07 -6.845201E-08
vn 1 -9.204916E-08 -1.688847E-07
vn 1 -1.438858E-07 -6.845201E-08
vn 1 -1.438858E-07 -6.845201E-08
vn 1 1.091576E-07 -2.610414E-07
vn 1 1.091577E-07 -2.610414E-07
vn 1 1.091571E-07 -2.610411E-07
vn 1 1.091579E-07 -2.610414E-07
vn 1 1.09158E-07 -2.610414E-07
vn 1 1.091574E-07 -2.610413E-07
vn 1 1.091551E-07 -2.610409E-07
vn 1 1.091604E-07 -2.610418E-07
vn 1 -1.385591E-07 -2.235803E-07
vn 1 -2.158299E-07 -1.214949E-07
vn 1 -1.408161E-07 -2.232384E-07
vn 1 -1.408159E-07 -2.232389E-07
vn 1 -1.408157E-07 -2.232397E-07
vn 1 -1.408159E-07 -2.232392E-07
vn 1 -1.408159E-07 -2.232392E-07
vn 1 -1.40816E-07 -2.232391E-07
vn 1 -1.408163E-07 -2.232386E-07
vn 1 -2.758231E-07 -4.012359E-08
vn 1 -2.908438E-07 -1.975076E-08
vn 1 -2.908439E-07 -1.97506E-08
vn 1 -2.908431E-07 -1.975096E-08
vn 1 -2.908448E-07 -1.975018E-08
vn 1 -2.90844E-07 -1.975052E-08
vn 1 -2.908436E-07 -1.975074E-08
vn 1 -2.245001E-07 1.076354E-08
vn 1 -2.530413E-07 2.302231E-07
vn 1 -2.530414E-07 2.302233E-07
vn 1 -2.530415E-07 2.302237E-07
vn 1 -2.530397E-07 2.302166E-07
vn 1 -2.530418E-07 2.302244E-07
vn 1 -2.530415E-07 2.302239E-07
vn 1 -2.530411E-07 2.302224E-07
vn 1 -2.530407E-07 2.302213E-07
vn 1 -1.438858E-07 -6.845201E-08
vn 1 -1.438858E-07 -6.845201E-08
vn 1 -1.438858E-07 -6.845202E-08

f 1//1 2//2 3//3
f 4//4 1//1 3//3
f 3//3 5//5 4//4
f 3//3 6//6 5//5
f 5//5 6//6 7//7
f 8//8 7//7 6//6
f 9//9 8//8 6//6
f 10//10 9//9 6//6
f 9//9 10//10 11//11
f 11//11 10//10 12//12
f 13//13 11//11 12//12
f 13//13 12//12 14//14
f 13//13 14//14 15//15
f 15//15 14//14 16//16
f 15//15 16//16 17//17
f 18//18 17//17 16//16
f 19//19 17//17 18//18
f 19//19 18//18 20//20
f 21//21 19//19 20//20
f 22//22 19//19 21//21
f 22//22 21//21 23//23
f 24//24 22//22 23//23
f 24//24 23//23 25//25
f 26//26 24//24 25//25
f 26//26 25//25 27//27
f 28//28 26//26 27//27
f 28//28 27//27 29//29
f 29//29 27//27 30//30
f 31//31 29//29 30//30
f 31//31 30//30 32//32
f 33//33 31//31 32//32
f 33//33 32//32 34//34
f 35//35 33//33 34//34
f 35//35 34//34 36//36
f 37//37 35//35 36//36
f 37//37 36//36 38//38
f 39//39 37//37 38//38
f 39//39 38//38 40//40
f 41//41 39//39 40//40
f 41//41 40//40 42//42
f 41//41 42//42 43//43
f 43//43 42//42 44//44
f 45//45 43//43 44//44
f 45//45 44//44 46//46
f 47//47 45//45 46//46
f 48//48 45//45 47//47
f 48//48 47//47 49//49
f 50//50 48//48 49//49
f 50//50 49//49 51//51
f 52//52 50//50 51//51
f 52//52 51//51 53//53
f 54//54 52//52 53//53
f 55//55 54//54 53//53
f 55//55 53//53 56//56
f 55//55 56//56 57//57
f 57//57 56//56 58//58
f 57//57 58//58 59//59
f 59//59 58//58 60//60
f 59//59 60//60 61//61
f 61//61 60//60 62//62
f 61//61 62//62 63//63
f 63//63 62//62 64//64
f 63//63 64//64 65//65
f 65//65 64//64 66//66
f 65//65 66//66 67//67
f 68//68 67//67 66//66
f 69//69 67//67 68//68
f 69//69 68//68 70//70
f 71//71 69//69 70//70
f 72//72 71//71 73//73
f 74//74 75//75 76//76
f 77//77 74//74 76//76
f 75//75 77//77 76//76
f 78//78 75//75 74//74
f 79//79 75//75 78//78
f 78//78 74//74 80//80
f 81//81 78//78 80//80
f 82//82 78//78 81//81
f 82//82 83//83 78//78
f 83//83 84//84 79//79
f 84//84 85//85 79//79
f 80//80 74//74 86//86
f 87//87 80//80 86//86
f 81//81 80//80 87//87
f 86//86 74//74 88//88
f 88//88 74//74 77//77
f 86//86 88//88 89//89
f 90//90 86//86 89//89
f 87//87 86//86 90//90
f 75//75 91//91 77//77
f 90//90 89//89 92//92
f 90//90 92//92 93//93
f 94//94 90//90 93//93
f 95//95 83//83 82//82
f 95//95 82//82 81//81
f 95//95 81//81 87//87
f 95//95 87//87 90//90
f 95//95 96//96 83//83
f 97//97 91//91 75//75
f 97//97 98//98 91//91
f 97//97 99//99 98//98
f 100//100 95//95 101//101
f 102//102 103//103 104//104
f 102//102 104//104 105//105
f 102//102 105//105 106//106
f 106//106 105//105 107//107
f 108//108 102//102 106//106
f 109//109 102//102 108//108
f 110//110 108//108 106//106
f 111//111 112//112 113//113
f 111//111 113//113 114//114
f 111//111 114//114 115//115
f 111//111 115//115 116//116
f 111//111 116//116 117//117
f 117//117 118//118 111//111
f 118//118 119//119 111//111
f 120//120 111//111 119//119
f 120//120 121//121 111//111
f 121//121 122//122 111//111
f 111//111 122//122 123//123
f 114//114 113//113 124//124
f 124//124 113//113 125//125
f 125//125 113//113 126//126
f 126//126 113//113 127//127
f 127//127 113//113 128//128
f 128//128 113//113 129//129
f 129//129 113//113 130//130
f 130//130 113//113 131//131
f 131//131 113//113 132//132
f 132//132 113//113 133//133
f 133//133 113//113 134//134
f 133//133 134//134 135//135
f 135//135 134//134 136//136
f 134//134 137//137 136//136
f 137//137 134//134 138//138
f 138//138 134//134 139//139
f 139//139 134//134 140//140
f 140//140 134//134 141//141
f 134//134 142//142 141//141
f 134//134 143//143 142//142
f 134//134 144//144 143//143
f 144//144 134//134 145//145
f 145//145 134//134 146//146
f 147//147 134//134 148//148
f 149//149 150//150 151//151
f 149//149 152//152 150//150
f 151//151 150//150 153//153
f 151//151 153//153 154//154
f 154//154 153//153 155//155
f 154//154 155//155 156//156
f 152//152 157//157 150//150
f 158//158 159//159 160//160
f 161//161 159//159 158//158
f 162//162 159//159 161//161
f 163//163 162//162 161//161
f 164//164 162//162 163//163
f 165//165 162//162 164//164
f 9//9 166//166 8//8
f 166//166 9//9 167//167
f 168//168 169//169 170//170
f 168//168 171//171 169//169
f 172//172 169//169 173//173
f 174//174 169//169 172//172
f 169//169 174//174 175//175
f 176//176 169//169 175//175
f 177//177 169//169 176//176
f 178//178 169//169 177//177
f 178//178 179//179 169//169
f 179//179 180//180 169//169
f 180//180 181//181 169//169
f 182//182 181//181 180//180
f 182//182 183//183 181//181
f 183//183 184//184 181//181
f 184//184 185//185 181//181
f 185//185 186//186 181//181
f 186//186 187//187 181//181
f 187//187 188//188 181//181
f 188//188 189//189 181//181
f 181//181 189//189 190//190
f 181//181 190//190 191//191
f 192//192 181//181 191//191
f 193//193 181//181 192//192
f 194//194 181//181 193//193
f 195//195 181//181 194//194
f 195//195 196//196 181//181
f 196//196 197//197 198//198
f 196//196 198//198 199//199
f 199//199 200//200 196//196
f 196//196 200//200 201//201
f 201//201 202//202 196//196
f 196//196 202//202 203//203
f 196//196 203//203 204//204
f 205//205 196//196 206//206
f 207//207 196//196 205//205
