v 9.999985 -7.179805 -93.03937
v 50.00002 -7.179809 -93.03936
v 9.999985 -7.179804 -93.03936
v 9.999985 -7.179803 -93.03937
v 9.999985 -4.615588 -95.52531
v 9.999985 -3.589901 -96.51968
v 9.999985 -3.589902 -96.51968
v 50.00002 -3.589906 -96.51968
v 90.00006 -3.589909 -96.51967
v 9.999985 -3.363476 -96.42176
v 90.00006 -1.552084 -95.63834
v 9.999985 -3.335341 -96.40959
v 90.00006 -1.298855 -95.52882
v 9.999985 -3.327441 -96.40617
v 90.00006 -1.22776 -95.49807
v 9.999985 -3.23866 -96.36777
v 90.00006 -0.4287335 -95.1525
v 9.999985 -2.144065 -95.89437
v 90.00006 -0.3071125 -95.0999
v 9.999985 -1.10625 -95.44553
v 9.999985 -0.9868597 -95.39389
v 90.00006 -0.1785343 -95.04429
v 9.999985 -0.7378451 -95.28619
v 90.00006 -0.1508663 -95.03232
v 9.999985 -0.07748578 -95.0006
v 90.00006 -0.07749179 -95.00059
v 9.999985 0.1117583 -95.07557
v 90.00006 0.9645666 -95.41342
v 90.00006 1.625693 -95.67534
v 9.999985 0.1587114 -95.09418
v 90.00006 2.048279 -95.84276
v 9.999985 0.1726851 -95.09971
v 90.00006 2.17404 -95.89258
v 9.999985 0.278295 -95.14155
v 90.00006 3.124535 -96.26913
v 9.999985 1.489924 -95.62157
v 90.00006 3.25916 -96.32247
v 9.999985 2.490922 -96.01813
v 90.00006 3.370383 -96.36654
v 9.999985 3.480321 -96.4101
v 90.00006 3.480316 -96.41009
v 9.999985 3.527198 -96.51849
v 90.00006 3.90221 -97.38559
v 9.999985 3.63223 -96.76134
v 90.00006 4.847491 -99.57127
v 9.999985 3.92525 -97.43887
v 9.999985 4.042435 -97.70982
v 90.00006 4.893069 -99.67665
v 9.999985 4.442013 -98.63372
v 90.00006 4.937467 -99.7793
v 9.999985 4.771024 -99.39445
v 90.00006 4.974023 -99.86383
v 9.999985 4.999406 -99.92252
v 90.00006 4.999399 -99.9225
v 90.00006 4.9994 -99.92251
v 9.999985 4.915636 -100.134
v 90.00006 4.24546 -101.8256
v 9.999985 4.890977 -100.1962
v 90.00006 4.023545 -102.3857
v 9.999985 4.88846 -100.2026
v 90.00006 4.000892 -102.4429
v 9.999985 4.887292 -100.2055
v 90.00006 3.990387 -102.4694
v 9.999985 4.885818 -100.2092
v 90.00006 3.977109 -102.5029
v 9.999985 4.858456 -100.2783
v 90.00006 3.730848 -103.1245
v 9.999985 3.589905 -103.4803
v 90.00006 3.589899 -103.4803
v 9.999985 3.589905 -103.4803
v 90.00006 3.589899 -103.4803
v 9.999985 3.589905 -103.4803
v 9.999985 3.589905 -103.4803
v 9.999985 4.615592 -104.4747
v 9.999985 7.179808 -106.9606
v 9.999985 7.179808 -106.9606
v 9.999985 7.179806 -106.9606
v 9.999985 3.589905 -103.4803
v 9.999985 3.589905 -103.4803
v 9.999985 3.589905 -103.4803
v 90.00006 3.589899 -103.4803
v 90.00006 3.589899 -103.4803
v 90.00006 3.589899 -103.4803
v 9.999985 3.589905 -103.4803
v 9.999985 9.99881 -99.84503
v 9.999985 3.589905 -103.4803
v 90.00006 3.589899 -103.4803
v 9.999985 3.589905 -103.4803
v 50.00002 3.589901 -103.4803
v 90.00006 3.589899 -103.4803
v 50.00002 7.179803 -106.9606
v 90.00002 3.589899 -103.4803
v 90.00006 3.589899 -103.4803
v 90.00006 4.615584 -104.4747
v 90.00005 9.998802 -99.84502
v 90.00006 3.589899 -103.4803
v 9.999985 9.99881 -99.84503
v 90.00006 7.1798 -106.9606
v 90.00005 9.998802 -99.84502
v 90.00006 4.9994 -99.92251
v 90.00006 4.999399 -99.9225
v 50.00002 -7.179809 -93.03936
v 9.999985 -7.179805 -93.03937
v 9.999985 -7.179803 -93.03937
v 9.999985 -4.615588 -95.52531
v 50.00002 -3.589906 -96.51968
v 9.999985 -3.589902 -96.51968
v 90.00006 -5.076896 -95.07807
v 90.00006 -7.179812 -93.03935
v 90.00006 -3.589909 -96.51967
v 9.999985 -7.179804 -93.03936
v 9.999985 -0.1549709 -90.0012
v 9.999985 6.960643 -92.8202
v 9.999985 -0.07748578 -95.0006
v 9.999985 -0.7378451 -95.28619
v 9.999985 -0.9868597 -95.39389
v 9.999985 -1.10625 -95.44553
v 9.999985 -2.144065 -95.89437
v 9.999985 -3.23866 -96.36777
v 9.999985 -3.327441 -96.40617
v 9.999985 -3.335341 -96.40959
v 9.999985 -3.363476 -96.42176
v 9.999985 -3.589901 -96.51968
v 9.999985 0.1117583 -95.07557
v 9.999985 0.1587114 -95.09418
v 9.999985 0.1726851 -95.09971
v 9.999985 0.278295 -95.14155
v 9.999985 1.489924 -95.62157
v 9.999985 2.490922 -96.01813
v 9.999985 3.480321 -96.4101
v 9.999985 3.527198 -96.51849
v 9.999985 3.63223 -96.76134
v 9.999985 3.92525 -97.43887
v 9.999985 9.99881 -99.84503
v 9.999985 4.042435 -97.70982
v 9.999985 4.442013 -98.63372
v 9.999985 4.771024 -99.39445
v 9.999985 4.999406 -99.92252
v 9.999985 4.915636 -100.134
v 9.999985 4.890977 -100.1962
v 9.999985 4.88846 -100.2026
v 9.999985 4.887292 -100.2055
v 9.999985 4.885818 -100.2092
v 9.999985 4.858456 -100.2783
v 9.999985 3.589905 -103.4803
v 9.999985 3.589905 -103.4803
v 9.999985 3.589905 -103.4803
v 9.999985 7.179808 -106.9606
v 9.999985 -7.179804 -93.03936
v 90.00005 -0.1549784 -90.00118
v 9.999985 -0.1549709 -90.0012
v 50.00002 -7.179809 -93.03936
v 90.00005 6.960636 -92.82018
v 9.999985 6.960643 -92.8202
v 90.00005 9.998802 -99.84502
v 9.999985 9.99881 -99.84503
v 90.00006 -7.179812 -93.03935
v 9.999985 7.179806 -106.9606
v 50.00002 3.589901 -103.4803
v 9.999985 3.589905 -103.4803
v 50.00002 7.179803 -106.9606
v 90.00002 3.589899 -103.4803
v 90.00006 7.1798 -106.9606
v 90.00006 4.615584 -104.4747
v 90.00006 3.589899 -103.4803
v 90.00006 -3.589909 -96.51967
v 90.00005 -0.1549784 -90.00118
v 90.00006 -5.076896 -95.07807
v 90.00005 -0.1549784 -90.00118
v 90.00006 -7.179812 -93.03935
v 90.00006 -3.589909 -96.51967
v 90.00006 -1.552084 -95.63834
v 90.00006 -3.589909 -96.51967
v 90.00006 -1.298855 -95.52882
v 90.00006 -1.22776 -95.49807
v 90.00006 -0.4287335 -95.1525
v 90.00006 -0.3071125 -95.0999
v 90.00006 -0.1785343 -95.04429
v 90.00006 -0.1508663 -95.03232
v 90.00006 -0.07749179 -95.00059
v 90.00005 6.960636 -92.82018
v 90.00006 0.9645666 -95.41342
v 90.00006 1.625693 -95.67534
v 90.00006 2.048279 -95.84276
v 90.00006 2.17404 -95.89258
v 90.00006 3.124535 -96.26913
v 90.00006 3.25916 -96.32247
v 90.00006 3.370383 -96.36654
v 90.00006 3.480316 -96.41009
v 90.00006 3.90221 -97.38559
v 90.00006 4.847491 -99.57127
v 90.00006 4.893069 -99.67665
v 90.00006 4.937467 -99.7793
v 90.00006 4.974023 -99.86383
v 90.00006 4.999399 -99.9225
v 90.00005 9.998802 -99.84502
v 90.00006 4.9994 -99.92251
v 90.00006 4.24546 -101.8256
v 90.00006 4.023545 -102.3857
v 90.00006 4.000892 -102.4429
v 90.00006 3.990387 -102.4694
v 90.00006 3.977109 -102.5029
v 90.00006 3.730848 -103.1245
v 90.00006 3.589899 -103.4803
v 90.00006 4.615584 -104.4747
v 90.00006 3.589899 -103.4803
v 90.00006 7.1798 -106.9606

vn -5.638595E-07 -0.7179801 0.6960636
vn -4.112717E-07 -0.7179801 0.6960636
vn -0.6507914 -0.5451311 0.5284908
vn -1 5.960464E-08 -8.940697E-08
vn -1 5.960464E-08 -8.940697E-08
vn 1.149675E-07 0.3969506 -0.9178399
vn -0.1414209 0.7107642 -0.689068
vn 2.533008E-07 -0.5054869 -0.8628342
vn 3.927822E-07 0.3969549 -0.9178381
vn 3.516606E-07 0.3969557 -0.9178379
vn 3.904026E-07 0.3969553 -0.9178379
vn 4.739864E-07 0.3969544 -0.9178384
vn 5.324987E-07 0.3969534 -0.9178388
vn -5.92173E-08 0.3969588 -0.9178365
vn 2.283458E-07 0.3969562 -0.9178376
vn 2.764139E-07 0.3969557 -0.9178377
vn 2.592651E-07 0.3969559 -0.9178378
vn 2.581023E-07 0.3969559 -0.9178377
vn 2.720643E-07 0.3969557 -0.9178378
vn 2.91259E-07 0.396956 -0.9178377
vn 2.854723E-07 0.3969549 -0.9178382
vn 3.281592E-07 0.3969535 -0.9178387
vn 2.176693E-07 0.3969555 -0.9178379
vn 2.314853E-07 0.3969563 -0.9178376
vn 2.403279E-07 0.2539744 -0.967211
vn 2.754027E-07 -0.3299873 -0.9439853
vn 3.303269E-07 -0.3683219 -0.9296984
vn 2.908386E-07 -0.3683211 -0.9296986
vn 2.711397E-07 -0.3683208 -0.9296988
vn 1.178167E-07 -0.3683189 -0.9296997
vn 3.336097E-08 -0.3683176 -0.9297
vn -1.828807E-07 -0.3683161 -0.9297006
vn 8.372685E-08 -0.3683187 -0.9296997
vn 2.619603E-07 -0.3683198 -0.9296991
vn 3.210635E-07 -0.3683204 -0.929699
vn 3.798E-07 -0.3683204 -0.9296989
vn 2.812241E-07 -0.3683193 -0.9296993
vn 3.01881E-07 -0.36832 -0.9296991
vn 3.427116E-07 -0.3683211 -0.9296986
vn 3.510442E-07 -0.4287133 -0.9034407
vn 1.668679E-07 -0.889648 -0.4566472
vn 1.223528E-07 -0.9178374 -0.3969566
vn 1.49798E-07 -0.9178379 -0.3969556
vn 1.904861E-07 -0.9178382 -0.396955
vn 1.620096E-07 -0.9178381 -0.396955
vn 1.442555E-07 -0.9178379 -0.3969553
vn 1.808125E-08 -0.9178377 -0.3969559
vn 8.754676E-08 -0.9178379 -0.3969555
vn 6.508906E-08 -0.9178379 -0.3969558
vn 5.757157E-08 -0.9178379 -0.3969555
vn 5.063392E-08 -0.917838 -0.3969555
vn 4.194917E-08 -0.9178377 -0.3969559
vn -3.279788E-08 -0.9780656 -0.2082973
vn 3.991431E-08 -0.9178285 -0.3969773
vn -1.55079E-07 -0.9296994 0.3683193
vn -1.100485E-07 -0.9296988 0.3683205
vn -7.318432E-08 -0.9296988 0.368321
vn 3.476064E-08 -0.9296982 0.368322
vn -1.664318E-07 -0.9296991 0.3683202
vn -4.548208E-07 -0.9296997 0.3683187
vn -7.338043E-07 -0.9297006 0.3683161
vn -6.349685E-06 -0.9297173 0.368274
vn -2.766946E-06 -0.9297069 0.3683004
vn 5.864088E-07 -0.9296964 0.3683269
vn 1.971352E-07 -0.9296979 0.3683231
vn -1.404736E-07 -0.9296989 0.3683204
vn -1.660746E-07 -0.9296991 0.3683198
vn -1.658553E-07 -0.9296992 0.3683196
vn -9.587446E-08 -0.9297011 0.368315
vn -8.657685E-08 -0.9782615 0.2073753
vn -2.20537E-07 -0.7179801 0.6960636
vn -2.20537E-07 -0.7179801 0.6960636
vn -2.20537E-07 -0.7179801 0.6960636
vn -1 5.960464E-08 -8.940697E-08
vn 2.983383E-07 0.929699 -0.3683202
vn -1 5.960464E-08 -8.940697E-08
vn 2.307465E-07 -0.5968515 -0.8023518
vn -0.7603925 -0.4663021 0.4520681
vn -0.8262196 -0.4044729 0.3921262
vn -0.07104923 -0.7161657 0.6943045
vn -2.205373E-07 -0.7179801 0.6960636
vn -2.20537E-07 -0.7179801 0.6960636
vn -2.205367E-07 -0.7179801 0.6960636
vn -0.1030029 -0.7141613 0.6923613
vn -1 5.960464E-08 -8.940697E-08
vn -0.01266339 -0.7179266 0.6960037
vn -2.20538E-07 -0.7179801 0.6960636
vn -0.1414215 -0.7107641 0.6890678
vn -2.205385E-07 -0.7179756 0.6960683
vn 0.06004158 -0.7166805 0.6948124
vn 2.280133E-07 0.929699 -0.3683202
vn -2.205413E-07 -0.7179637 0.6960806
vn 1 -5.044365E-06 4.922007E-06
vn 1 -5.960464E-08 8.940697E-08
vn 1 2.408049E-07 3.992753E-07
vn 0 0 0
vn 2.178225E-07 0.9296991 -0.3683201
vn 1.825272E-07 0.9296991 -0.3683202
vn 2.076318E-07 0.9296991 -0.3683202
vn 1 2.408049E-07 3.992753E-07
vn 1 2.408049E-07 3.992753E-07
vn 1.788139E-07 -0.6960636 -0.7179801
vn 1.788139E-07 -0.6960636 -0.7179801
vn 1.788139E-07 -0.6960636 -0.7179801
vn 1.788139E-07 -0.6960636 -0.7179801
vn 1.788139E-07 -0.6960636 -0.7179801
vn 1.788139E-07 -0.6960636 -0.7179801
vn 1.788139E-07 -0.6960636 -0.7179801
vn 1.788139E-07 -0.6960636 -0.7179801
vn 1.788139E-07 -0.6960636 -0.7179801
vn -1 5.960464E-08 -8.940697E-08
vn -1 5.960464E-08 -8.940697E-08
vn -1 5.960464E-08 -8.940697E-08
vn -1 5.960464E-08 -8.940697E-08
vn -1 5.960464E-08 -8.940697E-08
vn -1 5.960464E-08 -8.940697E-08
vn -1 5.960464E-08 -8.940697E-08
vn -1 5.960464E-08 -8.940697E-08
vn -1 5.960464E-08 -8.940697E-08
vn -1 5.960464E-08 -8.940697E-08
vn -1 5.960464E-08 -8.940697E-08
vn -1 5.960464E-08 -8.940697E-08
vn -1 5.960464E-08 -8.940697E-08
vn -0.9999999 5.960464E-08 -8.940696E-08
vn -1 5.960464E-08 -8.940697E-08
vn -1 5.960464E-08 -8.940697E-08
vn -0.9999999 5.960464E-08 -8.940696E-08
vn -1 5.960464E-08 -8.940697E-08
vn -1 5.960464E-08 -8.940697E-08
vn -1 5.960464E-08 -8.940697E-08
vn -0.9999999 5.960464E-08 -8.940696E-08
vn -1 5.960464E-08 -8.940697E-08
vn -1 5.960464E-08 -8.940697E-08
vn -1 5.960464E-08 -8.940697E-08
vn -1 5.960464E-08 -8.940697E-08
vn -1 5.960464E-08 -8.940697E-08
vn -1 5.960464E-08 -8.940697E-08
vn -1 5.960464E-08 -8.940697E-08
vn -1 5.960464E-08 -8.940697E-08
vn -1 5.960464E-08 -8.940697E-08
vn -1 5.960464E-08 -8.940697E-08
vn -0.9999999 5.960464E-08 -8.940696E-08
vn -1 5.960464E-08 -8.940697E-08
vn -0.9999999 5.960464E-08 -8.940696E-08
vn -0.9999999 5.960464E-08 -8.940696E-08
vn -1 5.960464E-08 -8.940697E-08
vn -0.9999999 5.960464E-08 -8.940696E-08
vn -0.9999999 5.960464E-08 -8.940696E-08
vn -3.931325E-07 -0.3969554 0.917838
vn -3.689858E-07 -0.1521089 0.9883637
vn -3.274485E-07 0.1214056 0.9926029
vn -3.740814E-07 -0.3969553 0.9178379
vn -2.162326E-07 0.5913216 0.8064359
vn -1.285518E-07 0.787723 0.6160297
vn -5.090806E-08 0.9178379 0.3969553
vn -4.366267E-08 0.917838 0.3969554
vn -3.074219E-07 -0.3969554 0.9178379
vn 1.788139E-07 -0.6960636 -0.7179801
vn 1.788139E-07 -0.6960636 -0.7179801
vn 1.788139E-07 -0.6960636 -0.7179801
vn 1.788139E-07 -0.6960636 -0.7179801
vn 1.788139E-07 -0.6960636 -0.7179801
vn 1.788139E-07 -0.6960636 -0.7179801
vn 1.879839E-07 -0.6960636 -0.7179801
vn 1.879839E-07 -0.6960636 -0.7179801
vn 0.2028033 0.7030602 -0.681599
vn 1 -5.885829E-07 6.022379E-07
vn 0.9999999 9.060012E-08 2.443411E-07
vn 1 2.291817E-08 3.348558E-07
vn 1 9.060013E-08 2.443412E-07
vn 1 9.060013E-08 2.443412E-07
vn 1 -1.907267E-07 3.925869E-07
vn 1 -1.907269E-07 3.92587E-07
vn 1 -1.907262E-07 3.925868E-07
vn 1 -1.90727E-07 3.925869E-07
vn 1 -1.907271E-07 3.925869E-07
vn 0.9999999 -1.907265E-07 3.925869E-07
vn 1 -1.907242E-07 3.925869E-07
vn 0.9999999 -1.907295E-07 3.925869E-07
vn 1 5.977643E-08 3.964695E-07
vn 1 1.528171E-07 3.085171E-07
vn 1 6.205892E-08 3.965044E-07
vn 1 6.205864E-08 3.965048E-07
vn 1 6.205831E-08 3.965056E-07
vn 1 6.205854E-08 3.965051E-07
vn 1 6.205858E-08 3.965051E-07
vn 1 6.205867E-08 3.96505E-07
vn 1 6.20591E-08 3.965046E-07
vn 1 2.254022E-07 2.381475E-07
vn 1 2.435754E-07 2.205292E-07
vn 1 2.435756E-07 2.20529E-07
vn 1 2.435748E-07 2.205293E-07
vn 1 2.435766E-07 2.205288E-07
vn 1 2.435757E-07 2.20529E-07
vn 1 2.435753E-07 2.205291E-07
vn 1 1.831689E-07 1.794968E-07
vn 1 2.474934E-07 -3.225651E-08
vn 1 2.474935E-07 -3.22567E-08
vn 1 2.474936E-07 -3.225705E-08
vn 1 2.474907E-07 -3.225033E-08
vn 1 2.47494E-07 -3.225772E-08
vn 1 2.474937E-07 -3.225723E-08
vn 1 2.47493E-07 -3.225587E-08
vn 0.9999999 2.474924E-07 -3.225481E-08
vn 1 9.060013E-08 2.443412E-07
vn 1 9.060015E-08 2.443412E-07
vn 0.9999999 9.060013E-08 2.443412E-07

f 1//1 2//2 3//3
f 4//4 1//1 3//3
f 3//3 5//5 4//4
f 3//3 6//6 5//5
f 5//5 6//6 7//7
f 8//8 7//7 6//6
f 9//9 8//8 6//6
f 10//10 9//9 6//6
f 9//9 10//10 11//11
f 11//11 10//10 12//12
f 13//13 11//11 12//12
f 13//13 12//12 14//14
f 13//13 14//14 15//15
f 15//15 14//14 16//16
f 15//15 16//16 17//17
f 18//18 17//17 16//16
f 19//19 17//17 18//18
f 19//19 18//18 20//20
f 21//21 19//19 20//20
f 22//22 19//19 21//21
f 22//22 21//21 23//23
f 24//24 22//22 23//23
f 24//24 23//23 25//25
f 26//26 24//24 25//25
f 26//26 25//25 27//27
f 28//28 26//26 27//27
f 28//28 27//27 29//29
f 29//29 27//27 30//30
f 31//31 29//29 30//30
f 31//31 30//30 32//32
f 33//33 31//31 32//32
f 33//33 32//32 34//34
f 35//35 33//33 34//34
f 35//35 34//34 36//36
f 37//37 35//35 36//36
f 37//37 36//36 38//38
f 39//39 37//37 38//38
f 39//39 38//38 40//40
f 41//41 39//39 40//40
f 41//41 40//40 42//42
f 41//41 42//42 43//43
f 43//43 42//42 44//44
f 45//45 43//43 44//44
f 45//45 44//44 46//46
f 47//47 45//45 46//46
f 48//48 45//45 47//47
f 48//48 47//47 49//49
f 50//50 48//48 49//49
f 50//50 49//49 51//51
f 52//52 50//50 51//51
f 52//52 51//51 53//53
f 54//54 52//52 53//53
f 55//55 54//54 53//53
f 55//55 53//53 56//56
f 55//55 56//56 57//57
f 57//57 56//56 58//58
f 57//57 58//58 59//59
f 59//59 58//58 60//60
f 59//59 60//60 61//61
f 61//61 60//60 62//62
f 61//61 62//62 63//63
f 63//63 62//62 64//64
f 63//63 64//64 65//65
f 65//65 64//64 66//66
f 65//65 66//66 67//67
f 68//68 67//67 66//66
f 69//69 67//67 68//68
f 69//69 68//68 70//70
f 71//71 69//69 70//70
f 72//72 71//71 73//73
f 74//74 75//75 76//76
f 77//77 74//74 76//76
f 75//75 77//77 76//76
f 78//78 75//75 74//74
f 79//79 75//75 78//78
f 78//78 74//74 80//80
f 81//81 78//78 80//80
f 82//82 78//78 81//81
f 82//82 83//83 78//78
f 83//83 84//84 79//79
f 84//84 85//85 79//79
f 80//80 74//74 86//86
f 87//87 80//80 86//86
f 81//81 80//80 87//87
f 86//86 74//74 88//88
f 88//88 74//74 77//77
f 86//86 88//88 89//89
f 90//90 86//86 89//89
f 87//87 86//86 90//90
f 75//75 91//91 77//77
f 90//90 89//89 92//92
f 90//90 92//92 93//93
f 94//94 90//90 93//93
f 95//95 83//83 82//82
f 95//95 82//82 81//81
f 95//95 81//81 87//87
f 95//95 87//87 90//90
f 95//95 96//96 83//83
f 97//97 91//91 75//75
f 97//97 98//98 91//91
f 97//97 99//99 98//98
f 100//100 95//95 101//101
f 102//102 103//103 104//104
f 102//102 104//104 105//105
f 102//102 105//105 106//106
f 106//106 105//105 107//107
f 108//108 102//102 106//106
f 109//109 102//102 108//108
f 110//110 108//108 106//106
f 111//111 112//112 113//113
f 111//111 113//113 114//114
f 111//111 114//114 115//115
f 111//111 115//115 116//116
f 111//111 116//116 117//117
f 117//117 118//118 111//111
f 118//118 119//119 111//111
f 120//120 111//111 119//119
f 120//120 121//121 111//111
f 121//121 122//122 111//111
f 111//111 122//122 123//123
f 114//114 113//113 124//124
f 124//124 113//113 125//125
f 125//125 113//113 126//126
f 126//126 113//113 127//127
f 127//127 113//113 128//128
f 128//128 113//113 129//129
f 129//129 113//113 130//130
f 130//130 113//113 131//131
f 131//131 113//113 132//132
f 132//132 113//113 133//133
f 133//133 113//113 134//134
f 133//133 134//134 135//135
f 135//135 134//134 136//136
f 134//134 137//137 136//136
f 137//137 134//134 138//138
f 138//138 134//134 139//139
f 139//139 134//134 140//140
f 140//140 134//134 141//141
f 134//134 142//142 141//141
f 134//134 143//143 142//142
f 134//134 144//144 143//143
f 144//144 134//134 145//145
f 145//145 134//134 146//146
f 147//147 134//134 148//148
f 149//149 150//150 151//151
f 149//149 152//152 150//150
f 151//151 150//150 153//153
f 151//151 153//153 154//154
f 154//154 153//153 155//155
f 154//154 155//155 156//156
f 152//152 157//157 150//150
f 158//158 159//159 160//160
f 161//161 159//159 158//158
f 162//162 159//159 161//161
f 163//163 162//162 161//161
f 164//164 162//162 163//163
f 165//165 162//162 164//164
f 9//9 166//166 8//8
f 166//166 9//9 167//167
f 168//168 169//169 170//170
f 168//168 171//171 169//169
f 172//172 169//169 173//173
f 174//174 169//169 172//172
f 169//169 174//174 175//175
f 176//176 169//169 175//175
f 177//177 169//169 176//176
f 178//178 169//169 177//177
f 178//178 179//179 169//169
f 179//179 180//180 169//169
f 180//180 181//181 169//169
f 182//182 181//181 180//180
f 182//182 183//183 181//181
f 183//183 184//184 181//181
f 184//184 185//185 181//181
f 185//185 186//186 181//181
f 186//186 187//187 181//181
f 187//187 188//188 181//181
f 188//188 189//189 181//181
f 181//181 189//189 190//190
f 181//181 190//190 191//191
f 192//192 181//181 191//191
f 193//193 181//181 192//192
f 194//194 181//181 193//193
f 195//195 181//181 194//194
f 195//195 196//196 181//181
f 196//196 197//197 198//198
f 196//196 198//198 199//199
f 199//199 200//200 196//196
f 196//196 200//200 201//201
f 201//201 202//202 196//196
f 196//196 202//202 203//203
f 196//196 203//203 204//204
f 205//205 196//196 206//206
f 207//207 196//196 205//205
