v -9.979508 200.64 -9.999985
v -9.979512 200.64 -50.00002
v -9.979508 200.64 -9.999985
v -9.979506 200.64 -9.999985
v -6.415399 200.4114 -9.999985
v -4.989754 200.32 -9.999985
v -4.989754 200.32 -9.999985
v -4.989758 200.32 -50.00002
v -4.98976 200.32 -90.00006
v -4.910128 200.0865 -9.999985
v -4.273129 198.2186 -90.00006
v -4.900235 200.0575 -9.999985
v -4.184076 197.9575 -90.00006
v -4.897456 200.0493 -9.999985
v -4.159075 197.8841 -90.00006
v -4.866236 199.9578 -9.999985
v -3.878086 197.0602 -90.00006
v -4.481305 198.829 -9.999985
v -3.835316 196.9348 -90.00006
v -4.116342 197.7589 -9.999985
v -4.074357 197.6357 -9.999985
v -3.790099 196.8022 -90.00006
v -3.986788 197.379 -9.999985
v -3.780369 196.7737 -90.00006
v -3.754562 196.698 -9.999985
v -3.754566 196.698 -90.00006
v -3.571873 196.6082 -9.999985
v -2.748604 196.2037 -90.00006
v -2.110379 195.89 -90.00006
v -3.526546 196.5859 -9.999985
v -1.702432 195.6896 -90.00006
v -3.513056 196.5793 -9.999985
v -1.581027 195.6299 -90.00006
v -3.411105 196.5292 -9.999985
v -0.6634573 195.179 -90.00006
v -2.241446 195.9544 -9.999985
v -0.5334952 195.1152 -90.00006
v -1.275123 195.4796 -9.999985
v -0.426126 195.0624 -90.00006
v -0.3199957 195.0103 -9.999985
v -0.3200007 195.0102 -90.00006
v -0.2082246 195.0484 -9.999985
v 0.6859385 195.3533 -90.00006
v 0.0422058 195.1338 -9.999985
v 2.939813 196.1219 -90.00006
v 0.7408668 195.372 -9.999985
v 1.020275 195.4673 -9.999985
v 3.048488 196.159 -90.00006
v 1.973006 195.7922 -9.999985
v 3.154345 196.1951 -90.00006
v 2.757478 196.0597 -9.999985
v 3.24151 196.2248 -90.00006
v 3.302019 196.2454 -9.999985
v 3.302013 196.2454 -90.00006
v 3.302015 196.2454 -90.00006
v 3.402326 196.4496 -9.999985
v 4.204781 198.0826 -90.00006
v 3.43185 196.5096 -9.999985
v 4.470499 198.6233 -90.00006
v 3.434865 196.5158 -9.999985
v 4.497625 198.6785 -90.00006
v 3.436262 196.5186 -9.999985
v 4.510206 198.7041 -90.00006
v 3.43803 196.5222 -9.999985
v 4.526103 198.7365 -90.00006
v 3.470792 196.5889 -9.999985
v 4.820975 199.3365 -90.00006
v 4.989752 199.68 -9.999985
v 4.98975 199.68 -90.00006
v 4.989754 199.68 -9.999985
v 4.98975 199.68 -90.00006
v 4.989754 199.68 -9.999985
v 4.989754 199.68 -9.999985
v 6.415399 199.5886 -9.999985
v 9.979508 199.36 -9.999985
v 9.979508 199.36 -9.999985
v 9.979506 199.36 -9.999985
v 4.989754 199.68 -9.999985
v 4.989754 199.68 -9.999985
v 4.989754 199.68 -9.999985
v 4.98975 199.68 -90.00006
v 4.98975 199.68 -90.00006
v 4.98975 199.68 -90.00006
v 4.989754 199.68 -9.999985
v 6.604037 192.4909 -9.999985
v 4.989754 199.68 -9.999985
v 4.98975 199.68 -90.00006
v 4.989754 199.68 -9.999985
v 4.989752 199.68 -50.00002
v 4.98975 199.68 -90.00006
v 9.979505 199.36 -50.00002
v 4.98975 199.68 -90.00002
v 4.98975 199.68 -90.00006
v 6.415392 199.5886 -90.00006
v 6.604032 192.4909 -90.00005
v 4.98975 199.68 -90.00006
v 6.604037 192.4909 -9.999985
v 9.979502 199.36 -90.00006
v 6.604032 192.4909 -90.00005
v 3.302015 196.2454 -90.00006
v 3.302013 196.2454 -90.00006
v -9.979512 200.64 -50.00002
v -9.979508 200.64 -9.999985
v -9.979506 200.64 -9.999985
v -6.415399 200.4114 -9.999985
v -4.989758 200.32 -50.00002
v -4.989754 200.32 -9.999985
v -7.056585 200.4525 -90.00006
v -9.979514 200.64 -90.00006
v -4.98976 200.32 -90.00006
v -9.979508 200.64 -9.999985
v -7.509121 193.396 -9.999985
v -0.6399911 190.0205 -9.999985
v -3.754562 196.698 -9.999985
v -3.986788 197.379 -9.999985
v -4.074357 197.6357 -9.999985
v -4.116342 197.7589 -9.999985
v -4.481305 198.829 -9.999985
v -4.866236 199.9578 -9.999985
v -4.897456 200.0493 -9.999985
v -4.900235 200.0575 -9.999985
v -4.910128 200.0865 -9.999985
v -4.989754 200.32 -9.999985
v -3.571873 196.6082 -9.999985
v -3.526546 196.5859 -9.999985
v -3.513056 196.5793 -9.999985
v -3.411105 196.5292 -9.999985
v -2.241446 195.9544 -9.999985
v -1.275123 195.4796 -9.999985
v -0.3199957 195.0103 -9.999985
v -0.2082246 195.0484 -9.999985
v 0.0422058 195.1338 -9.999985
v 0.7408668 195.372 -9.999985
v 6.604037 192.4909 -9.999985
v 1.020275 195.4673 -9.999985
v 1.973006 195.7922 -9.999985
v 2.757478 196.0597 -9.999985
v 3.302019 196.2454 -9.999985
v 3.402326 196.4496 -9.999985
v 3.43185 196.5096 -9.999985
v 3.434865 196.5158 -9.999985
v 3.436262 196.5186 -9.999985
v 3.43803 196.5222 -9.999985
v 3.470792 196.5889 -9.999985
v 4.989752 199.68 -9.999985
v 4.989754 199.68 -9.999985
v 4.989754 199.68 -9.999985
v 9.979508 199.36 -9.999985
v -9.979508 200.64 -9.999985
v -7.509127 193.396 -90.00005
v -7.509121 193.396 -9.999985
v -9.979512 200.64 -50.00002
v -0.639996 190.0205 -90.00005
v -0.6399911 190.0205 -9.999985
v 6.604032 192.4909 -90.00005
v 6.604037 192.4909 -9.999985
v -9.979514 200.64 -90.00006
v 9.979506 199.36 -9.999985
v 4.989752 199.68 -50.00002
v 4.989754 199.68 -9.999985
v 9.979505 199.36 -50.00002
v 4.98975 199.68 -90.00002
v 9.979502 199.36 -90.00006
v 6.415392 199.5886 -90.00006
v 4.98975 199.68 -90.00006
v -4.98976 200.32 -90.00006
v -7.509127 193.396 -90.00005
v -7.056585 200.4525 -90.00006
v -7.509127 193.396 -90.00005
v -9.979514 200.64 -90.00006
v -4.98976 200.32 -90.00006
v -4.273129 198.2186 -90.00006
v -4.98976 200.32 -90.00006
v -4.184076 197.9575 -90.00006
v -4.159075 197.8841 -90.00006
v -3.878086 197.0602 -90.00006
v -3.835316 196.9348 -90.00006
v -3.790099 196.8022 -90.00006
v -3.780369 196.7737 -90.00006
v -3.754566 196.698 -90.00006
v -0.639996 190.0205 -90.00005
v -2.748604 196.2037 -90.00006
v -2.110379 195.89 -90.00006
v -1.702432 195.6896 -90.00006
v -1.581027 195.6299 -90.00006
v -0.6634573 195.179 -90.00006
v -0.5334952 195.1152 -90.00006
v -0.426126 195.0624 -90.00006
v -0.3200007 195.0102 -90.00006
v 0.6859385 195.3533 -90.00006
v 2.939813 196.1219 -90.00006
v 3.048488 196.159 -90.00006
v 3.154345 196.1951 -90.00006
v 3.24151 196.2248 -90.00006
v 3.302013 196.2454 -90.00006
v 6.604032 192.4909 -90.00005
v 3.302015 196.2454 -90.00006
v 4.204781 198.0826 -90.00006
v 4.470499 198.6233 -90.00006
v 4.497625 198.6785 -90.00006
v 4.510206 198.7041 -90.00006
v 4.526103 198.7365 -90.00006
v 4.820975 199.3365 -90.00006
v 4.98975 199.68 -90.00006
v 6.415392 199.5886 -90.00006
v 4.98975 199.68 -90.00006
v 9.979502 199.36 -90.00006

vn -0.99795 0.063999 5.340572E-07
vn -0.99795 0.063999 3.814694E-07
vn -0.7577001 0.04859166 0.6507913
vn 0 0 1
vn 0 0 1
vn 0.9464753 0.3227762 -6.462383E-08
vn 0.9879202 -0.06335578 0.141421
vn 0.2993361 0.9541476 -1.883212E-07
vn 0.9464768 0.3227718 -3.424387E-07
vn 0.9464771 0.322771 -3.013172E-07
vn 0.946477 0.3227713 -3.400592E-07
vn 0.9464767 0.3227723 -4.236429E-07
vn 0.9464763 0.3227733 -4.821552E-07
vn 0.9464782 0.3227678 1.095606E-07
vn 0.9464773 0.3227704 -1.780023E-07
vn 0.9464771 0.322771 -2.260704E-07
vn 0.9464772 0.3227708 -2.089216E-07
vn 0.9464772 0.3227707 -2.077588E-07
vn 0.9464771 0.322771 -2.217208E-07
vn 0.9464772 0.3227707 -2.409156E-07
vn 0.9464768 0.3227718 -2.351288E-07
vn 0.9464763 0.3227732 -2.778156E-07
vn 0.946477 0.3227712 -1.673258E-07
vn 0.9464774 0.3227704 -1.811419E-07
vn 0.8869644 0.4618379 -1.839746E-07
vn 0.4773644 0.8787054 -2.087927E-07
vn 0.4410243 0.8974952 -2.638545E-07
vn 0.441025 0.8974947 -2.243663E-07
vn 0.4410253 0.8974946 -2.046673E-07
vn 0.4410273 0.8974938 -5.134434E-08
vn 0.4410284 0.8974931 3.311141E-08
vn 0.4410299 0.8974923 2.493531E-07
vn 0.4410274 0.8974937 -1.725448E-08
vn 0.4410263 0.8974941 -1.95488E-07
vn 0.4410258 0.8974945 -2.545912E-07
vn 0.4410257 0.8974944 -3.133276E-07
vn 0.4410267 0.8974939 -2.147517E-07
vn 0.4410262 0.8974943 -2.354086E-07
vn 0.441025 0.8974948 -2.762392E-07
vn 0.3809976 0.924576 -2.850269E-07
vn -0.2596218 0.9657105 -1.199789E-07
vn -0.3227701 0.9464774 -7.869002E-08
vn -0.3227711 0.9464771 -1.061353E-07
vn -0.3227718 0.9464769 -1.468234E-07
vn -0.3227717 0.9464768 -1.18347E-07
vn -0.3227713 0.9464769 -1.005928E-07
vn -0.3227708 0.9464771 2.558145E-08
vn -0.3227713 0.9464771 -4.388408E-08
vn -0.3227709 0.9464772 -2.142637E-08
vn -0.3227712 0.946477 -1.39089E-08
vn -0.3227712 0.9464771 -6.971242E-09
vn -0.3227707 0.9464771 1.713521E-09
vn -0.5029597 0.8643099 6.568339E-08
vn -0.3227488 0.9464847 3.749556E-09
vn -0.897494 0.4410267 1.50355E-07
vn -0.8974944 0.4410256 1.053244E-07
vn -0.8974948 0.4410252 6.84602E-08
vn -0.8974952 0.4410241 -3.948485E-08
vn -0.8974944 0.4410259 1.617077E-07
vn -0.8974937 0.4410274 4.500968E-07
vn -0.8974924 0.4410298 7.290805E-07
vn -0.8974724 0.4410705 6.344963E-06
vn -0.897485 0.441045 2.762223E-06
vn -0.8974976 0.4410194 -5.911333E-07
vn -0.8974958 0.4410231 -2.018595E-07
vn -0.8974944 0.4410257 1.357495E-07
vn -0.8974941 0.4410262 1.613505E-07
vn -0.8974941 0.4410265 1.611312E-07
vn -0.8974919 0.441031 9.115076E-08
vn -0.8109328 0.5851393 9.305477E-08
vn -0.99795 0.063999 1.907347E-07
vn -0.99795 0.063999 1.907347E-07
vn -0.99795 0.063999 1.907347E-07
vn 0 0 1
vn 0.8974944 -0.4410259 -2.936142E-07
vn 0 0 1
vn 0.1931502 0.9811692 -1.677742E-07
vn -0.6481324 0.04156503 0.7603924
vn -0.5621935 0.03605373 0.8262195
vn -0.995428 0.06383726 0.0710492
vn -0.99795 0.063999 1.90735E-07
vn -0.99795 0.063999 1.907347E-07
vn -0.99795 0.063999 1.907343E-07
vn -0.9926419 0.06365859 0.1030029
vn 0 0 1
vn -0.9978696 0.0639996 0.01266336
vn -0.99795 0.063999 1.907357E-07
vn -0.98792 0.06335577 0.1414215
vn -0.9979504 0.06399238 1.907357E-07
vn -0.99615 0.06387728 -0.06004161
vn 0.8974943 -0.4410259 -2.232892E-07
vn -0.9979514 0.0639754 1.907375E-07
vn -6.928523E-06 4.443294E-07 -1
vn 0 0 -1
vn -2.762091E-08 -4.306987E-07 -1
vn 0 0 0
vn 0.8974944 -0.441026 -2.130985E-07
vn 0.8974944 -0.4410259 -1.778031E-07
vn 0.8974944 -0.441026 -2.029077E-07
vn -2.762091E-08 -4.306987E-07 -1
vn -2.762091E-08 -4.306987E-07 -1
vn 0.063999 0.99795 -1.192093E-07
vn 0.06399899 0.9979499 -1.192092E-07
vn 0.063999 0.99795 -1.192093E-07
vn 0.063999 0.99795 -1.192093E-07
vn 0.063999 0.99795 -1.192093E-07
vn 0.063999 0.99795 -1.192092E-07
vn 0.063999 0.99795 -1.192093E-07
vn 0.063999 0.99795 -1.192093E-07
vn 0.063999 0.99795 -1.192093E-07
vn 0 0 1
vn 0 0 1
vn 0 0 1
vn 0 0 1
vn 0 0 1
vn 0 0 1
vn 0 0 1
vn 0 0 1
vn 0 0 1
vn 0 0 1
vn 0 0 1
vn 0 0 1
vn 0 0 1
vn 0 0 0.9999999
vn 0 0 1
vn 0 0 1
vn 0 0 0.9999999
vn 0 0 1
vn 0 0 1
vn 0 0 1
vn 0 0 0.9999999
vn 0 0 1
vn 0 0 1
vn 0 0 1
vn 0 0 1
vn 0 0 1
vn 0 0 1
vn 0 0 1
vn 0 0 1
vn 0 0 1
vn 0 0 1
vn 0 0 0.9999999
vn 0 0 1
vn 0 0 0.9999999
vn 0 0 0.9999999
vn 0 0 1
vn 0 0 0.9999999
vn 0 0 0.9999999
vn -0.9464771 -0.3227714 3.42789E-07
vn -0.8341802 -0.5514919 3.092419E-07
vn -0.6535287 -0.7569017 2.619401E-07
vn -0.9464769 -0.3227714 3.23738E-07
vn -0.1998907 -0.9798182 1.531119E-07
vn 0.07309562 -0.997325 7.358348E-08
vn 0.3227713 -0.9464769 7.245398E-09
vn 0.3227713 -0.946477 0
vn -0.946477 -0.3227713 2.570785E-07
vn 0.063999 0.99795 -1.192093E-07
vn 0.063999 0.99795 -1.192093E-07
vn 0.063999 0.99795 -1.192093E-07
vn 0.063999 0.99795 -1.192093E-07
vn 0.063999 0.99795 -1.192093E-07
vn 0.063999 0.99795 -1.192093E-07
vn 0.063999 0.99795 -1.283792E-07
vn 0.06399899 0.9979499 -1.283792E-07
vn 0.9772121 -0.06266907 -0.2028032
vn -7.352484E-07 4.715183E-08 -1
vn -1.381045E-08 -2.153493E-07 -0.9999999
vn -1.26324E-07 -2.260473E-07 -1
vn -1.381045E-08 -2.153493E-07 -1
vn -1.381045E-08 -2.153493E-07 -1
vn -3.126399E-07 -1.066178E-07 -1
vn -3.126401E-07 -1.066177E-07 -1
vn -3.126394E-07 -1.066181E-07 -1
vn -3.126401E-07 -1.066176E-07 -1
vn -3.126402E-07 -1.066175E-07 -1
vn -3.126398E-07 -1.06618E-07 -0.9999999
vn -3.126382E-07 -1.066196E-07 -1
vn -3.126418E-07 -1.066157E-07 -0.9999999
vn -1.47187E-07 -2.94746E-07 -1
vn -1.953094E-08 -3.045501E-07 -1
vn -1.456791E-07 -2.964598E-07 -1
vn -1.456796E-07 -2.964599E-07 -1
vn -1.456804E-07 -2.964602E-07 -1
vn -1.456799E-07 -2.964601E-07 -1
vn -1.456799E-07 -2.964601E-07 -1
vn -1.456797E-07 -2.964601E-07 -1
vn -1.456791E-07 -2.964601E-07 -1
vn 8.135818E-08 -3.1102E-07 -1
vn 1.066178E-07 -3.126401E-07 -1
vn 1.06618E-07 -3.126401E-07 -1
vn 1.066173E-07 -3.126397E-07 -1
vn 1.066188E-07 -3.126407E-07 -1
vn 1.066181E-07 -3.126401E-07 -1
vn 1.066177E-07 -3.1264E-07 -1
vn 9.641498E-08 -2.403317E-07 -1
vn 2.964602E-07 -1.456796E-07 -1
vn 2.964604E-07 -1.456796E-07 -1
vn 2.964608E-07 -1.456794E-07 -1
vn 2.964538E-07 -1.456818E-07 -1
vn 2.964615E-07 -1.456793E-07 -1
vn 2.964609E-07 -1.456793E-07 -1
vn 2.964595E-07 -1.456798E-07 -1
vn 2.964583E-07 -1.4568E-07 -0.9999999
vn -1.381045E-08 -2.153493E-07 -1
vn -1.381044E-08 -2.153494E-07 -1
vn -1.381045E-08 -2.153493E-07 -0.9999999

f 1//1 2//2 3//3
f 4//4 1//1 3//3
f 3//3 5//5 4//4
f 3//3 6//6 5//5
f 5//5 6//6 7//7
f 8//8 7//7 6//6
f 9//9 8//8 6//6
f 10//10 9//9 6//6
f 9//9 10//10 11//11
f 11//11 10//10 12//12
f 13//13 11//11 12//12
f 13//13 12//12 14//14
f 13//13 14//14 15//15
f 15//15 14//14 16//16
f 15//15 16//16 17//17
f 18//18 17//17 16//16
f 19//19 17//17 18//18
f 19//19 18//18 20//20
f 21//21 19//19 20//20
f 22//22 19//19 21//21
f 22//22 21//21 23//23
f 24//24 22//22 23//23
f 24//24 23//23 25//25
f 26//26 24//24 25//25
f 26//26 25//25 27//27
f 28//28 26//26 27//27
f 28//28 27//27 29//29
f 29//29 27//27 30//30
f 31//31 29//29 30//30
f 31//31 30//30 32//32
f 33//33 31//31 32//32
f 33//33 32//32 34//34
f 35//35 33//33 34//34
f 35//35 34//34 36//36
f 37//37 35//35 36//36
f 37//37 36//36 38//38
f 39//39 37//37 38//38
f 39//39 38//38 40//40
f 41//41 39//39 40//40
f 41//41 40//40 42//42
f 41//41 42//42 43//43
f 43//43 42//42 44//44
f 45//45 43//43 44//44
f 45//45 44//44 46//46
f 47//47 45//45 46//46
f 48//48 45//45 47//47
f 48//48 47//47 49//49
f 50//50 48//48 49//49
f 50//50 49//49 51//51
f 52//52 50//50 51//51
f 52//52 51//51 53//53
f 54//54 52//52 53//53
f 55//55 54//54 53//53
f 55//55 53//53 56//56
f 55//55 56//56 57//57
f 57//57 56//56 58//58
f 57//57 58//58 59//59
f 59//59 58//58 60//60
f 59//59 60//60 61//61
f 61//61 60//60 62//62
f 61//61 62//62 63//63
f 63//63 62//62 64//64
f 63//63 64//64 65//65
f 65//65 64//64 66//66
f 65//65 66//66 67//67
f 68//68 67//67 66//66
f 69//69 67//67 68//68
f 69//69 68//68 70//70
f 71//71 69//69 70//70
f 72//72 71//71 73//73
f 74//74 75//75 76//76
f 77//77 74//74 76//76
f 75//75 77//77 76//76
f 78//78 75//75 74//74
f 79//79 75//75 78//78
f 78//78 74//74 80//80
f 81//81 78//78 80//80
f 82//82 78//78 81//81
f 82//82 83//83 78//78
f 83//83 84//84 79//79
f 84//84 85//85 79//79
f 80//80 74//74 86//86
f 87//87 80//80 86//86
f 81//81 80//80 87//87
f 86//86 74//74 88//88
f 88//88 74//74 77//77
f 86//86 88//88 89//89
f 90//90 86//86 89//89
f 87//87 86//86 90//90
f 75//75 91//91 77//77
f 90//90 89//89 92//92
f 90//90 92//92 93//93
f 94//94 90//90 93//93
f 95//95 83//83 82//82
f 95//95 82//82 81//81
f 95//95 81//81 87//87
f 95//95 87//87 90//90
f 95//95 96//96 83//83
f 97//97 91//91 75//75
f 97//97 98//98 91//91
f 97//97 99//99 98//98
f 100//100 95//95 101//101
f 102//102 103//103 104//104
f 102//102 104//104 105//105
f 102//102 105//105 106//106
f 106//106 105//105 107//107
f 108//108 102//102 106//106
f 109//109 102//102 108//108
f 110//110 108//108 106//106
f 111//111 112//112 113//113
f 111//111 113//113 114//114
f 111//111 114//114 115//115
f 111//111 115//115 116//116
f 111//111 116//116 117//117
f 117//117 118//118 111//111
f 118//118 119//119 111//111
f 120//120 111//111 119//119
f 120//120 121//121 111//111
f 121//121 122//122 111//111
f 111//111 122//122 123//123
f 114//114 113//113 124//124
f 124//124 113//113 125//125
f 125//125 113//113 126//126
f 126//126 113//113 127//127
f 127//127 113//113 128//128
f 128//128 113//113 129//129
f 129//129 113//113 130//130
f 130//130 113//113 131//131
f 131//131 113//113 132//132
f 132//132 113//113 133//133
f 133//133 113//113 134//134
f 133//133 134//134 135//135
f 135//135 134//134 136//136
f 134//134 137//137 136//136
f 137//137 134//134 138//138
f 138//138 134//134 139//139
f 139//139 134//134 140//140
f 140//140 134//134 141//141
f 134//134 142//142 141//141
f 134//134 143//143 142//142
f 134//134 144//144 143//143
f 144//144 134//134 145//145
f 145//145 134//134 146//146
f 147//147 134//134 148//148
f 149//149 150//150 151//151
f 149//149 152//152 150//150
f 151//151 150//150 153//153
f 151//151 153//153 154//154
f 154//154 153//153 155//155
f 154//154 155//155 156//156
f 152//152 157//157 150//150
f 158//158 159//159 160//160
f 161//161 159//159 158//158
f 162//162 159//159 161//161
f 163//163 162//162 161//161
f 164//164 162//162 163//163
f 165//165 162//162 164//164
f 9//9 166//166 8//8
f 166//166 9//9 167//167
f 168//168 169//169 170//170
f 168//168 171//171 169//169
f 172//172 169//169 173//173
f 174//174 169//169 172//172
f 169//169 174//174 175//175
f 176//176 169//169 175//175
f 177//177 169//169 176//176
f 178//178 169//169 177//177
f 178//178 179//179 169//169
f 179//179 180//180 169//169
f 180//180 181//181 169//169
f 182//182 181//181 180//180
f 182//182 183//183 181//181
f 183//183 184//184 181//181
f 184//184 185//185 181//181
f 185//185 186//186 181//181
f 186//186 187//187 181//181
f 187//187 188//188 181//181
f 188//188 189//189 181//181
f 181//181 189//189 190//190
f 181//181 190//190 191//191
f 192//192 181//181 191//191
f 193//193 181//181 192//192
f 194//194 181//181 193//193
f 195//195 181//181 194//194
f 195//195 196//196 181//181
f 196//196 197//197 198//198
f 196//196 198//198 199//199
f 199//199 200//200 196//196
f 196//196 200//200 201//201
f 201//201 202//202 196//196
f 196//196 202//202 203//203
f 196//196 203//203 204//204
f 205//205 196//196 206//206
f 207//207 196//196 205//205
