v -90.00002 -206.48 92.38361
v -49.99998 -206.48 92.38361
v -90.00002 -206.48 92.38361
v -90.00002 -206.48 92.38361
v -90.00002 -204.1657 95.10374
v -90.00002 -203.24 96.1918
v -90.00002 -203.24 96.1918
v -49.99998 -203.24 96.1918
v -9.999943 -203.24 96.1918
v -90.00002 -203.3524 96.41139
v -9.999943 -204.2517 98.16814
v -90.00002 -203.3664 96.43868
v -9.999943 -204.3775 98.41372
v -90.00002 -203.3703 96.44634
v -9.999943 -204.4128 98.48267
v -90.00002 -203.4144 96.53244
v -9.999943 -204.8095 99.25758
v -90.00002 -203.9578 97.59401
v -9.999943 -204.8698 99.37553
v -90.00002 -204.4731 98.60051
v -90.00002 -204.5323 98.71629
v -9.999943 -204.9337 99.50024
v -90.00002 -204.656 98.95779
v -9.999943 -204.9474 99.52707
v -90.00002 -204.9838 99.59823
v -9.999943 -204.9838 99.59823
v -90.00002 -204.9213 99.79194
v -9.999943 -204.6395 100.6649
v -9.999943 -204.421 101.3416
v -90.00002 -204.9058 99.84
v -9.999943 -204.2814 101.7742
v -90.00002 -204.9012 99.8543
v -9.999943 -204.2399 101.9029
v -90.00002 -204.8663 99.9624
v -9.999943 -203.9258 102.8758
v -90.00002 -204.4659 101.2026
v -9.999943 -203.8813 103.0136
v -90.00002 -204.1351 102.2273
v -9.999943 -203.8445 103.1275
v -90.00002 -203.8082 103.24
v -9.999943 -203.8082 103.24
v -90.00002 -203.7031 103.2938
v -9.999943 -202.8621 103.7243
v -90.00002 -203.4676 103.4144
v -9.999943 -200.7424 104.8094
v -90.00002 -202.8105 103.7508
v -90.00002 -202.5477 103.8853
v -9.999943 -200.6402 104.8618
v -90.00002 -201.6517 104.344
v -9.999943 -200.5406 104.9127
v -90.00002 -200.9139 104.7217
v -9.999943 -200.4587 104.9547
v -90.00002 -200.4018 104.9838
v -9.999943 -200.4018 104.9838
v -9.999943 -200.4018 104.9838
v -90.00002 -200.1853 104.914
v -9.999943 -198.4538 104.355
v -90.00002 -200.1216 104.8934
v -9.999943 -197.8804 104.1699
v -90.00002 -200.1151 104.8913
v -9.999943 -197.8219 104.151
v -90.00002 -200.1121 104.8903
v -9.999943 -197.7948 104.1422
v -90.00002 -200.1083 104.8891
v -9.999943 -197.7605 104.1312
v -90.00002 -200.0376 104.8663
v -9.999943 -197.1242 103.9258
v -90.00002 -196.76 103.8082
v -9.999943 -196.76 103.8082
v -90.00002 -196.76 103.8082
v -9.999943 -196.76 103.8082
v -90.00002 -196.76 103.8082
v -90.00002 -196.76 103.8082
v -90.00002 -195.8343 104.8962
v -90.00002 -193.52 107.6164
v -90.00002 -193.52 107.6164
v -90.00002 -193.52 107.6164
v -90.00002 -196.76 103.8082
v -90.00002 -196.76 103.8082
v -90.00002 -196.76 103.8082
v -9.999943 -196.76 103.8082
v -9.999943 -196.76 103.8082
v -9.999943 -196.76 103.8082
v -90.00002 -196.76 103.8082
v -90.00002 -200.8035 109.9677
v -90.00002 -196.76 103.8082
v -9.999943 -196.76 103.8082
v -90.00002 -196.76 103.8082
v -49.99998 -196.76 103.8082
v -9.999943 -196.76 103.8082
v -49.99998 -193.52 107.6164
v -9.999985 -196.76 103.8082
v -9.999943 -196.76 103.8082
v -9.999943 -195.8343 104.8962
v -9.99995 -200.8035 109.9677
v -9.999943 -196.76 103.8082
v -90.00002 -200.8035 109.9677
v -9.999943 -193.52 107.6164
v -9.99995 -200.8035 109.9677
v -9.999943 -200.4018 104.9838
v -9.999943 -200.4018 104.9838
v -49.99998 -206.48 92.38361
v -90.00002 -206.48 92.38361
v -90.00002 -206.48 92.38361
v -90.00002 -204.1657 95.10374
v -49.99998 -203.24 96.1918
v -90.00002 -203.24 96.1918
v -9.999943 -204.5821 94.6144
v -9.999943 -206.48 92.38361
v -9.999943 -203.24 96.1918
v -90.00002 -206.48 92.38361
v -90.00002 -209.9677 99.19646
v -90.00002 -207.6164 106.48
v -90.00002 -204.9838 99.59823
v -90.00002 -204.656 98.95779
v -90.00002 -204.5323 98.71629
v -90.00002 -204.4731 98.60051
v -90.00002 -203.9578 97.59401
v -90.00002 -203.4144 96.53244
v -90.00002 -203.3703 96.44634
v -90.00002 -203.3664 96.43868
v -90.00002 -203.3524 96.41139
v -90.00002 -203.24 96.1918
v -90.00002 -204.9213 99.79194
v -90.00002 -204.9058 99.84
v -90.00002 -204.9012 99.8543
v -90.00002 -204.8663 99.9624
v -90.00002 -204.4659 101.2026
v -90.00002 -204.1351 102.2273
v -90.00002 -203.8082 103.24
v -90.00002 -203.7031 103.2938
v -90.00002 -203.4676 103.4144
v -90.00002 -202.8105 103.7508
v -90.00002 -200.8035 109.9677
v -90.00002 -202.5477 103.8853
v -90.00002 -201.6517 104.344
v -90.00002 -200.9139 104.7217
v -90.00002 -200.4018 104.9838
v -90.00002 -200.1853 104.914
v -90.00002 -200.1216 104.8934
v -90.00002 -200.1151 104.8913
v -90.00002 -200.1121 104.8903
v -90.00002 -200.1083 104.8891
v -90.00002 -200.0376 104.8663
v -90.00002 -196.76 103.8082
v -90.00002 -196.76 103.8082
v -90.00002 -196.76 103.8082
v -90.00002 -193.52 107.6164
v -90.00002 -206.48 92.38361
v -9.99995 -209.9677 99.19646
v -90.00002 -209.9677 99.19646
v -49.99998 -206.48 92.38361
v -9.99995 -207.6164 106.48
v -90.00002 -207.6164 106.48
v -9.99995 -200.8035 109.9677
v -90.00002 -200.8035 109.9677
v -9.999943 -206.48 92.38361
v -90.00002 -193.52 107.6164
v -49.99998 -196.76 103.8082
v -90.00002 -196.76 103.8082
v -49.99998 -193.52 107.6164
v -9.999985 -196.76 103.8082
v -9.999943 -193.52 107.6164
v -9.999943 -195.8343 104.8962
v -9.999943 -196.76 103.8082
v -9.999943 -203.24 96.1918
v -9.99995 -209.9677 99.19646
v -9.999943 -204.5821 94.6144
v -9.99995 -209.9677 99.19646
v -9.999943 -206.48 92.38361
v -9.999943 -203.24 96.1918
v -9.999943 -204.2517 98.16814
v -9.999943 -203.24 96.1918
v -9.999943 -204.3775 98.41372
v -9.999943 -204.4128 98.48267
v -9.999943 -204.8095 99.25758
v -9.999943 -204.8698 99.37553
v -9.999943 -204.9337 99.50024
v -9.999943 -204.9474 99.52707
v -9.999943 -204.9838 99.59823
v -9.99995 -207.6164 106.48
v -9.999943 -204.6395 100.6649
v -9.999943 -204.421 101.3416
v -9.999943 -204.2814 101.7742
v -9.999943 -204.2399 101.9029
v -9.999943 -203.9258 102.8758
v -9.999943 -203.8813 103.0136
v -9.999943 -203.8445 103.1275
v -9.999943 -203.8082 103.24
v -9.999943 -202.8621 103.7243
v -9.999943 -200.7424 104.8094
v -9.999943 -200.6402 104.8618
v -9.999943 -200.5406 104.9127
v -9.999943 -200.4587 104.9547
v -9.999943 -200.4018 104.9838
v -9.99995 -200.8035 109.9677
v -9.999943 -200.4018 104.9838
v -9.999943 -198.4538 104.355
v -9.999943 -197.8804 104.1699
v -9.999943 -197.8219 104.151
v -9.999943 -197.7948 104.1422
v -9.999943 -197.7605 104.1312
v -9.999943 -197.1242 103.9258
v -9.999943 -196.76 103.8082
v -9.999943 -195.8343 104.8962
v -9.999943 -196.76 103.8082
v -9.999943 -193.52 107.6164

vn -4.968043E-07 -0.6480016 -0.7616391
vn -3.442165E-07 -0.6480016 -0.7616391
vn -0.6507913 -0.4919994 -0.5782795
vn -1 0 -3.72529E-08
vn -1 0 -3.72529E-08
vn 3.02067E-08 0.8901442 0.4556789
vn -0.141421 0.6414889 0.7539843
vn 1.794677E-07 0.8938199 -0.4484259
vn 3.080216E-07 0.8901421 0.455683
vn 2.669E-07 0.8901418 0.4556838
vn 3.05642E-07 0.8901419 0.4556835
vn 3.892258E-07 0.8901424 0.4556826
vn 4.47738E-07 0.8901428 0.4556817
vn -1.439778E-07 0.8901402 0.4556868
vn 1.435851E-07 0.8901415 0.4556843
vn 1.916532E-07 0.8901417 0.4556839
vn 1.745044E-07 0.8901417 0.455684
vn 1.733416E-07 0.8901416 0.4556841
vn 1.873036E-07 0.8901417 0.4556838
vn 2.064984E-07 0.8901416 0.4556842
vn 2.007116E-07 0.8901421 0.4556831
vn 2.433985E-07 0.8901428 0.4556817
vn 1.329086E-07 0.8901418 0.4556836
vn 1.467247E-07 0.8901415 0.4556844
vn 1.521015E-07 0.9486899 0.3162082
vn 1.931409E-07 0.9634106 -0.2680299
vn 2.495985E-07 0.9516416 -0.3072108
vn 2.101102E-07 0.9516417 -0.30721
vn 1.904113E-07 0.9516419 -0.3072097
vn 3.708824E-08 0.9516426 -0.3072077
vn -4.736756E-08 0.9516429 -0.3072065
vn -2.636093E-07 0.9516434 -0.3072049
vn 2.998369E-09 0.9516426 -0.3072076
vn 1.812319E-07 0.9516421 -0.3072087
vn 2.403351E-07 0.9516421 -0.3072093
vn 2.990716E-07 0.951642 -0.3072093
vn 2.004956E-07 0.9516423 -0.3072082
vn 2.211526E-07 0.9516422 -0.3072089
vn 2.619832E-07 0.9516417 -0.30721
vn 2.730671E-07 0.9293584 -0.3691789
vn 1.319331E-07 0.51342 -0.8581375
vn 9.294604E-08 0.4556847 -0.8901413
vn 1.203913E-07 0.4556837 -0.8901418
vn 1.610795E-07 0.4556831 -0.8901421
vn 1.326031E-07 0.4556831 -0.8901421
vn 1.148489E-07 0.4556834 -0.8901418
vn -1.132541E-08 0.4556839 -0.8901416
vn 5.814014E-08 0.4556836 -0.8901419
vn 3.568241E-08 0.4556839 -0.8901418
vn 2.816495E-08 0.4556836 -0.8901418
vn 2.12273E-08 0.4556836 -0.8901419
vn 1.254252E-08 0.455684 -0.8901416
vn -4.492446E-08 0.2713317 -0.962486
vn 1.050568E-08 0.4557047 -0.8901311
vn -1.159378E-07 -0.3072082 -0.9516423
vn -7.090719E-08 -0.3072094 -0.9516419
vn -3.404298E-08 -0.3072099 -0.9516419
vn 7.390207E-08 -0.307211 -0.9516414
vn -1.272905E-07 -0.3072091 -0.9516421
vn -4.156796E-07 -0.3072076 -0.9516427
vn -6.946634E-07 -0.3072049 -0.9516434
vn -6.310547E-06 -0.3071619 -0.9516573
vn -2.727806E-06 -0.3071889 -0.9516487
vn 6.255506E-07 -0.307216 -0.9516399
vn 2.362768E-07 -0.3072121 -0.9516412
vn -1.013323E-07 -0.3072093 -0.951642
vn -1.269333E-07 -0.3072087 -0.9516422
vn -1.267141E-07 -0.3072085 -0.9516423
vn -5.673364E-08 -0.3072037 -0.9516438
vn -6.151204E-08 -0.143452 -0.9896573
vn -1.534818E-07 -0.6480016 -0.7616391
vn -1.534818E-07 -0.6480016 -0.7616391
vn -1.534818E-07 -0.6480016 -0.7616391
vn -1 0 -3.72529E-08
vn 2.59197E-07 0.3072091 0.9516421
vn -1 0 -3.72529E-08
vn 1.629328E-07 0.8393943 -0.5435231
vn -0.7603924 -0.4208536 -0.4946571
vn -0.8262195 -0.3650506 -0.4290681
vn -0.07104916 -0.6463639 -0.7597143
vn -1.534821E-07 -0.6480016 -0.7616391
vn -1.534818E-07 -0.6480016 -0.7616391
vn -1.534814E-07 -0.6480016 -0.7616391
vn -0.1030028 -0.6445549 -0.757588
vn -1 0 -3.72529E-08
vn -0.01266333 -0.6479452 -0.7615817
vn -1.534828E-07 -0.6480016 -0.7616391
vn -0.1414215 -0.6414888 -0.7539842
vn -1.534829E-07 -0.6480066 -0.7616348
vn 0.06004165 -0.6468372 -0.7602609
vn 1.888721E-07 0.3072091 0.951642
vn -1.534846E-07 -0.6480196 -0.7616237
vn 1 -4.498916E-06 -5.250621E-06
vn 1 0 3.72529E-08
vn 1 -3.287108E-07 3.169197E-07
vn 0 0 0
vn 1.786813E-07 0.307209 0.9516422
vn 1.433859E-07 0.3072091 0.9516421
vn 1.684905E-07 0.3072091 0.9516422
vn 1 -3.287108E-07 3.169197E-07
vn 1 -3.287108E-07 3.169197E-07
vn 1.192093E-07 0.7616391 -0.6480016
vn 1.192092E-07 0.761639 -0.6480015
vn 1.192093E-07 0.7616391 -0.6480016
vn 1.192093E-07 0.7616391 -0.6480016
vn 1.192093E-07 0.7616391 -0.6480016
vn 1.192093E-07 0.7616391 -0.6480016
vn 1.192093E-07 0.7616391 -0.6480016
vn 1.192093E-07 0.7616391 -0.6480016
vn 1.192093E-07 0.7616391 -0.6480016
vn -1 0 -3.72529E-08
vn -1 0 -3.72529E-08
vn -1 0 -3.72529E-08
vn -1 0 -3.72529E-08
vn -1 0 -3.72529E-08
vn -1 0 -3.72529E-08
vn -1 0 -3.72529E-08
vn -1 0 -3.72529E-08
vn -1 0 -3.72529E-08
vn -1 0 -3.72529E-08
vn -1 0 -3.72529E-08
vn -1 0 -3.72529E-08
vn -1 0 -3.72529E-08
vn -1 0 -3.72529E-08
vn -1 0 -3.72529E-08
vn -1 0 -3.72529E-08
vn -1 0 -3.72529E-08
vn -1 0 -3.72529E-08
vn -1 0 -3.72529E-08
vn -1 0 -3.72529E-08
vn -1 0 -3.72529E-08
vn -1 0 -3.72529E-08
vn -1 0 -3.72529E-08
vn -1 0 -3.72529E-08
vn -1 0 -3.72529E-08
vn -1 0 -3.72529E-08
vn -1 0 -3.72529E-08
vn -1 0 -3.72529E-08
vn -1 0 -3.72529E-08
vn -1 0 -3.72529E-08
vn -1 0 -3.72529E-08
vn -1 0 -3.72529E-08
vn -1 0 -3.72529E-08
vn -1 0 -3.72529E-08
vn -1 0 -3.72529E-08
vn -1 0 -3.72529E-08
vn -1 0 -3.72529E-08
vn -1 0 -3.72529E-08
vn -3.083718E-07 -0.890142 -0.4556835
vn -2.795448E-07 -0.9764088 -0.2159301
vn -2.394487E-07 -0.9983894 0.05673274
vn -2.893208E-07 -0.8901418 -0.4556834
vn -1.480167E-07 -0.8431109 0.5377398
vn -7.86787E-08 -0.665852 0.746084
vn -2.150146E-08 -0.4556834 0.8901419
vn -1.425606E-08 -0.4556835 0.8901419
vn -2.226613E-07 -0.8901418 -0.4556836
vn 1.192093E-07 0.7616391 -0.6480016
vn 1.192093E-07 0.7616391 -0.6480016
vn 1.192093E-07 0.7616391 -0.6480016
vn 1.192093E-07 0.7616391 -0.6480016
vn 1.192093E-07 0.7616391 -0.6480016
vn 1.192093E-07 0.7616391 -0.6480016
vn 1.283792E-07 0.7616391 -0.6480016
vn 1.283792E-07 0.761639 -0.6480015
vn 0.2028032 0.6345357 0.7458118
vn 1 -4.774208E-07 -5.238914E-07
vn 1 -1.643554E-07 1.770863E-07
vn 1 -2.502869E-07 1.036729E-07
vn 1 -1.643554E-07 1.770863E-07
vn 1 -1.643554E-07 1.770863E-07
vn 1 -2.940314E-07 -1.132682E-07
vn 1 -2.940315E-07 -1.132684E-07
vn 1 -2.940313E-07 -1.132677E-07
vn 1 -2.940314E-07 -1.132685E-07
vn 1 -2.940314E-07 -1.132686E-07
vn 1 -2.940315E-07 -1.13268E-07
vn 1 -2.940315E-07 -1.132657E-07
vn 1 -2.940312E-07 -1.13271E-07
vn 1 -3.141627E-07 1.364549E-07
vn 1 -2.324337E-07 2.350072E-07
vn 1 -3.143456E-07 1.387303E-07
vn 1 -3.143461E-07 1.3873E-07
vn 1 -3.143468E-07 1.387296E-07
vn 1 -3.143464E-07 1.387299E-07
vn 1 -3.143464E-07 1.387299E-07
vn 1 -3.143463E-07 1.3873E-07
vn 1 -3.143459E-07 1.387305E-07
vn 1 -1.669231E-07 3.120061E-07
vn 1 -1.505213E-07 3.312844E-07
vn 1 -1.505211E-07 3.312846E-07
vn 1 -1.505213E-07 3.312838E-07
vn 1 -1.50521E-07 3.312856E-07
vn 1 -1.505211E-07 3.312847E-07
vn 1 -1.505212E-07 3.312843E-07
vn 1 -1.056552E-07 2.736681E-07
vn 1 1.014773E-07 3.515992E-07
vn 1 1.014775E-07 3.515993E-07
vn 1 1.014778E-07 3.515994E-07
vn 1 1.014713E-07 3.515961E-07
vn 1 1.014784E-07 3.515999E-07
vn 1 1.01478E-07 3.515995E-07
vn 1 1.014767E-07 3.515988E-07
vn 1 1.014756E-07 3.515981E-07
vn 1 -1.643554E-07 1.770863E-07
vn 1 -1.643554E-07 1.770863E-07
vn 1 -1.643554E-07 1.770863E-07

f 1//1 2//2 3//3
f 4//4 1//1 3//3
f 3//3 5//5 4//4
f 3//3 6//6 5//5
f 5//5 6//6 7//7
f 8//8 7//7 6//6
f 9//9 8//8 6//6
f 10//10 9//9 6//6
f 9//9 10//10 11//11
f 11//11 10//10 12//12
f 13//13 11//11 12//12
f 13//13 12//12 14//14
f 13//13 14//14 15//15
f 15//15 14//14 16//16
f 15//15 16//16 17//17
f 18//18 17//17 16//16
f 19//19 17//17 18//18
f 19//19 18//18 20//20
f 21//21 19//19 20//20
f 22//22 19//19 21//21
f 22//22 21//21 23//23
f 24//24 22//22 23//23
f 24//24 23//23 25//25
f 26//26 24//24 25//25
f 26//26 25//25 27//27
f 28//28 26//26 27//27
f 28//28 27//27 29//29
f 29//29 27//27 30//30
f 31//31 29//29 30//30
f 31//31 30//30 32//32
f 33//33 31//31 32//32
f 33//33 32//32 34//34
f 35//35 33//33 34//34
f 35//35 34//34 36//36
f 37//37 35//35 36//36
f 37//37 36//36 38//38
f 39//39 37//37 38//38
f 39//39 38//38 40//40
f 41//41 39//39 40//40
f 41//41 40//40 42//42
f 41//41 42//42 43//43
f 43//43 42//42 44//44
f 45//45 43//43 44//44
f 45//45 44//44 46//46
f 47//47 45//45 46//46
f 48//48 45//45 47//47
f 48//48 47//47 49//49
f 50//50 48//48 49//49
f 50//50 49//49 51//51
f 52//52 50//50 51//51
f 52//52 51//51 53//53
f 54//54 52//52 53//53
f 55//55 54//54 53//53
f 55//55 53//53 56//56
f 55//55 56//56 57//57
f 57//57 56//56 58//58
f 57//57 58//58 59//59
f 59//59 58//58 60//60
f 59//59 60//60 61//61
f 61//61 60//60 62//62
f 61//61 62//62 63//63
f 63//63 62//62 64//64
f 63//63 64//64 65//65
f 65//65 64//64 66//66
f 65//65 66//66 67//67
f 68//68 67//67 66//66
f 69//69 67//67 68//68
f 69//69 68//68 70//70
f 71//71 69//69 70//70
f 72//72 71//71 73//73
f 74//74 75//75 76//76
f 77//77 74//74 76//76
f 75//75 77//77 76//76
f 78//78 75//75 74//74
f 79//79 75//75 78//78
f 78//78 74//74 80//80
f 81//81 78//78 80//80
f 82//82 78//78 81//81
f 82//82 83//83 78//78
f 83//83 84//84 79//79
f 84//84 85//85 79//79
f 80//80 74//74 86//86
f 87//87 80//80 86//86
f 81//81 80//80 87//87
f 86//86 74//74 88//88
f 88//88 74//74 77//77
f 86//86 88//88 89//89
f 90//90 86//86 89//89
f 87//87 86//86 90//90
f 75//75 91//91 77//77
f 90//90 89//89 92//92
f 90//90 92//92 93//93
f 94//94 90//90 93//93
f 95//95 83//83 82//82
f 95//95 82//82 81//81
f 95//95 81//81 87//87
f 95//95 87//87 90//90
f 95//95 96//96 83//83
f 97//97 91//91 75//75
f 97//97 98//98 91//91
f 97//97 99//99 98//98
f 100//100 95//95 101//101
f 102//102 103//103 104//104
f 102//102 104//104 105//105
f 102//102 105//105 106//106
f 106//106 105//105 107//107
f 108//108 102//102 106//106
f 109//109 102//102 108//108
f 110//110 108//108 106//106
f 111//111 112//112 113//113
f 111//111 113//113 114//114
f 111//111 114//114 115//115
f 111//111 115//115 116//116
f 111//111 116//116 117//117
f 117//117 118//118 111//111
f 118//118 119//119 111//111
f 120//120 111//111 119//119
f 120//120 121//121 111//111
f 121//121 122//122 111//111
f 111//111 122//122 123//123
f 114//114 113//113 124//124
f 124//124 113//113 125//125
f 125//125 113//113 126//126
f 126//126 113//113 127//127
f 127//127 113//113 128//128
f 128//128 113//113 129//129
f 129//129 113//113 130//130
f 130//130 113//113 131//131
f 131//131 113//113 132//132
f 132//132 113//113 133//133
f 133//133 113//113 134//134
f 133//133 134//134 135//135
f 135//135 134//134 136//136
f 134//134 137//137 136//136
f 137//137 134//134 138//138
f 138//138 134//134 139//139
f 139//139 134//134 140//140
f 140//140 134//134 141//141
f 134//134 142//142 141//141
f 134//134 143//143 142//142
f 134//134 144//144 143//143
f 144//144 134//134 145//145
f 145//145 134//134 146//146
f 147//147 134//134 148//148
f 149//149 150//150 151//151
f 149//149 152//152 150//150
f 151//151 150//150 153//153
f 151//151 153//153 154//154
f 154//154 153//153 155//155
f 154//154 155//155 156//156
f 152//152 157//157 150//150
f 158//158 159//159 160//160
f 161//161 159//159 158//158
f 162//162 159//159 161//161
f 163//163 162//162 161//161
f 164//164 162//162 163//163
f 165//165 162//162 164//164
f 9//9 166//166 8//8
f 166//166 9//9 167//167
f 168//168 169//169 170//170
f 168//168 171//171 169//169
f 172//172 169//169 173//173
f 174//174 169//169 172//172
f 169//169 174//174 175//175
f 176//176 169//169 175//175
f 177//177 169//169 176//176
f 178//178 169//169 177//177
f 178//178 179//179 169//169
f 179//179 180//180 169//169
f 180//180 181//181 169//169
f 182//182 181//181 180//180
f 182//182 183//183 181//181
f 183//183 184//184 181//181
f 184//184 185//185 181//181
f 185//185 186//186 181//181
f 186//186 187//187 181//181
f 187//187 188//188 181//181
f 188//188 189//189 181//181
f 181//181 189//189 190//190
f 181//181 190//190 191//191
f 192//192 181//181 191//191
f 193//193 181//181 192//192
f 194//194 181//181 193//193
f 195//195 181//181 194//194
f 195//195 196//196 181//181
f 196//196 197//197 198//198
f 196//196 198//198 199//199
f 199//199 200//200 196//196
f 196//196 200//200 201//201
f 201//201 202//202 196//196
f 196//196 202//202 203//203
f 196//196 203//203 204//204
f 205//205 196//196 206//206
f 207//207 196//196 205//205
