v 9.999985 -195.928 190.8666
v 50.00002 -195.928 190.8666
v 9.999985 -195.928 190.8666
v 9.999985 -195.928 190.8666
v 9.999985 -197.3823 194.1285
v 9.999985 -197.964 195.4333
v 9.999985 -197.964 195.4333
v 50.00002 -197.964 195.4333
v 90.00006 -197.964 195.4333
v 9.999985 -198.2106 195.4267
v 90.00006 -200.1835 195.3741
v 9.999985 -198.2412 195.4259
v 90.00006 -200.4592 195.3667
v 9.999985 -198.2498 195.4257
v 90.00006 -200.5367 195.3646
v 9.999985 -198.3465 195.4231
v 90.00006 -201.4069 195.3414
v 9.999985 -199.5387 195.3913
v 90.00006 -201.5394 195.3379
v 9.999985 -200.669 195.3611
v 9.999985 -200.799 195.3576
v 90.00006 -201.6794 195.3341
v 9.999985 -201.0703 195.3504
v 90.00006 -201.7096 195.3333
v 9.999985 -201.7895 195.3312
v 90.00006 -201.7895 195.3312
v 9.999985 -201.9372 195.4712
v 90.00006 -202.6029 196.1023
v 90.00006 -203.119 196.5916
v 9.999985 -201.9738 195.506
v 90.00006 -203.4489 196.9043
v 9.999985 -201.9848 195.5163
v 90.00006 -203.547 196.9973
v 9.999985 -202.0672 195.5945
v 90.00006 -204.289 197.7007
v 9.999985 -203.013 196.4911
v 90.00006 -204.3941 197.8003
v 9.999985 -203.7944 197.2318
v 90.00006 -204.4809 197.8826
v 9.999985 -204.5667 197.964
v 90.00006 -204.5667 197.964
v 9.999985 -204.5698 198.082
v 90.00006 -204.5951 199.0264
v 9.999985 -204.5769 198.3465
v 90.00006 -204.6586 201.4069
v 9.999985 -204.5966 199.0844
v 9.999985 -204.6045 199.3795
v 90.00006 -204.6617 201.5217
v 9.999985 -204.6313 200.3858
v 90.00006 -204.6647 201.6335
v 9.999985 -204.6535 201.2143
v 90.00006 -204.6671 201.7256
v 9.999985 -204.6688 201.7895
v 90.00006 -204.6688 201.7895
v 90.00006 -204.6688 201.7895
v 9.999985 -204.5123 201.9545
v 90.00006 -203.2605 203.275
v 9.999985 -204.4663 202.0031
v 90.00006 -202.846 203.7122
v 9.999985 -204.4616 202.0081
v 90.00006 -202.8037 203.7569
v 9.999985 -204.4594 202.0104
v 90.00006 -202.7841 203.7776
v 9.999985 -204.4566 202.0133
v 90.00006 -202.7593 203.8038
v 9.999985 -204.4055 202.0672
v 90.00006 -202.2993 204.289
v 9.999985 -202.036 204.5667
v 90.00006 -202.036 204.5667
v 9.999985 -202.036 204.5667
v 90.00006 -202.036 204.5667
v 9.999985 -202.036 204.5667
v 9.999985 -202.036 204.5667
v 9.999985 -202.6177 205.8715
v 9.999981 -204.072 209.1334
v 9.999981 -204.072 209.1334
v 9.999981 -204.072 209.1334
v 9.999985 -202.036 204.5667
v 9.999985 -202.036 204.5667
v 9.999985 -202.036 204.5667
v 90.00006 -202.036 204.5667
v 90.00006 -202.036 204.5667
v 90.00006 -202.036 204.5667
v 9.999985 -202.036 204.5667
v 9.999985 -209.3376 203.5789
v 9.999985 -202.036 204.5667
v 90.00006 -202.036 204.5667
v 9.999985 -202.036 204.5667
v 50.00002 -202.036 204.5667
v 90.00006 -202.036 204.5667
v 50.00002 -204.072 209.1334
v 90.00002 -202.036 204.5667
v 90.00006 -202.036 204.5667
v 90.00006 -202.6177 205.8715
v 90.00005 -209.3376 203.5789
v 90.00006 -202.036 204.5667
v 9.999985 -209.3376 203.5789
v 90.00006 -204.072 209.1334
v 90.00005 -209.3376 203.5789
v 90.00006 -204.6688 201.7895
v 90.00006 -204.6688 201.7895
v 50.00002 -195.928 190.8666
v 9.999985 -195.928 190.8666
v 9.999985 -195.928 190.8666
v 9.999985 -197.3823 194.1285
v 50.00002 -197.964 195.4333
v 9.999985 -197.964 195.4333
v 90.00006 -197.1207 193.5417
v 90.00006 -195.928 190.8666
v 90.00006 -197.964 195.4333
v 9.999985 -195.928 190.8666
v 9.999985 -203.5789 190.6624
v 9.999985 -209.1334 195.928
v 9.999985 -201.7895 195.3312
v 9.999985 -201.0703 195.3504
v 9.999985 -200.799 195.3576
v 9.999985 -200.669 195.3611
v 9.999985 -199.5387 195.3913
v 9.999985 -198.3465 195.4231
v 9.999985 -198.2498 195.4257
v 9.999985 -198.2412 195.4259
v 9.999985 -198.2106 195.4267
v 9.999985 -197.964 195.4333
v 9.999985 -201.9372 195.4712
v 9.999985 -201.9738 195.506
v 9.999985 -201.9848 195.5163
v 9.999985 -202.0672 195.5945
v 9.999985 -203.013 196.4911
v 9.999985 -203.7944 197.2318
v 9.999985 -204.5667 197.964
v 9.999985 -204.5698 198.082
v 9.999985 -204.5769 198.3465
v 9.999985 -204.5966 199.0844
v 9.999985 -209.3376 203.5789
v 9.999985 -204.6045 199.3795
v 9.999985 -204.6313 200.3858
v 9.999985 -204.6535 201.2143
v 9.999985 -204.6688 201.7895
v 9.999985 -204.5123 201.9545
v 9.999985 -204.4663 202.0031
v 9.999985 -204.4616 202.0081
v 9.999985 -204.4594 202.0104
v 9.999985 -204.4566 202.0133
v 9.999985 -204.4055 202.0672
v 9.999985 -202.036 204.5667
v 9.999985 -202.036 204.5667
v 9.999985 -202.036 204.5667
v 9.999981 -204.072 209.1334
v 9.999985 -195.928 190.8666
v 90.00005 -203.5789 190.6624
v 9.999985 -203.5789 190.6624
v 50.00002 -195.928 190.8666
v 90.00005 -209.1334 195.928
v 9.999985 -209.1334 195.928
v 90.00005 -209.3376 203.5789
v 9.999985 -209.3376 203.5789
v 90.00006 -195.928 190.8666
v 9.999981 -204.072 209.1334
v 50.00002 -202.036 204.5667
v 9.999985 -202.036 204.5667
v 50.00002 -204.072 209.1334
v 90.00002 -202.036 204.5667
v 90.00006 -204.072 209.1334
v 90.00006 -202.6177 205.8715
v 90.00006 -202.036 204.5667
v 90.00006 -197.964 195.4333
v 90.00005 -203.5789 190.6624
v 90.00006 -197.1207 193.5417
v 90.00005 -203.5789 190.6624
v 90.00006 -195.928 190.8666
v 90.00006 -197.964 195.4333
v 90.00006 -200.1835 195.3741
v 90.00006 -197.964 195.4333
v 90.00006 -200.4592 195.3667
v 90.00006 -200.5367 195.3646
v 90.00006 -201.4069 195.3414
v 90.00006 -201.5394 195.3379
v 90.00006 -201.6794 195.3341
v 90.00006 -201.7096 195.3333
v 90.00006 -201.7895 195.3312
v 90.00005 -209.1334 195.928
v 90.00006 -202.6029 196.1023
v 90.00006 -203.119 196.5916
v 90.00006 -203.4489 196.9043
v 90.00006 -203.547 196.9973
v 90.00006 -204.289 197.7007
v 90.00006 -204.3941 197.8003
v 90.00006 -204.4809 197.8826
v 90.00006 -204.5667 197.964
v 90.00006 -204.5951 199.0264
v 90.00006 -204.6586 201.4069
v 90.00006 -204.6617 201.5217
v 90.00006 -204.6647 201.6335
v 90.00006 -204.6671 201.7256
v 90.00006 -204.6688 201.7895
v 90.00005 -209.3376 203.5789
v 90.00006 -204.6688 201.7895
v 90.00006 -203.2605 203.275
v 90.00006 -202.846 203.7122
v 90.00006 -202.8037 203.7569
v 90.00006 -202.7841 203.7776
v 90.00006 -202.7593 203.8038
v 90.00006 -202.2993 204.289
v 90.00006 -202.036 204.5667
v 90.00006 -202.6177 205.8715
v 90.00006 -202.036 204.5667
v 90.00006 -204.072 209.1334

vn -3.999467E-07 0.4071998 -0.9133391
vn -2.47359E-07 0.4071998 -0.9133391
vn -0.6507912 0.3091691 -0.6934589
vn -1 1.490116E-08 -1.341105E-07
vn -1 1.490116E-08 -1.341105E-07
vn -6.498032E-08 -0.02667891 0.999644
vn -0.1414211 -0.4031073 0.9041597
vn 1.419745E-07 0.7903966 0.6125954
vn 2.128344E-07 -0.02668353 0.9996439
vn 1.717128E-07 -0.02668438 0.999644
vn 2.104548E-07 -0.02668403 0.9996439
vn 2.940386E-07 -0.02668302 0.999644
vn 3.52551E-07 -0.02668195 0.9996439
vn -2.391651E-07 -0.02668775 0.9996439
vn 4.839797E-08 -0.02668497 0.9996439
vn 9.64661E-08 -0.02668444 0.9996439
vn 7.931725E-08 -0.02668459 0.999644
vn 7.815446E-08 -0.02668468 0.9996439
vn 9.211645E-08 -0.02668438 0.9996439
vn 1.113112E-07 -0.02668473 0.9996439
vn 1.055245E-07 -0.02668355 0.9996439
vn 1.482114E-07 -0.02668198 0.9996439
vn 3.772151E-08 -0.02668417 0.9996439
vn 5.153755E-08 -0.02668505 0.9996439
vn 6.151754E-08 0.1243997 0.9922323
vn 1.389242E-07 0.6577292 0.7532544
vn 1.987661E-07 0.6879883 0.7257218
vn 1.592777E-07 0.6879876 0.7257223
vn 1.395787E-07 0.6879874 0.7257226
vn -1.374451E-08 0.687986 0.7257241
vn -9.820041E-08 0.6879849 0.7257249
vn -3.144423E-07 0.6879838 0.7257261
vn -4.783439E-08 0.6879858 0.7257242
vn 1.303993E-07 0.6879866 0.7257233
vn 1.895025E-07 0.6879871 0.725723
vn 2.48239E-07 0.6879871 0.7257228
vn 1.496629E-07 0.6879863 0.7257236
vn 1.703199E-07 0.6879869 0.7257232
vn 2.111506E-07 0.6879877 0.7257224
vn 2.278591E-07 0.7342614 0.6788669
vn 1.48901E-07 0.9957053 0.09258
vn 1.162448E-07 0.9996439 0.02668537
vn 1.436902E-07 0.9996439 0.0266843
vn 1.843784E-07 0.999644 0.0266836
vn 1.55902E-07 0.9996439 0.0266836
vn 1.381478E-07 0.9996439 0.02668403
vn 1.197342E-08 0.9996439 0.02668459
vn 8.143901E-08 0.9996439 0.02668414
vn 5.898125E-08 0.999644 0.02668451
vn 5.146382E-08 0.9996439 0.02668417
vn 4.452616E-08 0.999644 0.02668419
vn 3.584134E-08 0.9996439 0.02668462
vn -3.324382E-09 0.9852998 -0.1708343
vn 3.380229E-08 0.9996433 0.02670789
vn -3.215557E-08 0.7257236 -0.6879863
vn 1.287512E-08 0.7257227 -0.6879872
vn 4.973936E-08 0.7257225 -0.6879876
vn 1.576845E-07 0.7257216 -0.6879884
vn -4.350824E-08 0.725723 -0.687987
vn -3.318974E-07 0.7257242 -0.6879859
vn -6.108813E-07 0.725726 -0.6879838
vn -6.226767E-06 0.7257571 -0.687951
vn -2.644025E-06 0.7257376 -0.6879716
vn 7.093333E-07 0.725718 -0.6879923
vn 3.200592E-07 0.7257209 -0.6879893
vn -1.755004E-08 0.7257228 -0.6879871
vn -4.315105E-08 0.7257232 -0.6879867
vn -4.293178E-08 0.7257234 -0.6879866
vn 2.704837E-08 0.7257269 -0.6879829
vn 1.257104E-08 0.8307174 -0.5566944
vn -5.662423E-08 0.4071998 -0.9133391
vn -5.662425E-08 0.4071998 -0.9133391
vn -5.662425E-08 0.4071998 -0.9133391
vn -1 1.490116E-08 -1.341105E-07
vn 1.754147E-07 -0.725723 0.687987
vn -1 1.490116E-08 -1.341105E-07
vn 1.355704E-07 0.8526734 0.5224443
vn -0.7603924 0.2644615 -0.5931808
vn -0.8262194 0.2293953 -0.5145282
vn -0.07104906 0.4061707 -0.9110309
vn -5.662456E-08 0.4071998 -0.9133391
vn -5.662423E-08 0.4071998 -0.9133391
vn -5.662389E-08 0.4071998 -0.9133391
vn -0.1030027 0.4050339 -0.9084811
vn -1 1.490116E-08 -1.341105E-07
vn -0.01266323 0.4071724 -0.9132636
vn -5.662527E-08 0.4071998 -0.9133391
vn -0.1414214 0.4031072 -0.9041596
vn -5.66252E-08 0.4071937 -0.9133418
vn 0.06004174 0.4064594 -0.9116939
vn 1.050898E-07 -0.725723 0.687987
vn -5.662672E-08 0.4071782 -0.9133487
vn 1 2.812187E-06 -6.20698E-06
vn 1 -1.490116E-08 1.341105E-07
vn 1 -4.090832E-07 -4.163025E-08
vn 0 0 0
vn 9.489898E-08 -0.7257231 0.687987
vn 5.960361E-08 -0.725723 0.687987
vn 8.470821E-08 -0.7257231 0.687987
vn 1 -4.090832E-07 -4.163025E-08
vn 1 -4.090832E-07 -4.163025E-08
vn 1.043081E-07 0.9133391 0.4071998
vn 1.043081E-07 0.9133391 0.4071998
vn 1.043081E-07 0.9133391 0.4071998
vn 1.043081E-07 0.9133391 0.4071998
vn 1.043081E-07 0.9133391 0.4071998
vn 1.043081E-07 0.9133391 0.4071998
vn 1.043081E-07 0.9133391 0.4071998
vn 1.043081E-07 0.9133391 0.4071998
vn 1.043081E-07 0.9133391 0.4071998
vn -1 1.490116E-08 -1.341105E-07
vn -1 1.490116E-08 -1.341105E-07
vn -1 1.490116E-08 -1.341105E-07
vn -1 1.490116E-08 -1.341105E-07
vn -1 1.490116E-08 -1.341105E-07
vn -1 1.490116E-08 -1.341105E-07
vn -1 1.490116E-08 -1.341105E-07
vn -1 1.490116E-08 -1.341105E-07
vn -1 1.490116E-08 -1.341105E-07
vn -1 1.490116E-08 -1.341105E-07
vn -1 1.490116E-08 -1.341105E-07
vn -1 1.490116E-08 -1.341105E-07
vn -1 1.490116E-08 -1.341105E-07
vn -0.9999999 1.490116E-08 -1.341104E-07
vn -1 1.490116E-08 -1.341105E-07
vn -1 1.490116E-08 -1.341105E-07
vn -0.9999999 1.490116E-08 -1.341104E-07
vn -1 1.490116E-08 -1.341105E-07
vn -1 1.490116E-08 -1.341105E-07
vn -1 1.490116E-08 -1.341105E-07
vn -0.9999999 1.490116E-08 -1.341104E-07
vn -1 1.490116E-08 -1.341105E-07
vn -1 1.490116E-08 -1.341105E-07
vn -1 1.490116E-08 -1.341105E-07
vn -1 1.490116E-08 -1.341105E-07
vn -1 1.490116E-08 -1.341105E-07
vn -1 1.490116E-08 -1.341105E-07
vn -1 1.490116E-08 -1.341105E-07
vn -1 1.490116E-08 -1.341105E-07
vn -1 1.490116E-08 -1.341105E-07
vn -1 1.490116E-08 -1.341105E-07
vn -0.9999999 1.490116E-08 -1.341104E-07
vn -1 1.490116E-08 -1.341105E-07
vn -0.9999999 1.490116E-08 -1.341104E-07
vn -0.9999999 1.490116E-08 -1.341104E-07
vn -1 1.490116E-08 -1.341105E-07
vn -0.9999999 1.490116E-08 -1.341104E-07
vn -0.9999999 1.490116E-08 -1.341104E-07
vn -2.131847E-07 0.026684 -0.999644
vn -1.933358E-07 -0.2268171 -0.9739374
vn -1.690923E-07 -0.4822453 -0.8760362
vn -1.941336E-07 0.02668396 -0.9996438
vn -1.20008E-07 -0.8490617 -0.5282937
vn -7.716512E-08 -0.9604501 -0.2784524
vn -4.480034E-08 -0.9996439 -0.026684
vn -3.755494E-08 -0.9996439 -0.02668403
vn -1.274741E-07 0.02668409 -0.9996439
vn 1.043081E-07 0.9133391 0.4071998
vn 1.043081E-07 0.9133391 0.4071998
vn 1.043081E-07 0.9133391 0.4071998
vn 1.043081E-07 0.9133391 0.4071998
vn 1.043081E-07 0.9133391 0.4071998
vn 1.043081E-07 0.9133391 0.4071998
vn 1.134781E-07 0.9133391 0.4071998
vn 1.134781E-07 0.9133391 0.4071998
vn 0.2028031 -0.398738 0.8943595
vn 1 2.851069E-07 -5.388002E-07
vn 0.9999999 -2.119922E-07 4.62401E-08
vn 1 -1.82877E-07 -6.296637E-08
vn 1 -2.119922E-07 4.62401E-08
vn 1 -2.119922E-07 4.62401E-08
vn 1 -6.087034E-09 -1.960916E-07
vn 1 -6.086885E-09 -1.960917E-07
vn 1 -6.087451E-09 -1.960912E-07
vn 1 -6.086708E-09 -1.960917E-07
vn 1 -6.086633E-09 -1.960917E-07
vn 0.9999999 -6.087233E-09 -1.960915E-07
vn 1 -6.089318E-09 -1.960906E-07
vn 0.9999999 -6.084368E-09 -1.960926E-07
vn 1 -2.400254E-07 -1.064271E-07
vn 1 -2.936301E-07 9.842975E-09
vn 1 -2.421568E-07 -1.056097E-07
vn 1 -2.421567E-07 -1.056102E-07
vn 1 -2.421566E-07 -1.05611E-07
vn 1 -2.421567E-07 -1.056105E-07
vn 1 -2.421567E-07 -1.056105E-07
vn 1 -2.421568E-07 -1.056103E-07
vn 1 -2.42157E-07 -1.056098E-07
vn 1 -3.347964E-07 1.021783E-07
vn 1 -3.451034E-07 1.252962E-07
vn 1 -3.451034E-07 1.252964E-07
vn 1 -3.451028E-07 1.252959E-07
vn 1 -3.451043E-07 1.25297E-07
vn 1 -3.451035E-07 1.252965E-07
vn 1 -3.451032E-07 1.252962E-07
vn 1 -2.737626E-07 1.408878E-07
vn 1 -2.546219E-07 3.613662E-07
vn 1 -2.546219E-07 3.613664E-07
vn 1 -2.546219E-07 3.613668E-07
vn 1 -2.546217E-07 3.613595E-07
vn 1 -2.54622E-07 3.613676E-07
vn 1 -2.546219E-07 3.61367E-07
vn 1 -2.546218E-07 3.613655E-07
vn 0.9999999 -2.546216E-07 3.613643E-07
vn 1 -2.119922E-07 4.624011E-08
vn 1 -2.119922E-07 4.624011E-08
vn 0.9999999 -2.119922E-07 4.62401E-08

f 1//1 2//2 3//3
f 4//4 1//1 3//3
f 3//3 5//5 4//4
f 3//3 6//6 5//5
f 5//5 6//6 7//7
f 8//8 7//7 6//6
f 9//9 8//8 6//6
f 10//10 9//9 6//6
f 9//9 10//10 11//11
f 11//11 10//10 12//12
f 13//13 11//11 12//12
f 13//13 12//12 14//14
f 13//13 14//14 15//15
f 15//15 14//14 16//16
f 15//15 16//16 17//17
f 18//18 17//17 16//16
f 19//19 17//17 18//18
f 19//19 18//18 20//20
f 21//21 19//19 20//20
f 22//22 19//19 21//21
f 22//22 21//21 23//23
f 24//24 22//22 23//23
f 24//24 23//23 25//25
f 26//26 24//24 25//25
f 26//26 25//25 27//27
f 28//28 26//26 27//27
f 28//28 27//27 29//29
f 29//29 27//27 30//30
f 31//31 29//29 30//30
f 31//31 30//30 32//32
f 33//33 31//31 32//32
f 33//33 32//32 34//34
f 35//35 33//33 34//34
f 35//35 34//34 36//36
f 37//37 35//35 36//36
f 37//37 36//36 38//38
f 39//39 37//37 38//38
f 39//39 38//38 40//40
f 41//41 39//39 40//40
f 41//41 40//40 42//42
f 41//41 42//42 43//43
f 43//43 42//42 44//44
f 45//45 43//43 44//44
f 45//45 44//44 46//46
f 47//47 45//45 46//46
f 48//48 45//45 47//47
f 48//48 47//47 49//49
f 50//50 48//48 49//49
f 50//50 49//49 51//51
f 52//52 50//50 51//51
f 52//52 51//51 53//53
f 54//54 52//52 53//53
f 55//55 54//54 53//53
f 55//55 53//53 56//56
f 55//55 56//56 57//57
f 57//57 56//56 58//58
f 57//57 58//58 59//59
f 59//59 58//58 60//60
f 59//59 60//60 61//61
f 61//61 60//60 62//62
f 61//61 62//62 63//63
f 63//63 62//62 64//64
f 63//63 64//64 65//65
f 65//65 64//64 66//66
f 65//65 66//66 67//67
f 68//68 67//67 66//66
f 69//69 67//67 68//68
f 69//69 68//68 70//70
f 71//71 69//69 70//70
f 72//72 71//71 73//73
f 74//74 75//75 76//76
f 77//77 74//74 76//76
f 75//75 77//77 76//76
f 78//78 75//75 74//74
f 79//79 75//75 78//78
f 78//78 74//74 80//80
f 81//81 78//78 80//80
f 82//82 78//78 81//81
f 82//82 83//83 78//78
f 83//83 84//84 79//79
f 84//84 85//85 79//79
f 80//80 74//74 86//86
f 87//87 80//80 86//86
f 81//81 80//80 87//87
f 86//86 74//74 88//88
f 88//88 74//74 77//77
f 86//86 88//88 89//89
f 90//90 86//86 89//89
f 87//87 86//86 90//90
f 75//75 91//91 77//77
f 90//90 89//89 92//92
f 90//90 92//92 93//93
f 94//94 90//90 93//93
f 95//95 83//83 82//82
f 95//95 82//82 81//81
f 95//95 81//81 87//87
f 95//95 87//87 90//90
f 95//95 96//96 83//83
f 97//97 91//91 75//75
f 97//97 98//98 91//91
f 97//97 99//99 98//98
f 100//100 95//95 101//101
f 102//102 103//103 104//104
f 102//102 104//104 105//105
f 102//102 105//105 106//106
f 106//106 105//105 107//107
f 108//108 102//102 106//106
f 109//109 102//102 108//108
f 110//110 108//108 106//106
f 111//111 112//112 113//113
f 111//111 113//113 114//114
f 111//111 114//114 115//115
f 111//111 115//115 116//116
f 111//111 116//116 117//117
f 117//117 118//118 111//111
f 118//118 119//119 111//111
f 120//120 111//111 119//119
f 120//120 121//121 111//111
f 121//121 122//122 111//111
f 111//111 122//122 123//123
f 114//114 113//113 124//124
f 124//124 113//113 125//125
f 125//125 113//113 126//126
f 126//126 113//113 127//127
f 127//127 113//113 128//128
f 128//128 113//113 129//129
f 129//129 113//113 130//130
f 130//130 113//113 131//131
f 131//131 113//113 132//132
f 132//132 113//113 133//133
f 133//133 113//113 134//134
f 133//133 134//134 135//135
f 135//135 134//134 136//136
f 134//134 137//137 136//136
f 137//137 134//134 138//138
f 138//138 134//134 139//139
f 139//139 134//134 140//140
f 140//140 134//134 141//141
f 134//134 142//142 141//141
f 134//134 143//143 142//142
f 134//134 144//144 143//143
f 144//144 134//134 145//145
f 145//145 134//134 146//146
f 147//147 134//134 148//148
f 149//149 150//150 151//151
f 149//149 152//152 150//150
f 151//151 150//150 153//153
f 151//151 153//153 154//154
f 154//154 153//153 155//155
f 154//154 155//155 156//156
f 152//152 157//157 150//150
f 158//158 159//159 160//160
f 161//161 159//159 158//158
f 162//162 159//159 161//161
f 163//163 162//162 161//161
f 164//164 162//162 163//163
f 165//165 162//162 164//164
f 9//9 166//166 8//8
f 166//166 9//9 167//167
f 168//168 169//169 170//170
f 168//168 171//171 169//169
f 172//172 169//169 173//173
f 174//174 169//169 172//172
f 169//169 174//174 175//175
f 176//176 169//169 175//175
f 177//177 169//169 176//176
f 178//178 169//169 177//177
f 178//178 179//179 169//169
f 179//179 180//180 169//169
f 180//180 181//181 169//169
f 182//182 181//181 180//180
f 182//182 183//183 181//181
f 183//183 184//184 181//181
f 184//184 185//185 181//181
f 185//185 186//186 181//181
f 186//186 187//187 181//181
f 187//187 188//188 181//181
f 188//188 189//189 181//181
f 181//181 189//189 190//190
f 181//181 190//190 191//191
f 192//192 181//181 191//191
f 193//193 181//181 192//192
f 194//194 181//181 193//193
f 195//195 181//181 194//194
f 195//195 196//196 181//181
f 196//196 197//197 198//198
f 196//196 198//198 199//199
f 199//199 200//200 196//196
f 196//196 200//200 201//201
f 201//201 202//202 196//196
f 196//196 202//202 203//203
f 196//196 203//203 204//204
f 205//205 196//196 206//206
f 207//207 196//196 205//205
