v 9.465055 189.6127 1.585888
v 9.465056 98.55685 47.1138
v 9.465055 189.6127 1.585888
v 9.465053 189.6127 1.585888
v 6.084679 190.1281 2.61668
v 4.732528 190.3342 3.028999
v 4.732528 190.3342 3.028999
v 4.732531 99.2784 48.55691
v 4.73253 8.22258 94.08482
v 4.569627 190.2514 2.8633
v 3.266419 7.476921 92.59351
v 4.549385 190.2411 2.842709
v 3.084233 7.384262 92.4082
v 4.543702 190.2382 2.836926
v 3.033084 7.358253 92.35616
v 4.479829 190.2057 2.771957
v 2.458225 7.06588 91.77142
v 3.692322 189.8052 1.970917
v 2.370725 7.021378 91.68242
v 2.945668 189.4254 1.211426
v 2.859773 189.3817 1.124054
v 2.278219 6.974335 91.58833
v 2.68062 189.2906 0.9418221
v 2.258313 6.964211 91.56808
v 2.205525 189.049 0.4585648
v 2.205525 6.937363 91.51438
v 2.002389 189.0432 0.4468956
v 1.086973 6.905235 91.45013
v 0.3773157 6.884857 91.40938
v 1.951988 189.0417 0.4440041
v -0.07628966 6.871826 91.38332
v 1.936989 189.0413 0.4431419
v -0.2112829 6.86795 91.37556
v 1.823627 189.038 0.4366302
v -1.231549 6.838654 91.31696
v 0.5230571 189.0007 0.361927
v -1.376057 6.834503 91.30867
v -0.5514194 188.9698 0.3002129
v -1.495443 6.83107 91.3018
v -1.613446 188.9393 0.239212
v -1.613446 6.827682 91.29503
v -1.702129 188.9742 0.30896
v -2.411594 7.141548 91.92276
v -1.90083 189.0523 0.4652328
v -4.199897 7.844788 93.32923
v -2.455172 189.2703 0.9012184
v -2.676865 189.3575 1.075573
v -4.286124 7.878693 93.39705
v -3.432795 189.6548 1.670101
v -4.370115 7.91172 93.4631
v -4.055223 189.8995 2.159626
v -4.439275 7.938919 93.5175
v -4.487281 190.0694 2.499435
v -4.48728 7.957794 93.55525
v -4.487281 7.957794 93.55525
v -4.501857 190.1709 2.702446
v -4.618462 8.871346 95.38235
v -4.506146 190.2008 2.762199
v -4.657072 9.140236 95.92014
v -4.506585 190.2039 2.768299
v -4.661013 9.167686 95.97504
v -4.506787 190.2053 2.77113
v -4.662842 9.18042 96.0005
v -4.507046 190.2071 2.774704
v -4.665151 9.196503 96.03267
v -4.511805 190.2402 2.841011
v -4.707999 9.494904 96.62946
v -4.732523 191.7773 5.915222
v -4.732525 9.665688 96.97104
v -4.732524 191.7773 5.915226
v -4.732525 9.665688 96.97104
v -4.732524 191.7773 5.915226
v -4.732524 191.7773 5.915226
v -6.084675 191.9835 6.327545
v -9.465051 192.4989 7.358337
v -9.465051 192.4989 7.358337
v -9.465049 192.4989 7.358337
v -4.732524 191.7773 5.915226
v -4.732524 191.7773 5.915226
v -4.732524 191.7773 5.915226
v -4.732525 9.665688 96.97104
v -4.732525 9.665688 96.97104
v -4.732525 9.665688 96.97104
v -4.732524 191.7773 5.915226
v -8.974565 189.0831 0.5267563
v -4.732524 191.7773 5.915226
v -4.732525 9.665688 96.97104
v -4.732524 191.7773 5.915226
v -4.732524 100.7215 51.44314
v -4.732525 9.665688 96.97104
v -9.465049 101.4431 52.88625
v -4.732525 9.665779 96.971
v -4.732525 9.665688 96.97104
v -6.084673 9.871849 97.38336
v -8.974563 6.971466 91.58257
v -4.732525 9.665688 96.97104
v -8.974565 189.0831 0.5267563
v -9.46505 10.38725 98.41415
v -8.974563 6.971466 91.58257
v -4.487281 7.957794 93.55525
v -4.48728 7.957794 93.55525
v 9.465056 98.55685 47.1138
v 9.465055 189.6127 1.585888
v 9.465053 189.6127 1.585888
v 6.084679 190.1281 2.61668
v 4.732531 99.2784 48.55691
v 4.732528 190.3342 3.028999
v 6.692808 7.923698 93.48706
v 9.465056 7.501022 92.64171
v 4.732531 8.22258 94.08482
v 9.465055 189.6127 1.585888
v 4.411044 187.0422 -3.554985
v -3.226896 186.8229 -3.993687
v 2.205525 189.049 0.4585648
v 2.68062 189.2906 0.9418221
v 2.859773 189.3817 1.124054
v 2.945668 189.4254 1.211426
v 3.692322 189.8052 1.970917
v 4.479829 190.2057 2.771957
v 4.543702 190.2382 2.836926
v 4.549385 190.2411 2.842709
v 4.569627 190.2514 2.8633
v 4.732528 190.3342 3.028999
v 2.002389 189.0432 0.4468956
v 1.951988 189.0417 0.4440041
v 1.936989 189.0413 0.4431419
v 1.823627 189.038 0.4366302
v 0.5230571 189.0007 0.361927
v -0.5514194 188.9698 0.3002129
v -1.613446 188.9393 0.239212
v -1.702129 188.9742 0.30896
v -1.90083 189.0523 0.4652328
v -2.455172 189.2703 0.9012184
v -8.974565 189.0831 0.5267563
v -2.676865 189.3575 1.075573
v -3.432795 189.6548 1.670101
v -4.055223 189.8995 2.159626
v -4.487281 190.0694 2.499435
v -4.501857 190.1709 2.702446
v -4.506146 190.2008 2.762199
v -4.506585 190.2039 2.768299
v -4.506787 190.2053 2.77113
v -4.507046 190.2071 2.774704
v -4.511805 190.2402 2.841011
v -4.732523 191.7773 5.915222
v -4.732524 191.7773 5.915226
v -4.732524 191.7773 5.915226
v -9.465051 192.4989 7.358337
v 9.465055 189.6127 1.585888
v 4.411046 4.930603 87.50082
v 4.411044 187.0422 -3.554985
v 9.465056 98.55685 47.1138
v -3.226895 4.71125 87.06212
v -3.226896 186.8229 -3.993687
v -8.974563 6.971466 91.58257
v -8.974565 189.0831 0.5267563
v 9.465056 7.501022 92.64171
v -9.465049 192.4989 7.358337
v -4.732524 100.7215 51.44314
v -4.732524 191.7773 5.915226
v -9.465049 101.4431 52.88625
v -4.732525 9.665779 96.971
v -9.46505 10.38725 98.41415
v -6.084673 9.871849 97.38336
v -4.732525 9.665688 96.97104
v 4.732531 8.22258 94.08482
v 4.411046 4.930603 87.50082
v 6.692808 7.923698 93.48706
v 4.411046 4.930603 87.50082
v 9.465056 7.501022 92.64171
v 4.732531 8.22258 94.08482
v 3.266419 7.476921 92.59351
v 4.73253 8.22258 94.08482
v 3.084233 7.384262 92.4082
v 3.033084 7.358253 92.35616
v 2.458225 7.06588 91.77142
v 2.370725 7.021378 91.68242
v 2.278219 6.974335 91.58833
v 2.258313 6.964211 91.56808
v 2.205525 6.937363 91.51438
v -3.226895 4.71125 87.06212
v 1.086973 6.905235 91.45013
v 0.3773157 6.884857 91.40938
v -0.07628966 6.871826 91.38332
v -0.2112829 6.86795 91.37556
v -1.231549 6.838654 91.31696
v -1.376057 6.834503 91.30867
v -1.495443 6.83107 91.3018
v -1.613446 6.827682 91.29503
v -2.411594 7.141548 91.92276
v -4.199897 7.844788 93.32923
v -4.286124 7.878693 93.39705
v -4.370115 7.91172 93.4631
v -4.439275 7.938919 93.5175
v -4.48728 7.957794 93.55525
v -8.974563 6.971466 91.58257
v -4.487281 7.957794 93.55525
v -4.618462 8.871346 95.38235
v -4.657072 9.140236 95.92014
v -4.661013 9.167686 95.97504
v -4.662842 9.18042 96.0005
v -4.665151 9.196503 96.03267
v -4.707999 9.494904 96.62946
v -4.732525 9.665688 96.97104
v -6.084673 9.871849 97.38336
v -4.732525 9.665688 96.97104
v -9.46505 10.38725 98.41415

vn 0.9465048 -0.1443107 -0.2886227
vn 0.9465048 -0.1443109 -0.2886226
vn 0.71864 0.4725162 -0.5101812
vn 1.490116E-08 0.8944272 -0.4472136
vn 1.490116E-08 0.8944272 -0.4472136
vn -0.7509652 0.2953138 0.5906277
vn -0.9369921 0.2693516 0.2224763
vn 0.08849981 0.4454586 0.8909177
vn -0.7509682 0.295312 0.5906247
vn -0.7509689 0.2953117 0.5906242
vn -0.7509686 0.2953118 0.5906243
vn -0.750968 0.2953121 0.5906251
vn -0.7509672 0.2953124 0.5906258
vn -0.7509711 0.295311 0.5906217
vn -0.7509692 0.2953116 0.5906237
vn -0.7509688 0.2953117 0.590624
vn -0.7509691 0.2953117 0.590624
vn -0.750969 0.2953117 0.5906239
vn -0.7509688 0.2953118 0.590624
vn -0.7509691 0.2953117 0.5906239
vn -0.7509683 0.295312 0.5906246
vn -0.7509672 0.2953125 0.5906257
vn -0.7509686 0.2953119 0.5906242
vn -0.7509693 0.2953116 0.5906236
vn -0.6427768 0.3425894 0.6851792
vn -0.1048472 0.4447485 0.8894975
vn -0.06408315 0.4462942 0.8925889
vn -0.06408396 0.4462941 0.8925887
vn -0.06408429 0.4462942 0.8925888
vn -0.06408639 0.4462943 0.8925887
vn -0.06408767 0.4462943 0.8925884
vn -0.06408936 0.4462944 0.8925883
vn -0.06408653 0.4462943 0.8925886
vn -0.06408535 0.4462941 0.8925886
vn -0.06408478 0.4462941 0.8925889
vn -0.06408469 0.446294 0.8925888
vn -0.06408583 0.4462941 0.8925886
vn -0.06408518 0.4462941 0.8925888
vn -0.06408397 0.4462941 0.8925888
vn 0.001737583 0.4472127 0.894426
vn 0.6093521 0.3545955 0.7091913
vn 0.6603369 0.3358437 0.6716875
vn 0.6603377 0.3358434 0.6716869
vn 0.6603383 0.3358431 0.6716866
vn 0.6603382 0.3358431 0.6716865
vn 0.6603379 0.3358432 0.6716867
vn 0.6603375 0.3358435 0.671687
vn 0.6603379 0.3358434 0.6716868
vn 0.6603376 0.3358435 0.6716871
vn 0.6603378 0.3358434 0.6716868
vn 0.6603379 0.3358434 0.6716869
vn 0.6603374 0.3358435 0.6716871
vn 0.7953788 0.2710619 0.5421237
vn 0.66032 0.3358504 0.6717008
vn 0.9979444 0.02866018 0.05732005
vn 0.9979444 0.02865957 0.05731891
vn 0.9979445 0.02865934 0.05731854
vn 0.9979445 0.0286587 0.0573175
vn 0.9979445 0.0286598 0.05731926
vn 0.9979445 0.02866078 0.05732057
vn 0.9979441 0.02866225 0.05732289
vn 0.9979413 0.02868746 0.05736076
vn 0.9979431 0.0286716 0.05733704
vn 0.997945 0.02865587 0.05731308
vn 0.9979447 0.02865806 0.05731659
vn 0.9979444 0.02865964 0.057319
vn 0.9979444 0.02865994 0.05731954
vn 0.9979444 0.02866006 0.05731978
vn 0.9979441 0.02866224 0.0573243
vn 0.9731075 0.1030165 0.2060329
vn 0.9465048 -0.1443111 -0.2886225
vn 0.9465048 -0.1443111 -0.2886225
vn 0.9465048 -0.1443111 -0.2886225
vn 1.490116E-08 0.8944272 -0.4472136
vn -0.9979445 -0.02865989 -0.05731915
vn 1.490116E-08 0.8944272 -0.4472136
vn 0.1969449 0.4384546 0.8769096
vn 0.6147206 0.5863907 -0.5275077
vn 0.5332119 0.6576957 -0.5320916
vn 0.9441128 -0.08039819 -0.3196672
vn 0.9465048 -0.1443111 -0.2886225
vn 0.9465048 -0.1443111 -0.2886225
vn 0.9465048 -0.1443111 -0.2886225
vn 0.9414704 -0.05141507 -0.3331515
vn 1.490116E-08 0.8944272 -0.4472136
vn 0.9464308 -0.1329708 -0.2942576
vn 0.9465048 -0.1443111 -0.2886225
vn 0.9369919 -0.01636957 -0.3489672
vn 0.9465027 -0.1443139 -0.2886281
vn 0.9447952 -0.1977564 -0.2612556
vn -0.9979444 -0.02865984 -0.0573192
vn 0.9464972 -0.1443211 -0.2886425
vn 6.55645E-06 -0.8944282 0.4472116
vn -1.490116E-08 -0.8944272 0.4472136
vn -1.541687E-07 -0.8944274 0.4472132
vn 0 0 0
vn -0.9979445 -0.02865986 -0.05731926
vn -0.9979445 -0.02865981 -0.05731925
vn -0.9979445 -0.02865984 -0.05731925
vn -1.541687E-07 -0.8944274 0.4472132
vn -1.541687E-07 -0.8944274 0.4472132
vn 0.3226897 0.4232897 0.8465797
vn 0.3226897 0.4232897 0.8465797
vn 0.3226897 0.4232897 0.8465797
vn 0.3226897 0.4232897 0.8465797
vn 0.3226897 0.4232897 0.8465797
vn 0.3226897 0.4232897 0.8465797
vn 0.3226897 0.4232897 0.8465797
vn 0.3226897 0.4232897 0.8465797
vn 0.3226897 0.4232897 0.8465797
vn 1.490116E-08 0.8944272 -0.4472136
vn 1.490116E-08 0.8944272 -0.4472136
vn 1.490116E-08 0.8944272 -0.4472136
vn 1.490116E-08 0.8944272 -0.4472136
vn 1.490116E-08 0.8944272 -0.4472136
vn 1.490116E-08 0.8944272 -0.4472136
vn 1.490116E-08 0.8944272 -0.4472136
vn 1.490116E-08 0.8944272 -0.4472136
vn 1.490116E-08 0.8944272 -0.4472136
vn 1.490116E-08 0.8944272 -0.4472136
vn 1.490116E-08 0.8944272 -0.4472136
vn 1.490116E-08 0.8944272 -0.4472136
vn 1.490116E-08 0.8944272 -0.4472136
vn 1.490116E-08 0.8944271 -0.4472136
vn 1.490116E-08 0.8944272 -0.4472136
vn 1.490116E-08 0.8944272 -0.4472136
vn 1.490116E-08 0.8944271 -0.4472136
vn 1.490116E-08 0.8944272 -0.4472136
vn 1.490116E-08 0.8944272 -0.4472136
vn 1.490116E-08 0.8944272 -0.4472136
vn 1.490116E-08 0.8944271 -0.4472136
vn 1.490116E-08 0.8944272 -0.4472136
vn 1.490116E-08 0.8944272 -0.4472136
vn 1.490116E-08 0.8944272 -0.4472136
vn 1.490116E-08 0.8944272 -0.4472136
vn 1.490116E-08 0.8944272 -0.4472136
vn 1.490116E-08 0.8944272 -0.4472136
vn 1.490116E-08 0.8944272 -0.4472136
vn 1.490116E-08 0.8944272 -0.4472136
vn 1.490116E-08 0.8944272 -0.4472136
vn 1.490116E-08 0.8944272 -0.4472136
vn 1.490116E-08 0.8944271 -0.4472136
vn 1.490116E-08 0.8944272 -0.4472136
vn 1.490116E-08 0.8944271 -0.4472136
vn 1.490116E-08 0.8944271 -0.4472136
vn 1.490116E-08 0.8944272 -0.4472136
vn 1.490116E-08 0.8944271 -0.4472136
vn 1.490116E-08 0.8944271 -0.4472136
vn 0.7509686 -0.2953118 -0.5906245
vn 0.5597069 -0.3706014 -0.7412036
vn 0.3142101 -0.4245635 -0.8491277
vn 0.7509685 -0.2953118 -0.5906243
vn -0.1902003 -0.4390497 -0.8780998
vn -0.449114 -0.3995739 -0.7991479
vn -0.6603379 -0.3358433 -0.6716867
vn -0.6603379 -0.3358434 -0.6716867
vn 0.7509686 -0.2953118 -0.5906243
vn 0.3226897 0.4232897 0.8465797
vn 0.3226897 0.4232897 0.8465797
vn 0.3226897 0.4232897 0.8465797
vn 0.3226897 0.4232897 0.8465797
vn 0.3226897 0.4232897 0.8465797
vn 0.3226897 0.4232897 0.8465797
vn 0.3226897 0.4232897 0.8465797
vn 0.3226897 0.4232897 0.8465797
vn -0.926836 -0.04008036 0.3733211
vn 6.824446E-07 -0.8944273 0.4472134
vn -8.453492E-08 -0.8944272 0.4472134
vn 1.532472E-08 -0.8944273 0.4472134
vn -8.453492E-08 -0.8944273 0.4472134
vn -8.453492E-08 -0.8944273 0.4472134
vn 2.331584E-07 -0.8944273 0.4472134
vn 2.331586E-07 -0.8944273 0.4472134
vn 2.331579E-07 -0.8944273 0.4472134
vn 2.331588E-07 -0.8944273 0.4472134
vn 2.331588E-07 -0.8944273 0.4472134
vn 2.331583E-07 -0.8944272 0.4472134
vn 2.331562E-07 -0.8944273 0.4472134
vn 2.33161E-07 -0.8944272 0.4472134
vn 8.315912E-09 -0.8944274 0.4472133
vn -1.133782E-07 -0.8944273 0.4472134
vn 6.267018E-09 -0.8944274 0.4472133
vn 6.267471E-09 -0.8944274 0.4472133
vn 6.268065E-09 -0.8944274 0.4472133
vn 6.26768E-09 -0.8944274 0.4472133
vn 6.26764E-09 -0.8944274 0.4472133
vn 6.267519E-09 -0.8944274 0.4472133
vn 6.26694E-09 -0.8944274 0.4472133
vn -2.090664E-07 -0.8944273 0.4472134
vn -2.330239E-07 -0.8944273 0.4472134
vn -2.330241E-07 -0.8944273 0.4472134
vn -2.330233E-07 -0.8944273 0.4472134
vn -2.330251E-07 -0.8944273 0.4472134
vn -2.330242E-07 -0.8944273 0.4472134
vn -2.330238E-07 -0.8944273 0.4472134
vn -1.959319E-07 -0.8944273 0.4472134
vn -3.44542E-07 -0.8944272 0.4472136
vn -3.445422E-07 -0.8944272 0.4472136
vn -3.445425E-07 -0.8944272 0.4472136
vn -3.44537E-07 -0.8944272 0.4472136
vn -3.445431E-07 -0.8944272 0.4472136
vn -3.445426E-07 -0.8944272 0.4472136
vn -3.445414E-07 -0.8944272 0.4472136
vn -3.445404E-07 -0.8944272 0.4472136
vn -8.453493E-08 -0.8944273 0.4472134
vn -8.453494E-08 -0.8944273 0.4472134
vn -8.453492E-08 -0.8944272 0.4472134

f 1//1 2//2 3//3
f 4//4 1//1 3//3
f 3//3 5//5 4//4
f 3//3 6//6 5//5
f 5//5 6//6 7//7
f 8//8 7//7 6//6
f 9//9 8//8 6//6
f 10//10 9//9 6//6
f 9//9 10//10 11//11
f 11//11 10//10 12//12
f 13//13 11//11 12//12
f 13//13 12//12 14//14
f 13//13 14//14 15//15
f 15//15 14//14 16//16
f 15//15 16//16 17//17
f 18//18 17//17 16//16
f 19//19 17//17 18//18
f 19//19 18//18 20//20
f 21//21 19//19 20//20
f 22//22 19//19 21//21
f 22//22 21//21 23//23
f 24//24 22//22 23//23
f 24//24 23//23 25//25
f 26//26 24//24 25//25
f 26//26 25//25 27//27
f 28//28 26//26 27//27
f 28//28 27//27 29//29
f 29//29 27//27 30//30
f 31//31 29//29 30//30
f 31//31 30//30 32//32
f 33//33 31//31 32//32
f 33//33 32//32 34//34
f 35//35 33//33 34//34
f 35//35 34//34 36//36
f 37//37 35//35 36//36
f 37//37 36//36 38//38
f 39//39 37//37 38//38
f 39//39 38//38 40//40
f 41//41 39//39 40//40
f 41//41 40//40 42//42
f 41//41 42//42 43//43
f 43//43 42//42 44//44
f 45//45 43//43 44//44
f 45//45 44//44 46//46
f 47//47 45//45 46//46
f 48//48 45//45 47//47
f 48//48 47//47 49//49
f 50//50 48//48 49//49
f 50//50 49//49 51//51
f 52//52 50//50 51//51
f 52//52 51//51 53//53
f 54//54 52//52 53//53
f 55//55 54//54 53//53
f 55//55 53//53 56//56
f 55//55 56//56 57//57
f 57//57 56//56 58//58
f 57//57 58//58 59//59
f 59//59 58//58 60//60
f 59//59 60//60 61//61
f 61//61 60//60 62//62
f 61//61 62//62 63//63
f 63//63 62//62 64//64
f 63//63 64//64 65//65
f 65//65 64//64 66//66
f 65//65 66//66 67//67
f 68//68 67//67 66//66
f 69//69 67//67 68//68
f 69//69 68//68 70//70
f 71//71 69//69 70//70
f 72//72 71//71 73//73
f 74//74 75//75 76//76
f 77//77 74//74 76//76
f 75//75 77//77 76//76
f 78//78 75//75 74//74
f 79//79 75//75 78//78
f 78//78 74//74 80//80
f 81//81 78//78 80//80
f 82//82 78//78 81//81
f 82//82 83//83 78//78
f 83//83 84//84 79//79
f 84//84 85//85 79//79
f 80//80 74//74 86//86
f 87//87 80//80 86//86
f 81//81 80//80 87//87
f 86//86 74//74 88//88
f 88//88 74//74 77//77
f 86//86 88//88 89//89
f 90//90 86//86 89//89
f 87//87 86//86 90//90
f 75//75 91//91 77//77
f 90//90 89//89 92//92
f 90//90 92//92 93//93
f 94//94 90//90 93//93
f 95//95 83//83 82//82
f 95//95 82//82 81//81
f 95//95 81//81 87//87
f 95//95 87//87 90//90
f 95//95 96//96 83//83
f 97//97 91//91 75//75
f 97//97 98//98 91//91
f 97//97 99//99 98//98
f 100//100 95//95 101//101
f 102//102 103//103 104//104
f 102//102 104//104 105//105
f 102//102 105//105 106//106
f 106//106 105//105 107//107
f 108//108 102//102 106//106
f 109//109 102//102 108//108
f 110//110 108//108 106//106
f 111//111 112//112 113//113
f 111//111 113//113 114//114
f 111//111 114//114 115//115
f 111//111 115//115 116//116
f 111//111 116//116 117//117
f 117//117 118//118 111//111
f 118//118 119//119 111//111
f 120//120 111//111 119//119
f 120//120 121//121 111//111
f 121//121 122//122 111//111
f 111//111 122//122 123//123
f 114//114 113//113 124//124
f 124//124 113//113 125//125
f 125//125 113//113 126//126
f 126//126 113//113 127//127
f 127//127 113//113 128//128
f 128//128 113//113 129//129
f 129//129 113//113 130//130
f 130//130 113//113 131//131
f 131//131 113//113 132//132
f 132//132 113//113 133//133
f 133//133 113//113 134//134
f 133//133 134//134 135//135
f 135//135 134//134 136//136
f 134//134 137//137 136//136
f 137//137 134//134 138//138
f 138//138 134//134 139//139
f 139//139 134//134 140//140
f 140//140 134//134 141//141
f 134//134 142//142 141//141
f 134//134 143//143 142//142
f 134//134 144//144 143//143
f 144//144 134//134 145//145
f 145//145 134//134 146//146
f 147//147 134//134 148//148
f 149//149 150//150 151//151
f 149//149 152//152 150//150
f 151//151 150//150 153//153
f 151//151 153//153 154//154
f 154//154 153//153 155//155
f 154//154 155//155 156//156
f 152//152 157//157 150//150
f 158//158 159//159 160//160
f 161//161 159//159 158//158
f 162//162 159//159 161//161
f 163//163 162//162 161//161
f 164//164 162//162 163//163
f 165//165 162//162 164//164
f 9//9 166//166 8//8
f 166//166 9//9 167//167
f 168//168 169//169 170//170
f 168//168 171//171 169//169
f 172//172 169//169 173//173
f 174//174 169//169 172//172
f 169//169 174//174 175//175
f 176//176 169//169 175//175
f 177//177 169//169 176//176
f 178//178 169//169 177//177
f 178//178 179//179 169//169
f 179//179 180//180 169//169
f 180//180 181//181 169//169
f 182//182 181//181 180//180
f 182//182 183//183 181//181
f 183//183 184//184 181//181
f 184//184 185//185 181//181
f 185//185 186//186 181//181
f 186//186 187//187 181//181
f 187//187 188//188 181//181
f 188//188 189//189 181//181
f 181//181 189//189 190//190
f 181//181 190//190 191//191
f 192//192 181//181 191//191
f 193//193 181//181 192//192
f 194//194 181//181 193//193
f 195//195 181//181 194//194
f 195//195 196//196 181//181
f 196//196 197//197 198//198
f 196//196 198//198 199//199
f 199//199 200//200 196//196
f 196//196 200//200 201//201
f 201//201 202//202 196//196
f 196//196 202//202 203//203
f 196//196 203//203 204//204
f 205//205 196//196 206//206
f 207//207 196//196 205//205
