v -9.999981 -7.197742 -106.9421
v -50.00002 -7.197745 -106.9421
v -9.999981 -7.197742 -106.9421
v -9.999981 -7.197741 -106.9421
v -9.999985 -4.62712 -104.4628
v -9.999985 -3.598871 -103.471
v -9.999985 -3.598871 -103.471
v -50.00002 -3.598874 -103.471
v -90.00006 -3.598876 -103.4711
v -9.999985 -3.372699 -103.5696
v -90.00006 -1.563331 -104.3577
v -9.999985 -3.344595 -103.5818
v -90.00006 -1.310387 -104.4678
v -9.999985 -3.336704 -103.5852
v -90.00006 -1.239371 -104.4987
v -9.999985 -3.248023 -103.6239
v -90.00006 -0.4412383 -104.8464
v -9.999985 -2.154652 -104.1001
v -90.00006 -0.3197534 -104.8993
v -9.999985 -1.117998 -104.5516
v -9.999985 -0.9987421 -104.6035
v -90.00006 -0.1913189 -104.9552
v -9.999985 -0.7500062 -104.7119
v -90.00006 -0.1636818 -104.9673
v -9.999985 -0.09038585 -104.9992
v -90.00006 -0.09038948 -104.9992
v -9.999985 0.09905101 -104.9247
v -90.00006 0.9527307 -104.5891
v -90.00006 1.614531 -104.3288
v -9.999985 0.146052 -104.9062
v -90.00006 2.037547 -104.1625
v -9.999985 0.1600399 -104.9007
v -90.00006 2.163437 -104.113
v -9.999985 0.2657575 -104.8592
v -90.00006 3.1149 -103.7389
v -9.999985 1.478621 -104.3823
v -90.00006 3.249663 -103.6859
v -9.999985 2.480639 -103.9883
v -90.00006 3.360998 -103.6421
v -9.999985 3.471046 -103.5989
v -90.00006 3.471043 -103.5989
v -9.999985 3.518203 -103.4906
v -90.00006 3.895453 -102.6245
v -9.999985 3.623861 -103.248
v -90.00006 4.84637 -100.4412
v -9.999985 3.918628 -102.5713
v -9.999985 4.036512 -102.3006
v -90.00006 4.89222 -100.336
v -9.999985 4.438473 -101.3777
v -90.00006 4.936882 -100.2334
v -9.999985 4.769445 -100.6179
v -90.00006 4.973657 -100.149
v -9.999985 4.999189 -100.0904
v -90.00006 4.999184 -100.0904
v -90.00006 4.999186 -100.0904
v -9.999985 4.915964 -99.87872
v -90.00006 4.250158 -98.18539
v -9.999985 4.891466 -99.81641
v -90.00006 4.029689 -97.62467
v -9.999985 4.888966 -99.81005
v -90.00006 4.007183 -97.56743
v -9.999985 4.887806 -99.80711
v -90.00006 3.996747 -97.54089
v -9.999985 4.886342 -99.80338
v -90.00006 3.983555 -97.50734
v -9.999985 4.859157 -99.73424
v -90.00006 3.738899 -96.8851
v -9.999985 3.598872 -96.52895
v -90.00006 3.598868 -96.52896
v -9.999985 3.598872 -96.52895
v -90.00006 3.598868 -96.52896
v -9.999985 3.598871 -96.52895
v -9.999985 3.598872 -96.52895
v -9.999985 4.627121 -95.53722
v -9.999985 7.197743 -93.05791
v -9.999985 7.197742 -93.05791
v -9.999985 7.197742 -93.05791
v -9.999985 3.598871 -96.52895
v -9.999985 3.598872 -96.52895
v -9.999985 3.598871 -96.52895
v -90.00006 3.598868 -96.52896
v -90.00006 3.598868 -96.52896
v -90.00006 3.598868 -96.52896
v -9.999985 3.598872 -96.52895
v -9.999985 9.998377 -100.1808
v -9.999985 3.598871 -96.52895
v -90.00006 3.598868 -96.52896
v -9.999985 3.598871 -96.52895
v -50.00002 3.59887 -96.52895
v -90.00006 3.598868 -96.52896
v -50.00003 7.19774 -93.05791
v -90.00002 3.598868 -96.52896
v -90.00006 3.598868 -96.52896
v -90.00006 4.627116 -95.53723
v -90.00005 9.998372 -100.1808
v -90.00006 3.598868 -96.52896
v -9.999985 9.998377 -100.1808
v -90.00006 7.197738 -93.05791
v -90.00005 9.998372 -100.1808
v -90.00006 4.999186 -100.0904
v -90.00006 4.999184 -100.0904
v -50.00002 -7.197745 -106.9421
v -9.999981 -7.197742 -106.9421
v -9.999981 -7.197741 -106.9421
v -9.999985 -4.62712 -104.4628
v -50.00002 -3.598874 -103.471
v -9.999985 -3.598871 -103.471
v -90.00006 -5.089578 -104.9088
v -90.00006 -7.197747 -106.9421
v -90.00006 -3.598876 -103.4711
v -9.999981 -7.197742 -106.9421
v -9.999985 -0.1807698 -109.9984
v -9.999985 6.942095 -107.1977
v -9.999985 -0.09038585 -104.9992
v -9.999985 -0.7500062 -104.7119
v -9.999985 -0.9987421 -104.6035
v -9.999985 -1.117998 -104.5516
v -9.999985 -2.154652 -104.1001
v -9.999985 -3.248023 -103.6239
v -9.999985 -3.336704 -103.5852
v -9.999985 -3.344595 -103.5818
v -9.999985 -3.372699 -103.5696
v -9.999985 -3.598871 -103.471
v -9.999985 0.09905101 -104.9247
v -9.999985 0.146052 -104.9062
v -9.999985 0.1600399 -104.9007
v -9.999985 0.2657575 -104.8592
v -9.999985 1.478621 -104.3823
v -9.999985 2.480639 -103.9883
v -9.999985 3.471046 -103.5989
v -9.999985 3.518203 -103.4906
v -9.999985 3.623861 -103.248
v -9.999985 3.918628 -102.5713
v -9.999985 9.998377 -100.1808
v -9.999985 4.036512 -102.3006
v -9.999985 4.438473 -101.3777
v -9.999985 4.769445 -100.6179
v -9.999985 4.999189 -100.0904
v -9.999985 4.915964 -99.87872
v -9.999985 4.891466 -99.81641
v -9.999985 4.888966 -99.81005
v -9.999985 4.887806 -99.80711
v -9.999985 4.886342 -99.80338
v -9.999985 4.859157 -99.73424
v -9.999985 3.598872 -96.52895
v -9.999985 3.598872 -96.52895
v -9.999985 3.598872 -96.52895
v -9.999985 7.197743 -93.05791
v -9.999981 -7.197742 -106.9421
v -90.00005 -0.1807753 -109.9984
v -9.999985 -0.1807698 -109.9984
v -50.00002 -7.197745 -106.9421
v -90.00005 6.94209 -107.1977
v -9.999985 6.942095 -107.1977
v -90.00005 9.998372 -100.1808
v -9.999985 9.998377 -100.1808
v -90.00006 -7.197747 -106.9421
v -9.999985 7.197742 -93.05791
v -50.00002 3.59887 -96.52895
v -9.999985 3.598871 -96.52895
v -50.00003 7.19774 -93.05791
v -90.00002 3.598868 -96.52896
v -90.00006 7.197738 -93.05791
v -90.00006 4.627116 -95.53723
v -90.00006 3.598868 -96.52896
v -90.00006 -3.598876 -103.4711
v -90.00005 -0.1807753 -109.9984
v -90.00006 -5.089578 -104.9088
v -90.00005 -0.1807753 -109.9984
v -90.00006 -7.197747 -106.9421
v -90.00006 -3.598876 -103.4711
v -90.00006 -1.563331 -104.3577
v -90.00006 -3.598876 -103.4711
v -90.00006 -1.310387 -104.4678
v -90.00006 -1.239371 -104.4987
v -90.00006 -0.4412383 -104.8464
v -90.00006 -0.3197534 -104.8993
v -90.00006 -0.1913189 -104.9552
v -90.00006 -0.1636818 -104.9673
v -90.00006 -0.09038948 -104.9992
v -90.00005 6.94209 -107.1977
v -90.00006 0.9527307 -104.5891
v -90.00006 1.614531 -104.3288
v -90.00006 2.037547 -104.1625
v -90.00006 2.163437 -104.113
v -90.00006 3.1149 -103.7389
v -90.00006 3.249663 -103.6859
v -90.00006 3.360998 -103.6421
v -90.00006 3.471043 -103.5989
v -90.00006 3.895453 -102.6245
v -90.00006 4.84637 -100.4412
v -90.00006 4.89222 -100.336
v -90.00006 4.936882 -100.2334
v -90.00006 4.973657 -100.149
v -90.00006 4.999184 -100.0904
v -90.00005 9.998372 -100.1808
v -90.00006 4.999186 -100.0904
v -90.00006 4.250158 -98.18539
v -90.00006 4.029689 -97.62467
v -90.00006 4.007183 -97.56743
v -90.00006 3.996747 -97.54089
v -90.00006 3.983555 -97.50734
v -90.00006 3.738899 -96.8851
v -90.00006 3.598868 -96.52896
v -90.00006 4.627116 -95.53723
v -90.00006 3.598868 -96.52896
v -90.00006 7.197738 -93.05791

vn 6.681676E-07 -0.7197737 -0.6942089
vn 5.155799E-07 -0.7197737 -0.6942089
vn 0.6507915 -0.5464929 -0.5270826
vn 1 2.980232E-08 4.470348E-08
vn 1 2.980232E-08 4.470348E-08
vn -1.999305E-07 0.3993174 0.9168128
vn 0.1414208 0.7125397 0.6872318
vn -2.491421E-07 -0.5032591 0.8641356
vn -4.777455E-07 0.3993216 0.9168109
vn -4.366239E-07 0.3993225 0.9168106
vn -4.753659E-07 0.3993221 0.9168107
vn -5.589496E-07 0.3993212 0.9168112
vn -6.174619E-07 0.3993202 0.9168115
vn -2.574626E-08 0.3993255 0.9168093
vn -3.133091E-07 0.399323 0.9168103
vn -3.613772E-07 0.3993225 0.9168105
vn -3.442284E-07 0.3993227 0.9168106
vn -3.430656E-07 0.3993227 0.9168105
vn -3.570276E-07 0.3993225 0.9168106
vn -3.762223E-07 0.3993228 0.9168105
vn -3.704355E-07 0.3993217 0.9168109
vn -4.131224E-07 0.3993202 0.9168115
vn -3.026326E-07 0.3993222 0.9168106
vn -3.164487E-07 0.3993231 0.9168103
vn -3.141454E-07 0.2564691 0.9665526
vn -2.921834E-07 -0.3275507 0.9448336
vn -3.427099E-07 -0.365922 0.9306456
vn -3.032217E-07 -0.3659212 0.9306458
vn -2.835228E-07 -0.3659209 0.930646
vn -1.302001E-07 -0.365919 0.9306468
vn -4.574446E-08 -0.3659177 0.9306473
vn 1.70497E-07 -0.3659162 0.9306479
vn -9.611022E-08 -0.3659188 0.9306468
vn -2.743436E-07 -0.3659199 0.9306463
vn -3.334467E-07 -0.3659205 0.9306462
vn -3.921832E-07 -0.3659205 0.9306461
vn -2.936073E-07 -0.3659194 0.9306465
vn -3.142642E-07 -0.3659201 0.9306464
vn -3.550946E-07 -0.3659212 0.9306459
vn -3.56307E-07 -0.4263809 0.9045438
vn -1.051699E-07 -0.8884669 0.4589411
vn -5.490215E-08 -0.9168102 0.3993234
vn -8.234724E-08 -0.9168107 0.3993224
vn -1.230353E-07 -0.916811 0.3993218
vn -9.455886E-08 -0.9168109 0.3993218
vn -7.680477E-08 -0.9168107 0.3993222
vn 4.936943E-08 -0.9168105 0.3993227
vn -2.009604E-08 -0.9168108 0.3993223
vn 2.361631E-09 -0.9168106 0.3993226
vn 9.879142E-09 -0.9168107 0.3993223
vn 1.68168E-08 -0.9168108 0.3993223
vn 2.55015E-08 -0.9168105 0.3993227
vn 1.156692E-07 -0.977525 0.2108201
vn 2.753439E-08 -0.9168012 0.399344
vn 2.62852E-07 -0.9306466 -0.3659194
vn 2.178215E-07 -0.9306461 -0.3659206
vn 1.809573E-07 -0.930646 -0.365921
vn 7.301238E-08 -0.9306455 -0.3659221
vn 2.742048E-07 -0.9306463 -0.3659202
vn 5.625938E-07 -0.930647 -0.3659188
vn 8.415773E-07 -0.9306479 -0.3659162
vn 6.457456E-06 -0.9306644 -0.3658741
vn 2.874719E-06 -0.930654 -0.3659005
vn -4.786357E-07 -0.9306436 -0.365927
vn -8.936218E-08 -0.9306452 -0.3659232
vn 2.482466E-07 -0.9306461 -0.3659205
vn 2.738475E-07 -0.9306464 -0.3659199
vn 2.736283E-07 -0.9306465 -0.3659197
vn 2.036474E-07 -0.9306483 -0.365915
vn 1.907525E-07 -0.9787933 -0.2048506
vn 3.248451E-07 -0.7197737 -0.6942089
vn 3.248452E-07 -0.7197737 -0.6942089
vn 3.248452E-07 -0.7197737 -0.6942089
vn 1 2.980232E-08 4.470348E-08
vn -4.061112E-07 0.9306462 0.3659203
vn 1 2.980232E-08 4.470348E-08
vn -2.147528E-07 -0.5947794 0.8038891
vn 0.7603925 -0.467467 -0.4508635
vn 0.8262196 -0.4054833 -0.3910814
vn 0.07104933 -0.7179547 -0.6924545
vn 3.248455E-07 -0.7197737 -0.6942089
vn 3.248451E-07 -0.7197737 -0.6942089
vn 3.248448E-07 -0.7197737 -0.6942089
vn 0.103003 -0.7159452 -0.6905164
vn 1 2.980232E-08 4.470348E-08
vn 0.0126635 -0.7197199 -0.6941491
vn 3.248462E-07 -0.7197737 -0.6942089
vn 0.1414216 -0.7125396 -0.6872317
vn 3.248464E-07 -0.7197691 -0.6942136
vn -0.06004147 -0.7184708 -0.6929609
vn -3.357863E-07 0.9306462 0.3659202
vn 3.248487E-07 -0.7197573 -0.6942258
vn -1 -5.027015E-06 -4.864426E-06
vn -1 -2.980232E-08 -4.470348E-08
vn -1 2.698068E-07 -3.553459E-07
vn 0 0 0
vn -3.255956E-07 0.9306463 0.3659202
vn -2.903002E-07 0.9306463 0.3659202
vn -3.154048E-07 0.9306464 0.3659202
vn -1 2.698068E-07 -3.553459E-07
vn -1 2.698068E-07 -3.553459E-07
vn -1.490116E-07 -0.6942089 0.7197737
vn -1.490116E-07 -0.6942089 0.7197737
vn -1.490116E-07 -0.6942089 0.7197737
vn -1.490116E-07 -0.6942089 0.7197737
vn -1.490116E-07 -0.6942089 0.7197737
vn -1.490116E-07 -0.6942089 0.7197737
vn -1.490116E-07 -0.6942089 0.7197737
vn -1.490116E-07 -0.6942089 0.7197737
vn -1.490116E-07 -0.6942089 0.7197737
vn 1 2.980232E-08 4.470348E-08
vn 1 2.980232E-08 4.470348E-08
vn 1 2.980232E-08 4.470348E-08
vn 1 2.980232E-08 4.470348E-08
vn 1 2.980232E-08 4.470348E-08
vn 1 2.980232E-08 4.470348E-08
vn 1 2.980232E-08 4.470348E-08
vn 1 2.980232E-08 4.470348E-08
vn 1 2.980232E-08 4.470348E-08
vn 1 2.980232E-08 4.470348E-08
vn 1 2.980232E-08 4.470348E-08
vn 1 2.980232E-08 4.470348E-08
vn 1 2.980232E-08 4.470348E-08
vn 0.9999999 2.980232E-08 4.470348E-08
vn 1 2.980232E-08 4.470348E-08
vn 1 2.980232E-08 4.470348E-08
vn 0.9999999 2.980232E-08 4.470348E-08
vn 1 2.980232E-08 4.470348E-08
vn 1 2.980232E-08 4.470348E-08
vn 1 2.980232E-08 4.470348E-08
vn 0.9999999 2.980232E-08 4.470348E-08
vn 1 2.980232E-08 4.470348E-08
vn 1 2.980232E-08 4.470348E-08
vn 1 2.980232E-08 4.470348E-08
vn 1 2.980232E-08 4.470348E-08
vn 1 2.980232E-08 4.470348E-08
vn 1 2.980232E-08 4.470348E-08
vn 1 2.980232E-08 4.470348E-08
vn 1 2.980232E-08 4.470348E-08
vn 1 2.980232E-08 4.470348E-08
vn 1 2.980232E-08 4.470348E-08
vn 0.9999999 2.980232E-08 4.470348E-08
vn 1 2.980232E-08 4.470348E-08
vn 0.9999999 2.980232E-08 4.470348E-08
vn 0.9999999 2.980232E-08 4.470348E-08
vn 1 2.980232E-08 4.470348E-08
vn 0.9999999 2.980232E-08 4.470348E-08
vn 0.9999999 2.980232E-08 4.470348E-08
vn 4.780958E-07 -0.3993221 -0.9168108
vn 4.341445E-07 -0.1546585 -0.987968
vn 3.666667E-07 0.1188443 -0.9929129
vn 4.590447E-07 -0.399322 -0.9168106
vn 2.009769E-07 0.589239 -0.807959
vn 8.476297E-08 0.786131 -0.6180601
vn -1.654266E-08 0.9168108 -0.3993221
vn -2.378806E-08 0.9168108 -0.3993222
vn 3.923852E-07 -0.3993222 -0.9168107
vn -1.490116E-07 -0.6942089 0.7197737
vn -1.490116E-07 -0.6942089 0.7197737
vn -1.490116E-07 -0.6942089 0.7197737
vn -1.490116E-07 -0.6942089 0.7197737
vn -1.490116E-07 -0.6942089 0.7197737
vn -1.490116E-07 -0.6942089 0.7197737
vn -1.581815E-07 -0.6942089 0.7197737
vn -1.581815E-07 -0.6942089 0.7197737
vn -0.2028034 0.7048164 0.6797828
vn -1 -5.601019E-07 -5.561679E-07
vn -0.9999999 1.200022E-07 -2.000247E-07
vn -1 5.208694E-08 -2.903644E-07
vn -1 1.200022E-07 -2.000247E-07
vn -1 1.200022E-07 -2.000247E-07
vn -1 -1.617062E-07 -3.475441E-07
vn -1 -1.617063E-07 -3.475442E-07
vn -1 -1.617056E-07 -3.47544E-07
vn -1 -1.617065E-07 -3.475441E-07
vn -1 -1.617066E-07 -3.475441E-07
vn -0.9999999 -1.617059E-07 -3.475442E-07
vn -1 -1.617037E-07 -3.475441E-07
vn -0.9999999 -1.61709E-07 -3.475441E-07
vn -1 8.878612E-08 -3.52073E-07
vn -1 1.820534E-07 -2.643609E-07
vn -1 9.106851E-08 -3.521138E-07
vn -1 9.106823E-08 -3.521143E-07
vn -1 9.10679E-08 -3.52115E-07
vn -1 9.106813E-08 -3.521145E-07
vn -1 9.106817E-08 -3.521145E-07
vn -1 9.106825E-08 -3.521144E-07
vn -1 9.106869E-08 -3.52114E-07
vn -1 2.548198E-07 -1.941789E-07
vn -1 2.730384E-07 -1.766075E-07
vn -1 2.730386E-07 -1.766074E-07
vn -1 2.730378E-07 -1.766076E-07
vn -1 2.730396E-07 -1.766071E-07
vn -1 2.730387E-07 -1.766073E-07
vn -1 2.730383E-07 -1.766075E-07
vn -1 2.12738E-07 -1.354194E-07
vn -1 2.776086E-07 7.616725E-08
vn -1 2.776087E-07 7.616744E-08
vn -1 2.776088E-07 7.616779E-08
vn -1 2.776059E-07 7.616108E-08
vn -1 2.776092E-07 7.616845E-08
vn -1 2.776089E-07 7.616797E-08
vn -1 2.776083E-07 7.616661E-08
vn -0.9999999 2.776077E-07 7.616554E-08
vn -1 1.200022E-07 -2.000247E-07
vn -1 1.200022E-07 -2.000247E-07
vn -0.9999999 1.200022E-07 -2.000247E-07

f 1//1 2//2 3//3
f 4//4 1//1 3//3
f 3//3 5//5 4//4
f 3//3 6//6 5//5
f 5//5 6//6 7//7
f 8//8 7//7 6//6
f 9//9 8//8 6//6
f 10//10 9//9 6//6
f 9//9 10//10 11//11
f 11//11 10//10 12//12
f 13//13 11//11 12//12
f 13//13 12//12 14//14
f 13//13 14//14 15//15
f 15//15 14//14 16//16
f 15//15 16//16 17//17
f 18//18 17//17 16//16
f 19//19 17//17 18//18
f 19//19 18//18 20//20
f 21//21 19//19 20//20
f 22//22 19//19 21//21
f 22//22 21//21 23//23
f 24//24 22//22 23//23
f 24//24 23//23 25//25
f 26//26 24//24 25//25
f 26//26 25//25 27//27
f 28//28 26//26 27//27
f 28//28 27//27 29//29
f 29//29 27//27 30//30
f 31//31 29//29 30//30
f 31//31 30//30 32//32
f 33//33 31//31 32//32
f 33//33 32//32 34//34
f 35//35 33//33 34//34
f 35//35 34//34 36//36
f 37//37 35//35 36//36
f 37//37 36//36 38//38
f 39//39 37//37 38//38
f 39//39 38//38 40//40
f 41//41 39//39 40//40
f 41//41 40//40 42//42
f 41//41 42//42 43//43
f 43//43 42//42 44//44
f 45//45 43//43 44//44
f 45//45 44//44 46//46
f 47//47 45//45 46//46
f 48//48 45//45 47//47
f 48//48 47//47 49//49
f 50//50 48//48 49//49
f 50//50 49//49 51//51
f 52//52 50//50 51//51
f 52//52 51//51 53//53
f 54//54 52//52 53//53
f 55//55 54//54 53//53
f 55//55 53//53 56//56
f 55//55 56//56 57//57
f 57//57 56//56 58//58
f 57//57 58//58 59//59
f 59//59 58//58 60//60
f 59//59 60//60 61//61
f 61//61 60//60 62//62
f 61//61 62//62 63//63
f 63//63 62//62 64//64
f 63//63 64//64 65//65
f 65//65 64//64 66//66
f 65//65 66//66 67//67
f 68//68 67//67 66//66
f 69//69 67//67 68//68
f 69//69 68//68 70//70
f 71//71 69//69 70//70
f 72//72 71//71 73//73
f 74//74 75//75 76//76
f 77//77 74//74 76//76
f 75//75 77//77 76//76
f 78//78 75//75 74//74
f 79//79 75//75 78//78
f 78//78 74//74 80//80
f 81//81 78//78 80//80
f 82//82 78//78 81//81
f 82//82 83//83 78//78
f 83//83 84//84 79//79
f 84//84 85//85 79//79
f 80//80 74//74 86//86
f 87//87 80//80 86//86
f 81//81 80//80 87//87
f 86//86 74//74 88//88
f 88//88 74//74 77//77
f 86//86 88//88 89//89
f 90//90 86//86 89//89
f 87//87 86//86 90//90
f 75//75 91//91 77//77
f 90//90 89//89 92//92
f 90//90 92//92 93//93
f 94//94 90//90 93//93
f 95//95 83//83 82//82
f 95//95 82//82 81//81
f 95//95 81//81 87//87
f 95//95 87//87 90//90
f 95//95 96//96 83//83
f 97//97 91//91 75//75
f 97//97 98//98 91//91
f 97//97 99//99 98//98
f 100//100 95//95 101//101
f 102//102 103//103 104//104
f 102//102 104//104 105//105
f 102//102 105//105 106//106
f 106//106 105//105 107//107
f 108//108 102//102 106//106
f 109//109 102//102 108//108
f 110//110 108//108 106//106
f 111//111 112//112 113//113
f 111//111 113//113 114//114
f 111//111 114//114 115//115
f 111//111 115//115 116//116
f 111//111 116//116 117//117
f 117//117 118//118 111//111
f 118//118 119//119 111//111
f 120//120 111//111 119//119
f 120//120 121//121 111//111
f 121//121 122//122 111//111
f 111//111 122//122 123//123
f 114//114 113//113 124//124
f 124//124 113//113 125//125
f 125//125 113//113 126//126
f 126//126 113//113 127//127
f 127//127 113//113 128//128
f 128//128 113//113 129//129
f 129//129 113//113 130//130
f 130//130 113//113 131//131
f 131//131 113//113 132//132
f 132//132 113//113 133//133
f 133//133 113//113 134//134
f 133//133 134//134 135//135
f 135//135 134//134 136//136
f 134//134 137//137 136//136
f 137//137 134//134 138//138
f 138//138 134//134 139//139
f 139//139 134//134 140//140
f 140//140 134//134 141//141
f 134//134 142//142 141//141
f 134//134 143//143 142//142
f 134//134 144//144 143//143
f 144//144 134//134 145//145
f 145//145 134//134 146//146
f 147//147 134//134 148//148
f 149//149 150//150 151//151
f 149//149 152//152 150//150
f 151//151 150//150 153//153
f 151//151 153//153 154//154
f 154//154 153//153 155//155
f 154//154 155//155 156//156
f 152//152 157//157 150//150
f 158//158 159//159 160//160
f 161//161 159//159 158//158
f 162//162 159//159 161//161
f 163//163 162//162 161//161
f 164//164 162//162 163//163
f 165//165 162//162 164//164
f 9//9 166//166 8//8
f 166//166 9//9 167//167
f 168//168 169//169 170//170
f 168//168 171//171 169//169
f 172//172 169//169 173//173
f 174//174 169//169 172//172
f 169//169 174//174 175//175
f 176//176 169//169 175//175
f 177//177 169//169 176//176
f 178//178 169//169 177//177
f 178//178 179//179 169//169
f 179//179 180//180 169//169
f 180//180 181//181 169//169
f 182//182 181//181 180//180
f 182//182 183//183 181//181
f 183//183 184//184 181//181
f 184//184 185//185 181//181
f 185//185 186//186 181//181
f 186//186 187//187 181//181
f 187//187 188//188 181//181
f 188//188 189//189 181//181
f 181//181 189//189 190//190
f 181//181 190//190 191//191
f 192//192 181//181 191//191
f 193//193 181//181 192//192
f 194//194 181//181 193//193
f 195//195 181//181 194//194
f 195//195 196//196 181//181
f 196//196 197//197 198//198
f 196//196 198//198 199//199
f 199//199 200//200 196//196
f 196//196 200//200 201//201
f 201//201 202//202 196//196
f 196//196 202//202 203//203
f 196//196 203//203 204//204
f 205//205 196//196 206//206
f 207//207 196//196 205//205
