v -9.999985 -194.167 208.1226
v -50.00002 -194.167 208.1226
v -9.999985 -194.167 208.1226
v -9.999985 -194.167 208.1226
v -9.999985 -196.2502 205.2217
v -9.999985 -197.0835 204.0613
v -9.999985 -197.0835 204.0613
v -50.00002 -197.0835 204.0613
v -90.00006 -197.0835 204.0613
v -9.999985 -197.3237 204.1176
v -90.00006 -199.2452 204.5677
v -9.999985 -197.3535 204.1245
v -90.00006 -199.5139 204.6306
v -9.999985 -197.3619 204.1265
v -90.00006 -199.5893 204.6482
v -9.999985 -197.4561 204.1486
v -90.00006 -200.4369 204.8468
v -9.999985 -198.6173 204.4205
v -90.00006 -200.5659 204.877
v -9.999985 -199.7182 204.6784
v -9.999985 -199.8448 204.7081
v -90.00006 -200.7023 204.9089
v -9.999985 -200.109 204.77
v -90.00006 -200.7317 204.9158
v -9.999985 -200.8095 204.934
v -90.00006 -200.8095 204.9341
v -9.999985 -200.9825 204.8267
v -90.00006 -201.7619 204.3431
v -90.00006 -202.3662 203.9682
v -9.999985 -201.0254 204.8001
v -90.00006 -202.7524 203.7286
v -9.999985 -201.0381 204.7922
v -90.00006 -202.8674 203.6573
v -9.999985 -201.1347 204.7323
v -90.00006 -203.7361 203.1183
v -9.999985 -202.2421 204.0452
v -90.00006 -203.8592 203.0419
v -9.999985 -203.157 203.4776
v -90.00006 -203.9608 202.9788
v -9.999985 -204.0613 202.9165
v -90.00006 -204.0613 202.9165
v -9.999985 -204.0882 202.8015
v -90.00006 -204.3037 201.8817
v -9.999985 -204.1486 202.5439
v -90.00006 -204.8468 199.5631
v -9.999985 -204.3169 201.8252
v -9.999985 -204.3842 201.5377
v -90.00006 -204.873 199.4513
v -9.999985 -204.6138 200.5577
v -90.00006 -204.8985 199.3424
v -9.999985 -204.8028 199.7507
v -90.00006 -204.9195 199.2527
v -9.999985 -204.934 199.1905
v -90.00006 -204.934 199.1905
v -90.00006 -204.934 199.1905
v -9.999985 -204.8141 198.9972
v -90.00006 -203.8549 197.4511
v -9.999985 -204.7788 198.9403
v -90.00006 -203.5372 196.9392
v -9.999985 -204.7752 198.9345
v -90.00006 -203.5048 196.8869
v -9.999985 -204.7736 198.9318
v -90.00006 -203.4897 196.8627
v -9.999985 -204.7715 198.9284
v -90.00006 -203.4707 196.832
v -9.999985 -204.7323 198.8653
v -90.00006 -203.1182 196.2639
v -9.999985 -202.9165 195.9387
v -90.00006 -202.9165 195.9387
v -9.999985 -202.9165 195.9387
v -90.00006 -202.9165 195.9387
v -9.999985 -202.9165 195.9387
v -9.999985 -202.9165 195.9387
v -9.999985 -203.7498 194.7783
v -9.999985 -205.833 191.8774
v -9.999985 -205.833 191.8774
v -9.999985 -205.833 191.8774
v -9.999985 -202.9165 195.9387
v -9.999985 -202.9165 195.9387
v -9.999985 -202.9165 195.9387
v -90.00006 -202.9165 195.9387
v -90.00006 -202.9165 195.9387
v -90.00006 -202.9165 195.9387
v -9.999985 -202.9165 195.9387
v -9.999985 -209.8681 198.381
v -9.999985 -202.9165 195.9387
v -90.00006 -202.9165 195.9387
v -9.999985 -202.9165 195.9387
v -50.00002 -202.9165 195.9387
v -90.00006 -202.9165 195.9387
v -50.00003 -205.833 191.8774
v -90.00002 -202.9165 195.9387
v -90.00006 -202.9165 195.9387
v -90.00006 -203.7498 194.7784
v -90.00005 -209.8681 198.381
v -90.00006 -202.9165 195.9387
v -9.999985 -209.8681 198.381
v -90.00006 -205.833 191.8774
v -90.00005 -209.8681 198.381
v -90.00006 -204.934 199.1905
v -90.00006 -204.934 199.1905
v -50.00002 -194.167 208.1226
v -9.999985 -194.167 208.1226
v -9.999985 -194.167 208.1226
v -9.999985 -196.2502 205.2217
v -50.00002 -197.0835 204.0613
v -9.999985 -197.0835 204.0613
v -90.00006 -195.8755 205.7435
v -90.00006 -194.167 208.1226
v -90.00006 -197.0835 204.0613
v -9.999985 -194.167 208.1226
v -9.999985 -201.619 209.8681
v -9.999985 -208.1226 205.833
v -9.999985 -200.8095 204.934
v -9.999985 -200.109 204.77
v -9.999985 -199.8448 204.7081
v -9.999985 -199.7182 204.6784
v -9.999985 -198.6173 204.4205
v -9.999985 -197.4561 204.1486
v -9.999985 -197.3619 204.1265
v -9.999985 -197.3535 204.1245
v -9.999985 -197.3237 204.1176
v -9.999985 -197.0835 204.0613
v -9.999985 -200.9825 204.8267
v -9.999985 -201.0254 204.8001
v -9.999985 -201.0381 204.7922
v -9.999985 -201.1347 204.7323
v -9.999985 -202.2421 204.0452
v -9.999985 -203.157 203.4776
v -9.999985 -204.0613 202.9165
v -9.999985 -204.0882 202.8015
v -9.999985 -204.1486 202.5439
v -9.999985 -204.3169 201.8252
v -9.999985 -209.8681 198.381
v -9.999985 -204.3842 201.5377
v -9.999985 -204.6138 200.5577
v -9.999985 -204.8028 199.7507
v -9.999985 -204.934 199.1905
v -9.999985 -204.8141 198.9972
v -9.999985 -204.7788 198.9403
v -9.999985 -204.7752 198.9345
v -9.999985 -204.7736 198.9318
v -9.999985 -204.7715 198.9284
v -9.999985 -204.7323 198.8653
v -9.999985 -202.9165 195.9387
v -9.999985 -202.9165 195.9387
v -9.999985 -202.9165 195.9387
v -9.999985 -205.833 191.8774
v -9.999985 -194.167 208.1226
v -90.00005 -201.619 209.8681
v -9.999985 -201.619 209.8681
v -50.00002 -194.167 208.1226
v -90.00005 -208.1226 205.833
v -9.999985 -208.1226 205.833
v -90.00005 -209.8681 198.381
v -9.999985 -209.8681 198.381
v -90.00006 -194.167 208.1226
v -9.999985 -205.833 191.8774
v -50.00002 -202.9165 195.9387
v -9.999985 -202.9165 195.9387
v -50.00003 -205.833 191.8774
v -90.00002 -202.9165 195.9387
v -90.00006 -205.833 191.8774
v -90.00006 -203.7498 194.7784
v -90.00006 -202.9165 195.9387
v -90.00006 -197.0835 204.0613
v -90.00005 -201.619 209.8681
v -90.00006 -195.8755 205.7435
v -90.00005 -201.619 209.8681
v -90.00006 -194.167 208.1226
v -90.00006 -197.0835 204.0613
v -90.00006 -199.2452 204.5677
v -90.00006 -197.0835 204.0613
v -90.00006 -199.5139 204.6306
v -90.00006 -199.5893 204.6482
v -90.00006 -200.4369 204.8468
v -90.00006 -200.5659 204.877
v -90.00006 -200.7023 204.9089
v -90.00006 -200.7317 204.9158
v -90.00006 -200.8095 204.9341
v -90.00005 -208.1226 205.833
v -90.00006 -201.7619 204.3431
v -90.00006 -202.3662 203.9682
v -90.00006 -202.7524 203.7286
v -90.00006 -202.8674 203.6573
v -90.00006 -203.7361 203.1183
v -90.00006 -203.8592 203.0419
v -90.00006 -203.9608 202.9788
v -90.00006 -204.0613 202.9165
v -90.00006 -204.3037 201.8817
v -90.00006 -204.8468 199.5631
v -90.00006 -204.873 199.4513
v -90.00006 -204.8985 199.3424
v -90.00006 -204.9195 199.2527
v -90.00006 -204.934 199.1905
v -90.00005 -209.8681 198.381
v -90.00006 -204.934 199.1905
v -90.00006 -203.8549 197.4511
v -90.00006 -203.5372 196.9392
v -90.00006 -203.5048 196.8869
v -90.00006 -203.4897 196.8627
v -90.00006 -203.4707 196.832
v -90.00006 -203.1182 196.2639
v -90.00006 -202.9165 195.9387
v -90.00006 -203.7498 194.7784
v -90.00006 -202.9165 195.9387
v -90.00006 -205.833 191.8774

vn 6.60717E-07 0.5832973 0.8122587
vn 5.081293E-07 0.5832973 0.8122587
vn 0.6507915 0.4428723 0.6167127
vn 1 -2.980232E-08 -1.266599E-07
vn 1 -2.980232E-08 -1.266599E-07
vn -1.93047E-07 -0.2280538 -0.9736485
vn 0.1414208 -0.577435 -0.8040953
vn -2.473714E-07 0.6503612 -0.759625
vn -4.70862E-07 -0.2280582 -0.9736474
vn -4.297405E-07 -0.2280591 -0.9736474
vn -4.684825E-07 -0.2280588 -0.9736474
vn -5.520662E-07 -0.2280578 -0.9736477
vn -6.105785E-07 -0.2280567 -0.9736478
vn -1.886281E-08 -0.2280624 -0.9736465
vn -3.064257E-07 -0.2280597 -0.9736472
vn -3.544938E-07 -0.2280591 -0.9736472
vn -3.37345E-07 -0.2280593 -0.9736474
vn -3.361822E-07 -0.2280594 -0.9736472
vn -3.501441E-07 -0.2280591 -0.9736473
vn -3.693389E-07 -0.2280594 -0.9736472
vn -3.635521E-07 -0.2280583 -0.9736475
vn -4.062389E-07 -0.2280567 -0.9736478
vn -2.957491E-07 -0.2280589 -0.9736473
vn -3.095653E-07 -0.2280598 -0.9736472
vn -3.077708E-07 -0.07859226 -0.9969069
vn -2.89053E-07 0.492016 -0.8705861
vn -3.398587E-07 0.5272129 -0.8497333
vn -3.003705E-07 0.5272121 -0.8497337
vn -2.806716E-07 0.5272118 -0.8497339
vn -1.273489E-07 0.5272101 -0.8497351
vn -4.289323E-08 0.5272089 -0.8497357
vn 1.733483E-07 0.5272075 -0.8497365
vn -9.3259E-08 0.5272099 -0.8497351
vn -2.714924E-07 0.5272109 -0.8497344
vn -3.305955E-07 0.5272115 -0.8497342
vn -3.893319E-07 0.5272115 -0.8497341
vn -2.907561E-07 0.5272105 -0.8497346
vn -3.11413E-07 0.5272111 -0.8497344
vn -3.522434E-07 0.5272121 -0.8497337
vn -3.539151E-07 0.5819966 -0.8131912
vn -1.075607E-07 0.9564792 -0.2918008
vn -5.775335E-08 0.973647 -0.2280601
vn -8.519845E-08 0.9736474 -0.228059
vn -1.258865E-07 0.9736475 -0.2280583
vn -9.741008E-08 0.9736475 -0.2280583
vn -7.965598E-08 0.9736473 -0.2280587
vn 4.651822E-08 0.9736472 -0.2280593
vn -2.294725E-08 0.9736474 -0.2280589
vn -4.895783E-10 0.9736473 -0.2280592
vn 7.027931E-09 0.9736473 -0.2280589
vn 1.396559E-08 0.9736474 -0.2280589
vn 2.265029E-08 0.9736472 -0.2280593
vn 1.115175E-07 0.999497 -0.03171454
vn 2.468334E-08 0.9736419 -0.228082
vn 2.559686E-07 0.8497347 0.5272105
vn 2.10938E-07 0.8497339 0.5272116
vn 1.740739E-07 0.8497338 0.527212
vn 6.612894E-08 0.8497331 0.527213
vn 2.673214E-07 0.8497342 0.5272113
vn 5.557103E-07 0.8497351 0.5272099
vn 8.346938E-07 0.8497365 0.5272076
vn 6.450573E-06 0.8497604 0.5271691
vn 2.867835E-06 0.8497455 0.5271932
vn -4.855191E-07 0.8497304 0.5272175
vn -9.624563E-08 0.8497326 0.527214
vn 2.413632E-07 0.849734 0.5272115
vn 2.669641E-07 0.8497344 0.527211
vn 2.667448E-07 0.8497345 0.5272108
vn 1.96764E-07 0.8497372 0.5272065
vn 1.84444E-07 0.9260436 0.3774167
vn 3.173946E-07 0.5832973 0.8122587
vn 3.173946E-07 0.5832973 0.8122587
vn 3.173946E-07 0.5832973 0.8122587
vn 1 -2.980232E-08 -1.266599E-07
vn -3.992278E-07 -0.8497342 -0.5272113
vn 1 -2.980232E-08 -1.266599E-07
vn -2.137845E-07 0.7295645 -0.683912
vn 0.7603925 0.3788305 0.5275326
vn 0.8262196 0.3285996 0.4575845
vn 0.07104933 0.5818232 0.810206
vn 3.173949E-07 0.5832973 0.8122587
vn 3.173946E-07 0.5832973 0.8122587
vn 3.173942E-07 0.5832973 0.8122587
vn 0.103003 0.5801948 0.8079383
vn 1 -2.980232E-08 -1.266599E-07
vn 0.01266349 0.5832552 0.8121902
vn 3.173956E-07 0.5832973 0.8122587
vn 0.1414216 0.5774349 0.8040951
vn 3.173958E-07 0.5832919 0.8122626
vn -0.06004148 0.5822399 0.810797
vn -3.289029E-07 -0.8497342 -0.5272112
vn 3.173981E-07 0.5832781 0.8122725
vn -1 4.079493E-06 5.765974E-06
vn -1 2.980232E-08 1.266599E-07
vn -1 -3.207551E-07 3.784014E-07
vn 0 0 0
vn -3.187121E-07 -0.8497342 -0.5272112
vn -2.834167E-07 -0.8497342 -0.5272113
vn -3.085214E-07 -0.8497343 -0.5272113
vn -1 -3.207551E-07 3.784014E-07
vn -1 -3.207551E-07 3.784014E-07
vn -1.490116E-07 0.8122587 -0.5832973
vn -1.490116E-07 0.8122587 -0.5832973
vn -1.490116E-07 0.8122587 -0.5832973
vn -1.490116E-07 0.8122587 -0.5832973
vn -1.490116E-07 0.8122587 -0.5832973
vn -1.490116E-07 0.8122587 -0.5832973
vn -1.490116E-07 0.8122587 -0.5832973
vn -1.490116E-07 0.8122587 -0.5832973
vn -1.490116E-07 0.8122587 -0.5832973
vn 1 -2.980232E-08 -1.266599E-07
vn 1 -2.980232E-08 -1.266599E-07
vn 1 -2.980232E-08 -1.266599E-07
vn 1 -2.980232E-08 -1.266599E-07
vn 1 -2.980232E-08 -1.266599E-07
vn 1 -2.980232E-08 -1.266599E-07
vn 1 -2.980232E-08 -1.266599E-07
vn 1 -2.980232E-08 -1.266599E-07
vn 1 -2.980232E-08 -1.266599E-07
vn 1 -2.980232E-08 -1.266599E-07
vn 1 -2.980232E-08 -1.266599E-07
vn 1 -2.980232E-08 -1.266599E-07
vn 1 -2.980232E-08 -1.266599E-07
vn 0.9999999 -2.980232E-08 -1.266599E-07
vn 1 -2.980232E-08 -1.266599E-07
vn 1 -2.980232E-08 -1.266599E-07
vn 0.9999999 -2.980232E-08 -1.266599E-07
vn 1 -2.980232E-08 -1.266599E-07
vn 1 -2.980232E-08 -1.266599E-07
vn 1 -2.980232E-08 -1.266599E-07
vn 0.9999999 -2.980232E-08 -1.266599E-07
vn 1 -2.980232E-08 -1.266599E-07
vn 1 -2.980232E-08 -1.266599E-07
vn 1 -2.980232E-08 -1.266599E-07
vn 1 -2.980232E-08 -1.266599E-07
vn 1 -2.980232E-08 -1.266599E-07
vn 1 -2.980232E-08 -1.266599E-07
vn 1 -2.980232E-08 -1.266599E-07
vn 1 -2.980232E-08 -1.266599E-07
vn 1 -2.980232E-08 -1.266599E-07
vn 1 -2.980232E-08 -1.266599E-07
vn 0.9999999 -2.980232E-08 -1.266599E-07
vn 1 -2.980232E-08 -1.266599E-07
vn 0.9999999 -2.980232E-08 -1.266599E-07
vn 0.9999999 -2.980232E-08 -1.266599E-07
vn 1 -2.980232E-08 -1.266599E-07
vn 0.9999999 -2.980232E-08 -1.266599E-07
vn 0.9999999 -2.980232E-08 -1.266599E-07
vn 4.712123E-07 0.2280587 0.9736475
vn 4.282051E-07 -0.0254094 0.9996771
vn 3.621684E-07 -0.2953479 0.9553897
vn 4.521613E-07 0.2280587 0.9736473
vn 1.999579E-07 -0.7248457 0.6889113
vn 8.578201E-08 -0.8844051 0.4667202
vn -1.369145E-08 -0.9736473 0.2280587
vn -2.093685E-08 -0.9736474 0.2280588
vn 3.855018E-07 0.2280588 0.9736474
vn -1.490116E-07 0.8122587 -0.5832973
vn -1.490116E-07 0.8122587 -0.5832973
vn -1.490116E-07 0.8122587 -0.5832973
vn -1.490116E-07 0.8122587 -0.5832973
vn -1.490116E-07 0.8122587 -0.5832973
vn -1.490116E-07 0.8122587 -0.5832973
vn -1.581815E-07 0.8122587 -0.5832973
vn -1.581815E-07 0.8122587 -0.5832973
vn -0.2028033 -0.5711761 -0.7953795
vn -1 4.595518E-07 7.250986E-07
vn -0.9999999 -1.454764E-07 2.525306E-07
vn -1 -9.490198E-08 3.536047E-07
vn -1 -1.454764E-07 2.525306E-07
vn -1 -1.454764E-07 2.525306E-07
vn -1 1.051345E-07 4.482748E-07
vn -1 1.051346E-07 4.482748E-07
vn -1 1.05134E-07 4.482745E-07
vn -1 1.051348E-07 4.482748E-07
vn -1 1.051349E-07 4.482748E-07
vn -0.9999999 1.051343E-07 4.482747E-07
vn -1 1.05132E-07 4.482743E-07
vn -0.9999999 1.051373E-07 4.482752E-07
vn -1 -1.420935E-07 4.077134E-07
vn -1 -2.180793E-07 3.04668E-07
vn -1 -1.44346E-07 4.073433E-07
vn -1 -1.443458E-07 4.073438E-07
vn -1 -1.443456E-07 4.073446E-07
vn -1 -1.443458E-07 4.073441E-07
vn -1 -1.443458E-07 4.073441E-07
vn -1 -1.443459E-07 4.07344E-07
vn -1 -1.443462E-07 4.073435E-07
vn -1 -2.770485E-07 2.225516E-07
vn -1 -2.918127E-07 2.019922E-07
vn -1 -2.918128E-07 2.01992E-07
vn -1 -2.918121E-07 2.019924E-07
vn -1 -2.918138E-07 2.019916E-07
vn -1 -2.918129E-07 2.01992E-07
vn -1 -2.918126E-07 2.019922E-07
vn -1 -2.25092E-07 1.723114E-07
vn -1 -2.508818E-07 -4.74885E-08
vn -1 -2.508818E-07 -4.74887E-08
vn -1 -2.508819E-07 -4.748907E-08
vn -1 -2.508802E-07 -4.748195E-08
vn -1 -2.508821E-07 -4.74898E-08
vn -1 -2.508819E-07 -4.748926E-08
vn -1 -2.508815E-07 -4.74878E-08
vn -0.9999999 -2.508811E-07 -4.748665E-08
vn -1 -1.454764E-07 2.525306E-07
vn -1 -1.454764E-07 2.525306E-07
vn -0.9999999 -1.454764E-07 2.525306E-07

f 1//1 2//2 3//3
f 4//4 1//1 3//3
f 3//3 5//5 4//4
f 3//3 6//6 5//5
f 5//5 6//6 7//7
f 8//8 7//7 6//6
f 9//9 8//8 6//6
f 10//10 9//9 6//6
f 9//9 10//10 11//11
f 11//11 10//10 12//12
f 13//13 11//11 12//12
f 13//13 12//12 14//14
f 13//13 14//14 15//15
f 15//15 14//14 16//16
f 15//15 16//16 17//17
f 18//18 17//17 16//16
f 19//19 17//17 18//18
f 19//19 18//18 20//20
f 21//21 19//19 20//20
f 22//22 19//19 21//21
f 22//22 21//21 23//23
f 24//24 22//22 23//23
f 24//24 23//23 25//25
f 26//26 24//24 25//25
f 26//26 25//25 27//27
f 28//28 26//26 27//27
f 28//28 27//27 29//29
f 29//29 27//27 30//30
f 31//31 29//29 30//30
f 31//31 30//30 32//32
f 33//33 31//31 32//32
f 33//33 32//32 34//34
f 35//35 33//33 34//34
f 35//35 34//34 36//36
f 37//37 35//35 36//36
f 37//37 36//36 38//38
f 39//39 37//37 38//38
f 39//39 38//38 40//40
f 41//41 39//39 40//40
f 41//41 40//40 42//42
f 41//41 42//42 43//43
f 43//43 42//42 44//44
f 45//45 43//43 44//44
f 45//45 44//44 46//46
f 47//47 45//45 46//46
f 48//48 45//45 47//47
f 48//48 47//47 49//49
f 50//50 48//48 49//49
f 50//50 49//49 51//51
f 52//52 50//50 51//51
f 52//52 51//51 53//53
f 54//54 52//52 53//53
f 55//55 54//54 53//53
f 55//55 53//53 56//56
f 55//55 56//56 57//57
f 57//57 56//56 58//58
f 57//57 58//58 59//59
f 59//59 58//58 60//60
f 59//59 60//60 61//61
f 61//61 60//60 62//62
f 61//61 62//62 63//63
f 63//63 62//62 64//64
f 63//63 64//64 65//65
f 65//65 64//64 66//66
f 65//65 66//66 67//67
f 68//68 67//67 66//66
f 69//69 67//67 68//68
f 69//69 68//68 70//70
f 71//71 69//69 70//70
f 72//72 71//71 73//73
f 74//74 75//75 76//76
f 77//77 74//74 76//76
f 75//75 77//77 76//76
f 78//78 75//75 74//74
f 79//79 75//75 78//78
f 78//78 74//74 80//80
f 81//81 78//78 80//80
f 82//82 78//78 81//81
f 82//82 83//83 78//78
f 83//83 84//84 79//79
f 84//84 85//85 79//79
f 80//80 74//74 86//86
f 87//87 80//80 86//86
f 81//81 80//80 87//87
f 86//86 74//74 88//88
f 88//88 74//74 77//77
f 86//86 88//88 89//89
f 90//90 86//86 89//89
f 87//87 86//86 90//90
f 75//75 91//91 77//77
f 90//90 89//89 92//92
f 90//90 92//92 93//93
f 94//94 90//90 93//93
f 95//95 83//83 82//82
f 95//95 82//82 81//81
f 95//95 81//81 87//87
f 95//95 87//87 90//90
f 95//95 96//96 83//83
f 97//97 91//91 75//75
f 97//97 98//98 91//91
f 97//97 99//99 98//98
f 100//100 95//95 101//101
f 102//102 103//103 104//104
f 102//102 104//104 105//105
f 102//102 105//105 106//106
f 106//106 105//105 107//107
f 108//108 102//102 106//106
f 109//109 102//102 108//108
f 110//110 108//108 106//106
f 111//111 112//112 113//113
f 111//111 113//113 114//114
f 111//111 114//114 115//115
f 111//111 115//115 116//116
f 111//111 116//116 117//117
f 117//117 118//118 111//111
f 118//118 119//119 111//111
f 120//120 111//111 119//119
f 120//120 121//121 111//111
f 121//121 122//122 111//111
f 111//111 122//122 123//123
f 114//114 113//113 124//124
f 124//124 113//113 125//125
f 125//125 113//113 126//126
f 126//126 113//113 127//127
f 127//127 113//113 128//128
f 128//128 113//113 129//129
f 129//129 113//113 130//130
f 130//130 113//113 131//131
f 131//131 113//113 132//132
f 132//132 113//113 133//133
f 133//133 113//113 134//134
f 133//133 134//134 135//135
f 135//135 134//134 136//136
f 134//134 137//137 136//136
f 137//137 134//134 138//138
f 138//138 134//134 139//139
f 139//139 134//134 140//140
f 140//140 134//134 141//141
f 134//134 142//142 141//141
f 134//134 143//143 142//142
f 134//134 144//144 143//143
f 144//144 134//134 145//145
f 145//145 134//134 146//146
f 147//147 134//134 148//148
f 149//149 150//150 151//151
f 149//149 152//152 150//150
f 151//151 150//150 153//153
f 151//151 153//153 154//154
f 154//154 153//153 155//155
f 154//154 155//155 156//156
f 152//152 157//157 150//150
f 158//158 159//159 160//160
f 161//161 159//159 158//158
f 162//162 159//159 161//161
f 163//163 162//162 161//161
f 164//164 162//162 163//163
f 165//165 162//162 164//164
f 9//9 166//166 8//8
f 166//166 9//9 167//167
f 168//168 169//169 170//170
f 168//168 171//171 169//169
f 172//172 169//169 173//173
f 174//174 169//169 172//172
f 169//169 174//174 175//175
f 176//176 169//169 175//175
f 177//177 169//169 176//176
f 178//178 169//169 177//177
f 178//178 179//179 169//169
f 179//179 180//180 169//169
f 180//180 181//181 169//169
f 182//182 181//181 180//180
f 182//182 183//183 181//181
f 183//183 184//184 181//181
f 184//184 185//185 181//181
f 185//185 186//186 181//181
f 186//186 187//187 181//181
f 187//187 188//188 181//181
f 188//188 189//189 181//181
f 181//181 189//189 190//190
f 181//181 190//190 191//191
f 192//192 181//181 191//191
f 193//193 181//181 192//192
f 194//194 181//181 193//193
f 195//195 181//181 194//194
f 195//195 196//196 181//181
f 196//196 197//197 198//198
f 196//196 198//198 199//199
f 199//199 200//200 196//196
f 196//196 200//200 201//201
f 201//201 202//202 196//196
f 196//196 202//202 203//203
f 196//196 203//203 204//204
f 205//205 196//196 206//206
f 207//207 196//196 205//205
