v 96.13525 192.4165 -185.8966
v 96.13524 104.1246 -141.7507
v 96.13525 192.4165 -185.8966
v 96.13525 192.4165 -185.8966
v 97.51551 190.9434 -188.8428
v 98.06762 190.3542 -190.0213
v 98.06762 190.3542 -190.0213
v 98.06762 102.0623 -145.8753
v 98.06762 13.77041 -101.7294
v 98.31432 190.3546 -190.0204
v 100.2878 13.77448 -101.7212
v 98.34497 190.3547 -190.0202
v 100.5637 13.77499 -101.7202
v 98.35358 190.3547 -190.0202
v 100.6412 13.77513 -101.7199
v 98.4503 190.3549 -190.0199
v 101.5117 13.77673 -101.7167
v 99.64288 190.3571 -190.0155
v 101.6442 13.77698 -101.7162
v 100.7736 190.3591 -190.0113
v 100.9037 190.3594 -190.0108
v 101.7843 13.77724 -101.7157
v 101.175 190.3599 -190.0098
v 101.8145 13.77729 -101.7156
v 101.8944 190.3612 -190.0072
v 101.8944 13.77744 -101.7153
v 102.0389 190.2971 -190.1354
v 102.6902 13.42445 -102.4213
v 103.1951 13.2005 -102.8692
v 102.0748 190.2812 -190.1672
v 103.5179 13.05735 -103.1555
v 102.0855 190.2765 -190.1767
v 103.6139 13.01476 -103.2407
v 102.1661 190.2407 -190.2482
v 104.3398 12.69279 -103.8846
v 103.0914 189.8302 -191.0691
v 104.4426 12.64718 -103.9758
v 103.8559 189.4912 -191.7473
v 104.5275 12.6095 -104.0512
v 104.6115 189.156 -192.4175
v 104.6115 12.57227 -104.1257
v 104.612 189.1032 -192.5232
v 104.6159 12.09696 -105.0763
v 104.6131 188.9849 -192.7598
v 104.6256 11.03201 -107.2062
v 104.6161 188.6548 -193.4201
v 104.6173 188.5227 -193.6841
v 104.6261 10.98066 -107.3089
v 104.6215 188.0726 -194.5844
v 104.6266 10.93064 -107.4089
v 104.6249 187.7019 -195.3257
v 104.627 10.88946 -107.4913
v 104.6272 187.4446 -195.8403
v 104.6272 10.86087 -107.5485
v 104.6272 10.86087 -107.5485
v 104.4671 187.3724 -195.9848
v 103.1858 10.21091 -108.8484
v 104.4199 187.3511 -196.0273
v 102.7615 10.0196 -109.231
v 104.4151 187.349 -196.0316
v 102.7182 10.00007 -109.2701
v 104.4129 187.348 -196.0336
v 102.6981 9.991013 -109.2882
v 104.4101 187.3467 -196.0362
v 102.6727 9.979561 -109.3111
v 104.3577 187.3231 -196.0834
v 102.2019 9.767265 -109.7357
v 101.9324 186.2295 -198.2706
v 101.9324 9.645752 -109.9787
v 101.9324 186.2295 -198.2706
v 101.9324 9.645752 -109.9787
v 101.9324 186.2295 -198.2706
v 101.9324 186.2295 -198.2706
v 102.4845 185.6403 -199.449
v 103.8648 184.1672 -202.3952
v 103.8648 184.1672 -202.3952
v 103.8648 184.1672 -202.3952
v 101.9324 186.2295 -198.2706
v 101.9324 186.2295 -198.2706
v 101.9324 186.2295 -198.2706
v 101.9324 9.645752 -109.9787
v 101.9324 9.645752 -109.9787
v 101.9324 9.645752 -109.9787
v 101.9324 186.2295 -198.2706
v 109.2544 186.5974 -197.5348
v 101.9324 186.2295 -198.2706
v 101.9324 9.645752 -109.9787
v 101.9324 186.2295 -198.2706
v 101.9324 97.93762 -154.1246
v 101.9324 9.645752 -109.9787
v 103.8648 95.8753 -158.2493
v 101.9324 9.645844 -109.9787
v 101.9324 9.645752 -109.9787
v 102.4845 9.056519 -111.1572
v 109.2544 10.01367 -109.2429
v 101.9324 9.645752 -109.9787
v 109.2544 186.5974 -197.5348
v 103.8648 7.583427 -114.1033
v 109.2544 10.01367 -109.2429
v 104.6272 10.86087 -107.5485
v 104.6272 10.86087 -107.5485
v 96.13524 104.1246 -141.7507
v 96.13525 192.4165 -185.8966
v 96.13525 192.4165 -185.8966
v 97.51551 190.9434 -188.8428
v 98.06762 102.0623 -145.8753
v 98.06762 190.3542 -190.0213
v 97.2672 14.62465 -100.0209
v 96.13524 15.83273 -97.60474
v 98.06762 13.77041 -101.7294
v 96.13525 192.4165 -185.8966
v 103.7888 192.4305 -185.8685
v 109.223 190.0202 -190.6892
v 101.8944 190.3612 -190.0072
v 101.175 190.3599 -190.0098
v 100.9037 190.3594 -190.0108
v 100.7736 190.3591 -190.0113
v 99.64288 190.3571 -190.0155
v 98.4503 190.3549 -190.0199
v 98.35358 190.3547 -190.0202
v 98.34497 190.3547 -190.0202
v 98.31432 190.3546 -190.0204
v 98.06762 190.3542 -190.0213
v 102.0389 190.2971 -190.1354
v 102.0748 190.2812 -190.1672
v 102.0855 190.2765 -190.1767
v 102.1661 190.2407 -190.2482
v 103.0914 189.8302 -191.0691
v 103.8559 189.4912 -191.7473
v 104.6115 189.156 -192.4175
v 104.612 189.1032 -192.5232
v 104.6131 188.9849 -192.7598
v 104.6161 188.6548 -193.4201
v 109.2544 186.5974 -197.5348
v 104.6173 188.5227 -193.6841
v 104.6215 188.0726 -194.5844
v 104.6249 187.7019 -195.3257
v 104.6272 187.4446 -195.8403
v 104.4671 187.3724 -195.9848
v 104.4199 187.3511 -196.0273
v 104.4151 187.349 -196.0316
v 104.4129 187.348 -196.0336
v 104.4101 187.3467 -196.0362
v 104.3577 187.3231 -196.0834
v 101.9324 186.2295 -198.2706
v 101.9324 186.2295 -198.2706
v 101.9324 186.2295 -198.2706
v 103.8648 184.1672 -202.3952
v 96.13525 192.4165 -185.8966
v 103.7888 15.84681 -97.57661
v 103.7888 192.4305 -185.8685
v 96.13524 104.1246 -141.7507
v 109.223 13.43646 -102.3973
v 109.223 190.0202 -190.6892
v 109.2544 10.01367 -109.2429
v 109.2544 186.5974 -197.5348
v 96.13524 15.83273 -97.60474
v 103.8648 184.1672 -202.3952
v 101.9324 97.93762 -154.1246
v 101.9324 186.2295 -198.2706
v 103.8648 95.8753 -158.2493
v 101.9324 9.645844 -109.9787
v 103.8648 7.583427 -114.1033
v 102.4845 9.056519 -111.1572
v 101.9324 9.645752 -109.9787
v 98.06762 13.77041 -101.7294
v 103.7888 15.84681 -97.57661
v 97.2672 14.62465 -100.0209
v 103.7888 15.84681 -97.57661
v 96.13524 15.83273 -97.60474
v 98.06762 13.77041 -101.7294
v 100.2878 13.77448 -101.7212
v 98.06762 13.77041 -101.7294
v 100.5637 13.77499 -101.7202
v 100.6412 13.77513 -101.7199
v 101.5117 13.77673 -101.7167
v 101.6442 13.77698 -101.7162
v 101.7843 13.77724 -101.7157
v 101.8145 13.77729 -101.7156
v 101.8944 13.77744 -101.7153
v 109.223 13.43646 -102.3973
v 102.6902 13.42445 -102.4213
v 103.1951 13.2005 -102.8692
v 103.5179 13.05735 -103.1555
v 103.6139 13.01476 -103.2407
v 104.3398 12.69279 -103.8846
v 104.4426 12.64718 -103.9758
v 104.5275 12.6095 -104.0512
v 104.6115 12.57227 -104.1257
v 104.6159 12.09696 -105.0763
v 104.6256 11.03201 -107.2062
v 104.6261 10.98066 -107.3089
v 104.6266 10.93064 -107.4089
v 104.627 10.88946 -107.4913
v 104.6272 10.86087 -107.5485
v 109.2544 10.01367 -109.2429
v 104.6272 10.86087 -107.5485
v 103.1858 10.21091 -108.8484
v 102.7615 10.0196 -109.231
v 102.7182 10.00007 -109.2701
v 102.6981 9.991013 -109.2882
v 102.6727 9.979561 -109.3111
v 102.2019 9.767265 -109.7357
v 101.9324 9.645752 -109.9787
v 102.4845 9.056519 -111.1572
v 101.9324 9.645752 -109.9787
v 103.8648 7.583427 -114.1033

vn -0.3864757 0.4124654 0.8249295
vn -0.3864757 0.4124652 0.8249297
vn -0.2934342 0.8952522 0.3352907
vn 2.980232E-08 0.8944272 -0.4472136
vn 2.980232E-08 0.8944272 -0.4472136
vn 0.00410334 -0.4472099 -0.8944196
vn 0.3825915 -0.2818288 -0.8798844
vn -0.8040255 -0.2659109 -0.5318215
vn 0.004107966 -0.4472101 -0.8944194
vn 0.004108815 -0.4472101 -0.8944196
vn 0.004108471 -0.4472101 -0.8944195
vn 0.004107453 -0.4472102 -0.8944195
vn 0.004106389 -0.4472102 -0.8944194
vn 0.004112185 -0.4472097 -0.8944197
vn 0.004109406 -0.44721 -0.8944196
vn 0.004108874 -0.44721 -0.8944195
vn 0.004109025 -0.44721 -0.8944196
vn 0.004109113 -0.44721 -0.8944196
vn 0.004108819 -0.44721 -0.8944195
vn 0.004109163 -0.44721 -0.8944196
vn 0.004107989 -0.44721 -0.8944196
vn 0.004106416 -0.44721 -0.8944195
vn 0.004108608 -0.44721 -0.8944195
vn 0.004109484 -0.44721 -0.8944196
vn -0.1467695 -0.4423708 -0.8847411
vn -0.6745676 -0.330139 -0.6602777
vn -0.7041974 -0.3175238 -0.635047
vn -0.7041968 -0.317524 -0.6350474
vn -0.7041966 -0.3175241 -0.6350477
vn -0.7041951 -0.3175246 -0.6350492
vn -0.7041941 -0.3175249 -0.6350499
vn -0.7041929 -0.3175252 -0.6350511
vn -0.704195 -0.3175246 -0.6350492
vn -0.7041957 -0.3175244 -0.6350483
vn -0.7041963 -0.3175243 -0.635048
vn -0.7041963 -0.3175243 -0.6350479
vn -0.7041954 -0.3175246 -0.6350486
vn -0.704196 -0.3175244 -0.6350483
vn -0.7041968 -0.317524 -0.6350475
vn -0.7494009 -0.2961077 -0.5922149
vn -0.9975417 -0.03133927 -0.06267834
vn -0.9999915 -0.001838005 -0.003675901
vn -0.9999915 -0.00183755 -0.003674929
vn -0.9999916 -0.001837275 -0.003674288
vn -0.9999915 -0.001837251 -0.003674305
vn -0.9999915 -0.001837428 -0.003674698
vn -0.9999915 -0.001837566 -0.003675255
vn -0.9999915 -0.001837423 -0.003674814
vn -0.9999916 -0.001837569 -0.003675156
vn -0.9999915 -0.00183741 -0.003674856
vn -0.9999916 -0.001837412 -0.003674875
vn -0.9999915 -0.001837599 -0.003675268
vn -0.9811918 0.08632827 0.1726563
vn -0.9999914 -0.001848005 -0.003696086
vn -0.7100061 0.3149259 0.6298515
vn -0.7100052 0.3149263 0.6298523
vn -0.7100049 0.3149264 0.6298527
vn -0.710004 0.3149267 0.6298534
vn -0.7100055 0.3149262 0.6298521
vn -0.7100067 0.314926 0.629851
vn -0.7100085 0.3149253 0.629849
vn -0.7100404 0.314916 0.6298178
vn -0.7100205 0.3149218 0.6298375
vn -0.7100004 0.3149279 0.6298571
vn -0.7100033 0.3149269 0.6298543
vn -0.7100053 0.3149263 0.6298522
vn -0.7100057 0.3149261 0.6298518
vn -0.7100059 0.3149261 0.6298517
vn -0.7100095 0.3149244 0.6298485
vn -0.8179373 0.2572854 0.5145706
vn -0.3864757 0.4124651 0.8249297
vn -0.3864757 0.4124651 0.8249297
vn -0.3864757 0.4124651 0.8249297
vn 2.980232E-08 0.8944272 -0.4472136
vn 0.7100055 -0.3149264 -0.629852
vn 2.980232E-08 0.8944272 -0.4472136
vn -0.8642512 -0.2249756 -0.4499509
vn -0.251002 0.9479967 0.1957043
vn -0.2177204 0.9713546 0.09522626
vn -0.385499 0.4749709 0.7910709
vn -0.3864757 0.4124651 0.8249297
vn -0.3864757 0.4124651 0.8249297
vn -0.3864757 0.4124651 0.8249297
vn -0.3844201 0.5023996 0.7744778
vn 2.980232E-08 0.8944272 -0.4472136
vn -0.38645 0.4237573 0.8191984
vn -0.3864757 0.4124651 0.8249297
vn -0.3825914 0.5348107 0.7533932
vn -0.3864696 0.4124662 0.824932
vn -0.3857727 0.358019 0.8502951
vn 0.7100055 -0.3149263 -0.629852
vn -0.3864539 0.4124692 0.8249379
vn -2.713009E-06 -0.8944243 0.4472193
vn -2.980232E-08 -0.8944272 0.4472136
vn 3.682469E-07 -0.8944271 0.4472137
vn 0 0 0
vn 0.7100055 -0.3149263 -0.6298521
vn 0.7100055 -0.3149263 -0.6298521
vn 0.7100056 -0.3149263 -0.6298521
vn 3.682469E-07 -0.8944271 0.4472137
vn 3.682469E-07 -0.8944271 0.4472137
vn -0.9222996 -0.1728373 -0.3456743
vn -0.9222995 -0.1728373 -0.3456743
vn -0.9222996 -0.1728373 -0.3456743
vn -0.9222996 -0.1728373 -0.3456743
vn -0.9222996 -0.1728373 -0.3456743
vn -0.9222996 -0.1728373 -0.3456743
vn -0.9222996 -0.1728373 -0.3456743
vn -0.9222996 -0.1728373 -0.3456743
vn -0.9222996 -0.1728373 -0.3456743
vn 2.980232E-08 0.8944272 -0.4472136
vn 2.980232E-08 0.8944272 -0.4472136
vn 2.980232E-08 0.8944272 -0.4472136
vn 2.980232E-08 0.8944272 -0.4472136
vn 2.980232E-08 0.8944272 -0.4472136
vn 2.980232E-08 0.8944272 -0.4472136
vn 2.980232E-08 0.8944272 -0.4472136
vn 2.980232E-08 0.8944272 -0.4472136
vn 2.980232E-08 0.8944272 -0.4472136
vn 2.980232E-08 0.8944272 -0.4472136
vn 2.980232E-08 0.8944272 -0.4472136
vn 2.980232E-08 0.8944272 -0.4472136
vn 2.980232E-08 0.8944272 -0.4472136
vn 2.980232E-08 0.8944271 -0.4472136
vn 2.980232E-08 0.8944272 -0.4472136
vn 2.980232E-08 0.8944272 -0.4472136
vn 2.980232E-08 0.8944271 -0.4472136
vn 2.980232E-08 0.8944272 -0.4472136
vn 2.980232E-08 0.8944272 -0.4472136
vn 2.980232E-08 0.8944272 -0.4472136
vn 2.980232E-08 0.8944271 -0.4472136
vn 2.980232E-08 0.8944272 -0.4472136
vn 2.980232E-08 0.8944272 -0.4472136
vn 2.980232E-08 0.8944272 -0.4472136
vn 2.980232E-08 0.8944272 -0.4472136
vn 2.980232E-08 0.8944272 -0.4472136
vn 2.980232E-08 0.8944272 -0.4472136
vn 2.980232E-08 0.8944272 -0.4472136
vn 2.980232E-08 0.8944272 -0.4472136
vn 2.980232E-08 0.8944272 -0.4472136
vn 2.980232E-08 0.8944272 -0.4472136
vn 2.980232E-08 0.8944271 -0.4472136
vn 2.980232E-08 0.8944272 -0.4472136
vn 2.980232E-08 0.8944271 -0.4472136
vn 2.980232E-08 0.8944271 -0.4472136
vn 2.980232E-08 0.8944272 -0.4472136
vn 2.980232E-08 0.8944271 -0.4472136
vn 2.980232E-08 0.8944271 -0.4472136
vn -0.004108439 0.4472102 0.8944196
vn 0.2487477 0.4331572 0.8663137
vn 0.5019004 0.3868066 0.7736126
vn -0.004108397 0.4472101 0.8944194
vn 0.8607725 0.2276274 0.4552544
vn 0.9664918 0.1147987 0.2295973
vn 0.9999915 0.001837332 0.003674715
vn 0.9999915 0.001837336 0.003674739
vn -0.004108526 0.44721 0.8944195
vn -0.9222996 -0.1728373 -0.3456743
vn -0.9222996 -0.1728373 -0.3456743
vn -0.9222996 -0.1728373 -0.3456743
vn -0.9222996 -0.1728373 -0.3456743
vn -0.9222996 -0.1728373 -0.3456743
vn -0.9222996 -0.1728373 -0.3456743
vn -0.9222996 -0.1728373 -0.3456743
vn -0.9222995 -0.1728373 -0.3456743
vn 0.3784446 -0.5852864 -0.717091
vn -3.145417E-07 -0.8944269 0.4472142
vn 1.692223E-07 -0.8944271 0.4472136
vn 1.4258E-07 -0.8944271 0.4472138
vn 1.692223E-07 -0.8944271 0.4472137
vn 1.692223E-07 -0.8944271 0.4472137
vn -3.11593E-08 -0.8944271 0.4472139
vn -3.115944E-08 -0.8944271 0.4472139
vn -3.115889E-08 -0.8944271 0.4472139
vn -3.115962E-08 -0.8944271 0.4472139
vn -3.115969E-08 -0.8944271 0.4472139
vn -3.11591E-08 -0.894427 0.4472139
vn -3.115704E-08 -0.8944271 0.4472139
vn -3.116194E-08 -0.894427 0.4472139
vn 2.006951E-07 -0.8944271 0.4472138
vn 2.516611E-07 -0.8944271 0.4472137
vn 2.028075E-07 -0.8944271 0.4472138
vn 2.028074E-07 -0.8944271 0.4472138
vn 2.028074E-07 -0.8944271 0.4472138
vn 2.028074E-07 -0.8944271 0.4472138
vn 2.028074E-07 -0.8944271 0.4472138
vn 2.028075E-07 -0.8944271 0.4472138
vn 2.028077E-07 -0.8944271 0.4472138
vn 2.907323E-07 -0.8944272 0.4472136
vn 3.005147E-07 -0.8944272 0.4472136
vn 3.005148E-07 -0.8944272 0.4472136
vn 3.005142E-07 -0.8944272 0.4472136
vn 3.005156E-07 -0.8944272 0.4472136
vn 3.005148E-07 -0.8944272 0.4472136
vn 3.005146E-07 -0.8944272 0.4472136
vn 2.288401E-07 -0.8944272 0.4472136
vn 2.047266E-07 -0.8944273 0.4472134
vn 2.047266E-07 -0.8944273 0.4472134
vn 2.047266E-07 -0.8944273 0.4472134
vn 2.047265E-07 -0.8944273 0.4472134
vn 2.047267E-07 -0.8944273 0.4472134
vn 2.047266E-07 -0.8944273 0.4472134
vn 2.047265E-07 -0.8944273 0.4472134
vn 2.047264E-07 -0.8944272 0.4472134
vn 1.692223E-07 -0.8944271 0.4472137
vn 1.692223E-07 -0.8944271 0.4472137
vn 1.692223E-07 -0.8944271 0.4472136

f 1//1 2//2 3//3
f 4//4 1//1 3//3
f 3//3 5//5 4//4
f 3//3 6//6 5//5
f 5//5 6//6 7//7
f 8//8 7//7 6//6
f 9//9 8//8 6//6
f 10//10 9//9 6//6
f 9//9 10//10 11//11
f 11//11 10//10 12//12
f 13//13 11//11 12//12
f 13//13 12//12 14//14
f 13//13 14//14 15//15
f 15//15 14//14 16//16
f 15//15 16//16 17//17
f 18//18 17//17 16//16
f 19//19 17//17 18//18
f 19//19 18//18 20//20
f 21//21 19//19 20//20
f 22//22 19//19 21//21
f 22//22 21//21 23//23
f 24//24 22//22 23//23
f 24//24 23//23 25//25
f 26//26 24//24 25//25
f 26//26 25//25 27//27
f 28//28 26//26 27//27
f 28//28 27//27 29//29
f 29//29 27//27 30//30
f 31//31 29//29 30//30
f 31//31 30//30 32//32
f 33//33 31//31 32//32
f 33//33 32//32 34//34
f 35//35 33//33 34//34
f 35//35 34//34 36//36
f 37//37 35//35 36//36
f 37//37 36//36 38//38
f 39//39 37//37 38//38
f 39//39 38//38 40//40
f 41//41 39//39 40//40
f 41//41 40//40 42//42
f 41//41 42//42 43//43
f 43//43 42//42 44//44
f 45//45 43//43 44//44
f 45//45 44//44 46//46
f 47//47 45//45 46//46
f 48//48 45//45 47//47
f 48//48 47//47 49//49
f 50//50 48//48 49//49
f 50//50 49//49 51//51
f 52//52 50//50 51//51
f 52//52 51//51 53//53
f 54//54 52//52 53//53
f 55//55 54//54 53//53
f 55//55 53//53 56//56
f 55//55 56//56 57//57
f 57//57 56//56 58//58
f 57//57 58//58 59//59
f 59//59 58//58 60//60
f 59//59 60//60 61//61
f 61//61 60//60 62//62
f 61//61 62//62 63//63
f 63//63 62//62 64//64
f 63//63 64//64 65//65
f 65//65 64//64 66//66
f 65//65 66//66 67//67
f 68//68 67//67 66//66
f 69//69 67//67 68//68
f 69//69 68//68 70//70
f 71//71 69//69 70//70
f 72//72 71//71 73//73
f 74//74 75//75 76//76
f 77//77 74//74 76//76
f 75//75 77//77 76//76
f 78//78 75//75 74//74
f 79//79 75//75 78//78
f 78//78 74//74 80//80
f 81//81 78//78 80//80
f 82//82 78//78 81//81
f 82//82 83//83 78//78
f 83//83 84//84 79//79
f 84//84 85//85 79//79
f 80//80 74//74 86//86
f 87//87 80//80 86//86
f 81//81 80//80 87//87
f 86//86 74//74 88//88
f 88//88 74//74 77//77
f 86//86 88//88 89//89
f 90//90 86//86 89//89
f 87//87 86//86 90//90
f 75//75 91//91 77//77
f 90//90 89//89 92//92
f 90//90 92//92 93//93
f 94//94 90//90 93//93
f 95//95 83//83 82//82
f 95//95 82//82 81//81
f 95//95 81//81 87//87
f 95//95 87//87 90//90
f 95//95 96//96 83//83
f 97//97 91//91 75//75
f 97//97 98//98 91//91
f 97//97 99//99 98//98
f 100//100 95//95 101//101
f 102//102 103//103 104//104
f 102//102 104//104 105//105
f 102//102 105//105 106//106
f 106//106 105//105 107//107
f 108//108 102//102 106//106
f 109//109 102//102 108//108
f 110//110 108//108 106//106
f 111//111 112//112 113//113
f 111//111 113//113 114//114
f 111//111 114//114 115//115
f 111//111 115//115 116//116
f 111//111 116//116 117//117
f 117//117 118//118 111//111
f 118//118 119//119 111//111
f 120//120 111//111 119//119
f 120//120 121//121 111//111
f 121//121 122//122 111//111
f 111//111 122//122 123//123
f 114//114 113//113 124//124
f 124//124 113//113 125//125
f 125//125 113//113 126//126
f 126//126 113//113 127//127
f 127//127 113//113 128//128
f 128//128 113//113 129//129
f 129//129 113//113 130//130
f 130//130 113//113 131//131
f 131//131 113//113 132//132
f 132//132 113//113 133//133
f 133//133 113//113 134//134
f 133//133 134//134 135//135
f 135//135 134//134 136//136
f 134//134 137//137 136//136
f 137//137 134//134 138//138
f 138//138 134//134 139//139
f 139//139 134//134 140//140
f 140//140 134//134 141//141
f 134//134 142//142 141//141
f 134//134 143//143 142//142
f 134//134 144//144 143//143
f 144//144 134//134 145//145
f 145//145 134//134 146//146
f 147//147 134//134 148//148
f 149//149 150//150 151//151
f 149//149 152//152 150//150
f 151//151 150//150 153//153
f 151//151 153//153 154//154
f 154//154 153//153 155//155
f 154//154 155//155 156//156
f 152//152 157//157 150//150
f 158//158 159//159 160//160
f 161//161 159//159 158//158
f 162//162 159//159 161//161
f 163//163 162//162 161//161
f 164//164 162//162 163//163
f 165//165 162//162 164//164
f 9//9 166//166 8//8
f 166//166 9//9 167//167
f 168//168 169//169 170//170
f 168//168 171//171 169//169
f 172//172 169//169 173//173
f 174//174 169//169 172//172
f 169//169 174//174 175//175
f 176//176 169//169 175//175
f 177//177 169//169 176//176
f 178//178 169//169 177//177
f 178//178 179//179 169//169
f 179//179 180//180 169//169
f 180//180 181//181 169//169
f 182//182 181//181 180//180
f 182//182 183//183 181//181
f 183//183 184//184 181//181
f 184//184 185//185 181//181
f 185//185 186//186 181//181
f 186//186 187//187 181//181
f 187//187 188//188 181//181
f 188//188 189//189 181//181
f 181//181 189//189 190//190
f 181//181 190//190 191//191
f 192//192 181//181 191//191
f 193//193 181//181 192//192
f 194//194 181//181 193//193
f 195//195 181//181 194//194
f 195//195 196//196 181//181
f 196//196 197//197 198//198
f 196//196 198//198 199//199
f 199//199 200//200 196//196
f 196//196 200//200 201//201
f 201//201 202//202 196//196
f 196//196 202//202 203//203
f 196//196 203//203 204//204
f 205//205 196//196 206//206
f 207//207 196//196 205//205
