v 90.00006 -193.579 107.6662
v 49.99998 -193.579 107.6662
v 90.00006 -193.579 107.6662
v 90.00006 -193.579 107.6662
v 90.00006 -195.8722 104.9283
v 90.00006 -196.7895 103.8331
v 90.00006 -196.7895 103.8331
v 49.99998 -196.7895 103.8331
v 9.999905 -196.7895 103.8331
v 90.00006 -197.0248 103.9071
v 9.999905 -198.9076 104.4989
v 90.00006 -197.0541 103.9163
v 9.999905 -199.1708 104.5816
v 90.00006 -197.0623 103.9188
v 9.999905 -199.2447 104.6048
v 90.00006 -197.1546 103.9478
v 9.999905 -200.0752 104.8658
v 90.00006 -198.2923 104.3054
v 9.999905 -200.2016 104.9056
v 90.00006 -199.371 104.6445
v 90.00006 -199.4951 104.6835
v 9.999905 -200.3352 104.9476
v 90.00006 -199.7539 104.7648
v 9.999905 -200.364 104.9566
v 90.00006 -200.4402 104.9806
v 9.999905 -200.4402 104.9806
v 90.00006 -200.6207 104.8864
v 9.999905 -201.434 104.4622
v 9.999905 -202.0645 104.1332
v 90.00006 -200.6655 104.8631
v 9.999905 -202.4675 103.923
v 90.00006 -200.6788 104.8561
v 9.999905 -202.5874 103.8604
v 90.00006 -200.7795 104.8036
v 9.999905 -203.4938 103.3875
v 90.00006 -201.935 104.2008
v 9.999905 -203.6222 103.3205
v 90.00006 -202.8896 103.7028
v 9.999905 -203.7283 103.2652
v 90.00006 -203.8331 103.2105
v 9.999905 -203.8331 103.2105
v 90.00006 -203.8685 103.0978
v 9.999905 -204.1518 102.1966
v 90.00006 -203.9478 102.8454
v 9.999905 -204.8658 99.92484
v 90.00006 -204.1692 102.1412
v 90.00006 -204.2577 101.8596
v 9.999905 -204.9003 99.8153
v 90.00006 -204.5595 100.8993
v 9.999905 -204.9338 99.7086
v 90.00006 -204.8081 100.1086
v 9.999905 -204.9614 99.62075
v 90.00006 -204.9806 99.55975
v 9.999905 -204.9806 99.55977
v 9.999905 -204.9806 99.55977
v 90.00006 -204.8754 99.3581
v 9.999905 -204.0338 97.74493
v 90.00006 -204.8444 99.29875
v 9.999905 -203.7551 97.21075
v 90.00006 -204.8413 99.29269
v 9.999905 -203.7266 97.15622
v 90.00006 -204.8398 99.28988
v 9.999905 -203.7135 97.13094
v 90.00006 -204.8379 99.28633
v 9.999905 -203.6968 97.09898
v 90.00006 -204.8036 99.22047
v 9.999905 -203.3875 96.50619
v 90.00006 -203.2105 96.16689
v 9.999905 -203.2105 96.1669
v 90.00006 -203.2105 96.16689
v 9.999905 -203.2105 96.1669
v 90.00006 -203.2105 96.16689
v 90.00006 -203.2105 96.16689
v 90.00006 -204.1278 95.07172
v 90.00006 -206.421 92.33379
v 90.00006 -206.421 92.33379
v 90.00006 -206.421 92.33379
v 90.00006 -203.2105 96.16689
v 90.00006 -203.2105 96.16689
v 90.00006 -203.2105 96.16689
v 9.999905 -203.2105 96.1669
v 9.999905 -203.2105 96.1669
v 9.999905 -203.2105 96.1669
v 90.00006 -203.2105 96.16689
v 90.00006 -209.9612 99.11951
v 90.00006 -203.2105 96.16689
v 9.999905 -203.2105 96.1669
v 90.00006 -203.2105 96.16689
v 49.99998 -203.2105 96.16689
v 9.999905 -203.2105 96.1669
v 49.99997 -206.421 92.33379
v 9.999943 -203.2105 96.1669
v 9.999905 -203.2105 96.1669
v 9.999905 -204.1278 95.07173
v 9.999912 -209.9612 99.11952
v 9.999905 -203.2105 96.1669
v 90.00006 -209.9612 99.11951
v 9.999905 -206.421 92.3338
v 9.999912 -209.9612 99.11952
v 9.999905 -204.9806 99.55977
v 9.999905 -204.9806 99.55977
v 49.99998 -193.579 107.6662
v 90.00006 -193.579 107.6662
v 90.00006 -193.579 107.6662
v 90.00006 -195.8722 104.9283
v 49.99998 -196.7895 103.8331
v 90.00006 -196.7895 103.8331
v 9.999905 -195.4597 105.4208
v 9.999905 -193.579 107.6662
v 9.999905 -196.7895 103.8331
v 90.00006 -193.579 107.6662
v 90.00006 -200.8805 109.9612
v 90.00006 -207.6662 106.421
v 90.00006 -200.4402 104.9806
v 90.00006 -199.7539 104.7648
v 90.00006 -199.4951 104.6835
v 90.00006 -199.371 104.6445
v 90.00006 -198.2923 104.3054
v 90.00006 -197.1546 103.9478
v 90.00006 -197.0623 103.9188
v 90.00006 -197.0541 103.9163
v 90.00006 -197.0248 103.9071
v 90.00006 -196.7895 103.8331
v 90.00006 -200.6207 104.8864
v 90.00006 -200.6655 104.8631
v 90.00006 -200.6788 104.8561
v 90.00006 -200.7795 104.8036
v 90.00006 -201.935 104.2008
v 90.00006 -202.8896 103.7028
v 90.00006 -203.8331 103.2105
v 90.00006 -203.8685 103.0978
v 90.00006 -203.9478 102.8454
v 90.00006 -204.1692 102.1412
v 90.00006 -209.9612 99.11951
v 90.00006 -204.2577 101.8596
v 90.00006 -204.5595 100.8993
v 90.00006 -204.8081 100.1086
v 90.00006 -204.9806 99.55975
v 90.00006 -204.8754 99.3581
v 90.00006 -204.8444 99.29875
v 90.00006 -204.8413 99.29269
v 90.00006 -204.8398 99.28988
v 90.00006 -204.8379 99.28633
v 90.00006 -204.8036 99.22047
v 90.00006 -203.2105 96.16689
v 90.00006 -203.2105 96.16689
v 90.00006 -203.2105 96.16689
v 90.00006 -206.421 92.33379
v 90.00006 -193.579 107.6662
v 9.999912 -200.8805 109.9612
v 90.00006 -200.8805 109.9612
v 49.99998 -193.579 107.6662
v 9.999912 -207.6662 106.421
v 90.00006 -207.6662 106.421
v 9.999912 -209.9612 99.11952
v 90.00006 -209.9612 99.11951
v 9.999905 -193.579 107.6662
v 90.00006 -206.421 92.33379
v 49.99998 -203.2105 96.16689
v 90.00006 -203.2105 96.16689
v 49.99997 -206.421 92.33379
v 9.999943 -203.2105 96.1669
v 9.999905 -206.421 92.3338
v 9.999905 -204.1278 95.07173
v 9.999905 -203.2105 96.1669
v 9.999905 -196.7895 103.8331
v 9.999912 -200.8805 109.9612
v 9.999905 -195.4597 105.4208
v 9.999912 -200.8805 109.9612
v 9.999905 -193.579 107.6662
v 9.999905 -196.7895 103.8331
v 9.999905 -198.9076 104.4989
v 9.999905 -196.7895 103.8331
v 9.999905 -199.1708 104.5816
v 9.999905 -199.2447 104.6048
v 9.999905 -200.0752 104.8658
v 9.999905 -200.2016 104.9056
v 9.999905 -200.3352 104.9476
v 9.999905 -200.364 104.9566
v 9.999905 -200.4402 104.9806
v 9.999912 -207.6662 106.421
v 9.999905 -201.434 104.4622
v 9.999905 -202.0645 104.1332
v 9.999905 -202.4675 103.923
v 9.999905 -202.5874 103.8604
v 9.999905 -203.4938 103.3875
v 9.999905 -203.6222 103.3205
v 9.999905 -203.7283 103.2652
v 9.999905 -203.8331 103.2105
v 9.999905 -204.1518 102.1966
v 9.999905 -204.8658 99.92484
v 9.999905 -204.9003 99.8153
v 9.999905 -204.9338 99.7086
v 9.999905 -204.9614 99.62075
v 9.999905 -204.9806 99.55977
v 9.999912 -209.9612 99.11952
v 9.999905 -204.9806 99.55977
v 9.999905 -204.0338 97.74493
v 9.999905 -203.7551 97.21075
v 9.999905 -203.7266 97.15622
v 9.999905 -203.7135 97.13094
v 9.999905 -203.6968 97.09898
v 9.999905 -203.3875 96.50619
v 9.999905 -203.2105 96.1669
v 9.999905 -204.1278 95.07173
v 9.999905 -203.2105 96.1669
v 9.999905 -206.421 92.3338

vn 6.383653E-07 0.642101 0.7666202
vn 4.857776E-07 0.642101 0.7666202
vn 0.6507915 0.4875195 0.5820614
vn 1 0 -1.043081E-07
vn 1 0 -1.043081E-07
vn -1.609918E-07 -0.2998466 -0.9539876
vn 0.1414209 -0.6356477 -0.7589154
vn -2.131109E-07 0.5920551 -0.8058975
vn -4.388069E-07 -0.2998509 -0.9539862
vn -3.976854E-07 -0.2998518 -0.953986
vn -4.364273E-07 -0.2998514 -0.953986
vn -5.200111E-07 -0.2998505 -0.9539864
vn -5.785233E-07 -0.2998495 -0.9539866
vn 1.31923E-08 -0.299855 -0.953985
vn -2.743705E-07 -0.2998523 -0.9539858
vn -3.224386E-07 -0.2998518 -0.9539859
vn -3.052898E-07 -0.299852 -0.953986
vn -3.04127E-07 -0.299852 -0.9539859
vn -3.18089E-07 -0.2998518 -0.9539859
vn -3.372838E-07 -0.2998521 -0.9539859
vn -3.314969E-07 -0.299851 -0.9539862
vn -3.741837E-07 -0.2998495 -0.9539866
vn -2.63694E-07 -0.2998516 -0.9539859
vn -2.775101E-07 -0.2998524 -0.9539858
vn -2.732195E-07 -0.1525292 -0.9882992
vn -2.526178E-07 0.4258946 -0.9047728
vn -3.037713E-07 0.4625451 -0.8865959
vn -2.642831E-07 0.4625443 -0.8865961
vn -2.445843E-07 0.4625441 -0.8865964
vn -9.126145E-08 0.4625423 -0.8865974
vn -6.80581E-09 0.462541 -0.8865979
vn 2.094357E-07 0.4625396 -0.8865987
vn -5.717159E-08 0.4625421 -0.8865975
vn -2.35405E-07 0.4625431 -0.8865968
vn -2.945081E-07 0.4625437 -0.8865967
vn -3.532446E-07 0.4625437 -0.8865965
vn -2.546687E-07 0.4625427 -0.886597
vn -2.753256E-07 0.4625433 -0.8865968
vn -3.161561E-07 0.4625444 -0.8865962
vn -3.185145E-07 0.5198953 -0.8542301
vn -8.650701E-08 0.9321239 -0.3621398
vn -3.877319E-08 0.9539855 -0.2998527
vn -6.621833E-08 0.9539859 -0.2998517
vn -1.069064E-07 0.9539861 -0.299851
vn -7.842998E-08 0.953986 -0.299851
vn -6.067587E-08 0.9539859 -0.2998514
vn 6.549836E-08 0.9539858 -0.2998519
vn -3.967126E-09 0.9539859 -0.2998515
vn 1.849056E-08 0.9539859 -0.2998519
vn 2.600805E-08 0.9539859 -0.2998515
vn 3.294571E-08 0.953986 -0.2998516
vn 4.163043E-08 0.9539858 -0.299852
vn 1.238084E-07 0.994369 -0.1059739
vn 4.366423E-08 0.9539788 -0.2998742
vn 2.467231E-07 0.886597 0.4625428
vn 2.016926E-07 0.8865964 0.4625439
vn 1.648284E-07 0.8865963 0.4625444
vn 5.688339E-08 0.8865956 0.4625454
vn 2.580759E-07 0.8865967 0.4625436
vn 5.464649E-07 0.8865975 0.4625422
vn 8.254486E-07 0.8865986 0.4625397
vn 6.44133E-06 0.8866196 0.4624996
vn 2.858591E-06 0.8866065 0.4625248
vn -4.947649E-07 0.8865933 0.46255
vn -1.054912E-07 0.8865952 0.4625464
vn 2.321177E-07 0.8865964 0.4625438
vn 2.577187E-07 0.8865967 0.4625433
vn 2.574994E-07 0.8865969 0.4625431
vn 1.875187E-07 0.8865992 0.4625386
vn 1.813744E-07 0.9515522 0.3074877
vn 2.950428E-07 0.642101 0.7666202
vn 2.950428E-07 0.642101 0.7666202
vn 2.950428E-07 0.642101 0.7666202
vn 1 0 -1.043081E-07
vn -3.899823E-07 -0.8865966 -0.4625436
vn 1 0 -1.043081E-07
vn -1.813301E-07 0.6766708 -0.7362858
vn 0.7603925 0.4170214 0.497892
vn 0.8262196 0.3617266 0.4318741
vn 0.07104931 0.6404784 0.7646828
vn 2.950432E-07 0.642101 0.7666202
vn 2.950428E-07 0.642101 0.7666202
vn 2.950425E-07 0.642101 0.7666202
vn 0.103003 0.6386858 0.7625425
vn 1 0 -1.043081E-07
vn 0.01266347 0.642054 0.766555
vn 2.950439E-07 0.642101 0.7666202
vn 0.1414216 0.6356476 0.7589152
vn 2.950439E-07 0.642096 0.7666245
vn -0.06004151 0.6409378 0.7652411
vn -3.196574E-07 -0.8865966 -0.4625436
vn 2.950457E-07 0.6420829 0.7666354
vn -1 4.457951E-06 5.426765E-06
vn -1 0 1.043081E-07
vn -1 -3.308606E-07 3.814284E-07
vn 0 0 0
vn -3.094667E-07 -0.8865967 -0.4625436
vn -2.741713E-07 -0.8865967 -0.4625436
vn -2.992759E-07 -0.8865967 -0.4625436
vn -1 -3.308606E-07 3.814284E-07
vn -1 -3.308606E-07 3.814284E-07
vn -1.192093E-07 0.76662 -0.642101
vn -1.192092E-07 0.76662 -0.642101
vn -1.192093E-07 0.76662 -0.642101
vn -1.192093E-07 0.76662 -0.642101
vn -1.192093E-07 0.76662 -0.642101
vn -1.192093E-07 0.76662 -0.642101
vn -1.192093E-07 0.76662 -0.642101
vn -1.192093E-07 0.76662 -0.642101
vn -1.192093E-07 0.76662 -0.642101
vn 1 0 -1.043081E-07
vn 1 0 -1.043081E-07
vn 1 0 -1.043081E-07
vn 1 0 -1.043081E-07
vn 1 0 -1.043081E-07
vn 1 0 -1.043081E-07
vn 1 0 -1.043081E-07
vn 1 0 -1.043081E-07
vn 1 0 -1.043081E-07
vn 1 0 -1.043081E-07
vn 1 0 -1.043081E-07
vn 1 0 -1.043081E-07
vn 1 0 -1.043081E-07
vn 1 0 -1.043081E-07
vn 1 0 -1.043081E-07
vn 1 0 -1.043081E-07
vn 1 0 -1.043081E-07
vn 1 0 -1.043081E-07
vn 1 0 -1.043081E-07
vn 1 0 -1.043081E-07
vn 1 0 -1.043081E-07
vn 1 0 -1.043081E-07
vn 1 0 -1.043081E-07
vn 1 0 -1.043081E-07
vn 1 0 -1.043081E-07
vn 1 0 -1.043081E-07
vn 1 0 -1.043081E-07
vn 1 0 -1.043081E-07
vn 1 0 -1.043081E-07
vn 1 0 -1.043081E-07
vn 1 0 -1.043081E-07
vn 1 0 -1.043081E-07
vn 1 0 -1.043081E-07
vn 1 0 -1.043081E-07
vn 1 0 -1.043081E-07
vn 1 0 -1.043081E-07
vn 1 0 -1.043081E-07
vn 1 0 -1.043081E-07
vn 4.391572E-07 0.2998514 0.9539861
vn 3.923938E-07 0.0490217 0.9987978
vn 3.249159E-07 -0.2234633 0.9747124
vn 4.201061E-07 0.2998513 0.953986
vn 1.673785E-07 -0.6715932 0.7409202
vn 5.931689E-08 -0.8472381 0.5312135
vn -3.267157E-08 -0.9539859 0.2998514
vn -3.991697E-08 -0.9539859 0.2998514
vn 3.534466E-07 0.2998515 0.953986
vn -1.192093E-07 0.76662 -0.642101
vn -1.192093E-07 0.76662 -0.642101
vn -1.192093E-07 0.76662 -0.642101
vn -1.192093E-07 0.76662 -0.642101
vn -1.192093E-07 0.76662 -0.642101
vn -1.192093E-07 0.76662 -0.642101
vn -1.283792E-07 0.76662 -0.642101
vn -1.283792E-07 0.76662 -0.642101
vn -0.2028033 -0.6287579 -0.7506894
vn -1 4.730736E-07 6.691223E-07
vn -1 -1.654303E-07 2.428682E-07
vn -1 -1.074776E-07 3.399004E-07
vn -1 -1.654303E-07 2.428682E-07
vn -1 -1.654303E-07 2.428682E-07
vn -1 9.904669E-08 4.194285E-07
vn -1 9.904686E-08 4.194285E-07
vn -1 9.90462E-08 4.194283E-07
vn -1 9.904705E-08 4.194285E-07
vn -1 9.904713E-08 4.194286E-07
vn -1 9.904649E-08 4.194285E-07
vn -1 9.904424E-08 4.194282E-07
vn -1 9.904954E-08 4.194287E-07
vn -1 -1.505135E-07 3.973695E-07
vn -1 -2.339538E-07 3.002617E-07
vn -1 -1.527873E-07 3.97168E-07
vn -1 -1.527871E-07 3.971685E-07
vn -1 -1.527868E-07 3.971692E-07
vn -1 -1.52787E-07 3.971688E-07
vn -1 -1.527871E-07 3.971687E-07
vn -1 -1.527871E-07 3.971686E-07
vn -1 -1.527875E-07 3.971682E-07
vn -1 -2.988678E-07 2.227592E-07
vn -1 -3.151205E-07 2.03355E-07
vn -1 -3.151206E-07 2.033548E-07
vn -1 -3.151198E-07 2.033551E-07
vn -1 -3.151216E-07 2.033545E-07
vn -1 -3.151207E-07 2.033548E-07
vn -1 -3.151203E-07 2.03355E-07
vn -1 -2.507924E-07 1.687934E-07
vn -1 -2.928604E-07 -4.847922E-08
vn -1 -2.928605E-07 -4.847942E-08
vn -1 -2.928606E-07 -4.847978E-08
vn -1 -2.928584E-07 -4.84728E-08
vn -1 -2.928609E-07 -4.848048E-08
vn -1 -2.928607E-07 -4.847996E-08
vn -1 -2.928602E-07 -4.847854E-08
vn -1 -2.928597E-07 -4.847742E-08
vn -1 -1.654303E-07 2.428682E-07
vn -1 -1.654303E-07 2.428682E-07
vn -1 -1.654303E-07 2.428682E-07

f 1//1 2//2 3//3
f 4//4 1//1 3//3
f 3//3 5//5 4//4
f 3//3 6//6 5//5
f 5//5 6//6 7//7
f 8//8 7//7 6//6
f 9//9 8//8 6//6
f 10//10 9//9 6//6
f 9//9 10//10 11//11
f 11//11 10//10 12//12
f 13//13 11//11 12//12
f 13//13 12//12 14//14
f 13//13 14//14 15//15
f 15//15 14//14 16//16
f 15//15 16//16 17//17
f 18//18 17//17 16//16
f 19//19 17//17 18//18
f 19//19 18//18 20//20
f 21//21 19//19 20//20
f 22//22 19//19 21//21
f 22//22 21//21 23//23
f 24//24 22//22 23//23
f 24//24 23//23 25//25
f 26//26 24//24 25//25
f 26//26 25//25 27//27
f 28//28 26//26 27//27
f 28//28 27//27 29//29
f 29//29 27//27 30//30
f 31//31 29//29 30//30
f 31//31 30//30 32//32
f 33//33 31//31 32//32
f 33//33 32//32 34//34
f 35//35 33//33 34//34
f 35//35 34//34 36//36
f 37//37 35//35 36//36
f 37//37 36//36 38//38
f 39//39 37//37 38//38
f 39//39 38//38 40//40
f 41//41 39//39 40//40
f 41//41 40//40 42//42
f 41//41 42//42 43//43
f 43//43 42//42 44//44
f 45//45 43//43 44//44
f 45//45 44//44 46//46
f 47//47 45//45 46//46
f 48//48 45//45 47//47
f 48//48 47//47 49//49
f 50//50 48//48 49//49
f 50//50 49//49 51//51
f 52//52 50//50 51//51
f 52//52 51//51 53//53
f 54//54 52//52 53//53
f 55//55 54//54 53//53
f 55//55 53//53 56//56
f 55//55 56//56 57//57
f 57//57 56//56 58//58
f 57//57 58//58 59//59
f 59//59 58//58 60//60
f 59//59 60//60 61//61
f 61//61 60//60 62//62
f 61//61 62//62 63//63
f 63//63 62//62 64//64
f 63//63 64//64 65//65
f 65//65 64//64 66//66
f 65//65 66//66 67//67
f 68//68 67//67 66//66
f 69//69 67//67 68//68
f 69//69 68//68 70//70
f 71//71 69//69 70//70
f 72//72 71//71 73//73
f 74//74 75//75 76//76
f 77//77 74//74 76//76
f 75//75 77//77 76//76
f 78//78 75//75 74//74
f 79//79 75//75 78//78
f 78//78 74//74 80//80
f 81//81 78//78 80//80
f 82//82 78//78 81//81
f 82//82 83//83 78//78
f 83//83 84//84 79//79
f 84//84 85//85 79//79
f 80//80 74//74 86//86
f 87//87 80//80 86//86
f 81//81 80//80 87//87
f 86//86 74//74 88//88
f 88//88 74//74 77//77
f 86//86 88//88 89//89
f 90//90 86//86 89//89
f 87//87 86//86 90//90
f 75//75 91//91 77//77
f 90//90 89//89 92//92
f 90//90 92//92 93//93
f 94//94 90//90 93//93
f 95//95 83//83 82//82
f 95//95 82//82 81//81
f 95//95 81//81 87//87
f 95//95 87//87 90//90
f 95//95 96//96 83//83
f 97//97 91//91 75//75
f 97//97 98//98 91//91
f 97//97 99//99 98//98
f 100//100 95//95 101//101
f 102//102 103//103 104//104
f 102//102 104//104 105//105
f 102//102 105//105 106//106
f 106//106 105//105 107//107
f 108//108 102//102 106//106
f 109//109 102//102 108//108
f 110//110 108//108 106//106
f 111//111 112//112 113//113
f 111//111 113//113 114//114
f 111//111 114//114 115//115
f 111//111 115//115 116//116
f 111//111 116//116 117//117
f 117//117 118//118 111//111
f 118//118 119//119 111//111
f 120//120 111//111 119//119
f 120//120 121//121 111//111
f 121//121 122//122 111//111
f 111//111 122//122 123//123
f 114//114 113//113 124//124
f 124//124 113//113 125//125
f 125//125 113//113 126//126
f 126//126 113//113 127//127
f 127//127 113//113 128//128
f 128//128 113//113 129//129
f 129//129 113//113 130//130
f 130//130 113//113 131//131
f 131//131 113//113 132//132
f 132//132 113//113 133//133
f 133//133 113//113 134//134
f 133//133 134//134 135//135
f 135//135 134//134 136//136
f 134//134 137//137 136//136
f 137//137 134//134 138//138
f 138//138 134//134 139//139
f 139//139 134//134 140//140
f 140//140 134//134 141//141
f 134//134 142//142 141//141
f 134//134 143//143 142//142
f 134//134 144//144 143//143
f 144//144 134//134 145//145
f 145//145 134//134 146//146
f 147//147 134//134 148//148
f 149//149 150//150 151//151
f 149//149 152//152 150//150
f 151//151 150//150 153//153
f 151//151 153//153 154//154
f 154//154 153//153 155//155
f 154//154 155//155 156//156
f 152//152 157//157 150//150
f 158//158 159//159 160//160
f 161//161 159//159 158//158
f 162//162 159//159 161//161
f 163//163 162//162 161//161
f 164//164 162//162 163//163
f 165//165 162//162 164//164
f 9//9 166//166 8//8
f 166//166 9//9 167//167
f 168//168 169//169 170//170
f 168//168 171//171 169//169
f 172//172 169//169 173//173
f 174//174 169//169 172//172
f 169//169 174//174 175//175
f 176//176 169//169 175//175
f 177//177 169//169 176//176
f 178//178 169//169 177//177
f 178//178 179//179 169//169
f 179//179 180//180 169//169
f 180//180 181//181 169//169
f 182//182 181//181 180//180
f 182//182 183//183 181//181
f 183//183 184//184 181//181
f 184//184 185//185 181//181
f 185//185 186//186 181//181
f 186//186 187//187 181//181
f 187//187 188//188 181//181
f 188//188 189//189 181//181
f 181//181 189//189 190//190
f 181//181 190//190 191//191
f 192//192 181//181 191//191
f 193//193 181//181 192//192
f 194//194 181//181 193//193
f 195//195 181//181 194//194
f 195//195 196//196 181//181
f 196//196 197//197 198//198
f 196//196 198//198 199//199
f 199//199 200//200 196//196
f 196//196 200//200 201//201
f 201//201 202//202 196//196
f 196//196 202//202 203//203
f 196//196 203//203 204//204
f 205//205 196//196 206//206
f 207//207 196//196 205//205
