v -9.488936 -10.35559 -98.35071
v -9.48894 -101.4114 -52.82278
v -9.488936 -10.35559 -98.35071
v -9.488935 -10.35559 -98.35071
v -6.100031 -9.851517 -97.34256
v -4.744468 -9.649887 -96.9393
v -4.744468 -9.649887 -96.9393
v -4.744473 -100.7057 -51.41138
v -4.744474 -191.7616 -5.883457
v -4.726817 -9.539848 -96.71922
v -4.585616 -190.7712 -3.902699
v -4.724625 -9.526169 -96.69186
v -4.565875 -190.6482 -3.656563
v -4.724009 -9.522331 -96.68419
v -4.560333 -190.6136 -3.58746
v -4.717088 -9.479187 -96.5979
v -4.498045 -190.2253 -2.810806
v -4.631759 -8.947212 -95.53395
v -4.488565 -190.1662 -2.692593
v -4.550857 -8.442833 -94.5252
v -4.54155 -8.384811 -94.40915
v -4.478541 -190.1037 -2.567616
v -4.522139 -8.263794 -94.16711
v -4.476384 -190.0902 -2.540722
v -4.470661 -7.942856 -93.52525
v -4.470665 -190.0546 -2.469402
v -4.316795 -7.883263 -93.40605
v -3.623422 -189.7264 -1.813049
v -3.085895 -189.5182 -1.396629
v -4.278619 -7.868477 -93.37648
v -2.742314 -189.3851 -1.130459
v -4.267259 -7.864075 -93.36768
v -2.640064 -189.3455 -1.051247
v -4.181394 -7.830811 -93.30115
v -1.867268 -189.0462 -0.4525642
v -3.196282 -7.449234 -92.53799
v -1.757812 -189.0038 -0.3677711
v -2.382425 -7.133987 -91.9075
v -1.667383 -188.9688 -0.2977142
v -1.577996 -6.822395 -91.28432
v -1.578002 -188.9341 -0.2284737
v -1.460207 -6.826172 -91.29187
v -0.5179014 -188.9681 -0.2964897
v -1.196293 -6.834641 -91.30881
v 1.857327 -189.0443 -0.4488869
v -0.4600147 -6.858261 -91.35605
v -0.1655632 -6.867706 -91.37494
v 1.971853 -189.048 -0.456234
v 0.838465 -6.899918 -91.43936
v 2.08341 -189.0516 -0.4633904
v 1.665174 -6.926437 -91.4924
v 2.175268 -189.0545 -0.4692841
v 2.239034 -6.944847 -91.52922
v 2.239028 -189.0566 -0.4733772
v 2.23903 -189.0566 -0.4733734
v 2.38794 -7.021729 -91.68298
v 3.579182 -189.7485 -1.857304
v 2.431769 -7.044365 -91.72825
v 3.97364 -189.9522 -2.264648
v 2.436244 -7.046669 -91.73287
v 4.013908 -189.973 -2.306232
v 2.438318 -7.047745 -91.73502
v 4.032583 -189.9826 -2.325516
v 2.440941 -7.049095 -91.73772
v 4.056183 -189.9948 -2.349888
v 2.489578 -7.074211 -91.78795
v 4.493919 -190.2209 -2.801926
v 4.744466 -8.23848 -94.11649
v 4.744464 -190.3502 -3.06065
v 4.744469 -8.238487 -94.1165
v 4.744464 -190.3502 -3.06065
v 4.744469 -8.238487 -94.1165
v 4.744469 -8.238487 -94.1165
v 6.100032 -8.036858 -93.71324
v 9.488937 -7.532784 -92.70509
v 9.488937 -7.532784 -92.70509
v 9.488936 -7.532784 -92.70509
v 4.744469 -8.238487 -94.1165
v 4.744469 -8.238487 -94.1165
v 4.744469 -8.238487 -94.1165
v 4.744464 -190.3502 -3.06065
v 4.744464 -190.3502 -3.06065
v 4.744464 -190.3502 -3.06065
v 4.744469 -8.238487 -94.1165
v 4.478068 -4.945511 -87.53054
v 4.744469 -8.238487 -94.1165
v 4.744464 -190.3502 -3.06065
v 4.744469 -8.238487 -94.1165
v 4.744466 -99.29435 -48.58857
v 4.744464 -190.3502 -3.06065
v 9.488933 -98.58865 -47.17717
v 4.744464 -190.3501 -3.060699
v 4.744464 -190.3502 -3.06065
v 6.100025 -190.1486 -2.657394
v 4.478063 -187.0572 3.525295
v 4.744464 -190.3502 -3.06065
v 4.478068 -4.945511 -87.53054
v 9.488931 -189.6445 -1.64925
v 4.478063 -187.0572 3.525295
v 2.23903 -189.0566 -0.4733734
v 2.239028 -189.0566 -0.4733772
v -9.48894 -101.4114 -52.82278
v -9.488936 -10.35559 -98.35071
v -9.488935 -10.35559 -98.35071
v -6.100031 -9.851517 -97.34256
v -4.744473 -100.7057 -51.41138
v -4.744468 -9.649887 -96.9393
v -6.709699 -192.0539 -6.468082
v -9.488943 -192.4673 -7.294861
v -4.744474 -191.7616 -5.883457
v -9.488936 -10.35559 -98.35071
v -8.941317 -6.941536 -91.52259
v -3.155993 -4.700607 -87.04073
v -4.470661 -7.942856 -93.52525
v -4.522139 -8.263794 -94.16711
v -4.54155 -8.384811 -94.40915
v -4.550857 -8.442833 -94.5252
v -4.631759 -8.947212 -95.53395
v -4.717088 -9.479187 -96.5979
v -4.724009 -9.522331 -96.68419
v -4.724625 -9.526169 -96.69186
v -4.726817 -9.539848 -96.71922
v -4.744468 -9.649887 -96.9393
v -4.316795 -7.883263 -93.40605
v -4.278619 -7.868477 -93.37648
v -4.267259 -7.864075 -93.36768
v -4.181394 -7.830811 -93.30115
v -3.196282 -7.449234 -92.53799
v -2.382425 -7.133987 -91.9075
v -1.577996 -6.822395 -91.28432
v -1.460207 -6.826172 -91.29187
v -1.196293 -6.834641 -91.30881
v -0.4600147 -6.858261 -91.35605
v 4.478068 -4.945511 -87.53054
v -0.1655632 -6.867706 -91.37494
v 0.838465 -6.899918 -91.43936
v 1.665174 -6.926437 -91.4924
v 2.239034 -6.944847 -91.52922
v 2.38794 -7.021729 -91.68298
v 2.431769 -7.044365 -91.72825
v 2.436244 -7.046669 -91.73287
v 2.438318 -7.047745 -91.73502
v 2.440941 -7.049095 -91.73772
v 2.489578 -7.074211 -91.78795
v 4.744466 -8.23848 -94.11649
v 4.744469 -8.238487 -94.1165
v 4.744469 -8.238487 -94.1165
v 9.488937 -7.532784 -92.70509
v -9.488936 -10.35559 -98.35071
v -8.941323 -189.0533 -0.4667549
v -8.941317 -6.941536 -91.52259
v -9.48894 -101.4114 -52.82278
v -3.155998 -186.8123 4.015102
v -3.155993 -4.700607 -87.04073
v 4.478063 -187.0572 3.525295
v 4.478068 -4.945511 -87.53054
v -9.488943 -192.4673 -7.294861
v 9.488936 -7.532784 -92.70509
v 4.744466 -99.29435 -48.58857
v 4.744469 -8.238487 -94.1165
v 9.488933 -98.58865 -47.17717
v 4.744464 -190.3501 -3.060699
v 9.488931 -189.6445 -1.64925
v 6.100025 -190.1486 -2.657394
v 4.744464 -190.3502 -3.06065
v -4.744474 -191.7616 -5.883457
v -8.941323 -189.0533 -0.4667549
v -6.709699 -192.0539 -6.468082
v -8.941323 -189.0533 -0.4667549
v -9.488943 -192.4673 -7.294861
v -4.744474 -191.7616 -5.883457
v -4.585616 -190.7712 -3.902699
v -4.744474 -191.7616 -5.883457
v -4.565875 -190.6482 -3.656563
v -4.560333 -190.6136 -3.58746
v -4.498045 -190.2253 -2.810806
v -4.488565 -190.1662 -2.692593
v -4.478541 -190.1037 -2.567616
v -4.476384 -190.0902 -2.540722
v -4.470665 -190.0546 -2.469402
v -3.155998 -186.8123 4.015102
v -3.623422 -189.7264 -1.813049
v -3.085895 -189.5182 -1.396629
v -2.742314 -189.3851 -1.130459
v -2.640064 -189.3455 -1.051247
v -1.867268 -189.0462 -0.4525642
v -1.757812 -189.0038 -0.3677711
v -1.667383 -188.9688 -0.2977142
v -1.578002 -188.9341 -0.2284737
v -0.5179014 -188.9681 -0.2964897
v 1.857327 -189.0443 -0.4488869
v 1.971853 -189.048 -0.456234
v 2.08341 -189.0516 -0.4633904
v 2.175268 -189.0545 -0.4692841
v 2.239028 -189.0566 -0.4733772
v 4.478063 -187.0572 3.525295
v 2.23903 -189.0566 -0.4733734
v 3.579182 -189.7485 -1.857304
v 3.97364 -189.9522 -2.264648
v 4.013908 -189.973 -2.306232
v 4.032583 -189.9826 -2.325516
v 4.056183 -189.9948 -2.349888
v 4.493919 -190.2209 -2.801926
v 4.744464 -190.3502 -3.06065
v 6.100025 -190.1486 -2.657394
v 4.744464 -190.3502 -3.06065
v 9.488931 -189.6445 -1.64925

vn -0.9488927 -0.1411396 -0.2822806
vn -0.9488927 -0.1411398 -0.2822805
vn -0.720453 0.474924 -0.5053659
vn 0 0.8944273 -0.4472136
vn 0 0.8944273 -0.4472136
vn 0.9974366 -0.03200043 -0.0640007
vn 0.939356 0.2662124 0.2161979
vn 0.5320686 -0.3786564 -0.7573126
vn 0.9974369 -0.03199861 -0.06399644
vn 0.9974371 -0.0319982 -0.06399571
vn 0.9974371 -0.03199838 -0.06399599
vn 0.997437 -0.03199891 -0.06399687
vn 0.9974368 -0.03199944 -0.06399778
vn 0.9974373 -0.03199632 -0.06399288
vn 0.9974371 -0.03199782 -0.06399523
vn 0.997437 -0.0319981 -0.06399568
vn 0.9974372 -0.03199802 -0.06399556
vn 0.9974371 -0.03199798 -0.06399548
vn 0.9974371 -0.03199812 -0.06399573
vn 0.9974371 -0.03199799 -0.06399542
vn 0.997437 -0.0319985 -0.06399647
vn 0.9974368 -0.03199924 -0.06399785
vn 0.997437 -0.03199816 -0.06399594
vn 0.9974371 -0.03199779 -0.06399517
vn 0.9752338 -0.09891349 -0.1978266
vn 0.6850686 -0.3257857 -0.651571
vn 0.6546993 -0.3380443 -0.6760881
vn 0.6546999 -0.338044 -0.6760876
vn 0.6547002 -0.3380439 -0.6760874
vn 0.6547018 -0.3380432 -0.6760863
vn 0.6547027 -0.3380426 -0.6760855
vn 0.654704 -0.338042 -0.6760846
vn 0.6547019 -0.338043 -0.6760862
vn 0.6547009 -0.3380435 -0.6760867
vn 0.6547006 -0.3380438 -0.6760871
vn 0.6547005 -0.3380438 -0.6760871
vn 0.6547013 -0.3380434 -0.6760864
vn 0.6547009 -0.3380437 -0.6760869
vn 0.6546999 -0.338044 -0.6760876
vn 0.6035293 -0.3565819 -0.7131633
vn -0.005585437 -0.4472067 -0.8944134
vn -0.07154849 -0.4460675 -0.892135
vn -0.07154956 -0.4460675 -0.8921349
vn -0.07155026 -0.4460675 -0.8921349
vn -0.07155026 -0.4460675 -0.8921348
vn -0.07154983 -0.4460674 -0.8921348
vn -0.07154927 -0.4460673 -0.892135
vn -0.07154973 -0.4460674 -0.8921349
vn -0.07154936 -0.4460674 -0.892135
vn -0.07154969 -0.4460674 -0.8921349
vn -0.07154968 -0.4460674 -0.892135
vn -0.07154924 -0.4460674 -0.8921349
vn -0.2667069 -0.4310144 -0.8620291
vn -0.07152603 -0.4460681 -0.8921365
vn -0.7558877 -0.2927912 -0.5855828
vn -0.7558885 -0.2927907 -0.5855818
vn -0.7558888 -0.2927907 -0.5855816
vn -0.7558895 -0.2927903 -0.5855807
vn -0.7558883 -0.2927909 -0.5855822
vn -0.7558873 -0.2927912 -0.5855835
vn -0.7558854 -0.2927918 -0.5855854
vn -0.7558557 -0.2928021 -0.5856185
vn -0.7558744 -0.2927957 -0.5855978
vn -0.7558931 -0.2927891 -0.585577
vn -0.7558904 -0.2927901 -0.5855799
vn -0.7558884 -0.2927908 -0.585582
vn -0.755888 -0.2927909 -0.5855824
vn -0.7558879 -0.292791 -0.5855826
vn -0.7558846 -0.2927928 -0.585586
vn -0.6355336 -0.3452815 -0.6905634
vn -0.9488927 -0.14114 -0.2822804
vn -0.9488927 -0.14114 -0.2822804
vn -0.9488927 -0.14114 -0.2822804
vn 0 0.8944273 -0.4472136
vn 0.7558883 0.2927907 0.5855822
vn 0 0.8944273 -0.4472136
vn 0.4362409 -0.4024163 -0.8048324
vn -0.6162715 0.5884504 -0.5233887
vn -0.5345571 0.6594822 -0.5285187
vn -0.9464946 -0.07723509 -0.3133411
vn -0.9488927 -0.14114 -0.2822804
vn -0.9488927 -0.14114 -0.2822804
vn -0.9488927 -0.14114 -0.2822804
vn -0.9438456 -0.04826083 -0.3268432
vn 0 0.8944273 -0.4472136
vn -0.9488148 -0.1298048 -0.2879258
vn -0.9488927 -0.14114 -0.2822804
vn -0.9393558 -0.01323032 -0.3426889
vn -0.9488947 -0.1411371 -0.2822748
vn -0.9471827 -0.1945857 -0.2549143
vn 0.7558882 0.2927908 0.5855822
vn -0.9489001 -0.1411299 -0.2822603
vn -6.58793E-06 -0.8944283 0.4472116
vn 0 -0.8944273 0.4472136
vn -1.362073E-07 -0.8944271 0.4472139
vn 0 0 0
vn 0.7558882 0.2927908 0.5855823
vn 0.7558883 0.2927908 0.5855822
vn 0.7558883 0.2927908 0.5855823
vn -1.362073E-07 -0.8944271 0.4472139
vn -1.362073E-07 -0.8944271 0.4472139
vn 0.315599 -0.4243578 -0.8487155
vn 0.315599 -0.4243577 -0.8487154
vn 0.315599 -0.4243578 -0.8487155
vn 0.315599 -0.4243578 -0.8487155
vn 0.315599 -0.4243578 -0.8487155
vn 0.315599 -0.4243578 -0.8487155
vn 0.315599 -0.4243578 -0.8487155
vn 0.315599 -0.4243578 -0.8487155
vn 0.315599 -0.4243578 -0.8487155
vn 0 0.8944273 -0.4472136
vn 0 0.8944273 -0.4472136
vn 0 0.8944273 -0.4472136
vn 0 0.8944273 -0.4472136
vn 0 0.8944273 -0.4472136
vn 0 0.8944273 -0.4472136
vn 0 0.8944273 -0.4472136
vn 0 0.8944273 -0.4472136
vn 0 0.8944273 -0.4472136
vn 0 0.8944273 -0.4472136
vn 0 0.8944273 -0.4472136
vn 0 0.8944273 -0.4472136
vn 0 0.8944273 -0.4472136
vn 0 0.8944272 -0.4472135
vn 0 0.8944273 -0.4472136
vn 0 0.8944273 -0.4472136
vn 0 0.8944272 -0.4472135
vn 0 0.8944273 -0.4472136
vn 0 0.8944273 -0.4472136
vn 0 0.8944273 -0.4472136
vn 0 0.8944272 -0.4472135
vn 0 0.8944273 -0.4472136
vn 0 0.8944273 -0.4472136
vn 0 0.8944273 -0.4472136
vn 0 0.8944273 -0.4472136
vn 0 0.8944273 -0.4472136
vn 0 0.8944273 -0.4472136
vn 0 0.8944273 -0.4472136
vn 0 0.8944273 -0.4472136
vn 0 0.8944273 -0.4472136
vn 0 0.8944273 -0.4472136
vn 0 0.8944272 -0.4472135
vn 0 0.8944273 -0.4472136
vn 0 0.8944272 -0.4472135
vn 0 0.8944272 -0.4472135
vn 0 0.8944273 -0.4472136
vn 0 0.8944272 -0.4472135
vn 0 0.8944272 -0.4472135
vn -0.9974371 0.0319984 0.06399602
vn -0.946976 0.143692 0.2873833
vn -0.8244797 0.2530746 0.5061487
vn -0.9974369 0.0319984 0.06399606
vn -0.4424165 0.4010656 0.8021311
vn -0.1828497 0.439674 0.8793481
vn 0.07154985 0.4460673 0.8921348
vn 0.07154983 0.4460674 0.8921349
vn -0.997437 0.03199828 0.06399598
vn 0.315599 -0.4243578 -0.8487155
vn 0.315599 -0.4243578 -0.8487155
vn 0.315599 -0.4243578 -0.8487155
vn 0.315599 -0.4243578 -0.8487155
vn 0.315599 -0.4243578 -0.8487155
vn 0.315599 -0.4243578 -0.8487155
vn 0.315599 -0.4243578 -0.8487155
vn 0.315599 -0.4243578 -0.8487154
vn 0.9291742 -0.04318559 0.3671108
vn -6.99105E-07 -0.8944274 0.4472134
vn -6.810365E-08 -0.8944272 0.4472137
vn -1.796403E-07 -0.8944272 0.4472137
vn -6.810365E-08 -0.8944272 0.4472137
vn -6.810365E-08 -0.8944272 0.4472137
vn -3.29473E-07 -0.8944273 0.4472136
vn -3.294732E-07 -0.8944273 0.4472136
vn -3.294727E-07 -0.8944273 0.4472136
vn -3.294732E-07 -0.8944273 0.4472136
vn -3.294732E-07 -0.8944273 0.4472136
vn -3.29473E-07 -0.8944272 0.4472136
vn -3.294718E-07 -0.8944273 0.4472136
vn -3.294743E-07 -0.8944272 0.4472136
vn -2.172827E-07 -0.8944272 0.4472138
vn -9.631314E-08 -0.8944272 0.4472138
vn -2.1626E-07 -0.8944272 0.4472138
vn -2.162606E-07 -0.8944272 0.4472138
vn -2.162613E-07 -0.8944272 0.4472138
vn -2.162609E-07 -0.8944272 0.4472138
vn -2.162608E-07 -0.8944272 0.4472138
vn -2.162607E-07 -0.8944272 0.4472138
vn -2.162601E-07 -0.8944272 0.4472138
vn -3.835132E-10 -0.8944272 0.4472139
vn 2.363433E-08 -0.8944272 0.4472139
vn 2.363452E-08 -0.8944272 0.4472139
vn 2.363395E-08 -0.8944272 0.4472139
vn 2.363521E-08 -0.8944272 0.4472139
vn 2.363462E-08 -0.8944272 0.4472139
vn 2.363431E-08 -0.8944272 0.4472139
vn 3.214927E-08 -0.8944272 0.4472138
vn 2.496849E-07 -0.8944272 0.4472137
vn 2.496851E-07 -0.8944272 0.4472137
vn 2.496855E-07 -0.8944272 0.4472137
vn 2.496782E-07 -0.8944272 0.4472137
vn 2.496863E-07 -0.8944272 0.4472137
vn 2.496857E-07 -0.8944272 0.4472137
vn 2.496842E-07 -0.8944272 0.4472137
vn 2.49683E-07 -0.8944272 0.4472137
vn -6.810365E-08 -0.8944272 0.4472137
vn -6.810365E-08 -0.8944272 0.4472137
vn -6.810365E-08 -0.8944272 0.4472137

f 1//1 2//2 3//3
f 4//4 1//1 3//3
f 3//3 5//5 4//4
f 3//3 6//6 5//5
f 5//5 6//6 7//7
f 8//8 7//7 6//6
f 9//9 8//8 6//6
f 10//10 9//9 6//6
f 9//9 10//10 11//11
f 11//11 10//10 12//12
f 13//13 11//11 12//12
f 13//13 12//12 14//14
f 13//13 14//14 15//15
f 15//15 14//14 16//16
f 15//15 16//16 17//17
f 18//18 17//17 16//16
f 19//19 17//17 18//18
f 19//19 18//18 20//20
f 21//21 19//19 20//20
f 22//22 19//19 21//21
f 22//22 21//21 23//23
f 24//24 22//22 23//23
f 24//24 23//23 25//25
f 26//26 24//24 25//25
f 26//26 25//25 27//27
f 28//28 26//26 27//27
f 28//28 27//27 29//29
f 29//29 27//27 30//30
f 31//31 29//29 30//30
f 31//31 30//30 32//32
f 33//33 31//31 32//32
f 33//33 32//32 34//34
f 35//35 33//33 34//34
f 35//35 34//34 36//36
f 37//37 35//35 36//36
f 37//37 36//36 38//38
f 39//39 37//37 38//38
f 39//39 38//38 40//40
f 41//41 39//39 40//40
f 41//41 40//40 42//42
f 41//41 42//42 43//43
f 43//43 42//42 44//44
f 45//45 43//43 44//44
f 45//45 44//44 46//46
f 47//47 45//45 46//46
f 48//48 45//45 47//47
f 48//48 47//47 49//49
f 50//50 48//48 49//49
f 50//50 49//49 51//51
f 52//52 50//50 51//51
f 52//52 51//51 53//53
f 54//54 52//52 53//53
f 55//55 54//54 53//53
f 55//55 53//53 56//56
f 55//55 56//56 57//57
f 57//57 56//56 58//58
f 57//57 58//58 59//59
f 59//59 58//58 60//60
f 59//59 60//60 61//61
f 61//61 60//60 62//62
f 61//61 62//62 63//63
f 63//63 62//62 64//64
f 63//63 64//64 65//65
f 65//65 64//64 66//66
f 65//65 66//66 67//67
f 68//68 67//67 66//66
f 69//69 67//67 68//68
f 69//69 68//68 70//70
f 71//71 69//69 70//70
f 72//72 71//71 73//73
f 74//74 75//75 76//76
f 77//77 74//74 76//76
f 75//75 77//77 76//76
f 78//78 75//75 74//74
f 79//79 75//75 78//78
f 78//78 74//74 80//80
f 81//81 78//78 80//80
f 82//82 78//78 81//81
f 82//82 83//83 78//78
f 83//83 84//84 79//79
f 84//84 85//85 79//79
f 80//80 74//74 86//86
f 87//87 80//80 86//86
f 81//81 80//80 87//87
f 86//86 74//74 88//88
f 88//88 74//74 77//77
f 86//86 88//88 89//89
f 90//90 86//86 89//89
f 87//87 86//86 90//90
f 75//75 91//91 77//77
f 90//90 89//89 92//92
f 90//90 92//92 93//93
f 94//94 90//90 93//93
f 95//95 83//83 82//82
f 95//95 82//82 81//81
f 95//95 81//81 87//87
f 95//95 87//87 90//90
f 95//95 96//96 83//83
f 97//97 91//91 75//75
f 97//97 98//98 91//91
f 97//97 99//99 98//98
f 100//100 95//95 101//101
f 102//102 103//103 104//104
f 102//102 104//104 105//105
f 102//102 105//105 106//106
f 106//106 105//105 107//107
f 108//108 102//102 106//106
f 109//109 102//102 108//108
f 110//110 108//108 106//106
f 111//111 112//112 113//113
f 111//111 113//113 114//114
f 111//111 114//114 115//115
f 111//111 115//115 116//116
f 111//111 116//116 117//117
f 117//117 118//118 111//111
f 118//118 119//119 111//111
f 120//120 111//111 119//119
f 120//120 121//121 111//111
f 121//121 122//122 111//111
f 111//111 122//122 123//123
f 114//114 113//113 124//124
f 124//124 113//113 125//125
f 125//125 113//113 126//126
f 126//126 113//113 127//127
f 127//127 113//113 128//128
f 128//128 113//113 129//129
f 129//129 113//113 130//130
f 130//130 113//113 131//131
f 131//131 113//113 132//132
f 132//132 113//113 133//133
f 133//133 113//113 134//134
f 133//133 134//134 135//135
f 135//135 134//134 136//136
f 134//134 137//137 136//136
f 137//137 134//134 138//138
f 138//138 134//134 139//139
f 139//139 134//134 140//140
f 140//140 134//134 141//141
f 134//134 142//142 141//141
f 134//134 143//143 142//142
f 134//134 144//144 143//143
f 144//144 134//134 145//145
f 145//145 134//134 146//146
f 147//147 134//134 148//148
f 149//149 150//150 151//151
f 149//149 152//152 150//150
f 151//151 150//150 153//153
f 151//151 153//153 154//154
f 154//154 153//153 155//155
f 154//154 155//155 156//156
f 152//152 157//157 150//150
f 158//158 159//159 160//160
f 161//161 159//159 158//158
f 162//162 159//159 161//161
f 163//163 162//162 161//161
f 164//164 162//162 163//163
f 165//165 162//162 164//164
f 9//9 166//166 8//8
f 166//166 9//9 167//167
f 168//168 169//169 170//170
f 168//168 171//171 169//169
f 172//172 169//169 173//173
f 174//174 169//169 172//172
f 169//169 174//174 175//175
f 176//176 169//169 175//175
f 177//177 169//169 176//176
f 178//178 169//169 177//177
f 178//178 179//179 169//169
f 179//179 180//180 169//169
f 180//180 181//181 169//169
f 182//182 181//181 180//180
f 182//182 183//183 181//181
f 183//183 184//184 181//181
f 184//184 185//185 181//181
f 185//185 186//186 181//181
f 186//186 187//187 181//181
f 187//187 188//188 181//181
f 188//188 189//189 181//181
f 181//181 189//189 190//190
f 181//181 190//190 191//191
f 192//192 181//181 191//191
f 193//193 181//181 192//192
f 194//194 181//181 193//193
f 195//195 181//181 194//194
f 195//195 196//196 181//181
f 196//196 197//197 198//198
f 196//196 198//198 199//199
f 199//199 200//200 196//196
f 196//196 200//200 201//201
f 201//201 202//202 196//196
f 196//196 202//202 203//203
f 196//196 203//203 204//204
f 205//205 196//196 206//206
f 207//207 196//196 205//205
