v 9.999985 -6.927213 92.78793
v 50.00002 -6.927217 92.78793
v 9.999985 -6.927213 92.78793
v 9.999985 -6.927212 92.78793
v 9.999985 -4.453208 95.36367
v 9.999985 -3.463606 96.39397
v 9.999985 -3.463606 96.39397
v 50.00002 -3.46361 96.39397
v 90.00006 -3.463612 96.39397
v 9.999985 -3.562583 96.61993
v 90.00006 -4.354407 98.42767
v 9.999985 -3.574883 96.64801
v 90.00006 -4.465099 98.68039
v 9.999985 -3.578336 96.6559
v 90.00006 -4.496178 98.75134
v 9.999985 -3.617145 96.7445
v 90.00006 -4.845457 99.54876
v 9.999985 -4.095626 97.83688
v 90.00006 -4.898622 99.67014
v 9.999985 -4.549287 98.8726
v 9.999985 -4.601476 98.99175
v 90.00006 -4.954826 99.79845
v 9.999985 -4.710328 99.24026
v 90.00006 -4.96692 99.82607
v 9.999985 -4.998991 99.89928
v 90.00006 -4.998995 99.89929
v 9.999985 -4.924897 100.0889
v 90.00006 -4.591006 100.9433
v 90.00006 -4.33216 101.6056
v 9.999985 -4.906513 100.1359
v 90.00006 -4.166709 102.0289
v 9.999985 -4.901042 100.1499
v 90.00006 -4.117471 102.1549
v 9.999985 -4.859694 100.2557
v 90.00006 -3.745332 103.1072
v 9.999985 -4.385314 101.4696
v 90.00006 -3.692623 103.2421
v 9.999985 -3.993402 102.4724
v 90.00006 -3.649078 103.3535
v 9.999985 -3.60603 103.4636
v 90.00006 -3.606036 103.4636
v 9.999985 -3.49786 103.511
v 90.00006 -2.632507 103.89
v 9.999985 -3.255498 103.6171
v 90.00006 -0.4512453 104.8455
v 9.999985 -2.579345 103.9133
v 9.999985 -2.30894 104.0317
v 90.00006 -0.3460716 104.8915
v 9.999985 -1.386904 104.4356
v 90.00006 -0.2436251 104.9364
v 9.999981 -0.6277059 104.7682
v 90.00006 -0.1592673 104.9733
v 9.999981 -0.100709 104.999
v 90.00006 -0.1007145 104.999
v 90.00006 -0.1007132 104.999
v 9.999981 0.1111294 104.9162
v 90.00006 1.805833 104.2539
v 9.999981 0.1734823 104.8918
v 90.00006 2.367002 104.0346
v 9.999981 0.1798481 104.8893
v 90.00006 2.42429 104.0122
v 9.999981 0.1827993 104.8882
v 90.00006 2.450857 104.0018
v 9.999981 0.1865305 104.8867
v 90.00006 2.484432 103.9887
v 9.999981 0.2557225 104.8597
v 90.00006 3.10717 103.7453
v 9.999981 3.463604 103.606
v 90.00006 3.463603 103.606
v 9.999981 3.463608 103.606
v 90.00006 3.463603 103.606
v 9.999981 3.463608 103.606
v 9.999981 3.463608 103.606
v 9.999981 4.45321 104.6363
v 9.999981 6.927215 107.2121
v 9.999981 6.927215 107.2121
v 9.999981 6.927214 107.2121
v 9.999981 3.463608 103.606
v 9.999981 3.463608 103.606
v 9.999981 3.463608 103.606
v 90.00006 3.463603 103.606
v 90.00006 3.463603 103.606
v 90.00006 3.463603 103.606
v 9.999981 3.463608 103.606
v 9.999981 -0.2014181 109.998
v 9.999981 3.463608 103.606
v 90.00006 3.463603 103.606
v 9.999981 3.463608 103.606
v 50.00002 3.463605 103.606
v 90.00006 3.463603 103.606
v 50.00002 6.927211 107.2121
v 90.00002 3.463603 103.606
v 90.00006 3.463603 103.606
v 90.00006 4.453204 104.6363
v 90.00005 -0.2014234 109.998
v 90.00006 3.463603 103.606
v 9.999981 -0.2014181 109.998
v 90.00006 6.927208 107.2121
v 90.00005 -0.2014234 109.998
v 90.00006 -0.1007132 104.999
v 90.00006 -0.1007145 104.999
v 50.00002 -6.927217 92.78793
v 9.999985 -6.927213 92.78793
v 9.999985 -6.927212 92.78793
v 9.999985 -4.453208 95.36367
v 50.00002 -3.46361 96.39397
v 9.999985 -3.463606 96.39397
v 90.00006 -4.898285 94.9003
v 90.00006 -6.927219 92.78793
v 90.00006 -3.463612 96.39397
v 9.999985 -6.927213 92.78793
v 9.999985 -9.997979 99.79858
v 9.999985 -7.212063 106.9272
v 9.999985 -4.998991 99.89928
v 9.999985 -4.710328 99.24026
v 9.999985 -4.601476 98.99175
v 9.999985 -4.549287 98.8726
v 9.999985 -4.095626 97.83688
v 9.999985 -3.617145 96.7445
v 9.999985 -3.578336 96.6559
v 9.999985 -3.574883 96.64801
v 9.999985 -3.562583 96.61993
v 9.999985 -3.463606 96.39397
v 9.999985 -4.924897 100.0889
v 9.999985 -4.906513 100.1359
v 9.999985 -4.901042 100.1499
v 9.999985 -4.859694 100.2557
v 9.999985 -4.385314 101.4696
v 9.999985 -3.993402 102.4724
v 9.999985 -3.60603 103.4636
v 9.999985 -3.49786 103.511
v 9.999985 -3.255498 103.6171
v 9.999985 -2.579345 103.9133
v 9.999981 -0.2014181 109.998
v 9.999985 -2.30894 104.0317
v 9.999985 -1.386904 104.4356
v 9.999981 -0.6277059 104.7682
v 9.999981 -0.100709 104.999
v 9.999981 0.1111294 104.9162
v 9.999981 0.1734823 104.8918
v 9.999981 0.1798481 104.8893
v 9.999981 0.1827993 104.8882
v 9.999981 0.1865305 104.8867
v 9.999981 0.2557225 104.8597
v 9.999981 3.463604 103.606
v 9.999981 3.463608 103.606
v 9.999981 3.463608 103.606
v 9.999981 6.927215 107.2121
v 9.999985 -6.927213 92.78793
v 90.00005 -9.997985 99.79858
v 9.999985 -9.997979 99.79858
v 50.00002 -6.927217 92.78793
v 90.00005 -7.212067 106.9272
v 9.999985 -7.212063 106.9272
v 90.00005 -0.2014234 109.998
v 9.999981 -0.2014181 109.998
v 90.00006 -6.927219 92.78793
v 9.999981 6.927214 107.2121
v 50.00002 3.463605 103.606
v 9.999981 3.463608 103.606
v 50.00002 6.927211 107.2121
v 90.00002 3.463603 103.606
v 90.00006 6.927208 107.2121
v 90.00006 4.453204 104.6363
v 90.00006 3.463603 103.606
v 90.00006 -3.463612 96.39397
v 90.00005 -9.997985 99.79858
v 90.00006 -4.898285 94.9003
v 90.00005 -9.997985 99.79858
v 90.00006 -6.927219 92.78793
v 90.00006 -3.463612 96.39397
v 90.00006 -4.354407 98.42767
v 90.00006 -3.463612 96.39397
v 90.00006 -4.465099 98.68039
v 90.00006 -4.496178 98.75134
v 90.00006 -4.845457 99.54876
v 90.00006 -4.898622 99.67014
v 90.00006 -4.954826 99.79845
v 90.00006 -4.96692 99.82607
v 90.00006 -4.998995 99.89929
v 90.00005 -7.212067 106.9272
v 90.00006 -4.591006 100.9433
v 90.00006 -4.33216 101.6056
v 90.00006 -4.166709 102.0289
v 90.00006 -4.117471 102.1549
v 90.00006 -3.745332 103.1072
v 90.00006 -3.692623 103.2421
v 90.00006 -3.649078 103.3535
v 90.00006 -3.606036 103.4636
v 90.00006 -2.632507 103.89
v 90.00006 -0.4512453 104.8455
v 90.00006 -0.3460716 104.8915
v 90.00006 -0.2436251 104.9364
v 90.00006 -0.1592673 104.9733
v 90.00006 -0.1007145 104.999
v 90.00005 -0.2014234 109.998
v 90.00006 -0.1007132 104.999
v 90.00006 1.805833 104.2539
v 90.00006 2.367002 104.0346
v 90.00006 2.42429 104.0122
v 90.00006 2.450857 104.0018
v 90.00006 2.484432 103.9887
v 90.00006 3.10717 103.7453
v 90.00006 3.463603 103.606
v 90.00006 4.453204 104.6363
v 90.00006 3.463603 103.606
v 90.00006 6.927208 107.2121

vn -4.893537E-07 -0.6927209 -0.7212058
vn -3.36766E-07 -0.6927209 -0.7212058
vn -0.6507913 -0.5259529 -0.5475803
vn -1 0 -4.470348E-08
vn -1 0 -4.470348E-08
vn 2.332328E-08 0.9159862 0.40121
vn -0.141421 0.6857588 0.7139574
vn 1.77697E-07 0.865173 -0.5014734
vn 3.011381E-07 0.9159843 0.4012142
vn 2.600165E-07 0.915984 0.401215
vn 2.987586E-07 0.9159841 0.4012147
vn 3.823423E-07 0.9159846 0.4012137
vn 4.408546E-07 0.9159849 0.4012127
vn -1.508613E-07 0.9159826 0.4012181
vn 1.367017E-07 0.9159837 0.4012155
vn 1.847698E-07 0.9159839 0.401215
vn 1.67621E-07 0.915984 0.4012152
vn 1.664582E-07 0.9159839 0.4012152
vn 1.804202E-07 0.915984 0.401215
vn 1.996149E-07 0.9159839 0.4012153
vn 1.938282E-07 0.9159843 0.4012142
vn 2.36515E-07 0.9159849 0.4012128
vn 1.260252E-07 0.915984 0.4012147
vn 1.398413E-07 0.9159837 0.4012156
vn 1.457268E-07 0.9660208 0.2584646
vn 1.900106E-07 0.945508 -0.3255987
vn 2.467474E-07 0.9313993 -0.3639992
vn 2.07259E-07 0.9313995 -0.3639984
vn 1.875601E-07 0.9313996 -0.3639982
vn 3.423702E-08 0.9314005 -0.3639962
vn -5.021879E-08 0.9314009 -0.363995
vn -2.664605E-07 0.9314015 -0.3639934
vn 1.471466E-10 0.9314005 -0.3639961
vn 1.783807E-07 0.9314 -0.3639971
vn 2.374839E-07 0.9313999 -0.3639977
vn 2.962204E-07 0.9313998 -0.3639978
vn 1.976444E-07 0.9314002 -0.3639967
vn 2.183014E-07 0.9314001 -0.3639973
vn 2.59132E-07 0.9313995 -0.3639985
vn 2.706751E-07 0.9054224 -0.4245119
vn 1.34324E-07 0.4607749 -0.8875172
vn 9.579724E-08 0.4012158 -0.9159836
vn 1.232425E-07 0.4012149 -0.915984
vn 1.639307E-07 0.4012142 -0.9159843
vn 1.354543E-07 0.4012142 -0.9159843
vn 1.177001E-07 0.4012146 -0.915984
vn -8.4742E-09 0.4012151 -0.9159839
vn 6.099135E-08 0.4012147 -0.9159841
vn 3.853362E-08 0.4012151 -0.915984
vn 3.101616E-08 0.4012147 -0.915984
vn 2.407851E-08 0.4012148 -0.9159841
vn 1.539373E-08 0.4012151 -0.9159839
vn -4.077267E-08 0.2128383 -0.9770875
vn 1.335673E-08 0.4012365 -0.9159746
vn -1.090544E-07 -0.3639967 -0.9314003
vn -6.402375E-08 -0.3639979 -0.9313997
vn -2.715954E-08 -0.3639984 -0.9313997
vn 8.078552E-08 -0.3639995 -0.9313992
vn -1.204071E-07 -0.3639976 -0.9314
vn -4.087962E-07 -0.3639961 -0.9314007
vn -6.8778E-07 -0.3639935 -0.9314015
vn -6.303664E-06 -0.3639514 -0.931418
vn -2.720923E-06 -0.3639778 -0.9314077
vn 6.324341E-07 -0.3640044 -0.9313973
vn 2.431602E-07 -0.3640005 -0.9313989
vn -9.444891E-08 -0.3639978 -0.9313998
vn -1.200499E-07 -0.3639973 -0.9314
vn -1.198306E-07 -0.363997 -0.9314002
vn -4.985022E-08 -0.3639923 -0.931402
vn -5.520349E-08 -0.2028289 -0.9792143
vn -1.460312E-07 -0.6927209 -0.7212058
vn -1.460312E-07 -0.6927209 -0.7212058
vn -1.460312E-07 -0.6927209 -0.7212058
vn -1 0 -4.470348E-08
vn 2.523135E-07 0.3639976 0.9313999
vn -1 0 -4.470348E-08
vn 1.619645E-07 0.8051156 -0.593118
vn -0.7603924 -0.4498972 -0.4683971
vn -0.8262195 -0.3902432 -0.4062901
vn -0.07104915 -0.6909703 -0.7193832
vn -1.460315E-07 -0.6927209 -0.7212058
vn -1.460312E-07 -0.6927209 -0.7212058
vn -1.460309E-07 -0.6927209 -0.7212058
vn -0.1030028 -0.6890364 -0.7173697
vn -1 0 -4.470348E-08
vn -0.01266332 -0.6926613 -0.7211519
vn -1.460322E-07 -0.6927209 -0.7212058
vn -0.1414215 -0.6857587 -0.7139573
vn -1.460323E-07 -0.6927257 -0.7212012
vn 0.06004165 -0.6914757 -0.7199003
vn 1.819886E-07 0.3639976 0.9313999
vn -1.460341E-07 -0.692738 -0.7211894
vn 1 -4.809392E-06 -4.962452E-06
vn 1 0 4.470348E-08
vn 1 -3.112605E-07 3.436704E-07
vn 0 0 0
vn 1.717978E-07 0.3639975 0.9314
vn 1.365025E-07 0.3639976 0.9314
vn 1.616071E-07 0.3639976 0.9314001
vn 1 -3.112605E-07 3.436704E-07
vn 1 -3.112605E-07 3.436704E-07
vn 1.192093E-07 0.7212057 -0.6927209
vn 1.192092E-07 0.7212057 -0.6927209
vn 1.192093E-07 0.7212057 -0.6927209
vn 1.192093E-07 0.7212057 -0.6927209
vn 1.192093E-07 0.7212057 -0.6927209
vn 1.192093E-07 0.7212057 -0.6927209
vn 1.192093E-07 0.7212057 -0.6927209
vn 1.192093E-07 0.7212057 -0.6927209
vn 1.192093E-07 0.7212057 -0.6927209
vn -1 0 -4.470348E-08
vn -1 0 -4.470348E-08
vn -1 0 -4.470348E-08
vn -1 0 -4.470348E-08
vn -1 0 -4.470348E-08
vn -1 0 -4.470348E-08
vn -1 0 -4.470348E-08
vn -1 0 -4.470348E-08
vn -1 0 -4.470348E-08
vn -1 0 -4.470348E-08
vn -1 0 -4.470348E-08
vn -1 0 -4.470348E-08
vn -1 0 -4.470348E-08
vn -1 0 -4.470348E-08
vn -1 0 -4.470348E-08
vn -1 0 -4.470348E-08
vn -1 0 -4.470348E-08
vn -1 0 -4.470348E-08
vn -1 0 -4.470348E-08
vn -1 0 -4.470348E-08
vn -1 0 -4.470348E-08
vn -1 0 -4.470348E-08
vn -1 0 -4.470348E-08
vn -1 0 -4.470348E-08
vn -1 0 -4.470348E-08
vn -1 0 -4.470348E-08
vn -1 0 -4.470348E-08
vn -1 0 -4.470348E-08
vn -1 0 -4.470348E-08
vn -1 0 -4.470348E-08
vn -1 0 -4.470348E-08
vn -1 0 -4.470348E-08
vn -1 0 -4.470348E-08
vn -1 0 -4.470348E-08
vn -1 0 -4.470348E-08
vn -1 0 -4.470348E-08
vn -1 0 -4.470348E-08
vn -1 0 -4.470348E-08
vn -3.014884E-07 -0.9159842 -0.4012147
vn -2.736054E-07 -0.9876465 -0.1566985
vn -2.349504E-07 -0.9931562 0.1167935
vn -2.824374E-07 -0.915984 -0.4012145
vn -1.469976E-07 -0.8091741 0.5875691
vn -7.969773E-08 -0.6196822 0.7848529
vn -2.435267E-08 -0.4012146 0.9159841
vn -1.710727E-08 -0.4012146 0.9159841
vn -2.157778E-07 -0.915984 -0.4012147
vn 1.192093E-07 0.7212057 -0.6927209
vn 1.192093E-07 0.7212057 -0.6927209
vn 1.192093E-07 0.7212057 -0.6927209
vn 1.192093E-07 0.7212058 -0.6927209
vn 1.192093E-07 0.7212058 -0.6927209
vn 1.192093E-07 0.7212058 -0.6927209
vn 1.283792E-07 0.7212057 -0.6927209
vn 1.283792E-07 0.7212057 -0.6927209
vn 0.2028032 0.6783258 0.7062188
vn 1 -5.103682E-07 -4.866512E-07
vn 1 -1.556302E-07 1.941869E-07
vn 1 -2.458295E-07 1.260852E-07
vn 1 -1.556302E-07 1.941869E-07
vn 1 -1.556302E-07 1.941869E-07
vn 1 -3.025676E-07 -8.782548E-08
vn 1 -3.025676E-07 -8.782565E-08
vn 1 -3.025675E-07 -8.782497E-08
vn 1 -3.025676E-07 -8.782583E-08
vn 1 -3.025676E-07 -8.782591E-08
vn 1 -3.025676E-07 -8.782527E-08
vn 1 -3.025676E-07 -8.7823E-08
vn 1 -3.025675E-07 -8.782833E-08
vn 1 -3.076138E-07 1.626569E-07
vn 1 -2.200945E-07 2.561051E-07
vn 1 -3.076593E-07 1.649392E-07
vn 1 -3.076597E-07 1.649389E-07
vn 1 -3.076604E-07 1.649386E-07
vn 1 -3.0766E-07 1.649388E-07
vn 1 -3.0766E-07 1.649389E-07
vn 1 -3.076599E-07 1.649389E-07
vn 1 -3.076595E-07 1.649394E-07
vn 1 -1.500628E-07 3.290163E-07
vn 1 -1.325291E-07 3.472712E-07
vn 1 -1.32529E-07 3.472713E-07
vn 1 -1.325292E-07 3.472706E-07
vn 1 -1.325287E-07 3.472723E-07
vn 1 -1.325289E-07 3.472714E-07
vn 1 -1.325291E-07 3.472711E-07
vn 1 -9.12166E-08 2.870559E-07
vn 1 1.202356E-07 3.523634E-07
vn 1 1.202358E-07 3.523635E-07
vn 1 1.202362E-07 3.523636E-07
vn 1 1.202295E-07 3.523607E-07
vn 1 1.202368E-07 3.52364E-07
vn 1 1.202364E-07 3.523637E-07
vn 1 1.20235E-07 3.52363E-07
vn 1 1.202339E-07 3.523624E-07
vn 1 -1.556302E-07 1.941869E-07
vn 1 -1.556302E-07 1.94187E-07
vn 1 -1.556302E-07 1.941869E-07

f 1//1 2//2 3//3
f 4//4 1//1 3//3
f 3//3 5//5 4//4
f 3//3 6//6 5//5
f 5//5 6//6 7//7
f 8//8 7//7 6//6
f 9//9 8//8 6//6
f 10//10 9//9 6//6
f 9//9 10//10 11//11
f 11//11 10//10 12//12
f 13//13 11//11 12//12
f 13//13 12//12 14//14
f 13//13 14//14 15//15
f 15//15 14//14 16//16
f 15//15 16//16 17//17
f 18//18 17//17 16//16
f 19//19 17//17 18//18
f 19//19 18//18 20//20
f 21//21 19//19 20//20
f 22//22 19//19 21//21
f 22//22 21//21 23//23
f 24//24 22//22 23//23
f 24//24 23//23 25//25
f 26//26 24//24 25//25
f 26//26 25//25 27//27
f 28//28 26//26 27//27
f 28//28 27//27 29//29
f 29//29 27//27 30//30
f 31//31 29//29 30//30
f 31//31 30//30 32//32
f 33//33 31//31 32//32
f 33//33 32//32 34//34
f 35//35 33//33 34//34
f 35//35 34//34 36//36
f 37//37 35//35 36//36
f 37//37 36//36 38//38
f 39//39 37//37 38//38
f 39//39 38//38 40//40
f 41//41 39//39 40//40
f 41//41 40//40 42//42
f 41//41 42//42 43//43
f 43//43 42//42 44//44
f 45//45 43//43 44//44
f 45//45 44//44 46//46
f 47//47 45//45 46//46
f 48//48 45//45 47//47
f 48//48 47//47 49//49
f 50//50 48//48 49//49
f 50//50 49//49 51//51
f 52//52 50//50 51//51
f 52//52 51//51 53//53
f 54//54 52//52 53//53
f 55//55 54//54 53//53
f 55//55 53//53 56//56
f 55//55 56//56 57//57
f 57//57 56//56 58//58
f 57//57 58//58 59//59
f 59//59 58//58 60//60
f 59//59 60//60 61//61
f 61//61 60//60 62//62
f 61//61 62//62 63//63
f 63//63 62//62 64//64
f 63//63 64//64 65//65
f 65//65 64//64 66//66
f 65//65 66//66 67//67
f 68//68 67//67 66//66
f 69//69 67//67 68//68
f 69//69 68//68 70//70
f 71//71 69//69 70//70
f 72//72 71//71 73//73
f 74//74 75//75 76//76
f 77//77 74//74 76//76
f 75//75 77//77 76//76
f 78//78 75//75 74//74
f 79//79 75//75 78//78
f 78//78 74//74 80//80
f 81//81 78//78 80//80
f 82//82 78//78 81//81
f 82//82 83//83 78//78
f 83//83 84//84 79//79
f 84//84 85//85 79//79
f 80//80 74//74 86//86
f 87//87 80//80 86//86
f 81//81 80//80 87//87
f 86//86 74//74 88//88
f 88//88 74//74 77//77
f 86//86 88//88 89//89
f 90//90 86//86 89//89
f 87//87 86//86 90//90
f 75//75 91//91 77//77
f 90//90 89//89 92//92
f 90//90 92//92 93//93
f 94//94 90//90 93//93
f 95//95 83//83 82//82
f 95//95 82//82 81//81
f 95//95 81//81 87//87
f 95//95 87//87 90//90
f 95//95 96//96 83//83
f 97//97 91//91 75//75
f 97//97 98//98 91//91
f 97//97 99//99 98//98
f 100//100 95//95 101//101
f 102//102 103//103 104//104
f 102//102 104//104 105//105
f 102//102 105//105 106//106
f 106//106 105//105 107//107
f 108//108 102//102 106//106
f 109//109 102//102 108//108
f 110//110 108//108 106//106
f 111//111 112//112 113//113
f 111//111 113//113 114//114
f 111//111 114//114 115//115
f 111//111 115//115 116//116
f 111//111 116//116 117//117
f 117//117 118//118 111//111
f 118//118 119//119 111//111
f 120//120 111//111 119//119
f 120//120 121//121 111//111
f 121//121 122//122 111//111
f 111//111 122//122 123//123
f 114//114 113//113 124//124
f 124//124 113//113 125//125
f 125//125 113//113 126//126
f 126//126 113//113 127//127
f 127//127 113//113 128//128
f 128//128 113//113 129//129
f 129//129 113//113 130//130
f 130//130 113//113 131//131
f 131//131 113//113 132//132
f 132//132 113//113 133//133
f 133//133 113//113 134//134
f 133//133 134//134 135//135
f 135//135 134//134 136//136
f 134//134 137//137 136//136
f 137//137 134//134 138//138
f 138//138 134//134 139//139
f 139//139 134//134 140//140
f 140//140 134//134 141//141
f 134//134 142//142 141//141
f 134//134 143//143 142//142
f 134//134 144//144 143//143
f 144//144 134//134 145//145
f 145//145 134//134 146//146
f 147//147 134//134 148//148
f 149//149 150//150 151//151
f 149//149 152//152 150//150
f 151//151 150//150 153//153
f 151//151 153//153 154//154
f 154//154 153//153 155//155
f 154//154 155//155 156//156
f 152//152 157//157 150//150
f 158//158 159//159 160//160
f 161//161 159//159 158//158
f 162//162 159//159 161//161
f 163//163 162//162 161//161
f 164//164 162//162 163//163
f 165//165 162//162 164//164
f 9//9 166//166 8//8
f 166//166 9//9 167//167
f 168//168 169//169 170//170
f 168//168 171//171 169//169
f 172//172 169//169 173//173
f 174//174 169//169 172//172
f 169//169 174//174 175//175
f 176//176 169//169 175//175
f 177//177 169//169 176//176
f 178//178 169//169 177//177
f 178//178 179//179 169//169
f 179//179 180//180 169//169
f 180//180 181//181 169//169
f 182//182 181//181 180//180
f 182//182 183//183 181//181
f 183//183 184//184 181//181
f 184//184 185//185 181//181
f 185//185 186//186 181//181
f 186//186 187//187 181//181
f 187//187 188//188 181//181
f 188//188 189//189 181//181
f 181//181 189//189 190//190
f 181//181 190//190 191//191
f 192//192 181//181 191//191
f 193//193 181//181 192//192
f 194//194 181//181 193//193
f 195//195 181//181 194//194
f 195//195 196//196 181//181
f 196//196 197//197 198//198
f 196//196 198//198 199//199
f 199//199 200//200 196//196
f 196//196 200//200 201//201
f 201//201 202//202 196//196
f 196//196 202//202 203//203
f 196//196 203//203 204//204
f 205//205 196//196 206//206
f 207//207 196//196 205//205
