v 9.999985 7.179804 -106.9606
v 50.00002 7.179807 -106.9606
v 9.999985 7.179803 -106.9606
v 9.999985 7.179802 -106.9606
v 9.999985 4.615588 -104.4747
v 9.999985 3.589901 -103.4803
v 9.999985 3.589902 -103.4803
v 50.00002 3.589905 -103.4803
v 90.00006 3.589907 -103.4803
v 9.999985 3.363477 -103.5782
v 90.00006 1.552082 -104.3617
v 9.999985 3.335341 -103.5904
v 90.00006 1.298854 -104.4712
v 9.999985 3.327441 -103.5938
v 90.00006 1.227758 -104.5019
v 9.999985 3.238661 -103.6322
v 90.00006 0.4287319 -104.8475
v 9.999985 2.144065 -104.1056
v 90.00006 0.3071111 -104.9001
v 9.999985 1.10625 -104.5545
v 9.999985 0.9868603 -104.6061
v 90.00006 0.1785327 -104.9557
v 9.999985 0.7378457 -104.7138
v 90.00006 0.1508646 -104.9677
v 9.999985 0.0774867 -104.9994
v 90.00006 0.07749017 -104.9994
v 9.999985 -0.1117573 -104.9244
v 90.00006 -0.9645678 -104.5866
v 90.00006 -1.625694 -104.3247
v 9.999985 -0.1587107 -104.9058
v 90.00006 -2.04828 -104.1572
v 9.999985 -0.1726843 -104.9003
v 90.00006 -2.174041 -104.1074
v 9.999985 -0.2782941 -104.8585
v 90.00006 -3.124536 -103.7309
v 9.999985 -1.489923 -104.3784
v 90.00006 -3.259161 -103.6775
v 9.999985 -2.490921 -103.9819
v 90.00006 -3.370384 -103.6335
v 9.999985 -3.480319 -103.5899
v 90.00006 -3.480316 -103.5899
v 9.999985 -3.527196 -103.4815
v 90.00006 -3.902211 -102.6144
v 9.999985 -3.632228 -103.2387
v 90.00006 -4.847491 -100.4287
v 9.999985 -3.925248 -102.5611
v 9.999985 -4.042433 -102.2902
v 90.00006 -4.89307 -100.3233
v 9.999985 -4.442011 -101.3663
v 90.00006 -4.937467 -100.2207
v 9.999985 -4.771021 -100.6055
v 90.00006 -4.974023 -100.1362
v 9.999985 -4.999404 -100.0775
v 90.00006 -4.999399 -100.0775
v 90.00006 -4.9994 -100.0775
v 9.999985 -4.915633 -99.86604
v 90.00006 -4.24546 -98.17443
v 9.999985 -4.890975 -99.80379
v 90.00006 -4.023546 -97.61429
v 9.999985 -4.888458 -99.79744
v 90.00006 -4.000892 -97.5571
v 9.999985 -4.88729 -99.79449
v 90.00006 -3.990387 -97.53059
v 9.999985 -4.885816 -99.79077
v 90.00006 -3.977109 -97.49707
v 9.999985 -4.858453 -99.7217
v 90.00006 -3.730848 -96.87547
v 9.999985 -3.589903 -96.51968
v 90.00006 -3.589899 -96.51968
v 9.999985 -3.589902 -96.51968
v 90.00006 -3.589899 -96.51968
v 9.999985 -3.589902 -96.51968
v 9.999985 -3.589902 -96.51968
v 9.999985 -4.615589 -95.5253
v 9.999985 -7.179804 -93.03935
v 9.999985 -7.179804 -93.03935
v 9.999985 -7.179803 -93.03936
v 9.999985 -3.589902 -96.51968
v 9.999985 -3.589902 -96.51968
v 9.999985 -3.589902 -96.51968
v 90.00006 -3.589899 -96.51968
v 90.00006 -3.589899 -96.51968
v 90.00006 -3.589899 -96.51968
v 9.999985 -3.589902 -96.51968
v 9.999985 -9.998806 -100.155
v 9.999985 -3.589902 -96.51968
v 90.00006 -3.589899 -96.51968
v 9.999985 -3.589902 -96.51968
v 50.00002 -3.589901 -96.51968
v 90.00006 -3.589899 -96.51968
v 50.00002 -7.179801 -93.03936
v 90.00002 -3.589899 -96.51968
v 90.00006 -3.589899 -96.51968
v 90.00006 -4.615584 -95.52531
v 90.00005 -9.998802 -100.155
v 90.00006 -3.589899 -96.51968
v 9.999985 -9.998806 -100.155
v 90.00006 -7.1798 -93.03937
v 90.00005 -9.998802 -100.155
v 90.00006 -4.9994 -100.0775
v 90.00006 -4.999399 -100.0775
v 50.00002 7.179807 -106.9606
v 9.999985 7.179804 -106.9606
v 9.999985 7.179802 -106.9606
v 9.999985 4.615588 -104.4747
v 50.00002 3.589905 -103.4803
v 9.999985 3.589902 -103.4803
v 90.00006 5.076893 -104.9219
v 90.00006 7.179809 -106.9606
v 90.00006 3.589907 -103.4803
v 9.999985 7.179803 -106.9606
v 9.999985 0.1549712 -109.9988
v 9.999985 -6.960641 -107.1798
v 9.999985 0.0774867 -104.9994
v 9.999985 0.7378457 -104.7138
v 9.999985 0.9868603 -104.6061
v 9.999985 1.10625 -104.5545
v 9.999985 2.144065 -104.1056
v 9.999985 3.238661 -103.6322
v 9.999985 3.327441 -103.5938
v 9.999985 3.335341 -103.5904
v 9.999985 3.363477 -103.5782
v 9.999985 3.589901 -103.4803
v 9.999985 -0.1117573 -104.9244
v 9.999985 -0.1587107 -104.9058
v 9.999985 -0.1726843 -104.9003
v 9.999985 -0.2782941 -104.8585
v 9.999985 -1.489923 -104.3784
v 9.999985 -2.490921 -103.9819
v 9.999985 -3.480319 -103.5899
v 9.999985 -3.527196 -103.4815
v 9.999985 -3.632228 -103.2387
v 9.999985 -3.925248 -102.5611
v 9.999985 -9.998806 -100.155
v 9.999985 -4.042433 -102.2902
v 9.999985 -4.442011 -101.3663
v 9.999985 -4.771021 -100.6055
v 9.999985 -4.999404 -100.0775
v 9.999985 -4.915633 -99.86604
v 9.999985 -4.890975 -99.80379
v 9.999985 -4.888458 -99.79744
v 9.999985 -4.88729 -99.79449
v 9.999985 -4.885816 -99.79077
v 9.999985 -4.858453 -99.7217
v 9.999985 -3.589903 -96.51968
v 9.999985 -3.589902 -96.51968
v 9.999985 -3.589902 -96.51968
v 9.999985 -7.179804 -93.03935
v 9.999985 7.179803 -106.9606
v 90.00005 0.1549764 -109.9988
v 9.999985 0.1549712 -109.9988
v 50.00002 7.179807 -106.9606
v 90.00005 -6.960636 -107.1798
v 9.999985 -6.960641 -107.1798
v 90.00005 -9.998802 -100.155
v 9.999985 -9.998806 -100.155
v 90.00006 7.179809 -106.9606
v 9.999985 -7.179803 -93.03936
v 50.00002 -3.589901 -96.51968
v 9.999985 -3.589902 -96.51968
v 50.00002 -7.179801 -93.03936
v 90.00002 -3.589899 -96.51968
v 90.00006 -7.1798 -93.03937
v 90.00006 -4.615584 -95.52531
v 90.00006 -3.589899 -96.51968
v 90.00006 3.589907 -103.4803
v 90.00005 0.1549764 -109.9988
v 90.00006 5.076893 -104.9219
v 90.00005 0.1549764 -109.9988
v 90.00006 7.179809 -106.9606
v 90.00006 3.589907 -103.4803
v 90.00006 1.552082 -104.3617
v 90.00006 3.589907 -103.4803
v 90.00006 1.298854 -104.4712
v 90.00006 1.227758 -104.5019
v 90.00006 0.4287319 -104.8475
v 90.00006 0.3071111 -104.9001
v 90.00006 0.1785327 -104.9557
v 90.00006 0.1508646 -104.9677
v 90.00006 0.07749017 -104.9994
v 90.00005 -6.960636 -107.1798
v 90.00006 -0.9645678 -104.5866
v 90.00006 -1.625694 -104.3247
v 90.00006 -2.04828 -104.1572
v 90.00006 -2.174041 -104.1074
v 90.00006 -3.124536 -103.7309
v 90.00006 -3.259161 -103.6775
v 90.00006 -3.370384 -103.6335
v 90.00006 -3.480316 -103.5899
v 90.00006 -3.902211 -102.6144
v 90.00006 -4.847491 -100.4287
v 90.00006 -4.89307 -100.3233
v 90.00006 -4.937467 -100.2207
v 90.00006 -4.974023 -100.1362
v 90.00006 -4.999399 -100.0775
v 90.00005 -9.998802 -100.155
v 90.00006 -4.9994 -100.0775
v 90.00006 -4.24546 -98.17443
v 90.00006 -4.023546 -97.61429
v 90.00006 -4.000892 -97.5571
v 90.00006 -3.990387 -97.53059
v 90.00006 -3.977109 -97.49707
v 90.00006 -3.730848 -96.87547
v 90.00006 -3.589899 -96.51968
v 90.00006 -4.615584 -95.52531
v 90.00006 -3.589899 -96.51968
v 90.00006 -7.1798 -93.03937

vn -6.08563E-07 0.71798 -0.6960636
vn -4.559752E-07 0.71798 -0.6960636
vn -0.6507914 0.5451311 -0.5284909
vn -1 -2.980232E-08 7.450581E-08
vn -1 -2.980232E-08 7.450581E-08
vn 1.448631E-07 -0.3969505 0.91784
vn -0.1414209 -0.7107641 0.689068
vn 2.349765E-07 0.5054869 0.8628342
vn 4.22678E-07 -0.3969548 0.9178381
vn 3.815564E-07 -0.3969556 0.9178379
vn 4.202984E-07 -0.3969553 0.9178379
vn 5.038822E-07 -0.3969543 0.9178384
vn 5.623944E-07 -0.3969533 0.9178388
vn -2.932134E-08 -0.3969587 0.9178365
vn 2.582416E-07 -0.3969561 0.9178376
vn 3.063097E-07 -0.3969556 0.9178377
vn 2.891609E-07 -0.3969558 0.9178378
vn 2.879981E-07 -0.3969558 0.9178377
vn 3.0196E-07 -0.3969556 0.9178378
vn 3.211548E-07 -0.3969559 0.9178377
vn 3.15368E-07 -0.3969548 0.9178382
vn 3.580549E-07 -0.3969533 0.9178387
vn 2.475651E-07 -0.3969554 0.9178379
vn 2.613812E-07 -0.3969562 0.9178376
vn 2.631483E-07 -0.2539743 0.967211
vn 2.671405E-07 0.3299874 0.9439853
vn 3.199003E-07 0.368322 0.9296983
vn 2.804121E-07 0.3683212 0.9296985
vn 2.607132E-07 0.3683209 0.9296987
vn 1.073903E-07 0.3683189 0.9296996
vn 2.293462E-08 0.3683177 0.9297
vn -1.933069E-07 0.3683161 0.9297006
vn 7.330044E-08 0.3683188 0.9296996
vn 2.515339E-07 0.3683198 0.9296991
vn 3.10637E-07 0.3683204 0.9296989
vn 3.693735E-07 0.3683205 0.9296988
vn 2.707976E-07 0.3683194 0.9296992
vn 2.914545E-07 0.36832 0.9296991
vn 3.32285E-07 0.3683212 0.9296986
vn 3.371713E-07 0.4287133 0.9034406
vn 1.242966E-07 0.889648 0.4566471
vn 7.771177E-08 0.9178374 0.3969565
vn 1.051569E-07 0.9178379 0.3969555
vn 1.45845E-07 0.9178382 0.3969549
vn 1.173686E-07 0.9178381 0.3969549
vn 9.961445E-08 0.9178379 0.3969553
vn -2.655977E-08 0.9178377 0.3969558
vn 4.290573E-08 0.9178379 0.3969554
vn 2.044804E-08 0.9178378 0.3969557
vn 1.293055E-08 0.9178379 0.3969554
vn 5.992892E-09 0.917838 0.3969554
vn -2.691837E-09 0.9178377 0.3969558
vn -8.245494E-08 0.9780656 0.2082972
vn -4.726004E-09 0.9178285 0.3969772
vn -2.077845E-07 0.9296993 -0.3683194
vn -1.62754E-07 0.9296988 -0.3683206
vn -1.258898E-07 0.9296987 -0.368321
vn -1.794482E-08 0.9296982 -0.3683221
vn -2.191373E-07 0.929699 -0.3683202
vn -5.075262E-07 0.9296997 -0.3683188
vn -7.865098E-07 0.9297006 -0.3683162
vn -6.40239E-06 0.9297172 -0.3682741
vn -2.819651E-06 0.9297068 -0.3683005
vn 5.337033E-07 0.9296963 -0.368327
vn 1.444298E-07 0.9296979 -0.3683232
vn -1.931791E-07 0.9296988 -0.3683205
vn -2.1878E-07 0.9296991 -0.3683199
vn -2.185608E-07 0.9296992 -0.3683197
vn -1.4858E-07 0.929701 -0.368315
vn -1.402842E-07 0.9782615 -0.2073754
vn -2.652405E-07 0.71798 -0.6960636
vn -2.652405E-07 0.71798 -0.6960636
vn -2.652405E-07 0.71798 -0.6960636
vn -1 -2.980232E-08 7.450581E-08
vn 3.510437E-07 -0.9296989 0.3683203
vn -1 -2.980232E-08 7.450581E-08
vn 2.070066E-07 0.5968515 0.8023517
vn -0.7603925 0.4663021 -0.4520681
vn -0.8262195 0.4044729 -0.3921263
vn -0.07104927 0.7161656 -0.6943046
vn -2.652408E-07 0.71798 -0.6960636
vn -2.652405E-07 0.71798 -0.6960636
vn -2.652401E-07 0.71798 -0.6960636
vn -0.1030029 0.7141612 -0.6923613
vn -1 -2.980232E-08 7.450581E-08
vn -0.01266344 0.7179265 -0.6960037
vn -2.652415E-07 0.71798 -0.6960636
vn -0.1414216 0.710764 -0.6890678
vn -2.652417E-07 0.7179754 -0.6960684
vn 0.06004153 0.7166804 -0.6948124
vn 2.807188E-07 -0.9296989 0.3683202
vn -2.65244E-07 0.7179636 -0.6960806
vn 1 5.014562E-06 -4.907105E-06
vn 1 2.980232E-08 -7.450581E-08
vn 1 -2.706073E-07 -3.843741E-07
vn 0 0 0
vn 2.70528E-07 -0.929699 0.3683202
vn 2.352327E-07 -0.929699 0.3683202
vn 2.603373E-07 -0.9296991 0.3683203
vn 1 -2.706073E-07 -3.843741E-07
vn 1 -2.706073E-07 -3.843741E-07
vn 1.490116E-07 0.6960637 0.71798
vn 1.490116E-07 0.6960636 0.71798
vn 1.490116E-07 0.6960637 0.71798
vn 1.490116E-07 0.6960637 0.71798
vn 1.490116E-07 0.6960637 0.71798
vn 1.490116E-07 0.6960637 0.71798
vn 1.490116E-07 0.6960637 0.71798
vn 1.490116E-07 0.6960637 0.71798
vn 1.490116E-07 0.6960637 0.71798
vn -1 -2.980232E-08 7.450581E-08
vn -1 -2.980232E-08 7.450581E-08
vn -1 -2.980232E-08 7.450581E-08
vn -1 -2.980232E-08 7.450581E-08
vn -1 -2.980232E-08 7.450581E-08
vn -1 -2.980232E-08 7.450581E-08
vn -1 -2.980232E-08 7.450581E-08
vn -1 -2.980232E-08 7.450581E-08
vn -1 -2.980232E-08 7.450581E-08
vn -1 -2.980232E-08 7.450581E-08
vn -1 -2.980232E-08 7.450581E-08
vn -1 -2.980232E-08 7.450581E-08
vn -1 -2.980232E-08 7.450581E-08
vn -0.9999999 -2.980232E-08 7.45058E-08
vn -1 -2.980232E-08 7.450581E-08
vn -1 -2.980232E-08 7.450581E-08
vn -0.9999999 -2.980232E-08 7.45058E-08
vn -1 -2.980232E-08 7.450581E-08
vn -1 -2.980232E-08 7.450581E-08
vn -1 -2.980232E-08 7.450581E-08
vn -0.9999999 -2.980232E-08 7.45058E-08
vn -1 -2.980232E-08 7.450581E-08
vn -1 -2.980232E-08 7.450581E-08
vn -1 -2.980232E-08 7.450581E-08
vn -1 -2.980232E-08 7.450581E-08
vn -1 -2.980232E-08 7.450581E-08
vn -1 -2.980232E-08 7.450581E-08
vn -1 -2.980232E-08 7.450581E-08
vn -1 -2.980232E-08 7.450581E-08
vn -1 -2.980232E-08 7.450581E-08
vn -1 -2.980232E-08 7.450581E-08
vn -0.9999999 -2.980232E-08 7.45058E-08
vn -1 -2.980232E-08 7.450581E-08
vn -0.9999999 -2.980232E-08 7.45058E-08
vn -0.9999999 -2.980232E-08 7.45058E-08
vn -1 -2.980232E-08 7.450581E-08
vn -0.9999999 -2.980232E-08 7.45058E-08
vn -0.9999999 -2.980232E-08 7.45058E-08
vn -4.230282E-07 0.3969553 -0.917838
vn -3.866292E-07 0.1521088 -0.9883637
vn -3.306805E-07 -0.1214057 -0.9926029
vn -4.039772E-07 0.3969552 -0.9178379
vn -1.928246E-07 -0.5913216 -0.8064359
vn -9.291531E-08 -0.787723 -0.6160296
vn -6.267033E-09 -0.9178379 -0.3969552
vn 9.783632E-10 -0.917838 -0.3969553
vn -3.373177E-07 0.3969553 -0.9178379
vn 1.490116E-07 0.6960637 0.71798
vn 1.490116E-07 0.6960637 0.71798
vn 1.490116E-07 0.6960637 0.71798
vn 1.490116E-07 0.6960636 0.71798
vn 1.490116E-07 0.6960636 0.71798
vn 1.490116E-07 0.6960636 0.7179801
vn 1.581815E-07 0.6960637 0.71798
vn 1.581815E-07 0.6960636 0.71798
vn 0.2028033 -0.7030601 0.6815991
vn 1 5.587805E-07 -5.873368E-07
vn 0.9999999 -1.204024E-07 -2.294399E-07
vn 1 -5.272051E-08 -3.199546E-07
vn 1 -1.204025E-07 -2.2944E-07
vn 1 -1.204025E-07 -2.2944E-07
vn 1 1.609243E-07 -3.776858E-07
vn 1 1.609245E-07 -3.776858E-07
vn 1 1.609238E-07 -3.776856E-07
vn 1 1.609247E-07 -3.776858E-07
vn 1 1.609248E-07 -3.776858E-07
vn 0.9999999 1.609241E-07 -3.776858E-07
vn 1 1.609218E-07 -3.776857E-07
vn 0.9999999 1.609272E-07 -3.776857E-07
vn 1 -8.957878E-08 -3.815683E-07
vn 1 -1.826194E-07 -2.936159E-07
vn 1 -9.186126E-08 -3.816032E-07
vn 1 -9.186098E-08 -3.816037E-07
vn 1 -9.186066E-08 -3.816044E-07
vn 1 -9.186088E-08 -3.81604E-07
vn 1 -9.186091E-08 -3.816039E-07
vn 1 -9.1861E-08 -3.816038E-07
vn 1 -9.186144E-08 -3.816034E-07
vn 1 -2.552045E-07 -2.232463E-07
vn 1 -2.733777E-07 -2.05628E-07
vn 1 -2.733779E-07 -2.056279E-07
vn 1 -2.733771E-07 -2.056281E-07
vn 1 -2.733789E-07 -2.056276E-07
vn 1 -2.73378E-07 -2.056278E-07
vn 1 -2.733776E-07 -2.05628E-07
vn 1 -2.129712E-07 -1.645956E-07
vn 1 -2.772957E-07 4.71577E-08
vn 1 -2.772958E-07 4.715789E-08
vn 1 -2.772959E-07 4.715824E-08
vn 1 -2.77293E-07 4.715152E-08
vn 1 -2.772963E-07 4.715891E-08
vn 1 -2.77296E-07 4.715842E-08
vn 1 -2.772953E-07 4.715705E-08
vn 0.9999999 -2.772947E-07 4.715599E-08
vn 1 -1.204025E-07 -2.2944E-07
vn 1 -1.204025E-07 -2.2944E-07
vn 0.9999999 -1.204025E-07 -2.2944E-07

f 1//1 2//2 3//3
f 4//4 1//1 3//3
f 3//3 5//5 4//4
f 3//3 6//6 5//5
f 5//5 6//6 7//7
f 8//8 7//7 6//6
f 9//9 8//8 6//6
f 10//10 9//9 6//6
f 9//9 10//10 11//11
f 11//11 10//10 12//12
f 13//13 11//11 12//12
f 13//13 12//12 14//14
f 13//13 14//14 15//15
f 15//15 14//14 16//16
f 15//15 16//16 17//17
f 18//18 17//17 16//16
f 19//19 17//17 18//18
f 19//19 18//18 20//20
f 21//21 19//19 20//20
f 22//22 19//19 21//21
f 22//22 21//21 23//23
f 24//24 22//22 23//23
f 24//24 23//23 25//25
f 26//26 24//24 25//25
f 26//26 25//25 27//27
f 28//28 26//26 27//27
f 28//28 27//27 29//29
f 29//29 27//27 30//30
f 31//31 29//29 30//30
f 31//31 30//30 32//32
f 33//33 31//31 32//32
f 33//33 32//32 34//34
f 35//35 33//33 34//34
f 35//35 34//34 36//36
f 37//37 35//35 36//36
f 37//37 36//36 38//38
f 39//39 37//37 38//38
f 39//39 38//38 40//40
f 41//41 39//39 40//40
f 41//41 40//40 42//42
f 41//41 42//42 43//43
f 43//43 42//42 44//44
f 45//45 43//43 44//44
f 45//45 44//44 46//46
f 47//47 45//45 46//46
f 48//48 45//45 47//47
f 48//48 47//47 49//49
f 50//50 48//48 49//49
f 50//50 49//49 51//51
f 52//52 50//50 51//51
f 52//52 51//51 53//53
f 54//54 52//52 53//53
f 55//55 54//54 53//53
f 55//55 53//53 56//56
f 55//55 56//56 57//57
f 57//57 56//56 58//58
f 57//57 58//58 59//59
f 59//59 58//58 60//60
f 59//59 60//60 61//61
f 61//61 60//60 62//62
f 61//61 62//62 63//63
f 63//63 62//62 64//64
f 63//63 64//64 65//65
f 65//65 64//64 66//66
f 65//65 66//66 67//67
f 68//68 67//67 66//66
f 69//69 67//67 68//68
f 69//69 68//68 70//70
f 71//71 69//69 70//70
f 72//72 71//71 73//73
f 74//74 75//75 76//76
f 77//77 74//74 76//76
f 75//75 77//77 76//76
f 78//78 75//75 74//74
f 79//79 75//75 78//78
f 78//78 74//74 80//80
f 81//81 78//78 80//80
f 82//82 78//78 81//81
f 82//82 83//83 78//78
f 83//83 84//84 79//79
f 84//84 85//85 79//79
f 80//80 74//74 86//86
f 87//87 80//80 86//86
f 81//81 80//80 87//87
f 86//86 74//74 88//88
f 88//88 74//74 77//77
f 86//86 88//88 89//89
f 90//90 86//86 89//89
f 87//87 86//86 90//90
f 75//75 91//91 77//77
f 90//90 89//89 92//92
f 90//90 92//92 93//93
f 94//94 90//90 93//93
f 95//95 83//83 82//82
f 95//95 82//82 81//81
f 95//95 81//81 87//87
f 95//95 87//87 90//90
f 95//95 96//96 83//83
f 97//97 91//91 75//75
f 97//97 98//98 91//91
f 97//97 99//99 98//98
f 100//100 95//95 101//101
f 102//102 103//103 104//104
f 102//102 104//104 105//105
f 102//102 105//105 106//106
f 106//106 105//105 107//107
f 108//108 102//102 106//106
f 109//109 102//102 108//108
f 110//110 108//108 106//106
f 111//111 112//112 113//113
f 111//111 113//113 114//114
f 111//111 114//114 115//115
f 111//111 115//115 116//116
f 111//111 116//116 117//117
f 117//117 118//118 111//111
f 118//118 119//119 111//111
f 120//120 111//111 119//119
f 120//120 121//121 111//111
f 121//121 122//122 111//111
f 111//111 122//122 123//123
f 114//114 113//113 124//124
f 124//124 113//113 125//125
f 125//125 113//113 126//126
f 126//126 113//113 127//127
f 127//127 113//113 128//128
f 128//128 113//113 129//129
f 129//129 113//113 130//130
f 130//130 113//113 131//131
f 131//131 113//113 132//132
f 132//132 113//113 133//133
f 133//133 113//113 134//134
f 133//133 134//134 135//135
f 135//135 134//134 136//136
f 134//134 137//137 136//136
f 137//137 134//134 138//138
f 138//138 134//134 139//139
f 139//139 134//134 140//140
f 140//140 134//134 141//141
f 134//134 142//142 141//141
f 134//134 143//143 142//142
f 134//134 144//144 143//143
f 144//144 134//134 145//145
f 145//145 134//134 146//146
f 147//147 134//134 148//148
f 149//149 150//150 151//151
f 149//149 152//152 150//150
f 151//151 150//150 153//153
f 151//151 153//153 154//154
f 154//154 153//153 155//155
f 154//154 155//155 156//156
f 152//152 157//157 150//150
f 158//158 159//159 160//160
f 161//161 159//159 158//158
f 162//162 159//159 161//161
f 163//163 162//162 161//161
f 164//164 162//162 163//163
f 165//165 162//162 164//164
f 9//9 166//166 8//8
f 166//166 9//9 167//167
f 168//168 169//169 170//170
f 168//168 171//171 169//169
f 172//172 169//169 173//173
f 174//174 169//169 172//172
f 169//169 174//174 175//175
f 176//176 169//169 175//175
f 177//177 169//169 176//176
f 178//178 169//169 177//177
f 178//178 179//179 169//169
f 179//179 180//180 169//169
f 180//180 181//181 169//169
f 182//182 181//181 180//180
f 182//182 183//183 181//181
f 183//183 184//184 181//181
f 184//184 185//185 181//181
f 185//185 186//186 181//181
f 186//186 187//187 181//181
f 187//187 188//188 181//181
f 188//188 189//189 181//181
f 181//181 189//189 190//190
f 181//181 190//190 191//191
f 192//192 181//181 191//191
f 193//193 181//181 192//192
f 194//194 181//181 193//193
f 195//195 181//181 194//194
f 195//195 196//196 181//181
f 196//196 197//197 198//198
f 196//196 198//198 199//199
f 199//199 200//200 196//196
f 196//196 200//200 201//201
f 201//201 202//202 196//196
f 196//196 202//202 203//203
f 196//196 203//203 204//204
f 205//205 196//196 206//206
f 207//207 196//196 205//205
