v -103.9192 -209.2 113.0901
v -103.9192 -209.2 150
v -103.9192 -209.2 113.0901
v -103.9192 -209.2 113.0901
v -102.5195 -205.9143 113.0901
v -101.9596 -204.6 113.0901
v -101.9596 -204.6 113.0901
v -101.9596 -204.6 150
v -101.9596 -204.6 186.9099
v -102.1323 -204.4238 113.0901
v -103.5137 -203.0144 186.9099
v -102.1537 -204.4019 113.0901
v -103.7069 -202.8174 186.9099
v -102.1597 -204.3958 113.0901
v -103.7611 -202.7621 186.9099
v -102.2275 -204.3267 113.0901
v -104.3705 -202.1404 186.9099
v -103.0622 -203.475 113.0901
v -104.4632 -202.0457 186.9099
v -103.8537 -202.6675 113.0901
v -103.9448 -202.5746 113.0901
v -104.5613 -201.9457 186.9099
v -104.1347 -202.3809 113.0901
v -104.5824 -201.9242 186.9099
v -104.6383 -201.8671 113.0901
v -104.6383 -201.8671 186.9099
v -104.6363 -201.6635 113.0901
v -104.6271 -200.7463 186.9099
v -104.62 -200.0352 186.9099
v -104.6358 -201.613 113.0901
v -104.6154 -199.5807 186.9099
v -104.6356 -201.598 113.0901
v -104.6141 -199.4454 186.9099
v -104.6345 -201.4844 113.0901
v -104.6038 -198.4231 186.9099
v -104.6214 -200.1812 113.0901
v -104.6024 -198.2783 186.9099
v -104.6107 -199.1046 113.0901
v -104.6012 -198.1587 186.9099
v -104.6 -198.0404 113.0901
v -104.6 -198.0404 186.9099
v -104.5157 -197.9578 113.0901
v -103.841 -197.2965 186.9099
v -104.3267 -197.7726 113.0901
v -102.1404 -195.6295 186.9099
v -103.7995 -197.2558 113.0901
v -103.5887 -197.0492 113.0901
v -102.0584 -195.5492 186.9099
v -102.8699 -196.3446 113.0901
v -101.9785 -195.4709 186.9099
v -102.2779 -195.7644 113.0901
v -101.9127 -195.4064 186.9099
v -101.8671 -195.3617 113.0901
v -101.8671 -195.3617 186.9099
v -101.8671 -195.3617 186.9099
v -101.6396 -195.364 113.0901
v -99.82021 -195.3822 186.9099
v -101.5727 -195.3646 113.0901
v -99.21774 -195.3882 186.9099
v -101.5659 -195.3647 113.0901
v -99.15623 -195.3888 186.9099
v -101.5627 -195.3647 113.0901
v -99.12771 -195.3891 186.9099
v -101.5587 -195.3648 113.0901
v -99.09166 -195.3895 186.9099
v -101.4844 -195.3655 113.0901
v -98.42309 -195.3962 186.9099
v -98.04042 -195.4 113.0901
v -98.04042 -195.4 186.9099
v -98.04042 -195.4 113.0901
v -98.04042 -195.4 186.9099
v -98.04042 -195.4 113.0901
v -98.04042 -195.4 113.0901
v -97.48054 -194.0857 113.0901
v -96.08084 -190.8 113.0901
v -96.08084 -190.8 113.0901
v -96.08084 -190.8 113.0901
v -98.04042 -195.4 113.0901
v -98.04042 -195.4 113.0901
v -98.04042 -195.4 113.0901
v -98.04042 -195.4 186.9099
v -98.04042 -195.4 186.9099
v -98.04042 -195.4 186.9099
v -98.04042 -195.4 113.0901
v -103.7341 -190.7233 113.0901
v -98.04042 -195.4 113.0901
v -98.04042 -195.4 186.9099
v -98.04042 -195.4 113.0901
v -98.04042 -195.4 150
v -98.04042 -195.4 186.9099
v -96.08084 -190.8 150
v -98.04042 -195.4 186.9099
v -98.04042 -195.4 186.9099
v -97.48055 -194.0857 186.9099
v -103.7341 -190.7233 186.9099
v -98.04042 -195.4 186.9099
v -103.7341 -190.7233 113.0901
v -96.08085 -190.8 186.9099
v -103.7341 -190.7233 186.9099
v -101.8671 -195.3617 186.9099
v -101.8671 -195.3617 186.9099
v -103.9192 -209.2 150
v -103.9192 -209.2 113.0901
v -103.9192 -209.2 113.0901
v -102.5195 -205.9143 113.0901
v -101.9596 -204.6 150
v -101.9596 -204.6 113.0901
v -102.7713 -206.5054 186.9099
v -103.9192 -209.2 186.9099
v -101.9596 -204.6 186.9099
v -103.9192 -209.2 113.0901
v -109.2767 -203.7341 113.0901
v -109.2 -196.0808 113.0901
v -104.6383 -201.8671 113.0901
v -104.1347 -202.3809 113.0901
v -103.9448 -202.5746 113.0901
v -103.8537 -202.6675 113.0901
v -103.0622 -203.475 113.0901
v -102.2275 -204.3267 113.0901
v -102.1597 -204.3958 113.0901
v -102.1537 -204.4019 113.0901
v -102.1323 -204.4238 113.0901
v -101.9596 -204.6 113.0901
v -104.6363 -201.6635 113.0901
v -104.6358 -201.613 113.0901
v -104.6356 -201.598 113.0901
v -104.6345 -201.4844 113.0901
v -104.6214 -200.1812 113.0901
v -104.6107 -199.1046 113.0901
v -104.6 -198.0404 113.0901
v -104.5157 -197.9578 113.0901
v -104.3267 -197.7726 113.0901
v -103.7995 -197.2558 113.0901
v -103.7341 -190.7233 113.0901
v -103.5887 -197.0492 113.0901
v -102.8699 -196.3446 113.0901
v -102.2779 -195.7644 113.0901
v -101.8671 -195.3617 113.0901
v -101.6396 -195.364 113.0901
v -101.5727 -195.3646 113.0901
v -101.5659 -195.3647 113.0901
v -101.5627 -195.3647 113.0901
v -101.5587 -195.3648 113.0901
v -101.4844 -195.3655 113.0901
v -98.04042 -195.4 113.0901
v -98.04042 -195.4 113.0901
v -98.04042 -195.4 113.0901
v -96.08084 -190.8 113.0901
v -103.9192 -209.2 113.0901
v -109.2767 -203.7341 186.9099
v -109.2767 -203.7341 113.0901
v -103.9192 -209.2 150
v -109.2 -196.0808 186.9099
v -109.2 -196.0808 113.0901
v -103.7341 -190.7233 186.9099
v -103.7341 -190.7233 113.0901
v -103.9192 -209.2 186.9099
v -96.08084 -190.8 113.0901
v -98.04042 -195.4 150
v -98.04042 -195.4 113.0901
v -96.08084 -190.8 150
v -98.04042 -195.4 186.9099
v -96.08085 -190.8 186.9099
v -97.48055 -194.0857 186.9099
v -98.04042 -195.4 186.9099
v -101.9596 -204.6 186.9099
v -109.2767 -203.7341 186.9099
v -102.7713 -206.5054 186.9099
v -109.2767 -203.7341 186.9099
v -103.9192 -209.2 186.9099
v -101.9596 -204.6 186.9099
v -103.5137 -203.0144 186.9099
v -101.9596 -204.6 186.9099
v -103.7069 -202.8174 186.9099
v -103.7611 -202.7621 186.9099
v -104.3705 -202.1404 186.9099
v -104.4632 -202.0457 186.9099
v -104.5613 -201.9457 186.9099
v -104.5824 -201.9242 186.9099
v -104.6383 -201.8671 186.9099
v -109.2 -196.0808 186.9099
v -104.6271 -200.7463 186.9099
v -104.62 -200.0352 186.9099
v -104.6154 -199.5807 186.9099
v -104.6141 -199.4454 186.9099
v -104.6038 -198.4231 186.9099
v -104.6024 -198.2783 186.9099
v -104.6012 -198.1587 186.9099
v -104.6 -198.0404 186.9099
v -103.841 -197.2965 186.9099
v -102.1404 -195.6295 186.9099
v -102.0584 -195.5492 186.9099
v -101.9785 -195.4709 186.9099
v -101.9127 -195.4064 186.9099
v -101.8671 -195.3617 186.9099
v -103.7341 -190.7233 186.9099
v -101.8671 -195.3617 186.9099
v -99.82021 -195.3822 186.9099
v -99.21774 -195.3882 186.9099
v -99.15623 -195.3888 186.9099
v -99.12771 -195.3891 186.9099
v -99.09166 -195.3895 186.9099
v -98.42309 -195.3962 186.9099
v -98.04042 -195.4 186.9099
v -97.48055 -194.0857 186.9099
v -98.04042 -195.4 186.9099
v -96.08085 -190.8 186.9099

vn -0.3919156 -0.9200013 -5.340573E-07
vn -0.3919156 -0.9200013 -3.814695E-07
vn -0.2975645 -0.698517 -0.6507915
vn 0 0 -1
vn 0 0 -1
vn 0.7141554 0.6999872 6.462384E-08
vn 0.3879767 0.9107549 -0.141421
vn 0.986784 -0.1620413 1.883212E-07
vn 0.7141522 0.6999905 3.424388E-07
vn 0.7141516 0.6999911 3.013172E-07
vn 0.7141519 0.6999908 3.400592E-07
vn 0.7141526 0.6999902 4.23643E-07
vn 0.7141533 0.6999893 4.821553E-07
vn 0.7141492 0.6999935 -1.095606E-07
vn 0.7141512 0.6999915 1.780024E-07
vn 0.7141516 0.6999911 2.260705E-07
vn 0.7141515 0.6999913 2.089217E-07
vn 0.7141514 0.6999913 2.077589E-07
vn 0.7141516 0.699991 2.217209E-07
vn 0.7141514 0.6999913 2.409156E-07
vn 0.7141522 0.6999905 2.351289E-07
vn 0.7141532 0.6999893 2.778157E-07
vn 0.7141517 0.6999909 1.673259E-07
vn 0.7141511 0.6999916 1.81142E-07
vn 0.8115627 0.5842654 1.839747E-07
vn 0.9995227 0.03089219 2.087928E-07
vn 0.9999499 -0.01001592 2.638546E-07
vn 0.9999498 -0.0100151 2.243663E-07
vn 0.9999499 -0.01001478 2.046674E-07
vn 0.9999501 -0.01001269 5.134435E-08
vn 0.9999499 -0.01001138 -3.311141E-08
vn 0.9999499 -0.0100097 -2.493531E-07
vn 0.99995 -0.01001253 1.725448E-08
vn 0.9999499 -0.01001371 1.95488E-07
vn 0.99995 -0.01001429 2.545912E-07
vn 0.9999499 -0.01001438 3.133277E-07
vn 0.9999499 -0.01001323 2.147518E-07
vn 0.99995 -0.01001389 2.354087E-07
vn 0.9999499 -0.0100151 2.762392E-07
vn 0.9971225 -0.07580797 2.850269E-07
vn 0.7455838 -0.6664124 1.199789E-07
vn 0.6999918 -0.7141511 7.869004E-08
vn 0.6999911 -0.7141519 1.061353E-07
vn 0.6999906 -0.7141524 1.468234E-07
vn 0.6999906 -0.7141523 1.18347E-07
vn 0.6999909 -0.714152 1.005928E-07
vn 0.6999913 -0.7141516 -2.558145E-08
vn 0.699991 -0.714152 4.388409E-08
vn 0.6999913 -0.7141518 2.142637E-08
vn 0.699991 -0.7141519 1.39089E-08
vn 0.699991 -0.714152 6.971244E-09
vn 0.6999913 -0.7141516 -1.713521E-09
vn 0.5455298 -0.8380917 -6.568341E-08
vn 0.700008 -0.7141353 -3.749557E-09
vn -0.01001301 -0.99995 -1.50355E-07
vn -0.01001429 -0.9999499 -1.053244E-07
vn -0.01001474 -0.9999501 -6.846021E-08
vn -0.01001595 -0.9999499 3.948486E-08
vn -0.01001389 -0.9999501 -1.617078E-07
vn -0.01001228 -0.9999501 -4.500969E-07
vn -0.01000954 -0.99995 -7.290807E-07
vn -0.009964294 -0.9999505 -6.344965E-06
vn -0.009992669 -0.9999502 -2.762224E-06
vn -0.01002118 -0.99995 5.911334E-07
vn -0.01001706 -0.9999501 2.018595E-07
vn -0.01001418 -0.99995 -1.357496E-07
vn -0.01001357 -0.99995 -1.613506E-07
vn -0.0100133 -0.9999501 -1.611313E-07
vn -0.01000828 -0.9999501 -9.115078E-08
vn 0.157636 -0.9874975 -9.305479E-08
vn -0.3919156 -0.9200013 -1.907347E-07
vn -0.3919156 -0.9200013 -1.907347E-07
vn -0.3919156 -0.9200013 -1.907347E-07
vn 0 0 -1
vn 0.01001394 0.99995 2.936142E-07
vn 0 0 -1
vn 0.9631324 -0.2690283 1.677742E-07
vn -0.254535 -0.5975075 -0.7603926
vn -0.220785 -0.5182812 -0.8262197
vn -0.3909251 -0.9176763 -0.07104921
vn -0.3919156 -0.9200013 -1.907351E-07
vn -0.3919156 -0.9200013 -1.907347E-07
vn -0.3919156 -0.9200013 -1.907344E-07
vn -0.389831 -0.9151078 -0.1030029
vn 0 0 -1
vn -0.3918788 -0.9199297 -0.01266337
vn -0.3919156 -0.9200013 -1.907358E-07
vn -0.3879766 -0.9107547 -0.1414215
vn -0.3919217 -0.9199986 -1.907358E-07
vn -0.3912143 -0.918339 0.06004162
vn 0.01001392 0.9999499 2.232893E-07
vn -0.3919373 -0.919992 -1.907376E-07
vn -2.720974E-06 -6.387344E-06 1
vn 0 0 1
vn -3.970574E-07 1.691444E-07 1
vn 0 0 0
vn 0.01001386 0.9999501 2.130985E-07
vn 0.01001389 0.9999501 1.778031E-07
vn 0.01001388 0.9999501 2.029078E-07
vn -3.970574E-07 1.691444E-07 1
vn -3.970574E-07 1.691444E-07 1
vn 0.9200013 -0.3919158 1.192093E-07
vn 0.9200012 -0.3919158 1.192093E-07
vn 0.9200013 -0.3919158 1.192093E-07
vn 0.9200013 -0.3919158 1.192093E-07
vn 0.9200013 -0.3919158 1.192093E-07
vn 0.9200013 -0.3919158 1.192093E-07
vn 0.9200013 -0.3919158 1.192093E-07
vn 0.9200013 -0.3919158 1.192093E-07
vn 0.9200013 -0.3919158 1.192093E-07
vn 0 0 -1
vn 0 0 -1
vn 0 0 -1
vn 0 0 -1
vn 0 0 -1
vn 0 0 -1
vn 0 0 -1
vn 0 0 -1
vn 0 0 -1
vn 0 0 -1
vn 0 0 -1
vn 0 0 -1
vn 0 0 -1
vn 0 0 -1
vn 0 0 -1
vn 0 0 -1
vn 0 0 -1
vn 0 0 -1
vn 0 0 -1
vn 0 0 -1
vn 0 0 -1
vn 0 0 -1
vn 0 0 -1
vn 0 0 -1
vn 0 0 -1
vn 0 0 -1
vn 0 0 -1
vn 0 0 -1
vn 0 0 -1
vn 0 0 -1
vn 0 0 -1
vn 0 0 -1
vn 0 0 -1
vn 0 0 -1
vn 0 0 -1
vn 0 0 -1
vn 0 0 -1
vn 0 0 -1
vn -0.7141519 -0.6999909 -3.427891E-07
vn -0.8678743 -0.4967838 -3.09242E-07
vn -0.9700204 -0.2430233 -2.619401E-07
vn -0.7141518 -0.6999907 -3.23738E-07
vn -0.9649591 0.2624008 -1.531119E-07
vn -0.8577517 0.5140646 -7.358349E-08
vn -0.6999909 0.714152 -7.245399E-09
vn -0.6999909 0.714152 0
vn -0.7141518 -0.6999909 -2.570785E-07
vn 0.9200013 -0.3919158 1.192093E-07
vn 0.9200013 -0.3919158 1.192093E-07
vn 0.9200013 -0.3919158 1.192093E-07
vn 0.9200013 -0.3919158 1.192093E-07
vn 0.9200013 -0.3919158 1.192093E-07
vn 0.9200013 -0.3919158 1.192093E-07
vn 0.9200013 -0.3919158 1.283793E-07
vn 0.9200012 -0.3919158 1.283793E-07
vn 0.3837714 0.9008832 0.2028033
vn -2.887472E-07 -6.778191E-07 1
vn -1.985287E-07 8.457219E-08 1
vn -2.587124E-07 -1.109216E-08 1
vn -1.985287E-07 8.457219E-08 1
vn -1.985287E-07 8.457219E-08 1
vn -2.358985E-07 -2.312206E-07 1
vn -2.358985E-07 -2.312208E-07 1
vn -2.358985E-07 -2.312201E-07 1
vn -2.358984E-07 -2.31221E-07 1
vn -2.358983E-07 -2.31221E-07 1
vn -2.358986E-07 -2.312204E-07 1
vn -2.358993E-07 -2.312183E-07 1
vn -2.358974E-07 -2.312233E-07 1
vn -3.294508E-07 1.190354E-09 1
vn -2.80762E-07 1.196032E-07 1
vn -3.303028E-07 3.308172E-09 1
vn -3.303031E-07 3.307744E-09 1
vn -3.303036E-07 3.307189E-09 1
vn -3.303033E-07 3.307552E-09 1
vn -3.303033E-07 3.307591E-09 1
vn -3.303033E-07 3.307709E-09 1
vn -3.30303E-07 3.308271E-09 1
vn -2.411407E-07 2.126119E-07 1
vn -2.312209E-07 2.358986E-07 1
vn -2.312208E-07 2.358988E-07 1
vn -2.312207E-07 2.35898E-07 1
vn -2.312209E-07 2.358998E-07 1
vn -2.312208E-07 2.358989E-07 1
vn -2.312208E-07 2.358985E-07 1
vn -1.712382E-07 1.94249E-07 1
vn 3.307811E-09 3.303034E-07 1
vn 3.307954E-09 3.303035E-07 1
vn 3.308232E-09 3.303037E-07 1
vn 3.303005E-09 3.302986E-07 1
vn 3.308718E-09 3.303043E-07 1
vn 3.308377E-09 3.303039E-07 1
vn 3.307337E-09 3.303028E-07 1
vn 3.306553E-09 3.303018E-07 1
vn -1.985287E-07 8.457219E-08 1
vn -1.985287E-07 8.457221E-08 1
vn -1.985287E-07 8.457219E-08 1

f 1//1 2//2 3//3
f 4//4 1//1 3//3
f 3//3 5//5 4//4
f 3//3 6//6 5//5
f 5//5 6//6 7//7
f 8//8 7//7 6//6
f 9//9 8//8 6//6
f 10//10 9//9 6//6
f 9//9 10//10 11//11
f 11//11 10//10 12//12
f 13//13 11//11 12//12
f 13//13 12//12 14//14
f 13//13 14//14 15//15
f 15//15 14//14 16//16
f 15//15 16//16 17//17
f 18//18 17//17 16//16
f 19//19 17//17 18//18
f 19//19 18//18 20//20
f 21//21 19//19 20//20
f 22//22 19//19 21//21
f 22//22 21//21 23//23
f 24//24 22//22 23//23
f 24//24 23//23 25//25
f 26//26 24//24 25//25
f 26//26 25//25 27//27
f 28//28 26//26 27//27
f 28//28 27//27 29//29
f 29//29 27//27 30//30
f 31//31 29//29 30//30
f 31//31 30//30 32//32
f 33//33 31//31 32//32
f 33//33 32//32 34//34
f 35//35 33//33 34//34
f 35//35 34//34 36//36
f 37//37 35//35 36//36
f 37//37 36//36 38//38
f 39//39 37//37 38//38
f 39//39 38//38 40//40
f 41//41 39//39 40//40
f 41//41 40//40 42//42
f 41//41 42//42 43//43
f 43//43 42//42 44//44
f 45//45 43//43 44//44
f 45//45 44//44 46//46
f 47//47 45//45 46//46
f 48//48 45//45 47//47
f 48//48 47//47 49//49
f 50//50 48//48 49//49
f 50//50 49//49 51//51
f 52//52 50//50 51//51
f 52//52 51//51 53//53
f 54//54 52//52 53//53
f 55//55 54//54 53//53
f 55//55 53//53 56//56
f 55//55 56//56 57//57
f 57//57 56//56 58//58
f 57//57 58//58 59//59
f 59//59 58//58 60//60
f 59//59 60//60 61//61
f 61//61 60//60 62//62
f 61//61 62//62 63//63
f 63//63 62//62 64//64
f 63//63 64//64 65//65
f 65//65 64//64 66//66
f 65//65 66//66 67//67
f 68//68 67//67 66//66
f 69//69 67//67 68//68
f 69//69 68//68 70//70
f 71//71 69//69 70//70
f 72//72 71//71 73//73
f 74//74 75//75 76//76
f 77//77 74//74 76//76
f 75//75 77//77 76//76
f 78//78 75//75 74//74
f 79//79 75//75 78//78
f 78//78 74//74 80//80
f 81//81 78//78 80//80
f 82//82 78//78 81//81
f 82//82 83//83 78//78
f 83//83 84//84 79//79
f 84//84 85//85 79//79
f 80//80 74//74 86//86
f 87//87 80//80 86//86
f 81//81 80//80 87//87
f 86//86 74//74 88//88
f 88//88 74//74 77//77
f 86//86 88//88 89//89
f 90//90 86//86 89//89
f 87//87 86//86 90//90
f 75//75 91//91 77//77
f 90//90 89//89 92//92
f 90//90 92//92 93//93
f 94//94 90//90 93//93
f 95//95 83//83 82//82
f 95//95 82//82 81//81
f 95//95 81//81 87//87
f 95//95 87//87 90//90
f 95//95 96//96 83//83
f 97//97 91//91 75//75
f 97//97 98//98 91//91
f 97//97 99//99 98//98
f 100//100 95//95 101//101
f 102//102 103//103 104//104
f 102//102 104//104 105//105
f 102//102 105//105 106//106
f 106//106 105//105 107//107
f 108//108 102//102 106//106
f 109//109 102//102 108//108
f 110//110 108//108 106//106
f 111//111 112//112 113//113
f 111//111 113//113 114//114
f 111//111 114//114 115//115
f 111//111 115//115 116//116
f 111//111 116//116 117//117
f 117//117 118//118 111//111
f 118//118 119//119 111//111
f 120//120 111//111 119//119
f 120//120 121//121 111//111
f 121//121 122//122 111//111
f 111//111 122//122 123//123
f 114//114 113//113 124//124
f 124//124 113//113 125//125
f 125//125 113//113 126//126
f 126//126 113//113 127//127
f 127//127 113//113 128//128
f 128//128 113//113 129//129
f 129//129 113//113 130//130
f 130//130 113//113 131//131
f 131//131 113//113 132//132
f 132//132 113//113 133//133
f 133//133 113//113 134//134
f 133//133 134//134 135//135
f 135//135 134//134 136//136
f 134//134 137//137 136//136
f 137//137 134//134 138//138
f 138//138 134//134 139//139
f 139//139 134//134 140//140
f 140//140 134//134 141//141
f 134//134 142//142 141//141
f 134//134 143//143 142//142
f 134//134 144//144 143//143
f 144//144 134//134 145//145
f 145//145 134//134 146//146
f 147//147 134//134 148//148
f 149//149 150//150 151//151
f 149//149 152//152 150//150
f 151//151 150//150 153//153
f 151//151 153//153 154//154
f 154//154 153//153 155//155
f 154//154 155//155 156//156
f 152//152 157//157 150//150
f 158//158 159//159 160//160
f 161//161 159//159 158//158
f 162//162 159//159 161//161
f 163//163 162//162 161//161
f 164//164 162//162 163//163
f 165//165 162//162 164//164
f 9//9 166//166 8//8
f 166//166 9//9 167//167
f 168//168 169//169 170//170
f 168//168 171//171 169//169
f 172//172 169//169 173//173
f 174//174 169//169 172//172
f 169//169 174//174 175//175
f 176//176 169//169 175//175
f 177//177 169//169 176//176
f 178//178 169//169 177//177
f 178//178 179//179 169//169
f 179//179 180//180 169//169
f 180//180 181//181 169//169
f 182//182 181//181 180//180
f 182//182 183//183 181//181
f 183//183 184//184 181//181
f 184//184 185//185 181//181
f 185//185 186//186 181//181
f 186//186 187//187 181//181
f 187//187 188//188 181//181
f 188//188 189//189 181//181
f 181//181 189//189 190//190
f 181//181 190//190 191//191
f 192//192 181//181 191//191
f 193//193 181//181 192//192
f 194//194 181//181 193//193
f 195//195 181//181 194//194
f 195//195 196//196 181//181
f 196//196 197//197 198//198
f 196//196 198//198 199//199
f 199//199 200//200 196//196
f 196//196 200//200 201//201
f 201//201 202//202 196//196
f 196//196 202//202 203//203
f 196//196 203//203 204//204
f 205//205 196//196 206//206
f 207//207 196//196 205//205
