v -90.00002 -193.52 107.6164
v -49.99998 -193.52 107.6164
v -90.00002 -193.52 107.6164
v -90.00002 -193.52 107.6164
v -90.00002 -195.8343 104.8963
v -90.00002 -196.76 103.8082
v -90.00002 -196.76 103.8082
v -49.99998 -196.76 103.8082
v -9.999943 -196.76 103.8082
v -90.00002 -196.6476 103.5886
v -9.999943 -195.7483 101.8319
v -90.00002 -196.6336 103.5613
v -9.999943 -195.6225 101.5863
v -90.00002 -196.6297 103.5537
v -9.999943 -195.5872 101.5173
v -90.00002 -196.5856 103.4676
v -9.999943 -195.1905 100.7424
v -90.00002 -196.0422 102.406
v -9.999943 -195.1302 100.6245
v -90.00002 -195.5269 101.3995
v -90.00002 -195.4677 101.2837
v -9.999943 -195.0663 100.4998
v -90.00002 -195.344 101.0422
v -9.999943 -195.0526 100.4729
v -90.00002 -195.0162 100.4018
v -9.999943 -195.0162 100.4018
v -90.00002 -195.0787 100.2081
v -9.999943 -195.3605 99.33512
v -9.999943 -195.579 98.65839
v -90.00002 -195.0942 100.16
v -9.999943 -195.7186 98.22583
v -90.00002 -195.0988 100.1457
v -9.999943 -195.7602 98.0971
v -90.00002 -195.1337 100.0376
v -9.999943 -196.0742 97.12418
v -90.00002 -195.5341 98.79737
v -9.999943 -196.1187 96.98637
v -90.00002 -195.8649 97.77274
v -9.999943 -196.1555 96.87252
v -90.00002 -196.1918 96.75999
v -9.999943 -196.1918 96.75999
v -90.00002 -196.2969 96.70618
v -9.999943 -197.1379 96.27568
v -90.00002 -196.5324 96.58561
v -9.999943 -199.2576 95.19055
v -90.00002 -197.1895 96.24924
v -90.00002 -197.4523 96.11472
v -9.999943 -199.3598 95.13823
v -90.00002 -198.3483 95.65602
v -9.999943 -199.4594 95.08727
v -90.00002 -199.0861 95.27834
v -9.999943 -199.5413 95.0453
v -90.00002 -199.5982 95.01617
v -9.999943 -199.5982 95.01617
v -9.999943 -199.5982 95.01617
v -90.00002 -199.8147 95.08604
v -9.999943 -201.5462 95.64501
v -90.00002 -199.8784 95.10661
v -9.999943 -202.1196 95.83011
v -90.00002 -199.8849 95.1087
v -9.999943 -202.1781 95.84901
v -90.00002 -199.8879 95.10968
v -9.999943 -202.2052 95.85777
v -90.00002 -199.8917 95.11091
v -9.999943 -202.2395 95.86884
v -90.00002 -199.9624 95.13373
v -9.999943 -202.8758 96.07424
v -90.00002 -203.24 96.1918
v -9.999943 -203.24 96.1918
v -90.00002 -203.24 96.1918
v -9.999943 -203.24 96.1918
v -90.00002 -203.24 96.1918
v -90.00002 -203.24 96.1918
v -90.00002 -204.1657 95.10374
v -90.00002 -206.48 92.38361
v -90.00002 -206.48 92.38361
v -90.00002 -206.48 92.38361
v -90.00002 -203.24 96.1918
v -90.00002 -203.24 96.1918
v -90.00002 -203.24 96.1918
v -9.999943 -203.24 96.1918
v -9.999943 -203.24 96.1918
v -9.999943 -203.24 96.1918
v -90.00002 -203.24 96.1918
v -90.00002 -199.1965 90.03233
v -90.00002 -203.24 96.1918
v -9.999943 -203.24 96.1918
v -90.00002 -203.24 96.1918
v -49.99998 -203.24 96.1918
v -9.999943 -203.24 96.1918
v -49.99998 -206.48 92.38361
v -9.999985 -203.24 96.1918
v -9.999943 -203.24 96.1918
v -9.999943 -204.1657 95.10375
v -9.99995 -199.1965 90.03233
v -9.999943 -203.24 96.1918
v -90.00002 -199.1965 90.03233
v -9.999943 -206.48 92.38361
v -9.99995 -199.1965 90.03233
v -9.999943 -199.5982 95.01617
v -9.999943 -199.5982 95.01617
v -49.99998 -193.52 107.6164
v -90.00002 -193.52 107.6164
v -90.00002 -193.52 107.6164
v -90.00002 -195.8343 104.8963
v -49.99998 -196.76 103.8082
v -90.00002 -196.76 103.8082
v -9.999943 -195.4179 105.3856
v -9.999943 -193.52 107.6164
v -9.999943 -196.76 103.8082
v -90.00002 -193.52 107.6164
v -90.00002 -190.0323 100.8035
v -90.00002 -192.3836 93.51998
v -90.00002 -195.0162 100.4018
v -90.00002 -195.344 101.0422
v -90.00002 -195.4677 101.2837
v -90.00002 -195.5269 101.3995
v -90.00002 -196.0422 102.406
v -90.00002 -196.5856 103.4676
v -90.00002 -196.6297 103.5537
v -90.00002 -196.6336 103.5613
v -90.00002 -196.6476 103.5886
v -90.00002 -196.76 103.8082
v -90.00002 -195.0787 100.2081
v -90.00002 -195.0942 100.16
v -90.00002 -195.0988 100.1457
v -90.00002 -195.1337 100.0376
v -90.00002 -195.5341 98.79737
v -90.00002 -195.8649 97.77274
v -90.00002 -196.1918 96.75999
v -90.00002 -196.2969 96.70618
v -90.00002 -196.5324 96.58561
v -90.00002 -197.1895 96.24924
v -90.00002 -199.1965 90.03233
v -90.00002 -197.4523 96.11472
v -90.00002 -198.3483 95.65602
v -90.00002 -199.0861 95.27834
v -90.00002 -199.5982 95.01617
v -90.00002 -199.8147 95.08604
v -90.00002 -199.8784 95.10661
v -90.00002 -199.8849 95.1087
v -90.00002 -199.8879 95.10968
v -90.00002 -199.8917 95.11091
v -90.00002 -199.9624 95.13373
v -90.00002 -203.24 96.1918
v -90.00002 -203.24 96.1918
v -90.00002 -203.24 96.1918
v -90.00002 -206.48 92.38361
v -90.00002 -193.52 107.6164
v -9.99995 -190.0323 100.8035
v -90.00002 -190.0323 100.8035
v -49.99998 -193.52 107.6164
v -9.99995 -192.3836 93.51999
v -90.00002 -192.3836 93.51998
v -9.99995 -199.1965 90.03233
v -90.00002 -199.1965 90.03233
v -9.999943 -193.52 107.6164
v -90.00002 -206.48 92.38361
v -49.99998 -203.24 96.1918
v -90.00002 -203.24 96.1918
v -49.99998 -206.48 92.38361
v -9.999985 -203.24 96.1918
v -9.999943 -206.48 92.38361
v -9.999943 -204.1657 95.10375
v -9.999943 -203.24 96.1918
v -9.999943 -196.76 103.8082
v -9.99995 -190.0323 100.8035
v -9.999943 -195.4179 105.3856
v -9.99995 -190.0323 100.8035
v -9.999943 -193.52 107.6164
v -9.999943 -196.76 103.8082
v -9.999943 -195.7483 101.8319
v -9.999943 -196.76 103.8082
v -9.999943 -195.6225 101.5863
v -9.999943 -195.5872 101.5173
v -9.999943 -195.1905 100.7424
v -9.999943 -195.1302 100.6245
v -9.999943 -195.0663 100.4998
v -9.999943 -195.0526 100.4729
v -9.999943 -195.0162 100.4018
v -9.99995 -192.3836 93.51999
v -9.999943 -195.3605 99.33512
v -9.999943 -195.579 98.65839
v -9.999943 -195.7186 98.22583
v -9.999943 -195.7602 98.0971
v -9.999943 -196.0742 97.12418
v -9.999943 -196.1187 96.98637
v -9.999943 -196.1555 96.87252
v -9.999943 -196.1918 96.75999
v -9.999943 -197.1379 96.27568
v -9.999943 -199.2576 95.19055
v -9.999943 -199.3598 95.13823
v -9.999943 -199.4594 95.08727
v -9.999943 -199.5413 95.0453
v -9.999943 -199.5982 95.01617
v -9.99995 -199.1965 90.03233
v -9.999943 -199.5982 95.01617
v -9.999943 -201.5462 95.64501
v -9.999943 -202.1196 95.83011
v -9.999943 -202.1781 95.84901
v -9.999943 -202.2052 95.85777
v -9.999943 -202.2395 95.86884
v -9.999943 -202.8758 96.07424
v -9.999943 -203.24 96.1918
v -9.999943 -204.1657 95.10375
v -9.999943 -203.24 96.1918
v -9.999943 -206.48 92.38361

vn -5.266066E-07 0.6480014 0.7616391
vn -3.740188E-07 0.6480014 0.7616391
vn -0.6507913 0.4919994 0.5782795
vn -1 0 -7.450581E-09
vn -1 0 -7.450581E-09
vn 5.77404E-08 -0.8901442 -0.455679
vn -0.141421 -0.6414888 -0.7539844
vn 1.865505E-07 -0.89382 0.4484258
vn 3.355553E-07 -0.890142 -0.4556831
vn 2.944337E-07 -0.8901417 -0.4556839
vn 3.331757E-07 -0.8901418 -0.4556836
vn 4.167595E-07 -0.8901423 -0.4556827
vn 4.752718E-07 -0.8901427 -0.4556817
vn -1.16444E-07 -0.8901401 -0.4556869
vn 1.711189E-07 -0.8901414 -0.4556844
vn 2.19187E-07 -0.8901416 -0.4556839
vn 2.020382E-07 -0.8901417 -0.4556841
vn 2.008754E-07 -0.8901415 -0.4556842
vn 2.148374E-07 -0.8901417 -0.4556839
vn 2.340321E-07 -0.8901415 -0.4556842
vn 2.282454E-07 -0.890142 -0.4556831
vn 2.709322E-07 -0.8901427 -0.4556817
vn 1.604424E-07 -0.8901417 -0.4556837
vn 1.742585E-07 -0.8901414 -0.4556845
vn 1.776E-07 -0.9486899 -0.3162082
vn 2.056624E-07 -0.9634106 0.2680297
vn 2.610033E-07 -0.9516416 0.3072107
vn 2.215151E-07 -0.9516417 0.3072098
vn 2.018161E-07 -0.9516419 0.3072096
vn 4.849312E-08 -0.9516426 0.3072076
vn -3.596264E-08 -0.9516429 0.3072063
vn -2.522043E-07 -0.9516434 0.3072047
vn 1.440326E-08 -0.9516426 0.3072074
vn 1.926368E-07 -0.9516422 0.3072085
vn 2.517399E-07 -0.9516421 0.3072091
vn 3.104764E-07 -0.951642 0.3072092
vn 2.119005E-07 -0.9516423 0.3072081
vn 2.325574E-07 -0.9516422 0.3072087
vn 2.73388E-07 -0.9516418 0.3072099
vn 2.826349E-07 -0.9293584 0.3691788
vn 1.223697E-07 -0.5134202 0.8581375
vn 8.154122E-08 -0.4556848 0.8901412
vn 1.089865E-07 -0.4556838 0.8901417
vn 1.496746E-07 -0.4556832 0.8901421
vn 1.211982E-07 -0.4556832 0.890142
vn 1.03444E-07 -0.4556836 0.8901418
vn -2.273024E-08 -0.4556841 0.8901415
vn 4.673529E-08 -0.4556837 0.8901418
vn 2.427758E-08 -0.455684 0.8901417
vn 1.676011E-08 -0.4556837 0.8901417
vn 9.822454E-09 -0.4556838 0.8901418
vn 1.137687E-09 -0.4556841 0.8901415
vn -6.153161E-08 -0.2713318 0.9624859
vn -8.98508E-10 -0.4557048 0.8901309
vn -1.434716E-07 0.3072081 0.9516423
vn -9.844095E-08 0.3072093 0.9516419
vn -6.157676E-08 0.3072098 0.9516419
vn 4.636829E-08 0.3072109 0.9516414
vn -1.548243E-07 0.307209 0.9516421
vn -4.432134E-07 0.3072074 0.9516427
vn -7.221971E-07 0.3072048 0.9516433
vn -6.33808E-06 0.3071617 0.9516573
vn -2.75534E-06 0.3071887 0.9516487
vn 5.980168E-07 0.3072159 0.9516399
vn 2.08743E-07 0.307212 0.9516411
vn -1.288661E-07 0.3072092 0.951642
vn -1.544671E-07 0.3072086 0.9516422
vn -1.542478E-07 0.3072084 0.9516423
vn -8.426733E-08 0.3072036 0.9516438
vn -8.674622E-08 0.1434518 0.9896573
vn -1.832841E-07 0.6480014 0.7616391
vn -1.832841E-07 0.6480014 0.7616391
vn -1.832841E-07 0.6480014 0.7616391
vn -1 0 -7.450581E-09
vn 2.867307E-07 -0.307209 -0.951642
vn -1 0 -7.450581E-09
vn 1.668059E-07 -0.8393943 0.543523
vn -0.7603924 0.4208535 0.494657
vn -0.8262195 0.3650506 0.4290681
vn -0.07104919 0.6463638 0.7597143
vn -1.832844E-07 0.6480014 0.7616391
vn -1.832841E-07 0.6480014 0.7616391
vn -1.832838E-07 0.6480014 0.7616391
vn -0.1030029 0.6445547 0.757588
vn -1 0 -7.450581E-09
vn -0.01266336 0.6479451 0.7615818
vn -1.832851E-07 0.6480014 0.7616391
vn -0.1414215 0.6414887 0.7539842
vn -1.832852E-07 0.6480065 0.7616348
vn 0.06004161 0.6468371 0.7602609
vn 2.164058E-07 -0.307209 -0.951642
vn -1.832869E-07 0.6480194 0.7616238
vn 1 4.498916E-06 5.295325E-06
vn 1 0 7.450581E-09
vn 1 3.287109E-07 -2.722161E-07
vn 0 0 0
vn 2.06215E-07 -0.3072089 -0.9516421
vn 1.709197E-07 -0.307209 -0.9516421
vn 1.960243E-07 -0.307209 -0.9516422
vn 1 3.287109E-07 -2.722161E-07
vn 1 3.287109E-07 -2.722161E-07
vn 1.192093E-07 -0.7616391 0.6480014
vn 1.192092E-07 -0.7616391 0.6480014
vn 1.192093E-07 -0.7616391 0.6480014
vn 1.192093E-07 -0.7616391 0.6480014
vn 1.192093E-07 -0.7616391 0.6480014
vn 1.192092E-07 -0.7616391 0.6480014
vn 1.192093E-07 -0.7616391 0.6480014
vn 1.192093E-07 -0.7616391 0.6480014
vn 1.192093E-07 -0.7616391 0.6480014
vn -1 0 -7.450581E-09
vn -1 0 -7.450581E-09
vn -1 0 -7.450581E-09
vn -1 0 -7.450581E-09
vn -1 0 -7.450581E-09
vn -1 0 -7.450581E-09
vn -1 0 -7.450581E-09
vn -1 0 -7.450581E-09
vn -1 0 -7.450581E-09
vn -1 0 -7.450581E-09
vn -1 0 -7.450581E-09
vn -1 0 -7.450581E-09
vn -1 0 -7.450581E-09
vn -0.9999999 0 -7.45058E-09
vn -1 0 -7.450581E-09
vn -1 0 -7.450581E-09
vn -0.9999999 0 -7.45058E-09
vn -1 0 -7.450581E-09
vn -1 0 -7.450581E-09
vn -1 0 -7.450581E-09
vn -0.9999999 0 -7.45058E-09
vn -1 0 -7.450581E-09
vn -1 0 -7.450581E-09
vn -1 0 -7.450581E-09
vn -1 0 -7.450581E-09
vn -1 0 -7.450581E-09
vn -1 0 -7.450581E-09
vn -1 0 -7.450581E-09
vn -1 0 -7.450581E-09
vn -1 0 -7.450581E-09
vn -1 0 -7.450581E-09
vn -0.9999999 0 -7.45058E-09
vn -1 0 -7.450581E-09
vn -0.9999999 0 -7.45058E-09
vn -0.9999999 0 -7.45058E-09
vn -1 0 -7.450581E-09
vn -0.9999999 0 -7.45058E-09
vn -0.9999999 0 -7.45058E-09
vn -3.359056E-07 0.8901419 0.4556836
vn -3.033024E-07 0.9764088 0.2159303
vn -2.574418E-07 0.9983894 -0.05673263
vn -3.168545E-07 0.8901418 0.4556835
vn -1.520929E-07 0.843111 -0.5377396
vn -7.460253E-08 0.6658521 -0.7460839
vn -1.009661E-08 0.4556835 -0.8901418
vn -2.851212E-09 0.4556836 -0.8901418
vn -2.50195E-07 0.8901418 0.4556836
vn 1.192093E-07 -0.7616391 0.6480014
vn 1.192093E-07 -0.7616391 0.6480014
vn 1.192093E-07 -0.7616391 0.6480014
vn 1.192093E-07 -0.7616391 0.6480014
vn 1.192093E-07 -0.7616391 0.6480014
vn 1.192093E-07 -0.7616391 0.6480014
vn 1.283792E-07 -0.7616391 0.6480014
vn 1.283792E-07 -0.7616391 0.6480014
vn 0.2028032 -0.6345356 -0.7458119
vn 1 4.774208E-07 5.685949E-07
vn 0.9999999 1.643554E-07 -1.323828E-07
vn 1 2.502869E-07 -5.896934E-08
vn 1 1.643554E-07 -1.323828E-07
vn 1 1.643554E-07 -1.323828E-07
vn 1 2.940314E-07 1.579717E-07
vn 1 2.940314E-07 1.579719E-07
vn 1 2.940313E-07 1.579712E-07
vn 1 2.940314E-07 1.579721E-07
vn 1 2.940314E-07 1.579721E-07
vn 0.9999999 2.940314E-07 1.579715E-07
vn 1 2.940315E-07 1.579692E-07
vn 0.9999999 2.940312E-07 1.579746E-07
vn 1 3.141627E-07 -9.175135E-08
vn 1 2.324337E-07 -1.903037E-07
vn 1 3.143456E-07 -9.402677E-08
vn 1 3.143461E-07 -9.402645E-08
vn 1 3.143468E-07 -9.402608E-08
vn 1 3.143464E-07 -9.402634E-08
vn 1 3.143464E-07 -9.402638E-08
vn 1 3.143463E-07 -9.402648E-08
vn 1 3.143459E-07 -9.402694E-08
vn 1 1.669231E-07 -2.673026E-07
vn 1 1.505213E-07 -2.865809E-07
vn 1 1.505212E-07 -2.865811E-07
vn 1 1.505214E-07 -2.865803E-07
vn 1 1.50521E-07 -2.865821E-07
vn 1 1.505211E-07 -2.865812E-07
vn 1 1.505213E-07 -2.865808E-07
vn 1 1.056552E-07 -2.289646E-07
vn 1 -1.014772E-07 -3.068957E-07
vn 1 -1.014774E-07 -3.068958E-07
vn 1 -1.014778E-07 -3.068959E-07
vn 1 -1.014712E-07 -3.068926E-07
vn 1 -1.014784E-07 -3.068964E-07
vn 1 -1.014779E-07 -3.06896E-07
vn 1 -1.014766E-07 -3.068953E-07
vn 0.9999999 -1.014756E-07 -3.068946E-07
vn 1 1.643554E-07 -1.323828E-07
vn 1 1.643554E-07 -1.323828E-07
vn 0.9999999 1.643554E-07 -1.323828E-07

f 1//1 2//2 3//3
f 4//4 1//1 3//3
f 3//3 5//5 4//4
f 3//3 6//6 5//5
f 5//5 6//6 7//7
f 8//8 7//7 6//6
f 9//9 8//8 6//6
f 10//10 9//9 6//6
f 9//9 10//10 11//11
f 11//11 10//10 12//12
f 13//13 11//11 12//12
f 13//13 12//12 14//14
f 13//13 14//14 15//15
f 15//15 14//14 16//16
f 15//15 16//16 17//17
f 18//18 17//17 16//16
f 19//19 17//17 18//18
f 19//19 18//18 20//20
f 21//21 19//19 20//20
f 22//22 19//19 21//21
f 22//22 21//21 23//23
f 24//24 22//22 23//23
f 24//24 23//23 25//25
f 26//26 24//24 25//25
f 26//26 25//25 27//27
f 28//28 26//26 27//27
f 28//28 27//27 29//29
f 29//29 27//27 30//30
f 31//31 29//29 30//30
f 31//31 30//30 32//32
f 33//33 31//31 32//32
f 33//33 32//32 34//34
f 35//35 33//33 34//34
f 35//35 34//34 36//36
f 37//37 35//35 36//36
f 37//37 36//36 38//38
f 39//39 37//37 38//38
f 39//39 38//38 40//40
f 41//41 39//39 40//40
f 41//41 40//40 42//42
f 41//41 42//42 43//43
f 43//43 42//42 44//44
f 45//45 43//43 44//44
f 45//45 44//44 46//46
f 47//47 45//45 46//46
f 48//48 45//45 47//47
f 48//48 47//47 49//49
f 50//50 48//48 49//49
f 50//50 49//49 51//51
f 52//52 50//50 51//51
f 52//52 51//51 53//53
f 54//54 52//52 53//53
f 55//55 54//54 53//53
f 55//55 53//53 56//56
f 55//55 56//56 57//57
f 57//57 56//56 58//58
f 57//57 58//58 59//59
f 59//59 58//58 60//60
f 59//59 60//60 61//61
f 61//61 60//60 62//62
f 61//61 62//62 63//63
f 63//63 62//62 64//64
f 63//63 64//64 65//65
f 65//65 64//64 66//66
f 65//65 66//66 67//67
f 68//68 67//67 66//66
f 69//69 67//67 68//68
f 69//69 68//68 70//70
f 71//71 69//69 70//70
f 72//72 71//71 73//73
f 74//74 75//75 76//76
f 77//77 74//74 76//76
f 75//75 77//77 76//76
f 78//78 75//75 74//74
f 79//79 75//75 78//78
f 78//78 74//74 80//80
f 81//81 78//78 80//80
f 82//82 78//78 81//81
f 82//82 83//83 78//78
f 83//83 84//84 79//79
f 84//84 85//85 79//79
f 80//80 74//74 86//86
f 87//87 80//80 86//86
f 81//81 80//80 87//87
f 86//86 74//74 88//88
f 88//88 74//74 77//77
f 86//86 88//88 89//89
f 90//90 86//86 89//89
f 87//87 86//86 90//90
f 75//75 91//91 77//77
f 90//90 89//89 92//92
f 90//90 92//92 93//93
f 94//94 90//90 93//93
f 95//95 83//83 82//82
f 95//95 82//82 81//81
f 95//95 81//81 87//87
f 95//95 87//87 90//90
f 95//95 96//96 83//83
f 97//97 91//91 75//75
f 97//97 98//98 91//91
f 97//97 99//99 98//98
f 100//100 95//95 101//101
f 102//102 103//103 104//104
f 102//102 104//104 105//105
f 102//102 105//105 106//106
f 106//106 105//105 107//107
f 108//108 102//102 106//106
f 109//109 102//102 108//108
f 110//110 108//108 106//106
f 111//111 112//112 113//113
f 111//111 113//113 114//114
f 111//111 114//114 115//115
f 111//111 115//115 116//116
f 111//111 116//116 117//117
f 117//117 118//118 111//111
f 118//118 119//119 111//111
f 120//120 111//111 119//119
f 120//120 121//121 111//111
f 121//121 122//122 111//111
f 111//111 122//122 123//123
f 114//114 113//113 124//124
f 124//124 113//113 125//125
f 125//125 113//113 126//126
f 126//126 113//113 127//127
f 127//127 113//113 128//128
f 128//128 113//113 129//129
f 129//129 113//113 130//130
f 130//130 113//113 131//131
f 131//131 113//113 132//132
f 132//132 113//113 133//133
f 133//133 113//113 134//134
f 133//133 134//134 135//135
f 135//135 134//134 136//136
f 134//134 137//137 136//136
f 137//137 134//134 138//138
f 138//138 134//134 139//139
f 139//139 134//134 140//140
f 140//140 134//134 141//141
f 134//134 142//142 141//141
f 134//134 143//143 142//142
f 134//134 144//144 143//143
f 144//144 134//134 145//145
f 145//145 134//134 146//146
f 147//147 134//134 148//148
f 149//149 150//150 151//151
f 149//149 152//152 150//150
f 151//151 150//150 153//153
f 151//151 153//153 154//154
f 154//154 153//153 155//155
f 154//154 155//155 156//156
f 152//152 157//157 150//150
f 158//158 159//159 160//160
f 161//161 159//159 158//158
f 162//162 159//159 161//161
f 163//163 162//162 161//161
f 164//164 162//162 163//163
f 165//165 162//162 164//164
f 9//9 166//166 8//8
f 166//166 9//9 167//167
f 168//168 169//169 170//170
f 168//168 171//171 169//169
f 172//172 169//169 173//173
f 174//174 169//169 172//172
f 169//169 174//174 175//175
f 176//176 169//169 175//175
f 177//177 169//169 176//176
f 178//178 169//169 177//177
f 178//178 179//179 169//169
f 179//179 180//180 169//169
f 180//180 181//181 169//169
f 182//182 181//181 180//180
f 182//182 183//183 181//181
f 183//183 184//184 181//181
f 184//184 185//185 181//181
f 185//185 186//186 181//181
f 186//186 187//187 181//181
f 187//187 188//188 181//181
f 188//188 189//189 181//181
f 181//181 189//189 190//190
f 181//181 190//190 191//191
f 192//192 181//181 191//191
f 193//193 181//181 192//192
f 194//194 181//181 193//193
f 195//195 181//181 194//194
f 195//195 196//196 181//181
f 196//196 197//197 198//198
f 196//196 198//198 199//199
f 199//199 200//200 196//196
f 196//196 200//200 201//201
f 201//201 202//202 196//196
f 196//196 202//202 203//203
f 196//196 203//203 204//204
f 205//205 196//196 206//206
f 207//207 196//196 205//205
