v -9.999981 7.197743 -93.05791
v -50.00002 7.197746 -93.05791
v -9.999981 7.197743 -93.05791
v -9.999981 7.197742 -93.05791
v -9.999981 4.627121 -95.53723
v -9.999981 3.598871 -96.52896
v -9.999981 3.598871 -96.52896
v -50.00002 3.598875 -96.52895
v -90.00006 3.598876 -96.52894
v -9.999981 3.3727 -96.43045
v -90.00006 1.563332 -95.64235
v -9.999981 3.344596 -96.41821
v -90.00006 1.310387 -95.53218
v -9.999981 3.336705 -96.41477
v -90.00006 1.239371 -95.50124
v -9.999981 3.248024 -96.37614
v -90.00006 0.4412392 -95.15362
v -9.999981 2.154653 -95.89992
v -90.00006 0.3197543 -95.1007
v -9.999981 1.117999 -95.4484
v -9.999981 0.9987431 -95.39645
v -90.00006 0.1913198 -95.04476
v -9.999981 0.7500072 -95.28812
v -90.00006 0.1636829 -95.03272
v -9.999981 0.09038676 -95.00082
v -90.00006 0.09039039 -95.0008
v -9.999981 -0.0990501 -95.0753
v -90.00006 -0.9527298 -95.41094
v -90.00006 -1.61453 -95.67116
v -9.999981 -0.1460511 -95.09378
v -90.00006 -2.037546 -95.83748
v -9.999981 -0.160039 -95.09928
v -90.00006 -2.163436 -95.88698
v -9.999981 -0.2657566 -95.14085
v -90.00006 -3.114899 -96.26109
v -9.999981 -1.47862 -95.61774
v -90.00006 -3.249662 -96.31407
v -9.999981 -2.480638 -96.01172
v -90.00006 -3.360997 -96.35785
v -9.999981 -3.471045 -96.40114
v -90.00006 -3.471042 -96.40112
v -9.999981 -3.518202 -96.50941
v -90.00006 -3.895453 -97.37553
v -9.999985 -3.62386 -96.75198
v -90.00006 -4.84637 -99.55875
v -9.999985 -3.918627 -97.42875
v -9.999985 -4.036511 -97.69939
v -90.00006 -4.89222 -99.66402
v -9.999985 -4.438472 -98.62227
v -90.00006 -4.936882 -99.76656
v -9.999985 -4.769444 -99.38215
v -90.00006 -4.973657 -99.851
v -9.999985 -4.999189 -99.90962
v -90.00006 -4.999184 -99.9096
v -90.00006 -4.999185 -99.90961
v -9.999985 -4.915964 -100.1213
v -90.00006 -4.250158 -101.8146
v -9.999985 -4.891466 -100.1836
v -90.00006 -4.02969 -102.3753
v -9.999985 -4.888966 -100.1899
v -90.00006 -4.007184 -102.4326
v -9.999985 -4.887806 -100.1929
v -90.00006 -3.996747 -102.4591
v -9.999985 -4.886342 -100.1966
v -90.00006 -3.983556 -102.4927
v -9.999985 -4.859157 -100.2658
v -90.00006 -3.738899 -103.1149
v -9.999985 -3.598873 -103.4711
v -90.00006 -3.598869 -103.471
v -9.999985 -3.598872 -103.4711
v -90.00006 -3.598869 -103.471
v -9.999985 -3.598872 -103.4711
v -9.999985 -3.598872 -103.4711
v -9.999985 -4.627121 -104.4628
v -9.999985 -7.197744 -106.9421
v -9.999985 -7.197744 -106.9421
v -9.999985 -7.197742 -106.9421
v -9.999985 -3.598872 -103.4711
v -9.999985 -3.598872 -103.4711
v -9.999985 -3.598872 -103.4711
v -90.00006 -3.598869 -103.471
v -90.00006 -3.598869 -103.471
v -90.00006 -3.598869 -103.471
v -9.999985 -3.598872 -103.4711
v -9.999985 -9.998377 -99.81924
v -9.999985 -3.598872 -103.4711
v -90.00006 -3.598869 -103.471
v -9.999985 -3.598872 -103.4711
v -50.00002 -3.598871 -103.471
v -90.00006 -3.598869 -103.471
v -50.00003 -7.197741 -106.9421
v -90.00002 -3.598869 -103.471
v -90.00006 -3.598869 -103.471
v -90.00006 -4.627116 -104.4628
v -90.00005 -9.998372 -99.81922
v -90.00006 -3.598869 -103.471
v -9.999985 -9.998377 -99.81924
v -90.00006 -7.197738 -106.9421
v -90.00005 -9.998372 -99.81922
v -90.00006 -4.999185 -99.90961
v -90.00006 -4.999184 -99.9096
v -50.00002 7.197746 -93.05791
v -9.999981 7.197743 -93.05791
v -9.999981 7.197742 -93.05791
v -9.999981 4.627121 -95.53723
v -50.00002 3.598875 -96.52895
v -9.999981 3.598871 -96.52896
v -90.00006 5.089579 -95.09119
v -90.00006 7.197748 -93.05789
v -90.00006 3.598877 -96.52894
v -9.999981 7.197743 -93.05791
v -9.999981 0.1807716 -90.00163
v -9.999981 -6.942093 -92.80226
v -9.999981 0.09038676 -95.00082
v -9.999981 0.7500072 -95.28812
v -9.999981 0.9987431 -95.39645
v -9.999981 1.117999 -95.4484
v -9.999981 2.154653 -95.89992
v -9.999981 3.248024 -96.37614
v -9.999981 3.336705 -96.41477
v -9.999981 3.344596 -96.41821
v -9.999981 3.3727 -96.43045
v -9.999981 3.598871 -96.52896
v -9.999981 -0.0990501 -95.0753
v -9.999981 -0.1460511 -95.09378
v -9.999981 -0.160039 -95.09928
v -9.999981 -0.2657566 -95.14085
v -9.999981 -1.47862 -95.61774
v -9.999981 -2.480638 -96.01172
v -9.999981 -3.471045 -96.40114
v -9.999981 -3.518202 -96.50941
v -9.999985 -3.62386 -96.75198
v -9.999985 -3.918627 -97.42875
v -9.999985 -9.998377 -99.81924
v -9.999985 -4.036511 -97.69939
v -9.999985 -4.438472 -98.62227
v -9.999985 -4.769444 -99.38215
v -9.999985 -4.999189 -99.90962
v -9.999985 -4.915964 -100.1213
v -9.999985 -4.891466 -100.1836
v -9.999985 -4.888966 -100.1899
v -9.999985 -4.887806 -100.1929
v -9.999985 -4.886342 -100.1966
v -9.999985 -4.859157 -100.2658
v -9.999985 -3.598873 -103.4711
v -9.999985 -3.598872 -103.4711
v -9.999985 -3.598872 -103.4711
v -9.999985 -7.197744 -106.9421
v -9.999981 7.197743 -93.05791
v -90.00005 0.1807771 -90.00161
v -9.999981 0.1807716 -90.00163
v -50.00002 7.197746 -93.05791
v -90.00005 -6.942089 -92.80225
v -9.999981 -6.942093 -92.80226
v -90.00005 -9.998372 -99.81922
v -9.999985 -9.998377 -99.81924
v -90.00006 7.197748 -93.05789
v -9.999985 -7.197742 -106.9421
v -50.00002 -3.598871 -103.471
v -9.999985 -3.598872 -103.4711
v -50.00003 -7.197741 -106.9421
v -90.00002 -3.598869 -103.471
v -90.00006 -7.197738 -106.9421
v -90.00006 -4.627116 -104.4628
v -90.00006 -3.598869 -103.471
v -90.00006 3.598877 -96.52894
v -90.00005 0.1807771 -90.00161
v -90.00006 5.089579 -95.09119
v -90.00005 0.1807771 -90.00161
v -90.00006 7.197748 -93.05789
v -90.00006 3.598877 -96.52894
v -90.00006 1.563332 -95.64235
v -90.00006 3.598876 -96.52894
v -90.00006 1.310387 -95.53218
v -90.00006 1.239371 -95.50124
v -90.00006 0.4412392 -95.15362
v -90.00006 0.3197543 -95.1007
v -90.00006 0.1913198 -95.04476
v -90.00006 0.1636829 -95.03272
v -90.00006 0.09039039 -95.0008
v -90.00005 -6.942089 -92.80225
v -90.00006 -0.9527298 -95.41094
v -90.00006 -1.61453 -95.67116
v -90.00006 -2.037546 -95.83748
v -90.00006 -2.163436 -95.88698
v -90.00006 -3.114899 -96.26109
v -90.00006 -3.249662 -96.31407
v -90.00006 -3.360997 -96.35785
v -90.00006 -3.471042 -96.40112
v -90.00006 -3.895453 -97.37553
v -90.00006 -4.84637 -99.55875
v -90.00006 -4.89222 -99.66402
v -90.00006 -4.936882 -99.76656
v -90.00006 -4.973657 -99.851
v -90.00006 -4.999184 -99.9096
v -90.00005 -9.998372 -99.81922
v -90.00006 -4.999185 -99.90961
v -90.00006 -4.250158 -101.8146
v -90.00006 -4.02969 -102.3753
v -90.00006 -4.007184 -102.4326
v -90.00006 -3.996747 -102.4591
v -90.00006 -3.983556 -102.4927
v -90.00006 -3.738899 -103.1149
v -90.00006 -3.598869 -103.471
v -90.00006 -4.627116 -104.4628
v -90.00006 -3.598869 -103.471
v -90.00006 -7.197738 -106.9421

vn 6.979699E-07 0.7197737 0.6942088
vn 5.453822E-07 0.7197737 0.6942088
vn 0.6507915 0.5464929 0.5270825
vn 1 -2.980232E-08 -1.639128E-07
vn 1 -2.980232E-08 -1.639128E-07
vn -2.274642E-07 -0.3993175 -0.9168128
vn 0.1414208 -0.7125397 -0.6872318
vn -2.562248E-07 0.5032589 -0.8641356
vn -5.052793E-07 -0.3993218 -0.9168109
vn -4.641577E-07 -0.3993226 -0.9168106
vn -5.028997E-07 -0.3993222 -0.9168107
vn -5.864835E-07 -0.3993213 -0.9168112
vn -6.449957E-07 -0.3993203 -0.9168115
vn -5.328006E-08 -0.3993257 -0.9168093
vn -3.408429E-07 -0.3993231 -0.9168103
vn -3.88911E-07 -0.3993226 -0.9168105
vn -3.717622E-07 -0.3993228 -0.9168106
vn -3.705994E-07 -0.3993228 -0.9168105
vn -3.845613E-07 -0.3993226 -0.9168106
vn -4.037561E-07 -0.3993229 -0.9168105
vn -3.979693E-07 -0.3993218 -0.9168109
vn -4.406561E-07 -0.3993203 -0.9168115
vn -3.301664E-07 -0.3993224 -0.9168106
vn -3.439825E-07 -0.3993232 -0.9168103
vn -3.396439E-07 -0.2564692 -0.9665526
vn -3.047049E-07 0.3275505 -0.9448336
vn -3.541147E-07 0.3659218 -0.9306456
vn -3.146265E-07 0.365921 -0.9306459
vn -2.949277E-07 0.3659208 -0.9306461
vn -1.41605E-07 0.3659188 -0.9306469
vn -5.714938E-08 0.3659176 -0.9306473
vn 1.590921E-07 0.365916 -0.9306479
vn -1.075151E-07 0.3659187 -0.9306469
vn -2.857485E-07 0.3659197 -0.9306464
vn -3.448515E-07 0.3659203 -0.9306463
vn -4.03588E-07 0.3659204 -0.9306462
vn -3.050122E-07 0.3659193 -0.9306465
vn -3.256691E-07 0.3659199 -0.9306464
vn -3.664994E-07 0.3659211 -0.9306459
vn -3.658749E-07 0.4263808 -0.9045438
vn -9.560647E-08 0.8884668 -0.4589412
vn -4.349733E-08 0.9168101 -0.3993234
vn -7.094241E-08 0.9168106 -0.3993225
vn -1.116304E-07 0.9168109 -0.3993219
vn -8.315401E-08 0.9168108 -0.3993218
vn -6.539992E-08 0.9168106 -0.3993222
vn 6.077426E-08 0.9168104 -0.3993227
vn -8.691192E-09 0.9168106 -0.3993223
vn 1.376647E-08 0.9168105 -0.3993227
vn 2.128399E-08 0.9168106 -0.3993223
vn 2.822164E-08 0.9168107 -0.3993224
vn 3.690633E-08 0.9168104 -0.3993227
vn 1.322764E-07 0.9775249 -0.2108201
vn 3.893858E-08 0.9168012 -0.3993441
vn 2.903858E-07 0.9306466 0.3659194
vn 2.453552E-07 0.9306461 0.3659205
vn 2.084911E-07 0.930646 0.365921
vn 1.005462E-07 0.9306455 0.3659221
vn 3.017386E-07 0.9306463 0.3659202
vn 5.901275E-07 0.930647 0.3659187
vn 8.69111E-07 0.9306479 0.3659161
vn 6.48499E-06 0.9306644 0.365874
vn 2.902252E-06 0.930654 0.3659004
vn -4.511018E-07 0.9306436 0.365927
vn -6.182839E-08 0.9306452 0.3659231
vn 2.757804E-07 0.9306461 0.3659204
vn 3.013813E-07 0.9306464 0.3659199
vn 3.01162E-07 0.9306465 0.3659196
vn 2.311811E-07 0.9306483 0.3659149
vn 2.159867E-07 0.9787933 0.2048506
vn 3.546475E-07 0.7197737 0.6942088
vn 3.546475E-07 0.7197737 0.6942088
vn 3.546475E-07 0.7197737 0.6942088
vn 1 -2.980232E-08 -1.639128E-07
vn -4.33645E-07 -0.9306462 -0.3659202
vn 1 -2.980232E-08 -1.639128E-07
vn -2.186259E-07 0.5947793 -0.8038892
vn 0.7603925 0.467467 0.4508634
vn 0.8262196 0.4054833 0.3910812
vn 0.07104936 0.7179548 0.6924544
vn 3.546478E-07 0.7197737 0.6942088
vn 3.546475E-07 0.7197737 0.6942088
vn 3.546471E-07 0.7197737 0.6942088
vn 0.103003 0.7159453 0.6905164
vn 1 -2.980232E-08 -1.639128E-07
vn 0.01266353 0.71972 0.694149
vn 3.546485E-07 0.7197737 0.6942088
vn 0.1414217 0.7125396 0.6872316
vn 3.546487E-07 0.7197691 0.6942136
vn -0.06004145 0.7184708 0.6929609
vn -3.633201E-07 -0.9306462 -0.3659202
vn 3.54651E-07 0.7197573 0.6942258
vn -1 5.027016E-06 4.983635E-06
vn -1 2.980232E-08 1.639128E-07
vn -1 -2.698067E-07 4.745552E-07
vn 0 0 0
vn -3.531293E-07 -0.9306463 -0.3659202
vn -3.17834E-07 -0.9306463 -0.3659202
vn -3.429386E-07 -0.9306464 -0.3659202
vn -1 -2.698067E-07 4.745552E-07
vn -1 -2.698067E-07 4.745552E-07
vn -1.490116E-07 0.6942088 -0.7197737
vn -1.490116E-07 0.6942087 -0.7197737
vn -1.490116E-07 0.6942088 -0.7197737
vn -1.490116E-07 0.6942088 -0.7197737
vn -1.490116E-07 0.6942088 -0.7197737
vn -1.490116E-07 0.6942088 -0.7197737
vn -1.490116E-07 0.6942088 -0.7197737
vn -1.490116E-07 0.6942088 -0.7197737
vn -1.490116E-07 0.6942088 -0.7197737
vn 1 -2.980232E-08 -1.639128E-07
vn 1 -2.980232E-08 -1.639128E-07
vn 1 -2.980232E-08 -1.639128E-07
vn 1 -2.980232E-08 -1.639128E-07
vn 1 -2.980232E-08 -1.639128E-07
vn 1 -2.980232E-08 -1.639128E-07
vn 1 -2.980232E-08 -1.639128E-07
vn 1 -2.980232E-08 -1.639128E-07
vn 1 -2.980232E-08 -1.639128E-07
vn 1 -2.980232E-08 -1.639128E-07
vn 1 -2.980232E-08 -1.639128E-07
vn 1 -2.980232E-08 -1.639128E-07
vn 1 -2.980232E-08 -1.639128E-07
vn 1 -2.980232E-08 -1.639128E-07
vn 1 -2.980232E-08 -1.639128E-07
vn 1 -2.980232E-08 -1.639128E-07
vn 1 -2.980232E-08 -1.639128E-07
vn 1 -2.980232E-08 -1.639128E-07
vn 1 -2.980232E-08 -1.639128E-07
vn 1 -2.980232E-08 -1.639128E-07
vn 1 -2.980232E-08 -1.639128E-07
vn 1 -2.980232E-08 -1.639128E-07
vn 1 -2.980232E-08 -1.639128E-07
vn 1 -2.980232E-08 -1.639128E-07
vn 1 -2.980232E-08 -1.639128E-07
vn 1 -2.980232E-08 -1.639128E-07
vn 1 -2.980232E-08 -1.639128E-07
vn 1 -2.980232E-08 -1.639128E-07
vn 1 -2.980232E-08 -1.639128E-07
vn 1 -2.980232E-08 -1.639128E-07
vn 1 -2.980232E-08 -1.639128E-07
vn 1 -2.980232E-08 -1.639128E-07
vn 1 -2.980232E-08 -1.639128E-07
vn 1 -2.980232E-08 -1.639128E-07
vn 1 -2.980232E-08 -1.639128E-07
vn 1 -2.980232E-08 -1.639128E-07
vn 1 -2.980232E-08 -1.639128E-07
vn 1 -2.980232E-08 -1.639128E-07
vn 5.056295E-07 0.3993222 0.9168108
vn 4.579022E-07 0.1546586 0.987968
vn 3.846598E-07 -0.1188441 0.9929129
vn 4.865785E-07 0.3993222 0.9168106
vn 2.050531E-07 -0.5892388 0.807959
vn 8.06868E-08 -0.7861309 0.6180602
vn -2.794751E-08 -0.9168106 0.3993222
vn -3.519291E-08 -0.9168107 0.3993222
vn 4.19919E-07 0.3993223 0.9168107
vn -1.490116E-07 0.6942088 -0.7197737
vn -1.490116E-07 0.6942088 -0.7197737
vn -1.490116E-07 0.6942088 -0.7197737
vn -1.490116E-07 0.6942087 -0.7197737
vn -1.490116E-07 0.6942087 -0.7197737
vn -1.490116E-07 0.6942087 -0.7197737
vn -1.581815E-07 0.6942088 -0.7197737
vn -1.581815E-07 0.6942087 -0.7197737
vn -0.2028034 -0.7048165 -0.6797827
vn -1 5.60102E-07 6.753772E-07
vn -1 -1.200022E-07 3.19234E-07
vn -1 -5.20869E-08 4.095737E-07
vn -1 -1.200022E-07 3.19234E-07
vn -1 -1.200022E-07 3.19234E-07
vn -1 1.617062E-07 4.667534E-07
vn -1 1.617064E-07 4.667534E-07
vn -1 1.617057E-07 4.667532E-07
vn -1 1.617065E-07 4.667534E-07
vn -1 1.617066E-07 4.667534E-07
vn -1 1.61706E-07 4.667534E-07
vn -1 1.617037E-07 4.667534E-07
vn -1 1.61709E-07 4.667534E-07
vn -1 -8.878607E-08 4.712823E-07
vn -1 -1.820533E-07 3.835702E-07
vn -1 -9.106846E-08 4.713231E-07
vn -1 -9.106817E-08 4.713235E-07
vn -1 -9.106785E-08 4.713243E-07
vn -1 -9.106808E-08 4.713239E-07
vn -1 -9.106811E-08 4.713238E-07
vn -1 -9.10682E-08 4.713237E-07
vn -1 -9.106864E-08 4.713233E-07
vn -1 -2.548198E-07 3.133882E-07
vn -1 -2.730384E-07 2.958168E-07
vn -1 -2.730386E-07 2.958167E-07
vn -1 -2.730378E-07 2.958169E-07
vn -1 -2.730395E-07 2.958164E-07
vn -1 -2.730387E-07 2.958166E-07
vn -1 -2.730383E-07 2.958168E-07
vn -1 -2.12738E-07 2.546287E-07
vn -1 -2.776086E-07 4.304205E-08
vn -1 -2.776087E-07 4.304187E-08
vn -1 -2.776088E-07 4.304152E-08
vn -1 -2.776059E-07 4.304823E-08
vn -1 -2.776092E-07 4.304085E-08
vn -1 -2.776089E-07 4.304134E-08
vn -1 -2.776083E-07 4.30427E-08
vn -1 -2.776077E-07 4.304376E-08
vn -1 -1.200022E-07 3.19234E-07
vn -1 -1.200022E-07 3.19234E-07
vn -1 -1.200022E-07 3.19234E-07

f 1//1 2//2 3//3
f 4//4 1//1 3//3
f 3//3 5//5 4//4
f 3//3 6//6 5//5
f 5//5 6//6 7//7
f 8//8 7//7 6//6
f 9//9 8//8 6//6
f 10//10 9//9 6//6
f 9//9 10//10 11//11
f 11//11 10//10 12//12
f 13//13 11//11 12//12
f 13//13 12//12 14//14
f 13//13 14//14 15//15
f 15//15 14//14 16//16
f 15//15 16//16 17//17
f 18//18 17//17 16//16
f 19//19 17//17 18//18
f 19//19 18//18 20//20
f 21//21 19//19 20//20
f 22//22 19//19 21//21
f 22//22 21//21 23//23
f 24//24 22//22 23//23
f 24//24 23//23 25//25
f 26//26 24//24 25//25
f 26//26 25//25 27//27
f 28//28 26//26 27//27
f 28//28 27//27 29//29
f 29//29 27//27 30//30
f 31//31 29//29 30//30
f 31//31 30//30 32//32
f 33//33 31//31 32//32
f 33//33 32//32 34//34
f 35//35 33//33 34//34
f 35//35 34//34 36//36
f 37//37 35//35 36//36
f 37//37 36//36 38//38
f 39//39 37//37 38//38
f 39//39 38//38 40//40
f 41//41 39//39 40//40
f 41//41 40//40 42//42
f 41//41 42//42 43//43
f 43//43 42//42 44//44
f 45//45 43//43 44//44
f 45//45 44//44 46//46
f 47//47 45//45 46//46
f 48//48 45//45 47//47
f 48//48 47//47 49//49
f 50//50 48//48 49//49
f 50//50 49//49 51//51
f 52//52 50//50 51//51
f 52//52 51//51 53//53
f 54//54 52//52 53//53
f 55//55 54//54 53//53
f 55//55 53//53 56//56
f 55//55 56//56 57//57
f 57//57 56//56 58//58
f 57//57 58//58 59//59
f 59//59 58//58 60//60
f 59//59 60//60 61//61
f 61//61 60//60 62//62
f 61//61 62//62 63//63
f 63//63 62//62 64//64
f 63//63 64//64 65//65
f 65//65 64//64 66//66
f 65//65 66//66 67//67
f 68//68 67//67 66//66
f 69//69 67//67 68//68
f 69//69 68//68 70//70
f 71//71 69//69 70//70
f 72//72 71//71 73//73
f 74//74 75//75 76//76
f 77//77 74//74 76//76
f 75//75 77//77 76//76
f 78//78 75//75 74//74
f 79//79 75//75 78//78
f 78//78 74//74 80//80
f 81//81 78//78 80//80
f 82//82 78//78 81//81
f 82//82 83//83 78//78
f 83//83 84//84 79//79
f 84//84 85//85 79//79
f 80//80 74//74 86//86
f 87//87 80//80 86//86
f 81//81 80//80 87//87
f 86//86 74//74 88//88
f 88//88 74//74 77//77
f 86//86 88//88 89//89
f 90//90 86//86 89//89
f 87//87 86//86 90//90
f 75//75 91//91 77//77
f 90//90 89//89 92//92
f 90//90 92//92 93//93
f 94//94 90//90 93//93
f 95//95 83//83 82//82
f 95//95 82//82 81//81
f 95//95 81//81 87//87
f 95//95 87//87 90//90
f 95//95 96//96 83//83
f 97//97 91//91 75//75
f 97//97 98//98 91//91
f 97//97 99//99 98//98
f 100//100 95//95 101//101
f 102//102 103//103 104//104
f 102//102 104//104 105//105
f 102//102 105//105 106//106
f 106//106 105//105 107//107
f 108//108 102//102 106//106
f 109//109 102//102 108//108
f 110//110 108//108 106//106
f 111//111 112//112 113//113
f 111//111 113//113 114//114
f 111//111 114//114 115//115
f 111//111 115//115 116//116
f 111//111 116//116 117//117
f 117//117 118//118 111//111
f 118//118 119//119 111//111
f 120//120 111//111 119//119
f 120//120 121//121 111//111
f 121//121 122//122 111//111
f 111//111 122//122 123//123
f 114//114 113//113 124//124
f 124//124 113//113 125//125
f 125//125 113//113 126//126
f 126//126 113//113 127//127
f 127//127 113//113 128//128
f 128//128 113//113 129//129
f 129//129 113//113 130//130
f 130//130 113//113 131//131
f 131//131 113//113 132//132
f 132//132 113//113 133//133
f 133//133 113//113 134//134
f 133//133 134//134 135//135
f 135//135 134//134 136//136
f 134//134 137//137 136//136
f 137//137 134//134 138//138
f 138//138 134//134 139//139
f 139//139 134//134 140//140
f 140//140 134//134 141//141
f 134//134 142//142 141//141
f 134//134 143//143 142//142
f 134//134 144//144 143//143
f 144//144 134//134 145//145
f 145//145 134//134 146//146
f 147//147 134//134 148//148
f 149//149 150//150 151//151
f 149//149 152//152 150//150
f 151//151 150//150 153//153
f 151//151 153//153 154//154
f 154//154 153//153 155//155
f 154//154 155//155 156//156
f 152//152 157//157 150//150
f 158//158 159//159 160//160
f 161//161 159//159 158//158
f 162//162 159//159 161//161
f 163//163 162//162 161//161
f 164//164 162//162 163//163
f 165//165 162//162 164//164
f 9//9 166//166 8//8
f 166//166 9//9 167//167
f 168//168 169//169 170//170
f 168//168 171//171 169//169
f 172//172 169//169 173//173
f 174//174 169//169 172//172
f 169//169 174//174 175//175
f 176//176 169//169 175//175
f 177//177 169//169 176//176
f 178//178 169//169 177//177
f 178//178 179//179 169//169
f 179//179 180//180 169//169
f 180//180 181//181 169//169
f 182//182 181//181 180//180
f 182//182 183//183 181//181
f 183//183 184//184 181//181
f 184//184 185//185 181//181
f 185//185 186//186 181//181
f 186//186 187//187 181//181
f 187//187 188//188 181//181
f 188//188 189//189 181//181
f 181//181 189//189 190//190
f 181//181 190//190 191//191
f 192//192 181//181 191//191
f 193//193 181//181 192//192
f 194//194 181//181 193//193
f 195//195 181//181 194//194
f 195//195 196//196 181//181
f 196//196 197//197 198//198
f 196//196 198//198 199//199
f 199//199 200//200 196//196
f 196//196 200//200 201//201
f 201//201 202//202 196//196
f 196//196 202//202 203//203
f 196//196 203//203 204//204
f 205//205 196//196 206//206
f 207//207 196//196 205//205
