v -103.8399 -184.1626 202.4045
v -103.8399 -95.87066 158.2586
v -103.8399 -184.1626 202.4045
v -103.8399 -184.1626 202.4045
v -102.4685 -185.6373 199.455
v -101.9199 -186.2272 198.2752
v -101.9199 -186.2272 198.2752
v -101.9199 -97.9353 154.1293
v -101.9199 -9.643394 109.9833
v -102.0941 -186.3053 198.119
v -103.4877 -10.34649 108.5771
v -102.1158 -186.315 198.0996
v -103.6825 -10.43385 108.4024
v -102.1218 -186.3178 198.0941
v -103.7372 -10.45838 108.3534
v -102.1901 -186.3484 198.0329
v -104.3519 -10.73406 107.802
v -103.0322 -186.7261 197.2775
v -104.4454 -10.77602 107.7181
v -103.8307 -187.0841 196.5614
v -103.9225 -187.1253 196.479
v -104.5444 -10.82039 107.6293
v -104.1141 -187.2112 196.3072
v -104.5657 -10.82993 107.6103
v -104.6221 -187.4391 195.8515
v -104.6221 -10.85525 107.5596
v -104.6218 -187.5301 195.6694
v -104.6205 -11.35651 106.5571
v -104.6195 -11.67454 105.9211
v -104.6217 -187.5527 195.6243
v -104.6189 -11.87781 105.5145
v -104.6217 -187.5594 195.6108
v -104.6187 -11.93831 105.3935
v -104.6216 -187.6102 195.5092
v -104.6172 -12.39552 104.4791
v -104.6197 -188.1931 194.3436
v -104.617 -12.46028 104.3496
v -104.6182 -188.6746 193.3806
v -104.6169 -12.51378 104.2426
v -104.6167 -189.1505 192.4287
v -104.6167 -12.56667 104.1368
v -104.5331 -189.1878 192.3541
v -103.8641 -12.90228 103.4656
v -104.3457 -189.2713 192.187
v -102.1779 -13.65427 101.9616
v -103.823 -189.5044 191.7208
v -103.614 -189.5977 191.5343
v -102.0966 -13.69052 101.8891
v -102.9012 -189.9155 190.8986
v -102.0174 -13.72584 101.8184
v -102.3143 -190.1772 190.3752
v -101.9522 -13.75492 101.7603
v -101.9069 -190.3589 190.0118
v -101.9069 -13.77511 101.7199
v -101.9069 -13.77511 101.7199
v -101.6795 -190.3588 190.0121
v -99.85994 -13.77382 101.7225
v -101.6125 -190.3587 190.0122
v -99.25744 -13.77344 101.7233
v -101.6057 -190.3587 190.0122
v -99.19593 -13.7734 101.7233
v -101.6025 -190.3587 190.0122
v -99.1674 -13.77338 101.7234
v -101.5985 -190.3587 190.0122
v -99.13136 -13.77335 101.7234
v -101.5242 -190.3587 190.0123
v -98.46275 -13.77293 101.7243
v -98.08007 -190.3565 190.0166
v -98.08007 -13.7727 101.7247
v -98.08007 -190.3565 190.0166
v -98.08007 -13.7727 101.7247
v -98.08007 -190.3565 190.0166
v -98.08007 -190.3565 190.0166
v -97.53152 -190.9464 188.8368
v -96.16014 -192.4212 185.8873
v -96.16014 -192.4212 185.8873
v -96.16014 -192.4212 185.8873
v -98.08007 -190.3565 190.0166
v -98.08007 -190.3565 190.0166
v -98.08007 -190.3565 190.0166
v -98.08007 -13.7727 101.7247
v -98.08007 -13.7727 101.7247
v -98.08007 -13.7727 101.7247
v -98.08007 -190.3565 190.0166
v -103.8138 -192.426 185.8777
v -98.08007 -190.3565 190.0166
v -98.08007 -13.7727 101.7247
v -98.08007 -190.3565 190.0166
v -98.08007 -102.0646 145.8707
v -98.08007 -13.7727 101.7247
v -96.16014 -104.1292 141.7414
v -98.08007 -13.77278 101.7248
v -98.08007 -13.7727 101.7247
v -97.53152 -14.36259 100.5449
v -103.8138 -15.84219 97.58578
v -98.08007 -13.7727 101.7247
v -103.8138 -192.426 185.8777
v -96.16014 -15.83734 97.59544
v -103.8138 -15.84219 97.58578
v -101.9069 -13.77511 101.7199
v -101.9069 -13.77511 101.7199
v -103.8399 -95.87066 158.2586
v -103.8399 -184.1626 202.4045
v -103.8399 -184.1626 202.4045
v -102.4685 -185.6373 199.455
v -101.9199 -97.9353 154.1293
v -101.9199 -186.2272 198.2752
v -102.7152 -8.788185 111.6937
v -103.8399 -7.578743 114.1126
v -101.9199 -9.643394 109.9833
v -103.8399 -184.1626 202.4045
v -109.2442 -186.5863 197.5571
v -109.2334 -190.0091 190.7114
v -104.6221 -187.4391 195.8515
v -104.1141 -187.2112 196.3072
v -103.9225 -187.1253 196.479
v -103.8307 -187.0841 196.5614
v -103.0322 -186.7261 197.2775
v -102.1901 -186.3484 198.0329
v -102.1218 -186.3178 198.0941
v -102.1158 -186.315 198.0996
v -102.0941 -186.3053 198.119
v -101.9199 -186.2272 198.2752
v -104.6218 -187.5301 195.6694
v -104.6217 -187.5527 195.6243
v -104.6217 -187.5594 195.6108
v -104.6216 -187.6102 195.5092
v -104.6197 -188.1931 194.3436
v -104.6182 -188.6746 193.3806
v -104.6167 -189.1505 192.4287
v -104.5331 -189.1878 192.3541
v -104.3457 -189.2713 192.187
v -103.823 -189.5044 191.7208
v -103.8138 -192.426 185.8777
v -103.614 -189.5977 191.5343
v -102.9012 -189.9155 190.8986
v -102.3143 -190.1772 190.3752
v -101.9069 -190.3589 190.0118
v -101.6795 -190.3588 190.0121
v -101.6125 -190.3587 190.0122
v -101.6057 -190.3587 190.0122
v -101.6025 -190.3587 190.0122
v -101.5985 -190.3587 190.0122
v -101.5242 -190.3587 190.0123
v -98.08007 -190.3565 190.0166
v -98.08007 -190.3565 190.0166
v -98.08007 -190.3565 190.0166
v -96.16014 -192.4212 185.8873
v -103.8399 -184.1626 202.4045
v -109.2442 -10.00247 109.2652
v -109.2442 -186.5863 197.5571
v -103.8399 -95.87066 158.2586
v -109.2334 -13.42529 102.4196
v -109.2334 -190.0091 190.7114
v -103.8138 -15.84219 97.58578
v -103.8138 -192.426 185.8777
v -103.8399 -7.578743 114.1126
v -96.16014 -192.4212 185.8873
v -98.08007 -102.0646 145.8707
v -98.08007 -190.3565 190.0166
v -96.16014 -104.1292 141.7414
v -98.08007 -13.77278 101.7248
v -96.16014 -15.83734 97.59544
v -97.53152 -14.36259 100.5449
v -98.08007 -13.7727 101.7247
v -101.9199 -9.643394 109.9833
v -109.2442 -10.00247 109.2652
v -102.7152 -8.788185 111.6937
v -109.2442 -10.00247 109.2652
v -103.8399 -7.578743 114.1126
v -101.9199 -9.643394 109.9833
v -103.4877 -10.34649 108.5771
v -101.9199 -9.643394 109.9833
v -103.6825 -10.43385 108.4024
v -103.7372 -10.45838 108.3534
v -104.3519 -10.73406 107.802
v -104.4454 -10.77602 107.7181
v -104.5444 -10.82039 107.6293
v -104.5657 -10.82993 107.6103
v -104.6221 -10.85525 107.5596
v -109.2334 -13.42529 102.4196
v -104.6205 -11.35651 106.5571
v -104.6195 -11.67454 105.9211
v -104.6189 -11.87781 105.5145
v -104.6187 -11.93831 105.3935
v -104.6172 -12.39552 104.4791
v -104.617 -12.46028 104.3496
v -104.6169 -12.51378 104.2426
v -104.6167 -12.56667 104.1368
v -103.8641 -12.90228 103.4656
v -102.1779 -13.65427 101.9616
v -102.0966 -13.69052 101.8891
v -102.0174 -13.72584 101.8184
v -101.9522 -13.75492 101.7603
v -101.9069 -13.77511 101.7199
v -103.8138 -15.84219 97.58578
v -101.9069 -13.77511 101.7199
v -99.85994 -13.77382 101.7225
v -99.25744 -13.77344 101.7233
v -99.19593 -13.7734 101.7233
v -99.1674 -13.77338 101.7234
v -99.13136 -13.77335 101.7234
v -98.46275 -13.77293 101.7243
v -98.08007 -13.7727 101.7247
v -97.53152 -14.36259 100.5449
v -98.08007 -13.7727 101.7247
v -96.16014 -15.83734 97.59544

vn -0.3839861 0.4129292 0.8258597
vn -0.3839861 0.4129294 0.8258596
vn -0.291544 -0.2685659 0.9180819
vn -2.980232E-08 -0.8944273 0.4472135
vn -2.980232E-08 -0.8944273 0.4472135
vn 0.7081068 -0.3157799 -0.6315598
vn 0.3801268 -0.5352704 -0.7543139
vn 0.9881415 0.06866773 0.1373353
vn 0.7081035 -0.3157811 -0.6315629
vn 0.708103 -0.3157814 -0.6315634
vn 0.7081032 -0.3157813 -0.6315632
vn 0.708104 -0.3157809 -0.6315627
vn 0.7081046 -0.3157805 -0.6315619
vn 0.7081006 -0.3157828 -0.6315654
vn 0.7081025 -0.3157817 -0.6315637
vn 0.7081029 -0.3157815 -0.6315634
vn 0.7081029 -0.3157816 -0.6315635
vn 0.7081028 -0.3157816 -0.6315635
vn 0.7081029 -0.3157815 -0.6315634
vn 0.7081028 -0.3157816 -0.6315636
vn 0.7081035 -0.3157812 -0.6315629
vn 0.7081046 -0.3157807 -0.6315619
vn 0.7081031 -0.3157814 -0.6315632
vn 0.7081025 -0.3157817 -0.6315638
vn 0.8065061 -0.2644041 -0.5288086
vn 0.99922 -0.01766053 -0.03532127
vn 0.9999991 0.0006318574 0.001263389
vn 0.999999 0.000631455 0.001262672
vn 0.999999 0.0006312918 0.00126239
vn 0.9999992 0.0006302196 0.001260588
vn 0.999999 0.0006295618 0.001259462
vn 0.999999 0.0006286158 0.001258053
vn 0.999999 0.0006301195 0.001260464
vn 0.999999 0.0006308079 0.001261443
vn 0.9999991 0.0006311191 0.001261933
vn 0.999999 0.0006312106 0.001261985
vn 0.999999 0.0006306099 0.001261003
vn 0.9999991 0.0006309235 0.001261585
vn 0.999999 0.0006314993 0.001262645
vn 0.9977378 0.03006476 0.06012916
vn 0.7512895 0.2951489 0.5902979
vn 0.7061099 0.3166729 0.633346
vn 0.7061092 0.3166733 0.6333467
vn 0.7061087 0.3166736 0.6333471
vn 0.7061087 0.3166735 0.6333471
vn 0.706109 0.3166734 0.6333468
vn 0.7061094 0.3166731 0.6333465
vn 0.7061091 0.3166733 0.6333468
vn 0.7061094 0.3166732 0.6333466
vn 0.7061091 0.3166732 0.6333467
vn 0.7061092 0.3166733 0.6333468
vn 0.7061094 0.3166731 0.6333464
vn 0.55272 0.372693 0.7453864
vn 0.7061259 0.3166657 0.6333318
vn -0.001409811 0.447213 0.8944265
vn -0.0014111 0.447213 0.8944263
vn -0.001411545 0.4472131 0.8944265
vn -0.001412755 0.4472131 0.8944263
vn -0.001410692 0.447213 0.8944265
vn -0.001409082 0.4472128 0.8944267
vn -0.001406341 0.4472125 0.8944266
vn -0.001361096 0.4472075 0.8944293
vn -0.001389472 0.4472107 0.8944277
vn -0.001417986 0.4472136 0.8944261
vn -0.001413869 0.4472133 0.8944263
vn -0.00141099 0.447213 0.8944264
vn -0.001410375 0.447213 0.8944264
vn -0.001410105 0.447213 0.8944265
vn -0.00140508 0.4472131 0.8944265
vn 0.1661258 0.4409993 0.8819989
vn -0.3839861 0.4129295 0.8258595
vn -0.3839861 0.4129295 0.8258595
vn -0.3839861 0.4129295 0.8258595
vn -2.980232E-08 -0.8944273 0.4472135
vn 0.001410747 -0.4472128 -0.8944265
vn -2.980232E-08 -0.8944273 0.4472135
vn 0.9654113 0.116603 0.2332059
vn -0.2493851 -0.4119328 0.8764237
vn -0.2163179 -0.50637 0.8347431
vn -0.3830156 0.3483378 0.8555465
vn -0.3839861 0.4129295 0.8258595
vn -0.3839861 0.4129295 0.8258595
vn -0.3839861 0.4129295 0.8258595
vn -0.3819436 0.3186048 0.8675311
vn -2.980232E-08 -0.8944273 0.4472135
vn -0.38395 0.4015711 0.8314584
vn -0.3839861 0.4129295 0.8258595
vn -0.3801268 0.2822883 0.8808047
vn -0.3839922 0.4129284 0.8258573
vn -0.3832991 0.4658865 0.7975159
vn 0.001410724 -0.4472129 -0.8944264
vn -0.3840079 0.4129255 0.8258514
vn -2.636119E-06 0.8944302 -0.4472078
vn 2.980232E-08 0.8944273 -0.4472135
vn -3.686955E-07 0.8944272 -0.4472137
vn 0 0 0
vn 0.001410664 -0.4472129 -0.8944265
vn 0.001410692 -0.447213 -0.8944265
vn 0.001410687 -0.447213 -0.8944265
vn -3.686955E-07 0.8944272 -0.4472137
vn -3.686955E-07 0.8944272 -0.4472137
vn 0.9233389 0.1717238 0.3434476
vn 0.9233389 0.1717238 0.3434476
vn 0.9233389 0.1717238 0.3434476
vn 0.9233389 0.1717238 0.3434476
vn 0.9233389 0.1717238 0.3434476
vn 0.9233389 0.1717238 0.3434476
vn 0.9233389 0.1717238 0.3434476
vn 0.9233389 0.1717238 0.3434476
vn 0.9233389 0.1717238 0.3434476
vn -2.980232E-08 -0.8944273 0.4472135
vn -2.980232E-08 -0.8944273 0.4472135
vn -2.980232E-08 -0.8944273 0.4472135
vn -2.980232E-08 -0.8944273 0.4472135
vn -2.980232E-08 -0.8944273 0.4472135
vn -2.980232E-08 -0.8944273 0.4472135
vn -2.980232E-08 -0.8944273 0.4472135
vn -2.980232E-08 -0.8944273 0.4472135
vn -2.980232E-08 -0.8944273 0.4472135
vn -2.980232E-08 -0.8944273 0.4472135
vn -2.980232E-08 -0.8944273 0.4472135
vn -2.980232E-08 -0.8944273 0.4472135
vn -2.980232E-08 -0.8944273 0.4472135
vn -2.980232E-08 -0.8944272 0.4472135
vn -2.980232E-08 -0.8944273 0.4472135
vn -2.980232E-08 -0.8944273 0.4472135
vn -2.980232E-08 -0.8944272 0.4472135
vn -2.980232E-08 -0.8944273 0.4472135
vn -2.980232E-08 -0.8944273 0.4472135
vn -2.980232E-08 -0.8944273 0.4472135
vn -2.980232E-08 -0.8944272 0.4472135
vn -2.980232E-08 -0.8944273 0.4472135
vn -2.980232E-08 -0.8944273 0.4472135
vn -2.980232E-08 -0.8944273 0.4472135
vn -2.980232E-08 -0.8944273 0.4472135
vn -2.980232E-08 -0.8944273 0.4472135
vn -2.980232E-08 -0.8944273 0.4472135
vn -2.980232E-08 -0.8944273 0.4472135
vn -2.980232E-08 -0.8944273 0.4472135
vn -2.980232E-08 -0.8944273 0.4472135
vn -2.980232E-08 -0.8944273 0.4472135
vn -2.980232E-08 -0.8944272 0.4472135
vn -2.980232E-08 -0.8944273 0.4472135
vn -2.980232E-08 -0.8944272 0.4472135
vn -2.980232E-08 -0.8944272 0.4472135
vn -2.980232E-08 -0.8944273 0.4472135
vn -2.980232E-08 -0.8944272 0.4472135
vn -2.980232E-08 -0.8944272 0.4472135
vn -0.7081033 0.3157813 0.6315632
vn -0.8635682 0.2254992 0.450999
vn -0.9678937 0.1124114 0.2248231
vn -0.7081032 0.3157812 0.6315631
vn -0.9671809 -0.1136322 -0.2272643
vn -0.8621426 -0.2265878 -0.4531758
vn -0.706109 -0.3166733 -0.6333469
vn -0.706109 -0.3166733 -0.6333469
vn -0.7081031 0.3157814 0.6315632
vn 0.9233389 0.1717238 0.3434476
vn 0.9233389 0.1717238 0.3434476
vn 0.9233389 0.1717238 0.3434476
vn 0.9233389 0.1717238 0.3434476
vn 0.9233389 0.1717238 0.3434476
vn 0.9233389 0.1717238 0.3434476
vn 0.9233389 0.1717238 0.3434476
vn 0.9233389 0.1717238 0.3434476
vn 0.3760066 -0.2229561 -0.899394
vn -2.531028E-07 0.8944276 -0.4472129
vn -1.694466E-07 0.8944272 -0.4472136
vn -2.288051E-07 0.8944273 -0.4472135
vn -1.694466E-07 0.8944272 -0.4472136
vn -1.694466E-07 0.8944272 -0.4472136
vn -2.040982E-07 0.8944274 -0.4472133
vn -2.040981E-07 0.8944274 -0.4472133
vn -2.040982E-07 0.8944274 -0.4472133
vn -2.040981E-07 0.8944274 -0.4472133
vn -2.04098E-07 0.8944274 -0.4472133
vn -2.040983E-07 0.8944274 -0.4472133
vn -2.04099E-07 0.8944274 -0.4472134
vn -2.040971E-07 0.8944274 -0.4472133
vn -2.996465E-07 0.8944273 -0.4472135
vn -2.519783E-07 0.8944272 -0.4472136
vn -3.005167E-07 0.8944273 -0.4472136
vn -3.00517E-07 0.8944273 -0.4472136
vn -3.005175E-07 0.8944273 -0.4472136
vn -3.005172E-07 0.8944273 -0.4472136
vn -3.005172E-07 0.8944273 -0.4472136
vn -3.005172E-07 0.8944273 -0.4472136
vn -3.005169E-07 0.8944273 -0.4472136
vn -2.131586E-07 0.8944272 -0.4472137
vn -2.034395E-07 0.8944272 -0.4472138
vn -2.034394E-07 0.8944272 -0.4472138
vn -2.034393E-07 0.8944272 -0.4472138
vn -2.034395E-07 0.8944272 -0.4472138
vn -2.034394E-07 0.8944272 -0.4472138
vn -2.034394E-07 0.8944272 -0.4472138
vn -1.431007E-07 0.8944272 -0.4472137
vn 3.026833E-08 0.8944272 -0.4472138
vn 3.026847E-08 0.8944272 -0.4472138
vn 3.026874E-08 0.8944272 -0.4472138
vn 3.026356E-08 0.8944272 -0.4472138
vn 3.026922E-08 0.8944272 -0.4472138
vn 3.026889E-08 0.8944272 -0.4472138
vn 3.026786E-08 0.8944272 -0.4472138
vn 3.026708E-08 0.8944271 -0.4472138
vn -1.694466E-07 0.8944272 -0.4472136
vn -1.694466E-07 0.8944272 -0.4472136
vn -1.694466E-07 0.8944272 -0.4472136

f 1//1 2//2 3//3
f 4//4 1//1 3//3
f 3//3 5//5 4//4
f 3//3 6//6 5//5
f 5//5 6//6 7//7
f 8//8 7//7 6//6
f 9//9 8//8 6//6
f 10//10 9//9 6//6
f 9//9 10//10 11//11
f 11//11 10//10 12//12
f 13//13 11//11 12//12
f 13//13 12//12 14//14
f 13//13 14//14 15//15
f 15//15 14//14 16//16
f 15//15 16//16 17//17
f 18//18 17//17 16//16
f 19//19 17//17 18//18
f 19//19 18//18 20//20
f 21//21 19//19 20//20
f 22//22 19//19 21//21
f 22//22 21//21 23//23
f 24//24 22//22 23//23
f 24//24 23//23 25//25
f 26//26 24//24 25//25
f 26//26 25//25 27//27
f 28//28 26//26 27//27
f 28//28 27//27 29//29
f 29//29 27//27 30//30
f 31//31 29//29 30//30
f 31//31 30//30 32//32
f 33//33 31//31 32//32
f 33//33 32//32 34//34
f 35//35 33//33 34//34
f 35//35 34//34 36//36
f 37//37 35//35 36//36
f 37//37 36//36 38//38
f 39//39 37//37 38//38
f 39//39 38//38 40//40
f 41//41 39//39 40//40
f 41//41 40//40 42//42
f 41//41 42//42 43//43
f 43//43 42//42 44//44
f 45//45 43//43 44//44
f 45//45 44//44 46//46
f 47//47 45//45 46//46
f 48//48 45//45 47//47
f 48//48 47//47 49//49
f 50//50 48//48 49//49
f 50//50 49//49 51//51
f 52//52 50//50 51//51
f 52//52 51//51 53//53
f 54//54 52//52 53//53
f 55//55 54//54 53//53
f 55//55 53//53 56//56
f 55//55 56//56 57//57
f 57//57 56//56 58//58
f 57//57 58//58 59//59
f 59//59 58//58 60//60
f 59//59 60//60 61//61
f 61//61 60//60 62//62
f 61//61 62//62 63//63
f 63//63 62//62 64//64
f 63//63 64//64 65//65
f 65//65 64//64 66//66
f 65//65 66//66 67//67
f 68//68 67//67 66//66
f 69//69 67//67 68//68
f 69//69 68//68 70//70
f 71//71 69//69 70//70
f 72//72 71//71 73//73
f 74//74 75//75 76//76
f 77//77 74//74 76//76
f 75//75 77//77 76//76
f 78//78 75//75 74//74
f 79//79 75//75 78//78
f 78//78 74//74 80//80
f 81//81 78//78 80//80
f 82//82 78//78 81//81
f 82//82 83//83 78//78
f 83//83 84//84 79//79
f 84//84 85//85 79//79
f 80//80 74//74 86//86
f 87//87 80//80 86//86
f 81//81 80//80 87//87
f 86//86 74//74 88//88
f 88//88 74//74 77//77
f 86//86 88//88 89//89
f 90//90 86//86 89//89
f 87//87 86//86 90//90
f 75//75 91//91 77//77
f 90//90 89//89 92//92
f 90//90 92//92 93//93
f 94//94 90//90 93//93
f 95//95 83//83 82//82
f 95//95 82//82 81//81
f 95//95 81//81 87//87
f 95//95 87//87 90//90
f 95//95 96//96 83//83
f 97//97 91//91 75//75
f 97//97 98//98 91//91
f 97//97 99//99 98//98
f 100//100 95//95 101//101
f 102//102 103//103 104//104
f 102//102 104//104 105//105
f 102//102 105//105 106//106
f 106//106 105//105 107//107
f 108//108 102//102 106//106
f 109//109 102//102 108//108
f 110//110 108//108 106//106
f 111//111 112//112 113//113
f 111//111 113//113 114//114
f 111//111 114//114 115//115
f 111//111 115//115 116//116
f 111//111 116//116 117//117
f 117//117 118//118 111//111
f 118//118 119//119 111//111
f 120//120 111//111 119//119
f 120//120 121//121 111//111
f 121//121 122//122 111//111
f 111//111 122//122 123//123
f 114//114 113//113 124//124
f 124//124 113//113 125//125
f 125//125 113//113 126//126
f 126//126 113//113 127//127
f 127//127 113//113 128//128
f 128//128 113//113 129//129
f 129//129 113//113 130//130
f 130//130 113//113 131//131
f 131//131 113//113 132//132
f 132//132 113//113 133//133
f 133//133 113//113 134//134
f 133//133 134//134 135//135
f 135//135 134//134 136//136
f 134//134 137//137 136//136
f 137//137 134//134 138//138
f 138//138 134//134 139//139
f 139//139 134//134 140//140
f 140//140 134//134 141//141
f 134//134 142//142 141//141
f 134//134 143//143 142//142
f 134//134 144//144 143//143
f 144//144 134//134 145//145
f 145//145 134//134 146//146
f 147//147 134//134 148//148
f 149//149 150//150 151//151
f 149//149 152//152 150//150
f 151//151 150//150 153//153
f 151//151 153//153 154//154
f 154//154 153//153 155//155
f 154//154 155//155 156//156
f 152//152 157//157 150//150
f 158//158 159//159 160//160
f 161//161 159//159 158//158
f 162//162 159//159 161//161
f 163//163 162//162 161//161
f 164//164 162//162 163//163
f 165//165 162//162 164//164
f 9//9 166//166 8//8
f 166//166 9//9 167//167
f 168//168 169//169 170//170
f 168//168 171//171 169//169
f 172//172 169//169 173//173
f 174//174 169//169 172//172
f 169//169 174//174 175//175
f 176//176 169//169 175//175
f 177//177 169//169 176//176
f 178//178 169//169 177//177
f 178//178 179//179 169//169
f 179//179 180//180 169//169
f 180//180 181//181 169//169
f 182//182 181//181 180//180
f 182//182 183//183 181//181
f 183//183 184//184 181//181
f 184//184 185//185 181//181
f 185//185 186//186 181//181
f 186//186 187//187 181//181
f 187//187 188//188 181//181
f 188//188 189//189 181//181
f 181//181 189//189 190//190
f 181//181 190//190 191//191
f 192//192 181//181 191//191
f 193//193 181//181 192//192
f 194//194 181//181 193//193
f 195//195 181//181 194//194
f 195//195 196//196 181//181
f 196//196 197//197 198//198
f 196//196 198//198 199//199
f 199//199 200//200 196//196
f 196//196 200//200 201//201
f 201//201 202//202 196//196
f 196//196 202//202 203//203
f 196//196 203//203 204//204
f 205//205 196//196 206//206
f 207//207 196//196 205//205
