v 9.488944 -7.532799 -92.70511
v 9.488947 -98.58864 -47.17717
v 9.488944 -7.532799 -92.70511
v 9.488942 -7.532799 -92.70511
v 6.100036 -8.036873 -93.71326
v 4.744473 -8.238503 -94.11652
v 4.744473 -8.238503 -94.11652
v 4.744475 -99.29434 -48.58857
v 4.744476 -190.3502 -3.060631
v 4.726821 -8.348541 -94.3366
v 4.585618 -191.3406 -5.041389
v 4.724629 -8.362213 -94.36395
v 4.565876 -191.4636 -5.287525
v 4.724013 -8.366058 -94.37163
v 4.560335 -191.4982 -5.356628
v 4.717092 -8.409203 -94.45792
v 4.498046 -191.8865 -6.133282
v 4.631763 -8.941177 -95.52187
v 4.488566 -191.9456 -6.251495
v 4.550861 -9.445549 -96.53062
v 4.541554 -9.503571 -96.64667
v 4.478541 -192.0081 -6.376472
v 4.522142 -9.624596 -96.8887
v 4.476385 -192.0215 -6.403366
v 4.470665 -9.945526 -97.53057
v 4.470665 -192.0572 -6.474686
v 4.3168 -10.00513 -97.64977
v 3.623422 -192.3854 -7.131039
v 3.085895 -192.5936 -7.547459
v 4.278623 -10.01991 -97.67934
v 2.742314 -192.7267 -7.813629
v 4.267262 -10.02431 -97.68814
v 2.640064 -192.7663 -7.892841
v 4.181397 -10.05757 -97.75467
v 1.867268 -193.0656 -8.491524
v 3.196285 -10.43916 -98.51782
v 1.757811 -193.108 -8.576317
v 2.382427 -10.7544 -99.14832
v 1.667382 -193.1431 -8.646374
v 1.577998 -11.06599 -99.7715
v 1.578001 -193.1777 -8.715614
v 1.460209 -11.06221 -99.76395
v 0.5178995 -193.1437 -8.647598
v 1.196295 -11.05375 -99.74701
v -1.85733 -193.0675 -8.495205
v 0.4600159 -11.03013 -99.69977
v 0.1655643 -11.02068 -99.68088
v -1.971856 -193.0638 -8.487854
v -0.8384645 -10.98847 -99.61646
v -2.083413 -193.0602 -8.480698
v -1.665174 -10.96195 -99.56342
v -2.175272 -193.0573 -8.474804
v -2.239035 -10.94354 -99.5266
v -2.239032 -193.0552 -8.470715
v -2.239033 -193.0552 -8.470715
v -2.387941 -10.86666 -99.37283
v -3.579186 -192.3633 -7.086784
v -2.431769 -10.84402 -99.32757
v -3.973644 -192.1596 -6.67944
v -2.436244 -10.84171 -99.32295
v -4.013912 -192.1388 -6.637856
v -2.438318 -10.84064 -99.3208
v -4.032587 -192.1292 -6.618572
v -2.440942 -10.83929 -99.3181
v -4.056187 -192.117 -6.5942
v -2.489578 -10.81418 -99.26787
v -4.493924 -191.891 -6.142166
v -4.744468 -9.649902 -96.93933
v -4.744469 -191.7616 -5.883438
v -4.74447 -9.649902 -96.93932
v -4.744469 -191.7616 -5.883438
v -4.744471 -9.649902 -96.93932
v -4.74447 -9.649902 -96.93932
v -6.100034 -9.851532 -97.34258
v -9.488942 -10.35561 -98.35072
v -9.488942 -10.35561 -98.35072
v -9.48894 -10.35561 -98.35072
v -4.744471 -9.649902 -96.93932
v -4.74447 -9.649902 -96.93932
v -4.744471 -9.649902 -96.93932
v -4.744469 -191.7616 -5.883438
v -4.744469 -191.7616 -5.883438
v -4.744469 -191.7616 -5.883438
v -4.74447 -9.649902 -96.93932
v -4.478071 -12.94288 -103.5253
v -4.744471 -9.649902 -96.93932
v -4.744469 -191.7616 -5.883438
v -4.744471 -9.649902 -96.93932
v -4.74447 -100.7058 -51.41138
v -4.744469 -191.7616 -5.883438
v -9.488939 -101.4115 -52.82278
v -4.744469 -191.7615 -5.883484
v -4.744469 -191.7616 -5.883438
v -6.10003 -191.9632 -6.286697
v -4.478068 -195.0546 -12.4694
v -4.744469 -191.7616 -5.883438
v -4.478071 -12.94288 -103.5253
v -9.488938 -192.4673 -7.294842
v -4.478068 -195.0546 -12.4694
v -2.239033 -193.0552 -8.470715
v -2.239032 -193.0552 -8.470715
v 9.488947 -98.58864 -47.17717
v 9.488944 -7.532799 -92.70511
v 9.488942 -7.532799 -92.70511
v 6.100036 -8.036873 -93.71326
v 4.744475 -99.29434 -48.58857
v 4.744473 -8.238503 -94.11652
v 6.709702 -190.0579 -2.476006
v 9.488948 -189.6445 -1.649227
v 4.744476 -190.3502 -3.060631
v 9.488944 -7.532799 -92.70511
v 8.941323 -10.94685 -99.53323
v 3.155995 -13.18778 -104.0151
v 4.470665 -9.945526 -97.53057
v 4.522142 -9.624596 -96.8887
v 4.541554 -9.503571 -96.64667
v 4.550861 -9.445549 -96.53062
v 4.631763 -8.941177 -95.52187
v 4.717092 -8.409203 -94.45792
v 4.724013 -8.366058 -94.37163
v 4.724629 -8.362213 -94.36395
v 4.726821 -8.348541 -94.3366
v 4.744473 -8.238503 -94.11652
v 4.3168 -10.00513 -97.64977
v 4.278623 -10.01991 -97.67934
v 4.267262 -10.02431 -97.68814
v 4.181397 -10.05757 -97.75467
v 3.196285 -10.43916 -98.51782
v 2.382427 -10.7544 -99.14832
v 1.577998 -11.06599 -99.7715
v 1.460209 -11.06221 -99.76395
v 1.196295 -11.05375 -99.74701
v 0.4600159 -11.03013 -99.69977
v -4.478071 -12.94288 -103.5253
v 0.1655643 -11.02068 -99.68088
v -0.8384645 -10.98847 -99.61646
v -1.665174 -10.96195 -99.56342
v -2.239035 -10.94354 -99.5266
v -2.387941 -10.86666 -99.37283
v -2.431769 -10.84402 -99.32757
v -2.436244 -10.84171 -99.32295
v -2.438318 -10.84064 -99.3208
v -2.440942 -10.83929 -99.3181
v -2.489578 -10.81418 -99.26787
v -4.744468 -9.649902 -96.93933
v -4.74447 -9.649902 -96.93932
v -4.74447 -9.649902 -96.93932
v -9.488942 -10.35561 -98.35072
v 9.488944 -7.532799 -92.70511
v 8.941327 -193.0585 -8.477345
v 8.941323 -10.94685 -99.53323
v 9.488947 -98.58864 -47.17717
v 3.155998 -195.2995 -12.9592
v 3.155995 -13.18778 -104.0151
v -4.478068 -195.0546 -12.4694
v -4.478071 -12.94288 -103.5253
v 9.488948 -189.6445 -1.649227
v -9.48894 -10.35561 -98.35072
v -4.74447 -100.7058 -51.41138
v -4.744471 -9.649902 -96.93932
v -9.488939 -101.4115 -52.82278
v -4.744469 -191.7615 -5.883484
v -9.488938 -192.4673 -7.294842
v -6.10003 -191.9632 -6.286697
v -4.744469 -191.7616 -5.883438
v 4.744476 -190.3502 -3.060631
v 8.941327 -193.0585 -8.477345
v 6.709702 -190.0579 -2.476006
v 8.941327 -193.0585 -8.477345
v 9.488948 -189.6445 -1.649227
v 4.744476 -190.3502 -3.060631
v 4.585618 -191.3406 -5.041389
v 4.744476 -190.3502 -3.060631
v 4.565876 -191.4636 -5.287525
v 4.560335 -191.4982 -5.356628
v 4.498046 -191.8865 -6.133282
v 4.488566 -191.9456 -6.251495
v 4.478541 -192.0081 -6.376472
v 4.476385 -192.0215 -6.403366
v 4.470665 -192.0572 -6.474686
v 3.155998 -195.2995 -12.9592
v 3.623422 -192.3854 -7.131039
v 3.085895 -192.5936 -7.547459
v 2.742314 -192.7267 -7.813629
v 2.640064 -192.7663 -7.892841
v 1.867268 -193.0656 -8.491524
v 1.757811 -193.108 -8.576317
v 1.667382 -193.1431 -8.646374
v 1.578001 -193.1777 -8.715614
v 0.5178995 -193.1437 -8.647598
v -1.85733 -193.0675 -8.495205
v -1.971856 -193.0638 -8.487854
v -2.083413 -193.0602 -8.480698
v -2.175272 -193.0573 -8.474804
v -2.239032 -193.0552 -8.470715
v -4.478068 -195.0546 -12.4694
v -2.239033 -193.0552 -8.470715
v -3.579186 -192.3633 -7.086784
v -3.973644 -192.1596 -6.67944
v -4.013912 -192.1388 -6.637856
v -4.032587 -192.1292 -6.618572
v -4.056187 -192.117 -6.5942
v -4.493924 -191.891 -6.142166
v -4.744469 -191.7616 -5.883438
v -6.10003 -191.9632 -6.286697
v -4.744469 -191.7616 -5.883438
v -9.488938 -192.4673 -7.294842

vn 0.9488928 0.1411407 0.2822801
vn 0.9488928 0.1411406 0.2822802
vn 0.7204531 0.6892471 -0.07671965
vn 1.490116E-08 0.8944272 -0.4472138
vn 1.490116E-08 0.8944272 -0.4472138
vn -0.9974368 0.03200026 0.06400066
vn -0.9393561 -0.01323095 -0.3426888
vn -0.5320687 0.3786561 0.7573126
vn -0.9974371 0.03199795 0.06399666
vn -0.9974372 0.03199761 0.06399589
vn -0.9974372 0.03199773 0.06399621
vn -0.9974371 0.03199811 0.06399716
vn -0.997437 0.03199853 0.06399813
vn -0.9974374 0.03199647 0.06399269
vn -0.9974372 0.03199745 0.0639953
vn -0.9974372 0.03199765 0.06399579
vn -0.9974373 0.0319976 0.06399566
vn -0.9974372 0.03199756 0.06399558
vn -0.9974372 0.03199768 0.06399585
vn -0.9974372 0.03199751 0.06399555
vn -0.9974371 0.03199803 0.06399659
vn -0.9974369 0.0319987 0.06399801
vn -0.9974371 0.03199782 0.063996
vn -0.9974372 0.03199742 0.06399523
vn -0.9752339 0.09891313 0.1978267
vn -0.6850687 0.3257853 0.651571
vn -0.6546994 0.3380439 0.6760882
vn -0.6547 0.3380436 0.6760876
vn -0.6547003 0.3380436 0.6760874
vn -0.6547019 0.3380431 0.6760862
vn -0.6547028 0.3380428 0.6760854
vn -0.6547041 0.3380425 0.6760843
vn -0.654702 0.3380431 0.6760861
vn -0.654701 0.3380432 0.6760868
vn -0.6547007 0.3380434 0.6760873
vn -0.6547006 0.3380433 0.6760873
vn -0.6547014 0.3380431 0.6760865
vn -0.654701 0.3380433 0.676087
vn -0.6547 0.3380436 0.6760877
vn -0.6035294 0.3565814 0.7131634
vn 0.005585394 0.4472066 0.8944134
vn 0.07154846 0.4460675 0.8921349
vn 0.07154953 0.4460674 0.8921349
vn 0.07155023 0.4460674 0.8921349
vn 0.07155022 0.4460674 0.8921348
vn 0.07154979 0.4460674 0.8921348
vn 0.07154923 0.4460675 0.8921348
vn 0.07154969 0.4460675 0.8921348
vn 0.07154933 0.4460675 0.8921349
vn 0.07154965 0.4460675 0.8921348
vn 0.07154965 0.4460675 0.8921349
vn 0.07154921 0.4460675 0.8921348
vn 0.2667069 0.4310147 0.862029
vn 0.07152599 0.4460683 0.8921363
vn 0.7558877 0.2927915 0.5855827
vn 0.7558885 0.292791 0.5855818
vn 0.7558889 0.2927909 0.5855815
vn 0.7558896 0.2927904 0.5855807
vn 0.7558883 0.2927913 0.5855821
vn 0.7558873 0.2927921 0.5855831
vn 0.7558854 0.2927932 0.5855847
vn 0.7558558 0.2928136 0.5856128
vn 0.7558745 0.2928008 0.5855953
vn 0.7558931 0.2927881 0.5855775
vn 0.7558904 0.2927899 0.5855801
vn 0.7558885 0.2927911 0.5855818
vn 0.755888 0.2927914 0.5855823
vn 0.7558879 0.2927915 0.5855824
vn 0.7558846 0.2927931 0.5855859
vn 0.6355337 0.3452818 0.6905633
vn 0.9488928 0.1411404 0.2822803
vn 0.9488928 0.1411404 0.2822803
vn 0.9488928 0.1411404 0.2822803
vn 1.490116E-08 0.8944272 -0.4472138
vn -0.7558883 -0.2927914 -0.585582
vn 1.490116E-08 0.8944272 -0.4472138
vn -0.436241 0.4024161 0.8048324
vn 0.6162716 0.7717811 -0.1567271
vn 0.5345572 0.8185043 -0.2104746
vn 0.9464948 0.2043319 0.2497928
vn 0.9488928 0.1411404 0.2822803
vn 0.9488928 0.1411404 0.2822803
vn 0.9488928 0.1411404 0.2822803
vn 0.9438457 0.2325181 0.2347146
vn 1.490116E-08 0.8944272 -0.4472138
vn 0.9488149 0.1524578 0.2765994
vn 0.9488928 0.1411404 0.2822803
vn 0.9393559 0.2662129 0.2161976
vn 0.9488949 0.1411376 0.2822747
vn 0.9471828 0.08718008 0.3086172
vn -0.7558883 -0.2927913 -0.585582
vn 0.9489002 0.1411304 0.2822602
vn 6.57303E-06 -0.8944262 0.4472158
vn -1.490116E-08 -0.8944272 0.4472138
vn 1.213062E-07 -0.8944274 0.4472135
vn 0 0 0
vn -0.7558883 -0.2927913 -0.5855821
vn -0.7558883 -0.2927913 -0.5855821
vn -0.7558884 -0.2927913 -0.5855821
vn 1.213062E-07 -0.8944274 0.4472135
vn 1.213062E-07 -0.8944274 0.4472135
vn -0.3155991 0.4243577 0.8487154
vn -0.3155991 0.4243577 0.8487154
vn -0.3155991 0.4243577 0.8487154
vn -0.3155991 0.4243577 0.8487154
vn -0.3155991 0.4243577 0.8487154
vn -0.3155991 0.4243577 0.8487154
vn -0.3155991 0.4243577 0.8487154
vn -0.3155991 0.4243577 0.8487154
vn -0.3155991 0.4243577 0.8487154
vn 1.490116E-08 0.8944272 -0.4472138
vn 1.490116E-08 0.8944272 -0.4472138
vn 1.490116E-08 0.8944272 -0.4472138
vn 1.490116E-08 0.8944272 -0.4472138
vn 1.490116E-08 0.8944272 -0.4472138
vn 1.490116E-08 0.8944272 -0.4472138
vn 1.490116E-08 0.8944272 -0.4472138
vn 1.490116E-08 0.8944272 -0.4472138
vn 1.490116E-08 0.8944272 -0.4472138
vn 1.490116E-08 0.8944272 -0.4472138
vn 1.490116E-08 0.8944272 -0.4472138
vn 1.490116E-08 0.8944272 -0.4472138
vn 1.490116E-08 0.8944272 -0.4472138
vn 1.490116E-08 0.8944272 -0.4472138
vn 1.490116E-08 0.8944272 -0.4472138
vn 1.490116E-08 0.8944272 -0.4472138
vn 1.490116E-08 0.8944272 -0.4472138
vn 1.490116E-08 0.8944272 -0.4472138
vn 1.490116E-08 0.8944272 -0.4472138
vn 1.490116E-08 0.8944272 -0.4472138
vn 1.490116E-08 0.8944272 -0.4472138
vn 1.490116E-08 0.8944272 -0.4472138
vn 1.490116E-08 0.8944272 -0.4472138
vn 1.490116E-08 0.8944272 -0.4472138
vn 1.490116E-08 0.8944272 -0.4472138
vn 1.490116E-08 0.8944272 -0.4472138
vn 1.490116E-08 0.8944272 -0.4472138
vn 1.490116E-08 0.8944272 -0.4472138
vn 1.490116E-08 0.8944272 -0.4472138
vn 1.490116E-08 0.8944272 -0.4472138
vn 1.490116E-08 0.8944272 -0.4472138
vn 1.490116E-08 0.8944272 -0.4472138
vn 1.490116E-08 0.8944272 -0.4472138
vn 1.490116E-08 0.8944272 -0.4472138
vn 1.490116E-08 0.8944272 -0.4472138
vn 1.490116E-08 0.8944272 -0.4472138
vn 1.490116E-08 0.8944272 -0.4472138
vn 1.490116E-08 0.8944272 -0.4472138
vn 0.9974372 -0.03199774 -0.06399624
vn 0.9469761 -0.1436914 -0.2873835
vn 0.8244798 -0.2530742 -0.5061488
vn 0.9974371 -0.03199777 -0.06399626
vn 0.4424166 -0.4010654 -0.8021311
vn 0.1828497 -0.439674 -0.879348
vn -0.07154982 -0.4460675 -0.8921348
vn -0.0715498 -0.4460675 -0.8921348
vn 0.9974371 -0.03199777 -0.06399612
vn -0.3155991 0.4243577 0.8487154
vn -0.3155991 0.4243577 0.8487154
vn -0.3155991 0.4243577 0.8487154
vn -0.3155991 0.4243577 0.8487154
vn -0.3155991 0.4243577 0.8487154
vn -0.3155991 0.4243577 0.8487154
vn -0.3155991 0.4243577 0.8487154
vn -0.3155991 0.4243576 0.8487154
vn -0.9291743 -0.3196 -0.185718
vn 6.842039E-07 -0.8944271 0.447214
vn 5.32025E-08 -0.8944272 0.4472136
vn 1.647392E-07 -0.8944273 0.4472136
vn 5.320251E-08 -0.8944273 0.4472136
vn 5.320251E-08 -0.8944273 0.4472136
vn 3.145719E-07 -0.8944272 0.4472138
vn 3.14572E-07 -0.8944272 0.4472138
vn 3.145715E-07 -0.8944272 0.4472138
vn 3.145721E-07 -0.8944272 0.4472138
vn 3.145721E-07 -0.8944272 0.4472138
vn 3.145718E-07 -0.8944272 0.4472138
vn 3.145707E-07 -0.8944272 0.4472138
vn 3.145732E-07 -0.8944272 0.4472138
vn 2.023816E-07 -0.8944273 0.4472136
vn 8.1412E-08 -0.8944274 0.4472136
vn 2.013589E-07 -0.8944273 0.4472136
vn 2.013594E-07 -0.8944273 0.4472136
vn 2.013602E-07 -0.8944273 0.4472136
vn 2.013597E-07 -0.8944273 0.4472136
vn 2.013597E-07 -0.8944273 0.4472136
vn 2.013596E-07 -0.8944273 0.4472136
vn 2.01359E-07 -0.8944273 0.4472136
vn -1.451763E-08 -0.8944274 0.4472135
vn -3.853548E-08 -0.8944274 0.4472135
vn -3.853567E-08 -0.8944274 0.4472135
vn -3.85351E-08 -0.8944274 0.4472135
vn -3.853636E-08 -0.8944274 0.4472135
vn -3.853577E-08 -0.8944274 0.4472135
vn -3.853546E-08 -0.8944274 0.4472135
vn -4.705042E-08 -0.8944273 0.4472136
vn -2.645861E-07 -0.8944273 0.4472136
vn -2.645863E-07 -0.8944273 0.4472136
vn -2.645867E-07 -0.8944273 0.4472136
vn -2.645794E-07 -0.8944273 0.4472136
vn -2.645874E-07 -0.8944273 0.4472136
vn -2.645869E-07 -0.8944273 0.4472136
vn -2.645853E-07 -0.8944273 0.4472136
vn -2.645841E-07 -0.8944272 0.4472136
vn 5.32025E-08 -0.8944273 0.4472136
vn 5.32025E-08 -0.8944273 0.4472136
vn 5.320251E-08 -0.8944272 0.4472136

f 1//1 2//2 3//3
f 4//4 1//1 3//3
f 3//3 5//5 4//4
f 3//3 6//6 5//5
f 5//5 6//6 7//7
f 8//8 7//7 6//6
f 9//9 8//8 6//6
f 10//10 9//9 6//6
f 9//9 10//10 11//11
f 11//11 10//10 12//12
f 13//13 11//11 12//12
f 13//13 12//12 14//14
f 13//13 14//14 15//15
f 15//15 14//14 16//16
f 15//15 16//16 17//17
f 18//18 17//17 16//16
f 19//19 17//17 18//18
f 19//19 18//18 20//20
f 21//21 19//19 20//20
f 22//22 19//19 21//21
f 22//22 21//21 23//23
f 24//24 22//22 23//23
f 24//24 23//23 25//25
f 26//26 24//24 25//25
f 26//26 25//25 27//27
f 28//28 26//26 27//27
f 28//28 27//27 29//29
f 29//29 27//27 30//30
f 31//31 29//29 30//30
f 31//31 30//30 32//32
f 33//33 31//31 32//32
f 33//33 32//32 34//34
f 35//35 33//33 34//34
f 35//35 34//34 36//36
f 37//37 35//35 36//36
f 37//37 36//36 38//38
f 39//39 37//37 38//38
f 39//39 38//38 40//40
f 41//41 39//39 40//40
f 41//41 40//40 42//42
f 41//41 42//42 43//43
f 43//43 42//42 44//44
f 45//45 43//43 44//44
f 45//45 44//44 46//46
f 47//47 45//45 46//46
f 48//48 45//45 47//47
f 48//48 47//47 49//49
f 50//50 48//48 49//49
f 50//50 49//49 51//51
f 52//52 50//50 51//51
f 52//52 51//51 53//53
f 54//54 52//52 53//53
f 55//55 54//54 53//53
f 55//55 53//53 56//56
f 55//55 56//56 57//57
f 57//57 56//56 58//58
f 57//57 58//58 59//59
f 59//59 58//58 60//60
f 59//59 60//60 61//61
f 61//61 60//60 62//62
f 61//61 62//62 63//63
f 63//63 62//62 64//64
f 63//63 64//64 65//65
f 65//65 64//64 66//66
f 65//65 66//66 67//67
f 68//68 67//67 66//66
f 69//69 67//67 68//68
f 69//69 68//68 70//70
f 71//71 69//69 70//70
f 72//72 71//71 73//73
f 74//74 75//75 76//76
f 77//77 74//74 76//76
f 75//75 77//77 76//76
f 78//78 75//75 74//74
f 79//79 75//75 78//78
f 78//78 74//74 80//80
f 81//81 78//78 80//80
f 82//82 78//78 81//81
f 82//82 83//83 78//78
f 83//83 84//84 79//79
f 84//84 85//85 79//79
f 80//80 74//74 86//86
f 87//87 80//80 86//86
f 81//81 80//80 87//87
f 86//86 74//74 88//88
f 88//88 74//74 77//77
f 86//86 88//88 89//89
f 90//90 86//86 89//89
f 87//87 86//86 90//90
f 75//75 91//91 77//77
f 90//90 89//89 92//92
f 90//90 92//92 93//93
f 94//94 90//90 93//93
f 95//95 83//83 82//82
f 95//95 82//82 81//81
f 95//95 81//81 87//87
f 95//95 87//87 90//90
f 95//95 96//96 83//83
f 97//97 91//91 75//75
f 97//97 98//98 91//91
f 97//97 99//99 98//98
f 100//100 95//95 101//101
f 102//102 103//103 104//104
f 102//102 104//104 105//105
f 102//102 105//105 106//106
f 106//106 105//105 107//107
f 108//108 102//102 106//106
f 109//109 102//102 108//108
f 110//110 108//108 106//106
f 111//111 112//112 113//113
f 111//111 113//113 114//114
f 111//111 114//114 115//115
f 111//111 115//115 116//116
f 111//111 116//116 117//117
f 117//117 118//118 111//111
f 118//118 119//119 111//111
f 120//120 111//111 119//119
f 120//120 121//121 111//111
f 121//121 122//122 111//111
f 111//111 122//122 123//123
f 114//114 113//113 124//124
f 124//124 113//113 125//125
f 125//125 113//113 126//126
f 126//126 113//113 127//127
f 127//127 113//113 128//128
f 128//128 113//113 129//129
f 129//129 113//113 130//130
f 130//130 113//113 131//131
f 131//131 113//113 132//132
f 132//132 113//113 133//133
f 133//133 113//113 134//134
f 133//133 134//134 135//135
f 135//135 134//134 136//136
f 134//134 137//137 136//136
f 137//137 134//134 138//138
f 138//138 134//134 139//139
f 139//139 134//134 140//140
f 140//140 134//134 141//141
f 134//134 142//142 141//141
f 134//134 143//143 142//142
f 134//134 144//144 143//143
f 144//144 134//134 145//145
f 145//145 134//134 146//146
f 147//147 134//134 148//148
f 149//149 150//150 151//151
f 149//149 152//152 150//150
f 151//151 150//150 153//153
f 151//151 153//153 154//154
f 154//154 153//153 155//155
f 154//154 155//155 156//156
f 152//152 157//157 150//150
f 158//158 159//159 160//160
f 161//161 159//159 158//158
f 162//162 159//159 161//161
f 163//163 162//162 161//161
f 164//164 162//162 163//163
f 165//165 162//162 164//164
f 9//9 166//166 8//8
f 166//166 9//9 167//167
f 168//168 169//169 170//170
f 168//168 171//171 169//169
f 172//172 169//169 173//173
f 174//174 169//169 172//172
f 169//169 174//174 175//175
f 176//176 169//169 175//175
f 177//177 169//169 176//176
f 178//178 169//169 177//177
f 178//178 179//179 169//169
f 179//179 180//180 169//169
f 180//180 181//181 169//169
f 182//182 181//181 180//180
f 182//182 183//183 181//181
f 183//183 184//184 181//181
f 184//184 185//185 181//181
f 185//185 186//186 181//181
f 186//186 187//187 181//181
f 187//187 188//188 181//181
f 188//188 189//189 181//181
f 181//181 189//189 190//190
f 181//181 190//190 191//191
f 192//192 181//181 191//191
f 193//193 181//181 192//192
f 194//194 181//181 193//193
f 195//195 181//181 194//194
f 195//195 196//196 181//181
f 196//196 197//197 198//198
f 196//196 198//198 199//199
f 199//199 200//200 196//196
f 196//196 200//200 201//201
f 201//201 202//202 196//196
f 196//196 202//202 203//203
f 196//196 203//203 204//204
f 205//205 196//196 206//206
f 207//207 196//196 205//205
