v -9.999981 205.9194 8.059808
v -50.00002 205.9194 8.059815
v -9.999981 205.9194 8.059808
v -9.999981 205.9194 8.059807
v -9.999981 203.8053 5.181304
v -9.999981 202.9597 4.029901
v -9.999981 202.9597 4.029901
v -50.00002 202.9597 4.02991
v -90.00006 202.9597 4.029917
v -9.999981 202.7201 4.088724
v -90.00006 200.8035 4.559329
v -9.999981 202.6904 4.096035
v -90.00006 200.5356 4.625115
v -9.999981 202.682 4.098087
v -90.00006 200.4603 4.643585
v -9.999981 202.5881 4.121151
v -90.00006 199.6149 4.851167
v -9.999981 201.4299 4.40552
v -90.00006 199.4862 4.882764
v -9.999981 200.3318 4.675137
v -9.999981 200.2055 4.706154
v -90.00006 199.3502 4.916166
v -9.999981 199.942 4.770847
v -90.00006 199.3209 4.923354
v -9.999981 199.2433 4.942403
v -90.00006 199.2433 4.942417
v -9.999981 199.0692 4.836941
v -90.00006 198.2846 4.361698
v -90.00006 197.6763 3.993264
v -9.999981 199.026 4.810773
v -90.00006 197.2876 3.757767
v -9.999981 199.0131 4.802987
v -90.00006 197.1719 3.687682
v -9.999981 198.9159 4.744133
v -90.00006 196.2974 3.157991
v -9.999981 197.8013 4.068914
v -90.00006 196.1736 3.082966
v -9.999981 196.8803 3.511079
v -90.00006 196.0712 3.020985
v -9.999981 195.9701 2.959705
v -90.00006 195.9701 2.959721
v -9.999981 195.9419 2.84502
v -90.00006 195.7167 1.927554
v -9.999981 195.8788 2.58806
v -90.00006 195.1488 -0.3850885
v -9.999981 195.7028 1.871182
v -9.999981 195.6324 1.584489
v -90.00006 195.1215 -0.4965971
v -9.999981 195.3924 0.6069167
v -90.00006 195.0948 -0.605214
v -9.999981 195.1948 -0.1980089
v -90.00006 195.0728 -0.6946526
v -9.999981 195.0576 -0.7567478
v -90.00006 195.0576 -0.7567323
v -90.00006 195.0576 -0.7567338
v -9.999981 195.1754 -0.9512821
v -90.00006 196.1181 -2.507543
v -9.999981 195.2101 -1.008541
v -90.00006 196.4303 -3.022873
v -9.999981 195.2137 -1.014387
v -90.00006 196.4622 -3.075481
v -9.999981 195.2153 -1.017097
v -90.00006 196.4769 -3.099877
v -9.999981 195.2174 -1.020524
v -90.00006 196.4956 -3.13071
v -9.999981 195.2559 -1.084064
v -90.00006 196.842 -3.70258
v -9.999985 197.0403 -4.029909
v -90.00006 197.0403 -4.029898
v -9.999985 197.0403 -4.029912
v -90.00006 197.0403 -4.029898
v -9.999985 197.0403 -4.029912
v -9.999985 197.0403 -4.029912
v -9.999985 196.1947 -5.181314
v -9.999985 194.0806 -8.059818
v -9.999985 194.0806 -8.059818
v -9.999985 194.0806 -8.059817
v -9.999985 197.0403 -4.029912
v -9.999985 197.0403 -4.029912
v -9.999985 197.0403 -4.029912
v -90.00006 197.0403 -4.029898
v -90.00006 197.0403 -4.029898
v -90.00006 197.0403 -4.029898
v -9.999985 197.0403 -4.029912
v -9.999985 190.1152 -1.513491
v -9.999985 197.0403 -4.029912
v -90.00006 197.0403 -4.029898
v -9.999985 197.0403 -4.029912
v -50.00002 197.0403 -4.029905
v -90.00006 197.0403 -4.029898
v -50.00003 194.0806 -8.05981
v -90.00002 197.0403 -4.029898
v -90.00006 197.0403 -4.029898
v -90.00006 196.1947 -5.181298
v -90.00005 190.1152 -1.513475
v -90.00006 197.0403 -4.029898
v -9.999985 190.1152 -1.513491
v -90.00006 194.0806 -8.059803
v -90.00005 190.1152 -1.513475
v -90.00006 195.0576 -0.7567338
v -90.00006 195.0576 -0.7567323
v -50.00002 205.9194 8.059815
v -9.999981 205.9194 8.059808
v -9.999981 205.9194 8.059807
v -9.999981 203.8053 5.181304
v -50.00002 202.9597 4.02991
v -9.999981 202.9597 4.029901
v -90.00006 204.1857 5.69916
v -90.00006 205.9194 8.059824
v -90.00006 202.9597 4.029917
v -9.999981 205.9194 8.059808
v -9.999981 198.4865 9.884808
v -9.999981 191.9402 5.919416
v -9.999981 199.2433 4.942403
v -9.999981 199.942 4.770847
v -9.999981 200.2055 4.706154
v -9.999981 200.3318 4.675137
v -9.999981 201.4299 4.40552
v -9.999981 202.5881 4.121151
v -9.999981 202.682 4.098087
v -9.999981 202.6904 4.096035
v -9.999981 202.7201 4.088724
v -9.999981 202.9597 4.029901
v -9.999981 199.0692 4.836941
v -9.999981 199.026 4.810773
v -9.999981 199.0131 4.802987
v -9.999981 198.9159 4.744133
v -9.999981 197.8013 4.068914
v -9.999981 196.8803 3.511079
v -9.999981 195.9701 2.959705
v -9.999981 195.9419 2.84502
v -9.999981 195.8788 2.58806
v -9.999981 195.7028 1.871182
v -9.999985 190.1152 -1.513491
v -9.999981 195.6324 1.584489
v -9.999981 195.3924 0.6069167
v -9.999981 195.1948 -0.1980089
v -9.999981 195.0576 -0.7567478
v -9.999981 195.1754 -0.9512821
v -9.999981 195.2101 -1.008541
v -9.999981 195.2137 -1.014387
v -9.999981 195.2153 -1.017097
v -9.999981 195.2174 -1.020524
v -9.999981 195.2559 -1.084064
v -9.999985 197.0403 -4.029909
v -9.999985 197.0403 -4.029912
v -9.999985 197.0403 -4.029912
v -9.999985 194.0806 -8.059818
v -9.999981 205.9194 8.059808
v -90.00005 198.4865 9.884824
v -9.999981 198.4865 9.884808
v -50.00002 205.9194 8.059815
v -90.00005 191.9402 5.919432
v -9.999981 191.9402 5.919416
v -90.00005 190.1152 -1.513475
v -9.999985 190.1152 -1.513491
v -90.00006 205.9194 8.059824
v -9.999985 194.0806 -8.059817
v -50.00002 197.0403 -4.029905
v -9.999985 197.0403 -4.029912
v -50.00003 194.0806 -8.05981
v -90.00002 197.0403 -4.029898
v -90.00006 194.0806 -8.059803
v -90.00006 196.1947 -5.181298
v -90.00006 197.0403 -4.029898
v -90.00006 202.9597 4.029917
v -90.00005 198.4865 9.884824
v -90.00006 204.1857 5.69916
v -90.00005 198.4865 9.884824
v -90.00006 205.9194 8.059824
v -90.00006 202.9597 4.029917
v -90.00006 200.8035 4.559329
v -90.00006 202.9597 4.029917
v -90.00006 200.5356 4.625115
v -90.00006 200.4603 4.643585
v -90.00006 199.6149 4.851167
v -90.00006 199.4862 4.882764
v -90.00006 199.3502 4.916166
v -90.00006 199.3209 4.923354
v -90.00006 199.2433 4.942417
v -90.00005 191.9402 5.919432
v -90.00006 198.2846 4.361698
v -90.00006 197.6763 3.993264
v -90.00006 197.2876 3.757767
v -90.00006 197.1719 3.687682
v -90.00006 196.2974 3.157991
v -90.00006 196.1736 3.082966
v -90.00006 196.0712 3.020985
v -90.00006 195.9701 2.959721
v -90.00006 195.7167 1.927554
v -90.00006 195.1488 -0.3850885
v -90.00006 195.1215 -0.4965971
v -90.00006 195.0948 -0.605214
v -90.00006 195.0728 -0.6946526
v -90.00006 195.0576 -0.7567323
v -90.00005 190.1152 -1.513475
v -90.00006 195.0576 -0.7567338
v -90.00006 196.1181 -2.507543
v -90.00006 196.4303 -3.022873
v -90.00006 196.4622 -3.075481
v -90.00006 196.4769 -3.099877
v -90.00006 196.4956 -3.13071
v -90.00006 196.842 -3.70258
v -90.00006 197.0403 -4.029898
v -90.00006 196.1947 -5.181298
v -90.00006 197.0403 -4.029898
v -90.00006 194.0806 -8.059803

vn 6.532665E-07 0.5919418 0.8059807
vn 5.006787E-07 0.5919418 0.8059807
vn 0.6507915 0.4494357 0.6119461
vn 1 -2.980232E-08 -1.192093E-07
vn 1 -2.980232E-08 -1.192093E-07
vn -1.861636E-07 -0.2384428 -0.9711566
vn 0.1414209 -0.5859926 -0.7978804
vn -2.456007E-07 0.6422087 -0.7665298
vn -4.639786E-07 -0.2384472 -0.9711555
vn -4.228571E-07 -0.2384481 -0.9711553
vn -4.615991E-07 -0.2384477 -0.9711554
vn -5.451828E-07 -0.2384468 -0.9711557
vn -6.036951E-07 -0.2384457 -0.9711559
vn -1.197936E-08 -0.2384513 -0.9711545
vn -2.995423E-07 -0.2384486 -0.9711552
vn -3.476104E-07 -0.2384481 -0.9711553
vn -3.304615E-07 -0.2384483 -0.9711553
vn -3.292987E-07 -0.2384484 -0.9711552
vn -3.432607E-07 -0.2384481 -0.9711553
vn -3.624555E-07 -0.2384484 -0.9711553
vn -3.566687E-07 -0.2384473 -0.9711555
vn -3.993555E-07 -0.2384457 -0.9711558
vn -2.888657E-07 -0.2384479 -0.9711553
vn -3.026819E-07 -0.2384487 -0.9711552
vn -3.013961E-07 -0.08923827 -0.9960104
vn -2.859227E-07 0.482687 -0.8757929
vn -3.370075E-07 0.5181046 -0.8553174
vn -2.975193E-07 0.5181038 -0.8553177
vn -2.778204E-07 0.5181036 -0.8553179
vn -1.244976E-07 0.5181019 -0.8553191
vn -4.0042E-08 0.5181007 -0.8553197
vn 1.761995E-07 0.5180992 -0.8553205
vn -9.040777E-08 0.5181017 -0.8553191
vn -2.686412E-07 0.5181026 -0.8553184
vn -3.277443E-07 0.5181032 -0.8553182
vn -3.864808E-07 0.5181032 -0.8553181
vn -2.879049E-07 0.5181022 -0.8553187
vn -3.085618E-07 0.5181029 -0.8553184
vn -3.493922E-07 0.5181038 -0.8553177
vn -3.515231E-07 0.5732756 -0.8193626
vn -1.099516E-07 0.9533072 -0.3020027
vn -6.060456E-08 0.971155 -0.238449
vn -8.804967E-08 0.9711553 -0.238448
vn -1.287377E-07 0.9711555 -0.2384473
vn -1.002613E-07 0.9711554 -0.2384473
vn -8.250719E-08 0.9711553 -0.2384477
vn 4.366701E-08 0.9711552 -0.2384483
vn -2.579846E-08 0.9711553 -0.2384478
vn -3.340789E-09 0.9711553 -0.2384482
vn 4.176719E-09 0.9711553 -0.2384478
vn 1.111438E-08 0.9711553 -0.2384479
vn 1.979909E-08 0.9711552 -0.2384483
vn 1.073657E-07 0.9991012 -0.04239087
vn 2.183229E-08 0.9711496 -0.2384709
vn 2.490851E-07 0.8553187 0.5181023
vn 2.040546E-07 0.855318 0.5181034
vn 1.671905E-07 0.8553178 0.5181038
vn 5.924549E-08 0.8553171 0.5181048
vn 2.604379E-07 0.8553182 0.5181031
vn 5.488269E-07 0.8553191 0.5181018
vn 8.278104E-07 0.8553205 0.5180993
vn 6.44369E-06 0.8553439 0.5180606
vn 2.860952E-06 0.8553293 0.5180849
vn -4.924026E-07 0.8553145 0.5181093
vn -1.031291E-07 0.8553166 0.5181058
vn 2.344798E-07 0.8553181 0.5181033
vn 2.600807E-07 0.8553184 0.5181028
vn 2.598614E-07 0.8553185 0.5181026
vn 1.898806E-07 0.8553212 0.5180983
vn 1.781355E-07 0.9300229 0.3675017
vn 3.09944E-07 0.5919418 0.8059807
vn 3.09944E-07 0.5919418 0.8059807
vn 3.09944E-07 0.5919418 0.8059807
vn 1 -2.980232E-08 -1.192093E-07
vn -3.923444E-07 -0.8553182 -0.5181031
vn 1 -2.980232E-08 -1.192093E-07
vn -2.128163E-07 0.7222163 -0.6916673
vn 0.7603925 0.3844448 0.5234553
vn 0.8262196 0.3334695 0.4540478
vn 0.07104933 0.5904459 0.8039439
vn 3.099443E-07 0.5919418 0.8059807
vn 3.09944E-07 0.5919418 0.8059807
vn 3.099436E-07 0.5919418 0.8059807
vn 0.103003 0.5887933 0.8016937
vn 1 -2.980232E-08 -1.192093E-07
vn 0.01266348 0.591899 0.8059127
vn 3.09945E-07 0.5919418 0.8059807
vn 0.1414216 0.5859925 0.7978802
vn 3.099452E-07 0.5919365 0.8059847
vn -0.06004149 0.5908689 0.8045304
vn -3.220194E-07 -0.8553182 -0.5181031
vn 3.099475E-07 0.5919228 0.8059947
vn -1 4.13951E-06 5.714936E-06
vn -1 2.980232E-08 1.192093E-07
vn -1 -3.180456E-07 3.746816E-07
vn 0 0 0
vn -3.118287E-07 -0.8553182 -0.5181031
vn -2.765333E-07 -0.8553182 -0.5181031
vn -3.016379E-07 -0.8553183 -0.5181031
vn -1 -3.180456E-07 3.746816E-07
vn -1 -3.180456E-07 3.746816E-07
vn -1.490116E-07 0.8059807 -0.5919418
vn -1.490116E-07 0.8059806 -0.5919418
vn -1.490116E-07 0.8059807 -0.5919418
vn -1.490116E-07 0.8059807 -0.5919418
vn -1.490116E-07 0.8059807 -0.5919418
vn -1.490116E-07 0.8059807 -0.5919418
vn -1.490116E-07 0.8059807 -0.5919418
vn -1.490116E-07 0.8059807 -0.5919418
vn -1.490116E-07 0.8059807 -0.5919418
vn 1 -2.980232E-08 -1.192093E-07
vn 1 -2.980232E-08 -1.192093E-07
vn 1 -2.980232E-08 -1.192093E-07
vn 1 -2.980232E-08 -1.192093E-07
vn 1 -2.980232E-08 -1.192093E-07
vn 1 -2.980232E-08 -1.192093E-07
vn 1 -2.980232E-08 -1.192093E-07
vn 1 -2.980232E-08 -1.192093E-07
vn 1 -2.980232E-08 -1.192093E-07
vn 1 -2.980232E-08 -1.192093E-07
vn 1 -2.980232E-08 -1.192093E-07
vn 1 -2.980232E-08 -1.192093E-07
vn 1 -2.980232E-08 -1.192093E-07
vn 1 -2.980232E-08 -1.192093E-07
vn 1 -2.980232E-08 -1.192093E-07
vn 1 -2.980232E-08 -1.192093E-07
vn 1 -2.980232E-08 -1.192093E-07
vn 1 -2.980232E-08 -1.192093E-07
vn 1 -2.980232E-08 -1.192093E-07
vn 1 -2.980232E-08 -1.192093E-07
vn 1 -2.980232E-08 -1.192093E-07
vn 1 -2.980232E-08 -1.192093E-07
vn 1 -2.980232E-08 -1.192093E-07
vn 1 -2.980232E-08 -1.192093E-07
vn 1 -2.980232E-08 -1.192093E-07
vn 1 -2.980232E-08 -1.192093E-07
vn 1 -2.980232E-08 -1.192093E-07
vn 1 -2.980232E-08 -1.192093E-07
vn 1 -2.980232E-08 -1.192093E-07
vn 1 -2.980232E-08 -1.192093E-07
vn 1 -2.980232E-08 -1.192093E-07
vn 1 -2.980232E-08 -1.192093E-07
vn 1 -2.980232E-08 -1.192093E-07
vn 1 -2.980232E-08 -1.192093E-07
vn 1 -2.980232E-08 -1.192093E-07
vn 1 -2.980232E-08 -1.192093E-07
vn 1 -2.980232E-08 -1.192093E-07
vn 1 -2.980232E-08 -1.192093E-07
vn 4.643289E-07 0.2384477 0.9711555
vn 4.222657E-07 -0.01472785 0.9998916
vn 3.576701E-07 -0.2851242 0.9584906
vn 4.452779E-07 0.2384477 0.9711553
vn 1.989388E-07 -0.7174444 0.6966159
vn 8.680105E-08 -0.8793684 0.4761421
vn -1.084024E-08 -0.9711553 0.2384477
vn -1.808564E-08 -0.9711553 0.2384477
vn 3.786184E-07 0.2384478 0.9711553
vn -1.490116E-07 0.8059807 -0.5919418
vn -1.490116E-07 0.8059807 -0.5919418
vn -1.490116E-07 0.8059807 -0.5919418
vn -1.490116E-07 0.8059807 -0.5919418
vn -1.490116E-07 0.8059807 -0.5919418
vn -1.490116E-07 0.8059807 -0.5919419
vn -1.581816E-07 0.8059807 -0.5919418
vn -1.581815E-07 0.8059806 -0.5919418
vn -0.2028034 -0.579641 -0.789232
vn -1 4.659207E-07 7.130227E-07
vn -1 -1.441216E-07 2.469454E-07
vn -1 -9.247029E-08 3.474735E-07
vn -1 -1.441216E-07 2.469455E-07
vn -1 -1.441216E-07 2.469455E-07
vn -1 1.085662E-07 4.40001E-07
vn -1 1.085663E-07 4.400011E-07
vn -1 1.085657E-07 4.400008E-07
vn -1 1.085665E-07 4.400011E-07
vn -1 1.085666E-07 4.400011E-07
vn -1 1.08566E-07 4.40001E-07
vn -1 1.085637E-07 4.400006E-07
vn -1 1.08569E-07 4.400015E-07
vn -1 -1.39081E-07 4.020833E-07
vn -1 -2.161634E-07 2.998555E-07
vn -1 -1.413374E-07 4.017373E-07
vn -1 -1.413372E-07 4.017378E-07
vn -1 -1.41337E-07 4.017385E-07
vn -1 -1.413371E-07 4.01738E-07
vn -1 -1.413372E-07 4.01738E-07
vn -1 -1.413372E-07 4.017379E-07
vn -1 -1.413376E-07 4.017374E-07
vn -1 -2.760065E-07 2.183738E-07
vn -1 -2.909895E-07 1.979733E-07
vn -1 -2.909896E-07 1.979731E-07
vn -1 -2.909889E-07 1.979735E-07
vn -1 -2.909906E-07 1.979727E-07
vn -1 -2.909897E-07 1.979731E-07
vn -1 -2.909894E-07 1.979733E-07
vn -1 -2.245897E-07 1.675814E-07
vn -1 -2.527263E-07 -5.193046E-08
vn -1 -2.527263E-07 -5.193067E-08
vn -1 -2.527264E-07 -5.193103E-08
vn -1 -2.527246E-07 -5.192392E-08
vn -1 -2.527267E-07 -5.193175E-08
vn -1 -2.527264E-07 -5.193122E-08
vn -1 -2.52726E-07 -5.192976E-08
vn -1 -2.527256E-07 -5.192862E-08
vn -1 -1.441216E-07 2.469454E-07
vn -1 -1.441217E-07 2.469454E-07
vn -1 -1.441216E-07 2.469454E-07

f 1//1 2//2 3//3
f 4//4 1//1 3//3
f 3//3 5//5 4//4
f 3//3 6//6 5//5
f 5//5 6//6 7//7
f 8//8 7//7 6//6
f 9//9 8//8 6//6
f 10//10 9//9 6//6
f 9//9 10//10 11//11
f 11//11 10//10 12//12
f 13//13 11//11 12//12
f 13//13 12//12 14//14
f 13//13 14//14 15//15
f 15//15 14//14 16//16
f 15//15 16//16 17//17
f 18//18 17//17 16//16
f 19//19 17//17 18//18
f 19//19 18//18 20//20
f 21//21 19//19 20//20
f 22//22 19//19 21//21
f 22//22 21//21 23//23
f 24//24 22//22 23//23
f 24//24 23//23 25//25
f 26//26 24//24 25//25
f 26//26 25//25 27//27
f 28//28 26//26 27//27
f 28//28 27//27 29//29
f 29//29 27//27 30//30
f 31//31 29//29 30//30
f 31//31 30//30 32//32
f 33//33 31//31 32//32
f 33//33 32//32 34//34
f 35//35 33//33 34//34
f 35//35 34//34 36//36
f 37//37 35//35 36//36
f 37//37 36//36 38//38
f 39//39 37//37 38//38
f 39//39 38//38 40//40
f 41//41 39//39 40//40
f 41//41 40//40 42//42
f 41//41 42//42 43//43
f 43//43 42//42 44//44
f 45//45 43//43 44//44
f 45//45 44//44 46//46
f 47//47 45//45 46//46
f 48//48 45//45 47//47
f 48//48 47//47 49//49
f 50//50 48//48 49//49
f 50//50 49//49 51//51
f 52//52 50//50 51//51
f 52//52 51//51 53//53
f 54//54 52//52 53//53
f 55//55 54//54 53//53
f 55//55 53//53 56//56
f 55//55 56//56 57//57
f 57//57 56//56 58//58
f 57//57 58//58 59//59
f 59//59 58//58 60//60
f 59//59 60//60 61//61
f 61//61 60//60 62//62
f 61//61 62//62 63//63
f 63//63 62//62 64//64
f 63//63 64//64 65//65
f 65//65 64//64 66//66
f 65//65 66//66 67//67
f 68//68 67//67 66//66
f 69//69 67//67 68//68
f 69//69 68//68 70//70
f 71//71 69//69 70//70
f 72//72 71//71 73//73
f 74//74 75//75 76//76
f 77//77 74//74 76//76
f 75//75 77//77 76//76
f 78//78 75//75 74//74
f 79//79 75//75 78//78
f 78//78 74//74 80//80
f 81//81 78//78 80//80
f 82//82 78//78 81//81
f 82//82 83//83 78//78
f 83//83 84//84 79//79
f 84//84 85//85 79//79
f 80//80 74//74 86//86
f 87//87 80//80 86//86
f 81//81 80//80 87//87
f 86//86 74//74 88//88
f 88//88 74//74 77//77
f 86//86 88//88 89//89
f 90//90 86//86 89//89
f 87//87 86//86 90//90
f 75//75 91//91 77//77
f 90//90 89//89 92//92
f 90//90 92//92 93//93
f 94//94 90//90 93//93
f 95//95 83//83 82//82
f 95//95 82//82 81//81
f 95//95 81//81 87//87
f 95//95 87//87 90//90
f 95//95 96//96 83//83
f 97//97 91//91 75//75
f 97//97 98//98 91//91
f 97//97 99//99 98//98
f 100//100 95//95 101//101
f 102//102 103//103 104//104
f 102//102 104//104 105//105
f 102//102 105//105 106//106
f 106//106 105//105 107//107
f 108//108 102//102 106//106
f 109//109 102//102 108//108
f 110//110 108//108 106//106
f 111//111 112//112 113//113
f 111//111 113//113 114//114
f 111//111 114//114 115//115
f 111//111 115//115 116//116
f 111//111 116//116 117//117
f 117//117 118//118 111//111
f 118//118 119//119 111//111
f 120//120 111//111 119//119
f 120//120 121//121 111//111
f 121//121 122//122 111//111
f 111//111 122//122 123//123
f 114//114 113//113 124//124
f 124//124 113//113 125//125
f 125//125 113//113 126//126
f 126//126 113//113 127//127
f 127//127 113//113 128//128
f 128//128 113//113 129//129
f 129//129 113//113 130//130
f 130//130 113//113 131//131
f 131//131 113//113 132//132
f 132//132 113//113 133//133
f 133//133 113//113 134//134
f 133//133 134//134 135//135
f 135//135 134//134 136//136
f 134//134 137//137 136//136
f 137//137 134//134 138//138
f 138//138 134//134 139//139
f 139//139 134//134 140//140
f 140//140 134//134 141//141
f 134//134 142//142 141//141
f 134//134 143//143 142//142
f 134//134 144//144 143//143
f 144//144 134//134 145//145
f 145//145 134//134 146//146
f 147//147 134//134 148//148
f 149//149 150//150 151//151
f 149//149 152//152 150//150
f 151//151 150//150 153//153
f 151//151 153//153 154//154
f 154//154 153//153 155//155
f 154//154 155//155 156//156
f 152//152 157//157 150//150
f 158//158 159//159 160//160
f 161//161 159//159 158//158
f 162//162 159//159 161//161
f 163//163 162//162 161//161
f 164//164 162//162 163//163
f 165//165 162//162 164//164
f 9//9 166//166 8//8
f 166//166 9//9 167//167
f 168//168 169//169 170//170
f 168//168 171//171 169//169
f 172//172 169//169 173//173
f 174//174 169//169 172//172
f 169//169 174//174 175//175
f 176//176 169//169 175//175
f 177//177 169//169 176//176
f 178//178 169//169 177//177
f 178//178 179//179 169//169
f 179//179 180//180 169//169
f 180//180 181//181 169//169
f 182//182 181//181 180//180
f 182//182 183//183 181//181
f 183//183 184//184 181//181
f 184//184 185//185 181//181
f 185//185 186//186 181//181
f 186//186 187//187 181//181
f 187//187 188//188 181//181
f 188//188 189//189 181//181
f 181//181 189//189 190//190
f 181//181 190//190 191//191
f 192//192 181//181 191//191
f 193//193 181//181 192//192
f 194//194 181//181 193//193
f 195//195 181//181 194//194
f 195//195 196//196 181//181
f 196//196 197//197 198//198
f 196//196 198//198 199//199
f 199//199 200//200 196//196
f 196//196 200//200 201//201
f 201//201 202//202 196//196
f 196//196 202//202 203//203
f 196//196 203//203 204//204
f 205//205 196//196 206//206
f 207//207 196//196 205//205
