v -9.999981 194.0806 -8.05981
v -50.00002 194.0806 -8.059817
v -9.999981 194.0806 -8.05981
v -9.999981 194.0806 -8.059808
v -9.999985 196.1947 -5.181305
v -9.999985 197.0403 -4.029903
v -9.999985 197.0403 -4.029902
v -50.00002 197.0403 -4.029911
v -90.00006 197.0403 -4.029916
v -9.999985 197.2799 -4.088726
v -90.00006 199.1965 -4.559328
v -9.999985 197.3096 -4.096036
v -90.00006 199.4644 -4.625114
v -9.999985 197.318 -4.098088
v -90.00006 199.5397 -4.643584
v -9.999985 197.4119 -4.121153
v -90.00006 200.3851 -4.851166
v -9.999985 198.5701 -4.405521
v -90.00006 200.5138 -4.882762
v -9.999985 199.6682 -4.675138
v -9.999985 199.7945 -4.706155
v -90.00006 200.6498 -4.916165
v -9.999985 200.058 -4.770848
v -90.00006 200.6791 -4.923353
v -9.999985 200.7567 -4.942404
v -90.00006 200.7567 -4.942416
v -9.999985 200.9308 -4.836942
v -90.00006 201.7154 -4.361696
v -90.00006 202.3237 -3.993262
v -9.999985 200.974 -4.810774
v -90.00006 202.7124 -3.757765
v -9.999985 200.9869 -4.802988
v -90.00006 202.8281 -3.68768
v -9.999985 201.0841 -4.744134
v -90.00006 203.7026 -3.157989
v -9.999985 202.1987 -4.068915
v -90.00006 203.8264 -3.082964
v -9.999985 203.1197 -3.51108
v -90.00006 203.9288 -3.020983
v -9.999985 204.0299 -2.959706
v -90.00006 204.0299 -2.959719
v -9.999985 204.0581 -2.84502
v -90.00006 204.2833 -1.927552
v -9.999985 204.1212 -2.58806
v -90.00006 204.8512 0.3850905
v -9.999985 204.2972 -1.871182
v -9.999985 204.3676 -1.58449
v -90.00006 204.8785 0.4965991
v -9.999985 204.6076 -0.6069172
v -90.00006 204.9052 0.6052161
v -9.999985 204.8052 0.1980085
v -90.00006 204.9272 0.6946545
v -9.999985 204.9424 0.7567474
v -90.00006 204.9424 0.7567343
v -90.00006 204.9424 0.7567358
v -9.999985 204.8246 0.9512817
v -90.00006 203.8819 2.507545
v -9.999985 204.7899 1.008541
v -90.00006 203.5697 3.022875
v -9.999985 204.7863 1.014387
v -90.00006 203.5378 3.075483
v -9.999985 204.7847 1.017097
v -90.00006 203.5231 3.099879
v -9.999985 204.7826 1.020524
v -90.00006 203.5044 3.130712
v -9.999985 204.7441 1.084064
v -90.00006 203.158 3.702582
v -9.999985 202.9597 4.029908
v -90.00006 202.9597 4.029899
v -9.999985 202.9597 4.029911
v -90.00006 202.9597 4.0299
v -9.999985 202.9597 4.029911
v -9.999985 202.9597 4.029911
v -9.999985 203.8053 5.181314
v -9.999985 205.9194 8.059818
v -9.999985 205.9194 8.059818
v -9.999985 205.9194 8.059816
v -9.999985 202.9597 4.029911
v -9.999985 202.9597 4.029911
v -9.999985 202.9597 4.029911
v -90.00006 202.9597 4.0299
v -90.00006 202.9597 4.0299
v -90.00006 202.9597 4.0299
v -9.999985 202.9597 4.029911
v -9.999985 209.8848 1.513491
v -9.999985 202.9597 4.029911
v -90.00006 202.9597 4.0299
v -9.999985 202.9597 4.029911
v -50.00002 202.9597 4.029905
v -90.00006 202.9597 4.0299
v -50.00002 205.9194 8.059811
v -90.00002 202.9597 4.0299
v -90.00006 202.9597 4.0299
v -90.00006 203.8053 5.1813
v -90.00005 209.8848 1.513478
v -90.00006 202.9597 4.029899
v -9.999985 209.8848 1.513491
v -90.00006 205.9194 8.059805
v -90.00005 209.8848 1.513478
v -90.00006 204.9424 0.7567358
v -90.00006 204.9424 0.7567343
v -50.00002 194.0806 -8.059817
v -9.999981 194.0806 -8.05981
v -9.999981 194.0806 -8.059808
v -9.999985 196.1947 -5.181305
v -50.00002 197.0403 -4.029911
v -9.999985 197.0403 -4.029902
v -90.00006 195.8143 -5.699159
v -90.00006 194.0806 -8.059823
v -90.00006 197.0403 -4.029916
v -9.999981 194.0806 -8.05981
v -9.999985 201.5135 -9.884809
v -9.999985 208.0598 -5.919416
v -9.999985 200.7567 -4.942404
v -9.999985 200.058 -4.770848
v -9.999985 199.7945 -4.706155
v -9.999985 199.6682 -4.675138
v -9.999985 198.5701 -4.405521
v -9.999985 197.4119 -4.121153
v -9.999985 197.318 -4.098088
v -9.999985 197.3096 -4.096036
v -9.999985 197.2799 -4.088726
v -9.999985 197.0403 -4.029903
v -9.999985 200.9308 -4.836942
v -9.999985 200.974 -4.810774
v -9.999985 200.9869 -4.802988
v -9.999985 201.0841 -4.744134
v -9.999985 202.1987 -4.068915
v -9.999985 203.1197 -3.51108
v -9.999985 204.0299 -2.959706
v -9.999985 204.0581 -2.84502
v -9.999985 204.1212 -2.58806
v -9.999985 204.2972 -1.871182
v -9.999985 209.8848 1.513491
v -9.999985 204.3676 -1.58449
v -9.999985 204.6076 -0.6069172
v -9.999985 204.8052 0.1980085
v -9.999985 204.9424 0.7567474
v -9.999985 204.8246 0.9512817
v -9.999985 204.7899 1.008541
v -9.999985 204.7863 1.014387
v -9.999985 204.7847 1.017097
v -9.999985 204.7826 1.020524
v -9.999985 204.7441 1.084064
v -9.999985 202.9597 4.029908
v -9.999985 202.9597 4.029911
v -9.999985 202.9597 4.029911
v -9.999985 205.9194 8.059818
v -9.999981 194.0806 -8.05981
v -90.00005 201.5135 -9.884823
v -9.999985 201.5135 -9.884809
v -50.00002 194.0806 -8.059817
v -90.00005 208.0598 -5.919429
v -9.999985 208.0598 -5.919416
v -90.00005 209.8848 1.513478
v -9.999985 209.8848 1.513491
v -90.00006 194.0806 -8.059823
v -9.999985 205.9194 8.059816
v -50.00002 202.9597 4.029905
v -9.999985 202.9597 4.029911
v -50.00002 205.9194 8.059811
v -90.00002 202.9597 4.0299
v -90.00006 205.9194 8.059805
v -90.00006 203.8053 5.1813
v -90.00006 202.9597 4.0299
v -90.00006 197.0403 -4.029916
v -90.00005 201.5135 -9.884823
v -90.00006 195.8143 -5.699159
v -90.00005 201.5135 -9.884823
v -90.00006 194.0806 -8.059823
v -90.00006 197.0403 -4.029916
v -90.00006 199.1965 -4.559328
v -90.00006 197.0403 -4.029916
v -90.00006 199.4644 -4.625114
v -90.00006 199.5397 -4.643584
v -90.00006 200.3851 -4.851166
v -90.00006 200.5138 -4.882762
v -90.00006 200.6498 -4.916165
v -90.00006 200.6791 -4.923353
v -90.00006 200.7567 -4.942416
v -90.00005 208.0598 -5.919429
v -90.00006 201.7154 -4.361696
v -90.00006 202.3237 -3.993262
v -90.00006 202.7124 -3.757765
v -90.00006 202.8281 -3.68768
v -90.00006 203.7026 -3.157989
v -90.00006 203.8264 -3.082964
v -90.00006 203.9288 -3.020983
v -90.00006 204.0299 -2.959719
v -90.00006 204.2833 -1.927552
v -90.00006 204.8512 0.3850905
v -90.00006 204.8785 0.4965991
v -90.00006 204.9052 0.6052161
v -90.00006 204.9272 0.6946545
v -90.00006 204.9424 0.7567343
v -90.00005 209.8848 1.513478
v -90.00006 204.9424 0.7567358
v -90.00006 203.8819 2.507545
v -90.00006 203.5697 3.022875
v -90.00006 203.5378 3.075483
v -90.00006 203.5231 3.099879
v -90.00006 203.5044 3.130712
v -90.00006 203.158 3.702582
v -90.00006 202.9597 4.029899
v -90.00006 203.8053 5.1813
v -90.00006 202.9597 4.0299
v -90.00006 205.9194 8.059805

vn 6.234641E-07 -0.5919418 -0.8059807
vn 4.708764E-07 -0.5919418 -0.8059807
vn 0.6507914 -0.4494357 -0.6119462
vn 1 0 8.940697E-08
vn 1 0 8.940697E-08
vn -1.472249E-07 0.2384427 0.9711566
vn 0.1414209 0.5859926 0.7978804
vn -2.095695E-07 -0.6422088 0.7665297
vn -4.2504E-07 0.2384471 0.9711555
vn -3.839185E-07 0.238448 0.9711553
vn -4.226604E-07 0.2384476 0.9711554
vn -5.062442E-07 0.2384467 0.9711556
vn -5.647564E-07 0.2384456 0.9711558
vn 2.695919E-08 0.2384512 0.9711545
vn -2.606037E-07 0.2384485 0.9711552
vn -3.086717E-07 0.238448 0.9711553
vn -2.915229E-07 0.2384482 0.9711553
vn -2.903601E-07 0.2384483 0.9711552
vn -3.043221E-07 0.238448 0.9711553
vn -3.235169E-07 0.2384483 0.9711553
vn -3.177301E-07 0.2384472 0.9711555
vn -3.604169E-07 0.2384456 0.9711558
vn -2.499271E-07 0.2384478 0.9711553
vn -2.637433E-07 0.2384486 0.9711552
vn -2.604702E-07 0.08923816 0.9960104
vn -2.46357E-07 -0.4826871 0.8757929
vn -2.980689E-07 -0.5181047 0.8553173
vn -2.585807E-07 -0.5181039 0.8553176
vn -2.388818E-07 -0.5181037 0.8553178
vn -8.5559E-08 -0.5181019 0.855319
vn -1.103353E-09 -0.5181008 0.8553196
vn 2.151382E-07 -0.5180993 0.8553205
vn -5.146914E-08 -0.5181018 0.855319
vn -2.297026E-07 -0.5181027 0.8553183
vn -2.888057E-07 -0.5181033 0.8553181
vn -3.475421E-07 -0.5181033 0.855318
vn -2.489663E-07 -0.5181023 0.8553185
vn -2.696232E-07 -0.5181029 0.8553183
vn -3.104536E-07 -0.518104 0.8553177
vn -3.137305E-07 -0.5732757 0.8193625
vn -9.12887E-08 -0.9533072 0.3020026
vn -4.447559E-08 -0.971155 0.2384489
vn -7.192074E-08 -0.9711553 0.2384479
vn -1.126088E-07 -0.9711555 0.2384472
vn -8.41324E-08 -0.9711555 0.2384472
vn -6.637828E-08 -0.9711553 0.2384476
vn 5.979594E-08 -0.9711552 0.2384482
vn -9.669545E-09 -0.9711553 0.2384477
vn 1.278814E-08 -0.9711553 0.2384481
vn 2.030563E-08 -0.9711553 0.2384478
vn 2.724329E-08 -0.9711554 0.2384478
vn 3.592802E-08 -0.9711552 0.2384482
vn 1.155049E-07 -0.9991012 0.04239078
vn 3.796213E-08 -0.9711497 0.2384708
vn 2.329563E-07 -0.8553186 -0.5181024
vn 1.879257E-07 -0.8553179 -0.5181034
vn 1.510615E-07 -0.8553178 -0.5181039
vn 4.31165E-08 -0.8553171 -0.5181049
vn 2.44309E-07 -0.8553182 -0.5181031
vn 5.32698E-07 -0.8553191 -0.5181018
vn 8.116817E-07 -0.8553204 -0.5180994
vn 6.427563E-06 -0.8553439 -0.5180607
vn 2.844824E-06 -0.8553292 -0.518085
vn -5.085318E-07 -0.8553144 -0.5181094
vn -1.192581E-07 -0.8553166 -0.5181059
vn 2.183508E-07 -0.855318 -0.5181034
vn 2.439518E-07 -0.8553183 -0.5181028
vn 2.437325E-07 -0.8553185 -0.5181026
vn 1.737519E-07 -0.8553211 -0.5180984
vn 1.687573E-07 -0.9300228 -0.3675018
vn 2.801416E-07 -0.5919418 -0.8059807
vn 2.801417E-07 -0.5919418 -0.8059807
vn 2.801417E-07 -0.5919418 -0.8059807
vn 1 0 8.940697E-08
vn -3.762154E-07 0.8553181 0.5181032
vn 1 0 8.940697E-08
vn -1.793936E-07 -0.7222164 0.6916672
vn 0.7603925 -0.3844448 -0.5234553
vn 0.8262196 -0.3334694 -0.4540479
vn 0.07104929 -0.5904458 -0.8039439
vn 2.80142E-07 -0.5919418 -0.8059807
vn 2.801416E-07 -0.5919418 -0.8059807
vn 2.801413E-07 -0.5919418 -0.8059807
vn 0.103003 -0.5887933 -0.8016938
vn 1 0 8.940697E-08
vn 0.01266345 -0.591899 -0.8059127
vn 2.801427E-07 -0.5919418 -0.8059807
vn 0.1414216 -0.5859925 -0.7978802
vn 2.801427E-07 -0.5919364 -0.8059847
vn -0.06004152 -0.5908688 -0.8045304
vn -3.058905E-07 0.8553181 0.5181031
vn 2.801445E-07 -0.5919227 -0.8059947
vn -1 -4.109707E-06 -5.685135E-06
vn -1 0 -8.940697E-08
vn -1 3.47848E-07 -3.448793E-07
vn 0 0 0
vn -2.956997E-07 0.8553182 0.5181031
vn -2.604044E-07 0.8553182 0.5181031
vn -2.85509E-07 0.8553182 0.5181032
vn -1 3.47848E-07 -3.448793E-07
vn -1 3.47848E-07 -3.448793E-07
vn -1.192093E-07 -0.8059807 0.5919418
vn -1.192092E-07 -0.8059807 0.5919417
vn -1.192093E-07 -0.8059807 0.5919418
vn -1.192093E-07 -0.8059807 0.5919418
vn -1.192093E-07 -0.8059807 0.5919418
vn -1.192092E-07 -0.8059807 0.5919418
vn -1.192093E-07 -0.8059807 0.5919418
vn -1.192093E-07 -0.8059807 0.5919418
vn -1.192093E-07 -0.8059807 0.5919418
vn 1 0 8.940697E-08
vn 1 0 8.940697E-08
vn 1 0 8.940697E-08
vn 1 0 8.940697E-08
vn 1 0 8.940697E-08
vn 1 0 8.940697E-08
vn 1 0 8.940697E-08
vn 1 0 8.940697E-08
vn 1 0 8.940697E-08
vn 1 0 8.940697E-08
vn 1 0 8.940697E-08
vn 1 0 8.940697E-08
vn 1 0 8.940697E-08
vn 0.9999999 0 8.940696E-08
vn 1 0 8.940697E-08
vn 1 0 8.940697E-08
vn 0.9999999 0 8.940696E-08
vn 1 0 8.940697E-08
vn 1 0 8.940697E-08
vn 1 0 8.940697E-08
vn 0.9999999 0 8.940696E-08
vn 1 0 8.940697E-08
vn 1 0 8.940697E-08
vn 1 0 8.940697E-08
vn 1 0 8.940697E-08
vn 1 0 8.940697E-08
vn 1 0 8.940697E-08
vn 1 0 8.940697E-08
vn 1 0 8.940697E-08
vn 1 0 8.940697E-08
vn 1 0 8.940697E-08
vn 0.9999999 0 8.940696E-08
vn 1 0 8.940697E-08
vn 0.9999999 0 8.940696E-08
vn 0.9999999 0 8.940696E-08
vn 1 0 8.940697E-08
vn 0.9999999 0 8.940696E-08
vn 0.9999999 0 8.940696E-08
vn 4.253903E-07 -0.2384476 -0.9711555
vn 3.805149E-07 0.01472796 -0.9998916
vn 3.159194E-07 0.2851242 -0.9584906
vn 4.063392E-07 -0.2384475 -0.9711553
vn 1.653404E-07 0.7174444 -0.6966158
vn 6.135497E-08 0.8793684 -0.476142
vn -2.696915E-08 0.9711553 -0.2384476
vn -3.421454E-08 0.9711553 -0.2384476
vn 3.396797E-07 -0.2384477 -0.9711553
vn -1.192093E-07 -0.8059807 0.5919418
vn -1.192093E-07 -0.8059807 0.5919418
vn -1.192093E-07 -0.8059807 0.5919418
vn -1.192093E-07 -0.8059807 0.5919418
vn -1.192093E-07 -0.8059807 0.5919418
vn -1.192093E-07 -0.8059807 0.5919418
vn -1.283792E-07 -0.8059807 0.5919418
vn -1.283792E-07 -0.8059807 0.5919417
vn -0.2028033 0.5796409 0.7892321
vn -1 -4.361183E-07 -6.832204E-07
vn -0.9999999 1.73924E-07 -2.171431E-07
vn -1 1.222726E-07 -3.176712E-07
vn -1 1.73924E-07 -2.171431E-07
vn -1 1.73924E-07 -2.171431E-07
vn -1 -7.876381E-08 -4.101987E-07
vn -1 -7.876397E-08 -4.101988E-07
vn -1 -7.876333E-08 -4.101985E-07
vn -1 -7.876416E-08 -4.101988E-07
vn -1 -7.876424E-08 -4.101988E-07
vn -0.9999999 -7.876361E-08 -4.101987E-07
vn -1 -7.876137E-08 -4.101983E-07
vn -0.9999999 -7.876663E-08 -4.101991E-07
vn -1 1.688834E-07 -3.722809E-07
vn -1 2.459657E-07 -2.700532E-07
vn -1 1.711397E-07 -3.719349E-07
vn -1 1.711395E-07 -3.719354E-07
vn -1 1.711393E-07 -3.719362E-07
vn -1 1.711395E-07 -3.719357E-07
vn -1 1.711395E-07 -3.719357E-07
vn -1 1.711396E-07 -3.719356E-07
vn -1 1.711399E-07 -3.719351E-07
vn -1 3.058088E-07 -1.885714E-07
vn -1 3.207919E-07 -1.681709E-07
vn -1 3.20792E-07 -1.681708E-07
vn -1 3.207913E-07 -1.681711E-07
vn -1 3.207929E-07 -1.681704E-07
vn -1 3.207921E-07 -1.681707E-07
vn -1 3.207917E-07 -1.681709E-07
vn -1 2.54392E-07 -1.37779E-07
vn -1 2.825286E-07 8.173281E-08
vn -1 2.825286E-07 8.173301E-08
vn -1 2.825287E-07 8.173338E-08
vn -1 2.825269E-07 8.172626E-08
vn -1 2.82529E-07 8.17341E-08
vn -1 2.825287E-07 8.173356E-08
vn -1 2.825283E-07 8.17321E-08
vn -1 2.825279E-07 8.173096E-08
vn -1 1.73924E-07 -2.171431E-07
vn -1 1.73924E-07 -2.171431E-07
vn -0.9999999 1.73924E-07 -2.171431E-07

f 1//1 2//2 3//3
f 4//4 1//1 3//3
f 3//3 5//5 4//4
f 3//3 6//6 5//5
f 5//5 6//6 7//7
f 8//8 7//7 6//6
f 9//9 8//8 6//6
f 10//10 9//9 6//6
f 9//9 10//10 11//11
f 11//11 10//10 12//12
f 13//13 11//11 12//12
f 13//13 12//12 14//14
f 13//13 14//14 15//15
f 15//15 14//14 16//16
f 15//15 16//16 17//17
f 18//18 17//17 16//16
f 19//19 17//17 18//18
f 19//19 18//18 20//20
f 21//21 19//19 20//20
f 22//22 19//19 21//21
f 22//22 21//21 23//23
f 24//24 22//22 23//23
f 24//24 23//23 25//25
f 26//26 24//24 25//25
f 26//26 25//25 27//27
f 28//28 26//26 27//27
f 28//28 27//27 29//29
f 29//29 27//27 30//30
f 31//31 29//29 30//30
f 31//31 30//30 32//32
f 33//33 31//31 32//32
f 33//33 32//32 34//34
f 35//35 33//33 34//34
f 35//35 34//34 36//36
f 37//37 35//35 36//36
f 37//37 36//36 38//38
f 39//39 37//37 38//38
f 39//39 38//38 40//40
f 41//41 39//39 40//40
f 41//41 40//40 42//42
f 41//41 42//42 43//43
f 43//43 42//42 44//44
f 45//45 43//43 44//44
f 45//45 44//44 46//46
f 47//47 45//45 46//46
f 48//48 45//45 47//47
f 48//48 47//47 49//49
f 50//50 48//48 49//49
f 50//50 49//49 51//51
f 52//52 50//50 51//51
f 52//52 51//51 53//53
f 54//54 52//52 53//53
f 55//55 54//54 53//53
f 55//55 53//53 56//56
f 55//55 56//56 57//57
f 57//57 56//56 58//58
f 57//57 58//58 59//59
f 59//59 58//58 60//60
f 59//59 60//60 61//61
f 61//61 60//60 62//62
f 61//61 62//62 63//63
f 63//63 62//62 64//64
f 63//63 64//64 65//65
f 65//65 64//64 66//66
f 65//65 66//66 67//67
f 68//68 67//67 66//66
f 69//69 67//67 68//68
f 69//69 68//68 70//70
f 71//71 69//69 70//70
f 72//72 71//71 73//73
f 74//74 75//75 76//76
f 77//77 74//74 76//76
f 75//75 77//77 76//76
f 78//78 75//75 74//74
f 79//79 75//75 78//78
f 78//78 74//74 80//80
f 81//81 78//78 80//80
f 82//82 78//78 81//81
f 82//82 83//83 78//78
f 83//83 84//84 79//79
f 84//84 85//85 79//79
f 80//80 74//74 86//86
f 87//87 80//80 86//86
f 81//81 80//80 87//87
f 86//86 74//74 88//88
f 88//88 74//74 77//77
f 86//86 88//88 89//89
f 90//90 86//86 89//89
f 87//87 86//86 90//90
f 75//75 91//91 77//77
f 90//90 89//89 92//92
f 90//90 92//92 93//93
f 94//94 90//90 93//93
f 95//95 83//83 82//82
f 95//95 82//82 81//81
f 95//95 81//81 87//87
f 95//95 87//87 90//90
f 95//95 96//96 83//83
f 97//97 91//91 75//75
f 97//97 98//98 91//91
f 97//97 99//99 98//98
f 100//100 95//95 101//101
f 102//102 103//103 104//104
f 102//102 104//104 105//105
f 102//102 105//105 106//106
f 106//106 105//105 107//107
f 108//108 102//102 106//106
f 109//109 102//102 108//108
f 110//110 108//108 106//106
f 111//111 112//112 113//113
f 111//111 113//113 114//114
f 111//111 114//114 115//115
f 111//111 115//115 116//116
f 111//111 116//116 117//117
f 117//117 118//118 111//111
f 118//118 119//119 111//111
f 120//120 111//111 119//119
f 120//120 121//121 111//111
f 121//121 122//122 111//111
f 111//111 122//122 123//123
f 114//114 113//113 124//124
f 124//124 113//113 125//125
f 125//125 113//113 126//126
f 126//126 113//113 127//127
f 127//127 113//113 128//128
f 128//128 113//113 129//129
f 129//129 113//113 130//130
f 130//130 113//113 131//131
f 131//131 113//113 132//132
f 132//132 113//113 133//133
f 133//133 113//113 134//134
f 133//133 134//134 135//135
f 135//135 134//134 136//136
f 134//134 137//137 136//136
f 137//137 134//134 138//138
f 138//138 134//134 139//139
f 139//139 134//134 140//140
f 140//140 134//134 141//141
f 134//134 142//142 141//141
f 134//134 143//143 142//142
f 134//134 144//144 143//143
f 144//144 134//134 145//145
f 145//145 134//134 146//146
f 147//147 134//134 148//148
f 149//149 150//150 151//151
f 149//149 152//152 150//150
f 151//151 150//150 153//153
f 151//151 153//153 154//154
f 154//154 153//153 155//155
f 154//154 155//155 156//156
f 152//152 157//157 150//150
f 158//158 159//159 160//160
f 161//161 159//159 158//158
f 162//162 159//159 161//161
f 163//163 162//162 161//161
f 164//164 162//162 163//163
f 165//165 162//162 164//164
f 9//9 166//166 8//8
f 166//166 9//9 167//167
f 168//168 169//169 170//170
f 168//168 171//171 169//169
f 172//172 169//169 173//173
f 174//174 169//169 172//172
f 169//169 174//174 175//175
f 176//176 169//169 175//175
f 177//177 169//169 176//176
f 178//178 169//169 177//177
f 178//178 179//179 169//169
f 179//179 180//180 169//169
f 180//180 181//181 169//169
f 182//182 181//181 180//180
f 182//182 183//183 181//181
f 183//183 184//184 181//181
f 184//184 185//185 181//181
f 185//185 186//186 181//181
f 186//186 187//187 181//181
f 187//187 188//188 181//181
f 188//188 189//189 181//181
f 181//181 189//189 190//190
f 181//181 190//190 191//191
f 192//192 181//181 191//191
f 193//193 181//181 192//192
f 194//194 181//181 193//193
f 195//195 181//181 194//194
f 195//195 196//196 181//181
f 196//196 197//197 198//198
f 196//196 198//198 199//199
f 199//199 200//200 196//196
f 196//196 200//200 201//201
f 201//201 202//202 196//196
f 196//196 202//202 203//203
f 196//196 203//203 204//204
f 205//205 196//196 206//206
f 207//207 196//196 205//205
