v -96.06563 -7.596642 -85.923
v -96.06564 -95.88857 -41.77703
v -96.06563 -7.596642 -85.923
v -96.06563 -7.596649 -85.923
v -97.47076 -9.065025 -88.85977
v -98.03281 -9.652382 -90.03448
v -98.03281 -9.652382 -90.03448
v -98.03281 -97.94431 -45.8885
v -98.03282 -186.2362 -1.742527
v -97.86042 -9.7313 -90.19231
v -96.48129 -186.9465 -3.163017
v -97.839 -9.741104 -90.21193
v -96.2885 -187.0347 -3.339535
v -97.83298 -9.743858 -90.21743
v -96.23437 -187.0595 -3.389091
v -97.76539 -9.774803 -90.27931
v -95.62601 -187.338 -3.946064
v -96.932 -10.1563 -91.04232
v -95.53342 -187.3804 -4.030842
v -96.14185 -10.51801 -91.76575
v -96.05094 -10.55962 -91.84897
v -95.43552 -187.4252 -4.120472
v -95.86135 -10.64642 -92.02254
v -95.41446 -187.4348 -4.139755
v -95.35858 -10.87657 -92.48285
v -95.3586 -187.4604 -4.190903
v -95.36095 -10.9676 -92.6649
v -95.37167 -187.9616 -5.193359
v -95.37997 -188.2796 -5.829361
v -95.36154 -10.99018 -92.71008
v -95.38527 -188.4829 -6.235886
v -95.36172 -10.9969 -92.72352
v -95.38685 -188.5434 -6.356869
v -95.36304 -11.0477 -92.82512
v -95.39877 -189.0006 -7.27124
v -95.37825 -11.63049 -93.99069
v -95.40047 -189.0653 -7.400749
v -95.39081 -12.11197 -94.95365
v -95.40186 -189.1188 -7.507744
v -95.40323 -12.58787 -95.90546
v -95.40324 -189.1717 -7.613499
v -95.4877 -12.62477 -95.97926
v -96.16349 -189.5039 -8.277802
v -95.67696 -12.70747 -96.14464
v -97.86687 -190.2481 -9.766216
v -96.20499 -12.93816 -96.60602
v -96.41615 -13.03041 -96.79054
v -97.94901 -190.284 -9.837982
v -97.13618 -13.34499 -97.41971
v -98.02901 -190.3189 -9.907887
v -97.72906 -13.60402 -97.93775
v -98.09489 -190.3477 -9.96545
v -98.14059 -13.78382 -98.29736
v -98.14061 -190.3677 -10.00541
v -98.14061 -190.3677 -10.00541
v -98.36802 -13.78264 -98.29498
v -100.1874 -190.357 -9.984047
v -98.43496 -13.78229 -98.29428
v -100.7899 -190.3539 -9.977757
v -98.4418 -13.78225 -98.29422
v -100.8514 -190.3535 -9.977116
v -98.44496 -13.78223 -98.29418
v -100.8799 -190.3534 -9.976818
v -98.44897 -13.78221 -98.29414
v -100.916 -190.3532 -9.97644
v -98.52325 -13.78182 -98.29337
v -101.5845 -190.3497 -9.969463
v -101.9672 -13.76385 -98.25742
v -101.9672 -190.3477 -9.965473
v -101.9672 -13.76385 -98.25742
v -101.9672 -190.3477 -9.965473
v -101.9672 -13.76385 -98.25742
v -101.9672 -13.76385 -98.25742
v -102.5292 -14.35121 -99.43213
v -103.9344 -15.8196 -102.3689
v -103.9344 -15.81959 -102.3689
v -103.9344 -15.81959 -102.3689
v -101.9672 -13.76385 -98.25742
v -101.9672 -13.76385 -98.25742
v -101.9672 -13.76385 -98.25742
v -101.9672 -190.3477 -9.965473
v -101.9672 -190.3477 -9.965473
v -101.9672 -190.3477 -9.965473
v -101.9672 -13.76385 -98.25742
v -96.2812 -15.85953 -102.4488
v -101.9672 -13.76385 -98.25742
v -101.9672 -190.3477 -9.965473
v -101.9672 -13.76385 -98.25742
v -101.9672 -102.0558 -54.11145
v -101.9672 -190.3477 -9.965473
v -103.9344 -104.1115 -58.22292
v -101.9672 -190.3476 -9.965519
v -101.9672 -190.3477 -9.965473
v -102.5292 -190.9351 -11.14018
v -96.28121 -192.4434 -14.15682
v -101.9672 -190.3477 -9.965473
v -96.2812 -15.85953 -102.4488
v -103.9344 -192.4034 -14.07694
v -96.28121 -192.4434 -14.15682
v -98.14061 -190.3677 -10.00541
v -98.14061 -190.3677 -10.00541
v -96.06564 -95.88857 -41.77703
v -96.06563 -7.596642 -85.923
v -96.06563 -7.596649 -85.923
v -97.47076 -9.065025 -88.85977
v -98.03281 -97.94431 -45.8885
v -98.03281 -9.652382 -90.03448
v -97.21799 -185.3847 -0.03949738
v -96.06564 -184.1805 2.368946
v -98.03282 -186.2362 -1.742527
v -96.06563 -7.596642 -85.923
v -90.71717 -10.04502 -90.81976
v -90.80647 -13.46762 -97.66495
v -95.35858 -10.87657 -92.48285
v -95.86135 -10.64642 -92.02254
v -96.05094 -10.55962 -91.84897
v -96.14185 -10.51801 -91.76575
v -96.932 -10.1563 -91.04232
v -97.76539 -9.774803 -90.27931
v -97.83298 -9.743858 -90.21743
v -97.839 -9.741104 -90.21193
v -97.86042 -9.7313 -90.19231
v -98.03281 -9.652382 -90.03448
v -95.36095 -10.9676 -92.6649
v -95.36154 -10.99018 -92.71008
v -95.36172 -10.9969 -92.72352
v -95.36304 -11.0477 -92.82512
v -95.37825 -11.63049 -93.99069
v -95.39081 -12.11197 -94.95365
v -95.40323 -12.58787 -95.90546
v -95.4877 -12.62477 -95.97926
v -95.67696 -12.70747 -96.14464
v -96.20499 -12.93816 -96.60602
v -96.2812 -15.85953 -102.4488
v -96.41615 -13.03041 -96.79054
v -97.13618 -13.34499 -97.41971
v -97.72906 -13.60402 -97.93775
v -98.14059 -13.78382 -98.29736
v -98.36802 -13.78264 -98.29498
v -98.43496 -13.78229 -98.29428
v -98.4418 -13.78225 -98.29422
v -98.44496 -13.78223 -98.29418
v -98.44897 -13.78221 -98.29414
v -98.52325 -13.78182 -98.29337
v -101.9672 -13.76385 -98.25742
v -101.9672 -13.76385 -98.25742
v -101.9672 -13.76385 -98.25742
v -103.9344 -15.8196 -102.3689
v -96.06563 -7.596642 -85.923
v -90.71718 -186.6289 -2.527813
v -90.71717 -10.04502 -90.81976
v -96.06564 -95.88857 -41.77703
v -90.80648 -190.0515 -9.373005
v -90.80647 -13.46762 -97.66495
v -96.28121 -192.4434 -14.15682
v -96.2812 -15.85953 -102.4488
v -96.06564 -184.1805 2.368946
v -103.9344 -15.81959 -102.3689
v -101.9672 -102.0558 -54.11145
v -101.9672 -13.76385 -98.25742
v -103.9344 -104.1115 -58.22292
v -101.9672 -190.3476 -9.965519
v -103.9344 -192.4034 -14.07694
v -102.5292 -190.9351 -11.14018
v -101.9672 -190.3477 -9.965473
v -98.03282 -186.2362 -1.742527
v -90.71718 -186.6289 -2.527813
v -97.21799 -185.3847 -0.03949738
v -90.71718 -186.6289 -2.527813
v -96.06564 -184.1805 2.368946
v -98.03282 -186.2362 -1.742527
v -96.48129 -186.9465 -3.163017
v -98.03282 -186.2362 -1.742527
v -96.2885 -187.0347 -3.339535
v -96.23437 -187.0595 -3.389091
v -95.62601 -187.338 -3.946064
v -95.53342 -187.3804 -4.030842
v -95.43552 -187.4252 -4.120472
v -95.41446 -187.4348 -4.139755
v -95.3586 -187.4604 -4.190903
v -90.80648 -190.0515 -9.373005
v -95.37167 -187.9616 -5.193359
v -95.37997 -188.2796 -5.829361
v -95.38527 -188.4829 -6.235886
v -95.38685 -188.5434 -6.356869
v -95.39877 -189.0006 -7.27124
v -95.40047 -189.0653 -7.400749
v -95.40186 -189.1188 -7.507744
v -95.40324 -189.1717 -7.613499
v -96.16349 -189.5039 -8.277802
v -97.86687 -190.2481 -9.766216
v -97.94901 -190.284 -9.837982
v -98.02901 -190.3189 -9.907887
v -98.09489 -190.3477 -9.96545
v -98.14061 -190.3677 -10.00541
v -96.28121 -192.4434 -14.15682
v -98.14061 -190.3677 -10.00541
v -100.1874 -190.357 -9.984047
v -100.7899 -190.3539 -9.977757
v -100.8514 -190.3535 -9.977116
v -100.8799 -190.3534 -9.976818
v -100.916 -190.3532 -9.97644
v -101.5845 -190.3497 -9.969463
v -101.9672 -190.3477 -9.965473
v -102.5292 -190.9351 -11.14018
v -101.9672 -190.3477 -9.965473
v -103.9344 -192.4034 -14.07694

vn 0.393436 0.4111472 0.8222932
vn 0.393436 0.4111471 0.8222933
vn 0.2987189 0.8942513 0.3332889
vn 8.940697E-08 0.8944272 -0.4472137
vn 8.940697E-08 0.8944272 -0.4472137
vn -0.7153116 -0.3125154 -0.6250308
vn -0.3894818 -0.2805238 -0.8772745
vn -0.9865147 0.07319634 0.1463929
vn -0.7153084 -0.3125171 -0.6250336
vn -0.7153078 -0.3125174 -0.6250342
vn -0.7153081 -0.3125173 -0.6250339
vn -0.7153088 -0.3125171 -0.6250333
vn -0.7153095 -0.3125167 -0.6250325
vn -0.7153054 -0.3125181 -0.6250365
vn -0.7153074 -0.3125175 -0.6250346
vn -0.7153078 -0.3125173 -0.6250342
vn -0.7153078 -0.3125174 -0.6250344
vn -0.7153076 -0.3125174 -0.6250344
vn -0.7153078 -0.3125173 -0.6250342
vn -0.7153076 -0.3125175 -0.6250345
vn -0.7153084 -0.3125171 -0.6250337
vn -0.7153094 -0.3125166 -0.6250326
vn -0.715308 -0.3125172 -0.625034
vn -0.7153074 -0.3125175 -0.6250347
vn -0.8125275 -0.2606913 -0.5213822
vn -0.9995724 -0.01307662 -0.02615298
vn -0.999932 0.005218282 0.01043694
vn -0.9999319 0.005217949 0.01043619
vn -0.9999319 0.005217822 0.01043589
vn -0.9999321 0.005217025 0.01043396
vn -0.999932 0.005216517 0.01043275
vn -0.999932 0.005215958 0.01043115
vn -0.999932 0.005216985 0.0104338
vn -0.9999319 0.005217354 0.01043494
vn -0.9999321 0.00521756 0.01043548
vn -0.9999319 0.005217546 0.01043558
vn -0.9999319 0.005217121 0.01043451
vn -0.999932 0.005217399 0.01043512
vn -0.9999319 0.005217901 0.01043621
vn -0.9969958 0.03463923 0.06927889
vn -0.744481 0.2985794 0.5971587
vn -0.6988102 0.3198951 0.6397901
vn -0.6988095 0.3198954 0.6397908
vn -0.698809 0.3198956 0.6397913
vn -0.698809 0.3198956 0.6397913
vn -0.6988093 0.3198955 0.6397909
vn -0.6988097 0.3198954 0.6397905
vn -0.6988094 0.3198955 0.6397909
vn -0.6988097 0.3198954 0.6397907
vn -0.6988093 0.3198955 0.6397908
vn -0.6988094 0.3198955 0.6397909
vn -0.6988097 0.3198954 0.6397905
vn -0.5441436 0.3752089 0.7504174
vn -0.6988264 0.3198881 0.639776
vn 0.01166611 0.4471833 0.8943663
vn 0.0116674 0.4471833 0.8943662
vn 0.01166785 0.4471833 0.8943663
vn 0.01166905 0.4471831 0.8943663
vn 0.01166699 0.4471834 0.8943663
vn 0.01166538 0.4471837 0.8943662
vn 0.01166264 0.4471839 0.894366
vn 0.0116174 0.4471892 0.894364
vn 0.01164578 0.4471858 0.8943653
vn 0.01167429 0.4471827 0.8943665
vn 0.01167017 0.447183 0.8943664
vn 0.01166729 0.4471833 0.8943662
vn 0.01166668 0.4471833 0.8943662
vn 0.01166641 0.4471834 0.8943663
vn 0.01166138 0.4471833 0.8943663
vn -0.1560032 0.4417383 0.8834763
vn 0.393436 0.4111469 0.8222934
vn 0.393436 0.4111469 0.8222934
vn 0.393436 0.4111469 0.8222934
vn 8.940697E-08 0.8944272 -0.4472137
vn -0.01166705 -0.4471835 -0.8943662
vn 8.940697E-08 0.8944272 -0.4472137
vn -0.9626863 0.1210249 0.2420498
vn 0.2555225 0.9471406 0.193992
vn 0.2216416 0.970612 0.093741
vn 0.3924417 0.4736561 0.7884412
vn 0.393436 0.4111469 0.8222934
vn 0.393436 0.4111469 0.8222934
vn 0.393436 0.4111469 0.8222934
vn 0.3913433 0.5010884 0.7718555
vn 8.940697E-08 0.8944272 -0.4472137
vn 0.3933991 0.4224413 0.8165663
vn 0.393436 0.4111469 0.8222934
vn 0.3894817 0.5335057 0.7507834
vn 0.393442 0.4111458 0.8222911
vn 0.3927319 0.356701 0.8476592
vn -0.01166702 -0.4471834 -0.8943661
vn 0.3934577 0.4111428 0.8222851
vn 2.642123E-06 -0.8944243 0.4472194
vn -8.940697E-08 -0.8944272 0.4472137
vn 3.073702E-07 -0.8944272 0.4472136
vn 0 0 0
vn -0.01166697 -0.4471834 -0.8943663
vn -0.01166699 -0.4471834 -0.8943663
vn -0.01166699 -0.4471834 -0.8943663
vn 3.073702E-07 -0.8944272 0.4472136
vn 3.073702E-07 -0.8944272 0.4472136
vn -0.9193521 0.1759499 0.3518998
vn -0.919352 0.1759499 0.3518998
vn -0.9193521 0.1759499 0.3518998
vn -0.9193521 0.1759499 0.3518998
vn -0.9193521 0.1759499 0.3518998
vn -0.9193521 0.1759499 0.3518998
vn -0.9193521 0.1759499 0.3518998
vn -0.9193521 0.1759499 0.3518998
vn -0.9193521 0.1759499 0.3518998
vn 8.940697E-08 0.8944272 -0.4472137
vn 8.940697E-08 0.8944272 -0.4472137
vn 8.940697E-08 0.8944272 -0.4472137
vn 8.940697E-08 0.8944272 -0.4472137
vn 8.940697E-08 0.8944272 -0.4472137
vn 8.940697E-08 0.8944272 -0.4472137
vn 8.940697E-08 0.8944272 -0.4472137
vn 8.940697E-08 0.8944272 -0.4472137
vn 8.940697E-08 0.8944272 -0.4472137
vn 8.940697E-08 0.8944272 -0.4472137
vn 8.940697E-08 0.8944272 -0.4472137
vn 8.940697E-08 0.8944272 -0.4472137
vn 8.940697E-08 0.8944272 -0.4472137
vn 8.940696E-08 0.8944271 -0.4472137
vn 8.940697E-08 0.8944272 -0.4472137
vn 8.940697E-08 0.8944272 -0.4472137
vn 8.940696E-08 0.8944271 -0.4472137
vn 8.940697E-08 0.8944272 -0.4472137
vn 8.940697E-08 0.8944272 -0.4472137
vn 8.940697E-08 0.8944272 -0.4472137
vn 8.940696E-08 0.8944271 -0.4472137
vn 8.940697E-08 0.8944272 -0.4472137
vn 8.940697E-08 0.8944272 -0.4472137
vn 8.940697E-08 0.8944272 -0.4472137
vn 8.940697E-08 0.8944272 -0.4472137
vn 8.940697E-08 0.8944272 -0.4472137
vn 8.940697E-08 0.8944272 -0.4472137
vn 8.940697E-08 0.8944272 -0.4472137
vn 8.940697E-08 0.8944272 -0.4472137
vn 8.940697E-08 0.8944272 -0.4472137
vn 8.940697E-08 0.8944272 -0.4472137
vn 8.940696E-08 0.8944271 -0.4472137
vn 8.940697E-08 0.8944272 -0.4472137
vn 8.940696E-08 0.8944271 -0.4472137
vn 8.940696E-08 0.8944271 -0.4472137
vn 8.940697E-08 0.8944272 -0.4472137
vn 8.940696E-08 0.8944271 -0.4472137
vn 8.940696E-08 0.8944271 -0.4472137
vn 0.7153081 0.3125173 0.625034
vn 0.8686944 0.2215268 0.4430531
vn 0.9704208 0.1079663 0.2159321
vn 0.7153081 0.3125172 0.6250338
vn 0.964524 -0.1180623 -0.2361248
vn 0.8569007 -0.2305304 -0.4610608
vn 0.6988093 -0.3198956 -0.6397909
vn 0.6988093 -0.3198956 -0.6397909
vn 0.715308 0.3125173 0.625034
vn -0.9193521 0.1759499 0.3518998
vn -0.9193521 0.1759499 0.3518998
vn -0.9193521 0.1759499 0.3518998
vn -0.9193521 0.1759499 0.3518998
vn -0.9193521 0.1759499 0.3518998
vn -0.9193521 0.1759499 0.3518998
vn -0.9193521 0.1759499 0.3518998
vn -0.919352 0.1759499 0.3518998
vn -0.3852602 -0.5839956 -0.7145094
vn 2.004604E-07 -0.8944269 0.4472143
vn 1.089816E-07 -0.8944272 0.4472136
vn 1.693234E-07 -0.8944272 0.4472137
vn 1.089816E-07 -0.8944272 0.4472136
vn 1.089816E-07 -0.8944272 0.4472136
vn 1.468734E-07 -0.8944271 0.4472139
vn 1.468734E-07 -0.8944271 0.4472139
vn 1.468735E-07 -0.8944271 0.4472139
vn 1.468733E-07 -0.8944271 0.4472139
vn 1.468733E-07 -0.8944271 0.4472139
vn 1.468735E-07 -0.894427 0.4472139
vn 1.468743E-07 -0.8944271 0.4472139
vn 1.468724E-07 -0.894427 0.4472139
vn 2.400414E-07 -0.8944272 0.4472137
vn 1.911569E-07 -0.8944272 0.4472136
vn 2.408898E-07 -0.8944272 0.4472137
vn 2.408902E-07 -0.8944272 0.4472137
vn 2.408907E-07 -0.8944272 0.4472137
vn 2.408904E-07 -0.8944272 0.4472137
vn 2.408904E-07 -0.8944272 0.4472137
vn 2.408904E-07 -0.8944272 0.4472137
vn 2.408901E-07 -0.8944272 0.4472137
vn 1.513819E-07 -0.8944273 0.4472135
vn 1.414236E-07 -0.8944273 0.4472135
vn 1.414235E-07 -0.8944273 0.4472135
vn 1.414235E-07 -0.8944273 0.4472135
vn 1.414236E-07 -0.8944273 0.4472135
vn 1.414235E-07 -0.8944273 0.4472135
vn 1.414235E-07 -0.8944273 0.4472135
vn 8.150989E-08 -0.8944272 0.4472135
vn -9.326083E-08 -0.8944273 0.4472134
vn -9.326097E-08 -0.8944273 0.4472134
vn -9.326126E-08 -0.8944273 0.4472134
vn -9.325602E-08 -0.8944273 0.4472134
vn -9.326174E-08 -0.8944273 0.4472134
vn -9.32614E-08 -0.8944273 0.4472134
vn -9.326035E-08 -0.8944273 0.4472134
vn -9.325957E-08 -0.8944273 0.4472134
vn 1.089816E-07 -0.8944272 0.4472136
vn 1.089816E-07 -0.8944272 0.4472136
vn 1.089816E-07 -0.8944272 0.4472136

f 1//1 2//2 3//3
f 4//4 1//1 3//3
f 3//3 5//5 4//4
f 3//3 6//6 5//5
f 5//5 6//6 7//7
f 8//8 7//7 6//6
f 9//9 8//8 6//6
f 10//10 9//9 6//6
f 9//9 10//10 11//11
f 11//11 10//10 12//12
f 13//13 11//11 12//12
f 13//13 12//12 14//14
f 13//13 14//14 15//15
f 15//15 14//14 16//16
f 15//15 16//16 17//17
f 18//18 17//17 16//16
f 19//19 17//17 18//18
f 19//19 18//18 20//20
f 21//21 19//19 20//20
f 22//22 19//19 21//21
f 22//22 21//21 23//23
f 24//24 22//22 23//23
f 24//24 23//23 25//25
f 26//26 24//24 25//25
f 26//26 25//25 27//27
f 28//28 26//26 27//27
f 28//28 27//27 29//29
f 29//29 27//27 30//30
f 31//31 29//29 30//30
f 31//31 30//30 32//32
f 33//33 31//31 32//32
f 33//33 32//32 34//34
f 35//35 33//33 34//34
f 35//35 34//34 36//36
f 37//37 35//35 36//36
f 37//37 36//36 38//38
f 39//39 37//37 38//38
f 39//39 38//38 40//40
f 41//41 39//39 40//40
f 41//41 40//40 42//42
f 41//41 42//42 43//43
f 43//43 42//42 44//44
f 45//45 43//43 44//44
f 45//45 44//44 46//46
f 47//47 45//45 46//46
f 48//48 45//45 47//47
f 48//48 47//47 49//49
f 50//50 48//48 49//49
f 50//50 49//49 51//51
f 52//52 50//50 51//51
f 52//52 51//51 53//53
f 54//54 52//52 53//53
f 55//55 54//54 53//53
f 55//55 53//53 56//56
f 55//55 56//56 57//57
f 57//57 56//56 58//58
f 57//57 58//58 59//59
f 59//59 58//58 60//60
f 59//59 60//60 61//61
f 61//61 60//60 62//62
f 61//61 62//62 63//63
f 63//63 62//62 64//64
f 63//63 64//64 65//65
f 65//65 64//64 66//66
f 65//65 66//66 67//67
f 68//68 67//67 66//66
f 69//69 67//67 68//68
f 69//69 68//68 70//70
f 71//71 69//69 70//70
f 72//72 71//71 73//73
f 74//74 75//75 76//76
f 77//77 74//74 76//76
f 75//75 77//77 76//76
f 78//78 75//75 74//74
f 79//79 75//75 78//78
f 78//78 74//74 80//80
f 81//81 78//78 80//80
f 82//82 78//78 81//81
f 82//82 83//83 78//78
f 83//83 84//84 79//79
f 84//84 85//85 79//79
f 80//80 74//74 86//86
f 87//87 80//80 86//86
f 81//81 80//80 87//87
f 86//86 74//74 88//88
f 88//88 74//74 77//77
f 86//86 88//88 89//89
f 90//90 86//86 89//89
f 87//87 86//86 90//90
f 75//75 91//91 77//77
f 90//90 89//89 92//92
f 90//90 92//92 93//93
f 94//94 90//90 93//93
f 95//95 83//83 82//82
f 95//95 82//82 81//81
f 95//95 81//81 87//87
f 95//95 87//87 90//90
f 95//95 96//96 83//83
f 97//97 91//91 75//75
f 97//97 98//98 91//91
f 97//97 99//99 98//98
f 100//100 95//95 101//101
f 102//102 103//103 104//104
f 102//102 104//104 105//105
f 102//102 105//105 106//106
f 106//106 105//105 107//107
f 108//108 102//102 106//106
f 109//109 102//102 108//108
f 110//110 108//108 106//106
f 111//111 112//112 113//113
f 111//111 113//113 114//114
f 111//111 114//114 115//115
f 111//111 115//115 116//116
f 111//111 116//116 117//117
f 117//117 118//118 111//111
f 118//118 119//119 111//111
f 120//120 111//111 119//119
f 120//120 121//121 111//111
f 121//121 122//122 111//111
f 111//111 122//122 123//123
f 114//114 113//113 124//124
f 124//124 113//113 125//125
f 125//125 113//113 126//126
f 126//126 113//113 127//127
f 127//127 113//113 128//128
f 128//128 113//113 129//129
f 129//129 113//113 130//130
f 130//130 113//113 131//131
f 131//131 113//113 132//132
f 132//132 113//113 133//133
f 133//133 113//113 134//134
f 133//133 134//134 135//135
f 135//135 134//134 136//136
f 134//134 137//137 136//136
f 137//137 134//134 138//138
f 138//138 134//134 139//139
f 139//139 134//134 140//140
f 140//140 134//134 141//141
f 134//134 142//142 141//141
f 134//134 143//143 142//142
f 134//134 144//144 143//143
f 144//144 134//134 145//145
f 145//145 134//134 146//146
f 147//147 134//134 148//148
f 149//149 150//150 151//151
f 149//149 152//152 150//150
f 151//151 150//150 153//153
f 151//151 153//153 154//154
f 154//154 153//153 155//155
f 154//154 155//155 156//156
f 152//152 157//157 150//150
f 158//158 159//159 160//160
f 161//161 159//159 158//158
f 162//162 159//159 161//161
f 163//163 162//162 161//161
f 164//164 162//162 163//163
f 165//165 162//162 164//164
f 9//9 166//166 8//8
f 166//166 9//9 167//167
f 168//168 169//169 170//170
f 168//168 171//171 169//169
f 172//172 169//169 173//173
f 174//174 169//169 172//172
f 169//169 174//174 175//175
f 176//176 169//169 175//175
f 177//177 169//169 176//176
f 178//178 169//169 177//177
f 178//178 179//179 169//169
f 179//179 180//180 169//169
f 180//180 181//181 169//169
f 182//182 181//181 180//180
f 182//182 183//183 181//181
f 183//183 184//184 181//181
f 184//184 185//185 181//181
f 185//185 186//186 181//181
f 186//186 187//187 181//181
f 187//187 188//188 181//181
f 188//188 189//189 181//181
f 181//181 189//189 190//190
f 181//181 190//190 191//191
f 192//192 181//181 191//191
f 193//193 181//181 192//192
f 194//194 181//181 193//193
f 195//195 181//181 194//194
f 195//195 196//196 181//181
f 196//196 197//197 198//198
f 196//196 198//198 199//199
f 199//199 200//200 196//196
f 196//196 200//200 201//201
f 201//201 202//202 196//196
f 196//196 202//202 203//203
f 196//196 203//203 204//204
f 205//205 196//196 206//206
f 207//207 196//196 205//205
