v 3.307862 7.48777 -114.2948
v 3.30787 95.77966 -158.4408
v 3.307862 7.48777 -114.2948
v 3.307861 7.48777 -114.2948
v 2.12648 8.995049 -111.2803
v 1.653928 9.597961 -110.0745
v 1.653927 9.597961 -110.0745
v 1.653936 97.88985 -154.2204
v 1.653944 186.1817 -198.3663
v 1.837784 9.671524 -109.9273
v 3.308656 186.8438 -197.0423
v 1.860631 9.680664 -109.9091
v 3.514277 186.926 -196.8778
v 1.867046 9.683228 -109.9039
v 3.572006 186.9491 -196.8316
v 1.939136 9.712067 -109.8463
v 4.220816 187.2087 -196.3124
v 2.827947 10.06767 -109.135
v 4.319572 187.2482 -196.2334
v 3.670653 10.40482 -108.4607
v 3.767598 10.44361 -108.3832
v 4.423977 187.29 -196.1498
v 3.969798 10.52451 -108.2214
v 4.446443 187.299 -196.1319
v 4.506009 10.73904 -107.7923
v 4.506024 187.3228 -196.0842
v 4.517313 10.82993 -107.6105
v 4.568268 187.8233 -195.0832
v 4.607758 188.1408 -194.4482
v 4.520116 10.85249 -107.5654
v 4.633001 188.3438 -194.0422
v 4.520951 10.8592 -107.552
v 4.640513 188.4042 -193.9214
v 4.52726 10.90992 -107.4505
v 4.697289 188.8607 -193.0084
v 4.599632 11.49185 -106.2867
v 4.70533 188.9254 -192.8791
v 4.659426 11.97262 -105.3251
v 4.711975 188.9788 -192.7722
v 4.718524 12.44781 -104.3748
v 4.718541 189.0316 -192.6666
v 4.639786 12.48717 -104.296
v 4.009906 189.3858 -191.9582
v 4.463371 12.57536 -104.1197
v 2.422159 190.1795 -190.3708
v 3.971197 12.8214 -103.6276
v 3.774369 12.91979 -103.4308
v 2.345603 190.2178 -190.2942
v 3.103216 13.25529 -102.7598
v 2.271032 190.2551 -190.2197
v 2.550594 13.53155 -102.2073
v 2.209628 190.2858 -190.1583
v 2.166991 13.7233 -101.8238
v 2.167007 190.3071 -190.1157
v 2.167006 190.3071 -190.1157
v 1.939902 13.72895 -101.8125
v 0.1231963 190.3579 -190.014
v 1.873059 13.73061 -101.8092
v -0.4783753 190.3729 -189.9841
v 1.866235 13.73079 -101.8088
v -0.5397871 190.3744 -189.981
v 1.863071 13.73087 -101.8087
v -0.5682657 190.3751 -189.9796
v 1.859072 13.73096 -101.8085
v -0.6042584 190.376 -189.9778
v 1.784898 13.73281 -101.8048
v -1.271832 190.3926 -189.9446
v -1.653938 13.81834 -101.6337
v -1.653926 190.4021 -189.9256
v -1.653941 13.81834 -101.6337
v -1.653926 190.4021 -189.9256
v -1.653942 13.81834 -101.6337
v -1.653941 13.81834 -101.6337
v -2.126494 14.42126 -100.4279
v -3.307876 15.92854 -97.41331
v -3.307876 15.92854 -97.41331
v -3.307875 15.92854 -97.41331
v -1.653942 13.81834 -101.6337
v -1.653941 13.81834 -101.6337
v -1.653942 13.81834 -101.6337
v -1.653926 190.4021 -189.9256
v -1.653926 190.4021 -189.9256
v -1.653926 190.4021 -189.9256
v -1.653941 13.81834 -101.6337
v 4.333989 15.73846 -97.79347
v -1.653942 13.81834 -101.6337
v -1.653926 190.4021 -189.9256
v -1.653942 13.81834 -101.6337
v -1.653934 102.1102 -145.7796
v -1.653926 190.4021 -189.9256
v -3.307868 104.2204 -141.5593
v -1.653926 190.402 -189.9255
v -1.653926 190.4021 -189.9256
v -2.126478 191.005 -188.7198
v 4.334004 192.3222 -186.0854
v -1.653926 190.4021 -189.9256
v 4.333989 15.73846 -97.79347
v -3.30786 192.5123 -185.7052
v 4.334004 192.3222 -186.0854
v 2.167006 190.3071 -190.1157
v 2.167007 190.3071 -190.1157
v 3.30787 95.77966 -158.4408
v 3.307862 7.48777 -114.2948
v 3.307861 7.48777 -114.2948
v 2.12648 8.995049 -111.2803
v 1.653936 97.88985 -154.2204
v 1.653927 9.597961 -110.0745
v 2.339026 185.3077 -200.1145
v 3.307878 184.0715 -202.5867
v 1.653944 186.1817 -198.3663
v 3.307862 7.48777 -114.2948
v 9.012023 9.769928 -109.7305
v 9.437057 13.18748 -102.8954
v 4.506009 10.73904 -107.7923
v 3.969798 10.52451 -108.2214
v 3.767598 10.44361 -108.3832
v 3.670653 10.40482 -108.4607
v 2.827947 10.06767 -109.135
v 1.939136 9.712067 -109.8463
v 1.867046 9.683228 -109.9039
v 1.860631 9.680664 -109.9091
v 1.837784 9.671524 -109.9273
v 1.653928 9.597961 -110.0745
v 4.517313 10.82993 -107.6105
v 4.520116 10.85249 -107.5654
v 4.520951 10.8592 -107.552
v 4.52726 10.90992 -107.4505
v 4.599632 11.49185 -106.2867
v 4.659426 11.97262 -105.3251
v 4.718524 12.44781 -104.3748
v 4.639786 12.48717 -104.296
v 4.463371 12.57536 -104.1197
v 3.971197 12.8214 -103.6276
v 4.333989 15.73846 -97.79347
v 3.774369 12.91979 -103.4308
v 3.103216 13.25529 -102.7598
v 2.550594 13.53155 -102.2073
v 2.166991 13.7233 -101.8238
v 1.939902 13.72895 -101.8125
v 1.873059 13.73061 -101.8092
v 1.866235 13.73079 -101.8088
v 1.863071 13.73087 -101.8087
v 1.859072 13.73096 -101.8085
v 1.784898 13.73281 -101.8048
v -1.653938 13.81834 -101.6337
v -1.653941 13.81834 -101.6337
v -1.653941 13.81834 -101.6337
v -3.307876 15.92854 -97.41331
v 3.307862 7.48777 -114.2948
v 9.012038 186.3537 -198.0224
v 9.012023 9.769928 -109.7305
v 3.30787 95.77966 -158.4408
v 9.437072 189.7712 -191.1873
v 9.437057 13.18748 -102.8954
v 4.334004 192.3222 -186.0854
v 4.333989 15.73846 -97.79347
v 3.307878 184.0715 -202.5867
v -3.307875 15.92854 -97.41331
v -1.653934 102.1102 -145.7796
v -1.653942 13.81834 -101.6337
v -3.307868 104.2204 -141.5593
v -1.653926 190.402 -189.9255
v -3.30786 192.5123 -185.7052
v -2.126478 191.005 -188.7198
v -1.653926 190.4021 -189.9256
v 1.653944 186.1817 -198.3663
v 9.012038 186.3537 -198.0224
v 2.339026 185.3077 -200.1145
v 9.012038 186.3537 -198.0224
v 3.307878 184.0715 -202.5867
v 1.653944 186.1817 -198.3663
v 3.308656 186.8438 -197.0423
v 1.653944 186.1817 -198.3663
v 3.514277 186.926 -196.8778
v 3.572006 186.9491 -196.8316
v 4.220816 187.2087 -196.3124
v 4.319572 187.2482 -196.2334
v 4.423977 187.29 -196.1498
v 4.446443 187.299 -196.1319
v 4.506024 187.3228 -196.0842
v 9.437072 189.7712 -191.1873
v 4.568268 187.8233 -195.0832
v 4.607758 188.1408 -194.4482
v 4.633001 188.3438 -194.0422
v 4.640513 188.4042 -193.9214
v 4.697289 188.8607 -193.0084
v 4.70533 188.9254 -192.8791
v 4.711975 188.9788 -192.7722
v 4.718541 189.0316 -192.6666
v 4.009906 189.3858 -191.9582
v 2.422159 190.1795 -190.3708
v 2.345603 190.2178 -190.2942
v 2.271032 190.2551 -190.2197
v 2.209628 190.2858 -190.1583
v 2.167007 190.3071 -190.1157
v 4.334004 192.3222 -186.0854
v 2.167006 190.3071 -190.1157
v 0.1231963 190.3579 -190.014
v -0.4783753 190.3729 -189.9841
v -0.5397871 190.3744 -189.981
v -0.5682657 190.3751 -189.9796
v -0.6042584 190.376 -189.9778
v -1.271832 190.3926 -189.9446
v -1.653926 190.4021 -189.9256
v -2.126478 191.005 -188.7198
v -1.653926 190.4021 -189.9256
v -3.30786 192.5123 -185.7052

vn 0.3307866 -0.4220385 -0.8440757
vn 0.3307866 -0.4220383 -0.8440758
vn 0.2511519 -0.9025207 -0.3498275
vn -5.960464E-08 -0.8944272 0.4472136
vn -5.960464E-08 -0.8944272 0.4472136
vn -0.6667511 0.3332996 0.6665991
vn -0.3274621 0.2913056 0.8988381
vn -0.9952814 -0.04339299 -0.08678635
vn -0.6667477 0.3333012 0.6666017
vn -0.6667471 0.3333015 0.6666023
vn -0.6667473 0.3333014 0.6666021
vn -0.6667481 0.3333012 0.6666014
vn -0.6667489 0.3333009 0.6666007
vn -0.6667446 0.3333021 0.6666045
vn -0.6667467 0.3333015 0.6666027
vn -0.666747 0.3333014 0.6666023
vn -0.666747 0.3333015 0.6666025
vn -0.6667469 0.3333015 0.6666025
vn -0.6667471 0.3333014 0.6666023
vn -0.6667469 0.3333015 0.6666026
vn -0.6667477 0.3333012 0.6666018
vn -0.6667488 0.3333007 0.6666008
vn -0.6667472 0.3333013 0.6666022
vn -0.6667466 0.3333016 0.6666027
vn -0.7715322 0.2845132 0.569026
vn -0.9953501 0.04307738 0.08615432
vn -0.998457 0.0248346 0.04966865
vn -0.9984569 0.02483493 0.0496694
vn -0.9984569 0.02483506 0.0496697
vn -0.9984569 0.02483586 0.04967164
vn -0.9984567 0.02483636 0.04967283
vn -0.9984566 0.02483692 0.04967443
vn -0.9984568 0.0248359 0.04967179
vn -0.9984568 0.02483553 0.04967065
vn -0.998457 0.02483533 0.04967012
vn -0.9984569 0.02483534 0.04967
vn -0.9984568 0.02483576 0.04967107
vn -0.9984569 0.02483549 0.04967048
vn -0.998457 0.02483498 0.04966938
vn -0.999947 -0.004608096 -0.009216791
vn -0.7876505 -0.2755383 -0.5510768
vn -0.7452847 -0.298178 -0.596356
vn -0.7452841 -0.2981783 -0.5963568
vn -0.7452837 -0.2981785 -0.5963573
vn -0.7452836 -0.2981785 -0.5963572
vn -0.7452838 -0.2981784 -0.5963569
vn -0.7452843 -0.2981783 -0.5963565
vn -0.745284 -0.2981784 -0.5963569
vn -0.7452843 -0.2981783 -0.5963566
vn -0.745284 -0.2981784 -0.5963568
vn -0.745284 -0.2981785 -0.5963569
vn -0.7452843 -0.2981783 -0.5963565
vn -0.5992764 -0.3580135 -0.7160267
vn -0.7452998 -0.2981705 -0.596341
vn -0.05553401 -0.4465236 -0.8930469
vn -0.05553272 -0.4465236 -0.8930469
vn -0.05553228 -0.4465236 -0.893047
vn -0.05553107 -0.4465235 -0.893047
vn -0.05553313 -0.4465237 -0.8930469
vn -0.05553474 -0.4465239 -0.8930468
vn -0.05553747 -0.4465241 -0.8930464
vn -0.05558265 -0.446528 -0.8930417
vn -0.05555432 -0.4465255 -0.8930447
vn -0.05552585 -0.4465232 -0.8930476
vn -0.05552996 -0.4465235 -0.8930473
vn -0.05553283 -0.4465236 -0.8930469
vn -0.05553344 -0.4465236 -0.8930469
vn -0.05553371 -0.4465237 -0.8930469
vn -0.05553873 -0.4465235 -0.8930467
vn -0.2220067 -0.4360536 -0.8721069
vn 0.3307866 -0.4220382 -0.8440759
vn 0.3307866 -0.4220382 -0.8440759
vn 0.3307866 -0.4220382 -0.8440759
vn -5.960464E-08 -0.8944272 0.4472136
vn 0.05553307 0.4465238 0.8930469
vn -5.960464E-08 -0.8944272 0.4472136
vn -0.9786914 -0.09182934 -0.183659
vn 0.2148339 -0.9542142 -0.208139
vn 0.1863481 -0.9767476 -0.1060122
vn 0.3299507 -0.4845198 -0.8101687
vn 0.3307866 -0.4220382 -0.8440759
vn 0.3307866 -0.4220382 -0.8440759
vn 0.3307866 -0.4220382 -0.8440759
vn 0.3290272 -0.5119218 -0.7935221
vn -5.960464E-08 -0.8944272 0.4472136
vn 0.3307547 -0.4333315 -0.8383468
vn 0.3307866 -0.4220382 -0.8440759
vn 0.327462 -0.5442876 -0.7723469
vn 0.3307929 -0.4220372 -0.844074
vn 0.3301958 -0.3675728 -0.8694028
vn 0.05553309 0.4465237 0.8930469
vn 0.330809 -0.4220347 -0.8440689
vn 2.356175E-06 0.8944243 -0.4472195
vn 5.960464E-08 0.8944272 -0.4472136
vn 4.668924E-07 0.8944273 -0.4472135
vn 0 0 0
vn 0.05553316 0.4465237 0.8930469
vn 0.05553313 0.4465237 0.8930469
vn 0.05553314 0.4465238 0.893047
vn 4.668924E-07 0.8944273 -0.4472135
vn 4.668924E-07 0.8944273 -0.4472135
vn -0.9437056 -0.1479322 -0.2958646
vn -0.9437056 -0.1479322 -0.2958646
vn -0.9437056 -0.1479322 -0.2958646
vn -0.9437056 -0.1479322 -0.2958646
vn -0.9437056 -0.1479322 -0.2958646
vn -0.9437056 -0.1479322 -0.2958646
vn -0.9437056 -0.1479322 -0.2958646
vn -0.9437056 -0.1479322 -0.2958646
vn -0.9437056 -0.1479322 -0.2958646
vn -5.960464E-08 -0.8944272 0.4472136
vn -5.960464E-08 -0.8944272 0.4472136
vn -5.960464E-08 -0.8944272 0.4472136
vn -5.960464E-08 -0.8944272 0.4472136
vn -5.960464E-08 -0.8944272 0.4472136
vn -5.960464E-08 -0.8944272 0.4472136
vn -5.960464E-08 -0.8944272 0.4472136
vn -5.960464E-08 -0.8944272 0.4472136
vn -5.960464E-08 -0.8944272 0.4472136
vn -5.960464E-08 -0.8944272 0.4472136
vn -5.960464E-08 -0.8944272 0.4472136
vn -5.960464E-08 -0.8944272 0.4472136
vn -5.960464E-08 -0.8944272 0.4472136
vn -5.960464E-08 -0.8944272 0.4472136
vn -5.960464E-08 -0.8944272 0.4472136
vn -5.960464E-08 -0.8944272 0.4472136
vn -5.960464E-08 -0.8944272 0.4472136
vn -5.960464E-08 -0.8944272 0.4472136
vn -5.960464E-08 -0.8944272 0.4472136
vn -5.960464E-08 -0.8944272 0.4472136
vn -5.960464E-08 -0.8944272 0.4472136
vn -5.960464E-08 -0.8944272 0.4472136
vn -5.960464E-08 -0.8944272 0.4472136
vn -5.960464E-08 -0.8944272 0.4472136
vn -5.960464E-08 -0.8944272 0.4472136
vn -5.960464E-08 -0.8944272 0.4472136
vn -5.960464E-08 -0.8944272 0.4472136
vn -5.960464E-08 -0.8944272 0.4472136
vn -5.960464E-08 -0.8944272 0.4472136
vn -5.960464E-08 -0.8944272 0.4472136
vn -5.960464E-08 -0.8944272 0.4472136
vn -5.960464E-08 -0.8944272 0.4472136
vn -5.960464E-08 -0.8944272 0.4472136
vn -5.960464E-08 -0.8944272 0.4472136
vn -5.960464E-08 -0.8944272 0.4472136
vn -5.960464E-08 -0.8944272 0.4472136
vn -5.960464E-08 -0.8944272 0.4472136
vn -5.960464E-08 -0.8944272 0.4472136
vn 0.6667474 -0.3333015 -0.6666021
vn 0.8334553 -0.2471247 -0.4942487
vn 0.9520105 -0.1368769 -0.2737532
vn 0.6667473 -0.3333014 -0.666602
vn 0.9800799 0.08881829 0.1776369
vn 0.8895941 0.2042657 0.4085314
vn 0.7452838 0.2981785 0.5963569
vn 0.7452839 0.2981785 0.5963569
vn 0.6667473 -0.3333014 -0.6666021
vn -0.9437056 -0.1479322 -0.2958646
vn -0.9437056 -0.1479322 -0.2958646
vn -0.9437056 -0.1479322 -0.2958646
vn -0.9437056 -0.1479322 -0.2958646
vn -0.9437056 -0.1479322 -0.2958646
vn -0.9437056 -0.1479322 -0.2958646
vn -0.9437056 -0.1479322 -0.2958646
vn -0.9437056 -0.1479322 -0.2958646
vn -0.3239127 0.5946606 0.7358393
vn 3.033146E-07 0.8944269 -0.4472142
vn 2.632485E-07 0.8944272 -0.4472135
vn 3.170341E-07 0.8944272 -0.4472136
vn 2.632485E-07 0.8944273 -0.4472135
vn 2.632485E-07 0.8944273 -0.4472135
vn 2.798445E-07 0.8944271 -0.4472138
vn 2.798444E-07 0.8944271 -0.4472138
vn 2.798446E-07 0.8944271 -0.4472138
vn 2.798444E-07 0.8944271 -0.4472138
vn 2.798443E-07 0.8944271 -0.4472138
vn 2.798446E-07 0.8944271 -0.4472138
vn 2.798455E-07 0.8944271 -0.4472138
vn 2.798432E-07 0.8944271 -0.4472138
vn 3.884253E-07 0.8944272 -0.4472136
vn 3.476007E-07 0.8944273 -0.4472135
vn 3.894143E-07 0.8944272 -0.4472136
vn 3.894145E-07 0.8944272 -0.4472136
vn 3.89415E-07 0.8944272 -0.4472136
vn 3.894148E-07 0.8944272 -0.4472136
vn 3.894148E-07 0.8944272 -0.4472136
vn 3.894147E-07 0.8944272 -0.4472136
vn 3.894145E-07 0.8944272 -0.4472136
vn 3.141593E-07 0.8944273 -0.4472134
vn 3.057867E-07 0.8944274 -0.4472134
vn 3.057866E-07 0.8944274 -0.4472134
vn 3.057865E-07 0.8944274 -0.4472134
vn 3.057868E-07 0.8944274 -0.4472134
vn 3.057866E-07 0.8944274 -0.4472134
vn 3.057866E-07 0.8944274 -0.4472134
vn 2.432037E-07 0.8944273 -0.4472134
vn 7.794831E-08 0.8944274 -0.4472133
vn 7.794818E-08 0.8944274 -0.4472133
vn 7.794792E-08 0.8944274 -0.4472133
vn 7.79528E-08 0.8944274 -0.4472133
vn 7.794748E-08 0.8944274 -0.4472133
vn 7.794778E-08 0.8944274 -0.4472133
vn 7.794875E-08 0.8944274 -0.4472133
vn 7.794947E-08 0.8944274 -0.4472133
vn 2.632485E-07 0.8944273 -0.4472135
vn 2.632485E-07 0.8944273 -0.4472135
vn 2.632485E-07 0.8944272 -0.4472135

f 1//1 2//2 3//3
f 4//4 1//1 3//3
f 3//3 5//5 4//4
f 3//3 6//6 5//5
f 5//5 6//6 7//7
f 8//8 7//7 6//6
f 9//9 8//8 6//6
f 10//10 9//9 6//6
f 9//9 10//10 11//11
f 11//11 10//10 12//12
f 13//13 11//11 12//12
f 13//13 12//12 14//14
f 13//13 14//14 15//15
f 15//15 14//14 16//16
f 15//15 16//16 17//17
f 18//18 17//17 16//16
f 19//19 17//17 18//18
f 19//19 18//18 20//20
f 21//21 19//19 20//20
f 22//22 19//19 21//21
f 22//22 21//21 23//23
f 24//24 22//22 23//23
f 24//24 23//23 25//25
f 26//26 24//24 25//25
f 26//26 25//25 27//27
f 28//28 26//26 27//27
f 28//28 27//27 29//29
f 29//29 27//27 30//30
f 31//31 29//29 30//30
f 31//31 30//30 32//32
f 33//33 31//31 32//32
f 33//33 32//32 34//34
f 35//35 33//33 34//34
f 35//35 34//34 36//36
f 37//37 35//35 36//36
f 37//37 36//36 38//38
f 39//39 37//37 38//38
f 39//39 38//38 40//40
f 41//41 39//39 40//40
f 41//41 40//40 42//42
f 41//41 42//42 43//43
f 43//43 42//42 44//44
f 45//45 43//43 44//44
f 45//45 44//44 46//46
f 47//47 45//45 46//46
f 48//48 45//45 47//47
f 48//48 47//47 49//49
f 50//50 48//48 49//49
f 50//50 49//49 51//51
f 52//52 50//50 51//51
f 52//52 51//51 53//53
f 54//54 52//52 53//53
f 55//55 54//54 53//53
f 55//55 53//53 56//56
f 55//55 56//56 57//57
f 57//57 56//56 58//58
f 57//57 58//58 59//59
f 59//59 58//58 60//60
f 59//59 60//60 61//61
f 61//61 60//60 62//62
f 61//61 62//62 63//63
f 63//63 62//62 64//64
f 63//63 64//64 65//65
f 65//65 64//64 66//66
f 65//65 66//66 67//67
f 68//68 67//67 66//66
f 69//69 67//67 68//68
f 69//69 68//68 70//70
f 71//71 69//69 70//70
f 72//72 71//71 73//73
f 74//74 75//75 76//76
f 77//77 74//74 76//76
f 75//75 77//77 76//76
f 78//78 75//75 74//74
f 79//79 75//75 78//78
f 78//78 74//74 80//80
f 81//81 78//78 80//80
f 82//82 78//78 81//81
f 82//82 83//83 78//78
f 83//83 84//84 79//79
f 84//84 85//85 79//79
f 80//80 74//74 86//86
f 87//87 80//80 86//86
f 81//81 80//80 87//87
f 86//86 74//74 88//88
f 88//88 74//74 77//77
f 86//86 88//88 89//89
f 90//90 86//86 89//89
f 87//87 86//86 90//90
f 75//75 91//91 77//77
f 90//90 89//89 92//92
f 90//90 92//92 93//93
f 94//94 90//90 93//93
f 95//95 83//83 82//82
f 95//95 82//82 81//81
f 95//95 81//81 87//87
f 95//95 87//87 90//90
f 95//95 96//96 83//83
f 97//97 91//91 75//75
f 97//97 98//98 91//91
f 97//97 99//99 98//98
f 100//100 95//95 101//101
f 102//102 103//103 104//104
f 102//102 104//104 105//105
f 102//102 105//105 106//106
f 106//106 105//105 107//107
f 108//108 102//102 106//106
f 109//109 102//102 108//108
f 110//110 108//108 106//106
f 111//111 112//112 113//113
f 111//111 113//113 114//114
f 111//111 114//114 115//115
f 111//111 115//115 116//116
f 111//111 116//116 117//117
f 117//117 118//118 111//111
f 118//118 119//119 111//111
f 120//120 111//111 119//119
f 120//120 121//121 111//111
f 121//121 122//122 111//111
f 111//111 122//122 123//123
f 114//114 113//113 124//124
f 124//124 113//113 125//125
f 125//125 113//113 126//126
f 126//126 113//113 127//127
f 127//127 113//113 128//128
f 128//128 113//113 129//129
f 129//129 113//113 130//130
f 130//130 113//113 131//131
f 131//131 113//113 132//132
f 132//132 113//113 133//133
f 133//133 113//113 134//134
f 133//133 134//134 135//135
f 135//135 134//134 136//136
f 134//134 137//137 136//136
f 137//137 134//134 138//138
f 138//138 134//134 139//139
f 139//139 134//134 140//140
f 140//140 134//134 141//141
f 134//134 142//142 141//141
f 134//134 143//143 142//142
f 134//134 144//144 143//143
f 144//144 134//134 145//145
f 145//145 134//134 146//146
f 147//147 134//134 148//148
f 149//149 150//150 151//151
f 149//149 152//152 150//150
f 151//151 150//150 153//153
f 151//151 153//153 154//154
f 154//154 153//153 155//155
f 154//154 155//155 156//156
f 152//152 157//157 150//150
f 158//158 159//159 160//160
f 161//161 159//159 158//158
f 162//162 159//159 161//161
f 163//163 162//162 161//161
f 164//164 162//162 163//163
f 165//165 162//162 164//164
f 9//9 166//166 8//8
f 166//166 9//9 167//167
f 168//168 169//169 170//170
f 168//168 171//171 169//169
f 172//172 169//169 173//173
f 174//174 169//169 172//172
f 169//169 174//174 175//175
f 176//176 169//169 175//175
f 177//177 169//169 176//176
f 178//178 169//169 177//177
f 178//178 179//179 169//169
f 179//179 180//180 169//169
f 180//180 181//181 169//169
f 182//182 181//181 180//180
f 182//182 183//183 181//181
f 183//183 184//184 181//181
f 184//184 185//185 181//181
f 185//185 186//186 181//181
f 186//186 187//187 181//181
f 187//187 188//188 181//181
f 188//188 189//189 181//181
f 181//181 189//189 190//190
f 181//181 190//190 191//191
f 192//192 181//181 191//191
f 193//193 181//181 192//192
f 194//194 181//181 193//193
f 195//195 181//181 194//194
f 195//195 196//196 181//181
f 196//196 197//197 198//198
f 196//196 198//198 199//199
f 199//199 200//200 196//196
f 196//196 200//200 201//201
f 201//201 202//202 196//196
f 196//196 202//202 203//203
f 196//196 203//203 204//204
f 205//205 196//196 206//206
f 207//207 196//196 205//205
