v -96.74063 9.453925 16.18032
v -96.74063 9.453928 50.00002
v -96.74063 9.453925 16.18032
v -96.74063 9.453923 16.18032
v -97.90469 6.077524 16.18032
v -98.37032 4.726963 16.18032
v -98.37032 4.726963 16.18032
v -98.37032 4.726966 50.00002
v -98.37032 4.726968 83.8197
v -98.18562 4.563426 16.18032
v -96.70802 3.255141 83.8197
v -98.16267 4.543106 16.18032
v -96.50146 3.072246 83.8197
v -98.15622 4.5374 16.18032
v -96.44347 3.020897 83.8197
v -98.0838 4.473278 16.18032
v -95.79168 2.443798 83.8197
v -97.19092 3.682703 16.18032
v -95.69247 2.355957 83.8197
v -96.34435 2.933137 16.18032
v -96.24696 2.846907 16.18032
v -95.58759 2.26309 83.8197
v -96.04384 2.667056 16.18032
v -95.56503 2.243107 83.8197
v -95.50517 2.190109 16.18032
v -95.50517 2.190112 83.8197
v -95.49283 1.98693 16.18032
v -95.43718 1.07132 83.8197
v -95.39404 0.3615104 83.8197
v -95.48976 1.936518 16.18032
v -95.36647 -0.09219228 83.8197
v -95.48885 1.921516 16.18032
v -95.35826 -0.2272146 83.8197
v -95.48196 1.80813 16.18032
v -95.29625 -1.2477 83.8197
v -95.40291 0.50728 16.18032
v -95.28746 -1.392239 83.8197
v -95.33759 -0.5674272 16.18032
v -95.2802 -1.511651 83.8197
v -95.27304 -1.629682 16.18032
v -95.27303 -1.629679 83.8197
v -95.35133 -1.718097 16.18032
v -95.97759 -2.425414 83.8197
v -95.52673 -1.916197 16.18032
v -97.55621 -4.20831 83.8197
v -96.01607 -2.468863 16.18032
v -96.21176 -2.689885 16.18032
v -97.63232 -4.294276 83.8197
v -96.87906 -3.44353 16.18032
v -97.70647 -4.378013 83.8197
v -97.4285 -4.064076 16.18032
v -97.76752 -4.446963 83.8197
v -97.80989 -4.494828 16.18032
v -97.80989 -4.494823 83.8197
v -97.80989 -4.494825 83.8197
v -98.03692 -4.508625 16.18032
v -99.85309 -4.618993 83.8197
v -98.10374 -4.512685 16.18032
v -100.4545 -4.655539 83.8197
v -98.11056 -4.5131 16.18032
v -100.5159 -4.65927 83.8197
v -98.11372 -4.513291 16.18032
v -100.5443 -4.661002 83.8197
v -98.11772 -4.513536 16.18032
v -100.5803 -4.663187 83.8197
v -98.19187 -4.518041 16.18032
v -101.2477 -4.703744 83.8197
v -101.6297 -4.726961 16.18032
v -101.6297 -4.726959 83.8197
v -101.6297 -4.726962 16.18032
v -101.6297 -4.726959 83.8197
v -101.6297 -4.726962 16.18032
v -101.6297 -4.726962 16.18032
v -102.0953 -6.077523 16.18032
v -103.2594 -9.453924 16.18032
v -103.2594 -9.453924 16.18032
v -103.2594 -9.453922 16.18032
v -101.6297 -4.726962 16.18032
v -101.6297 -4.726962 16.18032
v -101.6297 -4.726962 16.18032
v -101.6297 -4.726959 83.8197
v -101.6297 -4.726959 83.8197
v -101.6297 -4.726959 83.8197
v -101.6297 -4.726962 16.18032
v -95.61979 -8.989656 16.18032
v -101.6297 -4.726962 16.18032
v -101.6297 -4.726959 83.8197
v -101.6297 -4.726962 16.18032
v -101.6297 -4.72696 50.00002
v -101.6297 -4.726959 83.8197
v -103.2594 -9.45392 50.00002
v -101.6297 -4.726959 83.81967
v -101.6297 -4.726959 83.8197
v -102.0953 -6.077518 83.8197
v -95.61978 -8.989652 83.8197
v -101.6297 -4.726959 83.8197
v -95.61979 -8.989656 16.18032
v -103.2594 -9.453919 83.8197
v -95.61978 -8.989652 83.8197
v -97.80989 -4.494825 83.8197
v -97.80989 -4.494823 83.8197
v -96.74063 9.453928 50.00002
v -96.74063 9.453925 16.18032
v -96.74063 9.453923 16.18032
v -97.90469 6.077524 16.18032
v -98.37032 4.726966 50.00002
v -98.37032 4.726963 16.18032
v -97.69527 6.684941 83.8197
v -96.74063 9.453929 83.8197
v -98.37032 4.726968 83.8197
v -96.74063 9.453925 16.18032
v -91.01035 4.380214 16.18032
v -90.54607 -3.259367 16.18032
v -95.50517 2.190109 16.18032
v -96.04384 2.667056 16.18032
v -96.24696 2.846907 16.18032
v -96.34435 2.933137 16.18032
v -97.19092 3.682703 16.18032
v -98.0838 4.473278 16.18032
v -98.15622 4.5374 16.18032
v -98.16267 4.543106 16.18032
v -98.18562 4.563426 16.18032
v -98.37032 4.726963 16.18032
v -95.49283 1.98693 16.18032
v -95.48976 1.936518 16.18032
v -95.48885 1.921516 16.18032
v -95.48196 1.80813 16.18032
v -95.40291 0.50728 16.18032
v -95.33759 -0.5674272 16.18032
v -95.27304 -1.629682 16.18032
v -95.35133 -1.718097 16.18032
v -95.52673 -1.916197 16.18032
v -96.01607 -2.468863 16.18032
v -95.61979 -8.989656 16.18032
v -96.21176 -2.689885 16.18032
v -96.87906 -3.44353 16.18032
v -97.4285 -4.064076 16.18032
v -97.80989 -4.494828 16.18032
v -98.03692 -4.508625 16.18032
v -98.10374 -4.512685 16.18032
v -98.11056 -4.5131 16.18032
v -98.11372 -4.513291 16.18032
v -98.11772 -4.513536 16.18032
v -98.19187 -4.518041 16.18032
v -101.6297 -4.726961 16.18032
v -101.6297 -4.726962 16.18032
v -101.6297 -4.726962 16.18032
v -103.2594 -9.453924 16.18032
v -96.74063 9.453925 16.18032
v -91.01034 4.380219 83.8197
v -91.01035 4.380214 16.18032
v -96.74063 9.453928 50.00002
v -90.54607 -3.259363 83.8197
v -90.54607 -3.259367 16.18032
v -95.61978 -8.989652 83.8197
v -95.61979 -8.989656 16.18032
v -96.74063 9.453929 83.8197
v -103.2594 -9.453922 16.18032
v -101.6297 -4.72696 50.00002
v -101.6297 -4.726962 16.18032
v -103.2594 -9.45392 50.00002
v -101.6297 -4.726959 83.81967
v -103.2594 -9.453919 83.8197
v -102.0953 -6.077518 83.8197
v -101.6297 -4.726959 83.8197
v -98.37032 4.726968 83.8197
v -91.01034 4.380219 83.8197
v -97.69527 6.684941 83.8197
v -91.01034 4.380219 83.8197
v -96.74063 9.453929 83.8197
v -98.37032 4.726968 83.8197
v -96.70802 3.255141 83.8197
v -98.37032 4.726968 83.8197
v -96.50146 3.072246 83.8197
v -96.44347 3.020897 83.8197
v -95.79168 2.443798 83.8197
v -95.69247 2.355957 83.8197
v -95.58759 2.26309 83.8197
v -95.56503 2.243107 83.8197
v -95.50517 2.190112 83.8197
v -90.54607 -3.259363 83.8197
v -95.43718 1.07132 83.8197
v -95.39404 0.3615104 83.8197
v -95.36647 -0.09219228 83.8197
v -95.35826 -0.2272146 83.8197
v -95.29625 -1.2477 83.8197
v -95.28746 -1.392239 83.8197
v -95.2802 -1.511651 83.8197
v -95.27303 -1.629679 83.8197
v -95.97759 -2.425414 83.8197
v -97.55621 -4.20831 83.8197
v -97.63232 -4.294276 83.8197
v -97.70647 -4.378013 83.8197
v -97.76752 -4.446963 83.8197
v -97.80989 -4.494823 83.8197
v -95.61978 -8.989652 83.8197
v -97.80989 -4.494825 83.8197
v -99.85309 -4.618993 83.8197
v -100.4545 -4.655539 83.8197
v -100.5159 -4.65927 83.8197
v -100.5443 -4.661002 83.8197
v -100.5803 -4.663187 83.8197
v -101.2477 -4.703744 83.8197
v -101.6297 -4.726959 83.8197
v -102.0953 -6.077518 83.8197
v -101.6297 -4.726959 83.8197
v -103.2594 -9.453919 83.8197

vn 0.3259366 0.9453917 -5.340572E-07
vn 0.3259366 0.9453917 -3.814694E-07
vn 0.2474695 0.7177949 -0.6507914
vn 0 0 -1
vn 0 0 -1
vn -0.6629155 -0.7486943 6.462383E-08
vn -0.3226608 -0.9358902 -0.141421
vn -0.9957666 0.09191815 1.883212E-07
vn -0.662912 -0.7486973 3.424388E-07
vn -0.6629115 -0.748698 3.013172E-07
vn -0.6629117 -0.7486977 3.400592E-07
vn -0.6629125 -0.748697 4.236429E-07
vn -0.6629132 -0.7486963 4.821553E-07
vn -0.6629089 -0.7487002 -1.095606E-07
vn -0.662911 -0.7486984 1.780024E-07
vn -0.6629114 -0.7486979 2.260705E-07
vn -0.6629114 -0.7486982 2.089216E-07
vn -0.6629112 -0.7486981 2.077588E-07
vn -0.6629114 -0.7486979 2.217208E-07
vn -0.6629112 -0.7486982 2.409156E-07
vn -0.6629121 -0.7486974 2.351288E-07
vn -0.6629132 -0.7486963 2.778157E-07
vn -0.6629115 -0.7486978 1.673259E-07
vn -0.6629109 -0.7486984 1.811419E-07
vn -0.7682554 -0.6401438 1.839746E-07
vn -0.9948424 -0.1014332 2.087927E-07
vn -0.9981588 -0.06065751 2.638546E-07
vn -0.9981586 -0.06065832 2.243663E-07
vn -0.9981586 -0.06065866 2.046674E-07
vn -0.9981586 -0.06066075 5.134435E-08
vn -0.9981584 -0.06066204 -3.311141E-08
vn -0.9981583 -0.06066372 -2.493531E-07
vn -0.9981585 -0.0606609 1.725448E-08
vn -0.9981585 -0.06065971 1.95488E-07
vn -0.9981587 -0.06065914 2.545912E-07
vn -0.9981586 -0.06065905 3.133277E-07
vn -0.9981585 -0.06066019 2.147517E-07
vn -0.9981586 -0.06065954 2.354086E-07
vn -0.9981586 -0.06065833 2.762392E-07
vn -0.9999867 0.005169884 2.850269E-07
vn -0.7908037 0.61207 1.199789E-07
vn -0.7486985 0.6629106 7.869003E-08
vn -0.7486979 0.6629114 1.061353E-07
vn -0.7486975 0.662912 1.468234E-07
vn -0.7486974 0.662912 1.18347E-07
vn -0.7486976 0.6629116 1.005928E-07
vn -0.7486981 0.6629112 -2.558145E-08
vn -0.7486978 0.6629116 4.388409E-08
vn -0.7486981 0.6629113 2.142637E-08
vn -0.7486978 0.6629115 1.39089E-08
vn -0.7486978 0.6629115 6.971243E-09
vn -0.7486981 0.6629112 -1.713521E-09
vn -0.6033792 0.7974545 -6.56834E-08
vn -0.7487135 0.6628938 -3.749556E-09
vn -0.06066015 0.9981585 -1.50355E-07
vn -0.06065885 0.9981585 -1.053244E-07
vn -0.06065842 0.9981587 -6.84602E-08
vn -0.0606572 0.9981586 3.948485E-08
vn -0.06065927 0.9981586 -1.617077E-07
vn -0.06066088 0.9981586 -4.500968E-07
vn -0.06066361 0.9981583 -7.290806E-07
vn -0.06070877 0.9981555 -6.344964E-06
vn -0.06068045 0.9981573 -2.762223E-06
vn -0.06065199 0.9981591 5.911334E-07
vn -0.0606561 0.9981588 2.018595E-07
vn -0.06065897 0.9981586 -1.357496E-07
vn -0.06065958 0.9981585 -1.613505E-07
vn -0.06065985 0.9981585 -1.611313E-07
vn -0.06066487 0.9981583 -9.115077E-08
vn -0.2270104 0.9738924 -9.305477E-08
vn 0.3259366 0.9453917 -1.907347E-07
vn 0.3259366 0.9453917 -1.907347E-07
vn 0.3259366 0.9453917 -1.907347E-07
vn 0 0 -1
vn 0.06065921 -0.9981586 2.936142E-07
vn 0 0 -1
vn -0.9797329 0.2003088 1.677742E-07
vn 0.211684 0.6139977 -0.7603925
vn 0.1836158 0.5325848 -0.8262196
vn 0.3251128 0.9430025 -0.07104921
vn 0.3259366 0.9453917 -1.90735E-07
vn 0.3259366 0.9453917 -1.907347E-07
vn 0.3259366 0.9453917 -1.907344E-07
vn 0.3242029 0.9403632 -0.1030029
vn 0 0 -1
vn 0.325905 0.9453178 -0.01266336
vn 0.3259366 0.9453917 -1.907357E-07
vn 0.3226607 0.93589 -0.1414215
vn 0.3259428 0.9453896 -1.907358E-07
vn 0.3253545 0.9436841 0.06004161
vn 0.06065923 -0.9981585 2.232893E-07
vn 0.3259589 0.945384 -1.907375E-07
vn 2.262898E-06 6.563624E-06 1
vn 0 0 1
vn 4.080155E-07 -1.406688E-07 1
vn 0 0 0
vn 0.0606593 -0.9981586 2.130985E-07
vn 0.06065927 -0.9981586 1.778031E-07
vn 0.06065928 -0.9981586 2.029077E-07
vn 4.080155E-07 -1.406688E-07 1
vn 4.080155E-07 -1.406688E-07 1
vn -0.9453917 0.3259365 1.192093E-07
vn -0.9453917 0.3259365 1.192092E-07
vn -0.9453917 0.3259365 1.192093E-07
vn -0.9453917 0.3259365 1.192093E-07
vn -0.9453917 0.3259365 1.192093E-07
vn -0.9453917 0.3259365 1.192093E-07
vn -0.9453917 0.3259365 1.192093E-07
vn -0.9453917 0.3259365 1.192093E-07
vn -0.9453917 0.3259365 1.192093E-07
vn 0 0 -1
vn 0 0 -1
vn 0 0 -1
vn 0 0 -1
vn 0 0 -1
vn 0 0 -1
vn 0 0 -1
vn 0 0 -1
vn 0 0 -1
vn 0 0 -1
vn 0 0 -1
vn 0 0 -1
vn 0 0 -1
vn 0 0 -1
vn 0 0 -1
vn 0 0 -1
vn 0 0 -1
vn 0 0 -1
vn 0 0 -1
vn 0 0 -1
vn 0 0 -1
vn 0 0 -1
vn 0 0 -1
vn 0 0 -1
vn 0 0 -1
vn 0 0 -1
vn 0 0 -1
vn 0 0 -1
vn 0 0 -1
vn 0 0 -1
vn 0 0 -1
vn 0 0 -1
vn 0 0 -1
vn 0 0 -1
vn 0 0 -1
vn 0 0 -1
vn 0 0 -1
vn 0 0 -1
vn 0.6629118 0.7486978 -3.42789E-07
vn 0.8306069 0.5568593 -3.092419E-07
vn 0.9504264 0.3109498 -2.619401E-07
vn 0.6629117 0.7486976 -3.23738E-07
vn 0.9810868 -0.1935689 -1.531119E-07
vn 0.8919278 -0.4521781 -7.358349E-08
vn 0.7486976 -0.6629116 -7.245398E-09
vn 0.7486977 -0.6629117 0
vn 0.6629117 0.7486978 -2.570785E-07
vn -0.9453917 0.3259365 1.192093E-07
vn -0.9453917 0.3259365 1.192093E-07
vn -0.9453917 0.3259365 1.192093E-07
vn -0.9453917 0.3259365 1.192093E-07
vn -0.9453917 0.3259365 1.192093E-07
vn -0.9453917 0.3259365 1.192093E-07
vn -0.9453917 0.3259365 1.283792E-07
vn -0.9453917 0.3259365 1.283792E-07
vn -0.3191634 -0.925746 0.2028032
vn 2.401366E-07 6.965257E-07 1
vn 2.040077E-07 -7.033439E-08 1
vn 2.572822E-07 2.934298E-08 1
vn 2.040077E-07 -7.03344E-08 1
vn 2.040077E-07 -7.03344E-08 1
vn 2.189729E-07 2.473095E-07 1
vn 2.189728E-07 2.473097E-07 1
vn 2.189729E-07 2.473089E-07 1
vn 2.189727E-07 2.473098E-07 1
vn 2.189727E-07 2.473099E-07 1
vn 2.18973E-07 2.473093E-07 1
vn 2.189739E-07 2.473072E-07 1
vn 2.189716E-07 2.47312E-07 1
vn 3.287116E-07 2.208896E-08 1
vn 2.885106E-07 -9.94679E-08 1
vn 3.297111E-07 2.003663E-08 1
vn 3.297114E-07 2.003708E-08 1
vn 3.297119E-07 2.003767E-08 1
vn 3.297116E-07 2.003729E-08 1
vn 3.297116E-07 2.003724E-08 1
vn 3.297115E-07 2.003712E-08 1
vn 3.297113E-07 2.003655E-08 1
vn 2.555595E-07 -1.950435E-07 1
vn 2.473097E-07 -2.189729E-07 1
vn 2.473096E-07 -2.18973E-07 1
vn 2.473095E-07 -2.189722E-07 1
vn 2.473098E-07 -2.189741E-07 1
vn 2.473096E-07 -2.189732E-07 1
vn 2.473096E-07 -2.189728E-07 1
vn 1.845343E-07 -1.816652E-07 1
vn 2.003694E-08 -3.297116E-07 1
vn 2.00368E-08 -3.297118E-07 1
vn 2.003654E-08 -3.29712E-07 1
vn 2.00414E-08 -3.297066E-07 1
vn 2.00361E-08 -3.297127E-07 1
vn 2.003641E-08 -3.297122E-07 1
vn 2.003737E-08 -3.29711E-07 1
vn 2.003808E-08 -3.2971E-07 1
vn 2.040077E-07 -7.03344E-08 1
vn 2.040077E-07 -7.033442E-08 1
vn 2.040077E-07 -7.03344E-08 1

f 1//1 2//2 3//3
f 4//4 1//1 3//3
f 3//3 5//5 4//4
f 3//3 6//6 5//5
f 5//5 6//6 7//7
f 8//8 7//7 6//6
f 9//9 8//8 6//6
f 10//10 9//9 6//6
f 9//9 10//10 11//11
f 11//11 10//10 12//12
f 13//13 11//11 12//12
f 13//13 12//12 14//14
f 13//13 14//14 15//15
f 15//15 14//14 16//16
f 15//15 16//16 17//17
f 18//18 17//17 16//16
f 19//19 17//17 18//18
f 19//19 18//18 20//20
f 21//21 19//19 20//20
f 22//22 19//19 21//21
f 22//22 21//21 23//23
f 24//24 22//22 23//23
f 24//24 23//23 25//25
f 26//26 24//24 25//25
f 26//26 25//25 27//27
f 28//28 26//26 27//27
f 28//28 27//27 29//29
f 29//29 27//27 30//30
f 31//31 29//29 30//30
f 31//31 30//30 32//32
f 33//33 31//31 32//32
f 33//33 32//32 34//34
f 35//35 33//33 34//34
f 35//35 34//34 36//36
f 37//37 35//35 36//36
f 37//37 36//36 38//38
f 39//39 37//37 38//38
f 39//39 38//38 40//40
f 41//41 39//39 40//40
f 41//41 40//40 42//42
f 41//41 42//42 43//43
f 43//43 42//42 44//44
f 45//45 43//43 44//44
f 45//45 44//44 46//46
f 47//47 45//45 46//46
f 48//48 45//45 47//47
f 48//48 47//47 49//49
f 50//50 48//48 49//49
f 50//50 49//49 51//51
f 52//52 50//50 51//51
f 52//52 51//51 53//53
f 54//54 52//52 53//53
f 55//55 54//54 53//53
f 55//55 53//53 56//56
f 55//55 56//56 57//57
f 57//57 56//56 58//58
f 57//57 58//58 59//59
f 59//59 58//58 60//60
f 59//59 60//60 61//61
f 61//61 60//60 62//62
f 61//61 62//62 63//63
f 63//63 62//62 64//64
f 63//63 64//64 65//65
f 65//65 64//64 66//66
f 65//65 66//66 67//67
f 68//68 67//67 66//66
f 69//69 67//67 68//68
f 69//69 68//68 70//70
f 71//71 69//69 70//70
f 72//72 71//71 73//73
f 74//74 75//75 76//76
f 77//77 74//74 76//76
f 75//75 77//77 76//76
f 78//78 75//75 74//74
f 79//79 75//75 78//78
f 78//78 74//74 80//80
f 81//81 78//78 80//80
f 82//82 78//78 81//81
f 82//82 83//83 78//78
f 83//83 84//84 79//79
f 84//84 85//85 79//79
f 80//80 74//74 86//86
f 87//87 80//80 86//86
f 81//81 80//80 87//87
f 86//86 74//74 88//88
f 88//88 74//74 77//77
f 86//86 88//88 89//89
f 90//90 86//86 89//89
f 87//87 86//86 90//90
f 75//75 91//91 77//77
f 90//90 89//89 92//92
f 90//90 92//92 93//93
f 94//94 90//90 93//93
f 95//95 83//83 82//82
f 95//95 82//82 81//81
f 95//95 81//81 87//87
f 95//95 87//87 90//90
f 95//95 96//96 83//83
f 97//97 91//91 75//75
f 97//97 98//98 91//91
f 97//97 99//99 98//98
f 100//100 95//95 101//101
f 102//102 103//103 104//104
f 102//102 104//104 105//105
f 102//102 105//105 106//106
f 106//106 105//105 107//107
f 108//108 102//102 106//106
f 109//109 102//102 108//108
f 110//110 108//108 106//106
f 111//111 112//112 113//113
f 111//111 113//113 114//114
f 111//111 114//114 115//115
f 111//111 115//115 116//116
f 111//111 116//116 117//117
f 117//117 118//118 111//111
f 118//118 119//119 111//111
f 120//120 111//111 119//119
f 120//120 121//121 111//111
f 121//121 122//122 111//111
f 111//111 122//122 123//123
f 114//114 113//113 124//124
f 124//124 113//113 125//125
f 125//125 113//113 126//126
f 126//126 113//113 127//127
f 127//127 113//113 128//128
f 128//128 113//113 129//129
f 129//129 113//113 130//130
f 130//130 113//113 131//131
f 131//131 113//113 132//132
f 132//132 113//113 133//133
f 133//133 113//113 134//134
f 133//133 134//134 135//135
f 135//135 134//134 136//136
f 134//134 137//137 136//136
f 137//137 134//134 138//138
f 138//138 134//134 139//139
f 139//139 134//134 140//140
f 140//140 134//134 141//141
f 134//134 142//142 141//141
f 134//134 143//143 142//142
f 134//134 144//144 143//143
f 144//144 134//134 145//145
f 145//145 134//134 146//146
f 147//147 134//134 148//148
f 149//149 150//150 151//151
f 149//149 152//152 150//150
f 151//151 150//150 153//153
f 151//151 153//153 154//154
f 154//154 153//153 155//155
f 154//154 155//155 156//156
f 152//152 157//157 150//150
f 158//158 159//159 160//160
f 161//161 159//159 158//158
f 162//162 159//159 161//161
f 163//163 162//162 161//161
f 164//164 162//162 163//163
f 165//165 162//162 164//164
f 9//9 166//166 8//8
f 166//166 9//9 167//167
f 168//168 169//169 170//170
f 168//168 171//171 169//169
f 172//172 169//169 173//173
f 174//174 169//169 172//172
f 169//169 174//174 175//175
f 176//176 169//169 175//175
f 177//177 169//169 176//176
f 178//178 169//169 177//177
f 178//178 179//179 169//169
f 179//179 180//180 169//169
f 180//180 181//181 169//169
f 182//182 181//181 180//180
f 182//182 183//183 181//181
f 183//183 184//184 181//181
f 184//184 185//185 181//181
f 185//185 186//186 181//181
f 186//186 187//187 181//181
f 187//187 188//188 181//181
f 188//188 189//189 181//181
f 181//181 189//189 190//190
f 181//181 190//190 191//191
f 192//192 181//181 191//191
f 193//193 181//181 192//192
f 194//194 181//181 193//193
f 195//195 181//181 194//194
f 195//195 196//196 181//181
f 196//196 197//197 198//198
f 196//196 198//198 199//199
f 199//199 200//200 196//196
f 196//196 200//200 201//201
f 201//201 202//202 196//196
f 196//196 202//202 203//203
f 196//196 203//203 204//204
f 205//205 196//196 206//206
f 207//207 196//196 205//205
