v -90.00006 196.8042 -190.5244
v -49.99998 196.8042 -190.5244
v -90.00006 196.8042 -190.5244
v -90.00006 196.8042 -190.5244
v -90.00006 197.9456 -193.9085
v -90.00006 198.4021 -195.2622
v -90.00006 198.4021 -195.2622
v -49.99998 198.4021 -195.2622
v -9.999901 198.4021 -195.2622
v -90.00006 198.6482 -195.2788
v -9.999901 200.6173 -195.4117
v -90.00006 198.6788 -195.2809
v -9.999901 200.8926 -195.4303
v -90.00006 198.6874 -195.2815
v -9.999901 200.9698 -195.4355
v -90.00006 198.7839 -195.288
v -9.999901 201.8384 -195.4942
v -90.00006 199.9738 -195.3683
v -9.999901 201.9706 -195.5031
v -90.00006 201.1019 -195.4445
v -90.00006 201.2317 -195.4532
v -9.999901 202.1104 -195.5125
v -90.00006 201.5024 -195.4715
v -9.999901 202.1405 -195.5146
v -90.00006 202.2202 -195.52
v -9.999901 202.2202 -195.52
v -90.00006 202.3542 -195.6733
v -9.999901 202.9576 -196.3641
v -9.999901 203.4254 -196.8997
v -90.00006 202.3874 -195.7113
v -9.999901 203.7245 -197.242
v -90.00006 202.3973 -195.7226
v -9.999901 203.8135 -197.3439
v -90.00006 202.472 -195.8082
v -9.999901 204.4861 -198.1139
v -90.00006 203.3294 -196.7897
v -9.999901 204.5813 -198.2229
v -90.00006 204.0377 -197.6006
v -9.999901 204.66 -198.313
v -90.00006 204.7378 -198.4021
v -9.999901 204.7378 -198.4021
v -90.00006 204.7298 -198.5199
v -9.999901 204.6662 -199.4625
v -90.00006 204.712 -198.7839
v -9.999901 204.5058 -201.8384
v -90.00006 204.6623 -199.5204
v -90.00006 204.6424 -199.815
v -9.999901 204.4981 -201.953
v -90.00006 204.5746 -200.8193
v -9.999901 204.4905 -202.0646
v -90.00006 204.5188 -201.6462
v -9.999901 204.4843 -202.1564
v -90.00006 204.48 -202.2203
v -9.999901 204.48 -202.2202
v -9.999901 204.48 -202.2202
v -90.00006 204.3087 -202.3699
v -9.999901 202.9384 -203.5669
v -90.00006 204.2583 -202.4139
v -9.999901 202.4846 -203.9632
v -90.00006 204.2532 -202.4184
v -9.999901 202.4383 -204.0037
v -90.00006 204.2508 -202.4205
v -9.999901 202.4168 -204.0225
v -90.00006 204.2478 -202.4231
v -9.999901 202.3897 -204.0462
v -90.00006 204.1918 -202.472
v -9.999901 201.8861 -204.486
v -90.00006 201.5979 -204.7378
v -9.999901 201.5979 -204.7378
v -90.00006 201.5979 -204.7378
v -9.999901 201.5979 -204.7378
v -90.00006 201.5979 -204.7378
v -90.00006 201.5979 -204.7378
v -90.00006 202.0544 -206.0915
v -90.00006 203.1958 -209.4756
v -90.00006 203.1958 -209.4756
v -90.00006 203.1958 -209.4756
v -90.00006 201.5979 -204.7378
v -90.00006 201.5979 -204.7378
v -90.00006 201.5979 -204.7378
v -9.999901 201.5979 -204.7378
v -9.999901 201.5979 -204.7378
v -9.999901 201.5979 -204.7378
v -90.00006 201.5979 -204.7378
v -90.00006 208.9601 -204.4405
v -90.00006 201.5979 -204.7378
v -9.999901 201.5979 -204.7378
v -90.00006 201.5979 -204.7378
v -49.99998 201.5979 -204.7378
v -9.999901 201.5979 -204.7378
v -49.99998 203.1958 -209.4756
v -9.999939 201.5979 -204.7378
v -9.999901 201.5979 -204.7378
v -9.999901 202.0544 -206.0914
v -9.999908 208.9601 -204.4405
v -9.999901 201.5979 -204.7378
v -90.00006 208.9601 -204.4405
v -9.999901 203.1958 -209.4756
v -9.999908 208.9601 -204.4405
v -9.999901 204.48 -202.2202
v -9.999901 204.48 -202.2202
v -49.99998 196.8042 -190.5244
v -90.00006 196.8042 -190.5244
v -90.00006 196.8042 -190.5244
v -90.00006 197.9456 -193.9085
v -49.99998 198.4021 -195.2622
v -90.00006 198.4021 -195.2622
v -9.999901 197.7402 -193.2997
v -9.999901 196.8042 -190.5244
v -9.999901 198.4021 -195.2622
v -90.00006 196.8042 -190.5244
v -90.00006 204.4405 -191.04
v -90.00006 209.4756 -196.8042
v -90.00006 202.2202 -195.52
v -90.00006 201.5024 -195.4715
v -90.00006 201.2317 -195.4532
v -90.00006 201.1019 -195.4445
v -90.00006 199.9738 -195.3683
v -90.00006 198.7839 -195.288
v -90.00006 198.6874 -195.2815
v -90.00006 198.6788 -195.2809
v -90.00006 198.6482 -195.2788
v -90.00006 198.4021 -195.2622
v -90.00006 202.3542 -195.6733
v -90.00006 202.3874 -195.7113
v -90.00006 202.3973 -195.7226
v -90.00006 202.472 -195.8082
v -90.00006 203.3294 -196.7897
v -90.00006 204.0377 -197.6006
v -90.00006 204.7378 -198.4021
v -90.00006 204.7298 -198.5199
v -90.00006 204.712 -198.7839
v -90.00006 204.6623 -199.5204
v -90.00006 208.9601 -204.4405
v -90.00006 204.6424 -199.815
v -90.00006 204.5746 -200.8193
v -90.00006 204.5188 -201.6462
v -90.00006 204.48 -202.2203
v -90.00006 204.3087 -202.3699
v -90.00006 204.2583 -202.4139
v -90.00006 204.2532 -202.4184
v -90.00006 204.2508 -202.4205
v -90.00006 204.2478 -202.4231
v -90.00006 204.1918 -202.472
v -90.00006 201.5979 -204.7378
v -90.00006 201.5979 -204.7378
v -90.00006 201.5979 -204.7378
v -90.00006 203.1958 -209.4756
v -90.00006 196.8042 -190.5244
v -9.999908 204.4405 -191.0399
v -90.00006 204.4405 -191.04
v -49.99998 196.8042 -190.5244
v -9.999908 209.4756 -196.8042
v -90.00006 209.4756 -196.8042
v -9.999908 208.9601 -204.4405
v -90.00006 208.9601 -204.4405
v -9.999901 196.8042 -190.5244
v -90.00006 203.1958 -209.4756
v -49.99998 201.5979 -204.7378
v -90.00006 201.5979 -204.7378
v -49.99998 203.1958 -209.4756
v -9.999939 201.5979 -204.7378
v -9.999901 203.1958 -209.4756
v -9.999901 202.0544 -206.0914
v -9.999901 201.5979 -204.7378
v -9.999901 198.4021 -195.2622
v -9.999908 204.4405 -191.0399
v -9.999901 197.7402 -193.2997
v -9.999908 204.4405 -191.0399
v -9.999901 196.8042 -190.5244
v -9.999901 198.4021 -195.2622
v -9.999901 200.6173 -195.4117
v -9.999901 198.4021 -195.2622
v -9.999901 200.8926 -195.4303
v -9.999901 200.9698 -195.4355
v -9.999901 201.8384 -195.4942
v -9.999901 201.9706 -195.5031
v -9.999901 202.1104 -195.5125
v -9.999901 202.1405 -195.5146
v -9.999901 202.2202 -195.52
v -9.999908 209.4756 -196.8042
v -9.999901 202.9576 -196.3641
v -9.999901 203.4254 -196.8997
v -9.999901 203.7245 -197.242
v -9.999901 203.8135 -197.3439
v -9.999901 204.4861 -198.1139
v -9.999901 204.5813 -198.2229
v -9.999901 204.66 -198.313
v -9.999901 204.7378 -198.4021
v -9.999901 204.6662 -199.4625
v -9.999901 204.5058 -201.8384
v -9.999901 204.4981 -201.953
v -9.999901 204.4905 -202.0646
v -9.999901 204.4843 -202.1564
v -9.999901 204.48 -202.2202
v -9.999908 208.9601 -204.4405
v -9.999901 204.48 -202.2202
v -9.999901 202.9384 -203.5669
v -9.999901 202.4846 -203.9632
v -9.999901 202.4383 -204.0037
v -9.999901 202.4168 -204.0225
v -9.999901 202.3897 -204.0462
v -9.999901 201.8861 -204.486
v -9.999901 201.5979 -204.7378
v -9.999901 202.0544 -206.0914
v -9.999901 201.5979 -204.7378
v -9.999901 203.1958 -209.4756

vn -4.837659E-07 -0.3195798 0.9475595
vn -3.311781E-07 -0.3195798 0.9475595
vn -0.6507914 -0.2426431 0.7194407
vn -1 1.490116E-08 -2.291054E-07
vn -1 1.490116E-08 -2.291054E-07
vn 2.386321E-08 -0.06736703 -0.9977284
vn -0.141421 0.3163679 -0.9380363
vn 1.908433E-07 -0.8444602 -0.5356185
vn 3.01678E-07 -0.06736242 -0.9977287
vn 2.605564E-07 -0.06736158 -0.9977288
vn 2.992984E-07 -0.06736191 -0.9977288
vn 3.828822E-07 -0.06736293 -0.9977288
vn 4.413945E-07 -0.06736399 -0.9977286
vn -1.503215E-07 -0.06735821 -0.9977291
vn 1.372415E-07 -0.06736098 -0.9977288
vn 1.853097E-07 -0.06736151 -0.9977288
vn 1.681608E-07 -0.06736137 -0.9977289
vn 1.66998E-07 -0.06736127 -0.9977288
vn 1.8096E-07 -0.06736157 -0.9977288
vn 2.001548E-07 -0.06736123 -0.9977289
vn 1.943681E-07 -0.0673624 -0.9977288
vn 2.37055E-07 -0.06736396 -0.9977286
vn 1.265651E-07 -0.06736177 -0.9977287
vn 1.403811E-07 -0.06736091 -0.9977289
vn 1.486596E-07 -0.2170809 -0.9761539
vn 2.01185E-07 -0.7255963 -0.6881209
vn 2.583759E-07 -0.7531345 -0.657867
vn 2.188875E-07 -0.7531339 -0.6578675
vn 1.991886E-07 -0.7531338 -0.6578678
vn 4.586548E-08 -0.7531325 -0.6578694
vn -3.859035E-08 -0.7531315 -0.6578704
vn -2.548321E-07 -0.7531304 -0.6578716
vn 1.17756E-08 -0.7531323 -0.6578695
vn 1.900092E-07 -0.753133 -0.6578686
vn 2.491124E-07 -0.7531335 -0.6578682
vn 3.078489E-07 -0.7531335 -0.6578681
vn 2.092729E-07 -0.7531327 -0.6578689
vn 2.299299E-07 -0.7531332 -0.6578685
vn 2.707605E-07 -0.753134 -0.6578676
vn 2.829935E-07 -0.7948004 -0.6068714
vn 1.502302E-07 -0.9999994 0.001387356
vn 1.117025E-07 -0.9977289 0.06736054
vn 1.391478E-07 -0.9977289 0.06736161
vn 1.79836E-07 -0.9977289 0.06736231
vn 1.513596E-07 -0.9977288 0.0673623
vn 1.336054E-07 -0.9977288 0.06736187
vn 7.431085E-09 -0.9977289 0.06736131
vn 7.689665E-08 -0.9977289 0.06736177
vn 5.443891E-08 -0.997729 0.0673614
vn 4.692145E-08 -0.9977288 0.06736173
vn 3.99838E-08 -0.9977289 0.06736173
vn 3.129901E-08 -0.9977289 0.06736128
vn -2.528567E-08 -0.9648891 0.2626586
vn 2.926203E-08 -0.9977305 0.06733806
vn -9.81894E-08 -0.657869 0.7531326
vn -5.315877E-08 -0.657868 0.7531334
vn -1.629456E-08 -0.6578677 0.7531338
vn 9.16505E-08 -0.6578667 0.7531345
vn -1.095421E-07 -0.6578683 0.7531332
vn -3.979312E-07 -0.6578696 0.7531322
vn -6.76915E-07 -0.6578716 0.7531303
vn -6.292799E-06 -0.6579057 0.7531006
vn -2.710058E-06 -0.6578844 0.7531193
vn 6.432991E-07 -0.6578628 0.753138
vn 2.540252E-07 -0.657866 0.7531353
vn -8.358393E-08 -0.6578681 0.7531334
vn -1.091849E-07 -0.6578686 0.753133
vn -1.089656E-07 -0.6578688 0.7531328
vn -3.898516E-08 -0.6578726 0.7531295
vn -4.254407E-08 -0.7747346 0.6322869
vn -1.404433E-07 -0.3195798 0.9475595
vn -1.404433E-07 -0.3195798 0.9475595
vn -1.404433E-07 -0.3195798 0.9475595
vn -1 1.490116E-08 -2.291054E-07
vn 2.414486E-07 0.6578683 -0.7531332
vn -1 1.490116E-08 -2.291054E-07
vn 1.760131E-07 -0.8979909 -0.4400147
vn -0.7603925 -0.2075555 0.6154055
vn -0.8262196 -0.1800347 0.5338059
vn -0.07104916 -0.3187722 0.9451649
vn -1.404436E-07 -0.3195798 0.9475595
vn -1.404433E-07 -0.3195798 0.9475595
vn -1.404429E-07 -0.3195798 0.9475595
vn -0.1030028 -0.31788 0.9425195
vn -1 1.490116E-08 -2.291054E-07
vn -0.01266331 -0.3195596 0.9474818
vn -1.404443E-07 -0.3195798 0.9475595
vn -0.1414215 -0.3163678 0.938036
vn -1.404445E-07 -0.3195735 0.9475617
vn 0.06004167 -0.3189973 0.945852
vn 1.711236E-07 0.6578683 -0.7531332
vn -1.404465E-07 -0.3195574 0.9475671
vn 1 -2.233666E-06 6.80778E-06
vn 1 -1.490116E-08 2.291054E-07
vn 1 3.940499E-07 3.670307E-07
vn 0 0 0
vn 1.609329E-07 0.6578684 -0.7531332
vn 1.256375E-07 0.6578683 -0.7531332
vn 1.507421E-07 0.6578684 -0.7531333
vn 1 3.940499E-07 3.670307E-07
vn 1 3.940499E-07 3.670307E-07
vn 1.341104E-07 -0.9475597 -0.3195798
vn 1.341104E-07 -0.9475596 -0.3195798
vn 1.341104E-07 -0.9475597 -0.3195798
vn 1.341104E-07 -0.9475597 -0.3195798
vn 1.341105E-07 -0.9475597 -0.3195798
vn 1.341104E-07 -0.9475597 -0.3195798
vn 1.341105E-07 -0.9475597 -0.3195798
vn 1.341105E-07 -0.9475597 -0.3195798
vn 1.341105E-07 -0.9475597 -0.3195798
vn -1 1.490116E-08 -2.291054E-07
vn -1 1.490116E-08 -2.291054E-07
vn -1 1.490116E-08 -2.291054E-07
vn -1 1.490116E-08 -2.291054E-07
vn -1 1.490116E-08 -2.291054E-07
vn -1 1.490116E-08 -2.291054E-07
vn -1 1.490116E-08 -2.291054E-07
vn -1 1.490116E-08 -2.291054E-07
vn -1 1.490116E-08 -2.291054E-07
vn -1 1.490116E-08 -2.291054E-07
vn -1 1.490116E-08 -2.291054E-07
vn -1 1.490116E-08 -2.291054E-07
vn -1 1.490116E-08 -2.291054E-07
vn -1 1.490116E-08 -2.291053E-07
vn -1 1.490116E-08 -2.291054E-07
vn -1 1.490116E-08 -2.291054E-07
vn -1 1.490116E-08 -2.291053E-07
vn -1 1.490116E-08 -2.291054E-07
vn -1 1.490116E-08 -2.291054E-07
vn -1 1.490116E-08 -2.291054E-07
vn -1 1.490116E-08 -2.291053E-07
vn -1 1.490116E-08 -2.291054E-07
vn -1 1.490116E-08 -2.291054E-07
vn -1 1.490116E-08 -2.291054E-07
vn -1 1.490116E-08 -2.291054E-07
vn -1 1.490116E-08 -2.291054E-07
vn -1 1.490116E-08 -2.291054E-07
vn -1 1.490116E-08 -2.291054E-07
vn -1 1.490116E-08 -2.291054E-07
vn -1 1.490116E-08 -2.291054E-07
vn -1 1.490116E-08 -2.291054E-07
vn -1 1.490116E-08 -2.291053E-07
vn -1 1.490116E-08 -2.291054E-07
vn -1 1.490116E-08 -2.291053E-07
vn -1 1.490116E-08 -2.291053E-07
vn -1 1.490116E-08 -2.291054E-07
vn -1 1.490116E-08 -2.291053E-07
vn -1 1.490116E-08 -2.291053E-07
vn -3.020283E-07 0.06736195 0.9977289
vn -2.781474E-07 0.3173262 0.9483167
vn -2.434556E-07 0.5624254 0.8268483
vn -2.829772E-07 0.06736198 0.9977287
vn -1.609945E-07 0.8949448 0.4461776
vn -9.522316E-08 0.9823649 0.1869754
vn -4.025796E-08 0.9977288 -0.06736189
vn -3.301256E-08 0.9977289 -0.06736188
vn -2.163177E-07 0.06736186 0.9977288
vn 1.341105E-07 -0.9475597 -0.3195798
vn 1.341105E-07 -0.9475597 -0.3195798
vn 1.341104E-07 -0.9475597 -0.3195798
vn 1.341104E-07 -0.9475597 -0.3195798
vn 1.341105E-07 -0.9475597 -0.3195798
vn 1.341105E-07 -0.9475597 -0.3195798
vn 1.432804E-07 -0.9475597 -0.3195798
vn 1.432804E-07 -0.9475596 -0.3195798
vn 0.2028032 0.3129387 -0.9278687
vn 1 -2.503544E-07 9.272282E-07
vn 1 1.895744E-07 2.98068E-07
vn 1 1.708491E-07 4.095271E-07
vn 1 1.895744E-07 2.98068E-07
vn 1 1.895744E-07 2.98068E-07
vn 1 7.349937E-09 5.586747E-07
vn 1 7.349798E-09 5.586749E-07
vn 1 7.35032E-09 5.586744E-07
vn 1 7.349627E-09 5.586749E-07
vn 1 7.349554E-09 5.58675E-07
vn 1 7.350132E-09 5.586747E-07
vn 1 7.352121E-09 5.586736E-07
vn 1 7.347381E-09 5.58676E-07
vn 1 2.318284E-07 4.474258E-07
vn 1 2.74271E-07 3.266333E-07
vn 1 2.338735E-07 4.464117E-07
vn 1 2.338735E-07 4.464123E-07
vn 1 2.338735E-07 4.46413E-07
vn 1 2.338735E-07 4.464125E-07
vn 1 2.338735E-07 4.464125E-07
vn 1 2.338736E-07 4.464124E-07
vn 1 2.338738E-07 4.464118E-07
vn 1 3.065793E-07 2.308385E-07
vn 1 3.146685E-07 2.068544E-07
vn 1 3.146685E-07 2.068542E-07
vn 1 3.146679E-07 2.068548E-07
vn 1 3.146693E-07 2.068535E-07
vn 1 3.146686E-07 2.068541E-07
vn 1 3.146683E-07 2.068544E-07
vn 1 2.421783E-07 1.980351E-07
vn 1 2.024058E-07 -1.966951E-08
vn 1 2.024058E-07 -1.966973E-08
vn 1 2.024057E-07 -1.96701E-08
vn 1 2.024062E-07 -1.966279E-08
vn 1 2.024058E-07 -1.967087E-08
vn 1 2.024057E-07 -1.967029E-08
vn 1 2.024058E-07 -1.966877E-08
vn 1 2.024057E-07 -1.966757E-08
vn 1 1.895744E-07 2.98068E-07
vn 1 1.895744E-07 2.98068E-07
vn 1 1.895744E-07 2.98068E-07

f 1//1 2//2 3//3
f 4//4 1//1 3//3
f 3//3 5//5 4//4
f 3//3 6//6 5//5
f 5//5 6//6 7//7
f 8//8 7//7 6//6
f 9//9 8//8 6//6
f 10//10 9//9 6//6
f 9//9 10//10 11//11
f 11//11 10//10 12//12
f 13//13 11//11 12//12
f 13//13 12//12 14//14
f 13//13 14//14 15//15
f 15//15 14//14 16//16
f 15//15 16//16 17//17
f 18//18 17//17 16//16
f 19//19 17//17 18//18
f 19//19 18//18 20//20
f 21//21 19//19 20//20
f 22//22 19//19 21//21
f 22//22 21//21 23//23
f 24//24 22//22 23//23
f 24//24 23//23 25//25
f 26//26 24//24 25//25
f 26//26 25//25 27//27
f 28//28 26//26 27//27
f 28//28 27//27 29//29
f 29//29 27//27 30//30
f 31//31 29//29 30//30
f 31//31 30//30 32//32
f 33//33 31//31 32//32
f 33//33 32//32 34//34
f 35//35 33//33 34//34
f 35//35 34//34 36//36
f 37//37 35//35 36//36
f 37//37 36//36 38//38
f 39//39 37//37 38//38
f 39//39 38//38 40//40
f 41//41 39//39 40//40
f 41//41 40//40 42//42
f 41//41 42//42 43//43
f 43//43 42//42 44//44
f 45//45 43//43 44//44
f 45//45 44//44 46//46
f 47//47 45//45 46//46
f 48//48 45//45 47//47
f 48//48 47//47 49//49
f 50//50 48//48 49//49
f 50//50 49//49 51//51
f 52//52 50//50 51//51
f 52//52 51//51 53//53
f 54//54 52//52 53//53
f 55//55 54//54 53//53
f 55//55 53//53 56//56
f 55//55 56//56 57//57
f 57//57 56//56 58//58
f 57//57 58//58 59//59
f 59//59 58//58 60//60
f 59//59 60//60 61//61
f 61//61 60//60 62//62
f 61//61 62//62 63//63
f 63//63 62//62 64//64
f 63//63 64//64 65//65
f 65//65 64//64 66//66
f 65//65 66//66 67//67
f 68//68 67//67 66//66
f 69//69 67//67 68//68
f 69//69 68//68 70//70
f 71//71 69//69 70//70
f 72//72 71//71 73//73
f 74//74 75//75 76//76
f 77//77 74//74 76//76
f 75//75 77//77 76//76
f 78//78 75//75 74//74
f 79//79 75//75 78//78
f 78//78 74//74 80//80
f 81//81 78//78 80//80
f 82//82 78//78 81//81
f 82//82 83//83 78//78
f 83//83 84//84 79//79
f 84//84 85//85 79//79
f 80//80 74//74 86//86
f 87//87 80//80 86//86
f 81//81 80//80 87//87
f 86//86 74//74 88//88
f 88//88 74//74 77//77
f 86//86 88//88 89//89
f 90//90 86//86 89//89
f 87//87 86//86 90//90
f 75//75 91//91 77//77
f 90//90 89//89 92//92
f 90//90 92//92 93//93
f 94//94 90//90 93//93
f 95//95 83//83 82//82
f 95//95 82//82 81//81
f 95//95 81//81 87//87
f 95//95 87//87 90//90
f 95//95 96//96 83//83
f 97//97 91//91 75//75
f 97//97 98//98 91//91
f 97//97 99//99 98//98
f 100//100 95//95 101//101
f 102//102 103//103 104//104
f 102//102 104//104 105//105
f 102//102 105//105 106//106
f 106//106 105//105 107//107
f 108//108 102//102 106//106
f 109//109 102//102 108//108
f 110//110 108//108 106//106
f 111//111 112//112 113//113
f 111//111 113//113 114//114
f 111//111 114//114 115//115
f 111//111 115//115 116//116
f 111//111 116//116 117//117
f 117//117 118//118 111//111
f 118//118 119//119 111//111
f 120//120 111//111 119//119
f 120//120 121//121 111//111
f 121//121 122//122 111//111
f 111//111 122//122 123//123
f 114//114 113//113 124//124
f 124//124 113//113 125//125
f 125//125 113//113 126//126
f 126//126 113//113 127//127
f 127//127 113//113 128//128
f 128//128 113//113 129//129
f 129//129 113//113 130//130
f 130//130 113//113 131//131
f 131//131 113//113 132//132
f 132//132 113//113 133//133
f 133//133 113//113 134//134
f 133//133 134//134 135//135
f 135//135 134//134 136//136
f 134//134 137//137 136//136
f 137//137 134//134 138//138
f 138//138 134//134 139//139
f 139//139 134//134 140//140
f 140//140 134//134 141//141
f 134//134 142//142 141//141
f 134//134 143//143 142//142
f 134//134 144//144 143//143
f 144//144 134//134 145//145
f 145//145 134//134 146//146
f 147//147 134//134 148//148
f 149//149 150//150 151//151
f 149//149 152//152 150//150
f 151//151 150//150 153//153
f 151//151 153//153 154//154
f 154//154 153//153 155//155
f 154//154 155//155 156//156
f 152//152 157//157 150//150
f 158//158 159//159 160//160
f 161//161 159//159 158//158
f 162//162 159//159 161//161
f 163//163 162//162 161//161
f 164//164 162//162 163//163
f 165//165 162//162 164//164
f 9//9 166//166 8//8
f 166//166 9//9 167//167
f 168//168 169//169 170//170
f 168//168 171//171 169//169
f 172//172 169//169 173//173
f 174//174 169//169 172//172
f 169//169 174//174 175//175
f 176//176 169//169 175//175
f 177//177 169//169 176//176
f 178//178 169//169 177//177
f 178//178 179//179 169//169
f 179//179 180//180 169//169
f 180//180 181//181 169//169
f 182//182 181//181 180//180
f 182//182 183//183 181//181
f 183//183 184//184 181//181
f 184//184 185//185 181//181
f 185//185 186//186 181//181
f 186//186 187//187 181//181
f 187//187 188//188 181//181
f 188//188 189//189 181//181
f 181//181 189//189 190//190
f 181//181 190//190 191//191
f 192//192 181//181 191//191
f 193//193 181//181 192//192
f 194//194 181//181 193//193
f 195//195 181//181 194//194
f 195//195 196//196 181//181
f 196//196 197//197 198//198
f 196//196 198//198 199//199
f 199//199 200//200 196//196
f 196//196 200//200 201//201
f 201//201 202//202 196//196
f 196//196 202//202 203//203
f 196//196 203//203 204//204
f 205//205 196//196 206//206
f 207//207 196//196 205//205
