v -3.30771 209.4371 -113.0902
v -3.307713 209.4371 -150
v -3.30771 209.4371 -113.0902
v -3.30771 209.4371 -113.0902
v -2.126385 206.0667 -113.0902
v -1.653855 204.7186 -113.0902
v -1.653854 204.7186 -113.0902
v -1.653857 204.7186 -150
v -1.653859 204.7186 -186.9099
v -1.837714 204.5541 -113.0902
v -3.308597 203.2383 -186.9099
v -1.860561 204.5336 -113.0902
v -3.51422 203.0543 -186.9099
v -1.866976 204.5279 -113.0902
v -3.571951 203.0027 -186.9099
v -1.939067 204.4634 -113.0902
v -4.22077 202.4222 -186.9099
v -2.827892 203.6683 -113.0902
v -4.319529 202.3339 -186.9099
v -3.670611 202.9144 -113.0902
v -3.767557 202.8277 -113.0902
v -4.423934 202.2405 -186.9099
v -3.96976 202.6468 -113.0902
v -4.446401 202.2204 -186.9099
v -4.50598 202.1671 -113.0902
v -4.505983 202.1671 -186.9099
v -4.517286 201.9638 -113.0902
v -4.568246 201.048 -186.9099
v -4.607748 200.3379 -186.9099
v -4.520091 201.9134 -113.0902
v -4.632998 199.8841 -186.9099
v -4.520926 201.8984 -113.0902
v -4.640512 199.749 -186.9099
v -4.527237 201.785 -113.0902
v -4.697306 198.7282 -186.9099
v -4.599631 200.4837 -113.0902
v -4.70535 198.5837 -186.9099
v -4.659442 199.4087 -113.0902
v -4.711996 198.4642 -186.9099
v -4.718558 198.3461 -113.0902
v -4.718564 198.3461 -186.9099
v -4.639822 198.2581 -113.0902
v -4.009942 197.554 -186.9099
v -4.46341 198.0609 -113.0902
v -2.422225 195.7792 -186.9099
v -3.971245 197.5108 -113.0902
v -3.774421 197.2908 -113.0902
v -2.34567 195.6937 -186.9099
v -3.10328 196.5405 -113.0902
v -2.271101 195.6103 -186.9099
v -2.550668 195.9228 -113.0902
v -2.209697 195.5417 -186.9099
v -2.167073 195.494 -113.0902
v -2.167077 195.494 -186.9099
v -2.167077 195.494 -186.9099
v -1.939984 195.4814 -113.0902
v -0.1232681 195.3803 -186.9099
v -1.873141 195.4777 -113.0902
v 0.4783032 195.3468 -186.9099
v -1.866318 195.4773 -113.0902
v 0.5397149 195.3434 -186.9099
v -1.863153 195.4771 -113.0902
v 0.5681936 195.3418 -186.9099
v -1.859154 195.4769 -113.0902
v 0.6041862 195.3398 -186.9099
v -1.78498 195.4728 -113.0902
v 1.27176 195.3027 -186.9099
v 1.653853 195.2814 -113.0902
v 1.653853 195.2814 -186.9099
v 1.653857 195.2814 -113.0902
v 1.653853 195.2814 -186.9099
v 1.653857 195.2814 -113.0902
v 1.653857 195.2814 -113.0902
v 2.126387 193.9333 -113.0902
v 3.307712 190.5629 -113.0902
v 3.307713 190.5629 -113.0902
v 3.307712 190.5629 -113.0902
v 1.653857 195.2814 -113.0902
v 1.653857 195.2814 -113.0902
v 1.653857 195.2814 -113.0902
v 1.653853 195.2814 -186.9099
v 1.653853 195.2814 -186.9099
v 1.653853 195.2814 -186.9099
v 1.653857 195.2814 -113.0902
v -4.334147 190.988 -113.0902
v 1.653857 195.2814 -113.0902
v 1.653853 195.2814 -186.9099
v 1.653857 195.2814 -113.0902
v 1.653855 195.2814 -150
v 1.653853 195.2814 -186.9099
v 3.30771 190.5629 -150
v 1.653853 195.2814 -186.9099
v 1.653853 195.2814 -186.9099
v 2.126383 193.9333 -186.9099
v -4.334151 190.9881 -186.9099
v 1.653853 195.2814 -186.9099
v -4.334147 190.988 -113.0902
v 3.307708 190.5629 -186.9099
v -4.334151 190.9881 -186.9099
v -2.167077 195.494 -186.9099
v -2.167077 195.494 -186.9099
v -3.307713 209.4371 -150
v -3.30771 209.4371 -113.0902
v -3.30771 209.4371 -113.0902
v -2.126385 206.0667 -113.0902
v -1.653857 204.7186 -150
v -1.653854 204.7186 -113.0902
v -2.338909 206.6731 -186.9099
v -3.307714 209.4371 -186.9099
v -1.653859 204.7186 -186.9099
v -3.30771 209.4371 -113.0902
v -9.011958 204.3342 -113.0902
v -9.437119 196.6923 -113.0902
v -4.50598 202.1671 -113.0902
v -3.96976 202.6468 -113.0902
v -3.767557 202.8277 -113.0902
v -3.670611 202.9144 -113.0902
v -2.827892 203.6683 -113.0902
v -1.939067 204.4634 -113.0902
v -1.866976 204.5279 -113.0902
v -1.860561 204.5336 -113.0902
v -1.837714 204.5541 -113.0902
v -1.653855 204.7186 -113.0902
v -4.517286 201.9638 -113.0902
v -4.520091 201.9134 -113.0902
v -4.520926 201.8984 -113.0902
v -4.527237 201.785 -113.0902
v -4.599631 200.4837 -113.0902
v -4.659442 199.4087 -113.0902
v -4.718558 198.3461 -113.0902
v -4.639822 198.2581 -113.0902
v -4.46341 198.0609 -113.0902
v -3.971245 197.5108 -113.0902
v -4.334147 190.988 -113.0902
v -3.774421 197.2908 -113.0902
v -3.10328 196.5405 -113.0902
v -2.550668 195.9228 -113.0902
v -2.167073 195.494 -113.0902
v -1.939984 195.4814 -113.0902
v -1.873141 195.4777 -113.0902
v -1.866318 195.4773 -113.0902
v -1.863153 195.4771 -113.0902
v -1.859154 195.4769 -113.0902
v -1.78498 195.4728 -113.0902
v 1.653853 195.2814 -113.0902
v 1.653857 195.2814 -113.0902
v 1.653857 195.2814 -113.0902
v 3.307712 190.5629 -113.0902
v -3.30771 209.4371 -113.0902
v -9.011962 204.3342 -186.9099
v -9.011958 204.3342 -113.0902
v -3.307713 209.4371 -150
v -9.437123 196.6923 -186.9099
v -9.437119 196.6923 -113.0902
v -4.334151 190.9881 -186.9099
v -4.334147 190.988 -113.0902
v -3.307714 209.4371 -186.9099
v 3.307712 190.5629 -113.0902
v 1.653855 195.2814 -150
v 1.653857 195.2814 -113.0902
v 3.30771 190.5629 -150
v 1.653853 195.2814 -186.9099
v 3.307708 190.5629 -186.9099
v 2.126383 193.9333 -186.9099
v 1.653853 195.2814 -186.9099
v -1.653859 204.7186 -186.9099
v -9.011962 204.3342 -186.9099
v -2.338909 206.6731 -186.9099
v -9.011962 204.3342 -186.9099
v -3.307714 209.4371 -186.9099
v -1.653859 204.7186 -186.9099
v -3.308597 203.2383 -186.9099
v -1.653859 204.7186 -186.9099
v -3.51422 203.0543 -186.9099
v -3.571951 203.0027 -186.9099
v -4.22077 202.4222 -186.9099
v -4.319529 202.3339 -186.9099
v -4.423934 202.2405 -186.9099
v -4.446401 202.2204 -186.9099
v -4.505983 202.1671 -186.9099
v -9.437123 196.6923 -186.9099
v -4.568246 201.048 -186.9099
v -4.607748 200.3379 -186.9099
v -4.632998 199.8841 -186.9099
v -4.640512 199.749 -186.9099
v -4.697306 198.7282 -186.9099
v -4.70535 198.5837 -186.9099
v -4.711996 198.4642 -186.9099
v -4.718564 198.3461 -186.9099
v -4.009942 197.554 -186.9099
v -2.422225 195.7792 -186.9099
v -2.34567 195.6937 -186.9099
v -2.271101 195.6103 -186.9099
v -2.209697 195.5417 -186.9099
v -2.167077 195.494 -186.9099
v -4.334151 190.9881 -186.9099
v -2.167077 195.494 -186.9099
v -0.1232681 195.3803 -186.9099
v 0.4783032 195.3468 -186.9099
v 0.5397149 195.3434 -186.9099
v 0.5681936 195.3418 -186.9099
v 0.6041862 195.3398 -186.9099
v 1.27176 195.3027 -186.9099
v 1.653853 195.2814 -186.9099
v 2.126383 193.9333 -186.9099
v 1.653853 195.2814 -186.9099
v 3.307708 190.5629 -186.9099

vn -0.3307709 0.9437112 5.340572E-07
vn -0.3307709 0.9437112 3.814694E-07
vn -0.2511399 0.7165189 0.6507913
vn 0 0 1
vn 0 0 1
vn 0.6667387 -0.7452917 -6.462383E-08
vn 0.3274465 -0.9342265 0.141421
vn 0.9952831 0.09701339 -1.883212E-07
vn 0.6667352 -0.7452947 -3.424387E-07
vn 0.6667346 -0.7452953 -3.013172E-07
vn 0.6667349 -0.745295 -3.400592E-07
vn 0.6667356 -0.7452944 -4.236429E-07
vn 0.6667364 -0.7452936 -4.821552E-07
vn 0.6667321 -0.7452976 1.095606E-07
vn 0.6667342 -0.7452957 -1.780023E-07
vn 0.6667345 -0.7452953 -2.260704E-07
vn 0.6667345 -0.7452955 -2.089216E-07
vn 0.6667344 -0.7452955 -2.077588E-07
vn 0.6667346 -0.7452953 -2.217208E-07
vn 0.6667344 -0.7452955 -2.409156E-07
vn 0.6667352 -0.7452947 -2.351288E-07
vn 0.6667364 -0.7452937 -2.778156E-07
vn 0.6667348 -0.7452951 -1.673258E-07
vn 0.6667342 -0.7452958 -1.811419E-07
vn 0.7715216 -0.6362033 -1.839746E-07
vn 0.9953485 -0.09634016 -2.087927E-07
vn 0.9984561 -0.05554803 -2.638545E-07
vn 0.9984559 -0.05554884 -2.243663E-07
vn 0.998456 -0.05554917 -2.046673E-07
vn 0.998456 -0.05555127 -5.134434E-08
vn 0.9984558 -0.05555256 3.311141E-08
vn 0.9984557 -0.05555424 2.493531E-07
vn 0.9984559 -0.05555142 -1.725448E-08
vn 0.9984559 -0.05555023 -1.95488E-07
vn 0.9984561 -0.05554966 -2.545912E-07
vn 0.9984559 -0.05554957 -3.133276E-07
vn 0.9984558 -0.05555071 -2.147517E-07
vn 0.998456 -0.05555006 -2.354086E-07
vn 0.998456 -0.05554885 -2.762392E-07
vn 0.9999471 0.01028786 -2.850269E-07
vn 0.7876608 0.6161094 -1.199789E-07
vn 0.7452959 0.6667339 -7.869002E-08
vn 0.7452952 0.6667347 -1.061353E-07
vn 0.7452948 0.6667352 -1.468234E-07
vn 0.7452947 0.6667352 -1.18347E-07
vn 0.745295 0.6667348 -1.005928E-07
vn 0.7452954 0.6667344 2.558145E-08
vn 0.7452952 0.6667348 -4.388408E-08
vn 0.7452954 0.6667346 -2.142637E-08
vn 0.7452951 0.6667348 -1.39089E-08
vn 0.7452952 0.6667348 -6.971242E-09
vn 0.7452954 0.6667344 1.713521E-09
vn 0.5992898 0.8005322 6.568339E-08
vn 0.745311 0.6667171 3.749556E-09
vn 0.05555072 0.9984559 1.50355E-07
vn 0.05554943 0.9984559 1.053244E-07
vn 0.05554899 0.9984561 6.84602E-08
vn 0.05554778 0.998456 -3.948485E-08
vn 0.05554984 0.998456 1.617077E-07
vn 0.05555145 0.998456 4.500968E-07
vn 0.05555419 0.9984556 7.290805E-07
vn 0.05559936 0.9984532 6.344963E-06
vn 0.05557103 0.9984548 2.762223E-06
vn 0.05554256 0.9984564 -5.911333E-07
vn 0.05554667 0.9984562 -2.018595E-07
vn 0.05554954 0.9984559 1.357495E-07
vn 0.05555015 0.9984559 1.613505E-07
vn 0.05555043 0.9984559 1.611312E-07
vn 0.05555545 0.9984556 9.115076E-08
vn 0.222023 0.9750415 9.305477E-08
vn -0.3307709 0.9437112 1.907347E-07
vn -0.3307709 0.9437112 1.907347E-07
vn -0.3307709 0.9437112 1.907347E-07
vn 0 0 1
vn -0.05554979 -0.9984559 -2.936142E-07
vn 0 0 1
vn 0.9786949 0.2053206 -1.677742E-07
vn -0.2148237 0.6129063 0.7603924
vn -0.1863392 0.5316381 0.8262195
vn -0.3299349 0.9413263 0.0710492
vn -0.3307709 0.9437112 1.90735E-07
vn -0.3307709 0.9437112 1.907347E-07
vn -0.3307709 0.9437112 1.907343E-07
vn -0.3290115 0.9386916 0.1030029
vn 0 0 1
vn -0.3307389 0.9436374 0.01266336
vn -0.3307709 0.9437112 1.907357E-07
vn -0.3274464 0.9342263 0.1414215
vn -0.3307771 0.943709 1.907357E-07
vn -0.33018 0.9420065 -0.06004161
vn -0.05554981 -0.9984559 -2.232892E-07
vn -0.3307932 0.9437034 1.907375E-07
vn -2.296461E-06 6.551956E-06 -1
vn 0 0 -1
vn -4.072901E-07 -1.427552E-07 -1
vn 0 0 0
vn -0.05554987 -0.998456 -2.130985E-07
vn -0.05554984 -0.998456 -1.778031E-07
vn -0.05554985 -0.9984561 -2.029077E-07
vn -4.072901E-07 -1.427552E-07 -1
vn -4.072901E-07 -1.427552E-07 -1
vn 0.9437112 0.3307709 -1.192093E-07
vn 0.9437111 0.3307708 -1.192092E-07
vn 0.9437112 0.3307709 -1.192093E-07
vn 0.9437112 0.3307709 -1.192093E-07
vn 0.9437112 0.3307709 -1.192093E-07
vn 0.9437112 0.3307709 -1.192092E-07
vn 0.9437112 0.3307709 -1.192093E-07
vn 0.9437112 0.3307709 -1.192093E-07
vn 0.9437112 0.3307709 -1.192093E-07
vn 0 0 1
vn 0 0 1
vn 0 0 1
vn 0 0 1
vn 0 0 1
vn 0 0 1
vn 0 0 1
vn 0 0 1
vn 0 0 1
vn 0 0 1
vn 0 0 1
vn 0 0 1
vn 0 0 1
vn 0 0 0.9999999
vn 0 0 1
vn 0 0 1
vn 0 0 0.9999999
vn 0 0 1
vn 0 0 1
vn 0 0 1
vn 0 0 0.9999999
vn 0 0 1
vn 0 0 1
vn 0 0 1
vn 0 0 1
vn 0 0 1
vn 0 0 1
vn 0 0 1
vn 0 0 1
vn 0 0 1
vn 0 0 1
vn 0 0 0.9999999
vn 0 0 1
vn 0 0 0.9999999
vn 0 0 0.9999999
vn 0 0 1
vn 0 0 0.9999999
vn 0 0 0.9999999
vn -0.6667349 0.7452951 3.42789E-07
vn -0.8334461 0.5526009 3.092419E-07
vn -0.9520054 0.3060814 2.619401E-07
vn -0.6667349 0.7452949 3.23738E-07
vn -0.9800832 -0.1985876 1.531119E-07
vn -0.8896018 -0.4567371 7.358348E-08
vn -0.745295 -0.6667349 7.245398E-09
vn -0.745295 -0.6667349 0
vn -0.6667348 0.7452951 2.570785E-07
vn 0.9437112 0.3307709 -1.192093E-07
vn 0.9437112 0.3307709 -1.192093E-07
vn 0.9437112 0.3307709 -1.192093E-07
vn 0.9437112 0.3307709 -1.192093E-07
vn 0.9437112 0.3307709 -1.192093E-07
vn 0.9437112 0.3307709 -1.192093E-07
vn 0.9437112 0.3307709 -1.283792E-07
vn 0.9437111 0.3307708 -1.283792E-07
vn 0.3238973 -0.9241003 -0.2028032
vn -2.436983E-07 6.952875E-07 -1
vn -2.03645E-07 -7.137761E-08 -0.9999999
vn -2.57429E-07 2.80258E-08 -1
vn -2.036451E-07 -7.137761E-08 -1
vn -2.036451E-07 -7.137761E-08 -1
vn -2.202357E-07 2.461855E-07 -1
vn -2.202357E-07 2.461857E-07 -1
vn -2.202358E-07 2.46185E-07 -1
vn -2.202356E-07 2.461858E-07 -1
vn -2.202355E-07 2.461859E-07 -1
vn -2.202358E-07 2.461853E-07 -0.9999999
vn -2.202367E-07 2.461832E-07 -1
vn -2.202345E-07 2.461881E-07 -0.9999999
vn -3.288204E-07 2.040629E-08 -1
vn -2.879977E-07 -1.009432E-07 -1
vn -3.298093E-07 1.834887E-08 -1
vn -3.298096E-07 1.834931E-08 -1
vn -3.298101E-07 1.83499E-08 -1
vn -3.298098E-07 1.834952E-08 -1
vn -3.298098E-07 1.834948E-08 -1
vn -3.298098E-07 1.834936E-08 -1
vn -3.298096E-07 1.834879E-08 -1
vn -2.545579E-07 -1.96349E-07 -1
vn -2.461857E-07 -2.202357E-07 -1
vn -2.461857E-07 -2.202359E-07 -1
vn -2.461856E-07 -2.202351E-07 -1
vn -2.461858E-07 -2.202369E-07 -1
vn -2.461856E-07 -2.20236E-07 -1
vn -2.461856E-07 -2.202356E-07 -1
vn -1.836021E-07 -1.826073E-07 -1
vn -1.834919E-08 -3.298098E-07 -1
vn -1.834906E-08 -3.2981E-07 -1
vn -1.83488E-08 -3.298103E-07 -1
vn -1.835368E-08 -3.298048E-07 -1
vn -1.834835E-08 -3.298109E-07 -1
vn -1.834866E-08 -3.298104E-07 -1
vn -1.834963E-08 -3.298092E-07 -1
vn -1.835035E-08 -3.298082E-07 -0.9999999
vn -2.036451E-07 -7.137762E-08 -1
vn -2.036451E-07 -7.137763E-08 -1
vn -2.036451E-07 -7.137761E-08 -0.9999999

f 1//1 2//2 3//3
f 4//4 1//1 3//3
f 3//3 5//5 4//4
f 3//3 6//6 5//5
f 5//5 6//6 7//7
f 8//8 7//7 6//6
f 9//9 8//8 6//6
f 10//10 9//9 6//6
f 9//9 10//10 11//11
f 11//11 10//10 12//12
f 13//13 11//11 12//12
f 13//13 12//12 14//14
f 13//13 14//14 15//15
f 15//15 14//14 16//16
f 15//15 16//16 17//17
f 18//18 17//17 16//16
f 19//19 17//17 18//18
f 19//19 18//18 20//20
f 21//21 19//19 20//20
f 22//22 19//19 21//21
f 22//22 21//21 23//23
f 24//24 22//22 23//23
f 24//24 23//23 25//25
f 26//26 24//24 25//25
f 26//26 25//25 27//27
f 28//28 26//26 27//27
f 28//28 27//27 29//29
f 29//29 27//27 30//30
f 31//31 29//29 30//30
f 31//31 30//30 32//32
f 33//33 31//31 32//32
f 33//33 32//32 34//34
f 35//35 33//33 34//34
f 35//35 34//34 36//36
f 37//37 35//35 36//36
f 37//37 36//36 38//38
f 39//39 37//37 38//38
f 39//39 38//38 40//40
f 41//41 39//39 40//40
f 41//41 40//40 42//42
f 41//41 42//42 43//43
f 43//43 42//42 44//44
f 45//45 43//43 44//44
f 45//45 44//44 46//46
f 47//47 45//45 46//46
f 48//48 45//45 47//47
f 48//48 47//47 49//49
f 50//50 48//48 49//49
f 50//50 49//49 51//51
f 52//52 50//50 51//51
f 52//52 51//51 53//53
f 54//54 52//52 53//53
f 55//55 54//54 53//53
f 55//55 53//53 56//56
f 55//55 56//56 57//57
f 57//57 56//56 58//58
f 57//57 58//58 59//59
f 59//59 58//58 60//60
f 59//59 60//60 61//61
f 61//61 60//60 62//62
f 61//61 62//62 63//63
f 63//63 62//62 64//64
f 63//63 64//64 65//65
f 65//65 64//64 66//66
f 65//65 66//66 67//67
f 68//68 67//67 66//66
f 69//69 67//67 68//68
f 69//69 68//68 70//70
f 71//71 69//69 70//70
f 72//72 71//71 73//73
f 74//74 75//75 76//76
f 77//77 74//74 76//76
f 75//75 77//77 76//76
f 78//78 75//75 74//74
f 79//79 75//75 78//78
f 78//78 74//74 80//80
f 81//81 78//78 80//80
f 82//82 78//78 81//81
f 82//82 83//83 78//78
f 83//83 84//84 79//79
f 84//84 85//85 79//79
f 80//80 74//74 86//86
f 87//87 80//80 86//86
f 81//81 80//80 87//87
f 86//86 74//74 88//88
f 88//88 74//74 77//77
f 86//86 88//88 89//89
f 90//90 86//86 89//89
f 87//87 86//86 90//90
f 75//75 91//91 77//77
f 90//90 89//89 92//92
f 90//90 92//92 93//93
f 94//94 90//90 93//93
f 95//95 83//83 82//82
f 95//95 82//82 81//81
f 95//95 81//81 87//87
f 95//95 87//87 90//90
f 95//95 96//96 83//83
f 97//97 91//91 75//75
f 97//97 98//98 91//91
f 97//97 99//99 98//98
f 100//100 95//95 101//101
f 102//102 103//103 104//104
f 102//102 104//104 105//105
f 102//102 105//105 106//106
f 106//106 105//105 107//107
f 108//108 102//102 106//106
f 109//109 102//102 108//108
f 110//110 108//108 106//106
f 111//111 112//112 113//113
f 111//111 113//113 114//114
f 111//111 114//114 115//115
f 111//111 115//115 116//116
f 111//111 116//116 117//117
f 117//117 118//118 111//111
f 118//118 119//119 111//111
f 120//120 111//111 119//119
f 120//120 121//121 111//111
f 121//121 122//122 111//111
f 111//111 122//122 123//123
f 114//114 113//113 124//124
f 124//124 113//113 125//125
f 125//125 113//113 126//126
f 126//126 113//113 127//127
f 127//127 113//113 128//128
f 128//128 113//113 129//129
f 129//129 113//113 130//130
f 130//130 113//113 131//131
f 131//131 113//113 132//132
f 132//132 113//113 133//133
f 133//133 113//113 134//134
f 133//133 134//134 135//135
f 135//135 134//134 136//136
f 134//134 137//137 136//136
f 137//137 134//134 138//138
f 138//138 134//134 139//139
f 139//139 134//134 140//140
f 140//140 134//134 141//141
f 134//134 142//142 141//141
f 134//134 143//143 142//142
f 134//134 144//144 143//143
f 144//144 134//134 145//145
f 145//145 134//134 146//146
f 147//147 134//134 148//148
f 149//149 150//150 151//151
f 149//149 152//152 150//150
f 151//151 150//150 153//153
f 151//151 153//153 154//154
f 154//154 153//153 155//155
f 154//154 155//155 156//156
f 152//152 157//157 150//150
f 158//158 159//159 160//160
f 161//161 159//159 158//158
f 162//162 159//159 161//161
f 163//163 162//162 161//161
f 164//164 162//162 163//163
f 165//165 162//162 164//164
f 9//9 166//166 8//8
f 166//166 9//9 167//167
f 168//168 169//169 170//170
f 168//168 171//171 169//169
f 172//172 169//169 173//173
f 174//174 169//169 172//172
f 169//169 174//174 175//175
f 176//176 169//169 175//175
f 177//177 169//169 176//176
f 178//178 169//169 177//177
f 178//178 179//179 169//169
f 179//179 180//180 169//169
f 180//180 181//181 169//169
f 182//182 181//181 180//180
f 182//182 183//183 181//181
f 183//183 184//184 181//181
f 184//184 185//185 181//181
f 185//185 186//186 181//181
f 186//186 187//187 181//181
f 187//187 188//188 181//181
f 188//188 189//189 181//181
f 181//181 189//189 190//190
f 181//181 190//190 191//191
f 192//192 181//181 191//191
f 193//193 181//181 192//192
f 194//194 181//181 193//193
f 195//195 181//181 194//194
f 195//195 196//196 181//181
f 196//196 197//197 198//198
f 196//196 198//198 199//199
f 199//199 200//200 196//196
f 196//196 200//200 201//201
f 201//201 202//202 196//196
f 196//196 202//202 203//203
f 196//196 203//203 204//204
f 205//205 196//196 206//206
f 207//207 196//196 205//205
