v 102.4174 -10.13246 15.91498
v 102.4174 -95.66053 58.67904
v 102.4174 -10.13246 15.91498
v 102.4174 -10.13246 15.91498
v 101.554 -11.68229 12.81533
v 101.2087 -12.30222 11.57547
v 101.2087 -12.30222 11.57547
v 101.2087 -97.83028 54.33953
v 101.2087 -183.3584 97.10359
v 101.407 -12.36782 11.44426
v 102.9937 -183.9488 95.92266
v 101.4317 -12.37598 11.42796
v 103.2155 -184.0222 95.77592
v 101.4386 -12.37827 11.42338
v 103.2778 -184.0428 95.73471
v 101.5164 -12.40398 11.37193
v 103.9777 -184.2743 95.27168
v 102.4752 -12.72115 10.73761
v 104.0842 -184.3096 95.2012
v 103.3842 -13.02186 10.13619
v 103.4888 -13.05645 10.06701
v 104.1968 -184.3468 95.12669
v 103.7069 -13.1286 9.922699
v 104.2211 -184.3548 95.11066
v 104.2854 -13.31994 9.54002
v 104.2854 -184.3761 95.06813
v 104.3155 -13.40997 9.359962
v 104.4512 -184.8718 94.07664
v 104.5565 -185.1863 93.44761
v 104.323 -13.43231 9.315285
v 104.6237 -185.3874 93.04553
v 104.3252 -13.43896 9.301991
v 104.6438 -185.4472 92.92587
v 104.342 -13.4892 9.201508
v 104.7951 -185.8994 92.02151
v 104.5349 -14.06561 8.048679
v 104.8165 -185.9634 91.89342
v 104.6942 -14.54182 7.096264
v 104.8342 -186.0164 91.7876
v 104.8517 -15.01251 6.154884
v 104.8517 -186.0686 91.683
v 104.7815 -15.05497 6.069965
v 104.2197 -186.4508 90.91872
v 104.6241 -15.1501 5.879696
v 102.8036 -187.307 89.20633
v 104.1852 -15.41551 5.348885
v 104.0096 -15.52165 5.1366
v 102.7353 -187.3483 89.12376
v 103.411 -15.88358 4.412758
v 102.6688 -187.3885 89.04333
v 102.9181 -16.18158 3.81675
v 102.614 -187.4216 88.97711
v 102.576 -16.38844 3.40303
v 102.576 -187.4446 88.93114
v 102.576 -187.4446 88.93114
v 102.3511 -16.40349 3.372921
v 100.5516 -187.5801 88.66018
v 102.2849 -16.40792 3.364059
v 99.95571 -187.6199 88.58043
v 102.2781 -16.40837 3.363155
v 99.89488 -187.624 88.57228
v 102.275 -16.40858 3.362736
v 99.86667 -187.6259 88.5685
v 102.271 -16.40885 3.362206
v 99.83102 -187.6283 88.56374
v 102.1975 -16.41376 3.352371
v 99.16978 -187.6725 88.47523
v 98.79132 -16.64172 2.896461
v 98.79131 -187.6979 88.42458
v 98.79131 -16.64172 2.896461
v 98.79131 -187.6979 88.42458
v 98.79131 -16.64172 2.896461
v 98.79131 -16.64172 2.896461
v 98.44598 -17.26165 1.656601
v 97.58263 -18.81148 -1.443047
v 97.58263 -18.81148 -1.443047
v 97.58263 -18.81148 -1.443047
v 98.79131 -16.64172 2.896461
v 98.79131 -16.64172 2.896461
v 98.79131 -16.64172 2.896461
v 98.79131 -187.6979 88.42458
v 98.79131 -187.6979 88.42458
v 98.79131 -187.6979 88.42458
v 98.79131 -16.64172 2.896461
v 105.152 -18.30491 -0.4299088
v 98.79131 -16.64172 2.896461
v 98.79131 -187.6979 88.42458
v 98.79131 -16.64172 2.896461
v 98.79131 -102.1698 45.66052
v 98.79131 -187.6979 88.42458
v 97.58262 -104.3396 41.32101
v 98.79131 -187.6978 88.42453
v 98.79131 -187.6979 88.42458
v 98.44597 -188.3178 87.18472
v 105.152 -189.361 85.09821
v 98.79131 -187.6979 88.42458
v 105.152 -18.30491 -0.4299088
v 97.58262 -189.8676 84.08507
v 105.152 -189.361 85.09821
v 102.576 -187.4446 88.93114
v 102.576 -187.4446 88.93114
v 102.4174 -95.66053 58.67904
v 102.4174 -10.13246 15.91498
v 102.4174 -10.13246 15.91498
v 101.554 -11.68229 12.81533
v 101.2087 -97.83028 54.33953
v 101.2087 -12.30222 11.57547
v 101.7093 -182.4596 98.90107
v 102.4174 -181.1886 101.4431
v 101.2087 -183.3584 97.10359
v 102.4174 -10.13246 15.91498
v 108.5707 -12.16792 11.84407
v 109.7034 -15.55305 5.073799
v 104.2854 -13.31994 9.54002
v 103.7069 -13.1286 9.922699
v 103.4888 -13.05645 10.06701
v 103.3842 -13.02186 10.13619
v 102.4752 -12.72115 10.73761
v 101.5164 -12.40398 11.37193
v 101.4386 -12.37827 11.42338
v 101.4317 -12.37598 11.42796
v 101.407 -12.36782 11.44426
v 101.2087 -12.30222 11.57547
v 104.3155 -13.40997 9.359962
v 104.323 -13.43231 9.315285
v 104.3252 -13.43896 9.301991
v 104.342 -13.4892 9.201508
v 104.5349 -14.06561 8.048679
v 104.6942 -14.54182 7.096264
v 104.8517 -15.01251 6.154884
v 104.7815 -15.05497 6.069965
v 104.6241 -15.1501 5.879696
v 104.1852 -15.41551 5.348885
v 105.152 -18.30491 -0.4299088
v 104.0096 -15.52165 5.1366
v 103.411 -15.88358 4.412758
v 102.9181 -16.18158 3.81675
v 102.576 -16.38844 3.40303
v 102.3511 -16.40349 3.372921
v 102.2849 -16.40792 3.364059
v 102.2781 -16.40837 3.363155
v 102.275 -16.40858 3.362736
v 102.271 -16.40885 3.362206
v 102.1975 -16.41376 3.352371
v 98.79132 -16.64172 2.896461
v 98.79131 -16.64172 2.896461
v 98.79131 -16.64172 2.896461
v 97.58263 -18.81148 -1.443047
v 102.4174 -10.13246 15.91498
v 108.5707 -183.2241 97.37218
v 108.5707 -12.16792 11.84407
v 102.4174 -95.66053 58.67904
v 109.7034 -186.6092 90.60191
v 109.7034 -15.55305 5.073799
v 105.152 -189.361 85.09821
v 105.152 -18.30491 -0.4299088
v 102.4174 -181.1886 101.4431
v 97.58263 -18.81148 -1.443047
v 98.79131 -102.1698 45.66052
v 98.79131 -16.64172 2.896461
v 97.58262 -104.3396 41.32101
v 98.79131 -187.6978 88.42453
v 97.58262 -189.8676 84.08507
v 98.44597 -188.3178 87.18472
v 98.79131 -187.6979 88.42458
v 101.2087 -183.3584 97.10359
v 108.5707 -183.2241 97.37218
v 101.7093 -182.4596 98.90107
v 108.5707 -183.2241 97.37218
v 102.4174 -181.1886 101.4431
v 101.2087 -183.3584 97.10359
v 102.9937 -183.9488 95.92266
v 101.2087 -183.3584 97.10359
v 103.2155 -184.0222 95.77592
v 103.2778 -184.0428 95.73471
v 103.9777 -184.2743 95.27168
v 104.0842 -184.3096 95.2012
v 104.1968 -184.3468 95.12669
v 104.2211 -184.3548 95.11066
v 104.2854 -184.3761 95.06813
v 109.7034 -186.6092 90.60191
v 104.4512 -184.8718 94.07664
v 104.5565 -185.1863 93.44761
v 104.6237 -185.3874 93.04553
v 104.6438 -185.4472 92.92587
v 104.7951 -185.8994 92.02151
v 104.8165 -185.9634 91.89342
v 104.8342 -186.0164 91.7876
v 104.8517 -186.0686 91.683
v 104.2197 -186.4508 90.91872
v 102.8036 -187.307 89.20633
v 102.7353 -187.3483 89.12376
v 102.6688 -187.3885 89.04333
v 102.614 -187.4216 88.97711
v 102.576 -187.4446 88.93114
v 105.152 -189.361 85.09821
v 102.576 -187.4446 88.93114
v 100.5516 -187.5801 88.66018
v 99.95571 -187.6199 88.58043
v 99.89488 -187.624 88.57228
v 99.86667 -187.6259 88.5685
v 99.83102 -187.6283 88.56374
v 99.16978 -187.6725 88.47523
v 98.79131 -187.6979 88.42458
v 98.44597 -188.3178 87.18472
v 98.79131 -187.6979 88.42458
v 97.58262 -189.8676 84.08507

vn 0.2417377 0.4339505 0.8678998
vn 0.2417377 0.4339504 0.8678999
vn 0.183541 0.911565 0.367916
vn 5.960464E-08 0.8944273 -0.4472138
vn 5.960464E-08 0.8944273 -0.4472138
vn -0.5946742 -0.3595451 -0.71909
vn -0.2393081 -0.303098 -0.9224228
vn -0.9999912 0.001878988 0.00375844
vn -0.5946704 -0.3595465 -0.7190922
vn -0.5946698 -0.3595468 -0.7190928
vn -0.59467 -0.3595467 -0.7190926
vn -0.5946709 -0.3595465 -0.719092
vn -0.5946717 -0.3595463 -0.7190914
vn -0.594667 -0.3595473 -0.7190948
vn -0.5946693 -0.3595468 -0.7190931
vn -0.5946697 -0.3595467 -0.7190928
vn -0.5946696 -0.3595468 -0.719093
vn -0.5946695 -0.3595468 -0.719093
vn -0.5946698 -0.3595467 -0.7190928
vn -0.5946695 -0.3595468 -0.719093
vn -0.5946704 -0.3595465 -0.7190924
vn -0.5946717 -0.3595461 -0.7190915
vn -0.5946699 -0.3595466 -0.7190927
vn -0.5946692 -0.3595468 -0.7190932
vn -0.7091312 -0.3153202 -0.6306399
vn -0.9821073 -0.08422071 -0.1684409
vn -0.9889883 -0.06618574 -0.1323708
vn -0.988988 -0.06618606 -0.1323716
vn -0.9889881 -0.0661862 -0.1323719
vn -0.9889879 -0.06618699 -0.1323738
vn -0.9889876 -0.06618749 -0.132375
vn -0.9889873 -0.06618803 -0.1323766
vn -0.9889877 -0.06618702 -0.132374
vn -0.9889879 -0.06618665 -0.1323728
vn -0.9889881 -0.06618646 -0.1323723
vn -0.988988 -0.06618647 -0.1323722
vn -0.9889878 -0.06618688 -0.1323732
vn -0.988988 -0.06618662 -0.1323727
vn -0.9889881 -0.06618612 -0.1323716
vn -0.9965845 -0.03693209 -0.0738635
vn -0.8414533 0.2416429 0.4832861
vn -0.8039708 0.2659439 0.5318879
vn -0.8039702 0.2659443 0.5318888
vn -0.8039699 0.2659445 0.5318893
vn -0.8039698 0.2659445 0.5318893
vn -0.80397 0.2659443 0.5318889
vn -0.8039704 0.2659442 0.5318885
vn -0.8039702 0.2659444 0.5318888
vn -0.8039704 0.2659443 0.5318886
vn -0.8039701 0.2659444 0.5318888
vn -0.8039702 0.2659444 0.5318888
vn -0.8039704 0.2659442 0.5318884
vn -0.6710157 0.3315835 0.6631669
vn -0.8039842 0.2659359 0.5318717
vn -0.1479978 0.4422889 0.8845775
vn -0.1479965 0.4422889 0.8845776
vn -0.1479961 0.442289 0.8845778
vn -0.1479948 0.4422889 0.8845779
vn -0.1479969 0.442289 0.8845776
vn -0.1479985 0.4422892 0.8845773
vn -0.1480012 0.4422892 0.8845767
vn -0.1480459 0.4422912 0.8845683
vn -0.1480179 0.4422899 0.8845736
vn -0.1479897 0.4422888 0.8845789
vn -0.1479938 0.4422889 0.8845782
vn -0.1479966 0.442289 0.8845776
vn -0.1479972 0.442289 0.8845775
vn -0.1479975 0.442289 0.8845775
vn -0.1480024 0.4422886 0.8845769
vn -0.3115776 0.4249518 0.8499033
vn 0.2417377 0.4339502 0.8679
vn 0.2417377 0.4339502 0.8679
vn 0.2417377 0.4339502 0.8679
vn 5.960464E-08 0.8944273 -0.4472138
vn 0.1479968 -0.4422891 -0.8845775
vn 5.960464E-08 0.8944273 -0.4472138
vn -0.9935288 0.05079497 0.1015904
vn 0.1569999 0.9619506 0.2236117
vn 0.1361826 0.9834583 0.1194333
vn 0.2411268 0.4964017 0.8339326
vn 0.2417377 0.4339502 0.8679
vn 0.2417377 0.4339502 0.8679
vn 0.2417377 0.4339502 0.8679
vn 0.2404519 0.5237705 0.8172194
vn 5.960464E-08 0.8944273 -0.4472138
vn 0.2417127 0.4452423 0.8621685
vn 0.2417377 0.4339502 0.8679
vn 0.2393081 0.5560799 0.7959316
vn 0.2417441 0.4339495 0.8678986
vn 0.2413076 0.3794636 0.8931844
vn 0.1479968 -0.442289 -0.8845775
vn 0.2417606 0.4339477 0.8678949
vn 1.618721E-06 -0.8944243 0.4472198
vn -5.960464E-08 -0.8944273 0.4472138
vn 3.591788E-07 -0.8944273 0.4472137
vn 0 0 0
vn 0.1479969 -0.4422891 -0.8845776
vn 0.1479969 -0.442289 -0.8845776
vn 0.1479969 -0.4422891 -0.8845776
vn 3.591788E-07 -0.8944273 0.4472137
vn 3.591788E-07 -0.8944273 0.4472137
vn -0.9703418 0.1081082 0.2162167
vn -0.9703417 0.1081082 0.2162166
vn -0.9703418 0.1081082 0.2162167
vn -0.9703418 0.1081082 0.2162167
vn -0.9703418 0.1081082 0.2162167
vn -0.9703418 0.1081082 0.2162167
vn -0.9703418 0.1081082 0.2162167
vn -0.9703418 0.1081082 0.2162167
vn -0.9703418 0.1081082 0.2162167
vn 5.960464E-08 0.8944273 -0.4472138
vn 5.960464E-08 0.8944273 -0.4472138
vn 5.960464E-08 0.8944273 -0.4472138
vn 5.960464E-08 0.8944273 -0.4472138
vn 5.960464E-08 0.8944273 -0.4472138
vn 5.960464E-08 0.8944273 -0.4472138
vn 5.960464E-08 0.8944273 -0.4472138
vn 5.960464E-08 0.8944273 -0.4472138
vn 5.960464E-08 0.8944273 -0.4472138
vn 5.960464E-08 0.8944273 -0.4472138
vn 5.960464E-08 0.8944273 -0.4472138
vn 5.960464E-08 0.8944273 -0.4472138
vn 5.960464E-08 0.8944273 -0.4472138
vn 5.960464E-08 0.8944272 -0.4472138
vn 5.960464E-08 0.8944273 -0.4472138
vn 5.960464E-08 0.8944273 -0.4472138
vn 5.960464E-08 0.8944272 -0.4472138
vn 5.960464E-08 0.8944273 -0.4472138
vn 5.960464E-08 0.8944273 -0.4472138
vn 5.960464E-08 0.8944273 -0.4472138
vn 5.960464E-08 0.8944272 -0.4472138
vn 5.960464E-08 0.8944273 -0.4472138
vn 5.960464E-08 0.8944273 -0.4472138
vn 5.960464E-08 0.8944273 -0.4472138
vn 5.960464E-08 0.8944273 -0.4472138
vn 5.960464E-08 0.8944273 -0.4472138
vn 5.960464E-08 0.8944273 -0.4472138
vn 5.960464E-08 0.8944273 -0.4472138
vn 5.960464E-08 0.8944273 -0.4472138
vn 5.960464E-08 0.8944273 -0.4472138
vn 5.960464E-08 0.8944273 -0.4472138
vn 5.960464E-08 0.8944272 -0.4472138
vn 5.960464E-08 0.8944273 -0.4472138
vn 5.960464E-08 0.8944272 -0.4472138
vn 5.960464E-08 0.8944272 -0.4472138
vn 5.960464E-08 0.8944273 -0.4472138
vn 5.960464E-08 0.8944272 -0.4472138
vn 5.960464E-08 0.8944272 -0.4472138
vn 0.5946701 0.3595467 0.7190926
vn 0.7785492 0.2806644 0.5613279
vn 0.9194811 0.1758155 0.3516303
vn 0.59467 0.3595466 0.7190925
vn 0.9942862 -0.04773928 -0.09547894
vn 0.9281596 -0.1664452 -0.3328905
vn 0.80397 -0.2659444 -0.5318889
vn 0.8039701 -0.2659445 -0.5318889
vn 0.5946699 0.3595466 0.7190926
vn -0.9703418 0.1081082 0.2162167
vn -0.9703418 0.1081082 0.2162167
vn -0.9703418 0.1081082 0.2162167
vn -0.9703418 0.1081082 0.2162167
vn -0.9703418 0.1081082 0.2162167
vn -0.9703418 0.1081082 0.2162167
vn -0.9703418 0.1081082 0.2162167
vn -0.9703417 0.1081082 0.2162166
vn -0.2367142 -0.6063251 -0.7591683
vn 1.184977E-07 -0.8944269 0.4472145
vn 1.497871E-07 -0.8944272 0.4472138
vn 1.941112E-07 -0.8944272 0.4472139
vn 1.497871E-07 -0.8944273 0.4472138
vn 1.497871E-07 -0.8944273 0.4472138
vn 1.368267E-07 -0.8944272 0.4472141
vn 1.368266E-07 -0.8944272 0.4472141
vn 1.368268E-07 -0.8944272 0.4472141
vn 1.368265E-07 -0.8944272 0.4472141
vn 1.368264E-07 -0.8944272 0.4472141
vn 1.368268E-07 -0.8944271 0.447214
vn 1.368279E-07 -0.8944272 0.4472141
vn 1.368252E-07 -0.8944271 0.447214
vn 2.659016E-07 -0.8944272 0.4472139
vn 2.365201E-07 -0.8944273 0.4472138
vn 2.670772E-07 -0.8944272 0.4472139
vn 2.670775E-07 -0.8944272 0.4472139
vn 2.670779E-07 -0.8944272 0.4472139
vn 2.670777E-07 -0.8944272 0.4472139
vn 2.670777E-07 -0.8944272 0.4472139
vn 2.670776E-07 -0.8944272 0.4472139
vn 2.670775E-07 -0.8944272 0.4472139
vn 2.120812E-07 -0.8944274 0.4472137
vn 2.059626E-07 -0.8944274 0.4472136
vn 2.059626E-07 -0.8944274 0.4472136
vn 2.059624E-07 -0.8944274 0.4472136
vn 2.059628E-07 -0.8944274 0.4472136
vn 2.059626E-07 -0.8944274 0.4472136
vn 2.059625E-07 -0.8944274 0.4472136
vn 1.401562E-07 -0.8944274 0.4472137
vn -1.071836E-08 -0.8944274 0.4472135
vn -1.071848E-08 -0.8944274 0.4472135
vn -1.071871E-08 -0.8944274 0.4472135
vn -1.071436E-08 -0.8944274 0.4472135
vn -1.07191E-08 -0.8944274 0.4472135
vn -1.071883E-08 -0.8944274 0.4472135
vn -1.071798E-08 -0.8944274 0.4472135
vn -1.071735E-08 -0.8944274 0.4472135
vn 1.497871E-07 -0.8944273 0.4472138
vn 1.497871E-07 -0.8944273 0.4472138
vn 1.497871E-07 -0.8944272 0.4472138

f 1//1 2//2 3//3
f 4//4 1//1 3//3
f 3//3 5//5 4//4
f 3//3 6//6 5//5
f 5//5 6//6 7//7
f 8//8 7//7 6//6
f 9//9 8//8 6//6
f 10//10 9//9 6//6
f 9//9 10//10 11//11
f 11//11 10//10 12//12
f 13//13 11//11 12//12
f 13//13 12//12 14//14
f 13//13 14//14 15//15
f 15//15 14//14 16//16
f 15//15 16//16 17//17
f 18//18 17//17 16//16
f 19//19 17//17 18//18
f 19//19 18//18 20//20
f 21//21 19//19 20//20
f 22//22 19//19 21//21
f 22//22 21//21 23//23
f 24//24 22//22 23//23
f 24//24 23//23 25//25
f 26//26 24//24 25//25
f 26//26 25//25 27//27
f 28//28 26//26 27//27
f 28//28 27//27 29//29
f 29//29 27//27 30//30
f 31//31 29//29 30//30
f 31//31 30//30 32//32
f 33//33 31//31 32//32
f 33//33 32//32 34//34
f 35//35 33//33 34//34
f 35//35 34//34 36//36
f 37//37 35//35 36//36
f 37//37 36//36 38//38
f 39//39 37//37 38//38
f 39//39 38//38 40//40
f 41//41 39//39 40//40
f 41//41 40//40 42//42
f 41//41 42//42 43//43
f 43//43 42//42 44//44
f 45//45 43//43 44//44
f 45//45 44//44 46//46
f 47//47 45//45 46//46
f 48//48 45//45 47//47
f 48//48 47//47 49//49
f 50//50 48//48 49//49
f 50//50 49//49 51//51
f 52//52 50//50 51//51
f 52//52 51//51 53//53
f 54//54 52//52 53//53
f 55//55 54//54 53//53
f 55//55 53//53 56//56
f 55//55 56//56 57//57
f 57//57 56//56 58//58
f 57//57 58//58 59//59
f 59//59 58//58 60//60
f 59//59 60//60 61//61
f 61//61 60//60 62//62
f 61//61 62//62 63//63
f 63//63 62//62 64//64
f 63//63 64//64 65//65
f 65//65 64//64 66//66
f 65//65 66//66 67//67
f 68//68 67//67 66//66
f 69//69 67//67 68//68
f 69//69 68//68 70//70
f 71//71 69//69 70//70
f 72//72 71//71 73//73
f 74//74 75//75 76//76
f 77//77 74//74 76//76
f 75//75 77//77 76//76
f 78//78 75//75 74//74
f 79//79 75//75 78//78
f 78//78 74//74 80//80
f 81//81 78//78 80//80
f 82//82 78//78 81//81
f 82//82 83//83 78//78
f 83//83 84//84 79//79
f 84//84 85//85 79//79
f 80//80 74//74 86//86
f 87//87 80//80 86//86
f 81//81 80//80 87//87
f 86//86 74//74 88//88
f 88//88 74//74 77//77
f 86//86 88//88 89//89
f 90//90 86//86 89//89
f 87//87 86//86 90//90
f 75//75 91//91 77//77
f 90//90 89//89 92//92
f 90//90 92//92 93//93
f 94//94 90//90 93//93
f 95//95 83//83 82//82
f 95//95 82//82 81//81
f 95//95 81//81 87//87
f 95//95 87//87 90//90
f 95//95 96//96 83//83
f 97//97 91//91 75//75
f 97//97 98//98 91//91
f 97//97 99//99 98//98
f 100//100 95//95 101//101
f 102//102 103//103 104//104
f 102//102 104//104 105//105
f 102//102 105//105 106//106
f 106//106 105//105 107//107
f 108//108 102//102 106//106
f 109//109 102//102 108//108
f 110//110 108//108 106//106
f 111//111 112//112 113//113
f 111//111 113//113 114//114
f 111//111 114//114 115//115
f 111//111 115//115 116//116
f 111//111 116//116 117//117
f 117//117 118//118 111//111
f 118//118 119//119 111//111
f 120//120 111//111 119//119
f 120//120 121//121 111//111
f 121//121 122//122 111//111
f 111//111 122//122 123//123
f 114//114 113//113 124//124
f 124//124 113//113 125//125
f 125//125 113//113 126//126
f 126//126 113//113 127//127
f 127//127 113//113 128//128
f 128//128 113//113 129//129
f 129//129 113//113 130//130
f 130//130 113//113 131//131
f 131//131 113//113 132//132
f 132//132 113//113 133//133
f 133//133 113//113 134//134
f 133//133 134//134 135//135
f 135//135 134//134 136//136
f 134//134 137//137 136//136
f 137//137 134//134 138//138
f 138//138 134//134 139//139
f 139//139 134//134 140//140
f 140//140 134//134 141//141
f 134//134 142//142 141//141
f 134//134 143//143 142//142
f 134//134 144//144 143//143
f 144//144 134//134 145//145
f 145//145 134//134 146//146
f 147//147 134//134 148//148
f 149//149 150//150 151//151
f 149//149 152//152 150//150
f 151//151 150//150 153//153
f 151//151 153//153 154//154
f 154//154 153//153 155//155
f 154//154 155//155 156//156
f 152//152 157//157 150//150
f 158//158 159//159 160//160
f 161//161 159//159 158//158
f 162//162 159//159 161//161
f 163//163 162//162 161//161
f 164//164 162//162 163//163
f 165//165 162//162 164//164
f 9//9 166//166 8//8
f 166//166 9//9 167//167
f 168//168 169//169 170//170
f 168//168 171//171 169//169
f 172//172 169//169 173//173
f 174//174 169//169 172//172
f 169//169 174//174 175//175
f 176//176 169//169 175//175
f 177//177 169//169 176//176
f 178//178 169//169 177//177
f 178//178 179//179 169//169
f 179//179 180//180 169//169
f 180//180 181//181 169//169
f 182//182 181//181 180//180
f 182//182 183//183 181//181
f 183//183 184//184 181//181
f 184//184 185//185 181//181
f 185//185 186//186 181//181
f 186//186 187//187 181//181
f 187//187 188//188 181//181
f 188//188 189//189 181//181
f 181//181 189//189 190//190
f 181//181 190//190 191//191
f 192//192 181//181 191//191
f 193//193 181//181 192//192
f 194//194 181//181 193//193
f 195//195 181//181 194//194
f 195//195 196//196 181//181
f 196//196 197//197 198//198
f 196//196 198//198 199//199
f 199//199 200//200 196//196
f 196//196 200//200 201//201
f 201//201 202//202 196//196
f 196//196 202//202 203//203
f 196//196 203//203 204//204
f 205//205 196//196 206//206
f 207//207 196//196 205//205
