v -96.10424 -190.7901 13.09016
v -96.10423 -190.7901 50.00002
v -96.10423 -190.7901 13.09016
v -96.10424 -190.7901 13.09016
v -97.49558 -194.0793 13.09016
v -98.05212 -195.395 13.09016
v -98.05212 -195.395 13.09016
v -98.05212 -195.395 50.00002
v -98.05212 -195.395 86.90987
v -97.87899 -195.5708 13.09016
v -96.49394 -196.9767 86.90987
v -97.85748 -195.5926 13.09016
v -96.30032 -197.1732 86.90987
v -97.85143 -195.5987 13.09016
v -96.24596 -197.2284 86.90987
v -97.78355 -195.6676 13.09016
v -95.63499 -197.8485 86.90987
v -96.94659 -196.5172 13.09016
v -95.542 -197.9429 86.90987
v -96.15305 -197.3227 13.09016
v -96.06176 -197.4153 13.09016
v -95.44369 -198.0427 86.90987
v -95.87136 -197.6086 13.09016
v -95.42253 -198.0642 86.90987
v -95.36643 -198.1212 13.09016
v -95.36642 -198.1212 86.90987
v -95.36795 -198.3247 13.09016
v -95.3748 -199.242 86.90987
v -95.38012 -199.9531 86.90987
v -95.36833 -198.3752 13.09016
v -95.38351 -200.4076 86.90987
v -95.36844 -198.3902 13.09016
v -95.38452 -200.5429 86.90987
v -95.36929 -198.5038 13.09016
v -95.39217 -201.5652 86.90987
v -95.37903 -199.807 13.09016
v -95.39325 -201.71 86.90987
v -95.38708 -200.8837 13.09016
v -95.39414 -201.8296 86.90987
v -95.39503 -201.9479 13.09016
v -95.39502 -201.9479 86.90987
v -95.47916 -202.0308 13.09016
v -96.15215 -202.6938 86.90987
v -95.66764 -202.2164 13.09016
v -97.84854 -204.365 86.90987
v -96.19349 -202.7345 13.09016
v -96.40379 -202.9417 13.09016
v -97.93033 -204.4456 86.90987
v -97.12086 -203.6481 13.09016
v -98.01 -204.5241 86.90987
v -97.7113 -204.2298 13.09016
v -98.07561 -204.5887 86.90987
v -98.12115 -204.6336 13.09016
v -98.12115 -204.6336 86.90987
v -98.12115 -204.6336 86.90987
v -98.34859 -204.6319 13.09016
v -100.1681 -204.6183 86.90987
v -98.41553 -204.6314 13.09016
v -100.7705 -204.6138 86.90987
v -98.42236 -204.6313 13.09016
v -100.832 -204.6133 86.90987
v -98.42554 -204.6313 13.09016
v -100.8606 -204.6131 86.90987
v -98.42954 -204.6313 13.09016
v -100.8966 -204.6128 86.90987
v -98.50382 -204.6307 13.09016
v -101.5652 -204.6078 86.90987
v -101.9479 -204.605 13.09016
v -101.9479 -204.605 86.90987
v -101.9479 -204.605 13.09016
v -101.9479 -204.605 86.90987
v -101.9479 -204.605 13.09016
v -101.9479 -204.605 13.09016
v -102.5044 -205.9207 13.09016
v -103.8958 -209.2099 13.09016
v -103.8958 -209.2099 13.09016
v -103.8958 -209.2099 13.09016
v -101.9479 -204.605 13.09016
v -101.9479 -204.605 13.09016
v -101.9479 -204.605 13.09016
v -101.9479 -204.605 86.90987
v -101.9479 -204.605 86.90987
v -101.9479 -204.605 86.90987
v -101.9479 -204.605 13.09016
v -96.24231 -209.2671 13.09016
v -101.9479 -204.605 13.09016
v -101.9479 -204.605 86.90987
v -101.9479 -204.605 13.09016
v -101.9479 -204.605 50.00002
v -101.9479 -204.605 86.90987
v -103.8958 -209.2099 50.00002
v -101.9479 -204.605 86.90984
v -101.9479 -204.605 86.90987
v -102.5044 -205.9207 86.90987
v -96.2423 -209.2671 86.90987
v -101.9479 -204.605 86.90987
v -96.24231 -209.2671 13.09016
v -103.8958 -209.2099 86.90987
v -96.2423 -209.2671 86.90987
v -98.12115 -204.6336 86.90987
v -98.12115 -204.6336 86.90987
v -96.10423 -190.7901 50.00002
v -96.10424 -190.7901 13.09016
v -96.10424 -190.7901 13.09016
v -97.49558 -194.0793 13.09016
v -98.05212 -195.395 50.00002
v -98.05212 -195.395 13.09016
v -97.24528 -193.4876 86.90987
v -96.10423 -190.7901 86.90987
v -98.05212 -195.395 86.90987
v -96.10423 -190.7901 13.09016
v -90.73286 -196.2423 13.09016
v -90.79005 -203.8958 13.09016
v -95.36643 -198.1212 13.09016
v -95.87136 -197.6086 13.09016
v -96.06176 -197.4153 13.09016
v -96.15305 -197.3227 13.09016
v -96.94659 -196.5172 13.09016
v -97.78355 -195.6676 13.09016
v -97.85143 -195.5987 13.09016
v -97.85748 -195.5926 13.09016
v -97.87899 -195.5708 13.09016
v -98.05212 -195.395 13.09016
v -95.36795 -198.3247 13.09016
v -95.36833 -198.3752 13.09016
v -95.36844 -198.3902 13.09016
v -95.36929 -198.5038 13.09016
v -95.37903 -199.807 13.09016
v -95.38708 -200.8837 13.09016
v -95.39503 -201.9479 13.09016
v -95.47916 -202.0308 13.09016
v -95.66764 -202.2164 13.09016
v -96.19349 -202.7345 13.09016
v -96.24231 -209.2671 13.09016
v -96.40379 -202.9417 13.09016
v -97.12086 -203.6481 13.09016
v -97.7113 -204.2298 13.09016
v -98.12115 -204.6336 13.09016
v -98.34859 -204.6319 13.09016
v -98.41553 -204.6314 13.09016
v -98.42236 -204.6313 13.09016
v -98.42554 -204.6313 13.09016
v -98.42954 -204.6313 13.09016
v -98.50382 -204.6307 13.09016
v -101.9479 -204.605 13.09016
v -101.9479 -204.605 13.09016
v -101.9479 -204.605 13.09016
v -103.8958 -209.2099 13.09016
v -96.10423 -190.7901 13.09016
v -90.73286 -196.2423 86.90987
v -90.73286 -196.2423 13.09016
v -96.10423 -190.7901 50.00002
v -90.79005 -203.8958 86.90987
v -90.79005 -203.8958 13.09016
v -96.2423 -209.2671 86.90987
v -96.24231 -209.2671 13.09016
v -96.10423 -190.7901 86.90987
v -103.8958 -209.2099 13.09016
v -101.9479 -204.605 50.00002
v -101.9479 -204.605 13.09016
v -103.8958 -209.2099 50.00002
v -101.9479 -204.605 86.90984
v -103.8958 -209.2099 86.90987
v -102.5044 -205.9207 86.90987
v -101.9479 -204.605 86.90987
v -98.05212 -195.395 86.90987
v -90.73286 -196.2423 86.90987
v -97.24528 -193.4876 86.90987
v -90.73286 -196.2423 86.90987
v -96.10423 -190.7901 86.90987
v -98.05212 -195.395 86.90987
v -96.49394 -196.9767 86.90987
v -98.05212 -195.395 86.90987
v -96.30032 -197.1732 86.90987
v -96.24596 -197.2284 86.90987
v -95.63499 -197.8485 86.90987
v -95.542 -197.9429 86.90987
v -95.44369 -198.0427 86.90987
v -95.42253 -198.0642 86.90987
v -95.36642 -198.1212 86.90987
v -90.79005 -203.8958 86.90987
v -95.3748 -199.242 86.90987
v -95.38012 -199.9531 86.90987
v -95.38351 -200.4076 86.90987
v -95.38452 -200.5429 86.90987
v -95.39217 -201.5652 86.90987
v -95.39325 -201.71 86.90987
v -95.39414 -201.8296 86.90987
v -95.39502 -201.9479 86.90987
v -96.15215 -202.6938 86.90987
v -97.84854 -204.365 86.90987
v -97.93033 -204.4456 86.90987
v -98.01 -204.5241 86.90987
v -98.07561 -204.5887 86.90987
v -98.12115 -204.6336 86.90987
v -96.2423 -209.2671 86.90987
v -98.12115 -204.6336 86.90987
v -100.1681 -204.6183 86.90987
v -100.7705 -204.6138 86.90987
v -100.832 -204.6133 86.90987
v -100.8606 -204.6131 86.90987
v -100.8966 -204.6128 86.90987
v -101.5652 -204.6078 86.90987
v -101.9479 -204.605 86.90987
v -102.5044 -205.9207 86.90987
v -101.9479 -204.605 86.90987
v -103.8958 -209.2099 86.90987

vn 0.3895763 0.9209942 -5.340571E-07
vn 0.3895763 0.9209942 -3.814694E-07
vn 0.2957884 0.6992709 -0.6507913
vn 0 0 -0.9999999
vn 0 0 -0.9999999
vn -0.7123742 -0.7017998 6.462382E-08
vn -0.3856609 -0.9117379 -0.1414209
vn -0.9871925 0.1595329 1.883212E-07
vn -0.7123709 -0.701803 3.424387E-07
vn -0.7123704 -0.7018037 3.013171E-07
vn -0.7123706 -0.7018034 3.400591E-07
vn -0.7123713 -0.7018027 4.236429E-07
vn -0.7123721 -0.7018019 4.821551E-07
vn -0.712368 -0.7018061 -1.095606E-07
vn -0.71237 -0.701804 1.780023E-07
vn -0.7123703 -0.7018037 2.260704E-07
vn -0.7123703 -0.7018039 2.089216E-07
vn -0.7123702 -0.7018039 2.077588E-07
vn -0.7123704 -0.7018036 2.217208E-07
vn -0.7123702 -0.7018039 2.409155E-07
vn -0.712371 -0.7018031 2.351288E-07
vn -0.712372 -0.7018019 2.778156E-07
vn -0.7123705 -0.7018034 1.673258E-07
vn -0.7123699 -0.7018042 1.811419E-07
vn -0.8100753 -0.5863259 1.839746E-07
vn -0.9994409 -0.03343227 2.087927E-07
vn -0.999972 0.007474614 2.638545E-07
vn -0.999972 0.007473793 2.243662E-07
vn -0.999972 0.007473468 2.046673E-07
vn -0.9999722 0.007471377 5.134434E-08
vn -0.999972 0.007470075 -3.31114E-08
vn -0.999972 0.007468392 -2.49353E-07
vn -0.9999721 0.007471221 1.725448E-08
vn -0.999972 0.007472404 1.95488E-07
vn -0.9999721 0.007472982 2.545911E-07
vn -0.999972 0.007473069 3.133276E-07
vn -0.999972 0.007471922 2.147517E-07
vn -0.9999721 0.007472583 2.354086E-07
vn -0.999972 0.007473789 2.762391E-07
vn -0.9973119 0.07327363 2.850269E-07
vn -0.7472748 0.6645153 1.199788E-07
vn -0.7018043 0.7123697 7.869001E-08
vn -0.7018036 0.7123705 1.061353E-07
vn -0.7018031 0.7123711 1.468234E-07
vn -0.7018031 0.712371 1.18347E-07
vn -0.7018034 0.7123706 1.005928E-07
vn -0.7018038 0.7123703 -2.558145E-08
vn -0.7018035 0.7123706 4.388408E-08
vn -0.7018038 0.7123704 2.142636E-08
vn -0.7018035 0.7123706 1.39089E-08
vn -0.7018036 0.7123706 6.971242E-09
vn -0.7018038 0.7123702 -1.713521E-09
vn -0.5476578 0.8367025 -6.568339E-08
vn -0.7018204 0.7123539 -3.749555E-09
vn 0.007471863 0.999972 -1.50355E-07
vn 0.007473151 0.999972 -1.053244E-07
vn 0.007473596 0.9999721 -6.846019E-08
vn 0.007474806 0.999972 3.948484E-08
vn 0.007472744 0.9999721 -1.617077E-07
vn 0.007471135 0.9999722 -4.500968E-07
vn 0.007468392 0.999972 -7.290805E-07
vn 0.007423149 0.9999724 -6.344963E-06
vn 0.007451525 0.9999723 -2.762223E-06
vn 0.007480038 0.999972 5.911332E-07
vn 0.007475921 0.9999721 2.018595E-07
vn 0.007473041 0.999972 -1.357495E-07
vn 0.007472427 0.999972 -1.613505E-07
vn 0.007472157 0.9999721 -1.611312E-07
vn 0.007467132 0.9999721 -9.115075E-08
vn -0.1601449 0.9870936 -9.305476E-08
vn 0.3895763 0.9209942 -1.907347E-07
vn 0.3895763 0.9209942 -1.907347E-07
vn 0.3895763 0.9209942 -1.907347E-07
vn 0 0 -0.9999999
vn -0.007472799 -0.999972 2.936141E-07
vn 0 0 -0.9999999
vn -0.9638129 0.2665797 1.677742E-07
vn 0.2530157 0.5981524 -0.7603924
vn 0.2194672 0.5188406 -0.8262194
vn 0.3885918 0.9186667 -0.07104919
vn 0.3895763 0.9209942 -1.90735E-07
vn 0.3895763 0.9209942 -1.907347E-07
vn 0.3895763 0.9209942 -1.907343E-07
vn 0.3875042 0.9160954 -0.1030029
vn 0 0 -0.9999999
vn 0.3895398 0.9209226 -0.01266336
vn 0.3895763 0.9209942 -1.907357E-07
vn 0.3856609 0.9117377 -0.1414215
vn 0.3895824 0.9209916 -1.907357E-07
vn 0.3888792 0.9193301 0.0600416
vn -0.007472775 -0.999972 2.232892E-07
vn 0.3895981 0.9209849 -1.907375E-07
vn 2.704733E-06 6.394238E-06 0.9999999
vn 0 0 0.9999999
vn 3.974859E-07 -1.681347E-07 0.9999999
vn 0 0 0
vn -0.007472716 -0.9999721 2.130985E-07
vn -0.007472744 -0.9999721 1.778031E-07
vn -0.00747274 -0.9999722 2.029077E-07
vn 3.974859E-07 -1.681347E-07 0.9999999
vn 3.974859E-07 -1.681347E-07 0.9999999
vn -0.9209942 0.3895764 1.192093E-07
vn -0.9209941 0.3895763 1.192092E-07
vn -0.9209942 0.3895764 1.192092E-07
vn -0.9209942 0.3895764 1.192092E-07
vn -0.9209942 0.3895764 1.192093E-07
vn -0.9209942 0.3895764 1.192092E-07
vn -0.9209942 0.3895764 1.192093E-07
vn -0.9209942 0.3895764 1.192093E-07
vn -0.9209942 0.3895764 1.192093E-07
vn 0 0 -0.9999999
vn 0 0 -0.9999999
vn 0 0 -0.9999999
vn 0 0 -0.9999999
vn 0 0 -0.9999999
vn 0 0 -0.9999999
vn 0 0 -0.9999999
vn 0 0 -0.9999999
vn 0 0 -0.9999999
vn 0 0 -0.9999999
vn 0 0 -0.9999999
vn 0 0 -0.9999999
vn 0 0 -0.9999999
vn 0 0 -0.9999999
vn 0 0 -0.9999999
vn 0 0 -0.9999999
vn 0 0 -0.9999999
vn 0 0 -0.9999999
vn 0 0 -0.9999999
vn 0 0 -0.9999999
vn 0 0 -0.9999999
vn 0 0 -0.9999999
vn 0 0 -0.9999999
vn 0 0 -0.9999999
vn 0 0 -0.9999999
vn 0 0 -0.9999999
vn 0 0 -0.9999999
vn 0 0 -0.9999999
vn 0 0 -0.9999999
vn 0 0 -0.9999999
vn 0 0 -0.9999999
vn 0 0 -0.9999999
vn 0 0 -0.9999999
vn 0 0 -0.9999999
vn 0 0 -0.9999999
vn 0 0 -0.9999999
vn 0 0 -0.9999999
vn 0 0 -0.9999999
vn 0.7123707 0.7018034 -3.42789E-07
vn 0.866609 0.4989878 -3.092418E-07
vn 0.9693996 0.2454877 -2.6194E-07
vn 0.7123706 0.7018033 -3.237379E-07
vn 0.9656228 -0.2599476 -1.531119E-07
vn 0.8590553 -0.511883 -7.358347E-08
vn 0.7018034 -0.7123706 -7.245397E-09
vn 0.7018034 -0.7123707 0
vn 0.7123706 0.7018034 -2.570784E-07
vn -0.9209942 0.3895764 1.192093E-07
vn -0.9209942 0.3895764 1.192093E-07
vn -0.9209942 0.3895764 1.192093E-07
vn -0.9209942 0.3895764 1.192093E-07
vn -0.9209942 0.3895764 1.192093E-07
vn -0.9209942 0.3895764 1.192093E-07
vn -0.9209942 0.3895764 1.283792E-07
vn -0.9209941 0.3895763 1.283792E-07
vn -0.3814807 -0.9018555 0.2028032
vn 2.870238E-07 6.785506E-07 0.9999999
vn 1.987429E-07 -8.406735E-08 0.9999999
vn 2.586834E-07 1.174962E-08 0.9999999
vn 1.987429E-07 -8.406736E-08 0.9999999
vn 1.987429E-07 -8.406736E-08 0.9999999
vn 2.353101E-07 2.318194E-07 0.9999999
vn 2.353101E-07 2.318195E-07 0.9999999
vn 2.353102E-07 2.318188E-07 0.9999999
vn 2.3531E-07 2.318197E-07 0.9999999
vn 2.3531E-07 2.318198E-07 0.9999999
vn 2.353102E-07 2.318192E-07 0.9999999
vn 2.35311E-07 2.31817E-07 0.9999999
vn 2.35309E-07 2.31822E-07 0.9999999
vn 3.294527E-07 -3.53083E-10 0.9999999
vn 2.81065E-07 -1.188892E-07 0.9999999
vn 3.303101E-07 -2.468729E-09 0.9999999
vn 3.303104E-07 -2.4683E-09 0.9999999
vn 3.303109E-07 -2.467743E-09 0.9999999
vn 3.303106E-07 -2.468107E-09 0.9999999
vn 3.303106E-07 -2.468146E-09 0.9999999
vn 3.303106E-07 -2.468264E-09 0.9999999
vn 3.303103E-07 -2.468827E-09 0.9999999
vn 2.416802E-07 -2.119984E-07 0.9999999
vn 2.318196E-07 -2.353102E-07 0.9999999
vn 2.318195E-07 -2.353103E-07 0.9999999
vn 2.318194E-07 -2.353095E-07 0.9999999
vn 2.318196E-07 -2.353114E-07 0.9999999
vn 2.318195E-07 -2.353105E-07 0.9999999
vn 2.318195E-07 -2.353101E-07 0.9999999
vn 1.717313E-07 -1.938131E-07 0.9999999
vn -2.468421E-09 -3.303106E-07 0.9999999
vn -2.468564E-09 -3.303108E-07 0.9999999
vn -2.468841E-09 -3.30311E-07 0.9999999
vn -2.463627E-09 -3.303059E-07 0.9999999
vn -2.469325E-09 -3.303116E-07 0.9999999
vn -2.468986E-09 -3.303112E-07 0.9999999
vn -2.467948E-09 -3.303101E-07 0.9999999
vn -2.467167E-09 -3.303091E-07 0.9999999
vn 1.987429E-07 -8.406737E-08 0.9999999
vn 1.987429E-07 -8.406737E-08 0.9999999
vn 1.987429E-07 -8.406736E-08 0.9999999

f 1//1 2//2 3//3
f 4//4 1//1 3//3
f 3//3 5//5 4//4
f 3//3 6//6 5//5
f 5//5 6//6 7//7
f 8//8 7//7 6//6
f 9//9 8//8 6//6
f 10//10 9//9 6//6
f 9//9 10//10 11//11
f 11//11 10//10 12//12
f 13//13 11//11 12//12
f 13//13 12//12 14//14
f 13//13 14//14 15//15
f 15//15 14//14 16//16
f 15//15 16//16 17//17
f 18//18 17//17 16//16
f 19//19 17//17 18//18
f 19//19 18//18 20//20
f 21//21 19//19 20//20
f 22//22 19//19 21//21
f 22//22 21//21 23//23
f 24//24 22//22 23//23
f 24//24 23//23 25//25
f 26//26 24//24 25//25
f 26//26 25//25 27//27
f 28//28 26//26 27//27
f 28//28 27//27 29//29
f 29//29 27//27 30//30
f 31//31 29//29 30//30
f 31//31 30//30 32//32
f 33//33 31//31 32//32
f 33//33 32//32 34//34
f 35//35 33//33 34//34
f 35//35 34//34 36//36
f 37//37 35//35 36//36
f 37//37 36//36 38//38
f 39//39 37//37 38//38
f 39//39 38//38 40//40
f 41//41 39//39 40//40
f 41//41 40//40 42//42
f 41//41 42//42 43//43
f 43//43 42//42 44//44
f 45//45 43//43 44//44
f 45//45 44//44 46//46
f 47//47 45//45 46//46
f 48//48 45//45 47//47
f 48//48 47//47 49//49
f 50//50 48//48 49//49
f 50//50 49//49 51//51
f 52//52 50//50 51//51
f 52//52 51//51 53//53
f 54//54 52//52 53//53
f 55//55 54//54 53//53
f 55//55 53//53 56//56
f 55//55 56//56 57//57
f 57//57 56//56 58//58
f 57//57 58//58 59//59
f 59//59 58//58 60//60
f 59//59 60//60 61//61
f 61//61 60//60 62//62
f 61//61 62//62 63//63
f 63//63 62//62 64//64
f 63//63 64//64 65//65
f 65//65 64//64 66//66
f 65//65 66//66 67//67
f 68//68 67//67 66//66
f 69//69 67//67 68//68
f 69//69 68//68 70//70
f 71//71 69//69 70//70
f 72//72 71//71 73//73
f 74//74 75//75 76//76
f 77//77 74//74 76//76
f 75//75 77//77 76//76
f 78//78 75//75 74//74
f 79//79 75//75 78//78
f 78//78 74//74 80//80
f 81//81 78//78 80//80
f 82//82 78//78 81//81
f 82//82 83//83 78//78
f 83//83 84//84 79//79
f 84//84 85//85 79//79
f 80//80 74//74 86//86
f 87//87 80//80 86//86
f 81//81 80//80 87//87
f 86//86 74//74 88//88
f 88//88 74//74 77//77
f 86//86 88//88 89//89
f 90//90 86//86 89//89
f 87//87 86//86 90//90
f 75//75 91//91 77//77
f 90//90 89//89 92//92
f 90//90 92//92 93//93
f 94//94 90//90 93//93
f 95//95 83//83 82//82
f 95//95 82//82 81//81
f 95//95 81//81 87//87
f 95//95 87//87 90//90
f 95//95 96//96 83//83
f 97//97 91//91 75//75
f 97//97 98//98 91//91
f 97//97 99//99 98//98
f 100//100 95//95 101//101
f 102//102 103//103 104//104
f 102//102 104//104 105//105
f 102//102 105//105 106//106
f 106//106 105//105 107//107
f 108//108 102//102 106//106
f 109//109 102//102 108//108
f 110//110 108//108 106//106
f 111//111 112//112 113//113
f 111//111 113//113 114//114
f 111//111 114//114 115//115
f 111//111 115//115 116//116
f 111//111 116//116 117//117
f 117//117 118//118 111//111
f 118//118 119//119 111//111
f 120//120 111//111 119//119
f 120//120 121//121 111//111
f 121//121 122//122 111//111
f 111//111 122//122 123//123
f 114//114 113//113 124//124
f 124//124 113//113 125//125
f 125//125 113//113 126//126
f 126//126 113//113 127//127
f 127//127 113//113 128//128
f 128//128 113//113 129//129
f 129//129 113//113 130//130
f 130//130 113//113 131//131
f 131//131 113//113 132//132
f 132//132 113//113 133//133
f 133//133 113//113 134//134
f 133//133 134//134 135//135
f 135//135 134//134 136//136
f 134//134 137//137 136//136
f 137//137 134//134 138//138
f 138//138 134//134 139//139
f 139//139 134//134 140//140
f 140//140 134//134 141//141
f 134//134 142//142 141//141
f 134//134 143//143 142//142
f 134//134 144//144 143//143
f 144//144 134//134 145//145
f 145//145 134//134 146//146
f 147//147 134//134 148//148
f 149//149 150//150 151//151
f 149//149 152//152 150//150
f 151//151 150//150 153//153
f 151//151 153//153 154//154
f 154//154 153//153 155//155
f 154//154 155//155 156//156
f 152//152 157//157 150//150
f 158//158 159//159 160//160
f 161//161 159//159 158//158
f 162//162 159//159 161//161
f 163//163 162//162 161//161
f 164//164 162//162 163//163
f 165//165 162//162 164//164
f 9//9 166//166 8//8
f 166//166 9//9 167//167
f 168//168 169//169 170//170
f 168//168 171//171 169//169
f 172//172 169//169 173//173
f 174//174 169//169 172//172
f 169//169 174//174 175//175
f 176//176 169//169 175//175
f 177//177 169//169 176//176
f 178//178 169//169 177//177
f 178//178 179//179 169//169
f 179//179 180//180 169//169
f 180//180 181//181 169//169
f 182//182 181//181 180//180
f 182//182 183//183 181//181
f 183//183 184//184 181//181
f 184//184 185//185 181//181
f 185//185 186//186 181//181
f 186//186 187//187 181//181
f 187//187 188//188 181//181
f 188//188 189//189 181//181
f 181//181 189//189 190//190
f 181//181 190//190 191//191
f 192//192 181//181 191//191
f 193//193 181//181 192//192
f 194//194 181//181 193//193
f 195//195 181//181 194//194
f 195//195 196//196 181//181
f 196//196 197//197 198//198
f 196//196 198//198 199//199
f 199//199 200//200 196//196
f 196//196 200//200 201//201
f 201//201 202//202 196//196
f 196//196 202//202 203//203
f 196//196 203//203 204//204
f 205//205 196//196 206//206
f 207//207 196//196 205//205
