v 103.9651 -192.3974 -14.0652
v 103.9651 -104.1055 -58.21114
v 103.9651 -192.3974 -14.0652
v 103.9651 -192.3974 -14.0652
v 102.549 -190.9312 -11.13266
v 101.9826 -190.3447 -9.959637
v 101.9826 -190.3447 -9.959637
v 101.9826 -102.0527 -54.10558
v 101.9826 -13.76083 -98.25153
v 102.1544 -190.2655 -9.801289
v 103.5288 -13.04826 -96.8264
v 102.1757 -190.2556 -9.781612
v 103.7209 -12.95972 -96.64931
v 102.1817 -190.2529 -9.776089
v 103.7748 -12.93485 -96.59959
v 102.2491 -190.2218 -9.714001
v 104.3811 -12.65546 -96.0408
v 103.0796 -189.8391 -8.948509
v 104.4734 -12.61293 -95.95575
v 103.867 -189.4762 -8.222725
v 103.9576 -189.4344 -8.139229
v 104.571 -12.56797 -95.86583
v 104.1466 -189.3474 -7.965084
v 104.5919 -12.5583 -95.84647
v 104.6476 -189.1165 -7.503269
v 104.6476 -12.53264 -95.79517
v 104.6445 -189.0255 -7.321224
v 104.6308 -12.03143 -94.79276
v 104.6201 -11.71345 -94.15678
v 104.6438 -189.0029 -7.276058
v 104.6133 -11.51019 -93.75027
v 104.6436 -188.9961 -7.262615
v 104.6113 -11.44971 -93.6293
v 104.6419 -188.9453 -7.161026
v 104.5959 -10.99254 -92.71497
v 104.6223 -188.3626 -5.995495
v 104.5937 -10.92779 -92.58546
v 104.6061 -187.8811 -5.032581
v 104.5919 -10.87429 -92.47847
v 104.5901 -187.4052 -4.080826
v 104.5902 -10.82142 -92.37272
v 104.5054 -187.3685 -4.007267
v 103.8274 -10.49041 -91.71069
v 104.3155 -187.2861 -3.842457
v 102.1185 -9.748756 -90.22739
v 103.7858 -187.0562 -3.38266
v 103.5739 -186.9642 -3.198776
v 102.0361 -9.712997 -90.15587
v 102.8515 -186.6507 -2.57177
v 101.9558 -9.678162 -90.0862
v 102.2567 -186.3926 -2.0555
v 101.8897 -9.649483 -90.02884
v 101.8438 -186.2134 -1.697128
v 101.8439 -9.62957 -89.98902
v 101.8439 -9.62957 -89.98902
v 101.6164 -186.2149 -1.700184
v 99.79712 -9.643311 -90.01651
v 101.5495 -186.2154 -1.701084
v 99.19469 -9.647362 -90.0246
v 101.5427 -186.2154 -1.701176
v 99.13319 -9.647774 -90.02542
v 101.5395 -186.2154 -1.701218
v 99.10467 -9.647964 -90.02581
v 101.5355 -186.2155 -1.701271
v 99.06863 -9.648209 -90.02629
v 101.4612 -186.216 -1.702267
v 98.40009 -9.652695 -90.03527
v 98.01744 -186.2391 -1.74852
v 98.01746 -9.655266 -90.04041
v 98.01743 -186.2391 -1.74852
v 98.01746 -9.655266 -90.04041
v 98.01743 -186.2391 -1.74852
v 98.01743 -186.2391 -1.74852
v 97.45099 -185.6526 -0.5755005
v 96.03488 -184.1863 2.35704
v 96.03488 -184.1863 2.35704
v 96.03488 -184.1863 2.35704
v 98.01743 -186.2391 -1.74852
v 98.01743 -186.2391 -1.74852
v 98.01743 -186.2391 -1.74852
v 98.01746 -9.655266 -90.04041
v 98.01746 -9.655266 -90.04041
v 98.01746 -9.655266 -90.04041
v 98.01743 -186.2391 -1.74852
v 103.6877 -184.1349 2.45982
v 98.01743 -186.2391 -1.74852
v 98.01746 -9.655266 -90.04041
v 98.01743 -186.2391 -1.74852
v 98.01744 -97.94717 -45.89447
v 98.01745 -9.655266 -90.04041
v 96.03489 -95.89439 -41.78891
v 98.01745 -9.65535 -90.04037
v 98.01745 -9.655266 -90.04041
v 97.45101 -9.068756 -88.86739
v 103.6877 -7.551109 -85.83206
v 98.01746 -9.655266 -90.04041
v 103.6877 -184.1349 2.45982
v 96.0349 -7.602486 -85.93485
v 103.6877 -7.551109 -85.83206
v 101.8439 -9.62957 -89.98902
v 101.8439 -9.62957 -89.98902
v 103.9651 -104.1055 -58.21114
v 103.9651 -192.3974 -14.0652
v 103.9651 -192.3974 -14.0652
v 102.549 -190.9312 -11.13266
v 101.9826 -102.0527 -54.10558
v 101.9826 -190.3447 -9.959637
v 102.8038 -14.61111 -99.95211
v 103.9651 -15.81361 -102.3571
v 101.9826 -13.76083 -98.25153
v 103.9651 -192.3974 -14.0652
v 109.2952 -189.9411 -9.152458
v 109.1803 -186.5186 -2.307575
v 104.6476 -189.1165 -7.503269
v 104.1466 -189.3474 -7.965084
v 103.9576 -189.4344 -8.139229
v 103.867 -189.4762 -8.222725
v 103.0796 -189.8391 -8.948509
v 102.2491 -190.2218 -9.714001
v 102.1817 -190.2529 -9.776089
v 102.1757 -190.2556 -9.781612
v 102.1544 -190.2655 -9.801289
v 101.9826 -190.3447 -9.959637
v 104.6445 -189.0255 -7.321224
v 104.6438 -189.0029 -7.276058
v 104.6436 -188.9961 -7.262615
v 104.6419 -188.9453 -7.161026
v 104.6223 -188.3626 -5.995495
v 104.6061 -187.8811 -5.032581
v 104.5901 -187.4052 -4.080826
v 104.5054 -187.3685 -4.007267
v 104.3155 -187.2861 -3.842457
v 103.7858 -187.0562 -3.38266
v 103.6877 -184.1349 2.45982
v 103.5739 -186.9642 -3.198776
v 102.8515 -186.6507 -2.57177
v 102.2567 -186.3926 -2.0555
v 101.8438 -186.2134 -1.697128
v 101.6164 -186.2149 -1.700184
v 101.5495 -186.2154 -1.701084
v 101.5427 -186.2154 -1.701176
v 101.5395 -186.2154 -1.701218
v 101.5355 -186.2155 -1.701271
v 101.4612 -186.216 -1.702267
v 98.01744 -186.2391 -1.74852
v 98.01743 -186.2391 -1.74852
v 98.01743 -186.2391 -1.74852
v 96.03488 -184.1863 2.35704
v 103.9651 -192.3974 -14.0652
v 109.2952 -13.35725 -97.44435
v 109.2952 -189.9411 -9.152458
v 103.9651 -104.1055 -58.21114
v 109.1803 -9.934807 -90.59946
v 109.1803 -186.5186 -2.307575
v 103.6877 -7.551109 -85.83206
v 103.6877 -184.1349 2.45982
v 103.9651 -15.81361 -102.3571
v 96.03488 -184.1863 2.35704
v 98.01744 -97.94717 -45.89447
v 98.01743 -186.2391 -1.74852
v 96.03489 -95.89439 -41.78891
v 98.01745 -9.65535 -90.04037
v 96.0349 -7.602486 -85.93485
v 97.45101 -9.068756 -88.86739
v 98.01745 -9.655266 -90.04041
v 101.9826 -13.76083 -98.25153
v 109.2952 -13.35725 -97.44435
v 102.8038 -14.61111 -99.95211
v 109.2952 -13.35725 -97.44435
v 103.9651 -15.81361 -102.3571
v 101.9826 -13.76083 -98.25153
v 103.5288 -13.04826 -96.8264
v 101.9826 -13.76083 -98.25153
v 103.7209 -12.95972 -96.64931
v 103.7748 -12.93485 -96.59959
v 104.3811 -12.65546 -96.0408
v 104.4734 -12.61293 -95.95575
v 104.571 -12.56797 -95.86583
v 104.5919 -12.5583 -95.84647
v 104.6476 -12.53264 -95.79517
v 109.1803 -9.934807 -90.59946
v 104.6308 -12.03143 -94.79276
v 104.6201 -11.71345 -94.15678
v 104.6133 -11.51019 -93.75027
v 104.6113 -11.44971 -93.6293
v 104.5959 -10.99254 -92.71497
v 104.5937 -10.92779 -92.58546
v 104.5919 -10.87429 -92.47847
v 104.5902 -10.82142 -92.37272
v 103.8274 -10.49041 -91.71069
v 102.1185 -9.748756 -90.22739
v 102.0361 -9.712997 -90.15587
v 101.9558 -9.678162 -90.0862
v 101.8897 -9.649483 -90.02884
v 101.8439 -9.62957 -89.98902
v 103.6877 -7.551109 -85.83206
v 101.8439 -9.62957 -89.98902
v 99.79712 -9.643311 -90.01651
v 99.19469 -9.647362 -90.0246
v 99.13319 -9.647774 -90.02542
v 99.10467 -9.647964 -90.02581
v 99.06863 -9.648209 -90.02629
v 98.40009 -9.652695 -90.03527
v 98.01746 -9.655266 -90.04041
v 97.45101 -9.068756 -88.86739
v 98.01745 -9.655266 -90.04041
v 96.0349 -7.602486 -85.93485

vn 0.3965109 -0.410556 -0.8211109
vn 0.3965109 -0.4105559 -0.821111
vn 0.3010535 -0.8938026 -0.3323914
vn -5.960464E-08 -0.8944273 0.4472135
vn -5.960464E-08 -0.8944273 0.4472135
vn -0.7176467 0.311443 0.6228859
vn -0.3925258 0.2799386 0.8761041
vn -0.9859615 -0.07467251 -0.1493454
vn -0.7176434 0.3114447 0.6228887
vn -0.7176429 0.311445 0.6228893
vn -0.7176431 0.3114449 0.622889
vn -0.7176438 0.3114447 0.6228884
vn -0.7176445 0.3114443 0.6228876
vn -0.7176405 0.3114457 0.6228917
vn -0.7176424 0.3114451 0.6228898
vn -0.7176428 0.3114449 0.6228893
vn -0.7176428 0.311445 0.6228895
vn -0.7176426 0.311445 0.6228895
vn -0.7176428 0.3114449 0.6228893
vn -0.7176426 0.3114451 0.6228896
vn -0.7176434 0.3114447 0.6228888
vn -0.7176445 0.3114442 0.6228877
vn -0.717643 0.3114448 0.6228892
vn -0.7176424 0.3114451 0.6228898
vn -0.8144741 0.2594736 0.5189468
vn -0.9996648 0.01158043 0.02316038
vn -0.9998875 -0.006714914 -0.01343042
vn -0.9998873 -0.006714581 -0.01342966
vn -0.9998874 -0.006714454 -0.01342937
vn -0.9998875 -0.006713656 -0.01342743
vn -0.9998875 -0.006713149 -0.01342622
vn -0.9998875 -0.00671259 -0.01342462
vn -0.9998875 -0.006713617 -0.01342727
vn -0.9998873 -0.006713986 -0.01342841
vn -0.9998875 -0.006714192 -0.01342895
vn -0.9998874 -0.006714178 -0.01342906
vn -0.9998873 -0.006713754 -0.01342799
vn -0.9998875 -0.006714031 -0.01342859
vn -0.9998874 -0.006714533 -0.01342968
vn -0.9967311 -0.0361313 -0.07226325
vn -0.7422423 -0.299692 -0.5993842
vn -0.6964123 -0.3209392 -0.6418787
vn -0.6964115 -0.3209396 -0.6418794
vn -0.696411 -0.3209397 -0.6418799
vn -0.696411 -0.3209397 -0.6418798
vn -0.6964113 -0.3209396 -0.6418794
vn -0.6964117 -0.3209396 -0.6418791
vn -0.6964114 -0.3209397 -0.6418794
vn -0.6964117 -0.3209396 -0.6418792
vn -0.6964114 -0.3209397 -0.6418793
vn -0.6964114 -0.3209397 -0.6418794
vn -0.6964117 -0.3209395 -0.6418791
vn -0.5413324 -0.3760212 -0.7520422
vn -0.6964284 -0.3209323 -0.6418646
vn 0.01501285 -0.4471634 -0.8943264
vn 0.01501414 -0.4471633 -0.8943263
vn 0.01501459 -0.4471633 -0.8943265
vn 0.01501579 -0.4471632 -0.8943264
vn 0.01501373 -0.4471634 -0.8943264
vn 0.01501212 -0.4471637 -0.8943264
vn 0.01500938 -0.4471639 -0.8943262
vn 0.01496414 -0.4471692 -0.8943243
vn 0.01499252 -0.4471659 -0.8943256
vn 0.01502103 -0.4471627 -0.8943267
vn 0.01501691 -0.4471631 -0.8943266
vn 0.01501403 -0.4471633 -0.8943264
vn 0.01501342 -0.4471634 -0.8943264
vn 0.01501315 -0.4471634 -0.8943264
vn 0.01500812 -0.4471634 -0.8943266
vn -0.1526963 -0.4419693 -0.8839385
vn 0.3965109 -0.4105558 -0.8211111
vn 0.3965109 -0.4105558 -0.8211111
vn 0.3965109 -0.4105558 -0.8211111
vn -5.960464E-08 -0.8944273 0.4472135
vn -0.01501379 0.4471635 0.8943263
vn -5.960464E-08 -0.8944273 0.4472135
vn -0.9617752 -0.1224651 -0.2449306
vn 0.2575195 -0.9467568 -0.1932242
vn 0.2233737 -0.9702791 -0.09307506
vn 0.3955089 -0.4730664 -0.7872619
vn 0.3965109 -0.4105558 -0.8211111
vn 0.3965109 -0.4105558 -0.8211111
vn 0.3965109 -0.4105558 -0.8211111
vn 0.3944019 -0.5005004 -0.7706794
vn -5.960464E-08 -0.8944273 0.4472135
vn 0.3964738 -0.4218501 -0.8153841
vn 0.3965109 -0.4105558 -0.8211111
vn 0.3925257 -0.5329205 -0.7496129
vn 0.396517 -0.4105546 -0.8211087
vn 0.3958013 -0.3561109 -0.8464789
vn -0.01501376 0.4471634 0.8943263
vn 0.3965326 -0.4105515 -0.8211027
vn 2.812483E-06 0.8944245 -0.4472193
vn 5.960464E-08 0.8944273 -0.4472135
vn 4.558113E-07 0.8944274 -0.4472134
vn 0 0 0
vn -0.01501371 0.4471635 0.8943264
vn -0.01501373 0.4471634 0.8943264
vn -0.01501373 0.4471635 0.8943264
vn 4.558113E-07 0.8944274 -0.4472134
vn 4.558113E-07 0.8944274 -0.4472134
vn -0.9180301 -0.177325 -0.3546502
vn -0.9180301 -0.1773249 -0.3546501
vn -0.9180301 -0.177325 -0.3546502
vn -0.9180301 -0.177325 -0.3546502
vn -0.9180301 -0.177325 -0.3546502
vn -0.9180301 -0.177325 -0.3546502
vn -0.9180301 -0.177325 -0.3546502
vn -0.9180301 -0.177325 -0.3546502
vn -0.9180301 -0.177325 -0.3546502
vn -5.960464E-08 -0.8944273 0.4472135
vn -5.960464E-08 -0.8944273 0.4472135
vn -5.960464E-08 -0.8944273 0.4472135
vn -5.960464E-08 -0.8944273 0.4472135
vn -5.960464E-08 -0.8944273 0.4472135
vn -5.960464E-08 -0.8944273 0.4472135
vn -5.960464E-08 -0.8944273 0.4472135
vn -5.960464E-08 -0.8944273 0.4472135
vn -5.960464E-08 -0.8944273 0.4472135
vn -5.960464E-08 -0.8944273 0.4472135
vn -5.960464E-08 -0.8944273 0.4472135
vn -5.960464E-08 -0.8944273 0.4472135
vn -5.960464E-08 -0.8944273 0.4472135
vn -5.960464E-08 -0.8944273 0.4472135
vn -5.960464E-08 -0.8944273 0.4472135
vn -5.960464E-08 -0.8944273 0.4472135
vn -5.960464E-08 -0.8944273 0.4472135
vn -5.960464E-08 -0.8944273 0.4472135
vn -5.960464E-08 -0.8944273 0.4472135
vn -5.960464E-08 -0.8944273 0.4472135
vn -5.960464E-08 -0.8944273 0.4472135
vn -5.960464E-08 -0.8944273 0.4472135
vn -5.960464E-08 -0.8944273 0.4472135
vn -5.960464E-08 -0.8944273 0.4472135
vn -5.960464E-08 -0.8944273 0.4472135
vn -5.960464E-08 -0.8944273 0.4472135
vn -5.960464E-08 -0.8944273 0.4472135
vn -5.960464E-08 -0.8944273 0.4472135
vn -5.960464E-08 -0.8944273 0.4472135
vn -5.960464E-08 -0.8944273 0.4472135
vn -5.960464E-08 -0.8944273 0.4472135
vn -5.960464E-08 -0.8944273 0.4472135
vn -5.960464E-08 -0.8944273 0.4472135
vn -5.960464E-08 -0.8944273 0.4472135
vn -5.960464E-08 -0.8944273 0.4472135
vn -5.960464E-08 -0.8944273 0.4472135
vn -5.960464E-08 -0.8944273 0.4472135
vn -5.960464E-08 -0.8944273 0.4472135
vn 0.7176431 -0.3114449 -0.6228891
vn 0.8703476 -0.2202254 -0.44045
vn 0.9712235 -0.1065132 -0.2130258
vn 0.7176431 -0.3114448 -0.622889
vn 0.9636351 0.1195053 0.239011
vn 0.8551707 0.2318117 0.4636236
vn 0.6964113 0.3209397 0.6418794
vn 0.6964113 0.3209397 0.6418794
vn 0.717643 -0.3114448 -0.6228891
vn -0.9180301 -0.177325 -0.3546502
vn -0.9180301 -0.177325 -0.3546502
vn -0.9180301 -0.177325 -0.3546502
vn -0.9180301 -0.177325 -0.3546502
vn -0.9180301 -0.177325 -0.3546502
vn -0.9180302 -0.177325 -0.3546502
vn -0.9180301 -0.1773249 -0.3546502
vn -0.9180301 -0.1773249 -0.3546501
vn -0.3882712 0.5834168 0.7133517
vn 3.517376E-07 0.894427 -0.4472142
vn 2.577079E-07 0.8944273 -0.4472134
vn 3.183693E-07 0.8944273 -0.4472136
vn 2.57708E-07 0.8944274 -0.4472135
vn 2.57708E-07 0.8944274 -0.4472135
vn 2.966563E-07 0.8944272 -0.4472137
vn 2.966563E-07 0.8944272 -0.4472137
vn 2.966564E-07 0.8944272 -0.4472137
vn 2.966562E-07 0.8944272 -0.4472137
vn 2.966562E-07 0.8944272 -0.4472137
vn 2.966564E-07 0.8944272 -0.4472137
vn 2.966572E-07 0.8944272 -0.4472137
vn 2.966553E-07 0.8944272 -0.4472137
vn 3.890454E-07 0.8944274 -0.4472135
vn 3.397651E-07 0.8944274 -0.4472134
vn 3.898868E-07 0.8944274 -0.4472135
vn 3.898871E-07 0.8944274 -0.4472135
vn 3.898876E-07 0.8944274 -0.4472135
vn 3.898873E-07 0.8944274 -0.4472135
vn 3.898873E-07 0.8944274 -0.4472135
vn 3.898872E-07 0.8944274 -0.4472135
vn 3.89887E-07 0.8944274 -0.4472135
vn 2.996792E-07 0.8944274 -0.4472134
vn 2.896431E-07 0.8944274 -0.4472133
vn 2.89643E-07 0.8944274 -0.4472133
vn 2.89643E-07 0.8944274 -0.4472133
vn 2.896431E-07 0.8944274 -0.4472133
vn 2.89643E-07 0.8944274 -0.4472133
vn 2.89643E-07 0.8944274 -0.4472133
vn 2.298695E-07 0.8944274 -0.4472134
vn 5.464528E-08 0.8944275 -0.4472133
vn 5.464514E-08 0.8944275 -0.4472133
vn 5.464486E-08 0.8944275 -0.4472133
vn 5.465012E-08 0.8944275 -0.4472133
vn 5.464437E-08 0.8944275 -0.4472133
vn 5.464472E-08 0.8944275 -0.4472133
vn 5.464576E-08 0.8944275 -0.4472133
vn 5.464655E-08 0.8944274 -0.4472132
vn 2.57708E-07 0.8944274 -0.4472135
vn 2.57708E-07 0.8944274 -0.4472135
vn 2.57708E-07 0.8944273 -0.4472134

f 1//1 2//2 3//3
f 4//4 1//1 3//3
f 3//3 5//5 4//4
f 3//3 6//6 5//5
f 5//5 6//6 7//7
f 8//8 7//7 6//6
f 9//9 8//8 6//6
f 10//10 9//9 6//6
f 9//9 10//10 11//11
f 11//11 10//10 12//12
f 13//13 11//11 12//12
f 13//13 12//12 14//14
f 13//13 14//14 15//15
f 15//15 14//14 16//16
f 15//15 16//16 17//17
f 18//18 17//17 16//16
f 19//19 17//17 18//18
f 19//19 18//18 20//20
f 21//21 19//19 20//20
f 22//22 19//19 21//21
f 22//22 21//21 23//23
f 24//24 22//22 23//23
f 24//24 23//23 25//25
f 26//26 24//24 25//25
f 26//26 25//25 27//27
f 28//28 26//26 27//27
f 28//28 27//27 29//29
f 29//29 27//27 30//30
f 31//31 29//29 30//30
f 31//31 30//30 32//32
f 33//33 31//31 32//32
f 33//33 32//32 34//34
f 35//35 33//33 34//34
f 35//35 34//34 36//36
f 37//37 35//35 36//36
f 37//37 36//36 38//38
f 39//39 37//37 38//38
f 39//39 38//38 40//40
f 41//41 39//39 40//40
f 41//41 40//40 42//42
f 41//41 42//42 43//43
f 43//43 42//42 44//44
f 45//45 43//43 44//44
f 45//45 44//44 46//46
f 47//47 45//45 46//46
f 48//48 45//45 47//47
f 48//48 47//47 49//49
f 50//50 48//48 49//49
f 50//50 49//49 51//51
f 52//52 50//50 51//51
f 52//52 51//51 53//53
f 54//54 52//52 53//53
f 55//55 54//54 53//53
f 55//55 53//53 56//56
f 55//55 56//56 57//57
f 57//57 56//56 58//58
f 57//57 58//58 59//59
f 59//59 58//58 60//60
f 59//59 60//60 61//61
f 61//61 60//60 62//62
f 61//61 62//62 63//63
f 63//63 62//62 64//64
f 63//63 64//64 65//65
f 65//65 64//64 66//66
f 65//65 66//66 67//67
f 68//68 67//67 66//66
f 69//69 67//67 68//68
f 69//69 68//68 70//70
f 71//71 69//69 70//70
f 72//72 71//71 73//73
f 74//74 75//75 76//76
f 77//77 74//74 76//76
f 75//75 77//77 76//76
f 78//78 75//75 74//74
f 79//79 75//75 78//78
f 78//78 74//74 80//80
f 81//81 78//78 80//80
f 82//82 78//78 81//81
f 82//82 83//83 78//78
f 83//83 84//84 79//79
f 84//84 85//85 79//79
f 80//80 74//74 86//86
f 87//87 80//80 86//86
f 81//81 80//80 87//87
f 86//86 74//74 88//88
f 88//88 74//74 77//77
f 86//86 88//88 89//89
f 90//90 86//86 89//89
f 87//87 86//86 90//90
f 75//75 91//91 77//77
f 90//90 89//89 92//92
f 90//90 92//92 93//93
f 94//94 90//90 93//93
f 95//95 83//83 82//82
f 95//95 82//82 81//81
f 95//95 81//81 87//87
f 95//95 87//87 90//90
f 95//95 96//96 83//83
f 97//97 91//91 75//75
f 97//97 98//98 91//91
f 97//97 99//99 98//98
f 100//100 95//95 101//101
f 102//102 103//103 104//104
f 102//102 104//104 105//105
f 102//102 105//105 106//106
f 106//106 105//105 107//107
f 108//108 102//102 106//106
f 109//109 102//102 108//108
f 110//110 108//108 106//106
f 111//111 112//112 113//113
f 111//111 113//113 114//114
f 111//111 114//114 115//115
f 111//111 115//115 116//116
f 111//111 116//116 117//117
f 117//117 118//118 111//111
f 118//118 119//119 111//111
f 120//120 111//111 119//119
f 120//120 121//121 111//111
f 121//121 122//122 111//111
f 111//111 122//122 123//123
f 114//114 113//113 124//124
f 124//124 113//113 125//125
f 125//125 113//113 126//126
f 126//126 113//113 127//127
f 127//127 113//113 128//128
f 128//128 113//113 129//129
f 129//129 113//113 130//130
f 130//130 113//113 131//131
f 131//131 113//113 132//132
f 132//132 113//113 133//133
f 133//133 113//113 134//134
f 133//133 134//134 135//135
f 135//135 134//134 136//136
f 134//134 137//137 136//136
f 137//137 134//134 138//138
f 138//138 134//134 139//139
f 139//139 134//134 140//140
f 140//140 134//134 141//141
f 134//134 142//142 141//141
f 134//134 143//143 142//142
f 134//134 144//144 143//143
f 144//144 134//134 145//145
f 145//145 134//134 146//146
f 147//147 134//134 148//148
f 149//149 150//150 151//151
f 149//149 152//152 150//150
f 151//151 150//150 153//153
f 151//151 153//153 154//154
f 154//154 153//153 155//155
f 154//154 155//155 156//156
f 152//152 157//157 150//150
f 158//158 159//159 160//160
f 161//161 159//159 158//158
f 162//162 159//159 161//161
f 163//163 162//162 161//161
f 164//164 162//162 163//163
f 165//165 162//162 164//164
f 9//9 166//166 8//8
f 166//166 9//9 167//167
f 168//168 169//169 170//170
f 168//168 171//171 169//169
f 172//172 169//169 173//173
f 174//174 169//169 172//172
f 169//169 174//174 175//175
f 176//176 169//169 175//175
f 177//177 169//169 176//176
f 178//178 169//169 177//177
f 178//178 179//179 169//169
f 179//179 180//180 169//169
f 180//180 181//181 169//169
f 182//182 181//181 180//180
f 182//182 183//183 181//181
f 183//183 184//184 181//181
f 184//184 185//185 181//181
f 185//185 186//186 181//181
f 186//186 187//187 181//181
f 187//187 188//188 181//181
f 188//188 189//189 181//181
f 181//181 189//189 190//190
f 181//181 190//190 191//191
f 192//192 181//181 191//191
f 193//193 181//181 192//192
f 194//194 181//181 193//193
f 195//195 181//181 194//194
f 195//195 196//196 181//181
f 196//196 197//197 198//198
f 196//196 198//198 199//199
f 199//199 200//200 196//196
f 196//196 200//200 201//201
f 201//201 202//202 196//196
f 196//196 202//202 203//203
f 196//196 203//203 204//204
f 205//205 196//196 206//206
f 207//207 196//196 205//205
