v 96.06474 -192.4031 185.9233
v 96.06475 -104.1113 141.7774
v 96.06474 -192.4031 185.9233
v 96.06474 -192.4031 185.9233
v 97.47019 -190.9348 188.86
v 98.03237 -190.3475 190.0346
v 98.03237 -190.3475 190.0346
v 98.03237 -102.0556 145.8887
v 98.03238 -13.76374 101.7427
v 98.27905 -190.3488 190.032
v 100.2525 -13.77542 101.7194
v 98.3097 -190.3489 190.0317
v 100.5283 -13.77687 101.7165
v 98.31831 -190.349 190.0316
v 100.6058 -13.77728 101.7157
v 98.41502 -190.3495 190.0306
v 101.4763 -13.78185 101.7065
v 99.60753 -190.3558 190.0181
v 101.6088 -13.78255 101.7051
v 100.7382 -190.3617 190.0061
v 100.8682 -190.3624 190.0048
v 101.7489 -13.78329 101.7036
v 101.1395 -190.3638 190.0019
v 101.779 -13.78345 101.7033
v 101.8589 -190.3676 189.9944
v 101.8589 -13.78387 101.7025
v 102.0046 -190.304 190.1216
v 102.6608 -13.43362 102.403
v 103.1695 -13.2114 102.8474
v 102.0407 -190.2882 190.1531
v 103.4947 -13.06937 103.1315
v 102.0514 -190.2835 190.1625
v 103.5914 -13.02709 103.216
v 102.1327 -190.248 190.2335
v 104.3228 -12.70762 103.855
v 103.065 -189.8408 191.048
v 104.4264 -12.66237 103.9455
v 103.8353 -189.5043 191.7209
v 104.512 -12.62498 104.0202
v 104.5966 -189.1718 192.386
v 104.5966 -12.58804 104.0941
v 104.598 -189.119 192.4916
v 104.6091 -12.11276 105.0447
v 104.6011 -189.0007 192.7283
v 104.6371 -11.04787 107.1745
v 104.6098 -188.6706 193.3885
v 104.6132 -188.5385 193.6525
v 104.6384 -10.99652 107.2772
v 104.6251 -188.0884 194.5528
v 104.6398 -10.94651 107.3772
v 104.6348 -187.7178 195.2941
v 104.6408 -10.90533 107.4595
v 104.6416 -187.4605 195.8086
v 104.6416 -10.87674 107.5167
v 104.6416 -10.87674 107.5167
v 104.4827 -187.3877 195.9541
v 103.2113 -10.22186 108.8265
v 104.4359 -187.3663 195.997
v 102.7903 -10.02911 109.212
v 104.4311 -187.3641 196.0013
v 102.7473 -10.00943 109.2514
v 104.4289 -187.3631 196.0034
v 102.7274 -10.00031 109.2696
v 104.4261 -187.3618 196.0059
v 102.7022 -9.98877 109.2927
v 104.3742 -187.3381 196.0535
v 102.235 -9.774864 109.7205
v 101.9676 -186.2362 198.2572
v 101.9676 -9.652435 109.9653
v 101.9676 -186.2362 198.2572
v 101.9676 -9.652435 109.9653
v 101.9676 -186.2362 198.2572
v 101.9676 -186.2362 198.2572
v 102.5298 -185.6489 199.4319
v 103.9352 -184.1805 202.3685
v 103.9352 -184.1805 202.3685
v 103.9352 -184.1805 202.3685
v 101.9676 -186.2362 198.2572
v 101.9676 -186.2362 198.2572
v 101.9676 -186.2362 198.2572
v 101.9676 -9.652435 109.9653
v 101.9676 -9.652435 109.9653
v 101.9676 -9.652435 109.9653
v 101.9676 -186.2362 198.2572
v 109.2832 -186.6292 197.4713
v 101.9676 -186.2362 198.2572
v 101.9676 -9.652435 109.9653
v 101.9676 -186.2362 198.2572
v 101.9676 -97.9443 154.1113
v 101.9676 -9.652435 109.9653
v 103.9352 -95.88865 158.2226
v 101.9676 -9.652519 109.9654
v 101.9676 -9.652435 109.9653
v 102.5298 -9.065109 111.14
v 109.2832 -10.04541 109.1794
v 101.9676 -9.652435 109.9653
v 109.2832 -186.6292 197.4713
v 103.9352 -7.596786 114.0766
v 109.2832 -10.04541 109.1794
v 104.6416 -10.87674 107.5167
v 104.6416 -10.87674 107.5167
v 96.06475 -104.1113 141.7774
v 96.06474 -192.4031 185.9233
v 96.06474 -192.4031 185.9233
v 97.47019 -190.9348 188.86
v 98.03237 -102.0556 145.8887
v 98.03237 -190.3475 190.0346
v 97.21736 -14.61522 100.0398
v 96.06475 -15.81939 97.63144
v 98.03238 -13.76374 101.7427
v 96.06474 -192.4031 185.9233
v 103.7179 -192.4434 185.8428
v 109.1931 -190.0517 190.6261
v 101.8589 -190.3676 189.9944
v 101.1395 -190.3638 190.0019
v 100.8682 -190.3624 190.0048
v 100.7382 -190.3617 190.0061
v 99.60753 -190.3558 190.0181
v 98.41502 -190.3495 190.0306
v 98.31831 -190.349 190.0316
v 98.3097 -190.3489 190.0317
v 98.27905 -190.3488 190.032
v 98.03237 -190.3475 190.0346
v 102.0046 -190.304 190.1216
v 102.0407 -190.2882 190.1531
v 102.0514 -190.2835 190.1625
v 102.1327 -190.248 190.2335
v 103.065 -189.8408 191.048
v 103.8353 -189.5043 191.7209
v 104.5966 -189.1718 192.386
v 104.598 -189.119 192.4916
v 104.6011 -189.0007 192.7283
v 104.6098 -188.6706 193.3885
v 109.2832 -186.6292 197.4713
v 104.6132 -188.5385 193.6525
v 104.6251 -188.0884 194.5528
v 104.6348 -187.7178 195.2941
v 104.6416 -187.4605 195.8086
v 104.4827 -187.3877 195.9541
v 104.4359 -187.3663 195.997
v 104.4311 -187.3641 196.0013
v 104.4289 -187.3631 196.0034
v 104.4261 -187.3618 196.0059
v 104.3742 -187.3381 196.0535
v 101.9676 -186.2362 198.2572
v 101.9676 -186.2362 198.2572
v 101.9676 -186.2362 198.2572
v 103.9352 -184.1805 202.3685
v 96.06474 -192.4031 185.9233
v 103.7179 -15.85966 97.55091
v 103.7179 -192.4434 185.8428
v 96.06475 -104.1113 141.7774
v 109.1931 -13.468 102.3342
v 109.1931 -190.0517 190.6261
v 109.2832 -10.04541 109.1794
v 109.2832 -186.6292 197.4713
v 96.06475 -15.81939 97.63144
v 103.9352 -184.1805 202.3685
v 101.9676 -97.9443 154.1113
v 101.9676 -186.2362 198.2572
v 103.9352 -95.88865 158.2226
v 101.9676 -9.652519 109.9654
v 103.9352 -7.596786 114.0766
v 102.5298 -9.065109 111.14
v 101.9676 -9.652435 109.9653
v 98.03238 -13.76374 101.7427
v 103.7179 -15.85966 97.55091
v 97.21736 -14.61522 100.0398
v 103.7179 -15.85966 97.55091
v 96.06475 -15.81939 97.63144
v 98.03238 -13.76374 101.7427
v 100.2525 -13.77542 101.7194
v 98.03238 -13.76374 101.7427
v 100.5283 -13.77687 101.7165
v 100.6058 -13.77728 101.7157
v 101.4763 -13.78185 101.7065
v 101.6088 -13.78255 101.7051
v 101.7489 -13.78329 101.7036
v 101.779 -13.78345 101.7033
v 101.8589 -13.78387 101.7025
v 109.1931 -13.468 102.3342
v 102.6608 -13.43362 102.403
v 103.1695 -13.2114 102.8474
v 103.4947 -13.06937 103.1315
v 103.5914 -13.02709 103.216
v 104.3228 -12.70762 103.855
v 104.4264 -12.66237 103.9455
v 104.512 -12.62498 104.0202
v 104.5966 -12.58804 104.0941
v 104.6091 -12.11276 105.0447
v 104.6371 -11.04787 107.1745
v 104.6384 -10.99652 107.2772
v 104.6398 -10.94651 107.3772
v 104.6408 -10.90533 107.4595
v 104.6416 -10.87674 107.5167
v 109.2832 -10.04541 109.1794
v 104.6416 -10.87674 107.5167
v 103.2113 -10.22186 108.8265
v 102.7903 -10.02911 109.212
v 102.7473 -10.00943 109.2514
v 102.7274 -10.00031 109.2696
v 102.7022 -9.98877 109.2927
v 102.235 -9.774864 109.7205
v 101.9676 -9.652435 109.9653
v 102.5298 -9.065109 111.14
v 101.9676 -9.652435 109.9653
v 103.9352 -7.596786 114.0766

vn -0.3935249 -0.4111302 -0.8222591
vn -0.3935249 -0.4111301 -0.8222592
vn -0.2987864 -0.8942384 -0.3332631
vn -2.980232E-08 -0.8944272 0.4472136
vn -2.980232E-08 -0.8944272 0.4472136
vn 0.01175845 0.4471828 0.8943653
vn 0.3895698 0.280507 0.8772408
vn -0.7994502 0.2686558 0.5373112
vn 0.01176308 0.447183 0.8943651
vn 0.01176393 0.447183 0.8943652
vn 0.01176358 0.447183 0.8943651
vn 0.01176257 0.4471831 0.8943651
vn 0.0117615 0.4471831 0.8943651
vn 0.0117673 0.4471826 0.8943653
vn 0.01176452 0.4471829 0.8943652
vn 0.01176399 0.4471829 0.8943651
vn 0.01176414 0.4471829 0.8943653
vn 0.01176423 0.4471829 0.8943652
vn 0.01176393 0.4471829 0.8943652
vn 0.01176428 0.4471829 0.8943652
vn 0.0117631 0.4471829 0.8943652
vn 0.01176153 0.447183 0.8943651
vn 0.01176372 0.4471828 0.8943652
vn 0.0117646 0.4471829 0.8943653
vn -0.1391928 0.4428604 0.8857202
vn -0.6688967 0.3324389 0.6648772
vn -0.6987415 0.3199254 0.6398501
vn -0.6987408 0.3199256 0.6398506
vn -0.6987407 0.3199257 0.6398509
vn -0.6987392 0.3199262 0.6398523
vn -0.6987382 0.3199265 0.6398531
vn -0.698737 0.3199269 0.6398542
vn -0.6987391 0.3199262 0.6398523
vn -0.6987398 0.319926 0.6398515
vn -0.6987404 0.3199259 0.6398512
vn -0.6987404 0.3199259 0.639851
vn -0.6987395 0.3199262 0.6398517
vn -0.6987401 0.319926 0.6398514
vn -0.6987409 0.3199257 0.6398506
vn -0.7443103 0.2986648 0.5973288
vn -0.996976 0.03475355 0.0695068
vn -0.9999308 0.00526153 0.01052286
vn -0.9999309 0.005261075 0.01052189
vn -0.9999309 0.0052608 0.01052125
vn -0.9999308 0.005260776 0.01052127
vn -0.9999308 0.005260953 0.01052166
vn -0.9999308 0.00526109 0.01052222
vn -0.9999309 0.005260947 0.01052178
vn -0.9999309 0.005261093 0.01052212
vn -0.9999308 0.005260935 0.01052182
vn -0.9999309 0.005260937 0.01052184
vn -0.9999308 0.005261124 0.01052223
vn -0.9826408 -0.08296654 -0.1659329
vn -0.9999306 0.005271529 0.01054305
vn -0.7153762 -0.312486 -0.6249716
vn -0.7153752 -0.3124863 -0.6249723
vn -0.715375 -0.3124865 -0.6249727
vn -0.7153741 -0.3124867 -0.6249735
vn -0.7153756 -0.3124863 -0.6249721
vn -0.7153767 -0.3124861 -0.624971
vn -0.7153786 -0.3124854 -0.6249691
vn -0.7154102 -0.3124759 -0.6249376
vn -0.7153904 -0.3124818 -0.6249574
vn -0.7153705 -0.3124879 -0.6249771
vn -0.7153734 -0.312487 -0.6249743
vn -0.7153753 -0.3124863 -0.6249723
vn -0.7153757 -0.3124861 -0.6249719
vn -0.715376 -0.3124861 -0.6249717
vn -0.7153795 -0.3124844 -0.6249686
vn -0.8223175 -0.2544776 -0.508955
vn -0.3935249 -0.4111299 -0.8222593
vn -0.3935249 -0.4111299 -0.8222593
vn -0.3935249 -0.4111299 -0.8222593
vn -2.980232E-08 -0.8944272 0.4472136
vn 0.7153755 0.3124864 0.6249721
vn -2.980232E-08 -0.8944272 0.4472136
vn -0.8603749 0.2279279 0.4558554
vn -0.2555802 -0.9471295 -0.1939699
vn -0.2216916 -0.9706025 -0.09372187
vn -0.3925304 -0.4736391 -0.7884072
vn -0.3935249 -0.4111299 -0.8222593
vn -0.3935249 -0.4111299 -0.8222593
vn -0.3935249 -0.4111299 -0.8222593
vn -0.3914317 -0.5010715 -0.7718216
vn -2.980232E-08 -0.8944272 0.4472136
vn -0.3934986 -0.4224222 -0.8165282
vn -0.3935249 -0.4111299 -0.8222593
vn -0.3895698 -0.5334889 -0.7507496
vn -0.3935188 -0.4111311 -0.8222616
vn -0.3928092 -0.3566863 -0.8476296
vn 0.7153755 0.3124863 0.624972
vn -0.3935032 -0.4111341 -0.8222677
vn -2.702345E-06 0.8944243 -0.4472193
vn 2.980232E-08 0.8944272 -0.4472136
vn 4.265631E-07 0.8944271 -0.4472138
vn 0 0 0
vn 0.7153756 0.3124863 0.6249721
vn 0.7153756 0.3124863 0.6249721
vn 0.7153756 0.3124863 0.6249722
vn 4.265631E-07 0.8944271 -0.4472138
vn 4.265631E-07 0.8944271 -0.4472138
vn -0.919314 0.1759898 0.3519793
vn -0.919314 0.1759898 0.3519793
vn -0.919314 0.1759898 0.3519793
vn -0.919314 0.1759898 0.3519793
vn -0.919314 0.1759898 0.3519793
vn -0.919314 0.1759898 0.3519793
vn -0.919314 0.1759898 0.3519793
vn -0.919314 0.1759898 0.3519793
vn -0.919314 0.1759898 0.3519793
vn -2.980232E-08 -0.8944272 0.4472136
vn -2.980232E-08 -0.8944272 0.4472136
vn -2.980232E-08 -0.8944272 0.4472136
vn -2.980232E-08 -0.8944272 0.4472136
vn -2.980232E-08 -0.8944272 0.4472136
vn -2.980232E-08 -0.8944272 0.4472136
vn -2.980232E-08 -0.8944272 0.4472136
vn -2.980232E-08 -0.8944272 0.4472136
vn -2.980232E-08 -0.8944272 0.4472136
vn -2.980232E-08 -0.8944272 0.4472136
vn -2.980232E-08 -0.8944272 0.4472136
vn -2.980232E-08 -0.8944272 0.4472136
vn -2.980232E-08 -0.8944272 0.4472136
vn -2.980232E-08 -0.8944271 0.4472136
vn -2.980232E-08 -0.8944272 0.4472136
vn -2.980232E-08 -0.8944272 0.4472136
vn -2.980232E-08 -0.8944271 0.4472136
vn -2.980232E-08 -0.8944272 0.4472136
vn -2.980232E-08 -0.8944272 0.4472136
vn -2.980232E-08 -0.8944272 0.4472136
vn -2.980232E-08 -0.8944271 0.4472136
vn -2.980232E-08 -0.8944272 0.4472136
vn -2.980232E-08 -0.8944272 0.4472136
vn -2.980232E-08 -0.8944272 0.4472136
vn -2.980232E-08 -0.8944272 0.4472136
vn -2.980232E-08 -0.8944272 0.4472136
vn -2.980232E-08 -0.8944272 0.4472136
vn -2.980232E-08 -0.8944272 0.4472136
vn -2.980232E-08 -0.8944272 0.4472136
vn -2.980232E-08 -0.8944272 0.4472136
vn -2.980232E-08 -0.8944272 0.4472136
vn -2.980232E-08 -0.8944271 0.4472136
vn -2.980232E-08 -0.8944272 0.4472136
vn -2.980232E-08 -0.8944271 0.4472136
vn -2.980232E-08 -0.8944271 0.4472136
vn -2.980232E-08 -0.8944272 0.4472136
vn -2.980232E-08 -0.8944271 0.4472136
vn -2.980232E-08 -0.8944271 0.4472136
vn -0.01176355 -0.447183 -0.8943652
vn 0.2413257 -0.4339962 -0.8679915
vn 0.4952645 -0.3885136 -0.7770265
vn -0.01176351 -0.447183 -0.8943651
vn 0.8568508 -0.2305677 -0.4611349
vn 0.9644985 -0.1181042 -0.2362082
vn 0.9999308 -0.005260857 -0.01052168
vn 0.9999309 -0.005260861 -0.0105217
vn -0.01176364 -0.4471829 -0.8943652
vn -0.919314 0.1759898 0.3519793
vn -0.919314 0.1759898 0.3519793
vn -0.919314 0.1759898 0.3519793
vn -0.919314 0.1759898 0.3519793
vn -0.919314 0.1759898 0.3519793
vn -0.919314 0.1759898 0.3519793
vn -0.919314 0.1759898 0.3519793
vn -0.919314 0.1759898 0.3519793
vn 0.3853472 0.583979 0.714476
vn -2.601306E-07 0.8944269 -0.4472142
vn 2.281827E-07 0.8944271 -0.4472137
vn 2.007004E-07 0.8944271 -0.4472138
vn 2.281827E-07 0.8944271 -0.4472137
vn 2.281827E-07 0.8944271 -0.4472137
vn 2.591671E-08 0.8944271 -0.4472139
vn 2.591656E-08 0.8944271 -0.4472139
vn 2.591712E-08 0.8944271 -0.4472139
vn 2.591639E-08 0.8944271 -0.4472139
vn 2.591632E-08 0.8944271 -0.4472139
vn 2.591691E-08 0.894427 -0.4472139
vn 2.591898E-08 0.8944271 -0.4472139
vn 2.591406E-08 0.894427 -0.4472139
vn 2.58491E-07 0.8944271 -0.4472138
vn 3.103546E-07 0.8944271 -0.4472137
vn 2.606099E-07 0.8944271 -0.4472138
vn 2.606099E-07 0.8944271 -0.4472138
vn 2.606098E-07 0.8944271 -0.4472138
vn 2.606099E-07 0.8944271 -0.4472138
vn 2.606099E-07 0.8944271 -0.4472138
vn 2.606099E-07 0.8944271 -0.4472138
vn 2.606102E-07 0.8944271 -0.4472138
vn 3.501385E-07 0.8944272 -0.4472136
vn 3.600993E-07 0.8944272 -0.4472136
vn 3.600994E-07 0.8944272 -0.4472136
vn 3.600987E-07 0.8944272 -0.4472136
vn 3.601002E-07 0.8944272 -0.4472136
vn 3.600994E-07 0.8944272 -0.4472136
vn 3.600992E-07 0.8944272 -0.4472136
vn 2.885338E-07 0.8944272 -0.4472136
vn 2.66105E-07 0.8944273 -0.4472134
vn 2.661051E-07 0.8944273 -0.4472134
vn 2.66105E-07 0.8944273 -0.4472134
vn 2.66105E-07 0.8944273 -0.4472134
vn 2.661052E-07 0.8944273 -0.4472134
vn 2.66105E-07 0.8944273 -0.4472134
vn 2.66105E-07 0.8944273 -0.4472134
vn 2.661048E-07 0.8944272 -0.4472134
vn 2.281827E-07 0.8944271 -0.4472137
vn 2.281827E-07 0.8944271 -0.4472137
vn 2.281827E-07 0.8944271 -0.4472137

f 1//1 2//2 3//3
f 4//4 1//1 3//3
f 3//3 5//5 4//4
f 3//3 6//6 5//5
f 5//5 6//6 7//7
f 8//8 7//7 6//6
f 9//9 8//8 6//6
f 10//10 9//9 6//6
f 9//9 10//10 11//11
f 11//11 10//10 12//12
f 13//13 11//11 12//12
f 13//13 12//12 14//14
f 13//13 14//14 15//15
f 15//15 14//14 16//16
f 15//15 16//16 17//17
f 18//18 17//17 16//16
f 19//19 17//17 18//18
f 19//19 18//18 20//20
f 21//21 19//19 20//20
f 22//22 19//19 21//21
f 22//22 21//21 23//23
f 24//24 22//22 23//23
f 24//24 23//23 25//25
f 26//26 24//24 25//25
f 26//26 25//25 27//27
f 28//28 26//26 27//27
f 28//28 27//27 29//29
f 29//29 27//27 30//30
f 31//31 29//29 30//30
f 31//31 30//30 32//32
f 33//33 31//31 32//32
f 33//33 32//32 34//34
f 35//35 33//33 34//34
f 35//35 34//34 36//36
f 37//37 35//35 36//36
f 37//37 36//36 38//38
f 39//39 37//37 38//38
f 39//39 38//38 40//40
f 41//41 39//39 40//40
f 41//41 40//40 42//42
f 41//41 42//42 43//43
f 43//43 42//42 44//44
f 45//45 43//43 44//44
f 45//45 44//44 46//46
f 47//47 45//45 46//46
f 48//48 45//45 47//47
f 48//48 47//47 49//49
f 50//50 48//48 49//49
f 50//50 49//49 51//51
f 52//52 50//50 51//51
f 52//52 51//51 53//53
f 54//54 52//52 53//53
f 55//55 54//54 53//53
f 55//55 53//53 56//56
f 55//55 56//56 57//57
f 57//57 56//56 58//58
f 57//57 58//58 59//59
f 59//59 58//58 60//60
f 59//59 60//60 61//61
f 61//61 60//60 62//62
f 61//61 62//62 63//63
f 63//63 62//62 64//64
f 63//63 64//64 65//65
f 65//65 64//64 66//66
f 65//65 66//66 67//67
f 68//68 67//67 66//66
f 69//69 67//67 68//68
f 69//69 68//68 70//70
f 71//71 69//69 70//70
f 72//72 71//71 73//73
f 74//74 75//75 76//76
f 77//77 74//74 76//76
f 75//75 77//77 76//76
f 78//78 75//75 74//74
f 79//79 75//75 78//78
f 78//78 74//74 80//80
f 81//81 78//78 80//80
f 82//82 78//78 81//81
f 82//82 83//83 78//78
f 83//83 84//84 79//79
f 84//84 85//85 79//79
f 80//80 74//74 86//86
f 87//87 80//80 86//86
f 81//81 80//80 87//87
f 86//86 74//74 88//88
f 88//88 74//74 77//77
f 86//86 88//88 89//89
f 90//90 86//86 89//89
f 87//87 86//86 90//90
f 75//75 91//91 77//77
f 90//90 89//89 92//92
f 90//90 92//92 93//93
f 94//94 90//90 93//93
f 95//95 83//83 82//82
f 95//95 82//82 81//81
f 95//95 81//81 87//87
f 95//95 87//87 90//90
f 95//95 96//96 83//83
f 97//97 91//91 75//75
f 97//97 98//98 91//91
f 97//97 99//99 98//98
f 100//100 95//95 101//101
f 102//102 103//103 104//104
f 102//102 104//104 105//105
f 102//102 105//105 106//106
f 106//106 105//105 107//107
f 108//108 102//102 106//106
f 109//109 102//102 108//108
f 110//110 108//108 106//106
f 111//111 112//112 113//113
f 111//111 113//113 114//114
f 111//111 114//114 115//115
f 111//111 115//115 116//116
f 111//111 116//116 117//117
f 117//117 118//118 111//111
f 118//118 119//119 111//111
f 120//120 111//111 119//119
f 120//120 121//121 111//111
f 121//121 122//122 111//111
f 111//111 122//122 123//123
f 114//114 113//113 124//124
f 124//124 113//113 125//125
f 125//125 113//113 126//126
f 126//126 113//113 127//127
f 127//127 113//113 128//128
f 128//128 113//113 129//129
f 129//129 113//113 130//130
f 130//130 113//113 131//131
f 131//131 113//113 132//132
f 132//132 113//113 133//133
f 133//133 113//113 134//134
f 133//133 134//134 135//135
f 135//135 134//134 136//136
f 134//134 137//137 136//136
f 137//137 134//134 138//138
f 138//138 134//134 139//139
f 139//139 134//134 140//140
f 140//140 134//134 141//141
f 134//134 142//142 141//141
f 134//134 143//143 142//142
f 134//134 144//144 143//143
f 144//144 134//134 145//145
f 145//145 134//134 146//146
f 147//147 134//134 148//148
f 149//149 150//150 151//151
f 149//149 152//152 150//150
f 151//151 150//150 153//153
f 151//151 153//153 154//154
f 154//154 153//153 155//155
f 154//154 155//155 156//156
f 152//152 157//157 150//150
f 158//158 159//159 160//160
f 161//161 159//159 158//158
f 162//162 159//159 161//161
f 163//163 162//162 161//161
f 164//164 162//162 163//163
f 165//165 162//162 164//164
f 9//9 166//166 8//8
f 166//166 9//9 167//167
f 168//168 169//169 170//170
f 168//168 171//171 169//169
f 172//172 169//169 173//173
f 174//174 169//169 172//172
f 169//169 174//174 175//175
f 176//176 169//169 175//175
f 177//177 169//169 176//176
f 178//178 169//169 177//177
f 178//178 179//179 169//169
f 179//179 180//180 169//169
f 180//180 181//181 169//169
f 182//182 181//181 180//180
f 182//182 183//183 181//181
f 183//183 184//184 181//181
f 184//184 185//185 181//181
f 185//185 186//186 181//181
f 186//186 187//187 181//181
f 187//187 188//188 181//181
f 188//188 189//189 181//181
f 181//181 189//189 190//190
f 181//181 190//190 191//191
f 192//192 181//181 191//191
f 193//193 181//181 192//192
f 194//194 181//181 193//193
f 195//195 181//181 194//194
f 195//195 196//196 181//181
f 196//196 197//197 198//198
f 196//196 198//198 199//199
f 199//199 200//200 196//196
f 196//196 200//200 201//201
f 201//201 202//202 196//196
f 196//196 202//202 203//203
f 196//196 203//203 204//204
f 205//205 196//196 206//206
f 207//207 196//196 205//205
