v -9.999985 -6.957091 107.1832
v -50.00002 -6.957094 107.1832
v -9.999985 -6.957091 107.1832
v -9.999985 -6.957091 107.1832
v -9.999985 -4.472416 104.6178
v -9.999985 -3.478546 103.5916
v -9.999985 -3.478546 103.5916
v -50.00002 -3.478549 103.5916
v -90.00006 -3.478549 103.5916
v -9.999985 -3.576584 103.3652
v -90.00006 -4.360894 101.5542
v -9.999985 -3.588767 103.3371
v -90.00006 -4.470537 101.3011
v -9.999985 -3.592187 103.3292
v -90.00006 -4.50132 101.23
v -9.999985 -3.630628 103.2405
v -90.00006 -4.847286 100.4311
v -9.999985 -4.104571 102.1461
v -90.00006 -4.899946 100.3095
v -9.999985 -4.553928 101.1085
v -9.999985 -4.605622 100.9891
v -90.00006 -4.955618 100.181
v -9.999985 -4.713442 100.7402
v -90.00006 -4.967597 100.1533
v -9.999985 -4.999366 100.08
v -90.00006 -4.999368 100.08
v -9.999985 -4.924486 99.89068
v -90.00006 -4.587049 99.0377
v -90.00006 -4.325455 98.37644
v -9.999985 -4.905907 99.84372
v -90.00006 -4.158249 97.95377
v -9.999985 -4.900378 99.82974
v -90.00006 -4.108488 97.82799
v -9.999985 -4.858592 99.72411
v -90.00006 -3.7324 96.8773
v -9.999985 -4.379176 98.51225
v -90.00006 -3.679131 96.74265
v -9.999985 -3.983105 97.51105
v -90.00006 -3.635124 96.63141
v -9.999985 -3.591621 96.52145
v -90.00006 -3.591625 96.52145
v -9.999985 -3.483255 96.47453
v -90.00006 -2.616334 96.09908
v -9.999985 -3.240455 96.36938
v -90.00006 -0.4311259 95.15272
v -9.999985 -2.563079 96.07602
v -9.999985 -2.292185 95.9587
v -90.00006 -0.3257619 95.10709
v -9.999985 -1.368479 95.55867
v -90.00006 -0.2231299 95.06264
v -9.999985 -0.607908 95.22928
v -90.00006 -0.1386195 95.02604
v -9.999985 -0.07995758 95.00064
v -90.00006 -0.07996089 95.00063
v -90.00006 -0.07995956 95.00063
v -9.999985 0.1315352 95.0843
v -90.00006 1.823477 95.75363
v -9.999985 0.1937865 95.10893
v -90.00006 2.383731 95.97527
v -9.999985 0.2001418 95.11145
v -90.00006 2.440925 95.9979
v -9.999985 0.2030883 95.11261
v -90.00006 2.467448 96.00839
v -9.999985 0.2068135 95.11408
v -90.00006 2.500968 96.02165
v -9.999985 0.2758925 95.14141
v -90.00006 3.122692 96.26761
v -9.999985 3.478542 96.40839
v -90.00006 3.478543 96.40838
v -9.999985 3.478545 96.40839
v -90.00006 3.478543 96.40838
v -9.999985 3.478545 96.40839
v -9.999985 3.478545 96.40839
v -9.999985 4.472416 95.3822
v -9.999985 6.95709 92.81676
v -9.999985 6.957091 92.81676
v -9.999985 6.95709 92.81676
v -9.999985 3.478545 96.40839
v -9.999985 3.478545 96.40839
v -9.999985 3.478545 96.40839
v -90.00006 3.478543 96.40838
v -90.00006 3.478543 96.40838
v -90.00006 3.478543 96.40838
v -9.999985 3.478545 96.40839
v -9.999985 -0.159914 90.00127
v -9.999985 3.478545 96.40839
v -90.00006 3.478543 96.40838
v -9.999985 3.478545 96.40839
v -50.00002 3.478544 96.40838
v -90.00006 3.478543 96.40838
v -50.00002 6.957088 92.81676
v -90.00002 3.478543 96.40838
v -90.00006 3.478543 96.40838
v -90.00006 4.472412 95.3822
v -90.00005 -0.159917 90.00127
v -90.00006 3.478543 96.40838
v -9.999985 -0.159914 90.00127
v -90.00006 6.957088 92.81676
v -90.00005 -0.159917 90.00127
v -90.00006 -0.07995956 95.00063
v -90.00006 -0.07996089 95.00063
v -50.00002 -6.957094 107.1832
v -9.999985 -6.957091 107.1832
v -9.999985 -6.957091 107.1832
v -9.999985 -4.472416 104.6178
v -50.00002 -3.478549 103.5916
v -9.999985 -3.478546 103.5916
v -90.00006 -4.919411 105.0793
v -90.00006 -6.957095 107.1832
v -90.00006 -3.478549 103.5916
v -9.999985 -6.957091 107.1832
v -9.999985 -9.998728 100.1599
v -9.999985 -7.183244 93.04291
v -9.999985 -4.999366 100.08
v -9.999985 -4.713442 100.7402
v -9.999985 -4.605622 100.9891
v -9.999985 -4.553928 101.1085
v -9.999985 -4.104571 102.1461
v -9.999985 -3.630628 103.2405
v -9.999985 -3.592187 103.3292
v -9.999985 -3.588767 103.3371
v -9.999985 -3.576584 103.3652
v -9.999985 -3.478546 103.5916
v -9.999985 -4.924486 99.89068
v -9.999985 -4.905907 99.84372
v -9.999985 -4.900378 99.82974
v -9.999985 -4.858592 99.72411
v -9.999985 -4.379176 98.51225
v -9.999985 -3.983105 97.51105
v -9.999985 -3.591621 96.52145
v -9.999985 -3.483255 96.47453
v -9.999985 -3.240455 96.36938
v -9.999985 -2.563079 96.07602
v -9.999985 -0.159914 90.00127
v -9.999985 -2.292185 95.9587
v -9.999985 -1.368479 95.55867
v -9.999985 -0.607908 95.22928
v -9.999985 -0.07995758 95.00064
v -9.999985 0.1315352 95.0843
v -9.999985 0.1937865 95.10893
v -9.999985 0.2001418 95.11145
v -9.999985 0.2030883 95.11261
v -9.999985 0.2068135 95.11408
v -9.999985 0.2758925 95.14141
v -9.999985 3.478542 96.40839
v -9.999985 3.478545 96.40839
v -9.999985 3.478545 96.40839
v -9.999985 6.95709 92.81676
v -9.999985 -6.957091 107.1832
v -90.00005 -9.998732 100.1599
v -9.999985 -9.998728 100.1599
v -50.00002 -6.957094 107.1832
v -90.00005 -7.183246 93.04291
v -9.999985 -7.183244 93.04291
v -90.00005 -0.159917 90.00127
v -9.999985 -0.159914 90.00127
v -90.00006 -6.957095 107.1832
v -9.999985 6.95709 92.81676
v -50.00002 3.478544 96.40838
v -9.999985 3.478545 96.40839
v -50.00002 6.957088 92.81676
v -90.00002 3.478543 96.40838
v -90.00006 6.957088 92.81676
v -90.00006 4.472412 95.3822
v -90.00006 3.478543 96.40838
v -90.00006 -3.478549 103.5916
v -90.00005 -9.998732 100.1599
v -90.00006 -4.919411 105.0793
v -90.00005 -9.998732 100.1599
v -90.00006 -6.957095 107.1832
v -90.00006 -3.478549 103.5916
v -90.00006 -4.360894 101.5542
v -90.00006 -3.478549 103.5916
v -90.00006 -4.470537 101.3011
v -90.00006 -4.50132 101.23
v -90.00006 -4.847286 100.4311
v -90.00006 -4.899946 100.3095
v -90.00006 -4.955618 100.181
v -90.00006 -4.967597 100.1533
v -90.00006 -4.999368 100.08
v -90.00005 -7.183246 93.04291
v -90.00006 -4.587049 99.0377
v -90.00006 -4.325455 98.37644
v -90.00006 -4.158249 97.95377
v -90.00006 -4.108488 97.82799
v -90.00006 -3.7324 96.8773
v -90.00006 -3.679131 96.74265
v -90.00006 -3.635124 96.63141
v -90.00006 -3.591625 96.52145
v -90.00006 -2.616334 96.09908
v -90.00006 -0.4311259 95.15272
v -90.00006 -0.3257619 95.10709
v -90.00006 -0.2231299 95.06264
v -90.00006 -0.1386195 95.02604
v -90.00006 -0.07996089 95.00063
v -90.00005 -0.159917 90.00127
v -90.00006 -0.07995956 95.00063
v -90.00006 1.823477 95.75363
v -90.00006 2.383731 95.97527
v -90.00006 2.440925 95.9979
v -90.00006 2.467448 96.00839
v -90.00006 2.500968 96.02165
v -90.00006 3.122692 96.26761
v -90.00006 3.478543 96.40838
v -90.00006 4.472412 95.3822
v -90.00006 3.478543 96.40838
v -90.00006 6.957088 92.81676

vn 4.744525E-07 -0.6957089 0.7183238
vn 3.218648E-07 -0.6957089 0.7183238
vn 0.6507913 -0.5282216 0.5453922
vn 1 -2.980232E-08 5.960464E-08
vn 1 -2.980232E-08 5.960464E-08
vn -2.096142E-08 0.9176438 -0.3974039
vn 0.141421 0.6887168 -0.7111044
vn -2.031041E-07 0.8630838 0.5050606
vn -2.987761E-07 0.9176419 -0.3974082
vn -2.576545E-07 0.9176416 -0.397409
vn -2.963965E-07 0.9176418 -0.3974086
vn -3.799803E-07 0.9176422 -0.3974077
vn -4.384926E-07 0.9176425 -0.3974067
vn 1.532234E-07 0.9176403 -0.397412
vn -1.343396E-07 0.9176414 -0.3974095
vn -1.824078E-07 0.9176416 -0.397409
vn -1.652589E-07 0.9176416 -0.3974092
vn -1.640961E-07 0.9176415 -0.3974092
vn -1.780581E-07 0.9176416 -0.3974089
vn -1.972529E-07 0.9176415 -0.3974093
vn -1.914662E-07 0.9176419 -0.3974082
vn -2.341531E-07 0.9176425 -0.3974067
vn -1.236632E-07 0.9176416 -0.3974087
vn -1.374792E-07 0.9176414 -0.3974096
vn -1.484049E-07 0.9670854 -0.2544521
vn -2.107941E-07 0.9441482 0.329521
vn -2.685787E-07 0.9298802 0.3678626
vn -2.290904E-07 0.9298804 0.3678618
vn -2.093915E-07 0.9298806 0.3678615
vn -5.606832E-08 0.9298814 0.3678596
vn 2.838752E-08 0.9298818 0.3678584
vn 2.446293E-07 0.9298824 0.3678568
vn -2.197844E-08 0.9298814 0.3678595
vn -2.00212E-07 0.9298809 0.3678605
vn -2.593152E-07 0.9298808 0.3678611
vn -3.180517E-07 0.9298807 0.3678612
vn -2.194757E-07 0.9298811 0.3678601
vn -2.401327E-07 0.9298809 0.3678607
vn -2.809633E-07 0.9298804 0.3678618
vn -2.941158E-07 0.9036523 0.428267
vn -1.673319E-07 0.4570865 0.8894223
vn -1.290334E-07 0.3974098 0.9176412
vn -1.564787E-07 0.3974089 0.9176416
vn -1.971669E-07 0.3974082 0.9176419
vn -1.686905E-07 0.3974082 0.9176419
vn -1.509363E-07 0.3974086 0.9176417
vn -2.476198E-08 0.3974091 0.9176415
vn -9.422753E-08 0.3974087 0.9176417
vn -7.17698E-08 0.3974091 0.9176416
vn -6.425235E-08 0.3974087 0.9176416
vn -5.731469E-08 0.3974088 0.9176418
vn -4.862991E-08 0.3974091 0.9176415
vn 7.722759E-09 0.2087803 0.9779626
vn -4.659286E-08 0.3974305 0.9176323
vn 8.388264E-08 -0.3678601 0.9298812
vn 3.885203E-08 -0.3678613 0.9298806
vn 1.987832E-09 -0.3678617 0.9298806
vn -1.059572E-07 -0.3678628 0.92988
vn 9.523536E-08 -0.3678609 0.9298808
vn 3.836244E-07 -0.3678595 0.9298815
vn 6.626082E-07 -0.3678569 0.9298823
vn 6.278491E-06 -0.3678148 0.929899
vn 2.695751E-06 -0.3678412 0.9298887
vn -6.576057E-07 -0.3678677 0.9298782
vn -2.683319E-07 -0.3678639 0.9298797
vn 6.927718E-08 -0.3678612 0.9298807
vn 9.487815E-08 -0.3678606 0.9298809
vn 9.465887E-08 -0.3678604 0.929881
vn 2.467837E-08 -0.3678557 0.9298829
vn 2.673034E-08 -0.2068921 0.9783638
vn 1.3113E-07 -0.6957089 0.7183238
vn 1.311301E-07 -0.6957089 0.7183238
vn 1.311301E-07 -0.6957089 0.7183238
vn 1 -2.980232E-08 5.960464E-08
vn -2.271418E-07 0.367861 -0.9298808
vn 1 -2.980232E-08 5.960464E-08
vn -1.895775E-07 0.8026465 0.5964551
vn 0.7603924 -0.4518378 0.4665254
vn 0.8262194 -0.3919265 0.4046666
vn 0.07104914 -0.6939507 0.7165085
vn 1.311304E-07 -0.6957089 0.7183238
vn 1.3113E-07 -0.6957089 0.7183238
vn 1.311297E-07 -0.6957089 0.7183238
vn 0.1030028 -0.6920085 0.7145031
vn 1 -2.980232E-08 5.960464E-08
vn 0.0126633 -0.695649 0.7182702
vn 1.311311E-07 -0.6957089 0.7183238
vn 0.1414215 -0.6887167 0.7111043
vn 1.311313E-07 -0.6957136 0.7183192
vn -0.06004167 -0.6944582 0.7170236
vn -1.568169E-07 0.3678609 -0.9298807
vn 1.311336E-07 -0.6957259 0.7183074
vn -1 -4.800334E-06 4.927542E-06
vn -1 2.980232E-08 -5.960464E-08
vn -1 -2.802144E-07 -3.598611E-07
vn 0 0 0
vn -1.466261E-07 0.3678609 -0.9298809
vn -1.113307E-07 0.3678609 -0.9298808
vn -1.364353E-07 0.3678609 -0.9298809
vn -1 -2.802144E-07 -3.598611E-07
vn -1 -2.802144E-07 -3.598611E-07
vn -1.490116E-07 0.7183238 0.6957089
vn -1.490116E-07 0.7183238 0.6957089
vn -1.490116E-07 0.7183238 0.6957089
vn -1.490116E-07 0.7183238 0.6957089
vn -1.490116E-07 0.7183238 0.6957089
vn -1.490116E-07 0.7183238 0.6957089
vn -1.490116E-07 0.7183238 0.6957089
vn -1.490116E-07 0.7183238 0.6957089
vn -1.490116E-07 0.7183238 0.6957089
vn 1 -2.980232E-08 5.960464E-08
vn 1 -2.980232E-08 5.960464E-08
vn 1 -2.980232E-08 5.960464E-08
vn 1 -2.980232E-08 5.960464E-08
vn 1 -2.980232E-08 5.960464E-08
vn 1 -2.980232E-08 5.960464E-08
vn 1 -2.980232E-08 5.960464E-08
vn 1 -2.980232E-08 5.960464E-08
vn 1 -2.980232E-08 5.960464E-08
vn 1 -2.980232E-08 5.960464E-08
vn 1 -2.980232E-08 5.960464E-08
vn 1 -2.980232E-08 5.960464E-08
vn 1 -2.980232E-08 5.960464E-08
vn 0.9999999 -2.980232E-08 5.960464E-08
vn 1 -2.980232E-08 5.960464E-08
vn 1 -2.980232E-08 5.960464E-08
vn 0.9999999 -2.980232E-08 5.960464E-08
vn 1 -2.980232E-08 5.960464E-08
vn 1 -2.980232E-08 5.960464E-08
vn 1 -2.980232E-08 5.960464E-08
vn 0.9999999 -2.980232E-08 5.960464E-08
vn 1 -2.980232E-08 5.960464E-08
vn 1 -2.980232E-08 5.960464E-08
vn 1 -2.980232E-08 5.960464E-08
vn 1 -2.980232E-08 5.960464E-08
vn 1 -2.980232E-08 5.960464E-08
vn 1 -2.980232E-08 5.960464E-08
vn 1 -2.980232E-08 5.960464E-08
vn 1 -2.980232E-08 5.960464E-08
vn 1 -2.980232E-08 5.960464E-08
vn 1 -2.980232E-08 5.960464E-08
vn 0.9999999 -2.980232E-08 5.960464E-08
vn 1 -2.980232E-08 5.960464E-08
vn 0.9999999 -2.980232E-08 5.960464E-08
vn 0.9999999 -2.980232E-08 5.960464E-08
vn 1 -2.980232E-08 5.960464E-08
vn 0.9999999 -2.980232E-08 5.960464E-08
vn 0.9999999 -2.980232E-08 5.960464E-08
vn 2.991263E-07 -0.9176418 0.3974086
vn 2.797196E-07 -0.9882885 0.1525971
vn 2.497116E-07 -0.9926628 -0.1209154
vn 2.800753E-07 -0.9176417 0.3974085
vn 1.744818E-07 -0.8067279 -0.5909232
vn 1.112581E-07 -0.6164187 -0.7874186
vn 5.758885E-08 -0.3974086 -0.9176417
vn 5.034346E-08 -0.3974086 -0.9176418
vn 2.134158E-07 -0.9176417 0.3974087
vn -1.490116E-07 0.7183238 0.6957089
vn -1.490116E-07 0.7183238 0.6957089
vn -1.490116E-07 0.7183238 0.6957089
vn -1.490116E-07 0.7183238 0.6957089
vn -1.490116E-07 0.7183238 0.6957089
vn -1.490116E-07 0.7183238 0.6957089
vn -1.581815E-07 0.7183238 0.6957089
vn -1.581815E-07 0.7183238 0.6957089
vn -0.2028032 0.6812517 -0.7033967
vn -1 -4.827673E-07 4.696268E-07
vn -0.9999999 -1.25206E-07 -2.097329E-07
vn -1 -2.156872E-07 -1.420062E-07
vn -1 -1.25206E-07 -2.097329E-07
vn -1 -1.25206E-07 -2.097329E-07
vn -1 -2.733128E-07 7.166711E-08
vn -1 -2.733129E-07 7.166729E-08
vn -1 -2.733127E-07 7.16666E-08
vn -1 -2.733128E-07 7.166746E-08
vn -1 -2.733128E-07 7.166754E-08
vn -0.9999999 -2.733128E-07 7.16669E-08
vn -1 -2.733128E-07 7.166463E-08
vn -0.9999999 -2.733128E-07 7.166997E-08
vn -1 -2.773191E-07 -1.78834E-07
vn -1 -1.894126E-07 -2.719181E-07
vn -1 -2.773551E-07 -1.811165E-07
vn -1 -2.773556E-07 -1.811162E-07
vn -1 -2.773563E-07 -1.811159E-07
vn -1 -2.773559E-07 -1.811161E-07
vn -1 -2.773559E-07 -1.811162E-07
vn -1 -2.773558E-07 -1.811162E-07
vn -1 -2.773554E-07 -1.811167E-07
vn -1 -1.190789E-07 -3.44538E-07
vn -1 -1.014696E-07 -3.627199E-07
vn -1 -1.014695E-07 -3.6272E-07
vn -1 -1.014697E-07 -3.627193E-07
vn -1 -1.014692E-07 -3.62721E-07
vn -1 -1.014694E-07 -3.627202E-07
vn -1 -1.014696E-07 -3.627198E-07
vn -1 -6.040741E-08 -3.023337E-07
vn -1 1.513141E-07 -3.667627E-07
vn -1 1.513143E-07 -3.667628E-07
vn -1 1.513147E-07 -3.667629E-07
vn -1 1.513079E-07 -3.6676E-07
vn -1 1.513153E-07 -3.667633E-07
vn -1 1.513148E-07 -3.66763E-07
vn -1 1.513135E-07 -3.667624E-07
vn -0.9999999 1.513124E-07 -3.667618E-07
vn -1 -1.25206E-07 -2.097329E-07
vn -1 -1.25206E-07 -2.097329E-07
vn -0.9999999 -1.25206E-07 -2.097329E-07

f 1//1 2//2 3//3
f 4//4 1//1 3//3
f 3//3 5//5 4//4
f 3//3 6//6 5//5
f 5//5 6//6 7//7
f 8//8 7//7 6//6
f 9//9 8//8 6//6
f 10//10 9//9 6//6
f 9//9 10//10 11//11
f 11//11 10//10 12//12
f 13//13 11//11 12//12
f 13//13 12//12 14//14
f 13//13 14//14 15//15
f 15//15 14//14 16//16
f 15//15 16//16 17//17
f 18//18 17//17 16//16
f 19//19 17//17 18//18
f 19//19 18//18 20//20
f 21//21 19//19 20//20
f 22//22 19//19 21//21
f 22//22 21//21 23//23
f 24//24 22//22 23//23
f 24//24 23//23 25//25
f 26//26 24//24 25//25
f 26//26 25//25 27//27
f 28//28 26//26 27//27
f 28//28 27//27 29//29
f 29//29 27//27 30//30
f 31//31 29//29 30//30
f 31//31 30//30 32//32
f 33//33 31//31 32//32
f 33//33 32//32 34//34
f 35//35 33//33 34//34
f 35//35 34//34 36//36
f 37//37 35//35 36//36
f 37//37 36//36 38//38
f 39//39 37//37 38//38
f 39//39 38//38 40//40
f 41//41 39//39 40//40
f 41//41 40//40 42//42
f 41//41 42//42 43//43
f 43//43 42//42 44//44
f 45//45 43//43 44//44
f 45//45 44//44 46//46
f 47//47 45//45 46//46
f 48//48 45//45 47//47
f 48//48 47//47 49//49
f 50//50 48//48 49//49
f 50//50 49//49 51//51
f 52//52 50//50 51//51
f 52//52 51//51 53//53
f 54//54 52//52 53//53
f 55//55 54//54 53//53
f 55//55 53//53 56//56
f 55//55 56//56 57//57
f 57//57 56//56 58//58
f 57//57 58//58 59//59
f 59//59 58//58 60//60
f 59//59 60//60 61//61
f 61//61 60//60 62//62
f 61//61 62//62 63//63
f 63//63 62//62 64//64
f 63//63 64//64 65//65
f 65//65 64//64 66//66
f 65//65 66//66 67//67
f 68//68 67//67 66//66
f 69//69 67//67 68//68
f 69//69 68//68 70//70
f 71//71 69//69 70//70
f 72//72 71//71 73//73
f 74//74 75//75 76//76
f 77//77 74//74 76//76
f 75//75 77//77 76//76
f 78//78 75//75 74//74
f 79//79 75//75 78//78
f 78//78 74//74 80//80
f 81//81 78//78 80//80
f 82//82 78//78 81//81
f 82//82 83//83 78//78
f 83//83 84//84 79//79
f 84//84 85//85 79//79
f 80//80 74//74 86//86
f 87//87 80//80 86//86
f 81//81 80//80 87//87
f 86//86 74//74 88//88
f 88//88 74//74 77//77
f 86//86 88//88 89//89
f 90//90 86//86 89//89
f 87//87 86//86 90//90
f 75//75 91//91 77//77
f 90//90 89//89 92//92
f 90//90 92//92 93//93
f 94//94 90//90 93//93
f 95//95 83//83 82//82
f 95//95 82//82 81//81
f 95//95 81//81 87//87
f 95//95 87//87 90//90
f 95//95 96//96 83//83
f 97//97 91//91 75//75
f 97//97 98//98 91//91
f 97//97 99//99 98//98
f 100//100 95//95 101//101
f 102//102 103//103 104//104
f 102//102 104//104 105//105
f 102//102 105//105 106//106
f 106//106 105//105 107//107
f 108//108 102//102 106//106
f 109//109 102//102 108//108
f 110//110 108//108 106//106
f 111//111 112//112 113//113
f 111//111 113//113 114//114
f 111//111 114//114 115//115
f 111//111 115//115 116//116
f 111//111 116//116 117//117
f 117//117 118//118 111//111
f 118//118 119//119 111//111
f 120//120 111//111 119//119
f 120//120 121//121 111//111
f 121//121 122//122 111//111
f 111//111 122//122 123//123
f 114//114 113//113 124//124
f 124//124 113//113 125//125
f 125//125 113//113 126//126
f 126//126 113//113 127//127
f 127//127 113//113 128//128
f 128//128 113//113 129//129
f 129//129 113//113 130//130
f 130//130 113//113 131//131
f 131//131 113//113 132//132
f 132//132 113//113 133//133
f 133//133 113//113 134//134
f 133//133 134//134 135//135
f 135//135 134//134 136//136
f 134//134 137//137 136//136
f 137//137 134//134 138//138
f 138//138 134//134 139//139
f 139//139 134//134 140//140
f 140//140 134//134 141//141
f 134//134 142//142 141//141
f 134//134 143//143 142//142
f 134//134 144//144 143//143
f 144//144 134//134 145//145
f 145//145 134//134 146//146
f 147//147 134//134 148//148
f 149//149 150//150 151//151
f 149//149 152//152 150//150
f 151//151 150//150 153//153
f 151//151 153//153 154//154
f 154//154 153//153 155//155
f 154//154 155//155 156//156
f 152//152 157//157 150//150
f 158//158 159//159 160//160
f 161//161 159//159 158//158
f 162//162 159//159 161//161
f 163//163 162//162 161//161
f 164//164 162//162 163//163
f 165//165 162//162 164//164
f 9//9 166//166 8//8
f 166//166 9//9 167//167
f 168//168 169//169 170//170
f 168//168 171//171 169//169
f 172//172 169//169 173//173
f 174//174 169//169 172//172
f 169//169 174//174 175//175
f 176//176 169//169 175//175
f 177//177 169//169 176//176
f 178//178 169//169 177//177
f 178//178 179//179 169//169
f 179//179 180//180 169//169
f 180//180 181//181 169//169
f 182//182 181//181 180//180
f 182//182 183//183 181//181
f 183//183 184//184 181//181
f 184//184 185//185 181//181
f 185//185 186//186 181//181
f 186//186 187//187 181//181
f 187//187 188//188 181//181
f 188//188 189//189 181//181
f 181//181 189//189 190//190
f 181//181 190//190 191//191
f 192//192 181//181 191//191
f 193//193 181//181 192//192
f 194//194 181//181 193//193
f 195//195 181//181 194//194
f 195//195 196//196 181//181
f 196//196 197//197 198//198
f 196//196 198//198 199//199
f 199//199 200//200 196//196
f 196//196 200//200 201//201
f 201//201 202//202 196//196
f 196//196 202//202 203//203
f 196//196 203//203 204//204
f 205//205 196//196 206//206
f 207//207 196//196 205//205
