v 103.8212 -209.2411 86.90984
v 103.8212 -209.2411 49.99998
v 103.8212 -209.2411 86.90984
v 103.8212 -209.2411 86.90984
v 102.4565 -205.9407 86.90984
v 101.9106 -204.6206 86.90984
v 101.9106 -204.6206 86.90984
v 101.9106 -204.6206 49.99998
v 101.9106 -204.6206 13.09012
v 102.0851 -204.4462 86.90984
v 103.4815 -203.0516 13.09012
v 102.1068 -204.4246 86.90984
v 103.6767 -202.8566 13.09012
v 102.1129 -204.4185 86.90984
v 103.7315 -202.8019 13.09012
v 102.1813 -204.3501 86.90984
v 104.3475 -202.1867 13.09012
v 103.0251 -203.5074 86.90984
v 104.4412 -202.093 13.09012
v 103.8252 -202.7083 86.90984
v 103.9172 -202.6164 86.90984
v 104.5403 -201.994 13.09012
v 104.1092 -202.4247 86.90984
v 104.5617 -201.9727 13.09012
v 104.6182 -201.9163 86.90984
v 104.6182 -201.9163 13.09012
v 104.6183 -201.7127 86.90984
v 104.6189 -200.7954 13.09012
v 104.6194 -200.0843 13.09012
v 104.6184 -201.6622 86.90984
v 104.6196 -199.6297 13.09012
v 104.6184 -201.6472 86.90984
v 104.6197 -199.4945 13.09012
v 104.6185 -201.5336 86.90984
v 104.6203 -198.4721 13.09012
v 104.6193 -200.2303 86.90984
v 104.6204 -198.3273 13.09012
v 104.6199 -199.1536 86.90984
v 104.6205 -198.2077 13.09012
v 104.6206 -198.0894 86.90984
v 104.6206 -198.0894 13.09012
v 104.5371 -198.0059 86.90984
v 103.8695 -197.3374 13.09012
v 104.3501 -197.8186 86.90984
v 102.1867 -195.6525 13.09012
v 103.8285 -197.2964 86.90984
v 103.6199 -197.0875 86.90984
v 102.1055 -195.5713 13.09012
v 102.9085 -196.3753 86.90984
v 102.0265 -195.4922 13.09012
v 102.3228 -195.7888 86.90984
v 101.9614 -195.427 13.09012
v 101.9163 -195.3818 86.90984
v 101.9163 -195.3818 13.09012
v 101.9163 -195.3818 13.09012
v 101.6888 -195.3816 86.90984
v 99.86929 -195.3805 13.09012
v 101.6219 -195.3816 86.90984
v 99.26678 -195.3802 13.09012
v 101.615 -195.3816 86.90984
v 99.20528 -195.3801 13.09012
v 101.6119 -195.3816 86.90984
v 99.17676 -195.3801 13.09012
v 101.6079 -195.3816 86.90984
v 99.14071 -195.3801 13.09012
v 101.5336 -195.3815 86.90984
v 98.47211 -195.3797 13.09012
v 98.08942 -195.3794 86.90984
v 98.08942 -195.3794 13.09012
v 98.08942 -195.3794 86.90984
v 98.08942 -195.3794 13.09012
v 98.08942 -195.3794 86.90984
v 98.08942 -195.3794 86.90984
v 97.54353 -194.0593 86.90984
v 96.17883 -190.7589 86.90984
v 96.17883 -190.7589 86.90984
v 96.17883 -190.7589 86.90984
v 98.08942 -195.3794 86.90984
v 98.08942 -195.3794 86.90984
v 98.08942 -195.3794 86.90984
v 98.08942 -195.3794 13.09012
v 98.08942 -195.3794 13.09012
v 98.08942 -195.3794 13.09012
v 98.08942 -195.3794 86.90984
v 103.8325 -190.7635 86.90984
v 98.08942 -195.3794 86.90984
v 98.08942 -195.3794 13.09012
v 98.08942 -195.3794 86.90984
v 98.08942 -195.3794 49.99998
v 98.08942 -195.3794 13.09012
v 96.17883 -190.7589 49.99998
v 98.08942 -195.3794 13.09016
v 98.08942 -195.3794 13.09012
v 97.54354 -194.0593 13.09012
v 103.8325 -190.7635 13.09013
v 98.08942 -195.3794 13.09012
v 103.8325 -190.7635 86.90984
v 96.17884 -190.7589 13.09012
v 103.8325 -190.7635 13.09013
v 101.9163 -195.3818 13.09012
v 101.9163 -195.3818 13.09012
v 103.8212 -209.2411 49.99998
v 103.8212 -209.2411 86.90984
v 103.8212 -209.2411 86.90984
v 102.4565 -205.9407 86.90984
v 101.9106 -204.6206 49.99998
v 101.9106 -204.6206 86.90984
v 102.702 -206.5345 13.09012
v 103.8212 -209.2411 13.09012
v 101.9106 -204.6206 13.09012
v 103.8212 -209.2411 86.90984
v 109.2365 -203.8325 86.90984
v 109.2411 -196.1788 86.90984
v 104.6182 -201.9163 86.90984
v 104.1092 -202.4247 86.90984
v 103.9172 -202.6164 86.90984
v 103.8252 -202.7083 86.90984
v 103.0251 -203.5074 86.90984
v 102.1813 -204.3501 86.90984
v 102.1129 -204.4185 86.90984
v 102.1068 -204.4246 86.90984
v 102.0851 -204.4462 86.90984
v 101.9106 -204.6206 86.90984
v 104.6183 -201.7127 86.90984
v 104.6184 -201.6622 86.90984
v 104.6184 -201.6472 86.90984
v 104.6185 -201.5336 86.90984
v 104.6193 -200.2303 86.90984
v 104.6199 -199.1536 86.90984
v 104.6206 -198.0894 86.90984
v 104.5371 -198.0059 86.90984
v 104.3501 -197.8186 86.90984
v 103.8285 -197.2964 86.90984
v 103.8325 -190.7635 86.90984
v 103.6199 -197.0875 86.90984
v 102.9085 -196.3753 86.90984
v 102.3228 -195.7888 86.90984
v 101.9163 -195.3818 86.90984
v 101.6888 -195.3816 86.90984
v 101.6219 -195.3816 86.90984
v 101.615 -195.3816 86.90984
v 101.6119 -195.3816 86.90984
v 101.6079 -195.3816 86.90984
v 101.5336 -195.3815 86.90984
v 98.08942 -195.3794 86.90984
v 98.08942 -195.3794 86.90984
v 98.08942 -195.3794 86.90984
v 96.17883 -190.7589 86.90984
v 103.8212 -209.2411 86.90984
v 109.2365 -203.8325 13.09013
v 109.2365 -203.8325 86.90984
v 103.8212 -209.2411 49.99998
v 109.2411 -196.1788 13.09013
v 109.2411 -196.1788 86.90984
v 103.8325 -190.7635 13.09013
v 103.8325 -190.7635 86.90984
v 103.8212 -209.2411 13.09012
v 96.17883 -190.7589 86.90984
v 98.08942 -195.3794 49.99998
v 98.08942 -195.3794 86.90984
v 96.17883 -190.7589 49.99998
v 98.08942 -195.3794 13.09016
v 96.17884 -190.7589 13.09012
v 97.54354 -194.0593 13.09012
v 98.08942 -195.3794 13.09012
v 101.9106 -204.6206 13.09012
v 109.2365 -203.8325 13.09013
v 102.702 -206.5345 13.09012
v 109.2365 -203.8325 13.09013
v 103.8212 -209.2411 13.09012
v 101.9106 -204.6206 13.09012
v 103.4815 -203.0516 13.09012
v 101.9106 -204.6206 13.09012
v 103.6767 -202.8566 13.09012
v 103.7315 -202.8019 13.09012
v 104.3475 -202.1867 13.09012
v 104.4412 -202.093 13.09012
v 104.5403 -201.994 13.09012
v 104.5617 -201.9727 13.09012
v 104.6182 -201.9163 13.09012
v 109.2411 -196.1788 13.09013
v 104.6189 -200.7954 13.09012
v 104.6194 -200.0843 13.09012
v 104.6196 -199.6297 13.09012
v 104.6197 -199.4945 13.09012
v 104.6203 -198.4721 13.09012
v 104.6204 -198.3273 13.09012
v 104.6205 -198.2077 13.09012
v 104.6206 -198.0894 13.09012
v 103.8695 -197.3374 13.09012
v 102.1867 -195.6525 13.09012
v 102.1055 -195.5713 13.09012
v 102.0265 -195.4922 13.09012
v 101.9614 -195.427 13.09012
v 101.9163 -195.3818 13.09012
v 103.8325 -190.7635 13.09013
v 101.9163 -195.3818 13.09012
v 99.86929 -195.3805 13.09012
v 99.26678 -195.3802 13.09012
v 99.20528 -195.3801 13.09012
v 99.17676 -195.3801 13.09012
v 99.14071 -195.3801 13.09012
v 98.47211 -195.3797 13.09012
v 98.08942 -195.3794 13.09012
v 97.54354 -194.0593 13.09012
v 98.08942 -195.3794 13.09012
v 96.17884 -190.7589 13.09012

vn 0.3821164 -0.9241142 5.340572E-07
vn 0.3821164 -0.9241142 3.814694E-07
vn 0.2901244 -0.7016398 0.6507913
vn 0 0 1
vn 0 0 1
vn -0.7066762 0.7075371 -6.462383E-08
vn -0.378276 0.9148265 0.141421
vn -0.9884502 -0.1515452 -1.883212E-07
vn -0.7066729 0.7075403 -3.424387E-07
vn -0.7066724 0.707541 -3.013172E-07
vn -0.7066725 0.7075407 -3.400592E-07
vn -0.7066733 0.70754 -4.236429E-07
vn -0.706674 0.7075392 -4.821552E-07
vn -0.7066699 0.7075433 1.095606E-07
vn -0.7066719 0.7075413 -1.780023E-07
vn -0.7066723 0.707541 -2.260704E-07
vn -0.7066723 0.7075412 -2.089216E-07
vn -0.7066721 0.7075412 -2.077588E-07
vn -0.7066723 0.7075409 -2.217208E-07
vn -0.7066721 0.7075412 -2.409156E-07
vn -0.7066729 0.7075404 -2.351288E-07
vn -0.706674 0.7075392 -2.778156E-07
vn -0.7066724 0.7075408 -1.673258E-07
vn -0.7066719 0.7075415 -1.811419E-07
vn -0.8053077 0.5928571 -1.839746E-07
vn -0.9991379 0.0415127 -2.087927E-07
vn -0.9999998 0.0006114446 -2.638545E-07
vn -0.9999997 0.0006122651 -2.243663E-07
vn -0.9999998 0.0006125908 -2.046673E-07
vn -0.9999999 0.0006146818 -5.134434E-08
vn -0.9999998 0.0006159836 3.311141E-08
vn -0.9999998 0.0006176663 2.493531E-07
vn -0.9999998 0.0006148375 -1.725448E-08
vn -0.9999997 0.0006136543 -1.95488E-07
vn -0.9999999 0.000613077 -2.545912E-07
vn -0.9999998 0.0006129896 -3.133276E-07
vn -0.9999997 0.0006141357 -2.147517E-07
vn -0.9999998 0.0006134758 -2.354086E-07
vn -0.9999998 0.0006122698 -2.762392E-07
vn -0.9978718 -0.06520693 -2.850269E-07
vn -0.7526237 -0.658451 -1.199789E-07
vn -0.7075416 -0.7066716 -7.869002E-08
vn -0.7075409 -0.7066724 -1.061353E-07
vn -0.7075405 -0.7066729 -1.468234E-07
vn -0.7075404 -0.7066728 -1.18347E-07
vn -0.7075406 -0.7066725 -1.005928E-07
vn -0.707541 -0.7066721 2.558145E-08
vn -0.7075408 -0.7066725 -4.388408E-08
vn -0.7075411 -0.7066723 -2.142637E-08
vn -0.7075408 -0.7066724 -1.39089E-08
vn -0.7075409 -0.7066725 -6.971242E-09
vn -0.7075411 -0.7066721 1.713521E-09
vn -0.5544055 -0.8322467 6.568339E-08
vn -0.7075576 -0.7066557 3.749556E-09
vn -0.0006141405 -0.9999998 1.50355E-07
vn -0.0006128519 -0.9999997 1.053244E-07
vn -0.0006124075 -0.9999998 6.84602E-08
vn -0.0006111968 -0.9999997 -3.948485E-08
vn -0.0006132603 -0.9999998 1.617077E-07
vn -0.0006148698 -0.9999999 4.500968E-07
vn -0.0006176112 -0.9999998 7.290805E-07
vn -0.0006628559 -0.9999998 6.344963E-06
vn -0.0006344796 -0.9999998 2.762223E-06
vn -0.0006059656 -0.9999998 -5.911333E-07
vn -0.0006100829 -0.9999998 -2.018595E-07
vn -0.0006129621 -0.9999998 1.357495E-07
vn -0.0006135764 -0.9999998 1.613505E-07
vn -0.000613847 -0.9999998 1.611312E-07
vn -0.0006188722 -0.9999998 9.115076E-08
vn -0.1681213 -0.9857663 9.305477E-08
vn 0.3821164 -0.9241142 1.907347E-07
vn 0.3821164 -0.9241142 1.907347E-07
vn 0.3821164 -0.9241142 1.907347E-07
vn 0 0 1
vn 0.0006132051 0.9999998 -2.936142E-07
vn 0 0 1
vn -0.965937 -0.2587776 -1.677742E-07
vn 0.2481708 -0.6001787 0.7603924
vn 0.2152647 -0.5205982 0.8262195
vn 0.3811508 -0.9217787 0.0710492
vn 0.3821164 -0.9241142 1.90735E-07
vn 0.3821164 -0.9241142 1.907347E-07
vn 0.3821164 -0.9241142 1.907343E-07
vn 0.380084 -0.9191989 0.1030029
vn 0 0 1
vn 0.3820805 -0.9240423 0.01266336
vn 0.3821164 -0.9241142 1.907357E-07
vn 0.378276 -0.9148263 0.1414215
vn 0.3821226 -0.9241117 1.907357E-07
vn 0.3814329 -0.9224446 -0.06004161
vn 0.000613228 0.9999997 -2.232892E-07
vn 0.3821383 -0.9241051 1.907375E-07
vn 2.652941E-06 -6.415899E-06 -1
vn 0 0 -1
vn 3.988324E-07 1.649151E-07 -1
vn 0 0 0
vn 0.0006132878 0.9999998 -2.130985E-07
vn 0.0006132603 0.9999998 -1.778031E-07
vn 0.000613265 0.9999999 -2.029077E-07
vn 3.988324E-07 1.649151E-07 -1
vn 3.988324E-07 1.649151E-07 -1
vn -0.9241142 -0.3821164 -1.192093E-07
vn -0.9241141 -0.3821164 -1.192092E-07
vn -0.9241142 -0.3821164 -1.192093E-07
vn -0.9241142 -0.3821164 -1.192093E-07
vn -0.9241142 -0.3821164 -1.192093E-07
vn -0.9241142 -0.3821164 -1.192092E-07
vn -0.9241142 -0.3821164 -1.192093E-07
vn -0.9241142 -0.3821164 -1.192093E-07
vn -0.9241142 -0.3821164 -1.192093E-07
vn 0 0 1
vn 0 0 1
vn 0 0 1
vn 0 0 1
vn 0 0 1
vn 0 0 1
vn 0 0 1
vn 0 0 1
vn 0 0 1
vn 0 0 1
vn 0 0 1
vn 0 0 1
vn 0 0 1
vn 0 0 0.9999999
vn 0 0 1
vn 0 0 1
vn 0 0 0.9999999
vn 0 0 1
vn 0 0 1
vn 0 0 1
vn 0 0 0.9999999
vn 0 0 1
vn 0 0 1
vn 0 0 1
vn 0 0 1
vn 0 0 1
vn 0 0 1
vn 0 0 1
vn 0 0 1
vn 0 0 1
vn 0 0 1
vn 0 0 0.9999999
vn 0 0 1
vn 0 0 0.9999999
vn 0 0 0.9999999
vn 0 0 1
vn 0 0 0.9999999
vn 0 0 0.9999999
vn 0.7066727 -0.7075408 3.42789E-07
vn 0.8625458 -0.5059789 3.092419E-07
vn 0.967383 -0.2533183 2.619401E-07
vn 0.7066725 -0.7075406 3.23738E-07
vn 0.9676932 0.252131 1.531119E-07
vn 0.8631663 0.5049198 7.358348E-08
vn 0.7075406 0.7066725 7.245398E-09
vn 0.7075407 0.7066725 0
vn 0.7066725 -0.7075408 2.570785E-07
vn -0.9241142 -0.3821164 -1.192093E-07
vn -0.9241142 -0.3821164 -1.192093E-07
vn -0.9241142 -0.3821164 -1.192093E-07
vn -0.9241142 -0.3821164 -1.192093E-07
vn -0.9241142 -0.3821164 -1.192093E-07
vn -0.9241142 -0.3821164 -1.192093E-07
vn -0.9241142 -0.3821164 -1.283792E-07
vn -0.9241141 -0.3821164 -1.283792E-07
vn -0.3741759 0.9049106 -0.2028032
vn 2.815277E-07 -6.808493E-07 -1
vn 1.994162E-07 8.245756E-08 -0.9999999
vn 2.585799E-07 -1.384096E-08 -1
vn 1.994162E-07 8.245757E-08 -1
vn 1.994162E-07 8.245757E-08 -1
vn 2.334279E-07 -2.337145E-07 -1
vn 2.334279E-07 -2.337147E-07 -1
vn 2.33428E-07 -2.33714E-07 -1
vn 2.334278E-07 -2.337148E-07 -1
vn 2.334278E-07 -2.337149E-07 -1
vn 2.33428E-07 -2.337143E-07 -0.9999999
vn 2.334288E-07 -2.337122E-07 -1
vn 2.334268E-07 -2.337171E-07 -0.9999999
vn 3.294448E-07 -2.310897E-09 -1
vn 2.820172E-07 1.166126E-07 -1
vn 3.303192E-07 -2.022522E-10 -1
vn 3.303196E-07 -2.026838E-10 -1
vn 3.303201E-07 -2.032449E-10 -1
vn 3.303198E-07 -2.02879E-10 -1
vn 3.303198E-07 -2.028396E-10 -1
vn 3.303197E-07 -2.027214E-10 -1
vn 3.303195E-07 -2.021567E-10 -1
vn 2.433865E-07 2.100372E-07 -1
vn 2.337147E-07 2.33428E-07 -1
vn 2.337146E-07 2.334281E-07 -1
vn 2.337146E-07 2.334273E-07 -1
vn 2.337148E-07 2.334292E-07 -1
vn 2.337146E-07 2.334283E-07 -1
vn 2.337146E-07 2.334279E-07 -1
vn 1.732928E-07 1.924182E-07 -1
vn 2.025466E-10 3.303198E-07 -1
vn 2.024049E-10 3.303199E-07 -1
vn 2.021301E-10 3.303202E-07 -1
vn 2.07302E-10 3.30315E-07 -1
vn 2.016508E-10 3.303208E-07 -1
vn 2.019862E-10 3.303203E-07 -1
vn 2.030151E-10 3.303192E-07 -1
vn 2.037887E-10 3.303183E-07 -0.9999999
vn 1.994162E-07 8.245757E-08 -1
vn 1.994162E-07 8.245758E-08 -1
vn 1.994162E-07 8.245757E-08 -0.9999999

f 1//1 2//2 3//3
f 4//4 1//1 3//3
f 3//3 5//5 4//4
f 3//3 6//6 5//5
f 5//5 6//6 7//7
f 8//8 7//7 6//6
f 9//9 8//8 6//6
f 10//10 9//9 6//6
f 9//9 10//10 11//11
f 11//11 10//10 12//12
f 13//13 11//11 12//12
f 13//13 12//12 14//14
f 13//13 14//14 15//15
f 15//15 14//14 16//16
f 15//15 16//16 17//17
f 18//18 17//17 16//16
f 19//19 17//17 18//18
f 19//19 18//18 20//20
f 21//21 19//19 20//20
f 22//22 19//19 21//21
f 22//22 21//21 23//23
f 24//24 22//22 23//23
f 24//24 23//23 25//25
f 26//26 24//24 25//25
f 26//26 25//25 27//27
f 28//28 26//26 27//27
f 28//28 27//27 29//29
f 29//29 27//27 30//30
f 31//31 29//29 30//30
f 31//31 30//30 32//32
f 33//33 31//31 32//32
f 33//33 32//32 34//34
f 35//35 33//33 34//34
f 35//35 34//34 36//36
f 37//37 35//35 36//36
f 37//37 36//36 38//38
f 39//39 37//37 38//38
f 39//39 38//38 40//40
f 41//41 39//39 40//40
f 41//41 40//40 42//42
f 41//41 42//42 43//43
f 43//43 42//42 44//44
f 45//45 43//43 44//44
f 45//45 44//44 46//46
f 47//47 45//45 46//46
f 48//48 45//45 47//47
f 48//48 47//47 49//49
f 50//50 48//48 49//49
f 50//50 49//49 51//51
f 52//52 50//50 51//51
f 52//52 51//51 53//53
f 54//54 52//52 53//53
f 55//55 54//54 53//53
f 55//55 53//53 56//56
f 55//55 56//56 57//57
f 57//57 56//56 58//58
f 57//57 58//58 59//59
f 59//59 58//58 60//60
f 59//59 60//60 61//61
f 61//61 60//60 62//62
f 61//61 62//62 63//63
f 63//63 62//62 64//64
f 63//63 64//64 65//65
f 65//65 64//64 66//66
f 65//65 66//66 67//67
f 68//68 67//67 66//66
f 69//69 67//67 68//68
f 69//69 68//68 70//70
f 71//71 69//69 70//70
f 72//72 71//71 73//73
f 74//74 75//75 76//76
f 77//77 74//74 76//76
f 75//75 77//77 76//76
f 78//78 75//75 74//74
f 79//79 75//75 78//78
f 78//78 74//74 80//80
f 81//81 78//78 80//80
f 82//82 78//78 81//81
f 82//82 83//83 78//78
f 83//83 84//84 79//79
f 84//84 85//85 79//79
f 80//80 74//74 86//86
f 87//87 80//80 86//86
f 81//81 80//80 87//87
f 86//86 74//74 88//88
f 88//88 74//74 77//77
f 86//86 88//88 89//89
f 90//90 86//86 89//89
f 87//87 86//86 90//90
f 75//75 91//91 77//77
f 90//90 89//89 92//92
f 90//90 92//92 93//93
f 94//94 90//90 93//93
f 95//95 83//83 82//82
f 95//95 82//82 81//81
f 95//95 81//81 87//87
f 95//95 87//87 90//90
f 95//95 96//96 83//83
f 97//97 91//91 75//75
f 97//97 98//98 91//91
f 97//97 99//99 98//98
f 100//100 95//95 101//101
f 102//102 103//103 104//104
f 102//102 104//104 105//105
f 102//102 105//105 106//106
f 106//106 105//105 107//107
f 108//108 102//102 106//106
f 109//109 102//102 108//108
f 110//110 108//108 106//106
f 111//111 112//112 113//113
f 111//111 113//113 114//114
f 111//111 114//114 115//115
f 111//111 115//115 116//116
f 111//111 116//116 117//117
f 117//117 118//118 111//111
f 118//118 119//119 111//111
f 120//120 111//111 119//119
f 120//120 121//121 111//111
f 121//121 122//122 111//111
f 111//111 122//122 123//123
f 114//114 113//113 124//124
f 124//124 113//113 125//125
f 125//125 113//113 126//126
f 126//126 113//113 127//127
f 127//127 113//113 128//128
f 128//128 113//113 129//129
f 129//129 113//113 130//130
f 130//130 113//113 131//131
f 131//131 113//113 132//132
f 132//132 113//113 133//133
f 133//133 113//113 134//134
f 133//133 134//134 135//135
f 135//135 134//134 136//136
f 134//134 137//137 136//136
f 137//137 134//134 138//138
f 138//138 134//134 139//139
f 139//139 134//134 140//140
f 140//140 134//134 141//141
f 134//134 142//142 141//141
f 134//134 143//143 142//142
f 134//134 144//144 143//143
f 144//144 134//134 145//145
f 145//145 134//134 146//146
f 147//147 134//134 148//148
f 149//149 150//150 151//151
f 149//149 152//152 150//150
f 151//151 150//150 153//153
f 151//151 153//153 154//154
f 154//154 153//153 155//155
f 154//154 155//155 156//156
f 152//152 157//157 150//150
f 158//158 159//159 160//160
f 161//161 159//159 158//158
f 162//162 159//159 161//161
f 163//163 162//162 161//161
f 164//164 162//162 163//163
f 165//165 162//162 164//164
f 9//9 166//166 8//8
f 166//166 9//9 167//167
f 168//168 169//169 170//170
f 168//168 171//171 169//169
f 172//172 169//169 173//173
f 174//174 169//169 172//172
f 169//169 174//174 175//175
f 176//176 169//169 175//175
f 177//177 169//169 176//176
f 178//178 169//169 177//177
f 178//178 179//179 169//169
f 179//179 180//180 169//169
f 180//180 181//181 169//169
f 182//182 181//181 180//180
f 182//182 183//183 181//181
f 183//183 184//184 181//181
f 184//184 185//185 181//181
f 185//185 186//186 181//181
f 186//186 187//187 181//181
f 187//187 188//188 181//181
f 188//188 189//189 181//181
f 181//181 189//189 190//190
f 181//181 190//190 191//191
f 192//192 181//181 191//191
f 193//193 181//181 192//192
f 194//194 181//181 193//193
f 195//195 181//181 194//194
f 195//195 196//196 181//181
f 196//196 197//197 198//198
f 196//196 198//198 199//199
f 199//199 200//200 196//196
f 196//196 200//200 201//201
f 201//201 202//202 196//196
f 196//196 202//202 203//203
f 196//196 203//203 204//204
f 205//205 196//196 206//206
f 207//207 196//196 205//205
