v -90.00004 -205.848 8.111806
v -49.99998 -205.848 8.111819
v -90.00004 -205.848 8.111806
v -90.00004 -205.848 8.111804
v -90.00004 -203.7594 5.214729
v -90.00004 -202.924 4.055898
v -90.00004 -202.924 4.055898
v -49.99998 -202.924 4.055912
v -9.999924 -202.924 4.055923
v -90.00004 -202.6839 4.112602
v -9.999924 -200.7632 4.566258
v -90.00004 -202.6541 4.119649
v -9.999924 -200.4947 4.629673
v -90.00004 -202.6457 4.121627
v -9.999924 -200.4193 4.647479
v -90.00004 -202.5515 4.143861
v -9.999924 -199.5721 4.84758
v -90.00004 -201.3909 4.417982
v -9.999924 -199.4431 4.878039
v -90.00004 -200.2905 4.677884
v -90.00004 -200.1638 4.707784
v -9.999924 -199.3067 4.910237
v -90.00004 -199.8998 4.770145
v -9.999924 -199.2774 4.917166
v -90.00004 -199.1996 4.93552
v -9.999924 -199.1996 4.935543
v -90.00004 -199.0264 4.828522
v -9.999924 -198.2461 4.346373
v -9.999924 -197.6411 3.972578
v -90.00004 -198.9835 4.801974
v -9.999924 -197.2545 3.733654
v -90.00004 -198.9707 4.794074
v -9.999924 -197.1394 3.662549
v -90.00004 -198.8741 4.734365
v -9.999924 -196.2696 3.12515
v -90.00004 -197.7654 4.04932
v -9.999924 -196.1465 3.049034
v -90.00004 -196.8494 3.483367
v -9.999924 -196.0447 2.986151
v -90.00004 -195.9441 2.92397
v -9.999924 -195.9441 2.923995
v -90.00004 -195.9169 2.809041
v -9.999924 -195.6998 1.889628
v -90.00004 -195.8561 2.551533
v -9.999924 -195.1524 -0.4279427
v -90.00004 -195.6865 1.833127
v -90.00004 -195.6186 1.545824
v -9.999924 -195.126 -0.5396889
v -90.00004 -195.3872 0.566168
v -9.999924 -195.1003 -0.6485376
v -90.00004 -195.1967 -0.2404733
v -9.999924 -195.0792 -0.7381666
v -90.00004 -195.0645 -0.8004031
v -9.999924 -195.0645 -0.8003786
v -9.999924 -195.0645 -0.8003801
v -90.00004 -195.184 -0.9938885
v -9.999924 -196.1404 -2.541749
v -90.00004 -195.2192 -1.050839
v -9.999924 -196.4572 -3.0543
v -90.00004 -195.2228 -1.056653
v -9.999924 -196.4895 -3.106624
v -90.00004 -195.2245 -1.059349
v -9.999924 -196.5045 -3.130889
v -90.00004 -195.2266 -1.062757
v -9.999924 -196.5234 -3.161555
v -90.00004 -195.2656 -1.125954
v -9.999924 -196.8749 -3.730342
v -90.00004 -197.076 -4.055914
v -9.999924 -197.076 -4.055894
v -90.00004 -197.076 -4.055918
v -9.999924 -197.076 -4.055895
v -90.00004 -197.076 -4.055918
v -90.00004 -197.076 -4.055918
v -90.00004 -196.2406 -5.214749
v -90.00004 -194.152 -8.111826
v -90.00004 -194.152 -8.111826
v -90.00004 -194.152 -8.111824
v -90.00004 -197.076 -4.055918
v -90.00004 -197.076 -4.055918
v -90.00004 -197.076 -4.055918
v -9.999924 -197.076 -4.055895
v -9.999924 -197.076 -4.055895
v -9.999924 -197.076 -4.055895
v -90.00004 -197.076 -4.055918
v -90.00004 -190.1289 -1.600797
v -90.00004 -197.076 -4.055918
v -9.999924 -197.076 -4.055895
v -90.00004 -197.076 -4.055918
v -49.99998 -197.076 -4.055906
v -9.999924 -197.076 -4.055895
v -49.99998 -194.152 -8.111813
v -9.999962 -197.076 -4.055895
v -9.999924 -197.076 -4.055895
v -9.999924 -196.2406 -5.214724
v -9.999928 -190.129 -1.600773
v -9.999924 -197.076 -4.055894
v -90.00004 -190.1289 -1.600797
v -9.999924 -194.152 -8.111801
v -9.999928 -190.129 -1.600773
v -9.999924 -195.0645 -0.8003801
v -9.999924 -195.0645 -0.8003786
v -49.99998 -205.848 8.111819
v -90.00004 -205.848 8.111806
v -90.00004 -205.848 8.111804
v -90.00004 -203.7594 5.214729
v -49.99998 -202.924 4.055912
v -90.00004 -202.924 4.055898
v -9.999924 -204.1351 5.735936
v -9.999924 -205.848 8.111831
v -9.999924 -202.924 4.055923
v -90.00004 -205.848 8.111806
v -90.00004 -198.3992 9.871045
v -90.00004 -191.8882 5.847952
v -90.00004 -199.1996 4.93552
v -90.00004 -199.8998 4.770145
v -90.00004 -200.1638 4.707784
v -90.00004 -200.2905 4.677884
v -90.00004 -201.3909 4.417982
v -90.00004 -202.5515 4.143861
v -90.00004 -202.6457 4.121627
v -90.00004 -202.6541 4.119649
v -90.00004 -202.6839 4.112602
v -90.00004 -202.924 4.055898
v -90.00004 -199.0264 4.828522
v -90.00004 -198.9835 4.801974
v -90.00004 -198.9707 4.794074
v -90.00004 -198.8741 4.734365
v -90.00004 -197.7654 4.04932
v -90.00004 -196.8494 3.483367
v -90.00004 -195.9441 2.92397
v -90.00004 -195.9169 2.809041
v -90.00004 -195.8561 2.551533
v -90.00004 -195.6865 1.833127
v -90.00004 -190.1289 -1.600797
v -90.00004 -195.6186 1.545824
v -90.00004 -195.3872 0.566168
v -90.00004 -195.1967 -0.2404733
v -90.00004 -195.0645 -0.8004031
v -90.00004 -195.184 -0.9938885
v -90.00004 -195.2192 -1.050839
v -90.00004 -195.2228 -1.056653
v -90.00004 -195.2245 -1.059349
v -90.00004 -195.2266 -1.062757
v -90.00004 -195.2656 -1.125954
v -90.00004 -197.076 -4.055914
v -90.00004 -197.076 -4.055918
v -90.00004 -197.076 -4.055918
v -90.00004 -194.152 -8.111826
v -90.00004 -205.848 8.111806
v -9.999928 -198.3992 9.87107
v -90.00004 -198.3992 9.871045
v -49.99998 -205.848 8.111819
v -9.999928 -191.8882 5.847976
v -90.00004 -191.8882 5.847952
v -9.999928 -190.129 -1.600773
v -90.00004 -190.1289 -1.600797
v -9.999924 -205.848 8.111831
v -90.00004 -194.152 -8.111824
v -49.99998 -197.076 -4.055906
v -90.00004 -197.076 -4.055918
v -49.99998 -194.152 -8.111813
v -9.999962 -197.076 -4.055895
v -9.999924 -194.152 -8.111801
v -9.999924 -196.2406 -5.214724
v -9.999924 -197.076 -4.055895
v -9.999924 -202.924 4.055923
v -9.999928 -198.3992 9.87107
v -9.999924 -204.1351 5.735936
v -9.999928 -198.3992 9.87107
v -9.999924 -205.848 8.111831
v -9.999924 -202.924 4.055923
v -9.999924 -200.7632 4.566258
v -9.999924 -202.924 4.055923
v -9.999924 -200.4947 4.629673
v -9.999924 -200.4193 4.647479
v -9.999924 -199.5721 4.84758
v -9.999924 -199.4431 4.878039
v -9.999924 -199.3067 4.910237
v -9.999924 -199.2774 4.917166
v -9.999924 -199.1996 4.935543
v -9.999928 -191.8882 5.847976
v -9.999924 -198.2461 4.346373
v -9.999924 -197.6411 3.972578
v -9.999924 -197.2545 3.733654
v -9.999924 -197.1394 3.662549
v -9.999924 -196.2696 3.12515
v -9.999924 -196.1465 3.049034
v -9.999924 -196.0447 2.986151
v -9.999924 -195.9441 2.923995
v -9.999924 -195.6998 1.889628
v -9.999924 -195.1524 -0.4279427
v -9.999924 -195.126 -0.5396889
v -9.999924 -195.1003 -0.6485376
v -9.999924 -195.0792 -0.7381666
v -9.999924 -195.0645 -0.8003786
v -9.999928 -190.129 -1.600773
v -9.999924 -195.0645 -0.8003801
v -9.999924 -196.1404 -2.541749
v -9.999924 -196.4572 -3.0543
v -9.999924 -196.4895 -3.106624
v -9.999924 -196.5045 -3.130889
v -9.999924 -196.5234 -3.161555
v -9.999924 -196.8749 -3.730342
v -9.999924 -197.076 -4.055894
v -9.999924 -196.2406 -5.214724
v -9.999924 -197.076 -4.055895
v -9.999924 -194.152 -8.111801

vn -4.819032E-07 -0.5847954 0.8111809
vn -3.293154E-07 -0.5847954 0.8111809
vn -0.6507914 -0.4440098 0.6158943
vn -1 2.980232E-08 -2.30968E-07
vn -1 2.980232E-08 -2.30968E-07
vn 2.784485E-08 0.2298502 -0.9732261
vn -0.141421 0.578918 -0.8030283
vn 2.048748E-07 -0.6489585 -0.760824
vn 3.056596E-07 0.2298547 -0.9732251
vn 2.645379E-07 0.2298555 -0.9732249
vn 3.0328E-07 0.2298552 -0.9732249
vn 3.868638E-07 0.2298542 -0.9732252
vn 4.453761E-07 0.2298532 -0.9732254
vn -1.4634E-07 0.2298588 -0.9732241
vn 1.412231E-07 0.2298561 -0.9732248
vn 1.892912E-07 0.2298556 -0.9732248
vn 1.721424E-07 0.2298557 -0.9732249
vn 1.709796E-07 0.2298558 -0.9732248
vn 1.849416E-07 0.2298555 -0.9732249
vn 2.041363E-07 0.2298559 -0.9732248
vn 1.983496E-07 0.2298547 -0.9732251
vn 2.410366E-07 0.2298532 -0.9732254
vn 1.305466E-07 0.2298553 -0.9732249
vn 1.443627E-07 0.2298562 -0.9732248
vn 1.547796E-07 0.08043183 -0.9967603
vn 2.139245E-07 -0.4904087 -0.8714927
vn 2.714299E-07 -0.525644 -0.8507049
vn 2.319416E-07 -0.5256432 -0.8507053
vn 2.122427E-07 -0.525643 -0.8507055
vn 5.891955E-08 -0.5256413 -0.8507067
vn -2.553629E-08 -0.5256401 -0.8507073
vn -2.417781E-07 -0.5256386 -0.8507081
vn 2.482967E-08 -0.5256411 -0.8507067
vn 2.030633E-07 -0.525642 -0.850706
vn 2.621665E-07 -0.5256426 -0.8507058
vn 3.20903E-07 -0.5256426 -0.8507057
vn 2.223269E-07 -0.5256416 -0.8507063
vn 2.429839E-07 -0.5256423 -0.850706
vn 2.838146E-07 -0.5256433 -0.8507053
vn 2.965078E-07 -0.5804951 -0.814264
vn 1.64941E-07 -0.9559394 -0.2935655
vn 1.261822E-07 -0.9732248 -0.2298566
vn 1.536275E-07 -0.9732251 -0.2298555
vn 1.943157E-07 -0.9732252 -0.2298549
vn 1.658393E-07 -0.9732252 -0.2298548
vn 1.480851E-07 -0.9732251 -0.2298552
vn 2.191077E-08 -0.9732249 -0.2298558
vn 9.137633E-08 -0.9732251 -0.2298554
vn 6.89186E-08 -0.9732251 -0.2298557
vn 6.140114E-08 -0.9732251 -0.2298554
vn 5.446348E-08 -0.9732251 -0.2298554
vn 4.57787E-08 -0.9732249 -0.2298558
vn -1.187455E-08 -0.999437 -0.03355906
vn 4.374181E-08 -0.9732196 -0.2298785
vn -9.076609E-08 -0.8507064 0.5256415
vn -4.573549E-08 -0.8507056 0.5256426
vn -8.871282E-09 -0.8507055 0.525643
vn 9.907375E-08 -0.8507048 0.525644
vn -1.021188E-07 -0.8507059 0.5256423
vn -3.905079E-07 -0.8507069 0.525641
vn -6.694916E-07 -0.8507082 0.5256385
vn -6.285375E-06 -0.850732 0.5256001
vn -2.702634E-06 -0.8507171 0.5256242
vn 6.507223E-07 -0.8507021 0.5256485
vn 2.614484E-07 -0.8507043 0.525645
vn -7.616064E-08 -0.8507057 0.5256425
vn -1.017616E-07 -0.850706 0.525642
vn -1.015423E-07 -0.8507062 0.5256417
vn -3.15618E-08 -0.8507089 0.5256375
vn -3.30389E-08 -0.9267387 0.3757071
vn -1.385806E-07 -0.5847954 0.8111809
vn -1.385806E-07 -0.5847954 0.8111809
vn -1.385806E-07 -0.5847954 0.8111809
vn -1 2.980232E-08 -2.30968E-07
vn 2.340253E-07 0.8507059 -0.5256423
vn -1 2.980232E-08 -2.30968E-07
vn 1.905458E-07 -0.7283014 -0.6852573
vn -0.7603925 -0.3798035 0.5268325
vn -0.8262196 -0.3294435 0.4569773
vn -0.07104915 -0.5833176 0.809131
vn -1.38581E-07 -0.5847954 0.8111809
vn -1.385806E-07 -0.5847954 0.8111809
vn -1.385803E-07 -0.5847954 0.8111809
vn -0.1030028 -0.5816849 0.8068663
vn -1 2.980232E-08 -2.30968E-07
vn -0.01266331 -0.5847532 0.8111126
vn -1.385817E-07 -0.5847954 0.8111809
vn -0.1414215 -0.5789179 0.8030281
vn -1.385819E-07 -0.5847901 0.8111848
vn 0.06004167 -0.5837353 0.8097212
vn 1.637003E-07 0.8507059 -0.5256423
vn -1.385842E-07 -0.5847763 0.8111948
vn 1 -4.089894E-06 5.862799E-06
vn 1 -2.980232E-08 2.30968E-07
vn 1 3.202901E-07 4.833561E-07
vn 0 0 0
vn 1.535096E-07 0.850706 -0.5256423
vn 1.182142E-07 0.8507059 -0.5256423
vn 1.433188E-07 0.850706 -0.5256423
vn 1 3.202901E-07 4.833561E-07
vn 1 3.202901E-07 4.833561E-07
vn 1.490116E-07 -0.8111811 -0.5847954
vn 1.490116E-07 -0.8111811 -0.5847954
vn 1.490116E-07 -0.8111811 -0.5847954
vn 1.490116E-07 -0.8111811 -0.5847954
vn 1.490116E-07 -0.8111811 -0.5847954
vn 1.490116E-07 -0.8111811 -0.5847954
vn 1.490116E-07 -0.8111811 -0.5847954
vn 1.490116E-07 -0.8111811 -0.5847954
vn 1.490116E-07 -0.8111811 -0.5847954
vn -1 2.980232E-08 -2.30968E-07
vn -1 2.980232E-08 -2.30968E-07
vn -1 2.980232E-08 -2.30968E-07
vn -1 2.980232E-08 -2.30968E-07
vn -1 2.980232E-08 -2.30968E-07
vn -1 2.980232E-08 -2.30968E-07
vn -1 2.980232E-08 -2.30968E-07
vn -1 2.980232E-08 -2.30968E-07
vn -1 2.980232E-08 -2.30968E-07
vn -1 2.980232E-08 -2.30968E-07
vn -1 2.980232E-08 -2.30968E-07
vn -1 2.980232E-08 -2.30968E-07
vn -1 2.980232E-08 -2.30968E-07
vn -1 2.980232E-08 -2.30968E-07
vn -1 2.980232E-08 -2.30968E-07
vn -1 2.980232E-08 -2.30968E-07
vn -1 2.980232E-08 -2.30968E-07
vn -1 2.980232E-08 -2.30968E-07
vn -1 2.980232E-08 -2.30968E-07
vn -1 2.980232E-08 -2.30968E-07
vn -1 2.980232E-08 -2.30968E-07
vn -1 2.980232E-08 -2.30968E-07
vn -1 2.980232E-08 -2.30968E-07
vn -1 2.980232E-08 -2.30968E-07
vn -1 2.980232E-08 -2.30968E-07
vn -1 2.980232E-08 -2.30968E-07
vn -1 2.980232E-08 -2.30968E-07
vn -1 2.980232E-08 -2.30968E-07
vn -1 2.980232E-08 -2.30968E-07
vn -1 2.980232E-08 -2.30968E-07
vn -1 2.980232E-08 -2.30968E-07
vn -1 2.980232E-08 -2.30968E-07
vn -1 2.980232E-08 -2.30968E-07
vn -1 2.980232E-08 -2.30968E-07
vn -1 2.980232E-08 -2.30968E-07
vn -1 2.980232E-08 -2.30968E-07
vn -1 2.980232E-08 -2.30968E-07
vn -1 2.980232E-08 -2.30968E-07
vn -3.060098E-07 -0.2298552 0.9732251
vn -2.856591E-07 0.02356456 0.9997225
vn -2.542099E-07 0.2935844 0.9559333
vn -2.869588E-07 -0.2298551 0.9732249
vn -1.755009E-07 0.7235734 0.6902479
vn -1.10239E-07 0.8835425 0.4683516
vn -5.473764E-08 0.9732251 0.2298552
vn -4.749224E-08 0.9732251 0.2298553
vn -2.202993E-07 -0.2298552 0.9732249
vn 1.490116E-07 -0.8111811 -0.5847954
vn 1.490116E-07 -0.8111811 -0.5847954
vn 1.490116E-07 -0.8111811 -0.5847954
vn 1.490116E-07 -0.8111811 -0.5847954
vn 1.490116E-07 -0.8111811 -0.5847954
vn 1.490116E-07 -0.8111811 -0.5847954
vn 1.581816E-07 -0.8111811 -0.5847954
vn 1.581816E-07 -0.8111811 -0.5847954
vn 0.2028032 0.5726431 -0.7943242
vn 1 -4.606555E-07 8.286127E-07
vn 1 1.452438E-07 3.57162E-07
vn 1 9.4483E-08 4.581427E-07
vn 1 1.452439E-07 3.57162E-07
vn 1 1.452439E-07 3.57162E-07
vn 1 -1.057279E-07 5.524433E-07
vn 1 -1.05728E-07 5.524434E-07
vn 1 -1.057274E-07 5.524431E-07
vn 1 -1.057282E-07 5.524435E-07
vn 1 -1.057283E-07 5.524435E-07
vn 1 -1.057277E-07 5.524433E-07
vn 1 -1.057254E-07 5.524429E-07
vn 1 -1.057307E-07 5.524438E-07
vn 1 1.415746E-07 5.123383E-07
vn 1 2.177504E-07 4.094333E-07
vn 1 1.438278E-07 5.119724E-07
vn 1 1.438276E-07 5.119729E-07
vn 1 1.438274E-07 5.119737E-07
vn 1 1.438275E-07 5.119732E-07
vn 1 1.438276E-07 5.119732E-07
vn 1 1.438276E-07 5.11973E-07
vn 1 1.43828E-07 5.119726E-07
vn 1 2.76871E-07 3.274259E-07
vn 1 2.916732E-07 3.068938E-07
vn 1 2.916733E-07 3.068936E-07
vn 1 2.916726E-07 3.06894E-07
vn 1 2.916743E-07 3.068932E-07
vn 1 2.916734E-07 3.068935E-07
vn 1 2.916731E-07 3.068937E-07
vn 1 2.250074E-07 2.770899E-07
vn 1 2.512027E-07 5.73379E-08
vn 1 2.512028E-07 5.73377E-08
vn 1 2.512028E-07 5.733733E-08
vn 1 2.512012E-07 5.734446E-08
vn 1 2.512031E-07 5.733661E-08
vn 1 2.512029E-07 5.733714E-08
vn 1 2.512025E-07 5.73386E-08
vn 1 2.512021E-07 5.733974E-08
vn 1 1.452439E-07 3.57162E-07
vn 1 1.452439E-07 3.57162E-07
vn 1 1.452439E-07 3.57162E-07

f 1//1 2//2 3//3
f 4//4 1//1 3//3
f 3//3 5//5 4//4
f 3//3 6//6 5//5
f 5//5 6//6 7//7
f 8//8 7//7 6//6
f 9//9 8//8 6//6
f 10//10 9//9 6//6
f 9//9 10//10 11//11
f 11//11 10//10 12//12
f 13//13 11//11 12//12
f 13//13 12//12 14//14
f 13//13 14//14 15//15
f 15//15 14//14 16//16
f 15//15 16//16 17//17
f 18//18 17//17 16//16
f 19//19 17//17 18//18
f 19//19 18//18 20//20
f 21//21 19//19 20//20
f 22//22 19//19 21//21
f 22//22 21//21 23//23
f 24//24 22//22 23//23
f 24//24 23//23 25//25
f 26//26 24//24 25//25
f 26//26 25//25 27//27
f 28//28 26//26 27//27
f 28//28 27//27 29//29
f 29//29 27//27 30//30
f 31//31 29//29 30//30
f 31//31 30//30 32//32
f 33//33 31//31 32//32
f 33//33 32//32 34//34
f 35//35 33//33 34//34
f 35//35 34//34 36//36
f 37//37 35//35 36//36
f 37//37 36//36 38//38
f 39//39 37//37 38//38
f 39//39 38//38 40//40
f 41//41 39//39 40//40
f 41//41 40//40 42//42
f 41//41 42//42 43//43
f 43//43 42//42 44//44
f 45//45 43//43 44//44
f 45//45 44//44 46//46
f 47//47 45//45 46//46
f 48//48 45//45 47//47
f 48//48 47//47 49//49
f 50//50 48//48 49//49
f 50//50 49//49 51//51
f 52//52 50//50 51//51
f 52//52 51//51 53//53
f 54//54 52//52 53//53
f 55//55 54//54 53//53
f 55//55 53//53 56//56
f 55//55 56//56 57//57
f 57//57 56//56 58//58
f 57//57 58//58 59//59
f 59//59 58//58 60//60
f 59//59 60//60 61//61
f 61//61 60//60 62//62
f 61//61 62//62 63//63
f 63//63 62//62 64//64
f 63//63 64//64 65//65
f 65//65 64//64 66//66
f 65//65 66//66 67//67
f 68//68 67//67 66//66
f 69//69 67//67 68//68
f 69//69 68//68 70//70
f 71//71 69//69 70//70
f 72//72 71//71 73//73
f 74//74 75//75 76//76
f 77//77 74//74 76//76
f 75//75 77//77 76//76
f 78//78 75//75 74//74
f 79//79 75//75 78//78
f 78//78 74//74 80//80
f 81//81 78//78 80//80
f 82//82 78//78 81//81
f 82//82 83//83 78//78
f 83//83 84//84 79//79
f 84//84 85//85 79//79
f 80//80 74//74 86//86
f 87//87 80//80 86//86
f 81//81 80//80 87//87
f 86//86 74//74 88//88
f 88//88 74//74 77//77
f 86//86 88//88 89//89
f 90//90 86//86 89//89
f 87//87 86//86 90//90
f 75//75 91//91 77//77
f 90//90 89//89 92//92
f 90//90 92//92 93//93
f 94//94 90//90 93//93
f 95//95 83//83 82//82
f 95//95 82//82 81//81
f 95//95 81//81 87//87
f 95//95 87//87 90//90
f 95//95 96//96 83//83
f 97//97 91//91 75//75
f 97//97 98//98 91//91
f 97//97 99//99 98//98
f 100//100 95//95 101//101
f 102//102 103//103 104//104
f 102//102 104//104 105//105
f 102//102 105//105 106//106
f 106//106 105//105 107//107
f 108//108 102//102 106//106
f 109//109 102//102 108//108
f 110//110 108//108 106//106
f 111//111 112//112 113//113
f 111//111 113//113 114//114
f 111//111 114//114 115//115
f 111//111 115//115 116//116
f 111//111 116//116 117//117
f 117//117 118//118 111//111
f 118//118 119//119 111//111
f 120//120 111//111 119//119
f 120//120 121//121 111//111
f 121//121 122//122 111//111
f 111//111 122//122 123//123
f 114//114 113//113 124//124
f 124//124 113//113 125//125
f 125//125 113//113 126//126
f 126//126 113//113 127//127
f 127//127 113//113 128//128
f 128//128 113//113 129//129
f 129//129 113//113 130//130
f 130//130 113//113 131//131
f 131//131 113//113 132//132
f 132//132 113//113 133//133
f 133//133 113//113 134//134
f 133//133 134//134 135//135
f 135//135 134//134 136//136
f 134//134 137//137 136//136
f 137//137 134//134 138//138
f 138//138 134//134 139//139
f 139//139 134//134 140//140
f 140//140 134//134 141//141
f 134//134 142//142 141//141
f 134//134 143//143 142//142
f 134//134 144//144 143//143
f 144//144 134//134 145//145
f 145//145 134//134 146//146
f 147//147 134//134 148//148
f 149//149 150//150 151//151
f 149//149 152//152 150//150
f 151//151 150//150 153//153
f 151//151 153//153 154//154
f 154//154 153//153 155//155
f 154//154 155//155 156//156
f 152//152 157//157 150//150
f 158//158 159//159 160//160
f 161//161 159//159 158//158
f 162//162 159//159 161//161
f 163//163 162//162 161//161
f 164//164 162//162 163//163
f 165//165 162//162 164//164
f 9//9 166//166 8//8
f 166//166 9//9 167//167
f 168//168 169//169 170//170
f 168//168 171//171 169//169
f 172//172 169//169 173//173
f 174//174 169//169 172//172
f 169//169 174//174 175//175
f 176//176 169//169 175//175
f 177//177 169//169 176//176
f 178//178 169//169 177//177
f 178//178 179//179 169//169
f 179//179 180//180 169//169
f 180//180 181//181 169//169
f 182//182 181//181 180//180
f 182//182 183//183 181//181
f 183//183 184//184 181//181
f 184//184 185//185 181//181
f 185//185 186//186 181//181
f 186//186 187//187 181//181
f 187//187 188//188 181//181
f 188//188 189//189 181//181
f 181//181 189//189 190//190
f 181//181 190//190 191//191
f 192//192 181//181 191//191
f 193//193 181//181 192//192
f 194//194 181//181 193//193
f 195//195 181//181 194//194
f 195//195 196//196 181//181
f 196//196 197//197 198//198
f 196//196 198//198 199//199
f 199//199 200//200 196//196
f 196//196 200//200 201//201
f 201//201 202//202 196//196
f 196//196 202//202 203//203
f 196//196 203//203 204//204
f 205//205 196//196 206//206
f 207//207 196//196 205//205
