v 3.302975 -184.0707 202.5882
v 3.302972 -95.77881 158.4423
v 3.302975 -184.0707 202.5882
v 3.302974 -184.0707 202.5882
v 2.123343 -185.5782 199.5731
v 1.651489 -186.1813 198.3671
v 1.651489 -186.1813 198.3671
v 1.651487 -97.88938 154.2211
v 1.651483 -9.597504 110.0752
v 1.405184 -186.1874 198.3547
v -0.5652704 -9.65316 109.9639
v 1.374577 -186.1882 198.3532
v -0.8407324 -9.66008 109.9501
v 1.365984 -186.1884 198.3527
v -0.9180707 -9.662018 109.9462
v 1.269408 -186.1909 198.3479
v -1.787255 -9.683846 109.9025
v 0.07870236 -186.2207 198.2881
v -1.919555 -9.687164 109.8959
v -1.050237 -186.2491 198.2314
v -1.18011 -186.2523 198.2249
v -2.059422 -9.690674 109.8889
v -1.450989 -186.2592 198.2113
v -2.08952 -9.691429 109.8873
v -2.16933 -186.2772 198.1752
v -2.169337 -9.693436 109.8833
v -2.30497 -186.3451 198.0395
v -2.91623 -10.06719 109.1358
v -3.390091 -10.30432 108.6616
v -2.338623 -186.3619 198.0058
v -3.692979 -10.45589 108.3584
v -2.348639 -186.3669 197.9958
v -3.783118 -10.50099 108.2682
v -2.424335 -186.4048 197.92
v -4.464385 -10.8419 107.5864
v -3.292768 -186.8394 197.0508
v -4.560877 -10.89019 107.4898
v -4.010232 -187.1984 196.3328
v -4.640596 -10.93008 107.41
v -4.719382 -187.5533 195.623
v -4.719389 -10.96951 107.3312
v -4.712762 -187.606 195.5176
v -4.659818 -11.44408 106.382
v -4.697932 -187.7241 195.2813
v -4.52634 -12.50737 104.2555
v -4.656556 -188.0537 194.6221
v -4.64001 -188.1855 194.3585
v -4.519904 -12.55863 104.1529
v -4.583589 -188.635 193.4596
v -4.513636 -12.60857 104.0531
v -4.537132 -189.0051 192.7194
v -4.508473 -12.6497 103.9708
v -4.504884 -189.262 192.2056
v -4.50489 -12.67824 103.9137
v -4.504891 -12.67824 103.9137
v -4.335298 -189.3298 192.0701
v -2.978611 -13.28825 102.6937
v -4.285381 -189.3497 192.0302
v -2.529367 -13.4678 102.3346
v -4.280285 -189.3517 192.0261
v -2.483506 -13.48612 102.298
v -4.277922 -189.3527 192.0242
v -2.46224 -13.49462 102.281
v -4.274936 -189.3539 192.0218
v -2.43536 -13.50536 102.2595
v -4.219544 -189.376 191.9775
v -1.936828 -13.70461 101.861
v -1.651484 -190.4024 189.9248
v -1.651489 -13.81866 101.6329
v -1.651482 -190.4024 189.9248
v -1.651488 -13.81866 101.6329
v -1.651481 -190.4024 189.9248
v -1.651482 -190.4024 189.9248
v -2.123335 -191.0054 188.7187
v -3.302967 -192.513 185.7036
v -3.302967 -192.513 185.7036
v -3.302966 -192.513 185.7036
v -1.651481 -190.4024 189.9248
v -1.651482 -190.4024 189.9248
v -1.651481 -190.4024 189.9248
v -1.651488 -13.81866 101.6329
v -1.651488 -13.81866 101.6329
v -1.651488 -13.81866 101.6329
v -1.651482 -190.4024 189.9248
v -9.009771 -190.2321 190.2653
v -1.651481 -190.4024 189.9248
v -1.651488 -13.81866 101.6329
v -1.651481 -190.4024 189.9248
v -1.651485 -102.1105 145.7788
v -1.651488 -13.81866 101.6329
v -3.30297 -104.2211 141.5577
v -1.651488 -13.81874 101.6329
v -1.651488 -13.81866 101.6329
v -2.123341 -14.42168 100.4268
v -9.009778 -13.64841 101.9734
v -1.651489 -13.81866 101.6329
v -9.009771 -190.2321 190.2653
v -3.302973 -15.92923 97.41174
v -9.009778 -13.64841 101.9734
v -4.504891 -12.67824 103.9137
v -4.50489 -12.67824 103.9137
v 3.302972 -95.77881 158.4423
v 3.302975 -184.0707 202.5882
v 3.302974 -184.0707 202.5882
v 2.123343 -185.5782 199.5731
v 1.651487 -97.88938 154.2211
v 1.651489 -186.1813 198.3671
v 2.335552 -8.723282 111.8237
v 3.302969 -7.486931 114.2963
v 1.651483 -9.597504 110.0752
v 3.302975 -184.0707 202.5882
v -4.338665 -184.2625 202.2045
v -9.43877 -186.8147 197.1002
v -2.16933 -186.2772 198.1752
v -1.450989 -186.2592 198.2113
v -1.18011 -186.2523 198.2249
v -1.050237 -186.2491 198.2314
v 0.07870236 -186.2207 198.2881
v 1.269408 -186.1909 198.3479
v 1.365984 -186.1884 198.3527
v 1.374577 -186.1882 198.3532
v 1.405184 -186.1874 198.3547
v 1.651489 -186.1813 198.3671
v -2.30497 -186.3451 198.0395
v -2.338623 -186.3619 198.0058
v -2.348639 -186.3669 197.9958
v -2.424335 -186.4048 197.92
v -3.292768 -186.8394 197.0508
v -4.010232 -187.1984 196.3328
v -4.719382 -187.5533 195.623
v -4.712762 -187.606 195.5176
v -4.697932 -187.7241 195.2813
v -4.656556 -188.0537 194.6221
v -9.009771 -190.2321 190.2653
v -4.64001 -188.1855 194.3585
v -4.583589 -188.635 193.4596
v -4.537132 -189.0051 192.7194
v -4.504884 -189.262 192.2056
v -4.335298 -189.3298 192.0701
v -4.285381 -189.3497 192.0302
v -4.280285 -189.3517 192.0261
v -4.277922 -189.3527 192.0242
v -4.274936 -189.3539 192.0218
v -4.219544 -189.376 191.9775
v -1.651484 -190.4024 189.9248
v -1.651482 -190.4024 189.9248
v -1.651482 -190.4024 189.9248
v -3.302967 -192.513 185.7036
v 3.302975 -184.0707 202.5882
v -4.338671 -7.678802 113.9126
v -4.338665 -184.2625 202.2045
v 3.302972 -95.77881 158.4423
v -9.438776 -10.23096 108.8083
v -9.43877 -186.8147 197.1002
v -9.009778 -13.64841 101.9734
v -9.009771 -190.2321 190.2653
v 3.302969 -7.486931 114.2963
v -3.302966 -192.513 185.7036
v -1.651485 -102.1105 145.7788
v -1.651481 -190.4024 189.9248
v -3.30297 -104.2211 141.5577
v -1.651488 -13.81874 101.6329
v -3.302973 -15.92923 97.41174
v -2.123341 -14.42168 100.4268
v -1.651488 -13.81866 101.6329
v 1.651483 -9.597504 110.0752
v -4.338671 -7.678802 113.9126
v 2.335552 -8.723282 111.8237
v -4.338671 -7.678802 113.9126
v 3.302969 -7.486931 114.2963
v 1.651483 -9.597504 110.0752
v -0.5652704 -9.65316 109.9639
v 1.651483 -9.597504 110.0752
v -0.8407324 -9.66008 109.9501
v -0.9180707 -9.662018 109.9462
v -1.787255 -9.683846 109.9025
v -1.919555 -9.687164 109.8959
v -2.059422 -9.690674 109.8889
v -2.08952 -9.691429 109.8873
v -2.169337 -9.693436 109.8833
v -9.438776 -10.23096 108.8083
v -2.91623 -10.06719 109.1358
v -3.390091 -10.30432 108.6616
v -3.692979 -10.45589 108.3584
v -3.783118 -10.50099 108.2682
v -4.464385 -10.8419 107.5864
v -4.560877 -10.89019 107.4898
v -4.640596 -10.93008 107.41
v -4.719389 -10.96951 107.3312
v -4.659818 -11.44408 106.382
v -4.52634 -12.50737 104.2555
v -4.519904 -12.55863 104.1529
v -4.513636 -12.60857 104.0531
v -4.508473 -12.6497 103.9708
v -4.50489 -12.67824 103.9137
v -9.009778 -13.64841 101.9734
v -4.504891 -12.67824 103.9137
v -2.978611 -13.28825 102.6937
v -2.529367 -13.4678 102.3346
v -2.483506 -13.48612 102.298
v -2.46224 -13.49462 102.281
v -2.43536 -13.50536 102.2595
v -1.936828 -13.70461 101.861
v -1.651489 -13.81866 101.6329
v -2.123341 -14.42168 100.4268
v -1.651488 -13.81866 101.6329
v -3.302973 -15.92923 97.41174

vn 0.3302969 0.4221142 0.8442296
vn 0.3302969 0.4221143 0.8442295
vn 0.2507801 -0.2615921 0.9320294
vn 2.980232E-08 -0.8944272 0.4472136
vn 2.980232E-08 -0.8944272 0.4472136
vn 0.05605642 -0.4465103 -0.8930208
vn -0.3269773 -0.544363 -0.7724991
vn 0.8383362 -0.2437999 -0.4876002
vn 0.0560518 -0.4465102 -0.8930212
vn 0.05605096 -0.4465103 -0.8930213
vn 0.0560513 -0.4465102 -0.8930212
vn 0.05605232 -0.4465101 -0.8930212
vn 0.05605337 -0.44651 -0.8930212
vn 0.05604759 -0.4465107 -0.8930212
vn 0.05605036 -0.4465104 -0.8930212
vn 0.05605089 -0.4465103 -0.8930212
vn 0.05605075 -0.4465104 -0.8930213
vn 0.05605065 -0.4465103 -0.8930212
vn 0.05605095 -0.4465103 -0.8930212
vn 0.05605061 -0.4465103 -0.8930212
vn 0.05605178 -0.4465103 -0.8930212
vn 0.05605334 -0.4465102 -0.893021
vn 0.05605116 -0.4465103 -0.8930211
vn 0.05605029 -0.4465104 -0.8930212
vn 0.2060051 -0.4376211 -0.8752427
vn 0.7177517 -0.3113942 -0.6227889
vn 0.745631 -0.2980046 -0.5960099
vn 0.7456304 -0.2980049 -0.5960103
vn 0.7456302 -0.298005 -0.5960106
vn 0.7456289 -0.2980059 -0.5960119
vn 0.7456279 -0.2980064 -0.5960127
vn 0.7456268 -0.2980071 -0.5960137
vn 0.7456287 -0.2980059 -0.596012
vn 0.7456294 -0.2980053 -0.5960112
vn 0.7456299 -0.2980052 -0.5960109
vn 0.7456299 -0.298005 -0.5960109
vn 0.7456291 -0.2980055 -0.5960116
vn 0.7456297 -0.2980053 -0.5960112
vn 0.7456304 -0.2980048 -0.5960104
vn 0.787872 -0.2754113 -0.5508233
vn 0.9999506 -0.004447272 -0.008894905
vn 0.9984279 0.0250664 0.05013254
vn 0.9984279 0.02506691 0.05013348
vn 0.9984279 0.02506725 0.05013409
vn 0.9984278 0.02506723 0.05013409
vn 0.9984278 0.02506702 0.05013371
vn 0.9984279 0.02506666 0.05013327
vn 0.9984279 0.02506692 0.05013365
vn 0.9984279 0.02506674 0.05013333
vn 0.9984278 0.02506688 0.05013363
vn 0.9984279 0.02506687 0.05013363
vn 0.9984279 0.02506666 0.05013324
vn 0.9678033 0.112567 0.2251341
vn 0.9984292 0.02505627 0.05011246
vn 0.666361 0.3334554 0.6669111
vn 0.66636 0.3334558 0.6669118
vn 0.6663598 0.333456 0.6669121
vn 0.6663588 0.3334564 0.6669127
vn 0.6663604 0.3334557 0.6669116
vn 0.6663617 0.3334549 0.6669108
vn 0.6663636 0.3334538 0.6669092
vn 0.6663974 0.3334353 0.6668848
vn 0.6663762 0.333447 0.6669002
vn 0.666355 0.3334585 0.6669157
vn 0.6663581 0.3334569 0.6669134
vn 0.6663601 0.3334557 0.6669117
vn 0.6663606 0.3334555 0.6669114
vn 0.6663609 0.3334555 0.6669112
vn 0.6663646 0.333454 0.6669083
vn 0.7818497 0.2788228 0.5576458
vn 0.3302969 0.4221145 0.8442294
vn 0.3302969 0.4221145 0.8442294
vn 0.3302969 0.4221145 0.8442294
vn 2.980232E-08 -0.8944272 0.4472136
vn -0.6663604 -0.3334555 -0.6669117
vn 2.980232E-08 -0.8944272 0.4472136
vn 0.8929467 -0.2013186 -0.4026376
vn 0.2145159 -0.4059674 0.8883542
vn 0.1860723 -0.5011955 0.8450918
vn 0.3294622 0.3574996 0.87387
vn 0.3302969 0.4221145 0.8442294
vn 0.3302969 0.4221145 0.8442294
vn 0.3302969 0.4221145 0.8442294
vn 0.3285401 0.3277409 0.8858032
vn 2.980232E-08 -0.8944272 0.4472136
vn 0.3302759 0.4107535 0.8498232
vn 0.3302969 0.4221145 0.8442294
vn 0.3269773 0.2913809 0.89899
vn 0.3302907 0.4221155 0.8442314
vn 0.3296951 0.4750569 0.8158566
vn -0.6663603 -0.3334556 -0.6669116
vn 0.3302746 0.422118 0.8442364
vn 2.263369E-06 0.8944301 -0.4472078
vn -2.980232E-08 0.8944272 -0.4472136
vn -4.371641E-07 0.8944272 -0.4472135
vn 0 0 0
vn -0.6663604 -0.3334556 -0.6669116
vn -0.6663604 -0.3334557 -0.6669116
vn -0.6663604 -0.3334557 -0.6669117
vn -4.371641E-07 0.8944272 -0.4472135
vn -4.371641E-07 0.8944272 -0.4472135
vn 0.943877 -0.1477132 -0.2954267
vn 0.943877 -0.1477131 -0.2954266
vn 0.943877 -0.1477132 -0.2954267
vn 0.943877 -0.1477132 -0.2954267
vn 0.943877 -0.1477132 -0.2954267
vn 0.943877 -0.1477132 -0.2954267
vn 0.943877 -0.1477132 -0.2954267
vn 0.943877 -0.1477132 -0.2954267
vn 0.943877 -0.1477132 -0.2954267
vn 2.980232E-08 -0.8944272 0.4472136
vn 2.980232E-08 -0.8944272 0.4472136
vn 2.980232E-08 -0.8944272 0.4472136
vn 2.980232E-08 -0.8944272 0.4472136
vn 2.980232E-08 -0.8944272 0.4472136
vn 2.980232E-08 -0.8944272 0.4472136
vn 2.980232E-08 -0.8944272 0.4472136
vn 2.980232E-08 -0.8944272 0.4472136
vn 2.980232E-08 -0.8944272 0.4472136
vn 2.980232E-08 -0.8944272 0.4472136
vn 2.980232E-08 -0.8944272 0.4472136
vn 2.980232E-08 -0.8944272 0.4472136
vn 2.980232E-08 -0.8944272 0.4472136
vn 2.980232E-08 -0.8944271 0.4472136
vn 2.980232E-08 -0.8944272 0.4472136
vn 2.980232E-08 -0.8944272 0.4472136
vn 2.980232E-08 -0.8944271 0.4472136
vn 2.980232E-08 -0.8944272 0.4472136
vn 2.980232E-08 -0.8944272 0.4472136
vn 2.980232E-08 -0.8944272 0.4472136
vn 2.980232E-08 -0.8944271 0.4472136
vn 2.980232E-08 -0.8944272 0.4472136
vn 2.980232E-08 -0.8944272 0.4472136
vn 2.980232E-08 -0.8944272 0.4472136
vn 2.980232E-08 -0.8944272 0.4472136
vn 2.980232E-08 -0.8944272 0.4472136
vn 2.980232E-08 -0.8944272 0.4472136
vn 2.980232E-08 -0.8944272 0.4472136
vn 2.980232E-08 -0.8944272 0.4472136
vn 2.980232E-08 -0.8944272 0.4472136
vn 2.980232E-08 -0.8944272 0.4472136
vn 2.980232E-08 -0.8944271 0.4472136
vn 2.980232E-08 -0.8944272 0.4472136
vn 2.980232E-08 -0.8944271 0.4472136
vn 2.980232E-08 -0.8944271 0.4472136
vn 2.980232E-08 -0.8944272 0.4472136
vn 2.980232E-08 -0.8944271 0.4472136
vn 2.980232E-08 -0.8944271 0.4472136
vn -0.05605133 0.4465103 0.8930213
vn -0.3065594 0.4256807 0.851362
vn -0.5530193 0.372604 0.7452086
vn -0.05605136 0.4465102 0.8930211
vn -0.8898309 0.2040591 0.4081186
vn -0.9801827 0.08859091 0.1771821
vn -0.9984278 -0.02506695 -0.05013378
vn -0.9984279 -0.02506693 -0.05013376
vn -0.05605124 0.4465103 0.8930212
vn 0.943877 -0.1477132 -0.2954267
vn 0.943877 -0.1477132 -0.2954267
vn 0.943877 -0.1477132 -0.2954267
vn 0.943877 -0.1477132 -0.2954267
vn 0.943877 -0.1477132 -0.2954267
vn 0.943877 -0.1477132 -0.2954267
vn 0.943877 -0.1477131 -0.2954267
vn 0.943877 -0.1477131 -0.2954266
vn -0.3234332 -0.2319502 -0.9173822
vn 2.135469E-07 0.8944275 -0.447213
vn -2.334832E-07 0.8944272 -0.4472135
vn -2.134961E-07 0.8944272 -0.4472135
vn -2.334832E-07 0.8944272 -0.4472136
vn -2.334832E-07 0.8944272 -0.4472136
vn -4.83173E-08 0.8944273 -0.4472134
vn -4.831716E-08 0.8944273 -0.4472134
vn -4.831769E-08 0.8944273 -0.4472134
vn -4.831699E-08 0.8944273 -0.4472134
vn -4.831692E-08 0.8944273 -0.4472134
vn -4.831749E-08 0.8944273 -0.4472133
vn -4.83195E-08 0.8944273 -0.4472134
vn -4.831473E-08 0.8944273 -0.4472133
vn -2.74042E-07 0.8944273 -0.4472134
vn -3.178507E-07 0.8944272 -0.4472135
vn -2.760984E-07 0.8944273 -0.4472134
vn -2.760984E-07 0.8944273 -0.4472134
vn -2.760984E-07 0.8944273 -0.4472134
vn -2.760984E-07 0.8944273 -0.4472134
vn -2.760985E-07 0.8944273 -0.4472134
vn -2.760985E-07 0.8944273 -0.4472134
vn -2.760987E-07 0.8944273 -0.4472134
vn -3.512424E-07 0.8944272 -0.4472136
vn -3.596028E-07 0.8944272 -0.4472136
vn -3.596029E-07 0.8944272 -0.4472136
vn -3.596023E-07 0.8944272 -0.4472136
vn -3.596037E-07 0.8944272 -0.4472136
vn -3.59603E-07 0.8944272 -0.4472136
vn -3.596027E-07 0.8944272 -0.4472136
vn -2.872173E-07 0.8944272 -0.4472136
vn -2.499144E-07 0.8944271 -0.4472139
vn -2.499144E-07 0.8944271 -0.4472139
vn -2.499143E-07 0.8944271 -0.4472139
vn -2.499147E-07 0.8944271 -0.4472139
vn -2.499144E-07 0.8944271 -0.4472139
vn -2.499143E-07 0.8944271 -0.4472139
vn -2.499143E-07 0.8944271 -0.4472139
vn -2.499143E-07 0.894427 -0.4472138
vn -2.334832E-07 0.8944272 -0.4472136
vn -2.334832E-07 0.8944272 -0.4472136
vn -2.334832E-07 0.8944272 -0.4472135

f 1//1 2//2 3//3
f 4//4 1//1 3//3
f 3//3 5//5 4//4
f 3//3 6//6 5//5
f 5//5 6//6 7//7
f 8//8 7//7 6//6
f 9//9 8//8 6//6
f 10//10 9//9 6//6
f 9//9 10//10 11//11
f 11//11 10//10 12//12
f 13//13 11//11 12//12
f 13//13 12//12 14//14
f 13//13 14//14 15//15
f 15//15 14//14 16//16
f 15//15 16//16 17//17
f 18//18 17//17 16//16
f 19//19 17//17 18//18
f 19//19 18//18 20//20
f 21//21 19//19 20//20
f 22//22 19//19 21//21
f 22//22 21//21 23//23
f 24//24 22//22 23//23
f 24//24 23//23 25//25
f 26//26 24//24 25//25
f 26//26 25//25 27//27
f 28//28 26//26 27//27
f 28//28 27//27 29//29
f 29//29 27//27 30//30
f 31//31 29//29 30//30
f 31//31 30//30 32//32
f 33//33 31//31 32//32
f 33//33 32//32 34//34
f 35//35 33//33 34//34
f 35//35 34//34 36//36
f 37//37 35//35 36//36
f 37//37 36//36 38//38
f 39//39 37//37 38//38
f 39//39 38//38 40//40
f 41//41 39//39 40//40
f 41//41 40//40 42//42
f 41//41 42//42 43//43
f 43//43 42//42 44//44
f 45//45 43//43 44//44
f 45//45 44//44 46//46
f 47//47 45//45 46//46
f 48//48 45//45 47//47
f 48//48 47//47 49//49
f 50//50 48//48 49//49
f 50//50 49//49 51//51
f 52//52 50//50 51//51
f 52//52 51//51 53//53
f 54//54 52//52 53//53
f 55//55 54//54 53//53
f 55//55 53//53 56//56
f 55//55 56//56 57//57
f 57//57 56//56 58//58
f 57//57 58//58 59//59
f 59//59 58//58 60//60
f 59//59 60//60 61//61
f 61//61 60//60 62//62
f 61//61 62//62 63//63
f 63//63 62//62 64//64
f 63//63 64//64 65//65
f 65//65 64//64 66//66
f 65//65 66//66 67//67
f 68//68 67//67 66//66
f 69//69 67//67 68//68
f 69//69 68//68 70//70
f 71//71 69//69 70//70
f 72//72 71//71 73//73
f 74//74 75//75 76//76
f 77//77 74//74 76//76
f 75//75 77//77 76//76
f 78//78 75//75 74//74
f 79//79 75//75 78//78
f 78//78 74//74 80//80
f 81//81 78//78 80//80
f 82//82 78//78 81//81
f 82//82 83//83 78//78
f 83//83 84//84 79//79
f 84//84 85//85 79//79
f 80//80 74//74 86//86
f 87//87 80//80 86//86
f 81//81 80//80 87//87
f 86//86 74//74 88//88
f 88//88 74//74 77//77
f 86//86 88//88 89//89
f 90//90 86//86 89//89
f 87//87 86//86 90//90
f 75//75 91//91 77//77
f 90//90 89//89 92//92
f 90//90 92//92 93//93
f 94//94 90//90 93//93
f 95//95 83//83 82//82
f 95//95 82//82 81//81
f 95//95 81//81 87//87
f 95//95 87//87 90//90
f 95//95 96//96 83//83
f 97//97 91//91 75//75
f 97//97 98//98 91//91
f 97//97 99//99 98//98
f 100//100 95//95 101//101
f 102//102 103//103 104//104
f 102//102 104//104 105//105
f 102//102 105//105 106//106
f 106//106 105//105 107//107
f 108//108 102//102 106//106
f 109//109 102//102 108//108
f 110//110 108//108 106//106
f 111//111 112//112 113//113
f 111//111 113//113 114//114
f 111//111 114//114 115//115
f 111//111 115//115 116//116
f 111//111 116//116 117//117
f 117//117 118//118 111//111
f 118//118 119//119 111//111
f 120//120 111//111 119//119
f 120//120 121//121 111//111
f 121//121 122//122 111//111
f 111//111 122//122 123//123
f 114//114 113//113 124//124
f 124//124 113//113 125//125
f 125//125 113//113 126//126
f 126//126 113//113 127//127
f 127//127 113//113 128//128
f 128//128 113//113 129//129
f 129//129 113//113 130//130
f 130//130 113//113 131//131
f 131//131 113//113 132//132
f 132//132 113//113 133//133
f 133//133 113//113 134//134
f 133//133 134//134 135//135
f 135//135 134//134 136//136
f 134//134 137//137 136//136
f 137//137 134//134 138//138
f 138//138 134//134 139//139
f 139//139 134//134 140//140
f 140//140 134//134 141//141
f 134//134 142//142 141//141
f 134//134 143//143 142//142
f 134//134 144//144 143//143
f 144//144 134//134 145//145
f 145//145 134//134 146//146
f 147//147 134//134 148//148
f 149//149 150//150 151//151
f 149//149 152//152 150//150
f 151//151 150//150 153//153
f 151//151 153//153 154//154
f 154//154 153//153 155//155
f 154//154 155//155 156//156
f 152//152 157//157 150//150
f 158//158 159//159 160//160
f 161//161 159//159 158//158
f 162//162 159//159 161//161
f 163//163 162//162 161//161
f 164//164 162//162 163//163
f 165//165 162//162 164//164
f 9//9 166//166 8//8
f 166//166 9//9 167//167
f 168//168 169//169 170//170
f 168//168 171//171 169//169
f 172//172 169//169 173//173
f 174//174 169//169 172//172
f 169//169 174//174 175//175
f 176//176 169//169 175//175
f 177//177 169//169 176//176
f 178//178 169//169 177//177
f 178//178 179//179 169//169
f 179//179 180//180 169//169
f 180//180 181//181 169//169
f 182//182 181//181 180//180
f 182//182 183//183 181//181
f 183//183 184//184 181//181
f 184//184 185//185 181//181
f 185//185 186//186 181//181
f 186//186 187//187 181//181
f 187//187 188//188 181//181
f 188//188 189//189 181//181
f 181//181 189//189 190//190
f 181//181 190//190 191//191
f 192//192 181//181 191//191
f 193//193 181//181 192//192
f 194//194 181//181 193//193
f 195//195 181//181 194//194
f 195//195 196//196 181//181
f 196//196 197//197 198//198
f 196//196 198//198 199//199
f 199//199 200//200 196//196
f 196//196 200//200 201//201
f 201//201 202//202 196//196
f 196//196 202//202 203//203
f 196//196 203//203 204//204
f 205//205 196//196 206//206
f 207//207 196//196 205//205
