v -97.46554 -18.79812 -1.416256
v -97.46552 -104.3262 41.34778
v -97.46554 -18.79812 -1.416256
v -97.46554 -18.79812 -1.416256
v -98.3707 -17.25307 1.673828
v -98.73278 -16.63506 2.909863
v -98.73278 -16.63506 2.909863
v -98.73276 -102.1631 45.6739
v -98.73274 -187.6911 88.43793
v -98.97718 -16.62005 2.93988
v -100.9324 -187.5561 88.70807
v -99.00755 -16.61819 2.943607
v -101.2057 -187.5393 88.74164
v -99.01608 -16.61766 2.944656
v -101.2824 -187.5346 88.75107
v -99.1119 -16.61178 2.956425
v -102.1449 -187.4816 88.85699
v -100.2934 -16.53923 3.101528
v -102.2762 -187.4736 88.87311
v -101.4136 -16.47044 3.239105
v -101.5425 -16.46252 3.254929
v -102.4149 -187.465 88.89015
v -101.8113 -16.44602 3.287941
v -102.4448 -187.4632 88.89383
v -102.524 -16.40225 3.375481
v -102.524 -187.4583 88.90355
v -102.6471 -16.32973 3.520535
v -103.2014 -187.059 89.70229
v -103.6311 -186.8056 90.20904
v -102.6776 -16.31173 3.556526
v -103.9059 -186.6436 90.53294
v -102.6867 -16.30637 3.567238
v -103.9876 -186.5954 90.62935
v -102.7553 -16.2659 3.648186
v -104.6055 -186.2312 91.35789
v -103.5429 -15.80154 4.576897
v -104.693 -186.1796 91.46109
v -104.1936 -15.41792 5.344158
v -104.7653 -186.1369 91.54634
v -104.8368 -15.03873 6.102531
v -104.8367 -186.0948 91.6306
v -104.8207 -14.9864 6.207172
v -104.6922 -185.6239 92.57239
v -104.7847 -14.86918 6.441631
v -104.3682 -184.5688 94.68251
v -104.6843 -14.54212 7.095734
v -104.6441 -14.41133 7.357323
v -104.3526 -184.518 94.78426
v -104.5072 -13.96535 8.24929
v -104.3374 -184.4684 94.88336
v -104.3945 -13.59813 8.98373
v -104.3249 -184.4276 94.96497
v -104.3162 -13.34322 9.493542
v -104.3162 -184.3993 95.02161
v -104.3162 -184.3993 95.02161
v -104.135 -13.28175 9.616482
v -102.6853 -183.8461 96.12808
v -104.0816 -13.26366 9.652668
v -102.2053 -183.6832 96.45376
v -104.0762 -13.26181 9.656364
v -102.1563 -183.6666 96.48701
v -104.0737 -13.26096 9.658073
v -102.1335 -183.6589 96.50243
v -104.0705 -13.25987 9.66024
v -102.1048 -183.6492 96.52191
v -104.0113 -13.23979 9.700397
v -101.5721 -183.4684 96.88332
v -101.2673 -12.30894 11.5621
v -101.2672 -183.365 97.09018
v -101.2673 -12.30894 11.5621
v -101.2672 -183.365 97.09018
v -101.2673 -12.30894 11.5621
v -101.2673 -12.30894 11.5621
v -101.6293 -11.69093 12.79814
v -102.5345 -10.14588 15.88822
v -102.5345 -10.14588 15.88822
v -102.5345 -10.14588 15.88822
v -101.2673 -12.30894 11.5621
v -101.2673 -12.30894 11.5621
v -101.2673 -12.30894 11.5621
v -101.2672 -183.365 97.09018
v -101.2672 -183.365 97.09018
v -101.2672 -183.365 97.09018
v -101.2673 -12.30894 11.5621
v -108.6324 -12.21444 11.7511
v -101.2673 -12.30894 11.5621
v -101.2672 -183.365 97.09018
v -101.2673 -12.30894 11.5621
v -101.2672 -97.83699 54.32615
v -101.2672 -183.365 97.09018
v -102.5345 -95.67393 58.65226
v -101.2672 -183.3649 97.09013
v -101.2672 -183.365 97.09018
v -101.6293 -182.747 98.3262
v -108.6323 -183.2705 97.27916
v -101.2672 -183.365 97.09018
v -108.6324 -12.21444 11.7511
v -102.5345 -181.202 101.4163
v -108.6323 -183.2705 97.27916
v -104.3162 -184.3993 95.02161
v -104.3162 -184.3993 95.02161
v -97.46552 -104.3262 41.34778
v -97.46554 -18.79812 -1.416256
v -97.46554 -18.79812 -1.416256
v -98.3707 -17.25307 1.673828
v -98.73276 -102.1631 45.6739
v -98.73278 -16.63506 2.909863
v -98.20783 -188.5871 86.646
v -97.46551 -189.8542 84.11182
v -98.73274 -187.6911 88.43793
v -97.46554 -18.79812 -1.416256
v -105.0481 -18.3325 -0.4850197
v -109.6735 -15.60545 4.969078
v -102.524 -16.40225 3.375481
v -101.8113 -16.44602 3.287941
v -101.5425 -16.46252 3.254929
v -101.4136 -16.47044 3.239105
v -100.2934 -16.53923 3.101528
v -99.1119 -16.61178 2.956425
v -99.01608 -16.61766 2.944656
v -99.00755 -16.61819 2.943607
v -98.97718 -16.62005 2.93988
v -98.73278 -16.63506 2.909863
v -102.6471 -16.32973 3.520535
v -102.6776 -16.31173 3.556526
v -102.6867 -16.30637 3.567238
v -102.7553 -16.2659 3.648186
v -103.5429 -15.80154 4.576897
v -104.1936 -15.41792 5.344158
v -104.8368 -15.03873 6.102531
v -104.8207 -14.9864 6.207172
v -104.7847 -14.86918 6.441631
v -104.6843 -14.54212 7.095734
v -108.6324 -12.21444 11.7511
v -104.6441 -14.41133 7.357323
v -104.5072 -13.96535 8.24929
v -104.3945 -13.59813 8.98373
v -104.3162 -13.34322 9.493542
v -104.135 -13.28175 9.616482
v -104.0816 -13.26366 9.652668
v -104.0762 -13.26181 9.656364
v -104.0737 -13.26096 9.658073
v -104.0705 -13.25987 9.66024
v -104.0113 -13.23979 9.700397
v -101.2673 -12.30894 11.5621
v -101.2673 -12.30894 11.5621
v -101.2673 -12.30894 11.5621
v -102.5345 -10.14588 15.88822
v -97.46554 -18.79812 -1.416256
v -105.048 -189.3886 85.04305
v -105.0481 -18.3325 -0.4850197
v -97.46552 -104.3262 41.34778
v -109.6735 -186.6615 90.49715
v -109.6735 -15.60545 4.969078
v -108.6323 -183.2705 97.27916
v -108.6324 -12.21444 11.7511
v -97.46551 -189.8542 84.11182
v -102.5345 -10.14588 15.88822
v -101.2672 -97.83699 54.32615
v -101.2673 -12.30894 11.5621
v -102.5345 -95.67393 58.65226
v -101.2672 -183.3649 97.09013
v -102.5345 -181.202 101.4163
v -101.6293 -182.747 98.3262
v -101.2672 -183.365 97.09018
v -98.73274 -187.6911 88.43793
v -105.048 -189.3886 85.04305
v -98.20783 -188.5871 86.646
v -105.048 -189.3886 85.04305
v -97.46551 -189.8542 84.11182
v -98.73274 -187.6911 88.43793
v -100.9324 -187.5561 88.70807
v -98.73274 -187.6911 88.43793
v -101.2057 -187.5393 88.74164
v -101.2824 -187.5346 88.75107
v -102.1449 -187.4816 88.85699
v -102.2762 -187.4736 88.87311
v -102.4149 -187.465 88.89015
v -102.4448 -187.4632 88.89383
v -102.524 -187.4583 88.90355
v -109.6735 -186.6615 90.49715
v -103.2014 -187.059 89.70229
v -103.6311 -186.8056 90.20904
v -103.9059 -186.6436 90.53294
v -103.9876 -186.5954 90.62935
v -104.6055 -186.2312 91.35789
v -104.693 -186.1796 91.46109
v -104.7653 -186.1369 91.54634
v -104.8367 -186.0948 91.6306
v -104.6922 -185.6239 92.57239
v -104.3682 -184.5688 94.68251
v -104.3526 -184.518 94.78426
v -104.3374 -184.4684 94.88336
v -104.3249 -184.4276 94.96497
v -104.3162 -184.3993 95.02161
v -108.6323 -183.2705 97.27916
v -104.3162 -184.3993 95.02161
v -102.6853 -183.8461 96.12808
v -102.2053 -183.6832 96.45376
v -102.1563 -183.6666 96.48701
v -102.1335 -183.6589 96.50243
v -102.1048 -183.6492 96.52191
v -101.5721 -183.4684 96.88332
v -101.2672 -183.365 97.09018
v -101.6293 -182.747 98.3262
v -101.2672 -183.365 97.09018
v -102.5345 -181.202 101.4163

vn 0.2534477 -0.4326113 -0.8652237
vn 0.2534477 -0.4326114 -0.8652236
vn 0.1924317 0.2536222 -0.9479695
vn -1.788139E-07 0.8944273 -0.4472138
vn -1.788139E-07 0.8944273 -0.4472138
vn 0.1360383 0.4430561 0.8861123
vn -0.2509004 0.5547546 0.7932823
vn 0.8793997 0.2129112 0.4258227
vn 0.1360337 0.4430561 0.8861129
vn 0.1360329 0.4430563 0.8861131
vn 0.1360332 0.4430562 0.886113
vn 0.1360342 0.443056 0.886113
vn 0.1360353 0.4430559 0.8861128
vn 0.1360295 0.4430568 0.8861133
vn 0.1360323 0.4430564 0.8861131
vn 0.1360328 0.4430563 0.886113
vn 0.1360327 0.4430564 0.8861132
vn 0.1360326 0.4430563 0.886113
vn 0.1360329 0.4430563 0.886113
vn 0.1360325 0.4430563 0.8861131
vn 0.1360337 0.4430562 0.8861129
vn 0.1360352 0.4430561 0.8861127
vn 0.1360331 0.4430563 0.8861129
vn 0.1360322 0.4430564 0.8861131
vn 0.2839071 0.4288115 0.8576233
vn 0.7713399 0.2846171 0.5692345
vn 0.7967253 0.2702697 0.5405398
vn 0.7967247 0.27027 0.5405403
vn 0.7967246 0.2702701 0.5405406
vn 0.7967234 0.270271 0.540542
vn 0.7967225 0.2702715 0.5405428
vn 0.7967215 0.2702723 0.540544
vn 0.7967232 0.2702711 0.5405421
vn 0.7967239 0.2702705 0.5405413
vn 0.7967243 0.2702703 0.540541
vn 0.7967243 0.2702701 0.5405409
vn 0.7967236 0.2702706 0.5405416
vn 0.7967241 0.2702704 0.5405412
vn 0.7967248 0.2702699 0.5405403
vn 0.8347738 0.2462326 0.4924656
vn 0.997521 -0.03147168 -0.06294321
vn 0.9907046 -0.0608354 -0.1216707
vn 0.9907045 -0.0608359 -0.1216717
vn 0.9907044 -0.06083625 -0.1216723
vn 0.9907044 -0.06083622 -0.1216723
vn 0.9907044 -0.06083601 -0.1216719
vn 0.9907045 -0.06083565 -0.1216715
vn 0.9907045 -0.06083592 -0.1216718
vn 0.9907045 -0.06083573 -0.1216715
vn 0.9907044 -0.06083587 -0.1216718
vn 0.9907045 -0.06083586 -0.1216718
vn 0.9907045 -0.06083566 -0.1216714
vn 0.9444697 -0.1469539 -0.2939081
vn 0.9907077 -0.06082535 -0.1216508
vn 0.604344 -0.3563055 -0.7126114
vn 0.6043429 -0.3563059 -0.712612
vn 0.6043427 -0.3563061 -0.7126123
vn 0.6043417 -0.3563065 -0.7126129
vn 0.6043434 -0.3563057 -0.7126119
vn 0.6043447 -0.3563051 -0.7126113
vn 0.6043468 -0.356304 -0.7126098
vn 0.6043828 -0.3562868 -0.7125878
vn 0.6043603 -0.3562977 -0.7126016
vn 0.6043375 -0.3563084 -0.7126155
vn 0.6043409 -0.3563069 -0.7126135
vn 0.6043431 -0.3563058 -0.712612
vn 0.6043435 -0.3563057 -0.7126117
vn 0.6043438 -0.3563056 -0.7126116
vn 0.6043478 -0.3563043 -0.7126089
vn 0.7292682 -0.3059961 -0.6119925
vn 0.2534477 -0.4326116 -0.8652235
vn 0.2534477 -0.4326116 -0.8652235
vn 0.2534477 -0.4326116 -0.8652235
vn -1.788139E-07 0.8944273 -0.4472138
vn -0.6043433 0.3563056 0.712612
vn -1.788139E-07 0.8944273 -0.4472138
vn 0.9262072 0.1686062 0.3372126
vn 0.1646049 0.3991501 -0.9019893
vn 0.1427792 0.4952822 -0.856919
vn 0.2528071 -0.3679701 -0.8948111
vn 0.2534477 -0.4326116 -0.8652235
vn 0.2534477 -0.4326116 -0.8652235
vn 0.2534477 -0.4326116 -0.8652235
vn 0.2520996 -0.3381821 -0.9066857
vn -1.788139E-07 0.8944273 -0.4472138
vn 0.2534329 -0.42125 -0.8708161
vn 0.2534477 -0.4326116 -0.8652235
vn 0.2509003 -0.3017725 -0.9197732
vn 0.2534412 -0.4326123 -0.8652251
vn 0.2529843 -0.4855348 -0.8368125
vn -0.6043433 0.3563057 0.7126119
vn 0.2534248 -0.4326142 -0.8652289
vn 1.938439E-06 -0.8944303 0.4472078
vn 1.788139E-07 -0.8944273 0.4472138
vn -2.38678E-07 -0.8944274 0.4472137
vn 0 0 0
vn -0.6043434 0.3563057 0.7126119
vn -0.6043434 0.3563057 0.7126119
vn -0.6043434 0.3563057 0.712612
vn -2.38678E-07 -0.8944274 0.4472137
vn -2.38678E-07 -0.8944274 0.4472137
vn 0.9673493 0.1133451 0.2266904
vn 0.9673492 0.1133451 0.2266903
vn 0.9673493 0.1133451 0.2266904
vn 0.9673493 0.1133451 0.2266904
vn 0.9673493 0.1133451 0.2266904
vn 0.9673493 0.1133451 0.2266904
vn 0.9673493 0.1133451 0.2266904
vn 0.9673493 0.1133451 0.2266904
vn 0.9673493 0.1133451 0.2266904
vn -1.788139E-07 0.8944273 -0.4472138
vn -1.788139E-07 0.8944273 -0.4472138
vn -1.788139E-07 0.8944273 -0.4472138
vn -1.788139E-07 0.8944273 -0.4472138
vn -1.788139E-07 0.8944273 -0.4472138
vn -1.788139E-07 0.8944273 -0.4472138
vn -1.788139E-07 0.8944273 -0.4472138
vn -1.788139E-07 0.8944273 -0.4472138
vn -1.788139E-07 0.8944273 -0.4472138
vn -1.788139E-07 0.8944273 -0.4472138
vn -1.788139E-07 0.8944273 -0.4472138
vn -1.788139E-07 0.8944273 -0.4472138
vn -1.788139E-07 0.8944273 -0.4472138
vn -1.788139E-07 0.8944272 -0.4472138
vn -1.788139E-07 0.8944273 -0.4472138
vn -1.788139E-07 0.8944273 -0.4472138
vn -1.788139E-07 0.8944272 -0.4472138
vn -1.788139E-07 0.8944273 -0.4472138
vn -1.788139E-07 0.8944273 -0.4472138
vn -1.788139E-07 0.8944273 -0.4472138
vn -1.788139E-07 0.8944272 -0.4472138
vn -1.788139E-07 0.8944273 -0.4472138
vn -1.788139E-07 0.8944273 -0.4472138
vn -1.788139E-07 0.8944273 -0.4472138
vn -1.788139E-07 0.8944273 -0.4472138
vn -1.788139E-07 0.8944273 -0.4472138
vn -1.788139E-07 0.8944273 -0.4472138
vn -1.788139E-07 0.8944273 -0.4472138
vn -1.788139E-07 0.8944273 -0.4472138
vn -1.788139E-07 0.8944273 -0.4472138
vn -1.788139E-07 0.8944273 -0.4472138
vn -1.788139E-07 0.8944272 -0.4472138
vn -1.788139E-07 0.8944273 -0.4472138
vn -1.788139E-07 0.8944272 -0.4472138
vn -1.788139E-07 0.8944272 -0.4472138
vn -1.788139E-07 0.8944273 -0.4472138
vn -1.788139E-07 0.8944272 -0.4472138
vn -1.788139E-07 0.8944272 -0.4472138
vn -0.1360333 -0.4430562 -0.8861131
vn -0.381993 -0.413299 -0.8265986
vn -0.6181284 -0.3515442 -0.7030889
vn -0.1360333 -0.4430561 -0.8861129
vn -0.9235935 -0.1714498 -0.3428997
vn -0.9929234 -0.05311011 -0.1062203
vn -0.9907044 0.06083594 0.121672
vn -0.9907044 0.06083592 0.121672
vn -0.1360331 -0.4430562 -0.886113
vn 0.9673493 0.1133451 0.2266904
vn 0.9673493 0.1133451 0.2266904
vn 0.9673493 0.1133451 0.2266904
vn 0.9673493 0.1133451 0.2266904
vn 0.9673493 0.1133451 0.2266904
vn 0.9673493 0.1133451 0.2266904
vn 0.9673493 0.1133451 0.2266904
vn 0.9673492 0.1133451 0.2266903
vn -0.2481809 0.2422291 0.9379401
vn 3.655437E-07 -0.8944276 0.4472132
vn -2.993203E-08 -0.8944273 0.4472137
vn -1.89408E-08 -0.8944274 0.4472137
vn -2.993204E-08 -0.8944273 0.4472138
vn -2.993204E-08 -0.8944273 0.4472138
vn 1.338794E-07 -0.8944274 0.4472135
vn 1.338795E-07 -0.8944274 0.4472135
vn 1.33879E-07 -0.8944274 0.4472135
vn 1.338797E-07 -0.8944274 0.4472135
vn 1.338797E-07 -0.8944274 0.4472135
vn 1.338792E-07 -0.8944274 0.4472135
vn 1.338773E-07 -0.8944274 0.4472135
vn 1.338818E-07 -0.8944274 0.4472135
vn -8.238934E-08 -0.8944274 0.4472136
vn -1.163975E-07 -0.8944274 0.4472138
vn -8.435963E-08 -0.8944274 0.4472136
vn -8.435963E-08 -0.8944274 0.4472136
vn -8.435973E-08 -0.8944274 0.4472136
vn -8.43597E-08 -0.8944274 0.4472136
vn -8.435971E-08 -0.8944274 0.4472136
vn -8.435975E-08 -0.8944274 0.4472136
vn -8.43599E-08 -0.8944274 0.4472136
vn -1.420201E-07 -0.8944273 0.4472139
vn -1.484354E-07 -0.8944273 0.4472139
vn -1.484354E-07 -0.8944273 0.4472139
vn -1.484349E-07 -0.8944273 0.4472139
vn -1.484361E-07 -0.8944273 0.4472139
vn -1.484355E-07 -0.8944273 0.4472139
vn -1.484352E-07 -0.8944273 0.4472139
vn -7.550948E-08 -0.8944273 0.4472139
vn -2.081265E-08 -0.8944272 0.4472141
vn -2.081263E-08 -0.8944272 0.4472141
vn -2.081256E-08 -0.8944272 0.4472141
vn -2.081356E-08 -0.8944272 0.4472141
vn -2.081254E-08 -0.8944272 0.4472141
vn -2.081252E-08 -0.8944272 0.4472141
vn -2.081267E-08 -0.8944272 0.4472141
vn -2.081273E-08 -0.8944271 0.447214
vn -2.993204E-08 -0.8944273 0.4472138
vn -2.993205E-08 -0.8944273 0.4472138
vn -2.993205E-08 -0.8944273 0.4472137

f 1//1 2//2 3//3
f 4//4 1//1 3//3
f 3//3 5//5 4//4
f 3//3 6//6 5//5
f 5//5 6//6 7//7
f 8//8 7//7 6//6
f 9//9 8//8 6//6
f 10//10 9//9 6//6
f 9//9 10//10 11//11
f 11//11 10//10 12//12
f 13//13 11//11 12//12
f 13//13 12//12 14//14
f 13//13 14//14 15//15
f 15//15 14//14 16//16
f 15//15 16//16 17//17
f 18//18 17//17 16//16
f 19//19 17//17 18//18
f 19//19 18//18 20//20
f 21//21 19//19 20//20
f 22//22 19//19 21//21
f 22//22 21//21 23//23
f 24//24 22//22 23//23
f 24//24 23//23 25//25
f 26//26 24//24 25//25
f 26//26 25//25 27//27
f 28//28 26//26 27//27
f 28//28 27//27 29//29
f 29//29 27//27 30//30
f 31//31 29//29 30//30
f 31//31 30//30 32//32
f 33//33 31//31 32//32
f 33//33 32//32 34//34
f 35//35 33//33 34//34
f 35//35 34//34 36//36
f 37//37 35//35 36//36
f 37//37 36//36 38//38
f 39//39 37//37 38//38
f 39//39 38//38 40//40
f 41//41 39//39 40//40
f 41//41 40//40 42//42
f 41//41 42//42 43//43
f 43//43 42//42 44//44
f 45//45 43//43 44//44
f 45//45 44//44 46//46
f 47//47 45//45 46//46
f 48//48 45//45 47//47
f 48//48 47//47 49//49
f 50//50 48//48 49//49
f 50//50 49//49 51//51
f 52//52 50//50 51//51
f 52//52 51//51 53//53
f 54//54 52//52 53//53
f 55//55 54//54 53//53
f 55//55 53//53 56//56
f 55//55 56//56 57//57
f 57//57 56//56 58//58
f 57//57 58//58 59//59
f 59//59 58//58 60//60
f 59//59 60//60 61//61
f 61//61 60//60 62//62
f 61//61 62//62 63//63
f 63//63 62//62 64//64
f 63//63 64//64 65//65
f 65//65 64//64 66//66
f 65//65 66//66 67//67
f 68//68 67//67 66//66
f 69//69 67//67 68//68
f 69//69 68//68 70//70
f 71//71 69//69 70//70
f 72//72 71//71 73//73
f 74//74 75//75 76//76
f 77//77 74//74 76//76
f 75//75 77//77 76//76
f 78//78 75//75 74//74
f 79//79 75//75 78//78
f 78//78 74//74 80//80
f 81//81 78//78 80//80
f 82//82 78//78 81//81
f 82//82 83//83 78//78
f 83//83 84//84 79//79
f 84//84 85//85 79//79
f 80//80 74//74 86//86
f 87//87 80//80 86//86
f 81//81 80//80 87//87
f 86//86 74//74 88//88
f 88//88 74//74 77//77
f 86//86 88//88 89//89
f 90//90 86//86 89//89
f 87//87 86//86 90//90
f 75//75 91//91 77//77
f 90//90 89//89 92//92
f 90//90 92//92 93//93
f 94//94 90//90 93//93
f 95//95 83//83 82//82
f 95//95 82//82 81//81
f 95//95 81//81 87//87
f 95//95 87//87 90//90
f 95//95 96//96 83//83
f 97//97 91//91 75//75
f 97//97 98//98 91//91
f 97//97 99//99 98//98
f 100//100 95//95 101//101
f 102//102 103//103 104//104
f 102//102 104//104 105//105
f 102//102 105//105 106//106
f 106//106 105//105 107//107
f 108//108 102//102 106//106
f 109//109 102//102 108//108
f 110//110 108//108 106//106
f 111//111 112//112 113//113
f 111//111 113//113 114//114
f 111//111 114//114 115//115
f 111//111 115//115 116//116
f 111//111 116//116 117//117
f 117//117 118//118 111//111
f 118//118 119//119 111//111
f 120//120 111//111 119//119
f 120//120 121//121 111//111
f 121//121 122//122 111//111
f 111//111 122//122 123//123
f 114//114 113//113 124//124
f 124//124 113//113 125//125
f 125//125 113//113 126//126
f 126//126 113//113 127//127
f 127//127 113//113 128//128
f 128//128 113//113 129//129
f 129//129 113//113 130//130
f 130//130 113//113 131//131
f 131//131 113//113 132//132
f 132//132 113//113 133//133
f 133//133 113//113 134//134
f 133//133 134//134 135//135
f 135//135 134//134 136//136
f 134//134 137//137 136//136
f 137//137 134//134 138//138
f 138//138 134//134 139//139
f 139//139 134//134 140//140
f 140//140 134//134 141//141
f 134//134 142//142 141//141
f 134//134 143//143 142//142
f 134//134 144//144 143//143
f 144//144 134//134 145//145
f 145//145 134//134 146//146
f 147//147 134//134 148//148
f 149//149 150//150 151//151
f 149//149 152//152 150//150
f 151//151 150//150 153//153
f 151//151 153//153 154//154
f 154//154 153//153 155//155
f 154//154 155//155 156//156
f 152//152 157//157 150//150
f 158//158 159//159 160//160
f 161//161 159//159 158//158
f 162//162 159//159 161//161
f 163//163 162//162 161//161
f 164//164 162//162 163//163
f 165//165 162//162 164//164
f 9//9 166//166 8//8
f 166//166 9//9 167//167
f 168//168 169//169 170//170
f 168//168 171//171 169//169
f 172//172 169//169 173//173
f 174//174 169//169 172//172
f 169//169 174//174 175//175
f 176//176 169//169 175//175
f 177//177 169//169 176//176
f 178//178 169//169 177//177
f 178//178 179//179 169//169
f 179//179 180//180 169//169
f 180//180 181//181 169//169
f 182//182 181//181 180//180
f 182//182 183//183 181//181
f 183//183 184//184 181//181
f 184//184 185//185 181//181
f 185//185 186//186 181//181
f 186//186 187//187 181//181
f 187//187 188//188 181//181
f 188//188 189//189 181//181
f 181//181 189//189 190//190
f 181//181 190//190 191//191
f 192//192 181//181 191//191
f 193//193 181//181 192//192
f 194//194 181//181 193//193
f 195//195 181//181 194//194
f 195//195 196//196 181//181
f 196//196 197//197 198//198
f 196//196 198//198 199//199
f 199//199 200//200 196//196
f 196//196 200//200 201//201
f 201//201 202//202 196//196
f 196//196 202//202 203//203
f 196//196 203//203 204//204
f 205//205 196//196 206//206
f 207//207 196//196 205//205
