v -103.8958 -209.2099 13.09013
v -103.8958 -209.2099 50.00002
v -103.8958 -209.2099 13.09013
v -103.8958 -209.2099 13.09013
v -102.5044 -205.9207 13.09013
v -101.9479 -204.605 13.09013
v -101.9479 -204.605 13.09013
v -101.9479 -204.605 50.00002
v -101.9479 -204.605 86.9099
v -102.121 -204.4292 13.09013
v -103.5061 -203.0233 86.9099
v -102.1425 -204.4074 13.09013
v -103.6997 -202.8268 86.9099
v -102.1486 -204.4013 13.09013
v -103.7541 -202.7716 86.9099
v -102.2165 -204.3324 13.09013
v -104.365 -202.1515 86.9099
v -103.0534 -203.4828 13.09013
v -104.458 -202.0571 86.9099
v -103.8469 -202.6773 13.09013
v -103.9382 -202.5847 13.09013
v -104.5563 -201.9573 86.9099
v -104.1286 -202.3914 13.09013
v -104.5775 -201.9358 86.9099
v -104.6336 -201.8788 13.09013
v -104.6336 -201.8788 86.9099
v -104.632 -201.6753 13.09013
v -104.6252 -200.758 86.9099
v -104.6199 -200.0469 86.9099
v -104.6317 -201.6248 13.09013
v -104.6165 -199.5924 86.9099
v -104.6316 -201.6098 13.09013
v -104.6155 -199.4571 86.9099
v -104.6307 -201.4962 13.09013
v -104.6078 -198.4348 86.9099
v -104.621 -200.193 13.09013
v -104.6068 -198.29 86.9099
v -104.6129 -199.1163 13.09013
v -104.6059 -198.1704 86.9099
v -104.605 -198.0521 13.09013
v -104.605 -198.0521 86.9099
v -104.5208 -197.9692 13.09013
v -103.8479 -197.3062 86.9099
v -104.3324 -197.7836 13.09013
v -102.1515 -195.635 86.9099
v -103.8065 -197.2655 13.09013
v -103.5962 -197.0583 13.09013
v -102.0697 -195.5544 86.9099
v -102.8791 -196.3519 13.09013
v -101.99 -195.4759 86.9099
v -102.2887 -195.7702 13.09013
v -101.9244 -195.4113 86.9099
v -101.8788 -195.3664 13.09013
v -101.8789 -195.3664 86.9099
v -101.8789 -195.3664 86.9099
v -101.6514 -195.3681 13.09013
v -99.83194 -195.3817 86.9099
v -101.5845 -195.3686 13.09013
v -99.22945 -195.3862 86.9099
v -101.5776 -195.3687 13.09013
v -99.16795 -195.3867 86.9099
v -101.5745 -195.3687 13.09013
v -99.13943 -195.3869 86.9099
v -101.5705 -195.3687 13.09013
v -99.10338 -195.3872 86.9099
v -101.4962 -195.3693 13.09013
v -98.43479 -195.3922 86.9099
v -98.05212 -195.395 13.09013
v -98.05212 -195.395 86.9099
v -98.05212 -195.395 13.09013
v -98.05212 -195.395 86.9099
v -98.05212 -195.395 13.09013
v -98.05212 -195.395 13.09013
v -97.49557 -194.0793 13.09013
v -96.10423 -190.7901 13.09013
v -96.10423 -190.7901 13.09013
v -96.10423 -190.7901 13.09013
v -98.05212 -195.395 13.09013
v -98.05212 -195.395 13.09013
v -98.05212 -195.395 13.09013
v -98.05212 -195.395 86.9099
v -98.05212 -195.395 86.9099
v -98.05212 -195.395 86.9099
v -98.05212 -195.395 13.09013
v -103.7577 -190.7329 13.09013
v -98.05212 -195.395 13.09013
v -98.05212 -195.395 86.9099
v -98.05212 -195.395 13.09013
v -98.05212 -195.395 50.00002
v -98.05212 -195.395 86.9099
v -96.10423 -190.7901 50.00002
v -98.05212 -195.395 86.90987
v -98.05212 -195.395 86.9099
v -97.49558 -194.0793 86.9099
v -103.7577 -190.7329 86.9099
v -98.05212 -195.395 86.9099
v -103.7577 -190.7329 13.09013
v -96.10424 -190.7901 86.9099
v -103.7577 -190.7329 86.9099
v -101.8789 -195.3664 86.9099
v -101.8789 -195.3664 86.9099
v -103.8958 -209.2099 50.00002
v -103.8958 -209.2099 13.09013
v -103.8958 -209.2099 13.09013
v -102.5044 -205.9207 13.09013
v -101.9479 -204.605 50.00002
v -101.9479 -204.605 13.09013
v -102.7547 -206.5124 86.9099
v -103.8958 -209.2099 86.9099
v -101.9479 -204.605 86.9099
v -103.8958 -209.2099 13.09013
v -109.2671 -203.7577 13.09013
v -109.2099 -196.1042 13.09013
v -104.6336 -201.8788 13.09013
v -104.1286 -202.3914 13.09013
v -103.9382 -202.5847 13.09013
v -103.8469 -202.6773 13.09013
v -103.0534 -203.4828 13.09013
v -102.2165 -204.3324 13.09013
v -102.1486 -204.4013 13.09013
v -102.1425 -204.4074 13.09013
v -102.121 -204.4292 13.09013
v -101.9479 -204.605 13.09013
v -104.632 -201.6753 13.09013
v -104.6317 -201.6248 13.09013
v -104.6316 -201.6098 13.09013
v -104.6307 -201.4962 13.09013
v -104.621 -200.193 13.09013
v -104.6129 -199.1163 13.09013
v -104.605 -198.0521 13.09013
v -104.5208 -197.9692 13.09013
v -104.3324 -197.7836 13.09013
v -103.8065 -197.2655 13.09013
v -103.7577 -190.7329 13.09013
v -103.5962 -197.0583 13.09013
v -102.8791 -196.3519 13.09013
v -102.2887 -195.7702 13.09013
v -101.8788 -195.3664 13.09013
v -101.6514 -195.3681 13.09013
v -101.5845 -195.3686 13.09013
v -101.5776 -195.3687 13.09013
v -101.5745 -195.3687 13.09013
v -101.5705 -195.3687 13.09013
v -101.4962 -195.3693 13.09013
v -98.05212 -195.395 13.09013
v -98.05212 -195.395 13.09013
v -98.05212 -195.395 13.09013
v -96.10423 -190.7901 13.09013
v -103.8958 -209.2099 13.09013
v -109.2671 -203.7577 86.9099
v -109.2671 -203.7577 13.09013
v -103.8958 -209.2099 50.00002
v -109.21 -196.1042 86.9099
v -109.2099 -196.1042 13.09013
v -103.7577 -190.7329 86.9099
v -103.7577 -190.7329 13.09013
v -103.8958 -209.2099 86.9099
v -96.10423 -190.7901 13.09013
v -98.05212 -195.395 50.00002
v -98.05212 -195.395 13.09013
v -96.10423 -190.7901 50.00002
v -98.05212 -195.395 86.90987
v -96.10424 -190.7901 86.9099
v -97.49558 -194.0793 86.9099
v -98.05212 -195.395 86.9099
v -101.9479 -204.605 86.9099
v -109.2671 -203.7577 86.9099
v -102.7547 -206.5124 86.9099
v -109.2671 -203.7577 86.9099
v -103.8958 -209.2099 86.9099
v -101.9479 -204.605 86.9099
v -103.5061 -203.0233 86.9099
v -101.9479 -204.605 86.9099
v -103.6997 -202.8268 86.9099
v -103.7541 -202.7716 86.9099
v -104.365 -202.1515 86.9099
v -104.458 -202.0571 86.9099
v -104.5563 -201.9573 86.9099
v -104.5775 -201.9358 86.9099
v -104.6336 -201.8788 86.9099
v -109.21 -196.1042 86.9099
v -104.6252 -200.758 86.9099
v -104.6199 -200.0469 86.9099
v -104.6165 -199.5924 86.9099
v -104.6155 -199.4571 86.9099
v -104.6078 -198.4348 86.9099
v -104.6068 -198.29 86.9099
v -104.6059 -198.1704 86.9099
v -104.605 -198.0521 86.9099
v -103.8479 -197.3062 86.9099
v -102.1515 -195.635 86.9099
v -102.0697 -195.5544 86.9099
v -101.99 -195.4759 86.9099
v -101.9244 -195.4113 86.9099
v -101.8789 -195.3664 86.9099
v -103.7577 -190.7329 86.9099
v -101.8789 -195.3664 86.9099
v -99.83194 -195.3817 86.9099
v -99.22945 -195.3862 86.9099
v -99.16795 -195.3867 86.9099
v -99.13943 -195.3869 86.9099
v -99.10338 -195.3872 86.9099
v -98.43479 -195.3922 86.9099
v -98.05212 -195.395 86.9099
v -97.49558 -194.0793 86.9099
v -98.05212 -195.395 86.9099
v -96.10424 -190.7901 86.9099

vn -0.3895764 -0.9209942 -5.340573E-07
vn -0.3895764 -0.9209942 -3.814695E-07
vn -0.2957884 -0.699271 -0.6507915
vn 0 0 -1
vn 0 0 -1
vn 0.7123743 0.7017998 6.462384E-08
vn 0.385661 0.9117379 -0.141421
vn 0.9871926 -0.1595331 1.883212E-07
vn 0.7123711 0.701803 3.424388E-07
vn 0.7123705 0.7018037 3.013172E-07
vn 0.7123707 0.7018034 3.400592E-07
vn 0.7123715 0.7018027 4.23643E-07
vn 0.7123721 0.7018019 4.821553E-07
vn 0.7123681 0.701806 -1.095606E-07
vn 0.71237 0.701804 1.780024E-07
vn 0.7123704 0.7018036 2.260705E-07
vn 0.7123704 0.7018039 2.089217E-07
vn 0.7123703 0.7018039 2.077589E-07
vn 0.7123705 0.7018036 2.217208E-07
vn 0.7123703 0.7018039 2.409156E-07
vn 0.7123711 0.701803 2.351288E-07
vn 0.7123721 0.7018019 2.778157E-07
vn 0.7123706 0.7018034 1.673259E-07
vn 0.71237 0.7018041 1.81142E-07
vn 0.8100753 0.5863259 1.839747E-07
vn 0.999441 0.03343213 2.087928E-07
vn 0.9999722 -0.007474757 2.638546E-07
vn 0.999972 -0.007473935 2.243663E-07
vn 0.9999721 -0.00747361 2.046674E-07
vn 0.9999722 -0.00747152 5.134435E-08
vn 0.9999721 -0.007470218 -3.311141E-08
vn 0.9999721 -0.007468535 -2.493531E-07
vn 0.9999722 -0.007471364 1.725448E-08
vn 0.999972 -0.007472546 1.95488E-07
vn 0.9999722 -0.007473125 2.545912E-07
vn 0.9999721 -0.007473211 3.133277E-07
vn 0.999972 -0.007472065 2.147517E-07
vn 0.9999722 -0.007472726 2.354087E-07
vn 0.9999721 -0.007473931 2.762392E-07
vn 0.9973119 -0.07327378 2.850269E-07
vn 0.7472749 -0.6645154 1.199789E-07
vn 0.7018044 -0.7123699 7.869004E-08
vn 0.7018037 -0.7123707 1.061353E-07
vn 0.7018032 -0.7123712 1.468234E-07
vn 0.7018031 -0.7123712 1.18347E-07
vn 0.7018034 -0.7123708 1.005928E-07
vn 0.7018038 -0.7123705 -2.558145E-08
vn 0.7018036 -0.7123708 4.388409E-08
vn 0.7018039 -0.7123706 2.142637E-08
vn 0.7018035 -0.7123708 1.39089E-08
vn 0.7018036 -0.7123708 6.971244E-09
vn 0.7018039 -0.7123704 -1.713521E-09
vn 0.5476578 -0.8367026 -6.568341E-08
vn 0.7018204 -0.7123541 -3.749557E-09
vn -0.007471895 -0.9999722 -1.50355E-07
vn -0.007473183 -0.9999721 -1.053244E-07
vn -0.007473629 -0.9999722 -6.846021E-08
vn -0.007474839 -0.9999721 3.948485E-08
vn -0.007472776 -0.9999722 -1.617078E-07
vn -0.007471167 -0.9999723 -4.500969E-07
vn -0.007468424 -0.9999722 -7.290806E-07
vn -0.007423181 -0.9999725 -6.344964E-06
vn -0.007451557 -0.9999724 -2.762224E-06
vn -0.00748007 -0.9999722 5.911334E-07
vn -0.007475954 -0.9999722 2.018595E-07
vn -0.007473073 -0.9999722 -1.357496E-07
vn -0.007472459 -0.9999722 -1.613505E-07
vn -0.007472189 -0.9999722 -1.611313E-07
vn -0.007467164 -0.9999723 -9.115077E-08
vn 0.1601449 -0.9870937 -9.305478E-08
vn -0.3895764 -0.9209942 -1.907347E-07
vn -0.3895764 -0.9209942 -1.907347E-07
vn -0.3895764 -0.9209942 -1.907347E-07
vn 0 0 -1
vn 0.007472831 0.9999722 2.936142E-07
vn 0 0 -1
vn 0.9638129 -0.2665799 1.677742E-07
vn -0.2530158 -0.5981525 -0.7603925
vn -0.2194672 -0.5188406 -0.8262196
vn -0.3885919 -0.9186667 -0.07104921
vn -0.3895764 -0.9209942 -1.90735E-07
vn -0.3895764 -0.9209942 -1.907347E-07
vn -0.3895764 -0.9209942 -1.907344E-07
vn -0.3875042 -0.9160955 -0.1030029
vn 0 0 -1
vn -0.3895398 -0.9209226 -0.01266336
vn -0.3895764 -0.9209942 -1.907357E-07
vn -0.3856609 -0.9117377 -0.1414215
vn -0.3895825 -0.9209917 -1.907358E-07
vn -0.3888793 -0.9193302 0.06004162
vn 0.007472808 0.9999721 2.232893E-07
vn -0.3895982 -0.920985 -1.907376E-07
vn -2.704734E-06 -6.394238E-06 1
vn 0 0 1
vn -3.974859E-07 1.681348E-07 1
vn 0 0 0
vn 0.007472748 0.9999722 2.130985E-07
vn 0.007472776 0.9999722 1.778031E-07
vn 0.007472772 0.9999723 2.029078E-07
vn -3.974859E-07 1.681348E-07 1
vn -3.974859E-07 1.681348E-07 1
vn 0.9209942 -0.3895766 1.192093E-07
vn 0.9209942 -0.3895765 1.192093E-07
vn 0.9209942 -0.3895766 1.192093E-07
vn 0.9209942 -0.3895766 1.192093E-07
vn 0.9209942 -0.3895766 1.192093E-07
vn 0.9209942 -0.3895766 1.192093E-07
vn 0.9209942 -0.3895766 1.192093E-07
vn 0.9209942 -0.3895766 1.192093E-07
vn 0.9209942 -0.3895766 1.192093E-07
vn 0 0 -1
vn 0 0 -1
vn 0 0 -1
vn 0 0 -1
vn 0 0 -1
vn 0 0 -1
vn 0 0 -1
vn 0 0 -1
vn 0 0 -1
vn 0 0 -1
vn 0 0 -1
vn 0 0 -1
vn 0 0 -1
vn 0 0 -1
vn 0 0 -1
vn 0 0 -1
vn 0 0 -1
vn 0 0 -1
vn 0 0 -1
vn 0 0 -1
vn 0 0 -1
vn 0 0 -1
vn 0 0 -1
vn 0 0 -1
vn 0 0 -1
vn 0 0 -1
vn 0 0 -1
vn 0 0 -1
vn 0 0 -1
vn 0 0 -1
vn 0 0 -1
vn 0 0 -1
vn 0 0 -1
vn 0 0 -1
vn 0 0 -1
vn 0 0 -1
vn 0 0 -1
vn 0 0 -1
vn -0.7123708 -0.7018034 -3.427891E-07
vn -0.8666091 -0.4989877 -3.092419E-07
vn -0.9693998 -0.2454876 -2.619401E-07
vn -0.7123707 -0.7018033 -3.23738E-07
vn -0.9656228 0.2599478 -1.531119E-07
vn -0.8590553 0.5118831 -7.358349E-08
vn -0.7018034 0.7123709 -7.245399E-09
vn -0.7018034 0.7123709 0
vn -0.7123706 -0.7018034 -2.570785E-07
vn 0.9209942 -0.3895766 1.192093E-07
vn 0.9209942 -0.3895766 1.192093E-07
vn 0.9209942 -0.3895766 1.192093E-07
vn 0.9209942 -0.3895766 1.192093E-07
vn 0.9209942 -0.3895766 1.192093E-07
vn 0.9209942 -0.3895766 1.192093E-07
vn 0.9209942 -0.3895766 1.283793E-07
vn 0.9209942 -0.3895765 1.283793E-07
vn 0.3814808 0.9018555 0.2028033
vn -2.870238E-07 -6.785506E-07 1
vn -1.987429E-07 8.406739E-08 1
vn -2.586834E-07 -1.174958E-08 1
vn -1.987429E-07 8.406739E-08 1
vn -1.987429E-07 8.406739E-08 1
vn -2.353101E-07 -2.318194E-07 1
vn -2.353101E-07 -2.318195E-07 1
vn -2.353102E-07 -2.318188E-07 1
vn -2.3531E-07 -2.318197E-07 1
vn -2.3531E-07 -2.318198E-07 1
vn -2.353102E-07 -2.318192E-07 1
vn -2.35311E-07 -2.31817E-07 1
vn -2.353091E-07 -2.31822E-07 1
vn -3.294528E-07 3.531296E-10 1
vn -2.81065E-07 1.188893E-07 1
vn -3.303101E-07 2.468776E-09 1
vn -3.303104E-07 2.468347E-09 1
vn -3.30311E-07 2.46779E-09 1
vn -3.303107E-07 2.468154E-09 1
vn -3.303107E-07 2.468193E-09 1
vn -3.303106E-07 2.468311E-09 1
vn -3.303103E-07 2.468874E-09 1
vn -2.416802E-07 2.119984E-07 1
vn -2.318196E-07 2.353102E-07 1
vn -2.318195E-07 2.353104E-07 1
vn -2.318195E-07 2.353096E-07 1
vn -2.318196E-07 2.353114E-07 1
vn -2.318195E-07 2.353105E-07 1
vn -2.318195E-07 2.353101E-07 1
vn -1.717313E-07 1.938132E-07 1
vn 2.468431E-09 3.303107E-07 1
vn 2.468574E-09 3.303108E-07 1
vn 2.468851E-09 3.303111E-07 1
vn 2.463638E-09 3.303059E-07 1
vn 2.469336E-09 3.303117E-07 1
vn 2.468996E-09 3.303112E-07 1
vn 2.467959E-09 3.303101E-07 1
vn 2.467177E-09 3.303091E-07 1
vn -1.987429E-07 8.40674E-08 1
vn -1.987429E-07 8.406742E-08 1
vn -1.987429E-07 8.406739E-08 1

f 1//1 2//2 3//3
f 4//4 1//1 3//3
f 3//3 5//5 4//4
f 3//3 6//6 5//5
f 5//5 6//6 7//7
f 8//8 7//7 6//6
f 9//9 8//8 6//6
f 10//10 9//9 6//6
f 9//9 10//10 11//11
f 11//11 10//10 12//12
f 13//13 11//11 12//12
f 13//13 12//12 14//14
f 13//13 14//14 15//15
f 15//15 14//14 16//16
f 15//15 16//16 17//17
f 18//18 17//17 16//16
f 19//19 17//17 18//18
f 19//19 18//18 20//20
f 21//21 19//19 20//20
f 22//22 19//19 21//21
f 22//22 21//21 23//23
f 24//24 22//22 23//23
f 24//24 23//23 25//25
f 26//26 24//24 25//25
f 26//26 25//25 27//27
f 28//28 26//26 27//27
f 28//28 27//27 29//29
f 29//29 27//27 30//30
f 31//31 29//29 30//30
f 31//31 30//30 32//32
f 33//33 31//31 32//32
f 33//33 32//32 34//34
f 35//35 33//33 34//34
f 35//35 34//34 36//36
f 37//37 35//35 36//36
f 37//37 36//36 38//38
f 39//39 37//37 38//38
f 39//39 38//38 40//40
f 41//41 39//39 40//40
f 41//41 40//40 42//42
f 41//41 42//42 43//43
f 43//43 42//42 44//44
f 45//45 43//43 44//44
f 45//45 44//44 46//46
f 47//47 45//45 46//46
f 48//48 45//45 47//47
f 48//48 47//47 49//49
f 50//50 48//48 49//49
f 50//50 49//49 51//51
f 52//52 50//50 51//51
f 52//52 51//51 53//53
f 54//54 52//52 53//53
f 55//55 54//54 53//53
f 55//55 53//53 56//56
f 55//55 56//56 57//57
f 57//57 56//56 58//58
f 57//57 58//58 59//59
f 59//59 58//58 60//60
f 59//59 60//60 61//61
f 61//61 60//60 62//62
f 61//61 62//62 63//63
f 63//63 62//62 64//64
f 63//63 64//64 65//65
f 65//65 64//64 66//66
f 65//65 66//66 67//67
f 68//68 67//67 66//66
f 69//69 67//67 68//68
f 69//69 68//68 70//70
f 71//71 69//69 70//70
f 72//72 71//71 73//73
f 74//74 75//75 76//76
f 77//77 74//74 76//76
f 75//75 77//77 76//76
f 78//78 75//75 74//74
f 79//79 75//75 78//78
f 78//78 74//74 80//80
f 81//81 78//78 80//80
f 82//82 78//78 81//81
f 82//82 83//83 78//78
f 83//83 84//84 79//79
f 84//84 85//85 79//79
f 80//80 74//74 86//86
f 87//87 80//80 86//86
f 81//81 80//80 87//87
f 86//86 74//74 88//88
f 88//88 74//74 77//77
f 86//86 88//88 89//89
f 90//90 86//86 89//89
f 87//87 86//86 90//90
f 75//75 91//91 77//77
f 90//90 89//89 92//92
f 90//90 92//92 93//93
f 94//94 90//90 93//93
f 95//95 83//83 82//82
f 95//95 82//82 81//81
f 95//95 81//81 87//87
f 95//95 87//87 90//90
f 95//95 96//96 83//83
f 97//97 91//91 75//75
f 97//97 98//98 91//91
f 97//97 99//99 98//98
f 100//100 95//95 101//101
f 102//102 103//103 104//104
f 102//102 104//104 105//105
f 102//102 105//105 106//106
f 106//106 105//105 107//107
f 108//108 102//102 106//106
f 109//109 102//102 108//108
f 110//110 108//108 106//106
f 111//111 112//112 113//113
f 111//111 113//113 114//114
f 111//111 114//114 115//115
f 111//111 115//115 116//116
f 111//111 116//116 117//117
f 117//117 118//118 111//111
f 118//118 119//119 111//111
f 120//120 111//111 119//119
f 120//120 121//121 111//111
f 121//121 122//122 111//111
f 111//111 122//122 123//123
f 114//114 113//113 124//124
f 124//124 113//113 125//125
f 125//125 113//113 126//126
f 126//126 113//113 127//127
f 127//127 113//113 128//128
f 128//128 113//113 129//129
f 129//129 113//113 130//130
f 130//130 113//113 131//131
f 131//131 113//113 132//132
f 132//132 113//113 133//133
f 133//133 113//113 134//134
f 133//133 134//134 135//135
f 135//135 134//134 136//136
f 134//134 137//137 136//136
f 137//137 134//134 138//138
f 138//138 134//134 139//139
f 139//139 134//134 140//140
f 140//140 134//134 141//141
f 134//134 142//142 141//141
f 134//134 143//143 142//142
f 134//134 144//144 143//143
f 144//144 134//134 145//145
f 145//145 134//134 146//146
f 147//147 134//134 148//148
f 149//149 150//150 151//151
f 149//149 152//152 150//150
f 151//151 150//150 153//153
f 151//151 153//153 154//154
f 154//154 153//153 155//155
f 154//154 155//155 156//156
f 152//152 157//157 150//150
f 158//158 159//159 160//160
f 161//161 159//159 158//158
f 162//162 159//159 161//161
f 163//163 162//162 161//161
f 164//164 162//162 163//163
f 165//165 162//162 164//164
f 9//9 166//166 8//8
f 166//166 9//9 167//167
f 168//168 169//169 170//170
f 168//168 171//171 169//169
f 172//172 169//169 173//173
f 174//174 169//169 172//172
f 169//169 174//174 175//175
f 176//176 169//169 175//175
f 177//177 169//169 176//176
f 178//178 169//169 177//177
f 178//178 179//179 169//169
f 179//179 180//180 169//169
f 180//180 181//181 169//169
f 182//182 181//181 180//180
f 182//182 183//183 181//181
f 183//183 184//184 181//181
f 184//184 185//185 181//181
f 185//185 186//186 181//181
f 186//186 187//187 181//181
f 187//187 188//188 181//181
f 188//188 189//189 181//181
f 181//181 189//189 190//190
f 181//181 190//190 191//191
f 192//192 181//181 191//191
f 193//193 181//181 192//192
f 194//194 181//181 193//193
f 195//195 181//181 194//194
f 195//195 196//196 181//181
f 196//196 197//197 198//198
f 196//196 198//198 199//199
f 199//199 200//200 196//196
f 196//196 200//200 201//201
f 201//201 202//202 196//196
f 196//196 202//202 203//203
f 196//196 203//203 204//204
f 205//205 196//196 206//206
f 207//207 196//196 205//205
