v -3.285235 -209.445 186.9099
v -3.285235 -209.445 150
v -3.285235 -209.445 186.9099
v -3.285234 -209.445 186.9099
v -2.111937 -206.0718 186.9099
v -1.642618 -204.7225 186.9099
v -1.642618 -204.7225 186.9099
v -1.642618 -204.7225 150
v -1.642618 -204.7225 113.0901
v -1.396339 -204.7082 186.9099
v 0.5738984 -204.5939 113.0901
v -1.365735 -204.7064 186.9099
v 0.8493311 -204.5779 113.0901
v -1.357143 -204.7059 186.9099
v 0.9266608 -204.5734 113.0901
v -1.260577 -204.7003 186.9099
v 1.795752 -204.523 113.0901
v -0.0699994 -204.6312 186.9099
v 1.928038 -204.5153 113.0901
v 1.058819 -204.5657 186.9099
v 1.188678 -204.5582 186.9099
v 2.06789 -204.5072 113.0901
v 1.459528 -204.5425 186.9099
v 2.097984 -204.5054 113.0901
v 2.177792 -204.5008 186.9099
v 2.177794 -204.5008 113.0901
v 2.313147 -204.3488 186.9099
v 2.923115 -203.6637 113.0901
v 3.395979 -203.1325 113.0901
v 2.346729 -204.3111 186.9099
v 3.69823 -202.7931 113.0901
v 2.356724 -204.2998 186.9099
v 3.78818 -202.692 113.0901
v 2.432261 -204.215 186.9099
v 4.468013 -201.9284 113.0901
v 3.298867 -203.2416 186.9099
v 4.564302 -201.8203 113.0901
v 4.014822 -202.4375 186.9099
v 4.643853 -201.7309 113.0901
v 4.722479 -201.6426 186.9099
v 4.722481 -201.6426 113.0901
v 4.715638 -201.5247 186.9099
v 4.660916 -200.5816 113.0901
v 4.700312 -201.2606 186.9099
v 4.522972 -198.2043 113.0901
v 4.657551 -200.5237 186.9099
v 4.640452 -200.2289 186.9099
v 4.516321 -198.0896 113.0901
v 4.582142 -199.224 186.9099
v 4.509843 -197.978 113.0901
v 4.534132 -198.3966 186.9099
v 4.504507 -197.886 113.0901
v 4.500804 -197.8222 186.9099
v 4.500805 -197.8222 113.0901
v 4.500806 -197.8222 113.0901
v 4.330934 -197.671 186.9099
v 2.971965 -196.4611 113.0901
v 4.280933 -197.6264 186.9099
v 2.521968 -196.0604 113.0901
v 4.275829 -197.6219 186.9099
v 2.47603 -196.0195 113.0901
v 4.273461 -197.6198 186.9099
v 2.454728 -196.0006 113.0901
v 4.270471 -197.6171 186.9099
v 2.427804 -195.9766 113.0901
v 4.214985 -197.5677 186.9099
v 1.928435 -195.532 113.0901
v 1.642618 -195.2775 186.9099
v 1.642617 -195.2775 113.0901
v 1.642616 -195.2775 186.9099
v 1.642617 -195.2775 113.0901
v 1.642616 -195.2775 186.9099
v 1.642616 -195.2775 186.9099
v 2.111935 -193.9282 186.9099
v 3.285233 -190.555 186.9099
v 3.285233 -190.555 186.9099
v 3.285232 -190.555 186.9099
v 1.642616 -195.2775 186.9099
v 1.642616 -195.2775 186.9099
v 1.642616 -195.2775 186.9099
v 1.642617 -195.2775 113.0901
v 1.642617 -195.2775 113.0901
v 1.642617 -195.2775 113.0901
v 1.642616 -195.2775 186.9099
v 9.001609 -195.6444 186.9099
v 1.642616 -195.2775 186.9099
v 1.642617 -195.2775 113.0901
v 1.642616 -195.2775 186.9099
v 1.642616 -195.2775 150
v 1.642617 -195.2775 113.0901
v 3.285233 -190.555 150
v 1.642617 -195.2775 113.0902
v 1.642617 -195.2775 113.0901
v 2.111935 -193.9282 113.0901
v 9.00161 -195.6444 113.0901
v 1.642617 -195.2775 113.0901
v 9.001609 -195.6444 186.9099
v 3.285233 -190.555 113.0901
v 9.00161 -195.6444 113.0901
v 4.500806 -197.8222 113.0901
v 4.500805 -197.8222 113.0901
v -3.285235 -209.445 150
v -3.285235 -209.445 186.9099
v -3.285234 -209.445 186.9099
v -2.111937 -206.0718 186.9099
v -1.642618 -204.7225 150
v -1.642618 -204.7225 186.9099
v -2.323012 -206.6786 113.0901
v -3.285235 -209.445 113.0901
v -1.642618 -204.7225 113.0901
v -3.285235 -209.445 186.9099
v 4.355587 -209.0016 186.9099
v 9.444962 -203.2852 186.9099
v 2.177792 -204.5008 186.9099
v 1.459528 -204.5425 186.9099
v 1.188678 -204.5582 186.9099
v 1.058819 -204.5657 186.9099
v -0.0699994 -204.6312 186.9099
v -1.260577 -204.7003 186.9099
v -1.357143 -204.7059 186.9099
v -1.365735 -204.7064 186.9099
v -1.396339 -204.7082 186.9099
v -1.642618 -204.7225 186.9099
v 2.313147 -204.3488 186.9099
v 2.346729 -204.3111 186.9099
v 2.356724 -204.2998 186.9099
v 2.432261 -204.215 186.9099
v 3.298867 -203.2416 186.9099
v 4.014822 -202.4375 186.9099
v 4.722479 -201.6426 186.9099
v 4.715638 -201.5247 186.9099
v 4.700312 -201.2606 186.9099
v 4.657551 -200.5237 186.9099
v 9.001609 -195.6444 186.9099
v 4.640452 -200.2289 186.9099
v 4.582142 -199.224 186.9099
v 4.534132 -198.3966 186.9099
v 4.500804 -197.8222 186.9099
v 4.330934 -197.671 186.9099
v 4.280933 -197.6264 186.9099
v 4.275829 -197.6219 186.9099
v 4.273461 -197.6198 186.9099
v 4.270471 -197.6171 186.9099
v 4.214985 -197.5677 186.9099
v 1.642618 -195.2775 186.9099
v 1.642616 -195.2775 186.9099
v 1.642616 -195.2775 186.9099
v 3.285233 -190.555 186.9099
v -3.285235 -209.445 186.9099
v 4.355587 -209.0016 113.0901
v 4.355587 -209.0016 186.9099
v -3.285235 -209.445 150
v 9.444963 -203.2852 113.0901
v 9.444962 -203.2852 186.9099
v 9.00161 -195.6444 113.0901
v 9.001609 -195.6444 186.9099
v -3.285235 -209.445 113.0901
v 3.285232 -190.555 186.9099
v 1.642616 -195.2775 150
v 1.642616 -195.2775 186.9099
v 3.285233 -190.555 150
v 1.642617 -195.2775 113.0902
v 3.285233 -190.555 113.0901
v 2.111935 -193.9282 113.0901
v 1.642617 -195.2775 113.0901
v -1.642618 -204.7225 113.0901
v 4.355587 -209.0016 113.0901
v -2.323012 -206.6786 113.0901
v 4.355587 -209.0016 113.0901
v -3.285235 -209.445 113.0901
v -1.642618 -204.7225 113.0901
v 0.5738984 -204.5939 113.0901
v -1.642618 -204.7225 113.0901
v 0.8493311 -204.5779 113.0901
v 0.9266608 -204.5734 113.0901
v 1.795752 -204.523 113.0901
v 1.928038 -204.5153 113.0901
v 2.06789 -204.5072 113.0901
v 2.097984 -204.5054 113.0901
v 2.177794 -204.5008 113.0901
v 9.444963 -203.2852 113.0901
v 2.923115 -203.6637 113.0901
v 3.395979 -203.1325 113.0901
v 3.69823 -202.7931 113.0901
v 3.78818 -202.692 113.0901
v 4.468013 -201.9284 113.0901
v 4.564302 -201.8203 113.0901
v 4.643853 -201.7309 113.0901
v 4.722481 -201.6426 113.0901
v 4.660916 -200.5816 113.0901
v 4.522972 -198.2043 113.0901
v 4.516321 -198.0896 113.0901
v 4.509843 -197.978 113.0901
v 4.504507 -197.886 113.0901
v 4.500805 -197.8222 113.0901
v 9.00161 -195.6444 113.0901
v 4.500806 -197.8222 113.0901
v 2.971965 -196.4611 113.0901
v 2.521968 -196.0604 113.0901
v 2.47603 -196.0195 113.0901
v 2.454728 -196.0006 113.0901
v 2.427804 -195.9766 113.0901
v 1.928435 -195.532 113.0901
v 1.642617 -195.2775 113.0901
v 2.111935 -193.9282 113.0901
v 1.642617 -195.2775 113.0901
v 3.285233 -190.555 113.0901

vn -0.3285233 -0.9444959 5.340572E-07
vn -0.3285233 -0.9444959 3.814694E-07
vn -0.2494335 -0.7171147 0.6507913
vn 0 0 1
vn 0 0 1
vn -0.0579319 0.9983206 -6.462383E-08
vn 0.3252215 0.9350034 0.141421
vn -0.8393588 0.5435777 -1.883212E-07
vn -0.05792727 0.9983208 -3.424387E-07
vn -0.05792644 0.9983209 -3.013172E-07
vn -0.05792677 0.9983209 -3.400592E-07
vn -0.05792779 0.9983209 -4.236429E-07
vn -0.05792885 0.9983207 -4.821552E-07
vn -0.05792307 0.9983211 1.095606E-07
vn -0.05792584 0.9983209 -1.780023E-07
vn -0.05792637 0.9983209 -2.260704E-07
vn -0.05792623 0.998321 -2.089216E-07
vn -0.05792613 0.9983209 -2.077588E-07
vn -0.05792642 0.9983209 -2.217208E-07
vn -0.05792608 0.9983209 -2.409156E-07
vn -0.05792725 0.9983209 -2.351288E-07
vn -0.05792882 0.9983207 -2.778156E-07
vn -0.05792663 0.9983208 -1.673258E-07
vn -0.05792576 0.998321 -1.811419E-07
vn -0.207843 0.9781623 -1.839746E-07
vn -0.7190585 0.6949495 -2.087927E-07
vn -0.7468815 0.6649573 -2.638545E-07
vn -0.7468809 0.6649578 -2.243663E-07
vn -0.7468807 0.6649581 -2.046673E-07
vn -0.7468794 0.6649597 -5.134434E-08
vn -0.7468784 0.6649606 3.311141E-08
vn -0.7468773 0.6649619 2.493531E-07
vn -0.7468792 0.6649598 -1.725448E-08
vn -0.7468799 0.6649588 -1.95488E-07
vn -0.7468805 0.6649585 -2.545912E-07
vn -0.7468804 0.6649584 -3.133276E-07
vn -0.7468796 0.6649592 -2.147517E-07
vn -0.7468802 0.6649588 -2.354086E-07
vn -0.7468809 0.6649578 -2.762392E-07
vn -0.7890276 0.6143579 -2.850269E-07
vn -0.9999676 0.008066253 -1.199789E-07
vn -0.9983209 -0.05792543 -7.869002E-08
vn -0.9983209 -0.05792651 -1.061353E-07
vn -0.9983209 -0.05792721 -1.468234E-07
vn -0.9983208 -0.0579272 -1.18347E-07
vn -0.9983208 -0.05792677 -1.005928E-07
vn -0.9983209 -0.05792621 2.558145E-08
vn -0.9983209 -0.05792667 -4.388408E-08
vn -0.9983209 -0.0579263 -2.142637E-08
vn -0.9983208 -0.05792663 -1.39089E-08
vn -0.9983209 -0.05792662 -6.971242E-09
vn -0.9983209 -0.05792618 1.713521E-09
vn -0.9673288 -0.2535252 6.568339E-08
vn -0.9983222 -0.05790295 3.749556E-09
vn -0.6649593 -0.7468797 1.50355E-07
vn -0.6649582 -0.7468805 1.053244E-07
vn -0.664958 -0.7468809 6.84602E-08
vn -0.664957 -0.7468816 -3.948485E-08
vn -0.6649586 -0.7468803 1.617077E-07
vn -0.6649598 -0.7468793 4.500968E-07
vn -0.6649618 -0.7468773 7.290805E-07
vn -0.6649956 -0.7468473 6.344963E-06
vn -0.6649745 -0.7468662 2.762223E-06
vn -0.6649532 -0.7468851 -5.911333E-07
vn -0.6649563 -0.7468824 -2.018595E-07
vn -0.6649584 -0.7468804 1.357495E-07
vn -0.6649588 -0.7468801 1.613505E-07
vn -0.664959 -0.7468799 1.611312E-07
vn -0.6649628 -0.7468765 9.115076E-08
vn -0.7806772 -0.6249346 9.305477E-08
vn -0.3285233 -0.9444959 1.907347E-07
vn -0.3285233 -0.9444959 1.907347E-07
vn -0.3285233 -0.9444959 1.907347E-07
vn 0 0 1
vn 0.6649585 0.7468803 -2.936142E-07
vn 0 0 1
vn -0.8937908 0.4484842 -1.677742E-07
vn -0.213364 -0.613416 0.7603924
vn -0.185073 -0.5320802 0.8262195
vn -0.327693 -0.942109 0.0710492
vn -0.3285233 -0.9444959 1.90735E-07
vn -0.3285233 -0.9444959 1.907347E-07
vn -0.3285233 -0.9444959 1.907343E-07
vn -0.3267759 -0.9394722 0.1030029
vn 0 0 1
vn -0.3285024 -0.9444183 0.01266336
vn -0.3285233 -0.9444959 1.907357E-07
vn -0.3252214 -0.9350032 0.1414215
vn -0.328517 -0.9444981 1.907357E-07
vn -0.3279247 -0.942794 -0.06004161
vn 0.6649585 0.7468802 -2.232892E-07
vn -0.328501 -0.9445037 1.907375E-07
vn -2.280857E-06 -6.557405E-06 -1
vn 0 0 -1
vn 4.076288E-07 -1.417852E-07 -1
vn 0 0 0
vn 0.6649587 0.7468803 -2.130985E-07
vn 0.6649586 0.7468803 -1.778031E-07
vn 0.6649587 0.7468804 -2.029077E-07
vn 4.076288E-07 -1.417852E-07 -1
vn 4.076288E-07 -1.417852E-07 -1
vn -0.9444959 0.3285233 -1.192093E-07
vn -0.9444959 0.3285232 -1.192092E-07
vn -0.9444959 0.3285233 -1.192093E-07
vn -0.9444959 0.3285233 -1.192093E-07
vn -0.9444959 0.3285233 -1.192093E-07
vn -0.9444959 0.3285233 -1.192092E-07
vn -0.9444959 0.3285233 -1.192093E-07
vn -0.9444959 0.3285233 -1.192093E-07
vn -0.9444959 0.3285233 -1.192093E-07
vn 0 0 1
vn 0 0 1
vn 0 0 1
vn 0 0 1
vn 0 0 1
vn 0 0 1
vn 0 0 1
vn 0 0 1
vn 0 0 1
vn 0 0 1
vn 0 0 1
vn 0 0 1
vn 0 0 1
vn 0 0 0.9999999
vn 0 0 1
vn 0 0 1
vn 0 0 0.9999999
vn 0 0 1
vn 0 0 1
vn 0 0 1
vn 0 0 0.9999999
vn 0 0 1
vn 0 0 1
vn 0 0 1
vn 0 0 1
vn 0 0 1
vn 0 0 1
vn 0 0 1
vn 0 0 1
vn 0 0 1
vn 0 0 1
vn 0 0 0.9999999
vn 0 0 1
vn 0 0 0.9999999
vn 0 0 0.9999999
vn 0 0 1
vn 0 0 0.9999999
vn 0 0 0.9999999
vn 0.05792681 -0.9983209 3.42789E-07
vn 0.3083469 -0.951274 3.092419E-07
vn 0.5545835 -0.8321281 2.619401E-07
vn 0.05792684 -0.9983208 3.23738E-07
vn 0.8906866 -0.454618 1.531119E-07
vn 0.9805532 -0.1962539 7.358348E-08
vn 0.9983208 0.05792679 7.245398E-09
vn 0.9983209 0.05792677 0
vn 0.05792672 -0.9983209 2.570785E-07
vn -0.9444959 0.3285233 -1.192093E-07
vn -0.9444959 0.3285233 -1.192093E-07
vn -0.9444959 0.3285233 -1.192093E-07
vn -0.9444959 0.3285233 -1.192093E-07
vn -0.9444959 0.3285233 -1.192093E-07
vn -0.9444959 0.3285233 -1.192093E-07
vn -0.9444959 0.3285233 -1.283792E-07
vn -0.9444959 0.3285232 -1.283792E-07
vn 0.3216964 0.9248688 -0.2028032
vn -2.420424E-07 -6.958657E-07 -1
vn 2.038144E-07 -7.08926E-08 -0.9999999
vn 1.840363E-07 -1.821696E-07 -1
vn 2.038144E-07 -7.08926E-08 -1
vn 2.038144E-07 -7.08926E-08 -1
vn 1.913449E-08 -3.29765E-07 -1
vn 1.913434E-08 -3.297651E-07 -1
vn 1.913487E-08 -3.297646E-07 -1
vn 1.913417E-08 -3.297652E-07 -1
vn 1.91341E-08 -3.297652E-07 -1
vn 1.913468E-08 -3.297649E-07 -0.9999999
vn 1.913668E-08 -3.297639E-07 -1
vn 1.913192E-08 -3.297662E-07 -0.9999999
vn 2.446546E-07 -2.206431E-07 -1
vn 2.882372E-07 -1.002573E-07 -1
vn 2.467092E-07 -2.196484E-07 -1
vn 2.467091E-07 -2.19649E-07 -1
vn 2.467092E-07 -2.196497E-07 -1
vn 2.467092E-07 -2.196493E-07 -1
vn 2.467092E-07 -2.196492E-07 -1
vn 2.467092E-07 -2.196491E-07 -1
vn 2.467094E-07 -2.196485E-07 -1
vn 3.214496E-07 -4.772189E-09 -1
vn 3.297652E-07 1.913437E-08 -1
vn 3.297652E-07 1.913455E-08 -1
vn 3.297646E-07 1.913399E-08 -1
vn 3.29766E-07 1.913523E-08 -1
vn 3.297653E-07 1.913465E-08 -1
vn 3.29765E-07 1.913435E-08 -1
vn 2.573616E-07 2.86386E-08 -1
vn 2.19649E-07 2.467094E-07 -1
vn 2.19649E-07 2.467096E-07 -1
vn 2.19649E-07 2.4671E-07 -1
vn 2.196494E-07 2.467027E-07 -1
vn 2.19649E-07 2.467108E-07 -1
vn 2.196489E-07 2.467102E-07 -1
vn 2.19649E-07 2.467087E-07 -1
vn 2.196489E-07 2.467074E-07 -0.9999999
vn 2.038144E-07 -7.08926E-08 -1
vn 2.038144E-07 -7.08926E-08 -1
vn 2.038144E-07 -7.08926E-08 -0.9999999

f 1//1 2//2 3//3
f 4//4 1//1 3//3
f 3//3 5//5 4//4
f 3//3 6//6 5//5
f 5//5 6//6 7//7
f 8//8 7//7 6//6
f 9//9 8//8 6//6
f 10//10 9//9 6//6
f 9//9 10//10 11//11
f 11//11 10//10 12//12
f 13//13 11//11 12//12
f 13//13 12//12 14//14
f 13//13 14//14 15//15
f 15//15 14//14 16//16
f 15//15 16//16 17//17
f 18//18 17//17 16//16
f 19//19 17//17 18//18
f 19//19 18//18 20//20
f 21//21 19//19 20//20
f 22//22 19//19 21//21
f 22//22 21//21 23//23
f 24//24 22//22 23//23
f 24//24 23//23 25//25
f 26//26 24//24 25//25
f 26//26 25//25 27//27
f 28//28 26//26 27//27
f 28//28 27//27 29//29
f 29//29 27//27 30//30
f 31//31 29//29 30//30
f 31//31 30//30 32//32
f 33//33 31//31 32//32
f 33//33 32//32 34//34
f 35//35 33//33 34//34
f 35//35 34//34 36//36
f 37//37 35//35 36//36
f 37//37 36//36 38//38
f 39//39 37//37 38//38
f 39//39 38//38 40//40
f 41//41 39//39 40//40
f 41//41 40//40 42//42
f 41//41 42//42 43//43
f 43//43 42//42 44//44
f 45//45 43//43 44//44
f 45//45 44//44 46//46
f 47//47 45//45 46//46
f 48//48 45//45 47//47
f 48//48 47//47 49//49
f 50//50 48//48 49//49
f 50//50 49//49 51//51
f 52//52 50//50 51//51
f 52//52 51//51 53//53
f 54//54 52//52 53//53
f 55//55 54//54 53//53
f 55//55 53//53 56//56
f 55//55 56//56 57//57
f 57//57 56//56 58//58
f 57//57 58//58 59//59
f 59//59 58//58 60//60
f 59//59 60//60 61//61
f 61//61 60//60 62//62
f 61//61 62//62 63//63
f 63//63 62//62 64//64
f 63//63 64//64 65//65
f 65//65 64//64 66//66
f 65//65 66//66 67//67
f 68//68 67//67 66//66
f 69//69 67//67 68//68
f 69//69 68//68 70//70
f 71//71 69//69 70//70
f 72//72 71//71 73//73
f 74//74 75//75 76//76
f 77//77 74//74 76//76
f 75//75 77//77 76//76
f 78//78 75//75 74//74
f 79//79 75//75 78//78
f 78//78 74//74 80//80
f 81//81 78//78 80//80
f 82//82 78//78 81//81
f 82//82 83//83 78//78
f 83//83 84//84 79//79
f 84//84 85//85 79//79
f 80//80 74//74 86//86
f 87//87 80//80 86//86
f 81//81 80//80 87//87
f 86//86 74//74 88//88
f 88//88 74//74 77//77
f 86//86 88//88 89//89
f 90//90 86//86 89//89
f 87//87 86//86 90//90
f 75//75 91//91 77//77
f 90//90 89//89 92//92
f 90//90 92//92 93//93
f 94//94 90//90 93//93
f 95//95 83//83 82//82
f 95//95 82//82 81//81
f 95//95 81//81 87//87
f 95//95 87//87 90//90
f 95//95 96//96 83//83
f 97//97 91//91 75//75
f 97//97 98//98 91//91
f 97//97 99//99 98//98
f 100//100 95//95 101//101
f 102//102 103//103 104//104
f 102//102 104//104 105//105
f 102//102 105//105 106//106
f 106//106 105//105 107//107
f 108//108 102//102 106//106
f 109//109 102//102 108//108
f 110//110 108//108 106//106
f 111//111 112//112 113//113
f 111//111 113//113 114//114
f 111//111 114//114 115//115
f 111//111 115//115 116//116
f 111//111 116//116 117//117
f 117//117 118//118 111//111
f 118//118 119//119 111//111
f 120//120 111//111 119//119
f 120//120 121//121 111//111
f 121//121 122//122 111//111
f 111//111 122//122 123//123
f 114//114 113//113 124//124
f 124//124 113//113 125//125
f 125//125 113//113 126//126
f 126//126 113//113 127//127
f 127//127 113//113 128//128
f 128//128 113//113 129//129
f 129//129 113//113 130//130
f 130//130 113//113 131//131
f 131//131 113//113 132//132
f 132//132 113//113 133//133
f 133//133 113//113 134//134
f 133//133 134//134 135//135
f 135//135 134//134 136//136
f 134//134 137//137 136//136
f 137//137 134//134 138//138
f 138//138 134//134 139//139
f 139//139 134//134 140//140
f 140//140 134//134 141//141
f 134//134 142//142 141//141
f 134//134 143//143 142//142
f 134//134 144//144 143//143
f 144//144 134//134 145//145
f 145//145 134//134 146//146
f 147//147 134//134 148//148
f 149//149 150//150 151//151
f 149//149 152//152 150//150
f 151//151 150//150 153//153
f 151//151 153//153 154//154
f 154//154 153//153 155//155
f 154//154 155//155 156//156
f 152//152 157//157 150//150
f 158//158 159//159 160//160
f 161//161 159//159 158//158
f 162//162 159//159 161//161
f 163//163 162//162 161//161
f 164//164 162//162 163//163
f 165//165 162//162 164//164
f 9//9 166//166 8//8
f 166//166 9//9 167//167
f 168//168 169//169 170//170
f 168//168 171//171 169//169
f 172//172 169//169 173//173
f 174//174 169//169 172//172
f 169//169 174//174 175//175
f 176//176 169//169 175//175
f 177//177 169//169 176//176
f 178//178 169//169 177//177
f 178//178 179//179 169//169
f 179//179 180//180 169//169
f 180//180 181//181 169//169
f 182//182 181//181 180//180
f 182//182 183//183 181//181
f 183//183 184//184 181//181
f 184//184 185//185 181//181
f 185//185 186//186 181//181
f 186//186 187//187 181//181
f 187//187 188//188 181//181
f 188//188 189//189 181//181
f 181//181 189//189 190//190
f 181//181 190//190 191//191
f 192//192 181//181 191//191
f 193//193 181//181 192//192
f 194//194 181//181 193//193
f 195//195 181//181 194//194
f 195//195 196//196 181//181
f 196//196 197//197 198//198
f 196//196 198//198 199//199
f 199//199 200//200 196//196
f 196//196 200//200 201//201
f 201//201 202//202 196//196
f 196//196 202//202 203//203
f 196//196 203//203 204//204
f 205//205 196//196 206//206
f 207//207 196//196 205//205
