v -102.3901 10.12954 -15.9211
v -102.3901 95.65751 -58.68508
v -102.3901 10.12954 -15.9211
v -102.3901 10.12954 -15.9211
v -101.5365 11.68044 -12.81929
v -101.195 12.3008 -11.57857
v -101.195 12.3008 -11.57857
v -101.195 97.82877 -54.34255
v -101.195 183.3568 -97.10654
v -100.9512 12.31744 -11.5453
v -99.00016 183.5065 -96.80711
v -100.9209 12.31951 -11.54117
v -98.72742 183.5251 -96.7699
v -100.9124 12.32009 -11.54001
v -98.65084 183.5303 -96.75945
v -100.8167 12.32661 -11.52696
v -97.79024 183.589 -96.64204
v -99.63778 12.40703 -11.36613
v -97.65925 183.5979 -96.62418
v -98.51999 12.48328 -11.21364
v -98.3914 12.49204 -11.1961
v -97.52076 183.6074 -96.60529
v -98.1232 12.51034 -11.15951
v -97.49096 183.6094 -96.60122
v -97.41195 12.55885 -11.06248
v -97.41193 183.6148 -96.59044
v -97.29137 12.63219 -10.9158
v -96.74793 184.0186 -95.78276
v -96.32666 184.2748 -95.27034
v -97.26144 12.65039 -10.87941
v -96.05739 184.4386 -94.94281
v -97.25254 12.65581 -10.86858
v -95.97726 184.4874 -94.84534
v -97.18525 12.69673 -10.78672
v -95.3716 184.8557 -94.10863
v -96.4132 13.16628 -9.847618
v -95.28581 184.9079 -94.00429
v -95.77536 13.55421 -9.07177
v -95.21494 184.951 -93.91808
v -95.14491 13.93764 -8.304909
v -95.1449 184.9936 -93.83287
v -95.16272 13.98985 -8.200493
v -95.30515 185.4635 -92.89312
v -95.20261 14.10683 -7.966541
v -95.66421 186.5162 -90.78754
v -95.31392 14.43317 -7.313847
v -95.35843 14.56368 -7.052826
v -95.68152 186.567 -90.68602
v -95.51021 15.00871 -6.162781
v -95.69838 186.6165 -90.58713
v -95.63518 15.37513 -5.429924
v -95.71227 186.6572 -90.50569
v -95.72192 15.62949 -4.921215
v -95.72191 186.6854 -90.44917
v -95.72191 186.6854 -90.44917
v -95.90516 15.68974 -4.800701
v -97.37103 187.2277 -89.36456
v -95.9591 15.70748 -4.765228
v -97.85643 187.3874 -89.04532
v -95.9646 15.70929 -4.761608
v -97.90598 187.4037 -89.01273
v -95.96716 15.71013 -4.75993
v -97.92896 187.4112 -88.99762
v -95.97038 15.71119 -4.757805
v -97.958 187.4208 -88.97852
v -96.03023 15.73087 -4.718445
v -98.49666 187.5979 -88.62424
v -98.80498 16.64333 -2.893517
v -98.80496 187.6993 -88.42148
v -98.80499 16.64333 -2.893517
v -98.80496 187.6993 -88.42148
v -98.80499 16.64333 -2.893517
v -98.80499 16.64333 -2.893517
v -98.46355 17.26369 -1.652794
v -97.60995 18.8146 1.449013
v -97.60995 18.8146 1.449013
v -97.60995 18.8146 1.449013
v -98.80499 16.64333 -2.893517
v -98.80499 16.64333 -2.893517
v -98.80499 16.64333 -2.893517
v -98.80496 187.6993 -88.42148
v -98.80496 187.6993 -88.42148
v -98.80496 187.6993 -88.42148
v -98.80499 16.64333 -2.893517
v -91.44384 16.7869 -2.606384
v -98.80499 16.64333 -2.893517
v -98.80496 187.6993 -88.42148
v -98.80499 16.64333 -2.893517
v -98.80497 102.1713 -45.6575
v -98.80496 187.6993 -88.42148
v -97.60995 104.3426 -41.31497
v -98.80496 187.6992 -88.42143
v -98.80496 187.6993 -88.42148
v -98.46353 188.3196 -87.18076
v -91.44382 187.8428 -88.13434
v -98.80496 187.6993 -88.42148
v -91.44384 16.7869 -2.606384
v -97.60994 189.8705 -84.07895
v -91.44382 187.8428 -88.13434
v -95.72191 186.6854 -90.44917
v -95.72191 186.6854 -90.44917
v -102.3901 95.65751 -58.68508
v -102.3901 10.12954 -15.9211
v -102.3901 10.12954 -15.9211
v -101.5365 11.68044 -12.81929
v -101.195 97.82877 -54.34255
v -101.195 12.3008 -11.57857
v -101.69 182.4574 -98.90527
v -102.39 181.1855 -101.4491
v -101.195 183.3568 -97.10654
v -102.3901 10.12954 -15.9211
v -94.82389 10.64564 -14.88891
v -90.28982 13.40321 -9.373775
v -97.41195 12.55885 -11.06248
v -98.1232 12.51034 -11.15951
v -98.3914 12.49204 -11.1961
v -98.51999 12.48328 -11.21364
v -99.63778 12.40703 -11.36613
v -100.8167 12.32661 -11.52696
v -100.9124 12.32009 -11.54001
v -100.9209 12.31951 -11.54117
v -100.9512 12.31744 -11.5453
v -101.195 12.3008 -11.57857
v -97.29137 12.63219 -10.9158
v -97.26144 12.65039 -10.87941
v -97.25254 12.65581 -10.86858
v -97.18525 12.69673 -10.78672
v -96.4132 13.16628 -9.847618
v -95.77536 13.55421 -9.07177
v -95.14491 13.93764 -8.304909
v -95.16272 13.98985 -8.200493
v -95.20261 14.10683 -7.966541
v -95.31392 14.43317 -7.313847
v -91.44384 16.7869 -2.606384
v -95.35843 14.56368 -7.052826
v -95.51021 15.00871 -6.162781
v -95.63518 15.37513 -5.429924
v -95.72192 15.62949 -4.921215
v -95.90516 15.68974 -4.800701
v -95.9591 15.70748 -4.765228
v -95.9646 15.70929 -4.761608
v -95.96716 15.71013 -4.75993
v -95.97038 15.71119 -4.757805
v -96.03023 15.73087 -4.718445
v -98.80498 16.64333 -2.893517
v -98.80499 16.64333 -2.893517
v -98.80499 16.64333 -2.893517
v -97.60995 18.8146 1.449013
v -102.3901 10.12954 -15.9211
v -94.82387 181.7016 -100.4169
v -94.82389 10.64564 -14.88891
v -102.3901 95.65751 -58.68508
v -90.2898 184.4591 -94.90173
v -90.28982 13.40321 -9.373775
v -91.44382 187.8428 -88.13434
v -91.44384 16.7869 -2.606384
v -102.39 181.1855 -101.4491
v -97.60995 18.8146 1.449013
v -98.80497 102.1713 -45.6575
v -98.80499 16.64333 -2.893517
v -97.60995 104.3426 -41.31497
v -98.80496 187.6992 -88.42143
v -97.60994 189.8705 -84.07895
v -98.46353 188.3196 -87.18076
v -98.80496 187.6993 -88.42148
v -101.195 183.3568 -97.10654
v -94.82387 181.7016 -100.4169
v -101.69 182.4574 -98.90527
v -94.82387 181.7016 -100.4169
v -102.39 181.1855 -101.4491
v -101.195 183.3568 -97.10654
v -99.00016 183.5065 -96.80711
v -101.195 183.3568 -97.10654
v -98.72742 183.5251 -96.7699
v -98.65084 183.5303 -96.75945
v -97.79024 183.589 -96.64204
v -97.65925 183.5979 -96.62418
v -97.52076 183.6074 -96.60529
v -97.49096 183.6094 -96.60122
v -97.41193 183.6148 -96.59044
v -90.2898 184.4591 -94.90173
v -96.74793 184.0186 -95.78276
v -96.32666 184.2748 -95.27034
v -96.05739 184.4386 -94.94281
v -95.97726 184.4874 -94.84534
v -95.3716 184.8557 -94.10863
v -95.28581 184.9079 -94.00429
v -95.21494 184.951 -93.91808
v -95.1449 184.9936 -93.83287
v -95.30515 185.4635 -92.89312
v -95.66421 186.5162 -90.78754
v -95.68152 186.567 -90.68602
v -95.69838 186.6165 -90.58713
v -95.71227 186.6572 -90.50569
v -95.72191 186.6854 -90.44917
v -91.44382 187.8428 -88.13434
v -95.72191 186.6854 -90.44917
v -97.37103 187.2277 -89.36456
v -97.85643 187.3874 -89.04532
v -97.90598 187.4037 -89.01273
v -97.92896 187.4112 -88.99762
v -97.958 187.4208 -88.97852
v -98.49666 187.5979 -88.62424
v -98.80496 187.6993 -88.42148
v -98.46353 188.3196 -87.18076
v -98.80496 187.6993 -88.42148
v -97.60994 189.8705 -84.07895

vn -0.2390053 -0.4342531 -0.8685049
vn -0.2390053 -0.4342529 -0.8685051
vn -0.1814664 -0.9117947 -0.3683756
vn -8.940697E-08 -0.8944273 0.4472135
vn -8.940697E-08 -0.8944273 0.4472135
vn -0.1507854 0.4421005 0.8842008
vn 0.2366032 0.3033974 0.9230218
vn -0.886396 0.2070278 0.4140551
vn -0.1507808 0.442101 0.8842013
vn -0.15078 0.4421011 0.8842015
vn -0.1507803 0.4421011 0.8842014
vn -0.1507813 0.4421011 0.8842012
vn -0.1507824 0.442101 0.884201
vn -0.1507766 0.4421009 0.8842021
vn -0.1507794 0.442101 0.8842016
vn -0.1507799 0.442101 0.8842015
vn -0.1507798 0.442101 0.8842016
vn -0.1507797 0.442101 0.8842015
vn -0.15078 0.442101 0.8842015
vn -0.1507796 0.4421011 0.8842015
vn -0.1507808 0.4421009 0.8842013
vn -0.1507823 0.4421009 0.8842011
vn -0.1507802 0.4421009 0.8842014
vn -0.1507793 0.442101 0.8842016
vn -0.2981631 0.4268723 0.8537441
vn -0.7807373 0.2794458 0.5588911
vn -0.8056419 0.2649309 0.5298612
vn -0.8056414 0.2649312 0.5298617
vn -0.8056412 0.2649313 0.529862
vn -0.80564 0.2649319 0.5298637
vn -0.8056392 0.2649323 0.5298645
vn -0.8056382 0.2649327 0.5298659
vn -0.8056399 0.2649319 0.5298638
vn -0.8056405 0.2649316 0.5298628
vn -0.805641 0.2649315 0.5298624
vn -0.8056409 0.2649315 0.5298622
vn -0.8056402 0.2649318 0.5298631
vn -0.8056408 0.2649316 0.5298627
vn -0.8056414 0.2649312 0.5298617
vn -0.8428853 0.240643 0.4812853
vn -0.9963616 -0.0381152 -0.07623075
vn -0.9885675 -0.0674303 -0.1348609
vn -0.9885674 -0.06743076 -0.1348618
vn -0.9885674 -0.06743103 -0.1348625
vn -0.9885673 -0.06743105 -0.1348625
vn -0.9885673 -0.06743087 -0.1348621
vn -0.9885674 -0.06743074 -0.1348615
vn -0.9885674 -0.06743088 -0.134862
vn -0.9885675 -0.06743074 -0.1348616
vn -0.9885674 -0.06743089 -0.1348619
vn -0.9885675 -0.0674309 -0.1348619
vn -0.9885674 -0.0674307 -0.1348615
vn -0.9394684 -0.1532314 -0.3064628
vn -0.9885709 -0.06742042 -0.1348409
vn -0.5924051 -0.3602934 -0.7205865
vn -0.5924041 -0.3602937 -0.7205872
vn -0.5924038 -0.3602938 -0.7205876
vn -0.5924027 -0.360294 -0.7205881
vn -0.5924044 -0.3602937 -0.720587
vn -0.5924058 -0.3602935 -0.7205861
vn -0.5924079 -0.360293 -0.7205844
vn -0.5924444 -0.360286 -0.7205579
vn -0.5924215 -0.3602903 -0.7205746
vn -0.5923986 -0.3602949 -0.7205912
vn -0.5924019 -0.3602942 -0.7205889
vn -0.5924042 -0.3602937 -0.7205871
vn -0.5924047 -0.3602935 -0.7205868
vn -0.5924049 -0.3602935 -0.7205867
vn -0.592409 -0.3602921 -0.7205841
vn -0.7189916 -0.3108219 -0.6216437
vn -0.2390053 -0.4342528 -0.8685051
vn -0.2390053 -0.4342528 -0.8685051
vn -0.2390053 -0.4342528 -0.8685051
vn -8.940697E-08 -0.8944273 0.4472135
vn 0.5924044 0.3602938 0.720587
vn -8.940697E-08 -0.8944273 0.4472135
vn -0.9317221 0.1624158 0.324831
vn -0.1552254 -0.9621471 -0.2240049
vn -0.1346433 -0.9836287 -0.1197744
vn -0.2384013 -0.4967035 -0.8345362
vn -0.2390053 -0.4342528 -0.8685051
vn -0.2390053 -0.4342528 -0.8685051
vn -0.2390053 -0.4342528 -0.8685051
vn -0.237734 -0.5240714 -0.8178214
vn -8.940697E-08 -0.8944273 0.4472135
vn -0.2389917 -0.4455436 -0.8627712
vn -0.2390053 -0.4342528 -0.8685051
vn -0.2366032 -0.5563794 -0.7965307
vn -0.2389988 -0.4342535 -0.8685066
vn -0.238568 -0.379767 -0.8937911
vn 0.5924044 0.3602937 0.720587
vn -0.2389823 -0.4342553 -0.8685102
vn -1.569948E-06 0.8944243 -0.4472196
vn 8.940697E-08 0.8944273 -0.4472135
vn 5.084825E-07 0.8944272 -0.4472136
vn 0 0 0
vn 0.5924045 0.3602937 0.720587
vn 0.5924044 0.3602937 0.720587
vn 0.5924045 0.3602937 0.720587
vn 5.084825E-07 0.8944272 -0.4472136
vn 5.084825E-07 0.8944272 -0.4472136
vn -0.9710183 0.1068866 0.2137727
vn -0.9710183 0.1068865 0.2137727
vn -0.9710183 0.1068866 0.2137727
vn -0.9710183 0.1068866 0.2137727
vn -0.9710183 0.1068866 0.2137727
vn -0.9710183 0.1068866 0.2137727
vn -0.9710183 0.1068866 0.2137727
vn -0.9710183 0.1068866 0.2137727
vn -0.9710183 0.1068866 0.2137727
vn -8.940697E-08 -0.8944273 0.4472135
vn -8.940697E-08 -0.8944273 0.4472135
vn -8.940697E-08 -0.8944273 0.4472135
vn -8.940697E-08 -0.8944273 0.4472135
vn -8.940697E-08 -0.8944273 0.4472135
vn -8.940697E-08 -0.8944273 0.4472135
vn -8.940697E-08 -0.8944273 0.4472135
vn -8.940697E-08 -0.8944273 0.4472135
vn -8.940697E-08 -0.8944273 0.4472135
vn -8.940697E-08 -0.8944273 0.4472135
vn -8.940697E-08 -0.8944273 0.4472135
vn -8.940697E-08 -0.8944273 0.4472135
vn -8.940697E-08 -0.8944273 0.4472135
vn -8.940696E-08 -0.8944272 0.4472135
vn -8.940697E-08 -0.8944273 0.4472135
vn -8.940697E-08 -0.8944273 0.4472135
vn -8.940696E-08 -0.8944272 0.4472135
vn -8.940697E-08 -0.8944273 0.4472135
vn -8.940697E-08 -0.8944273 0.4472135
vn -8.940697E-08 -0.8944273 0.4472135
vn -8.940696E-08 -0.8944272 0.4472135
vn -8.940697E-08 -0.8944273 0.4472135
vn -8.940697E-08 -0.8944273 0.4472135
vn -8.940697E-08 -0.8944273 0.4472135
vn -8.940697E-08 -0.8944273 0.4472135
vn -8.940697E-08 -0.8944273 0.4472135
vn -8.940697E-08 -0.8944273 0.4472135
vn -8.940697E-08 -0.8944273 0.4472135
vn -8.940697E-08 -0.8944273 0.4472135
vn -8.940697E-08 -0.8944273 0.4472135
vn -8.940697E-08 -0.8944273 0.4472135
vn -8.940696E-08 -0.8944272 0.4472135
vn -8.940697E-08 -0.8944273 0.4472135
vn -8.940696E-08 -0.8944272 0.4472135
vn -8.940696E-08 -0.8944272 0.4472135
vn -8.940697E-08 -0.8944273 0.4472135
vn -8.940696E-08 -0.8944272 0.4472135
vn -8.940696E-08 -0.8944272 0.4472135
vn 0.1507804 -0.4421011 -0.8842015
vn 0.3957213 -0.4107082 -0.8214156
vn 0.6297728 -0.3473866 -0.6947725
vn 0.1507804 -0.442101 -0.8842013
vn 0.9292035 -0.1652764 -0.3305523
vn 0.9945827 -0.04648776 -0.09297525
vn 0.9885673 0.06743097 0.1348621
vn 0.9885674 0.06743097 0.134862
vn 0.1507803 -0.442101 -0.8842014
vn -0.9710183 0.1068866 0.2137727
vn -0.9710183 0.1068866 0.2137727
vn -0.9710183 0.1068866 0.2137727
vn -0.9710183 0.1068866 0.2137727
vn -0.9710183 0.1068866 0.2137727
vn -0.9710183 0.1068866 0.2137727
vn -0.9710183 0.1068866 0.2137727
vn -0.9710183 0.1068866 0.2137727
vn 0.2340387 0.6066213 0.7597609
vn -8.668228E-08 0.8944269 -0.4472142
vn 2.989447E-07 0.8944272 -0.4472136
vn 2.896308E-07 0.8944272 -0.4472137
vn 2.989447E-07 0.8944272 -0.4472136
vn 2.989447E-07 0.8944272 -0.4472136
vn 1.392128E-07 0.8944271 -0.4472138
vn 1.392127E-07 0.8944271 -0.4472138
vn 1.392132E-07 0.8944271 -0.4472138
vn 1.392125E-07 0.8944271 -0.4472138
vn 1.392124E-07 0.8944271 -0.4472138
vn 1.39213E-07 0.8944271 -0.4472138
vn 1.392149E-07 0.8944271 -0.4472138
vn 1.392104E-07 0.8944271 -0.4472138
vn 3.53573E-07 0.8944272 -0.4472137
vn 3.857382E-07 0.8944272 -0.4472136
vn 3.555259E-07 0.8944272 -0.4472137
vn 3.555259E-07 0.8944272 -0.4472137
vn 3.55526E-07 0.8944272 -0.4472137
vn 3.555259E-07 0.8944272 -0.4472137
vn 3.55526E-07 0.8944272 -0.4472137
vn 3.55526E-07 0.8944272 -0.4472137
vn 3.555261E-07 0.8944272 -0.4472137
vn 4.099007E-07 0.8944273 -0.4472135
vn 4.159504E-07 0.8944273 -0.4472135
vn 4.159504E-07 0.8944273 -0.4472135
vn 4.159499E-07 0.8944273 -0.4472135
vn 4.159511E-07 0.8944273 -0.4472135
vn 4.159505E-07 0.8944273 -0.4472135
vn 4.159502E-07 0.8944273 -0.4472135
vn 3.42976E-07 0.8944273 -0.4472135
vn 2.850899E-07 0.8944274 -0.4472133
vn 2.850899E-07 0.8944274 -0.4472133
vn 2.850898E-07 0.8944274 -0.4472133
vn 2.850909E-07 0.8944274 -0.4472133
vn 2.850898E-07 0.8944274 -0.4472133
vn 2.850898E-07 0.8944274 -0.4472133
vn 2.850899E-07 0.8944274 -0.4472133
vn 2.8509E-07 0.8944274 -0.4472133
vn 2.989447E-07 0.8944272 -0.4472136
vn 2.989447E-07 0.8944272 -0.4472136
vn 2.989447E-07 0.8944272 -0.4472136

f 1//1 2//2 3//3
f 4//4 1//1 3//3
f 3//3 5//5 4//4
f 3//3 6//6 5//5
f 5//5 6//6 7//7
f 8//8 7//7 6//6
f 9//9 8//8 6//6
f 10//10 9//9 6//6
f 9//9 10//10 11//11
f 11//11 10//10 12//12
f 13//13 11//11 12//12
f 13//13 12//12 14//14
f 13//13 14//14 15//15
f 15//15 14//14 16//16
f 15//15 16//16 17//17
f 18//18 17//17 16//16
f 19//19 17//17 18//18
f 19//19 18//18 20//20
f 21//21 19//19 20//20
f 22//22 19//19 21//21
f 22//22 21//21 23//23
f 24//24 22//22 23//23
f 24//24 23//23 25//25
f 26//26 24//24 25//25
f 26//26 25//25 27//27
f 28//28 26//26 27//27
f 28//28 27//27 29//29
f 29//29 27//27 30//30
f 31//31 29//29 30//30
f 31//31 30//30 32//32
f 33//33 31//31 32//32
f 33//33 32//32 34//34
f 35//35 33//33 34//34
f 35//35 34//34 36//36
f 37//37 35//35 36//36
f 37//37 36//36 38//38
f 39//39 37//37 38//38
f 39//39 38//38 40//40
f 41//41 39//39 40//40
f 41//41 40//40 42//42
f 41//41 42//42 43//43
f 43//43 42//42 44//44
f 45//45 43//43 44//44
f 45//45 44//44 46//46
f 47//47 45//45 46//46
f 48//48 45//45 47//47
f 48//48 47//47 49//49
f 50//50 48//48 49//49
f 50//50 49//49 51//51
f 52//52 50//50 51//51
f 52//52 51//51 53//53
f 54//54 52//52 53//53
f 55//55 54//54 53//53
f 55//55 53//53 56//56
f 55//55 56//56 57//57
f 57//57 56//56 58//58
f 57//57 58//58 59//59
f 59//59 58//58 60//60
f 59//59 60//60 61//61
f 61//61 60//60 62//62
f 61//61 62//62 63//63
f 63//63 62//62 64//64
f 63//63 64//64 65//65
f 65//65 64//64 66//66
f 65//65 66//66 67//67
f 68//68 67//67 66//66
f 69//69 67//67 68//68
f 69//69 68//68 70//70
f 71//71 69//69 70//70
f 72//72 71//71 73//73
f 74//74 75//75 76//76
f 77//77 74//74 76//76
f 75//75 77//77 76//76
f 78//78 75//75 74//74
f 79//79 75//75 78//78
f 78//78 74//74 80//80
f 81//81 78//78 80//80
f 82//82 78//78 81//81
f 82//82 83//83 78//78
f 83//83 84//84 79//79
f 84//84 85//85 79//79
f 80//80 74//74 86//86
f 87//87 80//80 86//86
f 81//81 80//80 87//87
f 86//86 74//74 88//88
f 88//88 74//74 77//77
f 86//86 88//88 89//89
f 90//90 86//86 89//89
f 87//87 86//86 90//90
f 75//75 91//91 77//77
f 90//90 89//89 92//92
f 90//90 92//92 93//93
f 94//94 90//90 93//93
f 95//95 83//83 82//82
f 95//95 82//82 81//81
f 95//95 81//81 87//87
f 95//95 87//87 90//90
f 95//95 96//96 83//83
f 97//97 91//91 75//75
f 97//97 98//98 91//91
f 97//97 99//99 98//98
f 100//100 95//95 101//101
f 102//102 103//103 104//104
f 102//102 104//104 105//105
f 102//102 105//105 106//106
f 106//106 105//105 107//107
f 108//108 102//102 106//106
f 109//109 102//102 108//108
f 110//110 108//108 106//106
f 111//111 112//112 113//113
f 111//111 113//113 114//114
f 111//111 114//114 115//115
f 111//111 115//115 116//116
f 111//111 116//116 117//117
f 117//117 118//118 111//111
f 118//118 119//119 111//111
f 120//120 111//111 119//119
f 120//120 121//121 111//111
f 121//121 122//122 111//111
f 111//111 122//122 123//123
f 114//114 113//113 124//124
f 124//124 113//113 125//125
f 125//125 113//113 126//126
f 126//126 113//113 127//127
f 127//127 113//113 128//128
f 128//128 113//113 129//129
f 129//129 113//113 130//130
f 130//130 113//113 131//131
f 131//131 113//113 132//132
f 132//132 113//113 133//133
f 133//133 113//113 134//134
f 133//133 134//134 135//135
f 135//135 134//134 136//136
f 134//134 137//137 136//136
f 137//137 134//134 138//138
f 138//138 134//134 139//139
f 139//139 134//134 140//140
f 140//140 134//134 141//141
f 134//134 142//142 141//141
f 134//134 143//143 142//142
f 134//134 144//144 143//143
f 144//144 134//134 145//145
f 145//145 134//134 146//146
f 147//147 134//134 148//148
f 149//149 150//150 151//151
f 149//149 152//152 150//150
f 151//151 150//150 153//153
f 151//151 153//153 154//154
f 154//154 153//153 155//155
f 154//154 155//155 156//156
f 152//152 157//157 150//150
f 158//158 159//159 160//160
f 161//161 159//159 158//158
f 162//162 159//159 161//161
f 163//163 162//162 161//161
f 164//164 162//162 163//163
f 165//165 162//162 164//164
f 9//9 166//166 8//8
f 166//166 9//9 167//167
f 168//168 169//169 170//170
f 168//168 171//171 169//169
f 172//172 169//169 173//173
f 174//174 169//169 172//172
f 169//169 174//174 175//175
f 176//176 169//169 175//175
f 177//177 169//169 176//176
f 178//178 169//169 177//177
f 178//178 179//179 169//169
f 179//179 180//180 169//169
f 180//180 181//181 169//169
f 182//182 181//181 180//180
f 182//182 183//183 181//181
f 183//183 184//184 181//181
f 184//184 185//185 181//181
f 185//185 186//186 181//181
f 186//186 187//187 181//181
f 187//187 188//188 181//181
f 188//188 189//189 181//181
f 181//181 189//189 190//190
f 181//181 190//190 191//191
f 192//192 181//181 191//191
f 193//193 181//181 192//192
f 194//194 181//181 193//193
f 195//195 181//181 194//194
f 195//195 196//196 181//181
f 196//196 197//197 198//198
f 196//196 198//198 199//199
f 199//199 200//200 196//196
f 196//196 200//200 201//201
f 201//201 202//202 196//196
f 196//196 202//202 203//203
f 196//196 203//203 204//204
f 205//205 196//196 206//206
f 207//207 196//196 205//205
