v -96.13096 190.7788 -113.0902
v -96.13096 190.7788 -150
v -96.13096 190.7788 -113.0902
v -96.13097 190.7788 -113.0902
v -97.51276 194.0721 -113.0902
v -98.06548 195.3894 -113.0902
v -98.06548 195.3894 -113.0902
v -98.06548 195.3894 -150
v -98.06548 195.3894 -186.9099
v -97.89185 195.5646 -113.0902
v -96.50272 196.9665 -186.9099
v -97.87026 195.5864 -113.0902
v -96.30853 197.1625 -186.9099
v -97.8642 195.5925 -113.0902
v -96.25401 197.2175 -186.9099
v -97.79612 195.6612 -113.0902
v -95.64125 197.8359 -186.9099
v -96.9567 196.5084 -113.0902
v -95.54798 197.93 -186.9099
v -96.16083 197.3115 -113.0902
v -96.06927 197.4039 -113.0902
v -95.44938 198.0295 -186.9099
v -95.87831 197.5966 -113.0902
v -95.42816 198.0509 -186.9099
v -95.37189 198.1077 -113.0902
v -95.37189 198.1077 -186.9099
v -95.37283 198.3113 -113.0902
v -95.37702 199.2286 -186.9099
v -95.38027 199.9397 -186.9099
v -95.37306 198.3618 -113.0902
v -95.38235 200.3942 -186.9099
v -95.37313 198.3768 -113.0902
v -95.38297 200.5295 -186.9099
v -95.37365 198.4904 -113.0902
v -95.38764 201.5518 -186.9099
v -95.37961 199.7936 -113.0902
v -95.38831 201.6966 -186.9099
v -95.38453 200.8703 -113.0902
v -95.38885 201.8163 -186.9099
v -95.3894 201.9345 -113.0902
v -95.3894 201.9345 -186.9099
v -95.47328 202.0176 -113.0902
v -96.14435 202.6826 -186.9099
v -95.66123 202.2039 -113.0902
v -97.83588 204.3587 -186.9099
v -96.18558 202.7234 -113.0902
v -96.39527 202.9312 -113.0902
v -97.91745 204.4396 -186.9099
v -97.1103 203.6398 -113.0902
v -97.99689 204.5183 -186.9099
v -97.69904 204.2231 -113.0902
v -98.06231 204.5831 -186.9099
v -98.10773 204.6281 -113.0902
v -98.10772 204.6281 -186.9099
v -98.10772 204.6281 -186.9099
v -98.33516 204.6271 -113.0902
v -100.1547 204.6187 -186.9099
v -98.40211 204.6268 -113.0902
v -100.7572 204.616 -186.9099
v -98.40894 204.6267 -113.0902
v -100.8187 204.6157 -186.9099
v -98.41211 204.6267 -113.0902
v -100.8472 204.6156 -186.9099
v -98.41611 204.6267 -113.0902
v -100.8832 204.6154 -186.9099
v -98.4904 204.6264 -113.0902
v -101.5518 204.6124 -186.9099
v -101.9345 204.6106 -113.0902
v -101.9345 204.6106 -186.9099
v -101.9345 204.6106 -113.0902
v -101.9345 204.6106 -186.9099
v -101.9345 204.6106 -113.0902
v -101.9345 204.6106 -113.0902
v -102.4872 205.9279 -113.0902
v -103.869 209.2212 -113.0902
v -103.869 209.2212 -113.0902
v -103.869 209.2212 -113.0902
v -101.9345 204.6106 -113.0902
v -101.9345 204.6106 -113.0902
v -101.9345 204.6106 -113.0902
v -101.9345 204.6106 -186.9099
v -101.9345 204.6106 -186.9099
v -101.9345 204.6106 -186.9099
v -101.9345 204.6106 -113.0902
v -96.21545 209.2562 -113.0902
v -101.9345 204.6106 -113.0902
v -101.9345 204.6106 -186.9099
v -101.9345 204.6106 -113.0902
v -101.9345 204.6106 -150
v -101.9345 204.6106 -186.9099
v -103.869 209.2212 -150
v -101.9345 204.6106 -186.9099
v -101.9345 204.6106 -186.9099
v -102.4872 205.9279 -186.9099
v -96.21544 209.2562 -186.9099
v -101.9345 204.6106 -186.9099
v -96.21545 209.2562 -113.0902
v -103.869 209.2212 -186.9099
v -96.21544 209.2562 -186.9099
v -98.10772 204.6281 -186.9099
v -98.10772 204.6281 -186.9099
v -96.13096 190.7788 -150
v -96.13096 190.7788 -113.0902
v -96.13097 190.7788 -113.0902
v -97.51276 194.0721 -113.0902
v -98.06548 195.3894 -150
v -98.06548 195.3894 -113.0902
v -97.26418 193.4796 -186.9099
v -96.13096 190.7788 -186.9099
v -98.06548 195.3894 -186.9099
v -96.13096 190.7788 -113.0902
v -90.7438 196.2155 -113.0902
v -90.77879 203.869 -113.0902
v -95.37189 198.1077 -113.0902
v -95.87831 197.5966 -113.0902
v -96.06927 197.4039 -113.0902
v -96.16083 197.3115 -113.0902
v -96.9567 196.5084 -113.0902
v -97.79612 195.6612 -113.0902
v -97.8642 195.5925 -113.0902
v -97.87026 195.5864 -113.0902
v -97.89185 195.5646 -113.0902
v -98.06548 195.3894 -113.0902
v -95.37283 198.3113 -113.0902
v -95.37306 198.3618 -113.0902
v -95.37313 198.3768 -113.0902
v -95.37365 198.4904 -113.0902
v -95.37961 199.7936 -113.0902
v -95.38453 200.8703 -113.0902
v -95.3894 201.9345 -113.0902
v -95.47328 202.0176 -113.0902
v -95.66123 202.2039 -113.0902
v -96.18558 202.7234 -113.0902
v -96.21545 209.2562 -113.0902
v -96.39527 202.9312 -113.0902
v -97.1103 203.6398 -113.0902
v -97.69904 204.2231 -113.0902
v -98.10773 204.6281 -113.0902
v -98.33516 204.6271 -113.0902
v -98.40211 204.6268 -113.0902
v -98.40894 204.6267 -113.0902
v -98.41211 204.6267 -113.0902
v -98.41611 204.6267 -113.0902
v -98.4904 204.6264 -113.0902
v -101.9345 204.6106 -113.0902
v -101.9345 204.6106 -113.0902
v -101.9345 204.6106 -113.0902
v -103.869 209.2212 -113.0902
v -96.13096 190.7788 -113.0902
v -90.74379 196.2154 -186.9099
v -90.7438 196.2155 -113.0902
v -96.13096 190.7788 -150
v -90.77879 203.869 -186.9099
v -90.77879 203.869 -113.0902
v -96.21544 209.2562 -186.9099
v -96.21545 209.2562 -113.0902
v -96.13096 190.7788 -186.9099
v -103.869 209.2212 -113.0902
v -101.9345 204.6106 -150
v -101.9345 204.6106 -113.0902
v -103.869 209.2212 -150
v -101.9345 204.6106 -186.9099
v -103.869 209.2212 -186.9099
v -102.4872 205.9279 -186.9099
v -101.9345 204.6106 -186.9099
v -98.06548 195.3894 -186.9099
v -90.74379 196.2154 -186.9099
v -97.26418 193.4796 -186.9099
v -90.74379 196.2154 -186.9099
v -96.13096 190.7788 -186.9099
v -98.06548 195.3894 -186.9099
v -96.50272 196.9665 -186.9099
v -98.06548 195.3894 -186.9099
v -96.30853 197.1625 -186.9099
v -96.25401 197.2175 -186.9099
v -95.64125 197.8359 -186.9099
v -95.54798 197.93 -186.9099
v -95.44938 198.0295 -186.9099
v -95.42816 198.0509 -186.9099
v -95.37189 198.1077 -186.9099
v -90.77879 203.869 -186.9099
v -95.37702 199.2286 -186.9099
v -95.38027 199.9397 -186.9099
v -95.38235 200.3942 -186.9099
v -95.38297 200.5295 -186.9099
v -95.38764 201.5518 -186.9099
v -95.38831 201.6966 -186.9099
v -95.38885 201.8163 -186.9099
v -95.3894 201.9345 -186.9099
v -96.14435 202.6826 -186.9099
v -97.83588 204.3587 -186.9099
v -97.91745 204.4396 -186.9099
v -97.99689 204.5183 -186.9099
v -98.06231 204.5831 -186.9099
v -98.10772 204.6281 -186.9099
v -96.21544 209.2562 -186.9099
v -98.10772 204.6281 -186.9099
v -100.1547 204.6187 -186.9099
v -100.7572 204.616 -186.9099
v -100.8187 204.6157 -186.9099
v -100.8472 204.6156 -186.9099
v -100.8832 204.6154 -186.9099
v -101.5518 204.6124 -186.9099
v -101.9345 204.6106 -186.9099
v -102.4872 205.9279 -186.9099
v -101.9345 204.6106 -186.9099
v -103.869 209.2212 -186.9099

vn 0.3869038 -0.9221201 5.340572E-07
vn 0.3869038 -0.9221201 3.814694E-07
vn 0.2937592 -0.7001258 0.6507913
vn 0 0 1
vn 0 0 1
vn -0.710336 0.7038627 -6.462383E-08
vn -0.3830152 0.9128525 0.141421
vn -0.9876511 -0.1566693 -1.883212E-07
vn -0.7103327 0.703866 -3.424387E-07
vn -0.7103322 0.7038667 -3.013172E-07
vn -0.7103324 0.7038664 -3.400592E-07
vn -0.7103331 0.7038657 -4.236429E-07
vn -0.7103338 0.7038649 -4.821552E-07
vn -0.7103298 0.703869 1.095606E-07
vn -0.7103317 0.7038671 -1.780023E-07
vn -0.7103321 0.7038667 -2.260704E-07
vn -0.710332 0.7038668 -2.089216E-07
vn -0.7103319 0.7038668 -2.077588E-07
vn -0.7103322 0.7038666 -2.217208E-07
vn -0.7103319 0.7038669 -2.409156E-07
vn -0.7103328 0.7038661 -2.351288E-07
vn -0.7103338 0.7038649 -2.778156E-07
vn -0.7103323 0.7038664 -1.673258E-07
vn -0.7103317 0.7038671 -1.811419E-07
vn -0.8083715 0.5886728 -1.839746E-07
vn -0.9993398 0.03633061 -2.087927E-07
vn -0.9999896 -0.004574567 -2.638545E-07
vn -0.9999894 -0.004573746 -2.243663E-07
vn -0.9999895 -0.004573421 -2.046673E-07
vn -0.9999896 -0.00457133 -5.134434E-08
vn -0.9999895 -0.004570027 3.311141E-08
vn -0.9999895 -0.004568345 2.493531E-07
vn -0.9999896 -0.004571174 -1.725448E-08
vn -0.9999894 -0.004572357 -1.95488E-07
vn -0.9999896 -0.004572934 -2.545912E-07
vn -0.9999895 -0.004573022 -3.133276E-07
vn -0.9999894 -0.004571875 -2.147517E-07
vn -0.9999896 -0.004572535 -2.354086E-07
vn -0.9999895 -0.004573741 -2.762392E-07
vn -0.9975202 -0.07038102 -2.850269E-07
vn -0.7491988 -0.6623453 -1.199789E-07
vn -0.7038673 -0.7103314 -7.869002E-08
vn -0.7038666 -0.7103322 -1.061353E-07
vn -0.7038661 -0.7103328 -1.468234E-07
vn -0.7038661 -0.7103327 -1.18347E-07
vn -0.7038664 -0.7103323 -1.005928E-07
vn -0.7038668 -0.710332 2.558145E-08
vn -0.7038665 -0.7103323 -4.388408E-08
vn -0.7038668 -0.7103321 -2.142637E-08
vn -0.7038664 -0.7103323 -1.39089E-08
vn -0.7038665 -0.7103323 -6.971242E-09
vn -0.7038668 -0.7103319 1.713521E-09
vn -0.550082 -0.8351107 6.568339E-08
vn -0.7038833 -0.7103156 3.749556E-09
vn 0.004571871 -0.9999895 1.50355E-07
vn 0.004573159 -0.9999894 1.053244E-07
vn 0.004573604 -0.9999896 6.84602E-08
vn 0.004574814 -0.9999894 -3.948485E-08
vn 0.004572751 -0.9999896 1.617077E-07
vn 0.004571142 -0.9999896 4.500968E-07
vn 0.0045684 -0.9999895 7.290805E-07
vn 0.004523156 -0.9999897 6.344963E-06
vn 0.004551532 -0.9999897 2.762223E-06
vn 0.004580046 -0.9999895 -5.911333E-07
vn 0.004575929 -0.9999896 -2.018595E-07
vn 0.004573049 -0.9999895 1.357495E-07
vn 0.004572434 -0.9999895 1.613505E-07
vn 0.004572164 -0.9999895 1.611312E-07
vn 0.004567139 -0.9999896 9.115076E-08
vn -0.1630069 -0.986625 9.305477E-08
vn 0.3869038 -0.9221201 1.907347E-07
vn 0.3869038 -0.9221201 1.907347E-07
vn 0.3869038 -0.9221201 1.907347E-07
vn 0 0 1
vn -0.004572806 0.9999895 -2.936142E-07
vn 0 0 1
vn -0.964582 -0.2637834 -1.677742E-07
vn 0.25128 -0.5988836 0.7603924
vn 0.2179616 -0.5194749 0.8262195
vn 0.385926 -0.9197897 0.0710492
vn 0.3869038 -0.9221201 1.90735E-07
vn 0.3869038 -0.9221201 1.907347E-07
vn 0.3869038 -0.9221201 1.907343E-07
vn 0.3848459 -0.9172154 0.1030029
vn 0 0 1
vn 0.3868674 -0.9220484 0.01266336
vn 0.3869038 -0.9221201 1.907357E-07
vn 0.3830152 -0.9128523 0.1414215
vn 0.3869099 -0.9221175 1.907357E-07
vn 0.3862115 -0.9204541 -0.06004161
vn -0.004572783 0.9999894 -2.232892E-07
vn 0.3869256 -0.922111 1.907375E-07
vn 2.686178E-06 -6.402055E-06 -1
vn 0 0 -1
vn 3.979718E-07 1.669813E-07 -1
vn 0 0 0
vn -0.004572724 0.9999896 -2.130985E-07
vn -0.004572751 0.9999896 -1.778031E-07
vn -0.004572747 0.9999896 -2.029077E-07
vn 3.979718E-07 1.669813E-07 -1
vn 3.979718E-07 1.669813E-07 -1
vn -0.9221201 -0.3869038 -1.192093E-07
vn -0.92212 -0.3869037 -1.192092E-07
vn -0.9221201 -0.3869038 -1.192093E-07
vn -0.9221201 -0.3869038 -1.192093E-07
vn -0.9221201 -0.3869038 -1.192093E-07
vn -0.9221201 -0.3869038 -1.192092E-07
vn -0.9221201 -0.3869038 -1.192093E-07
vn -0.9221201 -0.3869038 -1.192093E-07
vn -0.9221201 -0.3869038 -1.192093E-07
vn 0 0 1
vn 0 0 1
vn 0 0 1
vn 0 0 1
vn 0 0 1
vn 0 0 1
vn 0 0 1
vn 0 0 1
vn 0 0 1
vn 0 0 1
vn 0 0 1
vn 0 0 1
vn 0 0 1
vn 0 0 0.9999999
vn 0 0 1
vn 0 0 1
vn 0 0 0.9999999
vn 0 0 1
vn 0 0 1
vn 0 0 1
vn 0 0 0.9999999
vn 0 0 1
vn 0 0 1
vn 0 0 1
vn 0 0 1
vn 0 0 1
vn 0 0 1
vn 0 0 1
vn 0 0 1
vn 0 0 1
vn 0 0 1
vn 0 0 0.9999999
vn 0 0 1
vn 0 0 0.9999999
vn 0 0 0.9999999
vn 0 0 1
vn 0 0 0.9999999
vn 0 0 0.9999999
vn 0.7103325 -0.7038664 3.42789E-07
vn 0.8651583 -0.5014989 3.092419E-07
vn 0.9686837 -0.248298 2.619401E-07
vn 0.7103324 -0.7038662 3.23738E-07
vn 0.9663725 0.2571461 1.531119E-07
vn 0.8605362 0.5093895 7.358348E-08
vn 0.7038664 0.7103324 7.245398E-09
vn 0.7038664 0.7103324 0
vn 0.7103323 -0.7038664 2.570785E-07
vn -0.9221201 -0.3869038 -1.192093E-07
vn -0.9221201 -0.3869038 -1.192093E-07
vn -0.9221201 -0.3869038 -1.192093E-07
vn -0.9221201 -0.3869038 -1.192093E-07
vn -0.9221201 -0.3869038 -1.192093E-07
vn -0.9221201 -0.3869038 -1.192093E-07
vn -0.9221201 -0.3869038 -1.283792E-07
vn -0.92212 -0.3869037 -1.283792E-07
vn -0.3788637 0.902958 -0.2028032
vn 2.850548E-07 -6.793801E-07 -1
vn 1.989859E-07 8.349063E-08 -0.9999999
vn 2.586482E-07 -1.249978E-08 -1
vn 1.989859E-07 8.349063E-08 -1
vn 1.989859E-07 8.349063E-08 -1
vn 2.346368E-07 -2.325008E-07 -1
vn 2.346368E-07 -2.32501E-07 -1
vn 2.346369E-07 -2.325003E-07 -1
vn 2.346367E-07 -2.325011E-07 -1
vn 2.346367E-07 -2.325012E-07 -1
vn 2.346369E-07 -2.325006E-07 -0.9999999
vn 2.346377E-07 -2.324985E-07 -1
vn 2.346358E-07 -2.325035E-07 -0.9999999
vn 3.294524E-07 -6.023635E-10 -1
vn 2.814086E-07 1.180736E-07 -1
vn 3.303158E-07 1.510787E-09 -1
vn 3.303162E-07 1.510358E-09 -1
vn 3.303167E-07 1.509799E-09 -1
vn 3.303164E-07 1.510164E-09 -1
vn 3.303164E-07 1.510203E-09 -1
vn 3.303163E-07 1.510321E-09 -1
vn 3.303161E-07 1.510884E-09 -1
vn 2.42294E-07 2.112966E-07 -1
vn 2.32501E-07 2.346369E-07 -1
vn 2.325009E-07 2.346371E-07 -1
vn 2.325009E-07 2.346362E-07 -1
vn 2.325011E-07 2.346381E-07 -1
vn 2.325009E-07 2.346372E-07 -1
vn 2.325009E-07 2.346368E-07 -1
vn 1.722926E-07 1.933143E-07 -1
vn -1.510496E-09 3.303164E-07 -1
vn -1.510638E-09 3.303165E-07 -1
vn -1.510914E-09 3.303168E-07 -1
vn -1.505716E-09 3.303117E-07 -1
vn -1.511397E-09 3.303174E-07 -1
vn -1.511059E-09 3.303169E-07 -1
vn -1.510024E-09 3.303158E-07 -1
vn -1.509246E-09 3.303149E-07 -0.9999999
vn 1.989859E-07 8.349063E-08 -1
vn 1.989859E-07 8.349065E-08 -1
vn 1.989859E-07 8.349063E-08 -0.9999999

f 1//1 2//2 3//3
f 4//4 1//1 3//3
f 3//3 5//5 4//4
f 3//3 6//6 5//5
f 5//5 6//6 7//7
f 8//8 7//7 6//6
f 9//9 8//8 6//6
f 10//10 9//9 6//6
f 9//9 10//10 11//11
f 11//11 10//10 12//12
f 13//13 11//11 12//12
f 13//13 12//12 14//14
f 13//13 14//14 15//15
f 15//15 14//14 16//16
f 15//15 16//16 17//17
f 18//18 17//17 16//16
f 19//19 17//17 18//18
f 19//19 18//18 20//20
f 21//21 19//19 20//20
f 22//22 19//19 21//21
f 22//22 21//21 23//23
f 24//24 22//22 23//23
f 24//24 23//23 25//25
f 26//26 24//24 25//25
f 26//26 25//25 27//27
f 28//28 26//26 27//27
f 28//28 27//27 29//29
f 29//29 27//27 30//30
f 31//31 29//29 30//30
f 31//31 30//30 32//32
f 33//33 31//31 32//32
f 33//33 32//32 34//34
f 35//35 33//33 34//34
f 35//35 34//34 36//36
f 37//37 35//35 36//36
f 37//37 36//36 38//38
f 39//39 37//37 38//38
f 39//39 38//38 40//40
f 41//41 39//39 40//40
f 41//41 40//40 42//42
f 41//41 42//42 43//43
f 43//43 42//42 44//44
f 45//45 43//43 44//44
f 45//45 44//44 46//46
f 47//47 45//45 46//46
f 48//48 45//45 47//47
f 48//48 47//47 49//49
f 50//50 48//48 49//49
f 50//50 49//49 51//51
f 52//52 50//50 51//51
f 52//52 51//51 53//53
f 54//54 52//52 53//53
f 55//55 54//54 53//53
f 55//55 53//53 56//56
f 55//55 56//56 57//57
f 57//57 56//56 58//58
f 57//57 58//58 59//59
f 59//59 58//58 60//60
f 59//59 60//60 61//61
f 61//61 60//60 62//62
f 61//61 62//62 63//63
f 63//63 62//62 64//64
f 63//63 64//64 65//65
f 65//65 64//64 66//66
f 65//65 66//66 67//67
f 68//68 67//67 66//66
f 69//69 67//67 68//68
f 69//69 68//68 70//70
f 71//71 69//69 70//70
f 72//72 71//71 73//73
f 74//74 75//75 76//76
f 77//77 74//74 76//76
f 75//75 77//77 76//76
f 78//78 75//75 74//74
f 79//79 75//75 78//78
f 78//78 74//74 80//80
f 81//81 78//78 80//80
f 82//82 78//78 81//81
f 82//82 83//83 78//78
f 83//83 84//84 79//79
f 84//84 85//85 79//79
f 80//80 74//74 86//86
f 87//87 80//80 86//86
f 81//81 80//80 87//87
f 86//86 74//74 88//88
f 88//88 74//74 77//77
f 86//86 88//88 89//89
f 90//90 86//86 89//89
f 87//87 86//86 90//90
f 75//75 91//91 77//77
f 90//90 89//89 92//92
f 90//90 92//92 93//93
f 94//94 90//90 93//93
f 95//95 83//83 82//82
f 95//95 82//82 81//81
f 95//95 81//81 87//87
f 95//95 87//87 90//90
f 95//95 96//96 83//83
f 97//97 91//91 75//75
f 97//97 98//98 91//91
f 97//97 99//99 98//98
f 100//100 95//95 101//101
f 102//102 103//103 104//104
f 102//102 104//104 105//105
f 102//102 105//105 106//106
f 106//106 105//105 107//107
f 108//108 102//102 106//106
f 109//109 102//102 108//108
f 110//110 108//108 106//106
f 111//111 112//112 113//113
f 111//111 113//113 114//114
f 111//111 114//114 115//115
f 111//111 115//115 116//116
f 111//111 116//116 117//117
f 117//117 118//118 111//111
f 118//118 119//119 111//111
f 120//120 111//111 119//119
f 120//120 121//121 111//111
f 121//121 122//122 111//111
f 111//111 122//122 123//123
f 114//114 113//113 124//124
f 124//124 113//113 125//125
f 125//125 113//113 126//126
f 126//126 113//113 127//127
f 127//127 113//113 128//128
f 128//128 113//113 129//129
f 129//129 113//113 130//130
f 130//130 113//113 131//131
f 131//131 113//113 132//132
f 132//132 113//113 133//133
f 133//133 113//113 134//134
f 133//133 134//134 135//135
f 135//135 134//134 136//136
f 134//134 137//137 136//136
f 137//137 134//134 138//138
f 138//138 134//134 139//139
f 139//139 134//134 140//140
f 140//140 134//134 141//141
f 134//134 142//142 141//141
f 134//134 143//143 142//142
f 134//134 144//144 143//143
f 144//144 134//134 145//145
f 145//145 134//134 146//146
f 147//147 134//134 148//148
f 149//149 150//150 151//151
f 149//149 152//152 150//150
f 151//151 150//150 153//153
f 151//151 153//153 154//154
f 154//154 153//153 155//155
f 154//154 155//155 156//156
f 152//152 157//157 150//150
f 158//158 159//159 160//160
f 161//161 159//159 158//158
f 162//162 159//159 161//161
f 163//163 162//162 161//161
f 164//164 162//162 163//163
f 165//165 162//162 164//164
f 9//9 166//166 8//8
f 166//166 9//9 167//167
f 168//168 169//169 170//170
f 168//168 171//171 169//169
f 172//172 169//169 173//173
f 174//174 169//169 172//172
f 169//169 174//174 175//175
f 176//176 169//169 175//175
f 177//177 169//169 176//176
f 178//178 169//169 177//177
f 178//178 179//179 169//169
f 179//179 180//180 169//169
f 180//180 181//181 169//169
f 182//182 181//181 180//180
f 182//182 183//183 181//181
f 183//183 184//184 181//181
f 184//184 185//185 181//181
f 185//185 186//186 181//181
f 186//186 187//187 181//181
f 187//187 188//188 181//181
f 188//188 189//189 181//181
f 181//181 189//189 190//190
f 181//181 190//190 191//191
f 192//192 181//181 191//191
f 193//193 181//181 192//192
f 194//194 181//181 193//193
f 195//195 181//181 194//194
f 195//195 196//196 181//181
f 196//196 197//197 198//198
f 196//196 198//198 199//199
f 199//199 200//200 196//196
f 196//196 200//200 201//201
f 201//201 202//202 196//196
f 196//196 202//202 203//203
f 196//196 203//203 204//204
f 205//205 196//196 206//206
f 207//207 196//196 205//205
