v 103.8648 184.1672 -202.3952
v 103.8648 95.87531 -158.2493
v 103.8648 184.1672 -202.3952
v 103.8648 184.1672 -202.3952
v 102.4845 185.6403 -199.449
v 101.9324 186.2295 -198.2706
v 101.9324 186.2295 -198.2706
v 101.9324 97.93763 -154.1246
v 101.9324 9.645744 -109.9787
v 101.6857 186.2291 -198.2715
v 99.71216 9.64167 -109.9868
v 101.655 186.229 -198.2716
v 99.43626 9.641159 -109.9879
v 101.6464 186.229 -198.2716
v 99.3588 9.641014 -109.9881
v 101.5497 186.2288 -198.272
v 98.48826 9.63942 -109.9913
v 100.3571 186.2266 -198.2764
v 98.35575 9.639175 -109.9918
v 99.22642 186.2245 -198.2805
v 99.09634 186.2243 -198.281
v 98.21567 9.638916 -109.9923
v 98.82504 186.2238 -198.282
v 98.18552 9.638863 -109.9925
v 98.10558 186.2225 -198.2846
v 98.10558 9.638718 -109.9928
v 97.96105 186.2866 -198.1564
v 97.30977 9.991699 -109.2868
v 96.80487 10.21565 -108.8389
v 97.92519 186.3025 -198.1246
v 96.48214 10.3588 -108.5526
v 97.91452 186.3072 -198.1151
v 96.3861 10.4014 -108.4674
v 97.83386 186.343 -198.0436
v 95.66021 10.72337 -107.8234
v 96.90855 186.7534 -197.2227
v 95.5574 10.76897 -107.7322
v 96.1441 187.0925 -196.5446
v 95.47246 10.80665 -107.6569
v 95.3885 187.4276 -195.8743
v 95.3885 10.84389 -107.5824
v 95.38802 187.4805 -195.7687
v 95.38413 11.31919 -106.6318
v 95.38692 187.5988 -195.532
v 95.37435 12.38415 -104.5019
v 95.3839 187.9289 -194.8718
v 95.38268 188.0609 -194.6077
v 95.37389 12.43549 -104.3992
v 95.37855 188.5111 -193.7074
v 95.37342 12.48551 -104.2992
v 95.37514 188.8817 -192.9661
v 95.37305 12.5267 -104.2168
v 95.37277 189.139 -192.4515
v 95.37278 12.55528 -104.1596
v 95.37278 12.55528 -104.1596
v 95.53294 189.2113 -192.3071
v 96.81425 13.20525 -102.8597
v 95.58008 189.2325 -192.2645
v 97.23853 13.39655 -102.4771
v 95.58489 189.2347 -192.2602
v 97.28184 13.41608 -102.438
v 95.58713 189.2357 -192.2582
v 97.30193 13.42514 -102.4199
v 95.58994 189.237 -192.2556
v 97.32731 13.43659 -102.397
v 95.64226 189.2606 -192.2085
v 97.79814 13.64889 -101.9724
v 98.06762 190.3542 -190.0213
v 98.06763 13.7704 -101.7294
v 98.06762 190.3542 -190.0213
v 98.06763 13.7704 -101.7294
v 98.06762 190.3542 -190.0213
v 98.06762 190.3542 -190.0213
v 97.51551 190.9434 -188.8428
v 96.13524 192.4165 -185.8966
v 96.13524 192.4165 -185.8966
v 96.13524 192.4165 -185.8966
v 98.06762 190.3542 -190.0213
v 98.06762 190.3542 -190.0213
v 98.06762 190.3542 -190.0213
v 98.06763 13.7704 -101.7294
v 98.06763 13.7704 -101.7294
v 98.06763 13.7704 -101.7294
v 98.06762 190.3542 -190.0213
v 90.74555 189.9863 -190.7571
v 98.06762 190.3542 -190.0213
v 98.06763 13.7704 -101.7294
v 98.06762 190.3542 -190.0213
v 98.06762 102.0623 -145.8753
v 98.06763 13.7704 -101.7294
v 96.13525 104.1246 -141.7507
v 98.06763 13.77048 -101.7294
v 98.06763 13.7704 -101.7294
v 97.51552 14.35963 -100.5509
v 90.74556 13.40251 -102.4652
v 98.06763 13.7704 -101.7294
v 90.74555 189.9863 -190.7571
v 96.13525 15.83273 -97.60474
v 90.74556 13.40251 -102.4652
v 95.37278 12.55528 -104.1596
v 95.37278 12.55528 -104.1596
v 103.8648 95.87531 -158.2493
v 103.8648 184.1672 -202.3952
v 103.8648 184.1672 -202.3952
v 102.4845 185.6403 -199.449
v 101.9324 97.93763 -154.1246
v 101.9324 186.2295 -198.2706
v 102.7328 8.791504 -111.6872
v 103.8648 7.58342 -114.1033
v 101.9324 9.645744 -109.9787
v 103.8648 184.1672 -202.3952
v 96.21115 184.1531 -202.4233
v 90.777 186.5635 -197.6027
v 98.10558 186.2225 -198.2846
v 98.82504 186.2238 -198.282
v 99.09634 186.2243 -198.281
v 99.22642 186.2245 -198.2805
v 100.3571 186.2266 -198.2764
v 101.5497 186.2288 -198.272
v 101.6464 186.229 -198.2716
v 101.655 186.229 -198.2716
v 101.6857 186.2291 -198.2715
v 101.9324 186.2295 -198.2706
v 97.96105 186.2866 -198.1564
v 97.92519 186.3025 -198.1246
v 97.91452 186.3072 -198.1151
v 97.83386 186.343 -198.0436
v 96.90855 186.7534 -197.2227
v 96.1441 187.0925 -196.5446
v 95.3885 187.4276 -195.8743
v 95.38802 187.4805 -195.7687
v 95.38692 187.5988 -195.532
v 95.3839 187.9289 -194.8718
v 90.74555 189.9863 -190.7571
v 95.38268 188.0609 -194.6077
v 95.37855 188.5111 -193.7074
v 95.37514 188.8817 -192.9661
v 95.37277 189.139 -192.4515
v 95.53294 189.2113 -192.3071
v 95.58008 189.2325 -192.2645
v 95.58489 189.2347 -192.2602
v 95.58713 189.2357 -192.2582
v 95.58994 189.237 -192.2556
v 95.64226 189.2606 -192.2085
v 98.06762 190.3542 -190.0213
v 98.06762 190.3542 -190.0213
v 98.06762 190.3542 -190.0213
v 96.13524 192.4165 -185.8966
v 103.8648 184.1672 -202.3952
v 96.21115 7.569374 -114.1315
v 96.21115 184.1531 -202.4233
v 103.8648 95.87531 -158.2493
v 90.777 9.979713 -109.3108
v 90.777 186.5635 -197.6027
v 90.74556 13.40251 -102.4652
v 90.74555 189.9863 -190.7571
v 103.8648 7.58342 -114.1033
v 96.13524 192.4165 -185.8966
v 98.06762 102.0623 -145.8753
v 98.06762 190.3542 -190.0213
v 96.13525 104.1246 -141.7507
v 98.06763 13.77048 -101.7294
v 96.13525 15.83273 -97.60474
v 97.51552 14.35963 -100.5509
v 98.06763 13.7704 -101.7294
v 101.9324 9.645744 -109.9787
v 96.21115 7.569374 -114.1315
v 102.7328 8.791504 -111.6872
v 96.21115 7.569374 -114.1315
v 103.8648 7.58342 -114.1033
v 101.9324 9.645744 -109.9787
v 99.71216 9.64167 -109.9868
v 101.9324 9.645744 -109.9787
v 99.43626 9.641159 -109.9879
v 99.3588 9.641014 -109.9881
v 98.48826 9.63942 -109.9913
v 98.35575 9.639175 -109.9918
v 98.21567 9.638916 -109.9923
v 98.18552 9.638863 -109.9925
v 98.10558 9.638718 -109.9928
v 90.777 9.979713 -109.3108
v 97.30977 9.991699 -109.2868
v 96.80487 10.21565 -108.8389
v 96.48214 10.3588 -108.5526
v 96.3861 10.4014 -108.4674
v 95.66021 10.72337 -107.8234
v 95.5574 10.76897 -107.7322
v 95.47246 10.80665 -107.6569
v 95.3885 10.84389 -107.5824
v 95.38413 11.31919 -106.6318
v 95.37435 12.38415 -104.5019
v 95.37389 12.43549 -104.3992
v 95.37342 12.48551 -104.2992
v 95.37305 12.5267 -104.2168
v 95.37278 12.55528 -104.1596
v 90.74556 13.40251 -102.4652
v 95.37278 12.55528 -104.1596
v 96.81425 13.20525 -102.8597
v 97.23853 13.39655 -102.4771
v 97.28184 13.41608 -102.438
v 97.30193 13.42514 -102.4199
v 97.32731 13.43659 -102.397
v 97.79814 13.64889 -101.9724
v 98.06763 13.7704 -101.7294
v 97.51552 14.35963 -100.5509
v 98.06763 13.7704 -101.7294
v 96.13525 15.83273 -97.60474

vn 0.3864757 -0.4124645 -0.8249301
vn 0.3864757 -0.4124646 -0.82493
vn 0.2934342 0.2689187 -0.9173762
vn -2.980232E-08 0.8944272 -0.4472136
vn -2.980232E-08 0.8944272 -0.4472136
vn -0.004103262 0.4472098 0.8944197
vn -0.3825914 0.5348103 0.7533937
vn 0.8040257 0.2659106 0.5318216
vn -0.004107888 0.4472096 0.8944198
vn -0.004108737 0.4472096 0.8944198
vn -0.004108393 0.4472096 0.8944198
vn -0.004107375 0.4472095 0.8944199
vn -0.004106311 0.4472094 0.8944198
vn -0.004112107 0.44721 0.8944196
vn -0.004109328 0.4472097 0.8944197
vn -0.004108796 0.4472097 0.8944197
vn -0.004108948 0.4472097 0.8944198
vn -0.004109035 0.4472097 0.8944197
vn -0.004108741 0.4472097 0.8944197
vn -0.004109085 0.4472097 0.8944198
vn -0.004107912 0.4472097 0.8944198
vn -0.004106339 0.4472096 0.8944197
vn -0.00410853 0.4472097 0.8944197
vn -0.004109406 0.4472097 0.8944198
vn 0.1467695 0.4423705 0.8847414
vn 0.6745677 0.3301387 0.6602778
vn 0.7041975 0.3175234 0.6350473
vn 0.7041968 0.3175236 0.6350477
vn 0.7041966 0.3175237 0.6350479
vn 0.7041952 0.3175246 0.6350492
vn 0.7041942 0.317525 0.6350499
vn 0.704193 0.3175257 0.6350509
vn 0.7041951 0.3175246 0.6350492
vn 0.7041959 0.3175241 0.6350485
vn 0.7041963 0.3175239 0.6350483
vn 0.7041963 0.3175238 0.6350482
vn 0.7041955 0.3175242 0.6350488
vn 0.704196 0.317524 0.6350485
vn 0.7041969 0.3175236 0.6350477
vn 0.749401 0.2961073 0.5922152
vn 0.9975417 0.03133906 0.0626784
vn 0.9999915 0.001837869 0.003675921
vn 0.9999916 0.001837365 0.003674974
vn 0.9999917 0.001837017 0.003674369
vn 0.9999915 0.001837044 0.00367436
vn 0.9999915 0.001837253 0.003674738
vn 0.9999915 0.001837616 0.003675181
vn 0.9999916 0.001837349 0.003674803
vn 0.9999917 0.001837535 0.003675125
vn 0.9999915 0.00183739 0.003674818
vn 0.9999917 0.001837404 0.003674831
vn 0.9999915 0.001837607 0.003675217
vn 0.9811918 -0.08632816 -0.1726564
vn 0.9999915 0.001848017 0.003696032
vn 0.7100061 -0.3149257 -0.6298517
vn 0.7100051 -0.3149261 -0.6298524
vn 0.7100049 -0.3149264 -0.6298528
vn 0.710004 -0.3149268 -0.6298534
vn 0.7100055 -0.314926 -0.6298523
vn 0.7100067 -0.3149253 -0.6298515
vn 0.7100085 -0.3149241 -0.6298497
vn 0.7100404 -0.3149047 -0.6298235
vn 0.7100204 -0.3149169 -0.62984
vn 0.7100003 -0.314929 -0.6298566
vn 0.7100033 -0.3149273 -0.6298541
vn 0.7100052 -0.3149261 -0.6298524
vn 0.7100056 -0.3149259 -0.6298521
vn 0.7100059 -0.3149258 -0.6298519
vn 0.7100095 -0.3149243 -0.6298487
vn 0.8179373 -0.2572853 -0.5145707
vn 0.3864757 -0.4124648 -0.82493
vn 0.3864757 -0.4124648 -0.82493
vn 0.3864757 -0.4124648 -0.82493
vn -2.980232E-08 0.8944272 -0.4472136
vn -0.7100054 0.3149259 0.6298524
vn -2.980232E-08 0.8944272 -0.4472136
vn 0.8642513 0.2249754 0.4499511
vn 0.2510019 0.4122346 -0.87582
vn 0.2177204 0.5066317 -0.8342195
vn 0.385499 -0.3478743 -0.8546193
vn 0.3864757 -0.4124648 -0.82493
vn 0.3864757 -0.4124648 -0.82493
vn 0.3864757 -0.4124648 -0.82493
vn 0.38442 -0.3181425 -0.8666064
vn -2.980232E-08 0.8944272 -0.4472136
vn 0.38645 -0.4011045 -0.830525
vn 0.3864757 -0.4124648 -0.82493
vn 0.3825914 -0.2818282 -0.8798845
vn 0.3864695 -0.412466 -0.8249322
vn 0.3857726 -0.4654248 -0.7965924
vn -0.7100054 0.3149259 0.6298523
vn 0.3864538 -0.4124689 -0.8249381
vn 2.713008E-06 -0.8944301 0.4472079
vn 2.980232E-08 -0.8944272 0.4472136
vn -3.68247E-07 -0.8944273 0.4472135
vn 0 0 0
vn -0.7100055 0.3149259 0.6298523
vn -0.7100055 0.314926 0.6298523
vn -0.7100055 0.314926 0.6298524
vn -3.68247E-07 -0.8944273 0.4472135
vn -3.68247E-07 -0.8944273 0.4472135
vn 0.9222996 0.1728371 0.3456744
vn 0.9222996 0.1728371 0.3456744
vn 0.9222996 0.1728371 0.3456744
vn 0.9222996 0.1728371 0.3456744
vn 0.9222996 0.1728371 0.3456744
vn 0.9222996 0.1728371 0.3456744
vn 0.9222996 0.1728371 0.3456744
vn 0.9222996 0.1728371 0.3456744
vn 0.9222996 0.1728371 0.3456744
vn -2.980232E-08 0.8944272 -0.4472136
vn -2.980232E-08 0.8944272 -0.4472136
vn -2.980232E-08 0.8944272 -0.4472136
vn -2.980232E-08 0.8944272 -0.4472136
vn -2.980232E-08 0.8944272 -0.4472136
vn -2.980232E-08 0.8944272 -0.4472136
vn -2.980232E-08 0.8944272 -0.4472136
vn -2.980232E-08 0.8944272 -0.4472136
vn -2.980232E-08 0.8944272 -0.4472136
vn -2.980232E-08 0.8944272 -0.4472136
vn -2.980232E-08 0.8944272 -0.4472136
vn -2.980232E-08 0.8944272 -0.4472136
vn -2.980232E-08 0.8944272 -0.4472136
vn -2.980232E-08 0.8944272 -0.4472136
vn -2.980232E-08 0.8944272 -0.4472136
vn -2.980232E-08 0.8944272 -0.4472136
vn -2.980232E-08 0.8944272 -0.4472136
vn -2.980232E-08 0.8944272 -0.4472136
vn -2.980232E-08 0.8944272 -0.4472136
vn -2.980232E-08 0.8944272 -0.4472136
vn -2.980232E-08 0.8944272 -0.4472136
vn -2.980232E-08 0.8944272 -0.4472136
vn -2.980232E-08 0.8944272 -0.4472136
vn -2.980232E-08 0.8944272 -0.4472136
vn -2.980232E-08 0.8944272 -0.4472136
vn -2.980232E-08 0.8944272 -0.4472136
vn -2.980232E-08 0.8944272 -0.4472136
vn -2.980232E-08 0.8944272 -0.4472136
vn -2.980232E-08 0.8944272 -0.4472136
vn -2.980232E-08 0.8944272 -0.4472136
vn -2.980232E-08 0.8944272 -0.4472136
vn -2.980232E-08 0.8944272 -0.4472136
vn -2.980232E-08 0.8944272 -0.4472136
vn -2.980232E-08 0.8944272 -0.4472136
vn -2.980232E-08 0.8944272 -0.4472136
vn -2.980232E-08 0.8944272 -0.4472136
vn -2.980232E-08 0.8944272 -0.4472136
vn -2.980232E-08 0.8944272 -0.4472136
vn 0.004108361 -0.4472096 -0.8944199
vn -0.2487478 -0.4331567 -0.866314
vn -0.5019006 -0.3868062 -0.7736129
vn 0.004108319 -0.4472095 -0.8944197
vn -0.8607726 -0.2276271 -0.4552545
vn -0.9664919 -0.1147986 -0.2295973
vn -0.9999915 -0.001837324 -0.003674671
vn -0.9999916 -0.001837341 -0.003674689
vn 0.004108448 -0.4472097 -0.8944198
vn 0.9222996 0.1728371 0.3456744
vn 0.9222996 0.1728371 0.3456744
vn 0.9222996 0.1728371 0.3456744
vn 0.9222996 0.1728371 0.3456744
vn 0.9222996 0.1728371 0.3456744
vn 0.9222996 0.1728371 0.3456744
vn 0.9222996 0.1728371 0.3456744
vn 0.9222996 0.1728371 0.3456744
vn -0.3784445 0.222501 0.8984838
vn 3.145417E-07 -0.8944275 0.447213
vn -1.692223E-07 -0.8944272 0.4472135
vn -1.4258E-07 -0.8944273 0.4472134
vn -1.692223E-07 -0.8944272 0.4472135
vn -1.692223E-07 -0.8944272 0.4472135
vn 3.115927E-08 -0.8944274 0.4472133
vn 3.115942E-08 -0.8944274 0.4472133
vn 3.115886E-08 -0.8944274 0.4472133
vn 3.115959E-08 -0.8944274 0.4472133
vn 3.115967E-08 -0.8944274 0.4472133
vn 3.115907E-08 -0.8944273 0.4472133
vn 3.115701E-08 -0.8944274 0.4472133
vn 3.116191E-08 -0.8944273 0.4472133
vn -2.006951E-07 -0.8944273 0.4472134
vn -2.516611E-07 -0.8944272 0.4472135
vn -2.028075E-07 -0.8944273 0.4472134
vn -2.028074E-07 -0.8944273 0.4472134
vn -2.028074E-07 -0.8944273 0.4472134
vn -2.028074E-07 -0.8944273 0.4472134
vn -2.028075E-07 -0.8944273 0.4472134
vn -2.028075E-07 -0.8944273 0.4472134
vn -2.028077E-07 -0.8944273 0.4472134
vn -2.907323E-07 -0.8944272 0.4472136
vn -3.005147E-07 -0.8944272 0.4472136
vn -3.005148E-07 -0.8944272 0.4472136
vn -3.005142E-07 -0.8944272 0.4472136
vn -3.005156E-07 -0.8944272 0.4472136
vn -3.005149E-07 -0.8944272 0.4472136
vn -3.005146E-07 -0.8944272 0.4472136
vn -2.288401E-07 -0.8944272 0.4472136
vn -2.047266E-07 -0.8944271 0.4472138
vn -2.047266E-07 -0.8944271 0.4472138
vn -2.047266E-07 -0.8944271 0.4472138
vn -2.047265E-07 -0.8944271 0.4472138
vn -2.047266E-07 -0.8944271 0.4472138
vn -2.047265E-07 -0.8944271 0.4472138
vn -2.047265E-07 -0.8944271 0.4472138
vn -2.047264E-07 -0.8944271 0.4472138
vn -1.692223E-07 -0.8944272 0.4472135
vn -1.692223E-07 -0.8944272 0.4472135
vn -1.692223E-07 -0.8944272 0.4472135

f 1//1 2//2 3//3
f 4//4 1//1 3//3
f 3//3 5//5 4//4
f 3//3 6//6 5//5
f 5//5 6//6 7//7
f 8//8 7//7 6//6
f 9//9 8//8 6//6
f 10//10 9//9 6//6
f 9//9 10//10 11//11
f 11//11 10//10 12//12
f 13//13 11//11 12//12
f 13//13 12//12 14//14
f 13//13 14//14 15//15
f 15//15 14//14 16//16
f 15//15 16//16 17//17
f 18//18 17//17 16//16
f 19//19 17//17 18//18
f 19//19 18//18 20//20
f 21//21 19//19 20//20
f 22//22 19//19 21//21
f 22//22 21//21 23//23
f 24//24 22//22 23//23
f 24//24 23//23 25//25
f 26//26 24//24 25//25
f 26//26 25//25 27//27
f 28//28 26//26 27//27
f 28//28 27//27 29//29
f 29//29 27//27 30//30
f 31//31 29//29 30//30
f 31//31 30//30 32//32
f 33//33 31//31 32//32
f 33//33 32//32 34//34
f 35//35 33//33 34//34
f 35//35 34//34 36//36
f 37//37 35//35 36//36
f 37//37 36//36 38//38
f 39//39 37//37 38//38
f 39//39 38//38 40//40
f 41//41 39//39 40//40
f 41//41 40//40 42//42
f 41//41 42//42 43//43
f 43//43 42//42 44//44
f 45//45 43//43 44//44
f 45//45 44//44 46//46
f 47//47 45//45 46//46
f 48//48 45//45 47//47
f 48//48 47//47 49//49
f 50//50 48//48 49//49
f 50//50 49//49 51//51
f 52//52 50//50 51//51
f 52//52 51//51 53//53
f 54//54 52//52 53//53
f 55//55 54//54 53//53
f 55//55 53//53 56//56
f 55//55 56//56 57//57
f 57//57 56//56 58//58
f 57//57 58//58 59//59
f 59//59 58//58 60//60
f 59//59 60//60 61//61
f 61//61 60//60 62//62
f 61//61 62//62 63//63
f 63//63 62//62 64//64
f 63//63 64//64 65//65
f 65//65 64//64 66//66
f 65//65 66//66 67//67
f 68//68 67//67 66//66
f 69//69 67//67 68//68
f 69//69 68//68 70//70
f 71//71 69//69 70//70
f 72//72 71//71 73//73
f 74//74 75//75 76//76
f 77//77 74//74 76//76
f 75//75 77//77 76//76
f 78//78 75//75 74//74
f 79//79 75//75 78//78
f 78//78 74//74 80//80
f 81//81 78//78 80//80
f 82//82 78//78 81//81
f 82//82 83//83 78//78
f 83//83 84//84 79//79
f 84//84 85//85 79//79
f 80//80 74//74 86//86
f 87//87 80//80 86//86
f 81//81 80//80 87//87
f 86//86 74//74 88//88
f 88//88 74//74 77//77
f 86//86 88//88 89//89
f 90//90 86//86 89//89
f 87//87 86//86 90//90
f 75//75 91//91 77//77
f 90//90 89//89 92//92
f 90//90 92//92 93//93
f 94//94 90//90 93//93
f 95//95 83//83 82//82
f 95//95 82//82 81//81
f 95//95 81//81 87//87
f 95//95 87//87 90//90
f 95//95 96//96 83//83
f 97//97 91//91 75//75
f 97//97 98//98 91//91
f 97//97 99//99 98//98
f 100//100 95//95 101//101
f 102//102 103//103 104//104
f 102//102 104//104 105//105
f 102//102 105//105 106//106
f 106//106 105//105 107//107
f 108//108 102//102 106//106
f 109//109 102//102 108//108
f 110//110 108//108 106//106
f 111//111 112//112 113//113
f 111//111 113//113 114//114
f 111//111 114//114 115//115
f 111//111 115//115 116//116
f 111//111 116//116 117//117
f 117//117 118//118 111//111
f 118//118 119//119 111//111
f 120//120 111//111 119//119
f 120//120 121//121 111//111
f 121//121 122//122 111//111
f 111//111 122//122 123//123
f 114//114 113//113 124//124
f 124//124 113//113 125//125
f 125//125 113//113 126//126
f 126//126 113//113 127//127
f 127//127 113//113 128//128
f 128//128 113//113 129//129
f 129//129 113//113 130//130
f 130//130 113//113 131//131
f 131//131 113//113 132//132
f 132//132 113//113 133//133
f 133//133 113//113 134//134
f 133//133 134//134 135//135
f 135//135 134//134 136//136
f 134//134 137//137 136//136
f 137//137 134//134 138//138
f 138//138 134//134 139//139
f 139//139 134//134 140//140
f 140//140 134//134 141//141
f 134//134 142//142 141//141
f 134//134 143//143 142//142
f 134//134 144//144 143//143
f 144//144 134//134 145//145
f 145//145 134//134 146//146
f 147//147 134//134 148//148
f 149//149 150//150 151//151
f 149//149 152//152 150//150
f 151//151 150//150 153//153
f 151//151 153//153 154//154
f 154//154 153//153 155//155
f 154//154 155//155 156//156
f 152//152 157//157 150//150
f 158//158 159//159 160//160
f 161//161 159//159 158//158
f 162//162 159//159 161//161
f 163//163 162//162 161//161
f 164//164 162//162 163//163
f 165//165 162//162 164//164
f 9//9 166//166 8//8
f 166//166 9//9 167//167
f 168//168 169//169 170//170
f 168//168 171//171 169//169
f 172//172 169//169 173//173
f 174//174 169//169 172//172
f 169//169 174//174 175//175
f 176//176 169//169 175//175
f 177//177 169//169 176//176
f 178//178 169//169 177//177
f 178//178 179//179 169//169
f 179//179 180//180 169//169
f 180//180 181//181 169//169
f 182//182 181//181 180//180
f 182//182 183//183 181//181
f 183//183 184//184 181//181
f 184//184 185//185 181//181
f 185//185 186//186 181//181
f 186//186 187//187 181//181
f 187//187 188//188 181//181
f 188//188 189//189 181//181
f 181//181 189//189 190//190
f 181//181 190//190 191//191
f 192//192 181//181 191//191
f 193//193 181//181 192//192
f 194//194 181//181 193//193
f 195//195 181//181 194//194
f 195//195 196//196 181//181
f 196//196 197//197 198//198
f 196//196 198//198 199//199
f 199//199 200//200 196//196
f 196//196 200//200 201//201
f 201//201 202//202 196//196
f 196//196 202//202 203//203
f 196//196 203//203 204//204
f 205//205 196//196 206//206
f 207//207 196//196 205//205
