v -103.9344 -15.81957 -102.3689
v -103.9344 -104.1115 -58.22293
v -103.9344 -15.81957 -102.3689
v -103.9344 -15.81957 -102.3689
v -102.5292 -14.35119 -99.43214
v -101.9672 -13.76383 -98.25743
v -101.9672 -13.76383 -98.25743
v -101.9672 -102.0558 -54.11145
v -101.9672 -190.3477 -9.965473
v -102.1396 -13.68492 -98.09959
v -103.5187 -189.6375 -8.544979
v -102.161 -13.67511 -98.07999
v -103.7115 -189.5492 -8.368462
v -102.167 -13.67236 -98.07448
v -103.7656 -189.5244 -8.318905
v -102.2346 -13.64142 -98.0126
v -104.374 -189.246 -7.761932
v -103.068 -13.25992 -97.24959
v -104.4666 -189.2036 -7.677155
v -103.8582 -12.8982 -96.52617
v -103.9491 -12.85659 -96.44295
v -104.5645 -189.1588 -7.587528
v -104.1386 -12.76981 -96.26936
v -104.5855 -189.1491 -7.568241
v -104.6414 -12.53965 -95.80905
v -104.6414 -189.1235 -7.517094
v -104.639 -12.44862 -95.627
v -104.6283 -188.6223 -6.514641
v -104.62 -188.3043 -5.878639
v -104.6385 -12.42603 -95.58183
v -104.6147 -188.101 -5.472115
v -104.6383 -12.41932 -95.56839
v -104.6132 -188.0406 -5.351131
v -104.637 -12.36852 -95.4668
v -104.6012 -187.5834 -4.43676
v -104.6217 -11.78573 -94.30121
v -104.5995 -187.5186 -4.307251
v -104.6092 -11.30424 -93.33826
v -104.5981 -187.4651 -4.200253
v -104.5968 -10.82835 -92.38646
v -104.5968 -187.4122 -4.094498
v -104.5123 -10.79144 -92.31265
v -103.8365 -187.0801 -3.430195
v -104.323 -10.70876 -92.14727
v -102.1331 -186.3359 -1.941784
v -103.795 -10.47807 -91.68588
v -103.5838 -10.3858 -91.50137
v -102.051 -186.3 -1.870018
v -102.8638 -10.07122 -90.87221
v -101.971 -186.265 -1.80011
v -102.2709 -9.812195 -90.35416
v -101.9051 -186.2363 -1.74255
v -101.8594 -9.632393 -89.99455
v -101.8594 -186.2163 -1.702595
v -101.8594 -186.2163 -1.702595
v -101.632 -9.633583 -89.99693
v -99.81256 -186.227 -1.723953
v -101.565 -9.633934 -89.99763
v -99.21011 -186.2301 -1.730244
v -101.5582 -9.633965 -89.9977
v -99.1486 -186.2304 -1.730885
v -101.555 -9.633987 -89.99773
v -99.12008 -186.2306 -1.731182
v -101.551 -9.634003 -89.99777
v -99.08403 -186.2308 -1.731556
v -101.4767 -9.634392 -89.99855
v -98.41547 -186.2343 -1.738533
v -98.03283 -9.652367 -90.03448
v -98.03281 -186.2363 -1.742527
v -98.03282 -9.652367 -90.03448
v -98.03281 -186.2363 -1.742527
v -98.03282 -9.652367 -90.03448
v -98.03282 -9.652367 -90.03448
v -97.47077 -9.06501 -88.85978
v -96.06564 -7.596626 -85.92302
v -96.06564 -7.596626 -85.92302
v -96.06564 -7.596626 -85.92302
v -98.03282 -9.652367 -90.03448
v -98.03282 -9.652367 -90.03448
v -98.03282 -9.652367 -90.03448
v -98.03281 -186.2363 -1.742527
v -98.03281 -186.2363 -1.742527
v -98.03281 -186.2363 -1.742527
v -98.03282 -9.652367 -90.03448
v -103.7188 -7.556694 -85.84315
v -98.03282 -9.652367 -90.03448
v -98.03281 -186.2363 -1.742527
v -98.03282 -9.652367 -90.03448
v -98.03282 -97.94432 -45.8885
v -98.03281 -186.2363 -1.742527
v -96.06564 -95.88858 -41.77703
v -98.03281 -186.2362 -1.742573
v -98.03281 -186.2363 -1.742527
v -97.47076 -185.6489 -0.5678215
v -103.7188 -184.1406 2.448803
v -98.03281 -186.2363 -1.742527
v -103.7188 -7.556694 -85.84315
v -96.06564 -184.1805 2.368942
v -103.7188 -184.1406 2.448803
v -101.8594 -186.2163 -1.702595
v -101.8594 -186.2163 -1.702595
v -103.9344 -104.1115 -58.22293
v -103.9344 -15.81957 -102.3689
v -103.9344 -15.81957 -102.3689
v -102.5292 -14.35119 -99.43214
v -101.9672 -102.0558 -54.11145
v -101.9672 -13.76383 -98.25743
v -102.782 -191.1992 -11.6685
v -103.9344 -192.4035 -14.07695
v -101.9672 -190.3477 -9.965473
v -103.9344 -15.81957 -102.3689
v -109.2828 -13.37119 -97.47215
v -109.1935 -9.948601 -90.62695
v -104.6414 -12.53965 -95.80905
v -104.1386 -12.76981 -96.26936
v -103.9491 -12.85659 -96.44295
v -103.8582 -12.8982 -96.52617
v -103.068 -13.25992 -97.24959
v -102.2346 -13.64142 -98.0126
v -102.167 -13.67236 -98.07448
v -102.161 -13.67511 -98.07999
v -102.1396 -13.68492 -98.09959
v -101.9672 -13.76383 -98.25743
v -104.639 -12.44862 -95.627
v -104.6385 -12.42603 -95.58183
v -104.6383 -12.41932 -95.56839
v -104.637 -12.36852 -95.4668
v -104.6217 -11.78573 -94.30121
v -104.6092 -11.30424 -93.33826
v -104.5968 -10.82835 -92.38646
v -104.5123 -10.79144 -92.31265
v -104.323 -10.70876 -92.14727
v -103.795 -10.47807 -91.68588
v -103.7188 -7.556694 -85.84315
v -103.5838 -10.3858 -91.50137
v -102.8638 -10.07122 -90.87221
v -102.2709 -9.812195 -90.35416
v -101.8594 -9.632393 -89.99455
v -101.632 -9.633583 -89.99693
v -101.565 -9.633934 -89.99763
v -101.5582 -9.633965 -89.9977
v -101.555 -9.633987 -89.99773
v -101.551 -9.634003 -89.99777
v -101.4767 -9.634392 -89.99855
v -98.03283 -9.652367 -90.03448
v -98.03282 -9.652367 -90.03448
v -98.03282 -9.652367 -90.03448
v -96.06564 -7.596626 -85.92302
v -103.9344 -15.81957 -102.3689
v -109.2828 -189.9551 -9.180199
v -109.2828 -13.37119 -97.47215
v -103.9344 -104.1115 -58.22293
v -109.1935 -186.5325 -2.335003
v -109.1935 -9.948601 -90.62695
v -103.7188 -184.1406 2.448803
v -103.7188 -7.556694 -85.84315
v -103.9344 -192.4035 -14.07695
v -96.06564 -7.596626 -85.92302
v -98.03282 -97.94432 -45.8885
v -98.03282 -9.652367 -90.03448
v -96.06564 -95.88858 -41.77703
v -98.03281 -186.2362 -1.742573
v -96.06564 -184.1805 2.368942
v -97.47076 -185.6489 -0.5678215
v -98.03281 -186.2363 -1.742527
v -101.9672 -190.3477 -9.965473
v -109.2828 -189.9551 -9.180199
v -102.782 -191.1992 -11.6685
v -109.2828 -189.9551 -9.180199
v -103.9344 -192.4035 -14.07695
v -101.9672 -190.3477 -9.965473
v -103.5187 -189.6375 -8.544979
v -101.9672 -190.3477 -9.965473
v -103.7115 -189.5492 -8.368462
v -103.7656 -189.5244 -8.318905
v -104.374 -189.246 -7.761932
v -104.4666 -189.2036 -7.677155
v -104.5645 -189.1588 -7.587528
v -104.5855 -189.1491 -7.568241
v -104.6414 -189.1235 -7.517094
v -109.1935 -186.5325 -2.335003
v -104.6283 -188.6223 -6.514641
v -104.62 -188.3043 -5.878639
v -104.6147 -188.101 -5.472115
v -104.6132 -188.0406 -5.351131
v -104.6012 -187.5834 -4.43676
v -104.5995 -187.5186 -4.307251
v -104.5981 -187.4651 -4.200253
v -104.5968 -187.4122 -4.094498
v -103.8365 -187.0801 -3.430195
v -102.1331 -186.3359 -1.941784
v -102.051 -186.3 -1.870018
v -101.971 -186.265 -1.80011
v -101.9051 -186.2363 -1.74255
v -101.8594 -186.2163 -1.702595
v -103.7188 -184.1406 2.448803
v -101.8594 -186.2163 -1.702595
v -99.81256 -186.227 -1.723953
v -99.21011 -186.2301 -1.730244
v -99.1486 -186.2304 -1.730885
v -99.12008 -186.2306 -1.731182
v -99.08403 -186.2308 -1.731556
v -98.41547 -186.2343 -1.738533
v -98.03281 -186.2363 -1.742527
v -97.47076 -185.6489 -0.5678215
v -98.03281 -186.2363 -1.742527
v -96.06564 -184.1805 2.368942

vn -0.393436 -0.4111463 -0.8222937
vn -0.393436 -0.4111464 -0.8222936
vn -0.2987189 0.2699196 -0.9153746
vn -5.960464E-08 0.8944272 -0.4472137
vn -5.960464E-08 0.8944272 -0.4472137
vn 0.7153116 0.3125153 0.6250307
vn 0.3894818 0.5335053 0.7507837
vn 0.9865147 -0.07319666 -0.1463929
vn 0.7153084 0.3125165 0.6250338
vn 0.7153079 0.3125169 0.6250344
vn 0.7153081 0.3125167 0.6250342
vn 0.7153088 0.3125163 0.6250336
vn 0.7153095 0.3125159 0.6250328
vn 0.7153055 0.3125183 0.6250363
vn 0.7153074 0.3125171 0.6250346
vn 0.7153078 0.3125169 0.6250343
vn 0.7153078 0.312517 0.6250345
vn 0.7153077 0.312517 0.6250345
vn 0.7153078 0.3125169 0.6250343
vn 0.7153076 0.312517 0.6250346
vn 0.7153084 0.3125167 0.6250338
vn 0.7153095 0.3125161 0.6250328
vn 0.715308 0.3125169 0.6250341
vn 0.7153074 0.3125172 0.6250347
vn 0.8125275 0.2606909 0.5213822
vn 0.9995724 0.01307626 0.02615299
vn 0.999932 -0.00521874 -0.01043689
vn 0.9999319 -0.005218337 -0.01043617
vn 0.9999319 -0.005218174 -0.01043589
vn 0.9999321 -0.005217102 -0.01043409
vn 0.999932 -0.005216444 -0.01043296
vn 0.999932 -0.005215498 -0.01043155
vn 0.999932 -0.005217002 -0.01043396
vn 0.9999319 -0.00521769 -0.01043494
vn 0.9999321 -0.005218002 -0.01043543
vn 0.9999319 -0.005218093 -0.01043548
vn 0.9999319 -0.005217492 -0.0104345
vn 0.999932 -0.005217806 -0.01043508
vn 0.9999319 -0.005218382 -0.01043614
vn 0.9969958 -0.03463973 -0.06927881
vn 0.744481 -0.2985795 -0.5971588
vn 0.6988102 -0.3198952 -0.6397902
vn 0.6988095 -0.3198956 -0.6397909
vn 0.698809 -0.3198958 -0.6397913
vn 0.698809 -0.3198958 -0.6397913
vn 0.6988093 -0.3198956 -0.639791
vn 0.6988097 -0.3198954 -0.6397907
vn 0.6988094 -0.3198956 -0.639791
vn 0.6988097 -0.3198954 -0.6397908
vn 0.6988093 -0.3198955 -0.639791
vn 0.6988094 -0.3198955 -0.639791
vn 0.6988097 -0.3198954 -0.6397907
vn 0.5441436 -0.3752087 -0.7504175
vn 0.6988264 -0.3198881 -0.6397762
vn -0.01166613 -0.4471831 -0.8943664
vn -0.01166741 -0.4471831 -0.8943663
vn -0.01166786 -0.4471832 -0.8943664
vn -0.01166907 -0.4471832 -0.8943663
vn -0.01166701 -0.4471831 -0.8943664
vn -0.0116654 -0.4471829 -0.8943667
vn -0.01166265 -0.4471826 -0.8943667
vn -0.01161741 -0.4471778 -0.8943697
vn -0.01164579 -0.4471809 -0.8943679
vn -0.0116743 -0.4471837 -0.894366
vn -0.01167018 -0.4471834 -0.8943663
vn -0.0116673 -0.4471831 -0.8943664
vn -0.01166669 -0.447183 -0.8943664
vn -0.01166642 -0.4471831 -0.8943664
vn -0.01166139 -0.4471832 -0.8943665
vn 0.1560032 -0.4417382 -0.8834764
vn -0.393436 -0.4111466 -0.8222935
vn -0.393436 -0.4111466 -0.8222935
vn -0.393436 -0.4111466 -0.8222935
vn -5.960464E-08 0.8944272 -0.4472137
vn 0.01166706 0.447183 0.8943665
vn -5.960464E-08 0.8944272 -0.4472137
vn 0.9626863 -0.1210251 -0.2420499
vn -0.2555225 0.4130907 -0.8741078
vn -0.2216416 0.5073744 -0.8327343
vn -0.3924417 -0.3465594 -0.8519896
vn -0.393436 -0.4111466 -0.8222935
vn -0.393436 -0.4111466 -0.8222935
vn -0.393436 -0.4111466 -0.8222935
vn -0.3913433 -0.3168313 -0.863984
vn -5.960464E-08 0.8944272 -0.4472137
vn -0.3933991 -0.3997883 -0.8278928
vn -0.393436 -0.4111466 -0.8222935
vn -0.3894817 -0.2805233 -0.8772746
vn -0.3934421 -0.4111454 -0.8222912
vn -0.3927319 -0.4641067 -0.7939563
vn 0.01166704 0.447183 0.8943664
vn -0.3934577 -0.4111424 -0.8222852
vn -2.671925E-06 -0.8944301 0.447208
vn 5.960464E-08 -0.8944272 0.4472137
vn -3.371725E-07 -0.8944272 0.4472139
vn 0 0 0
vn 0.01166698 0.447183 0.8943665
vn 0.01166701 0.4471831 0.8943664
vn 0.011667 0.4471831 0.8943665
vn -3.371725E-07 -0.8944272 0.4472139
vn -3.371725E-07 -0.8944272 0.4472139
vn 0.9193521 -0.1759501 -0.3518999
vn 0.919352 -0.1759501 -0.3518999
vn 0.9193521 -0.1759501 -0.3518999
vn 0.9193521 -0.1759501 -0.3518999
vn 0.9193521 -0.1759501 -0.3518999
vn 0.9193521 -0.1759501 -0.3518999
vn 0.9193521 -0.1759501 -0.3518999
vn 0.9193521 -0.1759501 -0.3518999
vn 0.9193521 -0.1759501 -0.3518999
vn -5.960464E-08 0.8944272 -0.4472137
vn -5.960464E-08 0.8944272 -0.4472137
vn -5.960464E-08 0.8944272 -0.4472137
vn -5.960464E-08 0.8944272 -0.4472137
vn -5.960464E-08 0.8944272 -0.4472137
vn -5.960464E-08 0.8944272 -0.4472137
vn -5.960464E-08 0.8944272 -0.4472137
vn -5.960464E-08 0.8944272 -0.4472137
vn -5.960464E-08 0.8944272 -0.4472137
vn -5.960464E-08 0.8944272 -0.4472137
vn -5.960464E-08 0.8944272 -0.4472137
vn -5.960464E-08 0.8944272 -0.4472137
vn -5.960464E-08 0.8944272 -0.4472137
vn -5.960464E-08 0.8944272 -0.4472137
vn -5.960464E-08 0.8944272 -0.4472137
vn -5.960464E-08 0.8944272 -0.4472137
vn -5.960464E-08 0.8944272 -0.4472137
vn -5.960464E-08 0.8944272 -0.4472137
vn -5.960464E-08 0.8944272 -0.4472137
vn -5.960464E-08 0.8944272 -0.4472137
vn -5.960464E-08 0.8944272 -0.4472137
vn -5.960464E-08 0.8944272 -0.4472137
vn -5.960464E-08 0.8944272 -0.4472137
vn -5.960464E-08 0.8944272 -0.4472137
vn -5.960464E-08 0.8944272 -0.4472137
vn -5.960464E-08 0.8944272 -0.4472137
vn -5.960464E-08 0.8944272 -0.4472137
vn -5.960464E-08 0.8944272 -0.4472137
vn -5.960464E-08 0.8944272 -0.4472137
vn -5.960464E-08 0.8944272 -0.4472137
vn -5.960464E-08 0.8944272 -0.4472137
vn -5.960464E-08 0.8944272 -0.4472137
vn -5.960464E-08 0.8944272 -0.4472137
vn -5.960464E-08 0.8944272 -0.4472137
vn -5.960464E-08 0.8944272 -0.4472137
vn -5.960464E-08 0.8944272 -0.4472137
vn -5.960464E-08 0.8944272 -0.4472137
vn -5.960464E-08 0.8944272 -0.4472137
vn -0.7153081 -0.3125167 -0.6250342
vn -0.8686944 -0.2215263 -0.4430532
vn -0.9704208 -0.1079658 -0.2159322
vn -0.7153081 -0.3125167 -0.625034
vn -0.964524 0.1180626 0.2361248
vn -0.8569007 0.2305305 0.4610609
vn -0.6988092 0.3198956 0.6397911
vn -0.6988093 0.3198956 0.6397911
vn -0.715308 -0.3125168 -0.6250341
vn 0.9193521 -0.1759501 -0.3518999
vn 0.9193521 -0.1759501 -0.3518999
vn 0.9193521 -0.1759501 -0.3518999
vn 0.9193521 -0.1759501 -0.3518999
vn 0.9193521 -0.1759501 -0.3518999
vn 0.9193521 -0.1759501 -0.3518999
vn 0.9193521 -0.1759501 -0.3518999
vn 0.919352 -0.1759501 -0.3518998
vn 0.3852602 0.2212102 0.8959022
vn -2.302628E-07 -0.8944275 0.4472131
vn -1.387839E-07 -0.8944271 0.4472138
vn -1.991257E-07 -0.8944272 0.4472137
vn -1.387839E-07 -0.8944272 0.4472138
vn -1.387839E-07 -0.8944272 0.4472138
vn -1.766758E-07 -0.8944274 0.4472135
vn -1.766757E-07 -0.8944274 0.4472135
vn -1.766758E-07 -0.8944274 0.4472135
vn -1.766756E-07 -0.8944274 0.4472135
vn -1.766756E-07 -0.8944274 0.4472135
vn -1.766759E-07 -0.8944273 0.4472135
vn -1.766766E-07 -0.8944274 0.4472135
vn -1.766747E-07 -0.8944273 0.4472135
vn -2.698438E-07 -0.8944272 0.4472137
vn -2.209593E-07 -0.8944272 0.4472138
vn -2.706922E-07 -0.8944272 0.4472137
vn -2.706925E-07 -0.8944272 0.4472137
vn -2.706931E-07 -0.8944272 0.4472137
vn -2.706927E-07 -0.8944272 0.4472137
vn -2.706927E-07 -0.8944272 0.4472137
vn -2.706927E-07 -0.8944272 0.4472137
vn -2.706925E-07 -0.8944272 0.4472137
vn -1.811842E-07 -0.8944271 0.4472139
vn -1.712259E-07 -0.8944271 0.4472139
vn -1.712258E-07 -0.8944271 0.4472139
vn -1.712258E-07 -0.8944271 0.4472139
vn -1.712259E-07 -0.8944271 0.4472139
vn -1.712258E-07 -0.8944271 0.4472139
vn -1.712258E-07 -0.8944271 0.4472139
vn -1.113122E-07 -0.8944272 0.4472139
vn 6.345851E-08 -0.8944271 0.447214
vn 6.345866E-08 -0.8944271 0.447214
vn 6.345893E-08 -0.8944271 0.447214
vn 6.34537E-08 -0.8944271 0.447214
vn 6.345942E-08 -0.8944271 0.447214
vn 6.345908E-08 -0.8944271 0.447214
vn 6.345804E-08 -0.8944271 0.447214
vn 6.345725E-08 -0.8944271 0.447214
vn -1.387839E-07 -0.8944272 0.4472138
vn -1.387839E-07 -0.8944272 0.4472138
vn -1.387839E-07 -0.8944271 0.4472138

f 1//1 2//2 3//3
f 4//4 1//1 3//3
f 3//3 5//5 4//4
f 3//3 6//6 5//5
f 5//5 6//6 7//7
f 8//8 7//7 6//6
f 9//9 8//8 6//6
f 10//10 9//9 6//6
f 9//9 10//10 11//11
f 11//11 10//10 12//12
f 13//13 11//11 12//12
f 13//13 12//12 14//14
f 13//13 14//14 15//15
f 15//15 14//14 16//16
f 15//15 16//16 17//17
f 18//18 17//17 16//16
f 19//19 17//17 18//18
f 19//19 18//18 20//20
f 21//21 19//19 20//20
f 22//22 19//19 21//21
f 22//22 21//21 23//23
f 24//24 22//22 23//23
f 24//24 23//23 25//25
f 26//26 24//24 25//25
f 26//26 25//25 27//27
f 28//28 26//26 27//27
f 28//28 27//27 29//29
f 29//29 27//27 30//30
f 31//31 29//29 30//30
f 31//31 30//30 32//32
f 33//33 31//31 32//32
f 33//33 32//32 34//34
f 35//35 33//33 34//34
f 35//35 34//34 36//36
f 37//37 35//35 36//36
f 37//37 36//36 38//38
f 39//39 37//37 38//38
f 39//39 38//38 40//40
f 41//41 39//39 40//40
f 41//41 40//40 42//42
f 41//41 42//42 43//43
f 43//43 42//42 44//44
f 45//45 43//43 44//44
f 45//45 44//44 46//46
f 47//47 45//45 46//46
f 48//48 45//45 47//47
f 48//48 47//47 49//49
f 50//50 48//48 49//49
f 50//50 49//49 51//51
f 52//52 50//50 51//51
f 52//52 51//51 53//53
f 54//54 52//52 53//53
f 55//55 54//54 53//53
f 55//55 53//53 56//56
f 55//55 56//56 57//57
f 57//57 56//56 58//58
f 57//57 58//58 59//59
f 59//59 58//58 60//60
f 59//59 60//60 61//61
f 61//61 60//60 62//62
f 61//61 62//62 63//63
f 63//63 62//62 64//64
f 63//63 64//64 65//65
f 65//65 64//64 66//66
f 65//65 66//66 67//67
f 68//68 67//67 66//66
f 69//69 67//67 68//68
f 69//69 68//68 70//70
f 71//71 69//69 70//70
f 72//72 71//71 73//73
f 74//74 75//75 76//76
f 77//77 74//74 76//76
f 75//75 77//77 76//76
f 78//78 75//75 74//74
f 79//79 75//75 78//78
f 78//78 74//74 80//80
f 81//81 78//78 80//80
f 82//82 78//78 81//81
f 82//82 83//83 78//78
f 83//83 84//84 79//79
f 84//84 85//85 79//79
f 80//80 74//74 86//86
f 87//87 80//80 86//86
f 81//81 80//80 87//87
f 86//86 74//74 88//88
f 88//88 74//74 77//77
f 86//86 88//88 89//89
f 90//90 86//86 89//89
f 87//87 86//86 90//90
f 75//75 91//91 77//77
f 90//90 89//89 92//92
f 90//90 92//92 93//93
f 94//94 90//90 93//93
f 95//95 83//83 82//82
f 95//95 82//82 81//81
f 95//95 81//81 87//87
f 95//95 87//87 90//90
f 95//95 96//96 83//83
f 97//97 91//91 75//75
f 97//97 98//98 91//91
f 97//97 99//99 98//98
f 100//100 95//95 101//101
f 102//102 103//103 104//104
f 102//102 104//104 105//105
f 102//102 105//105 106//106
f 106//106 105//105 107//107
f 108//108 102//102 106//106
f 109//109 102//102 108//108
f 110//110 108//108 106//106
f 111//111 112//112 113//113
f 111//111 113//113 114//114
f 111//111 114//114 115//115
f 111//111 115//115 116//116
f 111//111 116//116 117//117
f 117//117 118//118 111//111
f 118//118 119//119 111//111
f 120//120 111//111 119//119
f 120//120 121//121 111//111
f 121//121 122//122 111//111
f 111//111 122//122 123//123
f 114//114 113//113 124//124
f 124//124 113//113 125//125
f 125//125 113//113 126//126
f 126//126 113//113 127//127
f 127//127 113//113 128//128
f 128//128 113//113 129//129
f 129//129 113//113 130//130
f 130//130 113//113 131//131
f 131//131 113//113 132//132
f 132//132 113//113 133//133
f 133//133 113//113 134//134
f 133//133 134//134 135//135
f 135//135 134//134 136//136
f 134//134 137//137 136//136
f 137//137 134//134 138//138
f 138//138 134//134 139//139
f 139//139 134//134 140//140
f 140//140 134//134 141//141
f 134//134 142//142 141//141
f 134//134 143//143 142//142
f 134//134 144//144 143//143
f 144//144 134//134 145//145
f 145//145 134//134 146//146
f 147//147 134//134 148//148
f 149//149 150//150 151//151
f 149//149 152//152 150//150
f 151//151 150//150 153//153
f 151//151 153//153 154//154
f 154//154 153//153 155//155
f 154//154 155//155 156//156
f 152//152 157//157 150//150
f 158//158 159//159 160//160
f 161//161 159//159 158//158
f 162//162 159//159 161//161
f 163//163 162//162 161//161
f 164//164 162//162 163//163
f 165//165 162//162 164//164
f 9//9 166//166 8//8
f 166//166 9//9 167//167
f 168//168 169//169 170//170
f 168//168 171//171 169//169
f 172//172 169//169 173//173
f 174//174 169//169 172//172
f 169//169 174//174 175//175
f 176//176 169//169 175//175
f 177//177 169//169 176//176
f 178//178 169//169 177//177
f 178//178 179//179 169//169
f 179//179 180//180 169//169
f 180//180 181//181 169//169
f 182//182 181//181 180//180
f 182//182 183//183 181//181
f 183//183 184//184 181//181
f 184//184 185//185 181//181
f 185//185 186//186 181//181
f 186//186 187//187 181//181
f 187//187 188//188 181//181
f 188//188 189//189 181//181
f 181//181 189//189 190//190
f 181//181 190//190 191//191
f 192//192 181//181 191//191
f 193//193 181//181 192//192
f 194//194 181//181 193//193
f 195//195 181//181 194//194
f 195//195 196//196 181//181
f 196//196 197//197 198//198
f 196//196 198//198 199//199
f 199//199 200//200 196//196
f 196//196 200//200 201//201
f 201//201 202//202 196//196
f 196//196 202//202 203//203
f 196//196 203//203 204//204
f 205//205 196//196 206//206
f 207//207 196//196 205//205
