v 9.999985 6.927213 107.2121
v 50.00002 6.927216 107.2121
v 9.999985 6.927213 107.2121
v 9.999985 6.927212 107.2121
v 9.999985 4.453208 104.6363
v 9.999985 3.463606 103.606
v 9.999985 3.463606 103.606
v 50.00002 3.46361 103.606
v 90.00006 3.463612 103.606
v 9.999985 3.562583 103.3801
v 90.00006 4.354407 101.5723
v 9.999985 3.574883 103.352
v 90.00006 4.4651 101.3196
v 9.999985 3.578336 103.3441
v 90.00006 4.496178 101.2487
v 9.999985 3.617145 103.2555
v 90.00006 4.845457 100.4512
v 9.999985 4.095626 102.1631
v 90.00006 4.898622 100.3299
v 9.999985 4.549287 101.1274
v 9.999985 4.601477 101.0082
v 90.00006 4.954826 100.2016
v 9.999985 4.710329 100.7597
v 90.00006 4.96692 100.1739
v 9.999985 4.998992 100.1007
v 90.00006 4.998996 100.1007
v 9.999985 4.924898 99.91112
v 90.00006 4.591007 99.05675
v 90.00006 4.33216 98.39441
v 9.999985 4.906513 99.86408
v 90.00006 4.16671 97.97105
v 9.999985 4.901042 99.85008
v 90.00006 4.117471 97.84506
v 9.999985 4.859695 99.74428
v 90.00006 3.745333 96.89283
v 9.999985 4.385314 98.53043
v 90.00006 3.692624 96.75796
v 9.999985 3.993403 97.5276
v 90.00006 3.649079 96.64653
v 9.999985 3.606031 96.53639
v 90.00006 3.606037 96.5364
v 9.999985 3.49786 96.48901
v 90.00006 2.632507 96.10998
v 9.999985 3.255499 96.38286
v 90.00006 0.4512459 95.15455
v 9.999985 2.579346 96.08669
v 9.999985 2.308941 95.96825
v 90.00006 0.346072 95.10848
v 9.999985 1.386904 95.56438
v 90.00006 0.2436256 95.06361
v 9.999985 0.6277065 95.23184
v 90.00006 0.1592679 95.02666
v 9.999985 0.1007096 95.00101
v 90.00006 0.1007151 95.00101
v 90.00006 0.1007138 95.00101
v 9.999985 -0.1111289 95.08379
v 90.00006 -1.805833 95.7461
v 9.999985 -0.1734817 95.10817
v 90.00006 -2.367002 95.96542
v 9.999985 -0.1798476 95.11066
v 90.00006 -2.42429 95.9878
v 9.999985 -0.1827988 95.11181
v 90.00006 -2.450856 95.99818
v 9.999985 -0.1865302 95.11327
v 90.00006 -2.484431 96.01131
v 9.999985 -0.255722 95.1403
v 90.00006 -3.10717 96.25468
v 9.999985 -3.463604 96.39397
v 90.00006 -3.463603 96.39397
v 9.999985 -3.463608 96.39397
v 90.00006 -3.463603 96.39397
v 9.999985 -3.463608 96.39397
v 9.999985 -3.463608 96.39397
v 9.999985 -4.45321 95.36367
v 9.999985 -6.927214 92.78793
v 9.999985 -6.927215 92.78793
v 9.999985 -6.927214 92.78794
v 9.999985 -3.463608 96.39397
v 9.999985 -3.463608 96.39397
v 9.999985 -3.463608 96.39397
v 90.00006 -3.463603 96.39397
v 90.00006 -3.463603 96.39397
v 90.00006 -3.463603 96.39397
v 9.999985 -3.463608 96.39397
v 9.999985 0.2014191 90.00202
v 9.999985 -3.463608 96.39397
v 90.00006 -3.463603 96.39397
v 9.999985 -3.463608 96.39397
v 50.00002 -3.463605 96.39397
v 90.00006 -3.463603 96.39397
v 50.00002 -6.927211 92.78794
v 90.00002 -3.463603 96.39397
v 90.00006 -3.463603 96.39397
v 90.00006 -4.453204 95.36368
v 90.00005 0.2014245 90.00202
v 90.00006 -3.463603 96.39397
v 9.999985 0.2014191 90.00202
v 90.00006 -6.927209 92.78794
v 90.00005 0.2014245 90.00202
v 90.00006 0.1007138 95.00101
v 90.00006 0.1007151 95.00101
v 50.00002 6.927216 107.2121
v 9.999985 6.927213 107.2121
v 9.999985 6.927212 107.2121
v 9.999985 4.453208 104.6363
v 50.00002 3.46361 103.606
v 9.999985 3.463606 103.606
v 90.00006 4.898285 105.0997
v 90.00006 6.927219 107.2121
v 90.00006 3.463612 103.606
v 9.999985 6.927213 107.2121
v 9.999985 9.99798 100.2014
v 9.999985 7.212063 93.07278
v 9.999985 4.998992 100.1007
v 9.999985 4.710329 100.7597
v 9.999985 4.601477 101.0082
v 9.999985 4.549287 101.1274
v 9.999985 4.095626 102.1631
v 9.999985 3.617145 103.2555
v 9.999985 3.578336 103.3441
v 9.999985 3.574883 103.352
v 9.999985 3.562583 103.3801
v 9.999985 3.463606 103.606
v 9.999985 4.924898 99.91112
v 9.999985 4.906513 99.86408
v 9.999985 4.901042 99.85008
v 9.999985 4.859695 99.74428
v 9.999985 4.385314 98.53043
v 9.999985 3.993403 97.5276
v 9.999985 3.606031 96.53639
v 9.999985 3.49786 96.48901
v 9.999985 3.255499 96.38286
v 9.999985 2.579346 96.08669
v 9.999985 0.2014191 90.00202
v 9.999985 2.308941 95.96825
v 9.999985 1.386904 95.56438
v 9.999985 0.6277065 95.23184
v 9.999985 0.1007096 95.00101
v 9.999985 -0.1111289 95.08379
v 9.999985 -0.1734817 95.10817
v 9.999985 -0.1798476 95.11066
v 9.999985 -0.1827988 95.11181
v 9.999985 -0.1865302 95.11327
v 9.999985 -0.255722 95.1403
v 9.999985 -3.463604 96.39397
v 9.999985 -3.463608 96.39397
v 9.999985 -3.463608 96.39397
v 9.999985 -6.927214 92.78793
v 9.999985 6.927213 107.2121
v 90.00005 9.997986 100.2014
v 9.999985 9.99798 100.2014
v 50.00002 6.927216 107.2121
v 90.00005 7.212069 93.07279
v 9.999985 7.212063 93.07278
v 90.00005 0.2014245 90.00202
v 9.999985 0.2014191 90.00202
v 90.00006 6.927219 107.2121
v 9.999985 -6.927214 92.78794
v 50.00002 -3.463605 96.39397
v 9.999985 -3.463608 96.39397
v 50.00002 -6.927211 92.78794
v 90.00002 -3.463603 96.39397
v 90.00006 -6.927209 92.78794
v 90.00006 -4.453204 95.36368
v 90.00006 -3.463603 96.39397
v 90.00006 3.463612 103.606
v 90.00005 9.997986 100.2014
v 90.00006 4.898285 105.0997
v 90.00005 9.997986 100.2014
v 90.00006 6.927219 107.2121
v 90.00006 3.463612 103.606
v 90.00006 4.354407 101.5723
v 90.00006 3.463612 103.606
v 90.00006 4.4651 101.3196
v 90.00006 4.496178 101.2487
v 90.00006 4.845457 100.4512
v 90.00006 4.898622 100.3299
v 90.00006 4.954826 100.2016
v 90.00006 4.96692 100.1739
v 90.00006 4.998996 100.1007
v 90.00005 7.212069 93.07279
v 90.00006 4.591007 99.05675
v 90.00006 4.33216 98.39441
v 90.00006 4.16671 97.97105
v 90.00006 4.117471 97.84506
v 90.00006 3.745333 96.89283
v 90.00006 3.692624 96.75796
v 90.00006 3.649079 96.64653
v 90.00006 3.606037 96.5364
v 90.00006 2.632507 96.10998
v 90.00006 0.4512459 95.15455
v 90.00006 0.346072 95.10848
v 90.00006 0.2436256 95.06361
v 90.00006 0.1592679 95.02666
v 90.00006 0.1007151 95.00101
v 90.00005 0.2014245 90.00202
v 90.00006 0.1007138 95.00101
v 90.00006 -1.805833 95.7461
v 90.00006 -2.367002 95.96542
v 90.00006 -2.42429 95.9878
v 90.00006 -2.450856 95.99818
v 90.00006 -2.484431 96.01131
v 90.00006 -3.10717 96.25468
v 90.00006 -3.463603 96.39397
v 90.00006 -4.453204 95.36368
v 90.00006 -3.463603 96.39397
v 90.00006 -6.927209 92.78794

vn -5.19156E-07 0.6927209 0.7212058
vn -3.665683E-07 0.6927209 0.7212058
vn -0.6507913 0.5259529 0.5475802
vn -1 0 -1.490116E-08
vn -1 0 -1.490116E-08
vn 5.085698E-08 -0.9159861 -0.40121
vn -0.141421 -0.6857588 -0.7139574
vn 1.847798E-07 -0.8651731 0.5014733
vn 3.286719E-07 -0.9159842 -0.4012142
vn 2.875503E-07 -0.915984 -0.401215
vn 3.262923E-07 -0.9159841 -0.4012147
vn 4.09876E-07 -0.9159845 -0.4012138
vn 4.683884E-07 -0.9159849 -0.4012128
vn -1.233275E-07 -0.9159826 -0.4012181
vn 1.642355E-07 -0.9159837 -0.4012156
vn 2.123036E-07 -0.9159839 -0.401215
vn 1.951547E-07 -0.915984 -0.4012153
vn 1.939919E-07 -0.9159838 -0.4012153
vn 2.079539E-07 -0.9159839 -0.401215
vn 2.271487E-07 -0.9159839 -0.4012153
vn 2.213619E-07 -0.9159843 -0.4012143
vn 2.640488E-07 -0.9159849 -0.4012128
vn 1.53559E-07 -0.915984 -0.4012148
vn 1.67375E-07 -0.9159837 -0.4012156
vn 1.712254E-07 -0.9660208 -0.2584647
vn 2.02532E-07 -0.9455081 0.3255987
vn 2.581521E-07 -0.9313993 0.3639992
vn 2.186639E-07 -0.9313995 0.3639984
vn 1.989649E-07 -0.9313997 0.3639981
vn 4.56419E-08 -0.9314006 0.3639962
vn -3.881387E-08 -0.931401 0.3639949
vn -2.550555E-07 -0.9314016 0.3639933
vn 1.155203E-08 -0.9314006 0.363996
vn 1.897856E-07 -0.9314001 0.3639971
vn 2.488887E-07 -0.9314 0.3639977
vn 3.076252E-07 -0.9313998 0.3639977
vn 2.090493E-07 -0.9314002 0.3639966
vn 2.297062E-07 -0.9314001 0.3639973
vn 2.705368E-07 -0.9313996 0.3639984
vn 2.802429E-07 -0.9054224 0.4245119
vn 1.247606E-07 -0.460775 0.8875172
vn 8.439243E-08 -0.4012159 0.9159835
vn 1.118377E-07 -0.401215 0.915984
vn 1.525258E-07 -0.4012143 0.9159843
vn 1.240494E-07 -0.4012143 0.9159842
vn 1.062952E-07 -0.4012147 0.915984
vn -1.987903E-08 -0.4012152 0.9159838
vn 4.958651E-08 -0.4012148 0.915984
vn 2.712878E-08 -0.4012152 0.9159839
vn 1.961132E-08 -0.4012148 0.915984
vn 1.267366E-08 -0.4012149 0.9159841
vn 3.988895E-09 -0.4012152 0.9159838
vn -5.737982E-08 -0.2128384 0.9770875
vn 1.95254E-09 -0.4012366 0.9159745
vn -1.365881E-07 0.3639967 0.9314003
vn -9.155751E-08 0.3639978 0.9313997
vn -5.469331E-08 0.3639983 0.9313997
vn 5.325174E-08 0.3639994 0.9313992
vn -1.479409E-07 0.3639975 0.9314
vn -4.363299E-07 0.363996 0.9314007
vn -7.153137E-07 0.3639934 0.9314015
vn -6.331197E-06 0.3639513 0.931418
vn -2.748456E-06 0.3639777 0.9314077
vn 6.049002E-07 0.3640043 0.9313973
vn 2.156264E-07 0.3640004 0.9313989
vn -1.219827E-07 0.3639977 0.9313998
vn -1.475836E-07 0.3639972 0.9314001
vn -1.473644E-07 0.3639969 0.9314002
vn -7.738392E-08 0.3639922 0.931402
vn -8.043767E-08 0.2028288 0.9792143
vn -1.758335E-07 0.6927209 0.7212058
vn -1.758335E-07 0.6927209 0.7212058
vn -1.758335E-07 0.6927209 0.7212058
vn -1 0 -1.490116E-08
vn 2.798473E-07 -0.3639975 -0.9313999
vn -1 0 -1.490116E-08
vn 1.658376E-07 -0.8051157 0.5931179
vn -0.7603924 0.4498972 0.4683971
vn -0.8262195 0.3902432 0.4062901
vn -0.07104918 0.6909702 0.7193832
vn -1.758338E-07 0.6927209 0.7212058
vn -1.758335E-07 0.6927209 0.7212058
vn -1.758332E-07 0.6927209 0.7212058
vn -0.1030028 0.6890364 0.7173697
vn -1 0 -1.490116E-08
vn -0.01266335 0.6926612 0.721152
vn -1.758346E-07 0.6927209 0.7212058
vn -0.1414215 0.6857587 0.7139573
vn -1.758346E-07 0.6927257 0.7212012
vn 0.06004162 0.6914757 0.7199003
vn 2.095224E-07 -0.3639975 -0.9313999
vn -1.758364E-07 0.6927379 0.7211894
vn 1 4.809392E-06 5.022057E-06
vn 1 0 1.490116E-08
vn 1 3.112605E-07 -2.840657E-07
vn 0 0 0
vn 1.993316E-07 -0.3639975 -0.9314
vn 1.640362E-07 -0.3639975 -0.9314
vn 1.891408E-07 -0.3639975 -0.9314001
vn 1 3.112605E-07 -2.840657E-07
vn 1 3.112605E-07 -2.840657E-07
vn 1.192093E-07 -0.7212058 0.6927209
vn 1.192092E-07 -0.7212058 0.6927208
vn 1.192093E-07 -0.7212058 0.6927209
vn 1.192093E-07 -0.7212058 0.6927209
vn 1.192093E-07 -0.7212058 0.6927209
vn 1.192092E-07 -0.7212058 0.6927209
vn 1.192093E-07 -0.7212058 0.6927209
vn 1.192093E-07 -0.7212058 0.6927209
vn 1.192093E-07 -0.7212058 0.6927209
vn -1 0 -1.490116E-08
vn -1 0 -1.490116E-08
vn -1 0 -1.490116E-08
vn -1 0 -1.490116E-08
vn -1 0 -1.490116E-08
vn -1 0 -1.490116E-08
vn -1 0 -1.490116E-08
vn -1 0 -1.490116E-08
vn -1 0 -1.490116E-08
vn -1 0 -1.490116E-08
vn -1 0 -1.490116E-08
vn -1 0 -1.490116E-08
vn -1 0 -1.490116E-08
vn -0.9999999 0 -1.490116E-08
vn -1 0 -1.490116E-08
vn -1 0 -1.490116E-08
vn -0.9999999 0 -1.490116E-08
vn -1 0 -1.490116E-08
vn -1 0 -1.490116E-08
vn -1 0 -1.490116E-08
vn -0.9999999 0 -1.490116E-08
vn -1 0 -1.490116E-08
vn -1 0 -1.490116E-08
vn -1 0 -1.490116E-08
vn -1 0 -1.490116E-08
vn -1 0 -1.490116E-08
vn -1 0 -1.490116E-08
vn -1 0 -1.490116E-08
vn -1 0 -1.490116E-08
vn -1 0 -1.490116E-08
vn -1 0 -1.490116E-08
vn -0.9999999 0 -1.490116E-08
vn -1 0 -1.490116E-08
vn -0.9999999 0 -1.490116E-08
vn -0.9999999 0 -1.490116E-08
vn -1 0 -1.490116E-08
vn -0.9999999 0 -1.490116E-08
vn -0.9999999 0 -1.490116E-08
vn -3.290221E-07 0.9159842 0.4012147
vn -2.97363E-07 0.9876465 0.1566985
vn -2.529435E-07 0.9931563 -0.1167934
vn -3.099711E-07 0.915984 0.4012146
vn -1.510738E-07 0.8091741 -0.5875691
vn -7.562156E-08 0.6196823 -0.7848529
vn -1.294782E-08 0.4012147 -0.915984
vn -5.702424E-09 0.4012147 -0.9159841
vn -2.433116E-07 0.915984 0.4012147
vn 1.192093E-07 -0.7212058 0.6927209
vn 1.192093E-07 -0.7212058 0.6927209
vn 1.192093E-07 -0.7212058 0.6927209
vn 1.192093E-07 -0.7212058 0.6927209
vn 1.192093E-07 -0.7212058 0.6927209
vn 1.192093E-07 -0.7212058 0.6927209
vn 1.283792E-07 -0.7212058 0.6927209
vn 1.283792E-07 -0.7212058 0.6927208
vn 0.2028032 -0.6783258 -0.7062188
vn 1 5.103682E-07 5.462559E-07
vn 0.9999999 1.556302E-07 -1.345823E-07
vn 1 2.458295E-07 -6.648057E-08
vn 1 1.556302E-07 -1.345823E-07
vn 1 1.556302E-07 -1.345823E-07
vn 1 3.025676E-07 1.474301E-07
vn 1 3.025676E-07 1.474303E-07
vn 1 3.025674E-07 1.474296E-07
vn 1 3.025676E-07 1.474305E-07
vn 1 3.025676E-07 1.474306E-07
vn 0.9999999 3.025676E-07 1.474299E-07
vn 1 3.025676E-07 1.474277E-07
vn 0.9999999 3.025675E-07 1.47433E-07
vn 1 3.076138E-07 -1.030522E-07
vn 1 2.200945E-07 -1.965004E-07
vn 1 3.076593E-07 -1.053345E-07
vn 1 3.076597E-07 -1.053342E-07
vn 1 3.076604E-07 -1.053339E-07
vn 1 3.0766E-07 -1.053342E-07
vn 1 3.0766E-07 -1.053342E-07
vn 1 3.076599E-07 -1.053343E-07
vn 1 3.076595E-07 -1.053347E-07
vn 1 1.500629E-07 -2.694116E-07
vn 1 1.325292E-07 -2.876665E-07
vn 1 1.32529E-07 -2.876667E-07
vn 1 1.325293E-07 -2.876659E-07
vn 1 1.325288E-07 -2.876677E-07
vn 1 1.32529E-07 -2.876668E-07
vn 1 1.325291E-07 -2.876664E-07
vn 1 9.121663E-08 -2.274513E-07
vn 1 -1.202356E-07 -2.927587E-07
vn 1 -1.202358E-07 -2.927588E-07
vn 1 -1.202362E-07 -2.92759E-07
vn 1 -1.202294E-07 -2.92756E-07
vn 1 -1.202368E-07 -2.927594E-07
vn 1 -1.202363E-07 -2.92759E-07
vn 1 -1.20235E-07 -2.927584E-07
vn 0.9999999 -1.202339E-07 -2.927578E-07
vn 1 1.556302E-07 -1.345823E-07
vn 1 1.556303E-07 -1.345823E-07
vn 0.9999999 1.556302E-07 -1.345823E-07

f 1//1 2//2 3//3
f 4//4 1//1 3//3
f 3//3 5//5 4//4
f 3//3 6//6 5//5
f 5//5 6//6 7//7
f 8//8 7//7 6//6
f 9//9 8//8 6//6
f 10//10 9//9 6//6
f 9//9 10//10 11//11
f 11//11 10//10 12//12
f 13//13 11//11 12//12
f 13//13 12//12 14//14
f 13//13 14//14 15//15
f 15//15 14//14 16//16
f 15//15 16//16 17//17
f 18//18 17//17 16//16
f 19//19 17//17 18//18
f 19//19 18//18 20//20
f 21//21 19//19 20//20
f 22//22 19//19 21//21
f 22//22 21//21 23//23
f 24//24 22//22 23//23
f 24//24 23//23 25//25
f 26//26 24//24 25//25
f 26//26 25//25 27//27
f 28//28 26//26 27//27
f 28//28 27//27 29//29
f 29//29 27//27 30//30
f 31//31 29//29 30//30
f 31//31 30//30 32//32
f 33//33 31//31 32//32
f 33//33 32//32 34//34
f 35//35 33//33 34//34
f 35//35 34//34 36//36
f 37//37 35//35 36//36
f 37//37 36//36 38//38
f 39//39 37//37 38//38
f 39//39 38//38 40//40
f 41//41 39//39 40//40
f 41//41 40//40 42//42
f 41//41 42//42 43//43
f 43//43 42//42 44//44
f 45//45 43//43 44//44
f 45//45 44//44 46//46
f 47//47 45//45 46//46
f 48//48 45//45 47//47
f 48//48 47//47 49//49
f 50//50 48//48 49//49
f 50//50 49//49 51//51
f 52//52 50//50 51//51
f 52//52 51//51 53//53
f 54//54 52//52 53//53
f 55//55 54//54 53//53
f 55//55 53//53 56//56
f 55//55 56//56 57//57
f 57//57 56//56 58//58
f 57//57 58//58 59//59
f 59//59 58//58 60//60
f 59//59 60//60 61//61
f 61//61 60//60 62//62
f 61//61 62//62 63//63
f 63//63 62//62 64//64
f 63//63 64//64 65//65
f 65//65 64//64 66//66
f 65//65 66//66 67//67
f 68//68 67//67 66//66
f 69//69 67//67 68//68
f 69//69 68//68 70//70
f 71//71 69//69 70//70
f 72//72 71//71 73//73
f 74//74 75//75 76//76
f 77//77 74//74 76//76
f 75//75 77//77 76//76
f 78//78 75//75 74//74
f 79//79 75//75 78//78
f 78//78 74//74 80//80
f 81//81 78//78 80//80
f 82//82 78//78 81//81
f 82//82 83//83 78//78
f 83//83 84//84 79//79
f 84//84 85//85 79//79
f 80//80 74//74 86//86
f 87//87 80//80 86//86
f 81//81 80//80 87//87
f 86//86 74//74 88//88
f 88//88 74//74 77//77
f 86//86 88//88 89//89
f 90//90 86//86 89//89
f 87//87 86//86 90//90
f 75//75 91//91 77//77
f 90//90 89//89 92//92
f 90//90 92//92 93//93
f 94//94 90//90 93//93
f 95//95 83//83 82//82
f 95//95 82//82 81//81
f 95//95 81//81 87//87
f 95//95 87//87 90//90
f 95//95 96//96 83//83
f 97//97 91//91 75//75
f 97//97 98//98 91//91
f 97//97 99//99 98//98
f 100//100 95//95 101//101
f 102//102 103//103 104//104
f 102//102 104//104 105//105
f 102//102 105//105 106//106
f 106//106 105//105 107//107
f 108//108 102//102 106//106
f 109//109 102//102 108//108
f 110//110 108//108 106//106
f 111//111 112//112 113//113
f 111//111 113//113 114//114
f 111//111 114//114 115//115
f 111//111 115//115 116//116
f 111//111 116//116 117//117
f 117//117 118//118 111//111
f 118//118 119//119 111//111
f 120//120 111//111 119//119
f 120//120 121//121 111//111
f 121//121 122//122 111//111
f 111//111 122//122 123//123
f 114//114 113//113 124//124
f 124//124 113//113 125//125
f 125//125 113//113 126//126
f 126//126 113//113 127//127
f 127//127 113//113 128//128
f 128//128 113//113 129//129
f 129//129 113//113 130//130
f 130//130 113//113 131//131
f 131//131 113//113 132//132
f 132//132 113//113 133//133
f 133//133 113//113 134//134
f 133//133 134//134 135//135
f 135//135 134//134 136//136
f 134//134 137//137 136//136
f 137//137 134//134 138//138
f 138//138 134//134 139//139
f 139//139 134//134 140//140
f 140//140 134//134 141//141
f 134//134 142//142 141//141
f 134//134 143//143 142//142
f 134//134 144//144 143//143
f 144//144 134//134 145//145
f 145//145 134//134 146//146
f 147//147 134//134 148//148
f 149//149 150//150 151//151
f 149//149 152//152 150//150
f 151//151 150//150 153//153
f 151//151 153//153 154//154
f 154//154 153//153 155//155
f 154//154 155//155 156//156
f 152//152 157//157 150//150
f 158//158 159//159 160//160
f 161//161 159//159 158//158
f 162//162 159//159 161//161
f 163//163 162//162 161//161
f 164//164 162//162 163//163
f 165//165 162//162 164//164
f 9//9 166//166 8//8
f 166//166 9//9 167//167
f 168//168 169//169 170//170
f 168//168 171//171 169//169
f 172//172 169//169 173//173
f 174//174 169//169 172//172
f 169//169 174//174 175//175
f 176//176 169//169 175//175
f 177//177 169//169 176//176
f 178//178 169//169 177//177
f 178//178 179//179 169//169
f 179//179 180//180 169//169
f 180//180 181//181 169//169
f 182//182 181//181 180//180
f 182//182 183//183 181//181
f 183//183 184//184 181//181
f 184//184 185//185 181//181
f 185//185 186//186 181//181
f 186//186 187//187 181//181
f 187//187 188//188 181//181
f 188//188 189//189 181//181
f 181//181 189//189 190//190
f 181//181 190//190 191//191
f 192//192 181//181 191//191
f 193//193 181//181 192//192
f 194//194 181//181 193//193
f 195//195 181//181 194//194
f 195//195 196//196 181//181
f 196//196 197//197 198//198
f 196//196 198//198 199//199
f 199//199 200//200 196//196
f 196//196 200//200 201//201
f 201//201 202//202 196//196
f 196//196 202//202 203//203
f 196//196 203//203 204//204
f 205//205 196//196 206//206
f 207//207 196//196 205//205
