v -90.00006 203.1958 -209.4756
v -49.99998 203.1958 -209.4756
v -90.00006 203.1958 -209.4756
v -90.00006 203.1958 -209.4756
v -90.00006 202.0544 -206.0915
v -90.00006 201.5979 -204.7378
v -90.00006 201.5979 -204.7378
v -49.99998 201.5979 -204.7378
v -9.999901 201.5979 -204.7378
v -90.00006 201.3518 -204.7212
v -9.999901 199.3827 -204.5883
v -90.00006 201.3212 -204.7191
v -9.999901 199.1074 -204.5697
v -90.00006 201.3126 -204.7185
v -9.999901 199.0302 -204.5645
v -90.00006 201.2161 -204.712
v -9.999901 198.1616 -204.5058
v -90.00006 200.0262 -204.6317
v -9.999901 198.0294 -204.4969
v -90.00006 198.8981 -204.5555
v -90.00006 198.7683 -204.5468
v -9.999901 197.8896 -204.4874
v -90.00006 198.4976 -204.5285
v -9.999901 197.8595 -204.4854
v -90.00006 197.7798 -204.48
v -9.999901 197.7798 -204.48
v -90.00006 197.6458 -204.3267
v -9.999901 197.0424 -203.6359
v -9.999901 196.5746 -203.1003
v -90.00006 197.6126 -204.2887
v -9.999901 196.2755 -202.758
v -90.00006 197.6027 -204.2774
v -9.999901 196.1865 -202.6561
v -90.00006 197.528 -204.1918
v -9.999901 195.5139 -201.8861
v -90.00006 196.6706 -203.2103
v -9.999901 195.4187 -201.7771
v -90.00006 195.9623 -202.3994
v -9.999901 195.34 -201.687
v -90.00006 195.2622 -201.5979
v -9.999901 195.2622 -201.5979
v -90.00006 195.2702 -201.4801
v -9.999901 195.3338 -200.5375
v -90.00006 195.288 -201.2161
v -9.999901 195.4942 -198.1616
v -90.00006 195.3377 -200.4796
v -90.00006 195.3576 -200.1851
v -9.999901 195.5019 -198.047
v -90.00006 195.4254 -199.1807
v -9.999901 195.5095 -197.9354
v -90.00006 195.4812 -198.3538
v -9.999901 195.5157 -197.8435
v -90.00006 195.52 -197.7798
v -9.999901 195.52 -197.7798
v -9.999901 195.52 -197.7798
v -90.00006 195.6913 -197.6301
v -9.999901 197.0616 -196.4331
v -90.00006 195.7417 -197.5861
v -9.999901 197.5154 -196.0368
v -90.00006 195.7468 -197.5816
v -9.999901 197.5617 -195.9963
v -90.00006 195.7492 -197.5795
v -9.999901 197.5832 -195.9775
v -90.00006 195.7522 -197.5769
v -9.999901 197.6103 -195.9538
v -90.00006 195.8082 -197.528
v -9.999901 198.1139 -195.514
v -90.00006 198.4021 -195.2622
v -9.999901 198.4021 -195.2622
v -90.00006 198.4021 -195.2622
v -9.999901 198.4021 -195.2622
v -90.00006 198.4021 -195.2622
v -90.00006 198.4021 -195.2622
v -90.00006 197.9456 -193.9085
v -90.00006 196.8042 -190.5244
v -90.00006 196.8042 -190.5244
v -90.00006 196.8042 -190.5244
v -90.00006 198.4021 -195.2622
v -90.00006 198.4021 -195.2622
v -90.00006 198.4021 -195.2622
v -9.999901 198.4021 -195.2622
v -9.999901 198.4021 -195.2622
v -9.999901 198.4021 -195.2622
v -90.00006 198.4021 -195.2622
v -90.00006 191.04 -195.5595
v -90.00006 198.4021 -195.2622
v -9.999901 198.4021 -195.2622
v -90.00006 198.4021 -195.2622
v -49.99998 198.4021 -195.2622
v -9.999901 198.4021 -195.2622
v -49.99998 196.8042 -190.5244
v -9.999939 198.4021 -195.2622
v -9.999901 198.4021 -195.2622
v -9.999901 197.9456 -193.9085
v -9.999908 191.04 -195.5595
v -9.999901 198.4021 -195.2622
v -90.00006 191.04 -195.5595
v -9.999901 196.8042 -190.5244
v -9.999908 191.04 -195.5595
v -9.999901 195.52 -197.7798
v -9.999901 195.52 -197.7798
v -49.99998 203.1958 -209.4756
v -90.00006 203.1958 -209.4756
v -90.00006 203.1958 -209.4756
v -90.00006 202.0544 -206.0915
v -49.99998 201.5979 -204.7378
v -90.00006 201.5979 -204.7378
v -9.999901 202.2598 -206.7003
v -9.999901 203.1958 -209.4756
v -9.999901 201.5979 -204.7378
v -90.00006 203.1958 -209.4756
v -90.00006 195.5595 -208.96
v -90.00006 190.5244 -203.1958
v -90.00006 197.7798 -204.48
v -90.00006 198.4976 -204.5285
v -90.00006 198.7683 -204.5468
v -90.00006 198.8981 -204.5555
v -90.00006 200.0262 -204.6317
v -90.00006 201.2161 -204.712
v -90.00006 201.3126 -204.7185
v -90.00006 201.3212 -204.7191
v -90.00006 201.3518 -204.7212
v -90.00006 201.5979 -204.7378
v -90.00006 197.6458 -204.3267
v -90.00006 197.6126 -204.2887
v -90.00006 197.6027 -204.2774
v -90.00006 197.528 -204.1918
v -90.00006 196.6706 -203.2103
v -90.00006 195.9623 -202.3994
v -90.00006 195.2622 -201.5979
v -90.00006 195.2702 -201.4801
v -90.00006 195.288 -201.2161
v -90.00006 195.3377 -200.4796
v -90.00006 191.04 -195.5595
v -90.00006 195.3576 -200.1851
v -90.00006 195.4254 -199.1807
v -90.00006 195.4812 -198.3538
v -90.00006 195.52 -197.7798
v -90.00006 195.6913 -197.6301
v -90.00006 195.7417 -197.5861
v -90.00006 195.7468 -197.5816
v -90.00006 195.7492 -197.5795
v -90.00006 195.7522 -197.5769
v -90.00006 195.8082 -197.528
v -90.00006 198.4021 -195.2622
v -90.00006 198.4021 -195.2622
v -90.00006 198.4021 -195.2622
v -90.00006 196.8042 -190.5244
v -90.00006 203.1958 -209.4756
v -9.999908 195.5595 -208.9601
v -90.00006 195.5595 -208.96
v -49.99998 203.1958 -209.4756
v -9.999908 190.5244 -203.1958
v -90.00006 190.5244 -203.1958
v -9.999908 191.04 -195.5595
v -90.00006 191.04 -195.5595
v -9.999901 203.1958 -209.4756
v -90.00006 196.8042 -190.5244
v -49.99998 198.4021 -195.2622
v -90.00006 198.4021 -195.2622
v -49.99998 196.8042 -190.5244
v -9.999939 198.4021 -195.2622
v -9.999901 196.8042 -190.5244
v -9.999901 197.9456 -193.9085
v -9.999901 198.4021 -195.2622
v -9.999901 201.5979 -204.7378
v -9.999908 195.5595 -208.9601
v -9.999901 202.2598 -206.7003
v -9.999908 195.5595 -208.9601
v -9.999901 203.1958 -209.4756
v -9.999901 201.5979 -204.7378
v -9.999901 199.3827 -204.5883
v -9.999901 201.5979 -204.7378
v -9.999901 199.1074 -204.5697
v -9.999901 199.0302 -204.5645
v -9.999901 198.1616 -204.5058
v -9.999901 198.0294 -204.4969
v -9.999901 197.8896 -204.4874
v -9.999901 197.8595 -204.4854
v -9.999901 197.7798 -204.48
v -9.999908 190.5244 -203.1958
v -9.999901 197.0424 -203.6359
v -9.999901 196.5746 -203.1003
v -9.999901 196.2755 -202.758
v -9.999901 196.1865 -202.6561
v -9.999901 195.5139 -201.8861
v -9.999901 195.4187 -201.7771
v -9.999901 195.34 -201.687
v -9.999901 195.2622 -201.5979
v -9.999901 195.3338 -200.5375
v -9.999901 195.4942 -198.1616
v -9.999901 195.5019 -198.047
v -9.999901 195.5095 -197.9354
v -9.999901 195.5157 -197.8435
v -9.999901 195.52 -197.7798
v -9.999908 191.04 -195.5595
v -9.999901 195.52 -197.7798
v -9.999901 197.0616 -196.4331
v -9.999901 197.5154 -196.0368
v -9.999901 197.5617 -195.9963
v -9.999901 197.5832 -195.9775
v -9.999901 197.6103 -195.9538
v -9.999901 198.1139 -195.514
v -9.999901 198.4021 -195.2622
v -9.999901 197.9456 -193.9085
v -9.999901 198.4021 -195.2622
v -9.999901 196.8042 -190.5244

vn -4.968043E-07 0.3195797 -0.9475595
vn -3.442166E-07 0.3195797 -0.9475595
vn -0.6507914 0.242643 -0.7194409
vn -1 -1.490116E-08 -3.72529E-08
vn -1 -1.490116E-08 -3.72529E-08
vn 3.590921E-08 0.06736702 0.9977284
vn -0.141421 -0.3163678 0.9380363
vn 1.93942E-07 0.8444601 0.5356185
vn 3.13724E-07 0.06736241 0.9977286
vn 2.726024E-07 0.06736156 0.9977288
vn 3.113445E-07 0.06736191 0.9977288
vn 3.949282E-07 0.06736292 0.9977287
vn 4.534405E-07 0.06736398 0.9977286
vn -1.382755E-07 0.0673582 0.997729
vn 1.492876E-07 0.06736097 0.9977288
vn 1.973557E-07 0.0673615 0.9977288
vn 1.802069E-07 0.06736135 0.9977289
vn 1.790441E-07 0.06736126 0.9977288
vn 1.93006E-07 0.06736156 0.9977288
vn 2.122008E-07 0.06736121 0.9977288
vn 2.064141E-07 0.06736238 0.9977287
vn 2.49101E-07 0.06736395 0.9977286
vn 1.386111E-07 0.06736176 0.9977287
vn 1.524271E-07 0.06736089 0.9977289
vn 1.598152E-07 0.2170808 0.9761539
vn 2.066631E-07 0.7255961 0.6881208
vn 2.633655E-07 0.7531343 0.6578669
vn 2.238772E-07 0.7531337 0.6578674
vn 2.041782E-07 0.7531335 0.6578677
vn 5.085512E-08 0.7531322 0.6578693
vn -3.36007E-08 0.7531313 0.6578702
vn -2.498425E-07 0.7531302 0.6578715
vn 1.676524E-08 0.7531321 0.6578694
vn 1.949988E-07 0.7531328 0.6578684
vn 2.54102E-07 0.7531333 0.6578681
vn 3.128385E-07 0.7531333 0.657868
vn 2.142625E-07 0.7531325 0.6578688
vn 2.349195E-07 0.753133 0.6578684
vn 2.757501E-07 0.7531338 0.6578675
vn 2.871794E-07 0.7948002 0.6068713
vn 1.460462E-07 0.9999991 -0.001387445
vn 1.067129E-07 0.9977286 -0.06736062
vn 1.341582E-07 0.9977286 -0.0673617
vn 1.748464E-07 0.9977286 -0.0673624
vn 1.4637E-07 0.9977286 -0.06736238
vn 1.286158E-07 0.9977285 -0.06736195
vn 2.441471E-09 0.9977286 -0.0673614
vn 7.190702E-08 0.9977286 -0.06736186
vn 4.94493E-08 0.9977287 -0.06736149
vn 4.193183E-08 0.9977286 -0.06736182
vn 3.499418E-08 0.9977287 -0.06736181
vn 2.63094E-08 0.9977286 -0.06736137
vn -3.25513E-08 0.9648889 -0.2626587
vn 2.42727E-08 0.9977302 -0.06733815
vn -1.102354E-07 0.6578688 -0.7531327
vn -6.520479E-08 0.6578678 -0.7531335
vn -2.834058E-08 0.6578676 -0.7531338
vn 7.960447E-08 0.6578665 -0.7531345
vn -1.215881E-07 0.6578681 -0.7531333
vn -4.099772E-07 0.6578695 -0.7531323
vn -6.88961E-07 0.6578714 -0.7531304
vn -6.304845E-06 0.6579055 -0.7531006
vn -2.722104E-06 0.6578842 -0.7531193
vn 6.31253E-07 0.6578627 -0.7531381
vn 2.419792E-07 0.6578658 -0.7531354
vn -9.562994E-08 0.6578679 -0.7531334
vn -1.212309E-07 0.6578684 -0.753133
vn -1.210116E-07 0.6578686 -0.7531329
vn -5.103115E-08 0.6578724 -0.7531296
vn -5.358402E-08 0.7747344 -0.632287
vn -1.534818E-07 0.3195797 -0.9475595
vn -1.534818E-07 0.3195797 -0.9475595
vn -1.534818E-07 0.3195797 -0.9475595
vn -1 -1.490116E-08 -3.72529E-08
vn 2.534946E-07 -0.6578681 0.7531333
vn -1 -1.490116E-08 -3.72529E-08
vn 1.777076E-07 0.8979906 0.4400146
vn -0.7603925 0.2075554 -0.6154057
vn -0.8262196 0.1800347 -0.5338061
vn -0.07104918 0.3187721 -0.9451649
vn -1.534821E-07 0.3195797 -0.9475595
vn -1.534818E-07 0.3195797 -0.9475595
vn -1.534815E-07 0.3195797 -0.9475595
vn -0.1030028 0.3178799 -0.9425195
vn -1 -1.490116E-08 -3.72529E-08
vn -0.01266333 0.3195595 -0.9474818
vn -1.534828E-07 0.3195797 -0.9475595
vn -0.1414215 0.3163677 -0.9380361
vn -1.53483E-07 0.3195734 -0.9475617
vn 0.06004165 0.3189972 -0.945852
vn 1.831697E-07 -0.6578681 0.7531332
vn -1.53485E-07 0.3195573 -0.9475671
vn 1 2.233665E-06 -6.541421E-06
vn 1 1.490116E-08 3.72529E-08
vn 1 -3.940498E-07 -1.006724E-07
vn 0 0 0
vn 1.729789E-07 -0.6578682 0.7531332
vn 1.376835E-07 -0.6578681 0.7531333
vn 1.627881E-07 -0.6578682 0.7531333
vn 1 -3.940498E-07 -1.006724E-07
vn 1 -3.940498E-07 -1.006724E-07
vn 1.341104E-07 0.9475594 0.3195797
vn 1.341104E-07 0.9475594 0.3195797
vn 1.341104E-07 0.9475594 0.3195797
vn 1.341104E-07 0.9475594 0.3195797
vn 1.341105E-07 0.9475594 0.3195797
vn 1.341104E-07 0.9475594 0.3195797
vn 1.341105E-07 0.9475594 0.3195797
vn 1.341105E-07 0.9475594 0.3195797
vn 1.341105E-07 0.9475594 0.3195797
vn -1 -1.490116E-08 -3.72529E-08
vn -1 -1.490116E-08 -3.72529E-08
vn -1 -1.490116E-08 -3.72529E-08
vn -1 -1.490116E-08 -3.72529E-08
vn -1 -1.490116E-08 -3.72529E-08
vn -1 -1.490116E-08 -3.72529E-08
vn -1 -1.490116E-08 -3.72529E-08
vn -1 -1.490116E-08 -3.72529E-08
vn -1 -1.490116E-08 -3.72529E-08
vn -1 -1.490116E-08 -3.72529E-08
vn -1 -1.490116E-08 -3.72529E-08
vn -1 -1.490116E-08 -3.72529E-08
vn -1 -1.490116E-08 -3.72529E-08
vn -1 -1.490116E-08 -3.72529E-08
vn -1 -1.490116E-08 -3.72529E-08
vn -1 -1.490116E-08 -3.72529E-08
vn -1 -1.490116E-08 -3.72529E-08
vn -1 -1.490116E-08 -3.72529E-08
vn -1 -1.490116E-08 -3.72529E-08
vn -1 -1.490116E-08 -3.72529E-08
vn -1 -1.490116E-08 -3.72529E-08
vn -1 -1.490116E-08 -3.72529E-08
vn -1 -1.490116E-08 -3.72529E-08
vn -1 -1.490116E-08 -3.72529E-08
vn -1 -1.490116E-08 -3.72529E-08
vn -1 -1.490116E-08 -3.72529E-08
vn -1 -1.490116E-08 -3.72529E-08
vn -1 -1.490116E-08 -3.72529E-08
vn -1 -1.490116E-08 -3.72529E-08
vn -1 -1.490116E-08 -3.72529E-08
vn -1 -1.490116E-08 -3.72529E-08
vn -1 -1.490116E-08 -3.72529E-08
vn -1 -1.490116E-08 -3.72529E-08
vn -1 -1.490116E-08 -3.72529E-08
vn -1 -1.490116E-08 -3.72529E-08
vn -1 -1.490116E-08 -3.72529E-08
vn -1 -1.490116E-08 -3.72529E-08
vn -1 -1.490116E-08 -3.72529E-08
vn -3.140743E-07 -0.06736194 -0.9977288
vn -2.885414E-07 -0.3173261 -0.9483166
vn -2.513276E-07 -0.5624253 -0.8268481
vn -2.950233E-07 -0.06736197 -0.9977286
vn -1.627778E-07 -0.8949445 -0.4461775
vn -9.343983E-08 -0.9823647 -0.1869753
vn -3.526834E-08 -0.9977286 0.06736198
vn -2.802294E-08 -0.9977286 0.06736197
vn -2.283637E-07 -0.06736185 -0.9977288
vn 1.341105E-07 0.9475594 0.3195797
vn 1.341105E-07 0.9475594 0.3195797
vn 1.341104E-07 0.9475594 0.3195797
vn 1.341104E-07 0.9475594 0.3195797
vn 1.341105E-07 0.9475594 0.3195797
vn 1.341105E-07 0.9475594 0.3195797
vn 1.432804E-07 0.9475594 0.3195797
vn 1.432804E-07 0.9475594 0.3195797
vn 0.2028032 -0.3129387 0.9278688
vn 1 2.503543E-07 -6.608699E-07
vn 1 -1.895743E-07 -3.170975E-08
vn 1 -1.708491E-07 -1.431688E-07
vn 1 -1.895743E-07 -3.170975E-08
vn 1 -1.895743E-07 -3.170975E-08
vn 1 -7.349933E-09 -2.923165E-07
vn 1 -7.349793E-09 -2.923166E-07
vn 1 -7.350316E-09 -2.923161E-07
vn 1 -7.349622E-09 -2.923167E-07
vn 1 -7.34955E-09 -2.923167E-07
vn 1 -7.350127E-09 -2.923164E-07
vn 1 -7.352116E-09 -2.923153E-07
vn 1 -7.347376E-09 -2.923178E-07
vn 1 -2.318283E-07 -1.810675E-07
vn 1 -2.742709E-07 -6.027506E-08
vn 1 -2.338735E-07 -1.800534E-07
vn 1 -2.338734E-07 -1.80054E-07
vn 1 -2.338735E-07 -1.800547E-07
vn 1 -2.338735E-07 -1.800543E-07
vn 1 -2.338735E-07 -1.800542E-07
vn 1 -2.338735E-07 -1.800541E-07
vn 1 -2.338737E-07 -1.800535E-07
vn 1 -3.065792E-07 3.55198E-08
vn 1 -3.146684E-07 5.95039E-08
vn 1 -3.146684E-07 5.950409E-08
vn 1 -3.146679E-07 5.950352E-08
vn 1 -3.146692E-07 5.950477E-08
vn 1 -3.146685E-07 5.950418E-08
vn 1 -3.146683E-07 5.950388E-08
vn 1 -2.421782E-07 6.832323E-08
vn 1 -2.024057E-07 2.860278E-07
vn 1 -2.024057E-07 2.86028E-07
vn 1 -2.024057E-07 2.860284E-07
vn 1 -2.024062E-07 2.860211E-07
vn 1 -2.024057E-07 2.860291E-07
vn 1 -2.024057E-07 2.860286E-07
vn 1 -2.024057E-07 2.86027E-07
vn 1 -2.024057E-07 2.860258E-07
vn 1 -1.895743E-07 -3.170975E-08
vn 1 -1.895743E-07 -3.170975E-08
vn 1 -1.895743E-07 -3.170976E-08

f 1//1 2//2 3//3
f 4//4 1//1 3//3
f 3//3 5//5 4//4
f 3//3 6//6 5//5
f 5//5 6//6 7//7
f 8//8 7//7 6//6
f 9//9 8//8 6//6
f 10//10 9//9 6//6
f 9//9 10//10 11//11
f 11//11 10//10 12//12
f 13//13 11//11 12//12
f 13//13 12//12 14//14
f 13//13 14//14 15//15
f 15//15 14//14 16//16
f 15//15 16//16 17//17
f 18//18 17//17 16//16
f 19//19 17//17 18//18
f 19//19 18//18 20//20
f 21//21 19//19 20//20
f 22//22 19//19 21//21
f 22//22 21//21 23//23
f 24//24 22//22 23//23
f 24//24 23//23 25//25
f 26//26 24//24 25//25
f 26//26 25//25 27//27
f 28//28 26//26 27//27
f 28//28 27//27 29//29
f 29//29 27//27 30//30
f 31//31 29//29 30//30
f 31//31 30//30 32//32
f 33//33 31//31 32//32
f 33//33 32//32 34//34
f 35//35 33//33 34//34
f 35//35 34//34 36//36
f 37//37 35//35 36//36
f 37//37 36//36 38//38
f 39//39 37//37 38//38
f 39//39 38//38 40//40
f 41//41 39//39 40//40
f 41//41 40//40 42//42
f 41//41 42//42 43//43
f 43//43 42//42 44//44
f 45//45 43//43 44//44
f 45//45 44//44 46//46
f 47//47 45//45 46//46
f 48//48 45//45 47//47
f 48//48 47//47 49//49
f 50//50 48//48 49//49
f 50//50 49//49 51//51
f 52//52 50//50 51//51
f 52//52 51//51 53//53
f 54//54 52//52 53//53
f 55//55 54//54 53//53
f 55//55 53//53 56//56
f 55//55 56//56 57//57
f 57//57 56//56 58//58
f 57//57 58//58 59//59
f 59//59 58//58 60//60
f 59//59 60//60 61//61
f 61//61 60//60 62//62
f 61//61 62//62 63//63
f 63//63 62//62 64//64
f 63//63 64//64 65//65
f 65//65 64//64 66//66
f 65//65 66//66 67//67
f 68//68 67//67 66//66
f 69//69 67//67 68//68
f 69//69 68//68 70//70
f 71//71 69//69 70//70
f 72//72 71//71 73//73
f 74//74 75//75 76//76
f 77//77 74//74 76//76
f 75//75 77//77 76//76
f 78//78 75//75 74//74
f 79//79 75//75 78//78
f 78//78 74//74 80//80
f 81//81 78//78 80//80
f 82//82 78//78 81//81
f 82//82 83//83 78//78
f 83//83 84//84 79//79
f 84//84 85//85 79//79
f 80//80 74//74 86//86
f 87//87 80//80 86//86
f 81//81 80//80 87//87
f 86//86 74//74 88//88
f 88//88 74//74 77//77
f 86//86 88//88 89//89
f 90//90 86//86 89//89
f 87//87 86//86 90//90
f 75//75 91//91 77//77
f 90//90 89//89 92//92
f 90//90 92//92 93//93
f 94//94 90//90 93//93
f 95//95 83//83 82//82
f 95//95 82//82 81//81
f 95//95 81//81 87//87
f 95//95 87//87 90//90
f 95//95 96//96 83//83
f 97//97 91//91 75//75
f 97//97 98//98 91//91
f 97//97 99//99 98//98
f 100//100 95//95 101//101
f 102//102 103//103 104//104
f 102//102 104//104 105//105
f 102//102 105//105 106//106
f 106//106 105//105 107//107
f 108//108 102//102 106//106
f 109//109 102//102 108//108
f 110//110 108//108 106//106
f 111//111 112//112 113//113
f 111//111 113//113 114//114
f 111//111 114//114 115//115
f 111//111 115//115 116//116
f 111//111 116//116 117//117
f 117//117 118//118 111//111
f 118//118 119//119 111//111
f 120//120 111//111 119//119
f 120//120 121//121 111//111
f 121//121 122//122 111//111
f 111//111 122//122 123//123
f 114//114 113//113 124//124
f 124//124 113//113 125//125
f 125//125 113//113 126//126
f 126//126 113//113 127//127
f 127//127 113//113 128//128
f 128//128 113//113 129//129
f 129//129 113//113 130//130
f 130//130 113//113 131//131
f 131//131 113//113 132//132
f 132//132 113//113 133//133
f 133//133 113//113 134//134
f 133//133 134//134 135//135
f 135//135 134//134 136//136
f 134//134 137//137 136//136
f 137//137 134//134 138//138
f 138//138 134//134 139//139
f 139//139 134//134 140//140
f 140//140 134//134 141//141
f 134//134 142//142 141//141
f 134//134 143//143 142//142
f 134//134 144//144 143//143
f 144//144 134//134 145//145
f 145//145 134//134 146//146
f 147//147 134//134 148//148
f 149//149 150//150 151//151
f 149//149 152//152 150//150
f 151//151 150//150 153//153
f 151//151 153//153 154//154
f 154//154 153//153 155//155
f 154//154 155//155 156//156
f 152//152 157//157 150//150
f 158//158 159//159 160//160
f 161//161 159//159 158//158
f 162//162 159//159 161//161
f 163//163 162//162 161//161
f 164//164 162//162 163//163
f 165//165 162//162 164//164
f 9//9 166//166 8//8
f 166//166 9//9 167//167
f 168//168 169//169 170//170
f 168//168 171//171 169//169
f 172//172 169//169 173//173
f 174//174 169//169 172//172
f 169//169 174//174 175//175
f 176//176 169//169 175//175
f 177//177 169//169 176//176
f 178//178 169//169 177//177
f 178//178 179//179 169//169
f 179//179 180//180 169//169
f 180//180 181//181 169//169
f 182//182 181//181 180//180
f 182//182 183//183 181//181
f 183//183 184//184 181//181
f 184//184 185//185 181//181
f 185//185 186//186 181//181
f 186//186 187//187 181//181
f 187//187 188//188 181//181
f 188//188 189//189 181//181
f 181//181 189//189 190//190
f 181//181 190//190 191//191
f 192//192 181//181 191//191
f 193//193 181//181 192//192
f 194//194 181//181 193//193
f 195//195 181//181 194//194
f 195//195 196//196 181//181
f 196//196 197//197 198//198
f 196//196 198//198 199//199
f 199//199 200//200 196//196
f 196//196 200//200 201//201
f 201//201 202//202 196//196
f 196//196 202//202 203//203
f 196//196 203//203 204//204
f 205//205 196//196 206//206
f 207//207 196//196 205//205
