v 103.8777 209.2176 -113.0902
v 103.8777 209.2176 -150
v 103.8777 209.2176 -113.0902
v 103.8777 209.2176 -113.0902
v 102.4928 205.9256 -113.0902
v 101.9389 204.6088 -113.0902
v 101.9389 204.6088 -113.0902
v 101.9389 204.6088 -150
v 101.9389 204.6088 -186.9099
v 101.6922 204.6102 -113.0902
v 99.71864 204.621 -186.9099
v 101.6615 204.6103 -113.0902
v 99.44274 204.6226 -186.9099
v 101.6529 204.6104 -113.0902
v 99.36529 204.623 -186.9099
v 101.5562 204.6109 -113.0902
v 98.49474 204.6278 -186.9099
v 100.3636 204.6175 -113.0902
v 98.36224 204.6285 -186.9099
v 99.2329 204.6237 -113.0902
v 99.10283 204.6244 -113.0902
v 98.22215 204.6293 -186.9099
v 98.83153 204.6259 -113.0902
v 98.19201 204.6294 -186.9099
v 98.11207 204.6299 -113.0902
v 98.11207 204.6299 -186.9099
v 97.96734 204.4867 -113.0902
v 97.31515 203.8417 -186.9099
v 96.80955 203.3416 -186.9099
v 97.93143 204.4512 -113.0902
v 96.48637 203.022 -186.9099
v 97.92075 204.4407 -113.0902
v 96.39019 202.9269 -186.9099
v 97.83998 204.3608 -113.0902
v 95.66329 202.208 -186.9099
v 96.91338 203.4443 -113.0902
v 95.56034 202.1061 -186.9099
v 96.14786 202.6872 -113.0902
v 95.47528 202.022 -186.9099
v 95.39121 201.9388 -113.0902
v 95.39121 201.9389 -186.9099
v 95.39056 201.8208 -113.0902
v 95.38535 200.876 -186.9099
v 95.3891 201.5562 -113.0902
v 95.37223 198.4948 -186.9099
v 95.38503 200.818 -113.0902
v 95.38341 200.5228 -113.0902
v 95.3716 198.3799 -186.9099
v 95.37786 199.5162 -113.0902
v 95.37098 198.2681 -186.9099
v 95.37329 198.6874 -113.0902
v 95.37048 198.176 -186.9099
v 95.37012 198.1121 -113.0902
v 95.37012 198.1121 -186.9099
v 95.37012 198.1121 -186.9099
v 95.53006 197.9504 -113.0902
v 96.80955 196.6567 -186.9099
v 95.57713 197.9028 -113.0902
v 97.23323 196.2283 -186.9099
v 95.58194 197.8979 -113.0902
v 97.27648 196.1846 -186.9099
v 95.58417 197.8956 -113.0902
v 97.29654 196.1643 -186.9099
v 95.58698 197.8928 -113.0902
v 97.32188 196.1387 -186.9099
v 95.63922 197.84 -113.0902
v 97.79205 195.6633 -186.9099
v 98.06115 195.3912 -113.0902
v 98.06115 195.3912 -186.9099
v 98.06116 195.3912 -113.0902
v 98.06116 195.3912 -186.9099
v 98.06116 195.3912 -113.0902
v 98.06116 195.3912 -113.0902
v 97.50719 194.0744 -113.0902
v 96.12231 190.7824 -113.0902
v 96.12231 190.7824 -113.0902
v 96.12231 190.7824 -113.0902
v 98.06116 195.3912 -113.0902
v 98.06116 195.3912 -113.0902
v 98.06116 195.3912 -113.0902
v 98.06116 195.3912 -186.9099
v 98.06116 195.3912 -186.9099
v 98.06116 195.3912 -186.9099
v 98.06116 195.3912 -113.0902
v 90.74024 196.2241 -113.0902
v 98.06116 195.3912 -113.0902
v 98.06116 195.3912 -186.9099
v 98.06116 195.3912 -113.0902
v 98.06116 195.3912 -150
v 98.06116 195.3912 -186.9099
v 96.12231 190.7824 -150
v 98.06116 195.3912 -186.9099
v 98.06116 195.3912 -186.9099
v 97.50719 194.0744 -186.9099
v 90.74024 196.2241 -186.9099
v 98.06115 195.3912 -186.9099
v 90.74024 196.2241 -113.0902
v 96.12231 190.7824 -186.9099
v 90.74024 196.2241 -186.9099
v 95.37012 198.1121 -186.9099
v 95.37012 198.1121 -186.9099
v 103.8777 209.2176 -150
v 103.8777 209.2176 -113.0902
v 103.8777 209.2176 -113.0902
v 102.4928 205.9256 -113.0902
v 101.9389 204.6088 -150
v 101.9389 204.6088 -113.0902
v 102.7419 206.5178 -186.9099
v 103.8777 209.2176 -186.9099
v 101.9389 204.6088 -186.9099
v 103.8777 209.2176 -113.0902
v 96.22413 209.2598 -113.0902
v 90.78242 203.8777 -113.0902
v 98.11207 204.6299 -113.0902
v 98.83153 204.6259 -113.0902
v 99.10283 204.6244 -113.0902
v 99.2329 204.6237 -113.0902
v 100.3636 204.6175 -113.0902
v 101.5562 204.6109 -113.0902
v 101.6529 204.6104 -113.0902
v 101.6615 204.6103 -113.0902
v 101.6922 204.6102 -113.0902
v 101.9389 204.6088 -113.0902
v 97.96734 204.4867 -113.0902
v 97.93143 204.4512 -113.0902
v 97.92075 204.4407 -113.0902
v 97.83998 204.3608 -113.0902
v 96.91338 203.4443 -113.0902
v 96.14786 202.6872 -113.0902
v 95.39121 201.9388 -113.0902
v 95.39056 201.8208 -113.0902
v 95.3891 201.5562 -113.0902
v 95.38503 200.818 -113.0902
v 90.74024 196.2241 -113.0902
v 95.38341 200.5228 -113.0902
v 95.37786 199.5162 -113.0902
v 95.37329 198.6874 -113.0902
v 95.37012 198.1121 -113.0902
v 95.53006 197.9504 -113.0902
v 95.57713 197.9028 -113.0902
v 95.58194 197.8979 -113.0902
v 95.58417 197.8956 -113.0902
v 95.58698 197.8928 -113.0902
v 95.63922 197.84 -113.0902
v 98.06115 195.3912 -113.0902
v 98.06116 195.3912 -113.0902
v 98.06116 195.3912 -113.0902
v 96.12231 190.7824 -113.0902
v 103.8777 209.2176 -113.0902
v 96.22413 209.2598 -186.9099
v 96.22413 209.2598 -113.0902
v 103.8777 209.2176 -150
v 90.78242 203.8777 -186.9099
v 90.78242 203.8777 -113.0902
v 90.74024 196.2241 -186.9099
v 90.74024 196.2241 -113.0902
v 103.8777 209.2176 -186.9099
v 96.12231 190.7824 -113.0902
v 98.06116 195.3912 -150
v 98.06116 195.3912 -113.0902
v 96.12231 190.7824 -150
v 98.06116 195.3912 -186.9099
v 96.12231 190.7824 -186.9099
v 97.50719 194.0744 -186.9099
v 98.06116 195.3912 -186.9099
v 101.9389 204.6088 -186.9099
v 96.22413 209.2598 -186.9099
v 102.7419 206.5178 -186.9099
v 96.22413 209.2598 -186.9099
v 103.8777 209.2176 -186.9099
v 101.9389 204.6088 -186.9099
v 99.71864 204.621 -186.9099
v 101.9389 204.6088 -186.9099
v 99.44274 204.6226 -186.9099
v 99.36529 204.623 -186.9099
v 98.49474 204.6278 -186.9099
v 98.36224 204.6285 -186.9099
v 98.22215 204.6293 -186.9099
v 98.19201 204.6294 -186.9099
v 98.11207 204.6299 -186.9099
v 90.78242 203.8777 -186.9099
v 97.31515 203.8417 -186.9099
v 96.80955 203.3416 -186.9099
v 96.48637 203.022 -186.9099
v 96.39019 202.9269 -186.9099
v 95.66329 202.208 -186.9099
v 95.56034 202.1061 -186.9099
v 95.47528 202.022 -186.9099
v 95.39121 201.9389 -186.9099
v 95.38535 200.876 -186.9099
v 95.37223 198.4948 -186.9099
v 95.3716 198.3799 -186.9099
v 95.37098 198.2681 -186.9099
v 95.37048 198.176 -186.9099
v 95.37012 198.1121 -186.9099
v 90.74024 196.2241 -186.9099
v 95.37012 198.1121 -186.9099
v 96.80955 196.6567 -186.9099
v 97.23323 196.2283 -186.9099
v 97.27648 196.1846 -186.9099
v 97.29654 196.1643 -186.9099
v 97.32188 196.1387 -186.9099
v 97.79205 195.6633 -186.9099
v 98.06115 195.3912 -186.9099
v 97.50719 194.0744 -186.9099
v 98.06116 195.3912 -186.9099
v 96.12231 190.7824 -186.9099

vn 0.3877689 0.9217568 5.340572E-07
vn 0.3877689 0.9217568 3.814694E-07
vn 0.2944161 0.69985 0.6507913
vn 0 0 1
vn 0 0 1
vn -0.005505763 -0.999985 -6.462383E-08
vn -0.3838716 -0.9124928 0.141421
vn 0.803191 -0.5957217 -1.883212E-07
vn -0.005510388 -0.9999849 -3.424387E-07
vn -0.005511237 -0.999985 -3.013172E-07
vn -0.005510893 -0.999985 -3.400592E-07
vn -0.005509875 -0.999985 -4.236429E-07
vn -0.005508811 -0.9999849 -4.821552E-07
vn -0.005514607 -0.999985 1.095606E-07
vn -0.005511828 -0.999985 -1.780023E-07
vn -0.005511296 -0.9999849 -2.260704E-07
vn -0.005511448 -0.999985 -2.089216E-07
vn -0.005511535 -0.999985 -2.077588E-07
vn -0.005511241 -0.9999849 -2.217208E-07
vn -0.005511586 -0.999985 -2.409156E-07
vn -0.005510412 -0.999985 -2.351288E-07
vn -0.005508839 -0.9999849 -2.778156E-07
vn -0.005511031 -0.9999849 -1.673258E-07
vn -0.005511906 -0.999985 -1.811419E-07
vn 0.1453821 -0.9893758 -1.839746E-07
vn 0.6735318 -0.7391584 -2.087927E-07
vn 0.7032011 -0.7109913 -2.638545E-07
vn 0.7032005 -0.7109917 -2.243663E-07
vn 0.7032003 -0.710992 -2.046673E-07
vn 0.7031989 -0.7109936 -5.134434E-08
vn 0.7031978 -0.7109944 3.311141E-08
vn 0.7031966 -0.7109956 2.493531E-07
vn 0.7031987 -0.7109936 -1.725448E-08
vn 0.7031994 -0.7109928 -1.95488E-07
vn 0.7032 -0.7109925 -2.545912E-07
vn 0.7031999 -0.7109923 -3.133276E-07
vn 0.7031991 -0.7109931 -2.147517E-07
vn 0.7031997 -0.7109927 -2.354086E-07
vn 0.7032005 -0.7109918 -2.762392E-07
vn 0.7484717 -0.663167 -2.850269E-07
vn 0.9974426 -0.07147549 -1.199789E-07
vn 0.9999849 -0.005512232 -7.869002E-08
vn 0.999985 -0.005511159 -1.061353E-07
vn 0.999985 -0.005510462 -1.468234E-07
vn 0.999985 -0.005510467 -1.18347E-07
vn 0.9999849 -0.005510897 -1.005928E-07
vn 0.9999849 -0.005511457 2.558145E-08
vn 0.999985 -0.005510998 -4.388408E-08
vn 0.999985 -0.00551137 -2.142637E-08
vn 0.9999849 -0.005511031 -1.39089E-08
vn 0.999985 -0.005511049 -6.971242E-09
vn 0.9999849 -0.005511485 1.713521E-09
vn 0.9814616 0.1916595 6.568339E-08
vn 0.9999848 -0.005534757 3.749556E-09
vn 0.7109931 0.7031991 1.50355E-07
vn 0.7109922 0.7032 1.053244E-07
vn 0.710992 0.7032004 6.84602E-08
vn 0.710991 0.7032012 -3.948485E-08
vn 0.7109925 0.7031998 1.617077E-07
vn 0.7109937 0.7031987 4.500968E-07
vn 0.7109956 0.7031966 7.290805E-07
vn 0.7110274 0.7031645 6.344963E-06
vn 0.7110075 0.7031847 2.762223E-06
vn 0.7109874 0.703205 -5.911333E-07
vn 0.7109903 0.7032021 -2.018595E-07
vn 0.7109923 0.7032 1.357495E-07
vn 0.7109927 0.7031995 1.613505E-07
vn 0.7109929 0.7031994 1.611312E-07
vn 0.7109964 0.7031958 9.115076E-08
vn 0.8187434 0.5741599 9.305477E-08
vn 0.3877689 0.9217568 1.907347E-07
vn 0.3877689 0.9217568 1.907347E-07
vn 0.3877689 0.9217568 1.907347E-07
vn 0 0 1
vn -0.7109925 -0.7031998 -2.936142E-07
vn 0 0 1
vn 0.863545 -0.5042722 -1.677742E-07
vn 0.2518418 0.5986477 0.7603924
vn 0.218449 0.5192702 0.8262195
vn 0.3867889 0.9194273 0.0710492
vn 0.3877689 0.9217568 1.90735E-07
vn 0.3877689 0.9217568 1.907347E-07
vn 0.3877689 0.9217568 1.907343E-07
vn 0.3857063 0.916854 0.1030029
vn 0 0 1
vn 0.3877431 0.9216807 0.01266336
vn 0.3877689 0.9217568 1.907357E-07
vn 0.3838716 0.9124926 0.1414215
vn 0.3877628 0.9217594 1.907357E-07
vn 0.3870635 0.9200963 -0.06004161
vn -0.7109925 -0.7031997 -2.232892E-07
vn 0.3877471 0.921766 1.907375E-07
vn 2.692184E-06 6.399532E-06 -1
vn 0 0 -1
vn -3.97815E-07 1.673546E-07 -1
vn 0 0 0
vn -0.7109926 -0.7031998 -2.130985E-07
vn -0.7109925 -0.7031998 -1.778031E-07
vn -0.7109926 -0.7031999 -2.029077E-07
vn -3.97815E-07 1.673546E-07 -1
vn -3.97815E-07 1.673546E-07 -1
vn 0.9217568 -0.3877689 -1.192093E-07
vn 0.9217567 -0.3877688 -1.192092E-07
vn 0.9217568 -0.3877689 -1.192093E-07
vn 0.9217568 -0.3877689 -1.192093E-07
vn 0.9217568 -0.3877689 -1.192093E-07
vn 0.9217568 -0.3877689 -1.192092E-07
vn 0.9217568 -0.3877689 -1.192093E-07
vn 0.9217568 -0.3877689 -1.192093E-07
vn 0.9217568 -0.3877689 -1.192093E-07
vn 0 0 1
vn 0 0 1
vn 0 0 1
vn 0 0 1
vn 0 0 1
vn 0 0 1
vn 0 0 1
vn 0 0 1
vn 0 0 1
vn 0 0 1
vn 0 0 1
vn 0 0 1
vn 0 0 1
vn 0 0 0.9999999
vn 0 0 1
vn 0 0 1
vn 0 0 0.9999999
vn 0 0 1
vn 0 0 1
vn 0 0 1
vn 0 0 0.9999999
vn 0 0 1
vn 0 0 1
vn 0 0 1
vn 0 0 1
vn 0 0 1
vn 0 0 1
vn 0 0 1
vn 0 0 1
vn 0 0 1
vn 0 0 1
vn 0 0 0.9999999
vn 0 0 1
vn 0 0 0.9999999
vn 0 0 0.9999999
vn 0 0 1
vn 0 0 0.9999999
vn 0 0 0.9999999
vn 0.005510861 0.999985 3.42789E-07
vn -0.2473891 0.9689164 3.092419E-07
vn -0.500687 0.8656285 2.619401E-07
vn 0.00551082 0.9999849 3.23738E-07
vn -0.860058 0.5101967 1.531119E-07
vn -0.966131 0.2580528 7.358348E-08
vn -0.9999849 0.00551087 7.245398E-09
vn -0.999985 0.005510893 0
vn 0.005510948 0.9999849 2.570785E-07
vn 0.9217568 -0.3877689 -1.192093E-07
vn 0.9217568 -0.3877689 -1.192093E-07
vn 0.9217568 -0.3877689 -1.192093E-07
vn 0.9217568 -0.3877689 -1.192093E-07
vn 0.9217568 -0.3877689 -1.192093E-07
vn 0.9217568 -0.3877689 -1.192093E-07
vn 0.9217568 -0.3877689 -1.283792E-07
vn 0.9217567 -0.3877688 -1.283792E-07
vn -0.3797108 -0.9026023 -0.2028032
vn 2.856921E-07 6.791124E-07 -1
vn -1.989075E-07 8.367731E-08 -0.9999999
vn -1.721112E-07 1.934758E-07 -1
vn -1.989075E-07 8.367731E-08 -1
vn -1.989075E-07 8.367731E-08 -1
vn 1.820223E-09 3.303147E-07 -1
vn 1.82037E-09 3.303148E-07 -1
vn 1.819813E-09 3.303144E-07 -1
vn 1.820545E-09 3.303148E-07 -1
vn 1.820619E-09 3.303149E-07 -1
vn 1.820023E-09 3.303146E-07 -0.9999999
vn 1.817959E-09 3.303137E-07 -1
vn 1.822865E-09 3.303158E-07 -0.9999999
vn -2.301671E-07 2.357167E-07 -1
vn -2.812978E-07 1.183376E-07 -1
vn -2.322807E-07 2.348543E-07 -1
vn -2.322806E-07 2.348549E-07 -1
vn -2.322806E-07 2.348556E-07 -1
vn -2.322806E-07 2.348552E-07 -1
vn -2.322807E-07 2.348551E-07 -1
vn -2.322807E-07 2.34855E-07 -1
vn -2.322809E-07 2.348544E-07 -1
vn -3.204997E-07 2.515134E-08 -1
vn -3.303149E-07 1.820352E-09 -1
vn -3.303149E-07 1.820169E-09 -1
vn -3.303143E-07 1.820694E-09 -1
vn -3.303157E-07 1.819542E-09 -1
vn -3.30315E-07 1.820075E-09 -1
vn -3.303147E-07 1.820361E-09 -1
vn -2.586599E-07 -1.225712E-08 -1
vn -2.348549E-07 -2.322809E-07 -1
vn -2.348549E-07 -2.322811E-07 -1
vn -2.348549E-07 -2.322815E-07 -1
vn -2.348549E-07 -2.322741E-07 -1
vn -2.34855E-07 -2.322822E-07 -1
vn -2.348549E-07 -2.322816E-07 -1
vn -2.348548E-07 -2.322801E-07 -1
vn -2.348547E-07 -2.322789E-07 -0.9999999
vn -1.989075E-07 8.367731E-08 -1
vn -1.989075E-07 8.367731E-08 -1
vn -1.989075E-07 8.367731E-08 -0.9999999

f 1//1 2//2 3//3
f 4//4 1//1 3//3
f 3//3 5//5 4//4
f 3//3 6//6 5//5
f 5//5 6//6 7//7
f 8//8 7//7 6//6
f 9//9 8//8 6//6
f 10//10 9//9 6//6
f 9//9 10//10 11//11
f 11//11 10//10 12//12
f 13//13 11//11 12//12
f 13//13 12//12 14//14
f 13//13 14//14 15//15
f 15//15 14//14 16//16
f 15//15 16//16 17//17
f 18//18 17//17 16//16
f 19//19 17//17 18//18
f 19//19 18//18 20//20
f 21//21 19//19 20//20
f 22//22 19//19 21//21
f 22//22 21//21 23//23
f 24//24 22//22 23//23
f 24//24 23//23 25//25
f 26//26 24//24 25//25
f 26//26 25//25 27//27
f 28//28 26//26 27//27
f 28//28 27//27 29//29
f 29//29 27//27 30//30
f 31//31 29//29 30//30
f 31//31 30//30 32//32
f 33//33 31//31 32//32
f 33//33 32//32 34//34
f 35//35 33//33 34//34
f 35//35 34//34 36//36
f 37//37 35//35 36//36
f 37//37 36//36 38//38
f 39//39 37//37 38//38
f 39//39 38//38 40//40
f 41//41 39//39 40//40
f 41//41 40//40 42//42
f 41//41 42//42 43//43
f 43//43 42//42 44//44
f 45//45 43//43 44//44
f 45//45 44//44 46//46
f 47//47 45//45 46//46
f 48//48 45//45 47//47
f 48//48 47//47 49//49
f 50//50 48//48 49//49
f 50//50 49//49 51//51
f 52//52 50//50 51//51
f 52//52 51//51 53//53
f 54//54 52//52 53//53
f 55//55 54//54 53//53
f 55//55 53//53 56//56
f 55//55 56//56 57//57
f 57//57 56//56 58//58
f 57//57 58//58 59//59
f 59//59 58//58 60//60
f 59//59 60//60 61//61
f 61//61 60//60 62//62
f 61//61 62//62 63//63
f 63//63 62//62 64//64
f 63//63 64//64 65//65
f 65//65 64//64 66//66
f 65//65 66//66 67//67
f 68//68 67//67 66//66
f 69//69 67//67 68//68
f 69//69 68//68 70//70
f 71//71 69//69 70//70
f 72//72 71//71 73//73
f 74//74 75//75 76//76
f 77//77 74//74 76//76
f 75//75 77//77 76//76
f 78//78 75//75 74//74
f 79//79 75//75 78//78
f 78//78 74//74 80//80
f 81//81 78//78 80//80
f 82//82 78//78 81//81
f 82//82 83//83 78//78
f 83//83 84//84 79//79
f 84//84 85//85 79//79
f 80//80 74//74 86//86
f 87//87 80//80 86//86
f 81//81 80//80 87//87
f 86//86 74//74 88//88
f 88//88 74//74 77//77
f 86//86 88//88 89//89
f 90//90 86//86 89//89
f 87//87 86//86 90//90
f 75//75 91//91 77//77
f 90//90 89//89 92//92
f 90//90 92//92 93//93
f 94//94 90//90 93//93
f 95//95 83//83 82//82
f 95//95 82//82 81//81
f 95//95 81//81 87//87
f 95//95 87//87 90//90
f 95//95 96//96 83//83
f 97//97 91//91 75//75
f 97//97 98//98 91//91
f 97//97 99//99 98//98
f 100//100 95//95 101//101
f 102//102 103//103 104//104
f 102//102 104//104 105//105
f 102//102 105//105 106//106
f 106//106 105//105 107//107
f 108//108 102//102 106//106
f 109//109 102//102 108//108
f 110//110 108//108 106//106
f 111//111 112//112 113//113
f 111//111 113//113 114//114
f 111//111 114//114 115//115
f 111//111 115//115 116//116
f 111//111 116//116 117//117
f 117//117 118//118 111//111
f 118//118 119//119 111//111
f 120//120 111//111 119//119
f 120//120 121//121 111//111
f 121//121 122//122 111//111
f 111//111 122//122 123//123
f 114//114 113//113 124//124
f 124//124 113//113 125//125
f 125//125 113//113 126//126
f 126//126 113//113 127//127
f 127//127 113//113 128//128
f 128//128 113//113 129//129
f 129//129 113//113 130//130
f 130//130 113//113 131//131
f 131//131 113//113 132//132
f 132//132 113//113 133//133
f 133//133 113//113 134//134
f 133//133 134//134 135//135
f 135//135 134//134 136//136
f 134//134 137//137 136//136
f 137//137 134//134 138//138
f 138//138 134//134 139//139
f 139//139 134//134 140//140
f 140//140 134//134 141//141
f 134//134 142//142 141//141
f 134//134 143//143 142//142
f 134//134 144//144 143//143
f 144//144 134//134 145//145
f 145//145 134//134 146//146
f 147//147 134//134 148//148
f 149//149 150//150 151//151
f 149//149 152//152 150//150
f 151//151 150//150 153//153
f 151//151 153//153 154//154
f 154//154 153//153 155//155
f 154//154 155//155 156//156
f 152//152 157//157 150//150
f 158//158 159//159 160//160
f 161//161 159//159 158//158
f 162//162 159//159 161//161
f 163//163 162//162 161//161
f 164//164 162//162 163//163
f 165//165 162//162 164//164
f 9//9 166//166 8//8
f 166//166 9//9 167//167
f 168//168 169//169 170//170
f 168//168 171//171 169//169
f 172//172 169//169 173//173
f 174//174 169//169 172//172
f 169//169 174//174 175//175
f 176//176 169//169 175//175
f 177//177 169//169 176//176
f 178//178 169//169 177//177
f 178//178 179//179 169//169
f 179//179 180//180 169//169
f 180//180 181//181 169//169
f 182//182 181//181 180//180
f 182//182 183//183 181//181
f 183//183 184//184 181//181
f 184//184 185//185 181//181
f 185//185 186//186 181//181
f 186//186 187//187 181//181
f 187//187 188//188 181//181
f 188//188 189//189 181//181
f 181//181 189//189 190//190
f 181//181 190//190 191//191
f 192//192 181//181 191//191
f 193//193 181//181 192//192
f 194//194 181//181 193//193
f 195//195 181//181 194//194
f 195//195 196//196 181//181
f 196//196 197//197 198//198
f 196//196 198//198 199//199
f 199//199 200//200 196//196
f 196//196 200//200 201//201
f 201//201 202//202 196//196
f 196//196 202//202 203//203
f 196//196 203//203 204//204
f 205//205 196//196 206//206
f 207//207 196//196 205//205
