v 90.00006 -206.421 92.33379
v 49.99998 -206.421 92.33379
v 90.00006 -206.421 92.33379
v 90.00006 -206.421 92.33379
v 90.00006 -204.1278 95.07172
v 90.00006 -203.2105 96.16689
v 90.00006 -203.2105 96.16689
v 49.99998 -203.2105 96.16689
v 9.999905 -203.2105 96.16689
v 90.00006 -202.9752 96.09292
v 9.999905 -201.0924 95.50115
v 90.00006 -202.9459 96.08372
v 9.999905 -200.8292 95.41842
v 90.00006 -202.9377 96.08115
v 9.999905 -200.7553 95.3952
v 90.00006 -202.8454 96.05215
v 9.999905 -199.9248 95.13416
v 90.00006 -201.7077 95.69455
v 9.999905 -199.7984 95.09442
v 90.00006 -200.629 95.3555
v 90.00006 -200.5049 95.3165
v 9.999905 -199.6648 95.05242
v 90.00006 -200.2461 95.23515
v 9.999905 -199.636 95.04338
v 90.00006 -199.5598 95.01941
v 9.999905 -199.5598 95.01941
v 90.00006 -199.3793 95.11356
v 9.999905 -198.566 95.53786
v 9.999905 -197.9355 95.86678
v 90.00006 -199.3345 95.13692
v 9.999905 -197.5325 96.07703
v 90.00006 -199.3212 95.14388
v 9.999905 -197.4126 96.1396
v 90.00006 -199.2205 95.19642
v 9.999905 -196.5062 96.61248
v 90.00006 -198.065 95.79922
v 9.999905 -196.3778 96.67946
v 90.00006 -197.1104 96.29724
v 9.999905 -196.2717 96.73479
v 90.00006 -196.1669 96.78949
v 9.999905 -196.1669 96.78949
v 90.00006 -196.1315 96.90215
v 9.999905 -195.8482 97.80341
v 90.00006 -196.0522 97.15456
v 9.999905 -195.1342 100.0752
v 90.00006 -195.8308 97.85877
v 90.00006 -195.7423 98.1404
v 9.999905 -195.0997 100.1847
v 90.00006 -195.4405 99.10069
v 9.999905 -195.0662 100.2914
v 90.00006 -195.1919 99.89138
v 9.999905 -195.0386 100.3793
v 90.00006 -195.0194 100.4402
v 9.999905 -195.0194 100.4402
v 9.999905 -195.0194 100.4402
v 90.00006 -195.1246 100.6419
v 9.999905 -195.9662 102.2551
v 90.00006 -195.1556 100.7012
v 9.999905 -196.2449 102.7893
v 90.00006 -195.1587 100.7073
v 9.999905 -196.2734 102.8438
v 90.00006 -195.1602 100.7101
v 9.999905 -196.2865 102.8691
v 90.00006 -195.1621 100.7137
v 9.999905 -196.3032 102.901
v 90.00006 -195.1964 100.7795
v 9.999905 -196.6125 103.4938
v 90.00006 -196.7895 103.8331
v 9.999905 -196.7895 103.8331
v 90.00006 -196.7895 103.8331
v 9.999905 -196.7895 103.8331
v 90.00006 -196.7895 103.8331
v 90.00006 -196.7895 103.8331
v 90.00006 -195.8722 104.9283
v 90.00006 -193.579 107.6662
v 90.00006 -193.579 107.6662
v 90.00006 -193.579 107.6662
v 90.00006 -196.7895 103.8331
v 90.00006 -196.7895 103.8331
v 90.00006 -196.7895 103.8331
v 9.999905 -196.7895 103.8331
v 9.999905 -196.7895 103.8331
v 9.999905 -196.7895 103.8331
v 90.00006 -196.7895 103.8331
v 90.00006 -190.0388 100.8805
v 90.00006 -196.7895 103.8331
v 9.999905 -196.7895 103.8331
v 90.00006 -196.7895 103.8331
v 49.99998 -196.7895 103.8331
v 9.999905 -196.7895 103.8331
v 49.99998 -193.579 107.6662
v 9.999943 -196.7895 103.8331
v 9.999905 -196.7895 103.8331
v 9.999905 -195.8722 104.9283
v 9.999912 -190.0388 100.8805
v 9.999905 -196.7895 103.8331
v 90.00006 -190.0388 100.8805
v 9.999905 -193.579 107.6662
v 9.999912 -190.0388 100.8805
v 9.999905 -195.0194 100.4402
v 9.999905 -195.0194 100.4402
v 49.99998 -206.421 92.33379
v 90.00006 -206.421 92.33379
v 90.00006 -206.421 92.33379
v 90.00006 -204.1278 95.07172
v 49.99998 -203.2105 96.16689
v 90.00006 -203.2105 96.16689
v 9.999905 -204.5403 94.57917
v 9.999905 -206.421 92.33379
v 9.999905 -203.2105 96.16689
v 90.00006 -206.421 92.33379
v 90.00006 -199.1195 90.03883
v 90.00006 -192.3338 93.57898
v 90.00006 -199.5598 95.01941
v 90.00006 -200.2461 95.23515
v 90.00006 -200.5049 95.3165
v 90.00006 -200.629 95.3555
v 90.00006 -201.7077 95.69455
v 90.00006 -202.8454 96.05215
v 90.00006 -202.9377 96.08115
v 90.00006 -202.9459 96.08372
v 90.00006 -202.9752 96.09292
v 90.00006 -203.2105 96.16689
v 90.00006 -199.3793 95.11356
v 90.00006 -199.3345 95.13692
v 90.00006 -199.3212 95.14388
v 90.00006 -199.2205 95.19642
v 90.00006 -198.065 95.79922
v 90.00006 -197.1104 96.29724
v 90.00006 -196.1669 96.78949
v 90.00006 -196.1315 96.90215
v 90.00006 -196.0522 97.15456
v 90.00006 -195.8308 97.85877
v 90.00006 -190.0388 100.8805
v 90.00006 -195.7423 98.1404
v 90.00006 -195.4405 99.10069
v 90.00006 -195.1919 99.89138
v 90.00006 -195.0194 100.4402
v 90.00006 -195.1246 100.6419
v 90.00006 -195.1556 100.7012
v 90.00006 -195.1587 100.7073
v 90.00006 -195.1602 100.7101
v 90.00006 -195.1621 100.7137
v 90.00006 -195.1964 100.7795
v 90.00006 -196.7895 103.8331
v 90.00006 -196.7895 103.8331
v 90.00006 -196.7895 103.8331
v 90.00006 -193.579 107.6662
v 90.00006 -206.421 92.33379
v 9.999912 -199.1195 90.03883
v 90.00006 -199.1195 90.03883
v 49.99998 -206.421 92.33379
v 9.999912 -192.3338 93.57898
v 90.00006 -192.3338 93.57898
v 9.999912 -190.0388 100.8805
v 90.00006 -190.0388 100.8805
v 9.999905 -206.421 92.33379
v 90.00006 -193.579 107.6662
v 49.99998 -196.7895 103.8331
v 90.00006 -196.7895 103.8331
v 49.99998 -193.579 107.6662
v 9.999943 -196.7895 103.8331
v 9.999905 -193.579 107.6662
v 9.999905 -195.8722 104.9283
v 9.999905 -196.7895 103.8331
v 9.999905 -203.2105 96.16689
v 9.999912 -199.1195 90.03883
v 9.999905 -204.5403 94.57917
v 9.999912 -199.1195 90.03883
v 9.999905 -206.421 92.33379
v 9.999905 -203.2105 96.16689
v 9.999905 -201.0924 95.50115
v 9.999905 -203.2105 96.16689
v 9.999905 -200.8292 95.41842
v 9.999905 -200.7553 95.3952
v 9.999905 -199.9248 95.13416
v 9.999905 -199.7984 95.09442
v 9.999905 -199.6648 95.05242
v 9.999905 -199.636 95.04338
v 9.999905 -199.5598 95.01941
v 9.999912 -192.3338 93.57898
v 9.999905 -198.566 95.53786
v 9.999905 -197.9355 95.86678
v 9.999905 -197.5325 96.07703
v 9.999905 -197.4126 96.1396
v 9.999905 -196.5062 96.61248
v 9.999905 -196.3778 96.67946
v 9.999905 -196.2717 96.73479
v 9.999905 -196.1669 96.78949
v 9.999905 -195.8482 97.80341
v 9.999905 -195.1342 100.0752
v 9.999905 -195.0997 100.1847
v 9.999905 -195.0662 100.2914
v 9.999905 -195.0386 100.3793
v 9.999905 -195.0194 100.4402
v 9.999912 -190.0388 100.8805
v 9.999905 -195.0194 100.4402
v 9.999905 -195.9662 102.2551
v 9.999905 -196.2449 102.7893
v 9.999905 -196.2734 102.8438
v 9.999905 -196.2865 102.8691
v 9.999905 -196.3032 102.901
v 9.999905 -196.6125 103.4938
v 9.999905 -196.7895 103.8331
v 9.999905 -195.8722 104.9283
v 9.999905 -196.7895 103.8331
v 9.999905 -193.579 107.6662

vn 6.08563E-07 -0.6421009 -0.7666202
vn 4.559753E-07 -0.6421009 -0.7666202
vn 0.6507915 -0.4875194 -0.5820615
vn 1 0 -7.450581E-08
vn 1 0 -7.450581E-08
vn -1.334581E-07 0.2998464 0.9539876
vn 0.1414209 0.6356476 0.7589154
vn -2.060281E-07 -0.5920553 0.8058974
vn -4.112731E-07 0.2998508 0.9539862
vn -3.701516E-07 0.2998516 0.953986
vn -4.088936E-07 0.2998512 0.953986
vn -4.924773E-07 0.2998503 0.9539863
vn -5.509896E-07 0.2998492 0.9539866
vn 4.072609E-08 0.2998548 0.9539849
vn -2.468368E-07 0.2998521 0.9539858
vn -2.949049E-07 0.2998516 0.9539859
vn -2.77756E-07 0.2998518 0.9539859
vn -2.765933E-07 0.2998519 0.9539858
vn -2.905552E-07 0.2998516 0.9539859
vn -3.0975E-07 0.2998519 0.9539859
vn -3.039632E-07 0.2998508 0.9539862
vn -3.4665E-07 0.2998493 0.9539866
vn -2.361602E-07 0.2998514 0.9539859
vn -2.499764E-07 0.2998522 0.9539858
vn -2.47721E-07 0.152529 0.9882991
vn -2.400963E-07 -0.4258949 0.9047727
vn -2.923665E-07 -0.4625453 0.8865958
vn -2.528783E-07 -0.4625446 0.8865961
vn -2.331794E-07 -0.4625443 0.8865963
vn -7.985656E-08 -0.4625425 0.8865973
vn 4.599109E-09 -0.4625413 0.8865978
vn 2.208407E-07 -0.4625398 0.8865986
vn -4.57667E-08 -0.4625423 0.8865973
vn -2.240001E-07 -0.4625433 0.8865967
vn -2.831033E-07 -0.4625439 0.8865966
vn -3.418398E-07 -0.4625439 0.8865964
vn -2.432639E-07 -0.4625429 0.8865969
vn -2.639208E-07 -0.4625435 0.8865967
vn -3.047512E-07 -0.4625446 0.8865961
vn -3.089466E-07 -0.5198956 0.85423
vn -9.60704E-08 -0.9321241 0.3621397
vn -5.0178E-08 -0.9539857 0.2998526
vn -7.762317E-08 -0.953986 0.2998515
vn -1.183113E-07 -0.9539863 0.2998509
vn -8.983484E-08 -0.9539862 0.2998509
vn -7.208071E-08 -0.953986 0.2998513
vn 5.409353E-08 -0.9539859 0.2998518
vn -1.537197E-08 -0.9539861 0.2998514
vn 7.085722E-09 -0.953986 0.2998517
vn 1.460321E-08 -0.953986 0.2998514
vn 2.154087E-08 -0.9539861 0.2998514
vn 3.02256E-08 -0.9539859 0.2998518
vn 1.072013E-07 -0.9943691 0.1059738
vn 3.226003E-08 -0.953979 0.299874
vn 2.191894E-07 -0.886597 -0.4625429
vn 1.741588E-07 -0.8865963 -0.462544
vn 1.372946E-07 -0.8865963 -0.4625444
vn 2.934961E-08 -0.8865956 -0.4625455
vn 2.305421E-07 -0.8865966 -0.4625437
vn 5.189312E-07 -0.8865975 -0.4625423
vn 7.979148E-07 -0.8865986 -0.4625398
vn 6.413797E-06 -0.8866195 -0.4624997
vn 2.831057E-06 -0.8866065 -0.4625249
vn -5.222988E-07 -0.8865933 -0.4625501
vn -1.33025E-07 -0.8865952 -0.4625465
vn 2.04584E-07 -0.8865964 -0.4625439
vn 2.301849E-07 -0.8865967 -0.4625433
vn 2.299656E-07 -0.8865969 -0.4625431
vn 1.59985E-07 -0.8865992 -0.4625387
vn 1.561402E-07 -0.9515522 -0.3074878
vn 2.652405E-07 -0.6421009 -0.7666202
vn 2.652405E-07 -0.6421009 -0.7666202
vn 2.652405E-07 -0.6421009 -0.7666202
vn 1 0 -7.450581E-08
vn -3.624486E-07 0.8865966 0.4625437
vn 1 0 -7.450581E-08
vn -1.77457E-07 -0.676671 0.7362857
vn 0.7603925 -0.4170213 -0.4978921
vn 0.8262196 -0.3617265 -0.4318743
vn 0.07104928 -0.6404783 -0.7646828
vn 2.652408E-07 -0.6421009 -0.7666202
vn 2.652405E-07 -0.6421009 -0.7666202
vn 2.652401E-07 -0.6421009 -0.7666202
vn 0.1030029 -0.6386856 -0.7625426
vn 1 0 -7.450581E-08
vn 0.01266344 -0.6420538 -0.7665551
vn 2.652415E-07 -0.6421009 -0.7666202
vn 0.1414216 -0.6356475 -0.7589152
vn 2.652416E-07 -0.6420959 -0.7666245
vn -0.06004154 -0.6409377 -0.7652411
vn -2.921237E-07 0.8865966 0.4625436
vn 2.652434E-07 -0.6420828 -0.7666354
vn -1 -4.45795E-06 -5.247951E-06
vn -1 0 7.450581E-08
vn -1 3.308606E-07 -2.026144E-07
vn 0 0 0
vn -2.819329E-07 0.8865967 0.4625436
vn -2.466375E-07 0.8865966 0.4625437
vn -2.717421E-07 0.8865967 0.4625437
vn -1 3.308606E-07 -2.026144E-07
vn -1 3.308606E-07 -2.026144E-07
vn -1.192093E-07 -0.7666203 0.6421009
vn -1.192092E-07 -0.7666202 0.6421009
vn -1.192093E-07 -0.7666203 0.6421009
vn -1.192093E-07 -0.7666203 0.6421009
vn -1.192093E-07 -0.7666203 0.6421009
vn -1.192093E-07 -0.7666203 0.6421009
vn -1.192093E-07 -0.7666203 0.6421009
vn -1.192093E-07 -0.7666203 0.6421009
vn -1.192093E-07 -0.7666203 0.6421009
vn 1 0 -7.450581E-08
vn 1 0 -7.450581E-08
vn 1 0 -7.450581E-08
vn 1 0 -7.450581E-08
vn 1 0 -7.450581E-08
vn 1 0 -7.450581E-08
vn 1 0 -7.450581E-08
vn 1 0 -7.450581E-08
vn 1 0 -7.450581E-08
vn 1 0 -7.450581E-08
vn 1 0 -7.450581E-08
vn 1 0 -7.450581E-08
vn 1 0 -7.450581E-08
vn 1 0 -7.45058E-08
vn 1 0 -7.450581E-08
vn 1 0 -7.450581E-08
vn 1 0 -7.45058E-08
vn 1 0 -7.450581E-08
vn 1 0 -7.450581E-08
vn 1 0 -7.450581E-08
vn 1 0 -7.45058E-08
vn 1 0 -7.450581E-08
vn 1 0 -7.450581E-08
vn 1 0 -7.450581E-08
vn 1 0 -7.450581E-08
vn 1 0 -7.450581E-08
vn 1 0 -7.450581E-08
vn 1 0 -7.450581E-08
vn 1 0 -7.450581E-08
vn 1 0 -7.450581E-08
vn 1 0 -7.450581E-08
vn 1 0 -7.45058E-08
vn 1 0 -7.450581E-08
vn 1 0 -7.45058E-08
vn 1 0 -7.45058E-08
vn 1 0 -7.450581E-08
vn 1 0 -7.45058E-08
vn 1 0 -7.45058E-08
vn 4.116234E-07 -0.2998512 -0.9539861
vn 3.686361E-07 -0.04902148 -0.9987978
vn 3.069228E-07 0.2234636 -0.9747124
vn 3.925724E-07 -0.2998511 -0.953986
vn 1.633023E-07 0.6715934 -0.7409201
vn 6.339306E-08 0.8472383 -0.5312133
vn -2.126672E-08 0.953986 -0.2998512
vn -2.851212E-08 0.9539861 -0.2998513
vn 3.259129E-07 -0.2998513 -0.953986
vn -1.192093E-07 -0.7666203 0.6421009
vn -1.192093E-07 -0.7666203 0.6421009
vn -1.192093E-07 -0.7666203 0.6421009
vn -1.192093E-07 -0.7666203 0.6421009
vn -1.192093E-07 -0.7666203 0.6421009
vn -1.192093E-07 -0.7666203 0.6421009
vn -1.283792E-07 -0.7666203 0.6421009
vn -1.283792E-07 -0.7666202 0.6421009
vn -0.2028033 0.6287578 0.7506894
vn -1 -4.730735E-07 -4.903084E-07
vn -1 1.654303E-07 -6.405426E-08
vn -1 1.074777E-07 -1.610864E-07
vn -1 1.654303E-07 -6.405426E-08
vn -1 1.654303E-07 -6.405426E-08
vn -1 -9.904664E-08 -2.406146E-07
vn -1 -9.90468E-08 -2.406146E-07
vn -1 -9.904614E-08 -2.406144E-07
vn -1 -9.904699E-08 -2.406146E-07
vn -1 -9.904706E-08 -2.406146E-07
vn -1 -9.904642E-08 -2.406146E-07
vn -1 -9.904417E-08 -2.406143E-07
vn -1 -9.904948E-08 -2.406148E-07
vn -1 1.505136E-07 -2.185555E-07
vn -1 2.339539E-07 -1.214478E-07
vn -1 1.527874E-07 -2.18354E-07
vn -1 1.527872E-07 -2.183545E-07
vn -1 1.527869E-07 -2.183552E-07
vn -1 1.527871E-07 -2.183548E-07
vn -1 1.527871E-07 -2.183548E-07
vn -1 1.527872E-07 -2.183547E-07
vn -1 1.527876E-07 -2.183542E-07
vn -1 2.988679E-07 -4.394522E-08
vn -1 3.151205E-07 -2.454101E-08
vn -1 3.151206E-07 -2.454086E-08
vn -1 3.151199E-07 -2.454117E-08
vn -1 3.151216E-07 -2.45405E-08
vn -1 3.151207E-07 -2.454079E-08
vn -1 3.151204E-07 -2.454098E-08
vn -1 2.507924E-07 1.002055E-08
vn -1 2.928604E-07 2.272932E-07
vn -1 2.928605E-07 2.272934E-07
vn -1 2.928606E-07 2.272937E-07
vn -1 2.928584E-07 2.272867E-07
vn -1 2.928609E-07 2.272944E-07
vn -1 2.928607E-07 2.272939E-07
vn -1 2.928602E-07 2.272925E-07
vn -1 2.928597E-07 2.272914E-07
vn -1 1.654303E-07 -6.405426E-08
vn -1 1.654303E-07 -6.405426E-08
vn -1 1.654303E-07 -6.405427E-08

f 1//1 2//2 3//3
f 4//4 1//1 3//3
f 3//3 5//5 4//4
f 3//3 6//6 5//5
f 5//5 6//6 7//7
f 8//8 7//7 6//6
f 9//9 8//8 6//6
f 10//10 9//9 6//6
f 9//9 10//10 11//11
f 11//11 10//10 12//12
f 13//13 11//11 12//12
f 13//13 12//12 14//14
f 13//13 14//14 15//15
f 15//15 14//14 16//16
f 15//15 16//16 17//17
f 18//18 17//17 16//16
f 19//19 17//17 18//18
f 19//19 18//18 20//20
f 21//21 19//19 20//20
f 22//22 19//19 21//21
f 22//22 21//21 23//23
f 24//24 22//22 23//23
f 24//24 23//23 25//25
f 26//26 24//24 25//25
f 26//26 25//25 27//27
f 28//28 26//26 27//27
f 28//28 27//27 29//29
f 29//29 27//27 30//30
f 31//31 29//29 30//30
f 31//31 30//30 32//32
f 33//33 31//31 32//32
f 33//33 32//32 34//34
f 35//35 33//33 34//34
f 35//35 34//34 36//36
f 37//37 35//35 36//36
f 37//37 36//36 38//38
f 39//39 37//37 38//38
f 39//39 38//38 40//40
f 41//41 39//39 40//40
f 41//41 40//40 42//42
f 41//41 42//42 43//43
f 43//43 42//42 44//44
f 45//45 43//43 44//44
f 45//45 44//44 46//46
f 47//47 45//45 46//46
f 48//48 45//45 47//47
f 48//48 47//47 49//49
f 50//50 48//48 49//49
f 50//50 49//49 51//51
f 52//52 50//50 51//51
f 52//52 51//51 53//53
f 54//54 52//52 53//53
f 55//55 54//54 53//53
f 55//55 53//53 56//56
f 55//55 56//56 57//57
f 57//57 56//56 58//58
f 57//57 58//58 59//59
f 59//59 58//58 60//60
f 59//59 60//60 61//61
f 61//61 60//60 62//62
f 61//61 62//62 63//63
f 63//63 62//62 64//64
f 63//63 64//64 65//65
f 65//65 64//64 66//66
f 65//65 66//66 67//67
f 68//68 67//67 66//66
f 69//69 67//67 68//68
f 69//69 68//68 70//70
f 71//71 69//69 70//70
f 72//72 71//71 73//73
f 74//74 75//75 76//76
f 77//77 74//74 76//76
f 75//75 77//77 76//76
f 78//78 75//75 74//74
f 79//79 75//75 78//78
f 78//78 74//74 80//80
f 81//81 78//78 80//80
f 82//82 78//78 81//81
f 82//82 83//83 78//78
f 83//83 84//84 79//79
f 84//84 85//85 79//79
f 80//80 74//74 86//86
f 87//87 80//80 86//86
f 81//81 80//80 87//87
f 86//86 74//74 88//88
f 88//88 74//74 77//77
f 86//86 88//88 89//89
f 90//90 86//86 89//89
f 87//87 86//86 90//90
f 75//75 91//91 77//77
f 90//90 89//89 92//92
f 90//90 92//92 93//93
f 94//94 90//90 93//93
f 95//95 83//83 82//82
f 95//95 82//82 81//81
f 95//95 81//81 87//87
f 95//95 87//87 90//90
f 95//95 96//96 83//83
f 97//97 91//91 75//75
f 97//97 98//98 91//91
f 97//97 99//99 98//98
f 100//100 95//95 101//101
f 102//102 103//103 104//104
f 102//102 104//104 105//105
f 102//102 105//105 106//106
f 106//106 105//105 107//107
f 108//108 102//102 106//106
f 109//109 102//102 108//108
f 110//110 108//108 106//106
f 111//111 112//112 113//113
f 111//111 113//113 114//114
f 111//111 114//114 115//115
f 111//111 115//115 116//116
f 111//111 116//116 117//117
f 117//117 118//118 111//111
f 118//118 119//119 111//111
f 120//120 111//111 119//119
f 120//120 121//121 111//111
f 121//121 122//122 111//111
f 111//111 122//122 123//123
f 114//114 113//113 124//124
f 124//124 113//113 125//125
f 125//125 113//113 126//126
f 126//126 113//113 127//127
f 127//127 113//113 128//128
f 128//128 113//113 129//129
f 129//129 113//113 130//130
f 130//130 113//113 131//131
f 131//131 113//113 132//132
f 132//132 113//113 133//133
f 133//133 113//113 134//134
f 133//133 134//134 135//135
f 135//135 134//134 136//136
f 134//134 137//137 136//136
f 137//137 134//134 138//138
f 138//138 134//134 139//139
f 139//139 134//134 140//140
f 140//140 134//134 141//141
f 134//134 142//142 141//141
f 134//134 143//143 142//142
f 134//134 144//144 143//143
f 144//144 134//134 145//145
f 145//145 134//134 146//146
f 147//147 134//134 148//148
f 149//149 150//150 151//151
f 149//149 152//152 150//150
f 151//151 150//150 153//153
f 151//151 153//153 154//154
f 154//154 153//153 155//155
f 154//154 155//155 156//156
f 152//152 157//157 150//150
f 158//158 159//159 160//160
f 161//161 159//159 158//158
f 162//162 159//159 161//161
f 163//163 162//162 161//161
f 164//164 162//162 163//163
f 165//165 162//162 164//164
f 9//9 166//166 8//8
f 166//166 9//9 167//167
f 168//168 169//169 170//170
f 168//168 171//171 169//169
f 172//172 169//169 173//173
f 174//174 169//169 172//172
f 169//169 174//174 175//175
f 176//176 169//169 175//175
f 177//177 169//169 176//176
f 178//178 169//169 177//177
f 178//178 179//179 169//169
f 179//179 180//180 169//169
f 180//180 181//181 169//169
f 182//182 181//181 180//180
f 182//182 183//183 181//181
f 183//183 184//184 181//181
f 184//184 185//185 181//181
f 185//185 186//186 181//181
f 186//186 187//187 181//181
f 187//187 188//188 181//181
f 188//188 189//189 181//181
f 181//181 189//189 190//190
f 181//181 190//190 191//191
f 192//192 181//181 191//191
f 193//193 181//181 192//192
f 194//194 181//181 193//193
f 195//195 181//181 194//194
f 195//195 196//196 181//181
f 196//196 197//197 198//198
f 196//196 198//198 199//199
f 199//199 200//200 196//196
f 196//196 200//200 201//201
f 201//201 202//202 196//196
f 196//196 202//202 203//203
f 196//196 203//203 204//204
f 205//205 196//196 206//206
f 207//207 196//196 205//205
