v 9.999985 194.0657 8.048877
v 50.00002 194.0657 8.048883
v 9.999985 194.0657 8.048877
v 9.999985 194.0657 8.048876
v 9.999985 196.1851 5.174277
v 9.999985 197.0329 4.024436
v 9.999985 197.0329 4.024436
v 50.00002 197.0329 4.024444
v 90.00006 197.0329 4.024448
v 9.999985 197.2723 4.083702
v 90.00006 199.1881 4.557836
v 9.999985 197.3021 4.091067
v 90.00006 199.4559 4.624116
v 9.999985 197.3104 4.093134
v 90.00006 199.5311 4.642725
v 9.999985 197.4043 4.116373
v 90.00006 200.3761 4.851865
v 9.999985 198.562 4.402876
v 90.00006 200.5048 4.883699
v 9.999985 199.6596 4.674518
v 9.999985 199.7859 4.705768
v 90.00006 200.6408 4.917353
v 9.999985 200.0492 4.770947
v 90.00006 200.67 4.924594
v 9.999985 200.7476 4.943791
v 90.00006 200.7476 4.943801
v 9.999985 200.9219 4.83865
v 90.00006 201.7074 4.364851
v 90.00006 202.3163 3.997539
v 9.999985 200.9652 4.812562
v 90.00006 202.7055 3.762759
v 9.999985 200.978 4.804799
v 90.00006 202.8213 3.692888
v 9.999985 201.0753 4.746125
v 90.00006 203.6968 3.16481
v 9.999985 202.1912 4.072963
v 90.00006 203.8208 3.090015
v 9.999985 203.1132 3.516827
v 90.00006 203.9232 3.028222
v 9.999985 204.0244 2.967133
v 90.00006 204.0244 2.967144
v 9.999985 204.0528 2.8525
v 90.00006 204.2798 1.935447
v 9.999985 204.1164 2.595657
v 90.00006 204.8519 -0.3761434
v 9.999985 204.2937 1.879105
v 9.999985 204.3646 1.592543
v 90.00006 204.8794 -0.4876012
v 9.999985 204.6065 0.6154148
v 90.00006 204.9063 -0.5961688
v 9.999985 204.8056 -0.1891446
v 90.00006 204.9284 -0.6855667
v 9.999985 204.9438 -0.7476294
v 90.00006 204.9438 -0.747618
v 90.00006 204.9438 -0.7476196
v 9.999985 204.8263 -0.9423807
v 90.00006 203.8865 -2.500382
v 9.999985 204.7917 -0.999704
v 90.00006 203.5753 -3.016286
v 9.999985 204.7882 -1.005556
v 90.00006 203.5435 -3.068953
v 9.999985 204.7866 -1.00827
v 90.00006 203.5288 -3.093376
v 9.999985 204.7845 -1.0117
v 90.00006 203.5101 -3.124243
v 9.999985 204.7461 -1.075311
v 90.00006 203.1648 -3.696751
v 9.999985 202.9671 -4.02444
v 90.00006 202.9671 -4.024433
v 9.999985 202.9671 -4.024443
v 90.00006 202.9671 -4.024434
v 9.999985 202.9671 -4.024443
v 9.999985 202.9671 -4.024443
v 9.999985 203.8149 -5.174284
v 9.999985 205.9343 -8.048883
v 9.999985 205.9343 -8.048883
v 9.999985 205.9343 -8.048882
v 9.999985 202.9671 -4.024443
v 9.999985 202.9671 -4.024443
v 9.999985 202.9671 -4.024443
v 90.00006 202.9671 -4.024434
v 90.00006 202.9671 -4.024434
v 90.00006 202.9671 -4.024434
v 9.999985 202.9671 -4.024443
v 9.999985 209.8876 -1.495256
v 9.999985 202.9671 -4.024443
v 90.00006 202.9671 -4.024434
v 9.999985 202.9671 -4.024443
v 50.00002 202.9671 -4.024438
v 90.00006 202.9671 -4.024434
v 50.00003 205.9343 -8.048877
v 90.00002 202.9671 -4.024434
v 90.00006 202.9671 -4.024434
v 90.00006 203.8149 -5.174272
v 90.00005 209.8876 -1.495245
v 90.00006 202.9671 -4.024433
v 9.999985 209.8876 -1.495256
v 90.00006 205.9343 -8.048872
v 90.00005 209.8876 -1.495245
v 90.00006 204.9438 -0.7476196
v 90.00006 204.9438 -0.747618
v 50.00002 194.0657 8.048883
v 9.999985 194.0657 8.048877
v 9.999985 194.0657 8.048876
v 9.999985 196.1851 5.174277
v 50.00002 197.0329 4.024444
v 9.999985 197.0329 4.024436
v 90.00006 195.8038 5.691427
v 90.00006 194.0657 8.048889
v 90.00006 197.0329 4.024448
v 9.999985 194.0657 8.048877
v 9.999985 201.4953 9.887581
v 9.999985 208.0489 5.93427
v 9.999985 200.7476 4.943791
v 9.999985 200.0492 4.770947
v 9.999985 199.7859 4.705768
v 9.999985 199.6596 4.674518
v 9.999985 198.562 4.402876
v 9.999985 197.4043 4.116373
v 9.999985 197.3104 4.093134
v 9.999985 197.3021 4.091067
v 9.999985 197.2723 4.083702
v 9.999985 197.0329 4.024436
v 9.999985 200.9219 4.83865
v 9.999985 200.9652 4.812562
v 9.999985 200.978 4.804799
v 9.999985 201.0753 4.746125
v 9.999985 202.1912 4.072963
v 9.999985 203.1132 3.516827
v 9.999985 204.0244 2.967133
v 9.999985 204.0528 2.8525
v 9.999985 204.1164 2.595657
v 9.999985 204.2937 1.879105
v 9.999985 209.8876 -1.495256
v 9.999985 204.3646 1.592543
v 9.999985 204.6065 0.6154148
v 9.999985 204.8056 -0.1891446
v 9.999985 204.9438 -0.7476294
v 9.999985 204.8263 -0.9423807
v 9.999985 204.7917 -0.999704
v 9.999985 204.7882 -1.005556
v 9.999985 204.7866 -1.00827
v 9.999985 204.7845 -1.0117
v 9.999985 204.7461 -1.075311
v 9.999985 202.9671 -4.02444
v 9.999985 202.9671 -4.024443
v 9.999985 202.9671 -4.024443
v 9.999985 205.9343 -8.048883
v 9.999985 194.0657 8.048877
v 90.00005 201.4953 9.887593
v 9.999985 201.4953 9.887581
v 50.00002 194.0657 8.048883
v 90.00005 208.0489 5.934281
v 9.999985 208.0489 5.93427
v 90.00005 209.8876 -1.495245
v 9.999985 209.8876 -1.495256
v 90.00006 194.0657 8.048889
v 9.999985 205.9343 -8.048882
v 50.00002 202.9671 -4.024438
v 9.999985 202.9671 -4.024443
v 50.00003 205.9343 -8.048877
v 90.00002 202.9671 -4.024434
v 90.00006 205.9343 -8.048872
v 90.00006 203.8149 -5.174272
v 90.00006 202.9671 -4.024434
v 90.00006 197.0329 4.024448
v 90.00005 201.4953 9.887593
v 90.00006 195.8038 5.691427
v 90.00005 201.4953 9.887593
v 90.00006 194.0657 8.048889
v 90.00006 197.0329 4.024448
v 90.00006 199.1881 4.557836
v 90.00006 197.0329 4.024448
v 90.00006 199.4559 4.624116
v 90.00006 199.5311 4.642725
v 90.00006 200.3761 4.851865
v 90.00006 200.5048 4.883699
v 90.00006 200.6408 4.917353
v 90.00006 200.67 4.924594
v 90.00006 200.7476 4.943801
v 90.00005 208.0489 5.934281
v 90.00006 201.7074 4.364851
v 90.00006 202.3163 3.997539
v 90.00006 202.7055 3.762759
v 90.00006 202.8213 3.692888
v 90.00006 203.6968 3.16481
v 90.00006 203.8208 3.090015
v 90.00006 203.9232 3.028222
v 90.00006 204.0244 2.967144
v 90.00006 204.2798 1.935447
v 90.00006 204.8519 -0.3761434
v 90.00006 204.8794 -0.4876012
v 90.00006 204.9063 -0.5961688
v 90.00006 204.9284 -0.6855667
v 90.00006 204.9438 -0.747618
v 90.00005 209.8876 -1.495245
v 90.00006 204.9438 -0.7476196
v 90.00006 203.8865 -2.500382
v 90.00006 203.5753 -3.016286
v 90.00006 203.5435 -3.068953
v 90.00006 203.5288 -3.093376
v 90.00006 203.5101 -3.124243
v 90.00006 203.1648 -3.696751
v 90.00006 202.9671 -4.024433
v 90.00006 203.8149 -5.174272
v 90.00006 202.9671 -4.024434
v 90.00006 205.9343 -8.048872

vn -6.458159E-07 -0.5934271 0.8048878
vn -4.932281E-07 -0.5934271 0.8048878
vn -0.6507915 -0.4505634 0.6111163
vn -1 2.980232E-08 -6.705523E-08
vn -1 2.980232E-08 -6.705523E-08
vn 1.792802E-07 0.2402332 -0.9707152
vn -0.1414209 0.587463 -0.7967983
vn 2.4383E-07 -0.640794 -0.7677127
vn 4.570952E-07 0.2402377 -0.9707141
vn 4.159736E-07 0.2402385 -0.970714
vn 4.547156E-07 0.2402382 -0.970714
vn 5.382993E-07 0.2402372 -0.9707143
vn 5.968116E-07 0.2402361 -0.9707144
vn 5.095911E-09 0.2402418 -0.9707131
vn 2.926588E-07 0.2402391 -0.9707138
vn 3.407269E-07 0.2402386 -0.9707139
vn 3.235781E-07 0.2402387 -0.970714
vn 3.224153E-07 0.2402388 -0.9707139
vn 3.363772E-07 0.2402385 -0.9707139
vn 3.55572E-07 0.2402389 -0.9707139
vn 3.497852E-07 0.2402377 -0.9707141
vn 3.924721E-07 0.2402362 -0.9707144
vn 2.819823E-07 0.2402383 -0.9707139
vn 2.957984E-07 0.2402392 -0.9707138
vn 2.950215E-07 0.09107479 -0.9958441
vn 2.827923E-07 -0.4810711 -0.8766815
vn 3.341563E-07 -0.5165265 -0.8562713
vn 2.946681E-07 -0.5165257 -0.8562716
vn 2.749692E-07 -0.5165254 -0.8562718
vn 1.216464E-07 -0.5165237 -0.856273
vn 3.719077E-08 -0.5165225 -0.8562735
vn -1.790507E-07 -0.5165211 -0.8562744
vn 8.755655E-08 -0.5165235 -0.856273
vn 2.657899E-07 -0.5165245 -0.8562723
vn 3.248931E-07 -0.5165251 -0.8562721
vn 3.836295E-07 -0.5165251 -0.856272
vn 2.850537E-07 -0.5165241 -0.8562726
vn 3.057106E-07 -0.5165247 -0.8562723
vn 3.46541E-07 -0.5165257 -0.8562716
vn 3.491311E-07 -0.5717637 -0.8204184
vn 1.123424E-07 -0.9527486 -0.3037601
vn 6.345575E-08 -0.9707136 -0.2402395
vn 9.090088E-08 -0.9707139 -0.2402384
vn 1.315889E-07 -0.9707141 -0.2402378
vn 1.031125E-07 -0.970714 -0.2402377
vn 8.53584E-08 -0.9707139 -0.2402381
vn -4.081581E-08 -0.9707138 -0.2402387
vn 2.864967E-08 -0.9707139 -0.2402383
vn 6.191996E-09 -0.9707139 -0.2402386
vn -1.325509E-09 -0.9707139 -0.2402383
vn -8.263164E-09 -0.970714 -0.2402383
vn -1.694788E-08 -0.9707137 -0.2402387
vn -1.032139E-07 -0.9990212 -0.04423318
vn -1.898124E-08 -0.9707082 -0.2402613
vn -2.422017E-07 -0.8562726 0.5165242
vn -1.971712E-07 -0.8562719 0.5165252
vn -1.60307E-07 -0.8562717 0.5165257
vn -5.236205E-08 -0.856271 0.5165266
vn -2.535545E-07 -0.8562722 0.5165249
vn -5.419435E-07 -0.8562731 0.5165236
vn -8.20927E-07 -0.8562744 0.5165212
vn -6.436807E-06 -0.8562977 0.5164825
vn -2.854068E-06 -0.8562831 0.5165068
vn 4.99286E-07 -0.8562684 0.5165312
vn 1.100125E-07 -0.8562706 0.5165277
vn -2.275963E-07 -0.856272 0.5165251
vn -2.531972E-07 -0.8562723 0.5165246
vn -2.529779E-07 -0.8562725 0.5165244
vn -1.829971E-07 -0.8562751 0.5165201
vn -1.718269E-07 -0.930699 0.3657861
vn -3.024934E-07 -0.5934271 0.8048878
vn -3.024934E-07 -0.5934271 0.8048878
vn -3.024934E-07 -0.5934271 0.8048878
vn -1 2.980232E-08 -6.705523E-08
vn 3.854609E-07 0.8562721 -0.516525
vn -1 2.980232E-08 -6.705523E-08
vn 2.11848E-07 -0.7209396 -0.6929979
vn -0.7603925 -0.3854094 0.5227454
vn -0.8262196 -0.3343062 0.4534321
vn -0.07104931 -0.5919274 0.8028536
vn -3.024937E-07 -0.5934271 0.8048878
vn -3.024934E-07 -0.5934271 0.8048878
vn -3.02493E-07 -0.5934271 0.8048878
vn -0.103003 -0.5902707 0.8006066
vn -1 2.980232E-08 -6.705523E-08
vn -0.01266347 -0.5933841 0.8048198
vn -3.024944E-07 -0.5934271 0.8048878
vn -0.1414216 -0.5874628 0.7967982
vn -3.024947E-07 -0.5934218 0.8048917
vn 0.06004149 -0.5923514 0.8034394
vn 3.15136E-07 0.8562721 -0.5165249
vn -3.024969E-07 -0.593408 0.8049018
vn 1 -4.149822E-06 5.655194E-06
vn 1 -2.980232E-08 6.705523E-08
vn 1 3.175739E-07 3.231686E-07
vn 0 0 0
vn 3.049452E-07 0.8562722 -0.5165249
vn 2.696499E-07 0.8562722 -0.5165249
vn 2.947545E-07 0.8562722 -0.516525
vn 1 3.175739E-07 3.231686E-07
vn 1 3.175739E-07 3.231686E-07
vn 1.490116E-07 -0.8048877 -0.5934271
vn 1.490116E-07 -0.8048877 -0.5934271
vn 1.490116E-07 -0.8048877 -0.5934271
vn 1.490116E-07 -0.8048877 -0.5934271
vn 1.490116E-07 -0.8048877 -0.5934271
vn 1.490116E-07 -0.8048877 -0.5934271
vn 1.490116E-07 -0.8048877 -0.5934271
vn 1.490116E-07 -0.8048877 -0.5934271
vn 1.490116E-07 -0.8048877 -0.5934271
vn -1 2.980232E-08 -6.705523E-08
vn -1 2.980232E-08 -6.705523E-08
vn -1 2.980232E-08 -6.705523E-08
vn -1 2.980232E-08 -6.705523E-08
vn -1 2.980232E-08 -6.705523E-08
vn -1 2.980232E-08 -6.705523E-08
vn -1 2.980232E-08 -6.705523E-08
vn -1 2.980232E-08 -6.705523E-08
vn -1 2.980232E-08 -6.705523E-08
vn -1 2.980232E-08 -6.705523E-08
vn -1 2.980232E-08 -6.705523E-08
vn -1 2.980232E-08 -6.705523E-08
vn -1 2.980232E-08 -6.705523E-08
vn -0.9999999 2.980232E-08 -6.705522E-08
vn -1 2.980232E-08 -6.705523E-08
vn -1 2.980232E-08 -6.705523E-08
vn -0.9999999 2.980232E-08 -6.705522E-08
vn -1 2.980232E-08 -6.705523E-08
vn -1 2.980232E-08 -6.705523E-08
vn -1 2.980232E-08 -6.705523E-08
vn -0.9999999 2.980232E-08 -6.705522E-08
vn -1 2.980232E-08 -6.705523E-08
vn -1 2.980232E-08 -6.705523E-08
vn -1 2.980232E-08 -6.705523E-08
vn -1 2.980232E-08 -6.705523E-08
vn -1 2.980232E-08 -6.705523E-08
vn -1 2.980232E-08 -6.705523E-08
vn -1 2.980232E-08 -6.705523E-08
vn -1 2.980232E-08 -6.705523E-08
vn -1 2.980232E-08 -6.705523E-08
vn -1 2.980232E-08 -6.705523E-08
vn -0.9999999 2.980232E-08 -6.705522E-08
vn -1 2.980232E-08 -6.705523E-08
vn -0.9999999 2.980232E-08 -6.705522E-08
vn -0.9999999 2.980232E-08 -6.705522E-08
vn -1 2.980232E-08 -6.705523E-08
vn -0.9999999 2.980232E-08 -6.705522E-08
vn -0.9999999 2.980232E-08 -6.705522E-08
vn -4.574455E-07 -0.2402382 0.9707141
vn -4.163262E-07 0.01288399 0.999917
vn -3.531718E-07 0.2833562 0.9590147
vn -4.383944E-07 -0.2402381 0.9707139
vn -1.979198E-07 0.7161585 0.6979377
vn -8.782009E-08 0.8784888 0.4777629
vn 7.989028E-09 0.9707139 0.2402381
vn 1.523442E-08 0.970714 0.2402382
vn -3.717349E-07 -0.2402382 0.970714
vn 1.490116E-07 -0.8048877 -0.5934271
vn 1.490116E-07 -0.8048877 -0.5934271
vn 1.490116E-07 -0.8048877 -0.5934271
vn 1.490116E-07 -0.8048877 -0.5934271
vn 1.490116E-07 -0.8048877 -0.5934271
vn 1.490116E-07 -0.8048877 -0.5934271
vn 1.581815E-07 -0.8048877 -0.5934271
vn 1.581815E-07 -0.8048877 -0.5934271
vn 0.2028033 0.5810954 -0.7881618
vn 1 -4.67015E-07 6.600634E-07
vn 0.9999999 1.438858E-07 1.951119E-07
vn 1 9.204915E-08 2.955445E-07
vn 1 1.438858E-07 1.951119E-07
vn 1 1.438858E-07 1.951119E-07
vn 1 -1.091576E-07 3.877012E-07
vn 1 -1.091577E-07 3.877012E-07
vn 1 -1.091571E-07 3.877009E-07
vn 1 -1.091579E-07 3.877012E-07
vn 1 -1.09158E-07 3.877012E-07
vn 0.9999999 -1.091574E-07 3.877011E-07
vn 1 -1.091551E-07 3.877007E-07
vn 0.9999999 -1.091604E-07 3.877016E-07
vn 1 1.385591E-07 3.502401E-07
vn 1 2.158298E-07 2.481547E-07
vn 1 1.408161E-07 3.498983E-07
vn 1 1.408159E-07 3.498988E-07
vn 1 1.408157E-07 3.498996E-07
vn 1 1.408158E-07 3.498991E-07
vn 1 1.408159E-07 3.498991E-07
vn 1 1.408159E-07 3.49899E-07
vn 1 1.408163E-07 3.498985E-07
vn 1 2.758231E-07 1.667835E-07
vn 1 2.908437E-07 1.464106E-07
vn 1 2.908438E-07 1.464105E-07
vn 1 2.908431E-07 1.464109E-07
vn 1 2.908448E-07 1.464101E-07
vn 1 2.908439E-07 1.464104E-07
vn 1 2.908436E-07 1.464106E-07
vn 1 2.245001E-07 1.158963E-07
vn 1 2.530413E-07 -1.035632E-07
vn 1 2.530414E-07 -1.035634E-07
vn 1 2.530415E-07 -1.035638E-07
vn 1 2.530397E-07 -1.035567E-07
vn 1 2.530417E-07 -1.035645E-07
vn 1 2.530415E-07 -1.03564E-07
vn 1 2.530411E-07 -1.035625E-07
vn 0.9999999 2.530407E-07 -1.035614E-07
vn 1 1.438858E-07 1.951119E-07
vn 1 1.438858E-07 1.951119E-07
vn 0.9999999 1.438858E-07 1.951119E-07

f 1//1 2//2 3//3
f 4//4 1//1 3//3
f 3//3 5//5 4//4
f 3//3 6//6 5//5
f 5//5 6//6 7//7
f 8//8 7//7 6//6
f 9//9 8//8 6//6
f 10//10 9//9 6//6
f 9//9 10//10 11//11
f 11//11 10//10 12//12
f 13//13 11//11 12//12
f 13//13 12//12 14//14
f 13//13 14//14 15//15
f 15//15 14//14 16//16
f 15//15 16//16 17//17
f 18//18 17//17 16//16
f 19//19 17//17 18//18
f 19//19 18//18 20//20
f 21//21 19//19 20//20
f 22//22 19//19 21//21
f 22//22 21//21 23//23
f 24//24 22//22 23//23
f 24//24 23//23 25//25
f 26//26 24//24 25//25
f 26//26 25//25 27//27
f 28//28 26//26 27//27
f 28//28 27//27 29//29
f 29//29 27//27 30//30
f 31//31 29//29 30//30
f 31//31 30//30 32//32
f 33//33 31//31 32//32
f 33//33 32//32 34//34
f 35//35 33//33 34//34
f 35//35 34//34 36//36
f 37//37 35//35 36//36
f 37//37 36//36 38//38
f 39//39 37//37 38//38
f 39//39 38//38 40//40
f 41//41 39//39 40//40
f 41//41 40//40 42//42
f 41//41 42//42 43//43
f 43//43 42//42 44//44
f 45//45 43//43 44//44
f 45//45 44//44 46//46
f 47//47 45//45 46//46
f 48//48 45//45 47//47
f 48//48 47//47 49//49
f 50//50 48//48 49//49
f 50//50 49//49 51//51
f 52//52 50//50 51//51
f 52//52 51//51 53//53
f 54//54 52//52 53//53
f 55//55 54//54 53//53
f 55//55 53//53 56//56
f 55//55 56//56 57//57
f 57//57 56//56 58//58
f 57//57 58//58 59//59
f 59//59 58//58 60//60
f 59//59 60//60 61//61
f 61//61 60//60 62//62
f 61//61 62//62 63//63
f 63//63 62//62 64//64
f 63//63 64//64 65//65
f 65//65 64//64 66//66
f 65//65 66//66 67//67
f 68//68 67//67 66//66
f 69//69 67//67 68//68
f 69//69 68//68 70//70
f 71//71 69//69 70//70
f 72//72 71//71 73//73
f 74//74 75//75 76//76
f 77//77 74//74 76//76
f 75//75 77//77 76//76
f 78//78 75//75 74//74
f 79//79 75//75 78//78
f 78//78 74//74 80//80
f 81//81 78//78 80//80
f 82//82 78//78 81//81
f 82//82 83//83 78//78
f 83//83 84//84 79//79
f 84//84 85//85 79//79
f 80//80 74//74 86//86
f 87//87 80//80 86//86
f 81//81 80//80 87//87
f 86//86 74//74 88//88
f 88//88 74//74 77//77
f 86//86 88//88 89//89
f 90//90 86//86 89//89
f 87//87 86//86 90//90
f 75//75 91//91 77//77
f 90//90 89//89 92//92
f 90//90 92//92 93//93
f 94//94 90//90 93//93
f 95//95 83//83 82//82
f 95//95 82//82 81//81
f 95//95 81//81 87//87
f 95//95 87//87 90//90
f 95//95 96//96 83//83
f 97//97 91//91 75//75
f 97//97 98//98 91//91
f 97//97 99//99 98//98
f 100//100 95//95 101//101
f 102//102 103//103 104//104
f 102//102 104//104 105//105
f 102//102 105//105 106//106
f 106//106 105//105 107//107
f 108//108 102//102 106//106
f 109//109 102//102 108//108
f 110//110 108//108 106//106
f 111//111 112//112 113//113
f 111//111 113//113 114//114
f 111//111 114//114 115//115
f 111//111 115//115 116//116
f 111//111 116//116 117//117
f 117//117 118//118 111//111
f 118//118 119//119 111//111
f 120//120 111//111 119//119
f 120//120 121//121 111//111
f 121//121 122//122 111//111
f 111//111 122//122 123//123
f 114//114 113//113 124//124
f 124//124 113//113 125//125
f 125//125 113//113 126//126
f 126//126 113//113 127//127
f 127//127 113//113 128//128
f 128//128 113//113 129//129
f 129//129 113//113 130//130
f 130//130 113//113 131//131
f 131//131 113//113 132//132
f 132//132 113//113 133//133
f 133//133 113//113 134//134
f 133//133 134//134 135//135
f 135//135 134//134 136//136
f 134//134 137//137 136//136
f 137//137 134//134 138//138
f 138//138 134//134 139//139
f 139//139 134//134 140//140
f 140//140 134//134 141//141
f 134//134 142//142 141//141
f 134//134 143//143 142//142
f 134//134 144//144 143//143
f 144//144 134//134 145//145
f 145//145 134//134 146//146
f 147//147 134//134 148//148
f 149//149 150//150 151//151
f 149//149 152//152 150//150
f 151//151 150//150 153//153
f 151//151 153//153 154//154
f 154//154 153//153 155//155
f 154//154 155//155 156//156
f 152//152 157//157 150//150
f 158//158 159//159 160//160
f 161//161 159//159 158//158
f 162//162 159//159 161//161
f 163//163 162//162 161//161
f 164//164 162//162 163//163
f 165//165 162//162 164//164
f 9//9 166//166 8//8
f 166//166 9//9 167//167
f 168//168 169//169 170//170
f 168//168 171//171 169//169
f 172//172 169//169 173//173
f 174//174 169//169 172//172
f 169//169 174//174 175//175
f 176//176 169//169 175//175
f 177//177 169//169 176//176
f 178//178 169//169 177//177
f 178//178 179//179 169//169
f 179//179 180//180 169//169
f 180//180 181//181 169//169
f 182//182 181//181 180//180
f 182//182 183//183 181//181
f 183//183 184//184 181//181
f 184//184 185//185 181//181
f 185//185 186//186 181//181
f 186//186 187//187 181//181
f 187//187 188//188 181//181
f 188//188 189//189 181//181
f 181//181 189//189 190//190
f 181//181 190//190 191//191
f 192//192 181//181 191//191
f 193//193 181//181 192//192
f 194//194 181//181 193//193
f 195//195 181//181 194//194
f 195//195 196//196 181//181
f 196//196 197//197 198//198
f 196//196 198//198 199//199
f 199//199 200//200 196//196
f 196//196 200//200 201//201
f 201//201 202//202 196//196
f 196//196 202//202 203//203
f 196//196 203//203 204//204
f 205//205 196//196 206//206
f 207//207 196//196 205//205
