v 96.15263 190.7697 -86.90988
v 96.15262 190.7697 -49.99998
v 96.15263 190.7697 -86.90988
v 96.15263 190.7697 -86.90988
v 97.52669 194.0663 -86.90988
v 98.07631 195.3849 -86.90988
v 98.07631 195.3849 -86.90988
v 98.07631 195.3849 -49.99998
v 98.07631 195.3849 -13.09008
v 97.90226 195.5597 -86.90988
v 96.50985 196.9583 -13.09008
v 97.88063 195.5814 -86.90988
v 96.3152 197.1538 -13.09008
v 97.87456 195.5875 -86.90988
v 96.26055 197.2087 -13.09008
v 97.80632 195.6561 -86.90988
v 95.64635 197.8257 -13.09008
v 96.96491 196.5012 -86.90988
v 95.55286 197.9196 -13.09008
v 96.16715 197.3025 -86.90988
v 96.07538 197.3947 -86.90988
v 95.45402 198.0188 -13.09008
v 95.88396 197.587 -86.90988
v 95.43275 198.0402 -13.09008
v 95.37635 198.0969 -86.90988
v 95.37635 198.0969 -13.09008
v 95.37681 198.3004 -86.90988
v 95.37885 199.2177 -13.09008
v 95.38042 199.9288 -13.09008
v 95.37692 198.3509 -86.90988
v 95.38144 200.3834 -13.09008
v 95.37695 198.366 -86.90988
v 95.38174 200.5186 -13.09008
v 95.3772 198.4795 -86.90988
v 95.38401 201.541 -13.09008
v 95.3801 199.7828 -86.90988
v 95.38433 201.6858 -13.09008
v 95.3825 200.8595 -86.90988
v 95.3846 201.8054 -13.09008
v 95.38487 201.9237 -86.90988
v 95.38486 201.9237 -13.09008
v 95.46856 202.007 -86.90988
v 96.13806 202.6735 -13.09008
v 95.65607 202.1937 -86.90988
v 97.82566 204.3537 -13.09008
v 96.17919 202.7145 -86.90988
v 96.3884 202.9228 -86.90988
v 97.90703 204.4347 -13.09008
v 97.10176 203.633 -86.90988
v 97.98629 204.5136 -13.09008
v 97.68913 204.2177 -86.90988
v 98.05156 204.5785 -13.09008
v 98.09686 204.6236 -86.90988
v 98.09686 204.6236 -13.09008
v 98.09686 204.6236 -13.09008
v 98.3243 204.6231 -86.90988
v 100.1438 204.6191 -13.09008
v 98.39125 204.623 -86.90988
v 100.7463 204.6178 -13.09008
v 98.39808 204.623 -86.90988
v 100.8078 204.6176 -13.09008
v 98.40125 204.623 -86.90988
v 100.8363 204.6176 -13.09008
v 98.40526 204.623 -86.90988
v 100.8724 204.6175 -13.09008
v 98.47955 204.6228 -86.90988
v 101.541 204.616 -13.09008
v 101.9237 204.6151 -86.90988
v 101.9237 204.6151 -13.09008
v 101.9237 204.6151 -86.90988
v 101.9237 204.6151 -13.09008
v 101.9237 204.6151 -86.90988
v 101.9237 204.6151 -86.90988
v 102.4733 205.9337 -86.90988
v 103.8474 209.2303 -86.90988
v 103.8474 209.2303 -86.90988
v 103.8474 209.2303 -86.90988
v 101.9237 204.6151 -86.90988
v 101.9237 204.6151 -86.90988
v 101.9237 204.6151 -86.90988
v 101.9237 204.6151 -13.09008
v 101.9237 204.6151 -13.09008
v 101.9237 204.6151 -13.09008
v 101.9237 204.6151 -86.90988
v 96.19373 209.2473 -86.90988
v 101.9237 204.6151 -86.90988
v 101.9237 204.6151 -13.09008
v 101.9237 204.6151 -86.90988
v 101.9237 204.6151 -49.99998
v 101.9237 204.6151 -13.09008
v 103.8474 209.2303 -49.99998
v 101.9237 204.6151 -13.09012
v 101.9237 204.6151 -13.09008
v 102.4733 205.9337 -13.09008
v 96.19372 209.2473 -13.09009
v 101.9237 204.6151 -13.09008
v 96.19373 209.2473 -86.90988
v 103.8474 209.2303 -13.09008
v 96.19372 209.2473 -13.09009
v 98.09686 204.6236 -13.09008
v 98.09686 204.6236 -13.09008
v 96.15262 190.7697 -49.99998
v 96.15263 190.7697 -86.90988
v 96.15263 190.7697 -86.90988
v 97.52669 194.0663 -86.90988
v 98.07631 195.3849 -49.99998
v 98.07631 195.3849 -86.90988
v 97.27949 193.4732 -13.09008
v 96.15262 190.7697 -13.09008
v 98.07631 195.3849 -13.09008
v 96.15263 190.7697 -86.90988
v 90.75271 196.1937 -86.90988
v 90.76973 203.8474 -86.90988
v 95.37635 198.0969 -86.90988
v 95.88396 197.587 -86.90988
v 96.07538 197.3947 -86.90988
v 96.16715 197.3025 -86.90988
v 96.96491 196.5012 -86.90988
v 97.80632 195.6561 -86.90988
v 97.87456 195.5875 -86.90988
v 97.88063 195.5814 -86.90988
v 97.90226 195.5597 -86.90988
v 98.07631 195.3849 -86.90988
v 95.37681 198.3004 -86.90988
v 95.37692 198.3509 -86.90988
v 95.37695 198.366 -86.90988
v 95.3772 198.4795 -86.90988
v 95.3801 199.7828 -86.90988
v 95.3825 200.8595 -86.90988
v 95.38487 201.9237 -86.90988
v 95.46856 202.007 -86.90988
v 95.65607 202.1937 -86.90988
v 96.17919 202.7145 -86.90988
v 96.19373 209.2473 -86.90988
v 96.3884 202.9228 -86.90988
v 97.10176 203.633 -86.90988
v 97.68913 204.2177 -86.90988
v 98.09686 204.6236 -86.90988
v 98.3243 204.6231 -86.90988
v 98.39125 204.623 -86.90988
v 98.39808 204.623 -86.90988
v 98.40125 204.623 -86.90988
v 98.40526 204.623 -86.90988
v 98.47955 204.6228 -86.90988
v 101.9237 204.6151 -86.90988
v 101.9237 204.6151 -86.90988
v 101.9237 204.6151 -86.90988
v 103.8474 209.2303 -86.90988
v 96.15263 190.7697 -86.90988
v 90.7527 196.1937 -13.09009
v 90.75271 196.1937 -86.90988
v 96.15262 190.7697 -49.99998
v 90.76973 203.8474 -13.09009
v 90.76973 203.8474 -86.90988
v 96.19372 209.2473 -13.09009
v 96.19373 209.2473 -86.90988
v 96.15262 190.7697 -13.09008
v 103.8474 209.2303 -86.90988
v 101.9237 204.6151 -49.99998
v 101.9237 204.6151 -86.90988
v 103.8474 209.2303 -49.99998
v 101.9237 204.6151 -13.09012
v 103.8474 209.2303 -13.09008
v 102.4733 205.9337 -13.09008
v 101.9237 204.6151 -13.09008
v 98.07631 195.3849 -13.09008
v 90.7527 196.1937 -13.09009
v 97.27949 193.4732 -13.09008
v 90.7527 196.1937 -13.09009
v 96.15262 190.7697 -13.09008
v 98.07631 195.3849 -13.09008
v 96.50985 196.9583 -13.09008
v 98.07631 195.3849 -13.09008
v 96.3152 197.1538 -13.09008
v 96.26055 197.2087 -13.09008
v 95.64635 197.8257 -13.09008
v 95.55286 197.9196 -13.09008
v 95.45402 198.0188 -13.09008
v 95.43275 198.0402 -13.09008
v 95.37635 198.0969 -13.09008
v 90.76973 203.8474 -13.09009
v 95.37885 199.2177 -13.09008
v 95.38042 199.9288 -13.09008
v 95.38144 200.3834 -13.09008
v 95.38174 200.5186 -13.09008
v 95.38401 201.541 -13.09008
v 95.38433 201.6858 -13.09008
v 95.3846 201.8054 -13.09008
v 95.38486 201.9237 -13.09008
v 96.13806 202.6735 -13.09008
v 97.82566 204.3537 -13.09008
v 97.90703 204.4347 -13.09008
v 97.98629 204.5136 -13.09008
v 98.05156 204.5785 -13.09008
v 98.09686 204.6236 -13.09008
v 96.19372 209.2473 -13.09009
v 98.09686 204.6236 -13.09008
v 100.1438 204.6191 -13.09008
v 100.7463 204.6178 -13.09008
v 100.8078 204.6176 -13.09008
v 100.8363 204.6176 -13.09008
v 100.8724 204.6175 -13.09008
v 101.541 204.616 -13.09008
v 101.9237 204.6151 -13.09008
v 102.4733 205.9337 -13.09008
v 101.9237 204.6151 -13.09008
v 103.8474 209.2303 -13.09008

vn -0.3847374 -0.9230261 -5.340572E-07
vn -0.3847374 -0.9230261 -3.814694E-07
vn -0.2921144 -0.7008137 -0.6507914
vn 0 0 -1
vn 0 0 -1
vn 0.7086813 0.7055288 6.462383E-08
vn 0.3808707 0.9137493 -0.141421
vn 0.9880162 -0.1543498 1.883212E-07
vn 0.708678 0.705532 3.424388E-07
vn 0.7086775 0.7055327 3.013172E-07
vn 0.7086776 0.7055324 3.400592E-07
vn 0.7086784 0.7055317 4.236429E-07
vn 0.7086791 0.7055309 4.821553E-07
vn 0.708675 0.7055351 -1.095606E-07
vn 0.708677 0.7055331 1.780024E-07
vn 0.7086774 0.7055327 2.260705E-07
vn 0.7086774 0.7055328 2.089216E-07
vn 0.7086772 0.7055328 2.077588E-07
vn 0.7086774 0.7055327 2.217208E-07
vn 0.7086772 0.7055329 2.409156E-07
vn 0.708678 0.7055321 2.351288E-07
vn 0.7086791 0.7055309 2.778157E-07
vn 0.7086775 0.7055325 1.673259E-07
vn 0.708677 0.7055331 1.811419E-07
vn 0.806987 0.5905693 1.839746E-07
vn 0.9992517 0.03867705 2.087927E-07
vn 0.9999976 -0.002226485 2.638546E-07
vn 0.9999975 -0.002225665 2.243663E-07
vn 0.9999976 -0.002225339 2.046674E-07
vn 0.9999976 -0.002223248 5.134435E-08
vn 0.9999976 -0.002221946 -3.311141E-08
vn 0.9999975 -0.002220264 -2.493531E-07
vn 0.9999976 -0.002223093 1.725448E-08
vn 0.9999974 -0.002224275 1.95488E-07
vn 0.9999976 -0.002224853 2.545912E-07
vn 0.9999975 -0.00222494 3.133277E-07
vn 0.9999975 -0.002223794 2.147517E-07
vn 0.9999976 -0.002224454 2.354086E-07
vn 0.9999976 -0.00222566 2.762392E-07
vn 0.9976828 -0.06803856 2.850269E-07
vn 0.7507521 -0.6605843 1.199789E-07
vn 0.7055333 -0.7086768 7.869003E-08
vn 0.7055326 -0.7086775 1.061353E-07
vn 0.7055321 -0.7086781 1.468234E-07
vn 0.7055321 -0.708678 1.18347E-07
vn 0.7055324 -0.7086776 1.005928E-07
vn 0.7055328 -0.7086773 -2.558145E-08
vn 0.7055326 -0.7086776 4.388409E-08
vn 0.7055328 -0.7086774 2.142637E-08
vn 0.7055325 -0.7086776 1.39089E-08
vn 0.7055326 -0.7086776 6.971243E-09
vn 0.7055328 -0.7086773 -1.713521E-09
vn 0.5520415 -0.8338168 -6.56834E-08
vn 0.7055494 -0.7086609 -3.749556E-09
vn -0.002223735 -0.9999976 -1.50355E-07
vn -0.002225023 -0.9999975 -1.053244E-07
vn -0.002225467 -0.9999976 -6.84602E-08
vn -0.002226678 -0.9999975 3.948485E-08
vn -0.002224615 -0.9999976 -1.617077E-07
vn -0.002223006 -0.9999977 -4.500968E-07
vn -0.002220263 -0.9999975 -7.290806E-07
vn -0.002175019 -0.9999977 -6.344964E-06
vn -0.002203396 -0.9999976 -2.762223E-06
vn -0.002231909 -0.9999976 5.911334E-07
vn -0.002227792 -0.9999976 2.018595E-07
vn -0.002224913 -0.9999975 -1.357496E-07
vn -0.002224298 -0.9999975 -1.613505E-07
vn -0.002224028 -0.9999976 -1.611313E-07
vn -0.002219003 -0.9999976 -9.115077E-08
vn 0.1653232 -0.9862396 -9.305477E-08
vn -0.3847374 -0.9230261 -1.907347E-07
vn -0.3847374 -0.9230261 -1.907347E-07
vn -0.3847374 -0.9230261 -1.907347E-07
vn 0 0 -1
vn 0.00222467 0.9999976 2.936142E-07
vn 0 0 -1
vn 0.9651987 -0.2615178 1.677742E-07
vn -0.249873 -0.599472 -0.7603925
vn -0.2167412 -0.5199852 -0.8262196
vn -0.3837651 -0.9206935 -0.07104921
vn -0.3847374 -0.9230261 -1.90735E-07
vn -0.3847374 -0.9230261 -1.907347E-07
vn -0.3847374 -0.9230261 -1.907344E-07
vn -0.382691 -0.9181166 -0.1030029
vn 0 0 -1
vn -0.3847013 -0.9229543 -0.01266336
vn -0.3847374 -0.9230261 -1.907357E-07
vn -0.3808706 -0.9137492 -0.1414215
vn -0.3847435 -0.9230235 -1.907358E-07
vn -0.3840491 -0.9213584 0.06004161
vn 0.002224647 0.9999975 2.232893E-07
vn -0.3847592 -0.923017 -1.907375E-07
vn -2.671138E-06 -6.408345E-06 1
vn 0 0 1
vn -3.983628E-07 1.660463E-07 1
vn 0 0 0
vn 0.002224587 0.9999976 2.130985E-07
vn 0.002224615 0.9999976 1.778031E-07
vn 0.00222461 0.9999977 2.029077E-07
vn -3.983628E-07 1.660463E-07 1
vn -3.983628E-07 1.660463E-07 1
vn 0.9230261 -0.3847375 1.192093E-07
vn 0.923026 -0.3847375 1.192092E-07
vn 0.9230261 -0.3847375 1.192093E-07
vn 0.9230261 -0.3847375 1.192093E-07
vn 0.9230261 -0.3847375 1.192093E-07
vn 0.9230261 -0.3847375 1.192093E-07
vn 0.9230261 -0.3847375 1.192093E-07
vn 0.9230261 -0.3847375 1.192093E-07
vn 0.9230261 -0.3847375 1.192093E-07
vn 0 0 -1
vn 0 0 -1
vn 0 0 -1
vn 0 0 -1
vn 0 0 -1
vn 0 0 -1
vn 0 0 -1
vn 0 0 -1
vn 0 0 -1
vn 0 0 -1
vn 0 0 -1
vn 0 0 -1
vn 0 0 -1
vn 0 0 -1
vn 0 0 -1
vn 0 0 -1
vn 0 0 -1
vn 0 0 -1
vn 0 0 -1
vn 0 0 -1
vn 0 0 -1
vn 0 0 -1
vn 0 0 -1
vn 0 0 -1
vn 0 0 -1
vn 0 0 -1
vn 0 0 -1
vn 0 0 -1
vn 0 0 -1
vn 0 0 -1
vn 0 0 -1
vn 0 0 -1
vn 0 0 -1
vn 0 0 -1
vn 0 0 -1
vn 0 0 -1
vn 0 0 -1
vn 0 0 -1
vn -0.7086778 -0.7055324 -3.42789E-07
vn -0.8639783 -0.503529 -3.092419E-07
vn -0.968098 -0.2505719 -2.619401E-07
vn -0.7086776 -0.7055323 -3.23738E-07
vn -0.9669737 0.2548763 -1.531119E-07
vn -0.8617299 0.5073674 -7.358349E-08
vn -0.7055324 0.7086777 -7.245398E-09
vn -0.7055324 0.7086777 0
vn -0.7086776 -0.7055324 -2.570785E-07
vn 0.9230261 -0.3847375 1.192093E-07
vn 0.9230261 -0.3847375 1.192093E-07
vn 0.9230261 -0.3847375 1.192093E-07
vn 0.9230261 -0.3847375 1.192093E-07
vn 0.9230261 -0.3847375 1.192093E-07
vn 0.9230261 -0.3847375 1.192093E-07
vn 0.9230261 -0.3847375 1.283792E-07
vn 0.923026 -0.3847375 1.283792E-07
vn 0.3767424 0.9038451 0.2028032
vn -2.834587E-07 -6.800476E-07 1
vn -1.991814E-07 8.302316E-08 1
vn -2.586181E-07 -1.310707E-08 1
vn -1.991814E-07 8.302317E-08 1
vn -1.991814E-07 8.302317E-08 1
vn -2.340903E-07 -2.330511E-07 1
vn -2.340902E-07 -2.330513E-07 1
vn -2.340903E-07 -2.330506E-07 1
vn -2.340901E-07 -2.330515E-07 1
vn -2.340901E-07 -2.330515E-07 1
vn -2.340904E-07 -2.330509E-07 1
vn -2.340911E-07 -2.330488E-07 1
vn -2.340892E-07 -2.330538E-07 1
vn -3.294501E-07 -1.375947E-09 1
vn -2.816851E-07 1.174125E-07 1
vn -3.303185E-07 7.351709E-10 1
vn -3.303188E-07 7.347402E-10 1
vn -3.303194E-07 7.341806E-10 1
vn -3.30319E-07 7.345457E-10 1
vn -3.30319E-07 7.34585E-10 1
vn -3.30319E-07 7.347031E-10 1
vn -3.303188E-07 7.352671E-10 1
vn -2.427895E-07 2.107271E-07 1
vn -2.330513E-07 2.340903E-07 1
vn -2.330513E-07 2.340905E-07 1
vn -2.330512E-07 2.340897E-07 1
vn -2.330514E-07 2.340915E-07 1
vn -2.330513E-07 2.340906E-07 1
vn -2.330513E-07 2.340902E-07 1
vn -1.727461E-07 1.929092E-07 1
vn 7.348598E-10 3.30319E-07 1
vn 7.350019E-10 3.303192E-07 1
vn 7.352775E-10 3.303195E-07 1
vn 7.300909E-10 3.303143E-07 1
vn 7.357585E-10 3.303201E-07 1
vn 7.354217E-10 3.303196E-07 1
vn 7.343897E-10 3.303185E-07 1
vn 7.336134E-10 3.303175E-07 1
vn -1.991814E-07 8.302317E-08 1
vn -1.991814E-07 8.302319E-08 1
vn -1.991814E-07 8.302317E-08 1

f 1//1 2//2 3//3
f 4//4 1//1 3//3
f 3//3 5//5 4//4
f 3//3 6//6 5//5
f 5//5 6//6 7//7
f 8//8 7//7 6//6
f 9//9 8//8 6//6
f 10//10 9//9 6//6
f 9//9 10//10 11//11
f 11//11 10//10 12//12
f 13//13 11//11 12//12
f 13//13 12//12 14//14
f 13//13 14//14 15//15
f 15//15 14//14 16//16
f 15//15 16//16 17//17
f 18//18 17//17 16//16
f 19//19 17//17 18//18
f 19//19 18//18 20//20
f 21//21 19//19 20//20
f 22//22 19//19 21//21
f 22//22 21//21 23//23
f 24//24 22//22 23//23
f 24//24 23//23 25//25
f 26//26 24//24 25//25
f 26//26 25//25 27//27
f 28//28 26//26 27//27
f 28//28 27//27 29//29
f 29//29 27//27 30//30
f 31//31 29//29 30//30
f 31//31 30//30 32//32
f 33//33 31//31 32//32
f 33//33 32//32 34//34
f 35//35 33//33 34//34
f 35//35 34//34 36//36
f 37//37 35//35 36//36
f 37//37 36//36 38//38
f 39//39 37//37 38//38
f 39//39 38//38 40//40
f 41//41 39//39 40//40
f 41//41 40//40 42//42
f 41//41 42//42 43//43
f 43//43 42//42 44//44
f 45//45 43//43 44//44
f 45//45 44//44 46//46
f 47//47 45//45 46//46
f 48//48 45//45 47//47
f 48//48 47//47 49//49
f 50//50 48//48 49//49
f 50//50 49//49 51//51
f 52//52 50//50 51//51
f 52//52 51//51 53//53
f 54//54 52//52 53//53
f 55//55 54//54 53//53
f 55//55 53//53 56//56
f 55//55 56//56 57//57
f 57//57 56//56 58//58
f 57//57 58//58 59//59
f 59//59 58//58 60//60
f 59//59 60//60 61//61
f 61//61 60//60 62//62
f 61//61 62//62 63//63
f 63//63 62//62 64//64
f 63//63 64//64 65//65
f 65//65 64//64 66//66
f 65//65 66//66 67//67
f 68//68 67//67 66//66
f 69//69 67//67 68//68
f 69//69 68//68 70//70
f 71//71 69//69 70//70
f 72//72 71//71 73//73
f 74//74 75//75 76//76
f 77//77 74//74 76//76
f 75//75 77//77 76//76
f 78//78 75//75 74//74
f 79//79 75//75 78//78
f 78//78 74//74 80//80
f 81//81 78//78 80//80
f 82//82 78//78 81//81
f 82//82 83//83 78//78
f 83//83 84//84 79//79
f 84//84 85//85 79//79
f 80//80 74//74 86//86
f 87//87 80//80 86//86
f 81//81 80//80 87//87
f 86//86 74//74 88//88
f 88//88 74//74 77//77
f 86//86 88//88 89//89
f 90//90 86//86 89//89
f 87//87 86//86 90//90
f 75//75 91//91 77//77
f 90//90 89//89 92//92
f 90//90 92//92 93//93
f 94//94 90//90 93//93
f 95//95 83//83 82//82
f 95//95 82//82 81//81
f 95//95 81//81 87//87
f 95//95 87//87 90//90
f 95//95 96//96 83//83
f 97//97 91//91 75//75
f 97//97 98//98 91//91
f 97//97 99//99 98//98
f 100//100 95//95 101//101
f 102//102 103//103 104//104
f 102//102 104//104 105//105
f 102//102 105//105 106//106
f 106//106 105//105 107//107
f 108//108 102//102 106//106
f 109//109 102//102 108//108
f 110//110 108//108 106//106
f 111//111 112//112 113//113
f 111//111 113//113 114//114
f 111//111 114//114 115//115
f 111//111 115//115 116//116
f 111//111 116//116 117//117
f 117//117 118//118 111//111
f 118//118 119//119 111//111
f 120//120 111//111 119//119
f 120//120 121//121 111//111
f 121//121 122//122 111//111
f 111//111 122//122 123//123
f 114//114 113//113 124//124
f 124//124 113//113 125//125
f 125//125 113//113 126//126
f 126//126 113//113 127//127
f 127//127 113//113 128//128
f 128//128 113//113 129//129
f 129//129 113//113 130//130
f 130//130 113//113 131//131
f 131//131 113//113 132//132
f 132//132 113//113 133//133
f 133//133 113//113 134//134
f 133//133 134//134 135//135
f 135//135 134//134 136//136
f 134//134 137//137 136//136
f 137//137 134//134 138//138
f 138//138 134//134 139//139
f 139//139 134//134 140//140
f 140//140 134//134 141//141
f 134//134 142//142 141//141
f 134//134 143//143 142//142
f 134//134 144//144 143//143
f 144//144 134//134 145//145
f 145//145 134//134 146//146
f 147//147 134//134 148//148
f 149//149 150//150 151//151
f 149//149 152//152 150//150
f 151//151 150//150 153//153
f 151//151 153//153 154//154
f 154//154 153//153 155//155
f 154//154 155//155 156//156
f 152//152 157//157 150//150
f 158//158 159//159 160//160
f 161//161 159//159 158//158
f 162//162 159//159 161//161
f 163//163 162//162 161//161
f 164//164 162//162 163//163
f 165//165 162//162 164//164
f 9//9 166//166 8//8
f 166//166 9//9 167//167
f 168//168 169//169 170//170
f 168//168 171//171 169//169
f 172//172 169//169 173//173
f 174//174 169//169 172//172
f 169//169 174//174 175//175
f 176//176 169//169 175//175
f 177//177 169//169 176//176
f 178//178 169//169 177//177
f 178//178 179//179 169//169
f 179//179 180//180 169//169
f 180//180 181//181 169//169
f 182//182 181//181 180//180
f 182//182 183//183 181//181
f 183//183 184//184 181//181
f 184//184 185//185 181//181
f 185//185 186//186 181//181
f 186//186 187//187 181//181
f 187//187 188//188 181//181
f 188//188 189//189 181//181
f 181//181 189//189 190//190
f 181//181 190//190 191//191
f 192//192 181//181 191//191
f 193//193 181//181 192//192
f 194//194 181//181 193//193
f 195//195 181//181 194//194
f 195//195 196//196 181//181
f 196//196 197//197 198//198
f 196//196 198//198 199//199
f 199//199 200//200 196//196
f 196//196 200//200 201//201
f 201//201 202//202 196//196
f 196//196 202//202 203//203
f 196//196 203//203 204//204
f 205//205 196//196 206//206
f 207//207 196//196 205//205
