v 96.05082 184.1833 -2.363224
v 96.05081 95.89133 41.78276
v 96.05082 184.1833 -2.363224
v 96.05082 184.1833 -2.363224
v 97.46124 185.6507 0.5715065
v 98.02541 186.2376 1.745403
v 98.02541 186.2376 1.745403
v 98.02541 97.94564 45.89139
v 98.0254 9.653687 90.03738
v 97.85331 186.3166 1.903484
v 96.47643 10.36505 91.46011
v 97.83192 186.3265 1.923126
v 96.28395 10.45345 91.63691
v 97.82591 186.3292 1.928642
v 96.22991 10.47826 91.68655
v 97.75843 186.3602 1.990623
v 95.62257 10.75719 92.24439
v 96.92642 186.7423 2.754829
v 95.53012 10.79964 92.3293
v 96.13757 187.1046 3.479389
v 96.04682 187.1463 3.562744
v 95.43239 10.84453 92.41908
v 95.85754 187.2332 3.736595
v 95.41135 10.85419 92.43839
v 95.3556 187.4637 4.197632
v 95.35558 10.8798 92.48962
v 95.35831 187.5547 4.379681
v 95.37047 11.38102 93.49205
v 95.37991 11.69901 94.12804
v 95.35898 187.5773 4.42485
v 95.38595 11.90228 94.53456
v 95.35918 187.584 4.43829
v 95.38775 11.96276 94.65553
v 95.36068 187.6348 4.539886
v 95.40132 12.41994 95.56989
v 95.37799 188.2176 5.705444
v 95.40324 12.4847 95.6994
v 95.39229 188.6991 6.668381
v 95.40483 12.53819 95.80639
v 95.40642 189.175 7.620159
v 95.4064 12.59106 95.91214
v 95.49103 189.2118 7.693848
v 96.16785 12.92267 96.57535
v 95.68059 189.2944 7.858955
v 97.87392 13.66564 98.06129
v 96.20944 189.5247 8.319572
v 96.42094 189.6168 8.503784
v 97.95618 13.70147 98.13295
v 97.14211 189.9308 9.131908
v 98.03631 13.73637 98.20274
v 97.73591 190.1895 9.649101
v 98.10229 13.7651 98.26021
v 98.1481 190.369 10.00811
v 98.14808 13.78504 98.30009
v 98.14808 13.78504 98.30009
v 98.37552 190.3676 10.00541
v 100.1949 13.77288 98.27578
v 98.44246 190.3672 10.00461
v 100.7973 13.7693 98.26862
v 98.4493 190.3672 10.00453
v 100.8588 13.76894 98.2679
v 98.45246 190.3671 10.00449
v 100.8873 13.76877 98.26756
v 98.45647 190.3671 10.00445
v 100.9234 13.76855 98.26712
v 98.53075 190.3667 10.00356
v 101.5919 13.76459 98.25919
v 101.9746 190.3462 9.962654
v 101.9746 13.76231 98.25464
v 101.9746 190.3462 9.962654
v 101.9746 13.76231 98.25464
v 101.9746 190.3462 9.962654
v 101.9746 190.3462 9.962654
v 102.5388 190.9332 11.13655
v 103.9492 192.4005 14.07128
v 103.9492 192.4005 14.07128
v 103.9492 192.4005 14.07128
v 101.9746 190.3462 9.962654
v 101.9746 190.3462 9.962654
v 101.9746 190.3462 9.962654
v 101.9746 13.76231 98.25464
v 101.9746 13.76231 98.25464
v 101.9746 13.76231 98.25464
v 101.9746 190.3462 9.962654
v 96.29619 192.446 14.16219
v 101.9746 190.3462 9.962654
v 101.9746 13.76231 98.25464
v 101.9746 190.3462 9.962654
v 101.9746 102.0543 54.10865
v 101.9746 13.76231 98.25464
v 103.9492 104.1086 58.21728
v 101.9746 13.7624 98.25459
v 101.9746 13.76231 98.25464
v 102.5388 14.34926 99.42853
v 96.29617 15.8621 102.4542
v 101.9746 13.76231 98.25464
v 96.29619 192.446 14.16219
v 103.9492 15.81663 102.3633
v 96.29617 15.8621 102.4542
v 98.14808 13.78504 98.30009
v 98.14808 13.78504 98.30009
v 96.05081 95.89133 41.78276
v 96.05082 184.1833 -2.363224
v 96.05082 184.1833 -2.363224
v 97.46124 185.6507 0.5715065
v 98.02541 97.94564 45.89139
v 98.02541 186.2376 1.745403
v 97.2075 8.802757 88.33553
v 96.0508 7.599373 85.92876
v 98.0254 9.653687 90.03738
v 96.05082 184.1833 -2.363224
v 90.7112 186.6355 2.541241
v 90.81284 190.058 9.386292
v 95.3556 187.4637 4.197632
v 95.85754 187.2332 3.736595
v 96.04682 187.1463 3.562744
v 96.13757 187.1046 3.479389
v 96.92642 186.7423 2.754829
v 97.75843 186.3602 1.990623
v 97.82591 186.3292 1.928642
v 97.83192 186.3265 1.923126
v 97.85331 186.3166 1.903484
v 98.02541 186.2376 1.745403
v 95.35831 187.5547 4.379681
v 95.35898 187.5773 4.42485
v 95.35918 187.584 4.43829
v 95.36068 187.6348 4.539886
v 95.37799 188.2176 5.705444
v 95.39229 188.6991 6.668381
v 95.40642 189.175 7.620159
v 95.49103 189.2118 7.693848
v 95.68059 189.2944 7.858955
v 96.20944 189.5247 8.319572
v 96.29619 192.446 14.16219
v 96.42094 189.6168 8.503784
v 97.14211 189.9308 9.131908
v 97.73591 190.1895 9.649101
v 98.1481 190.369 10.00811
v 98.37552 190.3676 10.00541
v 98.44246 190.3672 10.00461
v 98.4493 190.3672 10.00453
v 98.45246 190.3671 10.00449
v 98.45647 190.3671 10.00445
v 98.53075 190.3667 10.00356
v 101.9746 190.3462 9.962654
v 101.9746 190.3462 9.962654
v 101.9746 190.3462 9.962654
v 103.9492 192.4005 14.07128
v 96.05082 184.1833 -2.363224
v 90.71118 10.05162 90.83321
v 90.7112 186.6355 2.541241
v 96.05081 95.89133 41.78276
v 90.81282 13.47414 97.67827
v 90.81284 190.058 9.386292
v 96.29617 15.8621 102.4542
v 96.29619 192.446 14.16219
v 96.0508 7.599373 85.92876
v 103.9492 192.4005 14.07128
v 101.9746 102.0543 54.10865
v 101.9746 190.3462 9.962654
v 103.9492 104.1086 58.21728
v 101.9746 13.7624 98.25459
v 103.9492 15.81663 102.3633
v 102.5388 14.34926 99.42853
v 101.9746 13.76231 98.25464
v 98.0254 9.653687 90.03738
v 90.71118 10.05162 90.83321
v 97.2075 8.802757 88.33553
v 90.71118 10.05162 90.83321
v 96.0508 7.599373 85.92876
v 98.0254 9.653687 90.03738
v 96.47643 10.36505 91.46011
v 98.0254 9.653687 90.03738
v 96.28395 10.45345 91.63691
v 96.22991 10.47826 91.68655
v 95.62257 10.75719 92.24439
v 95.53012 10.79964 92.3293
v 95.43239 10.84453 92.41908
v 95.41135 10.85419 92.43839
v 95.35558 10.8798 92.48962
v 90.81282 13.47414 97.67827
v 95.37047 11.38102 93.49205
v 95.37991 11.69901 94.12804
v 95.38595 11.90228 94.53456
v 95.38775 11.96276 94.65553
v 95.40132 12.41994 95.56989
v 95.40324 12.4847 95.6994
v 95.40483 12.53819 95.80639
v 95.4064 12.59106 95.91214
v 96.16785 12.92267 96.57535
v 97.87392 13.66564 98.06129
v 97.95618 13.70147 98.13295
v 98.03631 13.73637 98.20274
v 98.10229 13.7651 98.26021
v 98.14808 13.78504 98.30009
v 96.29617 15.8621 102.4542
v 98.14808 13.78504 98.30009
v 100.1949 13.77288 98.27578
v 100.7973 13.7693 98.26862
v 100.8588 13.76894 98.2679
v 100.8873 13.76877 98.26756
v 100.9234 13.76855 98.26712
v 101.5919 13.76459 98.25919
v 101.9746 13.76231 98.25464
v 102.5388 14.34926 99.42853
v 101.9746 13.76231 98.25464
v 103.9492 15.81663 102.3633

vn -0.3949185 -0.4108619 -0.821725
vn -0.3949185 -0.4108621 -0.821725
vn -0.2998444 0.2701356 -0.9149428
vn 5.960464E-08 0.8944273 -0.4472138
vn 5.960464E-08 0.8944273 -0.4472138
vn 0.716438 0.3119988 0.6239979
vn 0.3909494 0.5332238 0.7502207
vn 0.9862494 -0.07390842 -0.147816
vn 0.7164347 0.312 0.624001
vn 0.7164342 0.3120004 0.6240016
vn 0.7164344 0.3120002 0.6240013
vn 0.7164351 0.3119998 0.6240007
vn 0.7164358 0.3119994 0.624
vn 0.7164319 0.3120018 0.6240035
vn 0.7164338 0.3120006 0.6240019
vn 0.7164341 0.3120004 0.6240015
vn 0.7164341 0.3120005 0.6240017
vn 0.7164339 0.3120005 0.6240017
vn 0.7164342 0.3120004 0.6240015
vn 0.7164339 0.3120005 0.6240017
vn 0.7164348 0.3120001 0.624001
vn 0.7164358 0.3119996 0.624
vn 0.7164343 0.3120004 0.6240013
vn 0.7164338 0.3120007 0.6240019
vn 0.8134668 0.2601043 0.5202093
vn 0.9996183 0.01235498 0.02471083
vn 0.9999119 -0.00594026 -0.01187952
vn 0.9999118 -0.005939857 -0.0118788
vn 0.9999119 -0.005939694 -0.01187852
vn 0.999912 -0.005938623 -0.01187672
vn 0.9999119 -0.005937964 -0.01187559
vn 0.9999119 -0.005937018 -0.01187418
vn 0.9999119 -0.005938522 -0.01187659
vn 0.9999118 -0.00593921 -0.01187757
vn 0.999912 -0.005939522 -0.01187806
vn 0.9999118 -0.005939613 -0.01187811
vn 0.9999118 -0.005939012 -0.01187713
vn 0.9999119 -0.005939326 -0.01187771
vn 0.9999118 -0.005939902 -0.01187877
vn 0.9968696 -0.0353591 -0.07071713
vn 0.7434031 -0.2991164 -0.5982321
vn 0.6976555 -0.3203991 -0.6407976
vn 0.6976548 -0.3203995 -0.6407983
vn 0.6976543 -0.3203997 -0.6407987
vn 0.6976542 -0.3203997 -0.6407986
vn 0.6976545 -0.3203995 -0.6407984
vn 0.6976549 -0.3203992 -0.6407981
vn 0.6976547 -0.3203994 -0.6407984
vn 0.697655 -0.3203993 -0.6407982
vn 0.6976546 -0.3203994 -0.6407983
vn 0.6976547 -0.3203994 -0.6407984
vn 0.697655 -0.3203992 -0.640798
vn 0.5427895 -0.3756009 -0.7512016
vn 0.6976717 -0.320392 -0.6407835
vn -0.01327909 -0.4471741 -0.8943484
vn -0.01328038 -0.4471741 -0.8943483
vn -0.01328082 -0.4471742 -0.8943484
vn -0.01328203 -0.4471743 -0.8943483
vn -0.01327997 -0.4471741 -0.8943484
vn -0.01327836 -0.4471739 -0.8943487
vn -0.01327562 -0.4471736 -0.8943487
vn -0.01323038 -0.4471689 -0.8943518
vn -0.01325875 -0.447172 -0.8943499
vn -0.01328726 -0.4471748 -0.894348
vn -0.01328315 -0.4471745 -0.8943483
vn -0.01328027 -0.4471741 -0.8943484
vn -0.01327965 -0.4471741 -0.8943484
vn -0.01327938 -0.4471741 -0.8943484
vn -0.01327436 -0.4471742 -0.8943485
vn 0.1544097 -0.4418502 -0.8837004
vn -0.3949185 -0.4108622 -0.8217248
vn -0.3949185 -0.4108622 -0.8217248
vn -0.3949185 -0.4108622 -0.8217248
vn 5.960464E-08 0.8944273 -0.4472138
vn 0.01328003 0.447174 0.8943485
vn 5.960464E-08 0.8944273 -0.4472138
vn 0.9622486 -0.1217197 -0.2434385
vn -0.2564852 0.4132755 -0.8737385
vn -0.2224766 0.5075346 -0.832414
vn -0.3939205 -0.3462757 -0.8514223
vn -0.3949185 -0.4108622 -0.8217248
vn -0.3949185 -0.4108622 -0.8217248
vn -0.3949185 -0.4108622 -0.8217248
vn -0.3928179 -0.3165485 -0.8634183
vn 5.960464E-08 0.8944273 -0.4472138
vn -0.3948815 -0.399504 -0.8273242
vn -0.3949185 -0.4108622 -0.8217248
vn -0.3909493 -0.2802417 -0.8767117
vn -0.3949246 -0.410861 -0.8217225
vn -0.3942118 -0.4638229 -0.7933887
vn 0.01328 0.447174 0.8943484
vn -0.3949402 -0.410858 -0.8217165
vn -2.801427E-06 -0.8944301 0.4472081
vn -5.960464E-08 -0.8944273 0.4472138
vn -4.561074E-07 -0.8944272 0.4472139
vn 0 0 0
vn 0.01327994 0.4471741 0.8943485
vn 0.01327997 0.4471741 0.8943484
vn 0.01327997 0.4471741 0.8943486
vn -4.561074E-07 -0.8944272 0.4472139
vn -4.561074E-07 -0.8944272 0.4472139
vn 0.9187163 -0.1766133 -0.3532258
vn 0.9187162 -0.1766132 -0.3532258
vn 0.9187163 -0.1766133 -0.3532258
vn 0.9187163 -0.1766133 -0.3532258
vn 0.9187163 -0.1766133 -0.3532258
vn 0.9187163 -0.1766133 -0.3532258
vn 0.9187163 -0.1766133 -0.3532258
vn 0.9187163 -0.1766133 -0.3532258
vn 0.9187163 -0.1766133 -0.3532258
vn 5.960464E-08 0.8944273 -0.4472138
vn 5.960464E-08 0.8944273 -0.4472138
vn 5.960464E-08 0.8944273 -0.4472138
vn 5.960464E-08 0.8944273 -0.4472138
vn 5.960464E-08 0.8944273 -0.4472138
vn 5.960464E-08 0.8944273 -0.4472138
vn 5.960464E-08 0.8944273 -0.4472138
vn 5.960464E-08 0.8944273 -0.4472138
vn 5.960464E-08 0.8944273 -0.4472138
vn 5.960464E-08 0.8944273 -0.4472138
vn 5.960464E-08 0.8944273 -0.4472138
vn 5.960464E-08 0.8944273 -0.4472138
vn 5.960464E-08 0.8944273 -0.4472138
vn 5.960464E-08 0.8944272 -0.4472138
vn 5.960464E-08 0.8944273 -0.4472138
vn 5.960464E-08 0.8944273 -0.4472138
vn 5.960464E-08 0.8944272 -0.4472138
vn 5.960464E-08 0.8944273 -0.4472138
vn 5.960464E-08 0.8944273 -0.4472138
vn 5.960464E-08 0.8944273 -0.4472138
vn 5.960464E-08 0.8944272 -0.4472138
vn 5.960464E-08 0.8944273 -0.4472138
vn 5.960464E-08 0.8944273 -0.4472138
vn 5.960464E-08 0.8944273 -0.4472138
vn 5.960464E-08 0.8944273 -0.4472138
vn 5.960464E-08 0.8944273 -0.4472138
vn 5.960464E-08 0.8944273 -0.4472138
vn 5.960464E-08 0.8944273 -0.4472138
vn 5.960464E-08 0.8944273 -0.4472138
vn 5.960464E-08 0.8944273 -0.4472138
vn 5.960464E-08 0.8944273 -0.4472138
vn 5.960464E-08 0.8944272 -0.4472138
vn 5.960464E-08 0.8944273 -0.4472138
vn 5.960464E-08 0.8944272 -0.4472138
vn 5.960464E-08 0.8944272 -0.4472138
vn 5.960464E-08 0.8944273 -0.4472138
vn 5.960464E-08 0.8944272 -0.4472138
vn 5.960464E-08 0.8944272 -0.4472138
vn -0.7164345 -0.3120002 -0.6240013
vn -0.8694924 -0.2208992 -0.4417994
vn -0.970809 -0.1072655 -0.2145319
vn -0.7164344 -0.3120002 -0.6240012
vn -0.9640969 0.1187584 0.2375161
vn -0.8560681 0.2311486 0.4622966
vn -0.6976545 0.3203994 0.6407984
vn -0.6976545 0.3203994 0.6407984
vn -0.7164344 -0.3120003 -0.6240013
vn 0.9187163 -0.1766133 -0.3532258
vn 0.9187163 -0.1766133 -0.3532258
vn 0.9187163 -0.1766133 -0.3532258
vn 0.9187163 -0.1766133 -0.3532258
vn 0.9187163 -0.1766133 -0.3532258
vn 0.9187163 -0.1766133 -0.3532258
vn 0.9187163 -0.1766133 -0.3532258
vn 0.9187162 -0.1766133 -0.3532258
vn 0.3867119 0.2209317 0.8953453
vn -3.505643E-07 -0.8944276 0.4472132
vn -2.57856E-07 -0.8944272 0.4472139
vn -3.183519E-07 -0.8944273 0.4472138
vn -2.57856E-07 -0.8944272 0.4472139
vn -2.57856E-07 -0.8944272 0.4472139
vn -2.962571E-07 -0.8944274 0.4472136
vn -2.962571E-07 -0.8944274 0.4472136
vn -2.962571E-07 -0.8944274 0.4472136
vn -2.96257E-07 -0.8944274 0.4472136
vn -2.96257E-07 -0.8944274 0.4472136
vn -2.962572E-07 -0.8944273 0.4472136
vn -2.96258E-07 -0.8944274 0.4472136
vn -2.96256E-07 -0.8944273 0.4472136
vn -3.890498E-07 -0.8944272 0.4472138
vn -3.399745E-07 -0.8944272 0.4472139
vn -3.898948E-07 -0.8944272 0.4472138
vn -3.898952E-07 -0.8944272 0.4472138
vn -3.898957E-07 -0.8944272 0.4472138
vn -3.898954E-07 -0.8944272 0.4472138
vn -3.898954E-07 -0.8944272 0.4472138
vn -3.898953E-07 -0.8944272 0.4472138
vn -3.898951E-07 -0.8944272 0.4472138
vn -3.000496E-07 -0.8944272 0.447214
vn -2.900538E-07 -0.8944272 0.447214
vn -2.900537E-07 -0.8944272 0.447214
vn -2.900536E-07 -0.8944272 0.447214
vn -2.900538E-07 -0.8944272 0.447214
vn -2.900537E-07 -0.8944272 0.447214
vn -2.900537E-07 -0.8944272 0.447214
vn -2.302075E-07 -0.8944272 0.447214
vn -5.521798E-08 -0.8944271 0.4472141
vn -5.521784E-08 -0.8944271 0.4472141
vn -5.521756E-08 -0.8944271 0.4472141
vn -5.52228E-08 -0.8944271 0.4472141
vn -5.521707E-08 -0.8944271 0.4472141
vn -5.521741E-08 -0.8944271 0.4472141
vn -5.521846E-08 -0.8944271 0.4472141
vn -5.521924E-08 -0.8944271 0.4472141
vn -2.57856E-07 -0.8944272 0.4472139
vn -2.57856E-07 -0.8944272 0.4472139
vn -2.57856E-07 -0.8944272 0.4472139

f 1//1 2//2 3//3
f 4//4 1//1 3//3
f 3//3 5//5 4//4
f 3//3 6//6 5//5
f 5//5 6//6 7//7
f 8//8 7//7 6//6
f 9//9 8//8 6//6
f 10//10 9//9 6//6
f 9//9 10//10 11//11
f 11//11 10//10 12//12
f 13//13 11//11 12//12
f 13//13 12//12 14//14
f 13//13 14//14 15//15
f 15//15 14//14 16//16
f 15//15 16//16 17//17
f 18//18 17//17 16//16
f 19//19 17//17 18//18
f 19//19 18//18 20//20
f 21//21 19//19 20//20
f 22//22 19//19 21//21
f 22//22 21//21 23//23
f 24//24 22//22 23//23
f 24//24 23//23 25//25
f 26//26 24//24 25//25
f 26//26 25//25 27//27
f 28//28 26//26 27//27
f 28//28 27//27 29//29
f 29//29 27//27 30//30
f 31//31 29//29 30//30
f 31//31 30//30 32//32
f 33//33 31//31 32//32
f 33//33 32//32 34//34
f 35//35 33//33 34//34
f 35//35 34//34 36//36
f 37//37 35//35 36//36
f 37//37 36//36 38//38
f 39//39 37//37 38//38
f 39//39 38//38 40//40
f 41//41 39//39 40//40
f 41//41 40//40 42//42
f 41//41 42//42 43//43
f 43//43 42//42 44//44
f 45//45 43//43 44//44
f 45//45 44//44 46//46
f 47//47 45//45 46//46
f 48//48 45//45 47//47
f 48//48 47//47 49//49
f 50//50 48//48 49//49
f 50//50 49//49 51//51
f 52//52 50//50 51//51
f 52//52 51//51 53//53
f 54//54 52//52 53//53
f 55//55 54//54 53//53
f 55//55 53//53 56//56
f 55//55 56//56 57//57
f 57//57 56//56 58//58
f 57//57 58//58 59//59
f 59//59 58//58 60//60
f 59//59 60//60 61//61
f 61//61 60//60 62//62
f 61//61 62//62 63//63
f 63//63 62//62 64//64
f 63//63 64//64 65//65
f 65//65 64//64 66//66
f 65//65 66//66 67//67
f 68//68 67//67 66//66
f 69//69 67//67 68//68
f 69//69 68//68 70//70
f 71//71 69//69 70//70
f 72//72 71//71 73//73
f 74//74 75//75 76//76
f 77//77 74//74 76//76
f 75//75 77//77 76//76
f 78//78 75//75 74//74
f 79//79 75//75 78//78
f 78//78 74//74 80//80
f 81//81 78//78 80//80
f 82//82 78//78 81//81
f 82//82 83//83 78//78
f 83//83 84//84 79//79
f 84//84 85//85 79//79
f 80//80 74//74 86//86
f 87//87 80//80 86//86
f 81//81 80//80 87//87
f 86//86 74//74 88//88
f 88//88 74//74 77//77
f 86//86 88//88 89//89
f 90//90 86//86 89//89
f 87//87 86//86 90//90
f 75//75 91//91 77//77
f 90//90 89//89 92//92
f 90//90 92//92 93//93
f 94//94 90//90 93//93
f 95//95 83//83 82//82
f 95//95 82//82 81//81
f 95//95 81//81 87//87
f 95//95 87//87 90//90
f 95//95 96//96 83//83
f 97//97 91//91 75//75
f 97//97 98//98 91//91
f 97//97 99//99 98//98
f 100//100 95//95 101//101
f 102//102 103//103 104//104
f 102//102 104//104 105//105
f 102//102 105//105 106//106
f 106//106 105//105 107//107
f 108//108 102//102 106//106
f 109//109 102//102 108//108
f 110//110 108//108 106//106
f 111//111 112//112 113//113
f 111//111 113//113 114//114
f 111//111 114//114 115//115
f 111//111 115//115 116//116
f 111//111 116//116 117//117
f 117//117 118//118 111//111
f 118//118 119//119 111//111
f 120//120 111//111 119//119
f 120//120 121//121 111//111
f 121//121 122//122 111//111
f 111//111 122//122 123//123
f 114//114 113//113 124//124
f 124//124 113//113 125//125
f 125//125 113//113 126//126
f 126//126 113//113 127//127
f 127//127 113//113 128//128
f 128//128 113//113 129//129
f 129//129 113//113 130//130
f 130//130 113//113 131//131
f 131//131 113//113 132//132
f 132//132 113//113 133//133
f 133//133 113//113 134//134
f 133//133 134//134 135//135
f 135//135 134//134 136//136
f 134//134 137//137 136//136
f 137//137 134//134 138//138
f 138//138 134//134 139//139
f 139//139 134//134 140//140
f 140//140 134//134 141//141
f 134//134 142//142 141//141
f 134//134 143//143 142//142
f 134//134 144//144 143//143
f 144//144 134//134 145//145
f 145//145 134//134 146//146
f 147//147 134//134 148//148
f 149//149 150//150 151//151
f 149//149 152//152 150//150
f 151//151 150//150 153//153
f 151//151 153//153 154//154
f 154//154 153//153 155//155
f 154//154 155//155 156//156
f 152//152 157//157 150//150
f 158//158 159//159 160//160
f 161//161 159//159 158//158
f 162//162 159//159 161//161
f 163//163 162//162 161//161
f 164//164 162//162 163//163
f 165//165 162//162 164//164
f 9//9 166//166 8//8
f 166//166 9//9 167//167
f 168//168 169//169 170//170
f 168//168 171//171 169//169
f 172//172 169//169 173//173
f 174//174 169//169 172//172
f 169//169 174//174 175//175
f 176//176 169//169 175//175
f 177//177 169//169 176//176
f 178//178 169//169 177//177
f 178//178 179//179 169//169
f 179//179 180//180 169//169
f 180//180 181//181 169//169
f 182//182 181//181 180//180
f 182//182 183//183 181//181
f 183//183 184//184 181//181
f 184//184 185//185 181//181
f 185//185 186//186 181//181
f 186//186 187//187 181//181
f 187//187 188//188 181//181
f 188//188 189//189 181//181
f 181//181 189//189 190//190
f 181//181 190//190 191//191
f 192//192 181//181 191//191
f 193//193 181//181 192//192
f 194//194 181//181 193//193
f 195//195 181//181 194//194
f 195//195 196//196 181//181
f 196//196 197//197 198//198
f 196//196 198//198 199//199
f 199//199 200//200 196//196
f 196//196 200//200 201//201
f 201//201 202//202 196//196
f 196//196 202//202 203//203
f 196//196 203//203 204//204
f 205//205 196//196 206//206
f 207//207 196//196 205//205
