v 103.8785 -209.2172 186.9099
v 103.8785 -209.2172 150
v 103.8785 -209.2172 186.9099
v 103.8785 -209.2172 186.9099
v 102.4933 -205.9254 186.9099
v 101.9392 -204.6086 186.9099
v 101.9392 -204.6086 186.9099
v 101.9392 -204.6086 150
v 101.9392 -204.6086 113.0901
v 102.1127 -204.4332 186.9099
v 103.5004 -203.0299 113.0901
v 102.1342 -204.4114 186.9099
v 103.6944 -202.8337 113.0901
v 102.1403 -204.4053 186.9099
v 103.7488 -202.7787 113.0901
v 102.2083 -204.3365 186.9099
v 104.361 -202.1597 113.0901
v 103.0469 -203.4885 186.9099
v 104.4541 -202.0654 113.0901
v 103.8419 -202.6845 186.9099
v 103.9334 -202.592 186.9099
v 104.5526 -201.9658 113.0901
v 104.1241 -202.3991 186.9099
v 104.5738 -201.9444 113.0901
v 104.63 -201.8875 186.9099
v 104.63 -201.8875 113.0901
v 104.6289 -201.684 186.9099
v 104.6238 -200.7667 113.0901
v 104.6198 -200.0556 113.0901
v 104.6286 -201.6335 186.9099
v 104.6172 -199.6011 113.0901
v 104.6285 -201.6185 186.9099
v 104.6165 -199.4658 113.0901
v 104.6279 -201.5049 186.9099
v 104.6108 -198.4435 113.0901
v 104.6206 -200.2016 186.9099
v 104.61 -198.2986 113.0901
v 104.6146 -199.125 186.9099
v 104.6093 -198.179 113.0901
v 104.6086 -198.0608 186.9099
v 104.6086 -198.0608 113.0901
v 104.5247 -197.9777 186.9099
v 103.8529 -197.3135 113.0901
v 104.3365 -197.7917 186.9099
v 102.1597 -195.6391 113.0901
v 103.8116 -197.2726 186.9099
v 103.6017 -197.0651 186.9099
v 102.078 -195.5583 113.0901
v 102.886 -196.3573 186.9099
v 101.9985 -195.4797 113.0901
v 102.2966 -195.7745 186.9099
v 101.933 -195.4149 113.0901
v 101.8875 -195.37 186.9099
v 101.8876 -195.37 113.0901
v 101.8875 -195.37 113.0901
v 101.6601 -195.3712 186.9099
v 99.84061 -195.3814 113.0901
v 101.5932 -195.3716 186.9099
v 99.23812 -195.3848 113.0901
v 101.5863 -195.3717 186.9099
v 99.17661 -195.3851 113.0901
v 101.5832 -195.3717 186.9099
v 99.14809 -195.3853 113.0901
v 101.5792 -195.3717 186.9099
v 99.11205 -195.3855 113.0901
v 101.5049 -195.3721 186.9099
v 98.44345 -195.3892 113.0901
v 98.06077 -195.3914 186.9099
v 98.06077 -195.3914 113.0901
v 98.06077 -195.3914 186.9099
v 98.06077 -195.3914 113.0901
v 98.06077 -195.3914 186.9099
v 98.06077 -195.3914 186.9099
v 97.5067 -194.0746 186.9099
v 96.12153 -190.7828 186.9099
v 96.12153 -190.7828 186.9099
v 96.12153 -190.7828 186.9099
v 98.06077 -195.3914 186.9099
v 98.06077 -195.3914 186.9099
v 98.06077 -195.3914 186.9099
v 98.06077 -195.3914 113.0901
v 98.06077 -195.3914 113.0901
v 98.06077 -195.3914 113.0901
v 98.06077 -195.3914 186.9099
v 103.7751 -190.7399 186.9099
v 98.06077 -195.3914 186.9099
v 98.06077 -195.3914 113.0901
v 98.06077 -195.3914 186.9099
v 98.06077 -195.3914 150
v 98.06077 -195.3914 113.0901
v 96.12154 -190.7828 150
v 98.06077 -195.3914 113.0902
v 98.06077 -195.3914 113.0901
v 97.50671 -194.0746 113.0901
v 103.7751 -190.7399 113.0901
v 98.06077 -195.3914 113.0901
v 103.7751 -190.7399 186.9099
v 96.12154 -190.7828 113.0901
v 103.7751 -190.7399 113.0901
v 101.8875 -195.37 113.0901
v 101.8876 -195.37 113.0901
v 103.8785 -209.2172 150
v 103.8785 -209.2172 186.9099
v 103.8785 -209.2172 186.9099
v 102.4933 -205.9254 186.9099
v 101.9392 -204.6086 150
v 101.9392 -204.6086 186.9099
v 102.7425 -206.5176 113.0901
v 103.8785 -209.2173 113.0901
v 101.9392 -204.6086 113.0901
v 103.8785 -209.2172 186.9099
v 109.2601 -203.7751 186.9099
v 109.2172 -196.1215 186.9099
v 104.63 -201.8875 186.9099
v 104.1241 -202.3991 186.9099
v 103.9334 -202.592 186.9099
v 103.8419 -202.6845 186.9099
v 103.0469 -203.4885 186.9099
v 102.2083 -204.3365 186.9099
v 102.1403 -204.4053 186.9099
v 102.1342 -204.4114 186.9099
v 102.1127 -204.4332 186.9099
v 101.9392 -204.6086 186.9099
v 104.6289 -201.684 186.9099
v 104.6286 -201.6335 186.9099
v 104.6285 -201.6185 186.9099
v 104.6279 -201.5049 186.9099
v 104.6206 -200.2016 186.9099
v 104.6146 -199.125 186.9099
v 104.6086 -198.0608 186.9099
v 104.5247 -197.9777 186.9099
v 104.3365 -197.7917 186.9099
v 103.8116 -197.2726 186.9099
v 103.7751 -190.7399 186.9099
v 103.6017 -197.0651 186.9099
v 102.886 -196.3573 186.9099
v 102.2966 -195.7745 186.9099
v 101.8875 -195.37 186.9099
v 101.6601 -195.3712 186.9099
v 101.5932 -195.3716 186.9099
v 101.5863 -195.3717 186.9099
v 101.5832 -195.3717 186.9099
v 101.5792 -195.3717 186.9099
v 101.5049 -195.3721 186.9099
v 98.06077 -195.3914 186.9099
v 98.06077 -195.3914 186.9099
v 98.06077 -195.3914 186.9099
v 96.12153 -190.7828 186.9099
v 103.8785 -209.2172 186.9099
v 109.2601 -203.7751 113.0901
v 109.2601 -203.7751 186.9099
v 103.8785 -209.2172 150
v 109.2172 -196.1215 113.0901
v 109.2172 -196.1215 186.9099
v 103.7751 -190.7399 113.0901
v 103.7751 -190.7399 186.9099
v 103.8785 -209.2173 113.0901
v 96.12153 -190.7828 186.9099
v 98.06077 -195.3914 150
v 98.06077 -195.3914 186.9099
v 96.12154 -190.7828 150
v 98.06077 -195.3914 113.0902
v 96.12154 -190.7828 113.0901
v 97.50671 -194.0746 113.0901
v 98.06077 -195.3914 113.0901
v 101.9392 -204.6086 113.0901
v 109.2601 -203.7751 113.0901
v 102.7425 -206.5176 113.0901
v 109.2601 -203.7751 113.0901
v 103.8785 -209.2173 113.0901
v 101.9392 -204.6086 113.0901
v 103.5004 -203.0299 113.0901
v 101.9392 -204.6086 113.0901
v 103.6944 -202.8337 113.0901
v 103.7488 -202.7787 113.0901
v 104.361 -202.1597 113.0901
v 104.4541 -202.0654 113.0901
v 104.5526 -201.9658 113.0901
v 104.5738 -201.9444 113.0901
v 104.63 -201.8875 113.0901
v 109.2172 -196.1215 113.0901
v 104.6238 -200.7667 113.0901
v 104.6198 -200.0556 113.0901
v 104.6172 -199.6011 113.0901
v 104.6165 -199.4658 113.0901
v 104.6108 -198.4435 113.0901
v 104.61 -198.2986 113.0901
v 104.6093 -198.179 113.0901
v 104.6086 -198.0608 113.0901
v 103.8529 -197.3135 113.0901
v 102.1597 -195.6391 113.0901
v 102.078 -195.5583 113.0901
v 101.9985 -195.4797 113.0901
v 101.933 -195.4149 113.0901
v 101.8876 -195.37 113.0901
v 103.7751 -190.7399 113.0901
v 101.8875 -195.37 113.0901
v 99.84061 -195.3814 113.0901
v 99.23812 -195.3848 113.0901
v 99.17661 -195.3851 113.0901
v 99.14809 -195.3853 113.0901
v 99.11205 -195.3855 113.0901
v 98.44345 -195.3892 113.0901
v 98.06077 -195.3914 113.0901
v 97.50671 -194.0746 113.0901
v 98.06077 -195.3914 113.0901
v 96.12154 -190.7828 113.0901

vn 0.3878466 -0.9217239 5.340572E-07
vn 0.3878466 -0.9217239 3.814694E-07
vn 0.2944751 -0.6998249 0.6507913
vn 0 0 1
vn 0 0 1
vn -0.7110555 0.7031359 -6.462383E-08
vn -0.3839486 0.9124603 0.141421
vn -0.9874902 -0.1576793 -1.883212E-07
vn -0.7110521 0.7031392 -3.424387E-07
vn -0.7110516 0.7031398 -3.013172E-07
vn -0.7110518 0.7031395 -3.400592E-07
vn -0.7110526 0.7031388 -4.236429E-07
vn -0.7110533 0.7031381 -4.821552E-07
vn -0.7110492 0.7031422 1.095606E-07
vn -0.7110512 0.7031402 -1.780023E-07
vn -0.7110515 0.7031398 -2.260704E-07
vn -0.7110515 0.70314 -2.089216E-07
vn -0.7110513 0.70314 -2.077588E-07
vn -0.7110516 0.7031398 -2.217208E-07
vn -0.7110513 0.7031401 -2.409156E-07
vn -0.7110522 0.7031392 -2.351288E-07
vn -0.7110533 0.7031381 -2.778156E-07
vn -0.7110517 0.7031396 -1.673258E-07
vn -0.7110512 0.7031403 -1.811419E-07
vn -0.8089731 0.5878457 -1.839746E-07
vn -0.9993764 0.03530857 -2.087927E-07
vn -0.9999843 -0.005597241 -2.638545E-07
vn -0.9999842 -0.00559642 -2.243663E-07
vn -0.9999843 -0.005596094 -2.046673E-07
vn -0.9999844 -0.005594004 -5.134434E-08
vn -0.9999843 -0.005592701 3.311141E-08
vn -0.9999843 -0.005591019 2.493531E-07
vn -0.9999843 -0.005593848 -1.725448E-08
vn -0.9999842 -0.00559503 -1.95488E-07
vn -0.9999844 -0.005595609 -2.545912E-07
vn -0.9999843 -0.005595695 -3.133276E-07
vn -0.9999843 -0.005594549 -2.147517E-07
vn -0.9999843 -0.00559521 -2.354086E-07
vn -0.9999843 -0.005596415 -2.762392E-07
vn -0.9974477 -0.07140113 -2.850269E-07
vn -0.748521 -0.6631112 -1.199789E-07
vn -0.7031405 -0.7110509 -7.869002E-08
vn -0.7031398 -0.7110516 -1.061353E-07
vn -0.7031393 -0.7110522 -1.468234E-07
vn -0.7031392 -0.7110521 -1.18347E-07
vn -0.7031395 -0.7110518 -1.005928E-07
vn -0.7031399 -0.7110514 2.558145E-08
vn -0.7031397 -0.7110518 -4.388408E-08
vn -0.70314 -0.7110515 -2.142637E-08
vn -0.7031396 -0.7110517 -1.39089E-08
vn -0.7031397 -0.7110518 -6.971242E-09
vn -0.70314 -0.7110514 1.713521E-09
vn -0.5492277 -0.8356727 6.568339E-08
vn -0.7031565 -0.711035 3.749556E-09
vn 0.005594545 -0.9999843 1.50355E-07
vn 0.005595833 -0.9999842 1.053244E-07
vn 0.005596278 -0.9999843 6.84602E-08
vn 0.005597488 -0.9999842 -3.948485E-08
vn 0.005595425 -0.9999843 1.617077E-07
vn 0.005593816 -0.9999844 4.500968E-07
vn 0.005591074 -0.9999843 7.290805E-07
vn 0.00554583 -0.9999846 6.344963E-06
vn 0.005574206 -0.9999844 2.762223E-06
vn 0.00560272 -0.9999843 -5.911333E-07
vn 0.005598602 -0.9999843 -2.018595E-07
vn 0.005595723 -0.9999843 1.357495E-07
vn 0.005595108 -0.9999843 1.613505E-07
vn 0.005594838 -0.9999843 1.611312E-07
vn 0.005589813 -0.9999844 9.115076E-08
vn -0.1619978 -0.9867911 9.305477E-08
vn 0.3878466 -0.9217239 1.907347E-07
vn 0.3878466 -0.9217239 1.907347E-07
vn 0.3878466 -0.9217239 1.907347E-07
vn 0 0 1
vn -0.00559548 0.9999843 -2.936142E-07
vn 0 0 1
vn -0.9643117 -0.2647698 -1.677742E-07
vn 0.2518923 -0.5986263 0.7603924
vn 0.2184927 -0.5192516 0.8262195
vn 0.3868664 -0.9193946 0.0710492
vn 0.3878466 -0.9217239 1.90735E-07
vn 0.3878466 -0.9217239 1.907347E-07
vn 0.3878466 -0.9217239 1.907343E-07
vn 0.3857836 -0.9168213 0.1030029
vn 0 0 1
vn 0.3878102 -0.9216523 0.01266336
vn 0.3878466 -0.9217239 1.907357E-07
vn 0.3839485 -0.9124601 0.1414215
vn 0.3878527 -0.9217213 1.907357E-07
vn 0.3871526 -0.9200585 -0.06004161
vn -0.005595457 0.9999843 -2.232892E-07
vn 0.3878684 -0.9217147 1.907375E-07
vn 2.692724E-06 -6.399304E-06 -1
vn 0 0 -1
vn 3.978008E-07 1.673882E-07 -1
vn 0 0 0
vn -0.005595398 0.9999843 -2.130985E-07
vn -0.005595425 0.9999843 -1.778031E-07
vn -0.005595421 0.9999844 -2.029077E-07
vn 3.978008E-07 1.673882E-07 -1
vn 3.978008E-07 1.673882E-07 -1
vn -0.9217239 -0.3878466 -1.192093E-07
vn -0.9217238 -0.3878466 -1.192092E-07
vn -0.9217239 -0.3878466 -1.192093E-07
vn -0.9217239 -0.3878466 -1.192093E-07
vn -0.9217239 -0.3878466 -1.192093E-07
vn -0.9217239 -0.3878466 -1.192092E-07
vn -0.9217239 -0.3878466 -1.192093E-07
vn -0.9217239 -0.3878466 -1.192093E-07
vn -0.9217239 -0.3878466 -1.192093E-07
vn 0 0 1
vn 0 0 1
vn 0 0 1
vn 0 0 1
vn 0 0 1
vn 0 0 1
vn 0 0 1
vn 0 0 1
vn 0 0 1
vn 0 0 1
vn 0 0 1
vn 0 0 1
vn 0 0 1
vn 0 0 0.9999999
vn 0 0 1
vn 0 0 1
vn 0 0 0.9999999
vn 0 0 1
vn 0 0 1
vn 0 0 1
vn 0 0 0.9999999
vn 0 0 1
vn 0 0 1
vn 0 0 1
vn 0 0 1
vn 0 0 1
vn 0 0 1
vn 0 0 1
vn 0 0 1
vn 0 0 1
vn 0 0 1
vn 0 0 0.9999999
vn 0 0 1
vn 0 0 0.9999999
vn 0 0 0.9999999
vn 0 0 1
vn 0 0 0.9999999
vn 0 0 0.9999999
vn 0.7110519 -0.7031396 3.42789E-07
vn 0.8656707 -0.5006139 3.092419E-07
vn 0.968937 -0.2473072 2.619401E-07
vn 0.7110518 -0.7031394 3.23738E-07
vn 0.966109 0.2581343 1.531119E-07
vn 0.8600147 0.5102692 7.358348E-08
vn 0.7031395 0.7110518 7.245398E-09
vn 0.7031395 0.7110518 0
vn 0.7110518 -0.7031396 2.570785E-07
vn -0.9217239 -0.3878466 -1.192093E-07
vn -0.9217239 -0.3878466 -1.192093E-07
vn -0.9217239 -0.3878466 -1.192093E-07
vn -0.9217239 -0.3878466 -1.192093E-07
vn -0.9217239 -0.3878466 -1.192093E-07
vn -0.9217239 -0.3878466 -1.192093E-07
vn -0.9217239 -0.3878466 -1.283792E-07
vn -0.9217238 -0.3878466 -1.283792E-07
vn -0.3797869 0.90257 -0.2028032
vn 2.857494E-07 -6.790882E-07 -1
vn 1.989004E-07 8.369408E-08 -0.9999999
vn 2.586609E-07 -1.223525E-08 -1
vn 1.989004E-07 8.369408E-08 -1
vn 1.989004E-07 8.369408E-08 -1
vn 2.348745E-07 -2.322607E-07 -1
vn 2.348744E-07 -2.322609E-07 -1
vn 2.348745E-07 -2.322602E-07 -1
vn 2.348744E-07 -2.32261E-07 -1
vn 2.348743E-07 -2.322611E-07 -1
vn 2.348746E-07 -2.322605E-07 -0.9999999
vn 2.348753E-07 -2.322584E-07 -1
vn 2.348734E-07 -2.322634E-07 -0.9999999
vn 3.294528E-07 -2.654364E-10 -1
vn 2.812877E-07 1.183613E-07 -1
vn 3.303141E-07 1.848596E-09 -1
vn 3.303144E-07 1.848167E-09 -1
vn 3.30315E-07 1.847609E-09 -1
vn 3.303147E-07 1.847973E-09 -1
vn 3.303147E-07 1.848012E-09 -1
vn 3.303146E-07 1.84813E-09 -1
vn 3.303144E-07 1.848694E-09 -1
vn 2.420778E-07 2.115442E-07 -1
vn 2.322609E-07 2.348745E-07 -1
vn 2.322608E-07 2.348747E-07 -1
vn 2.322608E-07 2.348739E-07 -1
vn 2.32261E-07 2.348757E-07 -1
vn 2.322608E-07 2.348748E-07 -1
vn 2.322608E-07 2.348744E-07 -1
vn 1.720948E-07 1.934904E-07 -1
vn -1.848305E-09 3.303147E-07 -1
vn -1.848448E-09 3.303148E-07 -1
vn -1.848724E-09 3.303151E-07 -1
vn -1.84352E-09 3.303099E-07 -1
vn -1.849207E-09 3.303157E-07 -1
vn -1.848869E-09 3.303152E-07 -1
vn -1.847833E-09 3.303141E-07 -1
vn -1.847054E-09 3.303132E-07 -0.9999999
vn 1.989004E-07 8.369409E-08 -1
vn 1.989004E-07 8.36941E-08 -1
vn 1.989004E-07 8.369408E-08 -0.9999999

f 1//1 2//2 3//3
f 4//4 1//1 3//3
f 3//3 5//5 4//4
f 3//3 6//6 5//5
f 5//5 6//6 7//7
f 8//8 7//7 6//6
f 9//9 8//8 6//6
f 10//10 9//9 6//6
f 9//9 10//10 11//11
f 11//11 10//10 12//12
f 13//13 11//11 12//12
f 13//13 12//12 14//14
f 13//13 14//14 15//15
f 15//15 14//14 16//16
f 15//15 16//16 17//17
f 18//18 17//17 16//16
f 19//19 17//17 18//18
f 19//19 18//18 20//20
f 21//21 19//19 20//20
f 22//22 19//19 21//21
f 22//22 21//21 23//23
f 24//24 22//22 23//23
f 24//24 23//23 25//25
f 26//26 24//24 25//25
f 26//26 25//25 27//27
f 28//28 26//26 27//27
f 28//28 27//27 29//29
f 29//29 27//27 30//30
f 31//31 29//29 30//30
f 31//31 30//30 32//32
f 33//33 31//31 32//32
f 33//33 32//32 34//34
f 35//35 33//33 34//34
f 35//35 34//34 36//36
f 37//37 35//35 36//36
f 37//37 36//36 38//38
f 39//39 37//37 38//38
f 39//39 38//38 40//40
f 41//41 39//39 40//40
f 41//41 40//40 42//42
f 41//41 42//42 43//43
f 43//43 42//42 44//44
f 45//45 43//43 44//44
f 45//45 44//44 46//46
f 47//47 45//45 46//46
f 48//48 45//45 47//47
f 48//48 47//47 49//49
f 50//50 48//48 49//49
f 50//50 49//49 51//51
f 52//52 50//50 51//51
f 52//52 51//51 53//53
f 54//54 52//52 53//53
f 55//55 54//54 53//53
f 55//55 53//53 56//56
f 55//55 56//56 57//57
f 57//57 56//56 58//58
f 57//57 58//58 59//59
f 59//59 58//58 60//60
f 59//59 60//60 61//61
f 61//61 60//60 62//62
f 61//61 62//62 63//63
f 63//63 62//62 64//64
f 63//63 64//64 65//65
f 65//65 64//64 66//66
f 65//65 66//66 67//67
f 68//68 67//67 66//66
f 69//69 67//67 68//68
f 69//69 68//68 70//70
f 71//71 69//69 70//70
f 72//72 71//71 73//73
f 74//74 75//75 76//76
f 77//77 74//74 76//76
f 75//75 77//77 76//76
f 78//78 75//75 74//74
f 79//79 75//75 78//78
f 78//78 74//74 80//80
f 81//81 78//78 80//80
f 82//82 78//78 81//81
f 82//82 83//83 78//78
f 83//83 84//84 79//79
f 84//84 85//85 79//79
f 80//80 74//74 86//86
f 87//87 80//80 86//86
f 81//81 80//80 87//87
f 86//86 74//74 88//88
f 88//88 74//74 77//77
f 86//86 88//88 89//89
f 90//90 86//86 89//89
f 87//87 86//86 90//90
f 75//75 91//91 77//77
f 90//90 89//89 92//92
f 90//90 92//92 93//93
f 94//94 90//90 93//93
f 95//95 83//83 82//82
f 95//95 82//82 81//81
f 95//95 81//81 87//87
f 95//95 87//87 90//90
f 95//95 96//96 83//83
f 97//97 91//91 75//75
f 97//97 98//98 91//91
f 97//97 99//99 98//98
f 100//100 95//95 101//101
f 102//102 103//103 104//104
f 102//102 104//104 105//105
f 102//102 105//105 106//106
f 106//106 105//105 107//107
f 108//108 102//102 106//106
f 109//109 102//102 108//108
f 110//110 108//108 106//106
f 111//111 112//112 113//113
f 111//111 113//113 114//114
f 111//111 114//114 115//115
f 111//111 115//115 116//116
f 111//111 116//116 117//117
f 117//117 118//118 111//111
f 118//118 119//119 111//111
f 120//120 111//111 119//119
f 120//120 121//121 111//111
f 121//121 122//122 111//111
f 111//111 122//122 123//123
f 114//114 113//113 124//124
f 124//124 113//113 125//125
f 125//125 113//113 126//126
f 126//126 113//113 127//127
f 127//127 113//113 128//128
f 128//128 113//113 129//129
f 129//129 113//113 130//130
f 130//130 113//113 131//131
f 131//131 113//113 132//132
f 132//132 113//113 133//133
f 133//133 113//113 134//134
f 133//133 134//134 135//135
f 135//135 134//134 136//136
f 134//134 137//137 136//136
f 137//137 134//134 138//138
f 138//138 134//134 139//139
f 139//139 134//134 140//140
f 140//140 134//134 141//141
f 134//134 142//142 141//141
f 134//134 143//143 142//142
f 134//134 144//144 143//143
f 144//144 134//134 145//145
f 145//145 134//134 146//146
f 147//147 134//134 148//148
f 149//149 150//150 151//151
f 149//149 152//152 150//150
f 151//151 150//150 153//153
f 151//151 153//153 154//154
f 154//154 153//153 155//155
f 154//154 155//155 156//156
f 152//152 157//157 150//150
f 158//158 159//159 160//160
f 161//161 159//159 158//158
f 162//162 159//159 161//161
f 163//163 162//162 161//161
f 164//164 162//162 163//163
f 165//165 162//162 164//164
f 9//9 166//166 8//8
f 166//166 9//9 167//167
f 168//168 169//169 170//170
f 168//168 171//171 169//169
f 172//172 169//169 173//173
f 174//174 169//169 172//172
f 169//169 174//174 175//175
f 176//176 169//169 175//175
f 177//177 169//169 176//176
f 178//178 169//169 177//177
f 178//178 179//179 169//169
f 179//179 180//180 169//169
f 180//180 181//181 169//169
f 182//182 181//181 180//180
f 182//182 183//183 181//181
f 183//183 184//184 181//181
f 184//184 185//185 181//181
f 185//185 186//186 181//181
f 186//186 187//187 181//181
f 187//187 188//188 181//181
f 188//188 189//189 181//181
f 181//181 189//189 190//190
f 181//181 190//190 191//191
f 192//192 181//181 191//191
f 193//193 181//181 192//192
f 194//194 181//181 193//193
f 195//195 181//181 194//194
f 195//195 196//196 181//181
f 196//196 197//197 198//198
f 196//196 198//198 199//199
f 199//199 200//200 196//196
f 196//196 200//200 201//201
f 201//201 202//202 196//196
f 196//196 202//202 203//203
f 196//196 203//203 204//204
f 205//205 196//196 206//206
f 207//207 196//196 205//205
