v 103.2603 -9.453607 16.18032
v 103.2603 -9.45361 50.00002
v 103.2603 -9.453607 16.18032
v 103.2603 -9.453605 16.18032
v 102.0959 -6.077319 16.18032
v 101.6301 -4.726803 16.18032
v 101.6301 -4.726803 16.18032
v 101.6301 -4.726808 50.00002
v 101.6301 -4.72681 83.8197
v 101.3839 -4.711862 16.18032
v 99.41397 -4.592345 83.8197
v 101.3533 -4.710006 16.18032
v 99.13859 -4.575635 83.8197
v 101.3447 -4.709485 16.18032
v 99.06126 -4.570945 83.8197
v 101.2482 -4.703627 16.18032
v 98.19231 -4.518221 83.8197
v 100.0578 -4.631402 16.18032
v 98.06004 -4.510197 83.8197
v 98.92913 -4.562922 16.18032
v 98.79929 -4.555045 16.18032
v 97.92022 -4.501712 83.8197
v 98.52848 -4.538615 16.18032
v 97.89013 -4.499886 83.8197
v 97.81033 -4.495041 16.18032
v 97.81033 -4.495046 83.8197
v 97.67538 -4.342653 16.18032
v 97.06722 -3.655935 83.8197
v 96.59576 -3.123567 83.8197
v 97.6419 -4.304843 16.18032
v 96.29441 -2.783284 83.8197
v 97.63193 -4.293591 16.18032
v 96.20473 -2.682015 83.8197
v 97.55662 -4.208551 16.18032
v 95.52691 -1.916637 83.8197
v 96.69259 -3.232894 16.18032
v 95.43091 -1.808231 83.8197
v 95.97876 -2.426848 16.18032
v 95.35159 -1.71867 83.8197
v 95.2732 -1.630141 16.18032
v 95.2732 -1.630147 83.8197
v 95.28035 -1.512266 16.18032
v 95.33756 -0.5692735 83.8197
v 95.29637 -1.24816 16.18032
v 95.48178 1.807685 83.8197
v 95.34108 -0.5113447 16.18032
v 95.35896 -0.2166786 16.18032
v 95.48874 1.922295 83.8197
v 95.41992 0.7880812 16.18032
v 95.49551 2.033933 83.8197
v 95.47012 1.615393 16.18032
v 95.50109 2.125859 83.8197
v 95.50496 2.189671 16.18032
v 95.50496 2.189665 83.8197
v 95.50496 2.189667 83.8197
v 95.67523 2.340461 16.18032
v 97.03739 3.546774 83.8197
v 95.72535 2.384844 16.18032
v 97.48844 3.946222 83.8197
v 95.73047 2.389376 16.18032
v 97.53448 3.987 83.8197
v 95.73283 2.391476 16.18032
v 97.55584 4.005911 83.8197
v 95.73583 2.394133 16.18032
v 97.58282 4.02981 83.8197
v 95.79145 2.443384 16.18032
v 98.08337 4.473084 83.8197
v 98.36986 4.726801 16.18032
v 98.36986 4.726799 83.8197
v 98.36986 4.726804 16.18032
v 98.36986 4.726799 83.8197
v 98.36986 4.726804 16.18032
v 98.36986 4.726804 16.18032
v 97.90411 6.077319 16.18032
v 96.73972 9.453607 16.18032
v 96.73972 9.453607 16.18032
v 96.73972 9.453606 16.18032
v 98.36986 4.726804 16.18032
v 98.36986 4.726804 16.18032
v 98.36986 4.726804 16.18032
v 98.36986 4.726799 83.8197
v 98.36986 4.726799 83.8197
v 98.36986 4.726799 83.8197
v 98.36986 4.726804 16.18032
v 91.00992 4.379342 16.18032
v 98.36986 4.726804 16.18032
v 98.36986 4.726799 83.8197
v 98.36986 4.726804 16.18032
v 98.36986 4.726801 50.00002
v 98.36986 4.726799 83.8197
v 96.73972 9.453603 50.00002
v 98.36986 4.726799 83.81967
v 98.36986 4.726799 83.8197
v 97.90411 6.077312 83.8197
v 91.00992 4.379336 83.8197
v 98.36986 4.726799 83.8197
v 91.00992 4.379342 16.18032
v 96.73972 9.4536 83.8197
v 91.00992 4.379336 83.8197
v 95.50496 2.189667 83.8197
v 95.50496 2.189665 83.8197
v 103.2603 -9.45361 50.00002
v 103.2603 -9.453607 16.18032
v 103.2603 -9.453605 16.18032
v 102.0959 -6.077319 16.18032
v 101.6301 -4.726808 50.00002
v 101.6301 -4.726803 16.18032
v 102.3054 -6.684716 83.8197
v 103.2603 -9.453612 83.8197
v 101.6301 -4.72681 83.8197
v 103.2603 -9.453607 16.18032
v 95.62066 -8.990078 16.18032
v 90.54639 -3.260283 16.18032
v 97.81033 -4.495041 16.18032
v 98.52848 -4.538615 16.18032
v 98.79929 -4.555045 16.18032
v 98.92913 -4.562922 16.18032
v 100.0578 -4.631402 16.18032
v 101.2482 -4.703627 16.18032
v 101.3447 -4.709485 16.18032
v 101.3533 -4.710006 16.18032
v 101.3839 -4.711862 16.18032
v 101.6301 -4.726803 16.18032
v 97.67538 -4.342653 16.18032
v 97.6419 -4.304843 16.18032
v 97.63193 -4.293591 16.18032
v 97.55662 -4.208551 16.18032
v 96.69259 -3.232894 16.18032
v 95.97876 -2.426848 16.18032
v 95.2732 -1.630141 16.18032
v 95.28035 -1.512266 16.18032
v 95.29637 -1.24816 16.18032
v 95.34108 -0.5113447 16.18032
v 91.00992 4.379342 16.18032
v 95.35896 -0.2166786 16.18032
v 95.41992 0.7880812 16.18032
v 95.47012 1.615393 16.18032
v 95.50496 2.189671 16.18032
v 95.67523 2.340461 16.18032
v 95.72535 2.384844 16.18032
v 95.73047 2.389376 16.18032
v 95.73283 2.391476 16.18032
v 95.73583 2.394133 16.18032
v 95.79145 2.443384 16.18032
v 98.36986 4.726801 16.18032
v 98.36986 4.726804 16.18032
v 98.36986 4.726804 16.18032
v 96.73972 9.453607 16.18032
v 103.2603 -9.453607 16.18032
v 95.62066 -8.990085 83.8197
v 95.62066 -8.990078 16.18032
v 103.2603 -9.45361 50.00002
v 90.54639 -3.260288 83.8197
v 90.54639 -3.260283 16.18032
v 91.00992 4.379336 83.8197
v 91.00992 4.379342 16.18032
v 103.2603 -9.453612 83.8197
v 96.73972 9.453606 16.18032
v 98.36986 4.726801 50.00002
v 98.36986 4.726804 16.18032
v 96.73972 9.453603 50.00002
v 98.36986 4.726799 83.81967
v 96.73972 9.4536 83.8197
v 97.90411 6.077312 83.8197
v 98.36986 4.726799 83.8197
v 101.6301 -4.72681 83.8197
v 95.62066 -8.990085 83.8197
v 102.3054 -6.684716 83.8197
v 95.62066 -8.990085 83.8197
v 103.2603 -9.453612 83.8197
v 101.6301 -4.72681 83.8197
v 99.41397 -4.592345 83.8197
v 101.6301 -4.72681 83.8197
v 99.13859 -4.575635 83.8197
v 99.06126 -4.570945 83.8197
v 98.19231 -4.518221 83.8197
v 98.06004 -4.510197 83.8197
v 97.92022 -4.501712 83.8197
v 97.89013 -4.499886 83.8197
v 97.81033 -4.495046 83.8197
v 90.54639 -3.260288 83.8197
v 97.06722 -3.655935 83.8197
v 96.59576 -3.123567 83.8197
v 96.29441 -2.783284 83.8197
v 96.20473 -2.682015 83.8197
v 95.52691 -1.916637 83.8197
v 95.43091 -1.808231 83.8197
v 95.35159 -1.71867 83.8197
v 95.2732 -1.630147 83.8197
v 95.33756 -0.5692735 83.8197
v 95.48178 1.807685 83.8197
v 95.48874 1.922295 83.8197
v 95.49551 2.033933 83.8197
v 95.50109 2.125859 83.8197
v 95.50496 2.189665 83.8197
v 91.00992 4.379336 83.8197
v 95.50496 2.189667 83.8197
v 97.03739 3.546774 83.8197
v 97.48844 3.946222 83.8197
v 97.53448 3.987 83.8197
v 97.55584 4.005911 83.8197
v 97.58282 4.02981 83.8197
v 98.08337 4.473084 83.8197
v 98.36986 4.726799 83.8197
v 97.90411 6.077312 83.8197
v 98.36986 4.726799 83.8197
v 96.73972 9.4536 83.8197

vn 0.3260282 -0.9453601 -5.340572E-07
vn 0.3260282 -0.9453601 -3.814695E-07
vn 0.2475391 -0.7177709 -0.6507914
vn 0 0 -1
vn 0 0 -1
vn 0.06056774 0.9981641 6.462383E-08
vn -0.3227515 0.9358589 -0.141421
vn 0.8407912 0.5413594 1.883212E-07
vn 0.06056312 0.9981644 3.424388E-07
vn 0.06056228 0.9981645 3.013172E-07
vn 0.06056262 0.9981644 3.400592E-07
vn 0.06056364 0.9981644 4.23643E-07
vn 0.06056469 0.9981643 4.821553E-07
vn 0.06055891 0.9981647 -1.095606E-07
vn 0.06056168 0.9981645 1.780024E-07
vn 0.06056221 0.9981644 2.260705E-07
vn 0.06056207 0.9981646 2.089216E-07
vn 0.06056198 0.9981645 2.077588E-07
vn 0.06056227 0.9981645 2.217208E-07
vn 0.06056193 0.9981645 2.409156E-07
vn 0.0605631 0.9981644 2.351288E-07
vn 0.06056466 0.9981642 2.778157E-07
vn 0.06056248 0.9981644 1.673259E-07
vn 0.06056161 0.9981645 1.81142E-07
vn 0.2104251 0.9776101 1.839747E-07
vn 0.7208911 0.6930484 2.087927E-07
vn 0.7486348 0.6629828 2.638546E-07
vn 0.7486341 0.6629833 2.243663E-07
vn 0.7486339 0.6629836 2.046674E-07
vn 0.7486326 0.6629852 5.134435E-08
vn 0.7486317 0.6629861 -3.311141E-08
vn 0.7486306 0.6629874 -2.493531E-07
vn 0.7486325 0.6629853 1.725448E-08
vn 0.7486332 0.6629843 1.95488E-07
vn 0.7486337 0.662984 2.545912E-07
vn 0.7486337 0.6629838 3.133277E-07
vn 0.7486328 0.6629847 2.147517E-07
vn 0.7486334 0.6629843 2.354087E-07
vn 0.7486342 0.6629834 2.762392E-07
vn 0.790647 0.6122723 2.850269E-07
vn 0.9999855 0.005425721 1.199789E-07
vn 0.9981645 -0.06056139 7.869003E-08
vn 0.9981645 -0.06056247 1.061353E-07
vn 0.9981645 -0.06056316 1.468234E-07
vn 0.9981644 -0.06056315 1.18347E-07
vn 0.9981644 -0.06056272 1.005928E-07
vn 0.9981645 -0.06056216 -2.558145E-08
vn 0.9981645 -0.06056263 4.388409E-08
vn 0.9981646 -0.06056226 2.142637E-08
vn 0.9981644 -0.06056259 1.39089E-08
vn 0.9981645 -0.06056258 6.971243E-09
vn 0.9981645 -0.06056213 -1.713521E-09
vn 0.9666561 -0.2560787 -6.56834E-08
vn 0.9981659 -0.06053891 -3.749556E-09
vn 0.6629848 -0.748633 -1.50355E-07
vn 0.6629838 -0.7486337 -1.053244E-07
vn 0.6629836 -0.7486342 -6.84602E-08
vn 0.6629826 -0.7486349 3.948485E-08
vn 0.6629842 -0.7486336 -1.617077E-07
vn 0.6629854 -0.7486326 -4.500968E-07
vn 0.6629874 -0.7486306 -7.290806E-07
vn 0.6630213 -0.7486007 -6.344964E-06
vn 0.6630001 -0.7486195 -2.762223E-06
vn 0.6629788 -0.7486384 5.911334E-07
vn 0.6629819 -0.7486357 2.018595E-07
vn 0.662984 -0.7486337 -1.357496E-07
vn 0.6629844 -0.7486333 -1.613505E-07
vn 0.6629846 -0.7486331 -1.611313E-07
vn 0.6629884 -0.7486299 -9.115077E-08
vn 0.7790244 -0.6269938 -9.305478E-08
vn 0.3260282 -0.9453601 -1.907347E-07
vn 0.3260282 -0.9453601 -1.907347E-07
vn 0.3260282 -0.9453601 -1.907347E-07
vn 0 0 -1
vn -0.6629841 0.7486336 2.936142E-07
vn 0 0 -1
vn 0.894972 0.4461225 1.677742E-07
vn 0.2117435 -0.6139772 -0.7603925
vn 0.1836675 -0.5325671 -0.8262196
vn 0.3252043 -0.9429711 -0.07104921
vn 0.3260282 -0.9453601 -1.90735E-07
vn 0.3260282 -0.9453601 -1.907347E-07
vn 0.3260282 -0.9453601 -1.907344E-07
vn 0.3242941 -0.9403318 -0.1030029
vn 0 0 -1
vn 0.3260075 -0.9452825 -0.01266336
vn 0.3260282 -0.9453601 -1.907357E-07
vn 0.3227515 -0.9358587 -0.1414215
vn 0.326022 -0.9453623 -1.907358E-07
vn 0.3254341 -0.9436566 0.06004161
vn -0.6629841 0.7486335 2.232893E-07
vn 0.3260059 -0.9453678 -1.907376E-07
vn 2.263534E-06 -6.563404E-06 1
vn 0 0 1
vn -4.080018E-07 -1.407084E-07 1
vn 0 0 0
vn -0.6629843 0.7486336 2.130985E-07
vn -0.6629842 0.7486336 1.778031E-07
vn -0.6629843 0.7486336 2.029077E-07
vn -4.080018E-07 -1.407084E-07 1
vn -4.080018E-07 -1.407084E-07 1
vn 0.9453601 0.3260281 1.192093E-07
vn 0.9453601 0.3260281 1.192092E-07
vn 0.9453601 0.3260281 1.192093E-07
vn 0.9453601 0.3260281 1.192093E-07
vn 0.9453601 0.3260281 1.192093E-07
vn 0.9453601 0.3260281 1.192093E-07
vn 0.9453601 0.3260281 1.192093E-07
vn 0.9453601 0.3260281 1.192093E-07
vn 0.9453601 0.3260281 1.192093E-07
vn 0 0 -1
vn 0 0 -1
vn 0 0 -1
vn 0 0 -1
vn 0 0 -1
vn 0 0 -1
vn 0 0 -1
vn 0 0 -1
vn 0 0 -1
vn 0 0 -1
vn 0 0 -1
vn 0 0 -1
vn 0 0 -1
vn 0 0 -1
vn 0 0 -1
vn 0 0 -1
vn 0 0 -1
vn 0 0 -1
vn 0 0 -1
vn 0 0 -1
vn 0 0 -1
vn 0 0 -1
vn 0 0 -1
vn 0 0 -1
vn 0 0 -1
vn 0 0 -1
vn 0 0 -1
vn 0 0 -1
vn 0 0 -1
vn 0 0 -1
vn 0 0 -1
vn 0 0 -1
vn 0 0 -1
vn 0 0 -1
vn 0 0 -1
vn 0 0 -1
vn 0 0 -1
vn 0 0 -1
vn -0.06056266 -0.9981645 -3.42789E-07
vn -0.3108577 -0.9504565 -3.092419E-07
vn -0.5567788 -0.8306608 -2.619401E-07
vn -0.06056269 -0.9981644 -3.23738E-07
vn -0.8918839 -0.4522645 -1.531119E-07
vn -0.981068 -0.1936639 -7.358349E-08
vn -0.9981644 0.06056275 -7.245399E-09
vn -0.9981645 0.06056273 0
vn -0.06056256 -0.9981644 -2.570785E-07
vn 0.9453601 0.3260281 1.192093E-07
vn 0.9453601 0.3260281 1.192093E-07
vn 0.9453601 0.3260281 1.192093E-07
vn 0.9453601 0.3260281 1.192093E-07
vn 0.9453601 0.3260281 1.192093E-07
vn 0.9453601 0.3260281 1.192093E-07
vn 0.9453601 0.3260281 1.283792E-07
vn 0.9453601 0.3260281 1.283792E-07
vn -0.3192532 0.9257151 0.2028033
vn 2.402042E-07 -6.965024E-07 1
vn -2.040009E-07 -7.035416E-08 1
vn -1.845167E-07 -1.81683E-07 1
vn -2.040009E-07 -7.035417E-08 1
vn -2.040009E-07 -7.035417E-08 1
vn -2.000516E-08 -3.297133E-07 1
vn -2.000502E-08 -3.297134E-07 1
vn -2.000554E-08 -3.297129E-07 1
vn -2.000484E-08 -3.297135E-07 1
vn -2.000477E-08 -3.297135E-07 1
vn -2.000535E-08 -3.297132E-07 1
vn -2.000735E-08 -3.297122E-07 1
vn -2.000259E-08 -3.297146E-07 1
vn -2.452363E-07 -2.199964E-07 1
vn -2.885009E-07 -9.949585E-08 1
vn -2.472883E-07 -2.189962E-07 1
vn -2.472883E-07 -2.189967E-07 1
vn -2.472883E-07 -2.189975E-07 1
vn -2.472883E-07 -2.18997E-07 1
vn -2.472883E-07 -2.18997E-07 1
vn -2.472884E-07 -2.189969E-07 1
vn -2.472886E-07 -2.189963E-07 1
vn -3.214611E-07 -3.923356E-09 1
vn -3.297135E-07 2.000507E-08 1
vn -3.297136E-07 2.000526E-08 1
vn -3.29713E-07 2.00047E-08 1
vn -3.297143E-07 2.000594E-08 1
vn -3.297136E-07 2.000536E-08 1
vn -3.297134E-07 2.000506E-08 1
vn -2.572851E-07 2.931808E-08 1
vn -2.189968E-07 2.472885E-07 1
vn -2.189968E-07 2.472887E-07 1
vn -2.189968E-07 2.472891E-07 1
vn -2.189972E-07 2.472818E-07 1
vn -2.189968E-07 2.472899E-07 1
vn -2.189968E-07 2.472893E-07 1
vn -2.189968E-07 2.472878E-07 1
vn -2.189967E-07 2.472866E-07 1
vn -2.040009E-07 -7.035417E-08 1
vn -2.040009E-07 -7.035416E-08 1
vn -2.040009E-07 -7.035417E-08 1

f 1//1 2//2 3//3
f 4//4 1//1 3//3
f 3//3 5//5 4//4
f 3//3 6//6 5//5
f 5//5 6//6 7//7
f 8//8 7//7 6//6
f 9//9 8//8 6//6
f 10//10 9//9 6//6
f 9//9 10//10 11//11
f 11//11 10//10 12//12
f 13//13 11//11 12//12
f 13//13 12//12 14//14
f 13//13 14//14 15//15
f 15//15 14//14 16//16
f 15//15 16//16 17//17
f 18//18 17//17 16//16
f 19//19 17//17 18//18
f 19//19 18//18 20//20
f 21//21 19//19 20//20
f 22//22 19//19 21//21
f 22//22 21//21 23//23
f 24//24 22//22 23//23
f 24//24 23//23 25//25
f 26//26 24//24 25//25
f 26//26 25//25 27//27
f 28//28 26//26 27//27
f 28//28 27//27 29//29
f 29//29 27//27 30//30
f 31//31 29//29 30//30
f 31//31 30//30 32//32
f 33//33 31//31 32//32
f 33//33 32//32 34//34
f 35//35 33//33 34//34
f 35//35 34//34 36//36
f 37//37 35//35 36//36
f 37//37 36//36 38//38
f 39//39 37//37 38//38
f 39//39 38//38 40//40
f 41//41 39//39 40//40
f 41//41 40//40 42//42
f 41//41 42//42 43//43
f 43//43 42//42 44//44
f 45//45 43//43 44//44
f 45//45 44//44 46//46
f 47//47 45//45 46//46
f 48//48 45//45 47//47
f 48//48 47//47 49//49
f 50//50 48//48 49//49
f 50//50 49//49 51//51
f 52//52 50//50 51//51
f 52//52 51//51 53//53
f 54//54 52//52 53//53
f 55//55 54//54 53//53
f 55//55 53//53 56//56
f 55//55 56//56 57//57
f 57//57 56//56 58//58
f 57//57 58//58 59//59
f 59//59 58//58 60//60
f 59//59 60//60 61//61
f 61//61 60//60 62//62
f 61//61 62//62 63//63
f 63//63 62//62 64//64
f 63//63 64//64 65//65
f 65//65 64//64 66//66
f 65//65 66//66 67//67
f 68//68 67//67 66//66
f 69//69 67//67 68//68
f 69//69 68//68 70//70
f 71//71 69//69 70//70
f 72//72 71//71 73//73
f 74//74 75//75 76//76
f 77//77 74//74 76//76
f 75//75 77//77 76//76
f 78//78 75//75 74//74
f 79//79 75//75 78//78
f 78//78 74//74 80//80
f 81//81 78//78 80//80
f 82//82 78//78 81//81
f 82//82 83//83 78//78
f 83//83 84//84 79//79
f 84//84 85//85 79//79
f 80//80 74//74 86//86
f 87//87 80//80 86//86
f 81//81 80//80 87//87
f 86//86 74//74 88//88
f 88//88 74//74 77//77
f 86//86 88//88 89//89
f 90//90 86//86 89//89
f 87//87 86//86 90//90
f 75//75 91//91 77//77
f 90//90 89//89 92//92
f 90//90 92//92 93//93
f 94//94 90//90 93//93
f 95//95 83//83 82//82
f 95//95 82//82 81//81
f 95//95 81//81 87//87
f 95//95 87//87 90//90
f 95//95 96//96 83//83
f 97//97 91//91 75//75
f 97//97 98//98 91//91
f 97//97 99//99 98//98
f 100//100 95//95 101//101
f 102//102 103//103 104//104
f 102//102 104//104 105//105
f 102//102 105//105 106//106
f 106//106 105//105 107//107
f 108//108 102//102 106//106
f 109//109 102//102 108//108
f 110//110 108//108 106//106
f 111//111 112//112 113//113
f 111//111 113//113 114//114
f 111//111 114//114 115//115
f 111//111 115//115 116//116
f 111//111 116//116 117//117
f 117//117 118//118 111//111
f 118//118 119//119 111//111
f 120//120 111//111 119//119
f 120//120 121//121 111//111
f 121//121 122//122 111//111
f 111//111 122//122 123//123
f 114//114 113//113 124//124
f 124//124 113//113 125//125
f 125//125 113//113 126//126
f 126//126 113//113 127//127
f 127//127 113//113 128//128
f 128//128 113//113 129//129
f 129//129 113//113 130//130
f 130//130 113//113 131//131
f 131//131 113//113 132//132
f 132//132 113//113 133//133
f 133//133 113//113 134//134
f 133//133 134//134 135//135
f 135//135 134//134 136//136
f 134//134 137//137 136//136
f 137//137 134//134 138//138
f 138//138 134//134 139//139
f 139//139 134//134 140//140
f 140//140 134//134 141//141
f 134//134 142//142 141//141
f 134//134 143//143 142//142
f 134//134 144//144 143//143
f 144//144 134//134 145//145
f 145//145 134//134 146//146
f 147//147 134//134 148//148
f 149//149 150//150 151//151
f 149//149 152//152 150//150
f 151//151 150//150 153//153
f 151//151 153//153 154//154
f 154//154 153//153 155//155
f 154//154 155//155 156//156
f 152//152 157//157 150//150
f 158//158 159//159 160//160
f 161//161 159//159 158//158
f 162//162 159//159 161//161
f 163//163 162//162 161//161
f 164//164 162//162 163//163
f 165//165 162//162 164//164
f 9//9 166//166 8//8
f 166//166 9//9 167//167
f 168//168 169//169 170//170
f 168//168 171//171 169//169
f 172//172 169//169 173//173
f 174//174 169//169 172//172
f 169//169 174//174 175//175
f 176//176 169//169 175//175
f 177//177 169//169 176//176
f 178//178 169//169 177//177
f 178//178 179//179 169//169
f 179//179 180//180 169//169
f 180//180 181//181 169//169
f 182//182 181//181 180//180
f 182//182 183//183 181//181
f 183//183 184//184 181//181
f 184//184 185//185 181//181
f 185//185 186//186 181//181
f 186//186 187//187 181//181
f 187//187 188//188 181//181
f 188//188 189//189 181//181
f 181//181 189//189 190//190
f 181//181 190//190 191//191
f 192//192 181//181 191//191
f 193//193 181//181 192//192
f 194//194 181//181 193//193
f 195//195 181//181 194//194
f 195//195 196//196 181//181
f 196//196 197//197 198//198
f 196//196 198//198 199//199
f 199//199 200//200 196//196
f 196//196 200//200 201//201
f 201//201 202//202 196//196
f 196//196 202//202 203//203
f 196//196 203//203 204//204
f 205//205 196//196 206//206
f 207//207 196//196 205//205
