v 103.9353 -184.1805 202.3685
v 103.9353 -95.88866 158.2226
v 103.9353 -184.1805 202.3685
v 103.9352 -184.1805 202.3685
v 102.5298 -185.6488 199.4319
v 101.9676 -186.2362 198.2572
v 101.9676 -186.2362 198.2572
v 101.9676 -97.94431 154.1113
v 101.9676 -9.652428 109.9653
v 101.7209 -186.2349 198.2598
v 99.74754 -9.640747 109.9887
v 101.6903 -186.2347 198.2601
v 99.47166 -9.639297 109.9916
v 101.6817 -186.2347 198.2602
v 99.3942 -9.638893 109.9924
v 101.585 -186.2342 198.2612
v 98.52371 -9.634308 110.0016
v 100.3925 -186.2279 198.2738
v 98.39121 -9.633614 110.003
v 99.26183 -186.222 198.2857
v 99.13177 -186.2213 198.287
v 98.25114 -9.632874 110.0045
v 98.86048 -186.2198 198.2899
v 98.22099 -9.632721 110.0048
v 98.14105 -186.216 198.2975
v 98.14105 -9.632294 110.0056
v 97.99544 -186.2797 198.1703
v 97.33922 -9.982552 109.3051
v 96.83051 -10.20477 108.8607
v 97.95931 -186.2954 198.1387
v 96.50534 -10.3468 108.5766
v 97.94855 -186.3001 198.1293
v 96.40857 -10.38907 108.4921
v 97.86729 -186.3356 198.0583
v 95.67719 -10.70855 107.8531
v 96.93498 -186.7429 197.2438
v 95.5736 -10.7538 107.7626
v 96.16474 -187.0793 196.5709
v 95.48801 -10.79118 107.6879
v 95.40343 -187.4119 195.9058
v 95.40343 -10.82813 107.6139
v 95.40204 -187.4647 195.8002
v 95.39092 -11.30341 106.6634
v 95.39893 -187.583 195.5636
v 95.36292 -12.36829 104.5336
v 95.39024 -187.9131 194.9034
v 95.38677 -188.0451 194.6393
v 95.36156 -12.41964 104.4309
v 95.37493 -188.4953 193.7391
v 95.36024 -12.46966 104.3309
v 95.36518 -188.8659 192.9978
v 95.35916 -12.51084 104.2485
v 95.35841 -189.1232 192.4832
v 95.35841 -12.53942 104.1914
v 95.35841 -12.53943 104.1914
v 95.51733 -189.1959 192.3377
v 96.78871 -13.19431 102.8816
v 95.56411 -189.2173 192.2949
v 97.2097 -13.38706 102.4961
v 95.56889 -189.2195 192.2905
v 97.25268 -13.40674 102.4567
v 95.5711 -189.2206 192.2885
v 97.27261 -13.41586 102.4385
v 95.5739 -189.2218 192.2859
v 97.2978 -13.42739 102.4154
v 95.62581 -189.2456 192.2384
v 97.76498 -13.6413 101.9876
v 98.03237 -190.3475 190.0346
v 98.03237 -13.76373 101.7428
v 98.03237 -190.3475 190.0346
v 98.03237 -13.76373 101.7428
v 98.03237 -190.3475 190.0346
v 98.03237 -190.3475 190.0346
v 97.4702 -190.9348 188.86
v 96.06475 -192.4031 185.9233
v 96.06475 -192.4031 185.9233
v 96.06475 -192.4031 185.9233
v 98.03237 -190.3475 190.0346
v 98.03237 -190.3475 190.0346
v 98.03237 -190.3475 190.0346
v 98.03237 -13.76373 101.7428
v 98.03237 -13.76373 101.7428
v 98.03237 -13.76373 101.7428
v 98.03237 -190.3475 190.0346
v 90.71682 -189.9545 190.8205
v 98.03237 -190.3475 190.0346
v 98.03237 -13.76373 101.7428
v 98.03237 -190.3475 190.0346
v 98.03237 -102.0556 145.8887
v 98.03237 -13.76373 101.7428
v 96.06475 -104.1112 141.7774
v 98.03237 -13.76382 101.7428
v 98.03237 -13.76373 101.7428
v 97.4702 -14.35106 100.5681
v 90.71682 -13.37078 102.5287
v 98.03237 -13.76373 101.7428
v 90.71682 -189.9545 190.8205
v 96.06475 -15.81937 97.63145
v 90.71682 -13.37078 102.5287
v 95.35841 -12.53943 104.1914
v 95.35841 -12.53942 104.1914
v 103.9353 -95.88866 158.2226
v 103.9353 -184.1805 202.3685
v 103.9352 -184.1805 202.3685
v 102.5298 -185.6488 199.4319
v 101.9676 -97.94431 154.1113
v 101.9676 -186.2362 198.2572
v 102.7826 -8.800949 111.6683
v 103.9353 -7.596779 114.0766
v 101.9676 -9.652428 109.9653
v 103.9353 -184.1805 202.3685
v 96.2821 -184.1403 202.449
v 90.80685 -186.5319 197.6657
v 98.14105 -186.216 198.2975
v 98.86048 -186.2198 198.2899
v 99.13177 -186.2213 198.287
v 99.26183 -186.222 198.2857
v 100.3925 -186.2279 198.2738
v 101.585 -186.2342 198.2612
v 101.6817 -186.2347 198.2602
v 101.6903 -186.2347 198.2601
v 101.7209 -186.2349 198.2598
v 101.9676 -186.2362 198.2572
v 97.99544 -186.2797 198.1703
v 97.95931 -186.2954 198.1387
v 97.94855 -186.3001 198.1293
v 97.86729 -186.3356 198.0583
v 96.93498 -186.7429 197.2438
v 96.16474 -187.0793 196.5709
v 95.40343 -187.4119 195.9058
v 95.40204 -187.4647 195.8002
v 95.39893 -187.583 195.5636
v 95.39024 -187.9131 194.9034
v 90.71682 -189.9545 190.8205
v 95.38677 -188.0451 194.6393
v 95.37493 -188.4953 193.7391
v 95.36518 -188.8659 192.9978
v 95.35841 -189.1232 192.4832
v 95.51733 -189.1959 192.3377
v 95.56411 -189.2173 192.2949
v 95.56889 -189.2195 192.2905
v 95.5711 -189.2206 192.2885
v 95.5739 -189.2218 192.2859
v 95.62581 -189.2456 192.2384
v 98.03237 -190.3475 190.0346
v 98.03237 -190.3475 190.0346
v 98.03237 -190.3475 190.0346
v 96.06475 -192.4031 185.9233
v 103.9353 -184.1805 202.3685
v 96.28211 -7.556526 114.1572
v 96.2821 -184.1403 202.449
v 103.9353 -95.88866 158.2226
v 90.80685 -9.948196 109.3739
v 90.80685 -186.5319 197.6657
v 90.71682 -13.37078 102.5287
v 90.71682 -189.9545 190.8205
v 103.9353 -7.596779 114.0766
v 96.06475 -192.4031 185.9233
v 98.03237 -102.0556 145.8887
v 98.03237 -190.3475 190.0346
v 96.06475 -104.1112 141.7774
v 98.03237 -13.76382 101.7428
v 96.06475 -15.81937 97.63145
v 97.4702 -14.35106 100.5681
v 98.03237 -13.76373 101.7428
v 101.9676 -9.652428 109.9653
v 96.28211 -7.556526 114.1572
v 102.7826 -8.800949 111.6683
v 96.28211 -7.556526 114.1572
v 103.9353 -7.596779 114.0766
v 101.9676 -9.652428 109.9653
v 99.74754 -9.640747 109.9887
v 101.9676 -9.652428 109.9653
v 99.47166 -9.639297 109.9916
v 99.3942 -9.638893 109.9924
v 98.52371 -9.634308 110.0016
v 98.39121 -9.633614 110.003
v 98.25114 -9.632874 110.0045
v 98.22099 -9.632721 110.0048
v 98.14105 -9.632294 110.0056
v 90.80685 -9.948196 109.3739
v 97.33922 -9.982552 109.3051
v 96.83051 -10.20477 108.8607
v 96.50534 -10.3468 108.5766
v 96.40857 -10.38907 108.4921
v 95.67719 -10.70855 107.8531
v 95.5736 -10.7538 107.7626
v 95.48801 -10.79118 107.6879
v 95.40343 -10.82813 107.6139
v 95.39092 -11.30341 106.6634
v 95.36292 -12.36829 104.5336
v 95.36156 -12.41964 104.4309
v 95.36024 -12.46966 104.3309
v 95.35916 -12.51084 104.2485
v 95.35841 -12.53942 104.1914
v 90.71682 -13.37078 102.5287
v 95.35841 -12.53943 104.1914
v 96.78871 -13.19431 102.8816
v 97.2097 -13.38706 102.4961
v 97.25268 -13.40674 102.4567
v 97.27261 -13.41586 102.4385
v 97.2978 -13.42739 102.4154
v 97.76498 -13.6413 101.9876
v 98.03237 -13.76373 101.7428
v 97.4702 -14.35106 100.5681
v 98.03237 -13.76373 101.7428
v 96.06475 -15.81937 97.63145

vn 0.393525 0.4111292 0.8222596
vn 0.393525 0.4111294 0.8222595
vn 0.2987865 -0.2699326 0.9153486
vn 0 -0.8944272 0.4472136
vn 0 -0.8944272 0.4472136
vn -0.01175861 -0.4471826 -0.8943654
vn -0.38957 -0.5334885 -0.75075
vn 0.7994502 -0.2686555 -0.5373114
vn -0.01176324 -0.4471824 -0.8943654
vn -0.01176409 -0.4471824 -0.8943655
vn -0.01176374 -0.4471824 -0.8943655
vn -0.01176273 -0.4471823 -0.8943655
vn -0.01176166 -0.4471822 -0.8943655
vn -0.01176746 -0.4471827 -0.8943653
vn -0.01176468 -0.4471825 -0.8943654
vn -0.01176415 -0.4471824 -0.8943654
vn -0.0117643 -0.4471825 -0.8943655
vn -0.01176439 -0.4471825 -0.8943654
vn -0.01176409 -0.4471825 -0.8943654
vn -0.01176444 -0.4471825 -0.8943654
vn -0.01176326 -0.4471825 -0.8943654
vn -0.01176169 -0.4471824 -0.8943654
vn -0.01176388 -0.4471825 -0.8943653
vn -0.01176476 -0.4471825 -0.8943654
vn 0.1391926 -0.44286 -0.8857204
vn 0.6688966 -0.3324385 -0.6648774
vn 0.6987414 -0.319925 -0.6398504
vn 0.6987407 -0.3199252 -0.6398509
vn 0.6987405 -0.3199254 -0.6398511
vn 0.6987391 -0.3199262 -0.6398524
vn 0.6987381 -0.3199266 -0.6398531
vn 0.6987369 -0.3199273 -0.6398541
vn 0.698739 -0.3199262 -0.6398525
vn 0.6987398 -0.3199257 -0.6398517
vn 0.6987402 -0.3199255 -0.6398515
vn 0.6987402 -0.3199254 -0.6398514
vn 0.6987394 -0.3199258 -0.639852
vn 0.6987399 -0.3199256 -0.6398517
vn 0.6987408 -0.3199252 -0.6398509
vn 0.7443101 -0.2986643 -0.5973291
vn 0.996976 -0.03475341 -0.069507
vn 0.9999308 -0.005261467 -0.01052303
vn 0.9999309 -0.005260963 -0.01052208
vn 0.9999309 -0.005260615 -0.01052148
vn 0.9999308 -0.005260642 -0.01052147
vn 0.9999308 -0.005260851 -0.01052184
vn 0.9999308 -0.005261214 -0.01052229
vn 0.9999309 -0.005260947 -0.01052191
vn 0.9999309 -0.005261133 -0.01052223
vn 0.9999308 -0.005260988 -0.01052192
vn 0.9999309 -0.005261003 -0.01052194
vn 0.9999308 -0.005261205 -0.01052232
vn 0.9826408 0.08296634 0.1659329
vn 0.9999306 -0.005271614 -0.01054314
vn 0.7153763 0.3124856 0.6249716
vn 0.7153753 0.3124861 0.6249724
vn 0.7153751 0.3124863 0.6249727
vn 0.7153742 0.3124867 0.6249734
vn 0.7153757 0.3124859 0.6249722
vn 0.7153769 0.3124852 0.6249713
vn 0.7153787 0.312484 0.6249696
vn 0.7154103 0.3124645 0.6249432
vn 0.7153905 0.3124768 0.6249598
vn 0.7153706 0.3124889 0.6249765
vn 0.7153735 0.3124872 0.6249741
vn 0.7153754 0.312486 0.6249723
vn 0.7153758 0.3124858 0.624972
vn 0.7153761 0.3124857 0.6249718
vn 0.7153796 0.3124842 0.6249686
vn 0.8223176 0.2544774 0.508955
vn 0.393525 0.4111295 0.8222594
vn 0.393525 0.4111295 0.8222594
vn 0.393525 0.4111295 0.8222594
vn 0 -0.8944272 0.4472136
vn -0.7153757 -0.3124858 -0.6249723
vn 0 -0.8944272 0.4472136
vn 0.8603747 -0.2279277 -0.4558556
vn 0.2555803 -0.4131018 0.8740855
vn 0.2216917 -0.5073839 0.832715
vn 0.3925305 0.3465424 0.8519555
vn 0.393525 0.4111295 0.8222594
vn 0.393525 0.4111295 0.8222594
vn 0.393525 0.4111295 0.8222594
vn 0.3914319 0.3168143 0.8639501
vn 0 -0.8944272 0.4472136
vn 0.3934988 0.3997692 0.8278546
vn 0.393525 0.4111295 0.8222594
vn 0.3895699 0.2805064 0.8772408
vn 0.393519 0.4111307 0.8222618
vn 0.3928093 0.4640919 0.7939267
vn -0.7153756 -0.3124858 -0.6249722
vn 0.3935033 0.4111337 0.8222678
vn 2.732148E-06 0.89443 -0.4472079
vn 0 0.8944272 -0.4472136
vn -3.967607E-07 0.8944273 -0.4472134
vn 0 0 0
vn -0.7153757 -0.3124858 -0.6249722
vn -0.7153757 -0.3124859 -0.6249722
vn -0.7153757 -0.3124859 -0.6249723
vn -3.967607E-07 0.8944273 -0.4472134
vn -3.967607E-07 0.8944273 -0.4472134
vn 0.9193139 -0.1759897 -0.3519795
vn 0.9193139 -0.1759897 -0.3519795
vn 0.9193139 -0.1759897 -0.3519795
vn 0.9193139 -0.1759897 -0.3519795
vn 0.9193139 -0.1759897 -0.3519795
vn 0.9193139 -0.1759897 -0.3519795
vn 0.9193139 -0.1759897 -0.3519795
vn 0.9193139 -0.1759897 -0.3519795
vn 0.9193139 -0.1759897 -0.3519795
vn 0 -0.8944272 0.4472136
vn 0 -0.8944272 0.4472136
vn 0 -0.8944272 0.4472136
vn 0 -0.8944272 0.4472136
vn 0 -0.8944272 0.4472136
vn 0 -0.8944272 0.4472136
vn 0 -0.8944272 0.4472136
vn 0 -0.8944272 0.4472136
vn 0 -0.8944272 0.4472136
vn 0 -0.8944272 0.4472136
vn 0 -0.8944272 0.4472136
vn 0 -0.8944272 0.4472136
vn 0 -0.8944272 0.4472136
vn 0 -0.8944272 0.4472136
vn 0 -0.8944272 0.4472136
vn 0 -0.8944272 0.4472136
vn 0 -0.8944272 0.4472136
vn 0 -0.8944272 0.4472136
vn 0 -0.8944272 0.4472136
vn 0 -0.8944272 0.4472136
vn 0 -0.8944272 0.4472136
vn 0 -0.8944272 0.4472136
vn 0 -0.8944272 0.4472136
vn 0 -0.8944272 0.4472136
vn 0 -0.8944272 0.4472136
vn 0 -0.8944272 0.4472136
vn 0 -0.8944272 0.4472136
vn 0 -0.8944272 0.4472136
vn 0 -0.8944272 0.4472136
vn 0 -0.8944272 0.4472136
vn 0 -0.8944272 0.4472136
vn 0 -0.8944272 0.4472136
vn 0 -0.8944272 0.4472136
vn 0 -0.8944272 0.4472136
vn 0 -0.8944272 0.4472136
vn 0 -0.8944272 0.4472136
vn 0 -0.8944272 0.4472136
vn 0 -0.8944272 0.4472136
vn 0.01176371 0.4471824 0.8943655
vn -0.2413256 0.4339956 0.8679919
vn -0.4952644 0.3885132 0.7770268
vn 0.01176367 0.4471823 0.8943654
vn -0.8568507 0.2305674 0.4611351
vn -0.9644984 0.1181042 0.2362084
vn -0.9999308 0.005260922 0.01052178
vn -0.9999309 0.005260939 0.01052179
vn 0.0117638 0.4471824 0.8943654
vn 0.9193139 -0.1759897 -0.3519795
vn 0.9193139 -0.1759897 -0.3519795
vn 0.9193139 -0.1759897 -0.3519795
vn 0.9193139 -0.1759897 -0.3519795
vn 0.9193139 -0.1759897 -0.3519795
vn 0.9193139 -0.1759897 -0.3519795
vn 0.9193139 -0.1759897 -0.3519795
vn 0.9193139 -0.1759897 -0.3519795
vn -0.3853474 -0.2211935 -0.8958688
vn 2.89933E-07 0.8944275 -0.447213
vn -1.983803E-07 0.8944272 -0.4472135
vn -1.70898E-07 0.8944273 -0.4472134
vn -1.983803E-07 0.8944272 -0.4472135
vn -1.983803E-07 0.8944272 -0.4472135
vn 3.885662E-09 0.8944274 -0.4472133
vn 3.88581E-09 0.8944274 -0.4472133
vn 3.88525E-09 0.8944274 -0.4472133
vn 3.885985E-09 0.8944274 -0.4472133
vn 3.88606E-09 0.8944274 -0.4472133
vn 3.885463E-09 0.8944273 -0.4472133
vn 3.883392E-09 0.8944274 -0.4472133
vn 3.888312E-09 0.8944273 -0.4472133
vn -2.286886E-07 0.8944273 -0.4472134
vn -2.805523E-07 0.8944272 -0.4472135
vn -2.308076E-07 0.8944273 -0.4472134
vn -2.308075E-07 0.8944273 -0.4472134
vn -2.308075E-07 0.8944273 -0.4472134
vn -2.308075E-07 0.8944273 -0.4472134
vn -2.308075E-07 0.8944273 -0.4472134
vn -2.308076E-07 0.8944273 -0.4472134
vn -2.308078E-07 0.8944273 -0.4472134
vn -3.203361E-07 0.8944272 -0.4472136
vn -3.30297E-07 0.8944272 -0.4472136
vn -3.30297E-07 0.8944272 -0.4472136
vn -3.302964E-07 0.8944272 -0.4472136
vn -3.302979E-07 0.8944272 -0.4472136
vn -3.302971E-07 0.8944272 -0.4472136
vn -3.302968E-07 0.8944272 -0.4472136
vn -2.587315E-07 0.8944272 -0.4472136
vn -2.363028E-07 0.8944271 -0.4472138
vn -2.363028E-07 0.8944271 -0.4472138
vn -2.363028E-07 0.8944271 -0.4472138
vn -2.363027E-07 0.8944271 -0.4472138
vn -2.363029E-07 0.8944271 -0.4472138
vn -2.363028E-07 0.8944271 -0.4472138
vn -2.363027E-07 0.8944271 -0.4472138
vn -2.363026E-07 0.8944271 -0.4472138
vn -1.983803E-07 0.8944272 -0.4472135
vn -1.983804E-07 0.8944272 -0.4472135
vn -1.983803E-07 0.8944272 -0.4472135

f 1//1 2//2 3//3
f 4//4 1//1 3//3
f 3//3 5//5 4//4
f 3//3 6//6 5//5
f 5//5 6//6 7//7
f 8//8 7//7 6//6
f 9//9 8//8 6//6
f 10//10 9//9 6//6
f 9//9 10//10 11//11
f 11//11 10//10 12//12
f 13//13 11//11 12//12
f 13//13 12//12 14//14
f 13//13 14//14 15//15
f 15//15 14//14 16//16
f 15//15 16//16 17//17
f 18//18 17//17 16//16
f 19//19 17//17 18//18
f 19//19 18//18 20//20
f 21//21 19//19 20//20
f 22//22 19//19 21//21
f 22//22 21//21 23//23
f 24//24 22//22 23//23
f 24//24 23//23 25//25
f 26//26 24//24 25//25
f 26//26 25//25 27//27
f 28//28 26//26 27//27
f 28//28 27//27 29//29
f 29//29 27//27 30//30
f 31//31 29//29 30//30
f 31//31 30//30 32//32
f 33//33 31//31 32//32
f 33//33 32//32 34//34
f 35//35 33//33 34//34
f 35//35 34//34 36//36
f 37//37 35//35 36//36
f 37//37 36//36 38//38
f 39//39 37//37 38//38
f 39//39 38//38 40//40
f 41//41 39//39 40//40
f 41//41 40//40 42//42
f 41//41 42//42 43//43
f 43//43 42//42 44//44
f 45//45 43//43 44//44
f 45//45 44//44 46//46
f 47//47 45//45 46//46
f 48//48 45//45 47//47
f 48//48 47//47 49//49
f 50//50 48//48 49//49
f 50//50 49//49 51//51
f 52//52 50//50 51//51
f 52//52 51//51 53//53
f 54//54 52//52 53//53
f 55//55 54//54 53//53
f 55//55 53//53 56//56
f 55//55 56//56 57//57
f 57//57 56//56 58//58
f 57//57 58//58 59//59
f 59//59 58//58 60//60
f 59//59 60//60 61//61
f 61//61 60//60 62//62
f 61//61 62//62 63//63
f 63//63 62//62 64//64
f 63//63 64//64 65//65
f 65//65 64//64 66//66
f 65//65 66//66 67//67
f 68//68 67//67 66//66
f 69//69 67//67 68//68
f 69//69 68//68 70//70
f 71//71 69//69 70//70
f 72//72 71//71 73//73
f 74//74 75//75 76//76
f 77//77 74//74 76//76
f 75//75 77//77 76//76
f 78//78 75//75 74//74
f 79//79 75//75 78//78
f 78//78 74//74 80//80
f 81//81 78//78 80//80
f 82//82 78//78 81//81
f 82//82 83//83 78//78
f 83//83 84//84 79//79
f 84//84 85//85 79//79
f 80//80 74//74 86//86
f 87//87 80//80 86//86
f 81//81 80//80 87//87
f 86//86 74//74 88//88
f 88//88 74//74 77//77
f 86//86 88//88 89//89
f 90//90 86//86 89//89
f 87//87 86//86 90//90
f 75//75 91//91 77//77
f 90//90 89//89 92//92
f 90//90 92//92 93//93
f 94//94 90//90 93//93
f 95//95 83//83 82//82
f 95//95 82//82 81//81
f 95//95 81//81 87//87
f 95//95 87//87 90//90
f 95//95 96//96 83//83
f 97//97 91//91 75//75
f 97//97 98//98 91//91
f 97//97 99//99 98//98
f 100//100 95//95 101//101
f 102//102 103//103 104//104
f 102//102 104//104 105//105
f 102//102 105//105 106//106
f 106//106 105//105 107//107
f 108//108 102//102 106//106
f 109//109 102//102 108//108
f 110//110 108//108 106//106
f 111//111 112//112 113//113
f 111//111 113//113 114//114
f 111//111 114//114 115//115
f 111//111 115//115 116//116
f 111//111 116//116 117//117
f 117//117 118//118 111//111
f 118//118 119//119 111//111
f 120//120 111//111 119//119
f 120//120 121//121 111//111
f 121//121 122//122 111//111
f 111//111 122//122 123//123
f 114//114 113//113 124//124
f 124//124 113//113 125//125
f 125//125 113//113 126//126
f 126//126 113//113 127//127
f 127//127 113//113 128//128
f 128//128 113//113 129//129
f 129//129 113//113 130//130
f 130//130 113//113 131//131
f 131//131 113//113 132//132
f 132//132 113//113 133//133
f 133//133 113//113 134//134
f 133//133 134//134 135//135
f 135//135 134//134 136//136
f 134//134 137//137 136//136
f 137//137 134//134 138//138
f 138//138 134//134 139//139
f 139//139 134//134 140//140
f 140//140 134//134 141//141
f 134//134 142//142 141//141
f 134//134 143//143 142//142
f 134//134 144//144 143//143
f 144//144 134//134 145//145
f 145//145 134//134 146//146
f 147//147 134//134 148//148
f 149//149 150//150 151//151
f 149//149 152//152 150//150
f 151//151 150//150 153//153
f 151//151 153//153 154//154
f 154//154 153//153 155//155
f 154//154 155//155 156//156
f 152//152 157//157 150//150
f 158//158 159//159 160//160
f 161//161 159//159 158//158
f 162//162 159//159 161//161
f 163//163 162//162 161//161
f 164//164 162//162 163//163
f 165//165 162//162 164//164
f 9//9 166//166 8//8
f 166//166 9//9 167//167
f 168//168 169//169 170//170
f 168//168 171//171 169//169
f 172//172 169//169 173//173
f 174//174 169//169 172//172
f 169//169 174//174 175//175
f 176//176 169//169 175//175
f 177//177 169//169 176//176
f 178//178 169//169 177//177
f 178//178 179//179 169//169
f 179//179 180//180 169//169
f 180//180 181//181 169//169
f 182//182 181//181 180//180
f 182//182 183//183 181//181
f 183//183 184//184 181//181
f 184//184 185//185 181//181
f 185//185 186//186 181//181
f 186//186 187//187 181//181
f 187//187 188//188 181//181
f 188//188 189//189 181//181
f 181//181 189//189 190//190
f 181//181 190//190 191//191
f 192//192 181//181 191//191
f 193//193 181//181 192//192
f 194//194 181//181 193//193
f 195//195 181//181 194//194
f 195//195 196//196 181//181
f 196//196 197//197 198//198
f 196//196 198//198 199//199
f 199//199 200//200 196//196
f 196//196 200//200 201//201
f 201//201 202//202 196//196
f 196//196 202//202 203//203
f 196//196 203//203 204//204
f 205//205 196//196 206//206
f 207//207 196//196 205//205
