v 90.00003 205.8165 -191.8656
v 49.99998 205.8165 -191.8656
v 90.00003 205.8165 -191.8656
v 90.00003 205.8165 -191.8656
v 90.00003 203.7392 -194.7708
v 90.00003 202.9083 -195.9328
v 90.00003 202.9083 -195.9328
v 49.99998 202.9083 -195.9328
v 9.999931 202.9083 -195.9328
v 90.00003 202.668 -195.877
v 9.999931 200.7455 -195.4308
v 90.00003 202.6381 -195.8701
v 9.999931 200.4768 -195.3685
v 90.00003 202.6297 -195.8682
v 9.999931 200.4013 -195.3509
v 90.00003 202.5355 -195.8463
v 9.999931 199.5533 -195.1541
v 90.00003 201.3738 -195.5767
v 9.999931 199.4242 -195.1242
v 90.00003 200.2724 -195.321
v 90.00003 200.1456 -195.2916
v 9.999931 199.2878 -195.0925
v 90.00003 199.8814 -195.2303
v 9.999931 199.2584 -195.0857
v 90.00003 199.1805 -195.0676
v 9.999931 199.1805 -195.0676
v 90.00003 199.0078 -195.1753
v 9.999931 198.2293 -195.6605
v 9.999931 197.6258 -196.0366
v 90.00003 198.9649 -195.202
v 9.999931 197.24 -196.277
v 90.00003 198.9521 -195.2099
v 9.999931 197.1252 -196.3486
v 90.00003 198.8557 -195.27
v 9.999931 196.2576 -196.8893
v 90.00003 197.7497 -195.9594
v 9.999931 196.1347 -196.9659
v 90.00003 196.836 -196.5288
v 9.999931 196.0332 -197.0292
v 90.00003 195.9328 -197.0917
v 9.999931 195.9328 -197.0917
v 90.00003 195.9061 -197.2068
v 9.999931 195.6925 -198.127
v 90.00003 195.8463 -197.4645
v 9.999931 195.1541 -200.4467
v 90.00003 195.6794 -198.1836
v 90.00003 195.6127 -198.4711
v 9.999931 195.1282 -200.5585
v 90.00003 195.3851 -199.4517
v 9.999931 195.1029 -200.6675
v 90.00003 195.1977 -200.259
v 9.999931 195.0821 -200.7572
v 90.00003 195.0676 -200.8195
v 9.999931 195.0676 -200.8195
v 9.999931 195.0676 -200.8195
v 90.00003 195.1879 -201.0125
v 9.999931 196.1503 -202.5567
v 90.00003 195.2233 -201.0693
v 9.999931 196.469 -203.068
v 90.00003 195.2269 -201.0751
v 9.999931 196.5015 -203.1202
v 90.00003 195.2286 -201.0778
v 9.999931 196.5166 -203.1444
v 90.00003 195.2307 -201.0812
v 9.999931 196.5357 -203.175
v 90.00003 195.27 -201.1443
v 9.999931 196.8893 -203.7424
v 90.00003 197.0917 -204.0672
v 9.999931 197.0917 -204.0672
v 90.00003 197.0917 -204.0672
v 9.999931 197.0917 -204.0672
v 90.00003 197.0917 -204.0672
v 90.00003 197.0917 -204.0672
v 90.00003 196.2608 -205.2292
v 90.00003 194.1835 -208.1344
v 90.00003 194.1835 -208.1344
v 90.00003 194.1835 -208.1344
v 90.00003 197.0917 -204.0672
v 90.00003 197.0917 -204.0672
v 90.00003 197.0917 -204.0672
v 9.999931 197.0917 -204.0672
v 9.999931 197.0917 -204.0672
v 9.999931 197.0917 -204.0672
v 90.00003 197.0917 -204.0672
v 90.00003 190.1352 -201.639
v 90.00003 197.0917 -204.0672
v 9.999931 197.0917 -204.0672
v 90.00003 197.0917 -204.0672
v 49.99998 197.0917 -204.0672
v 9.999931 197.0917 -204.0672
v 49.99998 194.1835 -208.1344
v 9.999969 197.0917 -204.0672
v 9.999931 197.0917 -204.0672
v 9.999931 196.2608 -205.2292
v 9.999939 190.1352 -201.639
v 9.999931 197.0917 -204.0672
v 90.00003 190.1352 -201.639
v 9.999931 194.1835 -208.1344
v 9.999939 190.1352 -201.639
v 9.999931 195.0676 -200.8195
v 9.999931 195.0676 -200.8195
v 49.99998 205.8165 -191.8656
v 90.00003 205.8165 -191.8656
v 90.00003 205.8165 -191.8656
v 90.00003 203.7392 -194.7708
v 49.99998 202.9083 -195.9328
v 90.00003 202.9083 -195.9328
v 9.999931 204.1129 -194.2481
v 9.999931 205.8165 -191.8656
v 9.999931 202.9083 -195.9328
v 90.00003 205.8165 -191.8656
v 90.00003 198.361 -190.1352
v 90.00003 191.8656 -194.1835
v 90.00003 199.1805 -195.0676
v 90.00003 199.8814 -195.2303
v 90.00003 200.1456 -195.2916
v 90.00003 200.2724 -195.321
v 90.00003 201.3738 -195.5767
v 90.00003 202.5355 -195.8463
v 90.00003 202.6297 -195.8682
v 90.00003 202.6381 -195.8701
v 90.00003 202.668 -195.877
v 90.00003 202.9083 -195.9328
v 90.00003 199.0078 -195.1753
v 90.00003 198.9649 -195.202
v 90.00003 198.9521 -195.2099
v 90.00003 198.8557 -195.27
v 90.00003 197.7497 -195.9594
v 90.00003 196.836 -196.5288
v 90.00003 195.9328 -197.0917
v 90.00003 195.9061 -197.2068
v 90.00003 195.8463 -197.4645
v 90.00003 195.6794 -198.1836
v 90.00003 190.1352 -201.639
v 90.00003 195.6127 -198.4711
v 90.00003 195.3851 -199.4517
v 90.00003 195.1977 -200.259
v 90.00003 195.0676 -200.8195
v 90.00003 195.1879 -201.0125
v 90.00003 195.2233 -201.0693
v 90.00003 195.2269 -201.0751
v 90.00003 195.2286 -201.0778
v 90.00003 195.2307 -201.0812
v 90.00003 195.27 -201.1443
v 90.00003 197.0917 -204.0672
v 90.00003 197.0917 -204.0672
v 90.00003 197.0917 -204.0672
v 90.00003 194.1835 -208.1344
v 90.00003 205.8165 -191.8656
v 9.999939 198.361 -190.1352
v 90.00003 198.361 -190.1352
v 49.99998 205.8165 -191.8656
v 9.999939 191.8656 -194.1835
v 90.00003 191.8656 -194.1835
v 9.999939 190.1352 -201.639
v 90.00003 190.1352 -201.639
v 9.999931 205.8165 -191.8656
v 90.00003 194.1835 -208.1344
v 49.99998 197.0917 -204.0672
v 90.00003 197.0917 -204.0672
v 49.99998 194.1835 -208.1344
v 9.999969 197.0917 -204.0672
v 9.999931 194.1835 -208.1344
v 9.999931 196.2608 -205.2292
v 9.999931 197.0917 -204.0672
v 9.999931 202.9083 -195.9328
v 9.999939 198.361 -190.1352
v 9.999931 204.1129 -194.2481
v 9.999939 198.361 -190.1352
v 9.999931 205.8165 -191.8656
v 9.999931 202.9083 -195.9328
v 9.999931 200.7455 -195.4308
v 9.999931 202.9083 -195.9328
v 9.999931 200.4768 -195.3685
v 9.999931 200.4013 -195.3509
v 9.999931 199.5533 -195.1541
v 9.999931 199.4242 -195.1242
v 9.999931 199.2878 -195.0925
v 9.999931 199.2584 -195.0857
v 9.999931 199.1805 -195.0676
v 9.999939 191.8656 -194.1835
v 9.999931 198.2293 -195.6605
v 9.999931 197.6258 -196.0366
v 9.999931 197.24 -196.277
v 9.999931 197.1252 -196.3486
v 9.999931 196.2576 -196.8893
v 9.999931 196.1347 -196.9659
v 9.999931 196.0332 -197.0292
v 9.999931 195.9328 -197.0917
v 9.999931 195.6925 -198.127
v 9.999931 195.1541 -200.4467
v 9.999931 195.1282 -200.5585
v 9.999931 195.1029 -200.6675
v 9.999931 195.0821 -200.7572
v 9.999931 195.0676 -200.8195
v 9.999939 190.1352 -201.639
v 9.999931 195.0676 -200.8195
v 9.999931 196.1503 -202.5567
v 9.999931 196.469 -203.068
v 9.999931 196.5015 -203.1202
v 9.999931 196.5166 -203.1444
v 9.999931 196.5357 -203.175
v 9.999931 196.8893 -203.7424
v 9.999931 197.0917 -204.0672
v 9.999931 196.2608 -205.2292
v 9.999931 197.0917 -204.0672
v 9.999931 194.1835 -208.1344

vn 5.936619E-07 0.5816523 0.8134377
vn 4.410741E-07 0.5816523 0.8134377
vn 0.6507915 0.4416233 0.6176079
vn 1 2.980232E-08 -5.960464E-08
vn 1 2.980232E-08 -5.960464E-08
vn -1.082862E-07 -0.2260828 -0.9741082
vn 0.1414209 -0.5758064 -0.8052624
vn -1.735383E-07 0.6518973 -0.7583072
vn -3.861014E-07 -0.2260873 -0.9741071
vn -3.449799E-07 -0.2260881 -0.974107
vn -3.837219E-07 -0.2260877 -0.9741071
vn -4.673056E-07 -0.2260868 -0.9741073
vn -5.258178E-07 -0.2260857 -0.9741075
vn 6.589774E-08 -0.2260914 -0.9741063
vn -2.216651E-07 -0.2260887 -0.9741068
vn -2.697332E-07 -0.2260881 -0.974107
vn -2.525844E-07 -0.2260883 -0.974107
vn -2.514215E-07 -0.2260884 -0.9741069
vn -2.653835E-07 -0.2260881 -0.974107
vn -2.845783E-07 -0.2260884 -0.974107
vn -2.787915E-07 -0.2260873 -0.9741072
vn -3.214782E-07 -0.2260857 -0.9741075
vn -2.109885E-07 -0.2260879 -0.974107
vn -2.248047E-07 -0.2260887 -0.9741068
vn -2.195444E-07 -0.07657448 -0.9970641
vn -2.067913E-07 0.493777 -0.8695886
vn -2.591304E-07 0.5289315 -0.8486646
vn -2.196421E-07 0.5289308 -0.8486649
vn -1.999433E-07 0.5289305 -0.8486652
vn -4.662038E-08 0.5289288 -0.8486664
vn 3.78353E-08 0.5289276 -0.848667
vn 2.540769E-07 0.5289262 -0.8486679
vn -1.253052E-08 0.5289286 -0.8486664
vn -1.90764E-07 0.5289296 -0.8486657
vn -2.498671E-07 0.5289301 -0.8486655
vn -3.086036E-07 0.5289302 -0.8486654
vn -2.100277E-07 0.5289292 -0.848666
vn -2.306846E-07 0.5289298 -0.8486657
vn -2.715151E-07 0.5289308 -0.848665
vn -2.75938E-07 0.5836412 -0.8120117
vn -7.262587E-08 0.9570678 -0.2898644
vn -2.834664E-08 0.9741066 -0.226089
vn -5.579184E-08 0.9741069 -0.226088
vn -9.647995E-08 0.9741071 -0.2260873
vn -6.800352E-08 0.974107 -0.2260873
vn -5.024938E-08 0.9741069 -0.2260877
vn 7.592488E-08 0.9741068 -0.2260883
vn 6.459365E-09 0.974107 -0.2260878
vn 2.891707E-08 0.9741069 -0.2260882
vn 3.643455E-08 0.9741068 -0.2260878
vn 4.337221E-08 0.974107 -0.2260879
vn 5.205695E-08 0.9741068 -0.2260883
vn 1.23644E-07 0.9995592 -0.02969156
vn 5.409197E-08 0.9741015 -0.226111
vn 2.168274E-07 0.848666 0.5289293
vn 1.717968E-07 0.8486652 0.5289304
vn 1.349326E-07 0.8486651 0.5289308
vn 2.69875E-08 0.8486643 0.5289318
vn 2.281801E-07 0.8486655 0.5289301
vn 5.165692E-07 0.8486664 0.5289288
vn 7.95553E-07 0.8486677 0.5289264
vn 6.411437E-06 0.8486917 0.528888
vn 2.828696E-06 0.8486767 0.5289121
vn -5.246611E-07 0.8486617 0.5289363
vn -1.353872E-07 0.8486639 0.5289328
vn 2.022219E-07 0.8486653 0.5289303
vn 2.278229E-07 0.8486657 0.5289298
vn 2.276036E-07 0.8486658 0.5289296
vn 1.576232E-07 0.8486685 0.5289253
vn 1.593792E-07 0.9252779 0.3792902
vn 2.503394E-07 0.5816523 0.8134377
vn 2.503394E-07 0.5816523 0.8134377
vn 2.503394E-07 0.5816523 0.8134377
vn 1 2.980232E-08 -5.960464E-08
vn -3.600866E-07 -0.8486655 -0.5289301
vn 1 2.980232E-08 -5.960464E-08
vn -1.459709E-07 0.7309473 -0.6824341
vn 0.7603925 0.3777621 0.5282983
vn 0.8262196 0.3276729 0.4582487
vn 0.07104927 0.5801823 0.811382
vn 2.503397E-07 0.5816523 0.8134377
vn 2.503394E-07 0.5816523 0.8134377
vn 2.50339E-07 0.5816523 0.8134377
vn 0.1030029 0.5785585 0.8091111
vn 1 2.980232E-08 -5.960464E-08
vn 0.01266342 0.5816103 0.8133692
vn 2.503404E-07 0.5816523 0.8134377
vn 0.1414216 0.5758063 0.8052622
vn 2.503402E-07 0.5816469 0.8134416
vn -0.06004155 0.5805978 0.8119738
vn -2.897616E-07 -0.8486654 -0.5289301
vn 2.503415E-07 0.581633 0.8134515
vn -1 4.008467E-06 5.707104E-06
vn -1 -2.980232E-08 5.960464E-08
vn -1 -3.808686E-07 3.106362E-07
vn 0 0 0
vn -2.795709E-07 -0.8486655 -0.5289301
vn -2.442755E-07 -0.8486655 -0.5289301
vn -2.693801E-07 -0.8486656 -0.5289301
vn -1 -3.808686E-07 3.106362E-07
vn -1 -3.808686E-07 3.106362E-07
vn -8.940695E-08 0.8134376 -0.5816522
vn -8.940692E-08 0.8134375 -0.5816522
vn -8.940695E-08 0.8134376 -0.5816522
vn -8.940695E-08 0.8134376 -0.5816522
vn -8.940697E-08 0.8134376 -0.5816522
vn -8.940694E-08 0.8134376 -0.5816522
vn -8.940698E-08 0.8134376 -0.5816522
vn -8.940697E-08 0.8134376 -0.5816522
vn -8.940698E-08 0.8134376 -0.5816522
vn 1 2.980232E-08 -5.960464E-08
vn 1 2.980232E-08 -5.960464E-08
vn 1 2.980232E-08 -5.960464E-08
vn 1 2.980232E-08 -5.960464E-08
vn 1 2.980232E-08 -5.960464E-08
vn 1 2.980232E-08 -5.960464E-08
vn 1 2.980232E-08 -5.960464E-08
vn 1 2.980232E-08 -5.960464E-08
vn 1 2.980232E-08 -5.960464E-08
vn 1 2.980232E-08 -5.960464E-08
vn 1 2.980232E-08 -5.960464E-08
vn 1 2.980232E-08 -5.960464E-08
vn 1 2.980232E-08 -5.960464E-08
vn 1 2.980232E-08 -5.960464E-08
vn 1 2.980232E-08 -5.960464E-08
vn 1 2.980232E-08 -5.960464E-08
vn 1 2.980232E-08 -5.960464E-08
vn 1 2.980232E-08 -5.960464E-08
vn 1 2.980232E-08 -5.960464E-08
vn 1 2.980232E-08 -5.960464E-08
vn 1 2.980232E-08 -5.960464E-08
vn 1 2.980232E-08 -5.960464E-08
vn 1 2.980232E-08 -5.960464E-08
vn 1 2.980232E-08 -5.960464E-08
vn 1 2.980232E-08 -5.960464E-08
vn 1 2.980232E-08 -5.960464E-08
vn 1 2.980232E-08 -5.960464E-08
vn 1 2.980232E-08 -5.960464E-08
vn 1 2.980232E-08 -5.960464E-08
vn 1 2.980232E-08 -5.960464E-08
vn 1 2.980232E-08 -5.960464E-08
vn 1 2.980232E-08 -5.960464E-08
vn 1 2.980232E-08 -5.960464E-08
vn 1 2.980232E-08 -5.960464E-08
vn 1 2.980232E-08 -5.960464E-08
vn 1 2.980232E-08 -5.960464E-08
vn 1 2.980232E-08 -5.960464E-08
vn 1 2.980232E-08 -5.960464E-08
vn 3.864517E-07 0.2260877 0.9741071
vn 3.387642E-07 -0.02743256 0.9996238
vn 2.741686E-07 -0.2972809 0.9547901
vn 3.674007E-07 0.2260877 0.974107
vn 1.31742E-07 -0.7262385 0.6874429
vn 3.59089E-08 -0.8853478 0.4649293
vn -4.309805E-08 -0.9741069 0.2260877
vn -5.034346E-08 -0.974107 0.2260877
vn 3.007412E-07 0.2260878 0.974107
vn -8.940696E-08 0.8134376 -0.5816522
vn -8.940697E-08 0.8134376 -0.5816522
vn -8.940695E-08 0.8134376 -0.5816522
vn -8.940695E-08 0.8134376 -0.5816522
vn -8.940698E-08 0.8134376 -0.5816523
vn -8.940698E-08 0.8134376 -0.5816523
vn -9.857692E-08 0.8134376 -0.5816522
vn -9.857692E-08 0.8134375 -0.5816522
vn -0.2028033 -0.5695652 -0.7965341
vn -1 3.987351E-07 6.58912E-07
vn -1 -2.053354E-07 1.851204E-07
vn -1 -1.549657E-07 2.862967E-07
vn -1 -2.053354E-07 1.851204E-07
vn -1 -2.053354E-07 1.851204E-07
vn -1 4.487878E-08 3.813714E-07
vn -1 4.487894E-08 3.813714E-07
vn -1 4.48783E-08 3.813711E-07
vn -1 4.487912E-08 3.813714E-07
vn -1 4.48792E-08 3.813715E-07
vn -1 4.487857E-08 3.813714E-07
vn -1 4.487634E-08 3.813709E-07
vn -1 4.488159E-08 3.813718E-07
vn -1 -2.022666E-07 3.403097E-07
vn -1 -2.780437E-07 2.371108E-07
vn -1 -2.045184E-07 3.399351E-07
vn -1 -2.045182E-07 3.399356E-07
vn -1 -2.04518E-07 3.399363E-07
vn -1 -2.045181E-07 3.399359E-07
vn -1 -2.045182E-07 3.399359E-07
vn -1 -2.045182E-07 3.399358E-07
vn -1 -2.045186E-07 3.399353E-07
vn -1 -3.368465E-07 1.548751E-07
vn -1 -3.515692E-07 1.342859E-07
vn -1 -3.515693E-07 1.342857E-07
vn -1 -3.515686E-07 1.342861E-07
vn -1 -3.515702E-07 1.342853E-07
vn -1 -3.515694E-07 1.342857E-07
vn -1 -3.51569E-07 1.342859E-07
vn -1 -2.847885E-07 1.047402E-07
vn -1 -3.101334E-07 -1.151115E-07
vn -1 -3.101334E-07 -1.151117E-07
vn -1 -3.101335E-07 -1.151121E-07
vn -1 -3.101318E-07 -1.151049E-07
vn -1 -3.101337E-07 -1.151128E-07
vn -1 -3.101335E-07 -1.151122E-07
vn -1 -3.101331E-07 -1.151108E-07
vn -1 -3.101327E-07 -1.151096E-07
vn -1 -2.053354E-07 1.851204E-07
vn -1 -2.053354E-07 1.851204E-07
vn -1 -2.053354E-07 1.851204E-07

f 1//1 2//2 3//3
f 4//4 1//1 3//3
f 3//3 5//5 4//4
f 3//3 6//6 5//5
f 5//5 6//6 7//7
f 8//8 7//7 6//6
f 9//9 8//8 6//6
f 10//10 9//9 6//6
f 9//9 10//10 11//11
f 11//11 10//10 12//12
f 13//13 11//11 12//12
f 13//13 12//12 14//14
f 13//13 14//14 15//15
f 15//15 14//14 16//16
f 15//15 16//16 17//17
f 18//18 17//17 16//16
f 19//19 17//17 18//18
f 19//19 18//18 20//20
f 21//21 19//19 20//20
f 22//22 19//19 21//21
f 22//22 21//21 23//23
f 24//24 22//22 23//23
f 24//24 23//23 25//25
f 26//26 24//24 25//25
f 26//26 25//25 27//27
f 28//28 26//26 27//27
f 28//28 27//27 29//29
f 29//29 27//27 30//30
f 31//31 29//29 30//30
f 31//31 30//30 32//32
f 33//33 31//31 32//32
f 33//33 32//32 34//34
f 35//35 33//33 34//34
f 35//35 34//34 36//36
f 37//37 35//35 36//36
f 37//37 36//36 38//38
f 39//39 37//37 38//38
f 39//39 38//38 40//40
f 41//41 39//39 40//40
f 41//41 40//40 42//42
f 41//41 42//42 43//43
f 43//43 42//42 44//44
f 45//45 43//43 44//44
f 45//45 44//44 46//46
f 47//47 45//45 46//46
f 48//48 45//45 47//47
f 48//48 47//47 49//49
f 50//50 48//48 49//49
f 50//50 49//49 51//51
f 52//52 50//50 51//51
f 52//52 51//51 53//53
f 54//54 52//52 53//53
f 55//55 54//54 53//53
f 55//55 53//53 56//56
f 55//55 56//56 57//57
f 57//57 56//56 58//58
f 57//57 58//58 59//59
f 59//59 58//58 60//60
f 59//59 60//60 61//61
f 61//61 60//60 62//62
f 61//61 62//62 63//63
f 63//63 62//62 64//64
f 63//63 64//64 65//65
f 65//65 64//64 66//66
f 65//65 66//66 67//67
f 68//68 67//67 66//66
f 69//69 67//67 68//68
f 69//69 68//68 70//70
f 71//71 69//69 70//70
f 72//72 71//71 73//73
f 74//74 75//75 76//76
f 77//77 74//74 76//76
f 75//75 77//77 76//76
f 78//78 75//75 74//74
f 79//79 75//75 78//78
f 78//78 74//74 80//80
f 81//81 78//78 80//80
f 82//82 78//78 81//81
f 82//82 83//83 78//78
f 83//83 84//84 79//79
f 84//84 85//85 79//79
f 80//80 74//74 86//86
f 87//87 80//80 86//86
f 81//81 80//80 87//87
f 86//86 74//74 88//88
f 88//88 74//74 77//77
f 86//86 88//88 89//89
f 90//90 86//86 89//89
f 87//87 86//86 90//90
f 75//75 91//91 77//77
f 90//90 89//89 92//92
f 90//90 92//92 93//93
f 94//94 90//90 93//93
f 95//95 83//83 82//82
f 95//95 82//82 81//81
f 95//95 81//81 87//87
f 95//95 87//87 90//90
f 95//95 96//96 83//83
f 97//97 91//91 75//75
f 97//97 98//98 91//91
f 97//97 99//99 98//98
f 100//100 95//95 101//101
f 102//102 103//103 104//104
f 102//102 104//104 105//105
f 102//102 105//105 106//106
f 106//106 105//105 107//107
f 108//108 102//102 106//106
f 109//109 102//102 108//108
f 110//110 108//108 106//106
f 111//111 112//112 113//113
f 111//111 113//113 114//114
f 111//111 114//114 115//115
f 111//111 115//115 116//116
f 111//111 116//116 117//117
f 117//117 118//118 111//111
f 118//118 119//119 111//111
f 120//120 111//111 119//119
f 120//120 121//121 111//111
f 121//121 122//122 111//111
f 111//111 122//122 123//123
f 114//114 113//113 124//124
f 124//124 113//113 125//125
f 125//125 113//113 126//126
f 126//126 113//113 127//127
f 127//127 113//113 128//128
f 128//128 113//113 129//129
f 129//129 113//113 130//130
f 130//130 113//113 131//131
f 131//131 113//113 132//132
f 132//132 113//113 133//133
f 133//133 113//113 134//134
f 133//133 134//134 135//135
f 135//135 134//134 136//136
f 134//134 137//137 136//136
f 137//137 134//134 138//138
f 138//138 134//134 139//139
f 139//139 134//134 140//140
f 140//140 134//134 141//141
f 134//134 142//142 141//141
f 134//134 143//143 142//142
f 134//134 144//144 143//143
f 144//144 134//134 145//145
f 145//145 134//134 146//146
f 147//147 134//134 148//148
f 149//149 150//150 151//151
f 149//149 152//152 150//150
f 151//151 150//150 153//153
f 151//151 153//153 154//154
f 154//154 153//153 155//155
f 154//154 155//155 156//156
f 152//152 157//157 150//150
f 158//158 159//159 160//160
f 161//161 159//159 158//158
f 162//162 159//159 161//161
f 163//163 162//162 161//161
f 164//164 162//162 163//163
f 165//165 162//162 164//164
f 9//9 166//166 8//8
f 166//166 9//9 167//167
f 168//168 169//169 170//170
f 168//168 171//171 169//169
f 172//172 169//169 173//173
f 174//174 169//169 172//172
f 169//169 174//174 175//175
f 176//176 169//169 175//175
f 177//177 169//169 176//176
f 178//178 169//169 177//177
f 178//178 179//179 169//169
f 179//179 180//180 169//169
f 180//180 181//181 169//169
f 182//182 181//181 180//180
f 182//182 183//183 181//181
f 183//183 184//184 181//181
f 184//184 185//185 181//181
f 185//185 186//186 181//181
f 186//186 187//187 181//181
f 187//187 188//188 181//181
f 188//188 189//189 181//181
f 181//181 189//189 190//190
f 181//181 190//190 191//191
f 192//192 181//181 191//191
f 193//193 181//181 192//192
f 194//194 181//181 193//193
f 195//195 181//181 194//194
f 195//195 196//196 181//181
f 196//196 197//197 198//198
f 196//196 198//198 199//199
f 199//199 200//200 196//196
f 196//196 200//200 201//201
f 201//201 202//202 196//196
f 196//196 202//202 203//203
f 196//196 203//203 204//204
f 205//205 196//196 206//206
f 207//207 196//196 205//205
