v 96.12231 190.7824 -113.0902
v 96.12231 190.7824 -150
v 96.12231 190.7824 -113.0902
v 96.12231 190.7824 -113.0902
v 97.50719 194.0744 -113.0902
v 98.06116 195.3912 -113.0902
v 98.06116 195.3912 -113.0902
v 98.06115 195.3912 -150
v 98.06116 195.3912 -186.9099
v 98.30785 195.3898 -113.0902
v 100.2814 195.379 -186.9099
v 98.3385 195.3897 -113.0902
v 100.5573 195.3775 -186.9099
v 98.34711 195.3896 -113.0902
v 100.6347 195.377 -186.9099
v 98.44383 195.3891 -113.0902
v 101.5053 195.3722 -186.9099
v 99.6364 195.3825 -113.0902
v 101.6378 195.3715 -186.9099
v 100.7671 195.3763 -113.0902
v 100.8972 195.3756 -113.0902
v 101.7778 195.3707 -186.9099
v 101.1685 195.3741 -113.0902
v 101.808 195.3706 -186.9099
v 101.8879 195.3701 -113.0902
v 101.8879 195.3701 -186.9099
v 102.0327 195.5133 -113.0902
v 102.6849 196.1583 -186.9099
v 103.1905 196.6584 -186.9099
v 102.0686 195.5488 -113.0902
v 103.5136 196.978 -186.9099
v 102.0793 195.5593 -113.0902
v 103.6098 197.0731 -186.9099
v 102.16 195.6392 -113.0902
v 104.3367 197.7921 -186.9099
v 103.0866 196.5557 -113.0902
v 104.4397 197.8939 -186.9099
v 103.8521 197.3128 -113.0902
v 104.5247 197.978 -186.9099
v 104.6088 198.0612 -113.0902
v 104.6088 198.0611 -186.9099
v 104.6094 198.1792 -113.0902
v 104.6146 199.124 -186.9099
v 104.6109 198.4438 -113.0902
v 104.6278 201.5052 -186.9099
v 104.615 199.182 -113.0902
v 104.6166 199.4772 -113.0902
v 104.6284 201.6201 -186.9099
v 104.6221 200.4838 -113.0902
v 104.629 201.7319 -186.9099
v 104.6267 201.3126 -113.0902
v 104.6295 201.824 -186.9099
v 104.6299 201.8879 -113.0902
v 104.6299 201.8879 -186.9099
v 104.6299 201.8879 -186.9099
v 104.4699 202.0497 -113.0902
v 103.1905 203.3433 -186.9099
v 104.4229 202.0972 -113.0902
v 102.7668 203.7717 -186.9099
v 104.4181 202.1021 -113.0902
v 102.7235 203.8154 -186.9099
v 104.4158 202.1044 -113.0902
v 102.7035 203.8357 -186.9099
v 104.413 202.1072 -113.0902
v 102.6781 203.8613 -186.9099
v 104.3608 202.16 -113.0902
v 102.2079 204.3367 -186.9099
v 101.9388 204.6088 -113.0902
v 101.9388 204.6088 -186.9099
v 101.9388 204.6088 -113.0902
v 101.9388 204.6088 -186.9099
v 101.9388 204.6088 -113.0902
v 101.9388 204.6088 -113.0902
v 102.4928 205.9256 -113.0902
v 103.8777 209.2176 -113.0902
v 103.8777 209.2176 -113.0902
v 103.8777 209.2176 -113.0902
v 101.9388 204.6088 -113.0902
v 101.9388 204.6088 -113.0902
v 101.9388 204.6088 -113.0902
v 101.9388 204.6088 -186.9099
v 101.9388 204.6088 -186.9099
v 101.9388 204.6088 -186.9099
v 101.9388 204.6088 -113.0902
v 109.2598 203.7759 -113.0902
v 101.9388 204.6088 -113.0902
v 101.9388 204.6088 -186.9099
v 101.9388 204.6088 -113.0902
v 101.9388 204.6088 -150
v 101.9388 204.6088 -186.9099
v 103.8777 209.2176 -150
v 101.9388 204.6088 -186.9099
v 101.9388 204.6088 -186.9099
v 102.4928 205.9256 -186.9099
v 109.2598 203.7759 -186.9099
v 101.9388 204.6088 -186.9099
v 109.2598 203.7759 -113.0902
v 103.8777 209.2176 -186.9099
v 109.2598 203.7759 -186.9099
v 104.6299 201.8879 -186.9099
v 104.6299 201.8879 -186.9099
v 96.12231 190.7824 -150
v 96.12231 190.7824 -113.0902
v 96.12231 190.7824 -113.0902
v 97.50719 194.0744 -113.0902
v 98.06115 195.3912 -150
v 98.06116 195.3912 -113.0902
v 97.25806 193.4822 -186.9099
v 96.12231 190.7824 -186.9099
v 98.06116 195.3912 -186.9099
v 96.12231 190.7824 -113.0902
v 103.7759 190.7402 -113.0902
v 109.2176 196.1223 -113.0902
v 101.8879 195.3701 -113.0902
v 101.1685 195.3741 -113.0902
v 100.8972 195.3756 -113.0902
v 100.7671 195.3763 -113.0902
v 99.6364 195.3825 -113.0902
v 98.44383 195.3891 -113.0902
v 98.34711 195.3896 -113.0902
v 98.3385 195.3897 -113.0902
v 98.30785 195.3898 -113.0902
v 98.06116 195.3912 -113.0902
v 102.0327 195.5133 -113.0902
v 102.0686 195.5488 -113.0902
v 102.0793 195.5593 -113.0902
v 102.16 195.6392 -113.0902
v 103.0866 196.5557 -113.0902
v 103.8521 197.3128 -113.0902
v 104.6088 198.0612 -113.0902
v 104.6094 198.1792 -113.0902
v 104.6109 198.4438 -113.0902
v 104.615 199.182 -113.0902
v 109.2598 203.7759 -113.0902
v 104.6166 199.4772 -113.0902
v 104.6221 200.4838 -113.0902
v 104.6267 201.3126 -113.0902
v 104.6299 201.8879 -113.0902
v 104.4699 202.0497 -113.0902
v 104.4229 202.0972 -113.0902
v 104.4181 202.1021 -113.0902
v 104.4158 202.1044 -113.0902
v 104.413 202.1072 -113.0902
v 104.3608 202.16 -113.0902
v 101.9388 204.6088 -113.0902
v 101.9388 204.6088 -113.0902
v 101.9388 204.6088 -113.0902
v 103.8777 209.2176 -113.0902
v 96.12231 190.7824 -113.0902
v 103.7759 190.7402 -186.9099
v 103.7759 190.7402 -113.0902
v 96.12231 190.7824 -150
v 109.2176 196.1223 -186.9099
v 109.2176 196.1223 -113.0902
v 109.2598 203.7759 -186.9099
v 109.2598 203.7759 -113.0902
v 96.12231 190.7824 -186.9099
v 103.8777 209.2176 -113.0902
v 101.9388 204.6088 -150
v 101.9388 204.6088 -113.0902
v 103.8777 209.2176 -150
v 101.9388 204.6088 -186.9099
v 103.8777 209.2176 -186.9099
v 102.4928 205.9256 -186.9099
v 101.9388 204.6088 -186.9099
v 98.06116 195.3912 -186.9099
v 103.7759 190.7402 -186.9099
v 97.25806 193.4822 -186.9099
v 103.7759 190.7402 -186.9099
v 96.12231 190.7824 -186.9099
v 98.06116 195.3912 -186.9099
v 100.2814 195.379 -186.9099
v 98.06116 195.3912 -186.9099
v 100.5573 195.3775 -186.9099
v 100.6347 195.377 -186.9099
v 101.5053 195.3722 -186.9099
v 101.6378 195.3715 -186.9099
v 101.7778 195.3707 -186.9099
v 101.808 195.3706 -186.9099
v 101.8879 195.3701 -186.9099
v 109.2176 196.1223 -186.9099
v 102.6849 196.1583 -186.9099
v 103.1905 196.6584 -186.9099
v 103.5136 196.978 -186.9099
v 103.6098 197.0731 -186.9099
v 104.3367 197.7921 -186.9099
v 104.4397 197.8939 -186.9099
v 104.5247 197.978 -186.9099
v 104.6088 198.0611 -186.9099
v 104.6146 199.124 -186.9099
v 104.6278 201.5052 -186.9099
v 104.6284 201.6201 -186.9099
v 104.629 201.7319 -186.9099
v 104.6295 201.824 -186.9099
v 104.6299 201.8879 -186.9099
v 109.2598 203.7759 -186.9099
v 104.6299 201.8879 -186.9099
v 103.1905 203.3433 -186.9099
v 102.7668 203.7717 -186.9099
v 102.7235 203.8154 -186.9099
v 102.7035 203.8357 -186.9099
v 102.6781 203.8613 -186.9099
v 102.2079 204.3367 -186.9099
v 101.9388 204.6088 -186.9099
v 102.4928 205.9256 -186.9099
v 101.9388 204.6088 -186.9099
v 103.8777 209.2176 -186.9099

vn -0.3877686 -0.9217569 5.340572E-07
vn -0.3877686 -0.9217569 3.814694E-07
vn -0.2944158 -0.69985 0.6507913
vn 0 0 1
vn 0 0 1
vn 0.005505465 0.9999849 -6.462383E-08
vn 0.3838713 0.9124929 0.141421
vn -0.8031911 0.5957214 -1.883212E-07
vn 0.00551009 0.9999849 -3.424387E-07
vn 0.005510939 0.999985 -3.013172E-07
vn 0.005510595 0.9999849 -3.400592E-07
vn 0.005509577 0.9999849 -4.236429E-07
vn 0.005508513 0.9999849 -4.821552E-07
vn 0.005514309 0.9999849 1.095606E-07
vn 0.00551153 0.9999849 -1.780023E-07
vn 0.005510998 0.9999849 -2.260704E-07
vn 0.00551115 0.999985 -2.089216E-07
vn 0.005511237 0.9999849 -2.077588E-07
vn 0.005510943 0.9999849 -2.217208E-07
vn 0.005511288 0.9999849 -2.409156E-07
vn 0.005510114 0.9999849 -2.351288E-07
vn 0.005508541 0.9999849 -2.778156E-07
vn 0.005510733 0.9999849 -1.673258E-07
vn 0.005511608 0.9999849 -1.811419E-07
vn -0.1453824 0.9893757 -1.839746E-07
vn -0.6735319 0.7391582 -2.087927E-07
vn -0.7032013 0.710991 -2.638545E-07
vn -0.7032006 0.7109915 -2.243663E-07
vn -0.7032004 0.7109918 -2.046673E-07
vn -0.703199 0.7109933 -5.134434E-08
vn -0.703198 0.7109942 3.311141E-08
vn -0.7031968 0.7109953 2.493531E-07
vn -0.7031989 0.7109934 -1.725448E-08
vn -0.7031996 0.7109925 -1.95488E-07
vn -0.7032001 0.7109922 -2.545912E-07
vn -0.7032001 0.710992 -3.133276E-07
vn -0.7031993 0.7109928 -2.147517E-07
vn -0.7031998 0.7109925 -2.354086E-07
vn -0.7032006 0.7109916 -2.762392E-07
vn -0.7484719 0.6631667 -2.850269E-07
vn -0.9974425 0.07147519 -1.199789E-07
vn -0.9999849 0.005511933 -7.869002E-08
vn -0.9999849 0.005510861 -1.061353E-07
vn -0.999985 0.005510164 -1.468234E-07
vn -0.9999849 0.005510169 -1.18347E-07
vn -0.9999849 0.005510599 -1.005928E-07
vn -0.9999849 0.005511159 2.558145E-08
vn -0.9999849 0.0055107 -4.388408E-08
vn -0.999985 0.005511072 -2.142637E-08
vn -0.9999849 0.005510733 -1.39089E-08
vn -0.999985 0.005510751 -6.971242E-09
vn -0.9999849 0.005511186 1.713521E-09
vn -0.9814615 -0.1916597 6.568339E-08
vn -0.9999847 0.005534459 3.749556E-09
vn -0.7109929 -0.7031993 1.50355E-07
vn -0.7109919 -0.7032002 1.053244E-07
vn -0.7109917 -0.7032006 6.84602E-08
vn -0.7109908 -0.7032014 -3.948485E-08
vn -0.7109923 -0.7032 1.617077E-07
vn -0.7109935 -0.7031989 4.500968E-07
vn -0.7109953 -0.7031968 7.290805E-07
vn -0.7110271 -0.7031647 6.344963E-06
vn -0.7110072 -0.7031849 2.762223E-06
vn -0.7109872 -0.7032052 -5.911333E-07
vn -0.7109901 -0.7032022 -2.018595E-07
vn -0.710992 -0.7032002 1.357495E-07
vn -0.7109925 -0.7031997 1.613505E-07
vn -0.7109927 -0.7031995 1.611312E-07
vn -0.7109962 -0.703196 9.115076E-08
vn -0.8187432 -0.5741601 9.305477E-08
vn -0.3877686 -0.9217569 1.907347E-07
vn -0.3877686 -0.9217569 1.907347E-07
vn -0.3877686 -0.9217569 1.907347E-07
vn 0 0 1
vn 0.7109922 0.7032 -2.936142E-07
vn 0 0 1
vn -0.8635451 0.5042719 -1.677742E-07
vn -0.2518417 -0.5986478 0.7603924
vn -0.2184488 -0.5192702 0.8262195
vn -0.3867886 -0.9194274 0.0710492
vn -0.3877686 -0.9217569 1.90735E-07
vn -0.3877686 -0.9217569 1.907347E-07
vn -0.3877686 -0.9217569 1.907343E-07
vn -0.385706 -0.9168541 0.1030029
vn 0 0 1
vn -0.3877428 -0.9216807 0.01266336
vn -0.3877686 -0.9217569 1.907357E-07
vn -0.3838713 -0.9124927 0.1414215
vn -0.3877625 -0.9217594 1.907357E-07
vn -0.3870632 -0.9200963 -0.06004161
vn 0.7109922 0.7031999 -2.232892E-07
vn -0.3877468 -0.921766 1.907375E-07
vn -2.692182E-06 -6.399533E-06 -1
vn 0 0 -1
vn 3.97815E-07 -1.673545E-07 -1
vn 0 0 0
vn 0.7109923 0.7031999 -2.130985E-07
vn 0.7109923 0.7032 -1.778031E-07
vn 0.7109923 0.7032 -2.029077E-07
vn 3.97815E-07 -1.673545E-07 -1
vn 3.97815E-07 -1.673545E-07 -1
vn -0.9217569 0.3877686 -1.192093E-07
vn -0.9217568 0.3877685 -1.192092E-07
vn -0.9217569 0.3877686 -1.192093E-07
vn -0.9217569 0.3877686 -1.192093E-07
vn -0.9217569 0.3877686 -1.192093E-07
vn -0.9217569 0.3877686 -1.192092E-07
vn -0.9217569 0.3877686 -1.192093E-07
vn -0.9217569 0.3877686 -1.192093E-07
vn -0.9217569 0.3877686 -1.192093E-07
vn 0 0 1
vn 0 0 1
vn 0 0 1
vn 0 0 1
vn 0 0 1
vn 0 0 1
vn 0 0 1
vn 0 0 1
vn 0 0 1
vn 0 0 1
vn 0 0 1
vn 0 0 1
vn 0 0 1
vn 0 0 0.9999999
vn 0 0 1
vn 0 0 1
vn 0 0 0.9999999
vn 0 0 1
vn 0 0 1
vn 0 0 1
vn 0 0 0.9999999
vn 0 0 1
vn 0 0 1
vn 0 0 1
vn 0 0 1
vn 0 0 1
vn 0 0 1
vn 0 0 1
vn 0 0 1
vn 0 0 1
vn 0 0 1
vn 0 0 0.9999999
vn 0 0 1
vn 0 0 0.9999999
vn 0 0 0.9999999
vn 0 0 1
vn 0 0 0.9999999
vn 0 0 0.9999999
vn -0.005510563 -0.999985 3.42789E-07
vn 0.2473894 -0.9689162 3.092419E-07
vn 0.5006872 -0.8656283 2.619401E-07
vn -0.005510521 -0.9999848 3.23738E-07
vn 0.8600581 -0.5101964 1.531119E-07
vn 0.966131 -0.2580525 7.358348E-08
vn 0.9999849 -0.005510572 7.245398E-09
vn 0.9999849 -0.005510595 0
vn -0.00551065 -0.9999849 2.570785E-07
vn -0.9217569 0.3877686 -1.192093E-07
vn -0.9217569 0.3877686 -1.192093E-07
vn -0.9217569 0.3877686 -1.192093E-07
vn -0.9217569 0.3877686 -1.192093E-07
vn -0.9217569 0.3877686 -1.192093E-07
vn -0.9217569 0.3877686 -1.192093E-07
vn -0.9217569 0.3877686 -1.283792E-07
vn -0.9217568 0.3877685 -1.283792E-07
vn 0.3797106 0.9026023 -0.2028032
vn -2.856919E-07 -6.791125E-07 -1
vn 1.989075E-07 -8.367724E-08 -0.9999999
vn 1.721112E-07 -1.934758E-07 -1
vn 1.989075E-07 -8.367725E-08 -1
vn 1.989075E-07 -8.367725E-08 -1
vn -1.820124E-09 -3.303147E-07 -1
vn -1.820271E-09 -3.303148E-07 -1
vn -1.819714E-09 -3.303143E-07 -1
vn -1.820446E-09 -3.303148E-07 -1
vn -1.820521E-09 -3.303148E-07 -1
vn -1.819925E-09 -3.303146E-07 -0.9999999
vn -1.81786E-09 -3.303136E-07 -1
vn -1.822767E-09 -3.303157E-07 -0.9999999
vn 2.301672E-07 -2.357167E-07 -1
vn 2.812978E-07 -1.183375E-07 -1
vn 2.322807E-07 -2.348542E-07 -1
vn 2.322807E-07 -2.348548E-07 -1
vn 2.322807E-07 -2.348556E-07 -1
vn 2.322807E-07 -2.348551E-07 -1
vn 2.322807E-07 -2.34855E-07 -1
vn 2.322808E-07 -2.348549E-07 -1
vn 2.32281E-07 -2.348544E-07 -1
vn 3.204997E-07 -2.515124E-08 -1
vn 3.303148E-07 -1.820254E-09 -1
vn 3.303149E-07 -1.82007E-09 -1
vn 3.303143E-07 -1.820595E-09 -1
vn 3.303157E-07 -1.819443E-09 -1
vn 3.30315E-07 -1.819977E-09 -1
vn 3.303147E-07 -1.820262E-09 -1
vn 2.586599E-07 1.22572E-08 -1
vn 2.348548E-07 2.322809E-07 -1
vn 2.348549E-07 2.322811E-07 -1
vn 2.348548E-07 2.322815E-07 -1
vn 2.348548E-07 2.322742E-07 -1
vn 2.348549E-07 2.322823E-07 -1
vn 2.348548E-07 2.322817E-07 -1
vn 2.348548E-07 2.322802E-07 -1
vn 2.348546E-07 2.32279E-07 -0.9999999
vn 1.989075E-07 -8.367724E-08 -1
vn 1.989075E-07 -8.367724E-08 -1
vn 1.989075E-07 -8.367725E-08 -0.9999999

f 1//1 2//2 3//3
f 4//4 1//1 3//3
f 3//3 5//5 4//4
f 3//3 6//6 5//5
f 5//5 6//6 7//7
f 8//8 7//7 6//6
f 9//9 8//8 6//6
f 10//10 9//9 6//6
f 9//9 10//10 11//11
f 11//11 10//10 12//12
f 13//13 11//11 12//12
f 13//13 12//12 14//14
f 13//13 14//14 15//15
f 15//15 14//14 16//16
f 15//15 16//16 17//17
f 18//18 17//17 16//16
f 19//19 17//17 18//18
f 19//19 18//18 20//20
f 21//21 19//19 20//20
f 22//22 19//19 21//21
f 22//22 21//21 23//23
f 24//24 22//22 23//23
f 24//24 23//23 25//25
f 26//26 24//24 25//25
f 26//26 25//25 27//27
f 28//28 26//26 27//27
f 28//28 27//27 29//29
f 29//29 27//27 30//30
f 31//31 29//29 30//30
f 31//31 30//30 32//32
f 33//33 31//31 32//32
f 33//33 32//32 34//34
f 35//35 33//33 34//34
f 35//35 34//34 36//36
f 37//37 35//35 36//36
f 37//37 36//36 38//38
f 39//39 37//37 38//38
f 39//39 38//38 40//40
f 41//41 39//39 40//40
f 41//41 40//40 42//42
f 41//41 42//42 43//43
f 43//43 42//42 44//44
f 45//45 43//43 44//44
f 45//45 44//44 46//46
f 47//47 45//45 46//46
f 48//48 45//45 47//47
f 48//48 47//47 49//49
f 50//50 48//48 49//49
f 50//50 49//49 51//51
f 52//52 50//50 51//51
f 52//52 51//51 53//53
f 54//54 52//52 53//53
f 55//55 54//54 53//53
f 55//55 53//53 56//56
f 55//55 56//56 57//57
f 57//57 56//56 58//58
f 57//57 58//58 59//59
f 59//59 58//58 60//60
f 59//59 60//60 61//61
f 61//61 60//60 62//62
f 61//61 62//62 63//63
f 63//63 62//62 64//64
f 63//63 64//64 65//65
f 65//65 64//64 66//66
f 65//65 66//66 67//67
f 68//68 67//67 66//66
f 69//69 67//67 68//68
f 69//69 68//68 70//70
f 71//71 69//69 70//70
f 72//72 71//71 73//73
f 74//74 75//75 76//76
f 77//77 74//74 76//76
f 75//75 77//77 76//76
f 78//78 75//75 74//74
f 79//79 75//75 78//78
f 78//78 74//74 80//80
f 81//81 78//78 80//80
f 82//82 78//78 81//81
f 82//82 83//83 78//78
f 83//83 84//84 79//79
f 84//84 85//85 79//79
f 80//80 74//74 86//86
f 87//87 80//80 86//86
f 81//81 80//80 87//87
f 86//86 74//74 88//88
f 88//88 74//74 77//77
f 86//86 88//88 89//89
f 90//90 86//86 89//89
f 87//87 86//86 90//90
f 75//75 91//91 77//77
f 90//90 89//89 92//92
f 90//90 92//92 93//93
f 94//94 90//90 93//93
f 95//95 83//83 82//82
f 95//95 82//82 81//81
f 95//95 81//81 87//87
f 95//95 87//87 90//90
f 95//95 96//96 83//83
f 97//97 91//91 75//75
f 97//97 98//98 91//91
f 97//97 99//99 98//98
f 100//100 95//95 101//101
f 102//102 103//103 104//104
f 102//102 104//104 105//105
f 102//102 105//105 106//106
f 106//106 105//105 107//107
f 108//108 102//102 106//106
f 109//109 102//102 108//108
f 110//110 108//108 106//106
f 111//111 112//112 113//113
f 111//111 113//113 114//114
f 111//111 114//114 115//115
f 111//111 115//115 116//116
f 111//111 116//116 117//117
f 117//117 118//118 111//111
f 118//118 119//119 111//111
f 120//120 111//111 119//119
f 120//120 121//121 111//111
f 121//121 122//122 111//111
f 111//111 122//122 123//123
f 114//114 113//113 124//124
f 124//124 113//113 125//125
f 125//125 113//113 126//126
f 126//126 113//113 127//127
f 127//127 113//113 128//128
f 128//128 113//113 129//129
f 129//129 113//113 130//130
f 130//130 113//113 131//131
f 131//131 113//113 132//132
f 132//132 113//113 133//133
f 133//133 113//113 134//134
f 133//133 134//134 135//135
f 135//135 134//134 136//136
f 134//134 137//137 136//136
f 137//137 134//134 138//138
f 138//138 134//134 139//139
f 139//139 134//134 140//140
f 140//140 134//134 141//141
f 134//134 142//142 141//141
f 134//134 143//143 142//142
f 134//134 144//144 143//143
f 144//144 134//134 145//145
f 145//145 134//134 146//146
f 147//147 134//134 148//148
f 149//149 150//150 151//151
f 149//149 152//152 150//150
f 151//151 150//150 153//153
f 151//151 153//153 154//154
f 154//154 153//153 155//155
f 154//154 155//155 156//156
f 152//152 157//157 150//150
f 158//158 159//159 160//160
f 161//161 159//159 158//158
f 162//162 159//159 161//161
f 163//163 162//162 161//161
f 164//164 162//162 163//163
f 165//165 162//162 164//164
f 9//9 166//166 8//8
f 166//166 9//9 167//167
f 168//168 169//169 170//170
f 168//168 171//171 169//169
f 172//172 169//169 173//173
f 174//174 169//169 172//172
f 169//169 174//174 175//175
f 176//176 169//169 175//175
f 177//177 169//169 176//176
f 178//178 169//169 177//177
f 178//178 179//179 169//169
f 179//179 180//180 169//169
f 180//180 181//181 169//169
f 182//182 181//181 180//180
f 182//182 183//183 181//181
f 183//183 184//184 181//181
f 184//184 185//185 181//181
f 185//185 186//186 181//181
f 186//186 187//187 181//181
f 187//187 188//188 181//181
f 188//188 189//189 181//181
f 181//181 189//189 190//190
f 181//181 190//190 191//191
f 192//192 181//181 191//191
f 193//193 181//181 192//192
f 194//194 181//181 193//193
f 195//195 181//181 194//194
f 195//195 196//196 181//181
f 196//196 197//197 198//198
f 196//196 198//198 199//199
f 199//199 200//200 196//196
f 196//196 200//200 201//201
f 201//201 202//202 196//196
f 196//196 202//202 203//203
f 196//196 203//203 204//204
f 205//205 196//196 206//206
f 207//207 196//196 205//205
