v 96.0349 -184.1863 2.357044
v 96.03489 -95.89439 -41.7889
v 96.0349 -184.1863 2.357044
v 96.0349 -184.1863 2.35704
v 97.45101 -185.6526 -0.5755005
v 98.01746 -186.2391 -1.748516
v 98.01746 -186.2391 -1.748516
v 98.01744 -97.94717 -45.89446
v 98.01743 -9.655266 -90.04041
v 97.84566 -186.3183 -1.906864
v 96.47123 -10.36783 -91.46553
v 97.8243 -186.3281 -1.92654
v 96.27909 -10.45638 -91.64262
v 97.81831 -186.3309 -1.932064
v 96.22515 -10.48124 -91.69234
v 97.75095 -186.3619 -1.994152
v 95.61888 -10.76064 -92.25114
v 96.92043 -186.7446 -2.759644
v 95.5266 -10.80316 -92.33619
v 96.13298 -187.1075 -3.485428
v 96.04239 -187.1493 -3.568924
v 95.42905 -10.84812 -92.42611
v 95.85345 -187.2364 -3.743069
v 95.40805 -10.8578 -92.44547
v 95.3524 -187.4673 -4.204884
v 95.35238 -10.88345 -92.49677
v 95.35545 -187.5583 -4.386929
v 95.36921 -11.38466 -93.49918
v 95.37988 -11.70264 -94.13515
v 95.35622 -187.5809 -4.432095
v 95.38671 -11.9059 -94.54166
v 95.35645 -187.5876 -4.445538
v 95.38874 -11.96638 -94.66264
v 95.35815 -187.6384 -4.547127
v 95.40409 -12.42355 -95.57697
v 95.37772 -188.2212 -5.712658
v 95.40627 -12.4883 -95.70647
v 95.39388 -188.7026 -6.675571
v 95.40806 -12.54179 -95.81346
v 95.40986 -189.1785 -7.627327
v 95.40984 -12.59467 -95.91922
v 95.49461 -189.2153 -7.700882
v 96.17256 -12.92568 -96.58124
v 95.68449 -189.2977 -7.865696
v 97.88151 -13.66734 -98.06454
v 96.21423 -189.5276 -8.325493
v 96.42609 -189.6195 -8.509377
v 97.96391 -13.70309 -98.13606
v 97.14847 -189.933 -9.136383
v 98.04417 -13.73793 -98.20573
v 97.74327 -190.1912 -9.652653
v 98.11026 -13.76661 -98.26309
v 98.15616 -190.3703 -10.01102
v 98.15614 -13.78652 -98.30291
v 98.15614 -13.78652 -98.30292
v 98.38358 -190.3688 -10.00797
v 100.2029 -13.77277 -98.27542
v 98.45051 -190.3684 -10.00707
v 100.8053 -13.76873 -98.26733
v 98.45734 -190.3683 -10.00698
v 100.8668 -13.76832 -98.26651
v 98.46051 -190.3683 -10.00694
v 100.8953 -13.76813 -98.26613
v 98.46452 -190.3683 -10.00688
v 100.9314 -13.76788 -98.26564
v 98.5388 -190.3678 -10.00588
v 101.5999 -13.7634 -98.25667
v 101.9826 -190.3446 -9.959633
v 101.9825 -13.76083 -98.25153
v 101.9826 -190.3446 -9.959637
v 101.9825 -13.76083 -98.25153
v 101.9826 -190.3446 -9.959637
v 101.9826 -190.3446 -9.959637
v 102.549 -190.9312 -11.13265
v 103.9651 -192.3974 -14.06519
v 103.9651 -192.3974 -14.06519
v 103.9651 -192.3974 -14.06519
v 101.9826 -190.3446 -9.959637
v 101.9826 -190.3446 -9.959637
v 101.9826 -190.3446 -9.959637
v 101.9825 -13.76083 -98.25153
v 101.9825 -13.76083 -98.25153
v 101.9825 -13.76083 -98.25153
v 101.9826 -190.3446 -9.959637
v 96.31231 -192.4488 -14.16797
v 101.9826 -190.3446 -9.959637
v 101.9825 -13.76083 -98.25153
v 101.9826 -190.3446 -9.959637
v 101.9826 -102.0527 -54.10558
v 101.9825 -13.76083 -98.25153
v 103.9651 -104.1055 -58.21114
v 101.9825 -13.76092 -98.25148
v 101.9825 -13.76083 -98.25153
v 102.549 -14.34734 -99.42455
v 96.31229 -15.86501 -102.4599
v 101.9825 -13.76083 -98.25153
v 96.31231 -192.4488 -14.16797
v 103.9651 -15.81361 -102.3571
v 96.31229 -15.86501 -102.4599
v 98.15614 -13.78652 -98.30292
v 98.15614 -13.78652 -98.30291
v 96.03489 -95.89439 -41.7889
v 96.0349 -184.1863 2.357044
v 96.0349 -184.1863 2.35704
v 97.45101 -185.6526 -0.5755005
v 98.01744 -97.94717 -45.89446
v 98.01746 -186.2391 -1.748516
v 97.19623 -8.804977 -88.33983
v 96.03488 -7.602486 -85.93484
v 98.01743 -9.655266 -90.04041
v 96.0349 -184.1863 2.357044
v 90.7048 -186.6427 -2.555695
v 90.8197 -190.0651 -9.400578
v 95.3524 -187.4673 -4.204884
v 95.85345 -187.2364 -3.743069
v 96.04239 -187.1493 -3.568924
v 96.13298 -187.1075 -3.485428
v 96.92043 -186.7446 -2.759644
v 97.75095 -186.3619 -1.994152
v 97.81831 -186.3309 -1.932064
v 97.8243 -186.3281 -1.92654
v 97.84566 -186.3183 -1.906864
v 98.01746 -186.2391 -1.748516
v 95.35545 -187.5583 -4.386929
v 95.35622 -187.5809 -4.432095
v 95.35645 -187.5876 -4.445538
v 95.35815 -187.6384 -4.547127
v 95.37772 -188.2212 -5.712658
v 95.39388 -188.7026 -6.675571
v 95.40986 -189.1785 -7.627327
v 95.49461 -189.2153 -7.700882
v 95.68449 -189.2977 -7.865696
v 96.21423 -189.5276 -8.325493
v 96.31231 -192.4488 -14.16797
v 96.42609 -189.6195 -8.509377
v 97.14847 -189.933 -9.136383
v 97.74327 -190.1912 -9.652653
v 98.15616 -190.3703 -10.01102
v 98.38358 -190.3688 -10.00797
v 98.45051 -190.3684 -10.00707
v 98.45734 -190.3683 -10.00698
v 98.46051 -190.3683 -10.00694
v 98.46452 -190.3683 -10.00688
v 98.5388 -190.3678 -10.00588
v 101.9826 -190.3446 -9.959633
v 101.9826 -190.3446 -9.959637
v 101.9826 -190.3446 -9.959637
v 103.9651 -192.3974 -14.06519
v 96.0349 -184.1863 2.357044
v 90.70477 -10.05887 -90.84758
v 90.7048 -186.6427 -2.555695
v 96.03489 -95.89439 -41.7889
v 90.81968 -13.48131 -97.69246
v 90.8197 -190.0651 -9.400578
v 96.31229 -15.86501 -102.4599
v 96.31231 -192.4488 -14.16797
v 96.03488 -7.602486 -85.93484
v 103.9651 -192.3974 -14.06519
v 101.9826 -102.0527 -54.10558
v 101.9826 -190.3446 -9.959637
v 103.9651 -104.1055 -58.21114
v 101.9825 -13.76092 -98.25148
v 103.9651 -15.81361 -102.3571
v 102.549 -14.34734 -99.42455
v 101.9825 -13.76083 -98.25153
v 98.01743 -9.655266 -90.04041
v 90.70477 -10.05887 -90.84758
v 97.19623 -8.804977 -88.33983
v 90.70477 -10.05887 -90.84758
v 96.03488 -7.602486 -85.93484
v 98.01743 -9.655266 -90.04041
v 96.47123 -10.36783 -91.46553
v 98.01743 -9.655266 -90.04041
v 96.27909 -10.45638 -91.64262
v 96.22515 -10.48124 -91.69234
v 95.61888 -10.76064 -92.25114
v 95.5266 -10.80316 -92.33619
v 95.42905 -10.84812 -92.42611
v 95.40805 -10.8578 -92.44547
v 95.35238 -10.88345 -92.49677
v 90.81968 -13.48131 -97.69246
v 95.36921 -11.38466 -93.49918
v 95.37988 -11.70264 -94.13515
v 95.38671 -11.9059 -94.54166
v 95.38874 -11.96638 -94.66264
v 95.40409 -12.42355 -95.57697
v 95.40627 -12.4883 -95.70647
v 95.40806 -12.54179 -95.81346
v 95.40984 -12.59467 -95.91922
v 96.17256 -12.92568 -96.58124
v 97.88151 -13.66734 -98.06454
v 97.96391 -13.70309 -98.13606
v 98.04417 -13.73793 -98.20573
v 98.11026 -13.76661 -98.26309
v 98.15614 -13.78652 -98.30291
v 96.31229 -15.86501 -102.4599
v 98.15614 -13.78652 -98.30292
v 100.2029 -13.77277 -98.27542
v 100.8053 -13.76873 -98.26733
v 100.8668 -13.76832 -98.26651
v 100.8953 -13.76813 -98.26613
v 100.9314 -13.76788 -98.26564
v 101.5999 -13.7634 -98.25667
v 101.9825 -13.76083 -98.25153
v 102.549 -14.34734 -99.42455
v 101.9825 -13.76083 -98.25153
v 103.9651 -15.81361 -102.3571

vn -0.3965106 0.4105551 0.8211114
vn -0.3965106 0.4105552 0.8211113
vn -0.3010533 -0.2703685 0.9144768
vn 8.940697E-08 -0.8944273 0.4472136
vn 8.940697E-08 -0.8944273 0.4472136
vn 0.7176464 -0.3114429 -0.6228861
vn 0.3925256 -0.5329201 -0.7496133
vn 0.9859614 0.07467274 0.1493451
vn 0.7176431 -0.3114442 -0.6228891
vn 0.7176426 -0.3114445 -0.6228897
vn 0.7176428 -0.3114443 -0.6228895
vn 0.7176436 -0.311444 -0.6228889
vn 0.7176443 -0.3114435 -0.6228881
vn 0.7176403 -0.311446 -0.6228917
vn 0.7176422 -0.3114448 -0.62289
vn 0.7176425 -0.3114446 -0.6228896
vn 0.7176425 -0.3114447 -0.6228898
vn 0.7176424 -0.3114447 -0.6228898
vn 0.7176426 -0.3114446 -0.6228896
vn 0.7176424 -0.3114447 -0.6228899
vn 0.7176432 -0.3114443 -0.6228891
vn 0.7176442 -0.3114437 -0.6228881
vn 0.7176427 -0.3114445 -0.6228895
vn 0.7176421 -0.3114448 -0.6228901
vn 0.8144739 -0.2594734 -0.5189471
vn 0.9996647 -0.01158015 -0.02316075
vn 0.9998873 0.006715289 0.01343
vn 0.9998872 0.006714886 0.01342929
vn 0.9998873 0.006714724 0.01342901
vn 0.9998874 0.006713652 0.01342721
vn 0.9998873 0.006712994 0.01342608
vn 0.9998873 0.006712047 0.01342467
vn 0.9998873 0.006713551 0.01342708
vn 0.9998872 0.006714239 0.01342806
vn 0.9998874 0.006714551 0.01342855
vn 0.9998873 0.006714642 0.0134286
vn 0.9998873 0.006714041 0.01342762
vn 0.9998873 0.006714356 0.0134282
vn 0.9998873 0.006714931 0.01342926
vn 0.996731 0.03613172 0.07226282
vn 0.7422424 0.2996921 0.599384
vn 0.6964123 0.3209393 0.6418784
vn 0.6964116 0.3209397 0.6418791
vn 0.6964111 0.3209399 0.6418796
vn 0.6964111 0.3209399 0.6418795
vn 0.6964114 0.3209397 0.6418792
vn 0.6964118 0.3209394 0.641879
vn 0.6964115 0.3209397 0.6418793
vn 0.6964118 0.3209395 0.641879
vn 0.6964115 0.3209396 0.6418792
vn 0.6964116 0.3209396 0.6418793
vn 0.6964118 0.3209394 0.6418789
vn 0.5413326 0.376021 0.7520422
vn 0.6964285 0.3209322 0.6418644
vn -0.0150126 0.4471631 0.8943265
vn -0.01501389 0.4471631 0.8943264
vn -0.01501434 0.4471632 0.8943265
vn -0.01501555 0.4471632 0.8943263
vn -0.01501349 0.4471631 0.8943265
vn -0.01501188 0.4471629 0.8943267
vn -0.01500913 0.4471626 0.8943268
vn -0.01496389 0.4471579 0.8943299
vn -0.01499227 0.4471609 0.894328
vn -0.01502078 0.4471637 0.8943261
vn -0.01501666 0.4471634 0.8943264
vn -0.01501378 0.4471631 0.8943264
vn -0.01501317 0.447163 0.8943265
vn -0.0150129 0.4471631 0.8943265
vn -0.01500787 0.4471632 0.8943266
vn 0.1526966 0.4419691 0.8839385
vn -0.3965106 0.4105554 0.8211113
vn -0.3965106 0.4105554 0.8211113
vn -0.3965106 0.4105554 0.8211113
vn 8.940697E-08 -0.8944273 0.4472136
vn 0.01501354 -0.4471629 -0.8943266
vn 8.940697E-08 -0.8944273 0.4472136
vn 0.9617752 0.1224653 0.2449302
vn -0.2575192 -0.4134747 0.8733398
vn -0.2233735 -0.5077074 0.8320682
vn -0.3955086 0.3459697 0.8508102
vn -0.3965106 0.4105554 0.8211113
vn -0.3965106 0.4105554 0.8211113
vn -0.3965106 0.4105554 0.8211113
vn -0.3944016 0.3162433 0.862808
vn 8.940697E-08 -0.8944273 0.4472136
vn -0.3964736 0.3991972 0.8267106
vn -0.3965106 0.4105554 0.8211113
vn -0.3925255 0.279938 0.8761042
vn -0.3965167 0.4105542 0.8211089
vn -0.395801 0.4635166 0.7927762
vn 0.01501352 -0.447163 -0.8943265
vn -0.3965323 0.4105512 0.8211029
vn -2.842283E-06 0.8944301 -0.4472079
vn -8.940697E-08 0.8944273 -0.4472136
vn -4.856136E-07 0.8944272 -0.4472137
vn 0 0 0
vn 0.01501346 -0.447163 -0.8943266
vn 0.01501349 -0.447163 -0.8943266
vn 0.01501348 -0.4471631 -0.8943266
vn -4.856136E-07 0.8944272 -0.4472137
vn -4.856136E-07 0.8944272 -0.4472137
vn 0.9180301 0.1773251 0.3546499
vn 0.9180301 0.177325 0.3546499
vn 0.9180301 0.1773251 0.3546499
vn 0.9180301 0.1773251 0.3546499
vn 0.9180301 0.1773251 0.3546499
vn 0.9180301 0.1773251 0.3546499
vn 0.9180301 0.1773251 0.3546499
vn 0.9180301 0.1773251 0.3546499
vn 0.9180301 0.1773251 0.3546499
vn 8.940697E-08 -0.8944273 0.4472136
vn 8.940697E-08 -0.8944273 0.4472136
vn 8.940697E-08 -0.8944273 0.4472136
vn 8.940697E-08 -0.8944273 0.4472136
vn 8.940697E-08 -0.8944273 0.4472136
vn 8.940697E-08 -0.8944273 0.4472136
vn 8.940697E-08 -0.8944273 0.4472136
vn 8.940697E-08 -0.8944273 0.4472136
vn 8.940697E-08 -0.8944273 0.4472136
vn 8.940697E-08 -0.8944273 0.4472136
vn 8.940697E-08 -0.8944273 0.4472136
vn 8.940697E-08 -0.8944273 0.4472136
vn 8.940697E-08 -0.8944273 0.4472136
vn 8.940696E-08 -0.8944272 0.4472135
vn 8.940697E-08 -0.8944273 0.4472136
vn 8.940697E-08 -0.8944273 0.4472136
vn 8.940696E-08 -0.8944272 0.4472135
vn 8.940697E-08 -0.8944273 0.4472136
vn 8.940697E-08 -0.8944273 0.4472136
vn 8.940697E-08 -0.8944273 0.4472136
vn 8.940696E-08 -0.8944272 0.4472135
vn 8.940697E-08 -0.8944273 0.4472136
vn 8.940697E-08 -0.8944273 0.4472136
vn 8.940697E-08 -0.8944273 0.4472136
vn 8.940697E-08 -0.8944273 0.4472136
vn 8.940697E-08 -0.8944273 0.4472136
vn 8.940697E-08 -0.8944273 0.4472136
vn 8.940697E-08 -0.8944273 0.4472136
vn 8.940697E-08 -0.8944273 0.4472136
vn 8.940697E-08 -0.8944273 0.4472136
vn 8.940697E-08 -0.8944273 0.4472136
vn 8.940696E-08 -0.8944272 0.4472135
vn 8.940697E-08 -0.8944273 0.4472136
vn 8.940696E-08 -0.8944272 0.4472135
vn 8.940696E-08 -0.8944272 0.4472135
vn 8.940697E-08 -0.8944273 0.4472136
vn 8.940696E-08 -0.8944272 0.4472135
vn 8.940696E-08 -0.8944272 0.4472135
vn -0.7176429 0.3114443 0.6228895
vn -0.8703474 0.2202249 0.4404504
vn -0.9712234 0.1065128 0.2130262
vn -0.7176428 0.3114443 0.6228893
vn -0.963635 -0.1195055 -0.2390107
vn -0.8551707 -0.2318117 -0.4636233
vn -0.6964114 -0.3209396 -0.6418793
vn -0.6964114 -0.3209396 -0.6418793
vn -0.7176428 0.3114444 0.6228895
vn 0.9180301 0.1773251 0.3546499
vn 0.9180301 0.1773251 0.3546499
vn 0.9180301 0.1773251 0.3546499
vn 0.9180301 0.1773251 0.3546499
vn 0.9180301 0.1773251 0.3546499
vn 0.9180301 0.1773251 0.3546499
vn 0.9180301 0.1773251 0.3546499
vn 0.9180301 0.1773251 0.3546498
vn 0.3882709 -0.2206313 -0.8947444
vn -3.815397E-07 0.8944276 -0.447213
vn -2.875103E-07 0.8944272 -0.4472136
vn -3.481716E-07 0.8944273 -0.4472136
vn -2.875103E-07 0.8944272 -0.4472136
vn -2.875103E-07 0.8944272 -0.4472136
vn -3.264586E-07 0.8944274 -0.4472134
vn -3.264585E-07 0.8944274 -0.4472134
vn -3.264586E-07 0.8944274 -0.4472134
vn -3.264585E-07 0.8944274 -0.4472134
vn -3.264584E-07 0.8944274 -0.4472134
vn -3.264587E-07 0.8944273 -0.4472133
vn -3.264594E-07 0.8944274 -0.4472134
vn -3.264575E-07 0.8944273 -0.4472133
vn -4.188477E-07 0.8944272 -0.4472136
vn -3.695675E-07 0.8944272 -0.4472137
vn -4.19689E-07 0.8944272 -0.4472136
vn -4.196894E-07 0.8944272 -0.4472136
vn -4.196899E-07 0.8944272 -0.4472136
vn -4.196896E-07 0.8944272 -0.4472136
vn -4.196896E-07 0.8944272 -0.4472136
vn -4.196895E-07 0.8944272 -0.4472136
vn -4.196893E-07 0.8944272 -0.4472136
vn -3.294816E-07 0.8944272 -0.4472137
vn -3.194455E-07 0.8944272 -0.4472138
vn -3.194454E-07 0.8944272 -0.4472138
vn -3.194453E-07 0.8944272 -0.4472138
vn -3.194455E-07 0.8944272 -0.4472138
vn -3.194453E-07 0.8944272 -0.4472138
vn -3.194454E-07 0.8944272 -0.4472138
vn -2.596718E-07 0.8944272 -0.4472137
vn -8.444769E-08 0.8944271 -0.4472139
vn -8.444754E-08 0.8944271 -0.4472139
vn -8.444727E-08 0.8944271 -0.4472139
vn -8.445252E-08 0.8944271 -0.4472139
vn -8.444677E-08 0.8944271 -0.4472139
vn -8.444712E-08 0.8944271 -0.4472139
vn -8.444817E-08 0.8944271 -0.4472139
vn -8.444895E-08 0.8944271 -0.4472138
vn -2.875103E-07 0.8944272 -0.4472136
vn -2.875103E-07 0.8944272 -0.4472136
vn -2.875103E-07 0.8944272 -0.4472136

f 1//1 2//2 3//3
f 4//4 1//1 3//3
f 3//3 5//5 4//4
f 3//3 6//6 5//5
f 5//5 6//6 7//7
f 8//8 7//7 6//6
f 9//9 8//8 6//6
f 10//10 9//9 6//6
f 9//9 10//10 11//11
f 11//11 10//10 12//12
f 13//13 11//11 12//12
f 13//13 12//12 14//14
f 13//13 14//14 15//15
f 15//15 14//14 16//16
f 15//15 16//16 17//17
f 18//18 17//17 16//16
f 19//19 17//17 18//18
f 19//19 18//18 20//20
f 21//21 19//19 20//20
f 22//22 19//19 21//21
f 22//22 21//21 23//23
f 24//24 22//22 23//23
f 24//24 23//23 25//25
f 26//26 24//24 25//25
f 26//26 25//25 27//27
f 28//28 26//26 27//27
f 28//28 27//27 29//29
f 29//29 27//27 30//30
f 31//31 29//29 30//30
f 31//31 30//30 32//32
f 33//33 31//31 32//32
f 33//33 32//32 34//34
f 35//35 33//33 34//34
f 35//35 34//34 36//36
f 37//37 35//35 36//36
f 37//37 36//36 38//38
f 39//39 37//37 38//38
f 39//39 38//38 40//40
f 41//41 39//39 40//40
f 41//41 40//40 42//42
f 41//41 42//42 43//43
f 43//43 42//42 44//44
f 45//45 43//43 44//44
f 45//45 44//44 46//46
f 47//47 45//45 46//46
f 48//48 45//45 47//47
f 48//48 47//47 49//49
f 50//50 48//48 49//49
f 50//50 49//49 51//51
f 52//52 50//50 51//51
f 52//52 51//51 53//53
f 54//54 52//52 53//53
f 55//55 54//54 53//53
f 55//55 53//53 56//56
f 55//55 56//56 57//57
f 57//57 56//56 58//58
f 57//57 58//58 59//59
f 59//59 58//58 60//60
f 59//59 60//60 61//61
f 61//61 60//60 62//62
f 61//61 62//62 63//63
f 63//63 62//62 64//64
f 63//63 64//64 65//65
f 65//65 64//64 66//66
f 65//65 66//66 67//67
f 68//68 67//67 66//66
f 69//69 67//67 68//68
f 69//69 68//68 70//70
f 71//71 69//69 70//70
f 72//72 71//71 73//73
f 74//74 75//75 76//76
f 77//77 74//74 76//76
f 75//75 77//77 76//76
f 78//78 75//75 74//74
f 79//79 75//75 78//78
f 78//78 74//74 80//80
f 81//81 78//78 80//80
f 82//82 78//78 81//81
f 82//82 83//83 78//78
f 83//83 84//84 79//79
f 84//84 85//85 79//79
f 80//80 74//74 86//86
f 87//87 80//80 86//86
f 81//81 80//80 87//87
f 86//86 74//74 88//88
f 88//88 74//74 77//77
f 86//86 88//88 89//89
f 90//90 86//86 89//89
f 87//87 86//86 90//90
f 75//75 91//91 77//77
f 90//90 89//89 92//92
f 90//90 92//92 93//93
f 94//94 90//90 93//93
f 95//95 83//83 82//82
f 95//95 82//82 81//81
f 95//95 81//81 87//87
f 95//95 87//87 90//90
f 95//95 96//96 83//83
f 97//97 91//91 75//75
f 97//97 98//98 91//91
f 97//97 99//99 98//98
f 100//100 95//95 101//101
f 102//102 103//103 104//104
f 102//102 104//104 105//105
f 102//102 105//105 106//106
f 106//106 105//105 107//107
f 108//108 102//102 106//106
f 109//109 102//102 108//108
f 110//110 108//108 106//106
f 111//111 112//112 113//113
f 111//111 113//113 114//114
f 111//111 114//114 115//115
f 111//111 115//115 116//116
f 111//111 116//116 117//117
f 117//117 118//118 111//111
f 118//118 119//119 111//111
f 120//120 111//111 119//119
f 120//120 121//121 111//111
f 121//121 122//122 111//111
f 111//111 122//122 123//123
f 114//114 113//113 124//124
f 124//124 113//113 125//125
f 125//125 113//113 126//126
f 126//126 113//113 127//127
f 127//127 113//113 128//128
f 128//128 113//113 129//129
f 129//129 113//113 130//130
f 130//130 113//113 131//131
f 131//131 113//113 132//132
f 132//132 113//113 133//133
f 133//133 113//113 134//134
f 133//133 134//134 135//135
f 135//135 134//134 136//136
f 134//134 137//137 136//136
f 137//137 134//134 138//138
f 138//138 134//134 139//139
f 139//139 134//134 140//140
f 140//140 134//134 141//141
f 134//134 142//142 141//141
f 134//134 143//143 142//142
f 134//134 144//144 143//143
f 144//144 134//134 145//145
f 145//145 134//134 146//146
f 147//147 134//134 148//148
f 149//149 150//150 151//151
f 149//149 152//152 150//150
f 151//151 150//150 153//153
f 151//151 153//153 154//154
f 154//154 153//153 155//155
f 154//154 155//155 156//156
f 152//152 157//157 150//150
f 158//158 159//159 160//160
f 161//161 159//159 158//158
f 162//162 159//159 161//161
f 163//163 162//162 161//161
f 164//164 162//162 163//163
f 165//165 162//162 164//164
f 9//9 166//166 8//8
f 166//166 9//9 167//167
f 168//168 169//169 170//170
f 168//168 171//171 169//169
f 172//172 169//169 173//173
f 174//174 169//169 172//172
f 169//169 174//174 175//175
f 176//176 169//169 175//175
f 177//177 169//169 176//176
f 178//178 169//169 177//177
f 178//178 179//179 169//169
f 179//179 180//180 169//169
f 180//180 181//181 169//169
f 182//182 181//181 180//180
f 182//182 183//183 181//181
f 183//183 184//184 181//181
f 184//184 185//185 181//181
f 185//185 186//186 181//181
f 186//186 187//187 181//181
f 187//187 188//188 181//181
f 188//188 189//189 181//181
f 181//181 189//189 190//190
f 181//181 190//190 191//191
f 192//192 181//181 191//191
f 193//193 181//181 192//192
f 194//194 181//181 193//193
f 195//195 181//181 194//194
f 195//195 196//196 181//181
f 196//196 197//197 198//198
f 196//196 198//198 199//199
f 199//199 200//200 196//196
f 196//196 200//200 201//201
f 201//201 202//202 196//196
f 196//196 202//202 203//203
f 196//196 203//203 204//204
f 205//205 196//196 206//206
f 207//207 196//196 205//205
