v -9.982228 -199.404 9.999985
v -9.982232 -199.404 50.00002
v -9.982228 -199.404 9.999985
v -9.982227 -199.404 9.999985
v -6.417148 -199.6169 9.999985
v -4.991114 -199.702 9.999985
v -4.991114 -199.702 9.999985
v -4.991118 -199.702 50.00002
v -4.99112 -199.702 90.00006
v -4.883293 -199.4801 9.999985
v -4.02073 -197.705 90.00006
v -4.869896 -199.4526 9.999985
v -3.900145 -197.4569 90.00006
v -4.866134 -199.4448 9.999985
v -3.866291 -197.3872 90.00006
v -4.823858 -199.3578 9.999985
v -3.485803 -196.6042 90.00006
v -4.302624 -198.2852 9.999985
v -3.427889 -196.485 90.00006
v -3.808428 -197.2682 9.999985
v -3.751576 -197.1512 9.999985
v -3.36666 -196.3591 90.00006
v -3.632998 -196.9072 9.999985
v -3.353485 -196.3319 90.00006
v -3.318542 -196.26 9.999985
v -3.318546 -196.26 90.00006
v -3.126174 -196.1935 9.999985
v -2.259287 -195.8936 90.00006
v -1.587248 -195.6611 90.00006
v -3.078445 -196.177 9.999985
v -1.157688 -195.5125 90.00006
v -3.064241 -196.1721 9.999985
v -1.02985 -195.4682 90.00006
v -2.956888 -196.1349 9.999985
v -0.06366737 -195.134 90.00006
v -1.72526 -195.7088 9.999985
v 0.07318019 -195.0867 90.00006
v -0.7077402 -195.3568 9.999985
v 0.1862379 -195.0475 90.00006
v 0.2979902 -195.0089 9.999985
v 0.2979857 -195.0089 90.00006
v 0.4042054 -195.0605 9.999985
v 1.253922 -195.4734 90.00006
v 0.6421877 -195.1761 9.999985
v 3.395761 -196.5142 90.00006
v 1.30612 -195.4988 9.999985
v 1.571639 -195.6278 9.999985
v 3.499034 -196.5644 90.00006
v 2.477012 -196.0677 9.999985
v 3.599629 -196.6133 90.00006
v 3.22249 -196.43 9.999985
v 3.682462 -196.6535 90.00006
v 3.739963 -196.6815 9.999985
v 3.739957 -196.6815 90.00006
v 3.739959 -196.6815 90.00006
v 3.814323 -196.8964 9.999985
v 4.409197 -198.6159 90.00006
v 3.836209 -196.9597 9.999985
v 4.606179 -199.1853 90.00006
v 3.838444 -196.9661 9.999985
v 4.626288 -199.2435 90.00006
v 3.83948 -196.9691 9.999985
v 4.635615 -199.2704 90.00006
v 3.840791 -196.9729 9.999985
v 4.647399 -199.3045 90.00006
v 3.865077 -197.0431 9.999985
v 4.865994 -199.9363 90.00006
v 4.991112 -200.298 9.999985
v 4.99111 -200.298 90.00006
v 4.991114 -200.298 9.999985
v 4.99111 -200.298 90.00006
v 4.991114 -200.298 9.999985
v 4.991114 -200.298 9.999985
v 6.417147 -200.3831 9.999985
v 9.982228 -200.596 9.999985
v 9.982228 -200.596 9.999985
v 9.982227 -200.596 9.999985
v 4.991114 -200.298 9.999985
v 4.991114 -200.298 9.999985
v 4.991114 -200.298 9.999985
v 4.99111 -200.298 90.00006
v 4.99111 -200.298 90.00006
v 4.99111 -200.298 90.00006
v 4.991114 -200.298 9.999985
v 7.479925 -193.3629 9.999985
v 4.991114 -200.298 9.999985
v 4.99111 -200.298 90.00006
v 4.991114 -200.298 9.999985
v 4.991112 -200.298 50.00002
v 4.99111 -200.298 90.00006
v 9.982224 -200.596 50.00002
v 4.99111 -200.298 90.00002
v 4.99111 -200.298 90.00006
v 6.417141 -200.3831 90.00006
v 7.47992 -193.3629 90.00005
v 4.99111 -200.298 90.00006
v 7.479925 -193.3629 9.999985
v 9.982223 -200.596 90.00006
v 7.47992 -193.3629 90.00005
v 3.739959 -196.6815 90.00006
v 3.739957 -196.6815 90.00006
v -9.982232 -199.404 50.00002
v -9.982228 -199.404 9.999985
v -9.982227 -199.404 9.999985
v -6.417148 -199.6169 9.999985
v -4.991118 -199.702 50.00002
v -4.991114 -199.702 9.999985
v -7.058508 -199.5786 90.00006
v -9.982235 -199.404 90.00006
v -4.99112 -199.702 90.00006
v -9.982228 -199.404 9.999985
v -6.63708 -192.5201 9.999985
v 0.5959812 -190.0178 9.999985
v -3.318542 -196.26 9.999985
v -3.632998 -196.9072 9.999985
v -3.751576 -197.1512 9.999985
v -3.808428 -197.2682 9.999985
v -4.302624 -198.2852 9.999985
v -4.823858 -199.3578 9.999985
v -4.866134 -199.4448 9.999985
v -4.869896 -199.4526 9.999985
v -4.883293 -199.4801 9.999985
v -4.991114 -199.702 9.999985
v -3.126174 -196.1935 9.999985
v -3.078445 -196.177 9.999985
v -3.064241 -196.1721 9.999985
v -2.956888 -196.1349 9.999985
v -1.72526 -195.7088 9.999985
v -0.7077402 -195.3568 9.999985
v 0.2979902 -195.0089 9.999985
v 0.4042054 -195.0605 9.999985
v 0.6421877 -195.1761 9.999985
v 1.30612 -195.4988 9.999985
v 7.479925 -193.3629 9.999985
v 1.571639 -195.6278 9.999985
v 2.477012 -196.0677 9.999985
v 3.22249 -196.43 9.999985
v 3.739963 -196.6815 9.999985
v 3.814323 -196.8964 9.999985
v 3.836209 -196.9597 9.999985
v 3.838444 -196.9661 9.999985
v 3.83948 -196.9691 9.999985
v 3.840791 -196.9729 9.999985
v 3.865077 -197.0431 9.999985
v 4.991112 -200.298 9.999985
v 4.991114 -200.298 9.999985
v 4.991114 -200.298 9.999985
v 9.982228 -200.596 9.999985
v -9.982228 -199.404 9.999985
v -6.637085 -192.5201 90.00005
v -6.63708 -192.5201 9.999985
v -9.982232 -199.404 50.00002
v 0.5959767 -190.0178 90.00005
v 0.5959812 -190.0178 9.999985
v 7.47992 -193.3629 90.00005
v 7.479925 -193.3629 9.999985
v -9.982235 -199.404 90.00006
v 9.982227 -200.596 9.999985
v 4.991112 -200.298 50.00002
v 4.991114 -200.298 9.999985
v 9.982224 -200.596 50.00002
v 4.99111 -200.298 90.00002
v 9.982223 -200.596 90.00006
v 6.417141 -200.3831 90.00006
v 4.99111 -200.298 90.00006
v -4.99112 -199.702 90.00006
v -6.637085 -192.5201 90.00005
v -7.058508 -199.5786 90.00006
v -6.637085 -192.5201 90.00005
v -9.982235 -199.404 90.00006
v -4.99112 -199.702 90.00006
v -4.02073 -197.705 90.00006
v -4.99112 -199.702 90.00006
v -3.900145 -197.4569 90.00006
v -3.866291 -197.3872 90.00006
v -3.485803 -196.6042 90.00006
v -3.427889 -196.485 90.00006
v -3.36666 -196.3591 90.00006
v -3.353485 -196.3319 90.00006
v -3.318546 -196.26 90.00006
v 0.5959767 -190.0178 90.00005
v -2.259287 -195.8936 90.00006
v -1.587248 -195.6611 90.00006
v -1.157688 -195.5125 90.00006
v -1.02985 -195.4682 90.00006
v -0.06366737 -195.134 90.00006
v 0.07318019 -195.0867 90.00006
v 0.1862379 -195.0475 90.00006
v 0.2979857 -195.0089 90.00006
v 1.253922 -195.4734 90.00006
v 3.395761 -196.5142 90.00006
v 3.499034 -196.5644 90.00006
v 3.599629 -196.6133 90.00006
v 3.682462 -196.6535 90.00006
v 3.739957 -196.6815 90.00006
v 7.47992 -193.3629 90.00005
v 3.739959 -196.6815 90.00006
v 4.409197 -198.6159 90.00006
v 4.606179 -199.1853 90.00006
v 4.626288 -199.2435 90.00006
v 4.635615 -199.2704 90.00006
v 4.647399 -199.3045 90.00006
v 4.865994 -199.9363 90.00006
v 4.99111 -200.298 90.00006
v 6.417141 -200.3831 90.00006
v 4.99111 -200.298 90.00006
v 9.982223 -200.596 90.00006

vn -0.9982225 0.05959816 -5.340572E-07
vn -0.9982225 0.05959816 -3.814694E-07
vn -0.757907 0.0452503 -0.6507913
vn 0 0 -1
vn 0 0 -1
vn 0.8994279 -0.4370691 6.462383E-08
vn 0.9881899 -0.05899918 -0.141421
vn 0.1793449 -0.9837862 1.883212E-07
vn 0.8994299 -0.4370649 3.424387E-07
vn 0.8994303 -0.4370642 3.013172E-07
vn 0.8994302 -0.4370645 3.400592E-07
vn 0.8994297 -0.4370655 4.236429E-07
vn 0.8994292 -0.4370664 4.821552E-07
vn 0.8994318 -0.4370612 -1.095606E-07
vn 0.8994306 -0.4370637 1.780023E-07
vn 0.8994303 -0.4370641 2.260704E-07
vn 0.8994305 -0.4370641 2.089216E-07
vn 0.8994305 -0.4370639 2.077588E-07
vn 0.8994303 -0.4370642 2.217208E-07
vn 0.8994305 -0.4370639 2.409156E-07
vn 0.89943 -0.4370649 2.351288E-07
vn 0.8994292 -0.4370663 2.778156E-07
vn 0.8994302 -0.4370644 1.673258E-07
vn 0.8994306 -0.4370636 1.811419E-07
vn 0.8232168 -0.5677273 1.839746E-07
vn 0.36532 -0.930882 2.087927E-07
vn 0.3269396 -0.9450453 2.638545E-07
vn 0.3269404 -0.9450449 2.243663E-07
vn 0.3269407 -0.9450449 2.046673E-07
vn 0.3269427 -0.9450443 5.134434E-08
vn 0.3269439 -0.9450437 -3.311141E-08
vn 0.3269455 -0.9450432 -2.493531E-07
vn 0.3269428 -0.9450442 1.725448E-08
vn 0.3269417 -0.9450445 1.95488E-07
vn 0.3269412 -0.9450448 2.545912E-07
vn 0.326941 -0.9450447 3.133276E-07
vn 0.3269421 -0.9450443 2.147517E-07
vn 0.3269415 -0.9450446 2.354086E-07
vn 0.3269404 -0.945045 2.762392E-07
vn 0.2640306 -0.9645143 2.850269E-07
vn -0.37677 -0.926307 1.199789E-07
vn -0.4370633 -0.8994308 7.869002E-08
vn -0.4370643 -0.8994303 1.061353E-07
vn -0.4370649 -0.89943 1.468234E-07
vn -0.4370649 -0.89943 1.18347E-07
vn -0.4370645 -0.8994301 1.005928E-07
vn -0.437064 -0.8994304 -2.558145E-08
vn -0.4370644 -0.8994303 4.388408E-08
vn -0.4370641 -0.8994305 2.142637E-08
vn -0.4370643 -0.8994302 1.39089E-08
vn -0.4370644 -0.8994303 6.971242E-09
vn -0.437064 -0.8994304 -1.713521E-09
vn -0.6057403 -0.7956625 -6.568339E-08
vn -0.437043 -0.8994406 -3.749556E-09
vn -0.9450443 -0.3269421 -1.50355E-07
vn -0.9450447 -0.3269409 -1.053244E-07
vn -0.9450449 -0.3269405 -6.84602E-08
vn -0.9450452 -0.3269394 3.948485E-08
vn -0.9450446 -0.3269413 -1.617077E-07
vn -0.9450442 -0.3269429 -4.500968E-07
vn -0.9450431 -0.3269454 -7.290805E-07
vn -0.9450284 -0.3269882 -6.344963E-06
vn -0.9450377 -0.3269614 -2.762223E-06
vn -0.945047 -0.3269345 5.911333E-07
vn -0.9450457 -0.3269383 2.018595E-07
vn -0.9450447 -0.326941 -1.357495E-07
vn -0.9450445 -0.3269416 -1.613505E-07
vn -0.9450445 -0.3269419 -1.611312E-07
vn -0.9450428 -0.3269466 -9.115076E-08
vn -0.8769223 -0.4806322 -9.305477E-08
vn -0.9982225 0.05959816 -1.907347E-07
vn -0.9982225 0.05959816 -1.907347E-07
vn -0.9982225 0.05959816 -1.907347E-07
vn 0 0 -1
vn 0.9450446 0.3269413 2.936142E-07
vn 0 0 -1
vn 0.07063665 -0.9975021 1.677742E-07
vn -0.6483094 0.03870685 -0.7603924
vn -0.562347 0.03357453 -0.8262195
vn -0.9956998 0.05944755 -0.0710492
vn -0.9982225 0.05959816 -1.90735E-07
vn -0.9982225 0.05959816 -1.907347E-07
vn -0.9982225 0.05959816 -1.907343E-07
vn -0.9929129 0.05928116 -0.1030029
vn 0 0 -1
vn -0.9981428 0.05958765 -0.01266336
vn -0.9982225 0.05959816 -1.907357E-07
vn -0.9881898 0.05899917 -0.1414215
vn -0.9982221 0.05960478 -1.907357E-07
vn -0.9964212 0.0594969 0.06004161
vn 0.9450446 0.3269413 2.232892E-07
vn -0.998221 0.05962177 -1.907375E-07
vn -6.930415E-06 4.137755E-07 1
vn 0 0 1
vn 2.572158E-08 4.308163E-07 1
vn 0 0 0
vn 0.9450446 0.3269414 2.130985E-07
vn 0.9450446 0.3269413 1.778031E-07
vn 0.9450447 0.3269414 2.029077E-07
vn 2.572158E-08 4.308163E-07 1
vn 2.572158E-08 4.308163E-07 1
vn -0.05959816 -0.9982225 1.192093E-07
vn -0.05959816 -0.9982224 1.192092E-07
vn -0.05959816 -0.9982225 1.192093E-07
vn -0.05959816 -0.9982225 1.192093E-07
vn -0.05959816 -0.9982225 1.192093E-07
vn -0.05959816 -0.9982225 1.192092E-07
vn -0.05959816 -0.9982225 1.192093E-07
vn -0.05959816 -0.9982225 1.192093E-07
vn -0.05959816 -0.9982225 1.192093E-07
vn 0 0 -1
vn 0 0 -1
vn 0 0 -1
vn 0 0 -1
vn 0 0 -1
vn 0 0 -1
vn 0 0 -1
vn 0 0 -1
vn 0 0 -1
vn 0 0 -1
vn 0 0 -1
vn 0 0 -1
vn 0 0 -1
vn 0 0 -0.9999999
vn 0 0 -1
vn 0 0 -1
vn 0 0 -0.9999999
vn 0 0 -1
vn 0 0 -1
vn 0 0 -1
vn 0 0 -0.9999999
vn 0 0 -1
vn 0 0 -1
vn 0 0 -1
vn 0 0 -1
vn 0 0 -1
vn 0 0 -1
vn 0 0 -1
vn 0 0 -1
vn 0 0 -1
vn 0 0 -1
vn 0 0 -0.9999999
vn 0 0 -1
vn 0 0 -0.9999999
vn 0 0 -0.9999999
vn 0 0 -1
vn 0 0 -0.9999999
vn 0 0 -0.9999999
vn -0.8994302 0.4370646 -3.42789E-07
vn -0.7597759 0.650185 -3.092419E-07
vn -0.5551646 0.8317405 -2.619401E-07
vn -0.89943 0.4370645 -3.23738E-07
vn -0.07749239 0.996993 -1.531119E-07
vn 0.1955685 0.9806901 -7.358348E-08
vn 0.4370645 0.8994301 -7.245398E-09
vn 0.4370645 0.8994302 0
vn -0.8994302 0.4370645 -2.570785E-07
vn -0.05959816 -0.9982225 1.192093E-07
vn -0.05959816 -0.9982225 1.192093E-07
vn -0.05959816 -0.9982225 1.192093E-07
vn -0.05959816 -0.9982225 1.192093E-07
vn -0.05959816 -0.9982225 1.192093E-07
vn -0.05959816 -0.9982225 1.192093E-07
vn -0.05959816 -0.9982225 1.283792E-07
vn -0.05959816 -0.9982224 1.283792E-07
vn 0.9774789 -0.05835968 0.2028032
vn -7.354492E-07 4.390947E-08 1
vn 1.286079E-08 2.154081E-07 0.9999999
vn -9.747367E-08 2.399042E-07 1
vn 1.286079E-08 2.154081E-07 1
vn 1.286079E-08 2.154081E-07 1
vn -2.970994E-07 1.443711E-07 1
vn -2.970995E-07 1.44371E-07 1
vn -2.970989E-07 1.443713E-07 1
vn -2.970997E-07 1.443709E-07 1
vn -2.970997E-07 1.443708E-07 1
vn -2.970993E-07 1.443713E-07 0.9999999
vn -2.970975E-07 1.443727E-07 1
vn -2.971015E-07 1.443692E-07 0.9999999
vn -1.097025E-07 3.106519E-07 1
vn 1.818791E-08 3.046332E-07 1
vn -1.079947E-07 3.121666E-07 1
vn -1.079952E-07 3.121668E-07 1
vn -1.07996E-07 3.121671E-07 1
vn -1.079955E-07 3.121669E-07 1
vn -1.079955E-07 3.121669E-07 1
vn -1.079953E-07 3.121669E-07 1
vn -1.079947E-07 3.121669E-07 1
vn 1.191046E-07 2.98608E-07 1
vn 1.443711E-07 2.970996E-07 1
vn 1.443713E-07 2.970996E-07 1
vn 1.443705E-07 2.970993E-07 1
vn 1.443722E-07 2.971001E-07 1
vn 1.443714E-07 2.970996E-07 1
vn 1.44371E-07 2.970995E-07 1
vn 1.253262E-07 2.266021E-07 1
vn 3.12167E-07 1.079952E-07 1
vn 3.121672E-07 1.079951E-07 1
vn 3.121675E-07 1.079949E-07 1
vn 3.121609E-07 1.079981E-07 1
vn 3.121683E-07 1.079947E-07 1
vn 3.121677E-07 1.079948E-07 1
vn 3.121663E-07 1.079954E-07 1
vn 3.121652E-07 1.079959E-07 0.9999999
vn 1.286079E-08 2.154081E-07 1
vn 1.28608E-08 2.154082E-07 1
vn 1.286079E-08 2.154081E-07 0.9999999

f 1//1 2//2 3//3
f 4//4 1//1 3//3
f 3//3 5//5 4//4
f 3//3 6//6 5//5
f 5//5 6//6 7//7
f 8//8 7//7 6//6
f 9//9 8//8 6//6
f 10//10 9//9 6//6
f 9//9 10//10 11//11
f 11//11 10//10 12//12
f 13//13 11//11 12//12
f 13//13 12//12 14//14
f 13//13 14//14 15//15
f 15//15 14//14 16//16
f 15//15 16//16 17//17
f 18//18 17//17 16//16
f 19//19 17//17 18//18
f 19//19 18//18 20//20
f 21//21 19//19 20//20
f 22//22 19//19 21//21
f 22//22 21//21 23//23
f 24//24 22//22 23//23
f 24//24 23//23 25//25
f 26//26 24//24 25//25
f 26//26 25//25 27//27
f 28//28 26//26 27//27
f 28//28 27//27 29//29
f 29//29 27//27 30//30
f 31//31 29//29 30//30
f 31//31 30//30 32//32
f 33//33 31//31 32//32
f 33//33 32//32 34//34
f 35//35 33//33 34//34
f 35//35 34//34 36//36
f 37//37 35//35 36//36
f 37//37 36//36 38//38
f 39//39 37//37 38//38
f 39//39 38//38 40//40
f 41//41 39//39 40//40
f 41//41 40//40 42//42
f 41//41 42//42 43//43
f 43//43 42//42 44//44
f 45//45 43//43 44//44
f 45//45 44//44 46//46
f 47//47 45//45 46//46
f 48//48 45//45 47//47
f 48//48 47//47 49//49
f 50//50 48//48 49//49
f 50//50 49//49 51//51
f 52//52 50//50 51//51
f 52//52 51//51 53//53
f 54//54 52//52 53//53
f 55//55 54//54 53//53
f 55//55 53//53 56//56
f 55//55 56//56 57//57
f 57//57 56//56 58//58
f 57//57 58//58 59//59
f 59//59 58//58 60//60
f 59//59 60//60 61//61
f 61//61 60//60 62//62
f 61//61 62//62 63//63
f 63//63 62//62 64//64
f 63//63 64//64 65//65
f 65//65 64//64 66//66
f 65//65 66//66 67//67
f 68//68 67//67 66//66
f 69//69 67//67 68//68
f 69//69 68//68 70//70
f 71//71 69//69 70//70
f 72//72 71//71 73//73
f 74//74 75//75 76//76
f 77//77 74//74 76//76
f 75//75 77//77 76//76
f 78//78 75//75 74//74
f 79//79 75//75 78//78
f 78//78 74//74 80//80
f 81//81 78//78 80//80
f 82//82 78//78 81//81
f 82//82 83//83 78//78
f 83//83 84//84 79//79
f 84//84 85//85 79//79
f 80//80 74//74 86//86
f 87//87 80//80 86//86
f 81//81 80//80 87//87
f 86//86 74//74 88//88
f 88//88 74//74 77//77
f 86//86 88//88 89//89
f 90//90 86//86 89//89
f 87//87 86//86 90//90
f 75//75 91//91 77//77
f 90//90 89//89 92//92
f 90//90 92//92 93//93
f 94//94 90//90 93//93
f 95//95 83//83 82//82
f 95//95 82//82 81//81
f 95//95 81//81 87//87
f 95//95 87//87 90//90
f 95//95 96//96 83//83
f 97//97 91//91 75//75
f 97//97 98//98 91//91
f 97//97 99//99 98//98
f 100//100 95//95 101//101
f 102//102 103//103 104//104
f 102//102 104//104 105//105
f 102//102 105//105 106//106
f 106//106 105//105 107//107
f 108//108 102//102 106//106
f 109//109 102//102 108//108
f 110//110 108//108 106//106
f 111//111 112//112 113//113
f 111//111 113//113 114//114
f 111//111 114//114 115//115
f 111//111 115//115 116//116
f 111//111 116//116 117//117
f 117//117 118//118 111//111
f 118//118 119//119 111//111
f 120//120 111//111 119//119
f 120//120 121//121 111//111
f 121//121 122//122 111//111
f 111//111 122//122 123//123
f 114//114 113//113 124//124
f 124//124 113//113 125//125
f 125//125 113//113 126//126
f 126//126 113//113 127//127
f 127//127 113//113 128//128
f 128//128 113//113 129//129
f 129//129 113//113 130//130
f 130//130 113//113 131//131
f 131//131 113//113 132//132
f 132//132 113//113 133//133
f 133//133 113//113 134//134
f 133//133 134//134 135//135
f 135//135 134//134 136//136
f 134//134 137//137 136//136
f 137//137 134//134 138//138
f 138//138 134//134 139//139
f 139//139 134//134 140//140
f 140//140 134//134 141//141
f 134//134 142//142 141//141
f 134//134 143//143 142//142
f 134//134 144//144 143//143
f 144//144 134//134 145//145
f 145//145 134//134 146//146
f 147//147 134//134 148//148
f 149//149 150//150 151//151
f 149//149 152//152 150//150
f 151//151 150//150 153//153
f 151//151 153//153 154//154
f 154//154 153//153 155//155
f 154//154 155//155 156//156
f 152//152 157//157 150//150
f 158//158 159//159 160//160
f 161//161 159//159 158//158
f 162//162 159//159 161//161
f 163//163 162//162 161//161
f 164//164 162//162 163//163
f 165//165 162//162 164//164
f 9//9 166//166 8//8
f 166//166 9//9 167//167
f 168//168 169//169 170//170
f 168//168 171//171 169//169
f 172//172 169//169 173//173
f 174//174 169//169 172//172
f 169//169 174//174 175//175
f 176//176 169//169 175//175
f 177//177 169//169 176//176
f 178//178 169//169 177//177
f 178//178 179//179 169//169
f 179//179 180//180 169//169
f 180//180 181//181 169//169
f 182//182 181//181 180//180
f 182//182 183//183 181//181
f 183//183 184//184 181//181
f 184//184 185//185 181//181
f 185//185 186//186 181//181
f 186//186 187//187 181//181
f 187//187 188//188 181//181
f 188//188 189//189 181//181
f 181//181 189//189 190//190
f 181//181 190//190 191//191
f 192//192 181//181 191//191
f 193//193 181//181 192//192
f 194//194 181//181 193//193
f 195//195 181//181 194//194
f 195//195 196//196 181//181
f 196//196 197//197 198//198
f 196//196 198//198 199//199
f 199//199 200//200 196//196
f 196//196 200//200 201//201
f 201//201 202//202 196//196
f 196//196 202//202 203//203
f 196//196 203//203 204//204
f 205//205 196//196 206//206
f 207//207 196//196 205//205
