v 103.9492 192.4005 14.0713
v 103.9492 104.1086 58.21728
v 103.9492 192.4005 14.0713
v 103.9492 192.4005 14.0713
v 102.5388 190.9332 11.13657
v 101.9746 190.3462 9.962669
v 101.9746 190.3462 9.962669
v 101.9746 102.0543 54.10865
v 101.9746 13.76232 98.25463
v 102.1467 190.2672 9.804588
v 103.5236 13.05096 96.8319
v 102.1681 190.2574 9.784946
v 103.716 12.96256 96.65511
v 102.1741 190.2546 9.77943
v 103.7701 12.93774 96.60547
v 102.2416 190.2236 9.717449
v 104.3774 12.65881 96.04762
v 103.0736 189.8415 8.953243
v 104.4699 12.61636 95.96271
v 103.8624 189.4792 8.228683
v 103.9532 189.4376 8.145329
v 104.5676 12.57148 95.87294
v 104.1425 189.3506 7.971478
v 104.5886 12.56182 95.85362
v 104.6444 189.1201 7.510441
v 104.6444 12.5362 95.8024
v 104.6417 189.0291 7.328392
v 104.6295 12.03499 94.79996
v 104.6201 11.717 94.16397
v 104.641 189.0065 7.283222
v 104.614 11.51373 93.75746
v 104.6408 188.9998 7.269783
v 104.6123 11.45325 93.63647
v 104.6393 188.949 7.168186
v 104.5987 10.99607 92.72212
v 104.622 188.3662 6.002628
v 104.5968 10.93131 92.59262
v 104.6077 187.8847 5.039692
v 104.5952 10.87782 92.48563
v 104.5936 187.4088 4.087914
v 104.5936 10.82494 92.37988
v 104.509 187.372 4.014225
v 103.8322 10.49334 91.71667
v 104.3194 187.2894 3.849117
v 102.1261 9.750366 90.23071
v 103.7906 187.0591 3.3885
v 103.5791 186.967 3.204288
v 102.0438 9.714539 90.15907
v 102.8579 186.653 2.576164
v 101.9637 9.679642 90.08928
v 102.2641 186.3944 2.058971
v 101.8977 9.650909 90.03181
v 101.8519 186.2149 1.699963
v 101.8519 9.630966 89.99193
v 101.8519 9.630966 89.99192
v 101.6245 186.2162 1.702663
v 99.80512 9.64312 90.01624
v 101.5575 186.2166 1.703461
v 99.20267 9.646698 90.02339
v 101.5507 186.2166 1.703541
v 99.14117 9.647064 90.02412
v 101.5475 186.2167 1.703579
v 99.11266 9.647232 90.02446
v 101.5435 186.2167 1.703625
v 99.07661 9.647446 90.02489
v 101.4693 186.2171 1.704506
v 98.40807 9.651421 90.03284
v 98.02541 186.2376 1.745419
v 98.02541 9.653694 90.03738
v 98.02541 186.2376 1.745419
v 98.02541 9.653694 90.03738
v 98.02541 186.2376 1.745419
v 98.02541 186.2376 1.745419
v 97.46124 185.6506 0.5715218
v 96.05081 184.1833 -2.363209
v 96.05081 184.1833 -2.363209
v 96.05081 184.1833 -2.363209
v 98.02541 186.2376 1.745419
v 98.02541 186.2376 1.745419
v 98.02541 186.2376 1.745419
v 98.02541 9.653694 90.03738
v 98.02541 9.653694 90.03738
v 98.02541 9.653694 90.03738
v 98.02541 186.2376 1.745419
v 103.7038 184.1378 -2.454121
v 98.02541 186.2376 1.745419
v 98.02541 9.653694 90.03738
v 98.02541 186.2376 1.745419
v 98.02541 97.94563 45.8914
v 98.02541 9.653694 90.03738
v 96.05081 95.89132 41.78278
v 98.02541 9.653778 90.03733
v 98.02541 9.653694 90.03738
v 97.46124 9.06675 88.86348
v 103.7038 7.55394 85.83783
v 98.02541 9.653694 90.03738
v 103.7038 184.1378 -2.454121
v 96.05082 7.59938 85.92875
v 103.7038 7.55394 85.83783
v 101.8519 9.630966 89.99192
v 101.8519 9.630966 89.99193
v 103.9492 104.1086 58.21728
v 103.9492 192.4005 14.0713
v 103.9492 192.4005 14.0713
v 102.5388 190.9332 11.13657
v 101.9746 102.0543 54.10865
v 101.9746 190.3462 9.962669
v 102.7925 14.61324 99.95648
v 103.9492 15.81664 102.3633
v 101.9746 13.76232 98.25463
v 103.9492 192.4005 14.0713
v 109.2888 189.9483 9.166836
v 109.1872 186.5258 2.321781
v 104.6444 189.1201 7.510441
v 104.1425 189.3506 7.971478
v 103.9532 189.4376 8.145329
v 103.8624 189.4792 8.228683
v 103.0736 189.8415 8.953243
v 102.2416 190.2236 9.717449
v 102.1741 190.2546 9.77943
v 102.1681 190.2574 9.784946
v 102.1467 190.2672 9.804588
v 101.9746 190.3462 9.962669
v 104.6417 189.0291 7.328392
v 104.641 189.0065 7.283222
v 104.6408 188.9998 7.269783
v 104.6393 188.949 7.168186
v 104.622 188.3662 6.002628
v 104.6077 187.8847 5.039692
v 104.5936 187.4088 4.087914
v 104.509 187.372 4.014225
v 104.3194 187.2894 3.849117
v 103.7906 187.0591 3.3885
v 103.7038 184.1378 -2.454121
v 103.5791 186.967 3.204288
v 102.8579 186.653 2.576164
v 102.2641 186.3944 2.058971
v 101.8519 186.2149 1.699963
v 101.6245 186.2162 1.702663
v 101.5575 186.2166 1.703461
v 101.5507 186.2166 1.703541
v 101.5475 186.2167 1.703579
v 101.5435 186.2167 1.703625
v 101.4693 186.2171 1.704506
v 98.02541 186.2376 1.745419
v 98.02541 186.2376 1.745419
v 98.02541 186.2376 1.745419
v 96.05081 184.1833 -2.363209
v 103.9492 192.4005 14.0713
v 109.2888 13.36442 97.45879
v 109.2888 189.9483 9.166836
v 103.9492 104.1086 58.21728
v 109.1872 9.941887 90.61374
v 109.1872 186.5258 2.321781
v 103.7038 7.55394 85.83783
v 103.7038 184.1378 -2.454121
v 103.9492 15.81664 102.3633
v 96.05081 184.1833 -2.363209
v 98.02541 97.94563 45.8914
v 98.02541 186.2376 1.745419
v 96.05081 95.89132 41.78278
v 98.02541 9.653778 90.03733
v 96.05082 7.59938 85.92875
v 97.46124 9.06675 88.86348
v 98.02541 9.653694 90.03738
v 101.9746 13.76232 98.25463
v 109.2888 13.36442 97.45879
v 102.7925 14.61324 99.95648
v 109.2888 13.36442 97.45879
v 103.9492 15.81664 102.3633
v 101.9746 13.76232 98.25463
v 103.5236 13.05096 96.8319
v 101.9746 13.76232 98.25463
v 103.716 12.96256 96.65511
v 103.7701 12.93774 96.60547
v 104.3774 12.65881 96.04762
v 104.4699 12.61636 95.96271
v 104.5676 12.57148 95.87294
v 104.5886 12.56182 95.85362
v 104.6444 12.5362 95.8024
v 109.1872 9.941887 90.61374
v 104.6295 12.03499 94.79996
v 104.6201 11.717 94.16397
v 104.614 11.51373 93.75746
v 104.6123 11.45325 93.63647
v 104.5987 10.99607 92.72212
v 104.5968 10.93131 92.59262
v 104.5952 10.87782 92.48563
v 104.5936 10.82494 92.37988
v 103.8322 10.49334 91.71667
v 102.1261 9.750366 90.23071
v 102.0438 9.714539 90.15907
v 101.9637 9.679642 90.08928
v 101.8977 9.650909 90.03181
v 101.8519 9.630966 89.99193
v 103.7038 7.55394 85.83783
v 101.8519 9.630966 89.99192
v 99.80512 9.64312 90.01624
v 99.20267 9.646698 90.02339
v 99.14117 9.647064 90.02412
v 99.11266 9.647232 90.02446
v 99.07661 9.647446 90.02489
v 98.40807 9.651421 90.03284
v 98.02541 9.653694 90.03738
v 97.46124 9.06675 88.86348
v 98.02541 9.653694 90.03738
v 96.05082 7.59938 85.92875

vn 0.3949185 0.4108629 0.8217245
vn 0.3949185 0.4108628 0.8217247
vn 0.2998444 0.8940356 0.3328572
vn -2.980232E-08 0.8944273 -0.4472137
vn -2.980232E-08 0.8944273 -0.4472137
vn -0.716438 -0.3119991 -0.6239979
vn -0.3909494 -0.2802424 -0.8767115
vn -0.9862495 0.07390773 0.1478161
vn -0.7164348 -0.3120008 -0.6240007
vn -0.7164342 -0.3120011 -0.6240013
vn -0.7164344 -0.312001 -0.624001
vn -0.7164352 -0.3120008 -0.6240004
vn -0.7164358 -0.3120005 -0.6239997
vn -0.7164319 -0.3120018 -0.6240036
vn -0.7164338 -0.3120011 -0.6240017
vn -0.7164341 -0.312001 -0.6240013
vn -0.7164341 -0.3120011 -0.6240015
vn -0.716434 -0.3120011 -0.6240015
vn -0.7164342 -0.312001 -0.6240013
vn -0.716434 -0.3120011 -0.6240016
vn -0.7164348 -0.3120008 -0.6240008
vn -0.7164358 -0.3120003 -0.6239997
vn -0.7164343 -0.3120009 -0.6240012
vn -0.7164338 -0.3120012 -0.6240018
vn -0.8134668 -0.2601049 -0.5202091
vn -0.9996184 -0.0123557 -0.02471069
vn -0.999912 0.005939435 0.01187971
vn -0.9999118 0.005939103 0.01187896
vn -0.9999119 0.005938975 0.01187866
vn -0.999912 0.005938177 0.01187672
vn -0.999912 0.00593767 0.01187552
vn -0.999912 0.005937111 0.01187392
vn -0.999912 0.005938138 0.01187657
vn -0.9999118 0.005938507 0.01187771
vn -0.999912 0.005938713 0.01187825
vn -0.9999119 0.005938699 0.01187835
vn -0.9999119 0.005938275 0.01187728
vn -0.999912 0.005938552 0.01187789
vn -0.9999119 0.005939054 0.01187898
vn -0.9968697 0.03535823 0.07071735
vn -0.7434032 0.2991159 0.5982322
vn -0.6976556 0.3203986 0.6407976
vn -0.6976548 0.320399 0.6407983
vn -0.6976543 0.3203991 0.6407988
vn -0.6976543 0.3203991 0.6407987
vn -0.6976545 0.320399 0.6407984
vn -0.697655 0.320399 0.640798
vn -0.6976547 0.320399 0.6407984
vn -0.697655 0.320399 0.6407982
vn -0.6976547 0.320399 0.6407983
vn -0.6976548 0.3203991 0.6407984
vn -0.697655 0.3203989 0.640798
vn -0.5427895 0.3756008 0.7512016
vn -0.6976717 0.3203917 0.6407835
vn 0.01327907 0.4471743 0.8943483
vn 0.01328035 0.4471743 0.8943483
vn 0.0132808 0.4471743 0.8943484
vn 0.01328201 0.4471741 0.8943483
vn 0.01327995 0.4471743 0.8943483
vn 0.01327834 0.4471746 0.8943483
vn 0.0132756 0.4471748 0.8943481
vn 0.01323036 0.4471802 0.8943461
vn 0.01325873 0.4471768 0.8943474
vn 0.01328724 0.4471736 0.8943486
vn 0.01328313 0.447174 0.8943485
vn 0.01328025 0.4471743 0.8943483
vn 0.01327963 0.4471743 0.8943483
vn 0.01327936 0.4471743 0.8943483
vn 0.01327434 0.4471743 0.8943484
vn -0.1544097 0.4418502 0.8837003
vn 0.3949185 0.4108626 0.8217247
vn 0.3949185 0.4108626 0.8217247
vn 0.3949185 0.4108626 0.8217247
vn -2.980232E-08 0.8944273 -0.4472137
vn -0.01328 -0.4471745 -0.8943483
vn -2.980232E-08 0.8944273 -0.4472137
vn -0.9622486 0.121719 0.2434386
vn 0.2564853 0.946956 0.1936226
vn 0.2224766 0.970452 0.09342065
vn 0.3939205 0.4733725 0.787874
vn 0.3949185 0.4108626 0.8217247
vn 0.3949185 0.4108626 0.8217247
vn 0.3949185 0.4108626 0.8217247
vn 0.3928179 0.5008057 0.7712898
vn -2.980232E-08 0.8944273 -0.4472137
vn 0.3948815 0.422157 0.8159977
vn 0.3949185 0.4108626 0.8217247
vn 0.3909493 0.5332243 0.7502204
vn 0.3949246 0.4108614 0.8217224
vn 0.3942118 0.3564172 0.8470916
vn -0.01327998 -0.4471744 -0.8943482
vn 0.3949402 0.4108585 0.8217164
vn 2.771625E-06 -0.8944244 0.4472194
vn 2.980232E-08 -0.8944273 0.4472137
vn 4.263051E-07 -0.8944274 0.4472135
vn 0 0 0
vn -0.01327992 -0.4471744 -0.8943483
vn -0.01327995 -0.4471744 -0.8943483
vn -0.01327994 -0.4471744 -0.8943484
vn 4.263051E-07 -0.8944274 0.4472135
vn 4.263051E-07 -0.8944274 0.4472135
vn -0.9187163 0.1766127 0.3532259
vn -0.9187163 0.1766127 0.3532259
vn -0.9187163 0.1766127 0.3532259
vn -0.9187163 0.1766127 0.3532259
vn -0.9187163 0.1766127 0.3532259
vn -0.9187163 0.1766127 0.3532259
vn -0.9187163 0.1766127 0.3532259
vn -0.9187163 0.1766127 0.3532259
vn -0.9187163 0.1766127 0.3532259
vn -2.980232E-08 0.8944273 -0.4472137
vn -2.980232E-08 0.8944273 -0.4472137
vn -2.980232E-08 0.8944273 -0.4472137
vn -2.980232E-08 0.8944273 -0.4472137
vn -2.980232E-08 0.8944273 -0.4472137
vn -2.980232E-08 0.8944273 -0.4472137
vn -2.980232E-08 0.8944273 -0.4472137
vn -2.980232E-08 0.8944273 -0.4472137
vn -2.980232E-08 0.8944273 -0.4472137
vn -2.980232E-08 0.8944273 -0.4472137
vn -2.980232E-08 0.8944273 -0.4472137
vn -2.980232E-08 0.8944273 -0.4472137
vn -2.980232E-08 0.8944273 -0.4472137
vn -2.980232E-08 0.8944272 -0.4472136
vn -2.980232E-08 0.8944273 -0.4472137
vn -2.980232E-08 0.8944273 -0.4472137
vn -2.980232E-08 0.8944272 -0.4472136
vn -2.980232E-08 0.8944273 -0.4472137
vn -2.980232E-08 0.8944273 -0.4472137
vn -2.980232E-08 0.8944273 -0.4472137
vn -2.980232E-08 0.8944272 -0.4472136
vn -2.980232E-08 0.8944273 -0.4472137
vn -2.980232E-08 0.8944273 -0.4472137
vn -2.980232E-08 0.8944273 -0.4472137
vn -2.980232E-08 0.8944273 -0.4472137
vn -2.980232E-08 0.8944273 -0.4472137
vn -2.980232E-08 0.8944273 -0.4472137
vn -2.980232E-08 0.8944273 -0.4472137
vn -2.980232E-08 0.8944273 -0.4472137
vn -2.980232E-08 0.8944273 -0.4472137
vn -2.980232E-08 0.8944273 -0.4472137
vn -2.980232E-08 0.8944272 -0.4472136
vn -2.980232E-08 0.8944273 -0.4472137
vn -2.980232E-08 0.8944272 -0.4472136
vn -2.980232E-08 0.8944272 -0.4472136
vn -2.980232E-08 0.8944273 -0.4472137
vn -2.980232E-08 0.8944272 -0.4472136
vn -2.980232E-08 0.8944272 -0.4472136
vn 0.7164345 0.312001 0.6240011
vn 0.8694924 0.2209 0.4417991
vn 0.9708091 0.1072663 0.2145317
vn 0.7164344 0.3120009 0.624001
vn 0.964097 -0.1187578 -0.2375162
vn 0.8560681 -0.2311481 -0.4622966
vn 0.6976545 -0.3203991 -0.6407984
vn 0.6976546 -0.3203991 -0.6407984
vn 0.7164344 0.3120009 0.6240011
vn -0.9187163 0.1766127 0.3532259
vn -0.9187163 0.1766127 0.3532259
vn -0.9187163 0.1766127 0.3532259
vn -0.9187163 0.1766127 0.3532259
vn -0.9187163 0.1766127 0.3532259
vn -0.9187163 0.1766127 0.3532259
vn -0.9187163 0.1766127 0.3532259
vn -0.9187163 0.1766127 0.3532259
vn -0.3867119 -0.5837173 -0.7139525
vn 3.20762E-07 -0.894427 0.4472143
vn 2.280537E-07 -0.8944273 0.4472136
vn 2.885496E-07 -0.8944273 0.4472137
vn 2.280537E-07 -0.8944274 0.4472136
vn 2.280537E-07 -0.8944274 0.4472136
vn 2.664548E-07 -0.8944272 0.4472139
vn 2.664547E-07 -0.8944272 0.4472139
vn 2.664548E-07 -0.8944272 0.4472139
vn 2.664547E-07 -0.8944272 0.4472139
vn 2.664546E-07 -0.8944272 0.4472139
vn 2.664549E-07 -0.8944271 0.4472139
vn 2.664556E-07 -0.8944272 0.4472139
vn 2.664537E-07 -0.8944271 0.4472139
vn 3.592475E-07 -0.8944273 0.4472137
vn 3.101722E-07 -0.8944274 0.4472136
vn 3.600925E-07 -0.8944273 0.4472137
vn 3.600929E-07 -0.8944273 0.4472137
vn 3.600934E-07 -0.8944273 0.4472137
vn 3.600931E-07 -0.8944273 0.4472137
vn 3.600931E-07 -0.8944273 0.4472137
vn 3.60093E-07 -0.8944273 0.4472137
vn 3.600928E-07 -0.8944273 0.4472137
vn 2.702473E-07 -0.8944274 0.4472135
vn 2.602515E-07 -0.8944274 0.4472135
vn 2.602514E-07 -0.8944274 0.4472135
vn 2.602513E-07 -0.8944274 0.4472135
vn 2.602515E-07 -0.8944274 0.4472135
vn 2.602514E-07 -0.8944274 0.4472135
vn 2.602514E-07 -0.8944274 0.4472135
vn 2.004052E-07 -0.8944274 0.4472135
vn 2.541567E-08 -0.8944274 0.4472134
vn 2.541552E-08 -0.8944274 0.4472134
vn 2.541525E-08 -0.8944274 0.4472134
vn 2.542049E-08 -0.8944274 0.4472134
vn 2.541476E-08 -0.8944274 0.4472134
vn 2.54151E-08 -0.8944274 0.4472134
vn 2.541614E-08 -0.8944274 0.4472134
vn 2.541693E-08 -0.8944274 0.4472134
vn 2.280537E-07 -0.8944274 0.4472136
vn 2.280537E-07 -0.8944274 0.4472136
vn 2.280537E-07 -0.8944273 0.4472136

f 1//1 2//2 3//3
f 4//4 1//1 3//3
f 3//3 5//5 4//4
f 3//3 6//6 5//5
f 5//5 6//6 7//7
f 8//8 7//7 6//6
f 9//9 8//8 6//6
f 10//10 9//9 6//6
f 9//9 10//10 11//11
f 11//11 10//10 12//12
f 13//13 11//11 12//12
f 13//13 12//12 14//14
f 13//13 14//14 15//15
f 15//15 14//14 16//16
f 15//15 16//16 17//17
f 18//18 17//17 16//16
f 19//19 17//17 18//18
f 19//19 18//18 20//20
f 21//21 19//19 20//20
f 22//22 19//19 21//21
f 22//22 21//21 23//23
f 24//24 22//22 23//23
f 24//24 23//23 25//25
f 26//26 24//24 25//25
f 26//26 25//25 27//27
f 28//28 26//26 27//27
f 28//28 27//27 29//29
f 29//29 27//27 30//30
f 31//31 29//29 30//30
f 31//31 30//30 32//32
f 33//33 31//31 32//32
f 33//33 32//32 34//34
f 35//35 33//33 34//34
f 35//35 34//34 36//36
f 37//37 35//35 36//36
f 37//37 36//36 38//38
f 39//39 37//37 38//38
f 39//39 38//38 40//40
f 41//41 39//39 40//40
f 41//41 40//40 42//42
f 41//41 42//42 43//43
f 43//43 42//42 44//44
f 45//45 43//43 44//44
f 45//45 44//44 46//46
f 47//47 45//45 46//46
f 48//48 45//45 47//47
f 48//48 47//47 49//49
f 50//50 48//48 49//49
f 50//50 49//49 51//51
f 52//52 50//50 51//51
f 52//52 51//51 53//53
f 54//54 52//52 53//53
f 55//55 54//54 53//53
f 55//55 53//53 56//56
f 55//55 56//56 57//57
f 57//57 56//56 58//58
f 57//57 58//58 59//59
f 59//59 58//58 60//60
f 59//59 60//60 61//61
f 61//61 60//60 62//62
f 61//61 62//62 63//63
f 63//63 62//62 64//64
f 63//63 64//64 65//65
f 65//65 64//64 66//66
f 65//65 66//66 67//67
f 68//68 67//67 66//66
f 69//69 67//67 68//68
f 69//69 68//68 70//70
f 71//71 69//69 70//70
f 72//72 71//71 73//73
f 74//74 75//75 76//76
f 77//77 74//74 76//76
f 75//75 77//77 76//76
f 78//78 75//75 74//74
f 79//79 75//75 78//78
f 78//78 74//74 80//80
f 81//81 78//78 80//80
f 82//82 78//78 81//81
f 82//82 83//83 78//78
f 83//83 84//84 79//79
f 84//84 85//85 79//79
f 80//80 74//74 86//86
f 87//87 80//80 86//86
f 81//81 80//80 87//87
f 86//86 74//74 88//88
f 88//88 74//74 77//77
f 86//86 88//88 89//89
f 90//90 86//86 89//89
f 87//87 86//86 90//90
f 75//75 91//91 77//77
f 90//90 89//89 92//92
f 90//90 92//92 93//93
f 94//94 90//90 93//93
f 95//95 83//83 82//82
f 95//95 82//82 81//81
f 95//95 81//81 87//87
f 95//95 87//87 90//90
f 95//95 96//96 83//83
f 97//97 91//91 75//75
f 97//97 98//98 91//91
f 97//97 99//99 98//98
f 100//100 95//95 101//101
f 102//102 103//103 104//104
f 102//102 104//104 105//105
f 102//102 105//105 106//106
f 106//106 105//105 107//107
f 108//108 102//102 106//106
f 109//109 102//102 108//108
f 110//110 108//108 106//106
f 111//111 112//112 113//113
f 111//111 113//113 114//114
f 111//111 114//114 115//115
f 111//111 115//115 116//116
f 111//111 116//116 117//117
f 117//117 118//118 111//111
f 118//118 119//119 111//111
f 120//120 111//111 119//119
f 120//120 121//121 111//111
f 121//121 122//122 111//111
f 111//111 122//122 123//123
f 114//114 113//113 124//124
f 124//124 113//113 125//125
f 125//125 113//113 126//126
f 126//126 113//113 127//127
f 127//127 113//113 128//128
f 128//128 113//113 129//129
f 129//129 113//113 130//130
f 130//130 113//113 131//131
f 131//131 113//113 132//132
f 132//132 113//113 133//133
f 133//133 113//113 134//134
f 133//133 134//134 135//135
f 135//135 134//134 136//136
f 134//134 137//137 136//136
f 137//137 134//134 138//138
f 138//138 134//134 139//139
f 139//139 134//134 140//140
f 140//140 134//134 141//141
f 134//134 142//142 141//141
f 134//134 143//143 142//142
f 134//134 144//144 143//143
f 144//144 134//134 145//145
f 145//145 134//134 146//146
f 147//147 134//134 148//148
f 149//149 150//150 151//151
f 149//149 152//152 150//150
f 151//151 150//150 153//153
f 151//151 153//153 154//154
f 154//154 153//153 155//155
f 154//154 155//155 156//156
f 152//152 157//157 150//150
f 158//158 159//159 160//160
f 161//161 159//159 158//158
f 162//162 159//159 161//161
f 163//163 162//162 161//161
f 164//164 162//162 163//163
f 165//165 162//162 164//164
f 9//9 166//166 8//8
f 166//166 9//9 167//167
f 168//168 169//169 170//170
f 168//168 171//171 169//169
f 172//172 169//169 173//173
f 174//174 169//169 172//172
f 169//169 174//174 175//175
f 176//176 169//169 175//175
f 177//177 169//169 176//176
f 178//178 169//169 177//177
f 178//178 179//179 169//169
f 179//179 180//180 169//169
f 180//180 181//181 169//169
f 182//182 181//181 180//180
f 182//182 183//183 181//181
f 183//183 184//184 181//181
f 184//184 185//185 181//181
f 185//185 186//186 181//181
f 186//186 187//187 181//181
f 187//187 188//188 181//181
f 188//188 189//189 181//181
f 181//181 189//189 190//190
f 181//181 190//190 191//191
f 192//192 181//181 191//191
f 193//193 181//181 192//192
f 194//194 181//181 193//193
f 195//195 181//181 194//194
f 195//195 196//196 181//181
f 196//196 197//197 198//198
f 196//196 198//198 199//199
f 199//199 200//200 196//196
f 196//196 200//200 201//201
f 201//201 202//202 196//196
f 196//196 202//202 203//203
f 196//196 203//203 204//204
f 205//205 196//196 206//206
f 207//207 196//196 205//205
