v -96.03588 184.1862 -2.35746
v -96.03588 95.8942 41.78852
v -96.03588 184.1862 -2.35746
v -96.03588 184.1862 -2.35746
v -97.45164 185.6525 0.5752182
v -98.01794 186.239 1.748291
v -98.01794 186.239 1.748291
v -98.01794 97.94708 45.89427
v -98.01794 9.655121 90.04025
v -98.2646 186.2374 1.745003
v -100.2379 9.64032 90.01065
v -98.29526 186.2372 1.744591
v -100.5138 9.638481 90.00697
v -98.30386 186.2371 1.744476
v -100.5913 9.63797 90.00594
v -98.40058 186.2365 1.743187
v -101.4617 9.632164 89.99433
v -99.59303 186.2285 1.727287
v -101.5942 9.631279 89.99257
v -100.7236 186.221 1.712212
v -100.8537 186.2201 1.71048
v -101.7343 9.630348 89.99069
v -101.125 186.2183 1.70686
v -101.7644 9.63015 89.9903
v -101.8444 186.2135 1.697269
v -101.8444 9.629616 89.98923
v -101.9904 186.2769 1.824074
v -102.6486 9.978737 90.68748
v -103.1589 10.20023 91.13048
v -102.0267 186.2927 1.855537
v -103.4851 10.34181 91.41364
v -102.0374 186.2973 1.864902
v -103.5822 10.38395 91.4979
v -102.119 186.3327 1.935665
v -104.3158 10.70239 92.1348
v -103.0541 186.7387 2.747536
v -104.4197 10.7475 92.22501
v -103.8267 187.074 3.41827
v -104.5055 10.78476 92.29953
v -104.5904 187.4055 4.08123
v -104.5904 10.82159 92.37319
v -104.5921 187.4583 4.186844
v -104.6062 11.29685 93.3237
v -104.5961 187.5766 4.423477
v -104.6417 12.36169 95.4534
v -104.6071 187.9067 5.083645
v -104.6115 188.0387 5.347656
v -104.6434 12.41304 95.55608
v -104.6265 188.4888 6.247894
v -104.6451 12.46305 95.65611
v -104.6388 188.8595 6.989143
v -104.6465 12.50423 95.73846
v -104.6474 189.1167 7.503681
v -104.6474 12.53282 95.79564
v -104.6474 12.53282 95.79564
v -104.489 189.1897 7.649654
v -103.2217 13.1897 97.10941
v -104.4424 189.2112 7.692619
v -102.8021 13.38305 97.4961
v -104.4376 189.2134 7.697006
v -102.7592 13.40279 97.53558
v -104.4354 189.2144 7.699039
v -102.7394 13.41194 97.55388
v -104.4326 189.2157 7.701611
v -102.7143 13.42351 97.57702
v -104.3809 189.2395 7.74929
v -102.2486 13.63807 98.00613
v -101.9821 190.3448 9.959789
v -101.9821 13.76087 98.25175
v -101.9821 190.3448 9.959789
v -101.9821 13.76087 98.25175
v -101.9821 190.3448 9.959789
v -101.9821 190.3448 9.959789
v -102.5484 190.9313 11.13286
v -103.9641 192.3977 14.06554
v -103.9641 192.3977 14.06554
v -103.9641 192.3977 14.06554
v -101.9821 190.3448 9.959789
v -101.9821 190.3448 9.959789
v -101.9821 190.3448 9.959789
v -101.9821 13.76087 98.25175
v -101.9821 13.76087 98.25175
v -101.9821 13.76087 98.25175
v -101.9821 190.3448 9.959789
v -109.2948 189.9416 9.15332
v -101.9821 190.3448 9.959789
v -101.9821 13.76087 98.25175
v -101.9821 190.3448 9.959789
v -101.9821 102.0528 54.10577
v -101.9821 13.76087 98.25175
v -103.9641 104.1057 58.21152
v -101.9821 13.76096 98.25171
v -101.9821 13.76087 98.25175
v -102.5484 14.34741 99.42482
v -109.2948 13.35765 97.44527
v -101.9821 13.76087 98.25175
v -109.2948 189.9416 9.15332
v -103.9641 15.81375 102.3575
v -109.2948 13.35765 97.44527
v -104.6474 12.53282 95.79564
v -104.6474 12.53282 95.79564
v -96.03588 95.8942 41.78852
v -96.03588 184.1862 -2.35746
v -96.03588 184.1862 -2.35746
v -97.45164 185.6525 0.5752182
v -98.01794 97.94708 45.89427
v -98.01794 186.239 1.748291
v -97.19695 8.804794 88.33959
v -96.03588 7.602249 85.93449
v -98.01794 9.655121 90.04025
v -96.03588 184.1862 -2.35746
v -103.6887 184.1351 -2.459499
v -109.1807 186.5191 2.308422
v -101.8444 186.2135 1.697269
v -101.125 186.2183 1.70686
v -100.8537 186.2201 1.71048
v -100.7236 186.221 1.712212
v -99.59303 186.2285 1.727287
v -98.40058 186.2365 1.743187
v -98.30386 186.2371 1.744476
v -98.29526 186.2372 1.744591
v -98.2646 186.2374 1.745003
v -98.01794 186.239 1.748291
v -101.9904 186.2769 1.824074
v -102.0267 186.2927 1.855537
v -102.0374 186.2973 1.864902
v -102.119 186.3327 1.935665
v -103.0541 186.7387 2.747536
v -103.8267 187.074 3.41827
v -104.5904 187.4055 4.08123
v -104.5921 187.4583 4.186844
v -104.5961 187.5766 4.423477
v -104.6071 187.9067 5.083645
v -109.2948 189.9416 9.15332
v -104.6115 188.0387 5.347656
v -104.6265 188.4888 6.247894
v -104.6388 188.8595 6.989143
v -104.6474 189.1167 7.503681
v -104.489 189.1897 7.649654
v -104.4424 189.2112 7.692619
v -104.4376 189.2134 7.697006
v -104.4354 189.2144 7.699039
v -104.4326 189.2157 7.701611
v -104.3809 189.2395 7.74929
v -101.9821 190.3448 9.959789
v -101.9821 190.3448 9.959789
v -101.9821 190.3448 9.959789
v -103.9641 192.3977 14.06554
v -96.03588 184.1862 -2.35746
v -103.6887 7.551247 85.83246
v -103.6887 184.1351 -2.459499
v -96.03588 95.8942 41.78852
v -109.1807 9.935204 90.60037
v -109.1807 186.5191 2.308422
v -109.2948 13.35765 97.44527
v -109.2948 189.9416 9.15332
v -96.03588 7.602249 85.93449
v -103.9641 192.3977 14.06554
v -101.9821 102.0528 54.10577
v -101.9821 190.3448 9.959789
v -103.9641 104.1057 58.21152
v -101.9821 13.76096 98.25171
v -103.9641 15.81375 102.3575
v -102.5484 14.34741 99.42482
v -101.9821 13.76087 98.25175
v -98.01794 9.655121 90.04025
v -103.6887 7.551247 85.83246
v -97.19695 8.804794 88.33959
v -103.6887 7.551247 85.83246
v -96.03588 7.602249 85.93449
v -98.01794 9.655121 90.04025
v -100.2379 9.64032 90.01065
v -98.01794 9.655121 90.04025
v -100.5138 9.638481 90.00697
v -100.5913 9.63797 90.00594
v -101.4617 9.632164 89.99433
v -101.5942 9.631279 89.99257
v -101.7343 9.630348 89.99069
v -101.7644 9.63015 89.9903
v -101.8444 9.629616 89.98923
v -109.1807 9.935204 90.60037
v -102.6486 9.978737 90.68748
v -103.1589 10.20023 91.13048
v -103.4851 10.34181 91.41364
v -103.5822 10.38395 91.4979
v -104.3158 10.70239 92.1348
v -104.4197 10.7475 92.22501
v -104.5055 10.78476 92.29953
v -104.5904 10.82159 92.37319
v -104.6062 11.29685 93.3237
v -104.6417 12.36169 95.4534
v -104.6434 12.41304 95.55608
v -104.6451 12.46305 95.65611
v -104.6465 12.50423 95.73846
v -104.6474 12.53282 95.79564
v -109.2948 13.35765 97.44527
v -104.6474 12.53282 95.79564
v -103.2217 13.1897 97.10941
v -102.8021 13.38305 97.4961
v -102.7592 13.40279 97.53558
v -102.7394 13.41194 97.55388
v -102.7143 13.42351 97.57702
v -102.2486 13.63807 98.00613
v -101.9821 13.76087 98.25175
v -102.5484 14.34741 99.42482
v -101.9821 13.76087 98.25175
v -103.9641 15.81375 102.3575

vn 0.3964115 -0.4105743 -0.8211497
vn 0.3964115 -0.4105744 -0.8211496
vn 0.3009781 0.2703539 -0.914506
vn 0 0.8944273 -0.4472137
vn 0 0.8944273 -0.4472137
vn -0.01490028 0.4471639 0.894328
vn -0.3924275 0.5329391 0.7496513
vn 0.7975588 0.2697774 0.5395554
vn -0.01490491 0.4471636 0.894328
vn -0.01490576 0.4471637 0.8943281
vn -0.01490541 0.4471636 0.8943281
vn -0.0149044 0.4471636 0.8943281
vn -0.01490333 0.4471635 0.8943281
vn -0.01490913 0.447164 0.8943278
vn -0.01490635 0.4471637 0.8943279
vn -0.01490582 0.4471637 0.8943279
vn -0.01490597 0.4471638 0.8943281
vn -0.01490606 0.4471637 0.894328
vn -0.01490576 0.4471637 0.894328
vn -0.01490611 0.4471637 0.8943281
vn -0.01490493 0.4471637 0.894328
vn -0.01490336 0.4471636 0.894328
vn -0.01490555 0.4471637 0.8943279
vn -0.01490643 0.4471638 0.894328
vn 0.1360806 0.4430534 0.8861072
vn 0.6665577 0.3333766 0.6667539
vn 0.6964903 0.3209051 0.641811
vn 0.6964896 0.3209053 0.6418114
vn 0.6964895 0.3209055 0.6418116
vn 0.696488 0.3209063 0.6418129
vn 0.696487 0.3209068 0.6418136
vn 0.6964858 0.3209074 0.6418145
vn 0.6964878 0.3209064 0.6418129
vn 0.6964886 0.3209058 0.6418122
vn 0.6964892 0.3209056 0.641812
vn 0.6964892 0.3209055 0.6418119
vn 0.6964883 0.3209059 0.6418125
vn 0.6964889 0.3209057 0.6418122
vn 0.6964897 0.3209053 0.6418114
vn 0.7422082 0.2997085 0.5994179
vn 0.996727 0.03615396 0.0723084
vn 0.9998889 0.006666324 0.01333302
vn 0.999889 0.00666582 0.01333207
vn 0.999889 0.006665472 0.01333146
vn 0.999889 0.006665499 0.01333146
vn 0.9998889 0.006665707 0.01333183
vn 0.999889 0.00666607 0.01333228
vn 0.999889 0.006665803 0.0133319
vn 0.999889 0.00666599 0.01333222
vn 0.9998889 0.006665844 0.01333191
vn 0.999889 0.006665859 0.01333193
vn 0.9998889 0.006666061 0.01333231
vn 0.9832189 -0.08158533 -0.1631706
vn 0.9998886 0.00667647 0.01335313
vn 0.7175682 -0.311479 -0.6229582
vn 0.7175672 -0.3114794 -0.622959
vn 0.717567 -0.3114796 -0.6229593
vn 0.7175661 -0.3114801 -0.62296
vn 0.7175676 -0.3114792 -0.6229588
vn 0.7175688 -0.3114785 -0.6229579
vn 0.7175705 -0.3114773 -0.6229562
vn 0.7176021 -0.3114578 -0.6229297
vn 0.7175824 -0.3114701 -0.6229463
vn 0.7175625 -0.3114823 -0.6229631
vn 0.7175654 -0.3114806 -0.6229607
vn 0.7175673 -0.3114794 -0.622959
vn 0.7175677 -0.3114791 -0.6229585
vn 0.717568 -0.3114791 -0.6229584
vn 0.7175715 -0.3114775 -0.6229551
vn 0.8241014 -0.2533208 -0.5066416
vn 0.3964115 -0.4105746 -0.8211495
vn 0.3964115 -0.4105746 -0.8211495
vn 0.3964115 -0.4105746 -0.8211495
vn 0 0.8944273 -0.4472137
vn -0.7175675 0.3114792 0.6229589
vn 0 0.8944273 -0.4472137
vn 0.8587692 0.2291353 0.4582713
vn 0.257455 0.4134623 -0.8733647
vn 0.2233178 0.5076966 -0.8320898
vn 0.3954097 -0.3459888 -0.8508484
vn 0.3964115 -0.4105746 -0.8211495
vn 0.3964115 -0.4105746 -0.8211495
vn 0.3964115 -0.4105746 -0.8211495
vn 0.3943031 -0.3162623 -0.8628461
vn 0 0.8944273 -0.4472137
vn 0.396385 -0.3992144 -0.8267449
vn 0.3964115 -0.4105746 -0.8211495
vn 0.3924274 -0.279957 -0.8761421
vn 0.3964055 -0.4105757 -0.8211519
vn 0.3956906 -0.463538 -0.7928188
vn -0.7175675 0.3114792 0.6229588
vn 0.3963898 -0.4105788 -0.8211579
vn 2.752188E-06 -0.8944301 0.447208
vn 0 -0.8944273 0.4472137
vn -3.962251E-07 -0.8944274 0.4472135
vn 0 0 0
vn -0.7175676 0.3114792 0.6229588
vn -0.7175676 0.3114792 0.6229588
vn -0.7175676 0.3114792 0.6229588
vn -3.962251E-07 -0.8944274 0.4472135
vn -3.962251E-07 -0.8944274 0.4472135
vn 0.918073 0.1772804 0.3545613
vn 0.9180729 0.1772804 0.3545613
vn 0.918073 0.1772804 0.3545613
vn 0.918073 0.1772804 0.3545613
vn 0.918073 0.1772804 0.3545613
vn 0.918073 0.1772804 0.3545613
vn 0.918073 0.1772804 0.3545613
vn 0.918073 0.1772804 0.3545613
vn 0.918073 0.1772804 0.3545613
vn 0 0.8944273 -0.4472137
vn 0 0.8944273 -0.4472137
vn 0 0.8944273 -0.4472137
vn 0 0.8944273 -0.4472137
vn 0 0.8944273 -0.4472137
vn 0 0.8944273 -0.4472137
vn 0 0.8944273 -0.4472137
vn 0 0.8944273 -0.4472137
vn 0 0.8944273 -0.4472137
vn 0 0.8944273 -0.4472137
vn 0 0.8944273 -0.4472137
vn 0 0.8944273 -0.4472137
vn 0 0.8944273 -0.4472137
vn 0 0.8944272 -0.4472136
vn 0 0.8944273 -0.4472137
vn 0 0.8944273 -0.4472137
vn 0 0.8944272 -0.4472136
vn 0 0.8944273 -0.4472137
vn 0 0.8944273 -0.4472137
vn 0 0.8944273 -0.4472137
vn 0 0.8944272 -0.4472136
vn 0 0.8944273 -0.4472137
vn 0 0.8944273 -0.4472137
vn 0 0.8944273 -0.4472137
vn 0 0.8944273 -0.4472137
vn 0 0.8944273 -0.4472137
vn 0 0.8944273 -0.4472137
vn 0 0.8944273 -0.4472137
vn 0 0.8944273 -0.4472137
vn 0 0.8944273 -0.4472137
vn 0 0.8944273 -0.4472137
vn 0 0.8944272 -0.4472136
vn 0 0.8944273 -0.4472137
vn 0 0.8944272 -0.4472136
vn 0 0.8944272 -0.4472136
vn 0 0.8944273 -0.4472137
vn 0 0.8944272 -0.4472136
vn 0 0.8944272 -0.4472136
vn 0.01490538 -0.4471636 -0.8943281
vn -0.2382753 -0.4343325 -0.8686658
vn -0.4925324 -0.3892071 -0.7784148
vn 0.01490534 -0.4471636 -0.8943279
vn -0.8552266 -0.2317701 -0.4635408
vn -0.9636639 -0.1194587 -0.2389177
vn -0.9998889 -0.006665778 -0.01333177
vn -0.999889 -0.006665796 -0.01333178
vn 0.01490547 -0.4471637 -0.894328
vn 0.918073 0.1772804 0.3545613
vn 0.918073 0.1772804 0.3545613
vn 0.918073 0.1772804 0.3545613
vn 0.918073 0.1772804 0.3545613
vn 0.918073 0.1772804 0.3545613
vn 0.918073 0.1772804 0.3545613
vn 0.918073 0.1772804 0.3545613
vn 0.9180729 0.1772804 0.3545613
vn -0.3881739 0.22065 0.8947819
vn 2.920597E-07 -0.8944276 0.4472131
vn -1.981125E-07 -0.8944272 0.4472136
vn -1.702859E-07 -0.8944274 0.4472135
vn -1.981126E-07 -0.8944273 0.4472136
vn -1.981126E-07 -0.8944273 0.4472136
vn 4.923418E-09 -0.8944274 0.4472134
vn 4.923565E-09 -0.8944274 0.4472134
vn 4.923004E-09 -0.8944274 0.4472134
vn 4.923741E-09 -0.8944274 0.4472134
vn 4.923816E-09 -0.8944274 0.4472134
vn 4.923218E-09 -0.8944274 0.4472134
vn 4.921144E-09 -0.8944274 0.4472134
vn 4.92607E-09 -0.8944274 0.4472134
vn -2.279424E-07 -0.8944274 0.4472135
vn -2.801736E-07 -0.8944273 0.4472136
vn -2.30064E-07 -0.8944274 0.4472135
vn -2.300639E-07 -0.8944274 0.4472135
vn -2.300639E-07 -0.8944274 0.4472135
vn -2.300639E-07 -0.8944274 0.4472135
vn -2.300639E-07 -0.8944274 0.4472135
vn -2.30064E-07 -0.8944274 0.4472135
vn -2.300642E-07 -0.8944274 0.4472135
vn -3.202493E-07 -0.8944273 0.4472136
vn -3.302831E-07 -0.8944273 0.4472137
vn -3.302832E-07 -0.8944273 0.4472137
vn -3.302826E-07 -0.8944273 0.4472137
vn -3.302841E-07 -0.8944273 0.4472137
vn -3.302833E-07 -0.8944273 0.4472137
vn -3.30283E-07 -0.8944273 0.4472137
vn -2.587636E-07 -0.8944272 0.4472137
vn -2.370268E-07 -0.8944272 0.4472139
vn -2.370268E-07 -0.8944272 0.4472139
vn -2.370268E-07 -0.8944272 0.4472139
vn -2.370267E-07 -0.8944272 0.4472139
vn -2.370269E-07 -0.8944272 0.4472139
vn -2.370268E-07 -0.8944272 0.4472139
vn -2.370267E-07 -0.8944272 0.4472139
vn -2.370266E-07 -0.8944271 0.4472139
vn -1.981126E-07 -0.8944273 0.4472136
vn -1.981126E-07 -0.8944273 0.4472136
vn -1.981126E-07 -0.8944272 0.4472136

f 1//1 2//2 3//3
f 4//4 1//1 3//3
f 3//3 5//5 4//4
f 3//3 6//6 5//5
f 5//5 6//6 7//7
f 8//8 7//7 6//6
f 9//9 8//8 6//6
f 10//10 9//9 6//6
f 9//9 10//10 11//11
f 11//11 10//10 12//12
f 13//13 11//11 12//12
f 13//13 12//12 14//14
f 13//13 14//14 15//15
f 15//15 14//14 16//16
f 15//15 16//16 17//17
f 18//18 17//17 16//16
f 19//19 17//17 18//18
f 19//19 18//18 20//20
f 21//21 19//19 20//20
f 22//22 19//19 21//21
f 22//22 21//21 23//23
f 24//24 22//22 23//23
f 24//24 23//23 25//25
f 26//26 24//24 25//25
f 26//26 25//25 27//27
f 28//28 26//26 27//27
f 28//28 27//27 29//29
f 29//29 27//27 30//30
f 31//31 29//29 30//30
f 31//31 30//30 32//32
f 33//33 31//31 32//32
f 33//33 32//32 34//34
f 35//35 33//33 34//34
f 35//35 34//34 36//36
f 37//37 35//35 36//36
f 37//37 36//36 38//38
f 39//39 37//37 38//38
f 39//39 38//38 40//40
f 41//41 39//39 40//40
f 41//41 40//40 42//42
f 41//41 42//42 43//43
f 43//43 42//42 44//44
f 45//45 43//43 44//44
f 45//45 44//44 46//46
f 47//47 45//45 46//46
f 48//48 45//45 47//47
f 48//48 47//47 49//49
f 50//50 48//48 49//49
f 50//50 49//49 51//51
f 52//52 50//50 51//51
f 52//52 51//51 53//53
f 54//54 52//52 53//53
f 55//55 54//54 53//53
f 55//55 53//53 56//56
f 55//55 56//56 57//57
f 57//57 56//56 58//58
f 57//57 58//58 59//59
f 59//59 58//58 60//60
f 59//59 60//60 61//61
f 61//61 60//60 62//62
f 61//61 62//62 63//63
f 63//63 62//62 64//64
f 63//63 64//64 65//65
f 65//65 64//64 66//66
f 65//65 66//66 67//67
f 68//68 67//67 66//66
f 69//69 67//67 68//68
f 69//69 68//68 70//70
f 71//71 69//69 70//70
f 72//72 71//71 73//73
f 74//74 75//75 76//76
f 77//77 74//74 76//76
f 75//75 77//77 76//76
f 78//78 75//75 74//74
f 79//79 75//75 78//78
f 78//78 74//74 80//80
f 81//81 78//78 80//80
f 82//82 78//78 81//81
f 82//82 83//83 78//78
f 83//83 84//84 79//79
f 84//84 85//85 79//79
f 80//80 74//74 86//86
f 87//87 80//80 86//86
f 81//81 80//80 87//87
f 86//86 74//74 88//88
f 88//88 74//74 77//77
f 86//86 88//88 89//89
f 90//90 86//86 89//89
f 87//87 86//86 90//90
f 75//75 91//91 77//77
f 90//90 89//89 92//92
f 90//90 92//92 93//93
f 94//94 90//90 93//93
f 95//95 83//83 82//82
f 95//95 82//82 81//81
f 95//95 81//81 87//87
f 95//95 87//87 90//90
f 95//95 96//96 83//83
f 97//97 91//91 75//75
f 97//97 98//98 91//91
f 97//97 99//99 98//98
f 100//100 95//95 101//101
f 102//102 103//103 104//104
f 102//102 104//104 105//105
f 102//102 105//105 106//106
f 106//106 105//105 107//107
f 108//108 102//102 106//106
f 109//109 102//102 108//108
f 110//110 108//108 106//106
f 111//111 112//112 113//113
f 111//111 113//113 114//114
f 111//111 114//114 115//115
f 111//111 115//115 116//116
f 111//111 116//116 117//117
f 117//117 118//118 111//111
f 118//118 119//119 111//111
f 120//120 111//111 119//119
f 120//120 121//121 111//111
f 121//121 122//122 111//111
f 111//111 122//122 123//123
f 114//114 113//113 124//124
f 124//124 113//113 125//125
f 125//125 113//113 126//126
f 126//126 113//113 127//127
f 127//127 113//113 128//128
f 128//128 113//113 129//129
f 129//129 113//113 130//130
f 130//130 113//113 131//131
f 131//131 113//113 132//132
f 132//132 113//113 133//133
f 133//133 113//113 134//134
f 133//133 134//134 135//135
f 135//135 134//134 136//136
f 134//134 137//137 136//136
f 137//137 134//134 138//138
f 138//138 134//134 139//139
f 139//139 134//134 140//140
f 140//140 134//134 141//141
f 134//134 142//142 141//141
f 134//134 143//143 142//142
f 134//134 144//144 143//143
f 144//144 134//134 145//145
f 145//145 134//134 146//146
f 147//147 134//134 148//148
f 149//149 150//150 151//151
f 149//149 152//152 150//150
f 151//151 150//150 153//153
f 151//151 153//153 154//154
f 154//154 153//153 155//155
f 154//154 155//155 156//156
f 152//152 157//157 150//150
f 158//158 159//159 160//160
f 161//161 159//159 158//158
f 162//162 159//159 161//161
f 163//163 162//162 161//161
f 164//164 162//162 163//163
f 165//165 162//162 164//164
f 9//9 166//166 8//8
f 166//166 9//9 167//167
f 168//168 169//169 170//170
f 168//168 171//171 169//169
f 172//172 169//169 173//173
f 174//174 169//169 172//172
f 169//169 174//174 175//175
f 176//176 169//169 175//175
f 177//177 169//169 176//176
f 178//178 169//169 177//177
f 178//178 179//179 169//169
f 179//179 180//180 169//169
f 180//180 181//181 169//169
f 182//182 181//181 180//180
f 182//182 183//183 181//181
f 183//183 184//184 181//181
f 184//184 185//185 181//181
f 185//185 186//186 181//181
f 186//186 187//187 181//181
f 187//187 188//188 181//181
f 188//188 189//189 181//181
f 181//181 189//189 190//190
f 181//181 190//190 191//191
f 192//192 181//181 191//191
f 193//193 181//181 192//192
f 194//194 181//181 193//193
f 195//195 181//181 194//194
f 195//195 196//196 181//181
f 196//196 197//197 198//198
f 196//196 198//198 199//199
f 199//199 200//200 196//196
f 196//196 200//200 201//201
f 201//201 202//202 196//196
f 196//196 202//202 203//203
f 196//196 203//203 204//204
f 205//205 196//196 206//206
f 207//207 196//196 205//205
