v 90.00002 193.5559 -107.6468
v 49.99998 193.5559 -107.6468
v 90.00002 193.5559 -107.6468
v 90.00002 193.5559 -107.6468
v 90.00002 195.8573 -104.9158
v 90.00002 196.7779 -103.8234
v 90.00002 196.7779 -103.8234
v 49.99998 196.7779 -103.8234
v 9.999943 196.7779 -103.8234
v 90.00002 197.013 -103.8981
v 9.999943 198.894 -104.4955
v 90.00002 197.0423 -103.9073
v 9.999943 199.157 -104.5791
v 90.00002 197.0505 -103.91
v 9.999943 199.2308 -104.6025
v 90.00002 197.1427 -103.9392
v 9.999943 200.0605 -104.866
v 90.00002 198.2793 -104.3003
v 9.999943 200.1868 -104.9062
v 90.00002 199.3569 -104.6426
v 90.00002 199.4809 -104.682
v 9.999943 200.3203 -104.9486
v 90.00002 199.7395 -104.7641
v 9.999943 200.349 -104.9577
v 90.00002 200.4252 -104.9819
v 9.999943 200.4252 -104.9819
v 90.00002 200.606 -104.8883
v 9.999943 201.4205 -104.4665
v 9.999943 202.052 -104.1394
v 90.00002 200.6508 -104.8651
v 9.999943 202.4556 -103.9304
v 90.00002 200.6642 -104.8581
v 9.999943 202.5757 -103.8682
v 90.00002 200.765 -104.8059
v 9.999943 203.4836 -103.3981
v 90.00002 201.9223 -104.2066
v 9.999943 203.6122 -103.3315
v 90.00002 202.8784 -103.7115
v 9.999943 203.7184 -103.2765
v 90.00002 203.8234 -103.2221
v 9.999943 203.8234 -103.2221
v 90.00002 203.8591 -103.1095
v 9.999943 204.1451 -102.2091
v 90.00002 203.9392 -102.8573
v 9.999943 204.866 -99.93953
v 90.00002 204.1627 -102.1538
v 90.00002 204.2521 -101.8725
v 9.999943 204.9008 -99.83009
v 90.00002 204.5568 -100.9131
v 9.999943 204.9347 -99.7235
v 90.00002 204.8077 -100.1231
v 9.999943 204.9625 -99.63573
v 90.00002 204.9819 -99.5748
v 9.999943 204.9819 -99.57481
v 9.999943 204.9819 -99.5748
v 90.00002 204.8773 -99.37283
v 9.999943 204.0406 -97.75712
v 90.00002 204.8465 -99.31339
v 9.999943 203.7635 -97.22211
v 90.00002 204.8434 -99.30731
v 9.999943 203.7352 -97.16749
v 90.00002 204.8419 -99.3045
v 9.999943 203.7221 -97.14216
v 90.00002 204.8401 -99.30094
v 9.999943 203.7055 -97.11015
v 90.00002 204.8059 -99.23498
v 9.999943 203.398 -96.51643
v 90.00002 203.2221 -96.17661
v 9.999943 203.2221 -96.17661
v 90.00002 203.2221 -96.17661
v 9.999943 203.2221 -96.17661
v 90.00002 203.2221 -96.17661
v 90.00002 203.2221 -96.17661
v 90.00002 204.1427 -95.08421
v 90.00002 206.4441 -92.35322
v 90.00002 206.4441 -92.35322
v 90.00002 206.4441 -92.35322
v 90.00002 203.2221 -96.17661
v 90.00002 203.2221 -96.17661
v 90.00002 203.2221 -96.17661
v 9.999943 203.2221 -96.17661
v 9.999943 203.2221 -96.17661
v 9.999943 203.2221 -96.17661
v 90.00002 203.2221 -96.17661
v 90.00002 209.9638 -99.14959
v 90.00002 203.2221 -96.17661
v 9.999943 203.2221 -96.17661
v 90.00002 203.2221 -96.17661
v 49.99998 203.2221 -96.17661
v 9.999943 203.2221 -96.17661
v 49.99998 206.4441 -92.35322
v 9.999985 203.2221 -96.17661
v 9.999943 203.2221 -96.17661
v 9.999943 204.1427 -95.08421
v 9.99995 209.9638 -99.1496
v 9.999943 203.2221 -96.17661
v 90.00002 209.9638 -99.14959
v 9.999943 206.4441 -92.35323
v 9.99995 209.9638 -99.1496
v 9.999943 204.9819 -99.5748
v 9.999943 204.9819 -99.57481
v 49.99998 193.5559 -107.6468
v 90.00002 193.5559 -107.6468
v 90.00002 193.5559 -107.6468
v 90.00002 195.8573 -104.9158
v 49.99998 196.7779 -103.8234
v 90.00002 196.7779 -103.8234
v 9.999943 195.4433 -105.4071
v 9.999943 193.5559 -107.6468
v 9.999943 196.7779 -103.8234
v 90.00002 193.5559 -107.6468
v 90.00002 200.8504 -109.9638
v 90.00002 207.6468 -106.4441
v 90.00002 200.4252 -104.9819
v 90.00002 199.7395 -104.7641
v 90.00002 199.4809 -104.682
v 90.00002 199.3569 -104.6426
v 90.00002 198.2793 -104.3003
v 90.00002 197.1427 -103.9392
v 90.00002 197.0505 -103.91
v 90.00002 197.0423 -103.9073
v 90.00002 197.013 -103.8981
v 90.00002 196.7779 -103.8234
v 90.00002 200.606 -104.8883
v 90.00002 200.6508 -104.8651
v 90.00002 200.6642 -104.8581
v 90.00002 200.765 -104.8059
v 90.00002 201.9223 -104.2066
v 90.00002 202.8784 -103.7115
v 90.00002 203.8234 -103.2221
v 90.00002 203.8591 -103.1095
v 90.00002 203.9392 -102.8573
v 90.00002 204.1627 -102.1538
v 90.00002 209.9638 -99.14959
v 90.00002 204.2521 -101.8725
v 90.00002 204.5568 -100.9131
v 90.00002 204.8077 -100.1231
v 90.00002 204.9819 -99.5748
v 90.00002 204.8773 -99.37283
v 90.00002 204.8465 -99.31339
v 90.00002 204.8434 -99.30731
v 90.00002 204.8419 -99.3045
v 90.00002 204.8401 -99.30094
v 90.00002 204.8059 -99.23498
v 90.00002 203.2221 -96.17661
v 90.00002 203.2221 -96.17661
v 90.00002 203.2221 -96.17661
v 90.00002 206.4441 -92.35322
v 90.00002 193.5559 -107.6468
v 9.99995 200.8504 -109.9638
v 90.00002 200.8504 -109.9638
v 49.99998 193.5559 -107.6468
v 9.99995 207.6468 -106.4441
v 90.00002 207.6468 -106.4441
v 9.99995 209.9638 -99.1496
v 90.00002 209.9638 -99.14959
v 9.999943 193.5559 -107.6468
v 90.00002 206.4441 -92.35322
v 49.99998 203.2221 -96.17661
v 90.00002 203.2221 -96.17661
v 49.99998 206.4441 -92.35322
v 9.999985 203.2221 -96.17661
v 9.999943 206.4441 -92.35323
v 9.999943 204.1427 -95.08421
v 9.999943 203.2221 -96.17661
v 9.999943 196.7779 -103.8234
v 9.99995 200.8504 -109.9638
v 9.999943 195.4433 -105.4071
v 9.99995 200.8504 -109.9638
v 9.999943 193.5559 -107.6468
v 9.999943 196.7779 -103.8234
v 9.999943 198.894 -104.4955
v 9.999943 196.7779 -103.8234
v 9.999943 199.157 -104.5791
v 9.999943 199.2308 -104.6025
v 9.999943 200.0605 -104.866
v 9.999943 200.1868 -104.9062
v 9.999943 200.3203 -104.9486
v 9.999943 200.349 -104.9577
v 9.999943 200.4252 -104.9819
v 9.99995 207.6468 -106.4441
v 9.999943 201.4205 -104.4665
v 9.999943 202.052 -104.1394
v 9.999943 202.4556 -103.9304
v 9.999943 202.5757 -103.8682
v 9.999943 203.4836 -103.3981
v 9.999943 203.6122 -103.3315
v 9.999943 203.7184 -103.2765
v 9.999943 203.8234 -103.2221
v 9.999943 204.1451 -102.2091
v 9.999943 204.866 -99.93953
v 9.999943 204.9008 -99.83009
v 9.999943 204.9347 -99.7235
v 9.999943 204.9625 -99.63573
v 9.999943 204.9819 -99.57481
v 9.99995 209.9638 -99.1496
v 9.999943 204.9819 -99.5748
v 9.999943 204.0406 -97.75712
v 9.999943 203.7635 -97.22211
v 9.999943 203.7352 -97.16749
v 9.999943 203.7221 -97.14216
v 9.999943 203.7055 -97.11015
v 9.999943 203.398 -96.51643
v 9.999943 203.2221 -96.17661
v 9.999943 204.1427 -95.08421
v 9.999943 203.2221 -96.17661
v 9.999943 206.4441 -92.35323

vn 5.117054E-07 -0.6444125 -0.764678
vn 3.591177E-07 -0.6444125 -0.764678
vn 0.6507913 -0.4892745 -0.5805869
vn 1 0 2.235174E-08
vn 1 0 2.235174E-08
vn -4.397355E-08 0.3027253 0.9530779
vn 0.141421 0.6379359 0.7569928
vn -1.830091E-07 -0.5896193 0.8076812
vn -3.217884E-07 0.3027297 0.9530764
vn -2.806668E-07 0.3027305 0.9530762
vn -3.194088E-07 0.3027301 0.9530763
vn -4.029926E-07 0.3027292 0.9530767
vn -4.615049E-07 0.3027281 0.9530769
vn 1.302109E-07 0.3027337 0.9530752
vn -1.57352E-07 0.302731 0.953076
vn -2.054201E-07 0.3027305 0.9530761
vn -1.882713E-07 0.3027307 0.9530762
vn -1.871085E-07 0.3027308 0.9530761
vn -2.010705E-07 0.3027305 0.9530762
vn -2.202652E-07 0.3027308 0.9530761
vn -2.144785E-07 0.3027297 0.9530764
vn -2.571653E-07 0.3027282 0.9530769
vn -1.466755E-07 0.3027303 0.9530762
vn -1.604916E-07 0.3027311 0.953076
vn -1.648507E-07 0.1555122 0.987834
vn -1.994016E-07 -0.4231611 0.9060544
vn -2.553009E-07 -0.4598663 0.8879882
vn -2.158126E-07 -0.4598655 0.8879884
vn -1.961137E-07 -0.4598653 0.8879887
vn -4.279068E-08 -0.4598635 0.8879897
vn 4.166509E-08 -0.4598623 0.8879902
vn 2.579068E-07 -0.4598608 0.887991
vn -8.700812E-09 -0.4598633 0.8879897
vn -1.869343E-07 -0.4598643 0.8879891
vn -2.460375E-07 -0.4598649 0.8879889
vn -3.04774E-07 -0.4598649 0.8879888
vn -2.06198E-07 -0.4598639 0.8879893
vn -2.26855E-07 -0.4598645 0.8879891
vn -2.676856E-07 -0.4598656 0.8879885
vn -2.77851E-07 -0.517314 0.8557957
vn -1.271514E-07 -0.9310263 0.3649522
vn -8.724363E-08 -0.9530758 0.3027314
vn -1.146889E-07 -0.9530762 0.3027304
vn -1.553771E-07 -0.9530765 0.3027298
vn -1.269006E-07 -0.9530764 0.3027297
vn -1.091465E-07 -0.9530762 0.3027301
vn 1.702782E-08 -0.9530761 0.3027307
vn -5.243772E-08 -0.9530762 0.3027303
vn -2.997999E-08 -0.9530762 0.3027306
vn -2.246253E-08 -0.9530762 0.3027303
vn -1.552488E-08 -0.9530763 0.3027303
vn -6.840103E-09 -0.9530761 0.3027307
vn 5.322803E-08 -0.9940444 0.1089755
vn -4.803588E-09 -0.953069 0.3027529
vn 1.297047E-07 -0.8879893 -0.4598639
vn 8.467406E-08 -0.8879887 -0.459865
vn 4.780987E-08 -0.8879886 -0.4598655
vn -6.013518E-08 -0.887988 -0.4598665
vn 1.410574E-07 -0.887989 -0.4598647
vn 4.294465E-07 -0.8879898 -0.4598633
vn 7.084302E-07 -0.8879909 -0.4598608
vn 6.324313E-06 -0.8880118 -0.4598207
vn 2.741573E-06 -0.8879988 -0.4598459
vn -6.117837E-07 -0.8879856 -0.4598712
vn -2.225099E-07 -0.8879876 -0.4598675
vn 1.150992E-07 -0.8879888 -0.4598649
vn 1.407002E-07 -0.887989 -0.4598644
vn 1.404809E-07 -0.8879892 -0.4598642
vn 7.050048E-08 -0.8879915 -0.4598597
vn 7.412913E-08 -0.9524761 -0.3046134
vn 1.683829E-07 -0.6444125 -0.764678
vn 1.68383E-07 -0.6444125 -0.764678
vn 1.68383E-07 -0.6444125 -0.764678
vn 1 0 2.235174E-08
vn -2.729638E-07 0.8879889 0.4598647
vn 1 0 2.235174E-08
vn -1.648693E-07 -0.6744449 0.7383252
vn 0.7603924 -0.4185226 -0.4966307
vn 0.8262194 -0.3630287 -0.4307801
vn 0.07104918 -0.642784 -0.7627456
vn 1.683833E-07 -0.6444125 -0.764678
vn 1.683829E-07 -0.6444125 -0.764678
vn 1.683826E-07 -0.6444125 -0.764678
vn 0.1030028 -0.640985 -0.7606108
vn 1 0 2.235174E-08
vn 0.01266334 -0.6443653 -0.764613
vn 1.68384E-07 -0.6444125 -0.764678
vn 0.1414215 -0.6379358 -0.7569926
vn 1.68384E-07 -0.6444075 -0.7646823
vn -0.06004163 -0.6432451 -0.7633025
vn -2.026389E-07 0.8879889 0.4598647
vn 1.683858E-07 -0.6443945 -0.7646933
vn -1 -4.473999E-06 -5.331324E-06
vn -1 0 -2.235174E-08
vn -1 3.300224E-07 -3.004695E-07
vn 0 0 0
vn -1.924482E-07 0.887989 0.4598647
vn -1.571528E-07 0.887989 0.4598647
vn -1.822574E-07 0.887989 0.4598647
vn -1 3.300224E-07 -3.004695E-07
vn -1 3.300224E-07 -3.004695E-07
vn -1.192093E-07 -0.764678 0.6444125
vn -1.192092E-07 -0.7646779 0.6444125
vn -1.192093E-07 -0.764678 0.6444125
vn -1.192093E-07 -0.764678 0.6444125
vn -1.192093E-07 -0.764678 0.6444125
vn -1.192092E-07 -0.764678 0.6444125
vn -1.192093E-07 -0.764678 0.6444125
vn -1.192093E-07 -0.764678 0.6444125
vn -1.192093E-07 -0.764678 0.6444125
vn 1 0 2.235174E-08
vn 1 0 2.235174E-08
vn 1 0 2.235174E-08
vn 1 0 2.235174E-08
vn 1 0 2.235174E-08
vn 1 0 2.235174E-08
vn 1 0 2.235174E-08
vn 1 0 2.235174E-08
vn 1 0 2.235174E-08
vn 1 0 2.235174E-08
vn 1 0 2.235174E-08
vn 1 0 2.235174E-08
vn 1 0 2.235174E-08
vn 0.9999999 0 2.235174E-08
vn 1 0 2.235174E-08
vn 1 0 2.235174E-08
vn 0.9999999 0 2.235174E-08
vn 1 0 2.235174E-08
vn 1 0 2.235174E-08
vn 1 0 2.235174E-08
vn 0.9999999 0 2.235174E-08
vn 1 0 2.235174E-08
vn 1 0 2.235174E-08
vn 1 0 2.235174E-08
vn 1 0 2.235174E-08
vn 1 0 2.235174E-08
vn 1 0 2.235174E-08
vn 1 0 2.235174E-08
vn 1 0 2.235174E-08
vn 1 0 2.235174E-08
vn 1 0 2.235174E-08
vn 0.9999999 0 2.235174E-08
vn 1 0 2.235174E-08
vn 0.9999999 0 2.235174E-08
vn 0.9999999 0 2.235174E-08
vn 1 0 2.235174E-08
vn 0.9999999 0 2.235174E-08
vn 0.9999999 0 2.235174E-08
vn 3.221387E-07 -0.3027301 -0.9530764
vn 2.914236E-07 -0.05203686 -0.9986452
vn 2.484452E-07 0.2205196 -0.9753825
vn 3.030876E-07 -0.3027301 -0.9530762
vn 1.500548E-07 0.6693532 -0.7429443
vn 7.66406E-08 0.8456305 -0.5337688
vn 1.579903E-08 0.9530762 -0.3027301
vn 8.553636E-09 0.9530763 -0.3027301
vn 2.364281E-07 -0.3027302 -0.9530762
vn -1.192093E-07 -0.764678 0.6444125
vn -1.192093E-07 -0.764678 0.6444125
vn -1.192093E-07 -0.764678 0.6444125
vn -1.192093E-07 -0.764678 0.6444125
vn -1.192093E-07 -0.764678 0.6444125
vn -1.192093E-07 -0.764678 0.6444125
vn -1.283792E-07 -0.764678 0.6444125
vn -1.283792E-07 -0.7646779 0.6444125
vn -0.2028032 0.6310213 0.7487876
vn -1 -4.747766E-07 -5.85735E-07
vn -0.9999999 1.650112E-07 -1.614106E-07
vn -1 1.067658E-07 -2.582674E-07
vn -1 1.650112E-07 -1.614106E-07
vn -1 1.650112E-07 -1.614106E-07
vn -1 -9.999759E-08 -3.371716E-07
vn -1 -9.999776E-08 -3.371717E-07
vn -1 -9.99971E-08 -3.371714E-07
vn -1 -9.999794E-08 -3.371717E-07
vn -1 -9.999803E-08 -3.371717E-07
vn -0.9999999 -9.999738E-08 -3.371716E-07
vn -1 -9.999513E-08 -3.371713E-07
vn -0.9999999 -1.000004E-07 -3.371719E-07
vn -1 1.49628E-07 -3.158661E-07
vn -1 2.333611E-07 -2.190108E-07
vn -1 1.519025E-07 -3.156715E-07
vn -1 1.519022E-07 -3.15672E-07
vn -1 1.51902E-07 -3.156727E-07
vn -1 1.519022E-07 -3.156723E-07
vn -1 1.519022E-07 -3.156723E-07
vn -1 1.519023E-07 -3.156721E-07
vn -1 1.519027E-07 -3.156717E-07
vn -1 2.985088E-07 -1.417046E-07
vn -1 3.1482E-07 -1.223495E-07
vn -1 3.148201E-07 -1.223493E-07
vn -1 3.148194E-07 -1.223497E-07
vn -1 3.148211E-07 -1.22349E-07
vn -1 3.148202E-07 -1.223493E-07
vn -1 3.148199E-07 -1.223495E-07
vn -1 2.505965E-07 -8.759389E-08
vn -1 2.933204E-07 1.295507E-07
vn -1 2.933205E-07 1.295509E-07
vn -1 2.933205E-07 1.295513E-07
vn -1 2.933183E-07 1.295443E-07
vn -1 2.933209E-07 1.29552E-07
vn -1 2.933206E-07 1.295515E-07
vn -1 2.933201E-07 1.2955E-07
vn -0.9999999 2.933196E-07 1.295489E-07
vn -1 1.650112E-07 -1.614106E-07
vn -1 1.650112E-07 -1.614106E-07
vn -0.9999999 1.650112E-07 -1.614106E-07

f 1//1 2//2 3//3
f 4//4 1//1 3//3
f 3//3 5//5 4//4
f 3//3 6//6 5//5
f 5//5 6//6 7//7
f 8//8 7//7 6//6
f 9//9 8//8 6//6
f 10//10 9//9 6//6
f 9//9 10//10 11//11
f 11//11 10//10 12//12
f 13//13 11//11 12//12
f 13//13 12//12 14//14
f 13//13 14//14 15//15
f 15//15 14//14 16//16
f 15//15 16//16 17//17
f 18//18 17//17 16//16
f 19//19 17//17 18//18
f 19//19 18//18 20//20
f 21//21 19//19 20//20
f 22//22 19//19 21//21
f 22//22 21//21 23//23
f 24//24 22//22 23//23
f 24//24 23//23 25//25
f 26//26 24//24 25//25
f 26//26 25//25 27//27
f 28//28 26//26 27//27
f 28//28 27//27 29//29
f 29//29 27//27 30//30
f 31//31 29//29 30//30
f 31//31 30//30 32//32
f 33//33 31//31 32//32
f 33//33 32//32 34//34
f 35//35 33//33 34//34
f 35//35 34//34 36//36
f 37//37 35//35 36//36
f 37//37 36//36 38//38
f 39//39 37//37 38//38
f 39//39 38//38 40//40
f 41//41 39//39 40//40
f 41//41 40//40 42//42
f 41//41 42//42 43//43
f 43//43 42//42 44//44
f 45//45 43//43 44//44
f 45//45 44//44 46//46
f 47//47 45//45 46//46
f 48//48 45//45 47//47
f 48//48 47//47 49//49
f 50//50 48//48 49//49
f 50//50 49//49 51//51
f 52//52 50//50 51//51
f 52//52 51//51 53//53
f 54//54 52//52 53//53
f 55//55 54//54 53//53
f 55//55 53//53 56//56
f 55//55 56//56 57//57
f 57//57 56//56 58//58
f 57//57 58//58 59//59
f 59//59 58//58 60//60
f 59//59 60//60 61//61
f 61//61 60//60 62//62
f 61//61 62//62 63//63
f 63//63 62//62 64//64
f 63//63 64//64 65//65
f 65//65 64//64 66//66
f 65//65 66//66 67//67
f 68//68 67//67 66//66
f 69//69 67//67 68//68
f 69//69 68//68 70//70
f 71//71 69//69 70//70
f 72//72 71//71 73//73
f 74//74 75//75 76//76
f 77//77 74//74 76//76
f 75//75 77//77 76//76
f 78//78 75//75 74//74
f 79//79 75//75 78//78
f 78//78 74//74 80//80
f 81//81 78//78 80//80
f 82//82 78//78 81//81
f 82//82 83//83 78//78
f 83//83 84//84 79//79
f 84//84 85//85 79//79
f 80//80 74//74 86//86
f 87//87 80//80 86//86
f 81//81 80//80 87//87
f 86//86 74//74 88//88
f 88//88 74//74 77//77
f 86//86 88//88 89//89
f 90//90 86//86 89//89
f 87//87 86//86 90//90
f 75//75 91//91 77//77
f 90//90 89//89 92//92
f 90//90 92//92 93//93
f 94//94 90//90 93//93
f 95//95 83//83 82//82
f 95//95 82//82 81//81
f 95//95 81//81 87//87
f 95//95 87//87 90//90
f 95//95 96//96 83//83
f 97//97 91//91 75//75
f 97//97 98//98 91//91
f 97//97 99//99 98//98
f 100//100 95//95 101//101
f 102//102 103//103 104//104
f 102//102 104//104 105//105
f 102//102 105//105 106//106
f 106//106 105//105 107//107
f 108//108 102//102 106//106
f 109//109 102//102 108//108
f 110//110 108//108 106//106
f 111//111 112//112 113//113
f 111//111 113//113 114//114
f 111//111 114//114 115//115
f 111//111 115//115 116//116
f 111//111 116//116 117//117
f 117//117 118//118 111//111
f 118//118 119//119 111//111
f 120//120 111//111 119//119
f 120//120 121//121 111//111
f 121//121 122//122 111//111
f 111//111 122//122 123//123
f 114//114 113//113 124//124
f 124//124 113//113 125//125
f 125//125 113//113 126//126
f 126//126 113//113 127//127
f 127//127 113//113 128//128
f 128//128 113//113 129//129
f 129//129 113//113 130//130
f 130//130 113//113 131//131
f 131//131 113//113 132//132
f 132//132 113//113 133//133
f 133//133 113//113 134//134
f 133//133 134//134 135//135
f 135//135 134//134 136//136
f 134//134 137//137 136//136
f 137//137 134//134 138//138
f 138//138 134//134 139//139
f 139//139 134//134 140//140
f 140//140 134//134 141//141
f 134//134 142//142 141//141
f 134//134 143//143 142//142
f 134//134 144//144 143//143
f 144//144 134//134 145//145
f 145//145 134//134 146//146
f 147//147 134//134 148//148
f 149//149 150//150 151//151
f 149//149 152//152 150//150
f 151//151 150//150 153//153
f 151//151 153//153 154//154
f 154//154 153//153 155//155
f 154//154 155//155 156//156
f 152//152 157//157 150//150
f 158//158 159//159 160//160
f 161//161 159//159 158//158
f 162//162 159//159 161//161
f 163//163 162//162 161//161
f 164//164 162//162 163//163
f 165//165 162//162 164//164
f 9//9 166//166 8//8
f 166//166 9//9 167//167
f 168//168 169//169 170//170
f 168//168 171//171 169//169
f 172//172 169//169 173//173
f 174//174 169//169 172//172
f 169//169 174//174 175//175
f 176//176 169//169 175//175
f 177//177 169//169 176//176
f 178//178 169//169 177//177
f 178//178 179//179 169//169
f 179//179 180//180 169//169
f 180//180 181//181 169//169
f 182//182 181//181 180//180
f 182//182 183//183 181//181
f 183//183 184//184 181//181
f 184//184 185//185 181//181
f 185//185 186//186 181//181
f 186//186 187//187 181//181
f 187//187 188//188 181//181
f 188//188 189//189 181//181
f 181//181 189//189 190//190
f 181//181 190//190 191//191
f 192//192 181//181 191//191
f 193//193 181//181 192//192
f 194//194 181//181 193//193
f 195//195 181//181 194//194
f 195//195 196//196 181//181
f 196//196 197//197 198//198
f 196//196 198//198 199//199
f 199//199 200//200 196//196
f 196//196 200//200 201//201
f 201//201 202//202 196//196
f 196//196 202//202 203//203
f 196//196 203//203 204//204
f 205//205 196//196 206//206
f 207//207 196//196 205//205
