v 9.999947 -205.9168 8.061724
v 50.00002 -205.9168 8.061726
v 9.999947 -205.9168 8.061724
v 9.999947 -205.9168 8.061723
v 9.999947 -203.8037 5.182538
v 9.999943 -202.9584 4.030863
v 9.999943 -202.9584 4.030863
v 50.00002 -202.9584 4.030864
v 90.00009 -202.9584 4.030865
v 9.999943 -202.7188 4.089608
v 90.00009 -200.802 4.559581
v 9.999943 -202.689 4.096909
v 90.00009 -200.5341 4.62528
v 9.999943 -202.6807 4.098958
v 90.00009 -200.4588 4.643726
v 9.999943 -202.5867 4.121993
v 90.00009 -199.6133 4.851035
v 9.999943 -201.4285 4.405988
v 90.00009 -199.4846 4.88259
v 9.999943 -200.3303 4.675251
v 9.999943 -200.2039 4.706227
v 90.00009 -199.3486 4.915949
v 9.999943 -199.9404 4.770834
v 90.00009 -199.3193 4.923128
v 9.999943 -199.2417 4.942165
v 90.00009 -199.2417 4.942166
v 9.999943 -199.0676 4.836647
v 90.00009 -198.2832 4.361137
v 90.00009 -197.675 3.992507
v 9.999943 -199.0244 4.810465
v 90.00009 -197.2863 3.756884
v 9.999943 -199.0116 4.802674
v 90.00009 -197.1707 3.686762
v 9.999943 -198.9144 4.74379
v 90.00009 -196.2964 3.156789
v 9.999943 -197.7999 4.068211
v 90.00009 -196.1726 3.081724
v 9.999943 -196.8792 3.510079
v 90.00009 -196.0703 3.01971
v 9.999943 -195.9691 2.958411
v 90.00009 -195.9691 2.958413
v 9.999943 -195.941 2.843717
v 90.00009 -195.716 1.926164
v 9.999943 -195.878 2.586737
v 90.00009 -195.149 -0.3866607
v 9.999943 -195.7022 1.869802
v 9.999943 -195.6319 1.583086
v 90.00009 -195.1216 -0.498178
v 9.999943 -195.3922 0.6054366
v 90.00009 -195.095 -0.6068036
v 9.999943 -195.1949 -0.1995526
v 90.00009 -195.0731 -0.6962493
v 9.999943 -195.0578 -0.7583358
v 90.00009 -195.0578 -0.7583339
v 90.00009 -195.0578 -0.7583355
v 9.999943 -195.1757 -0.952832
v 90.00009 -196.1189 -2.508802
v 9.999943 -195.2104 -1.01008
v 90.00009 -196.4313 -3.024031
v 9.999943 -195.214 -1.015925
v 90.00009 -196.4632 -3.076629
v 9.999943 -195.2156 -1.018634
v 90.00009 -196.4779 -3.101021
v 9.999943 -195.2177 -1.022061
v 90.00009 -196.4966 -3.131847
v 9.999943 -195.2562 -1.085588
v 90.00009 -196.8432 -3.703605
v 9.999943 -197.0416 -4.030856
v 90.00009 -197.0416 -4.030859
v 9.999943 -197.0416 -4.03086
v 90.00009 -197.0416 -4.030859
v 9.999943 -197.0416 -4.03086
v 9.999943 -197.0416 -4.03086
v 9.999943 -196.1963 -5.182535
v 9.999943 -194.0832 -8.061721
v 9.999943 -194.0832 -8.061721
v 9.999943 -194.0832 -8.06172
v 9.999943 -197.0416 -4.03086
v 9.999943 -197.0416 -4.03086
v 9.999943 -197.0416 -4.03086
v 90.00009 -197.0416 -4.030859
v 90.00009 -197.0416 -4.030859
v 90.00009 -197.0416 -4.030859
v 9.999943 -197.0416 -4.03086
v 9.999943 -190.1157 -1.516674
v 9.999943 -197.0416 -4.03086
v 90.00009 -197.0416 -4.030859
v 9.999943 -197.0416 -4.03086
v 50.00002 -197.0416 -4.030859
v 90.00009 -197.0416 -4.030859
v 50.00002 -194.0832 -8.061719
v 90.00006 -197.0416 -4.030859
v 90.00009 -197.0416 -4.030859
v 90.00009 -196.1963 -5.182532
v 90.00009 -190.1157 -1.516672
v 90.00009 -197.0416 -4.030859
v 9.999943 -190.1157 -1.516674
v 90.00009 -194.0832 -8.061718
v 90.00009 -190.1157 -1.516672
v 90.00009 -195.0578 -0.7583355
v 90.00009 -195.0578 -0.7583339
v 50.00002 -205.9168 8.061726
v 9.999947 -205.9168 8.061724
v 9.999947 -205.9168 8.061723
v 9.999947 -203.8037 5.182538
v 50.00002 -202.9584 4.030864
v 9.999943 -202.9584 4.030863
v 90.00009 -204.1838 5.700503
v 90.00009 -205.9168 8.061726
v 90.00009 -202.9584 4.030864
v 9.999947 -205.9168 8.061724
v 9.999947 -198.4833 9.884325
v 9.999943 -191.9383 5.916822
v 9.999943 -199.2417 4.942165
v 9.999943 -199.9404 4.770834
v 9.999943 -200.2039 4.706227
v 9.999943 -200.3303 4.675251
v 9.999943 -201.4285 4.405988
v 9.999943 -202.5867 4.121993
v 9.999943 -202.6807 4.098958
v 9.999943 -202.689 4.096909
v 9.999943 -202.7188 4.089608
v 9.999943 -202.9584 4.030863
v 9.999943 -199.0676 4.836647
v 9.999943 -199.0244 4.810465
v 9.999943 -199.0116 4.802674
v 9.999943 -198.9144 4.74379
v 9.999943 -197.7999 4.068211
v 9.999943 -196.8792 3.510079
v 9.999943 -195.9691 2.958411
v 9.999943 -195.941 2.843717
v 9.999943 -195.878 2.586737
v 9.999943 -195.7022 1.869802
v 9.999943 -190.1157 -1.516674
v 9.999943 -195.6319 1.583086
v 9.999943 -195.3922 0.6054366
v 9.999943 -195.1949 -0.1995526
v 9.999943 -195.0578 -0.7583358
v 9.999943 -195.1757 -0.952832
v 9.999943 -195.2104 -1.01008
v 9.999943 -195.214 -1.015925
v 9.999943 -195.2156 -1.018634
v 9.999943 -195.2177 -1.022061
v 9.999943 -195.2562 -1.085588
v 9.999943 -197.0416 -4.030856
v 9.999943 -197.0416 -4.03086
v 9.999943 -197.0416 -4.03086
v 9.999943 -194.0832 -8.061721
v 9.999947 -205.9168 8.061724
v 90.00009 -198.4833 9.884327
v 9.999947 -198.4833 9.884325
v 50.00002 -205.9168 8.061726
v 90.00009 -191.9383 5.916823
v 9.999943 -191.9383 5.916822
v 90.00009 -190.1157 -1.516672
v 9.999943 -190.1157 -1.516674
v 90.00009 -205.9168 8.061726
v 9.999943 -194.0832 -8.06172
v 50.00002 -197.0416 -4.030859
v 9.999943 -197.0416 -4.03086
v 50.00002 -194.0832 -8.061719
v 90.00006 -197.0416 -4.030859
v 90.00009 -194.0832 -8.061718
v 90.00009 -196.1963 -5.182532
v 90.00009 -197.0416 -4.030859
v 90.00009 -202.9584 4.030864
v 90.00009 -198.4833 9.884327
v 90.00009 -204.1838 5.700503
v 90.00009 -198.4833 9.884327
v 90.00009 -205.9168 8.061726
v 90.00009 -202.9584 4.030864
v 90.00009 -200.802 4.559581
v 90.00009 -202.9584 4.030865
v 90.00009 -200.5341 4.62528
v 90.00009 -200.4588 4.643726
v 90.00009 -199.6133 4.851035
v 90.00009 -199.4846 4.88259
v 90.00009 -199.3486 4.915949
v 90.00009 -199.3193 4.923128
v 90.00009 -199.2417 4.942166
v 90.00009 -191.9383 5.916823
v 90.00009 -198.2832 4.361137
v 90.00009 -197.675 3.992507
v 90.00009 -197.2863 3.756884
v 90.00009 -197.1707 3.686762
v 90.00009 -196.2964 3.156789
v 90.00009 -196.1726 3.081724
v 90.00009 -196.0703 3.01971
v 90.00009 -195.9691 2.958413
v 90.00009 -195.716 1.926164
v 90.00009 -195.149 -0.3866607
v 90.00009 -195.1216 -0.498178
v 90.00009 -195.095 -0.6068036
v 90.00009 -195.0731 -0.6962493
v 90.00009 -195.0578 -0.7583339
v 90.00009 -190.1157 -1.516672
v 90.00009 -195.0578 -0.7583355
v 90.00009 -196.1189 -2.508802
v 90.00009 -196.4313 -3.024031
v 90.00009 -196.4632 -3.076629
v 90.00009 -196.4779 -3.101021
v 90.00009 -196.4966 -3.131847
v 90.00009 -196.8432 -3.703605
v 90.00009 -197.0416 -4.030859
v 90.00009 -196.1963 -5.182532
v 90.00009 -197.0416 -4.030859
v 90.00009 -194.0832 -8.061718

vn -4.073973E-07 -0.5916818 0.8061717
vn -2.548096E-07 -0.5916818 0.8061717
vn -0.6507913 -0.4492383 0.6120912
vn -1 -2.980232E-08 5.215406E-08
vn -1 -2.980232E-08 5.215406E-08
vn -6.379938E-08 0.2381293 -0.9712335
vn -0.1414211 0.5857351 -0.7980694
vn 1.29271E-07 -0.6424561 -0.7663225
vn 2.140155E-07 0.2381338 -0.9712324
vn 1.728938E-07 0.2381347 -0.9712322
vn 2.116359E-07 0.2381343 -0.9712323
vn 2.952196E-07 0.2381333 -0.9712326
vn 3.53732E-07 0.2381323 -0.9712328
vn -2.37984E-07 0.2381379 -0.9712314
vn 4.957901E-08 0.2381352 -0.9712321
vn 9.764713E-08 0.2381347 -0.9712322
vn 8.049829E-08 0.2381349 -0.9712322
vn 7.933549E-08 0.238135 -0.9712321
vn 9.329749E-08 0.2381347 -0.9712322
vn 1.124922E-07 0.238135 -0.9712322
vn 1.067055E-07 0.2381339 -0.9712324
vn 1.493924E-07 0.2381323 -0.9712327
vn 3.890253E-08 0.2381344 -0.9712322
vn 5.271859E-08 0.2381353 -0.9712321
vn 6.017851E-08 0.08891683 -0.9960392
vn 1.285324E-07 -0.4829696 -0.8756371
vn 1.878504E-07 -0.5183806 -0.8551501
vn 1.48362E-07 -0.5183799 -0.8551505
vn 1.286631E-07 -0.5183796 -0.8551507
vn -2.466016E-08 -0.5183779 -0.8551518
vn -1.09116E-07 -0.5183767 -0.8551524
vn -3.253579E-07 -0.5183753 -0.8551533
vn -5.875004E-08 -0.5183777 -0.8551518
vn 1.194836E-07 -0.5183787 -0.8551512
vn 1.785868E-07 -0.5183793 -0.855151
vn 2.373233E-07 -0.5183793 -0.8551509
vn 1.387473E-07 -0.5183783 -0.8551514
vn 1.594043E-07 -0.5183789 -0.8551512
vn 2.00235E-07 -0.5183799 -0.8551505
vn 2.161387E-07 -0.5735401 -0.8191776
vn 1.32397E-07 -0.9534046 -0.301695
vn 9.96267E-08 -0.9712319 -0.2381356
vn 1.270721E-07 -0.9712322 -0.2381346
vn 1.677603E-07 -0.9712325 -0.2381339
vn 1.392839E-07 -0.9712324 -0.2381339
vn 1.215297E-07 -0.9712322 -0.2381343
vn -4.644675E-09 -0.9712321 -0.2381349
vn 6.482092E-08 -0.9712323 -0.2381344
vn 4.236315E-08 -0.9712322 -0.2381348
vn 3.484573E-08 -0.9712322 -0.2381344
vn 2.790807E-08 -0.9712323 -0.2381345
vn 1.922325E-08 -0.9712321 -0.2381349
vn -1.984934E-08 -0.9991148 -0.04206847
vn 1.718423E-08 -0.9712266 -0.2381575
vn -4.474145E-08 -0.8551515 0.5183783
vn 2.892593E-10 -0.8551508 0.5183793
vn 3.715351E-08 -0.8551506 0.5183798
vn 1.450986E-07 -0.8551499 0.5183808
vn -5.609411E-08 -0.8551511 0.518379
vn -3.444833E-07 -0.855152 0.5183777
vn -6.234673E-07 -0.8551533 0.5183753
vn -6.239354E-06 -0.8551767 0.5183367
vn -2.656611E-06 -0.855162 0.5183609
vn 6.967475E-07 -0.8551472 0.5183853
vn 3.074734E-07 -0.8551494 0.5183818
vn -3.01359E-08 -0.8551508 0.5183793
vn -5.573692E-08 -0.8551511 0.5183787
vn -5.551766E-08 -0.8551514 0.5183786
vn 1.446244E-08 -0.8551539 0.5183743
vn -1.66554E-09 -0.9299043 0.3678018
vn -6.407483E-08 -0.5916818 0.8061717
vn -6.407484E-08 -0.5916818 0.8061717
vn -6.407484E-08 -0.5916818 0.8061717
vn -1 -2.980232E-08 5.215406E-08
vn 1.880005E-07 0.855151 -0.5183791
vn -1 -2.980232E-08 5.215406E-08
vn 1.217639E-07 -0.7224395 -0.6914342
vn -0.7603924 -0.3842759 0.5235794
vn -0.8262195 -0.333323 0.4541555
vn -0.07104908 -0.5901865 0.8041344
vn -6.407515E-08 -0.5916818 0.8061717
vn -6.407483E-08 -0.5916818 0.8061717
vn -6.407448E-08 -0.5916818 0.8061717
vn -0.1030027 -0.5885347 0.8018838
vn -1 -2.980232E-08 5.215406E-08
vn -0.01266324 -0.5916389 0.8061037
vn -6.407586E-08 -0.5916818 0.8061717
vn -0.1414214 -0.585735 0.7980692
vn -6.407569E-08 -0.5916764 0.8061756
vn 0.06004174 -0.5906093 0.804721
vn 1.176756E-07 0.8551509 -0.518379
vn -6.407696E-08 -0.5916627 0.8061857
vn 1 -4.0781E-06 5.544899E-06
vn 1 2.980232E-08 -5.215406E-08
vn 1 3.777327E-07 2.03206E-07
vn 0 0 0
vn 1.074849E-07 0.8551511 -0.518379
vn 7.218948E-08 0.8551511 -0.518379
vn 9.729408E-08 0.8551511 -0.5183791
vn 1 3.777327E-07 2.03206E-07
vn 1 3.777327E-07 2.03206E-07
vn 8.940695E-08 -0.8061717 -0.5916818
vn 8.940692E-08 -0.8061717 -0.5916817
vn 8.940694E-08 -0.8061717 -0.5916818
vn 8.940694E-08 -0.8061717 -0.5916818
vn 8.940696E-08 -0.8061717 -0.5916818
vn 8.940693E-08 -0.8061717 -0.5916818
vn 8.940697E-08 -0.8061717 -0.5916818
vn 8.940697E-08 -0.8061717 -0.5916818
vn 8.940697E-08 -0.8061717 -0.5916818
vn -1 -2.980232E-08 5.215406E-08
vn -1 -2.980232E-08 5.215406E-08
vn -1 -2.980232E-08 5.215406E-08
vn -1 -2.980232E-08 5.215406E-08
vn -1 -2.980232E-08 5.215406E-08
vn -1 -2.980232E-08 5.215406E-08
vn -1 -2.980232E-08 5.215406E-08
vn -1 -2.980232E-08 5.215406E-08
vn -1 -2.980232E-08 5.215406E-08
vn -1 -2.980232E-08 5.215406E-08
vn -1 -2.980232E-08 5.215406E-08
vn -1 -2.980232E-08 5.215406E-08
vn -1 -2.980232E-08 5.215406E-08
vn -1 -2.980232E-08 5.215406E-08
vn -1 -2.980232E-08 5.215406E-08
vn -1 -2.980232E-08 5.215406E-08
vn -1 -2.980232E-08 5.215406E-08
vn -1 -2.980232E-08 5.215406E-08
vn -1 -2.980232E-08 5.215406E-08
vn -1 -2.980232E-08 5.215406E-08
vn -1 -2.980232E-08 5.215406E-08
vn -1 -2.980232E-08 5.215406E-08
vn -1 -2.980232E-08 5.215406E-08
vn -1 -2.980232E-08 5.215406E-08
vn -1 -2.980232E-08 5.215406E-08
vn -1 -2.980232E-08 5.215406E-08
vn -1 -2.980232E-08 5.215406E-08
vn -1 -2.980232E-08 5.215406E-08
vn -1 -2.980232E-08 5.215406E-08
vn -1 -2.980232E-08 5.215406E-08
vn -1 -2.980232E-08 5.215406E-08
vn -1 -2.980232E-08 5.215406E-08
vn -1 -2.980232E-08 5.215406E-08
vn -1 -2.980232E-08 5.215406E-08
vn -1 -2.980232E-08 5.215406E-08
vn -1 -2.980232E-08 5.215406E-08
vn -1 -2.980232E-08 5.215406E-08
vn -1 -2.980232E-08 5.215406E-08
vn -2.143657E-07 -0.2381343 0.9712324
vn -1.902787E-07 0.01505055 0.9998868
vn -1.617118E-07 0.2854335 0.9583986
vn -1.953147E-07 -0.2381342 0.9712322
vn -1.062659E-07 0.7176692 0.6963843
vn -6.138495E-08 0.879522 0.4758584
vn -2.818225E-08 0.9712322 0.2381343
vn -2.093685E-08 0.9712323 0.2381343
vn -1.286551E-07 -0.2381344 0.9712322
vn 8.940695E-08 -0.8061717 -0.5916818
vn 8.940696E-08 -0.8061717 -0.5916818
vn 8.940695E-08 -0.8061717 -0.5916818
vn 8.940695E-08 -0.8061717 -0.5916818
vn 8.940697E-08 -0.8061717 -0.5916818
vn 8.940697E-08 -0.8061717 -0.5916818
vn 9.857691E-08 -0.8061717 -0.5916818
vn 9.857691E-08 -0.8061717 -0.5916817
vn 0.2028031 0.5793863 -0.7894191
vn 1 -4.061244E-07 5.418E-07
vn 1 2.037675E-07 7.552596E-08
vn 1 1.521486E-07 1.760707E-07
vn 1 2.037675E-07 7.552596E-08
vn 1 2.037675E-07 7.552596E-08
vn 1 -4.885799E-08 2.686631E-07
vn 1 -4.885816E-08 2.686631E-07
vn 1 -4.885752E-08 2.686628E-07
vn 1 -4.885834E-08 2.686631E-07
vn 1 -4.885842E-08 2.686631E-07
vn 1 -4.885779E-08 2.686631E-07
vn 1 -4.885556E-08 2.686626E-07
vn 1 -4.886082E-08 2.686635E-07
vn 1 1.987769E-07 2.306654E-07
vn 1 2.758263E-07 1.284128E-07
vn 1 2.010332E-07 2.303186E-07
vn 1 2.01033E-07 2.303192E-07
vn 1 2.010328E-07 2.303199E-07
vn 1 2.01033E-07 2.303195E-07
vn 1 2.01033E-07 2.303194E-07
vn 1 2.010331E-07 2.303193E-07
vn 1 2.010334E-07 2.303188E-07
vn 1 3.356431E-07 4.691174E-08
vn 1 3.506196E-07 2.650642E-08
vn 1 3.506197E-07 2.650626E-08
vn 1 3.50619E-07 2.650662E-08
vn 1 3.506207E-07 2.650584E-08
vn 1 3.506198E-07 2.650618E-08
vn 1 3.506195E-07 2.65064E-08
vn 1 2.8421E-07 -3.864061E-09
vn 1 3.122757E-07 -2.23385E-07
vn 1 3.122757E-07 -2.233852E-07
vn 1 3.122758E-07 -2.233855E-07
vn 1 3.122741E-07 -2.233784E-07
vn 1 3.122761E-07 -2.233863E-07
vn 1 3.122758E-07 -2.233857E-07
vn 1 3.122754E-07 -2.233843E-07
vn 1 3.12275E-07 -2.233831E-07
vn 1 2.037675E-07 7.552596E-08
vn 1 2.037675E-07 7.552596E-08
vn 1 2.037675E-07 7.552597E-08

f 1//1 2//2 3//3
f 4//4 1//1 3//3
f 3//3 5//5 4//4
f 3//3 6//6 5//5
f 5//5 6//6 7//7
f 8//8 7//7 6//6
f 9//9 8//8 6//6
f 10//10 9//9 6//6
f 9//9 10//10 11//11
f 11//11 10//10 12//12
f 13//13 11//11 12//12
f 13//13 12//12 14//14
f 13//13 14//14 15//15
f 15//15 14//14 16//16
f 15//15 16//16 17//17
f 18//18 17//17 16//16
f 19//19 17//17 18//18
f 19//19 18//18 20//20
f 21//21 19//19 20//20
f 22//22 19//19 21//21
f 22//22 21//21 23//23
f 24//24 22//22 23//23
f 24//24 23//23 25//25
f 26//26 24//24 25//25
f 26//26 25//25 27//27
f 28//28 26//26 27//27
f 28//28 27//27 29//29
f 29//29 27//27 30//30
f 31//31 29//29 30//30
f 31//31 30//30 32//32
f 33//33 31//31 32//32
f 33//33 32//32 34//34
f 35//35 33//33 34//34
f 35//35 34//34 36//36
f 37//37 35//35 36//36
f 37//37 36//36 38//38
f 39//39 37//37 38//38
f 39//39 38//38 40//40
f 41//41 39//39 40//40
f 41//41 40//40 42//42
f 41//41 42//42 43//43
f 43//43 42//42 44//44
f 45//45 43//43 44//44
f 45//45 44//44 46//46
f 47//47 45//45 46//46
f 48//48 45//45 47//47
f 48//48 47//47 49//49
f 50//50 48//48 49//49
f 50//50 49//49 51//51
f 52//52 50//50 51//51
f 52//52 51//51 53//53
f 54//54 52//52 53//53
f 55//55 54//54 53//53
f 55//55 53//53 56//56
f 55//55 56//56 57//57
f 57//57 56//56 58//58
f 57//57 58//58 59//59
f 59//59 58//58 60//60
f 59//59 60//60 61//61
f 61//61 60//60 62//62
f 61//61 62//62 63//63
f 63//63 62//62 64//64
f 63//63 64//64 65//65
f 65//65 64//64 66//66
f 65//65 66//66 67//67
f 68//68 67//67 66//66
f 69//69 67//67 68//68
f 69//69 68//68 70//70
f 71//71 69//69 70//70
f 72//72 71//71 73//73
f 74//74 75//75 76//76
f 77//77 74//74 76//76
f 75//75 77//77 76//76
f 78//78 75//75 74//74
f 79//79 75//75 78//78
f 78//78 74//74 80//80
f 81//81 78//78 80//80
f 82//82 78//78 81//81
f 82//82 83//83 78//78
f 83//83 84//84 79//79
f 84//84 85//85 79//79
f 80//80 74//74 86//86
f 87//87 80//80 86//86
f 81//81 80//80 87//87
f 86//86 74//74 88//88
f 88//88 74//74 77//77
f 86//86 88//88 89//89
f 90//90 86//86 89//89
f 87//87 86//86 90//90
f 75//75 91//91 77//77
f 90//90 89//89 92//92
f 90//90 92//92 93//93
f 94//94 90//90 93//93
f 95//95 83//83 82//82
f 95//95 82//82 81//81
f 95//95 81//81 87//87
f 95//95 87//87 90//90
f 95//95 96//96 83//83
f 97//97 91//91 75//75
f 97//97 98//98 91//91
f 97//97 99//99 98//98
f 100//100 95//95 101//101
f 102//102 103//103 104//104
f 102//102 104//104 105//105
f 102//102 105//105 106//106
f 106//106 105//105 107//107
f 108//108 102//102 106//106
f 109//109 102//102 108//108
f 110//110 108//108 106//106
f 111//111 112//112 113//113
f 111//111 113//113 114//114
f 111//111 114//114 115//115
f 111//111 115//115 116//116
f 111//111 116//116 117//117
f 117//117 118//118 111//111
f 118//118 119//119 111//111
f 120//120 111//111 119//119
f 120//120 121//121 111//111
f 121//121 122//122 111//111
f 111//111 122//122 123//123
f 114//114 113//113 124//124
f 124//124 113//113 125//125
f 125//125 113//113 126//126
f 126//126 113//113 127//127
f 127//127 113//113 128//128
f 128//128 113//113 129//129
f 129//129 113//113 130//130
f 130//130 113//113 131//131
f 131//131 113//113 132//132
f 132//132 113//113 133//133
f 133//133 113//113 134//134
f 133//133 134//134 135//135
f 135//135 134//134 136//136
f 134//134 137//137 136//136
f 137//137 134//134 138//138
f 138//138 134//134 139//139
f 139//139 134//134 140//140
f 140//140 134//134 141//141
f 134//134 142//142 141//141
f 134//134 143//143 142//142
f 134//134 144//144 143//143
f 144//144 134//134 145//145
f 145//145 134//134 146//146
f 147//147 134//134 148//148
f 149//149 150//150 151//151
f 149//149 152//152 150//150
f 151//151 150//150 153//153
f 151//151 153//153 154//154
f 154//154 153//153 155//155
f 154//154 155//155 156//156
f 152//152 157//157 150//150
f 158//158 159//159 160//160
f 161//161 159//159 158//158
f 162//162 159//159 161//161
f 163//163 162//162 161//161
f 164//164 162//162 163//163
f 165//165 162//162 164//164
f 9//9 166//166 8//8
f 166//166 9//9 167//167
f 168//168 169//169 170//170
f 168//168 171//171 169//169
f 172//172 169//169 173//173
f 174//174 169//169 172//172
f 169//169 174//174 175//175
f 176//176 169//169 175//175
f 177//177 169//169 176//176
f 178//178 169//169 177//177
f 178//178 179//179 169//169
f 179//179 180//180 169//169
f 180//180 181//181 169//169
f 182//182 181//181 180//180
f 182//182 183//183 181//181
f 183//183 184//184 181//181
f 184//184 185//185 181//181
f 185//185 186//186 181//181
f 186//186 187//187 181//181
f 187//187 188//188 181//181
f 188//188 189//189 181//181
f 181//181 189//189 190//190
f 181//181 190//190 191//191
f 192//192 181//181 191//191
f 193//193 181//181 192//192
f 194//194 181//181 193//193
f 195//195 181//181 194//194
f 195//195 196//196 181//181
f 196//196 197//197 198//198
f 196//196 198//198 199//199
f 199//199 200//200 196//196
f 196//196 200//200 201//201
f 201//201 202//202 196//196
f 196//196 202//202 203//203
f 196//196 203//203 204//204
f 205//205 196//196 206//206
f 207//207 196//196 205//205
