v 103.8474 209.2303 -86.9099
v 103.8474 209.2303 -49.99998
v 103.8474 209.2303 -86.9099
v 103.8474 209.2303 -86.9099
v 102.4733 205.9337 -86.9099
v 101.9237 204.6151 -86.9099
v 101.9237 204.6151 -86.9099
v 101.9237 204.6151 -49.99998
v 101.9237 204.6151 -13.09006
v 102.0977 204.4403 -86.9099
v 103.4902 203.0417 -13.09006
v 102.1194 204.4186 -86.9099
v 103.6848 202.8462 -13.09006
v 102.1254 204.4125 -86.9099
v 103.7394 202.7913 -13.09006
v 102.1937 204.3439 -86.9099
v 104.3537 202.1743 -13.09006
v 103.0351 203.4988 -86.9099
v 104.4471 202.0804 -13.09006
v 103.8328 202.6975 -86.9099
v 103.9246 202.6053 -86.9099
v 104.546 201.9812 -13.09006
v 104.116 202.413 -86.9099
v 104.5672 201.9598 -13.09006
v 104.6236 201.9031 -86.9099
v 104.6236 201.9032 -13.09006
v 104.6232 201.6996 -86.9099
v 104.6212 200.7823 -13.09006
v 104.6196 200.0712 -13.09006
v 104.6231 201.6491 -86.9099
v 104.6186 199.6166 -13.09006
v 104.623 201.634 -86.9099
v 104.6183 199.4814 -13.09006
v 104.6228 201.5205 -86.9099
v 104.616 198.459 -13.09006
v 104.6199 200.2172 -86.9099
v 104.6157 198.3142 -13.09006
v 104.6175 199.1405 -86.9099
v 104.6154 198.1946 -13.09006
v 104.6151 198.0763 -86.9099
v 104.6151 198.0763 -13.09006
v 104.5314 197.993 -86.9099
v 103.8619 197.3265 -13.09006
v 104.3439 197.8063 -86.9099
v 102.1743 195.6463 -13.09006
v 103.8208 197.2855 -86.9099
v 103.6116 197.0772 -86.9099
v 102.093 195.5653 -13.09006
v 102.8982 196.367 -86.9099
v 102.0137 195.4864 -13.09006
v 102.3109 195.7823 -86.9099
v 101.9484 195.4215 -13.09006
v 101.9031 195.3764 -86.9099
v 101.9031 195.3764 -13.09006
v 101.9031 195.3764 -13.09006
v 101.6757 195.3769 -86.9099
v 99.85618 195.3809 -13.09006
v 101.6087 195.377 -86.9099
v 99.25368 195.3822 -13.09006
v 101.6019 195.377 -86.9099
v 99.19217 195.3824 -13.09006
v 101.5987 195.377 -86.9099
v 99.16365 195.3824 -13.09006
v 101.5947 195.377 -86.9099
v 99.1276 195.3825 -13.09006
v 101.5205 195.3772 -86.9099
v 98.459 195.384 -13.09006
v 98.07631 195.3849 -86.9099
v 98.07632 195.3849 -13.09006
v 98.07631 195.3849 -86.9099
v 98.07632 195.3849 -13.09006
v 98.07631 195.3849 -86.9099
v 98.07631 195.3849 -86.9099
v 97.52669 194.0663 -86.9099
v 96.15262 190.7697 -86.9099
v 96.15262 190.7697 -86.9099
v 96.15262 190.7697 -86.9099
v 98.07631 195.3849 -86.9099
v 98.07631 195.3849 -86.9099
v 98.07631 195.3849 -86.9099
v 98.07632 195.3849 -13.09006
v 98.07632 195.3849 -13.09006
v 98.07632 195.3849 -13.09006
v 98.07631 195.3849 -86.9099
v 103.8063 190.7527 -86.9099
v 98.07631 195.3849 -86.9099
v 98.07632 195.3849 -13.09006
v 98.07631 195.3849 -86.9099
v 98.07631 195.3849 -49.99998
v 98.07632 195.3849 -13.09006
v 96.15263 190.7697 -49.99998
v 98.07632 195.3849 -13.0901
v 98.07632 195.3849 -13.09006
v 97.52669 194.0663 -13.09006
v 103.8063 190.7527 -13.09007
v 98.07632 195.3849 -13.09006
v 103.8063 190.7527 -86.9099
v 96.15263 190.7697 -13.09006
v 103.8063 190.7527 -13.09007
v 101.9031 195.3764 -13.09006
v 101.9031 195.3764 -13.09006
v 103.8474 209.2303 -49.99998
v 103.8474 209.2303 -86.9099
v 103.8474 209.2303 -86.9099
v 102.4733 205.9337 -86.9099
v 101.9237 204.6151 -49.99998
v 101.9237 204.6151 -86.9099
v 102.7205 206.5268 -13.09006
v 103.8474 209.2303 -13.09006
v 101.9237 204.6151 -13.09006
v 103.8474 209.2303 -86.9099
v 109.2473 203.8063 -86.9099
v 109.2303 196.1526 -86.9099
v 104.6236 201.9031 -86.9099
v 104.116 202.413 -86.9099
v 103.9246 202.6053 -86.9099
v 103.8328 202.6975 -86.9099
v 103.0351 203.4988 -86.9099
v 102.1937 204.3439 -86.9099
v 102.1254 204.4125 -86.9099
v 102.1194 204.4186 -86.9099
v 102.0977 204.4403 -86.9099
v 101.9237 204.6151 -86.9099
v 104.6232 201.6996 -86.9099
v 104.6231 201.6491 -86.9099
v 104.623 201.634 -86.9099
v 104.6228 201.5205 -86.9099
v 104.6199 200.2172 -86.9099
v 104.6175 199.1405 -86.9099
v 104.6151 198.0763 -86.9099
v 104.5314 197.993 -86.9099
v 104.3439 197.8063 -86.9099
v 103.8208 197.2855 -86.9099
v 103.8063 190.7527 -86.9099
v 103.6116 197.0772 -86.9099
v 102.8982 196.367 -86.9099
v 102.3109 195.7823 -86.9099
v 101.9031 195.3764 -86.9099
v 101.6757 195.3769 -86.9099
v 101.6087 195.377 -86.9099
v 101.6019 195.377 -86.9099
v 101.5987 195.377 -86.9099
v 101.5947 195.377 -86.9099
v 101.5205 195.3772 -86.9099
v 98.07631 195.3849 -86.9099
v 98.07631 195.3849 -86.9099
v 98.07631 195.3849 -86.9099
v 96.15262 190.7697 -86.9099
v 103.8474 209.2303 -86.9099
v 109.2473 203.8063 -13.09007
v 109.2473 203.8063 -86.9099
v 103.8474 209.2303 -49.99998
v 109.2303 196.1526 -13.09007
v 109.2303 196.1526 -86.9099
v 103.8063 190.7527 -13.09007
v 103.8063 190.7527 -86.9099
v 103.8474 209.2303 -13.09006
v 96.15262 190.7697 -86.9099
v 98.07631 195.3849 -49.99998
v 98.07631 195.3849 -86.9099
v 96.15263 190.7697 -49.99998
v 98.07632 195.3849 -13.0901
v 96.15263 190.7697 -13.09006
v 97.52669 194.0663 -13.09006
v 98.07632 195.3849 -13.09006
v 101.9237 204.6151 -13.09006
v 109.2473 203.8063 -13.09007
v 102.7205 206.5268 -13.09006
v 109.2473 203.8063 -13.09007
v 103.8474 209.2303 -13.09006
v 101.9237 204.6151 -13.09006
v 103.4902 203.0417 -13.09006
v 101.9237 204.6151 -13.09006
v 103.6848 202.8462 -13.09006
v 103.7394 202.7913 -13.09006
v 104.3537 202.1743 -13.09006
v 104.4471 202.0804 -13.09006
v 104.546 201.9812 -13.09006
v 104.5672 201.9598 -13.09006
v 104.6236 201.9032 -13.09006
v 109.2303 196.1526 -13.09007
v 104.6212 200.7823 -13.09006
v 104.6196 200.0712 -13.09006
v 104.6186 199.6166 -13.09006
v 104.6183 199.4814 -13.09006
v 104.616 198.459 -13.09006
v 104.6157 198.3142 -13.09006
v 104.6154 198.1946 -13.09006
v 104.6151 198.0763 -13.09006
v 103.8619 197.3265 -13.09006
v 102.1743 195.6463 -13.09006
v 102.093 195.5653 -13.09006
v 102.0137 195.4864 -13.09006
v 101.9484 195.4215 -13.09006
v 101.9031 195.3764 -13.09006
v 103.8063 190.7527 -13.09007
v 101.9031 195.3764 -13.09006
v 99.85618 195.3809 -13.09006
v 99.25368 195.3822 -13.09006
v 99.19217 195.3824 -13.09006
v 99.16365 195.3824 -13.09006
v 99.1276 195.3825 -13.09006
v 98.459 195.384 -13.09006
v 98.07632 195.3849 -13.09006
v 97.52669 194.0663 -13.09006
v 98.07632 195.3849 -13.09006
v 96.15263 190.7697 -13.09006

vn 0.3847375 0.9230261 -5.340573E-07
vn 0.3847375 0.9230261 -3.814695E-07
vn 0.2921145 0.7008137 -0.6507915
vn 0 0 -1
vn 0 0 -1
vn -0.7086813 -0.7055289 6.462384E-08
vn -0.3808707 -0.9137494 -0.141421
vn -0.9880163 0.1543496 1.883212E-07
vn -0.7086781 -0.7055321 3.424388E-07
vn -0.7086775 -0.7055328 3.013172E-07
vn -0.7086778 -0.7055326 3.400592E-07
vn -0.7086785 -0.7055318 4.23643E-07
vn -0.7086792 -0.705531 4.821553E-07
vn -0.7086751 -0.7055352 -1.095606E-07
vn -0.7086771 -0.7055332 1.780024E-07
vn -0.7086774 -0.7055328 2.260705E-07
vn -0.7086774 -0.705533 2.089217E-07
vn -0.7086773 -0.705533 2.077589E-07
vn -0.7086775 -0.7055328 2.217208E-07
vn -0.7086773 -0.705533 2.409156E-07
vn -0.7086781 -0.7055322 2.351288E-07
vn -0.7086791 -0.7055311 2.778157E-07
vn -0.7086776 -0.7055326 1.673259E-07
vn -0.7086771 -0.7055333 1.81142E-07
vn -0.8069871 -0.5905694 1.839747E-07
vn -0.9992518 -0.03867724 2.087928E-07
vn -0.9999977 0.002226298 2.638546E-07
vn -0.9999976 0.002225477 2.243663E-07
vn -0.9999976 0.002225151 2.046674E-07
vn -0.9999977 0.00222306 5.134435E-08
vn -0.9999976 0.002221758 -3.311141E-08
vn -0.9999976 0.002220076 -2.493531E-07
vn -0.9999977 0.002222904 1.725448E-08
vn -0.9999976 0.002224087 1.95488E-07
vn -0.9999977 0.002224665 2.545912E-07
vn -0.9999976 0.002224752 3.133277E-07
vn -0.9999976 0.002223606 2.147517E-07
vn -0.9999977 0.002224266 2.354087E-07
vn -0.9999976 0.002225472 2.762392E-07
vn -0.9976828 0.06803837 2.850269E-07
vn -0.7507521 0.6605842 1.199789E-07
vn -0.7055334 0.7086766 7.869004E-08
vn -0.7055327 0.7086774 1.061353E-07
vn -0.7055322 0.7086779 1.468234E-07
vn -0.7055321 0.7086779 1.18347E-07
vn -0.7055324 0.7086775 1.005928E-07
vn -0.7055328 0.7086772 -2.558145E-08
vn -0.7055326 0.7086775 4.388409E-08
vn -0.7055328 0.7086773 2.142637E-08
vn -0.7055326 0.7086775 1.39089E-08
vn -0.7055326 0.7086775 6.971244E-09
vn -0.7055328 0.7086771 -1.713521E-09
vn -0.5520415 0.8338166 -6.568341E-08
vn -0.7055494 0.7086607 -3.749557E-09
vn 0.002223767 0.9999976 -1.50355E-07
vn 0.002225055 0.9999974 -1.053244E-07
vn 0.0022255 0.9999976 -6.846021E-08
vn 0.00222671 0.9999975 3.948485E-08
vn 0.002224647 0.9999976 -1.617078E-07
vn 0.002223038 0.9999977 -4.500969E-07
vn 0.002220296 0.9999975 -7.290806E-07
vn 0.002175051 0.9999976 -6.344964E-06
vn 0.002203428 0.9999976 -2.762224E-06
vn 0.002231942 0.9999976 5.911334E-07
vn 0.002227824 0.9999976 2.018595E-07
vn 0.002224945 0.9999975 -1.357496E-07
vn 0.002224331 0.9999975 -1.613505E-07
vn 0.00222406 0.9999976 -1.611313E-07
vn 0.002219035 0.9999976 -9.115077E-08
vn -0.1653232 0.9862395 -9.305478E-08
vn 0.3847375 0.9230261 -1.907347E-07
vn 0.3847375 0.9230261 -1.907347E-07
vn 0.3847375 0.9230261 -1.907347E-07
vn 0 0 -1
vn -0.002224702 -0.9999976 2.936142E-07
vn 0 0 -1
vn -0.9651988 0.2615176 1.677742E-07
vn 0.2498731 0.5994721 -0.7603925
vn 0.2167412 0.5199853 -0.8262196
vn 0.3837652 0.9206935 -0.07104921
vn 0.3847375 0.9230261 -1.90735E-07
vn 0.3847375 0.9230261 -1.907347E-07
vn 0.3847375 0.9230261 -1.907344E-07
vn 0.3826911 0.9181166 -0.1030029
vn 0 0 -1
vn 0.3847013 0.9229544 -0.01266336
vn 0.3847375 0.9230261 -1.907357E-07
vn 0.3808707 0.9137492 -0.1414215
vn 0.3847436 0.9230236 -1.907358E-07
vn 0.3840492 0.9213585 0.06004162
vn -0.002224679 -0.9999975 2.232893E-07
vn 0.3847593 0.923017 -1.907376E-07
vn 2.671138E-06 6.408345E-06 1
vn 0 0 1
vn 3.983628E-07 -1.660463E-07 1
vn 0 0 0
vn -0.00222462 -0.9999976 2.130985E-07
vn -0.002224647 -0.9999976 1.778031E-07
vn -0.002224642 -0.9999976 2.029078E-07
vn 3.983628E-07 -1.660463E-07 1
vn 3.983628E-07 -1.660463E-07 1
vn -0.9230261 0.3847373 1.192093E-07
vn -0.9230261 0.3847373 1.192093E-07
vn -0.9230261 0.3847373 1.192093E-07
vn -0.9230261 0.3847373 1.192093E-07
vn -0.9230261 0.3847373 1.192093E-07
vn -0.9230261 0.3847373 1.192093E-07
vn -0.9230261 0.3847373 1.192093E-07
vn -0.9230261 0.3847373 1.192093E-07
vn -0.9230261 0.3847373 1.192093E-07
vn 0 0 -1
vn 0 0 -1
vn 0 0 -1
vn 0 0 -1
vn 0 0 -1
vn 0 0 -1
vn 0 0 -1
vn 0 0 -1
vn 0 0 -1
vn 0 0 -1
vn 0 0 -1
vn 0 0 -1
vn 0 0 -1
vn 0 0 -1
vn 0 0 -1
vn 0 0 -1
vn 0 0 -1
vn 0 0 -1
vn 0 0 -1
vn 0 0 -1
vn 0 0 -1
vn 0 0 -1
vn 0 0 -1
vn 0 0 -1
vn 0 0 -1
vn 0 0 -1
vn 0 0 -1
vn 0 0 -1
vn 0 0 -1
vn 0 0 -1
vn 0 0 -1
vn 0 0 -1
vn 0 0 -1
vn 0 0 -1
vn 0 0 -1
vn 0 0 -1
vn 0 0 -1
vn 0 0 -1
vn 0.7086778 0.7055326 -3.427891E-07
vn 0.8639784 0.5035292 -3.092419E-07
vn 0.968098 0.2505721 -2.619401E-07
vn 0.7086777 0.7055324 -3.23738E-07
vn 0.9669738 -0.2548761 -1.531119E-07
vn 0.86173 -0.5073673 -7.358349E-08
vn 0.7055324 -0.7086775 -7.245399E-09
vn 0.7055325 -0.7086776 0
vn 0.7086777 0.7055326 -2.570785E-07
vn -0.9230261 0.3847373 1.192093E-07
vn -0.9230261 0.3847373 1.192093E-07
vn -0.9230261 0.3847373 1.192093E-07
vn -0.9230261 0.3847373 1.192093E-07
vn -0.9230261 0.3847373 1.192093E-07
vn -0.9230261 0.3847373 1.192093E-07
vn -0.9230261 0.3847373 1.283793E-07
vn -0.9230261 0.3847373 1.283793E-07
vn -0.3767425 -0.9038452 0.2028033
vn 2.834587E-07 6.800477E-07 1
vn 1.991814E-07 -8.302312E-08 1
vn 2.586182E-07 1.310712E-08 1
vn 1.991814E-07 -8.302313E-08 1
vn 1.991814E-07 -8.302313E-08 1
vn 2.340903E-07 2.330512E-07 1
vn 2.340903E-07 2.330513E-07 1
vn 2.340903E-07 2.330506E-07 1
vn 2.340902E-07 2.330515E-07 1
vn 2.340901E-07 2.330516E-07 1
vn 2.340904E-07 2.33051E-07 1
vn 2.340911E-07 2.330488E-07 1
vn 2.340892E-07 2.330538E-07 1
vn 3.294501E-07 1.376009E-09 1
vn 2.816851E-07 -1.174125E-07 1
vn 3.303185E-07 -7.351088E-10 1
vn 3.303188E-07 -7.346781E-10 1
vn 3.303194E-07 -7.341185E-10 1
vn 3.303191E-07 -7.344836E-10 1
vn 3.303191E-07 -7.345229E-10 1
vn 3.30319E-07 -7.34641E-10 1
vn 3.303188E-07 -7.35205E-10 1
vn 2.427895E-07 -2.10727E-07 1
vn 2.330514E-07 -2.340903E-07 1
vn 2.330513E-07 -2.340904E-07 1
vn 2.330512E-07 -2.340896E-07 1
vn 2.330514E-07 -2.340915E-07 1
vn 2.330513E-07 -2.340905E-07 1
vn 2.330513E-07 -2.340902E-07 1
vn 1.727461E-07 -1.929092E-07 1
vn -7.348704E-10 -3.30319E-07 1
vn -7.350126E-10 -3.303192E-07 1
vn -7.352881E-10 -3.303195E-07 1
vn -7.301015E-10 -3.303143E-07 1
vn -7.357692E-10 -3.303201E-07 1
vn -7.354324E-10 -3.303196E-07 1
vn -7.344003E-10 -3.303185E-07 1
vn -7.336241E-10 -3.303175E-07 1
vn 1.991814E-07 -8.302313E-08 1
vn 1.991814E-07 -8.302315E-08 1
vn 1.991814E-07 -8.302313E-08 1

f 1//1 2//2 3//3
f 4//4 1//1 3//3
f 3//3 5//5 4//4
f 3//3 6//6 5//5
f 5//5 6//6 7//7
f 8//8 7//7 6//6
f 9//9 8//8 6//6
f 10//10 9//9 6//6
f 9//9 10//10 11//11
f 11//11 10//10 12//12
f 13//13 11//11 12//12
f 13//13 12//12 14//14
f 13//13 14//14 15//15
f 15//15 14//14 16//16
f 15//15 16//16 17//17
f 18//18 17//17 16//16
f 19//19 17//17 18//18
f 19//19 18//18 20//20
f 21//21 19//19 20//20
f 22//22 19//19 21//21
f 22//22 21//21 23//23
f 24//24 22//22 23//23
f 24//24 23//23 25//25
f 26//26 24//24 25//25
f 26//26 25//25 27//27
f 28//28 26//26 27//27
f 28//28 27//27 29//29
f 29//29 27//27 30//30
f 31//31 29//29 30//30
f 31//31 30//30 32//32
f 33//33 31//31 32//32
f 33//33 32//32 34//34
f 35//35 33//33 34//34
f 35//35 34//34 36//36
f 37//37 35//35 36//36
f 37//37 36//36 38//38
f 39//39 37//37 38//38
f 39//39 38//38 40//40
f 41//41 39//39 40//40
f 41//41 40//40 42//42
f 41//41 42//42 43//43
f 43//43 42//42 44//44
f 45//45 43//43 44//44
f 45//45 44//44 46//46
f 47//47 45//45 46//46
f 48//48 45//45 47//47
f 48//48 47//47 49//49
f 50//50 48//48 49//49
f 50//50 49//49 51//51
f 52//52 50//50 51//51
f 52//52 51//51 53//53
f 54//54 52//52 53//53
f 55//55 54//54 53//53
f 55//55 53//53 56//56
f 55//55 56//56 57//57
f 57//57 56//56 58//58
f 57//57 58//58 59//59
f 59//59 58//58 60//60
f 59//59 60//60 61//61
f 61//61 60//60 62//62
f 61//61 62//62 63//63
f 63//63 62//62 64//64
f 63//63 64//64 65//65
f 65//65 64//64 66//66
f 65//65 66//66 67//67
f 68//68 67//67 66//66
f 69//69 67//67 68//68
f 69//69 68//68 70//70
f 71//71 69//69 70//70
f 72//72 71//71 73//73
f 74//74 75//75 76//76
f 77//77 74//74 76//76
f 75//75 77//77 76//76
f 78//78 75//75 74//74
f 79//79 75//75 78//78
f 78//78 74//74 80//80
f 81//81 78//78 80//80
f 82//82 78//78 81//81
f 82//82 83//83 78//78
f 83//83 84//84 79//79
f 84//84 85//85 79//79
f 80//80 74//74 86//86
f 87//87 80//80 86//86
f 81//81 80//80 87//87
f 86//86 74//74 88//88
f 88//88 74//74 77//77
f 86//86 88//88 89//89
f 90//90 86//86 89//89
f 87//87 86//86 90//90
f 75//75 91//91 77//77
f 90//90 89//89 92//92
f 90//90 92//92 93//93
f 94//94 90//90 93//93
f 95//95 83//83 82//82
f 95//95 82//82 81//81
f 95//95 81//81 87//87
f 95//95 87//87 90//90
f 95//95 96//96 83//83
f 97//97 91//91 75//75
f 97//97 98//98 91//91
f 97//97 99//99 98//98
f 100//100 95//95 101//101
f 102//102 103//103 104//104
f 102//102 104//104 105//105
f 102//102 105//105 106//106
f 106//106 105//105 107//107
f 108//108 102//102 106//106
f 109//109 102//102 108//108
f 110//110 108//108 106//106
f 111//111 112//112 113//113
f 111//111 113//113 114//114
f 111//111 114//114 115//115
f 111//111 115//115 116//116
f 111//111 116//116 117//117
f 117//117 118//118 111//111
f 118//118 119//119 111//111
f 120//120 111//111 119//119
f 120//120 121//121 111//111
f 121//121 122//122 111//111
f 111//111 122//122 123//123
f 114//114 113//113 124//124
f 124//124 113//113 125//125
f 125//125 113//113 126//126
f 126//126 113//113 127//127
f 127//127 113//113 128//128
f 128//128 113//113 129//129
f 129//129 113//113 130//130
f 130//130 113//113 131//131
f 131//131 113//113 132//132
f 132//132 113//113 133//133
f 133//133 113//113 134//134
f 133//133 134//134 135//135
f 135//135 134//134 136//136
f 134//134 137//137 136//136
f 137//137 134//134 138//138
f 138//138 134//134 139//139
f 139//139 134//134 140//140
f 140//140 134//134 141//141
f 134//134 142//142 141//141
f 134//134 143//143 142//142
f 134//134 144//144 143//143
f 144//144 134//134 145//145
f 145//145 134//134 146//146
f 147//147 134//134 148//148
f 149//149 150//150 151//151
f 149//149 152//152 150//150
f 151//151 150//150 153//153
f 151//151 153//153 154//154
f 154//154 153//153 155//155
f 154//154 155//155 156//156
f 152//152 157//157 150//150
f 158//158 159//159 160//160
f 161//161 159//159 158//158
f 162//162 159//159 161//161
f 163//163 162//162 161//161
f 164//164 162//162 163//163
f 165//165 162//162 164//164
f 9//9 166//166 8//8
f 166//166 9//9 167//167
f 168//168 169//169 170//170
f 168//168 171//171 169//169
f 172//172 169//169 173//173
f 174//174 169//169 172//172
f 169//169 174//174 175//175
f 176//176 169//169 175//175
f 177//177 169//169 176//176
f 178//178 169//169 177//177
f 178//178 179//179 169//169
f 179//179 180//180 169//169
f 180//180 181//181 169//169
f 182//182 181//181 180//180
f 182//182 183//183 181//181
f 183//183 184//184 181//181
f 184//184 185//185 181//181
f 185//185 186//186 181//181
f 186//186 187//187 181//181
f 187//187 188//188 181//181
f 188//188 189//189 181//181
f 181//181 189//189 190//190
f 181//181 190//190 191//191
f 192//192 181//181 191//191
f 193//193 181//181 192//192
f 194//194 181//181 193//193
f 195//195 181//181 194//194
f 195//195 196//196 181//181
f 196//196 197//197 198//198
f 196//196 198//198 199//199
f 199//199 200//200 196//196
f 196//196 200//200 201//201
f 201//201 202//202 196//196
f 196//196 202//202 203//203
f 196//196 203//203 204//204
f 205//205 196//196 206//206
f 207//207 196//196 205//205
