v 62.20113 12.29374 59.99979
v 74.9537 25.04631 59.99979
v 62.20113 12.29374 59.99979
v 62.20113 12.29374 59.99979
v 62.21767 12.2772 56.42844
v 62.22428 12.27059 54.9999
v 62.22428 12.27059 54.9999
v 74.97685 25.02316 54.9999
v 87.72942 37.77573 54.9999
v 62.06356 12.43131 54.904
v 86.28294 39.22221 54.13683
v 62.04359 12.45128 54.89208
v 86.1032 39.40195 54.02959
v 62.03798 12.45689 54.88874
v 86.05273 39.45242 53.99948
v 61.97496 12.5199 54.85114
v 85.48557 40.01958 53.66107
v 61.19801 13.29687 54.38755
v 85.39925 40.10591 53.60956
v 60.46135 14.03352 53.94801
v 60.3766 14.11827 53.89745
v 85.30798 40.19718 53.5551
v 60.19985 14.29502 53.79199
v 85.28834 40.21682 53.54339
v 59.73111 14.76375 53.51231
v 85.23625 40.2689 53.51231
v 59.6769 14.81796 53.32374
v 84.93776 40.5674 52.47399
v 84.74837 40.75678 51.81523
v 59.66346 14.83141 53.27696
v 84.62733 40.87783 51.39416
v 59.65945 14.83542 53.26303
v 84.5913 40.91386 51.26885
v 59.6292 14.86567 53.1578
v 84.31903 41.18613 50.32177
v 59.28213 15.21274 51.95052
v 84.28046 41.22469 50.18762
v 58.99539 15.49948 50.95311
v 84.2486 41.25655 50.0768
v 58.71198 15.78289 49.96726
v 84.21712 41.28804 49.96726
v 58.74443 15.75043 49.85845
v 84.50925 40.9959 48.98802
v 58.81716 15.67771 49.61467
v 85.16381 40.34134 46.79398
v 59.02007 15.4748 48.93456
v 59.10121 15.39366 48.66256
v 85.19537 40.30978 46.68819
v 59.3779 15.11697 47.73512
v 85.22611 40.27904 46.58514
v 59.60572 14.88915 46.97147
v 85.25143 40.25373 46.50029
v 59.76385 14.73101 46.44139
v 85.269 40.23616 46.44139
v 85.269 40.23616 46.44139
v 59.91284 14.58203 46.35573
v 86.60985 38.89531 45.67045
v 59.95669 14.53818 46.33051
v 87.00451 38.50065 45.44353
v 59.96117 14.5337 46.32794
v 87.0448 38.46036 45.42037
v 59.96325 14.53162 46.32675
v 87.06348 38.44167 45.40963
v 59.96587 14.529 46.32524
v 87.0871 38.41806 45.39605
v 60.01453 14.48034 46.29726
v 87.52505 37.9801 45.14424
v 62.27058 12.22428 45.00011
v 87.77573 37.72942 45.00011
v 62.27059 12.22428 45.00011
v 87.77573 37.72942 45.00011
v 62.27059 12.22428 45.00011
v 62.27059 12.22428 45.00011
v 62.2772 12.21766 43.57156
v 62.29374 12.20113 40.00021
v 62.29374 12.20113 40.00021
v 62.29374 12.20113 40.00021
v 62.27059 12.22428 45.00011
v 62.27059 12.22428 45.00011
v 62.27059 12.22428 45.00011
v 87.77573 37.72942 45.00011
v 87.77573 37.72942 45.00011
v 87.77573 37.72942 45.00011
v 62.27059 12.22428 45.00011
v 57.28028 17.21459 42.88277
v 62.27059 12.22428 45.00011
v 87.77573 37.72942 45.00011
v 62.27059 12.22428 45.00011
v 75.02316 24.97685 45.00011
v 87.77573 37.72942 45.00011
v 75.04631 24.9537 40.00021
v 87.77572 37.72941 45.00011
v 87.77573 37.72942 45.00011
v 87.78235 37.72281 43.57157
v 82.78542 42.71973 42.88278
v 87.77573 37.72942 45.00011
v 57.28028 17.21459 42.88277
v 87.79888 37.70627 40.00021
v 82.78542 42.71973 42.88278
v 85.269 40.23616 46.44139
v 85.269 40.23616 46.44139
v 74.9537 25.04631 59.99979
v 62.20113 12.29374 59.99979
v 62.20113 12.29374 59.99979
v 62.21767 12.2772 56.42844
v 74.97685 25.02316 54.9999
v 62.22428 12.27059 54.9999
v 87.71983 37.78532 57.07093
v 87.70627 37.79889 59.99979
v 87.72942 37.77573 54.9999
v 62.20113 12.29374 59.99979
v 57.21479 17.28008 57.02461
v 55.17651 19.31836 49.93451
v 59.73111 14.76375 53.51231
v 60.19985 14.29502 53.79199
v 60.3766 14.11827 53.89745
v 60.46135 14.03352 53.94801
v 61.19801 13.29687 54.38755
v 61.97496 12.5199 54.85114
v 62.03798 12.45689 54.88874
v 62.04359 12.45128 54.89208
v 62.06356 12.43131 54.904
v 62.22428 12.27059 54.9999
v 59.6769 14.81796 53.32374
v 59.66346 14.83141 53.27696
v 59.65945 14.83542 53.26303
v 59.6292 14.86567 53.1578
v 59.28213 15.21274 51.95052
v 58.99539 15.49948 50.95311
v 58.71198 15.78289 49.96726
v 58.74443 15.75043 49.85845
v 58.81716 15.67771 49.61467
v 59.02007 15.4748 48.93456
v 57.28028 17.21459 42.88277
v 59.10121 15.39366 48.66256
v 59.3779 15.11697 47.73512
v 59.60572 14.88915 46.97147
v 59.76385 14.73101 46.44139
v 59.91284 14.58203 46.35573
v 59.95669 14.53818 46.33051
v 59.96117 14.5337 46.32794
v 59.96325 14.53162 46.32675
v 59.96587 14.529 46.32524
v 60.01453 14.48034 46.29726
v 62.27058 12.22428 45.00011
v 62.27059 12.22428 45.00011
v 62.27059 12.22428 45.00011
v 62.29374 12.20113 40.00021
v 62.20113 12.29374 59.99979
v 82.71993 42.78522 57.02462
v 57.21479 17.28008 57.02461
v 74.9537 25.04631 59.99979
v 80.68166 44.8235 49.93452
v 55.17651 19.31836 49.93451
v 82.78542 42.71973 42.88278
v 57.28028 17.21459 42.88277
v 87.70627 37.79889 59.99979
v 62.29374 12.20113 40.00021
v 75.02316 24.97685 45.00011
v 62.27059 12.22428 45.00011
v 75.04631 24.9537 40.00021
v 87.77572 37.72941 45.00011
v 87.79888 37.70627 40.00021
v 87.78235 37.72281 43.57157
v 87.77573 37.72942 45.00011
v 87.72942 37.77573 54.9999
v 82.71993 42.78522 57.02462
v 87.71983 37.78532 57.07093
v 82.71993 42.78522 57.02462
v 87.70627 37.79889 59.99979
v 87.72942 37.77573 54.9999
v 86.28294 39.22221 54.13683
v 87.72942 37.77573 54.9999
v 86.1032 39.40195 54.02959
v 86.05273 39.45242 53.99948
v 85.48557 40.01958 53.66107
v 85.39925 40.10591 53.60956
v 85.30798 40.19718 53.5551
v 85.28834 40.21682 53.54339
v 85.23625 40.2689 53.51231
v 80.68166 44.8235 49.93452
v 84.93776 40.5674 52.47399
v 84.74837 40.75678 51.81523
v 84.62733 40.87783 51.39416
v 84.5913 40.91386 51.26885
v 84.31903 41.18613 50.32177
v 84.28046 41.22469 50.18762
v 84.2486 41.25655 50.0768
v 84.21712 41.28804 49.96726
v 84.50925 40.9959 48.98802
v 85.16381 40.34134 46.79398
v 85.19537 40.30978 46.68819
v 85.22611 40.27904 46.58514
v 85.25143 40.25373 46.50029
v 85.269 40.23616 46.44139
v 82.78542 42.71973 42.88278
v 85.269 40.23616 46.44139
v 86.60985 38.89531 45.67045
v 87.00451 38.50065 45.44353
v 87.0448 38.46036 45.42037
v 87.06348 38.44167 45.40963
v 87.0871 38.41806 45.39605
v 87.52505 37.9801 45.14424
v 87.77573 37.72942 45.00011
v 87.78235 37.72281 43.57157
v 87.77573 37.72942 45.00011
v 87.79888 37.70627 40.00021

vn -0.004630988 0.004630367 0.9999786
vn -0.00463088 0.004630475 0.9999786
vn -0.4636948 -0.4566631 0.7592404
vn -0.7071068 -0.7071068 4.470348E-08
vn -0.7071068 -0.7071068 4.470348E-08
vn 0.2748736 -0.2748737 -0.9213517
vn -0.09541565 -0.1045839 -0.9899284
vn 0.6879333 -0.6879331 -0.2312917
vn 0.2748708 -0.2748705 -0.9213535
vn 0.2748702 -0.2748699 -0.9213539
vn 0.2748705 -0.2748701 -0.9213537
vn 0.2748712 -0.2748708 -0.9213533
vn 0.2748719 -0.2748714 -0.9213529
vn 0.2748677 -0.274868 -0.9213552
vn 0.2748697 -0.2748697 -0.9213541
vn 0.2748701 -0.2748699 -0.9213538
vn 0.27487 -0.2748699 -0.921354
vn 0.2748699 -0.2748698 -0.9213539
vn 0.2748702 -0.27487 -0.9213538
vn 0.2748699 -0.2748698 -0.921354
vn 0.2748707 -0.2748705 -0.9213535
vn 0.2748717 -0.2748715 -0.9213529
vn 0.2748702 -0.2748702 -0.9213537
vn 0.2748697 -0.2748696 -0.9213541
vn 0.3699922 -0.3699921 -0.8521806
vn 0.6435995 -0.6435992 -0.4141978
vn 0.6550403 -0.6550401 -0.3766229
vn 0.65504 -0.6550398 -0.3766237
vn 0.65504 -0.6550398 -0.376624
vn 0.6550394 -0.6550394 -0.376626
vn 0.6550389 -0.655039 -0.3766271
vn 0.6550382 -0.6550387 -0.3766287
vn 0.6550393 -0.6550393 -0.3766261
vn 0.6550396 -0.6550394 -0.3766249
vn 0.6550399 -0.6550397 -0.3766245
vn 0.6550399 -0.6550395 -0.3766243
vn 0.6550395 -0.6550393 -0.3766254
vn 0.6550398 -0.6550395 -0.3766248
vn 0.6550401 -0.6550398 -0.3766237
vn 0.6711479 -0.6711476 -0.3148355
vn 0.6682113 -0.6682112 0.3270896
vn 0.6514959 -0.6514958 0.3887241
vn 0.6514956 -0.6514955 0.3887251
vn 0.6514955 -0.6514953 0.3887257
vn 0.6514955 -0.6514953 0.3887257
vn 0.6514955 -0.6514954 0.3887253
vn 0.6514956 -0.6514956 0.3887248
vn 0.6514956 -0.6514955 0.3887252
vn 0.6514957 -0.6514956 0.3887249
vn 0.6514955 -0.6514955 0.3887252
vn 0.6514956 -0.6514956 0.3887252
vn 0.6514956 -0.6514956 0.3887247
vn 0.5845525 -0.5845526 0.5626694
vn 0.651502 -0.6515021 0.3887033
vn 0.2663144 -0.2663145 0.9263657
vn 0.2663135 -0.2663136 0.926366
vn 0.2663133 -0.2663133 0.9263663
vn 0.2663125 -0.2663124 0.9263667
vn 0.2663138 -0.2663139 0.926366
vn 0.2663147 -0.2663152 0.9263655
vn 0.2663162 -0.2663171 0.9263643
vn 0.2663419 -0.2663507 0.9263473
vn 0.2663258 -0.2663296 0.926358
vn 0.2663095 -0.2663086 0.9263688
vn 0.266312 -0.2663116 0.9263672
vn 0.2663136 -0.2663137 0.926366
vn 0.266314 -0.2663141 0.9263658
vn 0.2663141 -0.2663143 0.9263658
vn 0.2663175 -0.2663175 0.9263639
vn 0.3722807 -0.3722808 0.8501848
vn -0.004630745 0.004630609 0.9999786
vn -0.004630745 0.004630609 0.9999786
vn -0.004630745 0.004630609 0.9999786
vn -0.7071068 -0.7071068 4.470348E-08
vn -0.2663136 0.2663139 -0.926366
vn -0.7071068 -0.7071068 4.470348E-08
vn 0.7016969 -0.7016967 -0.1234644
vn -0.5406861 -0.5346711 0.6494499
vn -0.5868341 -0.5816167 0.5633363
vn -0.05485828 -0.04562033 0.9974514
vn -0.004630745 0.004630609 0.9999786
vn -0.004630745 0.004630609 0.9999786
vn -0.004630745 0.004630609 0.9999786
vn -0.07744 -0.06822791 0.9946597
vn -0.7071068 -0.7071068 4.470348E-08
vn -0.01358053 -0.004328039 0.9998984
vn -0.004630745 0.004630609 0.9999786
vn -0.1045842 -0.09541591 0.9899282
vn -0.004635433 0.004635297 0.9999785
vn 0.03782914 0.04708265 0.9981744
vn -0.2663137 0.2663139 -0.9263659
vn -0.004647465 0.00464733 0.9999784
vn 0.7071068 0.7071068 6.897903E-06
vn 0.7071068 0.7071068 -4.470348E-08
vn 0.7071065 0.7071071 -4.752983E-08
vn 0 0 0
vn -0.2663138 0.266314 -0.926366
vn -0.2663138 0.2663139 -0.926366
vn -0.2663138 0.2663139 -0.926366
vn 0.7071065 0.7071071 -4.752983E-08
vn 0.7071065 0.7071071 -4.752983E-08
vn 0.7070917 -0.7070916 0.006548792
vn 0.7070917 -0.7070916 0.006548792
vn 0.7070917 -0.7070916 0.006548792
vn 0.7070917 -0.7070916 0.006548792
vn 0.7070917 -0.7070916 0.006548792
vn 0.7070917 -0.7070916 0.006548792
vn 0.7070917 -0.7070916 0.006548792
vn 0.7070917 -0.7070916 0.006548792
vn 0.7070917 -0.7070916 0.006548792
vn -0.7071068 -0.7071068 4.470348E-08
vn -0.7071068 -0.7071068 4.470348E-08
vn -0.7071068 -0.7071068 4.470348E-08
vn -0.7071068 -0.7071068 4.470348E-08
vn -0.7071068 -0.7071068 4.470348E-08
vn -0.7071068 -0.7071068 4.470348E-08
vn -0.7071068 -0.7071068 4.470348E-08
vn -0.7071068 -0.7071068 4.470348E-08
vn -0.7071068 -0.7071068 4.470348E-08
vn -0.7071068 -0.7071068 4.470348E-08
vn -0.7071068 -0.7071068 4.470348E-08
vn -0.7071068 -0.7071068 4.470348E-08
vn -0.7071068 -0.7071068 4.470348E-08
vn -0.7071068 -0.7071068 4.470348E-08
vn -0.7071068 -0.7071068 4.470348E-08
vn -0.7071068 -0.7071068 4.470348E-08
vn -0.7071068 -0.7071068 4.470348E-08
vn -0.7071068 -0.7071068 4.470348E-08
vn -0.7071068 -0.7071068 4.470348E-08
vn -0.7071068 -0.7071068 4.470348E-08
vn -0.7071068 -0.7071068 4.470348E-08
vn -0.7071068 -0.7071068 4.470348E-08
vn -0.7071068 -0.7071068 4.470348E-08
vn -0.7071068 -0.7071068 4.470348E-08
vn -0.7071068 -0.7071068 4.470348E-08
vn -0.7071068 -0.7071068 4.470348E-08
vn -0.7071068 -0.7071068 4.470348E-08
vn -0.7071068 -0.7071068 4.470348E-08
vn -0.7071068 -0.7071068 4.470348E-08
vn -0.7071068 -0.7071068 4.470348E-08
vn -0.7071068 -0.7071068 4.470348E-08
vn -0.7071068 -0.7071068 4.470348E-08
vn -0.7071068 -0.7071068 4.470348E-08
vn -0.7071068 -0.7071068 4.470348E-08
vn -0.7071068 -0.7071068 4.470348E-08
vn -0.7071068 -0.7071068 4.470348E-08
vn -0.7071068 -0.7071068 4.470348E-08
vn -0.7071068 -0.7071068 4.470348E-08
vn -0.2748705 0.2748702 0.9213538
vn -0.4305968 0.4305965 0.7932043
vn -0.5664718 0.5664716 0.5985145
vn -0.2748705 0.2748702 0.9213536
vn -0.7010801 0.70108 0.1302834
vn -0.6998134 0.6998133 -0.1432579
vn -0.6514955 0.6514955 -0.3887253
vn -0.6514955 0.6514955 -0.3887253
vn -0.2748704 0.2748702 0.9213537
vn 0.7070917 -0.7070916 0.006548792
vn 0.7070917 -0.7070916 0.006548792
vn 0.7070917 -0.7070916 0.006548792
vn 0.7070917 -0.7070916 0.006548792
vn 0.7070917 -0.7070916 0.006548792
vn 0.7070917 -0.7070916 0.006548792
vn 0.7070917 -0.7070916 0.006548792
vn 0.7070917 -0.7070916 0.006548792
vn 0.1479379 0.138869 -0.9791985
vn 0.7071068 0.7071068 6.920395E-07
vn 0.7071066 0.7071069 -4.611666E-08
vn 0.7071066 0.7071069 6.536214E-08
vn 0.7071066 0.7071069 -4.611666E-08
vn 0.7071066 0.7071069 -4.611666E-08
vn 0.7071067 0.7071069 2.596377E-07
vn 0.7071067 0.7071069 2.596379E-07
vn 0.7071067 0.7071069 2.596372E-07
vn 0.7071067 0.7071069 2.59638E-07
vn 0.7071067 0.7071069 2.59638E-07
vn 0.7071066 0.7071068 2.596376E-07
vn 0.7071067 0.7071069 2.596359E-07
vn 0.7071066 0.7071068 2.596397E-07
vn 0.7071066 0.707107 8.132763E-08
vn 0.7071066 0.707107 -4.670202E-08
vn 0.7071066 0.707107 7.970259E-08
vn 0.7071066 0.707107 7.970312E-08
vn 0.7071066 0.707107 7.970384E-08
vn 0.7071066 0.707107 7.970338E-08
vn 0.7071066 0.707107 7.970334E-08
vn 0.7071066 0.707107 7.970321E-08
vn 0.7071066 0.707107 7.97026E-08
vn 0.7071066 0.707107 -1.477962E-07
vn 0.7071066 0.707107 -1.731072E-07
vn 0.7071066 0.707107 -1.731074E-07
vn 0.7071066 0.707107 -1.731066E-07
vn 0.7071066 0.707107 -1.731083E-07
vn 0.7071066 0.707107 -1.731075E-07
vn 0.7071066 0.707107 -1.731071E-07
vn 0.7071066 0.7071069 -1.578296E-07
vn 0.7071067 0.7071069 -3.507006E-07
vn 0.7071067 0.7071069 -3.507008E-07
vn 0.7071067 0.7071069 -3.507011E-07
vn 0.7071067 0.7071069 -3.506944E-07
vn 0.7071067 0.7071069 -3.507018E-07
vn 0.7071067 0.7071069 -3.507013E-07
vn 0.7071067 0.7071069 -3.506998E-07
vn 0.7071066 0.7071068 -3.506987E-07
vn 0.7071066 0.7071069 -4.611666E-08
vn 0.7071066 0.7071069 -4.611667E-08
vn 0.7071066 0.7071069 -4.611666E-08

f 1//1 2//2 3//3
f 4//4 1//1 3//3
f 3//3 5//5 4//4
f 3//3 6//6 5//5
f 5//5 6//6 7//7
f 8//8 7//7 6//6
f 9//9 8//8 6//6
f 10//10 9//9 6//6
f 9//9 10//10 11//11
f 11//11 10//10 12//12
f 13//13 11//11 12//12
f 13//13 12//12 14//14
f 13//13 14//14 15//15
f 15//15 14//14 16//16
f 15//15 16//16 17//17
f 18//18 17//17 16//16
f 19//19 17//17 18//18
f 19//19 18//18 20//20
f 21//21 19//19 20//20
f 22//22 19//19 21//21
f 22//22 21//21 23//23
f 24//24 22//22 23//23
f 24//24 23//23 25//25
f 26//26 24//24 25//25
f 26//26 25//25 27//27
f 28//28 26//26 27//27
f 28//28 27//27 29//29
f 29//29 27//27 30//30
f 31//31 29//29 30//30
f 31//31 30//30 32//32
f 33//33 31//31 32//32
f 33//33 32//32 34//34
f 35//35 33//33 34//34
f 35//35 34//34 36//36
f 37//37 35//35 36//36
f 37//37 36//36 38//38
f 39//39 37//37 38//38
f 39//39 38//38 40//40
f 41//41 39//39 40//40
f 41//41 40//40 42//42
f 41//41 42//42 43//43
f 43//43 42//42 44//44
f 45//45 43//43 44//44
f 45//45 44//44 46//46
f 47//47 45//45 46//46
f 48//48 45//45 47//47
f 48//48 47//47 49//49
f 50//50 48//48 49//49
f 50//50 49//49 51//51
f 52//52 50//50 51//51
f 52//52 51//51 53//53
f 54//54 52//52 53//53
f 55//55 54//54 53//53
f 55//55 53//53 56//56
f 55//55 56//56 57//57
f 57//57 56//56 58//58
f 57//57 58//58 59//59
f 59//59 58//58 60//60
f 59//59 60//60 61//61
f 61//61 60//60 62//62
f 61//61 62//62 63//63
f 63//63 62//62 64//64
f 63//63 64//64 65//65
f 65//65 64//64 66//66
f 65//65 66//66 67//67
f 68//68 67//67 66//66
f 69//69 67//67 68//68
f 69//69 68//68 70//70
f 71//71 69//69 70//70
f 72//72 71//71 73//73
f 74//74 75//75 76//76
f 77//77 74//74 76//76
f 75//75 77//77 76//76
f 78//78 75//75 74//74
f 79//79 75//75 78//78
f 78//78 74//74 80//80
f 81//81 78//78 80//80
f 82//82 78//78 81//81
f 82//82 83//83 78//78
f 83//83 84//84 79//79
f 84//84 85//85 79//79
f 80//80 74//74 86//86
f 87//87 80//80 86//86
f 81//81 80//80 87//87
f 86//86 74//74 88//88
f 88//88 74//74 77//77
f 86//86 88//88 89//89
f 90//90 86//86 89//89
f 87//87 86//86 90//90
f 75//75 91//91 77//77
f 90//90 89//89 92//92
f 90//90 92//92 93//93
f 94//94 90//90 93//93
f 95//95 83//83 82//82
f 95//95 82//82 81//81
f 95//95 81//81 87//87
f 95//95 87//87 90//90
f 95//95 96//96 83//83
f 97//97 91//91 75//75
f 97//97 98//98 91//91
f 97//97 99//99 98//98
f 100//100 95//95 101//101
f 102//102 103//103 104//104
f 102//102 104//104 105//105
f 102//102 105//105 106//106
f 106//106 105//105 107//107
f 108//108 102//102 106//106
f 109//109 102//102 108//108
f 110//110 108//108 106//106
f 111//111 112//112 113//113
f 111//111 113//113 114//114
f 111//111 114//114 115//115
f 111//111 115//115 116//116
f 111//111 116//116 117//117
f 117//117 118//118 111//111
f 118//118 119//119 111//111
f 120//120 111//111 119//119
f 120//120 121//121 111//111
f 121//121 122//122 111//111
f 111//111 122//122 123//123
f 114//114 113//113 124//124
f 124//124 113//113 125//125
f 125//125 113//113 126//126
f 126//126 113//113 127//127
f 127//127 113//113 128//128
f 128//128 113//113 129//129
f 129//129 113//113 130//130
f 130//130 113//113 131//131
f 131//131 113//113 132//132
f 132//132 113//113 133//133
f 133//133 113//113 134//134
f 133//133 134//134 135//135
f 135//135 134//134 136//136
f 134//134 137//137 136//136
f 137//137 134//134 138//138
f 138//138 134//134 139//139
f 139//139 134//134 140//140
f 140//140 134//134 141//141
f 134//134 142//142 141//141
f 134//134 143//143 142//142
f 134//134 144//144 143//143
f 144//144 134//134 145//145
f 145//145 134//134 146//146
f 147//147 134//134 148//148
f 149//149 150//150 151//151
f 149//149 152//152 150//150
f 151//151 150//150 153//153
f 151//151 153//153 154//154
f 154//154 153//153 155//155
f 154//154 155//155 156//156
f 152//152 157//157 150//150
f 158//158 159//159 160//160
f 161//161 159//159 158//158
f 162//162 159//159 161//161
f 163//163 162//162 161//161
f 164//164 162//162 163//163
f 165//165 162//162 164//164
f 9//9 166//166 8//8
f 166//166 9//9 167//167
f 168//168 169//169 170//170
f 168//168 171//171 169//169
f 172//172 169//169 173//173
f 174//174 169//169 172//172
f 169//169 174//174 175//175
f 176//176 169//169 175//175
f 177//177 169//169 176//176
f 178//178 169//169 177//177
f 178//178 179//179 169//169
f 179//179 180//180 169//169
f 180//180 181//181 169//169
f 182//182 181//181 180//180
f 182//182 183//183 181//181
f 183//183 184//184 181//181
f 184//184 185//185 181//181
f 185//185 186//186 181//181
f 186//186 187//187 181//181
f 187//187 188//188 181//181
f 188//188 189//189 181//181
f 181//181 189//189 190//190
f 181//181 190//190 191//191
f 192//192 181//181 191//191
f 193//193 181//181 192//192
f 194//194 181//181 193//193
f 195//195 181//181 194//194
f 195//195 196//196 181//181
f 196//196 197//197 198//198
f 196//196 198//198 199//199
f 199//199 200//200 196//196
f 196//196 200//200 201//201
f 201//201 202//202 196//196
f 196//196 202//202 203//203
f 196//196 203//203 204//204
f 205//205 196//196 206//206
f 207//207 196//196 205//205
