v 7.098923 92.95689 90.00002
v 7.098927 92.95689 49.99998
v 7.098923 92.95689 90.00002
v 7.098921 92.95689 90.00002
v 4.563593 95.47229 90.00002
v 3.549461 96.47845 90.00002
v 3.549461 96.47845 90.00002
v 3.549465 96.47844 49.99998
v 3.549467 96.47844 9.999943
v 3.642966 96.70673 90.00002
v 4.391016 98.53302 9.999943
v 3.654586 96.7351 90.00002
v 4.495589 98.78833 9.999943
v 3.657848 96.74306 90.00002
v 4.52495 98.86001 9.999943
v 3.694512 96.83257 90.00002
v 4.854919 99.6656 9.999943
v 4.146541 97.93616 90.00002
v 4.905145 99.78822 9.999943
v 4.575122 98.98251 90.00002
v 4.624426 99.10288 90.00002
v 4.958242 99.91785 9.999943
v 4.727261 99.35394 90.00002
v 4.969668 99.94576 9.999943
v 4.999966 100.0197 90.00002
v 4.99997 100.0197 9.999943
v 4.921327 100.2075 90.00002
v 4.566953 101.0536 9.999943
v 4.292227 101.7095 9.999943
v 4.901814 100.2541 90.00002
v 4.116627 102.1287 9.999943
v 4.896008 100.2679 90.00002
v 4.064368 102.2535 9.999943
v 4.852124 100.3727 90.00002
v 3.669401 103.1965 9.999943
v 4.348643 101.5748 90.00002
v 3.613459 103.33 9.999943
v 3.932689 102.5679 90.00002
v 3.567242 103.4404 9.999943
v 3.521554 103.5495 90.00002
v 3.521559 103.5495 9.999943
v 3.412273 103.5942 90.00002
v 2.538041 103.9523 9.999943
v 3.167425 103.6945 90.00002
v 0.3343993 104.8549 9.999943
v 2.484335 103.9743 90.00002
v 2.211155 104.0862 90.00002
v 0.2281466 104.8984 9.999943
v 1.279658 104.4677 90.00002
v 0.1246489 104.9408 9.999943
v 0.5126705 104.7819 90.00002
v 0.03942559 104.9757 9.999943
v -0.01973359 105 90.00002
v -0.01972785 105 9.999943
v -0.0197292 105 9.999943
v -0.2295163 104.9121 90.00002
v -1.907775 104.2092 9.999943
v -0.2912642 104.8862 90.00002
v -2.463499 103.9764 9.999943
v -0.2975682 104.8836 90.00002
v -2.52023 103.9526 9.999943
v -0.3004908 104.8824 90.00002
v -2.546539 103.9416 9.999943
v -0.3041859 104.8808 90.00002
v -2.579788 103.9277 9.999943
v -0.3727062 104.8521 90.00002
v -3.196484 103.6694 9.999943
v -3.549459 103.5216 90.00002
v -3.549458 103.5216 9.999943
v -3.549463 103.5216 90.00002
v -3.549458 103.5216 9.999943
v -3.549463 103.5216 90.00002
v -3.549463 103.5216 90.00002
v -4.563595 104.5277 90.00002
v -7.098925 107.0431 90.00002
v -7.098925 107.0431 90.00002
v -7.098923 107.0431 90.00002
v -3.549463 103.5216 90.00002
v -3.549463 103.5216 90.00002
v -3.549463 103.5216 90.00002
v -3.549458 103.5216 9.999943
v -3.549458 103.5216 9.999943
v -3.549458 103.5216 9.999943
v -3.549463 103.5216 90.00002
v -0.03946717 109.9999 90.00002
v -3.549463 103.5216 90.00002
v -3.549458 103.5216 9.999943
v -3.549463 103.5216 90.00002
v -3.54946 103.5216 49.99998
v -3.549458 103.5216 9.999943
v -7.098921 107.0431 49.99998
v -3.549458 103.5216 9.999985
v -3.549458 103.5216 9.999943
v -4.563589 104.5277 9.999943
v -0.03946177 109.9999 9.99995
v -3.549458 103.5216 9.999943
v -0.03946717 109.9999 90.00002
v -7.098919 107.0431 9.999943
v -0.03946177 109.9999 9.99995
v -0.0197292 105 9.999943
v -0.01972785 105 9.999943
v 7.098927 92.95689 49.99998
v 7.098923 92.95689 90.00002
v 7.098921 92.95689 90.00002
v 4.563593 95.47229 90.00002
v 3.549465 96.47844 49.99998
v 3.549461 96.47845 90.00002
v 5.019703 95.01977 9.999943
v 7.098928 92.95689 9.999943
v 3.549467 96.47844 9.999943
v 7.098923 92.95689 90.00002
v 9.999928 100.0395 90.00002
v 7.043109 107.0989 90.00002
v 4.999966 100.0197 90.00002
v 4.727261 99.35394 90.00002
v 4.624426 99.10288 90.00002
v 4.575122 98.98251 90.00002
v 4.146541 97.93616 90.00002
v 3.694512 96.83257 90.00002
v 3.657848 96.74306 90.00002
v 3.654586 96.7351 90.00002
v 3.642966 96.70673 90.00002
v 3.549461 96.47845 90.00002
v 4.921327 100.2075 90.00002
v 4.901814 100.2541 90.00002
v 4.896008 100.2679 90.00002
v 4.852124 100.3727 90.00002
v 4.348643 101.5748 90.00002
v 3.932689 102.5679 90.00002
v 3.521554 103.5495 90.00002
v 3.412273 103.5942 90.00002
v 3.167425 103.6945 90.00002
v 2.484335 103.9743 90.00002
v -0.03946717 109.9999 90.00002
v 2.211155 104.0862 90.00002
v 1.279658 104.4677 90.00002
v 0.5126705 104.7819 90.00002
v -0.01973359 105 90.00002
v -0.2295163 104.9121 90.00002
v -0.2912642 104.8862 90.00002
v -0.2975682 104.8836 90.00002
v -0.3004908 104.8824 90.00002
v -0.3041859 104.8808 90.00002
v -0.3727062 104.8521 90.00002
v -3.549459 103.5216 90.00002
v -3.549463 103.5216 90.00002
v -3.549463 103.5216 90.00002
v -7.098925 107.0431 90.00002
v 7.098923 92.95689 90.00002
v 9.999934 100.0395 9.99995
v 9.999928 100.0395 90.00002
v 7.098927 92.95689 49.99998
v 7.043114 107.0989 9.99995
v 7.043109 107.0989 90.00002
v -0.03946177 109.9999 9.99995
v -0.03946717 109.9999 90.00002
v 7.098928 92.95689 9.999943
v -7.098923 107.0431 90.00002
v -3.54946 103.5216 49.99998
v -3.549463 103.5216 90.00002
v -7.098921 107.0431 49.99998
v -3.549458 103.5216 9.999985
v -7.098919 107.0431 9.999943
v -4.563589 104.5277 9.999943
v -3.549458 103.5216 9.999943
v 3.549467 96.47844 9.999943
v 9.999934 100.0395 9.99995
v 5.019703 95.01977 9.999943
v 9.999934 100.0395 9.99995
v 7.098928 92.95689 9.999943
v 3.549467 96.47844 9.999943
v 4.391016 98.53302 9.999943
v 3.549467 96.47844 9.999943
v 4.495589 98.78833 9.999943
v 4.52495 98.86001 9.999943
v 4.854919 99.6656 9.999943
v 4.905145 99.78822 9.999943
v 4.958242 99.91785 9.999943
v 4.969668 99.94576 9.999943
v 4.99997 100.0197 9.999943
v 7.043114 107.0989 9.99995
v 4.566953 101.0536 9.999943
v 4.292227 101.7095 9.999943
v 4.116627 102.1287 9.999943
v 4.064368 102.2535 9.999943
v 3.669401 103.1965 9.999943
v 3.613459 103.33 9.999943
v 3.567242 103.4404 9.999943
v 3.521559 103.5495 9.999943
v 2.538041 103.9523 9.999943
v 0.3343993 104.8549 9.999943
v 0.2281466 104.8984 9.999943
v 0.1246489 104.9408 9.999943
v 0.03942559 104.9757 9.999943
v -0.01972785 105 9.999943
v -0.03946177 109.9999 9.99995
v -0.0197292 105 9.999943
v -1.907775 104.2092 9.999943
v -2.463499 103.9764 9.999943
v -2.52023 103.9526 9.999943
v -2.546539 103.9416 9.999943
v -2.579788 103.9277 9.999943
v -3.196484 103.6694 9.999943
v -3.549458 103.5216 9.999943
v -4.563589 104.5277 9.999943
v -3.549458 103.5216 9.999943
v -7.098919 107.0431 9.999943

vn 0.709892 -0.7043105 5.340572E-07
vn 0.709892 -0.7043105 3.814694E-07
vn 0.5389902 -0.5347524 0.6507913
vn 0 0 1
vn 0 0 1
vn -0.9253845 0.3790296 -6.462383E-08
vn -0.7027574 0.6972319 0.141421
vn -0.8528427 -0.5221678 -1.883212E-07
vn -0.9253827 0.3790339 -3.424387E-07
vn -0.9253826 0.3790347 -3.013172E-07
vn -0.9253826 0.3790344 -3.400592E-07
vn -0.925383 0.3790334 -4.236429E-07
vn -0.9253833 0.3790324 -4.821552E-07
vn -0.9253812 0.3790378 1.095606E-07
vn -0.9253823 0.3790353 -1.780023E-07
vn -0.9253824 0.3790348 -2.260704E-07
vn -0.9253825 0.3790349 -2.089216E-07
vn -0.9253824 0.379035 -2.077588E-07
vn -0.9253824 0.3790347 -2.217208E-07
vn -0.9253824 0.379035 -2.409156E-07
vn -0.9253828 0.379034 -2.351288E-07
vn -0.9253833 0.3790325 -2.778156E-07
vn -0.9253825 0.3790345 -1.673258E-07
vn -0.9253823 0.3790353 -1.811419E-07
vn -0.9719663 0.2351205 -1.839746E-07
vn -0.9373908 -0.3482792 -2.087927E-07
vn -0.9223612 -0.3863288 -2.638545E-07
vn -0.9223614 -0.386328 -2.243663E-07
vn -0.9223616 -0.3863277 -2.046673E-07
vn -0.9223625 -0.3863258 -5.134434E-08
vn -0.9223629 -0.3863246 3.311141E-08
vn -0.9223635 -0.386323 2.493531E-07
vn -0.9223625 -0.3863256 -1.725448E-08
vn -0.922362 -0.3863267 -1.95488E-07
vn -0.9223619 -0.3863273 -2.545912E-07
vn -0.9223617 -0.3863273 -3.133276E-07
vn -0.9223621 -0.3863263 -2.147517E-07
vn -0.922362 -0.3863269 -2.354086E-07
vn -0.9223615 -0.386328 -2.762392E-07
vn -0.8949342 -0.4461982 -2.850269E-07
vn -0.4392631 -0.8983586 -1.199789E-07
vn -0.3790356 -0.9253821 -7.869002E-08
vn -0.3790346 -0.9253825 -1.061353E-07
vn -0.379034 -0.9253828 -1.468234E-07
vn -0.379034 -0.9253827 -1.18347E-07
vn -0.3790344 -0.9253826 -1.005928E-07
vn -0.3790349 -0.9253824 2.558145E-08
vn -0.3790345 -0.9253826 -4.388408E-08
vn -0.3790348 -0.9253825 -2.142637E-08
vn -0.3790345 -0.9253825 -1.39089E-08
vn -0.3790345 -0.9253826 -6.971242E-09
vn -0.3790349 -0.9253823 1.713521E-09
vn -0.1892409 -0.9819307 6.568339E-08
vn -0.3790565 -0.9253736 3.749556E-09
vn 0.3863263 -0.9223622 1.50355E-07
vn 0.3863274 -0.9223616 1.053244E-07
vn 0.3863279 -0.9223616 6.84602E-08
vn 0.386329 -0.922361 -3.948485E-08
vn 0.3863271 -0.9223619 1.617077E-07
vn 0.3863256 -0.9223626 4.500968E-07
vn 0.3863231 -0.9223635 7.290805E-07
vn 0.3862813 -0.922381 6.344963E-06
vn 0.3863075 -0.9223701 2.762223E-06
vn 0.3863338 -0.922359 -5.911333E-07
vn 0.38633 -0.9223607 -2.018595E-07
vn 0.3863274 -0.9223617 1.357495E-07
vn 0.3863268 -0.922362 1.613505E-07
vn 0.3863266 -0.9223621 1.611312E-07
vn 0.3863219 -0.9223641 9.115076E-08
vn 0.2263569 -0.9740445 9.305477E-08
vn 0.709892 -0.7043105 1.907347E-07
vn 0.709892 -0.7043105 1.907347E-07
vn 0.709892 -0.7043105 1.907347E-07
vn 0 0 1
vn -0.3863271 0.9223619 -2.936142E-07
vn 0 0 1
vn -0.7905953 -0.6123391 -1.677742E-07
vn 0.4610492 -0.4574242 0.7603924
vn 0.3999165 -0.3967722 0.8262195
vn 0.708098 -0.7025306 0.0710492
vn 0.709892 -0.7043105 1.90735E-07
vn 0.709892 -0.7043105 1.907347E-07
vn 0.709892 -0.7043105 1.907343E-07
vn 0.7061161 -0.7005643 0.1030029
vn 0 0 1
vn 0.7098311 -0.7042581 0.01266336
vn 0.709892 -0.7043105 1.907357E-07
vn 0.7027572 -0.6972318 0.1414215
vn 0.7098967 -0.7043058 1.907357E-07
vn 0.7086157 -0.7030354 -0.06004161
vn -0.3863271 0.9223618 -2.232892E-07
vn 0.7099087 -0.7042937 1.907375E-07
vn 4.928607E-06 -4.889856E-06 -1
vn 0 0 -1
vn 3.039688E-07 3.063777E-07 -1
vn 0 0 0
vn -0.3863271 0.9223619 -2.130985E-07
vn -0.3863271 0.9223619 -1.778031E-07
vn -0.3863271 0.922362 -2.029077E-07
vn 3.039688E-07 3.063777E-07 -1
vn 3.039688E-07 3.063777E-07 -1
vn -0.7043105 -0.709892 -1.192093E-07
vn -0.7043105 -0.709892 -1.192092E-07
vn -0.7043105 -0.709892 -1.192093E-07
vn -0.7043105 -0.709892 -1.192093E-07
vn -0.7043105 -0.709892 -1.192093E-07
vn -0.7043105 -0.709892 -1.192092E-07
vn -0.7043105 -0.709892 -1.192093E-07
vn -0.7043105 -0.709892 -1.192093E-07
vn -0.7043105 -0.709892 -1.192093E-07
vn 0 0 1
vn 0 0 1
vn 0 0 1
vn 0 0 1
vn 0 0 1
vn 0 0 1
vn 0 0 1
vn 0 0 1
vn 0 0 1
vn 0 0 1
vn 0 0 1
vn 0 0 1
vn 0 0 1
vn 0 0 0.9999999
vn 0 0 1
vn 0 0 1
vn 0 0 0.9999999
vn 0 0 1
vn 0 0 1
vn 0 0 1
vn 0 0 0.9999999
vn 0 0 1
vn 0 0 1
vn 0 0 1
vn 0 0 1
vn 0 0 1
vn 0 0 1
vn 0 0 1
vn 0 0 1
vn 0 0 1
vn 0 0 1
vn 0 0 0.9999999
vn 0 0 1
vn 0 0 0.9999999
vn 0 0 0.9999999
vn 0 0 1
vn 0 0 0.9999999
vn 0 0 0.9999999
vn 0.9253827 -0.3790344 3.42789E-07
vn 0.9911345 -0.132863 3.092419E-07
vn 0.9900548 0.1406823 2.619401E-07
vn 0.9253826 -0.3790343 3.23738E-07
vn 0.7947862 0.6068897 1.531119E-07
vn 0.6005972 0.7995518 7.358348E-08
vn 0.3790343 0.9253826 7.245398E-09
vn 0.3790344 0.9253826 0
vn 0.9253826 -0.3790344 2.570785E-07
vn -0.7043105 -0.709892 -1.192093E-07
vn -0.7043105 -0.709892 -1.192093E-07
vn -0.7043105 -0.709892 -1.192093E-07
vn -0.7043105 -0.709892 -1.192093E-07
vn -0.7043105 -0.709892 -1.192093E-07
vn -0.7043105 -0.709892 -1.192093E-07
vn -0.7043105 -0.709892 -1.283792E-07
vn -0.7043105 -0.709892 -1.283792E-07
vn -0.6951401 0.6896746 -0.2028032
vn 5.230192E-07 -5.18907E-07 -1
vn 1.519844E-07 1.531888E-07 -0.9999999
vn 2.437979E-07 8.727957E-08 -1
vn 1.519844E-07 1.531888E-07 -1
vn 1.519844E-07 1.531888E-07 -1
vn 3.056721E-07 -1.252024E-07 -1
vn 3.056721E-07 -1.252026E-07 -1
vn 3.056719E-07 -1.252019E-07 -1
vn 3.056721E-07 -1.252027E-07 -1
vn 3.056721E-07 -1.252028E-07 -1
vn 3.056721E-07 -1.252022E-07 -0.9999999
vn 3.05672E-07 -1.251999E-07 -1
vn 3.056721E-07 -1.252052E-07 -0.9999999
vn 3.046833E-07 1.253289E-07 -1
vn 2.149385E-07 2.166418E-07 -1
vn 3.046738E-07 1.276116E-07 -1
vn 3.046743E-07 1.276113E-07 -1
vn 3.04675E-07 1.27611E-07 -1
vn 3.046746E-07 1.276112E-07 -1
vn 3.046745E-07 1.276113E-07 -1
vn 3.046744E-07 1.276113E-07 -1
vn 3.04674E-07 1.276118E-07 -1
vn 1.431709E-07 2.87845E-07 -1
vn 1.252026E-07 3.056722E-07 -1
vn 1.252024E-07 3.056724E-07 -1
vn 1.252027E-07 3.056716E-07 -1
vn 1.252021E-07 3.056734E-07 -1
vn 1.252024E-07 3.056724E-07 -1
vn 1.252025E-07 3.056721E-07 -1
vn 8.535245E-08 2.444793E-07 -1
vn -1.276115E-07 3.046744E-07 -1
vn -1.276117E-07 3.046745E-07 -1
vn -1.276121E-07 3.046746E-07 -1
vn -1.276053E-07 3.046719E-07 -1
vn -1.276128E-07 3.04675E-07 -1
vn -1.276123E-07 3.046747E-07 -1
vn -1.276109E-07 3.046741E-07 -1
vn -1.276098E-07 3.046735E-07 -0.9999999
vn 1.519844E-07 1.531888E-07 -1
vn 1.519844E-07 1.531889E-07 -1
vn 1.519844E-07 1.531888E-07 -0.9999999

f 1//1 2//2 3//3
f 4//4 1//1 3//3
f 3//3 5//5 4//4
f 3//3 6//6 5//5
f 5//5 6//6 7//7
f 8//8 7//7 6//6
f 9//9 8//8 6//6
f 10//10 9//9 6//6
f 9//9 10//10 11//11
f 11//11 10//10 12//12
f 13//13 11//11 12//12
f 13//13 12//12 14//14
f 13//13 14//14 15//15
f 15//15 14//14 16//16
f 15//15 16//16 17//17
f 18//18 17//17 16//16
f 19//19 17//17 18//18
f 19//19 18//18 20//20
f 21//21 19//19 20//20
f 22//22 19//19 21//21
f 22//22 21//21 23//23
f 24//24 22//22 23//23
f 24//24 23//23 25//25
f 26//26 24//24 25//25
f 26//26 25//25 27//27
f 28//28 26//26 27//27
f 28//28 27//27 29//29
f 29//29 27//27 30//30
f 31//31 29//29 30//30
f 31//31 30//30 32//32
f 33//33 31//31 32//32
f 33//33 32//32 34//34
f 35//35 33//33 34//34
f 35//35 34//34 36//36
f 37//37 35//35 36//36
f 37//37 36//36 38//38
f 39//39 37//37 38//38
f 39//39 38//38 40//40
f 41//41 39//39 40//40
f 41//41 40//40 42//42
f 41//41 42//42 43//43
f 43//43 42//42 44//44
f 45//45 43//43 44//44
f 45//45 44//44 46//46
f 47//47 45//45 46//46
f 48//48 45//45 47//47
f 48//48 47//47 49//49
f 50//50 48//48 49//49
f 50//50 49//49 51//51
f 52//52 50//50 51//51
f 52//52 51//51 53//53
f 54//54 52//52 53//53
f 55//55 54//54 53//53
f 55//55 53//53 56//56
f 55//55 56//56 57//57
f 57//57 56//56 58//58
f 57//57 58//58 59//59
f 59//59 58//58 60//60
f 59//59 60//60 61//61
f 61//61 60//60 62//62
f 61//61 62//62 63//63
f 63//63 62//62 64//64
f 63//63 64//64 65//65
f 65//65 64//64 66//66
f 65//65 66//66 67//67
f 68//68 67//67 66//66
f 69//69 67//67 68//68
f 69//69 68//68 70//70
f 71//71 69//69 70//70
f 72//72 71//71 73//73
f 74//74 75//75 76//76
f 77//77 74//74 76//76
f 75//75 77//77 76//76
f 78//78 75//75 74//74
f 79//79 75//75 78//78
f 78//78 74//74 80//80
f 81//81 78//78 80//80
f 82//82 78//78 81//81
f 82//82 83//83 78//78
f 83//83 84//84 79//79
f 84//84 85//85 79//79
f 80//80 74//74 86//86
f 87//87 80//80 86//86
f 81//81 80//80 87//87
f 86//86 74//74 88//88
f 88//88 74//74 77//77
f 86//86 88//88 89//89
f 90//90 86//86 89//89
f 87//87 86//86 90//90
f 75//75 91//91 77//77
f 90//90 89//89 92//92
f 90//90 92//92 93//93
f 94//94 90//90 93//93
f 95//95 83//83 82//82
f 95//95 82//82 81//81
f 95//95 81//81 87//87
f 95//95 87//87 90//90
f 95//95 96//96 83//83
f 97//97 91//91 75//75
f 97//97 98//98 91//91
f 97//97 99//99 98//98
f 100//100 95//95 101//101
f 102//102 103//103 104//104
f 102//102 104//104 105//105
f 102//102 105//105 106//106
f 106//106 105//105 107//107
f 108//108 102//102 106//106
f 109//109 102//102 108//108
f 110//110 108//108 106//106
f 111//111 112//112 113//113
f 111//111 113//113 114//114
f 111//111 114//114 115//115
f 111//111 115//115 116//116
f 111//111 116//116 117//117
f 117//117 118//118 111//111
f 118//118 119//119 111//111
f 120//120 111//111 119//119
f 120//120 121//121 111//111
f 121//121 122//122 111//111
f 111//111 122//122 123//123
f 114//114 113//113 124//124
f 124//124 113//113 125//125
f 125//125 113//113 126//126
f 126//126 113//113 127//127
f 127//127 113//113 128//128
f 128//128 113//113 129//129
f 129//129 113//113 130//130
f 130//130 113//113 131//131
f 131//131 113//113 132//132
f 132//132 113//113 133//133
f 133//133 113//113 134//134
f 133//133 134//134 135//135
f 135//135 134//134 136//136
f 134//134 137//137 136//136
f 137//137 134//134 138//138
f 138//138 134//134 139//139
f 139//139 134//134 140//140
f 140//140 134//134 141//141
f 134//134 142//142 141//141
f 134//134 143//143 142//142
f 134//134 144//144 143//143
f 144//144 134//134 145//145
f 145//145 134//134 146//146
f 147//147 134//134 148//148
f 149//149 150//150 151//151
f 149//149 152//152 150//150
f 151//151 150//150 153//153
f 151//151 153//153 154//154
f 154//154 153//153 155//155
f 154//154 155//155 156//156
f 152//152 157//157 150//150
f 158//158 159//159 160//160
f 161//161 159//159 158//158
f 162//162 159//159 161//161
f 163//163 162//162 161//161
f 164//164 162//162 163//163
f 165//165 162//162 164//164
f 9//9 166//166 8//8
f 166//166 9//9 167//167
f 168//168 169//169 170//170
f 168//168 171//171 169//169
f 172//172 169//169 173//173
f 174//174 169//169 172//172
f 169//169 174//174 175//175
f 176//176 169//169 175//175
f 177//177 169//169 176//176
f 178//178 169//169 177//177
f 178//178 179//179 169//169
f 179//179 180//180 169//169
f 180//180 181//181 169//169
f 182//182 181//181 180//180
f 182//182 183//183 181//181
f 183//183 184//184 181//181
f 184//184 185//185 181//181
f 185//185 186//186 181//181
f 186//186 187//187 181//181
f 187//187 188//188 181//181
f 188//188 189//189 181//181
f 181//181 189//189 190//190
f 181//181 190//190 191//191
f 192//192 181//181 191//191
f 193//193 181//181 192//192
f 194//194 181//181 193//193
f 195//195 181//181 194//194
f 195//195 196//196 181//181
f 196//196 197//197 198//198
f 196//196 198//198 199//199
f 199//199 200//200 196//196
f 196//196 200//200 201//201
f 201//201 202//202 196//196
f 196//196 202//202 203//203
f 196//196 203//203 204//204
f 205//205 196//196 206//206
f 207//207 196//196 205//205
