v 12.21592 59.9999 62.27896
v 24.96849 59.99991 75.03152
v 12.21592 59.9999 62.27896
v 12.21592 59.9999 62.27896
v 12.22718 56.42851 62.2677
v 12.23168 54.99995 62.2632
v 12.23168 54.99995 62.2632
v 24.98425 54.99995 75.01576
v 37.73681 54.99996 87.76833
v 12.39314 54.90656 62.10175
v 39.18992 54.15946 86.31522
v 12.4132 54.89496 62.08168
v 39.37049 54.05502 86.13465
v 12.41883 54.8917 62.07605
v 39.42118 54.02569 86.08395
v 12.48214 54.85508 62.01274
v 39.99095 53.69613 85.51419
v 13.26266 54.40362 61.23222
v 40.07767 53.64597 85.42747
v 14.00269 53.97557 60.49219
v 14.08783 53.92633 60.40705
v 40.16936 53.59294 85.33578
v 14.26539 53.82362 60.22949
v 40.18909 53.58153 85.31606
v 14.73627 53.55126 59.75861
v 40.24141 53.55127 85.26373
v 14.79195 53.36355 59.70293
v 40.54797 52.51765 84.95718
v 40.74246 51.86188 84.76268
v 14.80576 53.31698 59.68913
v 40.86678 51.44272 84.63836
v 14.80987 53.30312 59.68501
v 40.90378 51.31798 84.60136
v 14.84094 53.19836 59.65394
v 41.18341 50.37519 84.32173
v 15.19739 51.99655 59.2975
v 41.22301 50.24165 84.28213
v 15.49187 51.00367 59.00301
v 41.25573 50.13133 84.2494
v 15.78294 50.02229 58.71194
v 41.28807 50.02229 84.21707
v 15.75133 49.91298 58.74355
v 41.00357 49.03857 84.50157
v 15.6805 49.66808 58.81438
v 40.36613 46.83447 85.13901
v 15.48291 48.98485 59.01198
v 15.40388 48.71161 59.091
v 40.3354 46.72819 85.16975
v 15.13443 47.77992 59.36045
v 40.30546 46.62467 85.19968
v 14.91257 47.01278 59.58231
v 40.2808 46.53943 85.22433
v 14.75856 46.48026 59.73632
v 40.26369 46.48026 85.24145
v 40.26369 46.48026 85.24145
v 14.61025 46.39228 59.88463
v 38.92893 45.6885 86.57621
v 14.5666 46.36639 59.92828
v 38.53606 45.45546 86.96909
v 14.56214 46.36375 59.93274
v 38.49595 45.43166 87.00919
v 14.56008 46.36252 59.93481
v 38.47735 45.42063 87.02779
v 14.55747 46.36097 59.93742
v 38.45385 45.40669 87.0513
v 14.50902 46.33224 59.98586
v 38.01787 45.14808 87.48727
v 12.2632 45.00005 62.23168
v 37.76833 45.00005 87.73681
v 12.2632 45.00005 62.23168
v 37.76833 45.00005 87.73681
v 12.2632 45.00005 62.23168
v 12.2632 45.00005 62.23168
v 12.2677 43.57149 62.22718
v 12.27896 40.0001 62.21592
v 12.27896 40.0001 62.21592
v 12.27896 40.0001 62.21592
v 12.2632 45.00005 62.23168
v 12.2632 45.00005 62.23168
v 12.2632 45.00005 62.23168
v 37.76833 45.00005 87.73681
v 37.76833 45.00005 87.73681
v 37.76833 45.00005 87.73681
v 12.2632 45.00005 62.23168
v 17.26968 42.96052 57.2252
v 12.2632 45.00005 62.23168
v 37.76833 45.00005 87.73681
v 12.2632 45.00005 62.23168
v 25.01577 45.00005 74.98425
v 37.76833 45.00005 87.73681
v 25.03153 40.0001 74.96849
v 37.76832 45.00005 87.7368
v 37.76833 45.00005 87.73681
v 37.77283 43.5715 87.73231
v 42.77481 42.96052 82.73032
v 37.76833 45.00005 87.73681
v 17.26968 42.96052 57.2252
v 37.78409 40.0001 87.72105
v 42.77481 42.96052 82.73032
v 40.26369 46.48026 85.24145
v 40.26369 46.48026 85.24145
v 24.96849 59.99991 75.03152
v 12.21592 59.9999 62.27896
v 12.21592 59.9999 62.27896
v 12.22718 56.42851 62.2677
v 24.98425 54.99995 75.01576
v 12.23168 54.99995 62.2632
v 37.73029 57.07101 87.77486
v 37.72105 59.99991 87.78409
v 37.73681 54.99996 87.76833
v 12.21592 59.9999 62.27896
v 17.22511 57.10252 57.26978
v 19.31844 50.04457 55.17644
v 14.73627 53.55126 59.75861
v 14.26539 53.82362 60.22949
v 14.08783 53.92633 60.40705
v 14.00269 53.97557 60.49219
v 13.26266 54.40362 61.23222
v 12.48214 54.85508 62.01274
v 12.41883 54.8917 62.07605
v 12.4132 54.89496 62.08168
v 12.39314 54.90656 62.10175
v 12.23168 54.99995 62.2632
v 14.79195 53.36355 59.70293
v 14.80576 53.31698 59.68913
v 14.80987 53.30312 59.68501
v 14.84094 53.19836 59.65394
v 15.19739 51.99655 59.2975
v 15.49187 51.00367 59.00301
v 15.78294 50.02229 58.71194
v 15.75133 49.91298 58.74355
v 15.6805 49.66808 58.81438
v 15.48291 48.98485 59.01198
v 17.26968 42.96052 57.2252
v 15.40388 48.71161 59.091
v 15.13443 47.77992 59.36045
v 14.91257 47.01278 59.58231
v 14.75856 46.48026 59.73632
v 14.61025 46.39228 59.88463
v 14.5666 46.36639 59.92828
v 14.56214 46.36375 59.93274
v 14.56008 46.36252 59.93481
v 14.55747 46.36097 59.93742
v 14.50902 46.33224 59.98586
v 12.2632 45.00005 62.23168
v 12.2632 45.00005 62.23168
v 12.2632 45.00005 62.23168
v 12.27896 40.0001 62.21592
v 12.21592 59.9999 62.27896
v 42.73024 57.10252 82.7749
v 17.22511 57.10252 57.26978
v 24.96849 59.99991 75.03152
v 44.82357 50.04458 80.68156
v 19.31844 50.04457 55.17644
v 42.77481 42.96052 82.73032
v 17.26968 42.96052 57.2252
v 37.72105 59.99991 87.78409
v 12.27896 40.0001 62.21592
v 25.01577 45.00005 74.98425
v 12.2632 45.00005 62.23168
v 25.03153 40.0001 74.96849
v 37.76832 45.00005 87.7368
v 37.78409 40.0001 87.72105
v 37.77283 43.5715 87.73231
v 37.76833 45.00005 87.73681
v 37.73681 54.99996 87.76833
v 42.73024 57.10252 82.7749
v 37.73029 57.07101 87.77486
v 42.73024 57.10252 82.7749
v 37.72105 59.99991 87.78409
v 37.73681 54.99996 87.76833
v 39.18992 54.15946 86.31522
v 37.73681 54.99996 87.76833
v 39.37049 54.05502 86.13465
v 39.42118 54.02569 86.08395
v 39.99095 53.69613 85.51419
v 40.07767 53.64597 85.42747
v 40.16936 53.59294 85.33578
v 40.18909 53.58153 85.31606
v 40.24141 53.55127 85.26373
v 44.82357 50.04458 80.68156
v 40.54797 52.51765 84.95718
v 40.74246 51.86188 84.76268
v 40.86678 51.44272 84.63836
v 40.90378 51.31798 84.60136
v 41.18341 50.37519 84.32173
v 41.22301 50.24165 84.28213
v 41.25573 50.13133 84.2494
v 41.28807 50.02229 84.21707
v 41.00357 49.03857 84.50157
v 40.36613 46.83447 85.13901
v 40.3354 46.72819 85.16975
v 40.30546 46.62467 85.19968
v 40.2808 46.53943 85.22433
v 40.26369 46.48026 85.24145
v 42.77481 42.96052 82.73032
v 40.26369 46.48026 85.24145
v 38.92893 45.6885 86.57621
v 38.53606 45.45546 86.96909
v 38.49595 45.43166 87.00919
v 38.47735 45.42063 87.02779
v 38.45385 45.40669 87.0513
v 38.01787 45.14808 87.48727
v 37.76833 45.00005 87.73681
v 37.77283 43.5715 87.73231
v 37.76833 45.00005 87.73681
v 37.78409 40.0001 87.72105

vn -0.003152286 0.99999 0.003151486
vn -0.003152178 0.99999 0.003151594
vn -0.4625721 0.759249 -0.4577858
vn -0.7071067 0 -0.7071066
vn -0.7071067 0 -0.7071066
vn -0.2676865 -0.9255742 0.2676867
vn -0.09687948 -0.9899397 -0.1031199
vn -0.6860913 -0.2419852 0.6860915
vn -0.2676833 -0.9255759 0.2676838
vn -0.2676828 -0.9255763 0.2676833
vn -0.267683 -0.9255762 0.2676835
vn -0.2676836 -0.9255758 0.2676842
vn -0.2676842 -0.9255753 0.267685
vn -0.2676809 -0.9255776 0.2676808
vn -0.2676825 -0.9255765 0.2676828
vn -0.2676828 -0.9255763 0.2676831
vn -0.2676827 -0.9255764 0.2676831
vn -0.2676826 -0.9255764 0.267683
vn -0.2676828 -0.9255763 0.2676832
vn -0.2676826 -0.9255764 0.267683
vn -0.2676834 -0.925576 0.2676837
vn -0.2676844 -0.9255753 0.2676848
vn -0.267683 -0.9255762 0.2676833
vn -0.2676824 -0.9255766 0.2676827
vn -0.3633375 -0.8578878 0.3633378
vn -0.6403367 -0.4241901 0.640337
vn -0.6520692 -0.3867956 0.6520696
vn -0.652069 -0.3867963 0.6520693
vn -0.6520689 -0.3867967 0.6520692
vn -0.6520686 -0.3867986 0.6520686
vn -0.6520682 -0.3867998 0.6520681
vn -0.6520678 -0.3868013 0.6520675
vn -0.6520685 -0.3867987 0.6520685
vn -0.6520686 -0.3867976 0.6520689
vn -0.6520688 -0.3867971 0.6520692
vn -0.6520687 -0.386797 0.6520692
vn -0.6520684 -0.3867981 0.6520688
vn -0.6520687 -0.3867975 0.652069
vn -0.652069 -0.3867964 0.6520694
vn -0.6686567 -0.3252627 0.6686571
vn -0.6707162 0.3166693 0.6707164
vn -0.6544815 0.3785602 0.6544816
vn -0.6544812 0.3785612 0.6544814
vn -0.6544811 0.3785618 0.6544812
vn -0.6544811 0.3785618 0.6544812
vn -0.6544811 0.3785614 0.6544812
vn -0.6544814 0.3785609 0.6544813
vn -0.6544812 0.3785613 0.6544813
vn -0.6544814 0.378561 0.6544814
vn -0.6544812 0.3785613 0.6544812
vn -0.6544813 0.3785613 0.6544813
vn -0.6544814 0.3785608 0.6544814
vn -0.5888961 0.5535369 0.588896
vn -0.6544876 0.3785393 0.6544876
vn -0.2735078 0.9221644 0.2735075
vn -0.2735069 0.9221648 0.2735067
vn -0.2735066 0.9221651 0.2735065
vn -0.2735057 0.9221655 0.2735057
vn -0.2735072 0.9221647 0.2735069
vn -0.2735085 0.9221642 0.2735078
vn -0.2735105 0.922163 0.2735094
vn -0.2735439 0.9221455 0.2735349
vn -0.2735229 0.9221566 0.2735189
vn -0.2735019 0.9221676 0.2735027
vn -0.2735049 0.922166 0.2735052
vn -0.273507 0.9221648 0.2735068
vn -0.2735074 0.9221646 0.2735071
vn -0.2735076 0.9221645 0.2735073
vn -0.2735108 0.9221626 0.2735107
vn -0.3788748 0.8443388 0.3788746
vn -0.003152043 0.99999 0.003151729
vn -0.003152043 0.99999 0.003151729
vn -0.003152043 0.99999 0.003151729
vn -0.7071067 0 -0.7071066
vn 0.2735073 -0.9221647 -0.2735068
vn -0.7071067 0 -0.7071066
vn -0.7006932 -0.1343786 0.7006935
vn -0.5397257 0.6494573 -0.5356315
vn -0.586001 0.5633428 -0.5824497
vn -0.05338331 0.9974629 -0.04709546
vn -0.003152043 0.99999 0.003151729
vn -0.003152043 0.99999 0.003151729
vn -0.003152043 0.99999 0.003151729
vn -0.07596916 0.9946712 -0.06969891
vn -0.7071067 0 -0.7071066
vn -0.01211007 0.9999098 -0.005798674
vn -0.003152043 0.99999 0.003151729
vn -0.1031203 0.9899396 -0.09687991
vn -0.003147356 0.99999 0.003147041
vn 0.03931404 0.998186 0.04559756
vn 0.2735072 -0.9221647 -0.2735069
vn -0.003135323 0.9999902 0.003135008
vn 0.7071067 6.942686E-06 0.7071066
vn 0.7071067 0 0.7071066
vn 0.7071071 1.923689E-09 0.7071064
vn 0 0 0
vn 0.2735073 -0.9221647 -0.2735069
vn 0.2735072 -0.9221647 -0.2735069
vn 0.2735073 -0.9221648 -0.2735069
vn 0.7071071 1.923689E-09 0.7071064
vn 0.7071071 1.923689E-09 0.7071064
vn -0.7070997 -0.00445728 0.7070998
vn -0.7070996 -0.00445728 0.7070998
vn -0.7070997 -0.00445728 0.7070998
vn -0.7070997 -0.00445728 0.7070998
vn -0.7070997 -0.00445728 0.7070998
vn -0.7070997 -0.00445728 0.7070998
vn -0.7070997 -0.00445728 0.7070998
vn -0.7070997 -0.00445728 0.7070998
vn -0.7070997 -0.00445728 0.7070998
vn -0.7071067 0 -0.7071066
vn -0.7071067 0 -0.7071066
vn -0.7071067 0 -0.7071066
vn -0.7071067 0 -0.7071066
vn -0.7071067 0 -0.7071066
vn -0.7071067 0 -0.7071066
vn -0.7071067 0 -0.7071066
vn -0.7071067 0 -0.7071066
vn -0.7071067 0 -0.7071066
vn -0.7071067 0 -0.7071066
vn -0.7071067 0 -0.7071066
vn -0.7071067 0 -0.7071066
vn -0.7071067 0 -0.7071066
vn -0.7071067 0 -0.7071066
vn -0.7071067 0 -0.7071066
vn -0.7071067 0 -0.7071066
vn -0.7071067 0 -0.7071066
vn -0.7071067 0 -0.7071066
vn -0.7071067 0 -0.7071066
vn -0.7071067 0 -0.7071066
vn -0.7071067 0 -0.7071066
vn -0.7071067 0 -0.7071066
vn -0.7071067 0 -0.7071066
vn -0.7071067 0 -0.7071066
vn -0.7071067 0 -0.7071066
vn -0.7071067 0 -0.7071066
vn -0.7071067 0 -0.7071066
vn -0.7071067 0 -0.7071066
vn -0.7071067 0 -0.7071066
vn -0.7071067 0 -0.7071066
vn -0.7071067 0 -0.7071066
vn -0.7071067 0 -0.7071066
vn -0.7071067 0 -0.7071066
vn -0.7071067 0 -0.7071066
vn -0.7071067 0 -0.7071066
vn -0.7071067 0 -0.7071066
vn -0.7071067 0 -0.7071066
vn -0.7071067 0 -0.7071066
vn 0.267683 0.9255762 -0.2676835
vn 0.4243972 0.7998583 -0.4243977
vn 0.5617793 0.6072952 -0.5617796
vn 0.267683 0.925576 -0.2676835
vn 0.7000235 0.1411876 -0.7000237
vn 0.7008857 -0.1323568 -0.7008858
vn 0.6544812 -0.3785614 -0.6544812
vn 0.6544812 -0.3785614 -0.6544812
vn 0.267683 0.9255762 -0.2676834
vn -0.7070997 -0.00445728 0.7070998
vn -0.7070997 -0.00445728 0.7070998
vn -0.7070997 -0.00445728 0.7070998
vn -0.7070997 -0.00445728 0.7070998
vn -0.7070997 -0.00445728 0.7070998
vn -0.7070997 -0.00445728 0.7070998
vn -0.7070997 -0.00445728 0.7070999
vn -0.7070996 -0.00445728 0.7070998
vn 0.1464899 -0.9792097 0.1403171
vn 0.7071067 7.367515E-07 0.7071066
vn 0.7071068 9.618442E-10 0.7071065
vn 0.7071069 1.126387E-07 0.7071065
vn 0.7071069 9.618442E-10 0.7071065
vn 0.7071069 9.618442E-10 0.7071065
vn 0.7071068 3.057359E-07 0.7071066
vn 0.7071068 3.057361E-07 0.7071066
vn 0.7071068 3.057355E-07 0.7071066
vn 0.7071068 3.057362E-07 0.7071066
vn 0.7071068 3.057363E-07 0.7071066
vn 0.7071068 3.057358E-07 0.7071065
vn 0.7071068 3.057341E-07 0.7071066
vn 0.7071068 3.05738E-07 0.7071065
vn 0.7071069 1.293736E-07 0.7071064
vn 0.7071069 1.360253E-09 0.7071064
vn 0.7071069 1.277663E-07 0.7071064
vn 0.7071069 1.277668E-07 0.7071064
vn 0.7071069 1.277676E-07 0.7071064
vn 0.7071069 1.277671E-07 0.7071064
vn 0.7071069 1.277671E-07 0.7071064
vn 0.7071069 1.277669E-07 0.7071064
vn 0.7071069 1.277663E-07 0.7071064
vn 0.7071069 -9.97351E-08 0.7071064
vn 0.7071069 -1.250463E-07 0.7071064
vn 0.7071069 -1.250465E-07 0.7071064
vn 0.7071069 -1.250458E-07 0.7071064
vn 0.7071069 -1.250474E-07 0.7071064
vn 0.7071069 -1.250467E-07 0.7071064
vn 0.7071069 -1.250463E-07 0.7071064
vn 0.7071069 -1.105557E-07 0.7071065
vn 0.7071068 -3.046093E-07 0.7071065
vn 0.7071068 -3.046095E-07 0.7071065
vn 0.7071068 -3.046099E-07 0.7071065
vn 0.7071068 -3.046031E-07 0.7071065
vn 0.7071068 -3.046106E-07 0.7071065
vn 0.7071068 -3.0461E-07 0.7071065
vn 0.7071068 -3.046086E-07 0.7071065
vn 0.7071068 -3.046075E-07 0.7071065
vn 0.7071069 9.618407E-10 0.7071065
vn 0.7071069 9.618322E-10 0.7071065
vn 0.7071068 9.618442E-10 0.7071065

f 1//1 2//2 3//3
f 4//4 1//1 3//3
f 3//3 5//5 4//4
f 3//3 6//6 5//5
f 5//5 6//6 7//7
f 8//8 7//7 6//6
f 9//9 8//8 6//6
f 10//10 9//9 6//6
f 9//9 10//10 11//11
f 11//11 10//10 12//12
f 13//13 11//11 12//12
f 13//13 12//12 14//14
f 13//13 14//14 15//15
f 15//15 14//14 16//16
f 15//15 16//16 17//17
f 18//18 17//17 16//16
f 19//19 17//17 18//18
f 19//19 18//18 20//20
f 21//21 19//19 20//20
f 22//22 19//19 21//21
f 22//22 21//21 23//23
f 24//24 22//22 23//23
f 24//24 23//23 25//25
f 26//26 24//24 25//25
f 26//26 25//25 27//27
f 28//28 26//26 27//27
f 28//28 27//27 29//29
f 29//29 27//27 30//30
f 31//31 29//29 30//30
f 31//31 30//30 32//32
f 33//33 31//31 32//32
f 33//33 32//32 34//34
f 35//35 33//33 34//34
f 35//35 34//34 36//36
f 37//37 35//35 36//36
f 37//37 36//36 38//38
f 39//39 37//37 38//38
f 39//39 38//38 40//40
f 41//41 39//39 40//40
f 41//41 40//40 42//42
f 41//41 42//42 43//43
f 43//43 42//42 44//44
f 45//45 43//43 44//44
f 45//45 44//44 46//46
f 47//47 45//45 46//46
f 48//48 45//45 47//47
f 48//48 47//47 49//49
f 50//50 48//48 49//49
f 50//50 49//49 51//51
f 52//52 50//50 51//51
f 52//52 51//51 53//53
f 54//54 52//52 53//53
f 55//55 54//54 53//53
f 55//55 53//53 56//56
f 55//55 56//56 57//57
f 57//57 56//56 58//58
f 57//57 58//58 59//59
f 59//59 58//58 60//60
f 59//59 60//60 61//61
f 61//61 60//60 62//62
f 61//61 62//62 63//63
f 63//63 62//62 64//64
f 63//63 64//64 65//65
f 65//65 64//64 66//66
f 65//65 66//66 67//67
f 68//68 67//67 66//66
f 69//69 67//67 68//68
f 69//69 68//68 70//70
f 71//71 69//69 70//70
f 72//72 71//71 73//73
f 74//74 75//75 76//76
f 77//77 74//74 76//76
f 75//75 77//77 76//76
f 78//78 75//75 74//74
f 79//79 75//75 78//78
f 78//78 74//74 80//80
f 81//81 78//78 80//80
f 82//82 78//78 81//81
f 82//82 83//83 78//78
f 83//83 84//84 79//79
f 84//84 85//85 79//79
f 80//80 74//74 86//86
f 87//87 80//80 86//86
f 81//81 80//80 87//87
f 86//86 74//74 88//88
f 88//88 74//74 77//77
f 86//86 88//88 89//89
f 90//90 86//86 89//89
f 87//87 86//86 90//90
f 75//75 91//91 77//77
f 90//90 89//89 92//92
f 90//90 92//92 93//93
f 94//94 90//90 93//93
f 95//95 83//83 82//82
f 95//95 82//82 81//81
f 95//95 81//81 87//87
f 95//95 87//87 90//90
f 95//95 96//96 83//83
f 97//97 91//91 75//75
f 97//97 98//98 91//91
f 97//97 99//99 98//98
f 100//100 95//95 101//101
f 102//102 103//103 104//104
f 102//102 104//104 105//105
f 102//102 105//105 106//106
f 106//106 105//105 107//107
f 108//108 102//102 106//106
f 109//109 102//102 108//108
f 110//110 108//108 106//106
f 111//111 112//112 113//113
f 111//111 113//113 114//114
f 111//111 114//114 115//115
f 111//111 115//115 116//116
f 111//111 116//116 117//117
f 117//117 118//118 111//111
f 118//118 119//119 111//111
f 120//120 111//111 119//119
f 120//120 121//121 111//111
f 121//121 122//122 111//111
f 111//111 122//122 123//123
f 114//114 113//113 124//124
f 124//124 113//113 125//125
f 125//125 113//113 126//126
f 126//126 113//113 127//127
f 127//127 113//113 128//128
f 128//128 113//113 129//129
f 129//129 113//113 130//130
f 130//130 113//113 131//131
f 131//131 113//113 132//132
f 132//132 113//113 133//133
f 133//133 113//113 134//134
f 133//133 134//134 135//135
f 135//135 134//134 136//136
f 134//134 137//137 136//136
f 137//137 134//134 138//138
f 138//138 134//134 139//139
f 139//139 134//134 140//140
f 140//140 134//134 141//141
f 134//134 142//142 141//141
f 134//134 143//143 142//142
f 134//134 144//144 143//143
f 144//144 134//134 145//145
f 145//145 134//134 146//146
f 147//147 134//134 148//148
f 149//149 150//150 151//151
f 149//149 152//152 150//150
f 151//151 150//150 153//153
f 151//151 153//153 154//154
f 154//154 153//153 155//155
f 154//154 155//155 156//156
f 152//152 157//157 150//150
f 158//158 159//159 160//160
f 161//161 159//159 158//158
f 162//162 159//159 161//161
f 163//163 162//162 161//161
f 164//164 162//162 163//163
f 165//165 162//162 164//164
f 9//9 166//166 8//8
f 166//166 9//9 167//167
f 168//168 169//169 170//170
f 168//168 171//171 169//169
f 172//172 169//169 173//173
f 174//174 169//169 172//172
f 169//169 174//174 175//175
f 176//176 169//169 175//175
f 177//177 169//169 176//176
f 178//178 169//169 177//177
f 178//178 179//179 169//169
f 179//179 180//180 169//169
f 180//180 181//181 169//169
f 182//182 181//181 180//180
f 182//182 183//183 181//181
f 183//183 184//184 181//181
f 184//184 185//185 181//181
f 185//185 186//186 181//181
f 186//186 187//187 181//181
f 187//187 188//188 181//181
f 188//188 189//189 181//181
f 181//181 189//189 190//190
f 181//181 190//190 191//191
f 192//192 181//181 191//191
f 193//193 181//181 192//192
f 194//194 181//181 193//193
f 195//195 181//181 194//194
f 195//195 196//196 181//181
f 196//196 197//197 198//198
f 196//196 198//198 199//199
f 199//199 200//200 196//196
f 196//196 200//200 201//201
f 201//201 202//202 196//196
f 196//196 202//202 203//203
f 196//196 203//203 204//204
f 205//205 196//196 206//206
f 207//207 196//196 205//205
