v 12.30101 40.00028 37.80614
v 25.05358 40.00028 25.05357
v 12.30101 40.00028 37.80614
v 12.30101 40.00028 37.80614
v 12.28188 43.57161 37.787
v 12.27422 45.00014 37.77935
v 12.27422 45.00014 37.77935
v 25.02679 45.00014 25.02678
v 37.77937 45.00014 12.27421
v 12.43487 45.09627 37.94
v 39.22522 45.8653 13.72007
v 12.45483 45.10822 37.95996
v 39.40488 45.97281 13.89973
v 12.46044 45.11157 37.96556
v 39.45533 46.00299 13.95017
v 12.52343 45.14926 38.02856
v 40.02224 46.34222 14.51709
v 13.30005 45.61398 38.80518
v 40.10853 46.39386 14.60338
v 14.03639 46.05458 39.54152
v 14.1211 46.10527 39.62623
v 40.19976 46.44845 14.69461
v 14.29778 46.21099 39.8029
v 40.21939 46.4602 14.71424
v 14.76631 46.49135 40.27143
v 40.27145 46.49135 14.7663
v 14.82038 46.67999 40.3255
v 40.56919 47.5301 15.06404
v 40.75809 48.18913 15.25294
v 14.83379 46.7268 40.33892
v 40.87884 48.61038 15.37369
v 14.83779 46.74073 40.34291
v 40.91477 48.73574 15.40962
v 14.86796 46.846 40.37309
v 41.18636 49.68322 15.68121
v 15.21416 48.05379 40.71928
v 41.22482 49.81742 15.71967
v 15.50017 49.05162 41.0053
v 41.2566 49.92829 15.75145
v 15.78287 50.03788 41.28799
v 41.28801 50.03788 15.78286
v 15.75033 50.14664 41.25546
v 40.99516 51.01669 15.49001
v 15.67743 50.39032 41.18255
v 40.33901 53.20979 14.83386
v 15.47403 51.07014 40.97916
v 15.39269 51.34201 40.89782
v 40.30737 53.31553 14.80222
v 15.11533 52.26905 40.62045
v 40.27656 53.41853 14.77141
v 14.88695 53.03236 40.39208
v 40.25118 53.50335 14.74603
v 14.72843 53.56222 40.23355
v 40.23357 53.56222 14.72842
v 40.23357 53.56222 14.72842
v 14.57938 53.64766 40.08451
v 38.89216 54.33121 13.38701
v 14.53551 53.67281 40.04063
v 38.49733 54.55755 12.99218
v 14.53103 53.67538 40.03616
v 38.45703 54.58066 12.95188
v 14.52895 53.67657 40.03408
v 38.43834 54.59137 12.93319
v 14.52633 53.67808 40.03146
v 38.41471 54.60491 12.90956
v 14.47765 53.70599 39.98277
v 37.97657 54.85609 12.47142
v 12.22065 54.99986 37.72578
v 37.72579 54.99986 12.22064
v 12.22065 54.99986 37.72578
v 37.72579 54.99986 12.22064
v 12.22065 54.99986 37.72578
v 12.22065 54.99986 37.72578
v 12.213 56.42839 37.71812
v 12.19386 59.99972 37.69899
v 12.19386 59.99972 37.69899
v 12.19386 59.99972 37.69899
v 12.22065 54.99986 37.72578
v 12.22065 54.99986 37.72578
v 12.22065 54.99986 37.72578
v 37.72579 54.99986 12.22064
v 37.72579 54.99986 12.22064
v 37.72579 54.99986 12.22064
v 12.22065 54.99986 37.72578
v 17.20941 57.12444 42.71454
v 12.22065 54.99986 37.72578
v 37.72579 54.99986 12.22064
v 12.22065 54.99986 37.72578
v 24.97322 54.99986 24.97321
v 37.72579 54.99986 12.22064
v 24.94643 59.99971 24.94642
v 37.72578 54.99986 12.22065
v 37.72579 54.99986 12.22064
v 37.71814 56.42838 12.21299
v 42.71455 57.12444 17.20941
v 37.72579 54.99986 12.22064
v 17.20941 57.12444 42.71454
v 37.69901 59.99971 12.19385
v 42.71455 57.12444 17.20941
v 40.23357 53.56222 14.72842
v 40.23357 53.56222 14.72842
v 25.05358 40.00028 25.05357
v 12.30101 40.00028 37.80614
v 12.30101 40.00028 37.80614
v 12.28188 43.57161 37.787
v 25.02679 45.00014 25.02678
v 12.27422 45.00014 37.77935
v 37.79046 42.92913 12.28531
v 37.80615 40.00027 12.301
v 37.77937 45.00014 12.27421
v 12.30101 40.00028 37.80614
v 17.28518 42.9827 42.79031
v 19.31831 50.07576 44.82343
v 14.76631 46.49135 40.27143
v 14.29778 46.21099 39.8029
v 14.1211 46.10527 39.62623
v 14.03639 46.05458 39.54152
v 13.30005 45.61398 38.80518
v 12.52343 45.14926 38.02856
v 12.46044 45.11157 37.96556
v 12.45483 45.10822 37.95996
v 12.43487 45.09627 37.94
v 12.27422 45.00014 37.77935
v 14.82038 46.67999 40.3255
v 14.83379 46.7268 40.33892
v 14.83779 46.74073 40.34291
v 14.86796 46.846 40.37309
v 15.21416 48.05379 40.71928
v 15.50017 49.05162 41.0053
v 15.78287 50.03788 41.28799
v 15.75033 50.14664 41.25546
v 15.67743 50.39032 41.18255
v 15.47403 51.07014 40.97916
v 17.20941 57.12444 42.71454
v 15.39269 51.34201 40.89782
v 15.11533 52.26905 40.62045
v 14.88695 53.03236 40.39208
v 14.72843 53.56222 40.23355
v 14.57938 53.64766 40.08451
v 14.53551 53.67281 40.04063
v 14.53103 53.67538 40.03616
v 14.52895 53.67657 40.03408
v 14.52633 53.67808 40.03146
v 14.47765 53.70599 39.98277
v 12.22065 54.99986 37.72578
v 12.22065 54.99986 37.72578
v 12.22065 54.99986 37.72578
v 12.19386 59.99972 37.69899
v 12.30101 40.00028 37.80614
v 42.79032 42.9827 17.28517
v 17.28518 42.9827 42.79031
v 25.05358 40.00028 25.05357
v 44.82344 50.07576 19.3183
v 19.31831 50.07576 44.82343
v 42.71455 57.12444 17.20941
v 17.20941 57.12444 42.71454
v 37.80615 40.00027 12.301
v 12.19386 59.99972 37.69899
v 24.97322 54.99986 24.97321
v 12.22065 54.99986 37.72578
v 24.94643 59.99971 24.94642
v 37.72578 54.99986 12.22065
v 37.69901 59.99971 12.19385
v 37.71814 56.42838 12.21299
v 37.72579 54.99986 12.22064
v 37.77937 45.00014 12.27421
v 42.79032 42.9827 17.28517
v 37.79046 42.92913 12.28531
v 42.79032 42.9827 17.28517
v 37.80615 40.00027 12.301
v 37.77937 45.00014 12.27421
v 39.22522 45.8653 13.72007
v 37.77937 45.00014 12.27421
v 39.40488 45.97281 13.89973
v 39.45533 46.00299 13.95017
v 40.02224 46.34222 14.51709
v 40.10853 46.39386 14.60338
v 40.19976 46.44845 14.69461
v 40.21939 46.4602 14.71424
v 40.27145 46.49135 14.7663
v 44.82344 50.07576 19.3183
v 40.56919 47.5301 15.06404
v 40.75809 48.18913 15.25294
v 40.87884 48.61038 15.37369
v 40.91477 48.73574 15.40962
v 41.18636 49.68322 15.68121
v 41.22482 49.81742 15.71967
v 41.2566 49.92829 15.75145
v 41.28801 50.03788 15.78286
v 40.99516 51.01669 15.49001
v 40.33901 53.20979 14.83386
v 40.30737 53.31553 14.80222
v 40.27656 53.41853 14.77141
v 40.25118 53.50335 14.74603
v 40.23357 53.56222 14.72842
v 42.71455 57.12444 17.20941
v 40.23357 53.56222 14.72842
v 38.89216 54.33121 13.38701
v 38.49733 54.55755 12.99218
v 38.45703 54.58066 12.95188
v 38.43834 54.59137 12.93319
v 38.41471 54.60491 12.90956
v 37.97657 54.85609 12.47142
v 37.72579 54.99986 12.22064
v 37.71814 56.42838 12.21299
v 37.72579 54.99986 12.22064
v 37.69901 59.99971 12.19385

vn 0.005356992 -0.9999713 0.005357703
vn 0.0053571 -0.9999713 0.005357595
vn -0.4561114 -0.7592348 0.4642465
vn -0.7071068 -2.980232E-08 0.7071068
vn -0.7071068 -2.980232E-08 0.7071068
vn -0.275543 0.9209518 -0.2755431
vn -0.1053033 0.9899213 0.09469623
vn -0.6881008 0.2302918 -0.688101
vn -0.2755398 0.9209535 -0.2755402
vn -0.2755393 0.9209539 -0.2755397
vn -0.2755395 0.9209538 -0.2755399
vn -0.2755401 0.9209534 -0.2755406
vn -0.2755407 0.9209529 -0.2755414
vn -0.2755374 0.9209552 -0.2755372
vn -0.275539 0.9209541 -0.2755392
vn -0.2755393 0.9209539 -0.2755395
vn -0.2755392 0.920954 -0.2755395
vn -0.2755391 0.920954 -0.2755394
vn -0.2755393 0.9209539 -0.2755396
vn -0.2755391 0.920954 -0.2755394
vn -0.2755398 0.9209536 -0.2755401
vn -0.2755408 0.9209529 -0.2755412
vn -0.2755395 0.9209538 -0.2755397
vn -0.2755389 0.9209542 -0.2755392
vn -0.3706111 0.8516424 -0.3706113
vn -0.6438998 0.4132622 -0.6439002
vn -0.6553133 0.3756707 -0.6553137
vn -0.6553131 0.3756714 -0.6553134
vn -0.6553131 0.3756718 -0.6553134
vn -0.6553127 0.3756738 -0.6553127
vn -0.6553123 0.3756749 -0.6553123
vn -0.655312 0.3756765 -0.6553116
vn -0.6553126 0.3756739 -0.6553127
vn -0.6553127 0.3756727 -0.655313
vn -0.655313 0.3756723 -0.6553133
vn -0.6553128 0.3756721 -0.6553133
vn -0.6553126 0.3756732 -0.6553129
vn -0.6553128 0.3756726 -0.6553132
vn -0.6553131 0.3756715 -0.6553135
vn -0.671376 0.31386 -0.6713764
vn -0.6679731 -0.3280606 -0.6679733
vn -0.6512129 -0.3896707 -0.6512131
vn -0.6512126 -0.3896717 -0.6512129
vn -0.6512125 -0.3896724 -0.6512127
vn -0.6512125 -0.3896723 -0.6512126
vn -0.6512125 -0.3896719 -0.6512127
vn -0.6512128 -0.3896714 -0.6512128
vn -0.6512126 -0.3896719 -0.6512128
vn -0.6512128 -0.3896715 -0.6512129
vn -0.6512126 -0.3896718 -0.6512127
vn -0.6512127 -0.3896718 -0.6512128
vn -0.6512128 -0.3896714 -0.6512128
vn -0.5841433 -0.5635186 -0.5841433
vn -0.6512192 -0.38965 -0.6512192
vn -0.2656412 -0.9267522 -0.265641
vn -0.2656403 -0.9267526 -0.2656402
vn -0.26564 -0.9267529 -0.2656399
vn -0.2656391 -0.9267533 -0.2656392
vn -0.2656406 -0.9267526 -0.2656404
vn -0.2656419 -0.926752 -0.2656413
vn -0.2656438 -0.9267509 -0.2656429
vn -0.2656775 -0.9267339 -0.2656685
vn -0.2656564 -0.9267446 -0.2656525
vn -0.2656353 -0.9267553 -0.2656362
vn -0.2656383 -0.9267538 -0.2656386
vn -0.2656404 -0.9267526 -0.2656402
vn -0.2656408 -0.9267524 -0.2656406
vn -0.265641 -0.9267523 -0.2656408
vn -0.2656442 -0.9267505 -0.2656442
vn -0.3716628 -0.8507254 -0.3716627
vn 0.005357235 -0.9999713 0.00535746
vn 0.005357235 -0.9999713 0.00535746
vn 0.005357235 -0.9999713 0.00535746
vn -0.7071068 -2.980232E-08 0.7071068
vn 0.2656406 0.9267526 0.2656403
vn -0.7071068 -2.980232E-08 0.7071068
vn -0.701786 0.1224445 -0.7017862
vn -0.5341992 -0.6494452 0.541158
vn -0.5812074 -0.5633322 0.5872434
vn -0.04489554 -0.9974442 0.05558315
vn 0.005357235 -0.9999713 0.00535746
vn 0.005357235 -0.9999713 0.00535746
vn 0.005357235 -0.9999713 0.00535746
vn -0.06750515 -0.9946526 0.07816285
vn -0.7071068 -2.980232E-08 0.7071068
vn -0.003601473 -0.9998912 0.01430718
vn 0.005357235 -0.9999713 0.00535746
vn -0.09469659 -0.9899211 0.1053036
vn 0.005361922 -0.9999713 0.005362147
vn 0.04780797 -0.9981672 -0.03710373
vn 0.2656406 0.9267525 0.2656403
vn 0.005373955 -0.9999712 0.00537418
vn 0.7071069 -6.912754E-06 -0.7071067
vn 0.7071068 2.980232E-08 -0.7071068
vn 0.7071071 3.307219E-08 -0.7071065
vn 0 0 0
vn 0.2656406 0.9267526 0.2656404
vn 0.2656406 0.9267526 0.2656404
vn 0.2656406 0.9267526 0.2656404
vn 0.7071071 3.307219E-08 -0.7071065
vn 0.7071071 3.307219E-08 -0.7071065
vn -0.7070864 -0.007576436 -0.7070866
vn -0.7070864 -0.007576435 -0.7070866
vn -0.7070864 -0.007576436 -0.7070866
vn -0.7070864 -0.007576436 -0.7070866
vn -0.7070864 -0.007576436 -0.7070866
vn -0.7070864 -0.007576436 -0.7070866
vn -0.7070864 -0.007576436 -0.7070866
vn -0.7070864 -0.007576436 -0.7070866
vn -0.7070864 -0.007576436 -0.7070866
vn -0.7071068 -2.980232E-08 0.7071068
vn -0.7071068 -2.980232E-08 0.7071068
vn -0.7071068 -2.980232E-08 0.7071068
vn -0.7071068 -2.980232E-08 0.7071068
vn -0.7071068 -2.980232E-08 0.7071068
vn -0.7071068 -2.980232E-08 0.7071068
vn -0.7071068 -2.980232E-08 0.7071068
vn -0.7071068 -2.980232E-08 0.7071068
vn -0.7071068 -2.980232E-08 0.7071068
vn -0.7071068 -2.980232E-08 0.7071068
vn -0.7071068 -2.980232E-08 0.7071068
vn -0.7071068 -2.980232E-08 0.7071068
vn -0.7071068 -2.980232E-08 0.7071068
vn -0.7071068 -2.980232E-08 0.7071067
vn -0.7071068 -2.980232E-08 0.7071068
vn -0.7071068 -2.980232E-08 0.7071068
vn -0.7071068 -2.980232E-08 0.7071067
vn -0.7071068 -2.980232E-08 0.7071068
vn -0.7071068 -2.980232E-08 0.7071068
vn -0.7071068 -2.980232E-08 0.7071068
vn -0.7071068 -2.980232E-08 0.7071067
vn -0.7071068 -2.980232E-08 0.7071068
vn -0.7071068 -2.980232E-08 0.7071068
vn -0.7071068 -2.980232E-08 0.7071068
vn -0.7071068 -2.980232E-08 0.7071068
vn -0.7071068 -2.980232E-08 0.7071068
vn -0.7071068 -2.980232E-08 0.7071068
vn -0.7071068 -2.980232E-08 0.7071068
vn -0.7071068 -2.980232E-08 0.7071068
vn -0.7071068 -2.980232E-08 0.7071068
vn -0.7071068 -2.980232E-08 0.7071068
vn -0.7071068 -2.980232E-08 0.7071067
vn -0.7071068 -2.980232E-08 0.7071068
vn -0.7071068 -2.980232E-08 0.7071067
vn -0.7071068 -2.980232E-08 0.7071067
vn -0.7071068 -2.980232E-08 0.7071068
vn -0.7071068 -2.980232E-08 0.7071067
vn -0.7071068 -2.980232E-08 0.7071067
vn 0.2755395 -0.9209538 0.27554
vn 0.4311726 -0.7925781 0.4311731
vn 0.5669062 -0.5976909 0.5669065
vn 0.2755395 -0.9209536 0.2755399
vn 0.7011742 -0.1292644 0.7011744
vn 0.6997088 0.1442749 0.6997089
vn 0.6512126 0.389672 0.6512126
vn 0.6512126 0.389672 0.6512127
vn 0.2755395 -0.9209538 0.2755398
vn -0.7070864 -0.007576436 -0.7070866
vn -0.7070864 -0.007576436 -0.7070866
vn -0.7070864 -0.007576436 -0.7070866
vn -0.7070864 -0.007576436 -0.7070866
vn -0.7070864 -0.007576436 -0.7070866
vn -0.7070864 -0.007576436 -0.7070866
vn -0.7070864 -0.007576436 -0.7070866
vn -0.7070864 -0.007576435 -0.7070866
vn 0.1381575 0.9791914 -0.1486495
vn 0.7071068 -7.069353E-07 -0.7071068
vn 0.7071069 3.143725E-08 -0.7071065
vn 0.707107 -8.002237E-08 -0.7071066
vn 0.707107 3.143725E-08 -0.7071066
vn 0.707107 3.143725E-08 -0.7071066
vn 0.7071069 -2.744067E-07 -0.7071066
vn 0.7071069 -2.744069E-07 -0.7071066
vn 0.7071069 -2.744063E-07 -0.7071066
vn 0.7071069 -2.74407E-07 -0.7071066
vn 0.7071069 -2.744071E-07 -0.7071066
vn 0.7071069 -2.744066E-07 -0.7071066
vn 0.7071069 -2.744049E-07 -0.7071066
vn 0.7071069 -2.744088E-07 -0.7071066
vn 0.7071071 -9.591592E-08 -0.7071065
vn 0.7071071 3.211447E-08 -0.7071065
vn 0.7071071 -9.428923E-08 -0.7071065
vn 0.7071071 -9.428975E-08 -0.7071065
vn 0.7071071 -9.429047E-08 -0.7071065
vn 0.7071071 -9.429002E-08 -0.7071065
vn 0.7071071 -9.428998E-08 -0.7071065
vn 0.7071071 -9.428985E-08 -0.7071065
vn 0.7071071 -9.428924E-08 -0.7071065
vn 0.7071071 1.332079E-07 -0.7071065
vn 0.7071071 1.585187E-07 -0.7071065
vn 0.7071071 1.585189E-07 -0.7071065
vn 0.7071071 1.585182E-07 -0.7071065
vn 0.7071071 1.585198E-07 -0.7071065
vn 0.7071071 1.58519E-07 -0.7071065
vn 0.7071071 1.585186E-07 -0.7071065
vn 0.707107 1.431678E-07 -0.7071066
vn 0.7071069 3.359271E-07 -0.7071066
vn 0.7071069 3.359273E-07 -0.7071066
vn 0.7071069 3.359276E-07 -0.7071066
vn 0.7071069 3.359209E-07 -0.7071066
vn 0.7071069 3.359284E-07 -0.7071066
vn 0.7071069 3.359278E-07 -0.7071066
vn 0.7071069 3.359264E-07 -0.7071066
vn 0.7071069 3.359252E-07 -0.7071066
vn 0.707107 3.143726E-08 -0.7071066
vn 0.707107 3.143727E-08 -0.7071066
vn 0.7071069 3.143725E-08 -0.7071065

f 1//1 2//2 3//3
f 4//4 1//1 3//3
f 3//3 5//5 4//4
f 3//3 6//6 5//5
f 5//5 6//6 7//7
f 8//8 7//7 6//6
f 9//9 8//8 6//6
f 10//10 9//9 6//6
f 9//9 10//10 11//11
f 11//11 10//10 12//12
f 13//13 11//11 12//12
f 13//13 12//12 14//14
f 13//13 14//14 15//15
f 15//15 14//14 16//16
f 15//15 16//16 17//17
f 18//18 17//17 16//16
f 19//19 17//17 18//18
f 19//19 18//18 20//20
f 21//21 19//19 20//20
f 22//22 19//19 21//21
f 22//22 21//21 23//23
f 24//24 22//22 23//23
f 24//24 23//23 25//25
f 26//26 24//24 25//25
f 26//26 25//25 27//27
f 28//28 26//26 27//27
f 28//28 27//27 29//29
f 29//29 27//27 30//30
f 31//31 29//29 30//30
f 31//31 30//30 32//32
f 33//33 31//31 32//32
f 33//33 32//32 34//34
f 35//35 33//33 34//34
f 35//35 34//34 36//36
f 37//37 35//35 36//36
f 37//37 36//36 38//38
f 39//39 37//37 38//38
f 39//39 38//38 40//40
f 41//41 39//39 40//40
f 41//41 40//40 42//42
f 41//41 42//42 43//43
f 43//43 42//42 44//44
f 45//45 43//43 44//44
f 45//45 44//44 46//46
f 47//47 45//45 46//46
f 48//48 45//45 47//47
f 48//48 47//47 49//49
f 50//50 48//48 49//49
f 50//50 49//49 51//51
f 52//52 50//50 51//51
f 52//52 51//51 53//53
f 54//54 52//52 53//53
f 55//55 54//54 53//53
f 55//55 53//53 56//56
f 55//55 56//56 57//57
f 57//57 56//56 58//58
f 57//57 58//58 59//59
f 59//59 58//58 60//60
f 59//59 60//60 61//61
f 61//61 60//60 62//62
f 61//61 62//62 63//63
f 63//63 62//62 64//64
f 63//63 64//64 65//65
f 65//65 64//64 66//66
f 65//65 66//66 67//67
f 68//68 67//67 66//66
f 69//69 67//67 68//68
f 69//69 68//68 70//70
f 71//71 69//69 70//70
f 72//72 71//71 73//73
f 74//74 75//75 76//76
f 77//77 74//74 76//76
f 75//75 77//77 76//76
f 78//78 75//75 74//74
f 79//79 75//75 78//78
f 78//78 74//74 80//80
f 81//81 78//78 80//80
f 82//82 78//78 81//81
f 82//82 83//83 78//78
f 83//83 84//84 79//79
f 84//84 85//85 79//79
f 80//80 74//74 86//86
f 87//87 80//80 86//86
f 81//81 80//80 87//87
f 86//86 74//74 88//88
f 88//88 74//74 77//77
f 86//86 88//88 89//89
f 90//90 86//86 89//89
f 87//87 86//86 90//90
f 75//75 91//91 77//77
f 90//90 89//89 92//92
f 90//90 92//92 93//93
f 94//94 90//90 93//93
f 95//95 83//83 82//82
f 95//95 82//82 81//81
f 95//95 81//81 87//87
f 95//95 87//87 90//90
f 95//95 96//96 83//83
f 97//97 91//91 75//75
f 97//97 98//98 91//91
f 97//97 99//99 98//98
f 100//100 95//95 101//101
f 102//102 103//103 104//104
f 102//102 104//104 105//105
f 102//102 105//105 106//106
f 106//106 105//105 107//107
f 108//108 102//102 106//106
f 109//109 102//102 108//108
f 110//110 108//108 106//106
f 111//111 112//112 113//113
f 111//111 113//113 114//114
f 111//111 114//114 115//115
f 111//111 115//115 116//116
f 111//111 116//116 117//117
f 117//117 118//118 111//111
f 118//118 119//119 111//111
f 120//120 111//111 119//119
f 120//120 121//121 111//111
f 121//121 122//122 111//111
f 111//111 122//122 123//123
f 114//114 113//113 124//124
f 124//124 113//113 125//125
f 125//125 113//113 126//126
f 126//126 113//113 127//127
f 127//127 113//113 128//128
f 128//128 113//113 129//129
f 129//129 113//113 130//130
f 130//130 113//113 131//131
f 131//131 113//113 132//132
f 132//132 113//113 133//133
f 133//133 113//113 134//134
f 133//133 134//134 135//135
f 135//135 134//134 136//136
f 134//134 137//137 136//136
f 137//137 134//134 138//138
f 138//138 134//134 139//139
f 139//139 134//134 140//140
f 140//140 134//134 141//141
f 134//134 142//142 141//141
f 134//134 143//143 142//142
f 134//134 144//144 143//143
f 144//144 134//134 145//145
f 145//145 134//134 146//146
f 147//147 134//134 148//148
f 149//149 150//150 151//151
f 149//149 152//152 150//150
f 151//151 150//150 153//153
f 151//151 153//153 154//154
f 154//154 153//153 155//155
f 154//154 155//155 156//156
f 152//152 157//157 150//150
f 158//158 159//159 160//160
f 161//161 159//159 158//158
f 162//162 159//159 161//161
f 163//163 162//162 161//161
f 164//164 162//162 163//163
f 165//165 162//162 164//164
f 9//9 166//166 8//8
f 166//166 9//9 167//167
f 168//168 169//169 170//170
f 168//168 171//171 169//169
f 172//172 169//169 173//173
f 174//174 169//169 172//172
f 169//169 174//174 175//175
f 176//176 169//169 175//175
f 177//177 169//169 176//176
f 178//178 169//169 177//177
f 178//178 179//179 169//169
f 179//179 180//180 169//169
f 180//180 181//181 169//169
f 182//182 181//181 180//180
f 182//182 183//183 181//181
f 183//183 184//184 181//181
f 184//184 185//185 181//181
f 185//185 186//186 181//181
f 186//186 187//187 181//181
f 187//187 188//188 181//181
f 188//188 189//189 181//181
f 181//181 189//189 190//190
f 181//181 190//190 191//191
f 192//192 181//181 191//191
f 193//193 181//181 192//192
f 194//194 181//181 193//193
f 195//195 181//181 194//194
f 195//195 196//196 181//181
f 196//196 197//197 198//198
f 196//196 198//198 199//199
f 199//199 200//200 196//196
f 196//196 200//200 201//201
f 201//201 202//202 196//196
f 196//196 202//202 203//203
f 196//196 203//203 204//204
f 205//205 196//196 206//206
f 207//207 196//196 205//205
