v 90.00002 -7.125833 107.0159
v 49.99998 -7.125837 107.0159
v 90.00002 -7.125833 107.0159
v 90.00002 -7.125833 107.0159
v 90.00002 -4.580893 104.5102
v 90.00002 -3.562916 103.5079
v 90.00002 -3.562916 103.5079
v 49.99998 -3.56292 103.5079
v 9.999943 -3.562922 103.5079
v 90.00002 -3.655547 103.2793
v 9.999943 -4.3966 101.4502
v 90.00002 -3.667058 103.2509
v 9.999943 -4.500195 101.1945
v 90.00002 -3.67029 103.2429
v 9.999943 -4.529281 101.1227
v 90.00002 -3.70661 103.1533
v 9.999943 -4.856164 100.3158
v 90.00002 -4.154412 102.0479
v 9.999943 -4.90592 100.193
v 90.00002 -4.578984 101
v 90.00002 -4.627827 100.8794
v 9.999943 -4.95852 100.0632
v 90.00002 -4.729699 100.628
v 9.999943 -4.969839 100.0352
v 90.00002 -4.999853 99.96113
v 9.999943 -4.999858 99.96113
v 90.00002 -4.920496 99.77368
v 9.999943 -4.562885 98.92896
v 9.999943 -4.285651 98.27411
v 90.00002 -4.900805 99.72717
v 9.999943 -4.108448 97.85553
v 90.00002 -4.894946 99.71333
v 9.999943 -4.055711 97.73096
v 90.00002 -4.850661 99.60873
v 9.999943 -3.657137 96.78949
v 90.00002 -4.342582 98.40859
v 9.999943 -3.600683 96.65614
v 90.00002 -3.92283 97.41709
v 9.999943 -3.554044 96.54597
v 90.00002 -3.507939 96.43709
v 9.999943 -3.507945 96.43709
v 90.00002 -3.398489 96.39275
v 9.999943 -2.522892 96.038
v 90.00002 -3.153258 96.29339
v 9.999943 -0.3158109 95.14384
v 90.00002 -2.469102 96.01622
v 90.00002 -2.195496 95.90537
v 9.999943 -0.2093924 95.10073
v 90.00002 -1.262545 95.5274
v 9.999943 -0.1057331 95.05873
v 90.00002 -0.4943603 95.21618
v 9.999943 -0.02037682 95.02415
v 90.00002 0.03887469 95.00015
v 9.999943 0.03886895 95.00015
v 9.999943 0.0388703 95.00015
v 90.00002 0.2483195 95.08882
v 9.999943 1.923875 95.79817
v 90.00002 0.3099679 95.11491
v 9.999943 2.478703 96.03306
v 90.00002 0.3162618 95.11758
v 9.999943 2.535344 96.05704
v 90.00002 0.3191797 95.11882
v 9.999943 2.56161 96.06815
v 90.00002 0.3228688 95.12038
v 9.999943 2.594805 96.08221
v 90.00002 0.3912788 95.14934
v 9.999943 3.210508 96.34287
v 90.00002 3.562914 96.49206
v 9.999943 3.562913 96.49206
v 90.00002 3.562918 96.49206
v 9.999943 3.562913 96.49206
v 90.00002 3.562918 96.49207
v 90.00002 3.562918 96.49207
v 90.00002 4.580894 95.48979
v 90.00002 7.125834 92.98412
v 90.00002 7.125835 92.98412
v 90.00002 7.125834 92.98412
v 90.00002 3.562918 96.49207
v 90.00002 3.562918 96.49207
v 90.00002 3.562918 96.49207
v 9.999943 3.562913 96.49206
v 9.999943 3.562913 96.49206
v 9.999943 3.562913 96.49206
v 90.00002 3.562918 96.49206
v 90.00002 0.07774939 90.0003
v 90.00002 3.562918 96.49207
v 9.999943 3.562913 96.49206
v 90.00002 3.562918 96.49207
v 49.99998 3.562916 96.49207
v 9.999943 3.562913 96.49206
v 49.99998 7.125831 92.98412
v 9.999985 3.562913 96.49206
v 9.999943 3.562913 96.49206
v 9.999943 4.580888 95.48979
v 9.99995 0.07774398 90.0003
v 9.999943 3.562913 96.49206
v 90.00002 0.07774939 90.0003
v 9.999943 7.125829 92.98412
v 9.99995 0.07774398 90.0003
v 9.999943 0.0388703 95.00015
v 9.999943 0.03886895 95.00015
v 49.99998 -7.125837 107.0159
v 90.00002 -7.125833 107.0159
v 90.00002 -7.125833 107.0159
v 90.00002 -4.580893 104.5102
v 49.99998 -3.56292 103.5079
v 90.00002 -3.562916 103.5079
v 9.999943 -5.038732 104.961
v 9.999943 -7.12584 107.0159
v 9.999943 -3.562922 103.5079
v 90.00002 -7.125833 107.0159
v 90.00002 -9.999703 99.92225
v 90.00002 -7.01588 92.87417
v 90.00002 -4.999853 99.96113
v 90.00002 -4.729699 100.628
v 90.00002 -4.627827 100.8794
v 90.00002 -4.578984 101
v 90.00002 -4.154412 102.0479
v 90.00002 -3.70661 103.1533
v 90.00002 -3.67029 103.2429
v 90.00002 -3.667058 103.2509
v 90.00002 -3.655547 103.2793
v 90.00002 -3.562916 103.5079
v 90.00002 -4.920496 99.77368
v 90.00002 -4.900805 99.72717
v 90.00002 -4.894946 99.71333
v 90.00002 -4.850661 99.60873
v 90.00002 -4.342582 98.40859
v 90.00002 -3.92283 97.41709
v 90.00002 -3.507939 96.43709
v 90.00002 -3.398489 96.39275
v 90.00002 -3.153258 96.29339
v 90.00002 -2.469102 96.01622
v 90.00002 0.07774939 90.0003
v 90.00002 -2.195496 95.90537
v 90.00002 -1.262545 95.5274
v 90.00002 -0.4943603 95.21618
v 90.00002 0.03887469 95.00015
v 90.00002 0.2483195 95.08882
v 90.00002 0.3099679 95.11491
v 90.00002 0.3162618 95.11758
v 90.00002 0.3191797 95.11882
v 90.00002 0.3228688 95.12038
v 90.00002 0.3912788 95.14934
v 90.00002 3.562914 96.49206
v 90.00002 3.562918 96.49206
v 90.00002 3.562918 96.49207
v 90.00002 7.125834 92.98412
v 90.00002 -7.125833 107.0159
v 9.99995 -9.999709 99.92225
v 90.00002 -9.999703 99.92225
v 49.99998 -7.125837 107.0159
v 9.99995 -7.015885 92.87417
v 90.00002 -7.01588 92.87417
v 9.99995 0.07774398 90.0003
v 90.00002 0.07774939 90.0003
v 9.999943 -7.12584 107.0159
v 90.00002 7.125834 92.98412
v 49.99998 3.562916 96.49207
v 90.00002 3.562918 96.49207
v 49.99998 7.125831 92.98412
v 9.999985 3.562913 96.49206
v 9.999943 7.125829 92.98412
v 9.999943 4.580888 95.48979
v 9.999943 3.562913 96.49206
v 9.999943 -3.562922 103.5079
v 9.99995 -9.999709 99.92225
v 9.999943 -5.038732 104.961
v 9.99995 -9.999709 99.92225
v 9.999943 -7.12584 107.0159
v 9.999943 -3.562922 103.5079
v 9.999943 -4.3966 101.4502
v 9.999943 -3.562922 103.5079
v 9.999943 -4.500195 101.1945
v 9.999943 -4.529281 101.1227
v 9.999943 -4.856164 100.3158
v 9.999943 -4.90592 100.193
v 9.999943 -4.95852 100.0632
v 9.999943 -4.969839 100.0352
v 9.999943 -4.999858 99.96113
v 9.99995 -7.015885 92.87417
v 9.999943 -4.562885 98.92896
v 9.999943 -4.285651 98.27411
v 9.999943 -4.108448 97.85553
v 9.999943 -4.055711 97.73096
v 9.999943 -3.657137 96.78949
v 9.999943 -3.600683 96.65614
v 9.999943 -3.554044 96.54597
v 9.999943 -3.507945 96.43709
v 9.999943 -2.522892 96.038
v 9.999943 -0.3158109 95.14384
v 9.999943 -0.2093924 95.10073
v 9.999943 -0.1057331 95.05873
v 9.999943 -0.02037682 95.02415
v 9.999943 0.03886895 95.00015
v 9.99995 0.07774398 90.0003
v 9.999943 0.0388703 95.00015
v 9.999943 1.923875 95.79817
v 9.999943 2.478703 96.03306
v 9.999943 2.535344 96.05704
v 9.999943 2.56161 96.06815
v 9.999943 2.594805 96.08221
v 9.999943 3.210508 96.34287
v 9.999943 3.562913 96.49206
v 9.999943 4.580888 95.48979
v 9.999943 3.562913 96.49206
v 9.999943 7.125829 92.98412

vn 5.19156E-07 -0.7125831 0.7015877
vn 3.665683E-07 -0.7125831 0.7015877
vn 0.6507913 -0.5410334 0.5326851
vn 1 0 1.490116E-08
vn 1 0 1.490116E-08
vn -5.085698E-08 0.9268288 -0.3754842
vn 0.141421 0.7054214 -0.6945365
vn -1.847798E-07 0.8508375 0.5254289
vn -3.286719E-07 0.926827 -0.3754885
vn -2.875503E-07 0.9268268 -0.3754893
vn -3.262923E-07 0.9268269 -0.375489
vn -4.09876E-07 0.9268273 -0.375488
vn -4.683883E-07 0.9268276 -0.375487
vn 1.233275E-07 0.9268255 -0.3754924
vn -1.642354E-07 0.9268265 -0.3754898
vn -2.123036E-07 0.9268267 -0.3754893
vn -1.951547E-07 0.9268268 -0.3754895
vn -1.939919E-07 0.9268266 -0.3754896
vn -2.079539E-07 0.9268267 -0.3754893
vn -2.271487E-07 0.9268267 -0.3754896
vn -2.213619E-07 0.9268271 -0.3754885
vn -2.640488E-07 0.9268276 -0.3754871
vn -1.53559E-07 0.9268268 -0.3754891
vn -1.67375E-07 0.9268265 -0.3754899
vn -1.712254E-07 0.9728593 -0.2313978
vn -2.02532E-07 0.9360506 0.3518653
vn -2.581521E-07 0.9208754 0.389857
vn -2.186638E-07 0.9208757 0.3898562
vn -1.989649E-07 0.9208758 0.3898559
vn -4.56419E-08 0.9208767 0.389854
vn 3.881387E-08 0.9208772 0.3898528
vn 2.550555E-07 0.9208778 0.3898512
vn -1.155203E-08 0.9208767 0.3898539
vn -1.897856E-07 0.9208762 0.3898549
vn -2.488887E-07 0.9208761 0.3898555
vn -3.076252E-07 0.920876 0.3898556
vn -2.090493E-07 0.9208764 0.3898545
vn -2.297062E-07 0.9208763 0.3898551
vn -2.705368E-07 0.9208757 0.3898562
vn -2.802429E-07 0.8932195 0.449621
vn -1.247606E-07 0.4358207 0.9000336
vn -8.439243E-08 0.3754902 0.9268263
vn -1.118377E-07 0.3754892 0.9268268
vn -1.525258E-07 0.3754886 0.9268271
vn -1.240494E-07 0.3754886 0.926827
vn -1.062952E-07 0.375489 0.9268268
vn 1.987903E-08 0.3754895 0.9268266
vn -4.95865E-08 0.3754891 0.9268268
vn -2.712878E-08 0.3754894 0.9268267
vn -1.961132E-08 0.3754891 0.9268268
vn -1.267366E-08 0.3754891 0.9268269
vn -3.988895E-09 0.3754895 0.9268266
vn 5.737982E-08 0.1854804 0.982648
vn -1.95254E-09 0.3755111 0.9268179
vn 1.365881E-07 -0.3898545 0.9208764
vn 9.155751E-08 -0.3898557 0.9208758
vn 5.469331E-08 -0.3898561 0.9208758
vn -5.325174E-08 -0.3898572 0.9208753
vn 1.479409E-07 -0.3898553 0.9208761
vn 4.363299E-07 -0.3898539 0.9208769
vn 7.153137E-07 -0.3898513 0.9208778
vn 6.331197E-06 -0.3898096 0.9208955
vn 2.748456E-06 -0.3898358 0.9208844
vn -6.049002E-07 -0.389862 0.9208733
vn -2.156264E-07 -0.3898582 0.920875
vn 1.219827E-07 -0.3898556 0.920876
vn 1.475836E-07 -0.389855 0.9208762
vn 1.473644E-07 -0.3898548 0.9208763
vn 7.738391E-08 -0.3898501 0.9208784
vn 8.043767E-08 -0.2300842 0.9731708
vn 1.758335E-07 -0.7125831 0.7015877
vn 1.758335E-07 -0.7125831 0.7015877
vn 1.758335E-07 -0.7125831 0.7015877
vn 1 0 1.490116E-08
vn -2.798473E-07 0.3898554 -0.9208761
vn 1 0 1.490116E-08
vn -1.658376E-07 0.7882453 0.6153613
vn 0.7603924 -0.462797 0.4556558
vn 0.8262195 -0.4014325 0.3952383
vn 0.07104918 -0.7107823 0.6998147
vn 1.758338E-07 -0.7125831 0.7015877
vn 1.758335E-07 -0.7125831 0.7015877
vn 1.758332E-07 -0.7125831 0.7015877
vn 0.1030028 -0.7087929 0.697856
vn 1 0 1.490116E-08
vn 0.01266335 -0.712522 0.7015355
vn 1.758346E-07 -0.7125831 0.7015877
vn 0.1414215 -0.7054213 0.6945364
vn 1.758346E-07 -0.7125878 0.701583
vn -0.06004162 -0.7113019 0.7003175
vn -2.095224E-07 0.3898553 -0.920876
vn 1.758364E-07 -0.7125997 0.7015709
vn -1 -4.947291E-06 4.856051E-06
vn -1 0 -1.490116E-08
vn -1 -3.027937E-07 -3.224403E-07
vn 0 0 0
vn -1.993316E-07 0.3898553 -0.9208761
vn -1.640362E-07 0.3898553 -0.9208761
vn -1.891408E-07 0.3898553 -0.9208762
vn -1 -3.027937E-07 -3.224403E-07
vn -1 -3.027937E-07 -3.224403E-07
vn -1.192093E-07 0.7015877 0.7125831
vn -1.192092E-07 0.7015877 0.7125831
vn -1.192093E-07 0.7015877 0.7125831
vn -1.192093E-07 0.7015877 0.7125831
vn -1.192093E-07 0.7015877 0.7125831
vn -1.192092E-07 0.7015877 0.7125831
vn -1.192093E-07 0.7015877 0.7125831
vn -1.192093E-07 0.7015877 0.7125831
vn -1.192093E-07 0.7015877 0.7125831
vn 1 0 1.490116E-08
vn 1 0 1.490116E-08
vn 1 0 1.490116E-08
vn 1 0 1.490116E-08
vn 1 0 1.490116E-08
vn 1 0 1.490116E-08
vn 1 0 1.490116E-08
vn 1 0 1.490116E-08
vn 1 0 1.490116E-08
vn 1 0 1.490116E-08
vn 1 0 1.490116E-08
vn 1 0 1.490116E-08
vn 1 0 1.490116E-08
vn 0.9999999 0 1.490116E-08
vn 1 0 1.490116E-08
vn 1 0 1.490116E-08
vn 0.9999999 0 1.490116E-08
vn 1 0 1.490116E-08
vn 1 0 1.490116E-08
vn 1 0 1.490116E-08
vn 0.9999999 0 1.490116E-08
vn 1 0 1.490116E-08
vn 1 0 1.490116E-08
vn 1 0 1.490116E-08
vn 1 0 1.490116E-08
vn 1 0 1.490116E-08
vn 1 0 1.490116E-08
vn 1 0 1.490116E-08
vn 1 0 1.490116E-08
vn 1 0 1.490116E-08
vn 1 0 1.490116E-08
vn 0.9999999 0 1.490116E-08
vn 1 0 1.490116E-08
vn 0.9999999 0 1.490116E-08
vn 0.9999999 0 1.490116E-08
vn 1 0 1.490116E-08
vn 0.9999999 0 1.490116E-08
vn 0.9999999 0 1.490116E-08
vn 3.290221E-07 -0.926827 0.375489
vn 2.97363E-07 -0.9916358 0.1290677
vn 2.529435E-07 -0.9895089 -0.1444715
vn 3.099711E-07 -0.9268268 0.3754889
vn 1.510738E-07 -0.792457 -0.6099279
vn 7.562156E-08 -0.5975319 -0.8018452
vn 1.294782E-08 -0.3754889 -0.9268268
vn 5.702424E-09 -0.375489 -0.9268268
vn 2.433116E-07 -0.9268268 0.375489
vn -1.192093E-07 0.7015877 0.7125831
vn -1.192093E-07 0.7015877 0.7125831
vn -1.192093E-07 0.7015877 0.7125831
vn -1.192093E-07 0.7015877 0.7125831
vn -1.192093E-07 0.7015877 0.7125831
vn -1.192093E-07 0.7015877 0.7125831
vn -1.283792E-07 0.7015877 0.7125831
vn -1.283792E-07 0.7015877 0.7125831
vn -0.2028032 0.6977753 -0.6870083
vn -1 -5.250019E-07 5.019998E-07
vn -0.9999999 -1.513968E-07 -1.686707E-07
vn -1 -2.43462E-07 -1.031134E-07
vn -1 -1.513968E-07 -1.686707E-07
vn -1 -1.513968E-07 -1.686707E-07
vn -1 -3.061492E-07 1.091301E-07
vn -1 -3.061492E-07 1.091303E-07
vn -1 -3.06149E-07 1.091296E-07
vn -1 -3.061492E-07 1.091305E-07
vn -1 -3.061492E-07 1.091305E-07
vn -0.9999999 -3.061492E-07 1.091299E-07
vn -1 -3.061491E-07 1.091276E-07
vn -0.9999999 -3.061492E-07 1.09133E-07
vn -1 -3.042013E-07 -1.413955E-07
vn -1 -2.141075E-07 -2.323642E-07
vn -1 -3.04183E-07 -1.436782E-07
vn -1 -3.041835E-07 -1.436779E-07
vn -1 -3.041842E-07 -1.436776E-07
vn -1 -3.041838E-07 -1.436778E-07
vn -1 -3.041838E-07 -1.436779E-07
vn -1 -3.041837E-07 -1.43678E-07
vn -1 -3.041832E-07 -1.436784E-07
vn -1 -1.420679E-07 -3.032921E-07
vn -1 -1.240314E-07 -3.210504E-07
vn -1 -1.240313E-07 -3.210506E-07
vn -1 -1.240316E-07 -3.210498E-07
vn -1 -1.24031E-07 -3.210516E-07
vn -1 -1.240312E-07 -3.210507E-07
vn -1 -1.240314E-07 -3.210503E-07
vn -1 -8.441589E-08 -2.597054E-07
vn -1 1.28777E-07 -3.190848E-07
vn -1 1.287772E-07 -3.190849E-07
vn -1 1.287775E-07 -3.19085E-07
vn -1 1.287707E-07 -3.190823E-07
vn -1 1.287782E-07 -3.190854E-07
vn -1 1.287777E-07 -3.190851E-07
vn -1 1.287763E-07 -3.190845E-07
vn -0.9999999 1.287752E-07 -3.190839E-07
vn -1 -1.513968E-07 -1.686707E-07
vn -1 -1.513968E-07 -1.686707E-07
vn -0.9999999 -1.513968E-07 -1.686707E-07

f 1//1 2//2 3//3
f 4//4 1//1 3//3
f 3//3 5//5 4//4
f 3//3 6//6 5//5
f 5//5 6//6 7//7
f 8//8 7//7 6//6
f 9//9 8//8 6//6
f 10//10 9//9 6//6
f 9//9 10//10 11//11
f 11//11 10//10 12//12
f 13//13 11//11 12//12
f 13//13 12//12 14//14
f 13//13 14//14 15//15
f 15//15 14//14 16//16
f 15//15 16//16 17//17
f 18//18 17//17 16//16
f 19//19 17//17 18//18
f 19//19 18//18 20//20
f 21//21 19//19 20//20
f 22//22 19//19 21//21
f 22//22 21//21 23//23
f 24//24 22//22 23//23
f 24//24 23//23 25//25
f 26//26 24//24 25//25
f 26//26 25//25 27//27
f 28//28 26//26 27//27
f 28//28 27//27 29//29
f 29//29 27//27 30//30
f 31//31 29//29 30//30
f 31//31 30//30 32//32
f 33//33 31//31 32//32
f 33//33 32//32 34//34
f 35//35 33//33 34//34
f 35//35 34//34 36//36
f 37//37 35//35 36//36
f 37//37 36//36 38//38
f 39//39 37//37 38//38
f 39//39 38//38 40//40
f 41//41 39//39 40//40
f 41//41 40//40 42//42
f 41//41 42//42 43//43
f 43//43 42//42 44//44
f 45//45 43//43 44//44
f 45//45 44//44 46//46
f 47//47 45//45 46//46
f 48//48 45//45 47//47
f 48//48 47//47 49//49
f 50//50 48//48 49//49
f 50//50 49//49 51//51
f 52//52 50//50 51//51
f 52//52 51//51 53//53
f 54//54 52//52 53//53
f 55//55 54//54 53//53
f 55//55 53//53 56//56
f 55//55 56//56 57//57
f 57//57 56//56 58//58
f 57//57 58//58 59//59
f 59//59 58//58 60//60
f 59//59 60//60 61//61
f 61//61 60//60 62//62
f 61//61 62//62 63//63
f 63//63 62//62 64//64
f 63//63 64//64 65//65
f 65//65 64//64 66//66
f 65//65 66//66 67//67
f 68//68 67//67 66//66
f 69//69 67//67 68//68
f 69//69 68//68 70//70
f 71//71 69//69 70//70
f 72//72 71//71 73//73
f 74//74 75//75 76//76
f 77//77 74//74 76//76
f 75//75 77//77 76//76
f 78//78 75//75 74//74
f 79//79 75//75 78//78
f 78//78 74//74 80//80
f 81//81 78//78 80//80
f 82//82 78//78 81//81
f 82//82 83//83 78//78
f 83//83 84//84 79//79
f 84//84 85//85 79//79
f 80//80 74//74 86//86
f 87//87 80//80 86//86
f 81//81 80//80 87//87
f 86//86 74//74 88//88
f 88//88 74//74 77//77
f 86//86 88//88 89//89
f 90//90 86//86 89//89
f 87//87 86//86 90//90
f 75//75 91//91 77//77
f 90//90 89//89 92//92
f 90//90 92//92 93//93
f 94//94 90//90 93//93
f 95//95 83//83 82//82
f 95//95 82//82 81//81
f 95//95 81//81 87//87
f 95//95 87//87 90//90
f 95//95 96//96 83//83
f 97//97 91//91 75//75
f 97//97 98//98 91//91
f 97//97 99//99 98//98
f 100//100 95//95 101//101
f 102//102 103//103 104//104
f 102//102 104//104 105//105
f 102//102 105//105 106//106
f 106//106 105//105 107//107
f 108//108 102//102 106//106
f 109//109 102//102 108//108
f 110//110 108//108 106//106
f 111//111 112//112 113//113
f 111//111 113//113 114//114
f 111//111 114//114 115//115
f 111//111 115//115 116//116
f 111//111 116//116 117//117
f 117//117 118//118 111//111
f 118//118 119//119 111//111
f 120//120 111//111 119//119
f 120//120 121//121 111//111
f 121//121 122//122 111//111
f 111//111 122//122 123//123
f 114//114 113//113 124//124
f 124//124 113//113 125//125
f 125//125 113//113 126//126
f 126//126 113//113 127//127
f 127//127 113//113 128//128
f 128//128 113//113 129//129
f 129//129 113//113 130//130
f 130//130 113//113 131//131
f 131//131 113//113 132//132
f 132//132 113//113 133//133
f 133//133 113//113 134//134
f 133//133 134//134 135//135
f 135//135 134//134 136//136
f 134//134 137//137 136//136
f 137//137 134//134 138//138
f 138//138 134//134 139//139
f 139//139 134//134 140//140
f 140//140 134//134 141//141
f 134//134 142//142 141//141
f 134//134 143//143 142//142
f 134//134 144//144 143//143
f 144//144 134//134 145//145
f 145//145 134//134 146//146
f 147//147 134//134 148//148
f 149//149 150//150 151//151
f 149//149 152//152 150//150
f 151//151 150//150 153//153
f 151//151 153//153 154//154
f 154//154 153//153 155//155
f 154//154 155//155 156//156
f 152//152 157//157 150//150
f 158//158 159//159 160//160
f 161//161 159//159 158//158
f 162//162 159//159 161//161
f 163//163 162//162 161//161
f 164//164 162//162 163//163
f 165//165 162//162 164//164
f 9//9 166//166 8//8
f 166//166 9//9 167//167
f 168//168 169//169 170//170
f 168//168 171//171 169//169
f 172//172 169//169 173//173
f 174//174 169//169 172//172
f 169//169 174//174 175//175
f 176//176 169//169 175//175
f 177//177 169//169 176//176
f 178//178 169//169 177//177
f 178//178 179//179 169//169
f 179//179 180//180 169//169
f 180//180 181//181 169//169
f 182//182 181//181 180//180
f 182//182 183//183 181//181
f 183//183 184//184 181//181
f 184//184 185//185 181//181
f 185//185 186//186 181//181
f 186//186 187//187 181//181
f 187//187 188//188 181//181
f 188//188 189//189 181//181
f 181//181 189//189 190//190
f 181//181 190//190 191//191
f 192//192 181//181 191//191
f 193//193 181//181 192//192
f 194//194 181//181 193//193
f 195//195 181//181 194//194
f 195//195 196//196 181//181
f 196//196 197//197 198//198
f 196//196 198//198 199//199
f 199//199 200//200 196//196
f 196//196 200//200 201//201
f 201//201 202//202 196//196
f 196//196 202//202 203//203
f 196//196 203//203 204//204
f 205//205 196//196 206//206
f 207//207 196//196 205//205
