v 107.0585 90.00002 -7.083642
v 107.0585 49.99998 -7.083645
v 107.0585 90.00002 -7.083642
v 107.0585 90.00002 -7.083641
v 104.5376 90.00002 -4.55377
v 103.5292 90.00002 -3.54182
v 103.5292 90.00002 -3.54182
v 103.5292 49.99998 -3.541824
v 103.5292 9.999943 -3.541826
v 103.3012 90.00002 -3.63582
v 101.4765 9.999943 -4.387826
v 103.2728 90.00002 -3.647501
v 101.2214 9.999943 -4.492952
v 103.2649 90.00002 -3.650781
v 101.1498 9.999943 -4.522468
v 103.1754 90.00002 -3.687638
v 100.3449 9.999943 -4.854183
v 102.0728 90.00002 -4.142058
v 100.2224 9.999943 -4.904674
v 101.0274 90.00002 -4.572906
v 100.9071 90.00002 -4.622471
v 100.0929 9.999943 -4.958052
v 100.6563 90.00002 -4.72585
v 100.065 9.999943 -4.969539
v 99.9911 90.00002 -4.999997
v 99.9911 9.999943 -5.000001
v 99.80318 90.00002 -4.921764
v 98.95634 9.999943 -4.569225
v 98.29984 9.999943 -4.295922
v 99.75656 90.00002 -4.902353
v 97.8802 9.999943 -4.121231
v 99.74268 90.00002 -4.896577
v 97.75532 9.999943 -4.069242
v 99.63781 90.00002 -4.85292
v 96.81147 9.999943 -3.67632
v 98.43465 90.00002 -4.352045
v 96.67779 9.999943 -3.620667
v 97.44066 90.00002 -3.938245
v 96.56734 9.999943 -3.574689
v 96.45818 90.00002 -3.529237
v 96.45818 9.999943 -3.529243
v 96.41319 90.00002 -3.420055
v 96.0532 9.999943 -2.546601
v 96.31236 90.00002 -3.175424
v 95.14583 9.999943 -0.3449202
v 96.03109 90.00002 -2.492942
v 95.9186 90.00002 -2.220006
v 95.10207 9.999943 -0.2387621
v 95.53505 90.00002 -1.289337
v 95.05946 9.999943 -0.1353566
v 95.21923 90.00002 -0.5230327
v 95.02437 9.999943 -0.05020911
v 95.00001 90.00002 0.008897415
v 95.00001 9.999943 0.008891679
v 95.00001 9.999943 0.00889303
v 95.08742 90.00002 0.21887
v 95.78671 9.999943 1.898648
v 95.11314 90.00002 0.2806738
v 96.01827 9.999943 2.454875
v 95.11577 90.00002 0.2869836
v 96.04191 9.999943 2.511658
v 95.11699 90.00002 0.2899088
v 96.05287 9.999943 2.53799
v 95.11853 90.00002 0.2936072
v 96.06673 9.999943 2.57127
v 95.14708 90.00002 0.3621897
v 96.32369 9.999943 3.188524
v 96.47076 90.00002 3.541819
v 96.47076 9.999943 3.541817
v 96.47076 90.00002 3.541822
v 96.47076 9.999943 3.541817
v 96.47076 90.00002 3.541822
v 96.47076 90.00002 3.541822
v 95.46241 90.00002 4.553771
v 92.94152 90.00002 7.083643
v 92.94153 90.00002 7.083643
v 92.94153 90.00002 7.083642
v 96.47076 90.00002 3.541822
v 96.47076 90.00002 3.541822
v 96.47076 90.00002 3.541822
v 96.47076 9.999943 3.541817
v 96.47076 9.999943 3.541817
v 96.47076 9.999943 3.541817
v 96.47076 90.00002 3.541822
v 90.00001 90.00002 0.01779483
v 96.47076 90.00002 3.541822
v 96.47076 9.999943 3.541817
v 96.47076 90.00002 3.541822
v 96.47076 49.99998 3.54182
v 96.47076 9.999943 3.541817
v 92.94153 49.99998 7.08364
v 96.47076 9.999985 3.541818
v 96.47076 9.999943 3.541818
v 95.46241 9.999943 4.553765
v 90.00002 9.99995 0.01778943
v 96.47076 9.999943 3.541817
v 90.00001 90.00002 0.01779483
v 92.94153 9.999943 7.083637
v 90.00002 9.99995 0.01778943
v 95.00001 9.999943 0.00889303
v 95.00001 9.999943 0.008891679
v 107.0585 49.99998 -7.083645
v 107.0585 90.00002 -7.083642
v 107.0585 90.00002 -7.083641
v 104.5376 90.00002 -4.55377
v 103.5292 49.99998 -3.541824
v 103.5292 90.00002 -3.54182
v 104.9911 9.999943 -5.008897
v 107.0585 9.999943 -7.083648
v 103.5292 9.999943 -3.541826
v 107.0585 90.00002 -7.083642
v 99.98221 90.00002 -9.99999
v 92.91636 90.00002 -7.058477
v 99.9911 90.00002 -4.999997
v 100.6563 90.00002 -4.72585
v 100.9071 90.00002 -4.622471
v 101.0274 90.00002 -4.572906
v 102.0728 90.00002 -4.142058
v 103.1754 90.00002 -3.687638
v 103.2649 90.00002 -3.650781
v 103.2728 90.00002 -3.647501
v 103.3012 90.00002 -3.63582
v 103.5292 90.00002 -3.54182
v 99.80318 90.00002 -4.921764
v 99.75656 90.00002 -4.902353
v 99.74268 90.00002 -4.896577
v 99.63781 90.00002 -4.85292
v 98.43465 90.00002 -4.352045
v 97.44066 90.00002 -3.938245
v 96.45818 90.00002 -3.529237
v 96.41319 90.00002 -3.420055
v 96.31236 90.00002 -3.175424
v 96.03109 90.00002 -2.492942
v 90.00001 90.00002 0.01779483
v 95.9186 90.00002 -2.220006
v 95.53505 90.00002 -1.289337
v 95.21923 90.00002 -0.5230327
v 95.00001 90.00002 0.008897415
v 95.08742 90.00002 0.21887
v 95.11314 90.00002 0.2806738
v 95.11577 90.00002 0.2869836
v 95.11699 90.00002 0.2899088
v 95.11853 90.00002 0.2936072
v 95.14708 90.00002 0.3621897
v 96.47076 90.00002 3.541819
v 96.47076 90.00002 3.541822
v 96.47076 90.00002 3.541822
v 92.94152 90.00002 7.083643
v 107.0585 90.00002 -7.083642
v 99.98221 9.99995 -9.999995
v 99.98221 90.00002 -9.99999
v 107.0585 49.99998 -7.083645
v 92.91636 9.99995 -7.058482
v 92.91636 90.00002 -7.058477
v 90.00002 9.99995 0.01778943
v 90.00001 90.00002 0.01779483
v 107.0585 9.999943 -7.083648
v 92.94153 90.00002 7.083642
v 96.47076 49.99998 3.54182
v 96.47076 90.00002 3.541822
v 92.94153 49.99998 7.08364
v 96.47076 9.999985 3.541818
v 92.94153 9.999943 7.083637
v 95.46241 9.999943 4.553765
v 96.47076 9.999943 3.541818
v 103.5292 9.999943 -3.541826
v 99.98221 9.99995 -9.999995
v 104.9911 9.999943 -5.008897
v 99.98221 9.99995 -9.999995
v 107.0585 9.999943 -7.083648
v 103.5292 9.999943 -3.541826
v 101.4765 9.999943 -4.387826
v 103.5292 9.999943 -3.541826
v 101.2214 9.999943 -4.492952
v 101.1498 9.999943 -4.522468
v 100.3449 9.999943 -4.854183
v 100.2224 9.999943 -4.904674
v 100.0929 9.999943 -4.958052
v 100.065 9.999943 -4.969539
v 99.9911 9.999943 -5.000001
v 92.91636 9.99995 -7.058482
v 98.95634 9.999943 -4.569225
v 98.29984 9.999943 -4.295922
v 97.8802 9.999943 -4.121231
v 97.75532 9.999943 -4.069242
v 96.81147 9.999943 -3.67632
v 96.67779 9.999943 -3.620667
v 96.56734 9.999943 -3.574689
v 96.45818 9.999943 -3.529243
v 96.0532 9.999943 -2.546601
v 95.14583 9.999943 -0.3449202
v 95.10207 9.999943 -0.2387621
v 95.05946 9.999943 -0.1353566
v 95.02437 9.999943 -0.05020911
v 95.00001 9.999943 0.008891679
v 90.00002 9.99995 0.01778943
v 95.00001 9.999943 0.00889303
v 95.78671 9.999943 1.898648
v 96.01827 9.999943 2.454875
v 96.04191 9.999943 2.511658
v 96.05287 9.999943 2.53799
v 96.06673 9.999943 2.57127
v 96.32369 9.999943 3.188524
v 96.47076 9.999943 3.541817
v 95.46241 9.999943 4.553765
v 96.47076 9.999943 3.541817
v 92.94153 9.999943 7.083637

vn 0.7058474 5.340572E-07 -0.708364
vn 0.7058474 3.814694E-07 -0.708364
vn 0.5359193 0.6507913 -0.53783
vn 0 1 0
vn 0 1 0
vn -0.3810343 -6.462383E-08 0.9245609
vn -0.6987534 0.141421 0.7012447
vn 0.5203182 -1.883212E-07 0.8539724
vn -0.3810385 -3.424387E-07 0.9245591
vn -0.3810394 -3.013172E-07 0.9245589
vn -0.381039 -3.400592E-07 0.9245589
vn -0.3810381 -4.236429E-07 0.9245594
vn -0.3810371 -4.821552E-07 0.9245597
vn -0.3810425 1.095606E-07 0.9245576
vn -0.3810399 -1.780023E-07 0.9245586
vn -0.3810394 -2.260704E-07 0.9245588
vn -0.3810396 -2.089216E-07 0.9245588
vn -0.3810396 -2.077588E-07 0.9245587
vn -0.3810393 -2.217208E-07 0.9245588
vn -0.3810397 -2.409156E-07 0.9245588
vn -0.3810386 -2.351288E-07 0.9245592
vn -0.3810371 -2.778156E-07 0.9245597
vn -0.3810391 -1.673258E-07 0.9245589
vn -0.38104 -1.811419E-07 0.9245586
vn -0.2372265 -1.839746E-07 0.9714544
vn 0.3462469 -2.087927E-07 0.9381434
vn 0.3843289 -2.638545E-07 0.9231963
vn 0.3843281 -2.243663E-07 0.9231965
vn 0.3843278 -2.046673E-07 0.9231967
vn 0.3843259 -5.134434E-08 0.9231976
vn 0.3843247 3.311141E-08 0.923198
vn 0.3843231 2.493531E-07 0.9231986
vn 0.3843257 -1.725448E-08 0.9231976
vn 0.3843268 -1.95488E-07 0.923197
vn 0.3843274 -2.545912E-07 0.923197
vn 0.3843274 -3.133276E-07 0.9231968
vn 0.3843264 -2.147517E-07 0.9231972
vn 0.384327 -2.354086E-07 0.9231971
vn 0.3843281 -2.762392E-07 0.9231966
vn 0.4442576 -2.850269E-07 0.8958991
vn 0.8974045 -1.199789E-07 0.441209
vn 0.9245584 -7.869002E-08 0.3810402
vn 0.9245589 -1.061353E-07 0.3810393
vn 0.9245592 -1.468234E-07 0.3810386
vn 0.9245591 -1.18347E-07 0.3810386
vn 0.9245589 -1.005928E-07 0.381039
vn 0.9245587 2.558145E-08 0.3810395
vn 0.9245589 -4.388408E-08 0.3810391
vn 0.9245588 -2.142637E-08 0.3810395
vn 0.9245589 -1.39089E-08 0.3810391
vn 0.9245589 -6.971242E-09 0.3810392
vn 0.9245587 1.713521E-09 0.3810396
vn 0.9815183 6.568339E-08 0.1913686
vn 0.9245499 3.749556E-09 0.3810611
vn 0.9231973 1.50355E-07 -0.3843264
vn 0.9231967 1.053244E-07 -0.3843275
vn 0.9231967 6.84602E-08 -0.384328
vn 0.9231961 -3.948485E-08 -0.3843291
vn 0.923197 1.617077E-07 -0.3843272
vn 0.9231977 4.500968E-07 -0.3843257
vn 0.9231986 7.290805E-07 -0.3843231
vn 0.923216 6.344963E-06 -0.3842814
vn 0.9232051 2.762223E-06 -0.3843076
vn 0.9231942 -5.911333E-07 -0.3843339
vn 0.9231958 -2.018595E-07 -0.3843302
vn 0.9231968 1.357495E-07 -0.3843274
vn 0.923197 1.613505E-07 -0.3843269
vn 0.9231972 1.611312E-07 -0.3843266
vn 0.9231991 9.115076E-08 -0.384322
vn 0.9745327 9.305477E-08 -0.2242454
vn 0.7058474 1.907347E-07 -0.708364
vn 0.7058474 1.907347E-07 -0.708364
vn 0.7058474 1.907347E-07 -0.708364
vn 0 1 0
vn -0.9231969 -2.936142E-07 0.3843272
vn 0 1 0
vn 0.6106243 -1.677742E-07 0.7919205
vn 0.4584223 0.7603924 -0.4600568
vn 0.397638 0.8262195 -0.3990557
vn 0.7040636 0.0710492 -0.7065738
vn 0.7058474 1.90735E-07 -0.708364
vn 0.7058474 1.907347E-07 -0.708364
vn 0.7058474 1.907343E-07 -0.708364
vn 0.702093 0.1030029 -0.7045962
vn 0 1 0
vn 0.7057949 0.01266336 -0.7083031
vn 0.7058474 1.907357E-07 -0.708364
vn 0.6987532 0.1414215 -0.7012445
vn 0.7058427 1.907357E-07 -0.7083687
vn 0.7045695 -0.06004161 -0.7070904
vn -0.9231969 -2.232892E-07 0.3843272
vn 0.7058306 1.907375E-07 -0.7083806
vn 4.900526E-06 -1 -4.917998E-06
vn 0 -1 0
vn -3.057182E-07 -1 -3.046321E-07
vn 0 0 0
vn -0.923197 -2.130985E-07 0.3843272
vn -0.923197 -1.778031E-07 0.3843272
vn -0.923197 -2.029077E-07 0.3843272
vn -3.057182E-07 -1 -3.046321E-07
vn -3.057182E-07 -1 -3.046321E-07
vn 0.708364 -1.192093E-07 0.7058474
vn 0.7083639 -1.192092E-07 0.7058473
vn 0.708364 -1.192093E-07 0.7058474
vn 0.708364 -1.192093E-07 0.7058474
vn 0.708364 -1.192093E-07 0.7058474
vn 0.708364 -1.192092E-07 0.7058474
vn 0.708364 -1.192093E-07 0.7058474
vn 0.708364 -1.192093E-07 0.7058474
vn 0.708364 -1.192093E-07 0.7058474
vn 0 1 0
vn 0 1 0
vn 0 1 0
vn 0 1 0
vn 0 1 0
vn 0 1 0
vn 0 1 0
vn 0 1 0
vn 0 1 0
vn 0 1 0
vn 0 1 0
vn 0 1 0
vn 0 1 0
vn 0 0.9999999 0
vn 0 1 0
vn 0 1 0
vn 0 0.9999999 0
vn 0 1 0
vn 0 1 0
vn 0 1 0
vn 0 0.9999999 0
vn 0 1 0
vn 0 1 0
vn 0 1 0
vn 0 1 0
vn 0 1 0
vn 0 1 0
vn 0 1 0
vn 0 1 0
vn 0 1 0
vn 0 1 0
vn 0 0.9999999 0
vn 0 1 0
vn 0 0.9999999 0
vn 0 0.9999999 0
vn 0 1 0
vn 0 0.9999999 0
vn 0 0.9999999 0
vn 0.381039 3.42789E-07 -0.9245591
vn 0.1350107 3.092419E-07 -0.9908441
vn -0.1385363 2.619401E-07 -0.9903573
vn 0.3810389 3.23738E-07 -0.9245589
vn -0.6051657 1.531119E-07 -0.7960995
vn -0.7982483 7.358348E-08 -0.6023286
vn -0.9245589 7.245398E-09 -0.381039
vn -0.9245589 0 -0.381039
vn 0.3810391 2.570785E-07 -0.9245589
vn 0.708364 -1.192093E-07 0.7058474
vn 0.708364 -1.192093E-07 0.7058474
vn 0.708364 -1.192093E-07 0.7058474
vn 0.708364 -1.192093E-07 0.7058474
vn 0.708364 -1.192093E-07 0.7058474
vn 0.708364 -1.192093E-07 0.7058474
vn 0.708364 -1.283792E-07 0.7058474
vn 0.7083639 -1.283792E-07 0.7058473
vn -0.6911795 -0.2028032 0.6936438
vn 5.200393E-07 -1 -5.218934E-07
vn -1.528591E-07 -0.9999999 -1.52316E-07
vn -8.6751E-08 -1 -2.439865E-07
vn -1.528591E-07 -1 -1.52316E-07
vn -1.528591E-07 -1 -1.52316E-07
vn 1.258646E-07 -1 -3.054001E-07
vn 1.258647E-07 -1 -3.054001E-07
vn 1.25864E-07 -1 -3.053999E-07
vn 1.258649E-07 -1 -3.054001E-07
vn 1.25865E-07 -1 -3.054001E-07
vn 1.258643E-07 -0.9999999 -3.054001E-07
vn 1.258621E-07 -1 -3.054E-07
vn 1.258674E-07 -0.9999999 -3.054001E-07
vn -1.246682E-07 -1 -3.049542E-07
vn -2.161755E-07 -1 -2.154075E-07
vn -1.26951E-07 -1 -3.049497E-07
vn -1.269507E-07 -1 -3.049501E-07
vn -1.269504E-07 -1 -3.049508E-07
vn -1.269506E-07 -1 -3.049504E-07
vn -1.269507E-07 -1 -3.049504E-07
vn -1.269507E-07 -1 -3.049503E-07
vn -1.269512E-07 -1 -3.049499E-07
vn -2.87534E-07 -1 -1.437944E-07
vn -3.054002E-07 -1 -1.258647E-07
vn -3.054003E-07 -1 -1.258646E-07
vn -3.053995E-07 -1 -1.258648E-07
vn -3.054013E-07 -1 -1.258643E-07
vn -3.054004E-07 -1 -1.258645E-07
vn -3.054E-07 -1 -1.258647E-07
vn -2.442937E-07 -1 -8.58821E-08
vn -3.049503E-07 -1 1.269509E-07
vn -3.049504E-07 -1 1.269511E-07
vn -3.049505E-07 -1 1.269515E-07
vn -3.049477E-07 -1 1.269447E-07
vn -3.049509E-07 -1 1.269521E-07
vn -3.049506E-07 -1 1.269516E-07
vn -3.049499E-07 -1 1.269503E-07
vn -3.049493E-07 -0.9999999 1.269492E-07
vn -1.528591E-07 -1 -1.52316E-07
vn -1.528591E-07 -1 -1.52316E-07
vn -1.528591E-07 -0.9999999 -1.52316E-07

f 1//1 2//2 3//3
f 4//4 1//1 3//3
f 3//3 5//5 4//4
f 3//3 6//6 5//5
f 5//5 6//6 7//7
f 8//8 7//7 6//6
f 9//9 8//8 6//6
f 10//10 9//9 6//6
f 9//9 10//10 11//11
f 11//11 10//10 12//12
f 13//13 11//11 12//12
f 13//13 12//12 14//14
f 13//13 14//14 15//15
f 15//15 14//14 16//16
f 15//15 16//16 17//17
f 18//18 17//17 16//16
f 19//19 17//17 18//18
f 19//19 18//18 20//20
f 21//21 19//19 20//20
f 22//22 19//19 21//21
f 22//22 21//21 23//23
f 24//24 22//22 23//23
f 24//24 23//23 25//25
f 26//26 24//24 25//25
f 26//26 25//25 27//27
f 28//28 26//26 27//27
f 28//28 27//27 29//29
f 29//29 27//27 30//30
f 31//31 29//29 30//30
f 31//31 30//30 32//32
f 33//33 31//31 32//32
f 33//33 32//32 34//34
f 35//35 33//33 34//34
f 35//35 34//34 36//36
f 37//37 35//35 36//36
f 37//37 36//36 38//38
f 39//39 37//37 38//38
f 39//39 38//38 40//40
f 41//41 39//39 40//40
f 41//41 40//40 42//42
f 41//41 42//42 43//43
f 43//43 42//42 44//44
f 45//45 43//43 44//44
f 45//45 44//44 46//46
f 47//47 45//45 46//46
f 48//48 45//45 47//47
f 48//48 47//47 49//49
f 50//50 48//48 49//49
f 50//50 49//49 51//51
f 52//52 50//50 51//51
f 52//52 51//51 53//53
f 54//54 52//52 53//53
f 55//55 54//54 53//53
f 55//55 53//53 56//56
f 55//55 56//56 57//57
f 57//57 56//56 58//58
f 57//57 58//58 59//59
f 59//59 58//58 60//60
f 59//59 60//60 61//61
f 61//61 60//60 62//62
f 61//61 62//62 63//63
f 63//63 62//62 64//64
f 63//63 64//64 65//65
f 65//65 64//64 66//66
f 65//65 66//66 67//67
f 68//68 67//67 66//66
f 69//69 67//67 68//68
f 69//69 68//68 70//70
f 71//71 69//69 70//70
f 72//72 71//71 73//73
f 74//74 75//75 76//76
f 77//77 74//74 76//76
f 75//75 77//77 76//76
f 78//78 75//75 74//74
f 79//79 75//75 78//78
f 78//78 74//74 80//80
f 81//81 78//78 80//80
f 82//82 78//78 81//81
f 82//82 83//83 78//78
f 83//83 84//84 79//79
f 84//84 85//85 79//79
f 80//80 74//74 86//86
f 87//87 80//80 86//86
f 81//81 80//80 87//87
f 86//86 74//74 88//88
f 88//88 74//74 77//77
f 86//86 88//88 89//89
f 90//90 86//86 89//89
f 87//87 86//86 90//90
f 75//75 91//91 77//77
f 90//90 89//89 92//92
f 90//90 92//92 93//93
f 94//94 90//90 93//93
f 95//95 83//83 82//82
f 95//95 82//82 81//81
f 95//95 81//81 87//87
f 95//95 87//87 90//90
f 95//95 96//96 83//83
f 97//97 91//91 75//75
f 97//97 98//98 91//91
f 97//97 99//99 98//98
f 100//100 95//95 101//101
f 102//102 103//103 104//104
f 102//102 104//104 105//105
f 102//102 105//105 106//106
f 106//106 105//105 107//107
f 108//108 102//102 106//106
f 109//109 102//102 108//108
f 110//110 108//108 106//106
f 111//111 112//112 113//113
f 111//111 113//113 114//114
f 111//111 114//114 115//115
f 111//111 115//115 116//116
f 111//111 116//116 117//117
f 117//117 118//118 111//111
f 118//118 119//119 111//111
f 120//120 111//111 119//119
f 120//120 121//121 111//111
f 121//121 122//122 111//111
f 111//111 122//122 123//123
f 114//114 113//113 124//124
f 124//124 113//113 125//125
f 125//125 113//113 126//126
f 126//126 113//113 127//127
f 127//127 113//113 128//128
f 128//128 113//113 129//129
f 129//129 113//113 130//130
f 130//130 113//113 131//131
f 131//131 113//113 132//132
f 132//132 113//113 133//133
f 133//133 113//113 134//134
f 133//133 134//134 135//135
f 135//135 134//134 136//136
f 134//134 137//137 136//136
f 137//137 134//134 138//138
f 138//138 134//134 139//139
f 139//139 134//134 140//140
f 140//140 134//134 141//141
f 134//134 142//142 141//141
f 134//134 143//143 142//142
f 134//134 144//144 143//143
f 144//144 134//134 145//145
f 145//145 134//134 146//146
f 147//147 134//134 148//148
f 149//149 150//150 151//151
f 149//149 152//152 150//150
f 151//151 150//150 153//153
f 151//151 153//153 154//154
f 154//154 153//153 155//155
f 154//154 155//155 156//156
f 152//152 157//157 150//150
f 158//158 159//159 160//160
f 161//161 159//159 158//158
f 162//162 159//159 161//161
f 163//163 162//162 161//161
f 164//164 162//162 163//163
f 165//165 162//162 164//164
f 9//9 166//166 8//8
f 166//166 9//9 167//167
f 168//168 169//169 170//170
f 168//168 171//171 169//169
f 172//172 169//169 173//173
f 174//174 169//169 172//172
f 169//169 174//174 175//175
f 176//176 169//169 175//175
f 177//177 169//169 176//176
f 178//178 169//169 177//177
f 178//178 179//179 169//169
f 179//179 180//180 169//169
f 180//180 181//181 169//169
f 182//182 181//181 180//180
f 182//182 183//183 181//181
f 183//183 184//184 181//181
f 184//184 185//185 181//181
f 185//185 186//186 181//181
f 186//186 187//187 181//181
f 187//187 188//188 181//181
f 188//188 189//189 181//181
f 181//181 189//189 190//190
f 181//181 190//190 191//191
f 192//192 181//181 191//191
f 193//193 181//181 192//192
f 194//194 181//181 193//193
f 195//195 181//181 194//194
f 195//195 196//196 181//181
f 196//196 197//197 198//198
f 196//196 198//198 199//199
f 199//199 200//200 196//196
f 196//196 200//200 201//201
f 201//201 202//202 196//196
f 196//196 202//202 203//203
f 196//196 203//203 204//204
f 205//205 196//196 206//206
f 207//207 196//196 205//205
