v 12.19386 59.99972 37.69899
v 24.94643 59.99972 24.94642
v 12.19386 59.99972 37.69899
v 12.19386 59.99972 37.69899
v 12.213 56.42839 37.71812
v 12.22065 54.99986 37.72578
v 12.22065 54.99986 37.72578
v 24.97322 54.99986 24.97321
v 37.72579 54.99986 12.22064
v 12.06 54.90373 37.56513
v 36.27994 54.1347 10.77479
v 12.04004 54.89178 37.54517
v 36.10027 54.02719 10.59512
v 12.03443 54.88843 37.53956
v 36.04983 53.99701 10.54468
v 11.97144 54.85074 37.47657
v 35.48291 53.65778 9.977761
v 11.19482 54.38602 36.69994
v 35.39662 53.60614 9.89147
v 10.45848 53.94542 35.96361
v 10.37377 53.89473 35.8789
v 35.30539 53.55155 9.800243
v 10.1971 53.78901 35.70222
v 35.28576 53.5398 9.780613
v 9.728566 53.50865 35.23369
v 35.2337 53.50865 9.728553
v 9.674495 53.32001 35.17962
v 34.93596 52.4699 9.430809
v 34.74706 51.81087 9.241907
v 9.661079 53.2732 35.16621
v 34.62631 51.38962 9.121162
v 9.657086 53.25927 35.16221
v 34.59038 51.26426 9.085229
v 9.62691 53.154 35.13203
v 34.31879 50.31678 8.813646
v 9.280715 51.94621 34.78584
v 34.28033 50.18258 8.775179
v 8.994701 50.94838 34.49983
v 34.24855 50.07171 8.743401
v 8.712004 49.96212 34.21713
v 34.21714 49.96212 8.71199
v 8.744543 49.85336 34.24967
v 34.50999 48.98331 9.004839
v 8.817448 49.60968 34.32257
v 35.16614 46.79022 9.660991
v 9.020844 48.92987 34.52597
v 9.102184 48.65799 34.60731
v 35.19778 46.68447 9.692629
v 9.379545 47.73095 34.88467
v 35.2286 46.58147 9.723446
v 9.607921 46.96764 35.11305
v 35.25397 46.49665 9.748822
v 9.766448 46.43778 35.27158
v 35.27158 46.43778 9.766435
v 35.27158 46.43778 9.766435
v 9.915493 46.35234 35.42062
v 36.61299 45.66879 11.10784
v 9.959364 46.32719 35.46449
v 37.00782 45.44245 11.50267
v 9.963842 46.32462 35.46897
v 37.04812 45.41934 11.54297
v 9.965919 46.32343 35.47105
v 37.06681 45.40863 11.56166
v 9.968543 46.32192 35.47367
v 37.09044 45.39509 11.58529
v 10.01723 46.29402 35.52235
v 37.52858 45.14391 12.02343
v 12.27422 45.00014 37.77935
v 37.77936 45.00014 12.27421
v 12.27422 45.00014 37.77935
v 37.77936 45.00014 12.27421
v 12.27422 45.00014 37.77935
v 12.27422 45.00014 37.77935
v 12.28188 43.57161 37.787
v 12.30101 40.00028 37.80614
v 12.30101 40.00028 37.80614
v 12.30101 40.00028 37.80614
v 12.27422 45.00014 37.77935
v 12.27422 45.00014 37.77935
v 12.27422 45.00014 37.77935
v 37.77936 45.00014 12.27421
v 37.77936 45.00014 12.27421
v 37.77936 45.00014 12.27421
v 12.27422 45.00014 37.77935
v 7.28546 42.87556 32.79058
v 12.27422 45.00014 37.77935
v 37.77936 45.00014 12.27421
v 12.27422 45.00014 37.77935
v 25.02679 45.00014 25.02678
v 37.77936 45.00014 12.27421
v 25.05358 40.00029 25.05357
v 37.77935 45.00014 12.27422
v 37.77936 45.00014 12.27421
v 37.78701 43.57162 12.28186
v 32.7906 42.87556 7.285448
v 37.77936 45.00014 12.27421
v 7.28546 42.87556 32.79058
v 37.80615 40.00029 12.301
v 32.7906 42.87556 7.285448
v 35.27158 46.43778 9.766435
v 35.27158 46.43778 9.766435
v 24.94643 59.99972 24.94642
v 12.19386 59.99972 37.69899
v 12.19386 59.99972 37.69899
v 12.213 56.42839 37.71812
v 24.97322 54.99986 24.97321
v 12.22065 54.99986 37.72578
v 37.71469 57.07087 12.20954
v 37.699 59.99973 12.19385
v 37.72579 54.99986 12.22064
v 12.19386 59.99972 37.69899
v 7.209696 57.0173 32.71482
v 5.176569 49.92424 30.6817
v 9.728566 53.50865 35.23369
v 10.1971 53.78901 35.70222
v 10.37377 53.89473 35.8789
v 10.45848 53.94542 35.96361
v 11.19482 54.38602 36.69994
v 11.97144 54.85074 37.47657
v 12.03443 54.88843 37.53956
v 12.04004 54.89178 37.54517
v 12.06 54.90373 37.56513
v 12.22065 54.99986 37.72578
v 9.674495 53.32001 35.17962
v 9.661079 53.2732 35.16621
v 9.657086 53.25927 35.16221
v 9.62691 53.154 35.13203
v 9.280715 51.94621 34.78584
v 8.994701 50.94838 34.49983
v 8.712004 49.96212 34.21713
v 8.744543 49.85336 34.24967
v 8.817448 49.60968 34.32257
v 9.020844 48.92987 34.52597
v 7.28546 42.87556 32.79058
v 9.102184 48.65799 34.60731
v 9.379545 47.73095 34.88467
v 9.607921 46.96764 35.11305
v 9.766448 46.43778 35.27158
v 9.915493 46.35234 35.42062
v 9.959364 46.32719 35.46449
v 9.963842 46.32462 35.46897
v 9.965919 46.32343 35.47105
v 9.968543 46.32192 35.47367
v 10.01723 46.29402 35.52235
v 12.27422 45.00014 37.77935
v 12.27422 45.00014 37.77935
v 12.27422 45.00014 37.77935
v 12.30101 40.00028 37.80614
v 12.19386 59.99972 37.69899
v 32.71483 57.0173 7.209682
v 7.209696 57.0173 32.71482
v 24.94643 59.99972 24.94642
v 30.6817 49.92424 5.176558
v 5.176569 49.92424 30.6817
v 32.7906 42.87556 7.285448
v 7.28546 42.87556 32.79058
v 37.699 59.99973 12.19385
v 12.30101 40.00028 37.80614
v 25.02679 45.00014 25.02678
v 12.27422 45.00014 37.77935
v 25.05358 40.00029 25.05357
v 37.77935 45.00014 12.27422
v 37.80615 40.00029 12.301
v 37.78701 43.57162 12.28186
v 37.77936 45.00014 12.27421
v 37.72579 54.99986 12.22064
v 32.71483 57.0173 7.209682
v 37.71469 57.07087 12.20954
v 32.71483 57.0173 7.209682
v 37.699 59.99973 12.19385
v 37.72579 54.99986 12.22064
v 36.27994 54.1347 10.77479
v 37.72579 54.99986 12.22064
v 36.10027 54.02719 10.59512
v 36.04983 53.99701 10.54468
v 35.48291 53.65778 9.977761
v 35.39662 53.60614 9.89147
v 35.30539 53.55155 9.800243
v 35.28576 53.5398 9.780613
v 35.2337 53.50865 9.728553
v 30.6817 49.92424 5.176558
v 34.93596 52.4699 9.430809
v 34.74706 51.81087 9.241907
v 34.62631 51.38962 9.121162
v 34.59038 51.26426 9.085229
v 34.31879 50.31678 8.813646
v 34.28033 50.18258 8.775179
v 34.24855 50.07171 8.743401
v 34.21714 49.96212 8.71199
v 34.50999 48.98331 9.004839
v 35.16614 46.79022 9.660991
v 35.19778 46.68447 9.692629
v 35.2286 46.58147 9.723446
v 35.25397 46.49665 9.748822
v 35.27158 46.43778 9.766435
v 32.7906 42.87556 7.285448
v 35.27158 46.43778 9.766435
v 36.61299 45.66879 11.10784
v 37.00782 45.44245 11.50267
v 37.04812 45.41934 11.54297
v 37.06681 45.40863 11.56166
v 37.09044 45.39509 11.58529
v 37.52858 45.14391 12.02343
v 37.77936 45.00014 12.27421
v 37.78701 43.57162 12.28186
v 37.77936 45.00014 12.27421
v 37.80615 40.00029 12.301

vn -0.005357673 0.9999713 -0.005356977
vn -0.005357565 0.9999713 -0.005357085
vn -0.4642465 0.7592348 0.4561114
vn -0.7071068 2.980232E-08 0.7071068
vn -0.7071068 2.980232E-08 0.7071068
vn 0.275543 -0.9209518 0.275543
vn -0.09469627 -0.9899213 0.1053032
vn 0.688101 -0.2302918 0.6881007
vn 0.2755402 -0.9209535 0.2755398
vn 0.2755396 -0.9209539 0.2755392
vn 0.2755399 -0.9209538 0.2755394
vn 0.2755406 -0.9209534 0.2755401
vn 0.2755413 -0.9209529 0.2755407
vn 0.2755371 -0.9209552 0.2755373
vn 0.2755392 -0.9209541 0.275539
vn 0.2755395 -0.9209539 0.2755392
vn 0.2755395 -0.920954 0.2755392
vn 0.2755394 -0.920954 0.2755391
vn 0.2755396 -0.9209539 0.2755393
vn 0.2755394 -0.920954 0.2755391
vn 0.2755401 -0.9209536 0.2755398
vn 0.2755412 -0.9209529 0.2755408
vn 0.2755397 -0.9209538 0.2755395
vn 0.2755391 -0.9209542 0.2755389
vn 0.3706113 -0.8516425 0.370611
vn 0.6439001 -0.4132622 0.6438998
vn 0.6553137 -0.3756708 0.6553133
vn 0.6553134 -0.3756715 0.655313
vn 0.6553133 -0.3756718 0.655313
vn 0.6553127 -0.3756738 0.6553127
vn 0.6553122 -0.375675 0.6553123
vn 0.6553116 -0.3756765 0.655312
vn 0.6553126 -0.3756739 0.6553126
vn 0.655313 -0.3756728 0.6553127
vn 0.6553133 -0.3756723 0.6553129
vn 0.6553133 -0.3756722 0.6553128
vn 0.6553129 -0.3756732 0.6553125
vn 0.6553131 -0.3756727 0.6553128
vn 0.6553134 -0.3756715 0.6553131
vn 0.6713764 -0.31386 0.671376
vn 0.6679733 0.3280606 0.6679731
vn 0.651213 0.3896707 0.6512129
vn 0.6512128 0.3896717 0.6512126
vn 0.6512127 0.3896723 0.6512125
vn 0.6512126 0.3896723 0.6512124
vn 0.6512127 0.3896719 0.6512125
vn 0.6512128 0.3896714 0.6512128
vn 0.6512128 0.3896718 0.6512126
vn 0.6512129 0.3896715 0.6512128
vn 0.6512127 0.3896718 0.6512126
vn 0.6512128 0.3896718 0.6512127
vn 0.6512128 0.3896714 0.6512128
vn 0.5841433 0.5635186 0.5841433
vn 0.6512192 0.3896499 0.6512192
vn 0.265641 0.9267522 0.2656412
vn 0.2656402 0.9267526 0.2656403
vn 0.26564 0.9267529 0.26564
vn 0.2656392 0.9267532 0.2656391
vn 0.2656404 0.9267526 0.2656406
vn 0.2656413 0.926752 0.2656419
vn 0.2656429 0.9267508 0.2656438
vn 0.2656686 0.9267339 0.2656775
vn 0.2656525 0.9267446 0.2656564
vn 0.2656362 0.9267553 0.2656353
vn 0.2656386 0.9267538 0.2656383
vn 0.2656403 0.9267526 0.2656404
vn 0.2656406 0.9267524 0.2656408
vn 0.2656408 0.9267523 0.265641
vn 0.2656442 0.9267504 0.2656442
vn 0.3716627 0.8507254 0.3716628
vn -0.00535743 0.9999713 -0.00535722
vn -0.00535743 0.9999713 -0.00535722
vn -0.00535743 0.9999713 -0.00535722
vn -0.7071068 2.980232E-08 0.7071068
vn -0.2656403 -0.9267526 -0.2656406
vn -0.7071068 2.980232E-08 0.7071068
vn 0.7017862 -0.1224445 0.7017859
vn -0.541158 0.6494452 0.5341992
vn -0.5872434 0.5633322 0.5812073
vn -0.05558313 0.9974442 0.04489556
vn -0.00535743 0.9999713 -0.00535722
vn -0.00535743 0.9999713 -0.00535722
vn -0.00535743 0.9999713 -0.00535722
vn -0.07816283 0.9946525 0.06750517
vn -0.7071068 2.980232E-08 0.7071068
vn -0.01430715 0.9998912 0.003601487
vn -0.00535743 0.9999713 -0.00535722
vn -0.1053036 0.9899211 0.0946966
vn -0.005362118 0.9999713 -0.005361907
vn 0.03710376 0.9981672 -0.04780795
vn -0.2656404 -0.9267525 -0.2656406
vn -0.00537415 0.9999712 -0.00537394
vn 0.7071068 6.912754E-06 -0.7071068
vn 0.7071068 -2.980232E-08 -0.7071068
vn 0.7071065 -3.307217E-08 -0.7071071
vn 0 0 0
vn -0.2656404 -0.9267526 -0.2656407
vn -0.2656404 -0.9267526 -0.2656406
vn -0.2656404 -0.9267526 -0.2656406
vn 0.7071065 -3.307217E-08 -0.7071071
vn 0.7071065 -3.307217E-08 -0.7071071
vn 0.7070866 0.007576391 0.7070864
vn 0.7070866 0.007576391 0.7070863
vn 0.7070866 0.007576391 0.7070864
vn 0.7070866 0.007576391 0.7070864
vn 0.7070866 0.007576391 0.7070864
vn 0.7070866 0.007576391 0.7070864
vn 0.7070866 0.007576391 0.7070864
vn 0.7070866 0.007576391 0.7070864
vn 0.7070866 0.007576391 0.7070864
vn -0.7071068 2.980232E-08 0.7071068
vn -0.7071068 2.980232E-08 0.7071068
vn -0.7071068 2.980232E-08 0.7071068
vn -0.7071068 2.980232E-08 0.7071068
vn -0.7071068 2.980232E-08 0.7071068
vn -0.7071068 2.980232E-08 0.7071068
vn -0.7071068 2.980232E-08 0.7071068
vn -0.7071068 2.980232E-08 0.7071068
vn -0.7071068 2.980232E-08 0.7071068
vn -0.7071068 2.980232E-08 0.7071068
vn -0.7071068 2.980232E-08 0.7071068
vn -0.7071068 2.980232E-08 0.7071068
vn -0.7071068 2.980232E-08 0.7071068
vn -0.7071068 2.980232E-08 0.7071068
vn -0.7071068 2.980232E-08 0.7071068
vn -0.7071068 2.980232E-08 0.7071068
vn -0.7071068 2.980232E-08 0.7071068
vn -0.7071068 2.980232E-08 0.7071068
vn -0.7071068 2.980232E-08 0.7071068
vn -0.7071068 2.980232E-08 0.7071068
vn -0.7071068 2.980232E-08 0.7071068
vn -0.7071068 2.980232E-08 0.7071068
vn -0.7071068 2.980232E-08 0.7071068
vn -0.7071068 2.980232E-08 0.7071068
vn -0.7071068 2.980232E-08 0.7071068
vn -0.7071068 2.980232E-08 0.7071068
vn -0.7071068 2.980232E-08 0.7071068
vn -0.7071068 2.980232E-08 0.7071068
vn -0.7071068 2.980232E-08 0.7071068
vn -0.7071068 2.980232E-08 0.7071068
vn -0.7071068 2.980232E-08 0.7071068
vn -0.7071068 2.980232E-08 0.7071068
vn -0.7071068 2.980232E-08 0.7071068
vn -0.7071068 2.980232E-08 0.7071068
vn -0.7071068 2.980232E-08 0.7071068
vn -0.7071068 2.980232E-08 0.7071068
vn -0.7071068 2.980232E-08 0.7071068
vn -0.7071068 2.980232E-08 0.7071068
vn -0.2755399 0.9209538 -0.2755395
vn -0.431173 0.7925781 -0.4311726
vn -0.5669065 0.5976909 -0.5669062
vn -0.2755399 0.9209536 -0.2755395
vn -0.7011744 0.1292645 -0.7011742
vn -0.6997089 -0.1442748 -0.6997088
vn -0.6512126 -0.3896719 -0.6512126
vn -0.6512127 -0.3896719 -0.6512126
vn -0.2755398 0.9209538 -0.2755395
vn 0.7070866 0.007576391 0.7070864
vn 0.7070866 0.007576391 0.7070864
vn 0.7070866 0.007576391 0.7070864
vn 0.7070866 0.007576391 0.7070864
vn 0.7070866 0.007576391 0.7070864
vn 0.7070866 0.007576391 0.7070864
vn 0.7070866 0.007576391 0.7070864
vn 0.7070866 0.007576391 0.7070863
vn 0.1486495 -0.9791914 -0.1381575
vn 0.7071068 7.069353E-07 -0.7071068
vn 0.7071066 -3.143724E-08 -0.7071069
vn 0.7071066 8.002237E-08 -0.7071069
vn 0.7071066 -3.143725E-08 -0.7071069
vn 0.7071066 -3.143725E-08 -0.7071069
vn 0.7071067 2.744067E-07 -0.7071069
vn 0.7071067 2.744069E-07 -0.7071069
vn 0.7071067 2.744063E-07 -0.7071069
vn 0.7071067 2.74407E-07 -0.7071069
vn 0.7071067 2.744071E-07 -0.7071069
vn 0.7071066 2.744066E-07 -0.7071068
vn 0.7071067 2.744049E-07 -0.7071069
vn 0.7071066 2.744088E-07 -0.7071068
vn 0.7071066 9.591593E-08 -0.707107
vn 0.7071066 -3.211445E-08 -0.707107
vn 0.7071066 9.428924E-08 -0.707107
vn 0.7071066 9.428976E-08 -0.707107
vn 0.7071066 9.429048E-08 -0.707107
vn 0.7071066 9.429003E-08 -0.707107
vn 0.7071066 9.428999E-08 -0.707107
vn 0.7071066 9.428986E-08 -0.707107
vn 0.7071066 9.428925E-08 -0.707107
vn 0.7071066 -1.332079E-07 -0.707107
vn 0.7071066 -1.585187E-07 -0.707107
vn 0.7071066 -1.585189E-07 -0.707107
vn 0.7071066 -1.585181E-07 -0.707107
vn 0.7071066 -1.585198E-07 -0.707107
vn 0.7071066 -1.58519E-07 -0.707107
vn 0.7071066 -1.585186E-07 -0.707107
vn 0.7071066 -1.431678E-07 -0.7071069
vn 0.7071067 -3.359271E-07 -0.7071069
vn 0.7071067 -3.359273E-07 -0.7071069
vn 0.7071067 -3.359276E-07 -0.7071069
vn 0.7071067 -3.359209E-07 -0.7071069
vn 0.7071067 -3.359283E-07 -0.7071069
vn 0.7071067 -3.359278E-07 -0.7071069
vn 0.7071067 -3.359264E-07 -0.7071069
vn 0.7071066 -3.359252E-07 -0.7071068
vn 0.7071066 -3.143725E-08 -0.7071069
vn 0.7071066 -3.143726E-08 -0.7071069
vn 0.7071066 -3.143724E-08 -0.7071069

f 1//1 2//2 3//3
f 4//4 1//1 3//3
f 3//3 5//5 4//4
f 3//3 6//6 5//5
f 5//5 6//6 7//7
f 8//8 7//7 6//6
f 9//9 8//8 6//6
f 10//10 9//9 6//6
f 9//9 10//10 11//11
f 11//11 10//10 12//12
f 13//13 11//11 12//12
f 13//13 12//12 14//14
f 13//13 14//14 15//15
f 15//15 14//14 16//16
f 15//15 16//16 17//17
f 18//18 17//17 16//16
f 19//19 17//17 18//18
f 19//19 18//18 20//20
f 21//21 19//19 20//20
f 22//22 19//19 21//21
f 22//22 21//21 23//23
f 24//24 22//22 23//23
f 24//24 23//23 25//25
f 26//26 24//24 25//25
f 26//26 25//25 27//27
f 28//28 26//26 27//27
f 28//28 27//27 29//29
f 29//29 27//27 30//30
f 31//31 29//29 30//30
f 31//31 30//30 32//32
f 33//33 31//31 32//32
f 33//33 32//32 34//34
f 35//35 33//33 34//34
f 35//35 34//34 36//36
f 37//37 35//35 36//36
f 37//37 36//36 38//38
f 39//39 37//37 38//38
f 39//39 38//38 40//40
f 41//41 39//39 40//40
f 41//41 40//40 42//42
f 41//41 42//42 43//43
f 43//43 42//42 44//44
f 45//45 43//43 44//44
f 45//45 44//44 46//46
f 47//47 45//45 46//46
f 48//48 45//45 47//47
f 48//48 47//47 49//49
f 50//50 48//48 49//49
f 50//50 49//49 51//51
f 52//52 50//50 51//51
f 52//52 51//51 53//53
f 54//54 52//52 53//53
f 55//55 54//54 53//53
f 55//55 53//53 56//56
f 55//55 56//56 57//57
f 57//57 56//56 58//58
f 57//57 58//58 59//59
f 59//59 58//58 60//60
f 59//59 60//60 61//61
f 61//61 60//60 62//62
f 61//61 62//62 63//63
f 63//63 62//62 64//64
f 63//63 64//64 65//65
f 65//65 64//64 66//66
f 65//65 66//66 67//67
f 68//68 67//67 66//66
f 69//69 67//67 68//68
f 69//69 68//68 70//70
f 71//71 69//69 70//70
f 72//72 71//71 73//73
f 74//74 75//75 76//76
f 77//77 74//74 76//76
f 75//75 77//77 76//76
f 78//78 75//75 74//74
f 79//79 75//75 78//78
f 78//78 74//74 80//80
f 81//81 78//78 80//80
f 82//82 78//78 81//81
f 82//82 83//83 78//78
f 83//83 84//84 79//79
f 84//84 85//85 79//79
f 80//80 74//74 86//86
f 87//87 80//80 86//86
f 81//81 80//80 87//87
f 86//86 74//74 88//88
f 88//88 74//74 77//77
f 86//86 88//88 89//89
f 90//90 86//86 89//89
f 87//87 86//86 90//90
f 75//75 91//91 77//77
f 90//90 89//89 92//92
f 90//90 92//92 93//93
f 94//94 90//90 93//93
f 95//95 83//83 82//82
f 95//95 82//82 81//81
f 95//95 81//81 87//87
f 95//95 87//87 90//90
f 95//95 96//96 83//83
f 97//97 91//91 75//75
f 97//97 98//98 91//91
f 97//97 99//99 98//98
f 100//100 95//95 101//101
f 102//102 103//103 104//104
f 102//102 104//104 105//105
f 102//102 105//105 106//106
f 106//106 105//105 107//107
f 108//108 102//102 106//106
f 109//109 102//102 108//108
f 110//110 108//108 106//106
f 111//111 112//112 113//113
f 111//111 113//113 114//114
f 111//111 114//114 115//115
f 111//111 115//115 116//116
f 111//111 116//116 117//117
f 117//117 118//118 111//111
f 118//118 119//119 111//111
f 120//120 111//111 119//119
f 120//120 121//121 111//111
f 121//121 122//122 111//111
f 111//111 122//122 123//123
f 114//114 113//113 124//124
f 124//124 113//113 125//125
f 125//125 113//113 126//126
f 126//126 113//113 127//127
f 127//127 113//113 128//128
f 128//128 113//113 129//129
f 129//129 113//113 130//130
f 130//130 113//113 131//131
f 131//131 113//113 132//132
f 132//132 113//113 133//133
f 133//133 113//113 134//134
f 133//133 134//134 135//135
f 135//135 134//134 136//136
f 134//134 137//137 136//136
f 137//137 134//134 138//138
f 138//138 134//134 139//139
f 139//139 134//134 140//140
f 140//140 134//134 141//141
f 134//134 142//142 141//141
f 134//134 143//143 142//142
f 134//134 144//144 143//143
f 144//144 134//134 145//145
f 145//145 134//134 146//146
f 147//147 134//134 148//148
f 149//149 150//150 151//151
f 149//149 152//152 150//150
f 151//151 150//150 153//153
f 151//151 153//153 154//154
f 154//154 153//153 155//155
f 154//154 155//155 156//156
f 152//152 157//157 150//150
f 158//158 159//159 160//160
f 161//161 159//159 158//158
f 162//162 159//159 161//161
f 163//163 162//162 161//161
f 164//164 162//162 163//163
f 165//165 162//162 164//164
f 9//9 166//166 8//8
f 166//166 9//9 167//167
f 168//168 169//169 170//170
f 168//168 171//171 169//169
f 172//172 169//169 173//173
f 174//174 169//169 172//172
f 169//169 174//174 175//175
f 176//176 169//169 175//175
f 177//177 169//169 176//176
f 178//178 169//169 177//177
f 178//178 179//179 169//169
f 179//179 180//180 169//169
f 180//180 181//181 169//169
f 182//182 181//181 180//180
f 182//182 183//183 181//181
f 183//183 184//184 181//181
f 184//184 185//185 181//181
f 185//185 186//186 181//181
f 186//186 187//187 181//181
f 187//187 188//188 181//181
f 188//188 189//189 181//181
f 181//181 189//189 190//190
f 181//181 190//190 191//191
f 192//192 181//181 191//191
f 193//193 181//181 192//192
f 194//194 181//181 193//193
f 195//195 181//181 194//194
f 195//195 196//196 181//181
f 196//196 197//197 198//198
f 196//196 198//198 199//199
f 199//199 200//200 196//196
f 196//196 200//200 201//201
f 201//201 202//202 196//196
f 196//196 202//202 203//203
f 196//196 203//203 204//204
f 205//205 196//196 206//206
f 207//207 196//196 205//205
