v 107.055 -7.087096 90.00002
v 107.055 -7.087098 49.99998
v 107.055 -7.087096 90.00002
v 107.055 -7.087095 90.00002
v 104.5354 -4.555991 90.00002
v 103.5275 -3.543548 90.00002
v 103.5275 -3.543549 90.00002
v 103.5275 -3.543551 49.99998
v 103.5275 -3.543551 9.999943
v 103.6224 -3.315848 90.00002
v 104.3818 -1.494243 9.999943
v 103.6342 -3.287554 90.00002
v 104.488 -1.239588 9.999943
v 103.6375 -3.279609 90.00002
v 104.5178 -1.168092 9.999943
v 103.6748 -3.190328 90.00002
v 104.8528 -0.3645624 9.999943
v 104.1336 -2.089564 90.00002
v 104.9037 -0.2422561 9.999943
v 104.5687 -1.045901 90.00002
v 104.6188 -0.9258385 90.00002
v 104.9576 -0.1129531 9.999943
v 104.7232 -0.6754206 90.00002
v 104.9692 -0.08512919 9.999943
v 105 -0.01134009 90.00002
v 105 -0.01134128 9.999943
v 104.9225 0.1768955 90.00002
v 104.5734 1.025165 9.999943
v 104.3028 1.682769 9.999943
v 104.9033 0.2235987 90.00002
v 104.1298 2.103103 9.999943
v 104.8976 0.2374979 90.00002
v 104.0783 2.228195 9.999943
v 104.8544 0.3425451 90.00002
v 103.6892 3.173626 9.999943
v 104.3584 1.547719 90.00002
v 103.6341 3.307534 9.999943
v 103.9486 2.543383 90.00002
v 103.5886 3.418163 9.999943
v 103.5435 3.527511 90.00002
v 103.5436 3.52751 9.999943
v 103.4345 3.57295 90.00002
v 102.5626 3.936463 9.999943
v 103.1903 3.67476 90.00002
v 100.3646 4.852745 9.999943
v 102.509 3.95879 90.00002
v 102.2365 4.072381 90.00002
v 100.2586 4.896925 9.999943
v 101.3074 4.459702 90.00002
v 100.1553 4.93996 9.999943
v 100.5424 4.778619 90.00002
v 100.0703 4.975396 9.999943
v 100.0113 4.999996 90.00002
v 100.0113 4.999993 9.999943
v 100.0113 4.999994 9.999943
v 99.80101 4.913435 90.00002
v 98.11842 4.220942 9.999943
v 99.73911 4.887955 90.00002
v 97.56126 3.991637 9.999943
v 99.73279 4.885355 90.00002
v 97.50438 3.968228 9.999943
v 99.72986 4.884148 90.00002
v 97.478 3.957374 9.999943
v 99.72615 4.882625 90.00002
v 97.44466 3.943653 9.999943
v 99.65746 4.85435 90.00002
v 96.82638 3.68919 9.999943
v 96.47249 3.543548 90.00002
v 96.47249 3.543546 9.999943
v 96.47249 3.543547 90.00002
v 96.47249 3.543546 9.999943
v 96.47249 3.543547 90.00002
v 96.47249 3.543547 90.00002
v 95.46462 4.55599 90.00002
v 92.94498 7.087095 90.00002
v 92.94498 7.087094 90.00002
v 92.94498 7.087094 90.00002
v 96.47249 3.543547 90.00002
v 96.47249 3.543547 90.00002
v 96.47249 3.543547 90.00002
v 96.47249 3.543546 9.999943
v 96.47249 3.543546 9.999943
v 96.47249 3.543546 9.999943
v 96.47249 3.543547 90.00002
v 100.0227 9.999991 90.00002
v 96.47249 3.543547 90.00002
v 96.47249 3.543546 9.999943
v 96.47249 3.543547 90.00002
v 96.47249 3.543546 49.99998
v 96.47249 3.543546 9.999943
v 92.94498 7.087092 49.99998
v 96.47249 3.543546 9.999985
v 96.47249 3.543546 9.999943
v 95.46463 4.555987 9.999943
v 100.0227 9.999989 9.99995
v 96.47249 3.543546 9.999943
v 100.0227 9.999991 90.00002
v 92.94498 7.087092 9.999943
v 100.0227 9.999989 9.99995
v 100.0113 4.999994 9.999943
v 100.0113 4.999993 9.999943
v 107.055 -7.087098 49.99998
v 107.055 -7.087096 90.00002
v 107.055 -7.087095 90.00002
v 104.5354 -4.555991 90.00002
v 103.5275 -3.543551 49.99998
v 103.5275 -3.543549 90.00002
v 104.9887 -5.011337 9.999943
v 107.055 -7.087099 9.999943
v 103.5275 -3.543551 9.999943
v 107.055 -7.087096 90.00002
v 110 -0.02267715 90.00002
v 107.0871 7.055025 90.00002
v 105 -0.01134009 90.00002
v 104.7232 -0.6754206 90.00002
v 104.6188 -0.9258385 90.00002
v 104.5687 -1.045901 90.00002
v 104.1336 -2.089564 90.00002
v 103.6748 -3.190328 90.00002
v 103.6375 -3.279609 90.00002
v 103.6342 -3.287554 90.00002
v 103.6224 -3.315848 90.00002
v 103.5275 -3.543548 90.00002
v 104.9225 0.1768955 90.00002
v 104.9033 0.2235987 90.00002
v 104.8976 0.2374979 90.00002
v 104.8544 0.3425451 90.00002
v 104.3584 1.547719 90.00002
v 103.9486 2.543383 90.00002
v 103.5435 3.527511 90.00002
v 103.4345 3.57295 90.00002
v 103.1903 3.67476 90.00002
v 102.509 3.95879 90.00002
v 100.0227 9.999991 90.00002
v 102.2365 4.072381 90.00002
v 101.3074 4.459702 90.00002
v 100.5424 4.778619 90.00002
v 100.0113 4.999996 90.00002
v 99.80101 4.913435 90.00002
v 99.73911 4.887955 90.00002
v 99.73279 4.885355 90.00002
v 99.72986 4.884148 90.00002
v 99.72615 4.882625 90.00002
v 99.65746 4.85435 90.00002
v 96.47249 3.543548 90.00002
v 96.47249 3.543547 90.00002
v 96.47249 3.543547 90.00002
v 92.94498 7.087095 90.00002
v 107.055 -7.087096 90.00002
v 110 -0.02267986 9.99995
v 110 -0.02267715 90.00002
v 107.055 -7.087098 49.99998
v 107.0871 7.055023 9.99995
v 107.0871 7.055025 90.00002
v 100.0227 9.999989 9.99995
v 100.0227 9.999991 90.00002
v 107.055 -7.087099 9.999943
v 92.94498 7.087094 90.00002
v 96.47249 3.543546 49.99998
v 96.47249 3.543547 90.00002
v 92.94498 7.087092 49.99998
v 96.47249 3.543546 9.999985
v 92.94498 7.087092 9.999943
v 95.46463 4.555987 9.999943
v 96.47249 3.543546 9.999943
v 103.5275 -3.543551 9.999943
v 110 -0.02267986 9.99995
v 104.9887 -5.011337 9.999943
v 110 -0.02267986 9.99995
v 107.055 -7.087099 9.999943
v 103.5275 -3.543551 9.999943
v 104.3818 -1.494243 9.999943
v 103.5275 -3.543551 9.999943
v 104.488 -1.239588 9.999943
v 104.5178 -1.168092 9.999943
v 104.8528 -0.3645624 9.999943
v 104.9037 -0.2422561 9.999943
v 104.9576 -0.1129531 9.999943
v 104.9692 -0.08512919 9.999943
v 105 -0.01134128 9.999943
v 107.0871 7.055023 9.99995
v 104.5734 1.025165 9.999943
v 104.3028 1.682769 9.999943
v 104.1298 2.103103 9.999943
v 104.0783 2.228195 9.999943
v 103.6892 3.173626 9.999943
v 103.6341 3.307534 9.999943
v 103.5886 3.418163 9.999943
v 103.5436 3.52751 9.999943
v 102.5626 3.936463 9.999943
v 100.3646 4.852745 9.999943
v 100.2586 4.896925 9.999943
v 100.1553 4.93996 9.999943
v 100.0703 4.975396 9.999943
v 100.0113 4.999993 9.999943
v 100.0227 9.999989 9.99995
v 100.0113 4.999994 9.999943
v 98.11842 4.220942 9.999943
v 97.56126 3.991637 9.999943
v 97.50438 3.968228 9.999943
v 97.478 3.957374 9.999943
v 97.44466 3.943653 9.999943
v 96.82638 3.68919 9.999943
v 96.47249 3.543546 9.999943
v 95.46463 4.555987 9.999943
v 96.47249 3.543546 9.999943
v 92.94498 7.087092 9.999943

vn 0.7055016 -0.7087086 5.340572E-07
vn 0.7055016 -0.7087086 3.814694E-07
vn 0.5356567 -0.5380917 0.6507913
vn 0 0 1
vn 0 0 1
vn -0.9230114 0.3847731 -6.462383E-08
vn -0.698411 0.7015858 0.141421
vn -0.8560713 -0.5168579 -1.883212E-07
vn -0.9230095 0.3847773 -3.424387E-07
vn -0.9230093 0.3847781 -3.013172E-07
vn -0.9230094 0.3847778 -3.400592E-07
vn -0.9230098 0.3847769 -4.236429E-07
vn -0.9230102 0.3847759 -4.821552E-07
vn -0.923008 0.3847812 1.095606E-07
vn -0.923009 0.3847787 -1.780023E-07
vn -0.9230092 0.3847782 -2.260704E-07
vn -0.9230093 0.3847784 -2.089216E-07
vn -0.9230092 0.3847784 -2.077588E-07
vn -0.9230092 0.3847781 -2.217208E-07
vn -0.9230092 0.3847785 -2.409156E-07
vn -0.9230096 0.3847774 -2.351288E-07
vn -0.9230101 0.3847759 -2.778156E-07
vn -0.9230093 0.3847779 -1.673258E-07
vn -0.923009 0.3847788 -1.811419E-07
vn -0.9704865 0.2411562 -1.839746E-07
vn -0.9395372 -0.3424473 -2.087927E-07
vn -0.9247443 -0.3805895 -2.638545E-07
vn -0.9247445 -0.3805887 -2.243663E-07
vn -0.9247447 -0.3805884 -2.046673E-07
vn -0.9247456 -0.3805865 -5.134434E-08
vn -0.924746 -0.3805852 3.311141E-08
vn -0.9247466 -0.3805837 2.493531E-07
vn -0.9247456 -0.3805863 -1.725448E-08
vn -0.924745 -0.3805874 -1.95488E-07
vn -0.924745 -0.3805879 -2.545912E-07
vn -0.9247448 -0.380588 -3.133276E-07
vn -0.9247453 -0.3805869 -2.147517E-07
vn -0.9247451 -0.3805876 -2.354086E-07
vn -0.9247446 -0.3805887 -2.762392E-07
vn -0.8976899 -0.4406282 -2.850269E-07
vn -0.4448374 -0.8956116 -1.199789E-07
vn -0.384779 -0.9230089 -7.869002E-08
vn -0.3847781 -0.9230093 -1.061353E-07
vn -0.3847774 -0.9230096 -1.468234E-07
vn -0.3847774 -0.9230095 -1.18347E-07
vn -0.3847778 -0.9230093 -1.005928E-07
vn -0.3847783 -0.9230092 2.558145E-08
vn -0.3847779 -0.9230094 -4.388408E-08
vn -0.3847783 -0.9230093 -2.142637E-08
vn -0.3847779 -0.9230093 -1.39089E-08
vn -0.384778 -0.9230094 -6.971242E-09
vn -0.3847784 -0.9230091 1.713521E-09
vn -0.1953394 -0.9807359 6.568339E-08
vn -0.3847998 -0.9230002 3.749556E-09
vn 0.3805869 -0.9247453 1.50355E-07
vn 0.3805881 -0.9247447 1.053244E-07
vn 0.3805886 -0.9247447 6.84602E-08
vn 0.3805896 -0.9247441 -3.948485E-08
vn 0.3805878 -0.924745 1.617077E-07
vn 0.3805863 -0.9247457 4.500968E-07
vn 0.3805837 -0.9247466 7.290805E-07
vn 0.3805419 -0.9247638 6.344963E-06
vn 0.3805681 -0.9247531 2.762223E-06
vn 0.3805945 -0.9247422 -5.911333E-07
vn 0.3805907 -0.9247438 -2.018595E-07
vn 0.380588 -0.9247448 1.357495E-07
vn 0.3805874 -0.924745 1.613505E-07
vn 0.3805872 -0.9247452 1.611312E-07
vn 0.3805826 -0.9247471 9.115076E-08
vn 0.2202995 -0.9754325 9.305477E-08
vn 0.7055016 -0.7087086 1.907347E-07
vn 0.7055016 -0.7087086 1.907347E-07
vn 0.7055016 -0.7087086 1.907347E-07
vn 0 0 1
vn -0.3805878 0.924745 -2.936142E-07
vn 0 0 1
vn -0.7943854 -0.6074143 -1.677742E-07
vn 0.4581977 -0.4602806 0.7603924
vn 0.3974431 -0.3992498 0.8262195
vn 0.7037186 -0.7069175 0.0710492
vn 0.7055016 -0.7087086 1.90735E-07
vn 0.7055016 -0.7087086 1.907347E-07
vn 0.7055016 -0.7087086 1.907343E-07
vn 0.701749 -0.704939 0.1030029
vn 0 0 1
vn 0.7054409 -0.7086558 0.01266336
vn 0.7055016 -0.7087086 1.907357E-07
vn 0.6984109 -0.7015857 0.1414215
vn 0.7055063 -0.7087039 1.907357E-07
vn 0.7042332 -0.7074256 -0.06004161
vn -0.3805878 0.9247449 -2.232892E-07
vn 0.7055183 -0.7086919 1.907375E-07
vn 4.898125E-06 -4.92039E-06 -1
vn 0 0 -1
vn 3.058669E-07 3.044828E-07 -1
vn 0 0 0
vn -0.3805877 0.924745 -2.130985E-07
vn -0.3805878 0.924745 -1.778031E-07
vn -0.3805878 0.924745 -2.029077E-07
vn 3.058669E-07 3.044828E-07 -1
vn 3.058669E-07 3.044828E-07 -1
vn -0.7087086 -0.7055016 -1.192093E-07
vn -0.7087085 -0.7055015 -1.192092E-07
vn -0.7087086 -0.7055016 -1.192093E-07
vn -0.7087086 -0.7055016 -1.192093E-07
vn -0.7087086 -0.7055016 -1.192093E-07
vn -0.7087086 -0.7055016 -1.192092E-07
vn -0.7087086 -0.7055016 -1.192093E-07
vn -0.7087086 -0.7055016 -1.192093E-07
vn -0.7087086 -0.7055016 -1.192093E-07
vn 0 0 1
vn 0 0 1
vn 0 0 1
vn 0 0 1
vn 0 0 1
vn 0 0 1
vn 0 0 1
vn 0 0 1
vn 0 0 1
vn 0 0 1
vn 0 0 1
vn 0 0 1
vn 0 0 1
vn 0 0 0.9999999
vn 0 0 1
vn 0 0 1
vn 0 0 0.9999999
vn 0 0 1
vn 0 0 1
vn 0 0 1
vn 0 0 0.9999999
vn 0 0 1
vn 0 0 1
vn 0 0 1
vn 0 0 1
vn 0 0 1
vn 0 0 1
vn 0 0 1
vn 0 0 1
vn 0 0 1
vn 0 0 1
vn 0 0 0.9999999
vn 0 0 1
vn 0 0 0.9999999
vn 0 0 0.9999999
vn 0 0 1
vn 0 0 0.9999999
vn 0 0 0.9999999
vn 0.9230095 -0.3847778 3.42789E-07
vn 0.9902897 -0.1390198 3.092419E-07
vn 0.9909101 0.134527 2.619401E-07
vn 0.9230093 -0.3847777 3.23738E-07
vn 0.7985424 0.6019389 1.531119E-07
vn 0.6055545 0.7958041 7.358348E-08
vn 0.3847778 0.9230093 7.245398E-09
vn 0.3847778 0.9230094 0
vn 0.9230093 -0.3847778 2.570785E-07
vn -0.7087086 -0.7055016 -1.192093E-07
vn -0.7087086 -0.7055016 -1.192093E-07
vn -0.7087086 -0.7055016 -1.192093E-07
vn -0.7087086 -0.7055016 -1.192093E-07
vn -0.7087086 -0.7055016 -1.192093E-07
vn -0.7087086 -0.7055016 -1.192093E-07
vn -0.7087086 -0.7055016 -1.283792E-07
vn -0.7087085 -0.7055015 -1.283792E-07
vn -0.6908409 0.6939813 -0.2028032
vn 5.197845E-07 -5.221473E-07 -1
vn 1.529334E-07 1.522414E-07 -0.9999999
vn 2.443356E-07 8.576284E-08 -1
vn 1.529335E-07 1.522414E-07 -1
vn 1.529335E-07 1.522414E-07 -1
vn 3.048882E-07 -1.270996E-07 -1
vn 3.048882E-07 -1.270997E-07 -1
vn 3.04888E-07 -1.27099E-07 -1
vn 3.048882E-07 -1.270999E-07 -1
vn 3.048882E-07 -1.271E-07 -1
vn 3.048882E-07 -1.270993E-07 -0.9999999
vn 3.048881E-07 -1.270971E-07 -1
vn 3.048882E-07 -1.271024E-07 -0.9999999
vn 3.054563E-07 1.23433E-07 -1
vn 2.162806E-07 2.153019E-07 -1
vn 3.05461E-07 1.257158E-07 -1
vn 3.054615E-07 1.257155E-07 -1
vn 3.054622E-07 1.257152E-07 -1
vn 3.054618E-07 1.257154E-07 -1
vn 3.054617E-07 1.257154E-07 -1
vn 3.054616E-07 1.257155E-07 -1
vn 3.054612E-07 1.25716E-07 -1
vn 1.449569E-07 2.869497E-07 -1
vn 1.270997E-07 3.048883E-07 -1
vn 1.270996E-07 3.048884E-07 -1
vn 1.270998E-07 3.048877E-07 -1
vn 1.270993E-07 3.048894E-07 -1
vn 1.270995E-07 3.048885E-07 -1
vn 1.270997E-07 3.048882E-07 -1
vn 8.687011E-08 2.439442E-07 -1
vn -1.257157E-07 3.054616E-07 -1
vn -1.257159E-07 3.054617E-07 -1
vn -1.257163E-07 3.054618E-07 -1
vn -1.257095E-07 3.05459E-07 -1
vn -1.257169E-07 3.054622E-07 -1
vn -1.257164E-07 3.054619E-07 -1
vn -1.257151E-07 3.054612E-07 -1
vn -1.25714E-07 3.054607E-07 -0.9999999
vn 1.529335E-07 1.522414E-07 -1
vn 1.529335E-07 1.522414E-07 -1
vn 1.529335E-07 1.522414E-07 -0.9999999

f 1//1 2//2 3//3
f 4//4 1//1 3//3
f 3//3 5//5 4//4
f 3//3 6//6 5//5
f 5//5 6//6 7//7
f 8//8 7//7 6//6
f 9//9 8//8 6//6
f 10//10 9//9 6//6
f 9//9 10//10 11//11
f 11//11 10//10 12//12
f 13//13 11//11 12//12
f 13//13 12//12 14//14
f 13//13 14//14 15//15
f 15//15 14//14 16//16
f 15//15 16//16 17//17
f 18//18 17//17 16//16
f 19//19 17//17 18//18
f 19//19 18//18 20//20
f 21//21 19//19 20//20
f 22//22 19//19 21//21
f 22//22 21//21 23//23
f 24//24 22//22 23//23
f 24//24 23//23 25//25
f 26//26 24//24 25//25
f 26//26 25//25 27//27
f 28//28 26//26 27//27
f 28//28 27//27 29//29
f 29//29 27//27 30//30
f 31//31 29//29 30//30
f 31//31 30//30 32//32
f 33//33 31//31 32//32
f 33//33 32//32 34//34
f 35//35 33//33 34//34
f 35//35 34//34 36//36
f 37//37 35//35 36//36
f 37//37 36//36 38//38
f 39//39 37//37 38//38
f 39//39 38//38 40//40
f 41//41 39//39 40//40
f 41//41 40//40 42//42
f 41//41 42//42 43//43
f 43//43 42//42 44//44
f 45//45 43//43 44//44
f 45//45 44//44 46//46
f 47//47 45//45 46//46
f 48//48 45//45 47//47
f 48//48 47//47 49//49
f 50//50 48//48 49//49
f 50//50 49//49 51//51
f 52//52 50//50 51//51
f 52//52 51//51 53//53
f 54//54 52//52 53//53
f 55//55 54//54 53//53
f 55//55 53//53 56//56
f 55//55 56//56 57//57
f 57//57 56//56 58//58
f 57//57 58//58 59//59
f 59//59 58//58 60//60
f 59//59 60//60 61//61
f 61//61 60//60 62//62
f 61//61 62//62 63//63
f 63//63 62//62 64//64
f 63//63 64//64 65//65
f 65//65 64//64 66//66
f 65//65 66//66 67//67
f 68//68 67//67 66//66
f 69//69 67//67 68//68
f 69//69 68//68 70//70
f 71//71 69//69 70//70
f 72//72 71//71 73//73
f 74//74 75//75 76//76
f 77//77 74//74 76//76
f 75//75 77//77 76//76
f 78//78 75//75 74//74
f 79//79 75//75 78//78
f 78//78 74//74 80//80
f 81//81 78//78 80//80
f 82//82 78//78 81//81
f 82//82 83//83 78//78
f 83//83 84//84 79//79
f 84//84 85//85 79//79
f 80//80 74//74 86//86
f 87//87 80//80 86//86
f 81//81 80//80 87//87
f 86//86 74//74 88//88
f 88//88 74//74 77//77
f 86//86 88//88 89//89
f 90//90 86//86 89//89
f 87//87 86//86 90//90
f 75//75 91//91 77//77
f 90//90 89//89 92//92
f 90//90 92//92 93//93
f 94//94 90//90 93//93
f 95//95 83//83 82//82
f 95//95 82//82 81//81
f 95//95 81//81 87//87
f 95//95 87//87 90//90
f 95//95 96//96 83//83
f 97//97 91//91 75//75
f 97//97 98//98 91//91
f 97//97 99//99 98//98
f 100//100 95//95 101//101
f 102//102 103//103 104//104
f 102//102 104//104 105//105
f 102//102 105//105 106//106
f 106//106 105//105 107//107
f 108//108 102//102 106//106
f 109//109 102//102 108//108
f 110//110 108//108 106//106
f 111//111 112//112 113//113
f 111//111 113//113 114//114
f 111//111 114//114 115//115
f 111//111 115//115 116//116
f 111//111 116//116 117//117
f 117//117 118//118 111//111
f 118//118 119//119 111//111
f 120//120 111//111 119//119
f 120//120 121//121 111//111
f 121//121 122//122 111//111
f 111//111 122//122 123//123
f 114//114 113//113 124//124
f 124//124 113//113 125//125
f 125//125 113//113 126//126
f 126//126 113//113 127//127
f 127//127 113//113 128//128
f 128//128 113//113 129//129
f 129//129 113//113 130//130
f 130//130 113//113 131//131
f 131//131 113//113 132//132
f 132//132 113//113 133//133
f 133//133 113//113 134//134
f 133//133 134//134 135//135
f 135//135 134//134 136//136
f 134//134 137//137 136//136
f 137//137 134//134 138//138
f 138//138 134//134 139//139
f 139//139 134//134 140//140
f 140//140 134//134 141//141
f 134//134 142//142 141//141
f 134//134 143//143 142//142
f 134//134 144//144 143//143
f 144//144 134//134 145//145
f 145//145 134//134 146//146
f 147//147 134//134 148//148
f 149//149 150//150 151//151
f 149//149 152//152 150//150
f 151//151 150//150 153//153
f 151//151 153//153 154//154
f 154//154 153//153 155//155
f 154//154 155//155 156//156
f 152//152 157//157 150//150
f 158//158 159//159 160//160
f 161//161 159//159 158//158
f 162//162 159//159 161//161
f 163//163 162//162 161//161
f 164//164 162//162 163//163
f 165//165 162//162 164//164
f 9//9 166//166 8//8
f 166//166 9//9 167//167
f 168//168 169//169 170//170
f 168//168 171//171 169//169
f 172//172 169//169 173//173
f 174//174 169//169 172//172
f 169//169 174//174 175//175
f 176//176 169//169 175//175
f 177//177 169//169 176//176
f 178//178 169//169 177//177
f 178//178 179//179 169//169
f 179//179 180//180 169//169
f 180//180 181//181 169//169
f 182//182 181//181 180//180
f 182//182 183//183 181//181
f 183//183 184//184 181//181
f 184//184 185//185 181//181
f 185//185 186//186 181//181
f 186//186 187//187 181//181
f 187//187 188//188 181//181
f 188//188 189//189 181//181
f 181//181 189//189 190//190
f 181//181 190//190 191//191
f 192//192 181//181 191//191
f 193//193 181//181 192//192
f 194//194 181//181 193//193
f 195//195 181//181 194//194
f 195//195 196//196 181//181
f 196//196 197//197 198//198
f 196//196 198//198 199//199
f 199//199 200//200 196//196
f 196//196 200//200 201//201
f 201//201 202//202 196//196
f 196//196 202//202 203//203
f 196//196 203//203 204//204
f 205//205 196//196 206//206
f 207//207 196//196 205//205
