v 62.30023 87.80537 40.00027
v 75.0528 75.0528 40.00027
v 62.30023 87.80537 40.00027
v 62.30023 87.80537 40.00027
v 62.28138 87.78651 43.5716
v 62.27383 87.77897 45.00013
v 62.27383 87.77897 45.00013
v 75.02641 75.02639 45.00013
v 87.77898 62.27382 45.00013
v 62.11218 87.61731 45.09283
v 86.32409 60.81893 45.83444
v 62.09209 87.59722 45.10435
v 86.1433 60.63814 45.93812
v 62.08645 87.59158 45.10759
v 86.09254 60.58738 45.96722
v 62.02307 87.5282 45.14394
v 85.52208 60.01692 46.29435
v 61.24159 86.74672 45.59208
v 85.43525 59.93009 46.34415
v 60.50065 86.00578 46.01697
v 60.41541 85.92054 46.06585
v 85.34345 59.83829 46.39679
v 60.23763 85.74276 46.1678
v 85.3237 59.81854 46.40812
v 59.76617 85.2713 46.43816
v 85.27131 59.76616 46.43816
v 59.7101 85.21523 46.62563
v 84.96255 59.4574 47.47046
v 84.76666 59.26151 48.1254
v 59.69618 85.20132 46.67215
v 84.64145 59.13629 48.54403
v 59.69204 85.19717 46.68599
v 84.60419 59.09903 48.66861
v 59.66075 85.16589 46.79061
v 84.32256 58.8174 49.61021
v 59.30175 84.80688 47.9909
v 84.28267 58.77751 49.74358
v 59.00515 84.51028 48.98252
v 84.24971 58.74455 49.85376
v 58.712 84.21713 49.96267
v 84.21714 58.71198 49.96266
v 58.74338 84.2485 50.0721
v 84.49954 58.99438 50.94759
v 58.81368 84.31882 50.3173
v 85.13229 59.62714 53.1544
v 59.00982 84.51495 51.00137
v 59.08826 84.5934 51.27494
v 85.1628 59.65765 53.2608
v 59.35573 84.86086 52.20778
v 85.19252 59.68736 53.36445
v 59.57596 85.08109 52.97587
v 85.217 59.71184 53.44979
v 59.72883 85.23396 53.50904
v 85.23398 59.72882 53.50904
v 85.23398 59.72882 53.50904
v 59.87695 85.38209 53.59764
v 86.56705 61.06189 54.30648
v 59.92055 85.42568 53.62372
v 86.95943 61.45427 54.54119
v 59.925 85.43014 53.62638
v 86.99948 61.49432 54.56516
v 59.92707 85.4322 53.62762
v 87.01806 61.5129 54.57627
v 59.92967 85.43481 53.62918
v 87.04153 61.53638 54.59031
v 59.97805 85.48318 53.65812
v 87.47696 61.9718 54.85078
v 62.22103 87.72617 54.99986
v 87.72618 62.22102 54.99986
v 62.22104 87.72617 54.99986
v 87.72618 62.22102 54.99986
v 62.22104 87.72617 54.99986
v 62.22104 87.72617 54.99986
v 62.21349 87.71863 56.4284
v 62.19463 87.69977 59.99973
v 62.19463 87.69977 59.99973
v 62.19463 87.69977 59.99973
v 62.22104 87.72617 54.99986
v 62.22104 87.72617 54.99986
v 62.22104 87.72617 54.99986
v 87.72618 62.22102 54.99986
v 87.72618 62.22102 54.99986
v 87.72618 62.22102 54.99986
v 62.22104 87.72617 54.99986
v 57.21024 82.71537 57.01808
v 62.22104 87.72617 54.99986
v 87.72618 62.22102 54.99986
v 62.22104 87.72617 54.99986
v 74.97361 74.97359 54.99986
v 87.72618 62.22102 54.99986
v 74.9472 74.9472 59.99973
v 87.72617 62.22103 54.99986
v 87.72618 62.22102 54.99986
v 87.71864 62.21348 56.42839
v 82.71538 57.21022 57.01807
v 87.72618 62.22102 54.99986
v 57.21024 82.71537 57.01808
v 87.69978 62.19462 59.99973
v 82.71538 57.21022 57.01807
v 85.23398 59.72882 53.50904
v 85.23398 59.72882 53.50904
v 75.0528 75.0528 40.00027
v 62.30023 87.80537 40.00027
v 62.30023 87.80537 40.00027
v 62.28138 87.78651 43.5716
v 75.02641 75.02639 45.00013
v 62.27383 87.77897 45.00013
v 87.78992 62.28476 42.92912
v 87.80537 62.30022 40.00027
v 87.77898 62.27382 45.00013
v 62.30023 87.80537 40.00027
v 57.2849 82.79004 42.87632
v 55.17656 80.68169 49.92533
v 59.76617 85.2713 46.43816
v 60.23763 85.74276 46.1678
v 60.41541 85.92054 46.06585
v 60.50065 86.00578 46.01697
v 61.24159 86.74672 45.59208
v 62.02307 87.5282 45.14394
v 62.08645 87.59158 45.10759
v 62.09209 87.59722 45.10435
v 62.11218 87.61731 45.09283
v 62.27383 87.77897 45.00013
v 59.7101 85.21523 46.62563
v 59.69618 85.20132 46.67215
v 59.69204 85.19717 46.68599
v 59.66075 85.16589 46.79061
v 59.30175 84.80688 47.9909
v 59.00515 84.51028 48.98252
v 58.712 84.21713 49.96267
v 58.74338 84.2485 50.0721
v 58.81368 84.31882 50.3173
v 59.00982 84.51495 51.00137
v 57.21024 82.71537 57.01808
v 59.08826 84.5934 51.27494
v 59.35573 84.86086 52.20778
v 59.57596 85.08109 52.97587
v 59.72883 85.23396 53.50904
v 59.87695 85.38209 53.59764
v 59.92055 85.42568 53.62372
v 59.925 85.43014 53.62638
v 59.92707 85.4322 53.62762
v 59.92967 85.43481 53.62918
v 59.97805 85.48318 53.65812
v 62.22103 87.72617 54.99986
v 62.22104 87.72617 54.99986
v 62.22104 87.72617 54.99986
v 62.19463 87.69977 59.99973
v 62.30023 87.80537 40.00027
v 82.79005 57.28489 42.87632
v 57.2849 82.79004 42.87632
v 75.0528 75.0528 40.00027
v 80.6817 55.17654 49.92533
v 55.17656 80.68169 49.92533
v 82.71538 57.21022 57.01807
v 57.21024 82.71537 57.01808
v 87.80537 62.30022 40.00027
v 62.19463 87.69977 59.99973
v 74.97361 74.97359 54.99986
v 62.22104 87.72617 54.99986
v 74.9472 74.9472 59.99973
v 87.72617 62.22103 54.99986
v 87.69978 62.19462 59.99973
v 87.71864 62.21348 56.42839
v 87.72618 62.22102 54.99986
v 87.77898 62.27382 45.00013
v 82.79005 57.28489 42.87632
v 87.78992 62.28476 42.92912
v 82.79005 57.28489 42.87632
v 87.80537 62.30022 40.00027
v 87.77898 62.27382 45.00013
v 86.32409 60.81893 45.83444
v 87.77898 62.27382 45.00013
v 86.1433 60.63814 45.93812
v 86.09254 60.58738 45.96722
v 85.52208 60.01692 46.29435
v 85.43525 59.93009 46.34415
v 85.34345 59.83829 46.39679
v 85.3237 59.81854 46.40812
v 85.27131 59.76616 46.43816
v 80.6817 55.17654 49.92533
v 84.96255 59.4574 47.47046
v 84.76666 59.26151 48.1254
v 84.64145 59.13629 48.54403
v 84.60419 59.09903 48.66861
v 84.32256 58.8174 49.61021
v 84.28267 58.77751 49.74358
v 84.24971 58.74455 49.85376
v 84.21714 58.71198 49.96266
v 84.49954 58.99438 50.94759
v 85.13229 59.62714 53.1544
v 85.1628 59.65765 53.2608
v 85.19252 59.68736 53.36445
v 85.217 59.71184 53.44979
v 85.23398 59.72882 53.50904
v 82.71538 57.21022 57.01807
v 85.23398 59.72882 53.50904
v 86.56705 61.06189 54.30648
v 86.95943 61.45427 54.54119
v 86.99948 61.49432 54.56516
v 87.01806 61.5129 54.57627
v 87.04153 61.53638 54.59031
v 87.47696 61.9718 54.85078
v 87.72618 62.22102 54.99986
v 87.71864 62.21348 56.42839
v 87.72618 62.22102 54.99986
v 87.69978 62.19462 59.99973

vn 0.005279551 0.005280246 -0.9999722
vn 0.005279659 0.005280138 -0.9999722
vn -0.4561702 0.4641878 -0.7592356
vn -0.7071068 0.7071068 -7.450581E-08
vn -0.7071068 0.7071068 -7.450581E-08
vn 0.2657158 0.2657157 0.9267095
vn -0.1052266 0.09477292 0.9899221
vn 0.6855736 0.6855732 0.2449043
vn 0.2657129 0.2657125 0.9267111
vn 0.2657124 0.265712 0.9267116
vn 0.2657126 0.2657121 0.9267114
vn 0.2657133 0.2657128 0.926711
vn 0.265714 0.2657134 0.9267105
vn 0.2657098 0.26571 0.9267128
vn 0.2657119 0.2657116 0.9267117
vn 0.2657122 0.265712 0.9267115
vn 0.2657122 0.2657119 0.9267117
vn 0.2657121 0.2657118 0.9267116
vn 0.2657123 0.265712 0.9267115
vn 0.2657121 0.2657118 0.9267117
vn 0.2657129 0.2657125 0.9267112
vn 0.2657139 0.2657135 0.9267105
vn 0.2657124 0.2657122 0.9267114
vn 0.2657118 0.2657116 0.9267118
vn 0.3615105 0.3615103 0.8594304
vn 0.6394314 0.6394311 0.4269136
vn 0.6512436 0.6512432 0.3895693
vn 0.6512433 0.6512429 0.38957
vn 0.6512432 0.6512429 0.3895703
vn 0.6512426 0.6512425 0.3895723
vn 0.6512421 0.6512421 0.3895734
vn 0.6512415 0.6512418 0.389575
vn 0.6512425 0.6512424 0.3895724
vn 0.6512429 0.6512426 0.3895712
vn 0.6512432 0.6512427 0.3895708
vn 0.6512432 0.6512427 0.3895707
vn 0.6512427 0.6512424 0.3895717
vn 0.651243 0.6512426 0.3895711
vn 0.6512433 0.6512429 0.38957
vn 0.667962 0.6679615 0.3281072
vn 0.6713873 0.6713871 -0.3138132
vn 0.6552843 0.6552841 -0.3757729
vn 0.6552841 0.6552839 -0.3757739
vn 0.6552839 0.6552836 -0.3757745
vn 0.6552839 0.6552836 -0.3757745
vn 0.655284 0.6552837 -0.3757741
vn 0.655284 0.655284 -0.3757736
vn 0.655284 0.6552839 -0.375774
vn 0.6552841 0.655284 -0.3757737
vn 0.6552839 0.6552838 -0.375774
vn 0.655284 0.6552839 -0.375774
vn 0.655284 0.655284 -0.3757735
vn 0.5900714 0.5900714 -0.551028
vn 0.6552902 0.6552902 -0.375752
vn 0.2754688 0.2754689 -0.9209962
vn 0.2754679 0.275468 -0.9209966
vn 0.2754677 0.2754677 -0.9209969
vn 0.275467 0.2754668 -0.9209973
vn 0.2754682 0.2754683 -0.9209965
vn 0.2754691 0.2754696 -0.920996
vn 0.2754706 0.2754716 -0.9209948
vn 0.2754961 0.275505 -0.9209772
vn 0.2754802 0.275484 -0.9209883
vn 0.275464 0.2754631 -0.9209994
vn 0.2754664 0.275466 -0.9209979
vn 0.275468 0.2754681 -0.9209966
vn 0.2754684 0.2754685 -0.9209964
vn 0.2754686 0.2754687 -0.9209963
vn 0.2754719 0.275472 -0.9209944
vn 0.3806698 0.3806698 -0.8427225
vn 0.005279793 0.005280004 -0.9999722
vn 0.005279793 0.005280004 -0.9999722
vn 0.005279793 0.005280004 -0.9999722
vn -0.7071068 0.7071068 -7.450581E-08
vn -0.2754681 -0.2754684 0.9209965
vn -0.7071068 0.7071068 -7.450581E-08
vn 0.7004044 0.7004041 0.1373603
vn -0.5342495 0.5411078 -0.6494458
vn -0.581251 0.5871999 -0.5633327
vn -0.04497279 0.0555059 -0.9974451
vn 0.005279793 0.005280004 -0.9999722
vn 0.005279793 0.005280004 -0.9999722
vn 0.005279793 0.005280004 -0.9999722
vn -0.06758218 0.07808581 -0.9946534
vn -0.7071068 0.7071068 -7.450581E-08
vn -0.003670782 0.01423786 -0.999892
vn 0.005279793 0.005280004 -0.9999722
vn -0.09477326 0.1052269 -0.989922
vn 0.005275106 0.005275317 -0.9999723
vn 0.0477218 -0.03718992 -0.9981682
vn -0.2754681 -0.2754683 0.9209965
vn 0.005263073 0.005263283 -0.9999724
vn 0.7071069 -0.7071068 -6.868057E-06
vn 0.7071068 -0.7071068 7.450581E-08
vn 0.7071065 -0.7071071 7.128324E-08
vn 0 0 0
vn -0.2754682 -0.2754684 0.9209965
vn -0.2754682 -0.2754683 0.9209965
vn -0.2754682 -0.2754684 0.9209966
vn 0.7071065 -0.7071071 7.128324E-08
vn 0.7071065 -0.7071071 7.128324E-08
vn 0.7070872 0.707087 0.007466853
vn 0.7070872 0.7070869 0.007466852
vn 0.7070872 0.707087 0.007466853
vn 0.7070872 0.707087 0.007466853
vn 0.7070872 0.707087 0.007466853
vn 0.7070872 0.707087 0.007466853
vn 0.7070872 0.707087 0.007466853
vn 0.7070872 0.707087 0.007466853
vn 0.7070872 0.707087 0.007466853
vn -0.7071068 0.7071068 -7.450581E-08
vn -0.7071068 0.7071068 -7.450581E-08
vn -0.7071068 0.7071068 -7.450581E-08
vn -0.7071068 0.7071068 -7.450581E-08
vn -0.7071068 0.7071068 -7.450581E-08
vn -0.7071068 0.7071068 -7.450581E-08
vn -0.7071068 0.7071068 -7.450581E-08
vn -0.7071068 0.7071068 -7.450581E-08
vn -0.7071068 0.7071068 -7.450581E-08
vn -0.7071068 0.7071068 -7.450581E-08
vn -0.7071068 0.7071068 -7.450581E-08
vn -0.7071068 0.7071068 -7.450581E-08
vn -0.7071068 0.7071068 -7.450581E-08
vn -0.7071068 0.7071068 -7.45058E-08
vn -0.7071068 0.7071068 -7.450581E-08
vn -0.7071068 0.7071068 -7.450581E-08
vn -0.7071068 0.7071068 -7.45058E-08
vn -0.7071068 0.7071068 -7.450581E-08
vn -0.7071068 0.7071068 -7.450581E-08
vn -0.7071068 0.7071068 -7.450581E-08
vn -0.7071068 0.7071068 -7.45058E-08
vn -0.7071068 0.7071068 -7.450581E-08
vn -0.7071068 0.7071068 -7.450581E-08
vn -0.7071068 0.7071068 -7.450581E-08
vn -0.7071068 0.7071068 -7.450581E-08
vn -0.7071068 0.7071068 -7.450581E-08
vn -0.7071068 0.7071068 -7.450581E-08
vn -0.7071068 0.7071068 -7.450581E-08
vn -0.7071068 0.7071068 -7.450581E-08
vn -0.7071068 0.7071068 -7.450581E-08
vn -0.7071068 0.7071068 -7.450581E-08
vn -0.7071068 0.7071068 -7.45058E-08
vn -0.7071068 0.7071068 -7.450581E-08
vn -0.7071068 0.7071068 -7.45058E-08
vn -0.7071068 0.7071068 -7.45058E-08
vn -0.7071068 0.7071068 -7.450581E-08
vn -0.7071068 0.7071068 -7.45058E-08
vn -0.7071068 0.7071068 -7.45058E-08
vn -0.2657126 -0.2657122 -0.9267114
vn -0.4226936 -0.4226932 -0.8016612
vn -0.5604848 -0.5604844 -0.6096836
vn -0.2657126 -0.2657122 -0.9267113
vn -0.6997201 -0.6997198 -0.1441665
vn -0.7011644 -0.7011642 0.1293731
vn -0.6552839 -0.6552838 0.3757741
vn -0.6552839 -0.6552839 0.3757741
vn -0.2657125 -0.2657122 -0.9267114
vn 0.7070872 0.707087 0.007466853
vn 0.7070872 0.707087 0.007466853
vn 0.7070872 0.707087 0.007466853
vn 0.7070872 0.707087 0.007466853
vn 0.7070872 0.707087 0.007466853
vn 0.7070872 0.707087 0.007466853
vn 0.7070872 0.707087 0.007466853
vn 0.7070872 0.7070869 0.007466852
vn 0.1382333 -0.1485737 0.9791923
vn 0.7071068 -0.7071068 -6.622325E-07
vn 0.7071066 -0.7071069 7.289452E-08
vn 0.7071066 -0.707107 -3.883412E-08
vn 0.7071067 -0.707107 7.289452E-08
vn 0.7071067 -0.707107 7.289452E-08
vn 0.7071068 -0.7071069 -2.316051E-07
vn 0.7071068 -0.7071069 -2.316053E-07
vn 0.7071068 -0.7071069 -2.316046E-07
vn 0.7071068 -0.7071069 -2.316054E-07
vn 0.7071068 -0.7071069 -2.316054E-07
vn 0.7071067 -0.7071069 -2.31605E-07
vn 0.7071068 -0.7071069 -2.316033E-07
vn 0.7071067 -0.7071069 -2.316071E-07
vn 0.7071066 -0.7071071 -5.577911E-08
vn 0.7071066 -0.7071071 7.22271E-08
vn 0.7071066 -0.7071071 -5.41767E-08
vn 0.7071066 -0.7071071 -5.417722E-08
vn 0.7071066 -0.7071071 -5.417795E-08
vn 0.7071066 -0.7071071 -5.417749E-08
vn 0.7071066 -0.7071071 -5.417745E-08
vn 0.7071066 -0.7071071 -5.417732E-08
vn 0.7071066 -0.7071071 -5.417671E-08
vn 0.7071066 -0.7071071 1.733207E-07
vn 0.7071066 -0.7071071 1.986314E-07
vn 0.7071066 -0.7071071 1.986316E-07
vn 0.7071066 -0.7071071 1.986309E-07
vn 0.7071066 -0.7071071 1.986325E-07
vn 0.7071066 -0.7071071 1.986318E-07
vn 0.7071066 -0.7071071 1.986314E-07
vn 0.7071066 -0.707107 1.843563E-07
vn 0.7071068 -0.7071069 3.787293E-07
vn 0.7071068 -0.7071069 3.787295E-07
vn 0.7071068 -0.7071069 3.787298E-07
vn 0.7071068 -0.7071069 3.78723E-07
vn 0.7071068 -0.7071069 3.787305E-07
vn 0.7071068 -0.7071069 3.7873E-07
vn 0.7071068 -0.7071069 3.787285E-07
vn 0.7071067 -0.7071069 3.787274E-07
vn 0.7071067 -0.707107 7.289452E-08
vn 0.7071067 -0.707107 7.289453E-08
vn 0.7071066 -0.7071069 7.289452E-08

f 1//1 2//2 3//3
f 4//4 1//1 3//3
f 3//3 5//5 4//4
f 3//3 6//6 5//5
f 5//5 6//6 7//7
f 8//8 7//7 6//6
f 9//9 8//8 6//6
f 10//10 9//9 6//6
f 9//9 10//10 11//11
f 11//11 10//10 12//12
f 13//13 11//11 12//12
f 13//13 12//12 14//14
f 13//13 14//14 15//15
f 15//15 14//14 16//16
f 15//15 16//16 17//17
f 18//18 17//17 16//16
f 19//19 17//17 18//18
f 19//19 18//18 20//20
f 21//21 19//19 20//20
f 22//22 19//19 21//21
f 22//22 21//21 23//23
f 24//24 22//22 23//23
f 24//24 23//23 25//25
f 26//26 24//24 25//25
f 26//26 25//25 27//27
f 28//28 26//26 27//27
f 28//28 27//27 29//29
f 29//29 27//27 30//30
f 31//31 29//29 30//30
f 31//31 30//30 32//32
f 33//33 31//31 32//32
f 33//33 32//32 34//34
f 35//35 33//33 34//34
f 35//35 34//34 36//36
f 37//37 35//35 36//36
f 37//37 36//36 38//38
f 39//39 37//37 38//38
f 39//39 38//38 40//40
f 41//41 39//39 40//40
f 41//41 40//40 42//42
f 41//41 42//42 43//43
f 43//43 42//42 44//44
f 45//45 43//43 44//44
f 45//45 44//44 46//46
f 47//47 45//45 46//46
f 48//48 45//45 47//47
f 48//48 47//47 49//49
f 50//50 48//48 49//49
f 50//50 49//49 51//51
f 52//52 50//50 51//51
f 52//52 51//51 53//53
f 54//54 52//52 53//53
f 55//55 54//54 53//53
f 55//55 53//53 56//56
f 55//55 56//56 57//57
f 57//57 56//56 58//58
f 57//57 58//58 59//59
f 59//59 58//58 60//60
f 59//59 60//60 61//61
f 61//61 60//60 62//62
f 61//61 62//62 63//63
f 63//63 62//62 64//64
f 63//63 64//64 65//65
f 65//65 64//64 66//66
f 65//65 66//66 67//67
f 68//68 67//67 66//66
f 69//69 67//67 68//68
f 69//69 68//68 70//70
f 71//71 69//69 70//70
f 72//72 71//71 73//73
f 74//74 75//75 76//76
f 77//77 74//74 76//76
f 75//75 77//77 76//76
f 78//78 75//75 74//74
f 79//79 75//75 78//78
f 78//78 74//74 80//80
f 81//81 78//78 80//80
f 82//82 78//78 81//81
f 82//82 83//83 78//78
f 83//83 84//84 79//79
f 84//84 85//85 79//79
f 80//80 74//74 86//86
f 87//87 80//80 86//86
f 81//81 80//80 87//87
f 86//86 74//74 88//88
f 88//88 74//74 77//77
f 86//86 88//88 89//89
f 90//90 86//86 89//89
f 87//87 86//86 90//90
f 75//75 91//91 77//77
f 90//90 89//89 92//92
f 90//90 92//92 93//93
f 94//94 90//90 93//93
f 95//95 83//83 82//82
f 95//95 82//82 81//81
f 95//95 81//81 87//87
f 95//95 87//87 90//90
f 95//95 96//96 83//83
f 97//97 91//91 75//75
f 97//97 98//98 91//91
f 97//97 99//99 98//98
f 100//100 95//95 101//101
f 102//102 103//103 104//104
f 102//102 104//104 105//105
f 102//102 105//105 106//106
f 106//106 105//105 107//107
f 108//108 102//102 106//106
f 109//109 102//102 108//108
f 110//110 108//108 106//106
f 111//111 112//112 113//113
f 111//111 113//113 114//114
f 111//111 114//114 115//115
f 111//111 115//115 116//116
f 111//111 116//116 117//117
f 117//117 118//118 111//111
f 118//118 119//119 111//111
f 120//120 111//111 119//119
f 120//120 121//121 111//111
f 121//121 122//122 111//111
f 111//111 122//122 123//123
f 114//114 113//113 124//124
f 124//124 113//113 125//125
f 125//125 113//113 126//126
f 126//126 113//113 127//127
f 127//127 113//113 128//128
f 128//128 113//113 129//129
f 129//129 113//113 130//130
f 130//130 113//113 131//131
f 131//131 113//113 132//132
f 132//132 113//113 133//133
f 133//133 113//113 134//134
f 133//133 134//134 135//135
f 135//135 134//134 136//136
f 134//134 137//137 136//136
f 137//137 134//134 138//138
f 138//138 134//134 139//139
f 139//139 134//134 140//140
f 140//140 134//134 141//141
f 134//134 142//142 141//141
f 134//134 143//143 142//142
f 134//134 144//144 143//143
f 144//144 134//134 145//145
f 145//145 134//134 146//146
f 147//147 134//134 148//148
f 149//149 150//150 151//151
f 149//149 152//152 150//150
f 151//151 150//150 153//153
f 151//151 153//153 154//154
f 154//154 153//153 155//155
f 154//154 155//155 156//156
f 152//152 157//157 150//150
f 158//158 159//159 160//160
f 161//161 159//159 158//158
f 162//162 159//159 161//161
f 163//163 162//162 161//161
f 164//164 162//162 163//163
f 165//165 162//162 164//164
f 9//9 166//166 8//8
f 166//166 9//9 167//167
f 168//168 169//169 170//170
f 168//168 171//171 169//169
f 172//172 169//169 173//173
f 174//174 169//169 172//172
f 169//169 174//174 175//175
f 176//176 169//169 175//175
f 177//177 169//169 176//176
f 178//178 169//169 177//177
f 178//178 179//179 169//169
f 179//179 180//180 169//169
f 180//180 181//181 169//169
f 182//182 181//181 180//180
f 182//182 183//183 181//181
f 183//183 184//184 181//181
f 184//184 185//185 181//181
f 185//185 186//186 181//181
f 186//186 187//187 181//181
f 187//187 188//188 181//181
f 188//188 189//189 181//181
f 181//181 189//189 190//190
f 181//181 190//190 191//191
f 192//192 181//181 191//191
f 193//193 181//181 192//192
f 194//194 181//181 193//193
f 195//195 181//181 194//194
f 195//195 196//196 181//181
f 196//196 197//197 198//198
f 196//196 198//198 199//199
f 199//199 200//200 196//196
f 196//196 200//200 201//201
f 201//201 202//202 196//196
f 196//196 202//202 203//203
f 196//196 203//203 204//204
f 205//205 196//196 206//206
f 207//207 196//196 205//205
