v 92.87512 92.98314 90.00002
v 92.87512 92.98314 49.99998
v 92.87512 92.98314 90.00002
v 92.87512 92.98314 90.00002
v 95.41972 95.48917 90.00002
v 96.43756 96.49157 90.00002
v 96.43756 96.49157 90.00002
v 96.43756 96.49157 49.99998
v 96.43756 96.49156 9.999943
v 96.66475 96.39543 90.00002
v 98.48225 95.62627 9.999943
v 96.69298 96.38348 90.00002
v 98.73633 95.51875 9.999943
v 96.7009 96.38013 90.00002
v 98.80766 95.48856 9.999943
v 96.78999 96.34243 90.00002
v 99.60938 95.14928 9.999943
v 97.88827 95.87765 90.00002
v 99.73141 95.09763 9.999943
v 98.92958 95.43697 90.00002
v 99.04937 95.38628 90.00002
v 99.86043 95.04304 9.999943
v 99.29922 95.28054 90.00002
v 99.88818 95.03129 9.999943
v 99.96181 95.00014 90.00002
v 99.96181 95.00014 9.999943
v 100.1505 95.0766 90.00002
v 101.0006 95.42115 9.999943
v 101.6596 95.68826 9.999943
v 100.1973 95.09557 90.00002
v 102.0809 95.85899 9.999943
v 100.2112 95.10121 90.00002
v 102.2063 95.9098 9.999943
v 100.3165 95.14388 90.00002
v 103.1538 96.29382 9.999943
v 101.5243 95.63341 90.00002
v 103.288 96.34821 9.999943
v 102.5221 96.03783 90.00002
v 103.3988 96.39314 9.999943
v 103.5084 96.43756 90.00002
v 103.5084 96.43755 9.999943
v 103.5545 96.54632 90.00002
v 103.9226 97.41634 9.999943
v 103.6576 96.78999 90.00002
v 104.8507 99.60938 9.999943
v 103.9453 97.46979 90.00002
v 104.0603 97.74165 90.00002
v 104.8955 99.71513 9.999943
v 104.4526 98.66867 90.00002
v 104.9391 99.81812 9.999943
v 104.7756 99.43197 90.00002
v 104.9749 99.90294 9.999943
v 104.9999 99.96181 90.00002
v 104.9999 99.96181 9.999943
v 104.9999 99.96181 9.999943
v 104.9144 100.1726 90.00002
v 104.231 101.8589 9.999943
v 104.8893 100.2346 90.00002
v 104.0047 102.4173 9.999943
v 104.8867 100.241 90.00002
v 103.9816 102.4743 9.999943
v 104.8855 100.2439 90.00002
v 103.9709 102.5007 9.999943
v 104.884 100.2476 90.00002
v 103.9573 102.5341 9.999943
v 104.8561 100.3165 90.00002
v 103.7062 103.1538 9.999943
v 103.5624 103.5084 90.00002
v 103.5624 103.5084 9.999943
v 103.5624 103.5084 90.00002
v 103.5624 103.5084 9.999943
v 103.5624 103.5084 90.00002
v 103.5624 103.5084 90.00002
v 104.5803 104.5108 90.00002
v 107.1249 107.0169 90.00002
v 107.1249 107.0169 90.00002
v 107.1249 107.0169 90.00002
v 103.5624 103.5084 90.00002
v 103.5624 103.5084 90.00002
v 103.5624 103.5084 90.00002
v 103.5624 103.5084 9.999943
v 103.5624 103.5084 9.999943
v 103.5624 103.5084 9.999943
v 103.5624 103.5084 90.00002
v 109.9997 99.92362 90.00002
v 103.5624 103.5084 90.00002
v 103.5624 103.5084 9.999943
v 103.5624 103.5084 90.00002
v 103.5624 103.5084 49.99998
v 103.5624 103.5084 9.999943
v 107.1249 107.0169 49.99998
v 103.5624 103.5084 9.999985
v 103.5624 103.5084 9.999943
v 104.5803 104.5108 9.999943
v 109.9997 99.92361 9.99995
v 103.5624 103.5084 9.999943
v 109.9997 99.92362 90.00002
v 107.1249 107.0169 9.999943
v 109.9997 99.92361 9.99995
v 104.9999 99.96181 9.999943
v 104.9999 99.96181 9.999943
v 92.87512 92.98314 49.99998
v 92.87512 92.98314 90.00002
v 92.87512 92.98314 90.00002
v 95.41972 95.48917 90.00002
v 96.43756 96.49157 49.99998
v 96.43756 96.49157 90.00002
v 94.96194 95.03832 9.999943
v 92.87512 92.98314 9.999943
v 96.43756 96.49156 9.999943
v 92.87512 92.98314 90.00002
v 99.92362 90.00028 90.00002
v 107.0169 92.87512 90.00002
v 99.96181 95.00014 90.00002
v 99.29922 95.28054 90.00002
v 99.04937 95.38628 90.00002
v 98.92958 95.43697 90.00002
v 97.88827 95.87765 90.00002
v 96.78999 96.34243 90.00002
v 96.7009 96.38013 90.00002
v 96.69298 96.38348 90.00002
v 96.66475 96.39543 90.00002
v 96.43756 96.49157 90.00002
v 100.1505 95.0766 90.00002
v 100.1973 95.09557 90.00002
v 100.2112 95.10121 90.00002
v 100.3165 95.14388 90.00002
v 101.5243 95.63341 90.00002
v 102.5221 96.03783 90.00002
v 103.5084 96.43756 90.00002
v 103.5545 96.54632 90.00002
v 103.6576 96.78999 90.00002
v 103.9453 97.46979 90.00002
v 109.9997 99.92362 90.00002
v 104.0603 97.74165 90.00002
v 104.4526 98.66867 90.00002
v 104.7756 99.43197 90.00002
v 104.9999 99.96181 90.00002
v 104.9144 100.1726 90.00002
v 104.8893 100.2346 90.00002
v 104.8867 100.241 90.00002
v 104.8855 100.2439 90.00002
v 104.884 100.2476 90.00002
v 104.8561 100.3165 90.00002
v 103.5624 103.5084 90.00002
v 103.5624 103.5084 90.00002
v 103.5624 103.5084 90.00002
v 107.1249 107.0169 90.00002
v 92.87512 92.98314 90.00002
v 99.92361 90.00027 9.99995
v 99.92362 90.00028 90.00002
v 92.87512 92.98314 49.99998
v 107.0169 92.87511 9.99995
v 107.0169 92.87512 90.00002
v 109.9997 99.92361 9.99995
v 109.9997 99.92362 90.00002
v 92.87512 92.98314 9.999943
v 107.1249 107.0169 90.00002
v 103.5624 103.5084 49.99998
v 103.5624 103.5084 90.00002
v 107.1249 107.0169 49.99998
v 103.5624 103.5084 9.999985
v 107.1249 107.0169 9.999943
v 104.5803 104.5108 9.999943
v 103.5624 103.5084 9.999943
v 96.43756 96.49156 9.999943
v 99.92361 90.00027 9.99995
v 94.96194 95.03832 9.999943
v 99.92361 90.00027 9.99995
v 92.87512 92.98314 9.999943
v 96.43756 96.49156 9.999943
v 98.48225 95.62627 9.999943
v 96.43756 96.49156 9.999943
v 98.73633 95.51875 9.999943
v 98.80766 95.48856 9.999943
v 99.60938 95.14928 9.999943
v 99.73141 95.09763 9.999943
v 99.86043 95.04304 9.999943
v 99.88818 95.03129 9.999943
v 99.96181 95.00014 9.999943
v 107.0169 92.87511 9.99995
v 101.0006 95.42115 9.999943
v 101.6596 95.68826 9.999943
v 102.0809 95.85899 9.999943
v 102.2063 95.9098 9.999943
v 103.1538 96.29382 9.999943
v 103.288 96.34821 9.999943
v 103.3988 96.39314 9.999943
v 103.5084 96.43755 9.999943
v 103.9226 97.41634 9.999943
v 104.8507 99.60938 9.999943
v 104.8955 99.71513 9.999943
v 104.9391 99.81812 9.999943
v 104.9749 99.90294 9.999943
v 104.9999 99.96181 9.999943
v 109.9997 99.92361 9.99995
v 104.9999 99.96181 9.999943
v 104.231 101.8589 9.999943
v 104.0047 102.4173 9.999943
v 103.9816 102.4743 9.999943
v 103.9709 102.5007 9.999943
v 103.9573 102.5341 9.999943
v 103.7062 103.1538 9.999943
v 103.5624 103.5084 9.999943
v 104.5803 104.5108 9.999943
v 103.5624 103.5084 9.999943
v 107.1249 107.0169 9.999943

vn -0.7124871 -0.7016852 5.340572E-07
vn -0.7124871 -0.7016852 3.814694E-07
vn -0.5409605 -0.5327591 0.6507913
vn 0 0 1
vn 0 0 1
vn 0.3897244 0.9209315 -6.462383E-08
vn 0.7053263 0.6946331 0.141421
vn -0.5122529 0.8588346 -1.883212E-07
vn 0.3897286 0.9209297 -3.424387E-07
vn 0.3897294 0.9209295 -3.013172E-07
vn 0.3897291 0.9209296 -3.400592E-07
vn 0.3897282 0.92093 -4.236429E-07
vn 0.3897272 0.9209303 -4.821552E-07
vn 0.3897325 0.9209281 1.095606E-07
vn 0.38973 0.9209292 -1.780023E-07
vn 0.3897295 0.9209294 -2.260704E-07
vn 0.3897297 0.9209294 -2.089216E-07
vn 0.3897297 0.9209293 -2.077588E-07
vn 0.3897294 0.9209294 -2.217208E-07
vn 0.3897298 0.9209293 -2.409156E-07
vn 0.3897287 0.9209297 -2.351288E-07
vn 0.3897272 0.9209303 -2.778156E-07
vn 0.3897292 0.9209294 -1.673258E-07
vn 0.3897301 0.9209292 -1.811419E-07
vn 0.2463646 0.9691773 -1.839746E-07
vn -0.3373966 0.9413626 -2.087927E-07
vn -0.3756177 0.9267747 -2.638545E-07
vn -0.3756169 0.926775 -2.243663E-07
vn -0.3756166 0.9267752 -2.046673E-07
vn -0.3756147 0.926776 -5.134434E-08
vn -0.3756135 0.9267764 3.311141E-08
vn -0.3756119 0.926777 2.493531E-07
vn -0.3756145 0.926776 -1.725448E-08
vn -0.3756156 0.9267755 -1.95488E-07
vn -0.3756162 0.9267754 -2.545912E-07
vn -0.3756162 0.9267753 -3.133276E-07
vn -0.3756151 0.9267756 -2.147517E-07
vn -0.3756158 0.9267755 -2.354086E-07
vn -0.3756169 0.926775 -2.762392E-07
vn -0.4358008 0.9000432 -2.850269E-07
vn -0.8932096 0.4496407 -1.199789E-07
vn -0.920929 0.3897303 -7.869002E-08
vn -0.9209295 0.3897294 -1.061353E-07
vn -0.9209298 0.3897288 -1.468234E-07
vn -0.9209297 0.3897287 -1.18347E-07
vn -0.9209295 0.3897291 -1.005928E-07
vn -0.9209293 0.3897296 2.558145E-08
vn -0.9209296 0.3897292 -4.388408E-08
vn -0.9209294 0.3897296 -2.142637E-08
vn -0.9209294 0.3897292 -1.39089E-08
vn -0.9209296 0.3897293 -6.971242E-09
vn -0.9209293 0.3897296 1.713521E-09
vn -0.9796726 0.2006035 6.568339E-08
vn -0.9209203 0.3897511 3.749556E-09
vn -0.9267758 -0.3756151 1.50355E-07
vn -0.9267752 -0.3756163 1.053244E-07
vn -0.9267751 -0.3756168 6.84602E-08
vn -0.9267746 -0.3756179 -3.948485E-08
vn -0.9267754 -0.375616 1.617077E-07
vn -0.9267761 -0.3756145 4.500968E-07
vn -0.926777 -0.3756119 7.290805E-07
vn -0.926794 -0.37557 6.344963E-06
vn -0.9267834 -0.3755963 2.762223E-06
vn -0.9267727 -0.3756227 -5.911333E-07
vn -0.9267743 -0.3756189 -2.018595E-07
vn -0.9267753 -0.3756163 1.357495E-07
vn -0.9267755 -0.3756157 1.613505E-07
vn -0.9267756 -0.3756154 1.611312E-07
vn -0.9267775 -0.3756108 9.115076E-08
vn -0.9766014 -0.2150578 9.305477E-08
vn -0.7124871 -0.7016852 1.907347E-07
vn -0.7124871 -0.7016852 1.907347E-07
vn -0.7124871 -0.7016852 1.907347E-07
vn 0 0 1
vn 0.9267754 0.375616 -2.936142E-07
vn 0 0 1
vn -0.6031393 0.7976359 -1.677742E-07
vn -0.4627346 -0.4557192 0.7603924
vn -0.4013784 -0.3952932 0.8262195
vn -0.7106865 -0.699912 0.0710492
vn -0.7124871 -0.7016852 1.90735E-07
vn -0.7124871 -0.7016852 1.907347E-07
vn -0.7124871 -0.7016852 1.907343E-07
vn -0.7086974 -0.697953 0.1030029
vn 0 0 1
vn -0.712434 -0.7016249 0.01266336
vn -0.7124871 -0.7016852 1.907357E-07
vn -0.7053262 -0.6946329 0.1414215
vn -0.7124824 -0.70169 1.907357E-07
vn -0.7111973 -0.7004238 -0.06004161
vn 0.9267753 0.375616 -2.232892E-07
vn -0.7124705 -0.7017021 1.907375E-07
vn -4.946623E-06 -4.871629E-06 -1
vn 0 0 -1
vn 3.028358E-07 -3.074977E-07 -1
vn 0 0 0
vn 0.9267755 0.375616 -2.130985E-07
vn 0.9267754 0.375616 -1.778031E-07
vn 0.9267755 0.375616 -2.029077E-07
vn 3.028358E-07 -3.074977E-07 -1
vn 3.028358E-07 -3.074977E-07 -1
vn -0.7016852 0.7124871 -1.192093E-07
vn -0.7016852 0.712487 -1.192092E-07
vn -0.7016852 0.7124871 -1.192093E-07
vn -0.7016852 0.7124871 -1.192093E-07
vn -0.7016852 0.7124871 -1.192093E-07
vn -0.7016852 0.7124871 -1.192092E-07
vn -0.7016852 0.7124871 -1.192093E-07
vn -0.7016852 0.7124871 -1.192093E-07
vn -0.7016852 0.7124871 -1.192093E-07
vn 0 0 1
vn 0 0 1
vn 0 0 1
vn 0 0 1
vn 0 0 1
vn 0 0 1
vn 0 0 1
vn 0 0 1
vn 0 0 1
vn 0 0 1
vn 0 0 1
vn 0 0 1
vn 0 0 1
vn 0 0 0.9999999
vn 0 0 1
vn 0 0 1
vn 0 0 0.9999999
vn 0 0 1
vn 0 0 1
vn 0 0 1
vn 0 0 0.9999999
vn 0 0 1
vn 0 0 1
vn 0 0 1
vn 0 0 1
vn 0 0 1
vn 0 0 1
vn 0 0 1
vn 0 0 1
vn 0 0 1
vn 0 0 1
vn 0 0 0.9999999
vn 0 0 1
vn 0 0 0.9999999
vn 0 0 0.9999999
vn 0 0 1
vn 0 0 0.9999999
vn 0 0 0.9999999
vn -0.3897291 -0.9209296 3.42789E-07
vn -0.144336 -0.9895288 3.092419E-07
vn 0.1292035 -0.9916181 2.619401E-07
vn -0.389729 -0.9209295 3.23738E-07
vn 0.5976416 -0.8017634 1.531119E-07
vn 0.7925405 -0.6098194 7.358348E-08
vn 0.9209295 -0.3897291 7.245398E-09
vn 0.9209296 -0.3897291 0
vn -0.3897292 -0.9209295 2.570785E-07
vn -0.7016852 0.7124871 -1.192093E-07
vn -0.7016852 0.7124871 -1.192093E-07
vn -0.7016852 0.7124871 -1.192093E-07
vn -0.7016852 0.7124871 -1.192093E-07
vn -0.7016852 0.7124871 -1.192093E-07
vn -0.7016852 0.7124871 -1.192093E-07
vn -0.7016852 0.7124871 -1.283792E-07
vn -0.7016852 0.712487 -1.283792E-07
vn 0.6976812 0.6871039 -0.2028032
vn -5.249311E-07 -5.169728E-07 -1
vn 1.514179E-07 -1.537488E-07 -0.9999999
vn 8.444943E-08 -2.447926E-07 -1
vn 1.514179E-07 -1.537488E-07 -1
vn 1.514179E-07 -1.537488E-07 -1
vn -1.287351E-07 -3.042012E-07 -1
vn -1.287352E-07 -3.042012E-07 -1
vn -1.287346E-07 -3.04201E-07 -1
vn -1.287354E-07 -3.042012E-07 -1
vn -1.287355E-07 -3.042012E-07 -1
vn -1.287349E-07 -3.042012E-07 -0.9999999
vn -1.287326E-07 -3.042011E-07 -1
vn -1.287379E-07 -3.042012E-07 -0.9999999
vn 1.217908E-07 -3.061147E-07 -1
vn 2.141373E-07 -2.174337E-07 -1
vn 1.240735E-07 -3.061317E-07 -1
vn 1.240732E-07 -3.061321E-07 -1
vn 1.240729E-07 -3.061328E-07 -1
vn 1.240731E-07 -3.061324E-07 -1
vn 1.240732E-07 -3.061324E-07 -1
vn 1.240733E-07 -3.061323E-07 -1
vn 1.240737E-07 -3.061319E-07 -1
vn 2.861671E-07 -1.464959E-07 -1
vn 3.042013E-07 -1.287353E-07 -1
vn 3.042014E-07 -1.287351E-07 -1
vn 3.042007E-07 -1.287354E-07 -1
vn 3.042024E-07 -1.287348E-07 -1
vn 3.042015E-07 -1.287351E-07 -1
vn 3.042012E-07 -1.287352E-07 -1
vn 2.434741E-07 -8.817891E-08 -1
vn 3.061323E-07 1.240734E-07 -1
vn 3.061324E-07 1.240736E-07 -1
vn 3.061325E-07 1.24074E-07 -1
vn 3.061297E-07 1.240672E-07 -1
vn 3.061329E-07 1.240746E-07 -1
vn 3.061326E-07 1.240742E-07 -1
vn 3.061319E-07 1.240728E-07 -1
vn 3.061314E-07 1.240717E-07 -0.9999999
vn 1.514179E-07 -1.537488E-07 -1
vn 1.514179E-07 -1.537488E-07 -1
vn 1.514179E-07 -1.537488E-07 -0.9999999

f 1//1 2//2 3//3
f 4//4 1//1 3//3
f 3//3 5//5 4//4
f 3//3 6//6 5//5
f 5//5 6//6 7//7
f 8//8 7//7 6//6
f 9//9 8//8 6//6
f 10//10 9//9 6//6
f 9//9 10//10 11//11
f 11//11 10//10 12//12
f 13//13 11//11 12//12
f 13//13 12//12 14//14
f 13//13 14//14 15//15
f 15//15 14//14 16//16
f 15//15 16//16 17//17
f 18//18 17//17 16//16
f 19//19 17//17 18//18
f 19//19 18//18 20//20
f 21//21 19//19 20//20
f 22//22 19//19 21//21
f 22//22 21//21 23//23
f 24//24 22//22 23//23
f 24//24 23//23 25//25
f 26//26 24//24 25//25
f 26//26 25//25 27//27
f 28//28 26//26 27//27
f 28//28 27//27 29//29
f 29//29 27//27 30//30
f 31//31 29//29 30//30
f 31//31 30//30 32//32
f 33//33 31//31 32//32
f 33//33 32//32 34//34
f 35//35 33//33 34//34
f 35//35 34//34 36//36
f 37//37 35//35 36//36
f 37//37 36//36 38//38
f 39//39 37//37 38//38
f 39//39 38//38 40//40
f 41//41 39//39 40//40
f 41//41 40//40 42//42
f 41//41 42//42 43//43
f 43//43 42//42 44//44
f 45//45 43//43 44//44
f 45//45 44//44 46//46
f 47//47 45//45 46//46
f 48//48 45//45 47//47
f 48//48 47//47 49//49
f 50//50 48//48 49//49
f 50//50 49//49 51//51
f 52//52 50//50 51//51
f 52//52 51//51 53//53
f 54//54 52//52 53//53
f 55//55 54//54 53//53
f 55//55 53//53 56//56
f 55//55 56//56 57//57
f 57//57 56//56 58//58
f 57//57 58//58 59//59
f 59//59 58//58 60//60
f 59//59 60//60 61//61
f 61//61 60//60 62//62
f 61//61 62//62 63//63
f 63//63 62//62 64//64
f 63//63 64//64 65//65
f 65//65 64//64 66//66
f 65//65 66//66 67//67
f 68//68 67//67 66//66
f 69//69 67//67 68//68
f 69//69 68//68 70//70
f 71//71 69//69 70//70
f 72//72 71//71 73//73
f 74//74 75//75 76//76
f 77//77 74//74 76//76
f 75//75 77//77 76//76
f 78//78 75//75 74//74
f 79//79 75//75 78//78
f 78//78 74//74 80//80
f 81//81 78//78 80//80
f 82//82 78//78 81//81
f 82//82 83//83 78//78
f 83//83 84//84 79//79
f 84//84 85//85 79//79
f 80//80 74//74 86//86
f 87//87 80//80 86//86
f 81//81 80//80 87//87
f 86//86 74//74 88//88
f 88//88 74//74 77//77
f 86//86 88//88 89//89
f 90//90 86//86 89//89
f 87//87 86//86 90//90
f 75//75 91//91 77//77
f 90//90 89//89 92//92
f 90//90 92//92 93//93
f 94//94 90//90 93//93
f 95//95 83//83 82//82
f 95//95 82//82 81//81
f 95//95 81//81 87//87
f 95//95 87//87 90//90
f 95//95 96//96 83//83
f 97//97 91//91 75//75
f 97//97 98//98 91//91
f 97//97 99//99 98//98
f 100//100 95//95 101//101
f 102//102 103//103 104//104
f 102//102 104//104 105//105
f 102//102 105//105 106//106
f 106//106 105//105 107//107
f 108//108 102//102 106//106
f 109//109 102//102 108//108
f 110//110 108//108 106//106
f 111//111 112//112 113//113
f 111//111 113//113 114//114
f 111//111 114//114 115//115
f 111//111 115//115 116//116
f 111//111 116//116 117//117
f 117//117 118//118 111//111
f 118//118 119//119 111//111
f 120//120 111//111 119//119
f 120//120 121//121 111//111
f 121//121 122//122 111//111
f 111//111 122//122 123//123
f 114//114 113//113 124//124
f 124//124 113//113 125//125
f 125//125 113//113 126//126
f 126//126 113//113 127//127
f 127//127 113//113 128//128
f 128//128 113//113 129//129
f 129//129 113//113 130//130
f 130//130 113//113 131//131
f 131//131 113//113 132//132
f 132//132 113//113 133//133
f 133//133 113//113 134//134
f 133//133 134//134 135//135
f 135//135 134//134 136//136
f 134//134 137//137 136//136
f 137//137 134//134 138//138
f 138//138 134//134 139//139
f 139//139 134//134 140//140
f 140//140 134//134 141//141
f 134//134 142//142 141//141
f 134//134 143//143 142//142
f 134//134 144//144 143//143
f 144//144 134//134 145//145
f 145//145 134//134 146//146
f 147//147 134//134 148//148
f 149//149 150//150 151//151
f 149//149 152//152 150//150
f 151//151 150//150 153//153
f 151//151 153//153 154//154
f 154//154 153//153 155//155
f 154//154 155//155 156//156
f 152//152 157//157 150//150
f 158//158 159//159 160//160
f 161//161 159//159 158//158
f 162//162 159//159 161//161
f 163//163 162//162 161//161
f 164//164 162//162 163//163
f 165//165 162//162 164//164
f 9//9 166//166 8//8
f 166//166 9//9 167//167
f 168//168 169//169 170//170
f 168//168 171//171 169//169
f 172//172 169//169 173//173
f 174//174 169//169 172//172
f 169//169 174//174 175//175
f 176//176 169//169 175//175
f 177//177 169//169 176//176
f 178//178 169//169 177//177
f 178//178 179//179 169//169
f 179//179 180//180 169//169
f 180//180 181//181 169//169
f 182//182 181//181 180//180
f 182//182 183//183 181//181
f 183//183 184//184 181//181
f 184//184 185//185 181//181
f 185//185 186//186 181//181
f 186//186 187//187 181//181
f 187//187 188//188 181//181
f 188//188 189//189 181//181
f 181//181 189//189 190//190
f 181//181 190//190 191//191
f 192//192 181//181 191//191
f 193//193 181//181 192//192
f 194//194 181//181 193//193
f 195//195 181//181 194//194
f 195//195 196//196 181//181
f 196//196 197//197 198//198
f 196//196 198//198 199//199
f 199//199 200//200 196//196
f 196//196 200//200 201//201
f 201//201 202//202 196//196
f 196//196 202//202 203//203
f 196//196 203//203 204//204
f 205//205 196//196 206//206
f 207//207 196//196 205//205
