v 37.78307 12.27793 40.00008
v 25.03049 25.03051 40.00008
v 37.78307 12.27793 40.00008
v 37.78307 12.27793 40.00008
v 37.77217 12.26704 43.57148
v 37.76781 12.26268 45.00004
v 37.76781 12.26268 45.00004
v 25.01524 25.01526 45.00004
v 12.26267 37.76783 45.00004
v 37.92869 12.42355 45.09543
v 13.71051 39.21568 45.85853
v 37.94868 12.44354 45.10728
v 13.89043 39.39559 45.96521
v 37.95429 12.44915 45.11061
v 13.94094 39.4461 45.99516
v 38.01737 12.51223 45.14801
v 14.50863 40.01379 46.33177
v 38.79506 13.28992 45.60914
v 14.59504 40.1002 46.383
v 39.53241 14.02727 46.04635
v 39.61723 14.1121 46.09664
v 14.6864 40.19156 46.43717
v 39.79416 14.28902 46.20155
v 14.70605 40.21121 46.44883
v 40.26333 14.75819 46.47974
v 14.75819 40.26334 46.47974
v 40.31784 14.8127 46.66814
v 15.05832 40.56348 47.51712
v 15.24875 40.75391 48.17527
v 40.33136 14.82622 46.71488
v 15.37046 40.87562 48.59596
v 40.33538 14.83025 46.72879
v 15.40668 40.91185 48.72116
v 40.3658 14.86067 46.83392
v 15.68045 41.18562 49.66738
v 40.71478 15.20965 48.04011
v 15.71923 41.22439 49.8014
v 41.0031 15.49796 49.03661
v 15.75126 41.25642 49.91212
v 41.28807 15.78293 50.02156
v 15.78293 41.28809 50.02156
v 41.25578 15.75064 50.13047
v 15.49234 40.9975 51.00172
v 41.18344 15.6783 50.37449
v 14.84125 40.34641 53.19783
v 40.98161 15.47647 51.05524
v 40.9009 15.39576 51.32749
v 14.80986 40.31502 53.30372
v 40.62568 15.12054 52.2558
v 14.77928 40.28444 53.40687
v 40.39907 14.89393 53.02017
v 14.7541 40.25925 53.4918
v 40.24176 14.73662 53.55075
v 14.73662 40.24178 53.55075
v 14.73662 40.24178 53.55075
v 40.09291 14.58778 53.63689
v 13.39699 38.90215 54.32593
v 40.0491 14.54397 53.66224
v 13.00269 38.50785 54.55409
v 40.04463 14.53949 53.66483
v 12.96244 38.4676 54.57738
v 40.04256 14.53742 53.66602
v 12.94377 38.44893 54.58819
v 40.03994 14.5348 53.66754
v 12.92018 38.42534 54.60184
v 39.99132 14.48618 53.69567
v 12.48262 37.98778 54.85503
v 37.73732 12.23218 54.99995
v 12.23217 37.73734 54.99995
v 37.73732 12.23218 54.99996
v 12.23217 37.73734 54.99995
v 37.73732 12.23218 54.99996
v 37.73732 12.23218 54.99996
v 37.73296 12.22782 56.42852
v 37.72206 12.21693 59.99992
v 37.72206 12.21693 59.99992
v 37.72206 12.21693 59.99992
v 37.73732 12.23218 54.99996
v 37.73732 12.23218 54.99996
v 37.73732 12.23218 54.99996
v 12.23217 37.73734 54.99995
v 12.23217 37.73734 54.99995
v 12.23217 37.73734 54.99995
v 37.73732 12.23218 54.99996
v 42.73096 17.22582 57.10151
v 37.73732 12.23218 54.99996
v 12.23217 37.73734 54.99995
v 37.73732 12.23218 54.99996
v 24.98474 24.98476 54.99996
v 12.23217 37.73734 54.99995
v 24.96949 24.96951 59.99991
v 12.23218 37.73732 54.99995
v 12.23217 37.73734 54.99995
v 12.22781 37.73298 56.42851
v 17.22582 42.73097 57.10151
v 12.23217 37.73734 54.99995
v 42.73096 17.22582 57.10151
v 12.21692 37.72208 59.99991
v 17.22582 42.73097 57.10151
v 14.73662 40.24178 53.55075
v 14.73662 40.24178 53.55075
v 25.03049 25.03051 40.00008
v 37.78307 12.27793 40.00008
v 37.78307 12.27793 40.00008
v 37.77217 12.26704 43.57148
v 25.01524 25.01526 45.00004
v 37.76781 12.26268 45.00004
v 12.26899 37.77415 42.92899
v 12.27792 37.78308 40.00008
v 12.26267 37.76783 45.00004
v 37.78307 12.27793 40.00008
v 42.77409 17.26896 42.95949
v 44.82357 19.31844 50.04313
v 40.26333 14.75819 46.47974
v 39.79416 14.28902 46.20155
v 39.61723 14.1121 46.09664
v 39.53241 14.02727 46.04635
v 38.79506 13.28992 45.60914
v 38.01737 12.51223 45.14801
v 37.95429 12.44915 45.11061
v 37.94868 12.44354 45.10728
v 37.92869 12.42355 45.09543
v 37.76781 12.26268 45.00004
v 40.31784 14.8127 46.66814
v 40.33136 14.82622 46.71488
v 40.33538 14.83025 46.72879
v 40.3658 14.86067 46.83392
v 40.71478 15.20965 48.04011
v 41.0031 15.49796 49.03661
v 41.28807 15.78293 50.02156
v 41.25578 15.75064 50.13047
v 41.18344 15.6783 50.37449
v 40.98161 15.47647 51.05524
v 42.73096 17.22582 57.10151
v 40.9009 15.39576 51.32749
v 40.62568 15.12054 52.2558
v 40.39907 14.89393 53.02017
v 40.24176 14.73662 53.55075
v 40.09291 14.58778 53.63689
v 40.0491 14.54397 53.66224
v 40.04463 14.53949 53.66483
v 40.04256 14.53742 53.66602
v 40.03994 14.5348 53.66754
v 39.99132 14.48618 53.69567
v 37.73732 12.23218 54.99995
v 37.73732 12.23218 54.99996
v 37.73732 12.23218 54.99996
v 37.72206 12.21693 59.99992
v 37.78307 12.27793 40.00008
v 17.26895 42.77411 42.95948
v 42.77409 17.26896 42.95949
v 25.03049 25.03051 40.00008
v 19.31843 44.82359 50.04313
v 44.82357 19.31844 50.04313
v 17.22582 42.73097 57.10151
v 42.73096 17.22582 57.10151
v 12.27792 37.78308 40.00008
v 37.72206 12.21693 59.99992
v 24.98474 24.98476 54.99996
v 37.73732 12.23218 54.99996
v 24.96949 24.96951 59.99991
v 12.23218 37.73732 54.99995
v 12.21692 37.72208 59.99991
v 12.22781 37.73298 56.42851
v 12.23217 37.73734 54.99995
v 12.26267 37.76783 45.00004
v 17.26895 42.77411 42.95948
v 12.26899 37.77415 42.92899
v 17.26895 42.77411 42.95948
v 12.27792 37.78308 40.00008
v 12.26267 37.76783 45.00004
v 13.71051 39.21568 45.85853
v 12.26267 37.76783 45.00004
v 13.89043 39.39559 45.96521
v 13.94094 39.4461 45.99516
v 14.50863 40.01379 46.33177
v 14.59504 40.1002 46.383
v 14.6864 40.19156 46.43717
v 14.70605 40.21121 46.44883
v 14.75819 40.26334 46.47974
v 19.31843 44.82359 50.04313
v 15.05832 40.56348 47.51712
v 15.24875 40.75391 48.17527
v 15.37046 40.87562 48.59596
v 15.40668 40.91185 48.72116
v 15.68045 41.18562 49.66738
v 15.71923 41.22439 49.8014
v 15.75126 41.25642 49.91212
v 15.78293 41.28809 50.02156
v 15.49234 40.9975 51.00172
v 14.84125 40.34641 53.19783
v 14.80986 40.31502 53.30372
v 14.77928 40.28444 53.40687
v 14.7541 40.25925 53.4918
v 14.73662 40.24178 53.55075
v 17.22582 42.73097 57.10151
v 14.73662 40.24178 53.55075
v 13.39699 38.90215 54.32593
v 13.00269 38.50785 54.55409
v 12.96244 38.4676 54.57738
v 12.94377 38.44893 54.58819
v 12.92018 38.42534 54.60184
v 12.48262 37.98778 54.85503
v 12.23217 37.73734 54.99995
v 12.22781 37.73298 56.42851
v 12.23217 37.73734 54.99995
v 12.21692 37.72208 59.99991

vn 0.003050392 0.003049652 -0.9999907
vn 0.003050284 0.003049759 -0.9999907
vn 0.4624947 -0.4578633 -0.7592496
vn 0.7071067 -0.7071069 -4.470348E-08
vn 0.7071067 -0.7071069 -4.470348E-08
vn -0.2734167 -0.2734165 0.9222184
vn 0.09698035 -0.1030191 0.9899405
vn -0.687566 -0.6875656 0.233466
vn -0.2734138 -0.2734133 0.9222202
vn -0.2734133 -0.2734128 0.9222206
vn -0.2734135 -0.273413 0.9222204
vn -0.2734143 -0.2734136 0.9222201
vn -0.273415 -0.2734142 0.9222196
vn -0.2734108 -0.2734109 0.9222218
vn -0.2734128 -0.2734125 0.9222208
vn -0.2734132 -0.2734128 0.9222205
vn -0.2734131 -0.2734127 0.9222207
vn -0.273413 -0.2734126 0.9222206
vn -0.2734132 -0.2734128 0.9222205
vn -0.273413 -0.2734126 0.9222207
vn -0.2734137 -0.2734134 0.9222202
vn -0.2734148 -0.2734143 0.9222196
vn -0.2734133 -0.273413 0.9222204
vn -0.2734128 -0.2734124 0.9222208
vn -0.3686444 -0.368644 0.8533482
vn -0.6429433 -0.6429428 0.4162314
vn -0.6544435 -0.654443 0.3786929
vn -0.6544432 -0.6544427 0.3786936
vn -0.6544431 -0.6544427 0.3786939
vn -0.6544425 -0.6544423 0.3786959
vn -0.6544421 -0.654442 0.378697
vn -0.6544414 -0.6544417 0.3786986
vn -0.6544424 -0.6544423 0.378696
vn -0.6544428 -0.6544424 0.3786949
vn -0.6544431 -0.6544425 0.3786944
vn -0.6544431 -0.6544425 0.3786943
vn -0.6544427 -0.6544422 0.3786953
vn -0.654443 -0.6544424 0.3786947
vn -0.6544433 -0.6544427 0.3786936
vn -0.6706488 -0.6706482 0.3169566
vn -0.6687268 -0.6687264 -0.3249763
vn -0.6521088 -0.6521085 -0.3866634
vn -0.6521086 -0.6521083 -0.3866645
vn -0.6521084 -0.652108 -0.3866651
vn -0.6521084 -0.652108 -0.3866651
vn -0.6521084 -0.6521081 -0.3866647
vn -0.6521085 -0.6521084 -0.3866642
vn -0.6521085 -0.6521083 -0.3866646
vn -0.6521086 -0.6521084 -0.3866643
vn -0.6521084 -0.6521082 -0.3866645
vn -0.6521085 -0.6521083 -0.3866646
vn -0.6521086 -0.6521084 -0.3866641
vn -0.5854405 -0.5854405 -0.5608199
vn -0.6521149 -0.6521147 -0.3866427
vn -0.2677779 -0.2677781 -0.9255214
vn -0.2677771 -0.2677772 -0.9255218
vn -0.2677769 -0.2677769 -0.9255221
vn -0.2677762 -0.267776 -0.9255224
vn -0.2677774 -0.2677775 -0.9255217
vn -0.2677782 -0.2677788 -0.9255212
vn -0.2677798 -0.2677808 -0.9255201
vn -0.2678055 -0.2678143 -0.925503
vn -0.2677894 -0.2677933 -0.9255137
vn -0.2677732 -0.2677722 -0.9255245
vn -0.2677756 -0.2677752 -0.925523
vn -0.2677772 -0.2677773 -0.9255218
vn -0.2677776 -0.2677777 -0.9255216
vn -0.2677778 -0.2677779 -0.9255215
vn -0.2677811 -0.2677812 -0.9255196
vn -0.3736237 -0.3736237 -0.8490058
vn 0.003050149 0.003049894 -0.9999907
vn 0.003050149 0.003049894 -0.9999907
vn 0.003050149 0.003049894 -0.9999907
vn 0.7071067 -0.7071069 -4.470348E-08
vn 0.2677773 0.2677776 0.9255217
vn 0.7071067 -0.7071069 -4.470348E-08
vn -0.7015001 -0.7014996 0.1256824
vn 0.5396594 -0.5356978 -0.6494578
vn 0.5859436 -0.5825073 -0.5633432
vn 0.05328167 -0.04719706 -0.9974636
vn 0.003050149 0.003049894 -0.9999907
vn 0.003050149 0.003049894 -0.9999907
vn 0.003050149 0.003049894 -0.9999907
vn 0.0758678 -0.06980023 -0.9946718
vn 0.7071067 -0.7071069 -4.470348E-08
vn 0.01200006 -0.005908629 -0.9999106
vn 0.003050149 0.003049894 -0.9999907
vn 0.1030195 -0.09698075 -0.9899403
vn 0.003054837 0.003054582 -0.9999907
vn -0.03940688 0.04550479 -0.9981866
vn 0.2677773 0.2677775 0.9255217
vn 0.00306687 0.003066615 -0.9999906
vn -0.7071066 0.7071069 -6.897988E-06
vn -0.7071067 0.7071069 4.470348E-08
vn -0.7071064 0.7071072 4.656506E-08
vn 0 0 0
vn 0.2677774 0.2677776 0.9255217
vn 0.2677774 0.2677775 0.9255217
vn 0.2677774 0.2677776 0.9255218
vn -0.7071064 0.7071072 4.656506E-08
vn -0.7071064 0.7071072 4.656506E-08
vn -0.7071004 -0.7071001 -0.00431335
vn -0.7071004 -0.7071 -0.004313349
vn -0.7071004 -0.7071001 -0.00431335
vn -0.7071004 -0.7071001 -0.00431335
vn -0.7071004 -0.7071001 -0.00431335
vn -0.7071004 -0.7071001 -0.00431335
vn -0.7071004 -0.7071001 -0.00431335
vn -0.7071004 -0.7071001 -0.00431335
vn -0.7071004 -0.7071001 -0.00431335
vn 0.7071067 -0.7071069 -4.470348E-08
vn 0.7071067 -0.7071069 -4.470348E-08
vn 0.7071067 -0.7071069 -4.470348E-08
vn 0.7071067 -0.7071069 -4.470348E-08
vn 0.7071067 -0.7071069 -4.470348E-08
vn 0.7071067 -0.7071069 -4.470348E-08
vn 0.7071067 -0.7071069 -4.470348E-08
vn 0.7071067 -0.7071069 -4.470348E-08
vn 0.7071067 -0.7071069 -4.470348E-08
vn 0.7071067 -0.7071069 -4.470348E-08
vn 0.7071067 -0.7071069 -4.470348E-08
vn 0.7071067 -0.7071069 -4.470348E-08
vn 0.7071067 -0.7071069 -4.470348E-08
vn 0.7071066 -0.7071068 -4.470348E-08
vn 0.7071067 -0.7071069 -4.470348E-08
vn 0.7071067 -0.7071069 -4.470348E-08
vn 0.7071066 -0.7071068 -4.470348E-08
vn 0.7071067 -0.7071069 -4.470348E-08
vn 0.7071067 -0.7071069 -4.470348E-08
vn 0.7071067 -0.7071069 -4.470348E-08
vn 0.7071066 -0.7071068 -4.470348E-08
vn 0.7071067 -0.7071069 -4.470348E-08
vn 0.7071067 -0.7071069 -4.470348E-08
vn 0.7071067 -0.7071069 -4.470348E-08
vn 0.7071067 -0.7071069 -4.470348E-08
vn 0.7071067 -0.7071069 -4.470348E-08
vn 0.7071067 -0.7071069 -4.470348E-08
vn 0.7071067 -0.7071069 -4.470348E-08
vn 0.7071067 -0.7071069 -4.470348E-08
vn 0.7071067 -0.7071069 -4.470348E-08
vn 0.7071067 -0.7071069 -4.470348E-08
vn 0.7071066 -0.7071068 -4.470348E-08
vn 0.7071067 -0.7071069 -4.470348E-08
vn 0.7071066 -0.7071068 -4.470348E-08
vn 0.7071066 -0.7071068 -4.470348E-08
vn 0.7071067 -0.7071069 -4.470348E-08
vn 0.7071066 -0.7071068 -4.470348E-08
vn 0.7071066 -0.7071068 -4.470348E-08
vn 0.2734136 0.273413 -0.9222205
vn 0.429342 0.4293415 -0.7945637
vn 0.5655245 0.565524 -0.6003039
vn 0.2734135 0.273413 -0.9222203
vn 0.7008725 0.7008721 -0.1324995
vn 0.7000381 0.7000379 0.1410451
vn 0.6521084 0.6521082 0.3866647
vn 0.6521084 0.6521083 0.3866647
vn 0.2734134 0.273413 -0.9222204
vn -0.7071004 -0.7071001 -0.00431335
vn -0.7071004 -0.7071001 -0.00431335
vn -0.7071004 -0.7071001 -0.00431335
vn -0.7071004 -0.7071001 -0.00431335
vn -0.7071004 -0.7071001 -0.00431335
vn -0.7071004 -0.7071001 -0.00431335
vn -0.7071005 -0.7071 -0.00431335
vn -0.7071004 -0.7071 -0.004313349
vn -0.1463902 0.1404169 0.9792104
vn -0.7071067 0.7071069 -6.920485E-07
vn -0.7071065 0.707107 4.563427E-08
vn -0.7071065 0.7071071 -6.588585E-08
vn -0.7071065 0.7071071 4.563427E-08
vn -0.7071065 0.7071071 4.563427E-08
vn -0.7071066 0.707107 -2.59924E-07
vn -0.7071066 0.707107 -2.599241E-07
vn -0.7071066 0.707107 -2.599235E-07
vn -0.7071066 0.707107 -2.599242E-07
vn -0.7071066 0.707107 -2.599243E-07
vn -0.7071066 0.7071069 -2.599238E-07
vn -0.7071066 0.707107 -2.599222E-07
vn -0.7071066 0.7071069 -2.59926E-07
vn -0.7071065 0.7071071 -8.200779E-08
vn -0.7071065 0.7071071 4.601981E-08
vn -0.7071065 0.7071071 -8.038633E-08
vn -0.7071065 0.7071071 -8.038685E-08
vn -0.7071065 0.7071071 -8.038758E-08
vn -0.7071065 0.7071071 -8.038712E-08
vn -0.7071065 0.7071071 -8.038708E-08
vn -0.7071065 0.7071071 -8.038695E-08
vn -0.7071065 0.7071071 -8.038634E-08
vn -0.7071065 0.7071071 1.471152E-07
vn -0.7071065 0.7071071 1.724265E-07
vn -0.7071065 0.7071071 1.724267E-07
vn -0.7071065 0.7071071 1.72426E-07
vn -0.7071065 0.7071071 1.724276E-07
vn -0.7071065 0.7071071 1.724268E-07
vn -0.7071065 0.7071071 1.724264E-07
vn -0.7071065 0.7071071 1.573086E-07
vn -0.7071066 0.7071069 3.504217E-07
vn -0.7071066 0.7071069 3.504219E-07
vn -0.7071066 0.7071069 3.504222E-07
vn -0.7071066 0.7071069 3.504155E-07
vn -0.7071066 0.7071069 3.50423E-07
vn -0.7071066 0.7071069 3.504224E-07
vn -0.7071066 0.7071069 3.50421E-07
vn -0.7071066 0.7071069 3.504198E-07
vn -0.7071065 0.7071071 4.563427E-08
vn -0.7071065 0.7071071 4.563428E-08
vn -0.7071065 0.707107 4.563427E-08

f 1//1 2//2 3//3
f 4//4 1//1 3//3
f 3//3 5//5 4//4
f 3//3 6//6 5//5
f 5//5 6//6 7//7
f 8//8 7//7 6//6
f 9//9 8//8 6//6
f 10//10 9//9 6//6
f 9//9 10//10 11//11
f 11//11 10//10 12//12
f 13//13 11//11 12//12
f 13//13 12//12 14//14
f 13//13 14//14 15//15
f 15//15 14//14 16//16
f 15//15 16//16 17//17
f 18//18 17//17 16//16
f 19//19 17//17 18//18
f 19//19 18//18 20//20
f 21//21 19//19 20//20
f 22//22 19//19 21//21
f 22//22 21//21 23//23
f 24//24 22//22 23//23
f 24//24 23//23 25//25
f 26//26 24//24 25//25
f 26//26 25//25 27//27
f 28//28 26//26 27//27
f 28//28 27//27 29//29
f 29//29 27//27 30//30
f 31//31 29//29 30//30
f 31//31 30//30 32//32
f 33//33 31//31 32//32
f 33//33 32//32 34//34
f 35//35 33//33 34//34
f 35//35 34//34 36//36
f 37//37 35//35 36//36
f 37//37 36//36 38//38
f 39//39 37//37 38//38
f 39//39 38//38 40//40
f 41//41 39//39 40//40
f 41//41 40//40 42//42
f 41//41 42//42 43//43
f 43//43 42//42 44//44
f 45//45 43//43 44//44
f 45//45 44//44 46//46
f 47//47 45//45 46//46
f 48//48 45//45 47//47
f 48//48 47//47 49//49
f 50//50 48//48 49//49
f 50//50 49//49 51//51
f 52//52 50//50 51//51
f 52//52 51//51 53//53
f 54//54 52//52 53//53
f 55//55 54//54 53//53
f 55//55 53//53 56//56
f 55//55 56//56 57//57
f 57//57 56//56 58//58
f 57//57 58//58 59//59
f 59//59 58//58 60//60
f 59//59 60//60 61//61
f 61//61 60//60 62//62
f 61//61 62//62 63//63
f 63//63 62//62 64//64
f 63//63 64//64 65//65
f 65//65 64//64 66//66
f 65//65 66//66 67//67
f 68//68 67//67 66//66
f 69//69 67//67 68//68
f 69//69 68//68 70//70
f 71//71 69//69 70//70
f 72//72 71//71 73//73
f 74//74 75//75 76//76
f 77//77 74//74 76//76
f 75//75 77//77 76//76
f 78//78 75//75 74//74
f 79//79 75//75 78//78
f 78//78 74//74 80//80
f 81//81 78//78 80//80
f 82//82 78//78 81//81
f 82//82 83//83 78//78
f 83//83 84//84 79//79
f 84//84 85//85 79//79
f 80//80 74//74 86//86
f 87//87 80//80 86//86
f 81//81 80//80 87//87
f 86//86 74//74 88//88
f 88//88 74//74 77//77
f 86//86 88//88 89//89
f 90//90 86//86 89//89
f 87//87 86//86 90//90
f 75//75 91//91 77//77
f 90//90 89//89 92//92
f 90//90 92//92 93//93
f 94//94 90//90 93//93
f 95//95 83//83 82//82
f 95//95 82//82 81//81
f 95//95 81//81 87//87
f 95//95 87//87 90//90
f 95//95 96//96 83//83
f 97//97 91//91 75//75
f 97//97 98//98 91//91
f 97//97 99//99 98//98
f 100//100 95//95 101//101
f 102//102 103//103 104//104
f 102//102 104//104 105//105
f 102//102 105//105 106//106
f 106//106 105//105 107//107
f 108//108 102//102 106//106
f 109//109 102//102 108//108
f 110//110 108//108 106//106
f 111//111 112//112 113//113
f 111//111 113//113 114//114
f 111//111 114//114 115//115
f 111//111 115//115 116//116
f 111//111 116//116 117//117
f 117//117 118//118 111//111
f 118//118 119//119 111//111
f 120//120 111//111 119//119
f 120//120 121//121 111//111
f 121//121 122//122 111//111
f 111//111 122//122 123//123
f 114//114 113//113 124//124
f 124//124 113//113 125//125
f 125//125 113//113 126//126
f 126//126 113//113 127//127
f 127//127 113//113 128//128
f 128//128 113//113 129//129
f 129//129 113//113 130//130
f 130//130 113//113 131//131
f 131//131 113//113 132//132
f 132//132 113//113 133//133
f 133//133 113//113 134//134
f 133//133 134//134 135//135
f 135//135 134//134 136//136
f 134//134 137//137 136//136
f 137//137 134//134 138//138
f 138//138 134//134 139//139
f 139//139 134//134 140//140
f 140//140 134//134 141//141
f 134//134 142//142 141//141
f 134//134 143//143 142//142
f 134//134 144//144 143//143
f 144//144 134//134 145//145
f 145//145 134//134 146//146
f 147//147 134//134 148//148
f 149//149 150//150 151//151
f 149//149 152//152 150//150
f 151//151 150//150 153//153
f 151//151 153//153 154//154
f 154//154 153//153 155//155
f 154//154 155//155 156//156
f 152//152 157//157 150//150
f 158//158 159//159 160//160
f 161//161 159//159 158//158
f 162//162 159//159 161//161
f 163//163 162//162 161//161
f 164//164 162//162 163//163
f 165//165 162//162 164//164
f 9//9 166//166 8//8
f 166//166 9//9 167//167
f 168//168 169//169 170//170
f 168//168 171//171 169//169
f 172//172 169//169 173//173
f 174//174 169//169 172//172
f 169//169 174//174 175//175
f 176//176 169//169 175//175
f 177//177 169//169 176//176
f 178//178 169//169 177//177
f 178//178 179//179 169//169
f 179//179 180//180 169//169
f 180//180 181//181 169//169
f 182//182 181//181 180//180
f 182//182 183//183 181//181
f 183//183 184//184 181//181
f 184//184 185//185 181//181
f 185//185 186//186 181//181
f 186//186 187//187 181//181
f 187//187 188//188 181//181
f 188//188 189//189 181//181
f 181//181 189//189 190//190
f 181//181 190//190 191//191
f 192//192 181//181 191//191
f 193//193 181//181 192//192
f 194//194 181//181 193//193
f 195//195 181//181 194//194
f 195//195 196//196 181//181
f 196//196 197//197 198//198
f 196//196 198//198 199//199
f 199//199 200//200 196//196
f 196//196 200//200 201//201
f 201//201 202//202 196//196
f 196//196 202//202 203//203
f 196//196 203//203 204//204
f 205//205 196//196 206//206
f 207//207 196//196 205//205
