v 59.99993 12.27479 37.77991
v 59.99994 25.02735 25.02734
v 59.99993 12.27479 37.77991
v 59.99993 12.27479 37.77991
v 56.42853 12.26502 37.77014
v 54.99997 12.26111 37.76624
v 54.99997 12.26111 37.76624
v 54.99997 25.01368 25.01367
v 54.99997 37.76625 12.2611
v 54.90468 12.42201 37.92714
v 54.1424 39.21436 13.70921
v 54.89284 12.44201 37.94713
v 54.03583 39.39431 13.88916
v 54.88951 12.44762 37.95274
v 54.00591 39.44483 13.93968
v 54.85215 12.51071 38.01583
v 53.66965 40.01263 14.50748
v 54.39152 13.28855 38.79367
v 53.61848 40.09906 14.59391
v 53.95477 14.02603 39.53116
v 53.90453 14.11088 39.616
v 53.56437 40.19043 14.68528
v 53.79974 14.28783 39.79295
v 53.55272 40.21009 14.70494
v 53.52184 14.75709 40.26221
v 53.52184 40.26223 14.75708
v 53.33348 14.81166 40.31678
v 52.48466 40.56269 15.05754
v 51.82662 40.75332 15.24817
v 53.28674 14.8252 40.33032
v 51.40601 40.87517 15.37002
v 53.27284 14.82922 40.33435
v 51.28084 40.91143 15.40628
v 53.16772 14.85968 40.3648
v 50.33479 41.1855 15.68035
v 51.96175 15.20904 40.71416
v 50.20079 41.22432 15.71917
v 50.96544 15.49767 41.00279
v 50.09009 41.25639 15.75124
v 49.98066 15.78295 41.28807
v 49.98067 41.28809 15.78294
v 49.87173 15.75069 41.25582
v 49.00032 40.99781 15.49265
v 49.62768 15.67843 41.18356
v 46.8038 40.34741 14.84226
v 48.9468 15.47682 40.98194
v 48.6745 15.39619 40.90131
v 46.6979 40.31605 14.8109
v 47.74601 15.12126 40.62639
v 46.59473 40.2855 14.78035
v 46.9815 14.89489 40.40002
v 46.50978 40.26035 14.7552
v 46.45081 14.73775 40.24288
v 46.45082 40.24289 14.73774
v 46.45082 40.24289 14.73774
v 46.36459 14.58893 40.09406
v 45.6748 38.90351 13.39836
v 46.33921 14.54513 40.05025
v 45.44639 38.50928 13.00413
v 46.33662 14.54066 40.04578
v 45.42307 38.46904 12.96388
v 46.33542 14.53858 40.04371
v 45.41225 38.45037 12.94522
v 46.3339 14.53596 40.04109
v 45.39859 38.42678 12.92163
v 46.30574 14.48735 39.99248
v 45.14512 37.9893 12.48415
v 45.00003 12.23377 37.73889
v 45.00004 37.7389 12.23375
v 45.00003 12.23376 37.73889
v 45.00004 37.7389 12.23375
v 45.00003 12.23376 37.73889
v 45.00003 12.23376 37.73889
v 43.57147 12.22986 37.73498
v 40.00007 12.22009 37.72522
v 40.00007 12.22009 37.72522
v 40.00007 12.22009 37.72522
v 45.00003 12.23376 37.73889
v 45.00003 12.23376 37.73889
v 45.00003 12.23376 37.73889
v 45.00004 37.7389 12.23375
v 45.00004 37.7389 12.23375
v 45.00004 37.7389 12.23375
v 45.00003 12.23376 37.73889
v 42.90163 17.22807 42.73319
v 45.00003 12.23376 37.73889
v 45.00004 37.7389 12.23375
v 45.00003 12.23376 37.73889
v 45.00003 24.98633 24.98632
v 45.00004 37.7389 12.23375
v 40.00007 24.97266 24.97264
v 45.00004 37.73889 12.23376
v 45.00004 37.7389 12.23375
v 43.57148 37.73499 12.22984
v 42.90163 42.73321 17.22806
v 45.00004 37.7389 12.23375
v 42.90163 17.22807 42.73319
v 40.00007 37.72523 12.22008
v 42.90163 42.73321 17.22806
v 46.45082 40.24289 14.73774
v 46.45082 40.24289 14.73774
v 59.99994 25.02735 25.02734
v 59.99993 12.27479 37.77991
v 59.99993 12.27479 37.77991
v 56.42853 12.26502 37.77014
v 54.99997 25.01368 25.01367
v 54.99997 12.26111 37.76624
v 57.07103 37.77191 12.26676
v 59.99994 37.77992 12.27477
v 54.99997 37.76625 12.2611
v 59.99993 12.27479 37.77991
v 57.04367 17.26674 42.77187
v 49.96133 19.31846 44.82359
v 53.52184 14.75709 40.26221
v 53.79974 14.28783 39.79295
v 53.90453 14.11088 39.616
v 53.95477 14.02603 39.53116
v 54.39152 13.28855 38.79367
v 54.85215 12.51071 38.01583
v 54.88951 12.44762 37.95274
v 54.89284 12.44201 37.94713
v 54.90468 12.42201 37.92714
v 54.99997 12.26111 37.76624
v 53.33348 14.81166 40.31678
v 53.28674 14.8252 40.33032
v 53.27284 14.82922 40.33435
v 53.16772 14.85968 40.3648
v 51.96175 15.20904 40.71416
v 50.96544 15.49767 41.00279
v 49.98066 15.78295 41.28807
v 49.87173 15.75069 41.25582
v 49.62768 15.67843 41.18356
v 48.9468 15.47682 40.98194
v 42.90163 17.22807 42.73319
v 48.6745 15.39619 40.90131
v 47.74601 15.12126 40.62639
v 46.9815 14.89489 40.40002
v 46.45081 14.73775 40.24288
v 46.36459 14.58893 40.09406
v 46.33921 14.54513 40.05025
v 46.33662 14.54066 40.04578
v 46.33542 14.53858 40.04371
v 46.3339 14.53596 40.04109
v 46.30574 14.48735 39.99248
v 45.00003 12.23377 37.73889
v 45.00003 12.23376 37.73889
v 45.00003 12.23376 37.73889
v 40.00007 12.22009 37.72522
v 59.99993 12.27479 37.77991
v 57.04368 42.77188 17.26673
v 57.04367 17.26674 42.77187
v 59.99994 25.02735 25.02734
v 49.96133 44.8236 19.31845
v 49.96133 19.31846 44.82359
v 42.90163 42.73321 17.22806
v 42.90163 17.22807 42.73319
v 59.99994 37.77992 12.27477
v 40.00007 12.22009 37.72522
v 45.00003 24.98633 24.98632
v 45.00003 12.23376 37.73889
v 40.00007 24.97266 24.97264
v 45.00004 37.73889 12.23376
v 40.00007 37.72523 12.22008
v 43.57148 37.73499 12.22984
v 45.00004 37.7389 12.23375
v 54.99997 37.76625 12.2611
v 57.04368 42.77188 17.26673
v 57.07103 37.77191 12.26676
v 57.04368 42.77188 17.26673
v 59.99994 37.77992 12.27477
v 54.99997 37.76625 12.2611
v 54.1424 39.21436 13.70921
v 54.99997 37.76625 12.2611
v 54.03583 39.39431 13.88916
v 54.00591 39.44483 13.93968
v 53.66965 40.01263 14.50748
v 53.61848 40.09906 14.59391
v 53.56437 40.19043 14.68528
v 53.55272 40.21009 14.70494
v 53.52184 40.26223 14.75708
v 49.96133 44.8236 19.31845
v 52.48466 40.56269 15.05754
v 51.82662 40.75332 15.24817
v 51.40601 40.87517 15.37002
v 51.28084 40.91143 15.40628
v 50.33479 41.1855 15.68035
v 50.20079 41.22432 15.71917
v 50.09009 41.25639 15.75124
v 49.98067 41.28809 15.78294
v 49.00032 40.99781 15.49265
v 46.8038 40.34741 14.84226
v 46.6979 40.31605 14.8109
v 46.59473 40.2855 14.78035
v 46.50978 40.26035 14.7552
v 46.45082 40.24289 14.73774
v 42.90163 42.73321 17.22806
v 46.45082 40.24289 14.73774
v 45.6748 38.90351 13.39836
v 45.44639 38.50928 13.00413
v 45.42307 38.46904 12.96388
v 45.41225 38.45037 12.94522
v 45.39859 38.42678 12.92163
v 45.14512 37.9893 12.48415
v 45.00004 37.7389 12.23375
v 43.57148 37.73499 12.22984
v 45.00004 37.7389 12.23375
v 40.00007 37.72523 12.22008

vn 0.9999925 0.002734362 0.002735117
vn 0.9999926 0.00273447 0.002735009
vn 0.7592509 -0.4581026 0.4622554
vn -1.164153E-10 -0.7071067 0.7071068
vn -1.164153E-10 -0.7071067 0.7071068
vn -0.9223908 -0.2731258 -0.2731258
vn -0.9899423 -0.102707 0.09729248
vn -0.2338995 -0.6874921 -0.6874922
vn -0.9223925 -0.2731225 -0.273123
vn -0.9223929 -0.2731221 -0.2731224
vn -0.9223927 -0.2731223 -0.2731227
vn -0.9223924 -0.2731228 -0.2731234
vn -0.9223919 -0.2731235 -0.2731241
vn -0.9223942 -0.2731201 -0.2731199
vn -0.9223931 -0.2731217 -0.273122
vn -0.9223928 -0.273122 -0.2731223
vn -0.922393 -0.273122 -0.2731223
vn -0.922393 -0.2731219 -0.2731222
vn -0.9223928 -0.2731221 -0.2731223
vn -0.922393 -0.2731219 -0.2731222
vn -0.9223925 -0.2731226 -0.2731229
vn -0.9223919 -0.2731236 -0.2731239
vn -0.9223927 -0.2731223 -0.2731224
vn -0.9223931 -0.2731217 -0.2731219
vn -0.8535806 -0.368375 -0.3683752
vn -0.4166368 -0.6428117 -0.6428118
vn -0.3791055 -0.6543236 -0.6543239
vn -0.3791062 -0.6543234 -0.6543236
vn -0.3791065 -0.6543233 -0.6543235
vn -0.3791085 -0.654323 -0.6543229
vn -0.3791097 -0.6543226 -0.6543224
vn -0.3791112 -0.6543223 -0.6543218
vn -0.3791086 -0.6543229 -0.6543228
vn -0.3791075 -0.654323 -0.6543232
vn -0.379107 -0.6543232 -0.6543235
vn -0.3791069 -0.6543232 -0.6543235
vn -0.3791079 -0.6543229 -0.654323
vn -0.3791074 -0.6543232 -0.6543233
vn -0.3791062 -0.6543234 -0.6543236
vn -0.3173794 -0.6705483 -0.6705486
vn 0.3245547 -0.668829 -0.668829
vn 0.3862522 -0.6522305 -0.6522305
vn 0.3862532 -0.6522303 -0.6522303
vn 0.3862539 -0.65223 -0.6522301
vn 0.3862539 -0.65223 -0.65223
vn 0.3862534 -0.6522301 -0.6522301
vn 0.3862529 -0.6522304 -0.6522302
vn 0.3862534 -0.6522303 -0.6522301
vn 0.3862531 -0.6522304 -0.6522303
vn 0.3862533 -0.6522302 -0.6522301
vn 0.3862534 -0.6522303 -0.6522301
vn 0.3862529 -0.6522304 -0.6522302
vn 0.5604508 -0.5856174 -0.5856171
vn 0.3862315 -0.6522368 -0.6522366
vn 0.9253525 -0.26807 -0.2680697
vn 0.9253529 -0.268069 -0.2680688
vn 0.9253532 -0.2680688 -0.2680686
vn 0.9253536 -0.2680679 -0.2680679
vn 0.9253529 -0.2680694 -0.2680691
vn 0.9253523 -0.2680707 -0.26807
vn 0.9253511 -0.2680726 -0.2680715
vn 0.925334 -0.2681062 -0.2680972
vn 0.9253448 -0.2680851 -0.2680811
vn 0.9253556 -0.2680641 -0.2680649
vn 0.9253541 -0.2680671 -0.2680673
vn 0.9253529 -0.2680691 -0.2680689
vn 0.9253527 -0.2680696 -0.2680693
vn 0.9253526 -0.2680697 -0.2680695
vn 0.9253507 -0.268073 -0.2680728
vn 0.8487701 -0.3738914 -0.3738912
vn 0.9999926 0.002734605 0.002734874
vn 0.9999926 0.002734605 0.002734874
vn 0.9999926 0.002734605 0.002734874
vn -1.164153E-10 -0.7071067 0.7071068
vn -0.9253529 0.2680694 0.2680689
vn -1.164153E-10 -0.7071067 0.7071068
vn -0.1261247 -0.7014601 -0.7014602
vn 0.649459 -0.5359025 0.5394548
vn 0.5633442 -0.5826848 0.5857661
vn 0.9974654 -0.04751154 0.0529672
vn 0.9999926 0.002734605 0.002734874
vn 0.9999926 0.002734605 0.002734874
vn 0.9999926 0.002734605 0.002734874
vn 0.9946737 -0.07011382 0.07555422
vn -1.164153E-10 -0.7071067 0.7071068
vn 0.9999124 -0.006223891 0.01168481
vn 0.9999926 0.002734605 0.002734874
vn 0.9899421 -0.09729285 0.1027074
vn 0.9999925 0.002739292 0.002739561
vn 0.9981884 0.04519006 -0.03972159
vn -0.9253528 0.2680694 0.268069
vn 0.9999925 0.002751325 0.002751595
vn 6.942821E-06 0.7071068 -0.7071068
vn 1.164153E-10 0.7071067 -0.7071068
vn -1.552736E-09 0.707107 -0.7071065
vn 0 0 0
vn -0.9253529 0.2680694 0.2680691
vn -0.9253529 0.2680694 0.2680691
vn -0.9253529 0.2680694 0.2680691
vn -1.552736E-09 0.707107 -0.7071065
vn -1.552736E-09 0.707107 -0.7071065
vn 0.003867506 -0.7071015 -0.7071015
vn 0.003867506 -0.7071015 -0.7071015
vn 0.003867506 -0.7071015 -0.7071015
vn 0.003867506 -0.7071015 -0.7071015
vn 0.003867506 -0.7071015 -0.7071015
vn 0.003867506 -0.7071015 -0.7071015
vn 0.003867506 -0.7071015 -0.7071015
vn 0.003867506 -0.7071015 -0.7071015
vn 0.003867506 -0.7071015 -0.7071015
vn -1.164153E-10 -0.7071067 0.7071068
vn -1.164153E-10 -0.7071067 0.7071068
vn -1.164153E-10 -0.7071067 0.7071068
vn -1.164153E-10 -0.7071067 0.7071068
vn -1.164153E-10 -0.7071067 0.7071068
vn -1.164153E-10 -0.7071067 0.7071068
vn -1.164153E-10 -0.7071067 0.7071068
vn -1.164153E-10 -0.7071067 0.7071068
vn -1.164153E-10 -0.7071067 0.7071068
vn -1.164153E-10 -0.7071067 0.7071068
vn -1.164153E-10 -0.7071067 0.7071068
vn -1.164153E-10 -0.7071067 0.7071068
vn -1.164153E-10 -0.7071067 0.7071068
vn -1.164153E-10 -0.7071067 0.7071068
vn -1.164153E-10 -0.7071067 0.7071068
vn -1.164153E-10 -0.7071067 0.7071068
vn -1.164153E-10 -0.7071067 0.7071068
vn -1.164153E-10 -0.7071067 0.7071068
vn -1.164153E-10 -0.7071067 0.7071068
vn -1.164153E-10 -0.7071067 0.7071068
vn -1.164153E-10 -0.7071067 0.7071068
vn -1.164153E-10 -0.7071067 0.7071068
vn -1.164153E-10 -0.7071067 0.7071068
vn -1.164153E-10 -0.7071067 0.7071068
vn -1.164153E-10 -0.7071067 0.7071068
vn -1.164153E-10 -0.7071067 0.7071068
vn -1.164153E-10 -0.7071067 0.7071068
vn -1.164153E-10 -0.7071067 0.7071068
vn -1.164153E-10 -0.7071067 0.7071068
vn -1.164153E-10 -0.7071067 0.7071068
vn -1.164153E-10 -0.7071067 0.7071068
vn -1.164153E-10 -0.7071067 0.7071068
vn -1.164153E-10 -0.7071067 0.7071068
vn -1.164153E-10 -0.7071067 0.7071068
vn -1.164153E-10 -0.7071067 0.7071068
vn -1.164153E-10 -0.7071067 0.7071068
vn -1.164153E-10 -0.7071067 0.7071068
vn -1.164153E-10 -0.7071067 0.7071068
vn 0.9223928 0.2731223 0.2731227
vn 0.7948343 0.429091 0.4290914
vn 0.6006604 0.5653348 0.565335
vn 0.9223926 0.2731223 0.2731227
vn 0.1329414 0.7008305 0.7008305
vn -0.1406037 0.7000824 0.7000824
vn -0.3862535 0.6522302 0.65223
vn -0.3862535 0.6522302 0.6522301
vn 0.9223927 0.2731223 0.2731226
vn 0.003867506 -0.7071015 -0.7071015
vn 0.003867506 -0.7071015 -0.7071015
vn 0.003867506 -0.7071015 -0.7071015
vn 0.003867506 -0.7071015 -0.7071015
vn 0.003867506 -0.7071015 -0.7071015
vn 0.003867506 -0.7071015 -0.7071015
vn 0.003867506 -0.7071015 -0.7071015
vn 0.003867506 -0.7071015 -0.7071015
vn -0.9792122 0.1407256 -0.1460815
vn 7.368698E-07 0.7071067 -0.7071068
vn -7.181604E-10 0.7071068 -0.7071066
vn 1.108101E-07 0.7071069 -0.7071066
vn -7.181604E-10 0.7071069 -0.7071067
vn -7.181604E-10 0.7071069 -0.7071067
vn 3.048008E-07 0.7071068 -0.7071068
vn 3.048009E-07 0.7071068 -0.7071068
vn 3.048003E-07 0.7071068 -0.7071068
vn 3.048011E-07 0.7071068 -0.7071068
vn 3.048011E-07 0.7071068 -0.7071068
vn 3.048007E-07 0.7071068 -0.7071067
vn 3.04799E-07 0.7071068 -0.7071068
vn 3.048029E-07 0.7071068 -0.7071067
vn 1.269633E-07 0.7071069 -0.7071066
vn -1.063853E-09 0.7071069 -0.7071066
vn 1.253425E-07 0.7071069 -0.7071066
vn 1.25343E-07 0.7071069 -0.7071066
vn 1.253438E-07 0.7071069 -0.7071066
vn 1.253433E-07 0.7071069 -0.7071066
vn 1.253433E-07 0.7071069 -0.7071066
vn 1.253431E-07 0.7071069 -0.7071066
vn 1.253425E-07 0.7071069 -0.7071066
vn -1.021595E-07 0.7071069 -0.7071066
vn -1.274708E-07 0.7071069 -0.7071066
vn -1.27471E-07 0.7071069 -0.7071066
vn -1.274702E-07 0.7071069 -0.7071066
vn -1.274719E-07 0.7071069 -0.7071066
vn -1.274711E-07 0.7071069 -0.7071066
vn -1.274707E-07 0.7071069 -0.7071066
vn -1.123848E-07 0.7071069 -0.7071066
vn -3.05546E-07 0.7071068 -0.7071068
vn -3.055462E-07 0.7071068 -0.7071068
vn -3.055465E-07 0.7071068 -0.7071068
vn -3.055398E-07 0.7071068 -0.7071068
vn -3.055473E-07 0.7071068 -0.7071068
vn -3.055467E-07 0.7071068 -0.7071068
vn -3.055453E-07 0.7071068 -0.7071068
vn -3.055441E-07 0.7071068 -0.7071067
vn -7.181639E-10 0.7071069 -0.7071067
vn -7.181726E-10 0.7071069 -0.7071067
vn -7.181604E-10 0.7071068 -0.7071066

f 1//1 2//2 3//3
f 4//4 1//1 3//3
f 3//3 5//5 4//4
f 3//3 6//6 5//5
f 5//5 6//6 7//7
f 8//8 7//7 6//6
f 9//9 8//8 6//6
f 10//10 9//9 6//6
f 9//9 10//10 11//11
f 11//11 10//10 12//12
f 13//13 11//11 12//12
f 13//13 12//12 14//14
f 13//13 14//14 15//15
f 15//15 14//14 16//16
f 15//15 16//16 17//17
f 18//18 17//17 16//16
f 19//19 17//17 18//18
f 19//19 18//18 20//20
f 21//21 19//19 20//20
f 22//22 19//19 21//21
f 22//22 21//21 23//23
f 24//24 22//22 23//23
f 24//24 23//23 25//25
f 26//26 24//24 25//25
f 26//26 25//25 27//27
f 28//28 26//26 27//27
f 28//28 27//27 29//29
f 29//29 27//27 30//30
f 31//31 29//29 30//30
f 31//31 30//30 32//32
f 33//33 31//31 32//32
f 33//33 32//32 34//34
f 35//35 33//33 34//34
f 35//35 34//34 36//36
f 37//37 35//35 36//36
f 37//37 36//36 38//38
f 39//39 37//37 38//38
f 39//39 38//38 40//40
f 41//41 39//39 40//40
f 41//41 40//40 42//42
f 41//41 42//42 43//43
f 43//43 42//42 44//44
f 45//45 43//43 44//44
f 45//45 44//44 46//46
f 47//47 45//45 46//46
f 48//48 45//45 47//47
f 48//48 47//47 49//49
f 50//50 48//48 49//49
f 50//50 49//49 51//51
f 52//52 50//50 51//51
f 52//52 51//51 53//53
f 54//54 52//52 53//53
f 55//55 54//54 53//53
f 55//55 53//53 56//56
f 55//55 56//56 57//57
f 57//57 56//56 58//58
f 57//57 58//58 59//59
f 59//59 58//58 60//60
f 59//59 60//60 61//61
f 61//61 60//60 62//62
f 61//61 62//62 63//63
f 63//63 62//62 64//64
f 63//63 64//64 65//65
f 65//65 64//64 66//66
f 65//65 66//66 67//67
f 68//68 67//67 66//66
f 69//69 67//67 68//68
f 69//69 68//68 70//70
f 71//71 69//69 70//70
f 72//72 71//71 73//73
f 74//74 75//75 76//76
f 77//77 74//74 76//76
f 75//75 77//77 76//76
f 78//78 75//75 74//74
f 79//79 75//75 78//78
f 78//78 74//74 80//80
f 81//81 78//78 80//80
f 82//82 78//78 81//81
f 82//82 83//83 78//78
f 83//83 84//84 79//79
f 84//84 85//85 79//79
f 80//80 74//74 86//86
f 87//87 80//80 86//86
f 81//81 80//80 87//87
f 86//86 74//74 88//88
f 88//88 74//74 77//77
f 86//86 88//88 89//89
f 90//90 86//86 89//89
f 87//87 86//86 90//90
f 75//75 91//91 77//77
f 90//90 89//89 92//92
f 90//90 92//92 93//93
f 94//94 90//90 93//93
f 95//95 83//83 82//82
f 95//95 82//82 81//81
f 95//95 81//81 87//87
f 95//95 87//87 90//90
f 95//95 96//96 83//83
f 97//97 91//91 75//75
f 97//97 98//98 91//91
f 97//97 99//99 98//98
f 100//100 95//95 101//101
f 102//102 103//103 104//104
f 102//102 104//104 105//105
f 102//102 105//105 106//106
f 106//106 105//105 107//107
f 108//108 102//102 106//106
f 109//109 102//102 108//108
f 110//110 108//108 106//106
f 111//111 112//112 113//113
f 111//111 113//113 114//114
f 111//111 114//114 115//115
f 111//111 115//115 116//116
f 111//111 116//116 117//117
f 117//117 118//118 111//111
f 118//118 119//119 111//111
f 120//120 111//111 119//119
f 120//120 121//121 111//111
f 121//121 122//122 111//111
f 111//111 122//122 123//123
f 114//114 113//113 124//124
f 124//124 113//113 125//125
f 125//125 113//113 126//126
f 126//126 113//113 127//127
f 127//127 113//113 128//128
f 128//128 113//113 129//129
f 129//129 113//113 130//130
f 130//130 113//113 131//131
f 131//131 113//113 132//132
f 132//132 113//113 133//133
f 133//133 113//113 134//134
f 133//133 134//134 135//135
f 135//135 134//134 136//136
f 134//134 137//137 136//136
f 137//137 134//134 138//138
f 138//138 134//134 139//139
f 139//139 134//134 140//140
f 140//140 134//134 141//141
f 134//134 142//142 141//141
f 134//134 143//143 142//142
f 134//134 144//144 143//143
f 144//144 134//134 145//145
f 145//145 134//134 146//146
f 147//147 134//134 148//148
f 149//149 150//150 151//151
f 149//149 152//152 150//150
f 151//151 150//150 153//153
f 151//151 153//153 154//154
f 154//154 153//153 155//155
f 154//154 155//155 156//156
f 152//152 157//157 150//150
f 158//158 159//159 160//160
f 161//161 159//159 158//158
f 162//162 159//159 161//161
f 163//163 162//162 161//161
f 164//164 162//162 163//163
f 165//165 162//162 164//164
f 9//9 166//166 8//8
f 166//166 9//9 167//167
f 168//168 169//169 170//170
f 168//168 171//171 169//169
f 172//172 169//169 173//173
f 174//174 169//169 172//172
f 169//169 174//174 175//175
f 176//176 169//169 175//175
f 177//177 169//169 176//176
f 178//178 169//169 177//177
f 178//178 179//179 169//169
f 179//179 180//180 169//169
f 180//180 181//181 169//169
f 182//182 181//181 180//180
f 182//182 183//183 181//181
f 183//183 184//184 181//181
f 184//184 185//185 181//181
f 185//185 186//186 181//181
f 186//186 187//187 181//181
f 187//187 188//188 181//181
f 188//188 189//189 181//181
f 181//181 189//189 190//190
f 181//181 190//190 191//191
f 192//192 181//181 191//191
f 193//193 181//181 192//192
f 194//194 181//181 193//193
f 195//195 181//181 194//194
f 195//195 196//196 181//181
f 196//196 197//197 198//198
f 196//196 198//198 199//199
f 199//199 200//200 196//196
f 196//196 200//200 201//201
f 201//201 202//202 196//196
f 196//196 202//202 203//203
f 196//196 203//203 204//204
f 205//205 196//196 206//206
f 207//207 196//196 205//205
