v 7.048284 90.00002 92.9062
v 7.048285 49.99998 92.9062
v 7.048283 90.00002 92.9062
v 7.048282 90.00002 92.90621
v 4.53104 90.00002 95.4397
v 3.524142 90.00002 96.4531
v 3.524142 90.00002 96.4531
v 3.524144 49.99998 96.4531
v 3.524144 9.999939 96.4531
v 3.295924 90.00002 96.35943
v 1.470182 9.999939 95.61005
v 3.267565 90.00002 96.34779
v 1.214948 9.999939 95.50529
v 3.259603 90.00002 96.34452
v 1.14329 9.999939 95.47588
v 3.170119 90.00002 96.30779
v 0.3379358 9.999939 95.14532
v 2.066856 90.00002 95.85496
v 0.2153516 9.999939 95.09501
v 1.020822 90.00002 95.42561
v 0.9004868 90.00002 95.37623
v 0.08575524 9.999939 95.04182
v 0.6495001 90.00002 95.27321
v 0.05786813 9.999939 95.03037
v -0.01608857 90.00002 95.00002
v -0.0160874 9.999939 95.00002
v -0.2038964 90.00002 95.07852
v -1.050237 9.999939 95.43228
v -1.706346 9.999939 95.70653
v -0.2504932 90.00002 95.098
v -2.125725 9.999939 95.88182
v -0.264361 90.00002 95.10379
v -2.250532 9.999939 95.93399
v -0.3691692 90.00002 95.1476
v -3.193814 9.999939 96.32827
v -1.571603 90.00002 95.65021
v -3.327417 9.999939 96.38412
v -2.565004 90.00002 96.06544
v -3.437795 9.999939 96.43025
v -3.546894 90.00002 96.47586
v -3.546894 9.999939 96.47585
v -3.591734 90.00002 96.58511
v -3.950458 9.999939 97.45908
v -3.692203 90.00002 96.82988
v -4.854669 9.999939 99.66206
v -3.972492 90.00002 97.51276
v -4.084586 90.00002 97.78587
v -4.898267 9.999939 99.76829
v -4.466804 90.00002 98.71709
v -4.940735 9.999939 99.87175
v -4.781519 90.00002 99.48384
v -4.975703 9.999939 99.95695
v -4.999979 90.00002 100.0161
v -4.999977 9.999939 100.0161
v -4.999978 9.999939 100.0161
v -4.912266 90.00002 100.2259
v -4.210554 9.999939 101.9047
v -4.886446 90.00002 100.2877
v -3.978195 9.999939 102.4606
v -4.883812 90.00002 100.294
v -3.954475 9.999939 102.5173
v -4.882589 90.00002 100.2969
v -3.943477 9.999939 102.5437
v -4.881045 90.00002 100.3006
v -3.929573 9.999939 102.5769
v -4.852395 90.00002 100.3692
v -3.671722 9.999939 103.1938
v -3.524141 90.00002 103.5469
v -3.524139 9.999939 103.5469
v -3.524141 90.00002 103.5469
v -3.524139 9.999939 103.5469
v -3.52414 90.00002 103.5469
v -3.524141 90.00002 103.5469
v -4.531038 90.00002 104.5603
v -7.048282 90.00002 107.0938
v -7.048282 90.00002 107.0938
v -7.04828 90.00002 107.0938
v -3.52414 90.00002 103.5469
v -3.524141 90.00002 103.5469
v -3.52414 90.00002 103.5469
v -3.524139 9.999939 103.5469
v -3.524139 9.999939 103.5469
v -3.524139 9.999939 103.5469
v -3.524141 90.00002 103.5469
v -9.999958 90.00002 100.0322
v -3.52414 90.00002 103.5469
v -3.524139 9.999939 103.5469
v -3.52414 90.00002 103.5469
v -3.52414 49.99998 103.5469
v -3.524139 9.999939 103.5469
v -7.048279 49.99998 107.0938
v -3.524139 9.999981 103.5469
v -3.524139 9.999939 103.5469
v -4.531035 9.999939 104.5603
v -9.999956 9.999947 100.0322
v -3.524139 9.999939 103.5469
v -9.999958 90.00002 100.0322
v -7.048279 9.999939 107.0938
v -9.999956 9.999947 100.0322
v -4.999978 9.999939 100.0161
v -4.999977 9.999939 100.0161
v 7.048285 49.99998 92.9062
v 7.048284 90.00002 92.9062
v 7.048282 90.00002 92.90621
v 4.53104 90.00002 95.4397
v 3.524144 49.99998 96.4531
v 3.524142 90.00002 96.4531
v 4.983892 9.999939 94.98393
v 7.048286 9.999939 92.9062
v 3.524144 9.999939 96.4531
v 7.048283 90.00002 92.9062
v -0.03218016 90.00002 90.00004
v -7.093791 90.00002 92.95171
v -0.01608857 90.00002 95.00002
v 0.6495001 90.00002 95.27321
v 0.9004868 90.00002 95.37623
v 1.020822 90.00002 95.42561
v 2.066856 90.00002 95.85496
v 3.170119 90.00002 96.30779
v 3.259603 90.00002 96.34452
v 3.267565 90.00002 96.34779
v 3.295924 90.00002 96.35943
v 3.524142 90.00002 96.4531
v -0.2038964 90.00002 95.07852
v -0.2504932 90.00002 95.098
v -0.264361 90.00002 95.10379
v -0.3691692 90.00002 95.1476
v -1.571603 90.00002 95.65021
v -2.565004 90.00002 96.06544
v -3.546894 90.00002 96.47586
v -3.591734 90.00002 96.58511
v -3.692203 90.00002 96.82988
v -3.972492 90.00002 97.51276
v -9.999958 90.00002 100.0322
v -4.084586 90.00002 97.78587
v -4.466804 90.00002 98.71709
v -4.781519 90.00002 99.48384
v -4.999979 90.00002 100.0161
v -4.912266 90.00002 100.2259
v -4.886446 90.00002 100.2877
v -4.883812 90.00002 100.294
v -4.882589 90.00002 100.2969
v -4.881045 90.00002 100.3006
v -4.852395 90.00002 100.3692
v -3.524141 90.00002 103.5469
v -3.524141 90.00002 103.5469
v -3.524141 90.00002 103.5469
v -7.048282 90.00002 107.0938
v 7.048283 90.00002 92.9062
v -0.03217782 9.999947 90.00004
v -0.03218016 90.00002 90.00004
v 7.048285 49.99998 92.9062
v -7.09379 9.99995 92.95171
v -7.093791 90.00002 92.95171
v -9.999956 9.999947 100.0322
v -9.999958 90.00002 100.0322
v 7.048286 9.999939 92.9062
v -7.04828 90.00002 107.0938
v -3.52414 49.99998 103.5469
v -3.52414 90.00002 103.5469
v -7.048279 49.99998 107.0938
v -3.524139 9.999981 103.5469
v -7.048279 9.999939 107.0938
v -4.531035 9.999939 104.5603
v -3.524139 9.999939 103.5469
v 3.524144 9.999939 96.4531
v -0.03217782 9.999947 90.00004
v 4.983892 9.999939 94.98393
v -0.03217782 9.999947 90.00004
v 7.048286 9.999939 92.9062
v 3.524144 9.999939 96.4531
v 1.470182 9.999939 95.61005
v 3.524144 9.999939 96.4531
v 1.214948 9.999939 95.50529
v 1.14329 9.999939 95.47588
v 0.3379358 9.999939 95.14532
v 0.2153516 9.999939 95.09501
v 0.08575524 9.999939 95.04182
v 0.05786813 9.999939 95.03037
v -0.0160874 9.999939 95.00002
v -7.09379 9.99995 92.95171
v -1.050237 9.999939 95.43228
v -1.706346 9.999939 95.70653
v -2.125725 9.999939 95.88182
v -2.250532 9.999939 95.93399
v -3.193814 9.999939 96.32827
v -3.327417 9.999939 96.38412
v -3.437795 9.999939 96.43025
v -3.546894 9.999939 96.47585
v -3.950458 9.999939 97.45908
v -4.854669 9.999939 99.66206
v -4.898267 9.999939 99.76829
v -4.940735 9.999939 99.87175
v -4.975703 9.999939 99.95695
v -4.999977 9.999939 100.0161
v -9.999956 9.999947 100.0322
v -4.999978 9.999939 100.0161
v -4.210554 9.999939 101.9047
v -3.978195 9.999939 102.4606
v -3.954475 9.999939 102.5173
v -3.943477 9.999939 102.5437
v -3.929573 9.999939 102.5769
v -3.671722 9.999939 103.1938
v -3.524139 9.999939 103.5469
v -4.531035 9.999939 104.5603
v -3.524139 9.999939 103.5469
v -7.048279 9.999939 107.0938

vn 0.7048278 5.340572E-07 -0.7093786
vn 0.7048278 3.814694E-07 -0.7093786
vn 0.5351452 0.6507914 -0.5386004
vn 0 1 -5.960464E-08
vn 0 1 -5.960464E-08
vn -0.379704 -8.743381E-08 0.9251081
vn -0.697744 0.141421 0.7022491
vn 0.5215461 -2.462181E-07 0.8532231
vn -0.3797083 -3.652485E-07 0.9251063
vn -0.3797091 -3.241269E-07 0.9251061
vn -0.3797087 -3.628689E-07 0.9251062
vn -0.3797078 -4.464527E-07 0.9251066
vn -0.3797068 -5.04965E-07 0.9251069
vn -0.3797122 8.67511E-08 0.9251048
vn -0.3797096 -2.00812E-07 0.9251058
vn -0.3797091 -2.488801E-07 0.925106
vn -0.3797093 -2.317313E-07 0.925106
vn -0.3797093 -2.305685E-07 0.9251059
vn -0.3797091 -2.445305E-07 0.925106
vn -0.3797094 -2.637252E-07 0.9251059
vn -0.3797083 -2.579385E-07 0.9251063
vn -0.3797068 -3.006255E-07 0.9251069
vn -0.3797089 -1.901355E-07 0.925106
vn -0.3797097 -2.039516E-07 0.9251058
vn -0.2358289 -2.148293E-07 0.9717947
vn 0.347596 -2.628813E-07 0.9376444
vn 0.3856565 -3.189221E-07 0.9226425
vn 0.3856557 -2.794338E-07 0.9226428
vn 0.3856554 -2.597349E-07 0.9226429
vn 0.3856535 -1.064118E-07 0.9226438
vn 0.3856523 -2.195605E-08 0.9226443
vn 0.3856507 1.942857E-07 0.9226449
vn 0.3856533 -7.232197E-08 0.9226438
vn 0.3856544 -2.505555E-07 0.9226433
vn 0.385655 -3.096587E-07 0.9226432
vn 0.385655 -3.683952E-07 0.9226431
vn 0.3856539 -2.698192E-07 0.9226435
vn 0.3856546 -2.904762E-07 0.9226433
vn 0.3856557 -3.313067E-07 0.9226428
vn 0.4455459 -3.414763E-07 0.8952592
vn 0.8980383 -1.764313E-07 0.4399177
vn 0.9251056 -1.337576E-07 0.3797099
vn 0.9251061 -1.612028E-07 0.3797089
vn 0.9251064 -2.018909E-07 0.3797083
vn 0.9251063 -1.734145E-07 0.3797083
vn 0.9251061 -1.556603E-07 0.3797087
vn 0.9251059 -2.948608E-08 0.3797092
vn 0.9251062 -9.89516E-08 0.3797088
vn 0.925106 -7.64939E-08 0.3797092
vn 0.9251061 -6.897641E-08 0.3797088
vn 0.9251062 -6.203877E-08 0.3797089
vn 0.9251059 -5.335401E-08 0.3797092
vn 0.9817926 1.619073E-08 0.1899565
vn 0.9250971 -5.131851E-08 0.3797308
vn 0.9226436 1.275453E-07 -0.385654
vn 0.922643 8.251473E-08 -0.3856552
vn 0.9226429 4.565056E-08 -0.3856556
vn 0.9226424 -6.229443E-08 -0.3856567
vn 0.9226432 1.38898E-07 -0.3856548
vn 0.922644 4.27287E-07 -0.3856534
vn 0.9226449 7.062706E-07 -0.3856508
vn 0.9226624 6.322151E-06 -0.385609
vn 0.9226515 2.739413E-06 -0.3856353
vn 0.9226404 -6.139426E-07 -0.3856615
vn 0.9226421 -2.24669E-07 -0.3856578
vn 0.9226431 1.129399E-07 -0.3856551
vn 0.9226434 1.385408E-07 -0.3856545
vn 0.9226435 1.383215E-07 -0.3856543
vn 0.9226454 6.834077E-08 -0.3856497
vn 0.9742092 6.134267E-08 -0.225647
vn 0.7048278 1.907347E-07 -0.7093786
vn 0.7048278 1.907347E-07 -0.7093786
vn 0.7048278 1.907347E-07 -0.7093786
vn 0 1 -5.960464E-08
vn -0.9226432 -2.708045E-07 0.3856549
vn 0 1 -5.960464E-08
vn 0.6117628 -2.268734E-07 0.7910414
vn 0.4577602 0.7603925 -0.4607158
vn 0.3970636 0.8262196 -0.3996273
vn 0.7030466 0.07104921 -0.7075859
vn 0.7048278 1.90735E-07 -0.7093786
vn 0.7048278 1.907347E-07 -0.7093786
vn 0.7048278 1.907344E-07 -0.7093786
vn 0.7010788 0.1030029 -0.7056054
vn 0 1 -5.960464E-08
vn 0.7047753 0.01266336 -0.7093177
vn 0.7048278 1.907357E-07 -0.7093786
vn 0.6977439 0.1414215 -0.702249
vn 0.7048231 1.907362E-07 -0.7093832
vn 0.7035518 -0.06004161 -0.7081032
vn -0.9226432 -2.004796E-07 0.3856548
vn 0.704811 1.907389E-07 -0.7093953
vn 4.893447E-06 -1 -4.865437E-06
vn 0 -1 5.960464E-08
vn -3.061561E-07 -1 -2.445874E-07
vn 0 0 0
vn -0.9226433 -1.902888E-07 0.3856548
vn -0.9226432 -1.549934E-07 0.3856548
vn -0.9226434 -1.80098E-07 0.3856548
vn -3.061561E-07 -1 -2.445874E-07
vn -3.061561E-07 -1 -2.445874E-07
vn 0.7093786 -1.788139E-07 0.7048277
vn 0.7093785 -1.788139E-07 0.7048277
vn 0.7093786 -1.788139E-07 0.7048277
vn 0.7093786 -1.788139E-07 0.7048277
vn 0.7093786 -1.788139E-07 0.7048277
vn 0.7093786 -1.788139E-07 0.7048277
vn 0.7093786 -1.788139E-07 0.7048277
vn 0.7093786 -1.788139E-07 0.7048277
vn 0.7093786 -1.788139E-07 0.7048277
vn 0 1 -5.960464E-08
vn 0 1 -5.960464E-08
vn 0 1 -5.960464E-08
vn 0 1 -5.960464E-08
vn 0 1 -5.960464E-08
vn 0 1 -5.960464E-08
vn 0 1 -5.960464E-08
vn 0 1 -5.960464E-08
vn 0 1 -5.960464E-08
vn 0 1 -5.960464E-08
vn 0 1 -5.960464E-08
vn 0 1 -5.960464E-08
vn 0 1 -5.960464E-08
vn 0 1 -5.960464E-08
vn 0 1 -5.960464E-08
vn 0 1 -5.960464E-08
vn 0 1 -5.960464E-08
vn 0 1 -5.960464E-08
vn 0 1 -5.960464E-08
vn 0 1 -5.960464E-08
vn 0 1 -5.960464E-08
vn 0 1 -5.960464E-08
vn 0 1 -5.960464E-08
vn 0 1 -5.960464E-08
vn 0 1 -5.960464E-08
vn 0 1 -5.960464E-08
vn 0 1 -5.960464E-08
vn 0 1 -5.960464E-08
vn 0 1 -5.960464E-08
vn 0 1 -5.960464E-08
vn 0 1 -5.960464E-08
vn 0 1 -5.960464E-08
vn 0 1 -5.960464E-08
vn 0 1 -5.960464E-08
vn 0 1 -5.960464E-08
vn 0 1 -5.960464E-08
vn 0 1 -5.960464E-08
vn 0 1 -5.960464E-08
vn 0.3797087 3.655987E-07 -0.9251063
vn 0.1335853 3.452281E-07 -0.9910374
vn -0.1399607 3.094554E-07 -0.9901571
vn 0.3797086 3.465477E-07 -0.9251061
vn -0.6063103 2.121564E-07 -0.7952283
vn -0.7991139 1.32628E-07 -0.6011798
vn -0.9251062 6.231291E-08 -0.3797086
vn -0.9251062 5.506752E-08 -0.3797087
vn 0.3797088 2.798882E-07 -0.9251061
vn 0.7093786 -1.788139E-07 0.7048277
vn 0.7093786 -1.788139E-07 0.7048277
vn 0.7093786 -1.788139E-07 0.7048277
vn 0.7093786 -1.788139E-07 0.7048277
vn 0.7093786 -1.788139E-07 0.7048277
vn 0.7093786 -1.788139E-07 0.7048277
vn 0.7093786 -1.879839E-07 0.7048277
vn 0.7093785 -1.879839E-07 0.7048277
vn -0.6901811 -0.2028032 0.6946374
vn 5.192881E-07 -1 -4.630363E-07
vn -1.53078E-07 -1 -9.249134E-08
vn -8.710188E-08 -1 -1.842568E-07
vn -1.53078E-07 -1 -9.249135E-08
vn -1.53078E-07 -1 -9.249135E-08
vn 1.254251E-07 -1 -2.459762E-07
vn 1.254253E-07 -1 -2.459762E-07
vn 1.254246E-07 -1 -2.45976E-07
vn 1.254255E-07 -1 -2.459762E-07
vn 1.254256E-07 -1 -2.459762E-07
vn 1.254249E-07 -1 -2.459762E-07
vn 1.254227E-07 -1 -2.459761E-07
vn 1.25428E-07 -1 -2.459762E-07
vn -1.251068E-07 -1 -2.4517E-07
vn -2.164851E-07 -1 -1.554916E-07
vn -1.273895E-07 -1 -2.451621E-07
vn -1.273892E-07 -1 -2.451626E-07
vn -1.273889E-07 -1 -2.451633E-07
vn -1.273892E-07 -1 -2.451629E-07
vn -1.273892E-07 -1 -2.451628E-07
vn -1.273893E-07 -1 -2.451627E-07
vn -1.273897E-07 -1 -2.451623E-07
vn -2.877406E-07 -1 -8.377599E-08
vn -3.055809E-07 -1 -6.582066E-08
vn -3.05581E-07 -1 -6.582052E-08
vn -3.055803E-07 -1 -6.582077E-08
vn -3.05582E-07 -1 -6.582024E-08
vn -3.055812E-07 -1 -6.582045E-08
vn -3.055808E-07 -1 -6.582061E-08
vn -2.44417E-07 -1 -2.592596E-08
vn -3.047674E-07 -1 1.869941E-07
vn -3.047675E-07 -1 1.869943E-07
vn -3.047676E-07 -1 1.869947E-07
vn -3.047648E-07 -1 1.869879E-07
vn -3.04768E-07 -1 1.869953E-07
vn -3.047676E-07 -1 1.869948E-07
vn -3.04767E-07 -1 1.869934E-07
vn -3.047664E-07 -1 1.869924E-07
vn -1.53078E-07 -1 -9.249135E-08
vn -1.53078E-07 -1 -9.249135E-08
vn -1.53078E-07 -1 -9.249136E-08

f 1//1 2//2 3//3
f 4//4 1//1 3//3
f 3//3 5//5 4//4
f 3//3 6//6 5//5
f 5//5 6//6 7//7
f 8//8 7//7 6//6
f 9//9 8//8 6//6
f 10//10 9//9 6//6
f 9//9 10//10 11//11
f 11//11 10//10 12//12
f 13//13 11//11 12//12
f 13//13 12//12 14//14
f 13//13 14//14 15//15
f 15//15 14//14 16//16
f 15//15 16//16 17//17
f 18//18 17//17 16//16
f 19//19 17//17 18//18
f 19//19 18//18 20//20
f 21//21 19//19 20//20
f 22//22 19//19 21//21
f 22//22 21//21 23//23
f 24//24 22//22 23//23
f 24//24 23//23 25//25
f 26//26 24//24 25//25
f 26//26 25//25 27//27
f 28//28 26//26 27//27
f 28//28 27//27 29//29
f 29//29 27//27 30//30
f 31//31 29//29 30//30
f 31//31 30//30 32//32
f 33//33 31//31 32//32
f 33//33 32//32 34//34
f 35//35 33//33 34//34
f 35//35 34//34 36//36
f 37//37 35//35 36//36
f 37//37 36//36 38//38
f 39//39 37//37 38//38
f 39//39 38//38 40//40
f 41//41 39//39 40//40
f 41//41 40//40 42//42
f 41//41 42//42 43//43
f 43//43 42//42 44//44
f 45//45 43//43 44//44
f 45//45 44//44 46//46
f 47//47 45//45 46//46
f 48//48 45//45 47//47
f 48//48 47//47 49//49
f 50//50 48//48 49//49
f 50//50 49//49 51//51
f 52//52 50//50 51//51
f 52//52 51//51 53//53
f 54//54 52//52 53//53
f 55//55 54//54 53//53
f 55//55 53//53 56//56
f 55//55 56//56 57//57
f 57//57 56//56 58//58
f 57//57 58//58 59//59
f 59//59 58//58 60//60
f 59//59 60//60 61//61
f 61//61 60//60 62//62
f 61//61 62//62 63//63
f 63//63 62//62 64//64
f 63//63 64//64 65//65
f 65//65 64//64 66//66
f 65//65 66//66 67//67
f 68//68 67//67 66//66
f 69//69 67//67 68//68
f 69//69 68//68 70//70
f 71//71 69//69 70//70
f 72//72 71//71 73//73
f 74//74 75//75 76//76
f 77//77 74//74 76//76
f 75//75 77//77 76//76
f 78//78 75//75 74//74
f 79//79 75//75 78//78
f 78//78 74//74 80//80
f 81//81 78//78 80//80
f 82//82 78//78 81//81
f 82//82 83//83 78//78
f 83//83 84//84 79//79
f 84//84 85//85 79//79
f 80//80 74//74 86//86
f 87//87 80//80 86//86
f 81//81 80//80 87//87
f 86//86 74//74 88//88
f 88//88 74//74 77//77
f 86//86 88//88 89//89
f 90//90 86//86 89//89
f 87//87 86//86 90//90
f 75//75 91//91 77//77
f 90//90 89//89 92//92
f 90//90 92//92 93//93
f 94//94 90//90 93//93
f 95//95 83//83 82//82
f 95//95 82//82 81//81
f 95//95 81//81 87//87
f 95//95 87//87 90//90
f 95//95 96//96 83//83
f 97//97 91//91 75//75
f 97//97 98//98 91//91
f 97//97 99//99 98//98
f 100//100 95//95 101//101
f 102//102 103//103 104//104
f 102//102 104//104 105//105
f 102//102 105//105 106//106
f 106//106 105//105 107//107
f 108//108 102//102 106//106
f 109//109 102//102 108//108
f 110//110 108//108 106//106
f 111//111 112//112 113//113
f 111//111 113//113 114//114
f 111//111 114//114 115//115
f 111//111 115//115 116//116
f 111//111 116//116 117//117
f 117//117 118//118 111//111
f 118//118 119//119 111//111
f 120//120 111//111 119//119
f 120//120 121//121 111//111
f 121//121 122//122 111//111
f 111//111 122//122 123//123
f 114//114 113//113 124//124
f 124//124 113//113 125//125
f 125//125 113//113 126//126
f 126//126 113//113 127//127
f 127//127 113//113 128//128
f 128//128 113//113 129//129
f 129//129 113//113 130//130
f 130//130 113//113 131//131
f 131//131 113//113 132//132
f 132//132 113//113 133//133
f 133//133 113//113 134//134
f 133//133 134//134 135//135
f 135//135 134//134 136//136
f 134//134 137//137 136//136
f 137//137 134//134 138//138
f 138//138 134//134 139//139
f 139//139 134//134 140//140
f 140//140 134//134 141//141
f 134//134 142//142 141//141
f 134//134 143//143 142//142
f 134//134 144//144 143//143
f 144//144 134//134 145//145
f 145//145 134//134 146//146
f 147//147 134//134 148//148
f 149//149 150//150 151//151
f 149//149 152//152 150//150
f 151//151 150//150 153//153
f 151//151 153//153 154//154
f 154//154 153//153 155//155
f 154//154 155//155 156//156
f 152//152 157//157 150//150
f 158//158 159//159 160//160
f 161//161 159//159 158//158
f 162//162 159//159 161//161
f 163//163 162//162 161//161
f 164//164 162//162 163//163
f 165//165 162//162 164//164
f 9//9 166//166 8//8
f 166//166 9//9 167//167
f 168//168 169//169 170//170
f 168//168 171//171 169//169
f 172//172 169//169 173//173
f 174//174 169//169 172//172
f 169//169 174//174 175//175
f 176//176 169//169 175//175
f 177//177 169//169 176//176
f 178//178 169//169 177//177
f 178//178 179//179 169//169
f 179//179 180//180 169//169
f 180//180 181//181 169//169
f 182//182 181//181 180//180
f 182//182 183//183 181//181
f 183//183 184//184 181//181
f 184//184 185//185 181//181
f 185//185 186//186 181//181
f 186//186 187//187 181//181
f 187//187 188//188 181//181
f 188//188 189//189 181//181
f 181//181 189//189 190//190
f 181//181 190//190 191//191
f 192//192 181//181 191//191
f 193//193 181//181 192//192
f 194//194 181//181 193//193
f 195//195 181//181 194//194
f 195//195 196//196 181//181
f 196//196 197//197 198//198
f 196//196 198//198 199//199
f 199//199 200//200 196//196
f 196//196 200//200 201//201
f 201//201 202//202 196//196
f 196//196 202//202 203//203
f 196//196 203//203 204//204
f 205//205 196//196 206//206
f 207//207 196//196 205//205
