v 9.999985 107.0721 -7.070064
v 50.00002 107.0721 -7.070066
v 9.999985 107.0721 -7.070064
v 9.999985 107.0721 -7.070063
v 9.999985 104.5463 -4.545042
v 9.999985 103.536 -3.535032
v 9.999985 103.536 -3.535032
v 50.00002 103.536 -3.535035
v 90.00006 103.536 -3.535036
v 9.999985 103.3081 -3.62947
v 90.00006 101.4849 -4.384979
v 9.999985 103.2798 -3.641206
v 90.00006 101.23 -4.490596
v 9.999985 103.2719 -3.6445
v 90.00006 101.1585 -4.520249
v 9.999985 103.1825 -3.68153
v 90.00006 100.3542 -4.85351
v 9.999985 102.0808 -4.138068
v 90.00006 100.2318 -4.904237
v 9.999985 101.0362 -4.570924
v 9.999985 100.916 -4.62072
v 90.00006 100.1024 -4.957864
v 9.999985 100.6654 -4.724581
v 90.00006 100.0746 -4.969403
v 9.999985 100.0007 -5.000006
v 90.00006 100.0007 -5.000008
v 9.999985 99.81264 -4.922135
v 90.00006 98.96512 -4.571221
v 90.00006 98.30809 -4.299181
v 9.999985 99.76598 -4.902813
v 90.00006 97.88813 -4.125297
v 9.999985 99.7521 -4.897064
v 90.00006 97.76315 -4.073548
v 9.999985 99.64714 -4.853609
v 90.00006 96.81854 -3.68244
v 9.999985 98.44302 -4.355047
v 90.00006 96.68475 -3.627044
v 9.999985 97.44823 -3.943158
v 90.00006 96.57423 -3.581279
v 9.999985 96.46497 -3.536039
v 90.00006 96.46497 -3.536043
v 9.999985 96.41976 -3.426943
v 90.00006 96.05811 -2.55418
v 9.999985 96.31847 -3.182507
v 90.00006 95.1465 -0.354248
v 9.999985 96.03589 -2.500567
v 9.999985 95.92288 -2.227847
v 90.00006 95.10254 -0.2481741
v 9.999985 95.53754 -1.297918
v 90.00006 95.05972 -0.1448508
v 9.999985 95.22025 -0.5322215
v 90.00006 95.02448 -0.05977091
v 9.999985 95 -0.0007137061
v 90.00006 95 -0.0007170535
v 90.00006 95 -0.000715705
v 9.999985 95.08701 0.2094265
v 90.00006 95.78307 1.890548
v 9.999985 95.11262 0.2712797
v 90.00006 96.01356 2.447219
v 9.999985 95.11523 0.2775945
v 90.00006 96.03709 2.504047
v 9.999985 95.11644 0.280522
v 90.00006 96.048 2.530401
v 9.999985 95.11797 0.2842234
v 90.00006 96.06179 2.563706
v 9.999985 95.14639 0.3528607
v 90.00006 96.31757 3.181454
v 9.999985 96.46396 3.535028
v 90.00006 96.46396 3.535029
v 9.999985 96.46396 3.535031
v 90.00006 96.46396 3.535029
v 9.999985 96.46396 3.535031
v 9.999985 96.46396 3.535031
v 9.999985 95.45367 4.545041
v 9.999985 92.92792 7.070063
v 9.999985 92.92792 7.070063
v 9.999985 92.92793 7.070062
v 9.999985 96.46396 3.535031
v 9.999985 96.46396 3.535031
v 9.999985 96.46396 3.535031
v 90.00006 96.46396 3.535029
v 90.00006 96.46396 3.535029
v 90.00006 96.46396 3.535029
v 9.999985 96.46396 3.535031
v 9.999985 89.99999 -0.00142622
v 9.999985 96.46396 3.535031
v 90.00006 96.46396 3.535029
v 9.999985 96.46396 3.535031
v 50.00002 96.46396 3.53503
v 90.00006 96.46396 3.535029
v 50.00002 92.92793 7.070061
v 90.00002 96.46396 3.535029
v 90.00006 96.46396 3.535029
v 90.00006 95.45367 4.545037
v 90.00005 90 -0.00142923
v 90.00006 96.46396 3.535029
v 9.999985 89.99999 -0.00142622
v 90.00006 92.92793 7.070059
v 90.00005 90 -0.00142923
v 90.00006 95 -0.000715705
v 90.00006 95 -0.0007170535
v 50.00002 107.0721 -7.070066
v 9.999985 107.0721 -7.070064
v 9.999985 107.0721 -7.070063
v 9.999985 104.5463 -4.545042
v 50.00002 103.536 -3.535035
v 9.999985 103.536 -3.535032
v 90.00006 105.0007 -4.999294
v 90.00006 107.0721 -7.070067
v 90.00006 103.536 -3.535036
v 9.999985 107.0721 -7.070064
v 9.999985 100.0014 -10.00001
v 9.999985 92.92994 -7.07208
v 9.999985 100.0007 -5.000006
v 9.999985 100.6654 -4.724581
v 9.999985 100.916 -4.62072
v 9.999985 101.0362 -4.570924
v 9.999985 102.0808 -4.138068
v 9.999985 103.1825 -3.68153
v 9.999985 103.2719 -3.6445
v 9.999985 103.2798 -3.641206
v 9.999985 103.3081 -3.62947
v 9.999985 103.536 -3.535032
v 9.999985 99.81264 -4.922135
v 9.999985 99.76598 -4.902813
v 9.999985 99.7521 -4.897064
v 9.999985 99.64714 -4.853609
v 9.999985 98.44302 -4.355047
v 9.999985 97.44823 -3.943158
v 9.999985 96.46497 -3.536039
v 9.999985 96.41976 -3.426943
v 9.999985 96.31847 -3.182507
v 9.999985 96.03589 -2.500567
v 9.999985 89.99999 -0.00142622
v 9.999985 95.92288 -2.227847
v 9.999985 95.53754 -1.297918
v 9.999985 95.22025 -0.5322215
v 9.999985 95 -0.0007137061
v 9.999985 95.08701 0.2094265
v 9.999985 95.11262 0.2712797
v 9.999985 95.11523 0.2775945
v 9.999985 95.11644 0.280522
v 9.999985 95.11797 0.2842234
v 9.999985 95.14639 0.3528607
v 9.999985 96.46396 3.535028
v 9.999985 96.46396 3.535031
v 9.999985 96.46396 3.535031
v 9.999985 92.92792 7.070063
v 9.999985 107.0721 -7.070064
v 90.00005 100.0014 -10.00001
v 9.999985 100.0014 -10.00001
v 50.00002 107.0721 -7.070066
v 90.00005 92.92994 -7.072083
v 9.999985 92.92994 -7.07208
v 90.00005 90 -0.00142923
v 9.999985 89.99999 -0.00142622
v 90.00006 107.0721 -7.070067
v 9.999985 92.92793 7.070062
v 50.00002 96.46396 3.53503
v 9.999985 96.46396 3.535031
v 50.00002 92.92793 7.070061
v 90.00002 96.46396 3.535029
v 90.00006 92.92793 7.070059
v 90.00006 95.45367 4.545037
v 90.00006 96.46396 3.535029
v 90.00006 103.536 -3.535036
v 90.00005 100.0014 -10.00001
v 90.00006 105.0007 -4.999294
v 90.00005 100.0014 -10.00001
v 90.00006 107.0721 -7.070067
v 90.00006 103.536 -3.535036
v 90.00006 101.4849 -4.384979
v 90.00006 103.536 -3.535036
v 90.00006 101.23 -4.490596
v 90.00006 101.1585 -4.520249
v 90.00006 100.3542 -4.85351
v 90.00006 100.2318 -4.904237
v 90.00006 100.1024 -4.957864
v 90.00006 100.0746 -4.969403
v 90.00006 100.0007 -5.000008
v 90.00005 92.92994 -7.072083
v 90.00006 98.96512 -4.571221
v 90.00006 98.30809 -4.299181
v 90.00006 97.88813 -4.125297
v 90.00006 97.76315 -4.073548
v 90.00006 96.81854 -3.68244
v 90.00006 96.68475 -3.627044
v 90.00006 96.57423 -3.581279
v 90.00006 96.46497 -3.536043
v 90.00006 96.05811 -2.55418
v 90.00006 95.1465 -0.354248
v 90.00006 95.10254 -0.2481741
v 90.00006 95.05972 -0.1448508
v 90.00006 95.02448 -0.05977091
v 90.00006 95 -0.0007170535
v 90.00005 90 -0.00142923
v 90.00006 95 -0.000715705
v 90.00006 95.78307 1.890548
v 90.00006 96.01356 2.447219
v 90.00006 96.03709 2.504047
v 90.00006 96.048 2.530401
v 90.00006 96.06179 2.563706
v 90.00006 96.31757 3.181454
v 90.00006 96.46396 3.535029
v 90.00006 95.45367 4.545037
v 90.00006 96.46396 3.535029
v 90.00006 92.92793 7.070059

vn -5.042548E-07 0.7072076 -0.707006
vn -3.516671E-07 0.7072076 -0.707006
vn -0.6507913 0.5369521 -0.536799
vn -1 0 -2.980232E-08
vn -1 0 -2.980232E-08
vn 3.709013E-08 -0.3828107 0.9238268
vn -0.141421 -0.7000999 0.6999003
vn 1.812384E-07 0.5186758 0.8549709
vn 3.14905E-07 -0.3828149 0.923825
vn 2.737834E-07 -0.3828157 0.9238248
vn 3.125254E-07 -0.3828154 0.9238248
vn 3.961092E-07 -0.3828145 0.9238253
vn 4.546215E-07 -0.3828135 0.9238256
vn -1.370944E-07 -0.3828188 0.9238235
vn 1.504686E-07 -0.3828163 0.9238245
vn 1.985367E-07 -0.3828158 0.9238247
vn 1.813879E-07 -0.382816 0.9238247
vn 1.802251E-07 -0.382816 0.9238246
vn 1.94187E-07 -0.3828157 0.9238247
vn 2.133818E-07 -0.3828161 0.9238247
vn 2.075951E-07 -0.382815 0.9238251
vn 2.502819E-07 -0.3828135 0.9238256
vn 1.397921E-07 -0.3828155 0.9238248
vn 1.536082E-07 -0.3828163 0.9238245
vn 1.584761E-07 -0.2390932 0.9709967
vn 1.962713E-07 0.344443 0.9388072
vn 2.524498E-07 0.3825537 0.9239333
vn 2.129615E-07 0.3825529 0.9239335
vn 1.932625E-07 0.3825526 0.9239337
vn 3.993946E-08 0.3825507 0.9239346
vn -4.451633E-08 0.3825495 0.923935
vn -2.60758E-07 0.3825479 0.9239356
vn 5.849591E-09 0.3825505 0.9239346
vn 1.840831E-07 0.3825516 0.923934
vn 2.431863E-07 0.3825522 0.923934
vn 3.019228E-07 0.3825522 0.9239338
vn 2.033468E-07 0.3825512 0.9239342
vn 2.240038E-07 0.3825518 0.9239341
vn 2.648344E-07 0.3825529 0.9239336
vn 2.75459E-07 0.4425348 0.8967513
vn 1.295423E-07 0.8965548 0.4429331
vn 9.009484E-08 0.9238243 0.3828166
vn 1.175401E-07 0.9238248 0.3828157
vn 1.582283E-07 0.9238251 0.382815
vn 1.297518E-07 0.923825 0.382815
vn 1.119977E-07 0.9238248 0.3828154
vn -1.417662E-08 0.9238246 0.3828159
vn 5.528893E-08 0.9238248 0.3828155
vn 3.28312E-08 0.9238247 0.3828159
vn 2.531374E-08 0.9238247 0.3828155
vn 1.837609E-08 0.9238248 0.3828156
vn 9.691311E-09 0.9238245 0.3828159
vn -4.907625E-08 0.9811486 0.1932548
vn 7.654635E-09 0.9238157 0.3828374
vn -1.228213E-07 0.9239343 -0.3825512
vn -7.779063E-08 0.9239337 -0.3825524
vn -4.092643E-08 0.9239337 -0.3825528
vn 6.701863E-08 0.9239331 -0.3825539
vn -1.34174E-07 0.923934 -0.382552
vn -4.225631E-07 0.9239346 -0.3825506
vn -7.015468E-07 0.9239356 -0.382548
vn -6.31743E-06 0.9239529 -0.3825062
vn -2.73469E-06 0.9239421 -0.3825324
vn 6.186672E-07 0.9239312 -0.3825588
vn 2.293933E-07 0.9239328 -0.382555
vn -1.082158E-07 0.9239338 -0.3825523
vn -1.338168E-07 0.923934 -0.3825517
vn -1.335975E-07 0.9239342 -0.3825515
vn -6.361707E-08 0.9239361 -0.3825468
vn -6.782059E-08 0.9749619 -0.2223718
vn -1.609324E-07 0.7072076 -0.707006
vn -1.609324E-07 0.7072076 -0.707006
vn -1.609324E-07 0.7072076 -0.707006
vn -1 0 -2.980232E-08
vn 2.660804E-07 -0.9239339 0.3825521
vn -1 0 -2.980232E-08
vn 1.639011E-07 0.609101 0.7930927
vn -0.7603924 0.4593058 -0.4591748
vn -0.8262195 0.3984042 -0.3982907
vn -0.07104917 0.7054204 -0.7052192
vn -1.609327E-07 0.7072076 -0.707006
vn -1.609324E-07 0.7072076 -0.707006
vn -1.60932E-07 0.7072076 -0.707006
vn -0.1030028 0.703446 -0.7032454
vn -1 0 -2.980232E-08
vn -0.01266333 0.707155 -0.7069452
vn -1.609334E-07 0.7072076 -0.707006
vn -0.1414215 0.7000998 -0.6999002
vn -1.609334E-07 0.7072029 -0.7070106
vn 0.06004164 0.7059273 -0.7057348
vn 1.957555E-07 -0.9239339 0.382552
vn -1.609352E-07 0.7071909 -0.7070227
vn 1 4.909969E-06 -4.878767E-06
vn 1 0 2.980232E-08
vn 1 -3.051321E-07 -2.754168E-07
vn 0 0 0
vn 1.855647E-07 -0.923934 0.382552
vn 1.502693E-07 -0.923934 0.382552
vn 1.75374E-07 -0.923934 0.3825521
vn 1 -3.051321E-07 -2.754168E-07
vn 1 -3.051321E-07 -2.754168E-07
vn 1.192093E-07 0.7070059 0.7072076
vn 1.192092E-07 0.7070059 0.7072076
vn 1.192093E-07 0.7070059 0.7072076
vn 1.192093E-07 0.7070059 0.7072076
vn 1.192093E-07 0.7070059 0.7072076
vn 1.192092E-07 0.7070059 0.7072076
vn 1.192093E-07 0.7070059 0.7072076
vn 1.192093E-07 0.7070059 0.7072076
vn 1.192093E-07 0.7070059 0.7072076
vn -1 0 -2.980232E-08
vn -1 0 -2.980232E-08
vn -1 0 -2.980232E-08
vn -1 0 -2.980232E-08
vn -1 0 -2.980232E-08
vn -1 0 -2.980232E-08
vn -1 0 -2.980232E-08
vn -1 0 -2.980232E-08
vn -1 0 -2.980232E-08
vn -1 0 -2.980232E-08
vn -1 0 -2.980232E-08
vn -1 0 -2.980232E-08
vn -1 0 -2.980232E-08
vn -0.9999999 0 -2.980232E-08
vn -1 0 -2.980232E-08
vn -1 0 -2.980232E-08
vn -0.9999999 0 -2.980232E-08
vn -1 0 -2.980232E-08
vn -1 0 -2.980232E-08
vn -1 0 -2.980232E-08
vn -0.9999999 0 -2.980232E-08
vn -1 0 -2.980232E-08
vn -1 0 -2.980232E-08
vn -1 0 -2.980232E-08
vn -1 0 -2.980232E-08
vn -1 0 -2.980232E-08
vn -1 0 -2.980232E-08
vn -1 0 -2.980232E-08
vn -1 0 -2.980232E-08
vn -1 0 -2.980232E-08
vn -1 0 -2.980232E-08
vn -0.9999999 0 -2.980232E-08
vn -1 0 -2.980232E-08
vn -0.9999999 0 -2.980232E-08
vn -0.9999999 0 -2.980232E-08
vn -1 0 -2.980232E-08
vn -0.9999999 0 -2.980232E-08
vn -0.9999999 0 -2.980232E-08
vn -3.152552E-07 0.3828154 -0.923825
vn -2.854842E-07 0.136915 -0.9905828
vn -2.43947E-07 -0.1366324 -0.9906218
vn -2.962042E-07 0.3828153 -0.9238248
vn -1.490357E-07 -0.6036344 -0.7972613
vn -7.765965E-08 -0.797089 -0.6038618
vn -1.865025E-08 -0.9238248 -0.3828154
vn -1.140485E-08 -0.9238248 -0.3828154
vn -2.295447E-07 0.3828155 -0.9238248
vn 1.192093E-07 0.7070059 0.7072076
vn 1.192093E-07 0.7070059 0.7072076
vn 1.192093E-07 0.7070059 0.7072076
vn 1.192093E-07 0.7070059 0.7072076
vn 1.192093E-07 0.7070059 0.7072076
vn 1.192093E-07 0.7070059 0.7072076
vn 1.283792E-07 0.7070059 0.7072076
vn 1.283792E-07 0.7070059 0.7072076
vn 0.2028032 -0.6925115 0.692314
vn 1 5.210414E-07 -4.910905E-07
vn 0.9999999 -1.52566E-07 -1.228072E-07
vn 1 -8.628187E-08 -2.143505E-07
vn 1 -1.52566E-07 -1.228072E-07
vn 1 -1.52566E-07 -1.228072E-07
vn 1 1.264513E-07 -2.753552E-07
vn 1 1.264515E-07 -2.753553E-07
vn 1 1.264508E-07 -2.753551E-07
vn 1 1.264517E-07 -2.753553E-07
vn 1 1.264518E-07 -2.753553E-07
vn 1 1.264511E-07 -2.753553E-07
vn 1 1.264489E-07 -2.753551E-07
vn 1 1.264542E-07 -2.753552E-07
vn 1 -1.240819E-07 -2.75391E-07
vn 1 -2.15761E-07 -1.860202E-07
vn 1 -1.263646E-07 -2.753908E-07
vn 1 -1.263643E-07 -2.753912E-07
vn 1 -1.26364E-07 -2.75392E-07
vn 1 -1.263642E-07 -2.753915E-07
vn 1 -1.263643E-07 -2.753915E-07
vn 1 -1.263644E-07 -2.753914E-07
vn 1 -1.263648E-07 -2.75391E-07
vn 1 -2.872571E-07 -1.145445E-07
vn 1 -3.051577E-07 -9.664919E-08
vn 1 -3.051578E-07 -9.664905E-08
vn 1 -3.05157E-07 -9.664929E-08
vn 1 -3.051588E-07 -9.664878E-08
vn 1 -3.051579E-07 -9.664898E-08
vn 1 -3.051575E-07 -9.664915E-08
vn 1 -2.441282E-07 -5.654917E-08
vn 1 -3.051937E-07 1.561669E-07
vn 1 -3.051938E-07 1.561671E-07
vn 1 -3.051939E-07 1.561674E-07
vn 1 -3.051911E-07 1.561607E-07
vn 1 -3.051943E-07 1.561681E-07
vn 1 -3.05194E-07 1.561676E-07
vn 1 -3.051934E-07 1.561662E-07
vn 0.9999999 -3.051928E-07 1.561651E-07
vn 1 -1.52566E-07 -1.228072E-07
vn 1 -1.52566E-07 -1.228072E-07
vn 0.9999999 -1.52566E-07 -1.228072E-07

f 1//1 2//2 3//3
f 4//4 1//1 3//3
f 3//3 5//5 4//4
f 3//3 6//6 5//5
f 5//5 6//6 7//7
f 8//8 7//7 6//6
f 9//9 8//8 6//6
f 10//10 9//9 6//6
f 9//9 10//10 11//11
f 11//11 10//10 12//12
f 13//13 11//11 12//12
f 13//13 12//12 14//14
f 13//13 14//14 15//15
f 15//15 14//14 16//16
f 15//15 16//16 17//17
f 18//18 17//17 16//16
f 19//19 17//17 18//18
f 19//19 18//18 20//20
f 21//21 19//19 20//20
f 22//22 19//19 21//21
f 22//22 21//21 23//23
f 24//24 22//22 23//23
f 24//24 23//23 25//25
f 26//26 24//24 25//25
f 26//26 25//25 27//27
f 28//28 26//26 27//27
f 28//28 27//27 29//29
f 29//29 27//27 30//30
f 31//31 29//29 30//30
f 31//31 30//30 32//32
f 33//33 31//31 32//32
f 33//33 32//32 34//34
f 35//35 33//33 34//34
f 35//35 34//34 36//36
f 37//37 35//35 36//36
f 37//37 36//36 38//38
f 39//39 37//37 38//38
f 39//39 38//38 40//40
f 41//41 39//39 40//40
f 41//41 40//40 42//42
f 41//41 42//42 43//43
f 43//43 42//42 44//44
f 45//45 43//43 44//44
f 45//45 44//44 46//46
f 47//47 45//45 46//46
f 48//48 45//45 47//47
f 48//48 47//47 49//49
f 50//50 48//48 49//49
f 50//50 49//49 51//51
f 52//52 50//50 51//51
f 52//52 51//51 53//53
f 54//54 52//52 53//53
f 55//55 54//54 53//53
f 55//55 53//53 56//56
f 55//55 56//56 57//57
f 57//57 56//56 58//58
f 57//57 58//58 59//59
f 59//59 58//58 60//60
f 59//59 60//60 61//61
f 61//61 60//60 62//62
f 61//61 62//62 63//63
f 63//63 62//62 64//64
f 63//63 64//64 65//65
f 65//65 64//64 66//66
f 65//65 66//66 67//67
f 68//68 67//67 66//66
f 69//69 67//67 68//68
f 69//69 68//68 70//70
f 71//71 69//69 70//70
f 72//72 71//71 73//73
f 74//74 75//75 76//76
f 77//77 74//74 76//76
f 75//75 77//77 76//76
f 78//78 75//75 74//74
f 79//79 75//75 78//78
f 78//78 74//74 80//80
f 81//81 78//78 80//80
f 82//82 78//78 81//81
f 82//82 83//83 78//78
f 83//83 84//84 79//79
f 84//84 85//85 79//79
f 80//80 74//74 86//86
f 87//87 80//80 86//86
f 81//81 80//80 87//87
f 86//86 74//74 88//88
f 88//88 74//74 77//77
f 86//86 88//88 89//89
f 90//90 86//86 89//89
f 87//87 86//86 90//90
f 75//75 91//91 77//77
f 90//90 89//89 92//92
f 90//90 92//92 93//93
f 94//94 90//90 93//93
f 95//95 83//83 82//82
f 95//95 82//82 81//81
f 95//95 81//81 87//87
f 95//95 87//87 90//90
f 95//95 96//96 83//83
f 97//97 91//91 75//75
f 97//97 98//98 91//91
f 97//97 99//99 98//98
f 100//100 95//95 101//101
f 102//102 103//103 104//104
f 102//102 104//104 105//105
f 102//102 105//105 106//106
f 106//106 105//105 107//107
f 108//108 102//102 106//106
f 109//109 102//102 108//108
f 110//110 108//108 106//106
f 111//111 112//112 113//113
f 111//111 113//113 114//114
f 111//111 114//114 115//115
f 111//111 115//115 116//116
f 111//111 116//116 117//117
f 117//117 118//118 111//111
f 118//118 119//119 111//111
f 120//120 111//111 119//119
f 120//120 121//121 111//111
f 121//121 122//122 111//111
f 111//111 122//122 123//123
f 114//114 113//113 124//124
f 124//124 113//113 125//125
f 125//125 113//113 126//126
f 126//126 113//113 127//127
f 127//127 113//113 128//128
f 128//128 113//113 129//129
f 129//129 113//113 130//130
f 130//130 113//113 131//131
f 131//131 113//113 132//132
f 132//132 113//113 133//133
f 133//133 113//113 134//134
f 133//133 134//134 135//135
f 135//135 134//134 136//136
f 134//134 137//137 136//136
f 137//137 134//134 138//138
f 138//138 134//134 139//139
f 139//139 134//134 140//140
f 140//140 134//134 141//141
f 134//134 142//142 141//141
f 134//134 143//143 142//142
f 134//134 144//144 143//143
f 144//144 134//134 145//145
f 145//145 134//134 146//146
f 147//147 134//134 148//148
f 149//149 150//150 151//151
f 149//149 152//152 150//150
f 151//151 150//150 153//153
f 151//151 153//153 154//154
f 154//154 153//153 155//155
f 154//154 155//155 156//156
f 152//152 157//157 150//150
f 158//158 159//159 160//160
f 161//161 159//159 158//158
f 162//162 159//159 161//161
f 163//163 162//162 161//161
f 164//164 162//162 163//163
f 165//165 162//162 164//164
f 9//9 166//166 8//8
f 166//166 9//9 167//167
f 168//168 169//169 170//170
f 168//168 171//171 169//169
f 172//172 169//169 173//173
f 174//174 169//169 172//172
f 169//169 174//174 175//175
f 176//176 169//169 175//175
f 177//177 169//169 176//176
f 178//178 169//169 177//177
f 178//178 179//179 169//169
f 179//179 180//180 169//169
f 180//180 181//181 169//169
f 182//182 181//181 180//180
f 182//182 183//183 181//181
f 183//183 184//184 181//181
f 184//184 185//185 181//181
f 185//185 186//186 181//181
f 186//186 187//187 181//181
f 187//187 188//188 181//181
f 188//188 189//189 181//181
f 181//181 189//189 190//190
f 181//181 190//190 191//191
f 192//192 181//181 191//191
f 193//193 181//181 192//192
f 194//194 181//181 193//193
f 195//195 181//181 194//194
f 195//195 196//196 181//181
f 196//196 197//197 198//198
f 196//196 198//198 199//199
f 199//199 200//200 196//196
f 196//196 200//200 201//201
f 201//201 202//202 196//196
f 196//196 202//202 203//203
f 196//196 203//203 204//204
f 205//205 196//196 206//206
f 207//207 196//196 205//205
