v 12.27895 40.0001 62.21591
v 25.03152 40.00009 74.96849
v 12.27895 40.0001 62.21591
v 12.27895 40.0001 62.21591
v 12.2677 43.57149 62.22717
v 12.26319 45.00005 62.23167
v 12.2632 45.00005 62.23167
v 25.01577 45.00004 74.98425
v 37.76834 45.00004 87.73682
v 12.10174 45.09344 62.39313
v 36.31523 45.84054 89.18993
v 12.08168 45.10504 62.41319
v 36.13466 45.94498 89.3705
v 12.07604 45.1083 62.41883
v 36.08396 45.97431 89.4212
v 12.01274 45.14492 62.48213
v 35.5142 46.30386 89.99095
v 11.23221 45.59638 63.26265
v 35.42748 46.35403 90.07768
v 10.49218 46.02443 64.00269
v 10.40705 46.07367 64.08782
v 35.33579 46.40706 90.16936
v 10.22948 46.17637 64.26539
v 35.31606 46.41847 90.18909
v 9.7586 46.44874 64.73627
v 35.26374 46.44873 90.24142
v 9.702928 46.63645 64.79194
v 34.95718 47.48235 90.54797
v 34.76269 48.13811 90.74247
v 9.689115 46.68302 64.80576
v 34.63837 48.55728 90.86679
v 9.685003 46.69688 64.80986
v 34.60137 48.68202 90.90379
v 9.653934 46.80164 64.84093
v 34.32174 49.62481 91.18341
v 9.297486 48.00344 65.19738
v 34.28214 49.75834 91.22302
v 9.003003 48.99633 65.49187
v 34.24942 49.86866 91.25574
v 8.711933 49.97771 65.78294
v 34.21708 49.97771 91.28809
v 8.743546 50.08701 65.75132
v 34.50158 50.96143 91.00359
v 8.814371 50.33192 65.6805
v 35.13902 53.16553 90.36614
v 9.011968 51.01515 65.4829
v 9.090989 51.28838 65.40388
v 35.16975 53.27181 90.3354
v 9.360441 52.22008 65.13443
v 35.19969 53.37533 90.30547
v 9.582306 52.98722 64.91256
v 35.22434 53.46057 90.28082
v 9.736313 53.51974 64.75855
v 35.24146 53.51974 90.2637
v 35.24146 53.51974 90.2637
v 9.88462 53.60772 64.61024
v 36.57622 54.3115 88.92894
v 9.928273 53.63361 64.5666
v 36.96909 54.54454 88.53606
v 9.93273 53.63625 64.56214
v 37.0092 54.56834 88.49596
v 9.934796 53.63748 64.56007
v 37.0278 54.57937 88.47736
v 9.937407 53.63903 64.55746
v 37.0513 54.59331 88.45385
v 9.985849 53.66776 64.50902
v 37.48728 54.85192 88.01788
v 12.23167 54.99995 62.2632
v 37.73682 54.99995 87.76834
v 12.23168 54.99995 62.26319
v 37.73682 54.99995 87.76834
v 12.23168 54.99995 62.26319
v 12.23168 54.99995 62.26319
v 12.22717 56.42851 62.2677
v 12.21592 59.9999 62.27895
v 12.21592 59.9999 62.27895
v 12.21592 59.9999 62.27895
v 12.23168 54.99995 62.26319
v 12.23168 54.99995 62.26319
v 12.23168 54.99995 62.26319
v 37.73682 54.99995 87.76834
v 37.73682 54.99995 87.76834
v 37.73682 54.99995 87.76834
v 12.23168 54.99995 62.26319
v 7.225191 57.03948 67.26968
v 12.23168 54.99995 62.26319
v 37.73682 54.99995 87.76834
v 12.23168 54.99995 62.26319
v 24.98425 54.99995 75.01577
v 37.73682 54.99995 87.76834
v 24.96849 59.9999 75.03152
v 37.7368 54.99995 87.76833
v 37.73682 54.99995 87.76834
v 37.73232 56.4285 87.77284
v 32.73033 57.03948 92.77483
v 37.73682 54.99995 87.76834
v 7.225191 57.03948 67.26968
v 37.72106 59.9999 87.7841
v 32.73033 57.03948 92.77483
v 35.24146 53.51974 90.2637
v 35.24146 53.51974 90.2637
v 25.03152 40.00009 74.96849
v 12.27895 40.0001 62.21591
v 12.27895 40.0001 62.21591
v 12.2677 43.57149 62.22717
v 25.01577 45.00004 74.98425
v 12.2632 45.00005 62.23167
v 37.77486 42.92899 87.73029
v 37.7841 40.00009 87.72106
v 37.76834 45.00004 87.73682
v 12.27895 40.0001 62.21591
v 7.269766 42.89748 67.2251
v 5.176432 49.95543 69.31844
v 9.7586 46.44874 64.73627
v 10.22948 46.17637 64.26539
v 10.40705 46.07367 64.08782
v 10.49218 46.02443 64.00269
v 11.23221 45.59638 63.26265
v 12.01274 45.14492 62.48213
v 12.07604 45.1083 62.41883
v 12.08168 45.10504 62.41319
v 12.10174 45.09344 62.39313
v 12.26319 45.00005 62.23167
v 9.702928 46.63645 64.79194
v 9.689115 46.68302 64.80576
v 9.685003 46.69688 64.80986
v 9.653934 46.80164 64.84093
v 9.297486 48.00344 65.19738
v 9.003003 48.99633 65.49187
v 8.711933 49.97771 65.78294
v 8.743546 50.08701 65.75132
v 8.814371 50.33192 65.6805
v 9.011968 51.01515 65.4829
v 7.225191 57.03948 67.26968
v 9.090989 51.28838 65.40388
v 9.360441 52.22008 65.13443
v 9.582306 52.98722 64.91256
v 9.736313 53.51974 64.75855
v 9.88462 53.60772 64.61024
v 9.928273 53.63361 64.5666
v 9.93273 53.63625 64.56214
v 9.934796 53.63748 64.56007
v 9.937407 53.63903 64.55746
v 9.985849 53.66776 64.50902
v 12.23167 54.99995 62.2632
v 12.23168 54.99995 62.26319
v 12.23168 54.99995 62.26319
v 12.21592 59.9999 62.27895
v 12.27895 40.0001 62.21591
v 32.77491 42.89747 92.73025
v 7.269766 42.89748 67.2251
v 25.03152 40.00009 74.96849
v 30.68157 49.95542 94.82358
v 5.176432 49.95543 69.31844
v 32.73033 57.03948 92.77483
v 7.225191 57.03948 67.26968
v 37.7841 40.00009 87.72106
v 12.21592 59.9999 62.27895
v 24.98425 54.99995 75.01577
v 12.23168 54.99995 62.26319
v 24.96849 59.9999 75.03152
v 37.7368 54.99995 87.76833
v 37.72106 59.9999 87.7841
v 37.73232 56.4285 87.77284
v 37.73682 54.99995 87.76834
v 37.76834 45.00004 87.73682
v 32.77491 42.89747 92.73025
v 37.77486 42.92899 87.73029
v 32.77491 42.89747 92.73025
v 37.7841 40.00009 87.72106
v 37.76834 45.00004 87.73682
v 36.31523 45.84054 89.18993
v 37.76834 45.00004 87.73682
v 36.13466 45.94498 89.3705
v 36.08396 45.97431 89.4212
v 35.5142 46.30386 89.99095
v 35.42748 46.35403 90.07768
v 35.33579 46.40706 90.16936
v 35.31606 46.41847 90.18909
v 35.26374 46.44873 90.24142
v 30.68157 49.95542 94.82358
v 34.95718 47.48235 90.54797
v 34.76269 48.13811 90.74247
v 34.63837 48.55728 90.86679
v 34.60137 48.68202 90.90379
v 34.32174 49.62481 91.18341
v 34.28214 49.75834 91.22302
v 34.24942 49.86866 91.25574
v 34.21708 49.97771 91.28809
v 34.50158 50.96143 91.00359
v 35.13902 53.16553 90.36614
v 35.16975 53.27181 90.3354
v 35.19969 53.37533 90.30547
v 35.22434 53.46057 90.28082
v 35.24146 53.51974 90.2637
v 32.73033 57.03948 92.77483
v 35.24146 53.51974 90.2637
v 36.57622 54.3115 88.92894
v 36.96909 54.54454 88.53606
v 37.0092 54.56834 88.49596
v 37.0278 54.57937 88.47736
v 37.0513 54.59331 88.45385
v 37.48728 54.85192 88.01788
v 37.73682 54.99995 87.76834
v 37.73232 56.4285 87.77284
v 37.73682 54.99995 87.76834
v 37.72106 59.9999 87.7841

vn 0.003151546 -0.9999901 -0.003152301
vn 0.003151654 -0.9999901 -0.003152193
vn -0.4577859 -0.7592491 -0.4625721
vn -0.7071068 0 -0.7071068
vn -0.7071068 0 -0.7071068
vn 0.2676866 0.9255743 -0.2676865
vn -0.10312 0.9899399 -0.09687948
vn 0.6860916 0.2419854 -0.6860914
vn 0.2676838 0.925576 -0.2676833
vn 0.2676832 0.9255764 -0.2676828
vn 0.2676835 0.9255763 -0.267683
vn 0.2676842 0.9255759 -0.2676836
vn 0.2676849 0.9255754 -0.2676843
vn 0.2676807 0.9255777 -0.2676809
vn 0.2676827 0.9255766 -0.2676825
vn 0.2676831 0.9255764 -0.2676828
vn 0.267683 0.9255766 -0.2676827
vn 0.2676829 0.9255765 -0.2676827
vn 0.2676831 0.9255764 -0.2676829
vn 0.2676829 0.9255766 -0.2676826
vn 0.2676837 0.9255761 -0.2676834
vn 0.2676848 0.9255754 -0.2676844
vn 0.2676832 0.9255763 -0.267683
vn 0.2676827 0.9255767 -0.2676824
vn 0.3633378 0.8578879 -0.3633375
vn 0.640337 0.4241903 -0.6403367
vn 0.6520696 0.3867958 -0.6520693
vn 0.6520693 0.3867965 -0.652069
vn 0.6520693 0.3867968 -0.652069
vn 0.6520686 0.3867988 -0.6520686
vn 0.6520681 0.3868 -0.6520682
vn 0.6520675 0.3868015 -0.6520679
vn 0.6520686 0.3867989 -0.6520685
vn 0.6520689 0.3867978 -0.6520686
vn 0.6520692 0.3867973 -0.6520689
vn 0.6520692 0.3867972 -0.6520688
vn 0.6520688 0.3867982 -0.6520685
vn 0.6520691 0.3867977 -0.6520687
vn 0.6520694 0.3867965 -0.652069
vn 0.6686571 0.3252629 -0.6686567
vn 0.6707165 -0.3166692 -0.6707163
vn 0.6544816 -0.37856 -0.6544815
vn 0.6544814 -0.378561 -0.6544813
vn 0.6544813 -0.3785617 -0.6544811
vn 0.6544812 -0.3785617 -0.6544811
vn 0.6544813 -0.3785613 -0.6544812
vn 0.6544814 -0.3785608 -0.6544814
vn 0.6544814 -0.3785612 -0.6544813
vn 0.6544815 -0.3785609 -0.6544814
vn 0.6544813 -0.3785611 -0.6544813
vn 0.6544814 -0.3785612 -0.6544814
vn 0.6544814 -0.3785607 -0.6544814
vn 0.588896 -0.5535368 -0.5888962
vn 0.6544877 -0.3785392 -0.6544877
vn 0.2735076 -0.9221644 -0.2735078
vn 0.2735068 -0.9221648 -0.2735069
vn 0.2735066 -0.9221651 -0.2735066
vn 0.2735058 -0.9221655 -0.2735057
vn 0.273507 -0.9221647 -0.2735073
vn 0.2735079 -0.9221642 -0.2735085
vn 0.2735094 -0.922163 -0.2735105
vn 0.273535 -0.9221455 -0.273544
vn 0.273519 -0.9221566 -0.2735229
vn 0.2735028 -0.9221676 -0.273502
vn 0.2735052 -0.922166 -0.2735049
vn 0.2735068 -0.9221648 -0.273507
vn 0.2735072 -0.9221646 -0.2735074
vn 0.2735074 -0.9221645 -0.2735076
vn 0.2735107 -0.9221626 -0.2735109
vn 0.3788747 -0.8443388 -0.3788748
vn 0.003151789 -0.9999901 -0.003152058
vn 0.003151789 -0.9999901 -0.003152058
vn 0.003151789 -0.9999901 -0.003152058
vn -0.7071068 0 -0.7071068
vn -0.2735069 0.9221647 0.2735073
vn -0.7071068 0 -0.7071068
vn 0.7006935 0.1343787 -0.7006933
vn -0.5356316 -0.6494574 -0.5397257
vn -0.5824498 -0.5633428 -0.5860011
vn -0.04709541 -0.9974629 -0.05338333
vn 0.003151789 -0.9999901 -0.003152058
vn 0.003151789 -0.9999901 -0.003152058
vn 0.003151789 -0.9999901 -0.003152058
vn -0.06969886 -0.9946712 -0.07596918
vn -0.7071068 0 -0.7071068
vn -0.005798616 -0.9999099 -0.01211008
vn 0.003151789 -0.9999901 -0.003152058
vn -0.09687987 -0.9899397 -0.1031204
vn 0.003147101 -0.9999901 -0.003147371
vn 0.04559763 -0.9981861 0.03931402
vn -0.2735069 0.9221647 0.2735073
vn 0.003135068 -0.9999902 -0.003135338
vn 0.7071068 -6.942687E-06 0.7071068
vn 0.7071068 0 0.7071068
vn 0.7071065 -1.923759E-09 0.7071071
vn 0 0 0
vn -0.273507 0.9221647 0.2735073
vn -0.273507 0.9221647 0.2735073
vn -0.273507 0.9221648 0.2735073
vn 0.7071065 -1.923759E-09 0.7071071
vn 0.7071065 -1.923759E-09 0.7071071
vn 0.7070999 0.004457444 -0.7070997
vn 0.7070999 0.004457443 -0.7070997
vn 0.7070999 0.004457444 -0.7070997
vn 0.7070999 0.004457444 -0.7070997
vn 0.7070999 0.004457444 -0.7070997
vn 0.7070999 0.004457444 -0.7070997
vn 0.7070999 0.004457444 -0.7070997
vn 0.7070999 0.004457444 -0.7070997
vn 0.7070999 0.004457444 -0.7070997
vn -0.7071068 0 -0.7071068
vn -0.7071068 0 -0.7071068
vn -0.7071068 0 -0.7071068
vn -0.7071068 0 -0.7071068
vn -0.7071068 0 -0.7071068
vn -0.7071068 0 -0.7071068
vn -0.7071068 0 -0.7071068
vn -0.7071068 0 -0.7071068
vn -0.7071068 0 -0.7071068
vn -0.7071068 0 -0.7071068
vn -0.7071068 0 -0.7071068
vn -0.7071068 0 -0.7071068
vn -0.7071068 0 -0.7071068
vn -0.7071068 0 -0.7071068
vn -0.7071068 0 -0.7071068
vn -0.7071068 0 -0.7071068
vn -0.7071068 0 -0.7071068
vn -0.7071068 0 -0.7071068
vn -0.7071068 0 -0.7071068
vn -0.7071068 0 -0.7071068
vn -0.7071068 0 -0.7071068
vn -0.7071068 0 -0.7071068
vn -0.7071068 0 -0.7071068
vn -0.7071068 0 -0.7071068
vn -0.7071068 0 -0.7071068
vn -0.7071068 0 -0.7071068
vn -0.7071068 0 -0.7071068
vn -0.7071068 0 -0.7071068
vn -0.7071068 0 -0.7071068
vn -0.7071068 0 -0.7071068
vn -0.7071068 0 -0.7071068
vn -0.7071068 0 -0.7071068
vn -0.7071068 0 -0.7071068
vn -0.7071068 0 -0.7071068
vn -0.7071068 0 -0.7071068
vn -0.7071068 0 -0.7071068
vn -0.7071068 0 -0.7071068
vn -0.7071068 0 -0.7071068
vn -0.2676835 -0.9255763 0.267683
vn -0.4243977 -0.7998585 0.4243973
vn -0.5617797 -0.6072953 0.5617793
vn -0.2676835 -0.9255762 0.267683
vn -0.7000238 -0.1411878 0.7000235
vn -0.7008859 0.1323567 0.7008858
vn -0.6544812 0.3785613 0.6544812
vn -0.6544813 0.3785613 0.6544813
vn -0.2676834 -0.9255763 0.267683
vn 0.7070999 0.004457444 -0.7070997
vn 0.7070999 0.004457444 -0.7070997
vn 0.7070999 0.004457444 -0.7070997
vn 0.7070999 0.004457444 -0.7070997
vn 0.7070999 0.004457444 -0.7070997
vn 0.7070999 0.004457444 -0.7070997
vn 0.7070999 0.004457444 -0.7070997
vn 0.7070999 0.004457443 -0.7070997
vn 0.1403171 0.9792098 0.14649
vn 0.7071068 -7.367515E-07 0.7071068
vn 0.7071066 -9.618795E-10 0.7071069
vn 0.7071066 -1.126387E-07 0.707107
vn 0.7071066 -9.618796E-10 0.707107
vn 0.7071066 -9.618796E-10 0.707107
vn 0.7071067 -3.05736E-07 0.7071069
vn 0.7071067 -3.057361E-07 0.7071069
vn 0.7071067 -3.057355E-07 0.7071069
vn 0.7071067 -3.057363E-07 0.7071069
vn 0.7071067 -3.057363E-07 0.7071069
vn 0.7071066 -3.057359E-07 0.7071069
vn 0.7071067 -3.057342E-07 0.7071069
vn 0.7071066 -3.05738E-07 0.7071069
vn 0.7071066 -1.293737E-07 0.7071071
vn 0.7071066 -1.360304E-09 0.7071071
vn 0.7071066 -1.277664E-07 0.7071071
vn 0.7071066 -1.277669E-07 0.7071071
vn 0.7071066 -1.277676E-07 0.7071071
vn 0.7071066 -1.277672E-07 0.7071071
vn 0.7071066 -1.277671E-07 0.7071071
vn 0.7071066 -1.27767E-07 0.7071071
vn 0.7071066 -1.277664E-07 0.7071071
vn 0.7071066 9.973506E-08 0.7071071
vn 0.7071066 1.250463E-07 0.7071071
vn 0.7071066 1.250465E-07 0.7071071
vn 0.7071066 1.250458E-07 0.7071071
vn 0.7071066 1.250474E-07 0.7071071
vn 0.7071066 1.250466E-07 0.7071071
vn 0.7071066 1.250462E-07 0.7071071
vn 0.7071066 1.105556E-07 0.707107
vn 0.7071067 3.046093E-07 0.7071069
vn 0.7071067 3.046095E-07 0.7071069
vn 0.7071067 3.046099E-07 0.7071069
vn 0.7071067 3.046031E-07 0.7071069
vn 0.7071067 3.046106E-07 0.7071069
vn 0.7071067 3.0461E-07 0.7071069
vn 0.7071067 3.046086E-07 0.7071069
vn 0.7071066 3.046075E-07 0.7071069
vn 0.7071066 -9.618761E-10 0.707107
vn 0.7071066 -9.618675E-10 0.707107
vn 0.7071066 -9.618796E-10 0.7071069

f 1//1 2//2 3//3
f 4//4 1//1 3//3
f 3//3 5//5 4//4
f 3//3 6//6 5//5
f 5//5 6//6 7//7
f 8//8 7//7 6//6
f 9//9 8//8 6//6
f 10//10 9//9 6//6
f 9//9 10//10 11//11
f 11//11 10//10 12//12
f 13//13 11//11 12//12
f 13//13 12//12 14//14
f 13//13 14//14 15//15
f 15//15 14//14 16//16
f 15//15 16//16 17//17
f 18//18 17//17 16//16
f 19//19 17//17 18//18
f 19//19 18//18 20//20
f 21//21 19//19 20//20
f 22//22 19//19 21//21
f 22//22 21//21 23//23
f 24//24 22//22 23//23
f 24//24 23//23 25//25
f 26//26 24//24 25//25
f 26//26 25//25 27//27
f 28//28 26//26 27//27
f 28//28 27//27 29//29
f 29//29 27//27 30//30
f 31//31 29//29 30//30
f 31//31 30//30 32//32
f 33//33 31//31 32//32
f 33//33 32//32 34//34
f 35//35 33//33 34//34
f 35//35 34//34 36//36
f 37//37 35//35 36//36
f 37//37 36//36 38//38
f 39//39 37//37 38//38
f 39//39 38//38 40//40
f 41//41 39//39 40//40
f 41//41 40//40 42//42
f 41//41 42//42 43//43
f 43//43 42//42 44//44
f 45//45 43//43 44//44
f 45//45 44//44 46//46
f 47//47 45//45 46//46
f 48//48 45//45 47//47
f 48//48 47//47 49//49
f 50//50 48//48 49//49
f 50//50 49//49 51//51
f 52//52 50//50 51//51
f 52//52 51//51 53//53
f 54//54 52//52 53//53
f 55//55 54//54 53//53
f 55//55 53//53 56//56
f 55//55 56//56 57//57
f 57//57 56//56 58//58
f 57//57 58//58 59//59
f 59//59 58//58 60//60
f 59//59 60//60 61//61
f 61//61 60//60 62//62
f 61//61 62//62 63//63
f 63//63 62//62 64//64
f 63//63 64//64 65//65
f 65//65 64//64 66//66
f 65//65 66//66 67//67
f 68//68 67//67 66//66
f 69//69 67//67 68//68
f 69//69 68//68 70//70
f 71//71 69//69 70//70
f 72//72 71//71 73//73
f 74//74 75//75 76//76
f 77//77 74//74 76//76
f 75//75 77//77 76//76
f 78//78 75//75 74//74
f 79//79 75//75 78//78
f 78//78 74//74 80//80
f 81//81 78//78 80//80
f 82//82 78//78 81//81
f 82//82 83//83 78//78
f 83//83 84//84 79//79
f 84//84 85//85 79//79
f 80//80 74//74 86//86
f 87//87 80//80 86//86
f 81//81 80//80 87//87
f 86//86 74//74 88//88
f 88//88 74//74 77//77
f 86//86 88//88 89//89
f 90//90 86//86 89//89
f 87//87 86//86 90//90
f 75//75 91//91 77//77
f 90//90 89//89 92//92
f 90//90 92//92 93//93
f 94//94 90//90 93//93
f 95//95 83//83 82//82
f 95//95 82//82 81//81
f 95//95 81//81 87//87
f 95//95 87//87 90//90
f 95//95 96//96 83//83
f 97//97 91//91 75//75
f 97//97 98//98 91//91
f 97//97 99//99 98//98
f 100//100 95//95 101//101
f 102//102 103//103 104//104
f 102//102 104//104 105//105
f 102//102 105//105 106//106
f 106//106 105//105 107//107
f 108//108 102//102 106//106
f 109//109 102//102 108//108
f 110//110 108//108 106//106
f 111//111 112//112 113//113
f 111//111 113//113 114//114
f 111//111 114//114 115//115
f 111//111 115//115 116//116
f 111//111 116//116 117//117
f 117//117 118//118 111//111
f 118//118 119//119 111//111
f 120//120 111//111 119//119
f 120//120 121//121 111//111
f 121//121 122//122 111//111
f 111//111 122//122 123//123
f 114//114 113//113 124//124
f 124//124 113//113 125//125
f 125//125 113//113 126//126
f 126//126 113//113 127//127
f 127//127 113//113 128//128
f 128//128 113//113 129//129
f 129//129 113//113 130//130
f 130//130 113//113 131//131
f 131//131 113//113 132//132
f 132//132 113//113 133//133
f 133//133 113//113 134//134
f 133//133 134//134 135//135
f 135//135 134//134 136//136
f 134//134 137//137 136//136
f 137//137 134//134 138//138
f 138//138 134//134 139//139
f 139//139 134//134 140//140
f 140//140 134//134 141//141
f 134//134 142//142 141//141
f 134//134 143//143 142//142
f 134//134 144//144 143//143
f 144//144 134//134 145//145
f 145//145 134//134 146//146
f 147//147 134//134 148//148
f 149//149 150//150 151//151
f 149//149 152//152 150//150
f 151//151 150//150 153//153
f 151//151 153//153 154//154
f 154//154 153//153 155//155
f 154//154 155//155 156//156
f 152//152 157//157 150//150
f 158//158 159//159 160//160
f 161//161 159//159 158//158
f 162//162 159//159 161//161
f 163//163 162//162 161//161
f 164//164 162//162 163//163
f 165//165 162//162 164//164
f 9//9 166//166 8//8
f 166//166 9//9 167//167
f 168//168 169//169 170//170
f 168//168 171//171 169//169
f 172//172 169//169 173//173
f 174//174 169//169 172//172
f 169//169 174//174 175//175
f 176//176 169//169 175//175
f 177//177 169//169 176//176
f 178//178 169//169 177//177
f 178//178 179//179 169//169
f 179//179 180//180 169//169
f 180//180 181//181 169//169
f 182//182 181//181 180//180
f 182//182 183//183 181//181
f 183//183 184//184 181//181
f 184//184 185//185 181//181
f 185//185 186//186 181//181
f 186//186 187//187 181//181
f 187//187 188//188 181//181
f 188//188 189//189 181//181
f 181//181 189//189 190//190
f 181//181 190//190 191//191
f 192//192 181//181 191//191
f 193//193 181//181 192//192
f 194//194 181//181 193//193
f 195//195 181//181 194//194
f 195//195 196//196 181//181
f 196//196 197//197 198//198
f 196//196 198//198 199//199
f 199//199 200//200 196//196
f 196//196 200//200 201//201
f 201//201 202//202 196//196
f 196//196 202//202 203//203
f 196//196 203//203 204//204
f 205//205 196//196 206//206
f 207//207 196//196 205//205
