v 92.94498 7.087095 90.00002
v 92.94498 7.087097 49.99998
v 92.94498 7.087095 90.00002
v 92.94498 7.087094 90.00002
v 95.46463 4.555991 90.00002
v 96.47249 3.543548 90.00002
v 96.47249 3.543548 90.00002
v 96.47249 3.54355 49.99998
v 96.47248 3.543551 9.999943
v 96.37757 3.315847 90.00002
v 95.61818 1.494243 9.999943
v 96.36577 3.287553 90.00002
v 95.51202 1.239588 9.999943
v 96.36246 3.279608 90.00002
v 95.48222 1.168092 9.999943
v 96.32524 3.190328 90.00002
v 95.14725 0.3645627 9.999943
v 95.86636 2.089564 90.00002
v 95.09626 0.2422566 9.999943
v 95.43128 1.045901 90.00002
v 95.38123 0.9258387 90.00002
v 95.04236 0.1129538 9.999943
v 95.27684 0.6754209 90.00002
v 95.03076 0.08512971 9.999943
v 95.00001 0.01134079 90.00002
v 95 0.01134181 9.999943
v 95.07748 -0.176895 90.00002
v 95.42658 -1.025164 9.999943
v 95.69723 -1.682768 9.999943
v 95.09669 -0.2235981 90.00002
v 95.87022 -2.103102 9.999943
v 95.10242 -0.2374972 90.00002
v 95.9217 -2.228194 9.999943
v 95.14565 -0.3425445 90.00002
v 96.31081 -3.173624 9.999943
v 95.64165 -1.547718 90.00002
v 96.36591 -3.307532 9.999943
v 96.05142 -2.543382 90.00002
v 96.41145 -3.418162 9.999943
v 96.45645 -3.52751 90.00002
v 96.45645 -3.527509 9.999943
v 96.56545 -3.572948 90.00002
v 97.43745 -3.936461 9.999943
v 96.80968 -3.674758 90.00002
v 99.63544 -4.852744 9.999943
v 97.49101 -3.958789 90.00002
v 97.76349 -4.07238 90.00002
v 99.74142 -4.896924 9.999943
v 98.6926 -4.4597 90.00002
v 99.84465 -4.93996 9.999943
v 99.45762 -4.778618 90.00002
v 99.92966 -4.975395 9.999943
v 99.98866 -4.999994 90.00002
v 99.98866 -4.999992 9.999943
v 99.98866 -4.999993 9.999943
v 100.199 -4.913434 90.00002
v 101.8816 -4.220942 9.999943
v 100.2609 -4.887953 90.00002
v 102.4387 -3.991636 9.999943
v 100.2672 -4.885353 90.00002
v 102.4956 -3.968228 9.999943
v 100.2701 -4.884146 90.00002
v 102.522 -3.957373 9.999943
v 100.2738 -4.882624 90.00002
v 102.5553 -3.943652 9.999943
v 100.3425 -4.854349 90.00002
v 103.1736 -3.689189 9.999943
v 103.5275 -3.543547 90.00002
v 103.5275 -3.543546 9.999943
v 103.5275 -3.543547 90.00002
v 103.5275 -3.543545 9.999943
v 103.5275 -3.543546 90.00002
v 103.5275 -3.543547 90.00002
v 104.5354 -4.555989 90.00002
v 107.055 -7.087094 90.00002
v 107.055 -7.087094 90.00002
v 107.055 -7.087092 90.00002
v 103.5275 -3.543546 90.00002
v 103.5275 -3.543547 90.00002
v 103.5275 -3.543546 90.00002
v 103.5275 -3.543545 9.999943
v 103.5275 -3.543545 9.999943
v 103.5275 -3.543545 9.999943
v 103.5275 -3.543547 90.00002
v 99.97733 -9.999989 90.00002
v 103.5275 -3.543546 90.00002
v 103.5275 -3.543545 9.999943
v 103.5275 -3.543546 90.00002
v 103.5275 -3.543546 49.99998
v 103.5275 -3.543545 9.999943
v 107.055 -7.087092 49.99998
v 103.5275 -3.543545 9.999985
v 103.5275 -3.543545 9.999943
v 104.5354 -4.555986 9.999943
v 99.97732 -9.999987 9.99995
v 103.5275 -3.543546 9.999943
v 99.97733 -9.999989 90.00002
v 107.055 -7.087091 9.999943
v 99.97732 -9.999987 9.99995
v 99.98866 -4.999993 9.999943
v 99.98866 -4.999992 9.999943
v 92.94498 7.087097 49.99998
v 92.94498 7.087095 90.00002
v 92.94498 7.087094 90.00002
v 95.46463 4.555991 90.00002
v 96.47249 3.54355 49.99998
v 96.47249 3.543548 90.00002
v 95.01134 5.011337 9.999943
v 92.94497 7.087098 9.999943
v 96.47248 3.543551 9.999943
v 92.94498 7.087095 90.00002
v 90.00002 0.0226782 90.00002
v 92.9129 -7.055022 90.00002
v 95.00001 0.01134079 90.00002
v 95.27684 0.6754209 90.00002
v 95.38123 0.9258387 90.00002
v 95.43128 1.045901 90.00002
v 95.86636 2.089564 90.00002
v 96.32524 3.190328 90.00002
v 96.36246 3.279608 90.00002
v 96.36577 3.287553 90.00002
v 96.37757 3.315847 90.00002
v 96.47249 3.543548 90.00002
v 95.07748 -0.176895 90.00002
v 95.09669 -0.2235981 90.00002
v 95.10242 -0.2374972 90.00002
v 95.14565 -0.3425445 90.00002
v 95.64165 -1.547718 90.00002
v 96.05142 -2.543382 90.00002
v 96.45645 -3.52751 90.00002
v 96.56545 -3.572948 90.00002
v 96.80968 -3.674758 90.00002
v 97.49101 -3.958789 90.00002
v 99.97733 -9.999989 90.00002
v 97.76349 -4.07238 90.00002
v 98.6926 -4.4597 90.00002
v 99.45762 -4.778618 90.00002
v 99.98866 -4.999994 90.00002
v 100.199 -4.913434 90.00002
v 100.2609 -4.887953 90.00002
v 100.2672 -4.885353 90.00002
v 100.2701 -4.884146 90.00002
v 100.2738 -4.882624 90.00002
v 100.3425 -4.854349 90.00002
v 103.5275 -3.543547 90.00002
v 103.5275 -3.543547 90.00002
v 103.5275 -3.543547 90.00002
v 107.055 -7.087094 90.00002
v 92.94498 7.087095 90.00002
v 90.00001 0.02268091 9.99995
v 90.00002 0.0226782 90.00002
v 92.94498 7.087097 49.99998
v 92.9129 -7.05502 9.99995
v 92.9129 -7.055022 90.00002
v 99.97732 -9.999987 9.99995
v 99.97733 -9.999989 90.00002
v 92.94497 7.087098 9.999943
v 107.055 -7.087092 90.00002
v 103.5275 -3.543546 49.99998
v 103.5275 -3.543546 90.00002
v 107.055 -7.087092 49.99998
v 103.5275 -3.543545 9.999985
v 107.055 -7.087091 9.999943
v 104.5354 -4.555986 9.999943
v 103.5275 -3.543545 9.999943
v 96.47248 3.543551 9.999943
v 90.00001 0.02268091 9.99995
v 95.01134 5.011337 9.999943
v 90.00001 0.02268091 9.99995
v 92.94497 7.087098 9.999943
v 96.47248 3.543551 9.999943
v 95.61818 1.494243 9.999943
v 96.47248 3.543551 9.999943
v 95.51202 1.239588 9.999943
v 95.48222 1.168092 9.999943
v 95.14725 0.3645627 9.999943
v 95.09626 0.2422566 9.999943
v 95.04236 0.1129538 9.999943
v 95.03076 0.08512971 9.999943
v 95 0.01134181 9.999943
v 92.9129 -7.05502 9.99995
v 95.42658 -1.025164 9.999943
v 95.69723 -1.682768 9.999943
v 95.87022 -2.103102 9.999943
v 95.9217 -2.228194 9.999943
v 96.31081 -3.173624 9.999943
v 96.36591 -3.307532 9.999943
v 96.41145 -3.418162 9.999943
v 96.45645 -3.527509 9.999943
v 97.43745 -3.936461 9.999943
v 99.63544 -4.852744 9.999943
v 99.74142 -4.896924 9.999943
v 99.84465 -4.93996 9.999943
v 99.92966 -4.975395 9.999943
v 99.98866 -4.999992 9.999943
v 99.97732 -9.999987 9.99995
v 99.98866 -4.999993 9.999943
v 101.8816 -4.220942 9.999943
v 102.4387 -3.991636 9.999943
v 102.4956 -3.968228 9.999943
v 102.522 -3.957373 9.999943
v 102.5553 -3.943652 9.999943
v 103.1736 -3.689189 9.999943
v 103.5275 -3.543546 9.999943
v 104.5354 -4.555986 9.999943
v 103.5275 -3.543545 9.999943
v 107.055 -7.087091 9.999943

vn -0.7055014 0.7087086 5.340572E-07
vn -0.7055014 0.7087086 3.814694E-07
vn -0.5356566 0.5380917 0.6507913
vn 0 0 1
vn 0 0 1
vn 0.9230112 -0.3847731 -6.462383E-08
vn 0.6984109 -0.7015858 0.141421
vn 0.8560713 0.5168577 -1.883212E-07
vn 0.9230094 -0.3847774 -3.424387E-07
vn 0.9230092 -0.3847782 -3.013172E-07
vn 0.9230093 -0.3847779 -3.400592E-07
vn 0.9230097 -0.3847769 -4.236429E-07
vn 0.92301 -0.3847759 -4.821552E-07
vn 0.9230078 -0.3847813 1.095606E-07
vn 0.9230089 -0.3847787 -1.780023E-07
vn 0.923009 -0.3847782 -2.260704E-07
vn 0.9230092 -0.3847784 -2.089216E-07
vn 0.923009 -0.3847785 -2.077588E-07
vn 0.9230091 -0.3847782 -2.217208E-07
vn 0.923009 -0.3847785 -2.409156E-07
vn 0.9230095 -0.3847774 -2.351288E-07
vn 0.92301 -0.384776 -2.778156E-07
vn 0.9230092 -0.384778 -1.673258E-07
vn 0.9230089 -0.3847788 -1.811419E-07
vn 0.9704864 -0.2411563 -1.839746E-07
vn 0.9395371 0.3424471 -2.087927E-07
vn 0.9247442 0.3805893 -2.638545E-07
vn 0.9247445 0.3805885 -2.243663E-07
vn 0.9247447 0.3805882 -2.046673E-07
vn 0.9247456 0.3805863 -5.134434E-08
vn 0.9247459 0.3805851 3.311141E-08
vn 0.9247466 0.3805835 2.493531E-07
vn 0.9247456 0.3805862 -1.725448E-08
vn 0.924745 0.3805872 -1.95488E-07
vn 0.9247449 0.3805878 -2.545912E-07
vn 0.9247448 0.3805878 -3.133276E-07
vn 0.9247452 0.3805868 -2.147517E-07
vn 0.924745 0.3805874 -2.354086E-07
vn 0.9247445 0.3805885 -2.762392E-07
vn 0.8976899 0.440628 -2.850269E-07
vn 0.4448375 0.8956115 -1.199789E-07
vn 0.3847791 0.9230087 -7.869002E-08
vn 0.3847781 0.9230092 -1.061353E-07
vn 0.3847775 0.9230095 -1.468234E-07
vn 0.3847775 0.9230094 -1.18347E-07
vn 0.3847778 0.9230092 -1.005928E-07
vn 0.3847784 0.923009 2.558145E-08
vn 0.384778 0.9230092 -4.388408E-08
vn 0.3847783 0.9230092 -2.142637E-08
vn 0.384778 0.9230092 -1.39089E-08
vn 0.3847781 0.9230093 -6.971242E-09
vn 0.3847784 0.923009 1.713521E-09
vn 0.1953395 0.9807358 6.568339E-08
vn 0.3847999 0.923 3.749556E-09
vn -0.3805868 0.9247453 1.50355E-07
vn -0.380588 0.9247447 1.053244E-07
vn -0.3805884 0.9247446 6.84602E-08
vn -0.3805895 0.9247441 -3.948485E-08
vn -0.3805876 0.9247449 1.617077E-07
vn -0.3805862 0.9247456 4.500968E-07
vn -0.3805836 0.9247465 7.290805E-07
vn -0.3805417 0.9247637 6.344963E-06
vn -0.380568 0.924753 2.762223E-06
vn -0.3805944 0.9247422 -5.911333E-07
vn -0.3805906 0.9247438 -2.018595E-07
vn -0.3805879 0.9247448 1.357495E-07
vn -0.3805873 0.924745 1.613505E-07
vn -0.3805871 0.9247451 1.611312E-07
vn -0.3805824 0.924747 9.115076E-08
vn -0.2202993 0.9754324 9.305477E-08
vn -0.7055014 0.7087086 1.907347E-07
vn -0.7055014 0.7087086 1.907347E-07
vn -0.7055014 0.7087086 1.907347E-07
vn 0 0 1
vn 0.3805877 -0.9247449 -2.936142E-07
vn 0 0 1
vn 0.7943854 0.6074142 -1.677742E-07
vn -0.4581977 0.4602806 0.7603924
vn -0.3974431 0.3992498 0.8262195
vn -0.7037185 0.7069175 0.0710492
vn -0.7055014 0.7087086 1.90735E-07
vn -0.7055014 0.7087086 1.907347E-07
vn -0.7055014 0.7087086 1.907343E-07
vn -0.7017489 0.704939 0.1030029
vn 0 0 1
vn -0.7054408 0.7086558 0.01266336
vn -0.7055014 0.7087086 1.907357E-07
vn -0.6984107 0.7015857 0.1414215
vn -0.7055061 0.7087039 1.907357E-07
vn -0.7042331 0.7074256 -0.06004161
vn 0.3805876 -0.9247448 -2.232892E-07
vn -0.7055182 0.7086919 1.907375E-07
vn -4.898124E-06 4.92039E-06 -1
vn 0 0 -1
vn -3.058669E-07 -3.044828E-07 -1
vn 0 0 0
vn 0.3805876 -0.924745 -2.130985E-07
vn 0.3805876 -0.9247449 -1.778031E-07
vn 0.3805876 -0.924745 -2.029077E-07
vn -3.058669E-07 -3.044828E-07 -1
vn -3.058669E-07 -3.044828E-07 -1
vn 0.7087086 0.7055014 -1.192093E-07
vn 0.7087085 0.7055014 -1.192092E-07
vn 0.7087086 0.7055014 -1.192093E-07
vn 0.7087086 0.7055014 -1.192093E-07
vn 0.7087086 0.7055014 -1.192093E-07
vn 0.7087086 0.7055014 -1.192092E-07
vn 0.7087086 0.7055014 -1.192093E-07
vn 0.7087086 0.7055014 -1.192093E-07
vn 0.7087086 0.7055014 -1.192093E-07
vn 0 0 1
vn 0 0 1
vn 0 0 1
vn 0 0 1
vn 0 0 1
vn 0 0 1
vn 0 0 1
vn 0 0 1
vn 0 0 1
vn 0 0 1
vn 0 0 1
vn 0 0 1
vn 0 0 1
vn 0 0 0.9999999
vn 0 0 1
vn 0 0 1
vn 0 0 0.9999999
vn 0 0 1
vn 0 0 1
vn 0 0 1
vn 0 0 0.9999999
vn 0 0 1
vn 0 0 1
vn 0 0 1
vn 0 0 1
vn 0 0 1
vn 0 0 1
vn 0 0 1
vn 0 0 1
vn 0 0 1
vn 0 0 1
vn 0 0 0.9999999
vn 0 0 1
vn 0 0 0.9999999
vn 0 0 0.9999999
vn 0 0 1
vn 0 0 0.9999999
vn 0 0 0.9999999
vn -0.9230093 0.3847779 3.42789E-07
vn -0.9902896 0.1390198 3.092419E-07
vn -0.99091 -0.1345269 2.619401E-07
vn -0.9230092 0.3847778 3.23738E-07
vn -0.7985424 -0.6019388 1.531119E-07
vn -0.6055545 -0.795804 7.358348E-08
vn -0.3847778 -0.9230092 7.245398E-09
vn -0.3847779 -0.9230093 0
vn -0.9230092 0.3847779 2.570785E-07
vn 0.7087086 0.7055014 -1.192093E-07
vn 0.7087086 0.7055014 -1.192093E-07
vn 0.7087086 0.7055014 -1.192093E-07
vn 0.7087086 0.7055014 -1.192093E-07
vn 0.7087086 0.7055014 -1.192093E-07
vn 0.7087086 0.7055014 -1.192093E-07
vn 0.7087086 0.7055014 -1.283792E-07
vn 0.7087085 0.7055014 -1.283792E-07
vn 0.6908407 -0.6939813 -0.2028032
vn -5.197844E-07 5.221473E-07 -1
vn -1.529334E-07 -1.522414E-07 -0.9999999
vn -2.443356E-07 -8.576281E-08 -1
vn -1.529335E-07 -1.522414E-07 -1
vn -1.529335E-07 -1.522414E-07 -1
vn -3.048881E-07 1.270996E-07 -1
vn -3.048882E-07 1.270997E-07 -1
vn -3.04888E-07 1.270991E-07 -1
vn -3.048881E-07 1.270999E-07 -1
vn -3.048881E-07 1.271E-07 -1
vn -3.048881E-07 1.270994E-07 -0.9999999
vn -3.048881E-07 1.270971E-07 -1
vn -3.048881E-07 1.271024E-07 -0.9999999
vn -3.054563E-07 -1.23433E-07 -1
vn -2.162806E-07 -2.153019E-07 -1
vn -3.05461E-07 -1.257157E-07 -1
vn -3.054614E-07 -1.257155E-07 -1
vn -3.054622E-07 -1.257151E-07 -1
vn -3.054617E-07 -1.257154E-07 -1
vn -3.054617E-07 -1.257154E-07 -1
vn -3.054616E-07 -1.257155E-07 -1
vn -3.054612E-07 -1.257159E-07 -1
vn -1.449569E-07 -2.869497E-07 -1
vn -1.270998E-07 -3.048883E-07 -1
vn -1.270996E-07 -3.048884E-07 -1
vn -1.270999E-07 -3.048876E-07 -1
vn -1.270993E-07 -3.048894E-07 -1
vn -1.270996E-07 -3.048885E-07 -1
vn -1.270997E-07 -3.048881E-07 -1
vn -8.687013E-08 -2.439442E-07 -1
vn 1.257157E-07 -3.054616E-07 -1
vn 1.257159E-07 -3.054617E-07 -1
vn 1.257162E-07 -3.054618E-07 -1
vn 1.257094E-07 -3.05459E-07 -1
vn 1.257169E-07 -3.054622E-07 -1
vn 1.257164E-07 -3.054619E-07 -1
vn 1.25715E-07 -3.054612E-07 -1
vn 1.257139E-07 -3.054607E-07 -0.9999999
vn -1.529335E-07 -1.522414E-07 -1
vn -1.529335E-07 -1.522414E-07 -1
vn -1.529335E-07 -1.522414E-07 -0.9999999

f 1//1 2//2 3//3
f 4//4 1//1 3//3
f 3//3 5//5 4//4
f 3//3 6//6 5//5
f 5//5 6//6 7//7
f 8//8 7//7 6//6
f 9//9 8//8 6//6
f 10//10 9//9 6//6
f 9//9 10//10 11//11
f 11//11 10//10 12//12
f 13//13 11//11 12//12
f 13//13 12//12 14//14
f 13//13 14//14 15//15
f 15//15 14//14 16//16
f 15//15 16//16 17//17
f 18//18 17//17 16//16
f 19//19 17//17 18//18
f 19//19 18//18 20//20
f 21//21 19//19 20//20
f 22//22 19//19 21//21
f 22//22 21//21 23//23
f 24//24 22//22 23//23
f 24//24 23//23 25//25
f 26//26 24//24 25//25
f 26//26 25//25 27//27
f 28//28 26//26 27//27
f 28//28 27//27 29//29
f 29//29 27//27 30//30
f 31//31 29//29 30//30
f 31//31 30//30 32//32
f 33//33 31//31 32//32
f 33//33 32//32 34//34
f 35//35 33//33 34//34
f 35//35 34//34 36//36
f 37//37 35//35 36//36
f 37//37 36//36 38//38
f 39//39 37//37 38//38
f 39//39 38//38 40//40
f 41//41 39//39 40//40
f 41//41 40//40 42//42
f 41//41 42//42 43//43
f 43//43 42//42 44//44
f 45//45 43//43 44//44
f 45//45 44//44 46//46
f 47//47 45//45 46//46
f 48//48 45//45 47//47
f 48//48 47//47 49//49
f 50//50 48//48 49//49
f 50//50 49//49 51//51
f 52//52 50//50 51//51
f 52//52 51//51 53//53
f 54//54 52//52 53//53
f 55//55 54//54 53//53
f 55//55 53//53 56//56
f 55//55 56//56 57//57
f 57//57 56//56 58//58
f 57//57 58//58 59//59
f 59//59 58//58 60//60
f 59//59 60//60 61//61
f 61//61 60//60 62//62
f 61//61 62//62 63//63
f 63//63 62//62 64//64
f 63//63 64//64 65//65
f 65//65 64//64 66//66
f 65//65 66//66 67//67
f 68//68 67//67 66//66
f 69//69 67//67 68//68
f 69//69 68//68 70//70
f 71//71 69//69 70//70
f 72//72 71//71 73//73
f 74//74 75//75 76//76
f 77//77 74//74 76//76
f 75//75 77//77 76//76
f 78//78 75//75 74//74
f 79//79 75//75 78//78
f 78//78 74//74 80//80
f 81//81 78//78 80//80
f 82//82 78//78 81//81
f 82//82 83//83 78//78
f 83//83 84//84 79//79
f 84//84 85//85 79//79
f 80//80 74//74 86//86
f 87//87 80//80 86//86
f 81//81 80//80 87//87
f 86//86 74//74 88//88
f 88//88 74//74 77//77
f 86//86 88//88 89//89
f 90//90 86//86 89//89
f 87//87 86//86 90//90
f 75//75 91//91 77//77
f 90//90 89//89 92//92
f 90//90 92//92 93//93
f 94//94 90//90 93//93
f 95//95 83//83 82//82
f 95//95 82//82 81//81
f 95//95 81//81 87//87
f 95//95 87//87 90//90
f 95//95 96//96 83//83
f 97//97 91//91 75//75
f 97//97 98//98 91//91
f 97//97 99//99 98//98
f 100//100 95//95 101//101
f 102//102 103//103 104//104
f 102//102 104//104 105//105
f 102//102 105//105 106//106
f 106//106 105//105 107//107
f 108//108 102//102 106//106
f 109//109 102//102 108//108
f 110//110 108//108 106//106
f 111//111 112//112 113//113
f 111//111 113//113 114//114
f 111//111 114//114 115//115
f 111//111 115//115 116//116
f 111//111 116//116 117//117
f 117//117 118//118 111//111
f 118//118 119//119 111//111
f 120//120 111//111 119//119
f 120//120 121//121 111//111
f 121//121 122//122 111//111
f 111//111 122//122 123//123
f 114//114 113//113 124//124
f 124//124 113//113 125//125
f 125//125 113//113 126//126
f 126//126 113//113 127//127
f 127//127 113//113 128//128
f 128//128 113//113 129//129
f 129//129 113//113 130//130
f 130//130 113//113 131//131
f 131//131 113//113 132//132
f 132//132 113//113 133//133
f 133//133 113//113 134//134
f 133//133 134//134 135//135
f 135//135 134//134 136//136
f 134//134 137//137 136//136
f 137//137 134//134 138//138
f 138//138 134//134 139//139
f 139//139 134//134 140//140
f 140//140 134//134 141//141
f 134//134 142//142 141//141
f 134//134 143//143 142//142
f 134//134 144//144 143//143
f 144//144 134//134 145//145
f 145//145 134//134 146//146
f 147//147 134//134 148//148
f 149//149 150//150 151//151
f 149//149 152//152 150//150
f 151//151 150//150 153//153
f 151//151 153//153 154//154
f 154//154 153//153 155//155
f 154//154 155//155 156//156
f 152//152 157//157 150//150
f 158//158 159//159 160//160
f 161//161 159//159 158//158
f 162//162 159//159 161//161
f 163//163 162//162 161//161
f 164//164 162//162 163//163
f 165//165 162//162 164//164
f 9//9 166//166 8//8
f 166//166 9//9 167//167
f 168//168 169//169 170//170
f 168//168 171//171 169//169
f 172//172 169//169 173//173
f 174//174 169//169 172//172
f 169//169 174//174 175//175
f 176//176 169//169 175//175
f 177//177 169//169 176//176
f 178//178 169//169 177//177
f 178//178 179//179 169//169
f 179//179 180//180 169//169
f 180//180 181//181 169//169
f 182//182 181//181 180//180
f 182//182 183//183 181//181
f 183//183 184//184 181//181
f 184//184 185//185 181//181
f 185//185 186//186 181//181
f 186//186 187//187 181//181
f 187//187 188//188 181//181
f 188//188 189//189 181//181
f 181//181 189//189 190//190
f 181//181 190//190 191//191
f 192//192 181//181 191//191
f 193//193 181//181 192//192
f 194//194 181//181 193//193
f 195//195 181//181 194//194
f 195//195 196//196 181//181
f 196//196 197//197 198//198
f 196//196 198//198 199//199
f 199//199 200//200 196//196
f 196//196 200//200 201//201
f 201//201 202//202 196//196
f 196//196 202//202 203//203
f 196//196 203//203 204//204
f 205//205 196//196 206//206
f 207//207 196//196 205//205
