v 40.00007 12.22009 37.72522
v 40.00006 24.97266 24.97265
v 40.00007 12.22009 37.72522
v 40.00007 12.22009 37.72522
v 43.57147 12.22986 37.73498
v 45.00003 12.23376 37.73889
v 45.00003 12.23376 37.73889
v 45.00003 24.98633 24.98632
v 45.00003 37.7389 12.23375
v 45.09532 12.07286 37.57799
v 45.8576 36.29079 10.78564
v 45.10716 12.05287 37.55799
v 45.96417 36.11085 10.60569
v 45.11049 12.04725 37.55238
v 45.99409 36.06033 10.55517
v 45.14785 11.98416 37.48929
v 46.33035 35.49252 9.98737
v 45.60848 11.20633 36.71145
v 46.38153 35.4061 9.900943
v 46.04523 10.46884 35.97396
v 46.09547 10.384 35.88912
v 46.43563 35.31473 9.809574
v 46.20026 10.20704 35.71217
v 46.44728 35.29507 9.789912
v 46.47816 9.737782 35.24291
v 46.47816 35.24292 9.737771
v 46.66652 9.683217 35.18834
v 47.51534 34.94246 9.437304
v 48.17338 34.75183 9.246675
v 46.71326 9.669679 35.1748
v 48.59399 34.62998 9.124826
v 46.72717 9.665649 35.17078
v 48.71916 34.59372 9.088565
v 46.83228 9.635198 35.14032
v 49.66521 34.31965 8.814499
v 48.03825 9.285837 34.79096
v 49.79921 34.28083 8.775681
v 49.03456 8.99721 34.50233
v 49.90991 34.24876 8.74361
v 50.01934 8.711926 34.21705
v 50.01933 34.21707 8.711912
v 50.12826 8.744181 34.24931
v 50.99967 34.50735 9.002193
v 50.37232 8.816444 34.32157
v 53.19619 35.15775 9.652589
v 51.0532 9.018057 34.52318
v 51.3255 9.098684 34.60381
v 53.3021 35.1891 9.683949
v 52.25399 9.373611 34.87874
v 53.40527 35.21965 9.714496
v 53.0185 9.599983 35.10511
v 53.49022 35.2448 9.73965
v 53.54918 9.75712 35.26225
v 53.54918 35.26226 9.757108
v 53.54918 35.26226 9.757108
v 53.63541 9.90594 35.41106
v 54.3252 36.60164 11.09649
v 53.66079 9.949744 35.45487
v 54.55361 36.99587 11.49072
v 53.66338 9.954216 35.45934
v 54.57693 37.03612 11.53096
v 53.66458 9.956289 35.46141
v 54.58775 37.05478 11.54963
v 53.6661 9.95891 35.46404
v 54.60141 37.07837 11.57321
v 53.69426 10.00752 35.51265
v 54.85488 37.51585 12.0107
v 54.99996 12.26111 37.76624
v 54.99996 37.76625 12.2611
v 54.99997 12.26111 37.76624
v 54.99996 37.76625 12.2611
v 54.99997 12.26111 37.76624
v 54.99997 12.26111 37.76624
v 56.42853 12.26502 37.77014
v 59.99993 12.27478 37.77991
v 59.99993 12.27478 37.77991
v 59.99993 12.27478 37.77991
v 54.99997 12.26111 37.76624
v 54.99997 12.26111 37.76624
v 54.99997 12.26111 37.76624
v 54.99996 37.76625 12.2611
v 54.99996 37.76625 12.2611
v 54.99996 37.76625 12.2611
v 54.99997 12.26111 37.76624
v 57.09837 7.266806 32.77193
v 54.99997 12.26111 37.76624
v 54.99996 37.76625 12.2611
v 54.99997 12.26111 37.76624
v 54.99996 25.01368 25.01367
v 54.99996 37.76625 12.2611
v 59.99993 25.02736 25.02734
v 54.99996 37.76624 12.26111
v 54.99996 37.76625 12.2611
v 56.42852 37.77016 12.26501
v 57.09836 32.77195 7.266794
v 54.99996 37.76625 12.2611
v 57.09837 7.266806 32.77193
v 59.99992 37.77992 12.27477
v 57.09836 32.77195 7.266794
v 53.54918 35.26226 9.757108
v 53.54918 35.26226 9.757108
v 40.00006 24.97266 24.97265
v 40.00007 12.22009 37.72522
v 40.00007 12.22009 37.72522
v 43.57147 12.22986 37.73498
v 45.00003 24.98633 24.98632
v 45.00003 12.23376 37.73889
v 42.92897 37.73324 12.22809
v 40.00006 37.72523 12.22008
v 45.00003 37.7389 12.23375
v 40.00007 12.22009 37.72522
v 42.95633 7.22813 32.73325
v 50.03867 5.176414 30.68154
v 46.47816 9.737782 35.24291
v 46.20026 10.20704 35.71217
v 46.09547 10.384 35.88912
v 46.04523 10.46884 35.97396
v 45.60848 11.20633 36.71145
v 45.14785 11.98416 37.48929
v 45.11049 12.04725 37.55238
v 45.10716 12.05287 37.55799
v 45.09532 12.07286 37.57799
v 45.00003 12.23376 37.73889
v 46.66652 9.683217 35.18834
v 46.71326 9.669679 35.1748
v 46.72717 9.665649 35.17078
v 46.83228 9.635198 35.14032
v 48.03825 9.285837 34.79096
v 49.03456 8.99721 34.50233
v 50.01934 8.711926 34.21705
v 50.12826 8.744181 34.24931
v 50.37232 8.816444 34.32157
v 51.0532 9.018057 34.52318
v 57.09837 7.266806 32.77193
v 51.3255 9.098684 34.60381
v 52.25399 9.373611 34.87874
v 53.0185 9.599983 35.10511
v 53.54918 9.75712 35.26225
v 53.63541 9.90594 35.41106
v 53.66079 9.949744 35.45487
v 53.66338 9.954216 35.45934
v 53.66458 9.956289 35.46141
v 53.6661 9.95891 35.46404
v 53.69426 10.00752 35.51265
v 54.99996 12.26111 37.76624
v 54.99997 12.26111 37.76624
v 54.99997 12.26111 37.76624
v 59.99993 12.27478 37.77991
v 40.00007 12.22009 37.72522
v 42.95632 32.73327 7.228121
v 42.95633 7.22813 32.73325
v 40.00006 24.97266 24.97265
v 50.03867 30.68155 5.176405
v 50.03867 5.176414 30.68154
v 57.09836 32.77195 7.266794
v 57.09837 7.266806 32.77193
v 40.00006 37.72523 12.22008
v 59.99993 12.27478 37.77991
v 54.99996 25.01368 25.01367
v 54.99997 12.26111 37.76624
v 59.99993 25.02736 25.02734
v 54.99996 37.76624 12.26111
v 59.99992 37.77992 12.27477
v 56.42852 37.77016 12.26501
v 54.99996 37.76625 12.2611
v 45.00003 37.7389 12.23375
v 42.95632 32.73327 7.228121
v 42.92897 37.73324 12.22809
v 42.95632 32.73327 7.228121
v 40.00006 37.72523 12.22008
v 45.00003 37.7389 12.23375
v 45.8576 36.29079 10.78564
v 45.00003 37.7389 12.23375
v 45.96417 36.11085 10.60569
v 45.99409 36.06033 10.55517
v 46.33035 35.49252 9.98737
v 46.38153 35.4061 9.900943
v 46.43563 35.31473 9.809574
v 46.44728 35.29507 9.789912
v 46.47816 35.24292 9.737771
v 50.03867 30.68155 5.176405
v 47.51534 34.94246 9.437304
v 48.17338 34.75183 9.246675
v 48.59399 34.62998 9.124826
v 48.71916 34.59372 9.088565
v 49.66521 34.31965 8.814499
v 49.79921 34.28083 8.775681
v 49.90991 34.24876 8.74361
v 50.01933 34.21707 8.711912
v 50.99967 34.50735 9.002193
v 53.19619 35.15775 9.652589
v 53.3021 35.1891 9.683949
v 53.40527 35.21965 9.714496
v 53.49022 35.2448 9.73965
v 53.54918 35.26226 9.757108
v 57.09836 32.77195 7.266794
v 53.54918 35.26226 9.757108
v 54.3252 36.60164 11.09649
v 54.55361 36.99587 11.49072
v 54.57693 37.03612 11.53096
v 54.58775 37.05478 11.54963
v 54.60141 37.07837 11.57321
v 54.85488 37.51585 12.0107
v 54.99996 37.76625 12.2611
v 56.42852 37.77016 12.26501
v 54.99996 37.76625 12.2611
v 59.99992 37.77992 12.27477

vn -0.9999925 -0.002735056 -0.0027343
vn -0.9999925 -0.002734947 -0.002734408
vn -0.7592509 -0.4622554 0.4581026
vn 1.164153E-10 -0.7071069 0.7071067
vn 1.164153E-10 -0.7071069 0.7071067
vn 0.9223908 0.2731257 0.2731257
vn 0.9899423 -0.09729254 0.1027069
vn 0.2338996 0.6874922 0.6874921
vn 0.9223925 0.2731229 0.2731225
vn 0.9223929 0.2731223 0.273122
vn 0.9223927 0.2731226 0.2731222
vn 0.9223924 0.2731233 0.2731228
vn 0.9223919 0.273124 0.2731234
vn 0.9223942 0.2731199 0.2731201
vn 0.9223931 0.2731219 0.2731217
vn 0.9223928 0.2731223 0.273122
vn 0.922393 0.2731222 0.273122
vn 0.922393 0.2731221 0.2731219
vn 0.9223928 0.2731223 0.273122
vn 0.922393 0.2731221 0.2731218
vn 0.9223925 0.2731228 0.2731226
vn 0.9223919 0.2731239 0.2731236
vn 0.9223927 0.2731224 0.2731222
vn 0.9223931 0.2731218 0.2731217
vn 0.8535806 0.3683751 0.368375
vn 0.4166369 0.6428117 0.6428116
vn 0.3791055 0.6543238 0.6543236
vn 0.3791063 0.6543235 0.6543234
vn 0.3791066 0.6543235 0.6543233
vn 0.3791085 0.6543229 0.654323
vn 0.3791097 0.6543224 0.6543226
vn 0.3791113 0.6543217 0.6543223
vn 0.3791087 0.6543227 0.6543229
vn 0.3791075 0.6543231 0.654323
vn 0.3791071 0.6543234 0.6543232
vn 0.3791069 0.6543234 0.6543232
vn 0.379108 0.654323 0.6543229
vn 0.3791074 0.6543233 0.6543231
vn 0.3791063 0.6543236 0.6543234
vn 0.3173795 0.6705485 0.6705483
vn -0.3245546 0.668829 0.6688291
vn -0.3862521 0.6522304 0.6522306
vn -0.3862531 0.6522302 0.6522303
vn -0.3862538 0.6522301 0.6522301
vn -0.3862538 0.65223 0.65223
vn -0.3862534 0.6522301 0.6522301
vn -0.3862529 0.6522301 0.6522304
vn -0.3862533 0.6522301 0.6522303
vn -0.386253 0.6522303 0.6522304
vn -0.3862532 0.6522301 0.6522303
vn -0.3862533 0.6522301 0.6522303
vn -0.3862528 0.6522302 0.6522304
vn -0.5604507 0.5856171 0.5856174
vn -0.3862314 0.6522366 0.6522368
vn -0.9253524 0.2680697 0.26807
vn -0.9253528 0.2680689 0.2680691
vn -0.9253531 0.2680686 0.2680688
vn -0.9253535 0.2680679 0.2680679
vn -0.9253528 0.2680691 0.2680694
vn -0.9253522 0.26807 0.2680707
vn -0.9253511 0.2680716 0.2680727
vn -0.9253339 0.2680972 0.2681063
vn -0.9253448 0.2680812 0.2680852
vn -0.9253556 0.2680649 0.2680641
vn -0.925354 0.2680673 0.2680671
vn -0.9253528 0.2680689 0.2680692
vn -0.9253526 0.2680693 0.2680696
vn -0.9253525 0.2680695 0.2680698
vn -0.9253507 0.2680728 0.2680731
vn -0.84877 0.3738913 0.3738915
vn -0.9999925 -0.002734813 -0.002734543
vn -0.9999925 -0.002734813 -0.002734543
vn -0.9999925 -0.002734813 -0.002734543
vn 1.164153E-10 -0.7071069 0.7071067
vn 0.9253528 -0.268069 -0.2680695
vn 1.164153E-10 -0.7071069 0.7071067
vn 0.1261248 0.7014601 0.7014601
vn -0.649459 -0.5394548 0.5359025
vn -0.5633441 -0.5857661 0.5826848
vn -0.9974654 -0.05296715 0.0475116
vn -0.9999925 -0.002734813 -0.002734543
vn -0.9999925 -0.002734813 -0.002734543
vn -0.9999925 -0.002734813 -0.002734543
vn -0.9946736 -0.07555417 0.07011388
vn 1.164153E-10 -0.7071069 0.7071067
vn -0.9999124 -0.01168475 0.006223952
vn -0.9999925 -0.002734813 -0.002734543
vn -0.9899421 -0.1027073 0.0972929
vn -0.9999925 -0.0027395 -0.002739231
vn -0.9981884 0.03972166 -0.04519
vn 0.9253527 -0.268069 -0.2680694
vn -0.9999924 -0.002751533 -0.002751264
vn -6.94282E-06 0.7071069 -0.7071067
vn -1.164153E-10 0.7071069 -0.7071067
vn 1.552699E-09 0.7071066 -0.707107
vn 0 0 0
vn 0.9253528 -0.2680691 -0.2680695
vn 0.9253528 -0.2680691 -0.2680694
vn 0.9253528 -0.2680691 -0.2680695
vn 1.552699E-09 0.7071066 -0.707107
vn 1.552699E-09 0.7071066 -0.707107
vn -0.003867419 0.7071015 0.7071015
vn -0.003867418 0.7071015 0.7071015
vn -0.003867419 0.7071015 0.7071015
vn -0.003867419 0.7071015 0.7071015
vn -0.003867419 0.7071015 0.7071015
vn -0.003867419 0.7071015 0.7071015
vn -0.003867419 0.7071015 0.7071015
vn -0.003867419 0.7071015 0.7071015
vn -0.003867419 0.7071015 0.7071015
vn 1.164153E-10 -0.7071069 0.7071067
vn 1.164153E-10 -0.7071069 0.7071067
vn 1.164153E-10 -0.7071069 0.7071067
vn 1.164153E-10 -0.7071069 0.7071067
vn 1.164153E-10 -0.7071069 0.7071067
vn 1.164153E-10 -0.7071069 0.7071067
vn 1.164153E-10 -0.7071069 0.7071067
vn 1.164153E-10 -0.7071069 0.7071067
vn 1.164153E-10 -0.7071069 0.7071067
vn 1.164153E-10 -0.7071069 0.7071067
vn 1.164153E-10 -0.7071069 0.7071067
vn 1.164153E-10 -0.7071069 0.7071067
vn 1.164153E-10 -0.7071069 0.7071067
vn 1.164153E-10 -0.7071069 0.7071066
vn 1.164153E-10 -0.7071069 0.7071067
vn 1.164153E-10 -0.7071069 0.7071067
vn 1.164153E-10 -0.7071069 0.7071066
vn 1.164153E-10 -0.7071069 0.7071067
vn 1.164153E-10 -0.7071069 0.7071067
vn 1.164153E-10 -0.7071069 0.7071067
vn 1.164153E-10 -0.7071069 0.7071066
vn 1.164153E-10 -0.7071069 0.7071067
vn 1.164153E-10 -0.7071069 0.7071067
vn 1.164153E-10 -0.7071069 0.7071067
vn 1.164153E-10 -0.7071069 0.7071067
vn 1.164153E-10 -0.7071069 0.7071067
vn 1.164153E-10 -0.7071069 0.7071067
vn 1.164153E-10 -0.7071069 0.7071067
vn 1.164153E-10 -0.7071069 0.7071067
vn 1.164153E-10 -0.7071069 0.7071067
vn 1.164153E-10 -0.7071069 0.7071067
vn 1.164153E-10 -0.7071069 0.7071066
vn 1.164153E-10 -0.7071069 0.7071067
vn 1.164153E-10 -0.7071069 0.7071066
vn 1.164153E-10 -0.7071069 0.7071066
vn 1.164153E-10 -0.7071069 0.7071067
vn 1.164153E-10 -0.7071069 0.7071066
vn 1.164153E-10 -0.7071069 0.7071066
vn -0.9223928 -0.2731226 -0.2731223
vn -0.7948343 -0.4290913 -0.429091
vn -0.6006604 -0.565335 -0.5653348
vn -0.9223926 -0.2731226 -0.2731222
vn -0.1329415 -0.7008305 -0.7008305
vn 0.1406036 -0.7000824 -0.7000825
vn 0.3862534 -0.65223 -0.6522302
vn 0.3862534 -0.6522301 -0.6522303
vn -0.9223927 -0.2731225 -0.2731222
vn -0.003867419 0.7071015 0.7071015
vn -0.003867419 0.7071015 0.7071015
vn -0.003867419 0.7071015 0.7071015
vn -0.003867419 0.7071015 0.7071015
vn -0.003867419 0.7071015 0.7071015
vn -0.003867419 0.7071015 0.7071015
vn -0.003867419 0.7071015 0.7071015
vn -0.003867418 0.7071015 0.7071015
vn 0.9792122 0.1460814 -0.1407257
vn -7.368697E-07 0.7071069 -0.7071067
vn 7.181415E-10 0.7071067 -0.7071068
vn -1.108101E-07 0.7071068 -0.7071068
vn 7.181416E-10 0.7071068 -0.7071068
vn 7.181416E-10 0.7071068 -0.7071068
vn -3.048008E-07 0.7071068 -0.7071068
vn -3.048009E-07 0.7071068 -0.7071068
vn -3.048003E-07 0.7071068 -0.7071068
vn -3.048011E-07 0.7071068 -0.7071068
vn -3.048011E-07 0.7071068 -0.7071068
vn -3.048007E-07 0.7071068 -0.7071067
vn -3.04799E-07 0.7071068 -0.7071068
vn -3.048028E-07 0.7071068 -0.7071067
vn -1.269633E-07 0.7071067 -0.7071069
vn 1.063827E-09 0.7071067 -0.7071069
vn -1.253425E-07 0.7071067 -0.7071069
vn -1.253431E-07 0.7071067 -0.7071069
vn -1.253438E-07 0.7071067 -0.7071069
vn -1.253433E-07 0.7071067 -0.7071069
vn -1.253433E-07 0.7071067 -0.7071069
vn -1.253432E-07 0.7071067 -0.7071069
vn -1.253426E-07 0.7071067 -0.7071069
vn 1.021594E-07 0.7071067 -0.7071069
vn 1.274707E-07 0.7071067 -0.7071069
vn 1.274709E-07 0.7071067 -0.7071069
vn 1.274702E-07 0.7071067 -0.7071069
vn 1.274718E-07 0.7071067 -0.7071069
vn 1.274711E-07 0.7071067 -0.7071069
vn 1.274707E-07 0.7071067 -0.7071069
vn 1.123848E-07 0.7071068 -0.7071068
vn 3.05546E-07 0.7071068 -0.7071068
vn 3.055462E-07 0.7071068 -0.7071068
vn 3.055465E-07 0.7071068 -0.7071068
vn 3.055398E-07 0.7071068 -0.7071068
vn 3.055472E-07 0.7071068 -0.7071068
vn 3.055467E-07 0.7071068 -0.7071068
vn 3.055453E-07 0.7071068 -0.7071068
vn 3.055441E-07 0.7071068 -0.7071067
vn 7.18145E-10 0.7071068 -0.7071068
vn 7.181538E-10 0.7071068 -0.7071068
vn 7.181416E-10 0.7071067 -0.7071068

f 1//1 2//2 3//3
f 4//4 1//1 3//3
f 3//3 5//5 4//4
f 3//3 6//6 5//5
f 5//5 6//6 7//7
f 8//8 7//7 6//6
f 9//9 8//8 6//6
f 10//10 9//9 6//6
f 9//9 10//10 11//11
f 11//11 10//10 12//12
f 13//13 11//11 12//12
f 13//13 12//12 14//14
f 13//13 14//14 15//15
f 15//15 14//14 16//16
f 15//15 16//16 17//17
f 18//18 17//17 16//16
f 19//19 17//17 18//18
f 19//19 18//18 20//20
f 21//21 19//19 20//20
f 22//22 19//19 21//21
f 22//22 21//21 23//23
f 24//24 22//22 23//23
f 24//24 23//23 25//25
f 26//26 24//24 25//25
f 26//26 25//25 27//27
f 28//28 26//26 27//27
f 28//28 27//27 29//29
f 29//29 27//27 30//30
f 31//31 29//29 30//30
f 31//31 30//30 32//32
f 33//33 31//31 32//32
f 33//33 32//32 34//34
f 35//35 33//33 34//34
f 35//35 34//34 36//36
f 37//37 35//35 36//36
f 37//37 36//36 38//38
f 39//39 37//37 38//38
f 39//39 38//38 40//40
f 41//41 39//39 40//40
f 41//41 40//40 42//42
f 41//41 42//42 43//43
f 43//43 42//42 44//44
f 45//45 43//43 44//44
f 45//45 44//44 46//46
f 47//47 45//45 46//46
f 48//48 45//45 47//47
f 48//48 47//47 49//49
f 50//50 48//48 49//49
f 50//50 49//49 51//51
f 52//52 50//50 51//51
f 52//52 51//51 53//53
f 54//54 52//52 53//53
f 55//55 54//54 53//53
f 55//55 53//53 56//56
f 55//55 56//56 57//57
f 57//57 56//56 58//58
f 57//57 58//58 59//59
f 59//59 58//58 60//60
f 59//59 60//60 61//61
f 61//61 60//60 62//62
f 61//61 62//62 63//63
f 63//63 62//62 64//64
f 63//63 64//64 65//65
f 65//65 64//64 66//66
f 65//65 66//66 67//67
f 68//68 67//67 66//66
f 69//69 67//67 68//68
f 69//69 68//68 70//70
f 71//71 69//69 70//70
f 72//72 71//71 73//73
f 74//74 75//75 76//76
f 77//77 74//74 76//76
f 75//75 77//77 76//76
f 78//78 75//75 74//74
f 79//79 75//75 78//78
f 78//78 74//74 80//80
f 81//81 78//78 80//80
f 82//82 78//78 81//81
f 82//82 83//83 78//78
f 83//83 84//84 79//79
f 84//84 85//85 79//79
f 80//80 74//74 86//86
f 87//87 80//80 86//86
f 81//81 80//80 87//87
f 86//86 74//74 88//88
f 88//88 74//74 77//77
f 86//86 88//88 89//89
f 90//90 86//86 89//89
f 87//87 86//86 90//90
f 75//75 91//91 77//77
f 90//90 89//89 92//92
f 90//90 92//92 93//93
f 94//94 90//90 93//93
f 95//95 83//83 82//82
f 95//95 82//82 81//81
f 95//95 81//81 87//87
f 95//95 87//87 90//90
f 95//95 96//96 83//83
f 97//97 91//91 75//75
f 97//97 98//98 91//91
f 97//97 99//99 98//98
f 100//100 95//95 101//101
f 102//102 103//103 104//104
f 102//102 104//104 105//105
f 102//102 105//105 106//106
f 106//106 105//105 107//107
f 108//108 102//102 106//106
f 109//109 102//102 108//108
f 110//110 108//108 106//106
f 111//111 112//112 113//113
f 111//111 113//113 114//114
f 111//111 114//114 115//115
f 111//111 115//115 116//116
f 111//111 116//116 117//117
f 117//117 118//118 111//111
f 118//118 119//119 111//111
f 120//120 111//111 119//119
f 120//120 121//121 111//111
f 121//121 122//122 111//111
f 111//111 122//122 123//123
f 114//114 113//113 124//124
f 124//124 113//113 125//125
f 125//125 113//113 126//126
f 126//126 113//113 127//127
f 127//127 113//113 128//128
f 128//128 113//113 129//129
f 129//129 113//113 130//130
f 130//130 113//113 131//131
f 131//131 113//113 132//132
f 132//132 113//113 133//133
f 133//133 113//113 134//134
f 133//133 134//134 135//135
f 135//135 134//134 136//136
f 134//134 137//137 136//136
f 137//137 134//134 138//138
f 138//138 134//134 139//139
f 139//139 134//134 140//140
f 140//140 134//134 141//141
f 134//134 142//142 141//141
f 134//134 143//143 142//142
f 134//134 144//144 143//143
f 144//144 134//134 145//145
f 145//145 134//134 146//146
f 147//147 134//134 148//148
f 149//149 150//150 151//151
f 149//149 152//152 150//150
f 151//151 150//150 153//153
f 151//151 153//153 154//154
f 154//154 153//153 155//155
f 154//154 155//155 156//156
f 152//152 157//157 150//150
f 158//158 159//159 160//160
f 161//161 159//159 158//158
f 162//162 159//159 161//161
f 163//163 162//162 161//161
f 164//164 162//162 163//163
f 165//165 162//162 164//164
f 9//9 166//166 8//8
f 166//166 9//9 167//167
f 168//168 169//169 170//170
f 168//168 171//171 169//169
f 172//172 169//169 173//173
f 174//174 169//169 172//172
f 169//169 174//174 175//175
f 176//176 169//169 175//175
f 177//177 169//169 176//176
f 178//178 169//169 177//177
f 178//178 179//179 169//169
f 179//179 180//180 169//169
f 180//180 181//181 169//169
f 182//182 181//181 180//180
f 182//182 183//183 181//181
f 183//183 184//184 181//181
f 184//184 185//185 181//181
f 185//185 186//186 181//181
f 186//186 187//187 181//181
f 187//187 188//188 181//181
f 188//188 189//189 181//181
f 181//181 189//189 190//190
f 181//181 190//190 191//191
f 192//192 181//181 191//191
f 193//193 181//181 192//192
f 194//194 181//181 193//193
f 195//195 181//181 194//194
f 195//195 196//196 181//181
f 196//196 197//197 198//198
f 196//196 198//198 199//199
f 199//199 200//200 196//196
f 196//196 200//200 201//201
f 201//201 202//202 196//196
f 196//196 202//202 203//203
f 196//196 203//203 204//204
f 205//205 196//196 206//206
f 207//207 196//196 205//205
