v 59.03447 -447.2168 -370.0089
v 42.72852 -486.6278 -324.6357
v 59.03447 -447.2168 -370.0089
v 59.03446 -447.2168 -370.0089
v 55.79337 -445.7225 -369.8757
v 54.49693 -445.1248 -369.8225
v 54.49693 -445.1248 -369.8225
v 38.19099 -484.5359 -324.4493
v 21.88504 -523.947 -279.0762
v 54.3364 -445.2338 -369.9749
v 20.44029 -524.9278 -280.4473
v 54.31645 -445.2474 -369.9938
v 20.26076 -525.0497 -280.6177
v 54.31085 -445.2512 -369.9991
v 20.21036 -525.0839 -280.6656
v 54.24791 -445.2939 -370.0588
v 19.64387 -525.4685 -281.2032
v 53.47187 -445.8208 -370.7953
v 19.55765 -525.527 -281.285
v 52.7361 -446.3203 -371.4937
v 52.65145 -446.3777 -371.574
v 19.46649 -525.5889 -281.3715
v 52.47491 -446.4976 -371.7415
v 19.44687 -525.6022 -281.3901
v 52.00674 -446.8155 -372.1859
v 19.39485 -525.6376 -281.4395
v 51.81049 -446.7875 -372.2321
v 18.31422 -525.4838 -281.6943
v 17.62862 -525.3862 -281.8559
v 51.7618 -446.7806 -372.2436
v 17.1904 -525.3238 -281.9592
v 51.74731 -446.7785 -372.247
v 17.05998 -525.3052 -281.99
v 51.63779 -446.7629 -372.2729
v 16.0743 -525.1649 -282.2223
v 50.38131 -446.5841 -372.5691
v 15.93469 -525.145 -282.2552
v 49.34326 -446.4363 -372.8138
v 15.81935 -525.1287 -282.2824
v 48.31723 -446.2903 -373.0556
v 15.70535 -525.1124 -282.3093
v 48.23307 -446.2152 -373.0207
v 14.94783 -524.4366 -281.9945
v 48.04448 -446.047 -372.9423
v 13.25056 -522.9225 -281.2893
v 47.51836 -445.5776 -372.7237
v 47.30795 -445.3899 -372.6363
v 13.16872 -522.8495 -281.2553
v 46.5905 -444.7499 -372.3382
v 13.089 -522.7783 -281.2222
v 45.99975 -444.2229 -372.0927
v 13.02337 -522.7198 -281.1949
v 45.58968 -443.8571 -371.9223
v 12.9778 -522.6791 -281.176
v 12.9778 -522.6791 -281.176
v 45.57971 -443.6837 -371.7754
v 12.88803 -521.1194 -279.8534
v 45.57677 -443.6327 -371.7321
v 12.8616 -520.6603 -279.4641
v 45.57648 -443.6275 -371.7277
v 12.85891 -520.6134 -279.4244
v 45.57634 -443.6251 -371.7256
v 12.85765 -520.5917 -279.406
v 45.57616 -443.6221 -371.7231
v 12.85608 -520.5642 -279.3827
v 45.5729 -443.5655 -371.6751
v 12.82675 -520.0547 -278.9507
v 45.42185 -440.941 -369.4498
v 12.80997 -519.7631 -278.7035
v 45.42185 -440.941 -369.4498
v 12.80997 -519.7631 -278.7035
v 45.42185 -440.941 -369.4498
v 45.42185 -440.941 -369.4498
v 44.12541 -440.3434 -369.3965
v 40.88432 -438.8491 -369.2635
v 40.88432 -438.8491 -369.2635
v 40.88432 -438.8491 -369.2635
v 45.42185 -440.941 -369.4498
v 45.42185 -440.941 -369.4498
v 45.42185 -440.941 -369.4498
v 12.80997 -519.7631 -278.7035
v 12.80997 -519.7631 -278.7035
v 12.80997 -519.7631 -278.7035
v 45.42185 -440.941 -369.4498
v 41.21998 -444.6812 -374.2085
v 45.42185 -440.941 -369.4498
v 12.80997 -519.7631 -278.7035
v 45.42185 -440.941 -369.4498
v 29.11591 -480.3521 -324.0766
v 12.80997 -519.7631 -278.7035
v 24.57837 -478.2602 -323.8903
v 12.80998 -519.7631 -278.7035
v 12.80997 -519.7631 -278.7035
v 11.51353 -519.1655 -278.6502
v 8.608101 -523.5032 -283.4622
v 12.80997 -519.7631 -278.7035
v 41.21998 -444.6812 -374.2085
v 8.272432 -517.6712 -278.5171
v 8.608101 -523.5032 -283.4622
v 12.9778 -522.6791 -281.176
v 12.9778 -522.6791 -281.176
v 42.72852 -486.6278 -324.6357
v 59.03447 -447.2168 -370.0089
v 59.03446 -447.2168 -370.0089
v 55.79337 -445.7225 -369.8757
v 38.19099 -484.5359 -324.4493
v 54.49693 -445.1248 -369.8225
v 23.76456 -524.8134 -279.1534
v 26.42258 -526.0388 -279.2625
v 21.88504 -523.947 -279.0762
v 59.03447 -447.2168 -370.0089
v 54.05408 -450.598 -374.7356
v 46.67508 -449.5477 -376.4751
v 52.00674 -446.8155 -372.1859
v 52.47491 -446.4976 -371.7415
v 52.65145 -446.3777 -371.574
v 52.7361 -446.3203 -371.4937
v 53.47187 -445.8208 -370.7953
v 54.24791 -445.2939 -370.0588
v 54.31085 -445.2512 -369.9991
v 54.31645 -445.2474 -369.9938
v 54.3364 -445.2338 -369.9749
v 54.49693 -445.1248 -369.8225
v 51.81049 -446.7875 -372.2321
v 51.7618 -446.7806 -372.2436
v 51.74731 -446.7785 -372.247
v 51.63779 -446.7629 -372.2729
v 50.38131 -446.5841 -372.5691
v 49.34326 -446.4363 -372.8138
v 48.31723 -446.2903 -373.0556
v 48.23307 -446.2152 -373.0207
v 48.04448 -446.047 -372.9423
v 47.51836 -445.5776 -372.7237
v 41.21998 -444.6812 -374.2085
v 47.30795 -445.3899 -372.6363
v 46.5905 -444.7499 -372.3382
v 45.99975 -444.2229 -372.0927
v 45.58968 -443.8571 -371.9223
v 45.57971 -443.6837 -371.7754
v 45.57677 -443.6327 -371.7321
v 45.57648 -443.6275 -371.7277
v 45.57634 -443.6251 -371.7256
v 45.57616 -443.6221 -371.7231
v 45.5729 -443.5655 -371.6751
v 45.42185 -440.941 -369.4498
v 45.42185 -440.941 -369.4498
v 45.42185 -440.941 -369.4498
v 40.88432 -438.8491 -369.2635
v 59.03447 -447.2168 -370.0089
v 21.4422 -529.42 -283.9893
v 54.05408 -450.598 -374.7356
v 42.72852 -486.6278 -324.6357
v 14.0632 -528.3698 -285.7288
v 46.67508 -449.5477 -376.4751
v 8.608101 -523.5032 -283.4622
v 41.21998 -444.6812 -374.2085
v 26.42258 -526.0388 -279.2625
v 40.88432 -438.8491 -369.2635
v 29.11591 -480.3521 -324.0766
v 45.42185 -440.941 -369.4498
v 24.57837 -478.2602 -323.8903
v 12.80998 -519.7631 -278.7035
v 8.272432 -517.6712 -278.5171
v 11.51353 -519.1655 -278.6502
v 12.80997 -519.7631 -278.7035
v 21.88504 -523.947 -279.0762
v 21.4422 -529.42 -283.9893
v 23.76456 -524.8134 -279.1534
v 21.4422 -529.42 -283.9893
v 26.42258 -526.0388 -279.2625
v 21.88504 -523.947 -279.0762
v 20.44029 -524.9278 -280.4473
v 21.88504 -523.947 -279.0762
v 20.26076 -525.0497 -280.6177
v 20.21036 -525.0839 -280.6656
v 19.64387 -525.4685 -281.2032
v 19.55765 -525.527 -281.285
v 19.46649 -525.5889 -281.3715
v 19.44687 -525.6022 -281.3901
v 19.39485 -525.6376 -281.4395
v 14.0632 -528.3698 -285.7288
v 18.31422 -525.4838 -281.6943
v 17.62862 -525.3862 -281.8559
v 17.1904 -525.3238 -281.9592
v 17.05998 -525.3052 -281.99
v 16.0743 -525.1649 -282.2223
v 15.93469 -525.145 -282.2552
v 15.81935 -525.1287 -282.2824
v 15.70535 -525.1124 -282.3093
v 14.94783 -524.4366 -281.9945
v 13.25056 -522.9225 -281.2893
v 13.16872 -522.8495 -281.2553
v 13.089 -522.7783 -281.2222
v 13.02337 -522.7198 -281.1949
v 12.9778 -522.6791 -281.176
v 8.608101 -523.5032 -283.4622
v 12.9778 -522.6791 -281.176
v 12.88803 -521.1194 -279.8534
v 12.8616 -520.6603 -279.4641
v 12.85891 -520.6134 -279.4244
v 12.85765 -520.5917 -279.406
v 12.85608 -520.5642 -279.3827
v 12.82675 -520.0547 -278.9507
v 12.80997 -519.7631 -278.7035
v 11.51353 -519.1655 -278.6502
v 12.80997 -519.7631 -278.7035
v 8.272432 -517.6712 -278.5171

vn 0.907507 -0.4183808 -0.03727093
vn 0.9075069 -0.4183809 -0.03727082
vn 0.8594397 0.09421589 -0.5024811
vn 0.2618491 0.6328826 -0.7286255
vn 0.2618491 0.6328826 -0.7286255
vn -0.7127388 0.6358438 0.2961529
vn -0.8613551 0.5036791 -0.06614696
vn 0.1033447 0.7322389 0.6731611
vn -0.7127418 0.6358415 0.2961503
vn -0.7127424 0.6358413 0.2961497
vn -0.7127421 0.6358413 0.29615
vn -0.7127416 0.6358417 0.2961507
vn -0.7127408 0.6358421 0.2961513
vn -0.7127445 0.63584 0.2961473
vn -0.7127427 0.635841 0.2961493
vn -0.7127424 0.6358412 0.2961496
vn -0.7127426 0.6358413 0.2961496
vn -0.7127426 0.6358411 0.2961495
vn -0.7127424 0.6358413 0.2961497
vn -0.7127426 0.6358411 0.2961495
vn -0.7127419 0.6358416 0.2961502
vn -0.7127408 0.6358423 0.2961512
vn -0.7127421 0.6358413 0.2961497
vn -0.7127428 0.635841 0.2961492
vn -0.6064387 0.695201 0.3859122
vn -0.08325237 0.7669647 0.6362658
vn -0.04385519 0.7619896 0.6461027
vn -0.04385597 0.7619897 0.6461025
vn -0.04385628 0.7619897 0.6461024
vn -0.04385826 0.7619902 0.6461019
vn -0.04385949 0.7619904 0.6461015
vn -0.04386105 0.7619907 0.6461009
vn -0.0438584 0.7619902 0.6461018
vn -0.0438573 0.7619898 0.6461021
vn -0.04385677 0.7619898 0.6461024
vn -0.04385669 0.7619897 0.6461024
vn -0.04385777 0.7619899 0.646102
vn -0.04385714 0.7619899 0.6461022
vn -0.04385599 0.7619897 0.6461025
vn 0.01969492 0.7513054 0.6596608
vn 0.6022754 0.4827638 0.6357702
vn 0.6507173 0.4417759 0.6175769
vn 0.6507181 0.4417752 0.6175767
vn 0.6507186 0.4417748 0.6175765
vn 0.6507186 0.4417748 0.6175764
vn 0.6507182 0.441775 0.6175765
vn 0.6507179 0.4417755 0.6175766
vn 0.6507182 0.4417752 0.6175765
vn 0.650718 0.4417754 0.6175767
vn 0.6507182 0.4417752 0.6175765
vn 0.6507182 0.4417752 0.6175765
vn 0.6507179 0.4417755 0.6175766
vn 0.7784147 0.3078099 0.5471052
vn 0.6507013 0.4417903 0.6175835
vn 0.9641121 -0.1372254 0.2272831
vn 0.964112 -0.1372264 0.2272823
vn 0.9641122 -0.1372267 0.2272821
vn 0.9641121 -0.1372277 0.2272813
vn 0.9641122 -0.137226 0.2272825
vn 0.9641122 -0.1372246 0.2272834
vn 0.964112 -0.1372223 0.2272849
vn 0.9641116 -0.1371843 0.2273101
vn 0.9641119 -0.1372082 0.2272944
vn 0.9641123 -0.1372321 0.2272784
vn 0.9641122 -0.1372287 0.2272808
vn 0.9641121 -0.1372263 0.2272823
vn 0.9641121 -0.1372258 0.2272827
vn 0.9641121 -0.1372256 0.2272829
vn 0.9641119 -0.1372218 0.2272862
vn 0.9431418 -0.007640874 0.3323039
vn 0.9075069 -0.418381 -0.03727068
vn 0.9075069 -0.418381 -0.03727068
vn 0.9075069 -0.418381 -0.03727068
vn 0.2618491 0.6328826 -0.7286255
vn -0.9641122 0.137226 -0.2272824
vn 0.2618491 0.6328826 -0.7286255
vn 0.2077056 0.7003208 0.6829417
vn 0.788501 0.2095157 -0.5782472
vn 0.7275873 0.2872056 -0.6230009
vn 0.9238176 -0.372358 -0.08894461
vn 0.9075069 -0.418381 -0.03727068
vn 0.9075069 -0.418381 -0.03727068
vn 0.9075069 -0.418381 -0.03727068
vn 0.9296511 -0.350967 -0.1121228
vn 0.2618491 0.6328826 -0.7286255
vn 0.9107519 -0.4103294 -0.04649047
vn 0.9075069 -0.418381 -0.03727068
vn 0.935417 -0.3246729 -0.1399393
vn 0.9075047 -0.4183853 -0.03727521
vn 0.8901457 -0.4556297 0.006540261
vn -0.9641121 0.137226 -0.2272824
vn 0.9074991 -0.4183964 -0.03728685
vn -0.2618428 -0.6328855 0.7286252
vn -0.2618491 -0.6328826 0.7286255
vn -0.2618493 -0.6328829 0.7286252
vn 0 0 0
vn -0.9641122 0.137226 -0.2272825
vn -0.9641122 0.137226 -0.2272825
vn -0.9641122 0.137226 -0.2272825
vn -0.2618493 -0.6328829 0.7286252
vn -0.2618493 -0.6328829 0.7286252
vn 0.3284309 0.6514729 0.6838979
vn 0.3284309 0.6514728 0.6838979
vn 0.3284309 0.6514729 0.6838979
vn 0.3284309 0.6514729 0.6838979
vn 0.3284309 0.6514729 0.6838979
vn 0.3284309 0.6514729 0.6838979
vn 0.3284309 0.6514729 0.6838979
vn 0.3284309 0.6514729 0.6838979
vn 0.3284309 0.6514729 0.6838979
vn 0.2618491 0.6328826 -0.7286255
vn 0.2618491 0.6328826 -0.7286255
vn 0.2618491 0.6328826 -0.7286255
vn 0.2618491 0.6328826 -0.7286255
vn 0.2618491 0.6328826 -0.7286255
vn 0.2618491 0.6328826 -0.7286255
vn 0.2618491 0.6328826 -0.7286255
vn 0.2618491 0.6328826 -0.7286255
vn 0.2618491 0.6328826 -0.7286255
vn 0.2618491 0.6328826 -0.7286255
vn 0.2618491 0.6328826 -0.7286255
vn 0.2618491 0.6328826 -0.7286255
vn 0.2618491 0.6328826 -0.7286255
vn 0.2618491 0.6328825 -0.7286255
vn 0.2618491 0.6328826 -0.7286255
vn 0.2618491 0.6328826 -0.7286255
vn 0.2618491 0.6328825 -0.7286255
vn 0.2618491 0.6328826 -0.7286255
vn 0.2618491 0.6328826 -0.7286255
vn 0.2618491 0.6328826 -0.7286255
vn 0.2618491 0.6328825 -0.7286255
vn 0.2618491 0.6328826 -0.7286255
vn 0.2618491 0.6328826 -0.7286255
vn 0.2618491 0.6328826 -0.7286255
vn 0.2618491 0.6328826 -0.7286255
vn 0.2618491 0.6328826 -0.7286255
vn 0.2618491 0.6328826 -0.7286255
vn 0.2618491 0.6328826 -0.7286255
vn 0.2618491 0.6328826 -0.7286255
vn 0.2618491 0.6328826 -0.7286255
vn 0.2618491 0.6328826 -0.7286255
vn 0.2618491 0.6328825 -0.7286255
vn 0.2618491 0.6328826 -0.7286255
vn 0.2618491 0.6328825 -0.7286255
vn 0.2618491 0.6328825 -0.7286255
vn 0.2618491 0.6328826 -0.7286255
vn 0.2618491 0.6328825 -0.7286255
vn 0.2618491 0.6328825 -0.7286255
vn 0.7127422 -0.6358414 -0.29615
vn 0.5251526 -0.7268484 -0.4426134
vn 0.2860885 -0.7719346 -0.5676886
vn 0.712742 -0.6358413 -0.29615
vn -0.2012215 -0.702574 -0.6825686
vn -0.4494674 -0.5881271 -0.6723732
vn -0.6507183 -0.4417751 -0.6175764
vn -0.6507183 -0.4417751 -0.6175765
vn 0.7127421 -0.6358414 -0.2961499
vn 0.3284309 0.6514729 0.6838979
vn 0.3284309 0.6514729 0.6838979
vn 0.3284309 0.6514729 0.6838979
vn 0.3284309 0.6514729 0.6838979
vn 0.3284309 0.6514729 0.6838979
vn 0.3284309 0.6514729 0.6838979
vn 0.3284309 0.6514729 0.683898
vn 0.3284309 0.6514728 0.6838979
vn -0.9417523 0.2813363 0.1842636
vn -0.2618485 -0.6328829 0.7286255
vn -0.2618492 -0.6328827 0.7286253
vn -0.2618491 -0.6328828 0.7286254
vn -0.2618492 -0.6328827 0.7286254
vn -0.2618492 -0.6328827 0.7286254
vn -0.2618489 -0.6328828 0.7286254
vn -0.2618489 -0.6328828 0.7286254
vn -0.2618489 -0.6328828 0.7286254
vn -0.2618489 -0.6328828 0.7286254
vn -0.2618489 -0.6328828 0.7286254
vn -0.2618489 -0.6328828 0.7286254
vn -0.2618489 -0.6328828 0.7286254
vn -0.2618489 -0.6328828 0.7286254
vn -0.2618491 -0.6328828 0.7286253
vn -0.2618493 -0.6328828 0.7286253
vn -0.2618491 -0.6328828 0.7286253
vn -0.2618491 -0.6328828 0.7286253
vn -0.2618491 -0.6328828 0.7286253
vn -0.2618491 -0.6328828 0.7286253
vn -0.2618491 -0.6328828 0.7286253
vn -0.2618491 -0.6328828 0.7286253
vn -0.2618491 -0.6328828 0.7286253
vn -0.2618493 -0.6328828 0.7286253
vn -0.2618493 -0.6328828 0.7286253
vn -0.2618493 -0.6328828 0.7286253
vn -0.2618493 -0.6328828 0.7286253
vn -0.2618493 -0.6328828 0.7286253
vn -0.2618493 -0.6328828 0.7286253
vn -0.2618493 -0.6328828 0.7286253
vn -0.2618493 -0.6328827 0.7286254
vn -0.2618495 -0.6328825 0.7286254
vn -0.2618495 -0.6328825 0.7286254
vn -0.2618495 -0.6328825 0.7286254
vn -0.2618495 -0.6328825 0.7286254
vn -0.2618495 -0.6328825 0.7286254
vn -0.2618495 -0.6328825 0.7286254
vn -0.2618495 -0.6328825 0.7286254
vn -0.2618494 -0.6328825 0.7286254
vn -0.2618492 -0.6328827 0.7286254
vn -0.2618492 -0.6328827 0.7286254
vn -0.2618492 -0.6328827 0.7286253

f 1//1 2//2 3//3
f 4//4 1//1 3//3
f 3//3 5//5 4//4
f 3//3 6//6 5//5
f 5//5 6//6 7//7
f 8//8 7//7 6//6
f 9//9 8//8 6//6
f 10//10 9//9 6//6
f 9//9 10//10 11//11
f 11//11 10//10 12//12
f 13//13 11//11 12//12
f 13//13 12//12 14//14
f 13//13 14//14 15//15
f 15//15 14//14 16//16
f 15//15 16//16 17//17
f 18//18 17//17 16//16
f 19//19 17//17 18//18
f 19//19 18//18 20//20
f 21//21 19//19 20//20
f 22//22 19//19 21//21
f 22//22 21//21 23//23
f 24//24 22//22 23//23
f 24//24 23//23 25//25
f 26//26 24//24 25//25
f 26//26 25//25 27//27
f 28//28 26//26 27//27
f 28//28 27//27 29//29
f 29//29 27//27 30//30
f 31//31 29//29 30//30
f 31//31 30//30 32//32
f 33//33 31//31 32//32
f 33//33 32//32 34//34
f 35//35 33//33 34//34
f 35//35 34//34 36//36
f 37//37 35//35 36//36
f 37//37 36//36 38//38
f 39//39 37//37 38//38
f 39//39 38//38 40//40
f 41//41 39//39 40//40
f 41//41 40//40 42//42
f 41//41 42//42 43//43
f 43//43 42//42 44//44
f 45//45 43//43 44//44
f 45//45 44//44 46//46
f 47//47 45//45 46//46
f 48//48 45//45 47//47
f 48//48 47//47 49//49
f 50//50 48//48 49//49
f 50//50 49//49 51//51
f 52//52 50//50 51//51
f 52//52 51//51 53//53
f 54//54 52//52 53//53
f 55//55 54//54 53//53
f 55//55 53//53 56//56
f 55//55 56//56 57//57
f 57//57 56//56 58//58
f 57//57 58//58 59//59
f 59//59 58//58 60//60
f 59//59 60//60 61//61
f 61//61 60//60 62//62
f 61//61 62//62 63//63
f 63//63 62//62 64//64
f 63//63 64//64 65//65
f 65//65 64//64 66//66
f 65//65 66//66 67//67
f 68//68 67//67 66//66
f 69//69 67//67 68//68
f 69//69 68//68 70//70
f 71//71 69//69 70//70
f 72//72 71//71 73//73
f 74//74 75//75 76//76
f 77//77 74//74 76//76
f 75//75 77//77 76//76
f 78//78 75//75 74//74
f 79//79 75//75 78//78
f 78//78 74//74 80//80
f 81//81 78//78 80//80
f 82//82 78//78 81//81
f 82//82 83//83 78//78
f 83//83 84//84 79//79
f 84//84 85//85 79//79
f 80//80 74//74 86//86
f 87//87 80//80 86//86
f 81//81 80//80 87//87
f 86//86 74//74 88//88
f 88//88 74//74 77//77
f 86//86 88//88 89//89
f 90//90 86//86 89//89
f 87//87 86//86 90//90
f 75//75 91//91 77//77
f 90//90 89//89 92//92
f 90//90 92//92 93//93
f 94//94 90//90 93//93
f 95//95 83//83 82//82
f 95//95 82//82 81//81
f 95//95 81//81 87//87
f 95//95 87//87 90//90
f 95//95 96//96 83//83
f 97//97 91//91 75//75
f 97//97 98//98 91//91
f 97//97 99//99 98//98
f 100//100 95//95 101//101
f 102//102 103//103 104//104
f 102//102 104//104 105//105
f 102//102 105//105 106//106
f 106//106 105//105 107//107
f 108//108 102//102 106//106
f 109//109 102//102 108//108
f 110//110 108//108 106//106
f 111//111 112//112 113//113
f 111//111 113//113 114//114
f 111//111 114//114 115//115
f 111//111 115//115 116//116
f 111//111 116//116 117//117
f 117//117 118//118 111//111
f 118//118 119//119 111//111
f 120//120 111//111 119//119
f 120//120 121//121 111//111
f 121//121 122//122 111//111
f 111//111 122//122 123//123
f 114//114 113//113 124//124
f 124//124 113//113 125//125
f 125//125 113//113 126//126
f 126//126 113//113 127//127
f 127//127 113//113 128//128
f 128//128 113//113 129//129
f 129//129 113//113 130//130
f 130//130 113//113 131//131
f 131//131 113//113 132//132
f 132//132 113//113 133//133
f 133//133 113//113 134//134
f 133//133 134//134 135//135
f 135//135 134//134 136//136
f 134//134 137//137 136//136
f 137//137 134//134 138//138
f 138//138 134//134 139//139
f 139//139 134//134 140//140
f 140//140 134//134 141//141
f 134//134 142//142 141//141
f 134//134 143//143 142//142
f 134//134 144//144 143//143
f 144//144 134//134 145//145
f 145//145 134//134 146//146
f 147//147 134//134 148//148
f 149//149 150//150 151//151
f 149//149 152//152 150//150
f 151//151 150//150 153//153
f 151//151 153//153 154//154
f 154//154 153//153 155//155
f 154//154 155//155 156//156
f 152//152 157//157 150//150
f 158//158 159//159 160//160
f 161//161 159//159 158//158
f 162//162 159//159 161//161
f 163//163 162//162 161//161
f 164//164 162//162 163//163
f 165//165 162//162 164//164
f 9//9 166//166 8//8
f 166//166 9//9 167//167
f 168//168 169//169 170//170
f 168//168 171//171 169//169
f 172//172 169//169 173//173
f 174//174 169//169 172//172
f 169//169 174//174 175//175
f 176//176 169//169 175//175
f 177//177 169//169 176//176
f 178//178 169//169 177//177
f 178//178 179//179 169//169
f 179//179 180//180 169//169
f 180//180 181//181 169//169
f 182//182 181//181 180//180
f 182//182 183//183 181//181
f 183//183 184//184 181//181
f 184//184 185//185 181//181
f 185//185 186//186 181//181
f 186//186 187//187 181//181
f 187//187 188//188 181//181
f 188//188 189//189 181//181
f 181//181 189//189 190//190
f 181//181 190//190 191//191
f 192//192 181//181 191//191
f 193//193 181//181 192//192
f 194//194 181//181 193//193
f 195//195 181//181 194//194
f 195//195 196//196 181//181
f 196//196 197//197 198//198
f 196//196 198//198 199//199
f 199//199 200//200 196//196
f 196//196 200//200 201//201
f 201//201 202//202 196//196
f 196//196 202//202 203//203
f 196//196 203//203 204//204
f 205//205 196//196 206//206
f 207//207 196//196 205//205
