v 46.70307 -423.4628 -374.0695
v 45.30149 -408.7433 -379.0841
v 46.70307 -423.4628 -374.0695
v 46.70307 -423.4628 -374.0695
v 48.72327 -424.2384 -376.9106
v 49.53135 -424.5486 -378.0471
v 49.53135 -424.5486 -378.0471
v 48.12977 -409.8291 -383.0618
v 46.72819 -395.1097 -388.0765
v 49.39792 -424.6268 -378.2393
v 45.52731 -395.8134 -389.8063
v 49.38134 -424.6365 -378.2632
v 45.37809 -395.9008 -390.0213
v 49.37668 -424.6393 -378.2699
v 45.33619 -395.9253 -390.0816
v 49.32436 -424.6699 -378.3453
v 44.86533 -396.2012 -390.7599
v 48.67933 -425.0479 -379.2744
v 44.79366 -396.2432 -390.8631
v 48.06775 -425.4062 -380.1554
v 47.99739 -425.4474 -380.2567
v 44.7179 -396.2876 -390.9723
v 47.85065 -425.5334 -380.4681
v 44.70159 -396.2972 -390.9958
v 47.46151 -425.7614 -381.0287
v 44.65835 -396.3225 -391.058
v 47.50403 -425.822 -381.2183
v 44.89249 -396.656 -392.1022
v 45.04105 -396.8675 -392.7647
v 47.51458 -425.837 -381.2653
v 45.13599 -397.0027 -393.1881
v 47.51772 -425.8415 -381.2793
v 45.16425 -397.043 -393.3141
v 47.54145 -425.8753 -381.3852
v 45.37782 -397.3471 -394.2666
v 47.81369 -426.263 -382.5992
v 45.40807 -397.3902 -394.4015
v 48.03861 -426.5833 -383.6023
v 45.43306 -397.4258 -394.5129
v 48.26092 -426.8999 -384.5937
v 45.45776 -397.461 -394.6231
v 48.35968 -426.9121 -384.6573
v 46.3466 -397.5713 -395.1953
v 48.58096 -426.9396 -384.7997
v 48.33811 -397.8184 -396.4773
v 49.19829 -427.0162 -385.1971
v 49.44518 -427.0468 -385.356
v 48.43413 -397.8303 -396.5391
v 50.287 -427.1513 -385.898
v 48.52766 -397.8419 -396.5993
v 50.98015 -427.2373 -386.3442
v 48.60468 -397.8515 -396.6489
v 51.4613 -427.2971 -386.6539
v 48.65814 -397.8581 -396.6833
v 48.65815 -397.8581 -396.6833
v 51.68279 -427.2628 -386.6152
v 50.6515 -397.5496 -396.3348
v 51.74798 -427.2527 -386.6038
v 51.23822 -397.4588 -396.2323
v 51.75463 -427.2516 -386.6026
v 51.29812 -397.4495 -396.2218
v 51.75772 -427.2512 -386.6021
v 51.32589 -397.4452 -396.2169
v 51.76162 -427.2505 -386.6014
v 51.361 -397.4398 -396.2108
v 51.83396 -427.2394 -386.5888
v 52.01209 -397.339 -396.097
v 55.18791 -426.7203 -386.0025
v 52.38475 -397.2813 -396.0319
v 55.18791 -426.7203 -386.0025
v 52.38475 -397.2813 -396.0319
v 55.18791 -426.7203 -386.0025
v 55.18791 -426.7203 -386.0025
v 55.99599 -427.0305 -387.1389
v 58.01619 -427.8061 -389.9801
v 58.01619 -427.8061 -389.9801
v 58.01619 -427.8061 -389.9801
v 55.18791 -426.7203 -386.0025
v 55.18791 -426.7203 -386.0025
v 55.18791 -426.7203 -386.0025
v 52.38475 -397.2813 -396.0319
v 52.38475 -397.2813 -396.0319
v 52.38475 -397.2813 -396.0319
v 55.18791 -426.7203 -386.0025
v 50.56297 -428.9597 -391.2831
v 55.18791 -426.7203 -386.0025
v 52.38475 -397.2813 -396.0319
v 55.18791 -426.7203 -386.0025
v 53.78633 -412.0008 -391.0172
v 52.38475 -397.2813 -396.0319
v 56.61461 -413.0866 -394.9948
v 52.38475 -397.2813 -396.0319
v 52.38475 -397.2813 -396.0319
v 53.19283 -397.5916 -397.1683
v 47.75982 -399.5207 -401.3124
v 52.38475 -397.2813 -396.0319
v 50.56297 -428.9597 -391.2831
v 55.21304 -398.3672 -400.0095
v 47.75982 -399.5207 -401.3124
v 48.65815 -397.8581 -396.6833
v 48.65814 -397.8581 -396.6833
v 45.30149 -408.7433 -379.0841
v 46.70307 -423.4628 -374.0695
v 46.70307 -423.4628 -374.0695
v 48.72327 -424.2384 -376.9106
v 48.12977 -409.8291 -383.0618
v 49.53135 -424.5486 -378.0471
v 45.55668 -394.6599 -386.4289
v 43.89991 -394.0239 -384.0988
v 46.72819 -395.1097 -388.0765
v 46.70307 -423.4628 -374.0695
v 42.56339 -425.8885 -380.0325
v 44.16221 -428.1653 -387.1626
v 47.46151 -425.7614 -381.0287
v 47.85065 -425.5334 -380.4681
v 47.99739 -425.4474 -380.2567
v 48.06775 -425.4062 -380.1554
v 48.67933 -425.0479 -379.2744
v 49.32436 -424.6699 -378.3453
v 49.37668 -424.6393 -378.2699
v 49.38134 -424.6365 -378.2632
v 49.39792 -424.6268 -378.2393
v 49.53135 -424.5486 -378.0471
v 47.50403 -425.822 -381.2183
v 47.51458 -425.837 -381.2653
v 47.51772 -425.8415 -381.2793
v 47.54145 -425.8753 -381.3852
v 47.81369 -426.263 -382.5992
v 48.03861 -426.5833 -383.6023
v 48.26092 -426.8999 -384.5937
v 48.35968 -426.9121 -384.6573
v 48.58096 -426.9396 -384.7997
v 49.19829 -427.0162 -385.1971
v 50.56297 -428.9597 -391.2831
v 49.44518 -427.0468 -385.356
v 50.287 -427.1513 -385.898
v 50.98015 -427.2373 -386.3442
v 51.4613 -427.2971 -386.6539
v 51.68279 -427.2628 -386.6152
v 51.74798 -427.2527 -386.6038
v 51.75463 -427.2516 -386.6026
v 51.75772 -427.2512 -386.6021
v 51.76162 -427.2505 -386.6014
v 51.83396 -427.2394 -386.5888
v 55.18791 -426.7203 -386.0025
v 55.18791 -426.7203 -386.0025
v 55.18791 -426.7203 -386.0025
v 58.01619 -427.8061 -389.9801
v 46.70307 -423.4628 -374.0695
v 39.76023 -396.4496 -390.0619
v 42.56339 -425.8885 -380.0325
v 45.30149 -408.7433 -379.0841
v 41.35905 -398.7264 -397.192
v 44.16221 -428.1653 -387.1626
v 47.75982 -399.5207 -401.3124
v 50.56297 -428.9597 -391.2831
v 43.89991 -394.0239 -384.0988
v 58.01619 -427.8061 -389.9801
v 53.78633 -412.0008 -391.0172
v 55.18791 -426.7203 -386.0025
v 56.61461 -413.0866 -394.9948
v 52.38475 -397.2813 -396.0319
v 55.21304 -398.3672 -400.0095
v 53.19283 -397.5916 -397.1683
v 52.38475 -397.2813 -396.0319
v 46.72819 -395.1097 -388.0765
v 39.76023 -396.4496 -390.0619
v 45.55668 -394.6599 -386.4289
v 39.76023 -396.4496 -390.0619
v 43.89991 -394.0239 -384.0988
v 46.72819 -395.1097 -388.0765
v 45.52731 -395.8134 -389.8063
v 46.72819 -395.1097 -388.0765
v 45.37809 -395.9008 -390.0213
v 45.33619 -395.9253 -390.0816
v 44.86533 -396.2012 -390.7599
v 44.79366 -396.2432 -390.8631
v 44.7179 -396.2876 -390.9723
v 44.70159 -396.2972 -390.9958
v 44.65835 -396.3225 -391.058
v 41.35905 -398.7264 -397.192
v 44.89249 -396.656 -392.1022
v 45.04105 -396.8675 -392.7647
v 45.13599 -397.0027 -393.1881
v 45.16425 -397.043 -393.3141
v 45.37782 -397.3471 -394.2666
v 45.40807 -397.3902 -394.4015
v 45.43306 -397.4258 -394.5129
v 45.45776 -397.461 -394.6231
v 46.3466 -397.5713 -395.1953
v 48.33811 -397.8184 -396.4773
v 48.43413 -397.8303 -396.5391
v 48.52766 -397.8419 -396.5993
v 48.60468 -397.8515 -396.6489
v 48.65814 -397.8581 -396.6833
v 47.75982 -399.5207 -401.3124
v 48.65815 -397.8581 -396.6833
v 50.6515 -397.5496 -396.3348
v 51.23822 -397.4588 -396.2323
v 51.29812 -397.4495 -396.2218
v 51.32589 -397.4452 -396.2169
v 51.361 -397.4398 -396.2108
v 52.01209 -397.339 -396.097
v 52.38475 -397.2813 -396.0319
v 53.19283 -397.5916 -397.1683
v 52.38475 -397.2813 -396.0319
v 55.21304 -398.3672 -400.0095

vn -0.5656555 0.2171641 0.7955335
vn -0.5656555 0.2171642 0.7955335
vn -0.3710573 -0.4486522 0.8130361
vn 0.08976829 -0.9427536 0.3211814
vn 0.08976829 -0.9427536 0.3211814
vn 0.8363016 -0.1037783 -0.5383584
vn 0.5726657 -0.3483071 -0.7421162
vn 0.9306871 0.1942296 0.309994
vn 0.836299 -0.1037795 -0.538362
vn 0.8362986 -0.1037798 -0.5383627
vn 0.8362988 -0.1037797 -0.5383624
vn 0.8362994 -0.1037793 -0.5383617
vn 0.8362999 -0.1037789 -0.5383608
vn 0.8362969 -0.1037813 -0.5383652
vn 0.8362983 -0.1037801 -0.5383631
vn 0.8362985 -0.1037799 -0.5383627
vn 0.8362986 -0.10378 -0.5383629
vn 0.8362985 -0.10378 -0.5383629
vn 0.8362986 -0.1037799 -0.5383627
vn 0.8362985 -0.10378 -0.538363
vn 0.8362991 -0.1037796 -0.538362
vn 0.8362998 -0.1037791 -0.5383608
vn 0.8362987 -0.1037799 -0.5383624
vn 0.8362983 -0.1037801 -0.5383632
vn 0.9083125 -0.05478902 -0.4146887
vn 0.9815379 0.1384279 0.1319885
vn 0.9738086 0.1507219 0.1702347
vn 0.9738086 0.1507216 0.1702339
vn 0.9738088 0.1507215 0.1702337
vn 0.9738093 0.1507207 0.1702318
vn 0.9738095 0.1507202 0.1702306
vn 0.9738098 0.1507195 0.1702291
vn 0.9738093 0.1507206 0.1702316
vn 0.9738089 0.1507211 0.1702327
vn 0.9738089 0.1507214 0.1702332
vn 0.9738088 0.1507215 0.1702332
vn 0.973809 0.150721 0.1702322
vn 0.973809 0.1507213 0.1702328
vn 0.9738087 0.1507216 0.1702339
vn 0.957948 0.1699748 0.2311802
vn 0.5948737 0.3093939 0.7418901
vn 0.5408763 0.3169315 0.7791067
vn 0.5408754 0.3169316 0.7791073
vn 0.5408748 0.3169317 0.7791077
vn 0.5408748 0.3169317 0.7791077
vn 0.5408751 0.3169316 0.7791074
vn 0.5408756 0.3169314 0.7791072
vn 0.5408753 0.3169316 0.7791075
vn 0.5408756 0.3169315 0.7791073
vn 0.5408753 0.3169315 0.7791074
vn 0.5408753 0.3169315 0.7791075
vn 0.5408756 0.3169315 0.7791072
vn 0.3654634 0.331168 0.869922
vn 0.5408951 0.316929 0.7790946
vn -0.2088958 0.2974879 0.9315919
vn -0.208897 0.2974877 0.9315916
vn -0.2088975 0.2974877 0.9315917
vn -0.2088986 0.2974876 0.9315913
vn -0.2088966 0.2974877 0.9315918
vn -0.2088951 0.2974877 0.9315923
vn -0.2088923 0.2974878 0.9315927
vn -0.2088478 0.2974893 0.9316022
vn -0.2088757 0.2974885 0.9315963
vn -0.2089038 0.2974873 0.9315903
vn -0.2088998 0.2974876 0.9315912
vn -0.2088969 0.2974877 0.9315917
vn -0.2088963 0.2974877 0.9315918
vn -0.2088961 0.2974878 0.9315919
vn -0.2088912 0.2974886 0.9315928
vn -0.04281545 0.3185323 0.9469446
vn -0.5656556 0.2171644 0.7955334
vn -0.5656556 0.2171644 0.7955334
vn -0.5656556 0.2171644 0.7955334
vn 0.08976829 -0.9427536 0.3211814
vn 0.2088967 -0.2974876 -0.9315918
vn 0.08976829 -0.9427536 0.3211814
vn 0.8863018 0.2227227 0.4060342
vn -0.2991137 -0.5758221 0.7608941
vn -0.2444928 -0.6565821 0.7135288
vn -0.5578481 0.1496339 0.8163426
vn -0.5656556 0.2171644 0.7955334
vn -0.5656556 0.2171644 0.7955334
vn -0.5656556 0.2171644 0.7955334
vn -0.5534005 0.1189032 0.8243846
vn 0.08976829 -0.9427536 0.3211814
vn -0.5644687 0.2052102 0.7995397
vn -0.5656556 0.2171644 0.7955334
vn -0.5472753 0.08165633 0.8329598
vn -0.565661 0.2171627 0.79553
vn -0.57003 0.2733756 0.7748107
vn 0.2088967 -0.2974876 -0.9315917
vn -0.565675 0.2171584 0.7955213
vn -0.08977222 0.942755 -0.3211759
vn -0.08976829 0.9427536 -0.3211814
vn -0.08976864 0.9427534 -0.3211817
vn 0 0 0
vn 0.2088966 -0.2974877 -0.9315919
vn 0.2088966 -0.2974877 -0.9315918
vn 0.2088967 -0.2974877 -0.9315919
vn -0.08976864 0.9427534 -0.3211817
vn -0.08976864 0.9427534 -0.3211817
vn 0.8197411 0.2530918 0.5137793
vn 0.819741 0.2530918 0.5137792
vn 0.8197411 0.2530918 0.5137793
vn 0.8197411 0.2530918 0.5137793
vn 0.8197411 0.2530918 0.5137793
vn 0.8197411 0.2530918 0.5137793
vn 0.8197411 0.2530918 0.5137793
vn 0.8197411 0.2530918 0.5137793
vn 0.8197411 0.2530918 0.5137793
vn 0.08976829 -0.9427536 0.3211814
vn 0.08976829 -0.9427536 0.3211814
vn 0.08976829 -0.9427536 0.3211814
vn 0.08976829 -0.9427536 0.3211814
vn 0.08976829 -0.9427536 0.3211814
vn 0.08976829 -0.9427536 0.3211814
vn 0.08976829 -0.9427536 0.3211814
vn 0.08976829 -0.9427536 0.3211814
vn 0.08976829 -0.9427536 0.3211814
vn 0.08976829 -0.9427536 0.3211814
vn 0.08976829 -0.9427536 0.3211814
vn 0.08976829 -0.9427536 0.3211814
vn 0.08976829 -0.9427536 0.3211814
vn 0.08976828 -0.9427535 0.3211814
vn 0.08976829 -0.9427536 0.3211814
vn 0.08976829 -0.9427536 0.3211814
vn 0.08976828 -0.9427535 0.3211814
vn 0.08976829 -0.9427536 0.3211814
vn 0.08976829 -0.9427536 0.3211814
vn 0.08976829 -0.9427536 0.3211814
vn 0.08976828 -0.9427535 0.3211814
vn 0.08976829 -0.9427536 0.3211814
vn 0.08976829 -0.9427536 0.3211814
vn 0.08976829 -0.9427536 0.3211814
vn 0.08976829 -0.9427536 0.3211814
vn 0.08976829 -0.9427536 0.3211814
vn 0.08976829 -0.9427536 0.3211814
vn 0.08976829 -0.9427536 0.3211814
vn 0.08976829 -0.9427536 0.3211814
vn 0.08976829 -0.9427536 0.3211814
vn 0.08976829 -0.9427536 0.3211814
vn 0.08976828 -0.9427535 0.3211814
vn 0.08976829 -0.9427536 0.3211814
vn 0.08976828 -0.9427535 0.3211814
vn 0.08976828 -0.9427535 0.3211814
vn 0.08976829 -0.9427536 0.3211814
vn 0.08976828 -0.9427535 0.3211814
vn 0.08976828 -0.9427535 0.3211814
vn -0.8362989 0.1037796 0.5383624
vn -0.9458436 0.0203143 0.3239864
vn -0.9949906 -0.07064603 0.07072959
vn -0.8362988 0.1037796 0.5383623
vn -0.8894042 -0.221011 -0.400143
vn -0.7346707 -0.2804157 -0.6177589
vn -0.5408751 -0.3169315 -0.7791075
vn -0.5408752 -0.3169315 -0.7791075
vn -0.8362988 0.1037797 0.5383624
vn 0.8197411 0.2530918 0.5137793
vn 0.8197411 0.2530918 0.5137793
vn 0.8197411 0.2530918 0.5137793
vn 0.8197411 0.2530918 0.5137793
vn 0.8197411 0.2530918 0.5137793
vn 0.8197411 0.2530918 0.5137793
vn 0.8197411 0.2530918 0.5137793
vn 0.819741 0.2530918 0.5137792
vn 0.5356957 -0.02145833 -0.8441384
vn -0.08976871 0.9427537 -0.3211809
vn -0.08976846 0.9427534 -0.3211815
vn -0.08976854 0.9427535 -0.3211815
vn -0.08976847 0.9427535 -0.3211816
vn -0.08976847 0.9427535 -0.3211816
vn -0.08976857 0.9427536 -0.3211813
vn -0.08976857 0.9427536 -0.3211813
vn -0.08976857 0.9427536 -0.3211813
vn -0.08976857 0.9427536 -0.3211813
vn -0.08976857 0.9427536 -0.3211813
vn -0.08976856 0.9427535 -0.3211812
vn -0.08976857 0.9427536 -0.3211813
vn -0.08976856 0.9427535 -0.3211812
vn -0.08976861 0.9427535 -0.3211815
vn -0.08976854 0.9427534 -0.3211816
vn -0.08976861 0.9427535 -0.3211815
vn -0.08976861 0.9427535 -0.3211815
vn -0.08976861 0.9427535 -0.3211815
vn -0.08976861 0.9427535 -0.3211815
vn -0.08976861 0.9427535 -0.3211815
vn -0.08976861 0.9427535 -0.3211815
vn -0.08976861 0.9427535 -0.3211815
vn -0.08976848 0.9427534 -0.3211817
vn -0.08976847 0.9427534 -0.3211817
vn -0.08976847 0.9427534 -0.3211817
vn -0.08976847 0.9427534 -0.3211817
vn -0.08976847 0.9427534 -0.3211817
vn -0.08976847 0.9427534 -0.3211817
vn -0.08976847 0.9427534 -0.3211817
vn -0.08976842 0.9427534 -0.3211817
vn -0.08976822 0.9427534 -0.3211817
vn -0.08976822 0.9427534 -0.3211817
vn -0.08976822 0.9427534 -0.3211817
vn -0.08976822 0.9427534 -0.3211817
vn -0.08976822 0.9427534 -0.3211817
vn -0.08976822 0.9427534 -0.3211817
vn -0.08976822 0.9427534 -0.3211817
vn -0.08976822 0.9427534 -0.3211817
vn -0.08976847 0.9427535 -0.3211816
vn -0.08976847 0.9427535 -0.3211816
vn -0.08976846 0.9427534 -0.3211815

f 1//1 2//2 3//3
f 4//4 1//1 3//3
f 3//3 5//5 4//4
f 3//3 6//6 5//5
f 5//5 6//6 7//7
f 8//8 7//7 6//6
f 9//9 8//8 6//6
f 10//10 9//9 6//6
f 9//9 10//10 11//11
f 11//11 10//10 12//12
f 13//13 11//11 12//12
f 13//13 12//12 14//14
f 13//13 14//14 15//15
f 15//15 14//14 16//16
f 15//15 16//16 17//17
f 18//18 17//17 16//16
f 19//19 17//17 18//18
f 19//19 18//18 20//20
f 21//21 19//19 20//20
f 22//22 19//19 21//21
f 22//22 21//21 23//23
f 24//24 22//22 23//23
f 24//24 23//23 25//25
f 26//26 24//24 25//25
f 26//26 25//25 27//27
f 28//28 26//26 27//27
f 28//28 27//27 29//29
f 29//29 27//27 30//30
f 31//31 29//29 30//30
f 31//31 30//30 32//32
f 33//33 31//31 32//32
f 33//33 32//32 34//34
f 35//35 33//33 34//34
f 35//35 34//34 36//36
f 37//37 35//35 36//36
f 37//37 36//36 38//38
f 39//39 37//37 38//38
f 39//39 38//38 40//40
f 41//41 39//39 40//40
f 41//41 40//40 42//42
f 41//41 42//42 43//43
f 43//43 42//42 44//44
f 45//45 43//43 44//44
f 45//45 44//44 46//46
f 47//47 45//45 46//46
f 48//48 45//45 47//47
f 48//48 47//47 49//49
f 50//50 48//48 49//49
f 50//50 49//49 51//51
f 52//52 50//50 51//51
f 52//52 51//51 53//53
f 54//54 52//52 53//53
f 55//55 54//54 53//53
f 55//55 53//53 56//56
f 55//55 56//56 57//57
f 57//57 56//56 58//58
f 57//57 58//58 59//59
f 59//59 58//58 60//60
f 59//59 60//60 61//61
f 61//61 60//60 62//62
f 61//61 62//62 63//63
f 63//63 62//62 64//64
f 63//63 64//64 65//65
f 65//65 64//64 66//66
f 65//65 66//66 67//67
f 68//68 67//67 66//66
f 69//69 67//67 68//68
f 69//69 68//68 70//70
f 71//71 69//69 70//70
f 72//72 71//71 73//73
f 74//74 75//75 76//76
f 77//77 74//74 76//76
f 75//75 77//77 76//76
f 78//78 75//75 74//74
f 79//79 75//75 78//78
f 78//78 74//74 80//80
f 81//81 78//78 80//80
f 82//82 78//78 81//81
f 82//82 83//83 78//78
f 83//83 84//84 79//79
f 84//84 85//85 79//79
f 80//80 74//74 86//86
f 87//87 80//80 86//86
f 81//81 80//80 87//87
f 86//86 74//74 88//88
f 88//88 74//74 77//77
f 86//86 88//88 89//89
f 90//90 86//86 89//89
f 87//87 86//86 90//90
f 75//75 91//91 77//77
f 90//90 89//89 92//92
f 90//90 92//92 93//93
f 94//94 90//90 93//93
f 95//95 83//83 82//82
f 95//95 82//82 81//81
f 95//95 81//81 87//87
f 95//95 87//87 90//90
f 95//95 96//96 83//83
f 97//97 91//91 75//75
f 97//97 98//98 91//91
f 97//97 99//99 98//98
f 100//100 95//95 101//101
f 102//102 103//103 104//104
f 102//102 104//104 105//105
f 102//102 105//105 106//106
f 106//106 105//105 107//107
f 108//108 102//102 106//106
f 109//109 102//102 108//108
f 110//110 108//108 106//106
f 111//111 112//112 113//113
f 111//111 113//113 114//114
f 111//111 114//114 115//115
f 111//111 115//115 116//116
f 111//111 116//116 117//117
f 117//117 118//118 111//111
f 118//118 119//119 111//111
f 120//120 111//111 119//119
f 120//120 121//121 111//111
f 121//121 122//122 111//111
f 111//111 122//122 123//123
f 114//114 113//113 124//124
f 124//124 113//113 125//125
f 125//125 113//113 126//126
f 126//126 113//113 127//127
f 127//127 113//113 128//128
f 128//128 113//113 129//129
f 129//129 113//113 130//130
f 130//130 113//113 131//131
f 131//131 113//113 132//132
f 132//132 113//113 133//133
f 133//133 113//113 134//134
f 133//133 134//134 135//135
f 135//135 134//134 136//136
f 134//134 137//137 136//136
f 137//137 134//134 138//138
f 138//138 134//134 139//139
f 139//139 134//134 140//140
f 140//140 134//134 141//141
f 134//134 142//142 141//141
f 134//134 143//143 142//142
f 134//134 144//144 143//143
f 144//144 134//134 145//145
f 145//145 134//134 146//146
f 147//147 134//134 148//148
f 149//149 150//150 151//151
f 149//149 152//152 150//150
f 151//151 150//150 153//153
f 151//151 153//153 154//154
f 154//154 153//153 155//155
f 154//154 155//155 156//156
f 152//152 157//157 150//150
f 158//158 159//159 160//160
f 161//161 159//159 158//158
f 162//162 159//159 161//161
f 163//163 162//162 161//161
f 164//164 162//162 163//163
f 165//165 162//162 164//164
f 9//9 166//166 8//8
f 166//166 9//9 167//167
f 168//168 169//169 170//170
f 168//168 171//171 169//169
f 172//172 169//169 173//173
f 174//174 169//169 172//172
f 169//169 174//174 175//175
f 176//176 169//169 175//175
f 177//177 169//169 176//176
f 178//178 169//169 177//177
f 178//178 179//179 169//169
f 179//179 180//180 169//169
f 180//180 181//181 169//169
f 182//182 181//181 180//180
f 182//182 183//183 181//181
f 183//183 184//184 181//181
f 184//184 185//185 181//181
f 185//185 186//186 181//181
f 186//186 187//187 181//181
f 187//187 188//188 181//181
f 188//188 189//189 181//181
f 181//181 189//189 190//190
f 181//181 190//190 191//191
f 192//192 181//181 191//191
f 193//193 181//181 192//192
f 194//194 181//181 193//193
f 195//195 181//181 194//194
f 195//195 196//196 181//181
f 196//196 197//197 198//198
f 196//196 198//198 199//199
f 199//199 200//200 196//196
f 196//196 200//200 201//201
f 201//201 202//202 196//196
f 196//196 202//202 203//203
f 196//196 203//203 204//204
f 205//205 196//196 206//206
f 207//207 196//196 205//205
