v 1.715229 -5.231939 -0.8807098
v 0.6725695 -5.478077 0.8527206
v -1.666738 -5.285034 0.8527212
v 0.5769379 -4.755373 -2.877408
v -1.453929 -4.587781 -2.877409
v -2.654946 -4.871302 -0.8807096
v 4.609688 -0.903577 -2.877409
v 3.822727 -2.783258 -2.877408
v 1.879442 -3.242004 -4.111436
v 3.572886 0.8028355 -4.111435
v 1.885827 0.4045752 -5.182754
v 0.9793445 -1.760584 -5.182755
v 5.41468 0.0317377 -0.8807099
v 3.721238 -4.013105 -0.8807104
v 4.420091 -3.201113 0.8527206
v 5.326574 -1.035954 0.8527216
v 1.477562 -4.542765 2.849419
v 3.219075 -3.484635 2.84942
v 1.784337 -0.8252726 5.154766
v -0.2216716 -2.044106 5.154767
v -0.3642326 -3.771664 4.083447
v 3.383289 -1.494701 4.083447
v -2.000743 -0.5129193 5.154766
v -2.307518 -4.230412 2.849419
v -3.852016 -2.901113 2.84942
v -3.687804 -0.9111801 4.083446
v -4.990308 -2.424548 0.8527214
v -4.434017 -3.340115 -0.8807104
v -4.80071 -0.127011 -2.877408
v -4.332527 -2.110268 -2.877408
v -5.44149 0.9276103 -0.8807099
v -5.529597 -0.1400793 0.8527216
v -3.498206 1.386357 -4.111435
v -2.490732 -2.881368 -4.111435
v -1.359963 -1.56754 -5.182754
v -1.899253 0.7169285 -5.182754
v 4.685794 0.0186668 2.849419
v 4.21761 2.001924 2.849419
v 1.245047 1.459196 5.154766
v 2.375817 2.773024 4.083447
v 4.319101 3.231771 0.8527219
v 4.875391 2.316204 -0.8807098
v -3.836154 3.904761 0.8527219
v -1.830145 5.123595 0.8527212
v -0.7874849 5.369733 -0.8807091
v -4.535007 3.09277 -0.8807091
v -3.333991 3.376291 -2.877408
v -1.592478 4.434421 -2.877408
v 0.2493169 3.663321 -4.111435
v 0.1067559 1.935762 -5.182755
v 2.192602 4.122068 -2.877407
v 3.7371 2.792769 -2.877409
v 1.551822 5.17669 -0.8807096
v 2.540029 4.762958 0.852721
v -0.6918536 4.647029 2.84942
v 1.339013 4.479437 2.84942
v -1.994358 3.133661 4.083448
v -1.09426 1.65224 5.154767
v -3.937643 2.674914 2.849419
v -4.724605 0.795233 2.84942
v 101.7152 -5.231939 -0.8807098
v 100.6726 -5.478077 0.8527206
v 98.33326 -5.285034 0.8527212
v 100.5769 -4.755373 -2.877408
v 98.54607 -4.587781 -2.877409
v 97.34505 -4.871302 -0.8807096
v 104.6097 -0.903577 -2.877409
v 103.8227 -2.783258 -2.877408
v 101.8794 -3.242004 -4.111436
v 103.5729 0.8028355 -4.111435
v 101.8858 0.4045752 -5.182754
v 100.9793 -1.760584 -5.182755
v 105.4147 0.0317377 -0.8807099
v 103.7212 -4.013105 -0.8807104
v 104.4201 -3.201113 0.8527206
v 105.3266 -1.035954 0.8527216
v 101.4776 -4.542765 2.849419
v 103.2191 -3.484635 2.84942
v 101.7843 -0.8252726 5.154766
v 99.77833 -2.044106 5.154767
v 99.63577 -3.771664 4.083447
v 103.3833 -1.494701 4.083447
v 97.99926 -0.5129193 5.154766
v 97.69248 -4.230412 2.849419
v 96.14799 -2.901113 2.84942
v 96.31219 -0.9111801 4.083446
v 95.00969 -2.424548 0.8527214
v 95.56599 -3.340115 -0.8807104
v 95.19929 -0.127011 -2.877408
v 95.66747 -2.110268 -2.877408
v 94.55851 0.9276103 -0.8807099
v 94.47041 -0.1400793 0.8527216
v 96.50179 1.386357 -4.111435
v 97.50927 -2.881368 -4.111435
v 98.64004 -1.56754 -5.182754
v 98.10075 0.7169285 -5.182754
v 104.6858 0.0186668 2.849419
v 104.2176 2.001924 2.849419
v 101.245 1.459196 5.154766
v 102.3758 2.773024 4.083447
v 104.3191 3.231771 0.8527219
v 104.8754 2.316204 -0.8807098
v 96.16385 3.904761 0.8527219
v 98.16985 5.123595 0.8527212
v 99.21252 5.369733 -0.8807091
v 95.465 3.09277 -0.8807091
v 96.66601 3.376291 -2.877408
v 98.40752 4.434421 -2.877408
v 100.2493 3.663321 -4.111435
v 100.1068 1.935762 -5.182755
v 102.1926 4.122068 -2.877407
v 103.7371 2.792769 -2.877409
v 101.5518 5.17669 -0.8807096
v 102.54 4.762958 0.852721
v 99.30814 4.647029 2.84942
v 101.339 4.479437 2.84942
v 98.00564 3.133661 4.083448
v 98.90574 1.65224 5.154767
v 96.06236 2.674914 2.849419
v 95.2754 0.795233 2.84942
v -4.196167E-05 1E-07 -4.999999
v -4.577637E-05 -3.535535 -3.535532
v -4.577637E-05 -5 5.960469E-06
v -4.196167E-05 -3.535535 3.535544
v -3.814697E-05 1E-07 5.000011
v -3.433228E-05 3.535535 3.535544
v -3.814697E-05 5 5.960468E-06
v -3.814697E-05 3.535535 -3.535532
v 100 -1E-07 -5.000011
v 100 -3.535535 -3.535544
v 100 3.535535 -3.535544
v 100 5 -5.960469E-06
v 100 3.535535 3.535532
v 100 -1E-07 4.999999
v 100 -3.535535 3.535532
v 100 -5 -5.960468E-06

vn 0.3186336 -0.9310133 -0.178008
vn 0.3178939 -0.9285222 0.1918074
vn -0.2377829 -0.9678886 0.08155431
vn 0.1495226 -0.9088548 -0.3893916
vn -0.2693224 -0.8074652 -0.5248479
vn -0.5309191 -0.793934 -0.2962998
vn 0.7978715 -0.06288064 -0.599539
vn 0.6780974 -0.6031013 -0.420063
vn 0.2963956 -0.4878204 -0.8210852
vn 0.6653494 0.1122517 -0.7380444
vn 0.3393751 0.1249316 -0.9323179
vn 0.1020383 -0.1679388 -0.9805024
vn 0.9974943 -0.05388925 -0.04583854
vn 0.8029532 -0.5643368 -0.1918076
vn 0.7566894 -0.6186716 0.2113452
vn 0.9625986 -0.1956557 0.1874112
vn 0.1940982 -0.8864948 0.4200629
vn 0.5036368 -0.5756792 0.6441609
vn 0.4342556 -0.1228017 0.8923799
vn -0.01293809 -0.1567834 0.9875482
vn 0.05723982 -0.5864597 0.8079533
vn 0.6042591 -0.3002691 0.7380443
vn -0.3740952 -0.3221897 0.8696244
vn -0.4211886 -0.7442075 0.5184162
vn -0.7278097 -0.4597932 0.5088058
vn -0.6186168 0.08784237 0.7807669
vn -0.8937622 -0.4075121 0.1874112
vn -0.8386651 -0.5427151 -0.0458385
vn -0.9030862 0.08934372 -0.420063
vn -0.6716356 -0.4610849 -0.5799191
vn -0.9902981 0.1224549 -0.06568474
vn -0.9837605 -0.0286921 0.1771778
vn -0.5587891 0.1602686 -0.8136761
vn -0.3847743 -0.4470652 -0.8075157
vn -0.2840869 -0.3300776 -0.9001908
vn -0.1889673 0.1704629 -0.9670749
vn 0.9058394 -0.05334801 0.4202486
vn 0.7455199 0.3590214 0.5615191
vn 0.2326671 0.2523271 0.9392534
vn 0.2591194 0.580914 0.7716191
vn 0.8300209 0.5501055 0.09191976
vn 0.8370872 0.4632154 -0.2910607
vn -0.6180881 0.7848196 0.04500429
vn -0.2214887 0.9389849 0.2631542
vn -0.2899463 0.9492123 -0.122177
vn -0.7891068 0.5903122 -0.1698288
vn -0.6007261 0.6110356 -0.5155227
vn -0.07825378 0.8709357 -0.4851261
vn -0.1789944 0.5986353 -0.7807668
vn 0.1844594 0.3893146 -0.902446
vn 0.3368656 0.6664976 -0.6650581
vn 0.6953242 0.6063198 -0.3858761
vn 0.4310098 0.867106 -0.2497154
vn 0.3153259 0.915539 0.2497157
vn -0.1772139 0.8938438 0.4118719
vn 0.3118039 0.73711 0.599539
vn -0.2417029 0.5286879 0.8136761
vn -0.2324177 0.1907882 0.95372
vn -0.7339343 0.51214 0.4461535
vn -0.8700359 -0.01336042 0.4928072
vn 0.3186336 -0.9310133 -0.178008
vn 0.3178939 -0.9285222 0.1918074
vn -0.2377829 -0.9678886 0.08155431
vn 0.1495226 -0.9088548 -0.3893916
vn -0.2693224 -0.8074652 -0.5248479
vn -0.5309191 -0.793934 -0.2962998
vn 0.7978715 -0.06288064 -0.599539
vn 0.6780974 -0.6031013 -0.420063
vn 0.2963956 -0.4878204 -0.8210852
vn 0.6653494 0.1122517 -0.7380444
vn 0.3393751 0.1249316 -0.9323179
vn 0.1020383 -0.1679388 -0.9805024
vn 0.9974943 -0.05388925 -0.04583854
vn 0.8029532 -0.5643368 -0.1918076
vn 0.7566894 -0.6186716 0.2113452
vn 0.9625986 -0.1956557 0.1874112
vn 0.1940982 -0.8864948 0.4200629
vn 0.5036368 -0.5756792 0.6441609
vn 0.4342556 -0.1228017 0.8923799
vn -0.01293809 -0.1567834 0.9875482
vn 0.05723982 -0.5864597 0.8079533
vn 0.6042591 -0.3002691 0.7380443
vn -0.3740952 -0.3221897 0.8696244
vn -0.4211886 -0.7442075 0.5184162
vn -0.7278097 -0.4597932 0.5088058
vn -0.6186168 0.08784237 0.7807669
vn -0.8937622 -0.4075121 0.1874112
vn -0.8386651 -0.5427151 -0.0458385
vn -0.9030862 0.08934372 -0.420063
vn -0.6716356 -0.4610849 -0.5799191
vn -0.9902981 0.1224549 -0.06568474
vn -0.9837605 -0.0286921 0.1771778
vn -0.5587891 0.1602686 -0.8136761
vn -0.3847743 -0.4470652 -0.8075157
vn -0.2840869 -0.3300776 -0.9001908
vn -0.1889673 0.1704629 -0.9670749
vn 0.9058394 -0.05334801 0.4202486
vn 0.7455199 0.3590214 0.5615191
vn 0.2326671 0.2523271 0.9392534
vn 0.2591194 0.580914 0.7716191
vn 0.8300209 0.5501055 0.09191976
vn 0.8370872 0.4632154 -0.2910607
vn -0.6180881 0.7848196 0.04500429
vn -0.2214887 0.9389849 0.2631542
vn -0.2899463 0.9492123 -0.122177
vn -0.7891068 0.5903122 -0.1698288
vn -0.6007261 0.6110356 -0.5155227
vn -0.07825378 0.8709357 -0.4851261
vn -0.1789944 0.5986353 -0.7807668
vn 0.1844594 0.3893146 -0.902446
vn 0.3368656 0.6664976 -0.6650581
vn 0.6953242 0.6063198 -0.3858761
vn 0.4310098 0.867106 -0.2497154
vn 0.3153259 0.915539 0.2497157
vn -0.1772139 0.8938438 0.4118719
vn 0.3118039 0.73711 0.599539
vn -0.2417029 0.5286879 0.8136761
vn -0.2324177 0.1907882 0.95372
vn -0.7339343 0.51214 0.4461535
vn -0.8700359 -0.01336042 0.4928072
vn -0.797269 0.08255988 -0.5979517
vn -0.0962646 -0.6009439 -0.7934731
vn -0.3135495 -0.9406481 -0.1298763
vn -0.4910473 -0.6944456 0.5259449
vn -0.5510755 -0.1141313 0.8266137
vn -0.4910472 0.5259447 0.6944458
vn -0.3135495 0.9406481 0.1298763
vn -0.09626458 0.793473 -0.600944
vn 0.09626424 -0.1361383 -0.986002
vn 0.797269 -0.4811943 -0.364437
vn 0.3135494 0.573302 -0.7569753
vn 0.4910473 0.8629464 -0.119148
vn 0.5510758 0.6652071 0.5038007
vn 0.4910474 0.1191478 0.8629463
vn 0.3135495 -0.5733021 0.7569752
vn 0.09626438 -0.9860018 0.1361383

f 1//1 2//2 3//3
f 1//1 3//3 4//4
f 4//4 3//3 5//5
f 3//3 6//6 5//5
f 7//7 8//8 9//9
f 7//7 9//9 10//10
f 10//10 9//9 11//11
f 9//9 12//12 11//11
f 8//8 7//7 13//13
f 8//8 13//13 14//14
f 14//14 13//13 15//15
f 13//13 16//16 15//15
f 1//1 14//14 15//15
f 1//1 15//15 2//2
f 2//2 15//15 17//17
f 15//15 18//18 17//17
f 19//19 20//20 21//21
f 19//19 21//21 22//22
f 22//22 21//21 18//18
f 21//21 17//17 18//18
f 21//21 20//20 23//23
f 21//21 23//23 24//24
f 24//24 23//23 25//25
f 23//23 26//26 25//25
f 25//25 27//27 28//28
f 25//25 28//28 24//24
f 24//24 28//28 3//3
f 28//28 6//6 3//3
f 29//29 30//30 28//28
f 29//29 28//28 31//31
f 31//31 28//28 32//32
f 28//28 27//27 32//32
f 30//30 29//29 33//33
f 30//30 33//33 34//34
f 34//34 33//33 35//35
f 33//33 36//36 35//35
f 22//22 37//37 38//38
f 22//22 38//38 19//19
f 19//19 38//38 39//39
f 38//38 40//40 39//39
f 37//37 16//16 13//13
f 37//37 13//13 38//38
f 38//38 13//13 41//41
f 13//13 42//42 41//41
f 43//43 44//44 45//45
f 43//43 45//45 46//46
f 46//46 45//45 47//47
f 45//45 48//48 47//47
f 47//47 48//48 49//49
f 47//47 49//49 33//33
f 33//33 49//49 36//36
f 49//49 50//50 36//36
f 50//50 49//49 51//51
f 50//50 51//51 11//11
f 11//11 51//51 10//10
f 51//51 52//52 10//10
f 52//52 51//51 53//53
f 52//52 53//53 42//42
f 42//42 53//53 41//41
f 53//53 54//54 41//41
f 55//55 56//56 54//54
f 55//55 54//54 44//44
f 44//44 54//54 45//45
f 54//54 53//53 45//45
f 56//56 55//55 57//57
f 56//56 57//57 40//40
f 40//40 57//57 39//39
f 57//57 58//58 39//39
f 59//59 60//60 26//26
f 59//59 26//26 57//57
f 57//57 26//26 58//58
f 26//26 23//23 58//58
f 32//32 60//60 59//59
f 32//32 59//59 31//31
f 31//31 59//59 46//46
f 59//59 43//43 46//46
f 35//35 12//12 9//9
f 35//35 9//9 34//34
f 34//34 9//9 5//5
f 9//9 4//4 5//5
f 4//4 9//9 8//8
f 4//4 8//8 1//1
f 8//8 14//14 1//1
f 6//6 28//28 30//30
f 6//6 30//30 5//5
f 30//30 34//34 5//5
f 3//3 2//2 17//17
f 3//3 17//17 24//24
f 17//17 21//21 24//24
f 22//22 18//18 15//15
f 22//22 15//15 37//37
f 15//15 16//16 37//37
f 51//51 49//49 48//48
f 51//51 48//48 53//53
f 48//48 45//45 53//53
f 56//56 40//40 38//38
f 56//56 38//38 54//54
f 38//38 41//41 54//54
f 44//44 43//43 59//59
f 44//44 59//59 55//55
f 59//59 57//57 55//55
f 47//47 33//33 29//29
f 47//47 29//29 46//46
f 29//29 31//31 46//46
f 10//10 52//52 42//42
f 10//10 42//42 7//7
f 42//42 13//13 7//7
f 12//12 35//35 36//36
f 12//12 36//36 11//11
f 36//36 50//50 11//11
f 32//32 27//27 25//25
f 32//32 25//25 60//60
f 25//25 26//26 60//60
f 58//58 23//23 20//20
f 58//58 20//20 39//39
f 20//20 19//19 39//39
f 61//61 62//62 63//63
f 61//61 63//63 64//64
f 64//64 63//63 65//65
f 63//63 66//66 65//65
f 67//67 68//68 69//69
f 67//67 69//69 70//70
f 70//70 69//69 71//71
f 69//69 72//72 71//71
f 68//68 67//67 73//73
f 68//68 73//73 74//74
f 74//74 73//73 75//75
f 73//73 76//76 75//75
f 61//61 74//74 75//75
f 61//61 75//75 62//62
f 62//62 75//75 77//77
f 75//75 78//78 77//77
f 79//79 80//80 81//81
f 79//79 81//81 82//82
f 82//82 81//81 78//78
f 81//81 77//77 78//78
f 81//81 80//80 83//83
f 81//81 83//83 84//84
f 84//84 83//83 85//85
f 83//83 86//86 85//85
f 85//85 87//87 88//88
f 85//85 88//88 84//84
f 84//84 88//88 63//63
f 88//88 66//66 63//63
f 89//89 90//90 88//88
f 89//89 88//88 91//91
f 91//91 88//88 92//92
f 88//88 87//87 92//92
f 90//90 89//89 93//93
f 90//90 93//93 94//94
f 94//94 93//93 95//95
f 93//93 96//96 95//95
f 82//82 97//97 98//98
f 82//82 98//98 79//79
f 79//79 98//98 99//99
f 98//98 100//100 99//99
f 97//97 76//76 73//73
f 97//97 73//73 98//98
f 98//98 73//73 101//101
f 73//73 102//102 101//101
f 103//103 104//104 105//105
f 103//103 105//105 106//106
f 106//106 105//105 107//107
f 105//105 108//108 107//107
f 107//107 108//108 109//109
f 107//107 109//109 93//93
f 93//93 109//109 96//96
f 109//109 110//110 96//96
f 110//110 109//109 111//111
f 110//110 111//111 71//71
f 71//71 111//111 70//70
f 111//111 112//112 70//70
f 112//112 111//111 113//113
f 112//112 113//113 102//102
f 102//102 113//113 101//101
f 113//113 114//114 101//101
f 115//115 116//116 114//114
f 115//115 114//114 104//104
f 104//104 114//114 105//105
f 114//114 113//113 105//105
f 116//116 115//115 117//117
f 116//116 117//117 100//100
f 100//100 117//117 99//99
f 117//117 118//118 99//99
f 119//119 120//120 86//86
f 119//119 86//86 117//117
f 117//117 86//86 118//118
f 86//86 83//83 118//118
f 92//92 120//120 119//119
f 92//92 119//119 91//91
f 91//91 119//119 106//106
f 119//119 103//103 106//106
f 95//95 72//72 69//69
f 95//95 69//69 94//94
f 94//94 69//69 65//65
f 69//69 64//64 65//65
f 64//64 69//69 68//68
f 64//64 68//68 61//61
f 68//68 74//74 61//61
f 66//66 88//88 90//90
f 66//66 90//90 65//65
f 90//90 94//94 65//65
f 63//63 62//62 77//77
f 63//63 77//77 84//84
f 77//77 81//81 84//84
f 82//82 78//78 75//75
f 82//82 75//75 97//97
f 75//75 76//76 97//97
f 111//111 109//109 108//108
f 111//111 108//108 113//113
f 108//108 105//105 113//113
f 116//116 100//100 98//98
f 116//116 98//98 114//114
f 98//98 101//101 114//114
f 104//104 103//103 119//119
f 104//104 119//119 115//115
f 119//119 117//117 115//115
f 107//107 93//93 89//89
f 107//107 89//89 106//106
f 89//89 91//91 106//106
f 70//70 112//112 102//102
f 70//70 102//102 67//67
f 102//102 73//73 67//67
f 72//72 95//95 96//96
f 72//72 96//96 71//71
f 96//96 110//110 71//71
f 92//92 87//87 85//85
f 92//92 85//85 120//120
f 85//85 86//86 120//120
f 118//118 83//83 80//80
f 118//118 80//80 99//99
f 80//80 79//79 99//99
f 121//121 122//122 123//123
f 121//121 123//123 124//124
f 121//121 124//124 125//125
f 121//121 125//125 126//126
f 121//121 126//126 127//127
f 121//121 127//127 128//128
f 122//122 121//121 129//129
f 122//122 129//129 130//130
f 121//121 128//128 131//131
f 121//121 131//131 129//129
f 128//128 127//127 132//132
f 128//128 132//132 131//131
f 127//127 126//126 133//133
f 127//127 133//133 132//132
f 126//126 125//125 134//134
f 126//126 134//134 133//133
f 125//125 124//124 135//135
f 125//125 135//135 134//134
f 124//124 123//123 136//136
f 124//124 136//136 135//135
f 123//123 122//122 130//130
f 123//123 130//130 136//136
f 130//130 129//129 131//131
f 130//130 131//131 132//132
f 130//130 132//132 133//133
f 130//130 133//133 134//134
f 130//130 134//134 135//135
f 130//130 135//135 136//136
