v 455.6232 70.05989 -145.1018
v 343.5028 29.28044 -31.03951
v 455.6232 70.05989 -145.1018
v 455.6232 70.05989 -145.1018
v 455.7104 66.67162 -146.2275
v 455.7452 65.31631 -146.6777
v 455.7452 65.31631 -146.6777
v 343.6249 24.53686 -32.61545
v 231.5046 -16.24259 81.44685
v 455.9147 65.18179 -146.5593
v 233.0298 -17.45324 82.51333
v 455.9358 65.16508 -146.5445
v 233.2194 -17.60368 82.64585
v 455.9417 65.16039 -146.5404
v 233.2726 -17.64591 82.68306
v 456.0081 65.10764 -146.4939
v 233.8707 -18.12061 83.10122
v 456.8274 64.45736 -145.9211
v 233.9617 -18.19286 83.16487
v 457.6042 63.84081 -145.378
v 457.6935 63.76988 -145.3155
v 234.0579 -18.26925 83.23216
v 457.8799 63.62194 -145.1852
v 234.0786 -18.28568 83.24664
v 458.3742 63.22963 -144.8396
v 234.1335 -18.32928 83.28504
v 458.4359 63.03585 -144.8482
v 234.4734 -19.3963 83.23766
v 234.6891 -20.07327 83.2076
v 458.4512 62.98778 -144.8503
v 234.8269 -20.50598 83.18839
v 458.4558 62.97346 -144.8509
v 234.8679 -20.63476 83.18267
v 458.4902 62.86533 -144.8557
v 235.178 -21.60803 83.13945
v 458.8854 61.62466 -144.9108
v 235.2219 -21.74588 83.13333
v 459.2119 60.59968 -144.9563
v 235.2581 -21.85977 83.12827
v 459.5347 59.58657 -145.0013
v 235.294 -21.97233 83.12328
v 459.5042 59.49198 -145.0651
v 235.0197 -22.82368 82.54922
v 459.4359 59.28004 -145.208
v 234.4049 -24.73117 81.26302
v 459.2453 58.68874 -145.6067
v 459.1691 58.45228 -145.7662
v 234.3753 -24.82314 81.201
v 458.9093 57.64597 -146.3099
v 234.3464 -24.91274 81.14059
v 458.6953 56.98205 -146.7575
v 234.3227 -24.98651 81.09084
v 458.5468 56.52119 -147.0683
v 234.3062 -25.03771 81.05632
v 234.3062 -25.03771 81.05632
v 458.3948 56.48006 -147.2324
v 232.9382 -25.40788 79.57928
v 458.3501 56.46796 -147.2807
v 232.5355 -25.51684 79.14452
v 458.3455 56.46672 -147.2856
v 232.4944 -25.52796 79.10014
v 458.3434 56.46615 -147.2879
v 232.4754 -25.53312 79.07956
v 458.3407 56.46542 -147.2908
v 232.4513 -25.53964 79.05355
v 458.2911 56.45199 -147.3444
v 232.0044 -25.66055 78.5711
v 455.9893 55.82915 -149.8296
v 231.7487 -25.72975 78.29497
v 455.9893 55.82915 -149.8296
v 231.7487 -25.72975 78.29497
v 455.9893 55.82915 -149.8296
v 455.9893 55.82915 -149.8296
v 456.0242 54.47385 -150.2799
v 456.1114 51.08558 -151.4056
v 456.1114 51.08558 -151.4056
v 456.1114 51.08558 -151.4056
v 455.9893 55.82915 -149.8296
v 455.9893 55.82915 -149.8296
v 455.9893 55.82915 -149.8296
v 231.7487 -25.72975 78.29497
v 231.7487 -25.72975 78.29497
v 231.7487 -25.72975 78.29497
v 455.9893 55.82915 -149.8296
v 461.2263 52.46966 -145.8829
v 455.9893 55.82915 -149.8296
v 231.7487 -25.72975 78.29497
v 455.9893 55.82915 -149.8296
v 343.869 15.0497 -35.76733
v 231.7487 -25.72975 78.29497
v 343.9911 10.30612 -37.34327
v 231.7488 -25.72971 78.29485
v 231.7487 -25.72975 78.29497
v 231.7836 -27.08506 77.8447
v 236.9857 -29.08924 82.24171
v 231.7487 -25.72975 78.29497
v 461.2263 52.46966 -145.8829
v 231.8707 -30.47333 76.71902
v 236.9857 -29.08924 82.24171
v 234.3062 -25.03771 81.05632
v 234.3062 -25.03771 81.05632
v 343.5028 29.28044 -31.03951
v 455.6232 70.05989 -145.1018
v 455.6232 70.05989 -145.1018
v 455.7104 66.67162 -146.2275
v 343.6249 24.53686 -32.61545
v 455.7452 65.31631 -146.6777
v 231.454 -14.27774 82.09963
v 231.3825 -11.49901 83.0228
v 231.5046 -16.24259 81.44685
v 455.6232 70.05989 -145.1018
v 460.8811 65.88653 -141.4254
v 463.202 58.60042 -141.749
v 458.3742 63.22963 -144.8396
v 457.8799 63.62194 -145.1852
v 457.6935 63.76988 -145.3155
v 457.6042 63.84081 -145.378
v 456.8274 64.45736 -145.9211
v 456.0081 65.10764 -146.4939
v 455.9417 65.16039 -146.5404
v 455.9358 65.16508 -146.5445
v 455.9147 65.18179 -146.5593
v 455.7452 65.31631 -146.6777
v 458.4359 63.03585 -144.8482
v 458.4512 62.98778 -144.8503
v 458.4558 62.97346 -144.8509
v 458.4902 62.86533 -144.8557
v 458.8854 61.62466 -144.9108
v 459.2119 60.59968 -144.9563
v 459.5347 59.58657 -145.0013
v 459.5042 59.49198 -145.0651
v 459.4359 59.28004 -145.208
v 459.2453 58.68874 -145.6067
v 461.2263 52.46966 -145.8829
v 459.1691 58.45228 -145.7662
v 458.9093 57.64597 -146.3099
v 458.6953 56.98205 -146.7575
v 458.5468 56.52119 -147.0683
v 458.3948 56.48006 -147.2324
v 458.3501 56.46796 -147.2807
v 458.3455 56.46672 -147.2856
v 458.3434 56.46615 -147.2879
v 458.3407 56.46542 -147.2908
v 458.2911 56.45199 -147.3444
v 455.9893 55.82915 -149.8296
v 455.9893 55.82915 -149.8296
v 455.9893 55.82915 -149.8296
v 456.1114 51.08558 -151.4056
v 455.6232 70.05989 -145.1018
v 236.6405 -15.67237 86.69915
v 460.8811 65.88653 -141.4254
v 343.5028 29.28044 -31.03951
v 238.9614 -22.95848 86.37563
v 463.202 58.60042 -141.749
v 236.9857 -29.08924 82.24171
v 461.2263 52.46966 -145.8829
v 231.3825 -11.49901 83.0228
v 456.1114 51.08558 -151.4056
v 343.869 15.0497 -35.76733
v 455.9893 55.82915 -149.8296
v 343.9911 10.30612 -37.34327
v 231.7488 -25.72971 78.29485
v 231.8707 -30.47333 76.71902
v 231.7836 -27.08506 77.8447
v 231.7487 -25.72975 78.29497
v 231.5046 -16.24259 81.44685
v 236.6405 -15.67237 86.69915
v 231.454 -14.27774 82.09963
v 236.6405 -15.67237 86.69915
v 231.3825 -11.49901 83.0228
v 231.5046 -16.24259 81.44685
v 233.0298 -17.45324 82.51333
v 231.5046 -16.24259 81.44685
v 233.2194 -17.60368 82.64585
v 233.2726 -17.64591 82.68306
v 233.8707 -18.12061 83.10122
v 233.9617 -18.19286 83.16487
v 234.0579 -18.26925 83.23216
v 234.0786 -18.28568 83.24664
v 234.1335 -18.32928 83.28504
v 238.9614 -22.95848 86.37563
v 234.4734 -19.3963 83.23766
v 234.6891 -20.07327 83.2076
v 234.8269 -20.50598 83.18839
v 234.8679 -20.63476 83.18267
v 235.178 -21.60803 83.13945
v 235.2219 -21.74588 83.13333
v 235.2581 -21.85977 83.12827
v 235.294 -21.97233 83.12328
v 235.0197 -22.82368 82.54922
v 234.4049 -24.73117 81.26302
v 234.3753 -24.82314 81.201
v 234.3464 -24.91274 81.14059
v 234.3227 -24.98651 81.09084
v 234.3062 -25.03771 81.05632
v 236.9857 -29.08924 82.24171
v 234.3062 -25.03771 81.05632
v 232.9382 -25.40788 79.57928
v 232.5355 -25.51684 79.14452
v 232.4944 -25.52796 79.10014
v 232.4754 -25.53312 79.07956
v 232.4513 -25.53964 79.05355
v 232.0044 -25.66055 78.5711
v 231.7487 -25.72975 78.29497
v 231.7836 -27.08506 77.8447
v 231.7487 -25.72975 78.29497
v 231.8707 -30.47333 76.71902

vn -0.02441058 0.9487153 0.3151881
vn -0.02441068 0.9487153 0.3151882
vn 0.4235344 0.8811037 -0.2104164
vn 0.6792784 0.2470614 -0.6910439
vn 0.6792784 0.2470614 -0.6910439
vn -0.2581392 -0.8010186 -0.5401236
vn 0.1202298 -0.9042406 -0.4097488
vn -0.7066584 -0.03388907 -0.7067428
vn -0.2581362 -0.8010212 -0.5401212
vn -0.2581356 -0.8010217 -0.5401208
vn -0.2581359 -0.8010215 -0.540121
vn -0.2581367 -0.801021 -0.5401214
vn -0.2581374 -0.8010203 -0.5401219
vn -0.2581331 -0.8010234 -0.5401195
vn -0.2581351 -0.8010219 -0.5401206
vn -0.2581355 -0.8010216 -0.5401208
vn -0.2581355 -0.8010218 -0.5401208
vn -0.2581354 -0.8010218 -0.5401207
vn -0.2581356 -0.8010216 -0.5401209
vn -0.2581354 -0.8010219 -0.5401207
vn -0.2581362 -0.8010212 -0.5401213
vn -0.2581373 -0.8010203 -0.540122
vn -0.2581357 -0.8010215 -0.540121
vn -0.2581351 -0.801022 -0.5401206
vn -0.3588019 -0.7096122 -0.6063927
vn -0.655339 -0.2196235 -0.7227008
vn -0.6683014 -0.1808373 -0.7215756
vn -0.668301 -0.1808381 -0.7215756
vn -0.668301 -0.1808384 -0.7215757
vn -0.6683003 -0.1808403 -0.7215759
vn -0.6682998 -0.1808416 -0.721576
vn -0.6682991 -0.1808431 -0.7215762
vn -0.6683002 -0.1808405 -0.7215759
vn -0.6683006 -0.1808394 -0.7215757
vn -0.6683009 -0.1808389 -0.7215757
vn -0.6683009 -0.1808388 -0.7215756
vn -0.6683005 -0.1808398 -0.7215757
vn -0.6683008 -0.1808392 -0.7215757
vn -0.6683012 -0.1808381 -0.7215756
vn -0.6868107 -0.1177889 -0.7172287
vn -0.7025184 0.4912381 -0.5149304
vn -0.6869843 0.5452746 -0.4803418
vn -0.6869841 0.5452754 -0.4803413
vn -0.6869839 0.545276 -0.4803409
vn -0.6869839 0.545276 -0.4803408
vn -0.6869839 0.5452756 -0.4803411
vn -0.6869841 0.5452752 -0.4803415
vn -0.686984 0.5452756 -0.4803412
vn -0.6869841 0.5452753 -0.4803414
vn -0.6869839 0.5452755 -0.4803412
vn -0.686984 0.5452756 -0.4803413
vn -0.6869841 0.5452752 -0.4803415
vn -0.6226428 0.6924365 -0.3644828
vn -0.6869901 0.5452566 -0.480354
vn -0.3032416 0.9519758 0.04227056
vn -0.3032407 0.9519759 0.04227152
vn -0.3032405 0.9519761 0.04227187
vn -0.3032397 0.9519762 0.04227281
vn -0.303241 0.9519759 0.04227119
vn -0.3032419 0.9519758 0.04226983
vn -0.3032435 0.9519752 0.04226765
vn -0.30327 0.9519684 0.04223113
vn -0.3032534 0.9519727 0.04225408
vn -0.3032367 0.9519771 0.04227697
vn -0.3032391 0.9519764 0.04227373
vn -0.3032408 0.9519759 0.04227142
vn -0.3032412 0.9519758 0.04227096
vn -0.3032414 0.9519758 0.04227076
vn -0.3032448 0.9519749 0.04226719
vn -0.4109076 0.9082302 -0.07920214
vn -0.02441081 0.9487152 0.3151883
vn -0.02441081 0.9487152 0.3151883
vn -0.02441081 0.9487152 0.3151883
vn 0.6792784 0.2470614 -0.6910439
vn 0.3032409 -0.9519759 -0.04227114
vn 0.6792784 0.2470614 -0.6910439
vn -0.7240819 0.07226352 -0.6859181
vn 0.5006642 0.8040198 -0.320761
vn 0.5474812 0.7385841 -0.393393
vn 0.02391294 0.9638711 0.2652938
vn -0.02441081 0.9487152 0.3151883
vn -0.02441081 0.9487152 0.3151883
vn -0.02441081 0.9487152 0.3151883
vn 0.04568652 0.969117 0.2423325
vn 0.6792784 0.2470614 -0.6910439
vn -0.01581125 0.9517689 0.3064085
vn -0.02441081 0.9487152 0.3151883
vn 0.07189898 0.9741199 0.2142922
vn -0.02440595 0.9487139 0.3151926
vn -0.06514727 0.9321684 0.3561153
vn 0.3032409 -0.9519759 -0.04227117
vn -0.02439347 0.9487106 0.3152037
vn -0.6792786 -0.2470548 0.6910461
vn -0.6792784 -0.2470614 0.6910439
vn -0.6792781 -0.2470615 0.6910442
vn 0 0 0
vn 0.303241 -0.9519759 -0.04227113
vn 0.303241 -0.9519759 -0.04227118
vn 0.303241 -0.951976 -0.04227116
vn -0.6792781 -0.2470615 0.6910442
vn -0.6792781 -0.2470615 0.6910442
vn -0.7334747 0.1972316 -0.6504726
vn -0.7334747 0.1972316 -0.6504726
vn -0.7334747 0.1972316 -0.6504726
vn -0.7334747 0.1972316 -0.6504726
vn -0.7334747 0.1972316 -0.6504726
vn -0.7334747 0.1972316 -0.6504726
vn -0.7334747 0.1972316 -0.6504726
vn -0.7334747 0.1972316 -0.6504726
vn -0.7334747 0.1972316 -0.6504726
vn 0.6792784 0.2470614 -0.6910439
vn 0.6792784 0.2470614 -0.6910439
vn 0.6792784 0.2470614 -0.6910439
vn 0.6792784 0.2470614 -0.6910439
vn 0.6792784 0.2470614 -0.6910439
vn 0.6792784 0.2470614 -0.6910439
vn 0.6792784 0.2470614 -0.6910439
vn 0.6792784 0.2470614 -0.6910439
vn 0.6792784 0.2470614 -0.6910439
vn 0.6792784 0.2470614 -0.6910439
vn 0.6792784 0.2470614 -0.6910439
vn 0.6792784 0.2470614 -0.6910439
vn 0.6792784 0.2470614 -0.6910439
vn 0.6792784 0.2470614 -0.6910438
vn 0.6792784 0.2470614 -0.6910439
vn 0.6792784 0.2470614 -0.6910439
vn 0.6792784 0.2470614 -0.6910438
vn 0.6792784 0.2470614 -0.6910439
vn 0.6792784 0.2470614 -0.6910439
vn 0.6792784 0.2470614 -0.6910439
vn 0.6792784 0.2470614 -0.6910438
vn 0.6792784 0.2470614 -0.6910439
vn 0.6792784 0.2470614 -0.6910439
vn 0.6792784 0.2470614 -0.6910439
vn 0.6792784 0.2470614 -0.6910439
vn 0.6792784 0.2470614 -0.6910439
vn 0.6792784 0.2470614 -0.6910439
vn 0.6792784 0.2470614 -0.6910439
vn 0.6792784 0.2470614 -0.6910439
vn 0.6792784 0.2470614 -0.6910439
vn 0.6792784 0.2470614 -0.6910439
vn 0.6792784 0.2470614 -0.6910438
vn 0.6792784 0.2470614 -0.6910439
vn 0.6792784 0.2470614 -0.6910438
vn 0.6792784 0.2470614 -0.6910438
vn 0.6792784 0.2470614 -0.6910439
vn 0.6792784 0.2470614 -0.6910438
vn 0.6792784 0.2470614 -0.6910438
vn 0.2581359 0.8010215 0.540121
vn 0.4233743 0.6372141 0.6439819
vn 0.56997 0.4155568 0.7088349
vn 0.2581359 0.8010213 0.540121
vn 0.7232431 -0.0656189 0.6874692
vn 0.7299206 -0.3251373 0.6012504
vn 0.6869839 -0.5452756 0.4803411
vn 0.6869839 -0.5452756 0.4803412
vn 0.2581358 0.8010215 0.540121
vn -0.7334747 0.1972316 -0.6504726
vn -0.7334747 0.1972316 -0.6504726
vn -0.7334747 0.1972316 -0.6504726
vn -0.7334747 0.1972316 -0.6504726
vn -0.7334747 0.1972316 -0.6504726
vn -0.7334747 0.1972316 -0.6504726
vn -0.7334747 0.1972316 -0.6504726
vn -0.7334747 0.1972316 -0.6504726
vn -0.1138562 -0.9791052 -0.1684928
vn -0.6792784 -0.2470607 0.6910441
vn -0.6792783 -0.2470614 0.691044
vn -0.6792783 -0.2470613 0.691044
vn -0.6792783 -0.2470614 0.691044
vn -0.6792783 -0.2470614 0.691044
vn -0.6792784 -0.2470611 0.691044
vn -0.6792784 -0.2470611 0.691044
vn -0.6792784 -0.2470611 0.691044
vn -0.6792784 -0.2470611 0.691044
vn -0.6792784 -0.2470611 0.691044
vn -0.6792783 -0.2470611 0.691044
vn -0.6792784 -0.2470611 0.691044
vn -0.6792783 -0.2470611 0.691044
vn -0.6792782 -0.2470613 0.6910441
vn -0.6792782 -0.2470615 0.691044
vn -0.6792782 -0.2470613 0.6910441
vn -0.6792782 -0.2470613 0.6910441
vn -0.6792782 -0.2470613 0.6910441
vn -0.6792782 -0.2470613 0.6910441
vn -0.6792782 -0.2470613 0.6910441
vn -0.6792782 -0.2470613 0.6910441
vn -0.6792782 -0.2470613 0.6910441
vn -0.6792782 -0.2470616 0.691044
vn -0.6792782 -0.2470616 0.691044
vn -0.6792782 -0.2470616 0.691044
vn -0.6792782 -0.2470616 0.691044
vn -0.6792782 -0.2470616 0.691044
vn -0.6792782 -0.2470616 0.691044
vn -0.6792782 -0.2470616 0.691044
vn -0.6792783 -0.2470616 0.691044
vn -0.6792783 -0.2470617 0.6910439
vn -0.6792783 -0.2470617 0.6910439
vn -0.6792783 -0.2470617 0.6910439
vn -0.6792783 -0.2470617 0.6910439
vn -0.6792783 -0.2470617 0.6910439
vn -0.6792783 -0.2470617 0.6910439
vn -0.6792783 -0.2470617 0.6910439
vn -0.6792783 -0.2470617 0.6910438
vn -0.6792783 -0.2470614 0.691044
vn -0.6792783 -0.2470614 0.691044
vn -0.6792783 -0.2470614 0.691044

f 1//1 2//2 3//3
f 4//4 1//1 3//3
f 3//3 5//5 4//4
f 3//3 6//6 5//5
f 5//5 6//6 7//7
f 8//8 7//7 6//6
f 9//9 8//8 6//6
f 10//10 9//9 6//6
f 9//9 10//10 11//11
f 11//11 10//10 12//12
f 13//13 11//11 12//12
f 13//13 12//12 14//14
f 13//13 14//14 15//15
f 15//15 14//14 16//16
f 15//15 16//16 17//17
f 18//18 17//17 16//16
f 19//19 17//17 18//18
f 19//19 18//18 20//20
f 21//21 19//19 20//20
f 22//22 19//19 21//21
f 22//22 21//21 23//23
f 24//24 22//22 23//23
f 24//24 23//23 25//25
f 26//26 24//24 25//25
f 26//26 25//25 27//27
f 28//28 26//26 27//27
f 28//28 27//27 29//29
f 29//29 27//27 30//30
f 31//31 29//29 30//30
f 31//31 30//30 32//32
f 33//33 31//31 32//32
f 33//33 32//32 34//34
f 35//35 33//33 34//34
f 35//35 34//34 36//36
f 37//37 35//35 36//36
f 37//37 36//36 38//38
f 39//39 37//37 38//38
f 39//39 38//38 40//40
f 41//41 39//39 40//40
f 41//41 40//40 42//42
f 41//41 42//42 43//43
f 43//43 42//42 44//44
f 45//45 43//43 44//44
f 45//45 44//44 46//46
f 47//47 45//45 46//46
f 48//48 45//45 47//47
f 48//48 47//47 49//49
f 50//50 48//48 49//49
f 50//50 49//49 51//51
f 52//52 50//50 51//51
f 52//52 51//51 53//53
f 54//54 52//52 53//53
f 55//55 54//54 53//53
f 55//55 53//53 56//56
f 55//55 56//56 57//57
f 57//57 56//56 58//58
f 57//57 58//58 59//59
f 59//59 58//58 60//60
f 59//59 60//60 61//61
f 61//61 60//60 62//62
f 61//61 62//62 63//63
f 63//63 62//62 64//64
f 63//63 64//64 65//65
f 65//65 64//64 66//66
f 65//65 66//66 67//67
f 68//68 67//67 66//66
f 69//69 67//67 68//68
f 69//69 68//68 70//70
f 71//71 69//69 70//70
f 72//72 71//71 73//73
f 74//74 75//75 76//76
f 77//77 74//74 76//76
f 75//75 77//77 76//76
f 78//78 75//75 74//74
f 79//79 75//75 78//78
f 78//78 74//74 80//80
f 81//81 78//78 80//80
f 82//82 78//78 81//81
f 82//82 83//83 78//78
f 83//83 84//84 79//79
f 84//84 85//85 79//79
f 80//80 74//74 86//86
f 87//87 80//80 86//86
f 81//81 80//80 87//87
f 86//86 74//74 88//88
f 88//88 74//74 77//77
f 86//86 88//88 89//89
f 90//90 86//86 89//89
f 87//87 86//86 90//90
f 75//75 91//91 77//77
f 90//90 89//89 92//92
f 90//90 92//92 93//93
f 94//94 90//90 93//93
f 95//95 83//83 82//82
f 95//95 82//82 81//81
f 95//95 81//81 87//87
f 95//95 87//87 90//90
f 95//95 96//96 83//83
f 97//97 91//91 75//75
f 97//97 98//98 91//91
f 97//97 99//99 98//98
f 100//100 95//95 101//101
f 102//102 103//103 104//104
f 102//102 104//104 105//105
f 102//102 105//105 106//106
f 106//106 105//105 107//107
f 108//108 102//102 106//106
f 109//109 102//102 108//108
f 110//110 108//108 106//106
f 111//111 112//112 113//113
f 111//111 113//113 114//114
f 111//111 114//114 115//115
f 111//111 115//115 116//116
f 111//111 116//116 117//117
f 117//117 118//118 111//111
f 118//118 119//119 111//111
f 120//120 111//111 119//119
f 120//120 121//121 111//111
f 121//121 122//122 111//111
f 111//111 122//122 123//123
f 114//114 113//113 124//124
f 124//124 113//113 125//125
f 125//125 113//113 126//126
f 126//126 113//113 127//127
f 127//127 113//113 128//128
f 128//128 113//113 129//129
f 129//129 113//113 130//130
f 130//130 113//113 131//131
f 131//131 113//113 132//132
f 132//132 113//113 133//133
f 133//133 113//113 134//134
f 133//133 134//134 135//135
f 135//135 134//134 136//136
f 134//134 137//137 136//136
f 137//137 134//134 138//138
f 138//138 134//134 139//139
f 139//139 134//134 140//140
f 140//140 134//134 141//141
f 134//134 142//142 141//141
f 134//134 143//143 142//142
f 134//134 144//144 143//143
f 144//144 134//134 145//145
f 145//145 134//134 146//146
f 147//147 134//134 148//148
f 149//149 150//150 151//151
f 149//149 152//152 150//150
f 151//151 150//150 153//153
f 151//151 153//153 154//154
f 154//154 153//153 155//155
f 154//154 155//155 156//156
f 152//152 157//157 150//150
f 158//158 159//159 160//160
f 161//161 159//159 158//158
f 162//162 159//159 161//161
f 163//163 162//162 161//161
f 164//164 162//162 163//163
f 165//165 162//162 164//164
f 9//9 166//166 8//8
f 166//166 9//9 167//167
f 168//168 169//169 170//170
f 168//168 171//171 169//169
f 172//172 169//169 173//173
f 174//174 169//169 172//172
f 169//169 174//174 175//175
f 176//176 169//169 175//175
f 177//177 169//169 176//176
f 178//178 169//169 177//177
f 178//178 179//179 169//169
f 179//179 180//180 169//169
f 180//180 181//181 169//169
f 182//182 181//181 180//180
f 182//182 183//183 181//181
f 183//183 184//184 181//181
f 184//184 185//185 181//181
f 185//185 186//186 181//181
f 186//186 187//187 181//181
f 187//187 188//188 181//181
f 188//188 189//189 181//181
f 181//181 189//189 190//190
f 181//181 190//190 191//191
f 192//192 181//181 191//191
f 193//193 181//181 192//192
f 194//194 181//181 193//193
f 195//195 181//181 194//194
f 195//195 196//196 181//181
f 196//196 197//197 198//198
f 196//196 198//198 199//199
f 199//199 200//200 196//196
f 196//196 200//200 201//201
f 201//201 202//202 196//196
f 196//196 202//202 203//203
f 196//196 203//203 204//204
f 205//205 196//196 206//206
f 207//207 196//196 205//205
