v 126.5141 137.6398 -438.6921
v 16.57185 96.28834 -322.7314
v 126.5141 137.6398 -438.6921
v 126.5141 137.6398 -438.6921
v 126.4055 141.0335 -437.5848
v 126.3621 142.391 -437.1419
v 126.3621 142.391 -437.1419
v 16.4199 101.0395 -321.1812
v -93.52232 59.6881 -205.2204
v 126.1894 142.5229 -437.2587
v -95.07684 60.87528 -206.2709
v 126.1679 142.5393 -437.2732
v -95.27002 61.0228 -206.4014
v 126.1619 142.5439 -437.2772
v -95.32425 61.06422 -206.4381
v 126.0942 142.5956 -437.323
v -95.93378 61.52971 -206.85
v 125.2592 143.2333 -437.8873
v -96.02655 61.60057 -206.9127
v 124.4675 143.8379 -438.4222
v 124.3764 143.9074 -438.4838
v -96.12463 61.67547 -206.9789
v 124.1865 144.0525 -438.6122
v -96.14574 61.69159 -206.9932
v 123.6827 144.4372 -438.9526
v -96.20171 61.73434 -207.031
v 123.6189 144.6303 -438.9442
v -96.55284 62.79776 -206.9847
v -96.77562 63.47245 -206.9554
v 123.6031 144.6783 -438.9421
v -96.91801 63.9037 -206.9366
v 123.5984 144.6925 -438.9415
v -96.9604 64.03204 -206.931
v 123.5628 144.8003 -438.9368
v -97.28069 65.00203 -206.8887
v 123.1546 146.0368 -438.8829
v -97.32605 65.13942 -206.8828
v 122.8172 147.0583 -438.8384
v -97.36353 65.25291 -206.8778
v 122.4839 148.068 -438.7945
v -97.40056 65.3651 -206.8729
v 122.5142 148.1633 -438.7317
v -97.12729 66.22285 -206.308
v 122.5823 148.3768 -438.5911
v -96.515 68.1447 -205.0421
v 122.7721 148.9726 -438.1987
v 122.848 149.2108 -438.0417
v -96.48547 68.23737 -204.9811
v 123.1068 150.0232 -437.5067
v -96.45671 68.32763 -204.9216
v 123.3199 150.6921 -437.0661
v -96.43304 68.40195 -204.8727
v 123.4678 151.1564 -436.7603
v -96.4166 68.45354 -204.8387
v -96.4166 68.45354 -204.8387
v 123.6218 151.2002 -436.5987
v -95.03101 68.84773 -203.3845
v 123.6671 151.2131 -436.5511
v -94.62317 68.96376 -202.9564
v 123.6717 151.2144 -436.5463
v -94.58154 68.9756 -202.9127
v 123.6739 151.215 -436.544
v -94.56224 68.98109 -202.8925
v 123.6766 151.2158 -436.5412
v -94.53783 68.98804 -202.8669
v 123.7269 151.2301 -436.4884
v -94.08525 69.11679 -202.3918
v 126.0582 151.8934 -434.0415
v -93.82622 69.19049 -202.12
v 126.0582 151.8934 -434.0415
v -93.82622 69.19049 -202.12
v 126.0582 151.8934 -434.0415
v 126.0582 151.8934 -434.0415
v 126.0148 153.2508 -433.5986
v 125.9063 156.6445 -432.4913
v 125.9063 156.6445 -432.4913
v 125.9063 156.6445 -432.4913
v 126.0582 151.8934 -434.0415
v 126.0582 151.8934 -434.0415
v 126.0582 151.8934 -434.0415
v -93.82622 69.19049 -202.12
v -93.82622 69.19049 -202.12
v -93.82622 69.19049 -202.12
v 126.0582 151.8934 -434.0415
v 120.7255 155.1707 -437.9288
v 126.0582 151.8934 -434.0415
v -93.82622 69.19049 -202.12
v 126.0582 151.8934 -434.0415
v 16.11599 110.5419 -318.0807
v -93.82622 69.19049 -202.12
v 15.96404 115.2931 -316.5305
v -93.82611 69.19053 -202.1201
v -93.82622 69.19049 -202.12
v -93.86963 70.54797 -201.6771
v -99.15892 72.4678 -206.0072
v -93.82622 69.19049 -202.12
v 120.7255 155.1707 -437.9288
v -93.97816 73.94168 -200.5698
v -99.15892 72.4678 -206.0072
v -96.4166 68.45354 -204.8387
v -96.4166 68.45354 -204.8387
v 16.57185 96.28834 -322.7314
v 126.5141 137.6398 -438.6921
v 126.5141 137.6398 -438.6921
v 126.4055 141.0335 -437.5848
v 16.4199 101.0395 -321.1812
v 126.3621 142.391 -437.1419
v -93.45938 57.72009 -205.8625
v -93.37036 54.9369 -206.7706
v -93.52232 59.6881 -205.2204
v 126.5141 137.6398 -438.6921
v 121.1553 141.7323 -442.3134
v 118.7576 148.9938 -441.9973
v 123.6827 144.4372 -438.9526
v 124.1865 144.0525 -438.6122
v 124.3764 143.9074 -438.4838
v 124.4675 143.8379 -438.4222
v 125.2592 143.2333 -437.8873
v 126.0942 142.5956 -437.323
v 126.1619 142.5439 -437.2772
v 126.1679 142.5393 -437.2732
v 126.1894 142.5229 -437.2587
v 126.3621 142.391 -437.1419
v 123.6189 144.6303 -438.9442
v 123.6031 144.6783 -438.9421
v 123.5984 144.6925 -438.9415
v 123.5628 144.8003 -438.9368
v 123.1546 146.0368 -438.8829
v 122.8172 147.0583 -438.8384
v 122.4839 148.068 -438.7945
v 122.5142 148.1633 -438.7317
v 122.5823 148.3768 -438.5911
v 122.7721 148.9726 -438.1987
v 120.7255 155.1707 -437.9288
v 122.848 149.2108 -438.0417
v 123.1068 150.0232 -437.5067
v 123.3199 150.6921 -437.0661
v 123.4678 151.1564 -436.7603
v 123.6218 151.2002 -436.5987
v 123.6671 151.2131 -436.5511
v 123.6717 151.2144 -436.5463
v 123.6739 151.215 -436.544
v 123.6766 151.2158 -436.5412
v 123.7269 151.2301 -436.4884
v 126.0582 151.8934 -434.0415
v 126.0582 151.8934 -434.0415
v 126.0582 151.8934 -434.0415
v 125.9063 156.6445 -432.4913
v 126.5141 137.6398 -438.6921
v -98.72914 59.02939 -210.3919
v 121.1553 141.7323 -442.3134
v 16.57185 96.28834 -322.7314
v -101.1268 66.29092 -210.0757
v 118.7576 148.9938 -441.9973
v -99.15892 72.4678 -206.0072
v 120.7255 155.1707 -437.9288
v -93.37036 54.9369 -206.7706
v 125.9063 156.6445 -432.4913
v 16.11599 110.5419 -318.0807
v 126.0582 151.8934 -434.0415
v 15.96404 115.2931 -316.5305
v -93.82611 69.19053 -202.1201
v -93.97816 73.94168 -200.5698
v -93.86963 70.54797 -201.6771
v -93.82622 69.19049 -202.12
v -93.52232 59.6881 -205.2204
v -98.72914 59.02939 -210.3919
v -93.45938 57.72009 -205.8625
v -98.72914 59.02939 -210.3919
v -93.37036 54.9369 -206.7706
v -93.52232 59.6881 -205.2204
v -95.07684 60.87528 -206.2709
v -93.52232 59.6881 -205.2204
v -95.27002 61.0228 -206.4014
v -95.32425 61.06422 -206.4381
v -95.93378 61.52971 -206.85
v -96.02655 61.60057 -206.9127
v -96.12463 61.67547 -206.9789
v -96.14574 61.69159 -206.9932
v -96.20171 61.73434 -207.031
v -101.1268 66.29092 -210.0757
v -96.55284 62.79776 -206.9847
v -96.77562 63.47245 -206.9554
v -96.91801 63.9037 -206.9366
v -96.9604 64.03204 -206.931
v -97.28069 65.00203 -206.8887
v -97.32605 65.13942 -206.8828
v -97.36353 65.25291 -206.8778
v -97.40056 65.3651 -206.8729
v -97.12729 66.22285 -206.308
v -96.515 68.1447 -205.0421
v -96.48547 68.23737 -204.9811
v -96.45671 68.32763 -204.9216
v -96.43304 68.40195 -204.8727
v -96.4166 68.45354 -204.8387
v -99.15892 72.4678 -206.0072
v -96.4166 68.45354 -204.8387
v -95.03101 68.84773 -203.3845
v -94.62317 68.96376 -202.9564
v -94.58154 68.9756 -202.9127
v -94.56224 68.98109 -202.8925
v -94.53783 68.98804 -202.8669
v -94.08525 69.11679 -202.3918
v -93.82622 69.19049 -202.12
v -93.86963 70.54797 -201.6771
v -93.82622 69.19049 -202.12
v -93.97816 73.94168 -200.5698

vn 0.03039023 -0.9502375 -0.3100412
vn 0.03039013 -0.9502375 -0.3100411
vn 0.4565545 -0.5584335 -0.6926113
vn 0.6660826 0.2505268 -0.7025459
vn 0.6660826 0.2505268 -0.7025459
vn 0.257125 0.8070437 0.5315706
vn 0.06411359 0.9761171 0.2075701
vn 0.7166838 0.04597393 0.6958813
vn 0.2571216 0.8070461 0.5315686
vn 0.2571211 0.8070467 0.5315682
vn 0.2571212 0.8070464 0.5315683
vn 0.2571219 0.8070459 0.5315689
vn 0.2571226 0.8070452 0.5315694
vn 0.2571189 0.8070485 0.5315663
vn 0.2571207 0.8070469 0.5315678
vn 0.257121 0.8070466 0.5315681
vn 0.257121 0.8070468 0.5315681
vn 0.2571209 0.8070468 0.531568
vn 0.2571211 0.8070466 0.5315681
vn 0.2571208 0.8070468 0.531568
vn 0.2571217 0.8070462 0.5315685
vn 0.2571227 0.8070453 0.5315693
vn 0.2571212 0.8070465 0.5315682
vn 0.2571206 0.807047 0.5315678
vn 0.3597863 0.7171622 0.5968521
vn 0.6635203 0.231215 0.7115338
vn 0.6769002 0.19257 0.7104387
vn 0.6768999 0.1925708 0.7104386
vn 0.6768999 0.1925711 0.7104386
vn 0.6768994 0.1925732 0.7104387
vn 0.676899 0.1925744 0.7104386
vn 0.6768986 0.1925761 0.7104385
vn 0.6768993 0.1925733 0.7104386
vn 0.6768995 0.1925721 0.7104386
vn 0.6768997 0.1925716 0.7104387
vn 0.6768997 0.1925715 0.7104387
vn 0.6768994 0.1925726 0.7104387
vn 0.6768996 0.192572 0.7104387
vn 0.6768999 0.1925708 0.7104387
vn 0.6960512 0.1297076 0.706179
vn 0.7155978 -0.480296 0.5071844
vn 0.7001594 -0.534707 0.4731444
vn 0.7001592 -0.5347078 0.4731439
vn 0.700159 -0.5347084 0.4731436
vn 0.700159 -0.5347084 0.4731435
vn 0.7001591 -0.534708 0.4731437
vn 0.7001593 -0.5347075 0.473144
vn 0.7001592 -0.534708 0.4731438
vn 0.7001593 -0.5347077 0.473144
vn 0.7001591 -0.5347079 0.4731438
vn 0.7001593 -0.5347079 0.4731438
vn 0.7001593 -0.5347075 0.473144
vn 0.6357597 -0.6832634 0.3591119
vn 0.7001653 -0.5346888 0.4731564
vn 0.3132752 -0.9487636 -0.04131223
vn 0.3132743 -0.9487638 -0.0413131
vn 0.313274 -0.948764 -0.0413134
vn 0.3132731 -0.9487641 -0.04131418
vn 0.3132747 -0.9487638 -0.04131286
vn 0.313276 -0.9487635 -0.04131192
vn 0.313278 -0.9487627 -0.04131017
vn 0.3133124 -0.9487526 -0.04128197
vn 0.3132908 -0.9487591 -0.04129961
vn 0.3132692 -0.9487654 -0.04131752
vn 0.3132723 -0.9487645 -0.04131486
vn 0.3132744 -0.9487638 -0.04131305
vn 0.3132749 -0.9487637 -0.04131263
vn 0.3132751 -0.9487637 -0.04131244
vn 0.3132784 -0.9487627 -0.04130882
vn 0.4222399 -0.903098 0.07828134
vn 0.03039 -0.9502375 -0.310041
vn 0.03039 -0.9502375 -0.310041
vn 0.03039 -0.9502375 -0.310041
vn 0.6660826 0.2505268 -0.7025459
vn -0.3132747 0.9487637 0.04131299
vn 0.6660826 0.2505268 -0.7025459
vn 0.7349889 -0.06009917 0.6754108
vn 0.5262213 -0.4266463 -0.7355709
vn 0.5674505 -0.3283246 -0.7551181
vn 0.07763771 -0.9300364 -0.3591726
vn 0.03039 -0.9502375 -0.310041
vn 0.03039 -0.9502375 -0.310041
vn 0.03039 -0.9502375 -0.310041
vn 0.09883665 -0.9193783 -0.380756
vn 0.6660826 0.2505268 -0.7025459
vn 0.03882657 -0.94699 -0.3189089
vn 0.03039 -0.9502375 -0.310041
vn 0.1242828 -0.9052573 -0.4062799
vn 0.03038506 -0.9502363 -0.3100452
vn -0.009662291 -0.9635641 -0.2673035
vn -0.3132747 0.9487637 0.04131292
vn 0.03037238 -0.9502332 -0.3100561
vn -0.6660824 -0.2505334 0.7025438
vn -0.6660826 -0.2505268 0.7025459
vn -0.6660829 -0.2505267 0.7025456
vn 0 0 0
vn -0.3132747 0.9487638 0.04131288
vn -0.3132747 0.9487638 0.04131287
vn -0.3132747 0.9487638 0.04131289
vn -0.6660829 -0.2505267 0.7025456
vn -0.6660829 -0.2505267 0.7025456
vn 0.7452588 -0.1851627 0.6405501
vn 0.7452587 -0.1851627 0.6405501
vn 0.7452588 -0.1851627 0.6405501
vn 0.7452588 -0.1851627 0.6405501
vn 0.7452588 -0.1851627 0.6405501
vn 0.7452588 -0.1851627 0.6405501
vn 0.7452588 -0.1851627 0.6405501
vn 0.7452588 -0.1851627 0.6405501
vn 0.7452588 -0.1851627 0.6405501
vn 0.6660826 0.2505268 -0.7025459
vn 0.6660826 0.2505268 -0.7025459
vn 0.6660826 0.2505268 -0.7025459
vn 0.6660826 0.2505268 -0.7025459
vn 0.6660826 0.2505268 -0.7025459
vn 0.6660826 0.2505268 -0.7025459
vn 0.6660826 0.2505268 -0.7025459
vn 0.6660826 0.2505268 -0.7025459
vn 0.6660826 0.2505268 -0.7025459
vn 0.6660826 0.2505268 -0.7025459
vn 0.6660826 0.2505268 -0.7025459
vn 0.6660826 0.2505268 -0.7025459
vn 0.6660826 0.2505268 -0.7025459
vn 0.6660826 0.2505268 -0.7025459
vn 0.6660826 0.2505268 -0.7025459
vn 0.6660826 0.2505268 -0.7025459
vn 0.6660826 0.2505268 -0.7025459
vn 0.6660826 0.2505268 -0.7025459
vn 0.6660826 0.2505268 -0.7025459
vn 0.6660826 0.2505268 -0.7025459
vn 0.6660826 0.2505268 -0.7025459
vn 0.6660826 0.2505268 -0.7025459
vn 0.6660826 0.2505268 -0.7025459
vn 0.6660826 0.2505268 -0.7025459
vn 0.6660826 0.2505268 -0.7025459
vn 0.6660826 0.2505268 -0.7025459
vn 0.6660826 0.2505268 -0.7025459
vn 0.6660826 0.2505268 -0.7025459
vn 0.6660826 0.2505268 -0.7025459
vn 0.6660826 0.2505268 -0.7025459
vn 0.6660826 0.2505268 -0.7025459
vn 0.6660826 0.2505268 -0.7025459
vn 0.6660826 0.2505268 -0.7025459
vn 0.6660826 0.2505268 -0.7025459
vn 0.6660826 0.2505268 -0.7025459
vn 0.6660826 0.2505268 -0.7025459
vn 0.6660826 0.2505268 -0.7025459
vn 0.6660826 0.2505268 -0.7025459
vn -0.2571213 -0.8070464 -0.5315684
vn -0.4257223 -0.6457142 -0.6338879
vn -0.5757539 -0.4260968 -0.6978173
vn -0.2571213 -0.8070463 -0.5315683
vn -0.7340986 0.05345524 -0.6769359
vn -0.7424117 0.31339 -0.5921251
vn -0.7001591 0.534708 -0.4731437
vn -0.7001592 0.534708 -0.4731437
vn -0.2571213 -0.8070464 -0.5315683
vn 0.7452588 -0.1851627 0.6405501
vn 0.7452588 -0.1851627 0.6405501
vn 0.7452588 -0.1851627 0.6405501
vn 0.7452588 -0.1851627 0.6405501
vn 0.7452588 -0.1851627 0.6405501
vn 0.7452588 -0.1851627 0.6405501
vn 0.7452587 -0.1851627 0.6405501
vn 0.7452587 -0.1851627 0.6405501
vn -0.1648421 0.8796835 0.4460766
vn -0.6660826 -0.2505275 0.7025457
vn -0.6660827 -0.2505267 0.7025458
vn -0.6660827 -0.2505268 0.7025458
vn -0.6660827 -0.2505268 0.7025458
vn -0.6660827 -0.2505268 0.7025458
vn -0.6660827 -0.2505271 0.7025458
vn -0.6660827 -0.2505271 0.7025458
vn -0.6660827 -0.2505271 0.7025458
vn -0.6660827 -0.2505271 0.7025458
vn -0.6660827 -0.2505271 0.7025458
vn -0.6660826 -0.250527 0.7025457
vn -0.6660827 -0.2505271 0.7025458
vn -0.6660826 -0.250527 0.7025457
vn -0.6660828 -0.2505268 0.7025457
vn -0.6660828 -0.2505267 0.7025458
vn -0.6660828 -0.2505268 0.7025457
vn -0.6660828 -0.2505268 0.7025457
vn -0.6660828 -0.2505268 0.7025457
vn -0.6660828 -0.2505268 0.7025457
vn -0.6660828 -0.2505268 0.7025457
vn -0.6660828 -0.2505268 0.7025457
vn -0.6660828 -0.2505268 0.7025457
vn -0.6660828 -0.2505266 0.7025458
vn -0.6660828 -0.2505266 0.7025458
vn -0.6660828 -0.2505266 0.7025458
vn -0.6660828 -0.2505266 0.7025458
vn -0.6660828 -0.2505266 0.7025458
vn -0.6660828 -0.2505266 0.7025458
vn -0.6660828 -0.2505266 0.7025458
vn -0.6660827 -0.2505266 0.7025458
vn -0.6660827 -0.2505265 0.7025459
vn -0.6660827 -0.2505265 0.7025459
vn -0.6660827 -0.2505265 0.7025459
vn -0.6660827 -0.2505265 0.7025459
vn -0.6660827 -0.2505265 0.7025459
vn -0.6660827 -0.2505265 0.7025459
vn -0.6660827 -0.2505265 0.7025459
vn -0.6660826 -0.2505265 0.7025459
vn -0.6660827 -0.2505268 0.7025458
vn -0.6660827 -0.2505268 0.7025458
vn -0.6660827 -0.2505267 0.7025458

f 1//1 2//2 3//3
f 4//4 1//1 3//3
f 3//3 5//5 4//4
f 3//3 6//6 5//5
f 5//5 6//6 7//7
f 8//8 7//7 6//6
f 9//9 8//8 6//6
f 10//10 9//9 6//6
f 9//9 10//10 11//11
f 11//11 10//10 12//12
f 13//13 11//11 12//12
f 13//13 12//12 14//14
f 13//13 14//14 15//15
f 15//15 14//14 16//16
f 15//15 16//16 17//17
f 18//18 17//17 16//16
f 19//19 17//17 18//18
f 19//19 18//18 20//20
f 21//21 19//19 20//20
f 22//22 19//19 21//21
f 22//22 21//21 23//23
f 24//24 22//22 23//23
f 24//24 23//23 25//25
f 26//26 24//24 25//25
f 26//26 25//25 27//27
f 28//28 26//26 27//27
f 28//28 27//27 29//29
f 29//29 27//27 30//30
f 31//31 29//29 30//30
f 31//31 30//30 32//32
f 33//33 31//31 32//32
f 33//33 32//32 34//34
f 35//35 33//33 34//34
f 35//35 34//34 36//36
f 37//37 35//35 36//36
f 37//37 36//36 38//38
f 39//39 37//37 38//38
f 39//39 38//38 40//40
f 41//41 39//39 40//40
f 41//41 40//40 42//42
f 41//41 42//42 43//43
f 43//43 42//42 44//44
f 45//45 43//43 44//44
f 45//45 44//44 46//46
f 47//47 45//45 46//46
f 48//48 45//45 47//47
f 48//48 47//47 49//49
f 50//50 48//48 49//49
f 50//50 49//49 51//51
f 52//52 50//50 51//51
f 52//52 51//51 53//53
f 54//54 52//52 53//53
f 55//55 54//54 53//53
f 55//55 53//53 56//56
f 55//55 56//56 57//57
f 57//57 56//56 58//58
f 57//57 58//58 59//59
f 59//59 58//58 60//60
f 59//59 60//60 61//61
f 61//61 60//60 62//62
f 61//61 62//62 63//63
f 63//63 62//62 64//64
f 63//63 64//64 65//65
f 65//65 64//64 66//66
f 65//65 66//66 67//67
f 68//68 67//67 66//66
f 69//69 67//67 68//68
f 69//69 68//68 70//70
f 71//71 69//69 70//70
f 72//72 71//71 73//73
f 74//74 75//75 76//76
f 77//77 74//74 76//76
f 75//75 77//77 76//76
f 78//78 75//75 74//74
f 79//79 75//75 78//78
f 78//78 74//74 80//80
f 81//81 78//78 80//80
f 82//82 78//78 81//81
f 82//82 83//83 78//78
f 83//83 84//84 79//79
f 84//84 85//85 79//79
f 80//80 74//74 86//86
f 87//87 80//80 86//86
f 81//81 80//80 87//87
f 86//86 74//74 88//88
f 88//88 74//74 77//77
f 86//86 88//88 89//89
f 90//90 86//86 89//89
f 87//87 86//86 90//90
f 75//75 91//91 77//77
f 90//90 89//89 92//92
f 90//90 92//92 93//93
f 94//94 90//90 93//93
f 95//95 83//83 82//82
f 95//95 82//82 81//81
f 95//95 81//81 87//87
f 95//95 87//87 90//90
f 95//95 96//96 83//83
f 97//97 91//91 75//75
f 97//97 98//98 91//91
f 97//97 99//99 98//98
f 100//100 95//95 101//101
f 102//102 103//103 104//104
f 102//102 104//104 105//105
f 102//102 105//105 106//106
f 106//106 105//105 107//107
f 108//108 102//102 106//106
f 109//109 102//102 108//108
f 110//110 108//108 106//106
f 111//111 112//112 113//113
f 111//111 113//113 114//114
f 111//111 114//114 115//115
f 111//111 115//115 116//116
f 111//111 116//116 117//117
f 117//117 118//118 111//111
f 118//118 119//119 111//111
f 120//120 111//111 119//119
f 120//120 121//121 111//111
f 121//121 122//122 111//111
f 111//111 122//122 123//123
f 114//114 113//113 124//124
f 124//124 113//113 125//125
f 125//125 113//113 126//126
f 126//126 113//113 127//127
f 127//127 113//113 128//128
f 128//128 113//113 129//129
f 129//129 113//113 130//130
f 130//130 113//113 131//131
f 131//131 113//113 132//132
f 132//132 113//113 133//133
f 133//133 113//113 134//134
f 133//133 134//134 135//135
f 135//135 134//134 136//136
f 134//134 137//137 136//136
f 137//137 134//134 138//138
f 138//138 134//134 139//139
f 139//139 134//134 140//140
f 140//140 134//134 141//141
f 134//134 142//142 141//141
f 134//134 143//143 142//142
f 134//134 144//144 143//143
f 144//144 134//134 145//145
f 145//145 134//134 146//146
f 147//147 134//134 148//148
f 149//149 150//150 151//151
f 149//149 152//152 150//150
f 151//151 150//150 153//153
f 151//151 153//153 154//154
f 154//154 153//153 155//155
f 154//154 155//155 156//156
f 152//152 157//157 150//150
f 158//158 159//159 160//160
f 161//161 159//159 158//158
f 162//162 159//159 161//161
f 163//163 162//162 161//161
f 164//164 162//162 163//163
f 165//165 162//162 164//164
f 9//9 166//166 8//8
f 166//166 9//9 167//167
f 168//168 169//169 170//170
f 168//168 171//171 169//169
f 172//172 169//169 173//173
f 174//174 169//169 172//172
f 169//169 174//174 175//175
f 176//176 169//169 175//175
f 177//177 169//169 176//176
f 178//178 169//169 177//177
f 178//178 179//179 169//169
f 179//179 180//180 169//169
f 180//180 181//181 169//169
f 182//182 181//181 180//180
f 182//182 183//183 181//181
f 183//183 184//184 181//181
f 184//184 185//185 181//181
f 185//185 186//186 181//181
f 186//186 187//187 181//181
f 187//187 188//188 181//181
f 188//188 189//189 181//181
f 181//181 189//189 190//190
f 181//181 190//190 191//191
f 192//192 181//181 191//191
f 193//193 181//181 192//192
f 194//194 181//181 193//193
f 195//195 181//181 194//194
f 195//195 196//196 181//181
f 196//196 197//197 198//198
f 196//196 198//198 199//199
f 199//199 200//200 196//196
f 196//196 200//200 201//201
f 201//201 202//202 196//196
f 196//196 202//202 203//203
f 196//196 203//203 204//204
f 205//205 196//196 206//206
f 207//207 196//196 205//205
