v -473.6962 -428.4481 401.5439
v -340.2003 -378.8076 265.4332
v -473.6962 -428.4481 401.5439
v -473.6962 -428.4481 401.5439
v -471.0744 -429.4774 403.7399
v -470.0258 -429.8891 404.6183
v -470.0258 -429.8891 404.6183
v -336.5298 -380.2486 268.5075
v -203.034 -330.6081 132.3968
v -469.9665 -430.1268 404.5897
v -202.5009 -332.7479 132.1393
v -469.9592 -430.1564 404.5861
v -202.4346 -333.0138 132.1073
v -469.9571 -430.1647 404.5851
v -202.416 -333.0885 132.0983
v -469.9339 -430.2579 404.5739
v -202.207 -333.9275 131.9973
v -469.6475 -431.4073 404.4355
v -202.1752 -334.0552 131.9819
v -469.376 -432.4971 404.3044
v -469.3448 -432.6224 404.2893
v -202.1415 -334.1902 131.9657
v -469.2797 -432.8839 404.2578
v -202.1343 -334.2193 131.9622
v -469.1069 -433.5773 404.1744
v -202.1151 -334.2963 131.9529
v -468.9723 -433.7035 404.2604
v -201.3739 -334.991 132.4265
v -200.9036 -335.4317 132.727
v -468.9389 -433.7348 404.2817
v -200.603 -335.7135 132.9191
v -468.929 -433.7441 404.2881
v -200.5136 -335.7973 132.9762
v -468.8538 -433.8145 404.3361
v -199.8375 -336.4309 133.4082
v -467.992 -434.6223 404.8868
v -199.7417 -336.5207 133.4694
v -467.28 -435.2896 405.3417
v -199.6626 -336.5948 133.52
v -466.5762 -435.9491 405.7914
v -199.5844 -336.6681 133.5699
v -466.4941 -435.9388 405.8757
v -198.8456 -336.5754 134.3284
v -466.3102 -435.9157 406.0645
v -197.1904 -336.3675 136.0276
v -465.7971 -435.8513 406.5912
v -465.5919 -435.8255 406.8019
v -197.1105 -336.3575 136.1096
v -464.8922 -435.7377 407.5202
v -197.0328 -336.3477 136.1894
v -464.316 -435.6653 408.1116
v -196.9688 -336.3397 136.2551
v -463.9161 -435.6151 408.5222
v -196.9243 -336.3341 136.3007
v -196.9243 -336.3341 136.3007
v -463.843 -435.4461 408.6556
v -196.2658 -334.8127 137.5015
v -463.8214 -435.3963 408.6949
v -196.0719 -334.365 137.8549
v -463.8192 -435.3912 408.6989
v -196.0521 -334.3192 137.891
v -463.8182 -435.3889 408.7007
v -196.043 -334.2981 137.9077
v -463.8169 -435.3859 408.7031
v -196.0314 -334.2713 137.9289
v -463.793 -435.3307 408.7467
v -195.8163 -333.7744 138.3211
v -462.6849 -432.7709 410.7671
v -195.6931 -333.4899 138.5456
v -462.6849 -432.7709 410.7671
v -195.6931 -333.4899 138.5456
v -462.6849 -432.7709 410.7671
v -462.6849 -432.7709 410.7671
v -461.6362 -433.1826 411.6454
v -459.0145 -434.2119 413.8414
v -459.0145 -434.2119 413.8414
v -459.0145 -434.2119 413.8414
v -462.6849 -432.7709 410.7671
v -462.6849 -432.7709 410.7671
v -462.6849 -432.7709 410.7671
v -195.6931 -333.4899 138.5456
v -195.6931 -333.4899 138.5456
v -195.6931 -333.4899 138.5456
v -462.6849 -432.7709 410.7671
v -461.4769 -439.9002 409.3517
v -462.6849 -432.7709 410.7671
v -195.6931 -333.4899 138.5456
v -462.6849 -432.7709 410.7671
v -329.189 -383.1304 274.6563
v -195.6931 -333.4899 138.5456
v -325.5186 -384.5714 277.7307
v -195.6933 -333.49 138.5457
v -195.6931 -333.4899 138.5456
v -194.6444 -333.9016 139.424
v -194.4852 -340.6192 137.1303
v -195.6931 -333.4899 138.5456
v -461.4769 -439.9002 409.3517
v -192.0227 -334.9308 141.6199
v -194.4852 -340.6192 137.1303
v -196.9243 -336.3341 136.3007
v -196.9243 -336.3341 136.3007
v -340.2003 -378.8076 265.4332
v -473.6962 -428.4481 401.5439
v -473.6962 -428.4481 401.5439
v -471.0744 -429.4774 403.7399
v -336.5298 -380.2486 268.5075
v -470.0258 -429.8891 404.6183
v -204.5543 -330.0112 131.1234
v -206.7044 -329.1671 129.3224
v -203.034 -330.6081 132.3968
v -473.6962 -428.4481 401.5439
v -471.8585 -435.8246 400.6561
v -466.7971 -440.5683 403.8901
v -469.1069 -433.5773 404.1744
v -469.2797 -432.8839 404.2578
v -469.3448 -432.6224 404.2893
v -469.376 -432.4971 404.3044
v -469.6475 -431.4073 404.4355
v -469.9339 -430.2579 404.5739
v -469.9571 -430.1647 404.5851
v -469.9592 -430.1564 404.5861
v -469.9665 -430.1268 404.5897
v -470.0258 -429.8891 404.6183
v -468.9723 -433.7035 404.2604
v -468.9389 -433.7348 404.2817
v -468.929 -433.7441 404.2881
v -468.8538 -433.8145 404.3361
v -467.992 -434.6223 404.8868
v -467.28 -435.2896 405.3417
v -466.5762 -435.9491 405.7914
v -466.4941 -435.9388 405.8757
v -466.3102 -435.9157 406.0645
v -465.7971 -435.8513 406.5912
v -461.4769 -439.9002 409.3517
v -465.5919 -435.8255 406.8019
v -464.8922 -435.7377 407.5202
v -464.316 -435.6653 408.1116
v -463.9161 -435.6151 408.5222
v -463.843 -435.4461 408.6556
v -463.8214 -435.3963 408.6949
v -463.8192 -435.3912 408.6989
v -463.8182 -435.3889 408.7007
v -463.8169 -435.3859 408.7031
v -463.793 -435.3307 408.7467
v -462.6849 -432.7709 410.7671
v -462.6849 -432.7709 410.7671
v -462.6849 -432.7709 410.7671
v -459.0145 -434.2119 413.8414
v -473.6962 -428.4481 401.5439
v -204.8667 -336.5436 128.4346
v -471.8585 -435.8246 400.6561
v -340.2003 -378.8076 265.4332
v -199.8053 -341.2873 131.6687
v -466.7971 -440.5683 403.8901
v -194.4852 -340.6192 137.1303
v -461.4769 -439.9002 409.3517
v -206.7044 -329.1671 129.3224
v -459.0145 -434.2119 413.8414
v -329.189 -383.1304 274.6563
v -462.6849 -432.7709 410.7671
v -325.5186 -384.5714 277.7307
v -195.6933 -333.49 138.5457
v -192.0227 -334.9308 141.6199
v -194.6444 -333.9016 139.424
v -195.6931 -333.4899 138.5456
v -203.034 -330.6081 132.3968
v -204.8667 -336.5436 128.4346
v -204.5543 -330.0112 131.1234
v -204.8667 -336.5436 128.4346
v -206.7044 -329.1671 129.3224
v -203.034 -330.6081 132.3968
v -202.5009 -332.7479 132.1393
v -203.034 -330.6081 132.3968
v -202.4346 -333.0138 132.1073
v -202.416 -333.0885 132.0983
v -202.207 -333.9275 131.9973
v -202.1752 -334.0552 131.9819
v -202.1415 -334.1902 131.9657
v -202.1343 -334.2193 131.9622
v -202.1151 -334.2963 131.9529
v -199.8053 -341.2873 131.6687
v -201.3739 -334.991 132.4265
v -200.9036 -335.4317 132.727
v -200.603 -335.7135 132.9191
v -200.5136 -335.7973 132.9762
v -199.8375 -336.4309 133.4082
v -199.7417 -336.5207 133.4694
v -199.6626 -336.5948 133.52
v -199.5844 -336.6681 133.5699
v -198.8456 -336.5754 134.3284
v -197.1904 -336.3675 136.0276
v -197.1105 -336.3575 136.1096
v -197.0328 -336.3477 136.1894
v -196.9688 -336.3397 136.2551
v -196.9243 -336.3341 136.3007
v -194.4852 -340.6192 137.1303
v -196.9243 -336.3341 136.3007
v -196.2658 -334.8127 137.5015
v -196.0719 -334.365 137.8549
v -196.0521 -334.3192 137.891
v -196.043 -334.2981 137.9077
v -196.0314 -334.2713 137.9289
v -195.8163 -333.7744 138.3211
v -195.6931 -333.4899 138.5456
v -194.6444 -333.9016 139.424
v -195.6931 -333.4899 138.5456
v -192.0227 -334.9308 141.6199

vn -0.7340823 0.2881867 -0.6148753
vn -0.7340822 0.2881868 -0.6148754
vn -0.9983475 0.05482512 -0.01721962
vn -0.6776226 -0.2519743 0.6908955
vn -0.6776226 -0.2519743 0.6908955
vn 0.6951069 0.08728828 0.7135876
vn 0.6308741 -0.3209249 0.7064031
vn 0.2173691 0.8288689 0.515487
vn 0.6951081 0.08728389 0.7135869
vn 0.6951084 0.08728307 0.7135869
vn 0.6951083 0.0872834 0.7135869
vn 0.6951081 0.08728441 0.7135869
vn 0.6951079 0.08728544 0.7135869
vn 0.6951089 0.08727971 0.7135867
vn 0.6951084 0.08728246 0.7135869
vn 0.6951083 0.08728299 0.7135869
vn 0.6951084 0.08728284 0.7135869
vn 0.6951084 0.08728275 0.7135869
vn 0.6951083 0.08728304 0.7135869
vn 0.6951084 0.08728272 0.7135869
vn 0.6951081 0.08728384 0.713587
vn 0.6951077 0.08728536 0.7135871
vn 0.6951082 0.08728322 0.7135869
vn 0.6951084 0.08728239 0.7135869
vn 0.6509396 0.2316553 0.7229203
vn 0.3485104 0.7172503 0.6034008
vn 0.3217314 0.7432225 0.5866084
vn 0.3217319 0.7432219 0.5866087
vn 0.3217321 0.7432217 0.5866089
vn 0.3217334 0.7432204 0.58661
vn 0.3217342 0.7432196 0.5866105
vn 0.3217351 0.7432184 0.5866113
vn 0.3217334 0.7432203 0.58661
vn 0.3217328 0.743221 0.5866093
vn 0.3217325 0.7432215 0.5866091
vn 0.3217324 0.7432215 0.586609
vn 0.3217331 0.7432207 0.5866095
vn 0.3217327 0.7432212 0.5866093
vn 0.3217319 0.7432219 0.5866087
vn 0.277509 0.7824032 0.557525
vn -0.1937244 0.9674486 0.1628321
vn -0.2401082 0.9637898 0.1160051
vn -0.2401089 0.9637898 0.1160043
vn -0.2401094 0.9637898 0.1160038
vn -0.2401094 0.9637897 0.1160038
vn -0.2401091 0.9637897 0.1160041
vn -0.2401088 0.9637897 0.1160046
vn -0.2401091 0.9637898 0.1160042
vn -0.2401088 0.9637898 0.1160045
vn -0.2401091 0.9637897 0.1160042
vn -0.2401091 0.9637898 0.1160043
vn -0.2401088 0.9637897 0.1160046
vn -0.3723824 0.9276897 -0.02689381
vn -0.2400926 0.9637918 0.1160212
vn -0.6612985 0.6197838 -0.4225546
vn -0.6612988 0.6197828 -0.4225554
vn -0.661299 0.6197826 -0.4225557
vn -0.6612992 0.6197816 -0.4225565
vn -0.6612988 0.6197832 -0.4225552
vn -0.6612985 0.6197843 -0.4225541
vn -0.6612977 0.6197862 -0.4225522
vn -0.661287 0.6198184 -0.4225218
vn -0.6612937 0.6197982 -0.4225409
vn -0.6613006 0.6197779 -0.42256
vn -0.6612996 0.6197809 -0.4225573
vn -0.6612988 0.6197829 -0.4225553
vn -0.6612986 0.6197833 -0.422555
vn -0.6612986 0.6197836 -0.4225548
vn -0.6612969 0.6197873 -0.4225519
vn -0.5980585 0.7355272 -0.3183173
vn -0.734082 0.2881868 -0.6148756
vn -0.734082 0.2881868 -0.6148756
vn -0.734082 0.2881868 -0.6148756
vn -0.6776226 -0.2519743 0.6908955
vn 0.6612989 -0.619783 0.4225551
vn -0.6776226 -0.2519743 0.6908955
vn 0.1392013 0.8785399 0.4569362
vn -0.9920188 -0.004432366 0.1260122
vn -0.9734089 -0.04583644 0.2244421
vn -0.7803713 0.269556 -0.5642343
vn -0.734082 0.2881868 -0.6148756
vn -0.734082 0.2881868 -0.6148756
vn -0.734082 0.2881868 -0.6148756
vn -0.7999744 0.2607 -0.540441
vn -0.6776226 -0.2519743 0.6908955
vn -0.7426038 0.2849782 -0.6060752
vn -0.734082 0.2881868 -0.6148756
vn -0.8225344 0.2496559 -0.5109884
vn -0.7340823 0.2881807 -0.6148781
vn -0.6920723 0.3027901 -0.6552513
vn 0.6612988 -0.619783 0.4225551
vn -0.7340831 0.288165 -0.6148846
vn 0.6776175 0.2519763 -0.6908998
vn 0.6776226 0.2519743 -0.6908955
vn 0.6776226 0.2519739 -0.6908957
vn 0 0 0
vn 0.6612988 -0.6197832 0.4225551
vn 0.6612988 -0.6197832 0.4225551
vn 0.6612988 -0.6197832 0.4225552
vn 0.6776226 0.2519739 -0.6908957
vn 0.6776226 0.2519739 -0.6908957
vn 0.04417428 0.9238276 0.3802516
vn 0.04417428 0.9238275 0.3802516
vn 0.04417428 0.9238276 0.3802516
vn 0.04417428 0.9238276 0.3802516
vn 0.04417428 0.9238276 0.3802516
vn 0.04417428 0.9238276 0.3802516
vn 0.04417428 0.9238276 0.3802516
vn 0.04417428 0.9238276 0.3802516
vn 0.04417428 0.9238276 0.3802516
vn -0.6776226 -0.2519743 0.6908955
vn -0.6776226 -0.2519743 0.6908955
vn -0.6776226 -0.2519743 0.6908955
vn -0.6776226 -0.2519743 0.6908955
vn -0.6776226 -0.2519743 0.6908955
vn -0.6776226 -0.2519743 0.6908955
vn -0.6776226 -0.2519743 0.6908955
vn -0.6776226 -0.2519743 0.6908955
vn -0.6776226 -0.2519743 0.6908955
vn -0.6776226 -0.2519743 0.6908955
vn -0.6776226 -0.2519743 0.6908955
vn -0.6776226 -0.2519743 0.6908955
vn -0.6776226 -0.2519743 0.6908955
vn -0.6776226 -0.2519742 0.6908955
vn -0.6776226 -0.2519743 0.6908955
vn -0.6776226 -0.2519743 0.6908955
vn -0.6776226 -0.2519742 0.6908955
vn -0.6776226 -0.2519743 0.6908955
vn -0.6776226 -0.2519743 0.6908955
vn -0.6776226 -0.2519743 0.6908955
vn -0.6776226 -0.2519742 0.6908955
vn -0.6776226 -0.2519743 0.6908955
vn -0.6776226 -0.2519743 0.6908955
vn -0.6776226 -0.2519743 0.6908955
vn -0.6776226 -0.2519743 0.6908955
vn -0.6776226 -0.2519743 0.6908955
vn -0.6776226 -0.2519743 0.6908955
vn -0.6776226 -0.2519743 0.6908955
vn -0.6776226 -0.2519743 0.6908955
vn -0.6776226 -0.2519743 0.6908955
vn -0.6776226 -0.2519743 0.6908955
vn -0.6776226 -0.2519742 0.6908955
vn -0.6776226 -0.2519743 0.6908955
vn -0.6776226 -0.2519742 0.6908955
vn -0.6776226 -0.2519742 0.6908955
vn -0.6776226 -0.2519743 0.6908955
vn -0.6776226 -0.2519742 0.6908955
vn -0.6776226 -0.2519742 0.6908955
vn -0.6951084 -0.08728345 -0.7135869
vn -0.6118622 -0.3280237 -0.7197397
vn -0.4784152 -0.5624602 -0.674357
vn -0.6951082 -0.08728346 -0.7135868
vn -0.1441622 -0.8757294 -0.4607769
vn 0.05664389 -0.9545621 -0.2925794
vn 0.2401092 -0.9637896 -0.1160041
vn 0.2401092 -0.9637897 -0.1160042
vn -0.6951082 -0.08728333 -0.7135869
vn 0.04417428 0.9238276 0.3802516
vn 0.04417428 0.9238276 0.3802516
vn 0.04417428 0.9238276 0.3802516
vn 0.04417428 0.9238276 0.3802516
vn 0.04417428 0.9238276 0.3802516
vn 0.04417428 0.9238276 0.3802516
vn 0.04417429 0.9238276 0.3802516
vn 0.04417429 0.9238275 0.3802516
vn 0.8562514 -0.231097 0.4619824
vn 0.6776221 0.2519745 -0.690896
vn 0.6776226 0.251974 -0.6908956
vn 0.6776226 0.2519741 -0.6908957
vn 0.6776226 0.251974 -0.6908956
vn 0.6776226 0.251974 -0.6908956
vn 0.6776224 0.2519742 -0.6908957
vn 0.6776224 0.2519742 -0.6908957
vn 0.6776224 0.2519742 -0.6908957
vn 0.6776224 0.2519742 -0.6908957
vn 0.6776224 0.2519742 -0.6908957
vn 0.6776224 0.2519742 -0.6908957
vn 0.6776224 0.2519742 -0.6908957
vn 0.6776224 0.2519742 -0.6908957
vn 0.6776226 0.251974 -0.6908957
vn 0.6776226 0.251974 -0.6908956
vn 0.6776226 0.251974 -0.6908957
vn 0.6776226 0.251974 -0.6908957
vn 0.6776226 0.251974 -0.6908957
vn 0.6776226 0.251974 -0.6908957
vn 0.6776226 0.251974 -0.6908957
vn 0.6776226 0.251974 -0.6908957
vn 0.6776226 0.251974 -0.6908957
vn 0.6776227 0.251974 -0.6908956
vn 0.6776227 0.2519739 -0.6908956
vn 0.6776227 0.2519739 -0.6908956
vn 0.6776227 0.2519739 -0.6908956
vn 0.6776227 0.2519739 -0.6908956
vn 0.6776227 0.2519739 -0.6908956
vn 0.6776227 0.2519739 -0.6908956
vn 0.6776227 0.251974 -0.6908956
vn 0.6776229 0.251974 -0.6908954
vn 0.6776229 0.251974 -0.6908954
vn 0.6776229 0.251974 -0.6908954
vn 0.6776229 0.251974 -0.6908954
vn 0.6776229 0.251974 -0.6908954
vn 0.6776229 0.251974 -0.6908954
vn 0.6776229 0.251974 -0.6908954
vn 0.6776228 0.251974 -0.6908953
vn 0.6776226 0.251974 -0.6908956
vn 0.6776226 0.251974 -0.6908956
vn 0.6776226 0.251974 -0.6908956

f 1//1 2//2 3//3
f 4//4 1//1 3//3
f 3//3 5//5 4//4
f 3//3 6//6 5//5
f 5//5 6//6 7//7
f 8//8 7//7 6//6
f 9//9 8//8 6//6
f 10//10 9//9 6//6
f 9//9 10//10 11//11
f 11//11 10//10 12//12
f 13//13 11//11 12//12
f 13//13 12//12 14//14
f 13//13 14//14 15//15
f 15//15 14//14 16//16
f 15//15 16//16 17//17
f 18//18 17//17 16//16
f 19//19 17//17 18//18
f 19//19 18//18 20//20
f 21//21 19//19 20//20
f 22//22 19//19 21//21
f 22//22 21//21 23//23
f 24//24 22//22 23//23
f 24//24 23//23 25//25
f 26//26 24//24 25//25
f 26//26 25//25 27//27
f 28//28 26//26 27//27
f 28//28 27//27 29//29
f 29//29 27//27 30//30
f 31//31 29//29 30//30
f 31//31 30//30 32//32
f 33//33 31//31 32//32
f 33//33 32//32 34//34
f 35//35 33//33 34//34
f 35//35 34//34 36//36
f 37//37 35//35 36//36
f 37//37 36//36 38//38
f 39//39 37//37 38//38
f 39//39 38//38 40//40
f 41//41 39//39 40//40
f 41//41 40//40 42//42
f 41//41 42//42 43//43
f 43//43 42//42 44//44
f 45//45 43//43 44//44
f 45//45 44//44 46//46
f 47//47 45//45 46//46
f 48//48 45//45 47//47
f 48//48 47//47 49//49
f 50//50 48//48 49//49
f 50//50 49//49 51//51
f 52//52 50//50 51//51
f 52//52 51//51 53//53
f 54//54 52//52 53//53
f 55//55 54//54 53//53
f 55//55 53//53 56//56
f 55//55 56//56 57//57
f 57//57 56//56 58//58
f 57//57 58//58 59//59
f 59//59 58//58 60//60
f 59//59 60//60 61//61
f 61//61 60//60 62//62
f 61//61 62//62 63//63
f 63//63 62//62 64//64
f 63//63 64//64 65//65
f 65//65 64//64 66//66
f 65//65 66//66 67//67
f 68//68 67//67 66//66
f 69//69 67//67 68//68
f 69//69 68//68 70//70
f 71//71 69//69 70//70
f 72//72 71//71 73//73
f 74//74 75//75 76//76
f 77//77 74//74 76//76
f 75//75 77//77 76//76
f 78//78 75//75 74//74
f 79//79 75//75 78//78
f 78//78 74//74 80//80
f 81//81 78//78 80//80
f 82//82 78//78 81//81
f 82//82 83//83 78//78
f 83//83 84//84 79//79
f 84//84 85//85 79//79
f 80//80 74//74 86//86
f 87//87 80//80 86//86
f 81//81 80//80 87//87
f 86//86 74//74 88//88
f 88//88 74//74 77//77
f 86//86 88//88 89//89
f 90//90 86//86 89//89
f 87//87 86//86 90//90
f 75//75 91//91 77//77
f 90//90 89//89 92//92
f 90//90 92//92 93//93
f 94//94 90//90 93//93
f 95//95 83//83 82//82
f 95//95 82//82 81//81
f 95//95 81//81 87//87
f 95//95 87//87 90//90
f 95//95 96//96 83//83
f 97//97 91//91 75//75
f 97//97 98//98 91//91
f 97//97 99//99 98//98
f 100//100 95//95 101//101
f 102//102 103//103 104//104
f 102//102 104//104 105//105
f 102//102 105//105 106//106
f 106//106 105//105 107//107
f 108//108 102//102 106//106
f 109//109 102//102 108//108
f 110//110 108//108 106//106
f 111//111 112//112 113//113
f 111//111 113//113 114//114
f 111//111 114//114 115//115
f 111//111 115//115 116//116
f 111//111 116//116 117//117
f 117//117 118//118 111//111
f 118//118 119//119 111//111
f 120//120 111//111 119//119
f 120//120 121//121 111//111
f 121//121 122//122 111//111
f 111//111 122//122 123//123
f 114//114 113//113 124//124
f 124//124 113//113 125//125
f 125//125 113//113 126//126
f 126//126 113//113 127//127
f 127//127 113//113 128//128
f 128//128 113//113 129//129
f 129//129 113//113 130//130
f 130//130 113//113 131//131
f 131//131 113//113 132//132
f 132//132 113//113 133//133
f 133//133 113//113 134//134
f 133//133 134//134 135//135
f 135//135 134//134 136//136
f 134//134 137//137 136//136
f 137//137 134//134 138//138
f 138//138 134//134 139//139
f 139//139 134//134 140//140
f 140//140 134//134 141//141
f 134//134 142//142 141//141
f 134//134 143//143 142//142
f 134//134 144//144 143//143
f 144//144 134//134 145//145
f 145//145 134//134 146//146
f 147//147 134//134 148//148
f 149//149 150//150 151//151
f 149//149 152//152 150//150
f 151//151 150//150 153//153
f 151//151 153//153 154//154
f 154//154 153//153 155//155
f 154//154 155//155 156//156
f 152//152 157//157 150//150
f 158//158 159//159 160//160
f 161//161 159//159 158//158
f 162//162 159//159 161//161
f 163//163 162//162 161//161
f 164//164 162//162 163//163
f 165//165 162//162 164//164
f 9//9 166//166 8//8
f 166//166 9//9 167//167
f 168//168 169//169 170//170
f 168//168 171//171 169//169
f 172//172 169//169 173//173
f 174//174 169//169 172//172
f 169//169 174//174 175//175
f 176//176 169//169 175//175
f 177//177 169//169 176//176
f 178//178 169//169 177//177
f 178//178 179//179 169//169
f 179//179 180//180 169//169
f 180//180 181//181 169//169
f 182//182 181//181 180//180
f 182//182 183//183 181//181
f 183//183 184//184 181//181
f 184//184 185//185 181//181
f 185//185 186//186 181//181
f 186//186 187//187 181//181
f 187//187 188//188 181//181
f 188//188 189//189 181//181
f 181//181 189//189 190//190
f 181//181 190//190 191//191
f 192//192 181//181 191//191
f 193//193 181//181 192//192
f 194//194 181//181 193//193
f 195//195 181//181 194//194
f 195//195 196//196 181//181
f 196//196 197//197 198//198
f 196//196 198//198 199//199
f 199//199 200//200 196//196
f 196//196 200//200 201//201
f 201//201 202//202 196//196
f 196//196 202//202 203//203
f 196//196 203//203 204//204
f 205//205 196//196 206//206
f 207//207 196//196 205//205
