v 924.5516 -187.6137 206.5927
v 614.594 -106.3051 -61.79311
v 924.5516 -187.6137 206.5927
v 924.5516 -187.6137 206.5927
v 925.2264 -184.1178 206.8725
v 925.4963 -182.7194 206.9845
v 925.4963 -182.7194 206.9845
v 615.5387 -101.4108 -61.40137
v 305.5811 -20.10222 -329.7872
v 925.6609 -182.6414 206.818
v 307.0621 -19.4002 -331.285
v 925.6813 -182.6317 206.7973
v 307.2461 -19.31297 -331.4711
v 925.687 -182.629 206.7915
v 307.2978 -19.28848 -331.5233
v 925.7516 -182.5984 206.7263
v 307.8785 -19.01321 -332.1106
v 926.5471 -182.2213 205.9218
v 307.9669 -18.97131 -332.2
v 927.3013 -181.8638 205.159
v 927.3881 -181.8227 205.0713
v 308.0603 -18.92702 -332.2945
v 927.5691 -181.7369 204.8883
v 308.0804 -18.91749 -332.3148
v 928.049 -181.5094 204.4029
v 308.1338 -18.89221 -332.3687
v 928.1346 -181.3302 204.3582
v 308.6055 -17.90569 -332.6147
v 308.9048 -17.27979 -332.7708
v 928.1559 -181.2858 204.3472
v 309.0962 -16.87972 -332.8705
v 928.1622 -181.2726 204.3439
v 309.1531 -16.76066 -332.9002
v 928.2101 -181.1726 204.3189
v 309.5834 -15.86082 -333.1246
v 928.7587 -180.0255 204.0329
v 309.6444 -15.73337 -333.1564
v 929.2118 -179.0779 203.7966
v 309.6947 -15.62807 -333.1826
v 929.6598 -178.1412 203.5631
v 309.7445 -15.52399 -333.2086
v 929.6512 -178.0315 203.6061
v 309.6682 -14.53712 -332.8215
v 929.6323 -177.7859 203.7025
v 309.4972 -12.32597 -331.9541
v 929.5793 -177.1004 203.9713
v 929.5581 -176.8263 204.0788
v 309.489 -12.21935 -331.9123
v 929.4858 -175.8916 204.4455
v 309.4809 -12.11549 -331.8716
v 929.4263 -175.122 204.7474
v 309.4743 -12.02998 -331.838
v 929.385 -174.5878 204.9569
v 309.4697 -11.97063 -331.8148
v 309.4697 -11.97063 -331.8148
v 929.2662 -174.4893 205.124
v 308.4003 -11.0843 -330.3112
v 929.2312 -174.4604 205.1732
v 308.0855 -10.82342 -329.8686
v 929.2277 -174.4574 205.1782
v 308.0534 -10.79678 -329.8234
v 929.226 -174.456 205.1805
v 308.0385 -10.78443 -329.8024
v 929.2239 -174.4543 205.1835
v 308.0197 -10.76882 -329.7759
v 929.1851 -174.4221 205.238
v 307.6703 -10.47932 -329.2849
v 927.3857 -172.9308 207.7679
v 307.4704 -10.31362 -329.0037
v 927.3857 -172.9308 207.7679
v 307.4704 -10.31362 -329.0037
v 927.3857 -172.9308 207.7679
v 927.3857 -172.9308 207.7679
v 927.6556 -171.5324 207.8798
v 928.3303 -168.0365 208.1597
v 928.3303 -168.0365 208.1597
v 928.3303 -168.0365 208.1597
v 927.3857 -172.9308 207.7679
v 927.3857 -172.9308 207.7679
v 927.3857 -172.9308 207.7679
v 307.4704 -10.31362 -329.0037
v 307.4704 -10.31362 -329.0037
v 307.4704 -10.31362 -329.0037
v 927.3857 -172.9308 207.7679
v 932.329 -171.3505 202.5376
v 927.3857 -172.9308 207.7679
v 307.4704 -10.31362 -329.0037
v 927.3857 -172.9308 207.7679
v 617.428 -91.62221 -60.61793
v 307.4704 -10.31362 -329.0037
v 618.3727 -86.72791 -60.22619
v 307.4707 -10.31371 -329.0035
v 307.4704 -10.31362 -329.0037
v 307.7403 -8.915253 -328.8918
v 312.4138 -8.733345 -334.2339
v 307.4704 -10.31362 -329.0037
v 932.329 -171.3505 202.5376
v 308.4151 -5.419327 -328.612
v 312.4138 -8.733345 -334.2339
v 309.4697 -11.97063 -331.8148
v 309.4697 -11.97063 -331.8148
v 614.594 -106.3051 -61.79311
v 924.5516 -187.6137 206.5927
v 924.5516 -187.6137 206.5927
v 925.2264 -184.1178 206.8725
v 615.5387 -101.4108 -61.40137
v 925.4963 -182.7194 206.9845
v 305.1898 -22.1295 -329.9495
v 304.6364 -24.99652 -330.179
v 305.5811 -20.10222 -329.7872
v 924.5516 -187.6137 206.5927
v 929.657 -185.1937 201.4296
v 932.8785 -178.4573 199.75
v 928.049 -181.5094 204.4029
v 927.5691 -181.7369 204.8883
v 927.3881 -181.8227 205.0713
v 927.3013 -181.8638 205.159
v 926.5471 -182.2213 205.9218
v 925.7516 -182.5984 206.7263
v 925.687 -182.629 206.7915
v 925.6813 -182.6317 206.7973
v 925.6609 -182.6414 206.818
v 925.4963 -182.7194 206.9845
v 928.1346 -181.3302 204.3582
v 928.1559 -181.2858 204.3472
v 928.1622 -181.2726 204.3439
v 928.2101 -181.1726 204.3189
v 928.7587 -180.0255 204.0329
v 929.2118 -179.0779 203.7966
v 929.6598 -178.1412 203.5631
v 929.6512 -178.0315 203.6061
v 929.6323 -177.7859 203.7025
v 929.5793 -177.1004 203.9713
v 932.329 -171.3505 202.5376
v 929.5581 -176.8263 204.0788
v 929.4858 -175.8916 204.4455
v 929.4263 -175.122 204.7474
v 929.385 -174.5878 204.9569
v 929.2662 -174.4893 205.124
v 929.2312 -174.4604 205.1732
v 929.2277 -174.4574 205.1782
v 929.226 -174.456 205.1805
v 929.2239 -174.4543 205.1835
v 929.1851 -174.4221 205.238
v 927.3857 -172.9308 207.7679
v 927.3857 -172.9308 207.7679
v 927.3857 -172.9308 207.7679
v 928.3303 -168.0365 208.1597
v 924.5516 -187.6137 206.5927
v 309.7418 -22.57652 -335.342
v 929.657 -185.1937 201.4296
v 614.594 -106.3051 -61.79311
v 312.9633 -15.84008 -337.0216
v 932.8785 -178.4573 199.75
v 312.4138 -8.733345 -334.2339
v 932.329 -171.3505 202.5376
v 304.6364 -24.99652 -330.179
v 928.3303 -168.0365 208.1597
v 617.428 -91.62221 -60.61793
v 927.3857 -172.9308 207.7679
v 618.3727 -86.72791 -60.22619
v 307.4707 -10.31371 -329.0035
v 308.4151 -5.419327 -328.612
v 307.7403 -8.915253 -328.8918
v 307.4704 -10.31362 -329.0037
v 305.5811 -20.10222 -329.7872
v 309.7418 -22.57652 -335.342
v 305.1898 -22.1295 -329.9495
v 309.7418 -22.57652 -335.342
v 304.6364 -24.99652 -330.179
v 305.5811 -20.10222 -329.7872
v 307.0621 -19.4002 -331.285
v 305.5811 -20.10222 -329.7872
v 307.2461 -19.31297 -331.4711
v 307.2978 -19.28848 -331.5233
v 307.8785 -19.01321 -332.1106
v 307.9669 -18.97131 -332.2
v 308.0603 -18.92702 -332.2945
v 308.0804 -18.91749 -332.3148
v 308.1338 -18.89221 -332.3687
v 312.9633 -15.84008 -337.0216
v 308.6055 -17.90569 -332.6147
v 308.9048 -17.27979 -332.7708
v 309.0962 -16.87972 -332.8705
v 309.1531 -16.76066 -332.9002
v 309.5834 -15.86082 -333.1246
v 309.6444 -15.73337 -333.1564
v 309.6947 -15.62807 -333.1826
v 309.7445 -15.52399 -333.2086
v 309.6682 -14.53712 -332.8215
v 309.4972 -12.32597 -331.9541
v 309.489 -12.21935 -331.9123
v 309.4809 -12.11549 -331.8716
v 309.4743 -12.02998 -331.838
v 309.4697 -11.97063 -331.8148
v 312.4138 -8.733345 -334.2339
v 309.4697 -11.97063 -331.8148
v 308.4003 -11.0843 -330.3112
v 308.0855 -10.82342 -329.8686
v 308.0534 -10.79678 -329.8234
v 308.0385 -10.78443 -329.8024
v 308.0197 -10.76882 -329.7759
v 307.6703 -10.47932 -329.2849
v 307.4704 -10.31362 -329.0037
v 307.7403 -8.915253 -328.8918
v 307.4704 -10.31362 -329.0037
v 308.4151 -5.419327 -328.612

vn -0.1889357 -0.9788591 -0.07834743
vn -0.1889358 -0.9788591 -0.07834753
vn 0.3391387 -0.8697989 0.3583783
vn 0.7415429 -0.1945228 0.6420865
vn 0.7415429 -0.1945228 0.6420865
vn -0.07180259 0.9285376 0.3642285
vn 0.2919069 0.9415116 0.1683648
vn -0.5804063 0.2940376 0.7593882
vn -0.07179971 0.9285391 0.3642252
vn -0.07179912 0.9285395 0.3642247
vn -0.07179938 0.9285393 0.3642249
vn -0.07180012 0.928539 0.3642256
vn -0.07180087 0.9285386 0.3642262
vn -0.07179657 0.9285404 0.3642227
vn -0.07179863 0.9285396 0.3642244
vn -0.07179902 0.9285394 0.3642247
vn -0.07179891 0.9285395 0.3642246
vn -0.07179885 0.9285395 0.3642246
vn -0.07179905 0.9285394 0.3642247
vn -0.07179885 0.9285395 0.3642245
vn -0.07179962 0.9285392 0.3642253
vn -0.07180069 0.9285386 0.3642263
vn -0.07179915 0.9285393 0.3642249
vn -0.07179859 0.9285396 0.3642243
vn -0.1715908 0.8702247 0.4618072
vn -0.5047952 0.468632 0.7249593
vn -0.5224483 0.4329943 0.7345501
vn -0.5224479 0.432995 0.7345499
vn -0.5224478 0.4329953 0.7345499
vn -0.5224468 0.4329972 0.7345496
vn -0.5224462 0.4329983 0.7345493
vn -0.5224453 0.4329997 0.734549
vn -0.5224467 0.4329973 0.7345495
vn -0.5224472 0.4329962 0.7345496
vn -0.5224476 0.4329958 0.7345498
vn -0.5224476 0.4329957 0.7345497
vn -0.522447 0.4329967 0.7345495
vn -0.5224474 0.4329961 0.7345497
vn -0.5224479 0.4329951 0.7345499
vn -0.5490183 0.3741261 0.7474014
vn -0.6703364 -0.2542381 0.6971459
vn -0.6670527 -0.3161886 0.6745855
vn -0.6670527 -0.3161896 0.6745852
vn -0.6670527 -0.3161902 0.6745849
vn -0.6670526 -0.3161902 0.6745849
vn -0.6670526 -0.3161898 0.674585
vn -0.6670526 -0.3161893 0.6745853
vn -0.6670526 -0.3161897 0.6745851
vn -0.6670527 -0.3161894 0.6745853
vn -0.6670526 -0.3161897 0.6745851
vn -0.6670526 -0.3161897 0.6745852
vn -0.6670526 -0.3161893 0.6745853
vn -0.6398228 -0.4929723 0.5895807
vn -0.6670543 -0.3161677 0.6745938
vn -0.4209078 -0.8801563 0.219458
vn -0.4209071 -0.8801568 0.219457
vn -0.420907 -0.8801571 0.2194566
vn -0.4209064 -0.8801575 0.2194556
vn -0.4209073 -0.8801567 0.2194573
vn -0.420908 -0.8801561 0.2194587
vn -0.4209092 -0.8801548 0.2194609
vn -0.4209287 -0.8801364 0.2194977
vn -0.4209165 -0.880148 0.2194746
vn -0.4209041 -0.8801597 0.2194515
vn -0.420906 -0.880158 0.2194548
vn -0.4209072 -0.8801568 0.2194571
vn -0.4209075 -0.8801565 0.2194575
vn -0.4209076 -0.8801564 0.2194577
vn -0.4209103 -0.8801543 0.2194614
vn -0.5024784 -0.7951853 0.3394056
vn -0.188936 -0.9788591 -0.07834765
vn -0.188936 -0.9788591 -0.07834765
vn -0.188936 -0.9788591 -0.07834765
vn 0.7415429 -0.1945228 0.6420865
vn 0.4209072 0.8801567 -0.2194574
vn 0.7415429 -0.1945228 0.6420865
vn -0.613739 0.1898918 0.7663327
vn 0.4411564 -0.7836472 0.4373537
vn 0.5062404 -0.7121571 0.4863673
vn -0.1357726 -0.9902059 -0.03253004
vn -0.188936 -0.9788591 -0.07834765
vn -0.188936 -0.9788591 -0.07834765
vn -0.188936 -0.9788591 -0.07834765
vn -0.1115501 -0.9936889 -0.0117943
vn 0.7415429 -0.1945228 0.6420865
vn -0.1795342 -0.9812435 -0.07020614
vn -0.188936 -0.9788591 -0.07834765
vn -0.08216706 -0.9965307 0.01324451
vn -0.1889317 -0.9788595 -0.0783527
vn -0.2331146 -0.965414 -0.1167631
vn 0.4209072 0.8801566 -0.2194573
vn -0.1889207 -0.9788606 -0.07836568
vn -0.7415442 0.194516 -0.642087
vn -0.7415429 0.1945228 -0.6420865
vn -0.7415426 0.1945227 -0.6420868
vn 0 0 0
vn 0.4209073 0.8801567 -0.2194574
vn 0.4209073 0.8801567 -0.2194573
vn 0.4209073 0.8801568 -0.2194574
vn -0.7415426 0.1945227 -0.6420868
vn -0.7415426 0.1945227 -0.6420868
vn -0.6437527 0.06321505 0.7626182
vn -0.6437527 0.06321505 0.7626181
vn -0.6437527 0.06321505 0.7626182
vn -0.6437527 0.06321505 0.7626182
vn -0.6437527 0.06321505 0.7626182
vn -0.6437527 0.06321505 0.7626182
vn -0.6437527 0.06321505 0.7626182
vn -0.6437527 0.06321505 0.7626182
vn -0.6437527 0.06321505 0.7626182
vn 0.7415429 -0.1945228 0.6420865
vn 0.7415429 -0.1945228 0.6420865
vn 0.7415429 -0.1945228 0.6420865
vn 0.7415429 -0.1945228 0.6420865
vn 0.7415429 -0.1945228 0.6420865
vn 0.7415429 -0.1945228 0.6420865
vn 0.7415429 -0.1945228 0.6420865
vn 0.7415429 -0.1945228 0.6420865
vn 0.7415429 -0.1945228 0.6420865
vn 0.7415429 -0.1945228 0.6420865
vn 0.7415429 -0.1945228 0.6420865
vn 0.7415429 -0.1945228 0.6420865
vn 0.7415429 -0.1945228 0.6420865
vn 0.7415429 -0.1945228 0.6420864
vn 0.7415429 -0.1945228 0.6420865
vn 0.7415429 -0.1945228 0.6420865
vn 0.7415429 -0.1945228 0.6420864
vn 0.7415429 -0.1945228 0.6420865
vn 0.7415429 -0.1945228 0.6420865
vn 0.7415429 -0.1945228 0.6420865
vn 0.7415429 -0.1945228 0.6420864
vn 0.7415429 -0.1945228 0.6420865
vn 0.7415429 -0.1945228 0.6420865
vn 0.7415429 -0.1945228 0.6420865
vn 0.7415429 -0.1945228 0.6420865
vn 0.7415429 -0.1945228 0.6420865
vn 0.7415429 -0.1945228 0.6420865
vn 0.7415429 -0.1945228 0.6420865
vn 0.7415429 -0.1945228 0.6420865
vn 0.7415429 -0.1945228 0.6420865
vn 0.7415429 -0.1945228 0.6420865
vn 0.7415429 -0.1945228 0.6420864
vn 0.7415429 -0.1945228 0.6420865
vn 0.7415429 -0.1945228 0.6420864
vn 0.7415429 -0.1945228 0.6420864
vn 0.7415429 -0.1945228 0.6420865
vn 0.7415429 -0.1945228 0.6420864
vn 0.7415429 -0.1945228 0.6420864
vn 0.0717994 -0.9285394 -0.3642249
vn 0.2380494 -0.8184882 -0.522886
vn 0.3991141 -0.6413776 -0.6552426
vn 0.0717994 -0.9285392 -0.3642249
vn 0.6118615 -0.196503 -0.7661673
vn 0.6635444 0.07126107 -0.7447355
vn 0.6670526 0.3161899 -0.674585
vn 0.6670526 0.3161898 -0.6745851
vn 0.07179928 -0.9285393 -0.3642249
vn -0.6437527 0.06321505 0.7626182
vn -0.6437527 0.06321505 0.7626182
vn -0.6437527 0.06321505 0.7626182
vn -0.6437527 0.06321505 0.7626182
vn -0.6437527 0.06321505 0.7626182
vn -0.6437527 0.06321505 0.7626182
vn -0.6437527 0.06321505 0.7626182
vn -0.6437527 0.06321505 0.7626181
vn 0.03462261 0.9979677 -0.05349755
vn -0.7415431 0.1945221 -0.6420866
vn -0.7415427 0.1945227 -0.6420866
vn -0.7415428 0.1945226 -0.6420867
vn -0.7415428 0.1945228 -0.6420867
vn -0.7415428 0.1945228 -0.6420867
vn -0.7415429 0.1945225 -0.6420866
vn -0.7415429 0.1945225 -0.6420866
vn -0.7415429 0.1945225 -0.6420866
vn -0.7415429 0.1945225 -0.6420866
vn -0.7415429 0.1945225 -0.6420866
vn -0.7415428 0.1945225 -0.6420866
vn -0.7415429 0.1945225 -0.6420866
vn -0.7415428 0.1945225 -0.6420866
vn -0.7415428 0.1945226 -0.6420867
vn -0.7415427 0.1945228 -0.6420867
vn -0.7415428 0.1945226 -0.6420867
vn -0.7415428 0.1945226 -0.6420867
vn -0.7415428 0.1945226 -0.6420867
vn -0.7415428 0.1945226 -0.6420867
vn -0.7415428 0.1945226 -0.6420867
vn -0.7415428 0.1945226 -0.6420867
vn -0.7415428 0.1945226 -0.6420867
vn -0.7415427 0.1945228 -0.6420867
vn -0.7415427 0.1945229 -0.6420867
vn -0.7415427 0.1945229 -0.6420867
vn -0.7415427 0.1945229 -0.6420867
vn -0.7415427 0.1945229 -0.6420867
vn -0.7415427 0.1945229 -0.6420867
vn -0.7415427 0.1945229 -0.6420867
vn -0.7415428 0.1945229 -0.6420867
vn -0.7415428 0.1945231 -0.6420866
vn -0.7415428 0.1945231 -0.6420866
vn -0.7415428 0.1945231 -0.6420866
vn -0.7415428 0.1945231 -0.6420866
vn -0.7415428 0.1945231 -0.6420866
vn -0.7415428 0.1945231 -0.6420866
vn -0.7415428 0.1945231 -0.6420866
vn -0.7415427 0.1945231 -0.6420865
vn -0.7415428 0.1945228 -0.6420867
vn -0.7415428 0.1945228 -0.6420867
vn -0.7415427 0.1945227 -0.6420866

f 1//1 2//2 3//3
f 4//4 1//1 3//3
f 3//3 5//5 4//4
f 3//3 6//6 5//5
f 5//5 6//6 7//7
f 8//8 7//7 6//6
f 9//9 8//8 6//6
f 10//10 9//9 6//6
f 9//9 10//10 11//11
f 11//11 10//10 12//12
f 13//13 11//11 12//12
f 13//13 12//12 14//14
f 13//13 14//14 15//15
f 15//15 14//14 16//16
f 15//15 16//16 17//17
f 18//18 17//17 16//16
f 19//19 17//17 18//18
f 19//19 18//18 20//20
f 21//21 19//19 20//20
f 22//22 19//19 21//21
f 22//22 21//21 23//23
f 24//24 22//22 23//23
f 24//24 23//23 25//25
f 26//26 24//24 25//25
f 26//26 25//25 27//27
f 28//28 26//26 27//27
f 28//28 27//27 29//29
f 29//29 27//27 30//30
f 31//31 29//29 30//30
f 31//31 30//30 32//32
f 33//33 31//31 32//32
f 33//33 32//32 34//34
f 35//35 33//33 34//34
f 35//35 34//34 36//36
f 37//37 35//35 36//36
f 37//37 36//36 38//38
f 39//39 37//37 38//38
f 39//39 38//38 40//40
f 41//41 39//39 40//40
f 41//41 40//40 42//42
f 41//41 42//42 43//43
f 43//43 42//42 44//44
f 45//45 43//43 44//44
f 45//45 44//44 46//46
f 47//47 45//45 46//46
f 48//48 45//45 47//47
f 48//48 47//47 49//49
f 50//50 48//48 49//49
f 50//50 49//49 51//51
f 52//52 50//50 51//51
f 52//52 51//51 53//53
f 54//54 52//52 53//53
f 55//55 54//54 53//53
f 55//55 53//53 56//56
f 55//55 56//56 57//57
f 57//57 56//56 58//58
f 57//57 58//58 59//59
f 59//59 58//58 60//60
f 59//59 60//60 61//61
f 61//61 60//60 62//62
f 61//61 62//62 63//63
f 63//63 62//62 64//64
f 63//63 64//64 65//65
f 65//65 64//64 66//66
f 65//65 66//66 67//67
f 68//68 67//67 66//66
f 69//69 67//67 68//68
f 69//69 68//68 70//70
f 71//71 69//69 70//70
f 72//72 71//71 73//73
f 74//74 75//75 76//76
f 77//77 74//74 76//76
f 75//75 77//77 76//76
f 78//78 75//75 74//74
f 79//79 75//75 78//78
f 78//78 74//74 80//80
f 81//81 78//78 80//80
f 82//82 78//78 81//81
f 82//82 83//83 78//78
f 83//83 84//84 79//79
f 84//84 85//85 79//79
f 80//80 74//74 86//86
f 87//87 80//80 86//86
f 81//81 80//80 87//87
f 86//86 74//74 88//88
f 88//88 74//74 77//77
f 86//86 88//88 89//89
f 90//90 86//86 89//89
f 87//87 86//86 90//90
f 75//75 91//91 77//77
f 90//90 89//89 92//92
f 90//90 92//92 93//93
f 94//94 90//90 93//93
f 95//95 83//83 82//82
f 95//95 82//82 81//81
f 95//95 81//81 87//87
f 95//95 87//87 90//90
f 95//95 96//96 83//83
f 97//97 91//91 75//75
f 97//97 98//98 91//91
f 97//97 99//99 98//98
f 100//100 95//95 101//101
f 102//102 103//103 104//104
f 102//102 104//104 105//105
f 102//102 105//105 106//106
f 106//106 105//105 107//107
f 108//108 102//102 106//106
f 109//109 102//102 108//108
f 110//110 108//108 106//106
f 111//111 112//112 113//113
f 111//111 113//113 114//114
f 111//111 114//114 115//115
f 111//111 115//115 116//116
f 111//111 116//116 117//117
f 117//117 118//118 111//111
f 118//118 119//119 111//111
f 120//120 111//111 119//119
f 120//120 121//121 111//111
f 121//121 122//122 111//111
f 111//111 122//122 123//123
f 114//114 113//113 124//124
f 124//124 113//113 125//125
f 125//125 113//113 126//126
f 126//126 113//113 127//127
f 127//127 113//113 128//128
f 128//128 113//113 129//129
f 129//129 113//113 130//130
f 130//130 113//113 131//131
f 131//131 113//113 132//132
f 132//132 113//113 133//133
f 133//133 113//113 134//134
f 133//133 134//134 135//135
f 135//135 134//134 136//136
f 134//134 137//137 136//136
f 137//137 134//134 138//138
f 138//138 134//134 139//139
f 139//139 134//134 140//140
f 140//140 134//134 141//141
f 134//134 142//142 141//141
f 134//134 143//143 142//142
f 134//134 144//144 143//143
f 144//144 134//134 145//145
f 145//145 134//134 146//146
f 147//147 134//134 148//148
f 149//149 150//150 151//151
f 149//149 152//152 150//150
f 151//151 150//150 153//153
f 151//151 153//153 154//154
f 154//154 153//153 155//155
f 154//154 155//155 156//156
f 152//152 157//157 150//150
f 158//158 159//159 160//160
f 161//161 159//159 158//158
f 162//162 159//159 161//161
f 163//163 162//162 161//161
f 164//164 162//162 163//163
f 165//165 162//162 164//164
f 9//9 166//166 8//8
f 166//166 9//9 167//167
f 168//168 169//169 170//170
f 168//168 171//171 169//169
f 172//172 169//169 173//173
f 174//174 169//169 172//172
f 169//169 174//174 175//175
f 176//176 169//169 175//175
f 177//177 169//169 176//176
f 178//178 169//169 177//177
f 178//178 179//179 169//169
f 179//179 180//180 169//169
f 180//180 181//181 169//169
f 182//182 181//181 180//180
f 182//182 183//183 181//181
f 183//183 184//184 181//181
f 184//184 185//185 181//181
f 185//185 186//186 181//181
f 186//186 187//187 181//181
f 187//187 188//188 181//181
f 188//188 189//189 181//181
f 181//181 189//189 190//190
f 181//181 190//190 191//191
f 192//192 181//181 191//191
f 193//193 181//181 192//192
f 194//194 181//181 193//193
f 195//195 181//181 194//194
f 195//195 196//196 181//181
f 196//196 197//197 198//198
f 196//196 198//198 199//199
f 199//199 200//200 196//196
f 196//196 200//200 201//201
f 201//201 202//202 196//196
f 196//196 202//202 203//203
f 196//196 203//203 204//204
f 205//205 196//196 206//206
f 207//207 196//196 205//205
