v -459.0145 -434.2119 413.8414
v -325.5186 -384.5714 277.7307
v -459.0145 -434.2119 413.8414
v -459.0145 -434.2119 413.8414
v -461.6362 -433.1826 411.6454
v -462.6849 -432.7709 410.767
v -462.6849 -432.7709 410.767
v -329.189 -383.1304 274.6563
v -195.6931 -333.4899 138.5456
v -462.7441 -432.5332 410.7957
v -196.2262 -331.3501 138.8031
v -462.7515 -432.5036 410.7992
v -196.2925 -331.0842 138.8351
v -462.7535 -432.4953 410.8002
v -196.3111 -331.0095 138.8441
v -462.7768 -432.4021 410.8114
v -196.5201 -330.1705 138.9451
v -463.0631 -431.2527 410.9498
v -196.5519 -330.0428 138.9605
v -463.3346 -430.1629 411.0809
v -463.3658 -430.0376 411.096
v -196.5856 -329.9077 138.9767
v -463.431 -429.7761 411.1275
v -196.5928 -329.8787 138.9802
v -463.6038 -429.0827 411.211
v -196.612 -329.8016 138.9895
v -463.7383 -428.9565 411.125
v -197.3532 -329.107 138.5159
v -197.8235 -328.6662 138.2154
v -463.7718 -428.9252 411.1036
v -198.1241 -328.3845 138.0233
v -463.7817 -428.9159 411.0973
v -198.2135 -328.3007 137.9662
v -463.8568 -428.8455 411.0493
v -198.8896 -327.667 137.5342
v -464.7187 -428.0378 410.4986
v -198.9854 -327.5773 137.473
v -465.4307 -427.3705 410.0436
v -199.0645 -327.5031 137.4224
v -466.1344 -426.7109 409.5939
v -199.1427 -327.4298 137.3725
v -466.2165 -426.7212 409.5096
v -199.8815 -327.5226 136.614
v -466.4005 -426.7443 409.3209
v -201.5367 -327.7305 134.9148
v -466.9135 -426.8087 408.7941
v -467.1187 -426.8345 408.5834
v -201.6165 -327.7405 134.8328
v -467.8185 -426.9223 407.8651
v -201.6943 -327.7502 134.753
v -468.3946 -426.9947 407.2737
v -201.7583 -327.7583 134.6873
v -468.7945 -427.0449 406.8632
v -201.8027 -327.7639 134.6417
v -201.8027 -327.7639 134.6417
v -468.8677 -427.2139 406.7297
v -202.4613 -329.2852 133.4409
v -468.8892 -427.2637 406.6905
v -202.6552 -329.733 133.0875
v -468.8914 -427.2687 406.6865
v -202.675 -329.7787 133.0514
v -468.8924 -427.2711 406.6846
v -202.6841 -329.7999 133.0347
v -468.8937 -427.2741 406.6823
v -202.6957 -329.8267 133.0135
v -468.9176 -427.3293 406.6387
v -202.9108 -330.3236 132.6213
v -470.0257 -429.8891 404.6183
v -203.034 -330.608 132.3968
v -470.0257 -429.8891 404.6183
v -203.034 -330.608 132.3968
v -470.0257 -429.8891 404.6183
v -470.0257 -429.8891 404.6183
v -471.0744 -429.4774 403.7399
v -473.6961 -428.4481 401.5439
v -473.6961 -428.4481 401.5439
v -473.6961 -428.4481 401.5439
v -470.0257 -429.8891 404.6183
v -470.0257 -429.8891 404.6183
v -470.0257 -429.8891 404.6183
v -203.034 -330.608 132.3968
v -203.034 -330.608 132.3968
v -203.034 -330.608 132.3968
v -470.0257 -429.8891 404.6183
v -471.2337 -422.7598 406.0336
v -470.0257 -429.8891 404.6183
v -203.034 -330.608 132.3968
v -470.0257 -429.8891 404.6183
v -336.5298 -380.2485 268.5075
v -203.034 -330.608 132.3968
v -340.2002 -378.8076 265.4332
v -203.0341 -330.6081 132.397
v -203.034 -330.608 132.3968
v -204.0827 -330.1964 131.5184
v -204.242 -323.4787 133.8122
v -203.034 -330.608 132.3968
v -471.2337 -422.7598 406.0336
v -206.7044 -329.1671 129.3224
v -204.242 -323.4787 133.8122
v -201.8027 -327.7639 134.6417
v -201.8027 -327.7639 134.6417
v -325.5186 -384.5714 277.7307
v -459.0145 -434.2119 413.8414
v -459.0145 -434.2119 413.8414
v -461.6362 -433.1826 411.6454
v -329.189 -383.1304 274.6563
v -462.6849 -432.7709 410.767
v -194.1728 -334.0868 139.819
v -192.0227 -334.9308 141.62
v -195.6931 -333.4899 138.5456
v -459.0145 -434.2119 413.8414
v -460.8522 -426.8353 414.7293
v -465.9136 -422.0917 411.4952
v -463.6038 -429.0827 411.211
v -463.431 -429.7761 411.1275
v -463.3658 -430.0376 411.096
v -463.3346 -430.1629 411.0809
v -463.0631 -431.2527 410.9498
v -462.7768 -432.4021 410.8114
v -462.7535 -432.4953 410.8002
v -462.7515 -432.5036 410.7992
v -462.7441 -432.5332 410.7957
v -462.6849 -432.7709 410.767
v -463.7383 -428.9565 411.125
v -463.7718 -428.9252 411.1036
v -463.7817 -428.9159 411.0973
v -463.8568 -428.8455 411.0493
v -464.7187 -428.0378 410.4986
v -465.4307 -427.3705 410.0436
v -466.1344 -426.7109 409.5939
v -466.2165 -426.7212 409.5096
v -466.4005 -426.7443 409.3209
v -466.9135 -426.8087 408.7941
v -471.2337 -422.7598 406.0336
v -467.1187 -426.8345 408.5834
v -467.8185 -426.9223 407.8651
v -468.3946 -426.9947 407.2737
v -468.7945 -427.0449 406.8632
v -468.8677 -427.2139 406.7297
v -468.8892 -427.2637 406.6905
v -468.8914 -427.2687 406.6865
v -468.8924 -427.2711 406.6846
v -468.8937 -427.2741 406.6823
v -468.9176 -427.3293 406.6387
v -470.0257 -429.8891 404.6183
v -470.0257 -429.8891 404.6183
v -470.0257 -429.8891 404.6183
v -473.6961 -428.4481 401.5439
v -459.0145 -434.2119 413.8414
v -193.8605 -327.5543 142.5078
v -460.8522 -426.8353 414.7293
v -325.5186 -384.5714 277.7307
v -198.9218 -322.8107 139.2737
v -465.9136 -422.0917 411.4952
v -204.242 -323.4787 133.8122
v -471.2337 -422.7598 406.0336
v -192.0227 -334.9308 141.62
v -473.6961 -428.4481 401.5439
v -336.5298 -380.2485 268.5075
v -470.0257 -429.8891 404.6183
v -340.2002 -378.8076 265.4332
v -203.0341 -330.6081 132.397
v -206.7044 -329.1671 129.3224
v -204.0827 -330.1964 131.5184
v -203.034 -330.608 132.3968
v -195.6931 -333.4899 138.5456
v -193.8605 -327.5543 142.5078
v -194.1728 -334.0868 139.819
v -193.8605 -327.5543 142.5078
v -192.0227 -334.9308 141.62
v -195.6931 -333.4899 138.5456
v -196.2262 -331.3501 138.8031
v -195.6931 -333.4899 138.5456
v -196.2925 -331.0842 138.8351
v -196.3111 -331.0095 138.8441
v -196.5201 -330.1705 138.9451
v -196.5519 -330.0428 138.9605
v -196.5856 -329.9077 138.9767
v -196.5928 -329.8787 138.9802
v -196.612 -329.8016 138.9895
v -198.9218 -322.8107 139.2737
v -197.3532 -329.107 138.5159
v -197.8235 -328.6662 138.2154
v -198.1241 -328.3845 138.0233
v -198.2135 -328.3007 137.9662
v -198.8896 -327.667 137.5342
v -198.9854 -327.5773 137.473
v -199.0645 -327.5031 137.4224
v -199.1427 -327.4298 137.3725
v -199.8815 -327.5226 136.614
v -201.5367 -327.7305 134.9148
v -201.6165 -327.7405 134.8328
v -201.6943 -327.7502 134.753
v -201.7583 -327.7583 134.6873
v -201.8027 -327.7639 134.6417
v -204.242 -323.4787 133.8122
v -201.8027 -327.7639 134.6417
v -202.4613 -329.2852 133.4409
v -202.6552 -329.733 133.0875
v -202.675 -329.7787 133.0514
v -202.6841 -329.7999 133.0347
v -202.6957 -329.8267 133.0135
v -202.9108 -330.3236 132.6213
v -203.034 -330.608 132.3968
v -204.0827 -330.1964 131.5184
v -203.034 -330.608 132.3968
v -206.7044 -329.1671 129.3224

vn 0.7340816 -0.2881871 0.6148759
vn 0.7340817 -0.288187 0.6148759
vn 0.1163657 -0.3827905 0.9164771
vn -0.6776226 -0.2519743 0.6908955
vn -0.6776226 -0.2519743 0.6908955
vn -0.6951068 -0.08728819 -0.7135876
vn -0.8225342 0.2496561 -0.5109888
vn -0.2173689 -0.8288688 -0.5154873
vn -0.6951077 -0.08728365 -0.7135872
vn -0.695108 -0.08728285 -0.7135872
vn -0.6951078 -0.08728317 -0.7135872
vn -0.6951076 -0.08728413 -0.7135874
vn -0.6951072 -0.08728514 -0.7135875
vn -0.6951091 -0.0872797 -0.7135864
vn -0.6951082 -0.08728231 -0.713587
vn -0.695108 -0.08728281 -0.713587
vn -0.6951081 -0.08728267 -0.7135871
vn -0.6951081 -0.08728258 -0.713587
vn -0.695108 -0.08728286 -0.713587
vn -0.6951081 -0.08728253 -0.7135871
vn -0.6951078 -0.08728366 -0.7135872
vn -0.6951073 -0.08728516 -0.7135873
vn -0.6951079 -0.08728307 -0.713587
vn -0.6951082 -0.08728223 -0.713587
vn -0.6509393 -0.2316552 -0.7229205
vn -0.3485101 -0.7172501 -0.6034011
vn -0.321731 -0.7432223 -0.5866088
vn -0.3217316 -0.7432217 -0.5866091
vn -0.3217318 -0.7432215 -0.5866092
vn -0.3217333 -0.7432203 -0.58661
vn -0.3217342 -0.7432195 -0.5866104
vn -0.3217355 -0.7432185 -0.586611
vn -0.3217334 -0.7432202 -0.58661
vn -0.3217325 -0.7432208 -0.5866096
vn -0.3217321 -0.7432213 -0.5866095
vn -0.321732 -0.7432212 -0.5866094
vn -0.3217328 -0.7432205 -0.5866098
vn -0.3217324 -0.743221 -0.5866096
vn -0.3217316 -0.7432217 -0.5866091
vn -0.2775086 -0.7824029 -0.5575255
vn 0.1937246 -0.9674485 -0.1628324
vn 0.2401083 -0.9637898 -0.1160053
vn 0.2401091 -0.9637897 -0.1160045
vn 0.2401096 -0.9637897 -0.1160041
vn 0.2401096 -0.9637896 -0.1160041
vn 0.2401092 -0.9637896 -0.1160043
vn 0.2401088 -0.9637897 -0.1160047
vn 0.2401091 -0.9637897 -0.1160044
vn 0.2401089 -0.9637898 -0.1160046
vn 0.2401091 -0.9637896 -0.1160044
vn 0.2401091 -0.9637898 -0.1160044
vn 0.2401088 -0.9637897 -0.1160047
vn 0.3723823 -0.9276897 0.02689376
vn 0.2400926 -0.9637918 -0.1160213
vn 0.6612983 -0.6197839 0.4225547
vn 0.6612986 -0.6197829 0.4225554
vn 0.6612989 -0.6197826 0.4225557
vn 0.6612993 -0.6197816 0.4225563
vn 0.6612986 -0.6197833 0.4225552
vn 0.6612979 -0.6197846 0.4225545
vn 0.6612967 -0.6197866 0.4225531
vn 0.6612784 -0.6198217 0.4225304
vn 0.66129 -0.6197997 0.4225446
vn 0.6613014 -0.6197776 0.422559
vn 0.6612998 -0.6197808 0.4225569
vn 0.6612986 -0.619783 0.4225554
vn 0.6612984 -0.6197835 0.422555
vn 0.6612983 -0.6197837 0.4225549
vn 0.6612968 -0.6197874 0.4225519
vn 0.5980584 -0.7355272 0.3183173
vn 0.7340818 -0.288187 0.6148757
vn 0.7340818 -0.288187 0.6148757
vn 0.7340818 -0.288187 0.6148757
vn -0.6776226 -0.2519743 0.6908955
vn -0.6612985 0.6197832 -0.4225554
vn -0.6776226 -0.2519743 0.6908955
vn -0.139201 -0.8785398 -0.4569365
vn -0.03849938 -0.3787663 0.9246911
vn -0.1463211 -0.3705357 0.9172205
vn 0.6840823 -0.3053612 0.6624092
vn 0.7340818 -0.288187 0.6148757
vn 0.7340818 -0.288187 0.6148757
vn 0.7340818 -0.288187 0.6148757
vn 0.6603804 -0.3126082 0.6827693
vn -0.6776226 -0.2519743 0.6908955
vn 0.7254419 -0.29136 0.6235731
vn 0.7340818 -0.288187 0.6148757
vn 0.6308736 -0.3209251 0.7064033
vn 0.7340821 -0.2881809 0.6148782
vn 0.7734434 -0.2725323 0.5722862
vn -0.6612985 0.6197832 -0.4225553
vn 0.7340829 -0.2881651 0.6148847
vn 0.6776276 0.2519723 -0.6908913
vn 0.6776226 0.2519743 -0.6908955
vn 0.6776226 0.2519747 -0.6908954
vn 0 0 0
vn -0.6612985 0.6197833 -0.4225553
vn -0.6612985 0.6197833 -0.4225552
vn -0.6612986 0.6197833 -0.4225553
vn 0.6776226 0.2519747 -0.6908954
vn 0.6776226 0.2519747 -0.6908954
vn -0.04417413 -0.9238275 -0.3802518
vn -0.04417413 -0.9238274 -0.3802518
vn -0.04417413 -0.9238275 -0.3802518
vn -0.04417413 -0.9238275 -0.3802518
vn -0.04417413 -0.9238275 -0.3802518
vn -0.04417413 -0.9238275 -0.3802518
vn -0.04417413 -0.9238275 -0.3802518
vn -0.04417413 -0.9238275 -0.3802518
vn -0.04417413 -0.9238275 -0.3802518
vn -0.6776226 -0.2519743 0.6908955
vn -0.6776226 -0.2519743 0.6908955
vn -0.6776226 -0.2519743 0.6908955
vn -0.6776226 -0.2519743 0.6908955
vn -0.6776226 -0.2519743 0.6908955
vn -0.6776226 -0.2519743 0.6908955
vn -0.6776226 -0.2519743 0.6908955
vn -0.6776226 -0.2519743 0.6908955
vn -0.6776226 -0.2519743 0.6908955
vn -0.6776226 -0.2519743 0.6908955
vn -0.6776226 -0.2519743 0.6908955
vn -0.6776226 -0.2519743 0.6908955
vn -0.6776226 -0.2519743 0.6908955
vn -0.6776225 -0.2519743 0.6908955
vn -0.6776226 -0.2519743 0.6908955
vn -0.6776226 -0.2519743 0.6908955
vn -0.6776225 -0.2519743 0.6908955
vn -0.6776226 -0.2519743 0.6908955
vn -0.6776226 -0.2519743 0.6908955
vn -0.6776226 -0.2519743 0.6908955
vn -0.6776225 -0.2519743 0.6908955
vn -0.6776226 -0.2519743 0.6908955
vn -0.6776226 -0.2519743 0.6908955
vn -0.6776226 -0.2519743 0.6908955
vn -0.6776226 -0.2519743 0.6908955
vn -0.6776226 -0.2519743 0.6908955
vn -0.6776226 -0.2519743 0.6908955
vn -0.6776226 -0.2519743 0.6908955
vn -0.6776226 -0.2519743 0.6908955
vn -0.6776226 -0.2519743 0.6908955
vn -0.6776226 -0.2519743 0.6908955
vn -0.6776225 -0.2519743 0.6908955
vn -0.6776226 -0.2519743 0.6908955
vn -0.6776225 -0.2519743 0.6908955
vn -0.6776225 -0.2519743 0.6908955
vn -0.6776226 -0.2519743 0.6908955
vn -0.6776225 -0.2519743 0.6908955
vn -0.6776225 -0.2519743 0.6908955
vn 0.6951079 0.08728321 0.7135873
vn 0.6118618 0.3280235 0.71974
vn 0.4784149 0.5624601 0.6743574
vn 0.6951078 0.08728323 0.7135871
vn 0.144162 0.8757293 0.4607771
vn -0.05664398 0.9545621 0.2925796
vn -0.2401092 0.9637896 0.1160043
vn -0.2401092 0.9637897 0.1160043
vn 0.6951079 0.08728313 0.7135871
vn -0.04417413 -0.9238275 -0.3802518
vn -0.04417413 -0.9238275 -0.3802518
vn -0.04417413 -0.9238275 -0.3802518
vn -0.04417413 -0.9238275 -0.3802518
vn -0.04417413 -0.9238275 -0.3802518
vn -0.04417413 -0.9238275 -0.3802518
vn -0.04417412 -0.9238275 -0.3802518
vn -0.04417412 -0.9238274 -0.3802518
vn -0.5814033 0.3332995 -0.742214
vn 0.6776231 0.2519741 -0.6908951
vn 0.6776225 0.2519745 -0.6908954
vn 0.6776226 0.2519745 -0.6908954
vn 0.6776226 0.2519745 -0.6908954
vn 0.6776226 0.2519745 -0.6908954
vn 0.6776228 0.2519743 -0.6908953
vn 0.6776228 0.2519743 -0.6908953
vn 0.6776228 0.2519743 -0.6908953
vn 0.6776228 0.2519743 -0.6908953
vn 0.6776228 0.2519743 -0.6908953
vn 0.6776227 0.2519743 -0.6908953
vn 0.6776228 0.2519743 -0.6908953
vn 0.6776227 0.2519743 -0.6908953
vn 0.6776227 0.2519746 -0.6908953
vn 0.6776226 0.2519746 -0.6908954
vn 0.6776227 0.2519746 -0.6908953
vn 0.6776227 0.2519746 -0.6908953
vn 0.6776227 0.2519746 -0.6908953
vn 0.6776227 0.2519746 -0.6908953
vn 0.6776227 0.2519746 -0.6908953
vn 0.6776227 0.2519746 -0.6908953
vn 0.6776227 0.2519746 -0.6908953
vn 0.6776225 0.2519746 -0.6908954
vn 0.6776224 0.2519746 -0.6908955
vn 0.6776224 0.2519746 -0.6908955
vn 0.6776224 0.2519746 -0.6908955
vn 0.6776224 0.2519746 -0.6908955
vn 0.6776224 0.2519746 -0.6908955
vn 0.6776224 0.2519746 -0.6908955
vn 0.6776225 0.2519746 -0.6908955
vn 0.6776223 0.2519745 -0.6908957
vn 0.6776223 0.2519745 -0.6908957
vn 0.6776223 0.2519745 -0.6908957
vn 0.6776223 0.2519745 -0.6908957
vn 0.6776223 0.2519745 -0.6908957
vn 0.6776223 0.2519745 -0.6908957
vn 0.6776223 0.2519745 -0.6908957
vn 0.6776223 0.2519745 -0.6908956
vn 0.6776226 0.2519745 -0.6908954
vn 0.6776226 0.2519745 -0.6908954
vn 0.6776225 0.2519745 -0.6908954

f 1//1 2//2 3//3
f 4//4 1//1 3//3
f 3//3 5//5 4//4
f 3//3 6//6 5//5
f 5//5 6//6 7//7
f 8//8 7//7 6//6
f 9//9 8//8 6//6
f 10//10 9//9 6//6
f 9//9 10//10 11//11
f 11//11 10//10 12//12
f 13//13 11//11 12//12
f 13//13 12//12 14//14
f 13//13 14//14 15//15
f 15//15 14//14 16//16
f 15//15 16//16 17//17
f 18//18 17//17 16//16
f 19//19 17//17 18//18
f 19//19 18//18 20//20
f 21//21 19//19 20//20
f 22//22 19//19 21//21
f 22//22 21//21 23//23
f 24//24 22//22 23//23
f 24//24 23//23 25//25
f 26//26 24//24 25//25
f 26//26 25//25 27//27
f 28//28 26//26 27//27
f 28//28 27//27 29//29
f 29//29 27//27 30//30
f 31//31 29//29 30//30
f 31//31 30//30 32//32
f 33//33 31//31 32//32
f 33//33 32//32 34//34
f 35//35 33//33 34//34
f 35//35 34//34 36//36
f 37//37 35//35 36//36
f 37//37 36//36 38//38
f 39//39 37//37 38//38
f 39//39 38//38 40//40
f 41//41 39//39 40//40
f 41//41 40//40 42//42
f 41//41 42//42 43//43
f 43//43 42//42 44//44
f 45//45 43//43 44//44
f 45//45 44//44 46//46
f 47//47 45//45 46//46
f 48//48 45//45 47//47
f 48//48 47//47 49//49
f 50//50 48//48 49//49
f 50//50 49//49 51//51
f 52//52 50//50 51//51
f 52//52 51//51 53//53
f 54//54 52//52 53//53
f 55//55 54//54 53//53
f 55//55 53//53 56//56
f 55//55 56//56 57//57
f 57//57 56//56 58//58
f 57//57 58//58 59//59
f 59//59 58//58 60//60
f 59//59 60//60 61//61
f 61//61 60//60 62//62
f 61//61 62//62 63//63
f 63//63 62//62 64//64
f 63//63 64//64 65//65
f 65//65 64//64 66//66
f 65//65 66//66 67//67
f 68//68 67//67 66//66
f 69//69 67//67 68//68
f 69//69 68//68 70//70
f 71//71 69//69 70//70
f 72//72 71//71 73//73
f 74//74 75//75 76//76
f 77//77 74//74 76//76
f 75//75 77//77 76//76
f 78//78 75//75 74//74
f 79//79 75//75 78//78
f 78//78 74//74 80//80
f 81//81 78//78 80//80
f 82//82 78//78 81//81
f 82//82 83//83 78//78
f 83//83 84//84 79//79
f 84//84 85//85 79//79
f 80//80 74//74 86//86
f 87//87 80//80 86//86
f 81//81 80//80 87//87
f 86//86 74//74 88//88
f 88//88 74//74 77//77
f 86//86 88//88 89//89
f 90//90 86//86 89//89
f 87//87 86//86 90//90
f 75//75 91//91 77//77
f 90//90 89//89 92//92
f 90//90 92//92 93//93
f 94//94 90//90 93//93
f 95//95 83//83 82//82
f 95//95 82//82 81//81
f 95//95 81//81 87//87
f 95//95 87//87 90//90
f 95//95 96//96 83//83
f 97//97 91//91 75//75
f 97//97 98//98 91//91
f 97//97 99//99 98//98
f 100//100 95//95 101//101
f 102//102 103//103 104//104
f 102//102 104//104 105//105
f 102//102 105//105 106//106
f 106//106 105//105 107//107
f 108//108 102//102 106//106
f 109//109 102//102 108//108
f 110//110 108//108 106//106
f 111//111 112//112 113//113
f 111//111 113//113 114//114
f 111//111 114//114 115//115
f 111//111 115//115 116//116
f 111//111 116//116 117//117
f 117//117 118//118 111//111
f 118//118 119//119 111//111
f 120//120 111//111 119//119
f 120//120 121//121 111//111
f 121//121 122//122 111//111
f 111//111 122//122 123//123
f 114//114 113//113 124//124
f 124//124 113//113 125//125
f 125//125 113//113 126//126
f 126//126 113//113 127//127
f 127//127 113//113 128//128
f 128//128 113//113 129//129
f 129//129 113//113 130//130
f 130//130 113//113 131//131
f 131//131 113//113 132//132
f 132//132 113//113 133//133
f 133//133 113//113 134//134
f 133//133 134//134 135//135
f 135//135 134//134 136//136
f 134//134 137//137 136//136
f 137//137 134//134 138//138
f 138//138 134//134 139//139
f 139//139 134//134 140//140
f 140//140 134//134 141//141
f 134//134 142//142 141//141
f 134//134 143//143 142//142
f 134//134 144//144 143//143
f 144//144 134//134 145//145
f 145//145 134//134 146//146
f 147//147 134//134 148//148
f 149//149 150//150 151//151
f 149//149 152//152 150//150
f 151//151 150//150 153//153
f 151//151 153//153 154//154
f 154//154 153//153 155//155
f 154//154 155//155 156//156
f 152//152 157//157 150//150
f 158//158 159//159 160//160
f 161//161 159//159 158//158
f 162//162 159//159 161//161
f 163//163 162//162 161//161
f 164//164 162//162 163//163
f 165//165 162//162 164//164
f 9//9 166//166 8//8
f 166//166 9//9 167//167
f 168//168 169//169 170//170
f 168//168 171//171 169//169
f 172//172 169//169 173//173
f 174//174 169//169 172//172
f 169//169 174//174 175//175
f 176//176 169//169 175//175
f 177//177 169//169 176//176
f 178//178 169//169 177//177
f 178//178 179//179 169//169
f 179//179 180//180 169//169
f 180//180 181//181 169//169
f 182//182 181//181 180//180
f 182//182 183//183 181//181
f 183//183 184//184 181//181
f 184//184 185//185 181//181
f 185//185 186//186 181//181
f 186//186 187//187 181//181
f 187//187 188//188 181//181
f 188//188 189//189 181//181
f 181//181 189//189 190//190
f 181//181 190//190 191//191
f 192//192 181//181 191//191
f 193//193 181//181 192//192
f 194//194 181//181 193//193
f 195//195 181//181 194//194
f 195//195 196//196 181//181
f 196//196 197//197 198//198
f 196//196 198//198 199//199
f 199//199 200//200 196//196
f 196//196 200//200 201//201
f 201//201 202//202 196//196
f 196//196 202//202 203//203
f 196//196 203//203 204//204
f 205//205 196//196 206//206
f 207//207 196//196 205//205
