v -106.08 49.75531 -191.8954
v -226.0813 5.514529 -67.25445
v -106.08 49.75531 -191.8954
v -106.08 49.75531 -191.8954
v -106.474 53.20304 -191.051
v -106.6316 54.58213 -190.7132
v -106.6316 54.58213 -190.7132
v -226.6329 10.34135 -66.07227
v -346.6343 -33.89943 58.56869
v -106.8089 54.69193 -190.845
v -348.2302 -32.91126 57.38292
v -106.8309 54.70557 -190.8614
v -348.4285 -32.78847 57.23557
v -106.8371 54.7094 -190.8659
v -348.4842 -32.75399 57.19421
v -106.9066 54.75245 -190.9176
v -349.11 -32.36653 56.72926
v -107.7639 55.28323 -191.5545
v -349.2052 -32.30756 56.6585
v -108.5766 55.78648 -192.1584
v -108.6701 55.84438 -192.2279
v -349.3059 -32.24521 56.58368
v -108.8652 55.96513 -192.3728
v -349.3276 -32.23179 56.56758
v -109.3823 56.28535 -192.757
v -349.3851 -32.19621 56.52489
v -109.4601 56.47327 -192.7652
v -349.8134 -31.16142 56.47976
v -350.0852 -30.50491 56.45113
v -109.4794 56.5199 -192.7673
v -350.2589 -30.08527 56.43283
v -109.4852 56.53377 -192.7679
v -350.3106 -29.96039 56.42738
v -109.5286 56.63864 -192.7724
v -350.7013 -29.01653 56.38622
v -110.0266 57.84182 -192.8249
v -350.7567 -28.88284 56.38039
v -110.4381 58.83583 -192.8683
v -350.8024 -28.77239 56.37558
v -110.8448 59.81833 -192.9111
v -350.8476 -28.66323 56.37082
v -110.8238 59.91995 -192.8548
v -350.6581 -27.74862 56.87793
v -110.7766 60.14764 -192.7285
v -350.2334 -25.69937 58.01414
v -110.645 60.78288 -192.3763
v -110.5923 61.03692 -192.2354
v -350.2129 -25.60056 58.06893
v -110.4128 61.90315 -191.7552
v -350.193 -25.50431 58.1223
v -110.265 62.6164 -191.3597
v -350.1765 -25.42506 58.16624
v -110.1624 63.1115 -191.0852
v -350.1652 -25.37005 58.19674
v -350.1652 -25.37005 58.19674
v -110.0181 63.17832 -190.9225
v -348.8666 -24.76868 59.66039
v -109.9757 63.19799 -190.8747
v -348.4844 -24.59168 60.09119
v -109.9713 63.2 -190.8698
v -348.4454 -24.57361 60.13517
v -109.9693 63.20093 -190.8675
v -348.4273 -24.56523 60.15556
v -109.9668 63.20211 -190.8647
v -348.4044 -24.55464 60.18134
v -109.9197 63.22393 -190.8116
v -347.9803 -24.35821 60.65942
v -107.7348 64.23577 -188.3489
v -347.7375 -24.24578 60.93304
v -107.7348 64.23578 -188.3489
v -347.7375 -24.24578 60.93304
v -107.7348 64.23578 -188.3489
v -107.7348 64.23578 -188.3489
v -107.8924 65.61487 -188.0111
v -108.2864 69.0626 -187.1667
v -108.2864 69.0626 -187.1667
v -108.2864 69.0626 -187.1667
v -107.7348 64.23578 -188.3489
v -107.7348 64.23578 -188.3489
v -107.7348 64.23578 -188.3489
v -347.7375 -24.24578 60.93304
v -347.7375 -24.24578 60.93304
v -347.7375 -24.24578 60.93304
v -107.7348 64.23578 -188.3489
v -113.1417 66.81406 -192.6393
v -107.7348 64.23578 -188.3489
v -347.7375 -24.24578 60.93304
v -107.7348 64.23578 -188.3489
v -227.7362 19.995 -63.7079
v -347.7375 -24.24578 60.93304
v -228.2878 24.82182 -62.52572
v -347.7374 -24.24573 60.93292
v -347.7375 -24.24578 60.93304
v -347.8951 -22.86669 61.27081
v -353.1444 -21.66749 56.64259
v -347.7375 -24.24578 60.93304
v -113.1417 66.81406 -192.6393
v -348.2892 -19.41896 62.11523
v -353.1444 -21.66749 56.64259
v -350.1652 -25.37005 58.19674
v -350.1652 -25.37005 58.19674
v -226.0813 5.514529 -67.25445
v -106.08 49.75531 -191.8954
v -106.08 49.75531 -191.8954
v -106.474 53.20304 -191.051
v -226.6329 10.34135 -66.07227
v -106.6316 54.58213 -190.7132
v -346.4058 -35.89877 58.07902
v -346.0827 -38.72625 57.38651
v -346.6343 -33.89943 58.56869
v -106.08 49.75531 -191.8954
v -111.5815 53.16174 -195.983
v -114.5065 60.22771 -196.2911
v -109.3823 56.28535 -192.757
v -108.8652 55.96513 -192.3728
v -108.6701 55.84438 -192.2279
v -108.5766 55.78648 -192.1584
v -107.7639 55.28323 -191.5545
v -106.9066 54.75245 -190.9176
v -106.8371 54.7094 -190.8659
v -106.8309 54.70557 -190.8614
v -106.8089 54.69193 -190.845
v -106.6316 54.58213 -190.7132
v -109.4601 56.47327 -192.7652
v -109.4794 56.5199 -192.7673
v -109.4852 56.53377 -192.7679
v -109.5286 56.63864 -192.7724
v -110.0266 57.84182 -192.8249
v -110.4381 58.83583 -192.8683
v -110.8448 59.81833 -192.9111
v -110.8238 59.91995 -192.8548
v -110.7766 60.14764 -192.7285
v -110.645 60.78288 -192.3763
v -113.1417 66.81406 -192.6393
v -110.5923 61.03692 -192.2354
v -110.4128 61.90315 -191.7552
v -110.265 62.6164 -191.3597
v -110.1624 63.1115 -191.0852
v -110.0181 63.17832 -190.9225
v -109.9757 63.19799 -190.8747
v -109.9713 63.2 -190.8698
v -109.9693 63.20093 -190.8675
v -109.9668 63.20211 -190.8647
v -109.9197 63.22393 -190.8116
v -107.7348 64.23577 -188.3489
v -107.7348 64.23578 -188.3489
v -107.7348 64.23578 -188.3489
v -108.2864 69.0626 -187.1667
v -106.08 49.75531 -191.8954
v -351.5842 -35.31981 53.29888
v -111.5815 53.16174 -195.983
v -226.0813 5.514529 -67.25445
v -354.5092 -28.25384 52.99075
v -114.5065 60.22771 -196.2911
v -353.1444 -21.66749 56.64259
v -113.1417 66.81406 -192.6393
v -346.0827 -38.72625 57.38651
v -108.2864 69.0626 -187.1667
v -227.7362 19.995 -63.7079
v -107.7348 64.23578 -188.3489
v -228.2878 24.82182 -62.52572
v -347.7374 -24.24573 60.93292
v -348.2892 -19.41896 62.11523
v -347.8951 -22.86669 61.27081
v -347.7375 -24.24578 60.93304
v -346.6343 -33.89943 58.56869
v -351.5842 -35.31981 53.29888
v -346.4058 -35.89877 58.07902
v -351.5842 -35.31981 53.29888
v -346.0827 -38.72625 57.38651
v -346.6343 -33.89943 58.56869
v -348.2302 -32.91126 57.38292
v -346.6343 -33.89943 58.56869
v -348.4285 -32.78847 57.23557
v -348.4842 -32.75399 57.19421
v -349.11 -32.36653 56.72926
v -349.2052 -32.30756 56.6585
v -349.3059 -32.24521 56.58368
v -349.3276 -32.23179 56.56758
v -349.3851 -32.19621 56.52489
v -354.5092 -28.25384 52.99075
v -349.8134 -31.16142 56.47976
v -350.0852 -30.50491 56.45113
v -350.2589 -30.08527 56.43283
v -350.3106 -29.96039 56.42738
v -350.7013 -29.01653 56.38622
v -350.7567 -28.88284 56.38039
v -350.8024 -28.77239 56.37558
v -350.8476 -28.66323 56.37082
v -350.6581 -27.74862 56.87793
v -350.2334 -25.69937 58.01414
v -350.2129 -25.60056 58.06893
v -350.193 -25.50431 58.1223
v -350.1765 -25.42506 58.16624
v -350.1652 -25.37005 58.19674
v -353.1444 -21.66749 56.64259
v -350.1652 -25.37005 58.19674
v -348.8666 -24.76868 59.66039
v -348.4844 -24.59168 60.09119
v -348.4454 -24.57361 60.13517
v -348.4273 -24.56523 60.15556
v -348.4044 -24.55464 60.18134
v -347.9803 -24.35821 60.65942
v -347.7375 -24.24578 60.93304
v -347.8951 -22.86669 61.27081
v -347.7375 -24.24578 60.93304
v -348.2892 -19.41896 62.11523

vn 0.1103234 -0.9653636 -0.2364358
vn 0.1103233 -0.9653637 -0.2364357
vn 0.5210647 -0.5717394 -0.6337236
vn 0.671953 0.2477282 -0.6979326
vn 0.671953 0.2477282 -0.6979326
vn 0.1783291 0.8605453 0.477138
vn -0.014186 0.9906955 0.1353568
vn 0.6851292 0.1498968 0.7128316
vn 0.1783255 0.8605472 0.4771357
vn 0.178325 0.8605477 0.4771352
vn 0.1783252 0.8605475 0.4771354
vn 0.1783259 0.860547 0.477136
vn 0.1783266 0.8605465 0.4771366
vn 0.1783228 0.8605493 0.4771331
vn 0.1783246 0.8605479 0.4771348
vn 0.178325 0.8605477 0.4771351
vn 0.1783249 0.8605478 0.4771351
vn 0.1783248 0.8605478 0.477135
vn 0.178325 0.8605477 0.4771352
vn 0.1783248 0.8605478 0.477135
vn 0.1783256 0.8605473 0.4771356
vn 0.1783267 0.8605465 0.4771365
vn 0.1783252 0.8605475 0.4771352
vn 0.1783246 0.860548 0.4771348
vn 0.2847039 0.7835712 0.5522318
vn 0.6182046 0.3312988 0.7127861
vn 0.6343671 0.2937836 0.7150312
vn 0.6343668 0.2937844 0.7150311
vn 0.6343667 0.2937847 0.7150311
vn 0.634366 0.2937867 0.715031
vn 0.6343655 0.2937879 0.7150308
vn 0.634365 0.2937895 0.7150306
vn 0.634366 0.2937868 0.7150309
vn 0.6343662 0.2937857 0.715031
vn 0.6343665 0.2937852 0.7150311
vn 0.6343665 0.293785 0.7150311
vn 0.634366 0.2937861 0.715031
vn 0.6343663 0.2937855 0.7150311
vn 0.6343668 0.2937844 0.7150311
vn 0.6581452 0.2323835 0.7161305
vn 0.7290033 -0.387325 0.5643879
vn 0.7188042 -0.4450704 0.5340719
vn 0.7188041 -0.4450713 0.5340714
vn 0.7188039 -0.4450719 0.5340711
vn 0.7188039 -0.4450719 0.5340711
vn 0.7188039 -0.4450715 0.5340713
vn 0.7188041 -0.445071 0.5340714
vn 0.7188041 -0.4450715 0.5340713
vn 0.7188042 -0.4450711 0.5340715
vn 0.718804 -0.4450714 0.5340713
vn 0.7188041 -0.4450714 0.5340713
vn 0.7188041 -0.445071 0.5340715
vn 0.6695669 -0.6059278 0.4295715
vn 0.7188083 -0.445051 0.5340826
vn 0.3821764 -0.923212 0.04025995
vn 0.3821755 -0.9232123 0.04025906
vn 0.3821752 -0.9232125 0.04025877
vn 0.3821744 -0.9232128 0.04025798
vn 0.3821758 -0.9232122 0.04025932
vn 0.3821771 -0.9232118 0.04026027
vn 0.382179 -0.9232107 0.04026203
vn 0.3822114 -0.9231961 0.04029046
vn 0.3821911 -0.9232054 0.04027267
vn 0.3821707 -0.9232146 0.04025463
vn 0.3821736 -0.9232133 0.0402573
vn 0.3821756 -0.9232123 0.04025912
vn 0.382176 -0.9232121 0.04025954
vn 0.3821762 -0.9232121 0.04025973
vn 0.3821793 -0.9232106 0.04026338
vn 0.4830424 -0.8609526 0.1594701
vn 0.1103232 -0.9653637 -0.2364355
vn 0.1103232 -0.9653637 -0.2364355
vn 0.1103232 -0.9653637 -0.2364355
vn 0.671953 0.2477282 -0.6979326
vn -0.3821759 0.9232122 -0.04025918
vn 0.671953 0.2477282 -0.6979326
vn 0.7117821 0.04427797 0.7010034
vn 0.5825988 -0.4385982 -0.6842589
vn 0.617331 -0.3391582 -0.709841
vn 0.1577859 -0.9453232 -0.2854254
vn 0.1103232 -0.9653637 -0.2364355
vn 0.1103232 -0.9653637 -0.2364355
vn 0.1103232 -0.9653637 -0.2364355
vn 0.1789493 -0.9347124 -0.3070669
vn 0.671953 0.2477282 -0.6979326
vn 0.1188276 -0.9621497 -0.2452507
vn 0.1103232 -0.9653637 -0.2364355
vn 0.2042428 -0.9206272 -0.3327618
vn 0.1103183 -0.9653631 -0.23644
vn 0.06977426 -0.9784956 -0.1941081
vn -0.3821758 0.9232122 -0.04025925
vn 0.1103058 -0.9653618 -0.2364515
vn -0.6719522 -0.2477349 0.6979309
vn -0.671953 -0.2477282 0.6979326
vn -0.6719533 -0.2477282 0.6979323
vn 0 0 0
vn -0.3821759 0.9232122 -0.0402593
vn -0.3821758 0.9232122 -0.04025931
vn -0.3821759 0.9232123 -0.04025929
vn -0.6719533 -0.2477282 0.6979323
vn -0.6719533 -0.2477282 0.6979323
vn 0.7323305 -0.08187543 0.6760092
vn 0.7323304 -0.08187542 0.6760092
vn 0.7323305 -0.08187543 0.6760092
vn 0.7323305 -0.08187543 0.6760092
vn 0.7323305 -0.08187543 0.6760092
vn 0.7323305 -0.08187543 0.6760092
vn 0.7323305 -0.08187543 0.6760092
vn 0.7323305 -0.08187543 0.6760092
vn 0.7323305 -0.08187543 0.6760092
vn 0.671953 0.2477282 -0.6979326
vn 0.671953 0.2477282 -0.6979326
vn 0.671953 0.2477282 -0.6979326
vn 0.671953 0.2477282 -0.6979326
vn 0.671953 0.2477282 -0.6979326
vn 0.671953 0.2477282 -0.6979326
vn 0.671953 0.2477282 -0.6979326
vn 0.671953 0.2477282 -0.6979326
vn 0.671953 0.2477282 -0.6979326
vn 0.671953 0.2477282 -0.6979326
vn 0.671953 0.2477282 -0.6979326
vn 0.671953 0.2477282 -0.6979326
vn 0.671953 0.2477282 -0.6979326
vn 0.671953 0.2477282 -0.6979325
vn 0.671953 0.2477282 -0.6979326
vn 0.671953 0.2477282 -0.6979326
vn 0.671953 0.2477282 -0.6979325
vn 0.671953 0.2477282 -0.6979326
vn 0.671953 0.2477282 -0.6979326
vn 0.671953 0.2477282 -0.6979326
vn 0.671953 0.2477282 -0.6979325
vn 0.671953 0.2477282 -0.6979326
vn 0.671953 0.2477282 -0.6979326
vn 0.671953 0.2477282 -0.6979326
vn 0.671953 0.2477282 -0.6979326
vn 0.671953 0.2477282 -0.6979326
vn 0.671953 0.2477282 -0.6979326
vn 0.671953 0.2477282 -0.6979326
vn 0.671953 0.2477282 -0.6979326
vn 0.671953 0.2477282 -0.6979326
vn 0.671953 0.2477282 -0.6979326
vn 0.671953 0.2477282 -0.6979325
vn 0.671953 0.2477282 -0.6979326
vn 0.671953 0.2477282 -0.6979325
vn 0.671953 0.2477282 -0.6979325
vn 0.671953 0.2477282 -0.6979326
vn 0.671953 0.2477282 -0.6979325
vn 0.671953 0.2477282 -0.6979325
vn -0.1783252 -0.8605475 -0.4771355
vn -0.3541961 -0.7201319 -0.5966198
vn -0.5171883 -0.5175673 -0.6816453
vn -0.1783252 -0.8605474 -0.4771354
vn -0.710359 -0.05093026 -0.7019945
vn -0.7405376 0.2131422 -0.6373182
vn -0.718804 0.4450715 -0.5340712
vn -0.7188041 0.4450715 -0.5340712
vn -0.1783252 -0.8605475 -0.4771353
vn 0.7323305 -0.08187543 0.6760092
vn 0.7323305 -0.08187543 0.6760092
vn 0.7323305 -0.08187543 0.6760092
vn 0.7323305 -0.08187543 0.6760092
vn 0.7323305 -0.08187543 0.6760092
vn 0.7323305 -0.08187543 0.6760092
vn 0.7323304 -0.08187543 0.6760092
vn 0.7323304 -0.08187543 0.6760092
vn -0.2443047 0.8950629 0.3730651
vn -0.6719529 -0.2477289 0.6979324
vn -0.6719531 -0.2477282 0.6979324
vn -0.6719531 -0.2477283 0.6979324
vn -0.6719531 -0.2477282 0.6979325
vn -0.6719531 -0.2477282 0.6979325
vn -0.671953 -0.2477285 0.6979324
vn -0.671953 -0.2477285 0.6979324
vn -0.671953 -0.2477285 0.6979324
vn -0.671953 -0.2477285 0.6979324
vn -0.671953 -0.2477285 0.6979324
vn -0.671953 -0.2477285 0.6979324
vn -0.671953 -0.2477285 0.6979324
vn -0.671953 -0.2477285 0.6979324
vn -0.6719532 -0.2477283 0.6979324
vn -0.6719532 -0.2477282 0.6979324
vn -0.6719532 -0.2477283 0.6979324
vn -0.6719532 -0.2477283 0.6979324
vn -0.6719532 -0.2477283 0.6979324
vn -0.6719532 -0.2477283 0.6979324
vn -0.6719532 -0.2477283 0.6979324
vn -0.6719532 -0.2477283 0.6979324
vn -0.6719532 -0.2477283 0.6979324
vn -0.6719532 -0.2477281 0.6979324
vn -0.6719532 -0.247728 0.6979324
vn -0.6719532 -0.247728 0.6979324
vn -0.6719532 -0.247728 0.6979324
vn -0.6719532 -0.247728 0.6979324
vn -0.6719532 -0.247728 0.6979324
vn -0.6719532 -0.247728 0.6979324
vn -0.6719532 -0.2477281 0.6979325
vn -0.6719531 -0.2477279 0.6979326
vn -0.6719531 -0.2477279 0.6979326
vn -0.6719531 -0.2477279 0.6979326
vn -0.6719531 -0.2477279 0.6979326
vn -0.6719531 -0.2477279 0.6979326
vn -0.6719531 -0.2477279 0.6979326
vn -0.6719531 -0.2477279 0.6979326
vn -0.6719531 -0.2477279 0.6979325
vn -0.6719531 -0.2477282 0.6979325
vn -0.6719531 -0.2477282 0.6979325
vn -0.6719531 -0.2477282 0.6979324

f 1//1 2//2 3//3
f 4//4 1//1 3//3
f 3//3 5//5 4//4
f 3//3 6//6 5//5
f 5//5 6//6 7//7
f 8//8 7//7 6//6
f 9//9 8//8 6//6
f 10//10 9//9 6//6
f 9//9 10//10 11//11
f 11//11 10//10 12//12
f 13//13 11//11 12//12
f 13//13 12//12 14//14
f 13//13 14//14 15//15
f 15//15 14//14 16//16
f 15//15 16//16 17//17
f 18//18 17//17 16//16
f 19//19 17//17 18//18
f 19//19 18//18 20//20
f 21//21 19//19 20//20
f 22//22 19//19 21//21
f 22//22 21//21 23//23
f 24//24 22//22 23//23
f 24//24 23//23 25//25
f 26//26 24//24 25//25
f 26//26 25//25 27//27
f 28//28 26//26 27//27
f 28//28 27//27 29//29
f 29//29 27//27 30//30
f 31//31 29//29 30//30
f 31//31 30//30 32//32
f 33//33 31//31 32//32
f 33//33 32//32 34//34
f 35//35 33//33 34//34
f 35//35 34//34 36//36
f 37//37 35//35 36//36
f 37//37 36//36 38//38
f 39//39 37//37 38//38
f 39//39 38//38 40//40
f 41//41 39//39 40//40
f 41//41 40//40 42//42
f 41//41 42//42 43//43
f 43//43 42//42 44//44
f 45//45 43//43 44//44
f 45//45 44//44 46//46
f 47//47 45//45 46//46
f 48//48 45//45 47//47
f 48//48 47//47 49//49
f 50//50 48//48 49//49
f 50//50 49//49 51//51
f 52//52 50//50 51//51
f 52//52 51//51 53//53
f 54//54 52//52 53//53
f 55//55 54//54 53//53
f 55//55 53//53 56//56
f 55//55 56//56 57//57
f 57//57 56//56 58//58
f 57//57 58//58 59//59
f 59//59 58//58 60//60
f 59//59 60//60 61//61
f 61//61 60//60 62//62
f 61//61 62//62 63//63
f 63//63 62//62 64//64
f 63//63 64//64 65//65
f 65//65 64//64 66//66
f 65//65 66//66 67//67
f 68//68 67//67 66//66
f 69//69 67//67 68//68
f 69//69 68//68 70//70
f 71//71 69//69 70//70
f 72//72 71//71 73//73
f 74//74 75//75 76//76
f 77//77 74//74 76//76
f 75//75 77//77 76//76
f 78//78 75//75 74//74
f 79//79 75//75 78//78
f 78//78 74//74 80//80
f 81//81 78//78 80//80
f 82//82 78//78 81//81
f 82//82 83//83 78//78
f 83//83 84//84 79//79
f 84//84 85//85 79//79
f 80//80 74//74 86//86
f 87//87 80//80 86//86
f 81//81 80//80 87//87
f 86//86 74//74 88//88
f 88//88 74//74 77//77
f 86//86 88//88 89//89
f 90//90 86//86 89//89
f 87//87 86//86 90//90
f 75//75 91//91 77//77
f 90//90 89//89 92//92
f 90//90 92//92 93//93
f 94//94 90//90 93//93
f 95//95 83//83 82//82
f 95//95 82//82 81//81
f 95//95 81//81 87//87
f 95//95 87//87 90//90
f 95//95 96//96 83//83
f 97//97 91//91 75//75
f 97//97 98//98 91//91
f 97//97 99//99 98//98
f 100//100 95//95 101//101
f 102//102 103//103 104//104
f 102//102 104//104 105//105
f 102//102 105//105 106//106
f 106//106 105//105 107//107
f 108//108 102//102 106//106
f 109//109 102//102 108//108
f 110//110 108//108 106//106
f 111//111 112//112 113//113
f 111//111 113//113 114//114
f 111//111 114//114 115//115
f 111//111 115//115 116//116
f 111//111 116//116 117//117
f 117//117 118//118 111//111
f 118//118 119//119 111//111
f 120//120 111//111 119//119
f 120//120 121//121 111//111
f 121//121 122//122 111//111
f 111//111 122//122 123//123
f 114//114 113//113 124//124
f 124//124 113//113 125//125
f 125//125 113//113 126//126
f 126//126 113//113 127//127
f 127//127 113//113 128//128
f 128//128 113//113 129//129
f 129//129 113//113 130//130
f 130//130 113//113 131//131
f 131//131 113//113 132//132
f 132//132 113//113 133//133
f 133//133 113//113 134//134
f 133//133 134//134 135//135
f 135//135 134//134 136//136
f 134//134 137//137 136//136
f 137//137 134//134 138//138
f 138//138 134//134 139//139
f 139//139 134//134 140//140
f 140//140 134//134 141//141
f 134//134 142//142 141//141
f 134//134 143//143 142//142
f 134//134 144//144 143//143
f 144//144 134//134 145//145
f 145//145 134//134 146//146
f 147//147 134//134 148//148
f 149//149 150//150 151//151
f 149//149 152//152 150//150
f 151//151 150//150 153//153
f 151//151 153//153 154//154
f 154//154 153//153 155//155
f 154//154 155//155 156//156
f 152//152 157//157 150//150
f 158//158 159//159 160//160
f 161//161 159//159 158//158
f 162//162 159//159 161//161
f 163//163 162//162 161//161
f 164//164 162//162 163//163
f 165//165 162//162 164//164
f 9//9 166//166 8//8
f 166//166 9//9 167//167
f 168//168 169//169 170//170
f 168//168 171//171 169//169
f 172//172 169//169 173//173
f 174//174 169//169 172//172
f 169//169 174//174 175//175
f 176//176 169//169 175//175
f 177//177 169//169 176//176
f 178//178 169//169 177//177
f 178//178 179//179 169//169
f 179//179 180//180 169//169
f 180//180 181//181 169//169
f 182//182 181//181 180//180
f 182//182 183//183 181//181
f 183//183 184//184 181//181
f 184//184 185//185 181//181
f 185//185 186//186 181//181
f 186//186 187//187 181//181
f 187//187 188//188 181//181
f 188//188 189//189 181//181
f 181//181 189//189 190//190
f 181//181 190//190 191//191
f 192//192 181//181 191//191
f 193//193 181//181 192//192
f 194//194 181//181 193//193
f 195//195 181//181 194//194
f 195//195 196//196 181//181
f 196//196 197//197 198//198
f 196//196 198//198 199//199
f 199//199 200//200 196//196
f 196//196 200//200 201//201
f 201//201 202//202 196//196
f 196//196 202//202 203//203
f 196//196 203//203 204//204
f 205//205 196//196 206//206
f 207//207 196//196 205//205
