v 125.9062 156.6445 -432.4913
v 15.96405 115.2931 -316.5305
v 125.9062 156.6445 -432.4913
v 125.9062 156.6445 -432.4913
v 126.0148 153.2508 -433.5986
v 126.0582 151.8933 -434.0415
v 126.0582 151.8933 -434.0415
v 16.116 110.5419 -318.0807
v -93.82619 69.19051 -202.12
v 126.2309 151.7614 -433.9247
v -92.27167 68.00333 -201.0695
v 126.2524 151.745 -433.9102
v -92.07849 67.8558 -200.939
v 126.2584 151.7404 -433.9062
v -92.02426 67.81438 -200.9023
v 126.3261 151.6887 -433.8604
v -91.41473 67.34889 -200.4904
v 127.1611 151.051 -433.2961
v -91.32196 67.27804 -200.4277
v 127.9528 150.4464 -432.7612
v 128.0439 150.3769 -432.6996
v -91.22388 67.20313 -200.3615
v 128.2338 150.2318 -432.5712
v -91.20277 67.18701 -200.3472
v 128.7376 149.8471 -432.2308
v -91.14679 67.14427 -200.3094
v 128.8013 149.654 -432.2393
v -90.79565 66.08084 -200.3557
v -90.57289 65.40616 -200.3851
v 128.8172 149.6061 -432.2413
v -90.4305 64.97491 -200.4038
v 128.8219 149.5918 -432.2419
v -90.38811 64.84657 -200.4094
v 128.8575 149.484 -432.2466
v -90.06783 63.87658 -200.4517
v 129.2657 148.2475 -432.3005
v -90.02246 63.73919 -200.4576
v 129.603 147.226 -432.345
v -89.98499 63.62569 -200.4626
v 129.9364 146.2163 -432.3889
v -89.94795 63.5135 -200.4675
v 129.9061 146.121 -432.4517
v -90.22122 62.65575 -201.0324
v 129.838 145.9075 -432.5923
v -90.83351 60.73391 -202.2983
v 129.6482 145.3118 -432.9847
v 129.5723 145.0735 -433.1417
v -90.86304 60.64124 -202.3593
v 129.3135 144.2611 -433.6768
v -90.89178 60.55098 -202.4188
v 129.1004 143.5922 -434.1173
v -90.91547 60.47665 -202.4677
v 128.9525 143.1279 -434.4232
v -90.93192 60.42506 -202.5017
v -90.9319 60.42506 -202.5017
v 128.7985 143.0841 -434.5847
v -92.3175 60.03087 -203.9559
v 128.7532 143.0712 -434.6323
v -92.72533 59.91485 -204.384
v 128.7486 143.0699 -434.6371
v -92.76697 59.903 -204.4277
v 128.7464 143.0693 -434.6394
v -92.78627 59.89751 -204.4479
v 128.7437 143.0685 -434.6422
v -92.81067 59.89057 -204.4735
v 128.6934 143.0542 -434.695
v -93.26326 59.76181 -204.9485
v 126.3621 142.391 -437.1419
v -93.52229 59.68812 -205.2204
v 126.3621 142.391 -437.1419
v -93.52229 59.68812 -205.2204
v 126.3621 142.391 -437.1419
v 126.3621 142.391 -437.1419
v 126.4055 141.0335 -437.5848
v 126.514 137.6398 -438.6921
v 126.514 137.6398 -438.6921
v 126.514 137.6398 -438.6921
v 126.3621 142.391 -437.1419
v 126.3621 142.391 -437.1419
v 126.3621 142.391 -437.1419
v -93.52229 59.68812 -205.2204
v -93.52229 59.68812 -205.2204
v -93.52229 59.68812 -205.2204
v 126.3621 142.391 -437.1419
v 131.6948 139.1136 -433.2546
v 126.3621 142.391 -437.1419
v -93.52229 59.68812 -205.2204
v 126.3621 142.391 -437.1419
v 16.41989 101.0395 -321.1812
v -93.52229 59.68812 -205.2204
v 16.57183 96.28834 -322.7314
v -93.52219 59.68816 -205.2206
v -93.52229 59.68812 -205.2204
v -93.47888 58.33064 -205.6633
v -88.18956 56.41082 -201.3332
v -93.52229 59.68812 -205.2204
v 131.6948 139.1136 -433.2546
v -93.37035 54.93693 -206.7706
v -88.18956 56.41082 -201.3332
v -90.9319 60.42506 -202.5017
v -90.93192 60.42506 -202.5017
v 15.96405 115.2931 -316.5305
v 125.9062 156.6445 -432.4913
v 125.9062 156.6445 -432.4913
v 126.0148 153.2508 -433.5986
v 16.116 110.5419 -318.0807
v 126.0582 151.8933 -434.0415
v -93.88913 71.15852 -201.4779
v -93.97813 73.9417 -200.5698
v -93.82619 69.19051 -202.12
v 125.9062 156.6445 -432.4913
v 131.265 152.552 -428.87
v 133.6627 145.2905 -429.1862
v 128.7376 149.8471 -432.2308
v 128.2338 150.2318 -432.5712
v 128.0439 150.3769 -432.6996
v 127.9528 150.4464 -432.7612
v 127.1611 151.051 -433.2961
v 126.3261 151.6887 -433.8604
v 126.2584 151.7404 -433.9062
v 126.2524 151.745 -433.9102
v 126.2309 151.7614 -433.9247
v 126.0582 151.8933 -434.0415
v 128.8013 149.654 -432.2393
v 128.8172 149.6061 -432.2413
v 128.8219 149.5918 -432.2419
v 128.8575 149.484 -432.2466
v 129.2657 148.2475 -432.3005
v 129.603 147.226 -432.345
v 129.9364 146.2163 -432.3889
v 129.9061 146.121 -432.4517
v 129.838 145.9075 -432.5923
v 129.6482 145.3118 -432.9847
v 131.6948 139.1136 -433.2546
v 129.5723 145.0735 -433.1417
v 129.3135 144.2611 -433.6768
v 129.1004 143.5922 -434.1173
v 128.9525 143.1279 -434.4232
v 128.7985 143.0841 -434.5847
v 128.7532 143.0712 -434.6323
v 128.7486 143.0699 -434.6371
v 128.7464 143.0693 -434.6394
v 128.7437 143.0685 -434.6422
v 128.6934 143.0542 -434.695
v 126.3621 142.391 -437.1419
v 126.3621 142.391 -437.1419
v 126.3621 142.391 -437.1419
v 126.514 137.6398 -438.6921
v 125.9062 156.6445 -432.4913
v -88.61932 69.84923 -196.9485
v 131.265 152.552 -428.87
v 15.96405 115.2931 -316.5305
v -86.22163 62.5877 -197.2647
v 133.6627 145.2905 -429.1862
v -88.18956 56.41082 -201.3332
v 131.6948 139.1136 -433.2546
v -93.97813 73.9417 -200.5698
v 126.514 137.6398 -438.6921
v 16.41989 101.0395 -321.1812
v 126.3621 142.391 -437.1419
v 16.57183 96.28834 -322.7314
v -93.52219 59.68816 -205.2206
v -93.37035 54.93693 -206.7706
v -93.47888 58.33064 -205.6633
v -93.52229 59.68812 -205.2204
v -93.82619 69.19051 -202.12
v -88.61932 69.84923 -196.9485
v -93.88913 71.15852 -201.4779
v -88.61932 69.84923 -196.9485
v -93.97813 73.9417 -200.5698
v -93.82619 69.19051 -202.12
v -92.27167 68.00333 -201.0695
v -93.82619 69.19051 -202.12
v -92.07849 67.8558 -200.939
v -92.02426 67.81438 -200.9023
v -91.41473 67.34889 -200.4904
v -91.32196 67.27804 -200.4277
v -91.22388 67.20313 -200.3615
v -91.20277 67.18701 -200.3472
v -91.14679 67.14427 -200.3094
v -86.22163 62.5877 -197.2647
v -90.79565 66.08084 -200.3557
v -90.57289 65.40616 -200.3851
v -90.4305 64.97491 -200.4038
v -90.38811 64.84657 -200.4094
v -90.06783 63.87658 -200.4517
v -90.02246 63.73919 -200.4576
v -89.98499 63.62569 -200.4626
v -89.94795 63.5135 -200.4675
v -90.22122 62.65575 -201.0324
v -90.83351 60.73391 -202.2983
v -90.86304 60.64124 -202.3593
v -90.89178 60.55098 -202.4188
v -90.91547 60.47665 -202.4677
v -90.93192 60.42506 -202.5017
v -88.18956 56.41082 -201.3332
v -90.9319 60.42506 -202.5017
v -92.3175 60.03087 -203.9559
v -92.72533 59.91485 -204.384
v -92.76697 59.903 -204.4277
v -92.78627 59.89751 -204.4479
v -92.81067 59.89057 -204.4735
v -93.26326 59.76181 -204.9485
v -93.52229 59.68812 -205.2204
v -93.47888 58.33064 -205.6633
v -93.52229 59.68812 -205.2204
v -93.37035 54.93693 -206.7706

vn -0.03038942 0.9502377 0.3100403
vn -0.03038952 0.9502376 0.3100404
vn 0.4104071 0.8845147 -0.2218103
vn 0.6660826 0.2505267 -0.7025458
vn 0.6660826 0.2505267 -0.7025458
vn -0.2571252 -0.8070439 -0.5315704
vn 0.1242824 -0.9052576 -0.4062794
vn -0.716684 -0.0459743 -0.6958811
vn -0.2571221 -0.8070464 -0.5315681
vn -0.2571215 -0.8070469 -0.5315677
vn -0.2571218 -0.8070467 -0.5315678
vn -0.2571225 -0.8070462 -0.5315682
vn -0.2571233 -0.8070455 -0.5315687
vn -0.2571189 -0.8070485 -0.5315664
vn -0.257121 -0.8070471 -0.5315675
vn -0.2571214 -0.8070468 -0.5315677
vn -0.2571213 -0.807047 -0.5315677
vn -0.2571212 -0.8070469 -0.5315676
vn -0.2571214 -0.8070468 -0.5315678
vn -0.2571212 -0.807047 -0.5315676
vn -0.257122 -0.8070464 -0.5315681
vn -0.2571231 -0.8070455 -0.5315688
vn -0.2571215 -0.8070467 -0.5315679
vn -0.257121 -0.8070472 -0.5315675
vn -0.3597866 -0.7171624 -0.5968518
vn -0.6635206 -0.2312154 -0.7115335
vn -0.6769006 -0.1925704 -0.7104383
vn -0.6769002 -0.1925712 -0.7104383
vn -0.6769001 -0.1925715 -0.7104384
vn -0.6768994 -0.1925734 -0.7104386
vn -0.6768989 -0.1925746 -0.7104387
vn -0.6768982 -0.1925762 -0.7104388
vn -0.6768993 -0.1925736 -0.7104386
vn -0.6768997 -0.1925725 -0.7104383
vn -0.6769 -0.192572 -0.7104384
vn -0.6769 -0.1925719 -0.7104383
vn -0.6768996 -0.1925729 -0.7104384
vn -0.6768999 -0.1925723 -0.7104384
vn -0.6769003 -0.1925712 -0.7104383
vn -0.6960515 -0.129708 -0.7061787
vn -0.7155979 0.4802957 -0.5071844
vn -0.7001594 0.5347066 -0.4731444
vn -0.7001592 0.5347075 -0.4731438
vn -0.7001591 0.5347081 -0.4731435
vn -0.700159 0.534708 -0.4731435
vn -0.7001591 0.5347077 -0.4731437
vn -0.7001591 0.5347072 -0.4731441
vn -0.7001591 0.5347077 -0.4731438
vn -0.7001593 0.5347074 -0.4731441
vn -0.7001591 0.5347076 -0.4731438
vn -0.7001591 0.5347077 -0.4731439
vn -0.7001592 0.5347072 -0.4731441
vn -0.6357595 0.6832632 -0.3591121
vn -0.7001652 0.5346885 -0.4731565
vn -0.3132749 0.9487635 0.0413119
vn -0.3132741 0.9487637 0.04131284
vn -0.3132738 0.9487639 0.04131319
vn -0.313273 0.948764 0.04131412
vn -0.3132743 0.9487637 0.04131252
vn -0.3132752 0.9487635 0.04131118
vn -0.3132769 0.948763 0.04130903
vn -0.3133038 0.9487557 0.04127294
vn -0.313287 0.9487603 0.04129562
vn -0.3132699 0.948765 0.04131823
vn -0.3132724 0.9487643 0.04131503
vn -0.3132741 0.9487637 0.04131275
vn -0.3132745 0.9487636 0.04131229
vn -0.3132747 0.9487636 0.0413121
vn -0.3132782 0.9487627 0.04130858
vn -0.4222396 0.9030979 -0.07828157
vn -0.03038964 0.9502376 0.3100406
vn -0.03038964 0.9502376 0.3100406
vn -0.03038964 0.9502376 0.3100406
vn 0.6660826 0.2505267 -0.7025458
vn 0.3132742 -0.9487637 -0.04131246
vn 0.6660826 0.2505267 -0.7025458
vn -0.734989 0.0600988 -0.6754106
vn 0.4867471 0.8076435 -0.3328502
vn 0.5332104 0.7423049 -0.4057961
vn 0.01701166 0.9656358 0.2593419
vn -0.03038964 0.9502376 0.3100406
vn -0.03038964 0.9502376 0.3100406
vn -0.03038964 0.9502376 0.3100406
vn 0.03838028 0.9709883 0.2360274
vn 0.6660826 0.2505267 -0.7025458
vn -0.02195677 0.9533349 0.3011156
vn -0.03038964 0.9502376 0.3100406
vn 0.06411406 0.976117 0.2075696
vn -0.0303847 0.9502364 0.3100448
vn -0.07032294 0.93348 0.3516673
vn 0.3132742 -0.9487637 -0.0413125
vn -0.03037202 0.9502332 0.3100557
vn -0.6660828 -0.2505201 0.7025479
vn -0.6660826 -0.2505267 0.7025458
vn -0.6660823 -0.2505268 0.7025461
vn 0 0 0
vn 0.3132743 -0.9487637 -0.04131246
vn 0.3132743 -0.9487637 -0.04131251
vn 0.3132743 -0.9487638 -0.04131249
vn -0.6660823 -0.2505268 0.7025461
vn -0.6660823 -0.2505268 0.7025461
vn -0.7452589 0.1851624 -0.64055
vn -0.7452588 0.1851624 -0.64055
vn -0.7452589 0.1851624 -0.64055
vn -0.7452589 0.1851624 -0.64055
vn -0.7452589 0.1851624 -0.64055
vn -0.7452589 0.1851624 -0.64055
vn -0.7452589 0.1851624 -0.64055
vn -0.7452589 0.1851624 -0.64055
vn -0.7452589 0.1851624 -0.64055
vn 0.6660826 0.2505267 -0.7025458
vn 0.6660826 0.2505267 -0.7025458
vn 0.6660826 0.2505267 -0.7025458
vn 0.6660826 0.2505267 -0.7025458
vn 0.6660826 0.2505267 -0.7025458
vn 0.6660826 0.2505267 -0.7025458
vn 0.6660826 0.2505267 -0.7025458
vn 0.6660826 0.2505267 -0.7025458
vn 0.6660826 0.2505267 -0.7025458
vn 0.6660826 0.2505267 -0.7025458
vn 0.6660826 0.2505267 -0.7025458
vn 0.6660826 0.2505267 -0.7025458
vn 0.6660826 0.2505267 -0.7025458
vn 0.6660825 0.2505267 -0.7025457
vn 0.6660826 0.2505267 -0.7025458
vn 0.6660826 0.2505267 -0.7025458
vn 0.6660825 0.2505267 -0.7025457
vn 0.6660826 0.2505267 -0.7025458
vn 0.6660826 0.2505267 -0.7025458
vn 0.6660826 0.2505267 -0.7025458
vn 0.6660825 0.2505267 -0.7025457
vn 0.6660826 0.2505267 -0.7025458
vn 0.6660826 0.2505267 -0.7025458
vn 0.6660826 0.2505267 -0.7025458
vn 0.6660826 0.2505267 -0.7025458
vn 0.6660826 0.2505267 -0.7025458
vn 0.6660826 0.2505267 -0.7025458
vn 0.6660826 0.2505267 -0.7025458
vn 0.6660826 0.2505267 -0.7025458
vn 0.6660826 0.2505267 -0.7025458
vn 0.6660826 0.2505267 -0.7025458
vn 0.6660825 0.2505267 -0.7025457
vn 0.6660826 0.2505267 -0.7025458
vn 0.6660825 0.2505267 -0.7025457
vn 0.6660825 0.2505267 -0.7025457
vn 0.6660826 0.2505267 -0.7025458
vn 0.6660825 0.2505267 -0.7025457
vn 0.6660825 0.2505267 -0.7025457
vn 0.2571218 0.8070467 0.5315679
vn 0.4257227 0.6457145 0.6338874
vn 0.5757542 0.4260972 0.6978169
vn 0.2571218 0.8070465 0.5315678
vn 0.7340987 -0.05345489 0.6769357
vn 0.7424117 -0.3133897 0.592125
vn 0.700159 -0.5347077 0.4731437
vn 0.7001591 -0.5347077 0.4731438
vn 0.2571217 0.8070467 0.5315678
vn -0.7452589 0.1851624 -0.64055
vn -0.7452589 0.1851624 -0.64055
vn -0.7452589 0.1851624 -0.64055
vn -0.7452589 0.1851624 -0.64055
vn -0.7452589 0.1851624 -0.64055
vn -0.7452589 0.1851624 -0.64055
vn -0.7452589 0.1851624 -0.64055
vn -0.7452588 0.1851624 -0.64055
vn -0.1053254 -0.9812987 -0.1611194
vn -0.6660826 -0.250526 0.702546
vn -0.6660824 -0.2505268 0.7025459
vn -0.6660824 -0.2505267 0.7025459
vn -0.6660824 -0.2505268 0.7025459
vn -0.6660824 -0.2505268 0.7025459
vn -0.6660825 -0.2505265 0.7025459
vn -0.6660825 -0.2505265 0.7025459
vn -0.6660825 -0.2505265 0.7025459
vn -0.6660825 -0.2505265 0.7025459
vn -0.6660825 -0.2505265 0.7025459
vn -0.6660824 -0.2505265 0.7025459
vn -0.6660825 -0.2505265 0.7025459
vn -0.6660824 -0.2505265 0.7025459
vn -0.6660823 -0.2505267 0.702546
vn -0.6660823 -0.2505268 0.7025459
vn -0.6660823 -0.2505267 0.702546
vn -0.6660823 -0.2505267 0.702546
vn -0.6660823 -0.2505267 0.702546
vn -0.6660823 -0.2505267 0.702546
vn -0.6660823 -0.2505267 0.702546
vn -0.6660823 -0.2505267 0.702546
vn -0.6660823 -0.2505267 0.702546
vn -0.6660823 -0.2505269 0.7025459
vn -0.6660823 -0.2505269 0.7025459
vn -0.6660823 -0.2505269 0.7025459
vn -0.6660823 -0.2505269 0.7025459
vn -0.6660823 -0.2505269 0.7025459
vn -0.6660823 -0.2505269 0.7025459
vn -0.6660823 -0.2505269 0.7025459
vn -0.6660824 -0.2505269 0.7025459
vn -0.6660824 -0.2505271 0.7025458
vn -0.6660824 -0.2505271 0.7025458
vn -0.6660824 -0.2505271 0.7025458
vn -0.6660824 -0.2505271 0.7025458
vn -0.6660824 -0.2505271 0.7025458
vn -0.6660824 -0.2505271 0.7025458
vn -0.6660824 -0.2505271 0.7025458
vn -0.6660824 -0.2505271 0.7025457
vn -0.6660824 -0.2505268 0.7025459
vn -0.6660824 -0.2505268 0.7025459
vn -0.6660824 -0.2505268 0.7025459

f 1//1 2//2 3//3
f 4//4 1//1 3//3
f 3//3 5//5 4//4
f 3//3 6//6 5//5
f 5//5 6//6 7//7
f 8//8 7//7 6//6
f 9//9 8//8 6//6
f 10//10 9//9 6//6
f 9//9 10//10 11//11
f 11//11 10//10 12//12
f 13//13 11//11 12//12
f 13//13 12//12 14//14
f 13//13 14//14 15//15
f 15//15 14//14 16//16
f 15//15 16//16 17//17
f 18//18 17//17 16//16
f 19//19 17//17 18//18
f 19//19 18//18 20//20
f 21//21 19//19 20//20
f 22//22 19//19 21//21
f 22//22 21//21 23//23
f 24//24 22//22 23//23
f 24//24 23//23 25//25
f 26//26 24//24 25//25
f 26//26 25//25 27//27
f 28//28 26//26 27//27
f 28//28 27//27 29//29
f 29//29 27//27 30//30
f 31//31 29//29 30//30
f 31//31 30//30 32//32
f 33//33 31//31 32//32
f 33//33 32//32 34//34
f 35//35 33//33 34//34
f 35//35 34//34 36//36
f 37//37 35//35 36//36
f 37//37 36//36 38//38
f 39//39 37//37 38//38
f 39//39 38//38 40//40
f 41//41 39//39 40//40
f 41//41 40//40 42//42
f 41//41 42//42 43//43
f 43//43 42//42 44//44
f 45//45 43//43 44//44
f 45//45 44//44 46//46
f 47//47 45//45 46//46
f 48//48 45//45 47//47
f 48//48 47//47 49//49
f 50//50 48//48 49//49
f 50//50 49//49 51//51
f 52//52 50//50 51//51
f 52//52 51//51 53//53
f 54//54 52//52 53//53
f 55//55 54//54 53//53
f 55//55 53//53 56//56
f 55//55 56//56 57//57
f 57//57 56//56 58//58
f 57//57 58//58 59//59
f 59//59 58//58 60//60
f 59//59 60//60 61//61
f 61//61 60//60 62//62
f 61//61 62//62 63//63
f 63//63 62//62 64//64
f 63//63 64//64 65//65
f 65//65 64//64 66//66
f 65//65 66//66 67//67
f 68//68 67//67 66//66
f 69//69 67//67 68//68
f 69//69 68//68 70//70
f 71//71 69//69 70//70
f 72//72 71//71 73//73
f 74//74 75//75 76//76
f 77//77 74//74 76//76
f 75//75 77//77 76//76
f 78//78 75//75 74//74
f 79//79 75//75 78//78
f 78//78 74//74 80//80
f 81//81 78//78 80//80
f 82//82 78//78 81//81
f 82//82 83//83 78//78
f 83//83 84//84 79//79
f 84//84 85//85 79//79
f 80//80 74//74 86//86
f 87//87 80//80 86//86
f 81//81 80//80 87//87
f 86//86 74//74 88//88
f 88//88 74//74 77//77
f 86//86 88//88 89//89
f 90//90 86//86 89//89
f 87//87 86//86 90//90
f 75//75 91//91 77//77
f 90//90 89//89 92//92
f 90//90 92//92 93//93
f 94//94 90//90 93//93
f 95//95 83//83 82//82
f 95//95 82//82 81//81
f 95//95 81//81 87//87
f 95//95 87//87 90//90
f 95//95 96//96 83//83
f 97//97 91//91 75//75
f 97//97 98//98 91//91
f 97//97 99//99 98//98
f 100//100 95//95 101//101
f 102//102 103//103 104//104
f 102//102 104//104 105//105
f 102//102 105//105 106//106
f 106//106 105//105 107//107
f 108//108 102//102 106//106
f 109//109 102//102 108//108
f 110//110 108//108 106//106
f 111//111 112//112 113//113
f 111//111 113//113 114//114
f 111//111 114//114 115//115
f 111//111 115//115 116//116
f 111//111 116//116 117//117
f 117//117 118//118 111//111
f 118//118 119//119 111//111
f 120//120 111//111 119//119
f 120//120 121//121 111//111
f 121//121 122//122 111//111
f 111//111 122//122 123//123
f 114//114 113//113 124//124
f 124//124 113//113 125//125
f 125//125 113//113 126//126
f 126//126 113//113 127//127
f 127//127 113//113 128//128
f 128//128 113//113 129//129
f 129//129 113//113 130//130
f 130//130 113//113 131//131
f 131//131 113//113 132//132
f 132//132 113//113 133//133
f 133//133 113//113 134//134
f 133//133 134//134 135//135
f 135//135 134//134 136//136
f 134//134 137//137 136//136
f 137//137 134//134 138//138
f 138//138 134//134 139//139
f 139//139 134//134 140//140
f 140//140 134//134 141//141
f 134//134 142//142 141//141
f 134//134 143//143 142//142
f 134//134 144//144 143//143
f 144//144 134//134 145//145
f 145//145 134//134 146//146
f 147//147 134//134 148//148
f 149//149 150//150 151//151
f 149//149 152//152 150//150
f 151//151 150//150 153//153
f 151//151 153//153 154//154
f 154//154 153//153 155//155
f 154//154 155//155 156//156
f 152//152 157//157 150//150
f 158//158 159//159 160//160
f 161//161 159//159 158//158
f 162//162 159//159 161//161
f 163//163 162//162 161//161
f 164//164 162//162 163//163
f 165//165 162//162 164//164
f 9//9 166//166 8//8
f 166//166 9//9 167//167
f 168//168 169//169 170//170
f 168//168 171//171 169//169
f 172//172 169//169 173//173
f 174//174 169//169 172//172
f 169//169 174//174 175//175
f 176//176 169//169 175//175
f 177//177 169//169 176//176
f 178//178 169//169 177//177
f 178//178 179//179 169//169
f 179//179 180//180 169//169
f 180//180 181//181 169//169
f 182//182 181//181 180//180
f 182//182 183//183 181//181
f 183//183 184//184 181//181
f 184//184 185//185 181//181
f 185//185 186//186 181//181
f 186//186 187//187 181//181
f 187//187 188//188 181//181
f 188//188 189//189 181//181
f 181//181 189//189 190//190
f 181//181 190//190 191//191
f 192//192 181//181 191//191
f 193//193 181//181 192//192
f 194//194 181//181 193//193
f 195//195 181//181 194//194
f 195//195 196//196 181//181
f 196//196 197//197 198//198
f 196//196 198//198 199//199
f 199//199 200//200 196//196
f 196//196 200//200 201//201
f 201//201 202//202 196//196
f 196//196 202//202 203//203
f 196//196 203//203 204//204
f 205//205 196//196 206//206
f 207//207 196//196 205//205
