v -323.4418 160.6901 -882.9944
v -19.21716 80.71177 -616.042
v -323.4418 160.6901 -882.9944
v -323.4418 160.6901 -882.9944
v -324.1288 157.1954 -883.2584
v -324.4036 155.7975 -883.3641
v -324.4036 155.7975 -883.3641
v -20.179 75.81909 -616.4117
v 284.0456 -4.159271 -349.4593
v -324.2742 155.6891 -883.544
v 285.2103 -5.134171 -351.0787
v -324.2581 155.6757 -883.5664
v 285.355 -5.25531 -351.2799
v -324.2536 155.6719 -883.5726
v 285.3957 -5.289322 -351.3364
v -324.2029 155.6294 -883.6432
v 285.8524 -5.671577 -351.9714
v -323.5772 155.1058 -884.5131
v 285.9219 -5.729759 -352.068
v -322.9841 154.6093 -885.3378
v -322.9158 154.5522 -885.4327
v 285.9954 -5.791275 -352.1702
v -322.7735 154.433 -885.6306
v 286.0112 -5.804512 -352.1922
v -322.3961 154.1171 -886.1553
v 286.0531 -5.839615 -352.2505
v -322.3818 153.9276 -886.2283
v 286.1317 -6.882919 -352.6526
v 286.1815 -7.544846 -352.9076
v -322.3783 153.8806 -886.2465
v 286.2133 -7.967934 -353.0707
v -322.3772 153.8667 -886.2518
v 286.2228 -8.093849 -353.1192
v -322.3693 153.7609 -886.2926
v 286.2944 -9.045486 -353.486
v -322.278 152.5478 -886.7601
v 286.3046 -9.180275 -353.5379
v -322.2025 151.5456 -887.1463
v 286.3129 -9.291626 -353.5808
v -322.128 150.555 -887.5281
v 286.3212 -9.401695 -353.6232
v -322.1782 150.4514 -887.5018
v 285.869 -10.33409 -353.3872
v -322.2908 150.2193 -887.4431
v 284.8557 -12.42318 -352.8583
v -322.6049 149.5717 -887.2792
v -322.7305 149.3128 -887.2136
v 284.8069 -12.52391 -352.8328
v -323.1588 148.4297 -886.99
v 284.7592 -12.62202 -352.808
v -323.5115 147.7026 -886.8059
v 284.7201 -12.70282 -352.7875
v -323.7563 147.1978 -886.6782
v 284.6929 -12.7589 -352.7733
v 284.6929 -12.7589 -352.7733
v -323.9091 147.1274 -886.5251
v 283.3177 -13.39314 -351.3961
v -323.9541 147.1066 -886.4801
v 282.9129 -13.57983 -350.9908
v -323.9587 147.1045 -886.4755
v 282.8716 -13.59888 -350.9494
v -323.9608 147.1035 -886.4734
v 282.8524 -13.60772 -350.9302
v -323.9635 147.1023 -886.4707
v 282.8282 -13.61889 -350.9059
v -324.0134 147.0793 -886.4207
v 282.379 -13.82605 -350.4561
v -326.3273 146.0121 -884.1035
v 282.1219 -13.94463 -350.1986
v -326.3273 146.0121 -884.1035
v 282.1219 -13.94463 -350.1986
v -326.3273 146.0121 -884.1035
v -326.3273 146.0121 -884.1035
v -326.6021 144.6142 -884.2091
v -327.2891 141.1194 -884.4731
v -327.2891 141.1194 -884.4731
v -327.2891 141.1194 -884.4731
v -326.3273 146.0121 -884.1035
v -326.3273 146.0121 -884.1035
v -326.3273 146.0121 -884.1035
v 282.1219 -13.94463 -350.1986
v 282.1219 -13.94463 -350.1986
v 282.1219 -13.94463 -350.1986
v -326.3273 146.0121 -884.1035
v -322.1472 143.4909 -889.6226
v -326.3273 146.0121 -884.1035
v 282.1219 -13.94463 -350.1986
v -326.3273 146.0121 -884.1035
v -22.10265 66.03373 -617.1511
v 282.1219 -13.94463 -350.1986
v -23.06449 61.14106 -617.5208
v 282.1216 -13.94455 -350.1989
v 282.1219 -13.94463 -350.1986
v 281.8471 -15.34253 -350.3043
v 286.3019 -16.46584 -355.7177
v 282.1219 -13.94463 -350.1986
v -322.1472 143.4909 -889.6226
v 281.1601 -18.8373 -350.5684
v 286.3019 -16.46584 -355.7177
v 284.6929 -12.7589 -352.7733
v 284.6929 -12.7589 -352.7733
v -19.21716 80.71177 -616.042
v -323.4418 160.6901 -882.9944
v -323.4418 160.6901 -882.9944
v -324.1288 157.1954 -883.2584
v -20.179 75.81909 -616.4117
v -324.4036 155.7975 -883.3641
v 284.444 -2.13266 -349.3061
v 285.0074 0.7333984 -349.0895
v 284.0456 -4.159271 -349.4593
v -323.4418 160.6901 -882.9944
v -319.4267 157.3295 -888.5769
v -318.8905 150.2053 -891.3223
v -322.3961 154.1171 -886.1553
v -322.7735 154.433 -885.6306
v -322.9158 154.5522 -885.4327
v -322.9841 154.6093 -885.3378
v -323.5772 155.1058 -884.5131
v -324.2029 155.6294 -883.6432
v -324.2536 155.6719 -883.5726
v -324.2581 155.6757 -883.5664
v -324.2742 155.6891 -883.544
v -324.4036 155.7975 -883.3641
v -322.3818 153.9276 -886.2283
v -322.3783 153.8806 -886.2465
v -322.3772 153.8667 -886.2518
v -322.3693 153.7609 -886.2926
v -322.278 152.5478 -886.7601
v -322.2025 151.5456 -887.1463
v -322.128 150.555 -887.5281
v -322.1782 150.4514 -887.5018
v -322.2908 150.2193 -887.4431
v -322.6049 149.5717 -887.2792
v -322.1472 143.4909 -889.6226
v -322.7305 149.3128 -887.2136
v -323.1588 148.4297 -886.99
v -323.5115 147.7026 -886.8059
v -323.7563 147.1978 -886.6782
v -323.9091 147.1274 -886.5251
v -323.9541 147.1066 -886.4801
v -323.9587 147.1045 -886.4755
v -323.9608 147.1035 -886.4734
v -323.9635 147.1023 -886.4707
v -324.0134 147.0793 -886.4207
v -326.3273 146.0121 -884.1035
v -326.3273 146.0121 -884.1035
v -326.3273 146.0121 -884.1035
v -327.2891 141.1194 -884.4731
v -323.4418 160.6901 -882.9944
v 289.0224 -2.627266 -354.6721
v -319.4267 157.3295 -888.5769
v -19.21716 80.71177 -616.042
v 289.5587 -9.751427 -357.4175
v -318.8905 150.2053 -891.3223
v 286.3019 -16.46584 -355.7177
v -322.1472 143.4909 -889.6226
v 285.0074 0.7333984 -349.0895
v -327.2891 141.1194 -884.4731
v -22.10265 66.03373 -617.1511
v -326.3273 146.0121 -884.1035
v -23.06449 61.14106 -617.5208
v 282.1216 -13.94455 -350.1989
v 281.1601 -18.8373 -350.5684
v 281.8471 -15.34253 -350.3043
v 282.1219 -13.94463 -350.1986
v 284.0456 -4.159271 -349.4593
v 289.0224 -2.627266 -354.6721
v 284.444 -2.13266 -349.3061
v 289.0224 -2.627266 -354.6721
v 285.0074 0.7333984 -349.0895
v 284.0456 -4.159271 -349.4593
v 285.2103 -5.134171 -351.0787
v 284.0456 -4.159271 -349.4593
v 285.355 -5.25531 -351.2799
v 285.3957 -5.289322 -351.3364
v 285.8524 -5.671577 -351.9714
v 285.9219 -5.729759 -352.068
v 285.9954 -5.791275 -352.1702
v 286.0112 -5.804512 -352.1922
v 286.0531 -5.839615 -352.2505
v 289.5587 -9.751427 -357.4175
v 286.1317 -6.882919 -352.6526
v 286.1815 -7.544846 -352.9076
v 286.2133 -7.967934 -353.0707
v 286.2228 -8.093849 -353.1192
v 286.2944 -9.045486 -353.486
v 286.3046 -9.180275 -353.5379
v 286.3129 -9.291626 -353.5808
v 286.3212 -9.401695 -353.6232
v 285.869 -10.33409 -353.3872
v 284.8557 -12.42318 -352.8583
v 284.8069 -12.52391 -352.8328
v 284.7592 -12.62202 -352.808
v 284.7201 -12.70282 -352.7875
v 284.6929 -12.7589 -352.7733
v 286.3019 -16.46584 -355.7177
v 284.6929 -12.7589 -352.7733
v 283.3177 -13.39314 -351.3961
v 282.9129 -13.57983 -350.9908
v 282.8716 -13.59888 -350.9494
v 282.8524 -13.60772 -350.9302
v 282.8282 -13.61889 -350.9059
v 282.379 -13.82605 -350.4561
v 282.1219 -13.94463 -350.1986
v 281.8471 -15.34253 -350.3043
v 282.1219 -13.94463 -350.1986
v 281.1601 -18.8373 -350.5684

vn 0.1923675 0.9785336 0.0739397
vn 0.1923676 0.9785335 0.07393979
vn -0.3338316 0.869117 -0.3649551
vn -0.7373919 0.1938548 -0.6470501
vn -0.7373919 0.1938548 -0.6470501
vn -0.4255124 -0.8772767 0.2220928
vn -0.2947172 -0.9412837 -0.1647034
vn -0.6746598 -0.1646117 0.7195396
vn -0.4255098 -0.8772787 0.2220896
vn -0.4255094 -0.8772792 0.2220889
vn -0.4255095 -0.877279 0.2220892
vn -0.42551 -0.8772786 0.22209
vn -0.4255105 -0.8772781 0.2220908
vn -0.4255079 -0.8772805 0.2220862
vn -0.4255091 -0.8772793 0.2220884
vn -0.4255094 -0.8772791 0.2220888
vn -0.4255094 -0.8772793 0.2220887
vn -0.4255093 -0.8772792 0.2220886
vn -0.4255094 -0.8772791 0.2220889
vn -0.4255092 -0.8772793 0.2220886
vn -0.4255098 -0.8772787 0.2220895
vn -0.4255106 -0.877278 0.2220906
vn -0.4255095 -0.877279 0.222089
vn -0.4255091 -0.8772795 0.2220884
vn -0.4997666 -0.8010131 0.3295631
vn -0.6683944 -0.3476551 0.65756
vn -0.6718221 -0.3098424 0.672795
vn -0.671822 -0.3098431 0.6727946
vn -0.6718221 -0.3098434 0.6727945
vn -0.6718221 -0.3098454 0.6727937
vn -0.671822 -0.3098466 0.6727931
vn -0.671822 -0.3098481 0.6727924
vn -0.6718221 -0.3098455 0.6727936
vn -0.671822 -0.3098444 0.6727941
vn -0.671822 -0.3098439 0.6727944
vn -0.671822 -0.3098438 0.6727945
vn -0.6718219 -0.3098449 0.6727939
vn -0.671822 -0.3098443 0.6727943
vn -0.671822 -0.3098432 0.6727947
vn -0.6749765 -0.247907 0.6949455
vn -0.5515212 0.380255 0.7424491
vn -0.5245907 0.4390913 0.7293857
vn -0.5245903 0.4390923 0.7293855
vn -0.52459 0.4390929 0.7293854
vn -0.52459 0.4390929 0.7293853
vn -0.5245901 0.4390925 0.7293854
vn -0.5245904 0.439092 0.7293854
vn -0.5245903 0.4390924 0.7293854
vn -0.5245904 0.4390921 0.7293855
vn -0.5245903 0.4390924 0.7293853
vn -0.5245903 0.4390924 0.7293854
vn -0.5245904 0.439092 0.7293854
vn -0.4304501 0.6033633 0.6713163
vn -0.5246004 0.4390716 0.7293906
vn -0.07006076 0.9308151 0.3587128
vn -0.07005985 0.9308154 0.3587119
vn -0.07005954 0.9308157 0.3587117
vn -0.07005864 0.9308159 0.3587109
vn -0.07006018 0.9308154 0.3587122
vn -0.07006148 0.930815 0.3587131
vn -0.07006351 0.9308141 0.3587147
vn -0.07009805 0.9308012 0.3587416
vn -0.07007635 0.9308094 0.3587248
vn -0.07005472 0.9308175 0.3587078
vn -0.07005777 0.9308164 0.3587103
vn -0.07005995 0.9308155 0.358712
vn -0.07006038 0.9308153 0.3587124
vn -0.07006057 0.9308152 0.3587126
vn -0.0700639 0.9308137 0.358716
vn -0.1816116 0.8657582 0.4663477
vn 0.1923678 0.9785335 0.07393991
vn 0.1923678 0.9785335 0.07393991
vn 0.1923678 0.9785335 0.07393991
vn -0.7373919 0.1938548 -0.6470501
vn 0.07006023 -0.9308155 -0.358712
vn -0.7373919 0.1938548 -0.6470501
vn -0.6670025 -0.05781512 0.7428091
vn -0.4357712 0.7829278 -0.4439906
vn -0.5008774 0.7114218 -0.4929514
vn 0.1394907 0.9898338 0.02778079
vn 0.1923678 0.9785335 0.07393991
vn 0.1923678 0.9785335 0.07393991
vn 0.1923678 0.9785335 0.07393991
vn 0.1153913 0.9932963 0.006898746
vn -0.7373919 0.1938548 -0.6470501
vn 0.1830109 0.9809102 0.06574464
vn 0.1923678 0.9785335 0.07393991
vn 0.08615145 0.9961139 -0.0183099
vn 0.1923721 0.978533 0.07393488
vn 0.2362991 0.9651283 0.1126518
vn 0.07006019 -0.9308153 -0.3587121
vn 0.1923831 0.9785318 0.07392197
vn 0.7373932 -0.193848 0.6470506
vn 0.7373919 -0.1938548 0.6470501
vn 0.7373922 -0.1938548 0.6470498
vn 0 0 0
vn 0.07006023 -0.9308154 -0.3587122
vn 0.07006019 -0.9308154 -0.3587122
vn 0.07006022 -0.9308155 -0.3587122
vn 0.7373922 -0.1938548 0.6470498
vn 0.7373922 -0.1938548 0.6470498
vn -0.6474935 0.0699487 0.758854
vn -0.6474935 0.06994869 0.758854
vn -0.6474935 0.0699487 0.758854
vn -0.6474935 0.0699487 0.758854
vn -0.6474935 0.0699487 0.758854
vn -0.6474935 0.0699487 0.758854
vn -0.6474935 0.0699487 0.758854
vn -0.6474935 0.0699487 0.758854
vn -0.6474935 0.0699487 0.758854
vn -0.7373919 0.1938548 -0.6470501
vn -0.7373919 0.1938548 -0.6470501
vn -0.7373919 0.1938548 -0.6470501
vn -0.7373919 0.1938548 -0.6470501
vn -0.7373919 0.1938548 -0.6470501
vn -0.7373919 0.1938548 -0.6470501
vn -0.7373919 0.1938548 -0.6470501
vn -0.7373919 0.1938548 -0.6470501
vn -0.7373919 0.1938548 -0.6470501
vn -0.7373919 0.1938548 -0.6470501
vn -0.7373919 0.1938548 -0.6470501
vn -0.7373919 0.1938548 -0.6470501
vn -0.7373919 0.1938548 -0.6470501
vn -0.7373918 0.1938548 -0.64705
vn -0.7373919 0.1938548 -0.6470501
vn -0.7373919 0.1938548 -0.6470501
vn -0.7373918 0.1938548 -0.64705
vn -0.7373919 0.1938548 -0.6470501
vn -0.7373919 0.1938548 -0.6470501
vn -0.7373919 0.1938548 -0.6470501
vn -0.7373918 0.1938548 -0.64705
vn -0.7373919 0.1938548 -0.6470501
vn -0.7373919 0.1938548 -0.6470501
vn -0.7373919 0.1938548 -0.6470501
vn -0.7373919 0.1938548 -0.6470501
vn -0.7373919 0.1938548 -0.6470501
vn -0.7373919 0.1938548 -0.6470501
vn -0.7373919 0.1938548 -0.6470501
vn -0.7373919 0.1938548 -0.6470501
vn -0.7373919 0.1938548 -0.6470501
vn -0.7373919 0.1938548 -0.6470501
vn -0.7373918 0.1938548 -0.64705
vn -0.7373919 0.1938548 -0.6470501
vn -0.7373918 0.1938548 -0.64705
vn -0.7373918 0.1938548 -0.64705
vn -0.7373919 0.1938548 -0.6470501
vn -0.7373918 0.1938548 -0.64705
vn -0.7373918 0.1938548 -0.64705
vn 0.4255095 0.877279 -0.2220892
vn 0.5442737 0.7378313 -0.3992136
vn 0.6323075 0.5350263 -0.5602986
vn 0.4255095 0.8772789 -0.2220892
vn 0.6677195 0.0645462 -0.7416096
vn 0.6150978 -0.2031289 -0.7618356
vn 0.5245902 -0.4390925 -0.7293853
vn 0.5245902 -0.4390925 -0.7293853
vn 0.4255095 0.877279 -0.2220891
vn -0.6474935 0.0699487 0.758854
vn -0.6474935 0.0699487 0.758854
vn -0.6474935 0.0699487 0.758854
vn -0.6474935 0.0699487 0.758854
vn -0.6474935 0.0699487 0.758854
vn -0.6474935 0.0699487 0.758854
vn -0.6474935 0.0699487 0.758854
vn -0.6474935 0.06994869 0.758854
vn -0.03882497 -0.9975134 0.05882031
vn 0.737392 -0.1938541 0.6470501
vn 0.737392 -0.1938548 0.6470499
vn 0.7373921 -0.1938547 0.6470499
vn 0.737392 -0.1938548 0.6470499
vn 0.737392 -0.1938548 0.6470499
vn 0.737392 -0.1938545 0.64705
vn 0.737392 -0.1938545 0.64705
vn 0.737392 -0.1938545 0.64705
vn 0.737392 -0.1938545 0.64705
vn 0.737392 -0.1938545 0.64705
vn 0.737392 -0.1938545 0.64705
vn 0.737392 -0.1938545 0.64705
vn 0.737392 -0.1938545 0.64705
vn 0.7373921 -0.1938547 0.6470498
vn 0.7373921 -0.1938548 0.6470498
vn 0.7373921 -0.1938547 0.6470498
vn 0.7373921 -0.1938547 0.6470498
vn 0.7373921 -0.1938547 0.6470498
vn 0.7373921 -0.1938547 0.6470498
vn 0.7373921 -0.1938547 0.6470498
vn 0.7373921 -0.1938547 0.6470498
vn 0.7373921 -0.1938547 0.6470498
vn 0.7373921 -0.1938549 0.6470498
vn 0.7373921 -0.193855 0.6470498
vn 0.7373921 -0.193855 0.6470498
vn 0.7373921 -0.193855 0.6470498
vn 0.7373921 -0.193855 0.6470498
vn 0.7373921 -0.193855 0.6470498
vn 0.7373921 -0.193855 0.6470498
vn 0.737392 -0.1938549 0.6470499
vn 0.7373919 -0.1938551 0.64705
vn 0.7373919 -0.1938551 0.64705
vn 0.7373919 -0.1938551 0.64705
vn 0.7373919 -0.1938551 0.64705
vn 0.7373919 -0.1938551 0.64705
vn 0.7373919 -0.1938551 0.64705
vn 0.7373919 -0.1938551 0.64705
vn 0.7373919 -0.1938551 0.6470499
vn 0.737392 -0.1938548 0.6470499
vn 0.737392 -0.1938548 0.6470499
vn 0.737392 -0.1938548 0.6470499

f 1//1 2//2 3//3
f 4//4 1//1 3//3
f 3//3 5//5 4//4
f 3//3 6//6 5//5
f 5//5 6//6 7//7
f 8//8 7//7 6//6
f 9//9 8//8 6//6
f 10//10 9//9 6//6
f 9//9 10//10 11//11
f 11//11 10//10 12//12
f 13//13 11//11 12//12
f 13//13 12//12 14//14
f 13//13 14//14 15//15
f 15//15 14//14 16//16
f 15//15 16//16 17//17
f 18//18 17//17 16//16
f 19//19 17//17 18//18
f 19//19 18//18 20//20
f 21//21 19//19 20//20
f 22//22 19//19 21//21
f 22//22 21//21 23//23
f 24//24 22//22 23//23
f 24//24 23//23 25//25
f 26//26 24//24 25//25
f 26//26 25//25 27//27
f 28//28 26//26 27//27
f 28//28 27//27 29//29
f 29//29 27//27 30//30
f 31//31 29//29 30//30
f 31//31 30//30 32//32
f 33//33 31//31 32//32
f 33//33 32//32 34//34
f 35//35 33//33 34//34
f 35//35 34//34 36//36
f 37//37 35//35 36//36
f 37//37 36//36 38//38
f 39//39 37//37 38//38
f 39//39 38//38 40//40
f 41//41 39//39 40//40
f 41//41 40//40 42//42
f 41//41 42//42 43//43
f 43//43 42//42 44//44
f 45//45 43//43 44//44
f 45//45 44//44 46//46
f 47//47 45//45 46//46
f 48//48 45//45 47//47
f 48//48 47//47 49//49
f 50//50 48//48 49//49
f 50//50 49//49 51//51
f 52//52 50//50 51//51
f 52//52 51//51 53//53
f 54//54 52//52 53//53
f 55//55 54//54 53//53
f 55//55 53//53 56//56
f 55//55 56//56 57//57
f 57//57 56//56 58//58
f 57//57 58//58 59//59
f 59//59 58//58 60//60
f 59//59 60//60 61//61
f 61//61 60//60 62//62
f 61//61 62//62 63//63
f 63//63 62//62 64//64
f 63//63 64//64 65//65
f 65//65 64//64 66//66
f 65//65 66//66 67//67
f 68//68 67//67 66//66
f 69//69 67//67 68//68
f 69//69 68//68 70//70
f 71//71 69//69 70//70
f 72//72 71//71 73//73
f 74//74 75//75 76//76
f 77//77 74//74 76//76
f 75//75 77//77 76//76
f 78//78 75//75 74//74
f 79//79 75//75 78//78
f 78//78 74//74 80//80
f 81//81 78//78 80//80
f 82//82 78//78 81//81
f 82//82 83//83 78//78
f 83//83 84//84 79//79
f 84//84 85//85 79//79
f 80//80 74//74 86//86
f 87//87 80//80 86//86
f 81//81 80//80 87//87
f 86//86 74//74 88//88
f 88//88 74//74 77//77
f 86//86 88//88 89//89
f 90//90 86//86 89//89
f 87//87 86//86 90//90
f 75//75 91//91 77//77
f 90//90 89//89 92//92
f 90//90 92//92 93//93
f 94//94 90//90 93//93
f 95//95 83//83 82//82
f 95//95 82//82 81//81
f 95//95 81//81 87//87
f 95//95 87//87 90//90
f 95//95 96//96 83//83
f 97//97 91//91 75//75
f 97//97 98//98 91//91
f 97//97 99//99 98//98
f 100//100 95//95 101//101
f 102//102 103//103 104//104
f 102//102 104//104 105//105
f 102//102 105//105 106//106
f 106//106 105//105 107//107
f 108//108 102//102 106//106
f 109//109 102//102 108//108
f 110//110 108//108 106//106
f 111//111 112//112 113//113
f 111//111 113//113 114//114
f 111//111 114//114 115//115
f 111//111 115//115 116//116
f 111//111 116//116 117//117
f 117//117 118//118 111//111
f 118//118 119//119 111//111
f 120//120 111//111 119//119
f 120//120 121//121 111//111
f 121//121 122//122 111//111
f 111//111 122//122 123//123
f 114//114 113//113 124//124
f 124//124 113//113 125//125
f 125//125 113//113 126//126
f 126//126 113//113 127//127
f 127//127 113//113 128//128
f 128//128 113//113 129//129
f 129//129 113//113 130//130
f 130//130 113//113 131//131
f 131//131 113//113 132//132
f 132//132 113//113 133//133
f 133//133 113//113 134//134
f 133//133 134//134 135//135
f 135//135 134//134 136//136
f 134//134 137//137 136//136
f 137//137 134//134 138//138
f 138//138 134//134 139//139
f 139//139 134//134 140//140
f 140//140 134//134 141//141
f 134//134 142//142 141//141
f 134//134 143//143 142//142
f 134//134 144//144 143//143
f 144//144 134//134 145//145
f 145//145 134//134 146//146
f 147//147 134//134 148//148
f 149//149 150//150 151//151
f 149//149 152//152 150//150
f 151//151 150//150 153//153
f 151//151 153//153 154//154
f 154//154 153//153 155//155
f 154//154 155//155 156//156
f 152//152 157//157 150//150
f 158//158 159//159 160//160
f 161//161 159//159 158//158
f 162//162 159//159 161//161
f 163//163 162//162 161//161
f 164//164 162//162 163//163
f 165//165 162//162 164//164
f 9//9 166//166 8//8
f 166//166 9//9 167//167
f 168//168 169//169 170//170
f 168//168 171//171 169//169
f 172//172 169//169 173//173
f 174//174 169//169 172//172
f 169//169 174//174 175//175
f 176//176 169//169 175//175
f 177//177 169//169 176//176
f 178//178 169//169 177//177
f 178//178 179//179 169//169
f 179//179 180//180 169//169
f 180//180 181//181 169//169
f 182//182 181//181 180//180
f 182//182 183//183 181//181
f 183//183 184//184 181//181
f 184//184 185//185 181//181
f 185//185 186//186 181//181
f 186//186 187//187 181//181
f 187//187 188//188 181//181
f 188//188 189//189 181//181
f 181//181 189//189 190//190
f 181//181 190//190 191//191
f 192//192 181//181 191//191
f 193//193 181//181 192//192
f 194//194 181//181 193//193
f 195//195 181//181 194//194
f 195//195 196//196 181//181
f 196//196 197//197 198//198
f 196//196 198//198 199//199
f 199//199 200//200 196//196
f 196//196 200//200 201//201
f 201//201 202//202 196//196
f 196//196 202//202 203//203
f 196//196 203//203 204//204
f 205//205 196//196 206//206
f 207//207 196//196 205//205
