v 121.7668 -75.72679 12.59108
v 129.8481 -56.42451 12.59108
v 121.7668 -75.72679 12.59108
v 121.7668 -75.72679 12.59108
v 121.2549 -75.51244 16.11912
v 121.0501 -75.4267 17.53033
v 121.0501 -75.4267 17.53033
v 129.1313 -56.12442 17.53034
v 137.2126 -36.82214 17.53034
v 121.2442 -75.50799 17.65901
v 138.9599 -37.55368 18.68845
v 121.2684 -75.51809 17.675
v 139.177 -37.64459 18.83236
v 121.2751 -75.52092 17.67949
v 139.238 -37.67011 18.87277
v 121.3513 -75.5528 17.72994
v 139.9231 -37.95695 19.32686
v 122.2898 -75.94574 18.35201
v 140.0274 -38.00061 19.39598
v 123.1797 -76.3183 18.9418
v 123.282 -76.36115 19.00965
v 140.1376 -38.04677 19.46905
v 123.4956 -76.45055 19.15117
v 140.1614 -38.0567 19.48477
v 124.0618 -76.68761 19.52646
v 140.2243 -38.08304 19.52647
v 124.1058 -76.70604 19.72434
v 140.4667 -38.18452 20.61609
v 140.6205 -38.24891 21.30738
v 124.1167 -76.71061 19.77343
v 140.7188 -38.29007 21.74925
v 124.12 -76.71197 19.78804
v 140.748 -38.30231 21.88075
v 124.1445 -76.72225 19.89847
v 140.9691 -38.39489 22.87463
v 124.4264 -76.84026 21.1654
v 141.0004 -38.408 23.01539
v 124.6592 -76.93774 22.21208
v 141.0263 -38.41883 23.13169
v 124.8894 -77.0341 23.24663
v 141.0519 -38.42953 23.24664
v 124.8326 -77.01031 23.34738
v 140.5405 -38.21544 24.15343
v 124.7053 -76.95702 23.57313
v 139.3947 -37.73574 26.18513
v 124.3501 -76.80832 24.20292
v 124.2081 -76.74885 24.45479
v 139.3395 -37.71262 26.2831
v 123.7237 -76.54608 25.31361
v 139.2857 -37.69009 26.37852
v 123.3249 -76.37912 26.02075
v 139.2414 -37.67153 26.45709
v 123.0481 -76.26322 26.51162
v 139.2106 -37.65866 26.51163
v 139.2106 -37.65866 26.51163
v 122.8442 -76.17783 26.56494
v 137.3751 -36.89017 26.99155
v 122.7841 -76.1527 26.58064
v 136.8348 -36.66399 27.13281
v 122.778 -76.15014 26.58224
v 136.7797 -36.64089 27.14723
v 122.7752 -76.14895 26.58298
v 136.7541 -36.63018 27.15392
v 122.7716 -76.14745 26.58392
v 136.7218 -36.61665 27.16237
v 122.705 -76.11955 26.60134
v 136.1222 -36.36564 27.31913
v 119.6166 -74.82654 27.40883
v 135.7791 -36.22197 27.40885
v 119.6166 -74.82654 27.40884
v 135.7791 -36.22197 27.40885
v 119.6166 -74.82654 27.40884
v 119.6166 -74.82654 27.40884
v 119.4118 -74.7408 28.82005
v 118.8998 -74.52646 32.34809
v 118.8998 -74.52646 32.34809
v 118.8998 -74.52646 32.34809
v 119.6166 -74.82654 27.40884
v 119.6166 -74.82654 27.40884
v 119.6166 -74.82654 27.40884
v 135.7791 -36.22197 27.40885
v 135.7791 -36.22197 27.40885
v 135.7791 -36.22197 27.40885
v 119.6166 -74.82654 27.40884
v 125.7629 -77.39983 30.55365
v 119.6166 -74.82654 27.40884
v 135.7791 -36.22197 27.40885
v 119.6166 -74.82654 27.40884
v 127.6978 -55.52425 27.40884
v 135.7791 -36.22197 27.40885
v 126.981 -55.22417 32.34809
v 135.7791 -36.22199 27.40885
v 135.7791 -36.22197 27.40885
v 135.5743 -36.13623 28.82006
v 141.9254 -38.79526 30.55367
v 135.7791 -36.22197 27.40885
v 125.7629 -77.39983 30.55365
v 135.0623 -35.92189 32.3481
v 141.9254 -38.79526 30.55367
v 139.2106 -37.65866 26.51163
v 139.2106 -37.65866 26.51163
v 129.8481 -56.42451 12.59108
v 121.7668 -75.72679 12.59108
v 121.7668 -75.72679 12.59108
v 121.2549 -75.51244 16.11912
v 129.1313 -56.12442 17.53034
v 121.0501 -75.4267 17.53033
v 137.5095 -36.94644 15.48444
v 137.9294 -37.12222 12.59109
v 137.2126 -36.82214 17.53034
v 121.7668 -75.72679 12.59108
v 127.7902 -78.24859 16.58333
v 129.4454 -78.94158 24.02367
v 124.0618 -76.68761 19.52646
v 123.4956 -76.45055 19.15117
v 123.282 -76.36115 19.00965
v 123.1797 -76.3183 18.9418
v 122.2898 -75.94574 18.35201
v 121.3513 -75.5528 17.72994
v 121.2751 -75.52092 17.67949
v 121.2684 -75.51809 17.675
v 121.2442 -75.50799 17.65901
v 121.0501 -75.4267 17.53033
v 124.1058 -76.70604 19.72434
v 124.1167 -76.71061 19.77343
v 124.12 -76.71197 19.78804
v 124.1445 -76.72225 19.89847
v 124.4264 -76.84026 21.1654
v 124.6592 -76.93774 22.21208
v 124.8894 -77.0341 23.24663
v 124.8326 -77.01031 23.34738
v 124.7053 -76.95702 23.57313
v 124.3501 -76.80832 24.20292
v 125.7629 -77.39983 30.55365
v 124.2081 -76.74885 24.45479
v 123.7237 -76.54608 25.31361
v 123.3249 -76.37912 26.02075
v 123.0481 -76.26322 26.51162
v 122.8442 -76.17783 26.56494
v 122.7841 -76.1527 26.58064
v 122.778 -76.15014 26.58224
v 122.7752 -76.14895 26.58298
v 122.7716 -76.14745 26.58392
v 122.705 -76.11955 26.60134
v 119.6166 -74.82654 27.40883
v 119.6166 -74.82654 27.40884
v 119.6166 -74.82654 27.40884
v 118.8998 -74.52646 32.34809
v 121.7668 -75.72679 12.59108
v 143.9527 -39.64402 16.58335
v 127.7902 -78.24859 16.58333
v 129.8481 -56.42451 12.59108
v 145.608 -40.33702 24.02369
v 129.4454 -78.94158 24.02367
v 141.9254 -38.79526 30.55367
v 125.7629 -77.39983 30.55365
v 137.9294 -37.12222 12.59109
v 118.8998 -74.52646 32.34809
v 127.6978 -55.52425 27.40884
v 119.6166 -74.82654 27.40884
v 126.981 -55.22417 32.34809
v 135.7791 -36.22199 27.40885
v 135.0623 -35.92189 32.3481
v 135.5743 -36.13623 28.82006
v 135.7791 -36.22197 27.40885
v 137.2126 -36.82214 17.53034
v 143.9527 -39.64402 16.58335
v 137.5095 -36.94644 15.48444
v 143.9527 -39.64402 16.58335
v 137.9294 -37.12222 12.59109
v 137.2126 -36.82214 17.53034
v 138.9599 -37.55368 18.68845
v 137.2126 -36.82214 17.53034
v 139.177 -37.64459 18.83236
v 139.238 -37.67011 18.87277
v 139.9231 -37.95695 19.32686
v 140.0274 -38.00061 19.39598
v 140.1376 -38.04677 19.46905
v 140.1614 -38.0567 19.48477
v 140.2243 -38.08304 19.52647
v 145.608 -40.33702 24.02369
v 140.4667 -38.18452 20.61609
v 140.6205 -38.24891 21.30738
v 140.7188 -38.29007 21.74925
v 140.748 -38.30231 21.88075
v 140.9691 -38.39489 22.87463
v 141.0004 -38.408 23.01539
v 141.0263 -38.41883 23.13169
v 141.0519 -38.42953 23.24664
v 140.5405 -38.21544 24.15343
v 139.3947 -37.73574 26.18513
v 139.3395 -37.71262 26.2831
v 139.2857 -37.69009 26.37852
v 139.2414 -37.67153 26.45709
v 139.2106 -37.65866 26.51163
v 141.9254 -38.79526 30.55367
v 139.2106 -37.65866 26.51163
v 137.3751 -36.89017 26.99155
v 136.8348 -36.66399 27.13281
v 136.7797 -36.64089 27.14723
v 136.7541 -36.63018 27.15392
v 136.7218 -36.61665 27.16237
v 136.1222 -36.36564 27.31913
v 135.7791 -36.22197 27.40885
v 135.5743 -36.13623 28.82006
v 135.7791 -36.22197 27.40885
v 135.0623 -35.92189 32.3481

vn 0.1433524 -0.06001715 -0.9878502
vn 0.1433524 -0.06001701 -0.9878502
vn -0.1424862 -0.6458712 -0.7500321
vn -0.3861877 -0.9224202 -4.321337E-07
vn -0.3861877 -0.9224202 -4.321337E-07
vn -0.4811505 0.2014419 0.8531796
vn -0.1965269 -0.07103608 0.977922
vn -0.9191745 0.384829 0.08381411
vn -0.4811467 0.2014406 0.853182
vn -0.4811461 0.2014403 0.8531825
vn -0.4811463 0.2014405 0.8531823
vn -0.4811471 0.2014409 0.8531818
vn -0.4811479 0.2014413 0.8531812
vn -0.4811436 0.2014388 0.8531842
vn -0.4811457 0.20144 0.8531828
vn -0.481146 0.2014402 0.8531824
vn -0.481146 0.2014402 0.8531827
vn -0.4811459 0.2014401 0.8531826
vn -0.4811461 0.2014402 0.8531824
vn -0.4811459 0.2014402 0.8531827
vn -0.4811468 0.2014405 0.853182
vn -0.4811479 0.2014411 0.8531812
vn -0.4811463 0.2014403 0.8531823
vn -0.4811456 0.20144 0.8531829
vn -0.5943456 0.2488333 0.7647454
vn -0.8871141 0.3714063 0.2740181
vn -0.8967101 0.3754239 0.2344526
vn -0.8967099 0.3754237 0.2344534
vn -0.8967099 0.3754237 0.2344537
vn -0.8967096 0.3754234 0.2344557
vn -0.8967092 0.3754232 0.234457
vn -0.8967089 0.3754228 0.2344586
vn -0.8967094 0.3754233 0.2344559
vn -0.8967096 0.3754236 0.2344547
vn -0.8967098 0.3754237 0.2344542
vn -0.8967097 0.3754238 0.2344541
vn -0.8967094 0.3754236 0.2344552
vn -0.8967097 0.3754237 0.2344546
vn -0.8967099 0.3754238 0.2344534
vn -0.9089996 0.3805691 0.1699616
vn -0.8170226 0.3420615 -0.4641855
vn -0.7869931 0.329489 -0.5216118
vn -0.7869926 0.3294889 -0.5216128
vn -0.7869923 0.3294888 -0.5216134
vn -0.7869923 0.3294887 -0.5216133
vn -0.7869924 0.3294888 -0.5216129
vn -0.7869927 0.3294888 -0.5216125
vn -0.7869925 0.3294888 -0.5216129
vn -0.7869928 0.3294888 -0.5216126
vn -0.7869925 0.3294887 -0.5216128
vn -0.7869926 0.3294888 -0.5216129
vn -0.7869927 0.3294888 -0.5216124
vn -0.6767427 0.2833306 -0.6795169
vn -0.787004 0.3294935 -0.5215926
vn -0.2162661 0.09054396 -0.972127
vn -0.2162649 0.09054351 -0.9721272
vn -0.2162645 0.09054339 -0.9721274
vn -0.2162634 0.09054302 -0.9721276
vn -0.2162653 0.09054362 -0.9721272
vn -0.2162669 0.09054397 -0.9721269
vn -0.2162694 0.09054472 -0.9721261
vn -0.2163122 0.09055653 -0.9721155
vn -0.2162854 0.09054919 -0.9721223
vn -0.2162585 0.09054158 -0.9721289
vn -0.2162623 0.09054276 -0.972128
vn -0.216265 0.09054353 -0.9721272
vn -0.2162656 0.09054373 -0.9721271
vn -0.2162659 0.09054384 -0.972127
vn -0.2162703 0.0905458 -0.9721259
vn -0.3634232 0.152154 -0.9191152
vn 0.1433525 -0.06001684 -0.9878502
vn 0.1433525 -0.06001684 -0.9878502
vn 0.1433525 -0.06001684 -0.9878502
vn -0.3861877 -0.9224202 -4.321337E-07
vn 0.2162653 -0.09054348 0.9721272
vn -0.3861877 -0.9224202 -4.321337E-07
vn -0.9221153 0.3860602 -0.02570965
vn -0.2005519 -0.74038 -0.6415733
vn -0.2383184 -0.7959319 -0.5565042
vn 0.115552 -0.1254022 -0.9853538
vn 0.1433525 -0.06001684 -0.9878502
vn 0.1433525 -0.06001684 -0.9878502
vn 0.1433525 -0.06001684 -0.9878502
vn 0.1028117 -0.1547094 -0.982596
vn -0.3861877 -0.9224202 -4.321337E-07
vn 0.1384454 -0.0716906 -0.9877719
vn 0.1433525 -0.06001684 -0.9878502
vn 0.08729658 -0.1898635 -0.9779219
vn 0.1433586 -0.06001937 -0.9878492
vn 0.166287 -0.004527186 -0.9860671
vn 0.2162653 -0.09054355 0.9721271
vn 0.1433741 -0.06002586 -0.9878466
vn 0.3861887 0.9224198 -6.426269E-06
vn 0.3861877 0.9224202 4.321337E-07
vn 0.3861881 0.92242 4.992057E-07
vn 0 0 0
vn 0.2162654 -0.09054358 0.9721272
vn 0.2162653 -0.09054361 0.9721272
vn 0.2162654 -0.09054359 0.9721273
vn 0.3861881 0.92242 4.992057E-07
vn 0.3861881 0.92242 4.992057E-07
vn -0.911213 0.3814958 -0.155409
vn -0.9112129 0.3814957 -0.155409
vn -0.911213 0.3814958 -0.155409
vn -0.911213 0.3814958 -0.155409
vn -0.911213 0.3814958 -0.155409
vn -0.911213 0.3814958 -0.155409
vn -0.911213 0.3814958 -0.155409
vn -0.911213 0.3814958 -0.155409
vn -0.911213 0.3814958 -0.155409
vn -0.3861877 -0.9224202 -4.321337E-07
vn -0.3861877 -0.9224202 -4.321337E-07
vn -0.3861877 -0.9224202 -4.321337E-07
vn -0.3861877 -0.9224202 -4.321337E-07
vn -0.3861877 -0.9224202 -4.321337E-07
vn -0.3861877 -0.9224202 -4.321337E-07
vn -0.3861877 -0.9224202 -4.321337E-07
vn -0.3861877 -0.9224202 -4.321337E-07
vn -0.3861877 -0.9224202 -4.321337E-07
vn -0.3861877 -0.9224202 -4.321337E-07
vn -0.3861877 -0.9224202 -4.321337E-07
vn -0.3861877 -0.9224202 -4.321337E-07
vn -0.3861877 -0.9224202 -4.321337E-07
vn -0.3861877 -0.9224201 -4.321336E-07
vn -0.3861877 -0.9224202 -4.321337E-07
vn -0.3861877 -0.9224202 -4.321337E-07
vn -0.3861877 -0.9224201 -4.321336E-07
vn -0.3861877 -0.9224202 -4.321337E-07
vn -0.3861877 -0.9224202 -4.321337E-07
vn -0.3861877 -0.9224202 -4.321337E-07
vn -0.3861877 -0.9224201 -4.321336E-07
vn -0.3861877 -0.9224202 -4.321337E-07
vn -0.3861877 -0.9224202 -4.321337E-07
vn -0.3861877 -0.9224202 -4.321337E-07
vn -0.3861877 -0.9224202 -4.321337E-07
vn -0.3861877 -0.9224202 -4.321337E-07
vn -0.3861877 -0.9224202 -4.321337E-07
vn -0.3861877 -0.9224202 -4.321337E-07
vn -0.3861877 -0.9224202 -4.321337E-07
vn -0.3861877 -0.9224202 -4.321337E-07
vn -0.3861877 -0.9224202 -4.321337E-07
vn -0.3861877 -0.9224201 -4.321336E-07
vn -0.3861877 -0.9224202 -4.321337E-07
vn -0.3861877 -0.9224201 -4.321336E-07
vn -0.3861877 -0.9224201 -4.321336E-07
vn -0.3861877 -0.9224202 -4.321337E-07
vn -0.3861877 -0.9224201 -4.321336E-07
vn -0.3861877 -0.9224201 -4.321336E-07
vn 0.4811464 -0.2014405 -0.8531823
vn 0.6644201 -0.2781713 -0.6936619
vn 0.8129452 -0.3403541 -0.4725243
vn 0.4811464 -0.2014405 -0.8531821
vn 0.9222566 -0.3861194 0.01883674
vn 0.8830429 -0.3697019 0.2890604
vn 0.7869924 -0.3294887 0.5216129
vn 0.7869925 -0.3294887 0.5216129
vn 0.4811463 -0.2014404 -0.8531823
vn -0.911213 0.3814958 -0.155409
vn -0.911213 0.3814958 -0.155409
vn -0.911213 0.3814958 -0.155409
vn -0.911213 0.3814958 -0.155409
vn -0.911213 0.3814958 -0.155409
vn -0.911213 0.3814958 -0.155409
vn -0.911213 0.3814958 -0.155409
vn -0.9112129 0.3814958 -0.155409
vn -0.06205354 0.2458393 0.9673223
vn 0.3861879 0.9224201 -2.956737E-07
vn 0.3861879 0.9224201 4.656696E-07
vn 0.386188 0.9224201 3.582055E-07
vn 0.3861879 0.9224201 4.656697E-07
vn 0.3861879 0.9224201 4.656697E-07
vn 0.3861879 0.9224201 1.503109E-07
vn 0.3861879 0.9224201 1.503107E-07
vn 0.3861879 0.9224201 1.503114E-07
vn 0.3861879 0.9224201 1.503106E-07
vn 0.3861879 0.9224201 1.503105E-07
vn 0.3861879 0.9224201 1.50311E-07
vn 0.3861879 0.9224201 1.503129E-07
vn 0.3861879 0.9224201 1.503085E-07
vn 0.386188 0.9224201 3.528435E-07
vn 0.386188 0.9224201 4.795608E-07
vn 0.386188 0.9224201 3.546892E-07
vn 0.386188 0.9224201 3.546887E-07
vn 0.386188 0.9224201 3.54688E-07
vn 0.386188 0.9224201 3.546884E-07
vn 0.386188 0.9224201 3.546885E-07
vn 0.386188 0.9224201 3.546886E-07
vn 0.386188 0.9224201 3.546892E-07
vn 0.386188 0.9224201 5.794288E-07
vn 0.386188 0.9224201 6.044328E-07
vn 0.386188 0.9224201 6.04433E-07
vn 0.386188 0.9224201 6.044322E-07
vn 0.386188 0.9224201 6.044339E-07
vn 0.386188 0.9224201 6.044331E-07
vn 0.386188 0.9224201 6.044327E-07
vn 0.3861879 0.9224201 5.786903E-07
vn 0.3861878 0.9224201 7.532466E-07
vn 0.3861878 0.9224201 7.532468E-07
vn 0.3861878 0.9224201 7.532471E-07
vn 0.3861878 0.9224201 7.532408E-07
vn 0.3861878 0.9224201 7.532478E-07
vn 0.3861878 0.9224201 7.532472E-07
vn 0.3861878 0.9224201 7.532459E-07
vn 0.3861878 0.9224201 7.532448E-07
vn 0.3861879 0.9224201 4.656697E-07
vn 0.3861879 0.9224201 4.656697E-07
vn 0.3861879 0.9224201 4.656696E-07

f 1//1 2//2 3//3
f 4//4 1//1 3//3
f 3//3 5//5 4//4
f 3//3 6//6 5//5
f 5//5 6//6 7//7
f 8//8 7//7 6//6
f 9//9 8//8 6//6
f 10//10 9//9 6//6
f 9//9 10//10 11//11
f 11//11 10//10 12//12
f 13//13 11//11 12//12
f 13//13 12//12 14//14
f 13//13 14//14 15//15
f 15//15 14//14 16//16
f 15//15 16//16 17//17
f 18//18 17//17 16//16
f 19//19 17//17 18//18
f 19//19 18//18 20//20
f 21//21 19//19 20//20
f 22//22 19//19 21//21
f 22//22 21//21 23//23
f 24//24 22//22 23//23
f 24//24 23//23 25//25
f 26//26 24//24 25//25
f 26//26 25//25 27//27
f 28//28 26//26 27//27
f 28//28 27//27 29//29
f 29//29 27//27 30//30
f 31//31 29//29 30//30
f 31//31 30//30 32//32
f 33//33 31//31 32//32
f 33//33 32//32 34//34
f 35//35 33//33 34//34
f 35//35 34//34 36//36
f 37//37 35//35 36//36
f 37//37 36//36 38//38
f 39//39 37//37 38//38
f 39//39 38//38 40//40
f 41//41 39//39 40//40
f 41//41 40//40 42//42
f 41//41 42//42 43//43
f 43//43 42//42 44//44
f 45//45 43//43 44//44
f 45//45 44//44 46//46
f 47//47 45//45 46//46
f 48//48 45//45 47//47
f 48//48 47//47 49//49
f 50//50 48//48 49//49
f 50//50 49//49 51//51
f 52//52 50//50 51//51
f 52//52 51//51 53//53
f 54//54 52//52 53//53
f 55//55 54//54 53//53
f 55//55 53//53 56//56
f 55//55 56//56 57//57
f 57//57 56//56 58//58
f 57//57 58//58 59//59
f 59//59 58//58 60//60
f 59//59 60//60 61//61
f 61//61 60//60 62//62
f 61//61 62//62 63//63
f 63//63 62//62 64//64
f 63//63 64//64 65//65
f 65//65 64//64 66//66
f 65//65 66//66 67//67
f 68//68 67//67 66//66
f 69//69 67//67 68//68
f 69//69 68//68 70//70
f 71//71 69//69 70//70
f 72//72 71//71 73//73
f 74//74 75//75 76//76
f 77//77 74//74 76//76
f 75//75 77//77 76//76
f 78//78 75//75 74//74
f 79//79 75//75 78//78
f 78//78 74//74 80//80
f 81//81 78//78 80//80
f 82//82 78//78 81//81
f 82//82 83//83 78//78
f 83//83 84//84 79//79
f 84//84 85//85 79//79
f 80//80 74//74 86//86
f 87//87 80//80 86//86
f 81//81 80//80 87//87
f 86//86 74//74 88//88
f 88//88 74//74 77//77
f 86//86 88//88 89//89
f 90//90 86//86 89//89
f 87//87 86//86 90//90
f 75//75 91//91 77//77
f 90//90 89//89 92//92
f 90//90 92//92 93//93
f 94//94 90//90 93//93
f 95//95 83//83 82//82
f 95//95 82//82 81//81
f 95//95 81//81 87//87
f 95//95 87//87 90//90
f 95//95 96//96 83//83
f 97//97 91//91 75//75
f 97//97 98//98 91//91
f 97//97 99//99 98//98
f 100//100 95//95 101//101
f 102//102 103//103 104//104
f 102//102 104//104 105//105
f 102//102 105//105 106//106
f 106//106 105//105 107//107
f 108//108 102//102 106//106
f 109//109 102//102 108//108
f 110//110 108//108 106//106
f 111//111 112//112 113//113
f 111//111 113//113 114//114
f 111//111 114//114 115//115
f 111//111 115//115 116//116
f 111//111 116//116 117//117
f 117//117 118//118 111//111
f 118//118 119//119 111//111
f 120//120 111//111 119//119
f 120//120 121//121 111//111
f 121//121 122//122 111//111
f 111//111 122//122 123//123
f 114//114 113//113 124//124
f 124//124 113//113 125//125
f 125//125 113//113 126//126
f 126//126 113//113 127//127
f 127//127 113//113 128//128
f 128//128 113//113 129//129
f 129//129 113//113 130//130
f 130//130 113//113 131//131
f 131//131 113//113 132//132
f 132//132 113//113 133//133
f 133//133 113//113 134//134
f 133//133 134//134 135//135
f 135//135 134//134 136//136
f 134//134 137//137 136//136
f 137//137 134//134 138//138
f 138//138 134//134 139//139
f 139//139 134//134 140//140
f 140//140 134//134 141//141
f 134//134 142//142 141//141
f 134//134 143//143 142//142
f 134//134 144//144 143//143
f 144//144 134//134 145//145
f 145//145 134//134 146//146
f 147//147 134//134 148//148
f 149//149 150//150 151//151
f 149//149 152//152 150//150
f 151//151 150//150 153//153
f 151//151 153//153 154//154
f 154//154 153//153 155//155
f 154//154 155//155 156//156
f 152//152 157//157 150//150
f 158//158 159//159 160//160
f 161//161 159//159 158//158
f 162//162 159//159 161//161
f 163//163 162//162 161//161
f 164//164 162//162 163//163
f 165//165 162//162 164//164
f 9//9 166//166 8//8
f 166//166 9//9 167//167
f 168//168 169//169 170//170
f 168//168 171//171 169//169
f 172//172 169//169 173//173
f 174//174 169//169 172//172
f 169//169 174//174 175//175
f 176//176 169//169 175//175
f 177//177 169//169 176//176
f 178//178 169//169 177//177
f 178//178 179//179 169//169
f 179//179 180//180 169//169
f 180//180 181//181 169//169
f 182//182 181//181 180//180
f 182//182 183//183 181//181
f 183//183 184//184 181//181
f 184//184 185//185 181//181
f 185//185 186//186 181//181
f 186//186 187//187 181//181
f 187//187 188//188 181//181
f 188//188 189//189 181//181
f 181//181 189//189 190//190
f 181//181 190//190 191//191
f 192//192 181//181 191//191
f 193//193 181//181 192//192
f 194//194 181//181 193//193
f 195//195 181//181 194//194
f 195//195 196//196 181//181
f 196//196 197//197 198//198
f 196//196 198//198 199//199
f 199//199 200//200 196//196
f 196//196 200//200 201//201
f 201//201 202//202 196//196
f 196//196 202//202 203//203
f 196//196 203//203 204//204
f 205//205 196//196 206//206
f 207//207 196//196 205//205
