v 54.58218 100.0934 -86.64342
v 37.25789 96.00374 -97.64472
v 54.58218 100.0934 -86.64342
v 54.58218 100.0934 -86.64342
v 52.76609 102.4401 -84.65588
v 52.03965 103.3787 -83.86086
v 52.03965 103.3787 -83.86086
v 34.71536 99.28901 -94.86217
v 17.39107 95.1993 -105.8635
v 52.04559 103.6067 -83.95496
v 17.44448 97.25101 -106.7103
v 52.04633 103.635 -83.96665
v 17.45112 97.50597 -106.8155
v 52.04653 103.643 -83.96993
v 17.45298 97.57755 -106.8451
v 52.04886 103.7324 -84.00683
v 17.47393 98.38202 -107.1771
v 52.07755 104.8344 -84.46169
v 17.47712 98.50447 -107.2277
v 52.10476 105.8793 -84.89297
v 52.10788 105.9995 -84.94258
v 17.48048 98.63392 -107.2811
v 52.11441 106.2502 -85.04606
v 17.48121 98.66178 -107.2926
v 52.13172 106.9151 -85.32048
v 17.48314 98.73566 -107.3231
v 52.05453 107.0953 -85.26594
v 17.05807 99.72835 -107.0228
v 16.7884 100.3582 -106.8322
v 52.03537 107.1401 -85.2524
v 16.61602 100.7607 -106.7104
v 52.02967 107.1534 -85.24837
v 16.56473 100.8805 -106.6742
v 51.9866 107.254 -85.21794
v 16.17702 101.786 -106.4002
v 51.49237 108.4082 -84.86874
v 16.1221 101.9142 -106.3614
v 51.08406 109.3618 -84.58024
v 16.07673 102.0202 -106.3294
v 50.68048 110.3043 -84.29508
v 16.03189 102.1249 -106.2977
v 50.6143 110.3431 -84.20529
v 15.43632 102.474 -105.4896
v 50.46603 110.43 -84.00411
v 14.1019 103.2561 -103.6789
v 50.05239 110.6724 -83.44284
v 49.88696 110.7694 -83.21838
v 14.03756 103.2938 -103.5916
v 49.32289 111.1 -82.45301
v 13.97489 103.3305 -103.5066
v 48.85844 111.3722 -81.82281
v 13.92328 103.3607 -103.4366
v 48.53604 111.5611 -81.38535
v 13.88746 103.3817 -103.388
v 13.88746 103.3817 -103.388
v 48.44205 111.4653 -81.20173
v 13.04155 102.5195 -101.7354
v 48.41439 111.4371 -81.14768
v 12.79256 102.2658 -101.2489
v 48.41156 111.4343 -81.14217
v 12.76714 102.2399 -101.1993
v 48.41026 111.4329 -81.13961
v 12.75536 102.2278 -101.1762
v 48.4086 111.4312 -81.13638
v 12.74046 102.2127 -101.1471
v 48.3779 111.4 -81.07639
v 12.46416 101.931 -100.6073
v 46.9546 109.9493 -78.29577
v 12.30601 101.7699 -100.2984
v 46.9546 109.9493 -78.29576
v 12.30601 101.7699 -100.2984
v 46.9546 109.9493 -78.29576
v 46.9546 109.9493 -78.29576
v 46.22816 110.8879 -77.50075
v 44.41207 113.2345 -75.51321
v 44.41207 113.2345 -75.51321
v 44.41207 113.2345 -75.51321
v 46.9546 109.9493 -78.29576
v 46.9546 109.9493 -78.29576
v 46.9546 109.9493 -78.29576
v 12.30601 101.7699 -100.2984
v 12.30601 101.7699 -100.2984
v 12.30601 101.7699 -100.2984
v 46.9546 109.9493 -78.29576
v 47.57496 116.4583 -81.6924
v 46.9546 109.9493 -78.29576
v 12.30601 101.7699 -100.2984
v 46.9546 109.9493 -78.29576
v 29.6303 105.8596 -89.29707
v 12.30601 101.7699 -100.2984
v 27.08778 109.1448 -86.51452
v 12.30603 101.7699 -100.2984
v 12.30601 101.7699 -100.2984
v 11.57958 102.7085 -99.50336
v 12.92638 108.2789 -103.695
v 12.30601 101.7699 -100.2984
v 47.57496 116.4583 -81.6924
v 9.763487 105.0551 -97.51582
v 12.92638 108.2789 -103.695
v 13.88746 103.3817 -103.388
v 13.88746 103.3817 -103.388
v 37.25789 96.00374 -97.64472
v 54.58218 100.0934 -86.64342
v 54.58218 100.0934 -86.64342
v 52.76609 102.4401 -84.65588
v 34.71536 99.28901 -94.86217
v 52.03965 103.3787 -83.86086
v 18.44422 93.8385 -107.016
v 19.93359 91.91403 -108.646
v 17.39107 95.1993 -105.8635
v 54.58218 100.0934 -86.64342
v 54.76631 107.1661 -89.56264
v 51.86383 113.9447 -87.51186
v 52.13172 106.9151 -85.32048
v 52.11441 106.2502 -85.04606
v 52.10788 105.9995 -84.94258
v 52.10476 105.8793 -84.89297
v 52.07755 104.8344 -84.46169
v 52.04886 103.7324 -84.00683
v 52.04653 103.643 -83.96993
v 52.04633 103.635 -83.96665
v 52.04559 103.6067 -83.95496
v 52.03965 103.3787 -83.86086
v 52.05453 107.0953 -85.26594
v 52.03537 107.1401 -85.2524
v 52.02967 107.1534 -85.24837
v 51.9866 107.254 -85.21794
v 51.49237 108.4082 -84.86874
v 51.08406 109.3618 -84.58024
v 50.68048 110.3043 -84.29508
v 50.6143 110.3431 -84.20529
v 50.46603 110.43 -84.00411
v 50.05239 110.6724 -83.44284
v 47.57496 116.4583 -81.6924
v 49.88696 110.7694 -83.21838
v 49.32289 111.1 -82.45301
v 48.85844 111.3722 -81.82281
v 48.53604 111.5611 -81.38535
v 48.44205 111.4653 -81.20173
v 48.41439 111.4371 -81.14768
v 48.41156 111.4343 -81.14217
v 48.41026 111.4329 -81.13961
v 48.4086 111.4312 -81.13638
v 48.3779 111.4 -81.07639
v 46.9546 109.9493 -78.29577
v 46.9546 109.9493 -78.29576
v 46.9546 109.9493 -78.29576
v 44.41207 113.2345 -75.51321
v 54.58218 100.0934 -86.64342
v 20.11773 98.98672 -111.5652
v 54.76631 107.1661 -89.56264
v 37.25789 96.00374 -97.64472
v 17.21524 105.7653 -109.5145
v 51.86383 113.9447 -87.51186
v 12.92638 108.2789 -103.695
v 47.57496 116.4583 -81.6924
v 19.93359 91.91403 -108.646
v 44.41207 113.2345 -75.51321
v 29.6303 105.8596 -89.29707
v 46.9546 109.9493 -78.29576
v 27.08778 109.1448 -86.51452
v 12.30603 101.7699 -100.2984
v 9.763487 105.0551 -97.51582
v 11.57958 102.7085 -99.50336
v 12.30601 101.7699 -100.2984
v 17.39107 95.1993 -105.8635
v 20.11773 98.98672 -111.5652
v 18.44422 93.8385 -107.016
v 20.11773 98.98672 -111.5652
v 19.93359 91.91403 -108.646
v 17.39107 95.1993 -105.8635
v 17.44448 97.25101 -106.7103
v 17.39107 95.1993 -105.8635
v 17.45112 97.50597 -106.8155
v 17.45298 97.57755 -106.8451
v 17.47393 98.38202 -107.1771
v 17.47712 98.50447 -107.2277
v 17.48048 98.63392 -107.2811
v 17.48121 98.66178 -107.2926
v 17.48314 98.73566 -107.3231
v 17.21524 105.7653 -109.5145
v 17.05807 99.72835 -107.0228
v 16.7884 100.3582 -106.8322
v 16.61602 100.7607 -106.7104
v 16.56473 100.8805 -106.6742
v 16.17702 101.786 -106.4002
v 16.1221 101.9142 -106.3614
v 16.07673 102.0202 -106.3294
v 16.03189 102.1249 -106.2977
v 15.43632 102.474 -105.4896
v 14.1019 103.2561 -103.6789
v 14.03756 103.2938 -103.5916
v 13.97489 103.3305 -103.5066
v 13.92328 103.3607 -103.4366
v 13.88746 103.3817 -103.388
v 12.92638 108.2789 -103.695
v 13.88746 103.3817 -103.388
v 13.04155 102.5195 -101.7354
v 12.79256 102.2658 -101.2489
v 12.76714 102.2399 -101.1993
v 12.75536 102.2278 -101.1762
v 12.74046 102.2127 -101.1471
v 12.46416 101.931 -100.6073
v 12.30601 101.7699 -100.2984
v 11.57958 102.7085 -99.50336
v 12.30601 101.7699 -100.2984
v 9.763487 105.0551 -97.51582

vn 0.5085054 -0.6570539 -0.5565093
vn 0.5085053 -0.6570539 -0.5565094
vn 0.9248727 -0.3716825 -0.08039222
vn 0.827895 0.1954392 0.5257313
vn 0.827895 0.1954392 0.5257313
vn -0.5603672 0.3284144 0.7603504
vn -0.3863126 0.6780896 0.6252659
vn -0.3507396 -0.5510544 0.7571795
vn -0.5603673 0.3284186 0.7603484
vn -0.5603673 0.3284195 0.7603482
vn -0.5603673 0.3284191 0.7603483
vn -0.5603674 0.3284182 0.7603487
vn -0.5603675 0.3284172 0.760349
vn -0.5603669 0.3284227 0.7603471
vn -0.5603672 0.32842 0.760348
vn -0.5603672 0.3284195 0.7603482
vn -0.5603672 0.3284197 0.7603482
vn -0.5603672 0.3284197 0.7603481
vn -0.5603672 0.3284195 0.7603482
vn -0.5603672 0.3284198 0.7603481
vn -0.5603672 0.3284187 0.7603486
vn -0.5603673 0.3284172 0.7603491
vn -0.5603672 0.3284193 0.7603483
vn -0.5603672 0.3284201 0.760348
vn -0.5575851 0.1852791 0.8091791
vn -0.4284157 -0.3846284 0.8176314
vn -0.4132505 -0.4212059 0.8073474
vn -0.4132507 -0.4212051 0.8073476
vn -0.4132508 -0.4212049 0.8073477
vn -0.4132515 -0.421203 0.8073484
vn -0.4132519 -0.4212018 0.8073488
vn -0.4132524 -0.4212003 0.8073493
vn -0.4132515 -0.4212029 0.8073485
vn -0.4132512 -0.4212039 0.807348
vn -0.4132511 -0.4212045 0.8073479
vn -0.4132511 -0.4212045 0.8073478
vn -0.4132514 -0.4212035 0.8073481
vn -0.4132512 -0.4212041 0.807348
vn -0.4132508 -0.4212052 0.8073476
vn -0.3873947 -0.478584 0.7879612
vn -0.0609777 -0.9004095 0.4307492
vn -0.02405916 -0.9240907 0.3814152
vn -0.02405859 -0.9240912 0.3814144
vn -0.02405823 -0.9240915 0.3814139
vn -0.02405821 -0.9240913 0.3814139
vn -0.02405843 -0.9240912 0.3814142
vn -0.02405864 -0.924091 0.3814147
vn -0.02405844 -0.9240912 0.3814144
vn -0.02405863 -0.9240911 0.3814147
vn -0.02405844 -0.9240911 0.3814144
vn -0.02405844 -0.9240912 0.3814144
vn -0.02405868 -0.924091 0.3814147
vn 0.08684235 -0.9706902 0.2240967
vn -0.02407172 -0.9240834 0.3814324
vn 0.3792275 -0.8856587 -0.2679466
vn 0.379228 -0.8856581 -0.2679477
vn 0.3792282 -0.885658 -0.2679481
vn 0.3792286 -0.8856574 -0.2679491
vn 0.3792279 -0.8856583 -0.2679473
vn 0.3792275 -0.885659 -0.2679459
vn 0.3792265 -0.88566 -0.2679435
vn 0.3792125 -0.885678 -0.267904
vn 0.3792213 -0.8856668 -0.2679288
vn 0.3792303 -0.8856554 -0.2679536
vn 0.3792289 -0.8856571 -0.2679501
vn 0.379228 -0.8856581 -0.2679476
vn 0.3792277 -0.8856584 -0.267947
vn 0.3792276 -0.8856586 -0.2679469
vn 0.3792255 -0.8856607 -0.2679428
vn 0.3046426 -0.9437021 -0.1289167
vn 0.5085051 -0.6570539 -0.5565095
vn 0.5085051 -0.6570539 -0.5565095
vn 0.5085051 -0.6570539 -0.5565095
vn 0.827895 0.1954392 0.5257313
vn -0.379228 0.8856583 0.2679473
vn 0.827895 0.1954392 0.5257313
vn -0.3007486 -0.636503 0.7102215
vn 0.9597807 -0.2781223 0.03832923
vn 0.9704885 -0.2086746 0.1208607
vn 0.5660412 -0.6415077 -0.5177504
vn 0.5085051 -0.6570539 -0.5565095
vn 0.5085051 -0.6570539 -0.5565095
vn 0.5085051 -0.6570539 -0.5565095
vn 0.5910758 -0.6334284 -0.4993978
vn 0.827895 0.1954392 0.5257313
vn 0.5189468 -0.6545306 -0.5498038
vn 0.5085051 -0.6570539 -0.5565095
vn 0.6204764 -0.622811 -0.4765667
vn 0.5085067 -0.6570491 -0.5565138
vn 0.4578809 -0.6675985 -0.5870754
vn -0.3792279 0.8856583 0.2679473
vn 0.5085107 -0.6570368 -0.5565248
vn -0.8278915 -0.1954437 -0.5257351
vn -0.827895 -0.1954392 -0.5257313
vn -0.8278949 -0.1954389 -0.5257316
vn 0 0 0
vn -0.3792279 0.8856583 0.2679473
vn -0.3792279 0.8856583 0.2679473
vn -0.379228 0.8856584 0.2679473
vn -0.8278949 -0.1954389 -0.5257316
vn -0.8278949 -0.1954389 -0.5257316
vn -0.2366702 -0.7280685 0.6433534
vn -0.2366702 -0.7280685 0.6433534
vn -0.2366702 -0.7280685 0.6433534
vn -0.2366702 -0.7280685 0.6433534
vn -0.2366702 -0.7280685 0.6433534
vn -0.2366702 -0.7280685 0.6433534
vn -0.2366702 -0.7280685 0.6433534
vn -0.2366702 -0.7280685 0.6433534
vn -0.2366702 -0.7280685 0.6433534
vn 0.827895 0.1954392 0.5257313
vn 0.827895 0.1954392 0.5257313
vn 0.827895 0.1954392 0.5257313
vn 0.827895 0.1954392 0.5257313
vn 0.827895 0.1954392 0.5257313
vn 0.827895 0.1954392 0.5257313
vn 0.827895 0.1954392 0.5257313
vn 0.827895 0.1954392 0.5257313
vn 0.827895 0.1954392 0.5257313
vn 0.827895 0.1954392 0.5257313
vn 0.827895 0.1954392 0.5257313
vn 0.827895 0.1954392 0.5257313
vn 0.827895 0.1954392 0.5257313
vn 0.827895 0.1954392 0.5257313
vn 0.827895 0.1954392 0.5257313
vn 0.827895 0.1954392 0.5257313
vn 0.827895 0.1954392 0.5257313
vn 0.827895 0.1954392 0.5257313
vn 0.827895 0.1954392 0.5257313
vn 0.827895 0.1954392 0.5257313
vn 0.827895 0.1954392 0.5257313
vn 0.827895 0.1954392 0.5257313
vn 0.827895 0.1954392 0.5257313
vn 0.827895 0.1954392 0.5257313
vn 0.827895 0.1954392 0.5257313
vn 0.827895 0.1954392 0.5257313
vn 0.827895 0.1954392 0.5257313
vn 0.827895 0.1954392 0.5257313
vn 0.827895 0.1954392 0.5257313
vn 0.827895 0.1954392 0.5257313
vn 0.827895 0.1954392 0.5257313
vn 0.827895 0.1954392 0.5257313
vn 0.827895 0.1954392 0.5257313
vn 0.827895 0.1954392 0.5257313
vn 0.827895 0.1954392 0.5257313
vn 0.827895 0.1954392 0.5257313
vn 0.827895 0.1954392 0.5257313
vn 0.827895 0.1954392 0.5257313
vn 0.5603673 -0.3284191 -0.7603484
vn 0.5482569 -0.08421718 -0.8320589
vn 0.4956766 0.1837032 -0.8488569
vn 0.5603672 -0.328419 -0.7603483
vn 0.3039961 0.6313588 -0.7134233
vn 0.164896 0.811094 -0.5611917
vn 0.02405834 0.9240912 -0.3814143
vn 0.02405835 0.9240912 -0.3814143
vn 0.5603672 -0.3284192 -0.7603483
vn -0.2366702 -0.7280685 0.6433534
vn -0.2366702 -0.7280685 0.6433534
vn -0.2366702 -0.7280685 0.6433534
vn -0.2366702 -0.7280685 0.6433534
vn -0.2366702 -0.7280685 0.6433534
vn -0.2366702 -0.7280685 0.6433534
vn -0.2366702 -0.7280685 0.6433534
vn -0.2366702 -0.7280685 0.6433534
vn -0.6658378 0.6037644 0.438325
vn -0.8278947 -0.1954397 -0.5257317
vn -0.8278949 -0.195439 -0.5257314
vn -0.8278949 -0.1954391 -0.5257315
vn -0.827895 -0.195439 -0.5257314
vn -0.827895 -0.195439 -0.5257314
vn -0.8278949 -0.1954393 -0.5257316
vn -0.8278949 -0.1954393 -0.5257316
vn -0.8278949 -0.1954393 -0.5257316
vn -0.8278949 -0.1954393 -0.5257316
vn -0.8278949 -0.1954393 -0.5257316
vn -0.8278948 -0.1954393 -0.5257315
vn -0.8278949 -0.1954393 -0.5257316
vn -0.8278948 -0.1954393 -0.5257315
vn -0.8278949 -0.1954391 -0.5257316
vn -0.827895 -0.195439 -0.5257315
vn -0.8278949 -0.1954391 -0.5257316
vn -0.8278949 -0.1954391 -0.5257316
vn -0.8278949 -0.1954391 -0.5257316
vn -0.8278949 -0.1954391 -0.5257316
vn -0.8278949 -0.1954391 -0.5257316
vn -0.8278949 -0.1954391 -0.5257316
vn -0.8278949 -0.1954391 -0.5257316
vn -0.827895 -0.1954389 -0.5257314
vn -0.827895 -0.1954389 -0.5257314
vn -0.827895 -0.1954389 -0.5257314
vn -0.827895 -0.1954389 -0.5257314
vn -0.827895 -0.1954389 -0.5257314
vn -0.827895 -0.1954389 -0.5257314
vn -0.827895 -0.1954389 -0.5257314
vn -0.827895 -0.195439 -0.5257314
vn -0.8278952 -0.1954389 -0.5257312
vn -0.8278952 -0.1954389 -0.5257312
vn -0.8278952 -0.1954389 -0.5257312
vn -0.8278952 -0.1954389 -0.5257312
vn -0.8278952 -0.1954389 -0.5257312
vn -0.8278952 -0.1954389 -0.5257312
vn -0.8278952 -0.1954389 -0.5257312
vn -0.8278951 -0.1954389 -0.5257311
vn -0.827895 -0.195439 -0.5257314
vn -0.827895 -0.195439 -0.5257314
vn -0.8278949 -0.195439 -0.5257314

f 1//1 2//2 3//3
f 4//4 1//1 3//3
f 3//3 5//5 4//4
f 3//3 6//6 5//5
f 5//5 6//6 7//7
f 8//8 7//7 6//6
f 9//9 8//8 6//6
f 10//10 9//9 6//6
f 9//9 10//10 11//11
f 11//11 10//10 12//12
f 13//13 11//11 12//12
f 13//13 12//12 14//14
f 13//13 14//14 15//15
f 15//15 14//14 16//16
f 15//15 16//16 17//17
f 18//18 17//17 16//16
f 19//19 17//17 18//18
f 19//19 18//18 20//20
f 21//21 19//19 20//20
f 22//22 19//19 21//21
f 22//22 21//21 23//23
f 24//24 22//22 23//23
f 24//24 23//23 25//25
f 26//26 24//24 25//25
f 26//26 25//25 27//27
f 28//28 26//26 27//27
f 28//28 27//27 29//29
f 29//29 27//27 30//30
f 31//31 29//29 30//30
f 31//31 30//30 32//32
f 33//33 31//31 32//32
f 33//33 32//32 34//34
f 35//35 33//33 34//34
f 35//35 34//34 36//36
f 37//37 35//35 36//36
f 37//37 36//36 38//38
f 39//39 37//37 38//38
f 39//39 38//38 40//40
f 41//41 39//39 40//40
f 41//41 40//40 42//42
f 41//41 42//42 43//43
f 43//43 42//42 44//44
f 45//45 43//43 44//44
f 45//45 44//44 46//46
f 47//47 45//45 46//46
f 48//48 45//45 47//47
f 48//48 47//47 49//49
f 50//50 48//48 49//49
f 50//50 49//49 51//51
f 52//52 50//50 51//51
f 52//52 51//51 53//53
f 54//54 52//52 53//53
f 55//55 54//54 53//53
f 55//55 53//53 56//56
f 55//55 56//56 57//57
f 57//57 56//56 58//58
f 57//57 58//58 59//59
f 59//59 58//58 60//60
f 59//59 60//60 61//61
f 61//61 60//60 62//62
f 61//61 62//62 63//63
f 63//63 62//62 64//64
f 63//63 64//64 65//65
f 65//65 64//64 66//66
f 65//65 66//66 67//67
f 68//68 67//67 66//66
f 69//69 67//67 68//68
f 69//69 68//68 70//70
f 71//71 69//69 70//70
f 72//72 71//71 73//73
f 74//74 75//75 76//76
f 77//77 74//74 76//76
f 75//75 77//77 76//76
f 78//78 75//75 74//74
f 79//79 75//75 78//78
f 78//78 74//74 80//80
f 81//81 78//78 80//80
f 82//82 78//78 81//81
f 82//82 83//83 78//78
f 83//83 84//84 79//79
f 84//84 85//85 79//79
f 80//80 74//74 86//86
f 87//87 80//80 86//86
f 81//81 80//80 87//87
f 86//86 74//74 88//88
f 88//88 74//74 77//77
f 86//86 88//88 89//89
f 90//90 86//86 89//89
f 87//87 86//86 90//90
f 75//75 91//91 77//77
f 90//90 89//89 92//92
f 90//90 92//92 93//93
f 94//94 90//90 93//93
f 95//95 83//83 82//82
f 95//95 82//82 81//81
f 95//95 81//81 87//87
f 95//95 87//87 90//90
f 95//95 96//96 83//83
f 97//97 91//91 75//75
f 97//97 98//98 91//91
f 97//97 99//99 98//98
f 100//100 95//95 101//101
f 102//102 103//103 104//104
f 102//102 104//104 105//105
f 102//102 105//105 106//106
f 106//106 105//105 107//107
f 108//108 102//102 106//106
f 109//109 102//102 108//108
f 110//110 108//108 106//106
f 111//111 112//112 113//113
f 111//111 113//113 114//114
f 111//111 114//114 115//115
f 111//111 115//115 116//116
f 111//111 116//116 117//117
f 117//117 118//118 111//111
f 118//118 119//119 111//111
f 120//120 111//111 119//119
f 120//120 121//121 111//111
f 121//121 122//122 111//111
f 111//111 122//122 123//123
f 114//114 113//113 124//124
f 124//124 113//113 125//125
f 125//125 113//113 126//126
f 126//126 113//113 127//127
f 127//127 113//113 128//128
f 128//128 113//113 129//129
f 129//129 113//113 130//130
f 130//130 113//113 131//131
f 131//131 113//113 132//132
f 132//132 113//113 133//133
f 133//133 113//113 134//134
f 133//133 134//134 135//135
f 135//135 134//134 136//136
f 134//134 137//137 136//136
f 137//137 134//134 138//138
f 138//138 134//134 139//139
f 139//139 134//134 140//140
f 140//140 134//134 141//141
f 134//134 142//142 141//141
f 134//134 143//143 142//142
f 134//134 144//144 143//143
f 144//144 134//134 145//145
f 145//145 134//134 146//146
f 147//147 134//134 148//148
f 149//149 150//150 151//151
f 149//149 152//152 150//150
f 151//151 150//150 153//153
f 151//151 153//153 154//154
f 154//154 153//153 155//155
f 154//154 155//155 156//156
f 152//152 157//157 150//150
f 158//158 159//159 160//160
f 161//161 159//159 158//158
f 162//162 159//159 161//161
f 163//163 162//162 161//161
f 164//164 162//162 163//163
f 165//165 162//162 164//164
f 9//9 166//166 8//8
f 166//166 9//9 167//167
f 168//168 169//169 170//170
f 168//168 171//171 169//169
f 172//172 169//169 173//173
f 174//174 169//169 172//172
f 169//169 174//174 175//175
f 176//176 169//169 175//175
f 177//177 169//169 176//176
f 178//178 169//169 177//177
f 178//178 179//179 169//169
f 179//179 180//180 169//169
f 180//180 181//181 169//169
f 182//182 181//181 180//180
f 182//182 183//183 181//181
f 183//183 184//184 181//181
f 184//184 185//185 181//181
f 185//185 186//186 181//181
f 186//186 187//187 181//181
f 187//187 188//188 181//181
f 188//188 189//189 181//181
f 181//181 189//189 190//190
f 181//181 190//190 191//191
f 192//192 181//181 191//191
f 193//193 181//181 192//192
f 194//194 181//181 193//193
f 195//195 181//181 194//194
f 195//195 196//196 181//181
f 196//196 197//197 198//198
f 196//196 198//198 199//199
f 199//199 200//200 196//196
f 196//196 200//200 201//201
f 201//201 202//202 196//196
f 196//196 202//202 203//203
f 196//196 203//203 204//204
f 205//205 196//196 206//206
f 207//207 196//196 205//205
