v 106.8993 -93.65112 27.14703
v 96.1923 -96.1787 44.94751
v 106.8993 -93.65112 27.14703
v 106.8993 -93.65112 27.14703
v 108.4905 -90.76097 28.51455
v 109.127 -89.60491 29.06155
v 109.127 -89.60491 29.06155
v 98.42003 -92.1325 46.86203
v 87.71302 -94.66008 64.66251
v 109.0017 -89.39748 29.0156
v 86.58467 -92.79321 64.2489
v 108.9861 -89.37171 29.00989
v 86.44446 -92.56122 64.19751
v 108.9817 -89.36447 29.00828
v 86.40509 -92.49609 64.18307
v 108.9326 -89.28314 28.99026
v 85.96267 -91.76408 64.0209
v 108.3265 -88.28036 28.76809
v 85.89533 -91.65266 63.99621
v 107.7518 -87.32961 28.55745
v 107.6857 -87.22023 28.53322
v 85.82413 -91.53487 63.97012
v 107.5479 -86.9921 28.48268
v 85.80882 -91.50953 63.9645
v 107.1822 -86.38715 28.34864
v 85.76819 -91.44231 63.94961
v 107.2088 -86.19017 28.39259
v 85.91446 -90.3577 64.1916
v 86.00726 -89.66959 64.34513
v 107.2154 -86.1413 28.4035
v 86.06658 -89.22975 64.44326
v 107.2173 -86.12675 28.40674
v 86.08424 -89.09885 64.47247
v 107.2322 -86.01684 28.43126
v 86.21765 -88.10956 64.69319
v 107.4022 -84.75574 28.71264
v 86.23655 -87.96943 64.72446
v 107.5427 -83.71387 28.94509
v 86.25216 -87.85367 64.75029
v 107.6816 -82.68408 29.17485
v 86.26759 -87.73925 64.77582
v 107.7634 -82.62177 29.23291
v 87.00388 -87.17847 65.29832
v 107.9467 -82.48217 29.36299
v 88.65357 -85.92202 66.46902
v 108.4581 -82.09269 29.72589
v 108.6626 -81.93693 29.87101
v 88.73312 -85.86143 66.52547
v 109.36 -81.40582 30.36588
v 88.8106 -85.80243 66.58046
v 109.9341 -80.9685 30.77335
v 88.8744 -85.75384 66.62573
v 110.3327 -80.66494 31.05619
v 88.91869 -85.72011 66.65716
v 88.91869 -85.72011 66.65716
v 110.5259 -80.71531 31.16522
v 90.657 -86.17346 67.63838
v 110.5827 -80.73014 31.19731
v 91.16866 -86.30691 67.92719
v 110.5885 -80.73165 31.20059
v 91.22089 -86.32053 67.95668
v 110.5912 -80.73235 31.2021
v 91.24511 -86.32684 67.97035
v 110.5946 -80.73324 31.20403
v 91.27572 -86.33483 67.98763
v 110.6577 -80.74969 31.23964
v 91.84351 -86.48291 68.30813
v 113.5825 -81.5125 32.89061
v 92.16849 -86.56767 68.49157
v 113.5825 -81.5125 32.89061
v 92.16849 -86.56767 68.49157
v 113.5825 -81.5125 32.89061
v 113.5825 -81.5125 32.89061
v 114.219 -80.35645 33.43761
v 115.8102 -77.46629 34.80513
v 115.8102 -77.46629 34.80513
v 115.8102 -77.46629 34.80513
v 113.5825 -81.5125 32.89061
v 113.5825 -81.5125 32.89061
v 113.5825 -81.5125 32.89061
v 92.16849 -86.56767 68.49157
v 92.16849 -86.56767 68.49157
v 92.16849 -86.56767 68.49157
v 113.5825 -81.5125 32.89061
v 109.3106 -75.77117 31.13631
v 113.5825 -81.5125 32.89061
v 92.16849 -86.56767 68.49157
v 113.5825 -81.5125 32.89061
v 102.8755 -84.04008 50.69109
v 92.16849 -86.56767 68.49157
v 105.1032 -79.99388 52.60562
v 92.1685 -86.56767 68.49155
v 92.16849 -86.56767 68.49157
v 92.80499 -85.41161 69.03857
v 87.89661 -80.82634 66.73727
v 92.16849 -86.56767 68.49157
v 109.3106 -75.77117 31.13631
v 94.39622 -82.52146 70.4061
v 87.89661 -80.82634 66.73727
v 88.91869 -85.72011 66.65716
v 88.91869 -85.72011 66.65716
v 96.1923 -96.1787 44.94751
v 106.8993 -93.65112 27.14703
v 106.8993 -93.65112 27.14703
v 108.4905 -90.76097 28.51455
v 98.42003 -92.1325 46.86203
v 109.127 -89.60491 29.06155
v 86.79026 -96.33607 63.86949
v 85.48528 -98.70629 62.74799
v 87.71302 -94.66008 64.66251
v 106.8993 -93.65112 27.14703
v 103.0097 -87.21558 25.72121
v 104.0085 -79.80946 27.37362
v 107.1822 -86.38715 28.34864
v 107.5479 -86.9921 28.48268
v 107.6857 -87.22023 28.53322
v 107.7518 -87.32961 28.55745
v 108.3265 -88.28036 28.76809
v 108.9326 -89.28314 28.99026
v 108.9817 -89.36447 29.00828
v 108.9861 -89.37171 29.00989
v 109.0017 -89.39748 29.0156
v 109.127 -89.60491 29.06155
v 107.2088 -86.19017 28.39259
v 107.2154 -86.1413 28.4035
v 107.2173 -86.12675 28.40674
v 107.2322 -86.01684 28.43126
v 107.4022 -84.75574 28.71264
v 107.5427 -83.71387 28.94509
v 107.6816 -82.68408 29.17485
v 107.7634 -82.62177 29.23291
v 107.9467 -82.48217 29.36299
v 108.4581 -82.09269 29.72589
v 109.3106 -75.77117 31.13631
v 108.6626 -81.93693 29.87101
v 109.36 -81.40582 30.36588
v 109.9341 -80.9685 30.77335
v 110.3327 -80.66494 31.05619
v 110.5259 -80.71531 31.16522
v 110.5827 -80.73014 31.19731
v 110.5885 -80.73165 31.20059
v 110.5912 -80.73235 31.2021
v 110.5946 -80.73324 31.20403
v 110.6577 -80.74969 31.23964
v 113.5825 -81.5125 32.89061
v 113.5825 -81.5125 32.89061
v 113.5825 -81.5125 32.89061
v 115.8102 -77.46629 34.80513
v 106.8993 -93.65112 27.14703
v 81.59563 -92.27074 61.32217
v 103.0097 -87.21558 25.72121
v 96.1923 -96.1787 44.94751
v 82.59444 -84.86462 62.97459
v 104.0085 -79.80946 27.37362
v 87.89661 -80.82634 66.73727
v 109.3106 -75.77117 31.13631
v 85.48528 -98.70629 62.74799
v 115.8102 -77.46629 34.80513
v 102.8755 -84.04008 50.69109
v 113.5825 -81.5125 32.89061
v 105.1032 -79.99388 52.60562
v 92.1685 -86.56767 68.49155
v 94.39622 -82.52146 70.4061
v 92.80499 -85.41161 69.03857
v 92.16849 -86.56767 68.49157
v 87.71302 -94.66008 64.66251
v 81.59563 -92.27074 61.32217
v 86.79026 -96.33607 63.86949
v 81.59563 -92.27074 61.32217
v 85.48528 -98.70629 62.74799
v 87.71302 -94.66008 64.66251
v 86.58467 -92.79321 64.2489
v 87.71302 -94.66008 64.66251
v 86.44446 -92.56122 64.19751
v 86.40509 -92.49609 64.18307
v 85.96267 -91.76408 64.0209
v 85.89533 -91.65266 63.99621
v 85.82413 -91.53487 63.97012
v 85.80882 -91.50953 63.9645
v 85.76819 -91.44231 63.94961
v 82.59444 -84.86462 62.97459
v 85.91446 -90.3577 64.1916
v 86.00726 -89.66959 64.34513
v 86.06658 -89.22975 64.44326
v 86.08424 -89.09885 64.47247
v 86.21765 -88.10956 64.69319
v 86.23655 -87.96943 64.72446
v 86.25216 -87.85367 64.75029
v 86.26759 -87.73925 64.77582
v 87.00388 -87.17847 65.29832
v 88.65357 -85.92202 66.46902
v 88.73312 -85.86143 66.52547
v 88.8106 -85.80243 66.58046
v 88.8744 -85.75384 66.62573
v 88.91869 -85.72011 66.65716
v 87.89661 -80.82634 66.73727
v 88.91869 -85.72011 66.65716
v 90.657 -86.17346 67.63838
v 91.16866 -86.30691 67.92719
v 91.22089 -86.32053 67.95668
v 91.24511 -86.32684 67.97035
v 91.27572 -86.33483 67.98763
v 91.84351 -86.48291 68.30813
v 92.16849 -86.56767 68.49157
v 92.80499 -85.41161 69.03857
v 92.16849 -86.56767 68.49157
v 94.39622 -82.52146 70.4061

vn -0.4455468 -0.8092411 -0.3829058
vn -0.4455468 -0.8092412 -0.3829057
vn -0.005295856 -0.5358137 -0.8443195
vn 0.5116674 0.1207883 -0.8506507
vn 0.5116674 0.1207883 -0.8506507
vn 0.6927658 0.5276229 0.4916193
vn 0.5134296 0.81819 0.2587571
vn 0.8194718 -0.3661302 0.4409246
vn 0.6927633 0.5276268 0.4916187
vn 0.6927629 0.5276275 0.4916185
vn 0.692763 0.5276272 0.4916186
vn 0.6927636 0.5276264 0.4916189
vn 0.692764 0.5276254 0.4916191
vn 0.6927614 0.5276304 0.4916175
vn 0.6927627 0.5276281 0.4916183
vn 0.6927629 0.5276276 0.4916184
vn 0.6927629 0.5276278 0.4916185
vn 0.6927628 0.5276278 0.4916184
vn 0.6927629 0.5276275 0.4916184
vn 0.6927628 0.5276278 0.4916184
vn 0.6927633 0.5276269 0.4916186
vn 0.6927641 0.5276255 0.4916189
vn 0.692763 0.5276273 0.4916184
vn 0.6927626 0.5276281 0.4916183
vn 0.7614917 0.3947645 0.5140929
vn 0.8538417 -0.1817163 0.4877841
vn 0.8492147 -0.2214805 0.4793547
vn 0.8492147 -0.2214796 0.4793548
vn 0.8492148 -0.2214793 0.4793549
vn 0.8492152 -0.2214773 0.4793552
vn 0.8492153 -0.221476 0.4793554
vn 0.8492157 -0.2214743 0.4793556
vn 0.8492152 -0.2214771 0.4793552
vn 0.8492149 -0.2214783 0.479355
vn 0.8492149 -0.2214789 0.479355
vn 0.8492148 -0.221479 0.479355
vn 0.8492149 -0.2214778 0.4793552
vn 0.8492149 -0.2214785 0.4793551
vn 0.8492147 -0.2214796 0.4793549
vn 0.838784 -0.2846884 0.4641055
vn 0.5528077 -0.8042009 0.218322
vn 0.5082091 -0.8408439 0.1862927
vn 0.5082084 -0.8408445 0.1862922
vn 0.5082079 -0.8408449 0.1862919
vn 0.5082079 -0.8408448 0.1862919
vn 0.5082082 -0.8408445 0.1862921
vn 0.5082086 -0.8408442 0.1862922
vn 0.5082083 -0.8408446 0.1862921
vn 0.5082086 -0.8408444 0.1862922
vn 0.5082083 -0.8408445 0.1862921
vn 0.5082084 -0.8408446 0.1862921
vn 0.5082086 -0.8408442 0.1862923
vn 0.361723 -0.9283329 0.08575793
vn 0.5082248 -0.840832 0.1863037
vn -0.1304997 -0.9676558 -0.2158983
vn -0.1305009 -0.9676554 -0.2158989
vn -0.1305013 -0.9676554 -0.2158991
vn -0.1305023 -0.9676551 -0.2158996
vn -0.1305005 -0.9676556 -0.2158988
vn -0.130499 -0.967656 -0.2158982
vn -0.1304965 -0.9676564 -0.2158971
vn -0.1304552 -0.9676658 -0.2158802
vn -0.1304811 -0.96766 -0.2158908
vn -0.1305071 -0.967654 -0.2159016
vn -0.1305034 -0.9676549 -0.2159
vn -0.1305007 -0.9676555 -0.2158989
vn -0.1305002 -0.9676556 -0.2158986
vn -0.1305 -0.9676557 -0.2158985
vn -0.1304958 -0.9676569 -0.215896
vn 0.0136013 -0.9910833 -0.1325479
vn -0.445547 -0.8092412 -0.3829055
vn -0.445547 -0.8092412 -0.3829055
vn -0.445547 -0.8092412 -0.3829055
vn 0.5116674 0.1207883 -0.8506507
vn 0.1305005 0.9676555 0.2158989
vn 0.5116674 0.1207883 -0.8506507
vn 0.7863052 -0.46488 0.4069529
vn 0.09970128 -0.4337264 -0.8955115
vn 0.1717513 -0.3560871 -0.9185333
vn -0.4080675 -0.7986142 -0.4423757
vn -0.445547 -0.8092412 -0.3829055
vn -0.445547 -0.8092412 -0.3829055
vn -0.445547 -0.8092412 -0.3829055
vn -0.390474 -0.7924954 -0.4684882
vn 0.5116674 0.1207883 -0.8506507
vn -0.4390277 -0.80765 -0.3936447
vn -0.445547 -0.8092412 -0.3829055
vn -0.3687083 -0.7840258 -0.4993573
vn -0.4455518 -0.8092374 -0.3829079
vn -0.4754692 -0.8150299 -0.3311424
vn 0.1305005 0.9676555 0.2158988
vn -0.4455643 -0.8092276 -0.382914
vn -0.5116704 -0.1207939 0.850648
vn -0.5116674 -0.1207883 0.8506507
vn -0.5116677 -0.120788 0.8506505
vn 0 0 0
vn 0.1305004 0.9676556 0.2158988
vn 0.1305005 0.9676556 0.2158988
vn 0.1305005 0.9676557 0.2158988
vn -0.5116677 -0.120788 0.8506505
vn -0.5116677 -0.120788 0.8506505
vn 0.7346321 -0.5749251 0.3602456
vn 0.734632 -0.5749251 0.3602455
vn 0.7346321 -0.5749251 0.3602456
vn 0.7346321 -0.5749251 0.3602456
vn 0.7346321 -0.5749251 0.3602456
vn 0.7346321 -0.5749251 0.3602456
vn 0.7346321 -0.5749251 0.3602456
vn 0.7346321 -0.5749251 0.3602456
vn 0.7346321 -0.5749251 0.3602456
vn 0.5116674 0.1207883 -0.8506507
vn 0.5116674 0.1207883 -0.8506507
vn 0.5116674 0.1207883 -0.8506507
vn 0.5116674 0.1207883 -0.8506507
vn 0.5116674 0.1207883 -0.8506507
vn 0.5116674 0.1207883 -0.8506507
vn 0.5116674 0.1207883 -0.8506507
vn 0.5116674 0.1207883 -0.8506507
vn 0.5116674 0.1207883 -0.8506507
vn 0.5116674 0.1207883 -0.8506507
vn 0.5116674 0.1207883 -0.8506507
vn 0.5116674 0.1207883 -0.8506507
vn 0.5116674 0.1207883 -0.8506507
vn 0.5116673 0.1207883 -0.8506507
vn 0.5116674 0.1207883 -0.8506507
vn 0.5116674 0.1207883 -0.8506507
vn 0.5116673 0.1207883 -0.8506507
vn 0.5116674 0.1207883 -0.8506507
vn 0.5116674 0.1207883 -0.8506507
vn 0.5116674 0.1207883 -0.8506507
vn 0.5116673 0.1207883 -0.8506507
vn 0.5116674 0.1207883 -0.8506507
vn 0.5116674 0.1207883 -0.8506507
vn 0.5116674 0.1207883 -0.8506507
vn 0.5116674 0.1207883 -0.8506507
vn 0.5116674 0.1207883 -0.8506507
vn 0.5116674 0.1207883 -0.8506507
vn 0.5116674 0.1207883 -0.8506507
vn 0.5116674 0.1207883 -0.8506507
vn 0.5116674 0.1207883 -0.8506507
vn 0.5116674 0.1207883 -0.8506507
vn 0.5116673 0.1207883 -0.8506507
vn 0.5116674 0.1207883 -0.8506507
vn 0.5116673 0.1207883 -0.8506507
vn 0.5116673 0.1207883 -0.8506507
vn 0.5116674 0.1207883 -0.8506507
vn 0.5116673 0.1207883 -0.8506507
vn 0.5116673 0.1207883 -0.8506507
vn -0.6927631 -0.5276272 -0.4916187
vn -0.7987116 -0.2979971 -0.5227404
vn -0.8546285 -0.03026167 -0.5183573
vn -0.692763 -0.5276271 -0.4916186
vn -0.7886673 0.4588393 -0.4092315
vn -0.6667892 0.6802049 -0.3044887
vn -0.5082082 0.8408446 -0.186292
vn -0.5082083 0.8408446 -0.186292
vn -0.692763 -0.5276273 -0.4916185
vn 0.7346321 -0.5749251 0.3602456
vn 0.7346321 -0.5749251 0.3602456
vn 0.7346321 -0.5749251 0.3602456
vn 0.7346321 -0.5749251 0.3602456
vn 0.7346321 -0.5749251 0.3602456
vn 0.7346321 -0.5749251 0.3602456
vn 0.7346321 -0.5749251 0.3602456
vn 0.734632 -0.5749251 0.3602455
vn 0.3325206 0.7679285 0.5474631
vn -0.5116677 -0.1207889 0.8506504
vn -0.5116675 -0.1207881 0.8506506
vn -0.5116675 -0.1207882 0.8506506
vn -0.5116675 -0.1207881 0.8506507
vn -0.5116675 -0.1207881 0.8506507
vn -0.5116675 -0.1207884 0.8506505
vn -0.5116675 -0.1207884 0.8506505
vn -0.5116675 -0.1207884 0.8506505
vn -0.5116675 -0.1207884 0.8506505
vn -0.5116675 -0.1207884 0.8506505
vn -0.5116675 -0.1207884 0.8506505
vn -0.5116675 -0.1207884 0.8506505
vn -0.5116675 -0.1207884 0.8506505
vn -0.5116676 -0.1207882 0.8506505
vn -0.5116675 -0.1207881 0.8506506
vn -0.5116676 -0.1207882 0.8506505
vn -0.5116676 -0.1207882 0.8506505
vn -0.5116676 -0.1207882 0.8506505
vn -0.5116676 -0.1207882 0.8506505
vn -0.5116676 -0.1207882 0.8506505
vn -0.5116676 -0.1207882 0.8506505
vn -0.5116676 -0.1207882 0.8506505
vn -0.5116675 -0.120788 0.8506507
vn -0.5116675 -0.120788 0.8506507
vn -0.5116675 -0.120788 0.8506507
vn -0.5116675 -0.120788 0.8506507
vn -0.5116675 -0.120788 0.8506507
vn -0.5116675 -0.120788 0.8506507
vn -0.5116675 -0.120788 0.8506507
vn -0.5116675 -0.120788 0.8506507
vn -0.5116673 -0.1207879 0.8506508
vn -0.5116673 -0.1207879 0.8506508
vn -0.5116673 -0.1207879 0.8506508
vn -0.5116673 -0.1207879 0.8506508
vn -0.5116673 -0.1207879 0.8506508
vn -0.5116673 -0.1207879 0.8506508
vn -0.5116673 -0.1207879 0.8506508
vn -0.5116673 -0.1207879 0.8506507
vn -0.5116675 -0.1207881 0.8506507
vn -0.5116675 -0.1207881 0.8506507
vn -0.5116675 -0.1207881 0.8506506

f 1//1 2//2 3//3
f 4//4 1//1 3//3
f 3//3 5//5 4//4
f 3//3 6//6 5//5
f 5//5 6//6 7//7
f 8//8 7//7 6//6
f 9//9 8//8 6//6
f 10//10 9//9 6//6
f 9//9 10//10 11//11
f 11//11 10//10 12//12
f 13//13 11//11 12//12
f 13//13 12//12 14//14
f 13//13 14//14 15//15
f 15//15 14//14 16//16
f 15//15 16//16 17//17
f 18//18 17//17 16//16
f 19//19 17//17 18//18
f 19//19 18//18 20//20
f 21//21 19//19 20//20
f 22//22 19//19 21//21
f 22//22 21//21 23//23
f 24//24 22//22 23//23
f 24//24 23//23 25//25
f 26//26 24//24 25//25
f 26//26 25//25 27//27
f 28//28 26//26 27//27
f 28//28 27//27 29//29
f 29//29 27//27 30//30
f 31//31 29//29 30//30
f 31//31 30//30 32//32
f 33//33 31//31 32//32
f 33//33 32//32 34//34
f 35//35 33//33 34//34
f 35//35 34//34 36//36
f 37//37 35//35 36//36
f 37//37 36//36 38//38
f 39//39 37//37 38//38
f 39//39 38//38 40//40
f 41//41 39//39 40//40
f 41//41 40//40 42//42
f 41//41 42//42 43//43
f 43//43 42//42 44//44
f 45//45 43//43 44//44
f 45//45 44//44 46//46
f 47//47 45//45 46//46
f 48//48 45//45 47//47
f 48//48 47//47 49//49
f 50//50 48//48 49//49
f 50//50 49//49 51//51
f 52//52 50//50 51//51
f 52//52 51//51 53//53
f 54//54 52//52 53//53
f 55//55 54//54 53//53
f 55//55 53//53 56//56
f 55//55 56//56 57//57
f 57//57 56//56 58//58
f 57//57 58//58 59//59
f 59//59 58//58 60//60
f 59//59 60//60 61//61
f 61//61 60//60 62//62
f 61//61 62//62 63//63
f 63//63 62//62 64//64
f 63//63 64//64 65//65
f 65//65 64//64 66//66
f 65//65 66//66 67//67
f 68//68 67//67 66//66
f 69//69 67//67 68//68
f 69//69 68//68 70//70
f 71//71 69//69 70//70
f 72//72 71//71 73//73
f 74//74 75//75 76//76
f 77//77 74//74 76//76
f 75//75 77//77 76//76
f 78//78 75//75 74//74
f 79//79 75//75 78//78
f 78//78 74//74 80//80
f 81//81 78//78 80//80
f 82//82 78//78 81//81
f 82//82 83//83 78//78
f 83//83 84//84 79//79
f 84//84 85//85 79//79
f 80//80 74//74 86//86
f 87//87 80//80 86//86
f 81//81 80//80 87//87
f 86//86 74//74 88//88
f 88//88 74//74 77//77
f 86//86 88//88 89//89
f 90//90 86//86 89//89
f 87//87 86//86 90//90
f 75//75 91//91 77//77
f 90//90 89//89 92//92
f 90//90 92//92 93//93
f 94//94 90//90 93//93
f 95//95 83//83 82//82
f 95//95 82//82 81//81
f 95//95 81//81 87//87
f 95//95 87//87 90//90
f 95//95 96//96 83//83
f 97//97 91//91 75//75
f 97//97 98//98 91//91
f 97//97 99//99 98//98
f 100//100 95//95 101//101
f 102//102 103//103 104//104
f 102//102 104//104 105//105
f 102//102 105//105 106//106
f 106//106 105//105 107//107
f 108//108 102//102 106//106
f 109//109 102//102 108//108
f 110//110 108//108 106//106
f 111//111 112//112 113//113
f 111//111 113//113 114//114
f 111//111 114//114 115//115
f 111//111 115//115 116//116
f 111//111 116//116 117//117
f 117//117 118//118 111//111
f 118//118 119//119 111//111
f 120//120 111//111 119//119
f 120//120 121//121 111//111
f 121//121 122//122 111//111
f 111//111 122//122 123//123
f 114//114 113//113 124//124
f 124//124 113//113 125//125
f 125//125 113//113 126//126
f 126//126 113//113 127//127
f 127//127 113//113 128//128
f 128//128 113//113 129//129
f 129//129 113//113 130//130
f 130//130 113//113 131//131
f 131//131 113//113 132//132
f 132//132 113//113 133//133
f 133//133 113//113 134//134
f 133//133 134//134 135//135
f 135//135 134//134 136//136
f 134//134 137//137 136//136
f 137//137 134//134 138//138
f 138//138 134//134 139//139
f 139//139 134//134 140//140
f 140//140 134//134 141//141
f 134//134 142//142 141//141
f 134//134 143//143 142//142
f 134//134 144//144 143//143
f 144//144 134//134 145//145
f 145//145 134//134 146//146
f 147//147 134//134 148//148
f 149//149 150//150 151//151
f 149//149 152//152 150//150
f 151//151 150//150 153//153
f 151//151 153//153 154//154
f 154//154 153//153 155//155
f 154//154 155//155 156//156
f 152//152 157//157 150//150
f 158//158 159//159 160//160
f 161//161 159//159 158//158
f 162//162 159//159 161//161
f 163//163 162//162 161//161
f 164//164 162//162 163//163
f 165//165 162//162 164//164
f 9//9 166//166 8//8
f 166//166 9//9 167//167
f 168//168 169//169 170//170
f 168//168 171//171 169//169
f 172//172 169//169 173//173
f 174//174 169//169 172//172
f 169//169 174//174 175//175
f 176//176 169//169 175//175
f 177//177 169//169 176//176
f 178//178 169//169 177//177
f 178//178 179//179 169//169
f 179//179 180//180 169//169
f 180//180 181//181 169//169
f 182//182 181//181 180//180
f 182//182 183//183 181//181
f 183//183 184//184 181//181
f 184//184 185//185 181//181
f 185//185 186//186 181//181
f 186//186 187//187 181//181
f 187//187 188//188 181//181
f 188//188 189//189 181//181
f 181//181 189//189 190//190
f 181//181 190//190 191//191
f 192//192 181//181 191//191
f 193//193 181//181 192//192
f 194//194 181//181 193//193
f 195//195 181//181 194//194
f 195//195 196//196 181//181
f 196//196 197//197 198//198
f 196//196 198//198 199//199
f 199//199 200//200 196//196
f 196//196 200//200 201//201
f 201//201 202//202 196//196
f 196//196 202//202 203//203
f 196//196 203//203 204//204
f 205//205 196//196 206//206
f 207//207 196//196 205//205
