v 135.3536 -31.69804 34.94349
v 129.6411 -22.29615 52.74396
v 135.3536 -31.69804 34.94349
v 135.3536 -31.69804 34.94349
v 136.1658 -28.52192 33.52657
v 136.4907 -27.25146 32.95979
v 136.4907 -27.25146 32.95979
v 130.7782 -17.84957 50.76026
v 125.0656 -8.447676 68.56073
v 136.2991 -27.1481 32.84372
v 123.3415 -7.517417 67.51606
v 136.2753 -27.13526 32.8293
v 123.1272 -7.401819 67.38625
v 136.2686 -27.13165 32.82525
v 123.0671 -7.369365 67.3498
v 136.1935 -27.09113 32.77974
v 122.391 -7.004612 66.94019
v 135.2674 -26.59145 32.21861
v 122.2881 -6.949093 66.87784
v 134.3893 -26.11769 31.68658
v 134.2883 -26.06319 31.62537
v 122.1793 -6.890397 66.81193
v 134.0776 -25.94952 31.49772
v 122.1559 -6.877767 66.79774
v 133.5189 -25.64806 31.15919
v 122.0938 -6.844272 66.76013
v 133.4888 -25.47419 31.05771
v 121.9284 -5.886833 66.20133
v 121.8234 -5.279393 65.8468
v 133.4814 -25.43105 31.03253
v 121.7563 -4.891124 65.62019
v 133.4792 -25.41821 31.02504
v 121.7364 -4.775575 65.55276
v 133.4624 -25.32117 30.96841
v 121.5854 -3.902265 65.04306
v 133.27 -24.20794 30.31868
v 121.5641 -3.778572 64.97087
v 133.1111 -23.28822 29.7819
v 121.5464 -3.676382 64.91122
v 132.954 -22.37917 29.25134
v 121.529 -3.575376 64.85227
v 133.0211 -22.28599 29.22364
v 122.1325 -2.736768 64.60301
v 133.1713 -22.07722 29.16159
v 123.4846 -0.8578129 64.04451
v 133.5905 -21.49477 28.98846
v 133.7581 -21.26184 28.91923
v 123.5498 -0.7672157 64.01759
v 134.3297 -20.46759 28.68315
v 123.6133 -0.6789675 63.99135
v 134.8003 -19.81361 28.48876
v 123.6656 -0.6063013 63.96975
v 135.127 -19.35965 28.35383
v 123.7019 -0.5558624 63.95476
v 123.7019 -0.5558615 63.95476
v 135.3432 -19.30014 28.39178
v 125.6478 -0.02024651 64.29633
v 135.4068 -19.28262 28.40295
v 126.2206 0.1374044 64.39687
v 135.4133 -19.28083 28.40409
v 126.279 0.1534986 64.40714
v 135.4163 -19.28001 28.40462
v 126.3061 0.1609621 64.4119
v 135.4201 -19.27896 28.40529
v 126.3404 0.1703939 64.41792
v 135.4908 -19.25952 28.41768
v 126.976 0.3453426 64.52948
v 138.7648 -18.35831 28.99241
v 127.3398 0.4454775 64.59334
v 138.7648 -18.35831 28.99241
v 127.3398 0.4454775 64.59334
v 138.7648 -18.35831 28.99241
v 138.7648 -18.35831 28.99241
v 139.0897 -17.08786 28.42564
v 139.9019 -13.91174 27.00871
v 139.9019 -13.91174 27.00871
v 139.9019 -13.91174 27.00871
v 138.7648 -18.35831 28.99241
v 138.7648 -18.35831 28.99241
v 138.7648 -18.35831 28.99241
v 127.3398 0.4454775 64.59334
v 127.3398 0.4454775 64.59334
v 127.3398 0.4454775 64.59334
v 138.7648 -18.35831 28.99241
v 132.6262 -15.91442 25.73155
v 138.7648 -18.35831 28.99241
v 127.3398 0.4454775 64.59334
v 138.7648 -18.35831 28.99241
v 133.0523 -8.956417 46.79287
v 127.3398 0.4454775 64.59334
v 134.1894 -4.509843 44.80918
v 127.3398 0.4454679 64.59332
v 127.3398 0.4454775 64.59334
v 127.6647 1.715926 64.02657
v 121.2011 2.889373 61.33248
v 127.3398 0.4454775 64.59334
v 132.6262 -15.91442 25.73155
v 128.4769 4.892053 62.60965
v 121.2011 2.889373 61.33248
v 123.7019 -0.5558615 63.95476
v 123.7019 -0.5558624 63.95476
v 129.6411 -22.29615 52.74396
v 135.3536 -31.69804 34.94349
v 135.3536 -31.69804 34.94349
v 136.1658 -28.52192 33.52657
v 130.7782 -17.84957 50.76026
v 136.4907 -27.25146 32.95979
v 124.5947 -10.28951 69.3824
v 123.9286 -12.89425 70.54443
v 125.0656 -8.447676 68.56073
v 135.3536 -31.69804 34.94349
v 129.41 -28.49123 31.34229
v 128.2803 -21.95344 27.52658
v 133.5189 -25.64806 31.15919
v 134.0776 -25.94952 31.49772
v 134.2883 -26.06319 31.62537
v 134.3893 -26.11769 31.68658
v 135.2674 -26.59145 32.21861
v 136.1935 -27.09113 32.77974
v 136.2686 -27.13165 32.82525
v 136.2753 -27.13526 32.8293
v 136.2991 -27.1481 32.84372
v 136.4907 -27.25146 32.95979
v 133.4888 -25.47419 31.05771
v 133.4814 -25.43105 31.03253
v 133.4792 -25.41821 31.02504
v 133.4624 -25.32117 30.96841
v 133.27 -24.20794 30.31868
v 133.1111 -23.28822 29.7819
v 132.954 -22.37917 29.25134
v 133.0211 -22.28599 29.22364
v 133.1713 -22.07722 29.16159
v 133.5905 -21.49477 28.98846
v 132.6262 -15.91442 25.73155
v 133.7581 -21.26184 28.91923
v 134.3297 -20.46759 28.68315
v 134.8003 -19.81361 28.48876
v 135.127 -19.35965 28.35383
v 135.3432 -19.30014 28.39178
v 135.4068 -19.28262 28.40295
v 135.4133 -19.28083 28.40409
v 135.4163 -19.28001 28.40462
v 135.4201 -19.27896 28.40529
v 135.4908 -19.25952 28.41768
v 138.7648 -18.35831 28.99241
v 138.7648 -18.35831 28.99241
v 138.7648 -18.35831 28.99241
v 139.9019 -13.91174 27.00871
v 135.3536 -31.69804 34.94349
v 117.985 -9.687447 66.94322
v 129.41 -28.49123 31.34229
v 129.6411 -22.29615 52.74396
v 116.8552 -3.149653 63.12751
v 128.2803 -21.95344 27.52658
v 121.2011 2.889373 61.33248
v 132.6262 -15.91442 25.73155
v 123.9286 -12.89425 70.54443
v 139.9019 -13.91174 27.00871
v 133.0523 -8.956417 46.79287
v 138.7648 -18.35831 28.99241
v 134.1894 -4.509843 44.80918
v 127.3398 0.4454679 64.59332
v 128.4769 4.892053 62.60965
v 127.6647 1.715926 64.02657
v 127.3398 0.4454775 64.59334
v 125.0656 -8.447676 68.56073
v 117.985 -9.687447 66.94322
v 124.5947 -10.28951 69.3824
v 117.985 -9.687447 66.94322
v 123.9286 -12.89425 70.54443
v 125.0656 -8.447676 68.56073
v 123.3415 -7.517417 67.51606
v 125.0656 -8.447676 68.56073
v 123.1272 -7.401819 67.38625
v 123.0671 -7.369365 67.3498
v 122.391 -7.004612 66.94019
v 122.2881 -6.949093 66.87784
v 122.1793 -6.890397 66.81193
v 122.1559 -6.877767 66.79774
v 122.0938 -6.844272 66.76013
v 116.8552 -3.149653 63.12751
v 121.9284 -5.886833 66.20133
v 121.8234 -5.279393 65.8468
v 121.7563 -4.891124 65.62019
v 121.7364 -4.775575 65.55276
v 121.5854 -3.902265 65.04306
v 121.5641 -3.778572 64.97087
v 121.5464 -3.676382 64.91122
v 121.529 -3.575376 64.85227
v 122.1325 -2.736768 64.60301
v 123.4846 -0.8578129 64.04451
v 123.5498 -0.7672157 64.01759
v 123.6133 -0.6789675 63.99135
v 123.6656 -0.6063013 63.96975
v 123.7019 -0.5558624 63.95476
v 121.2011 2.889373 61.33248
v 123.7019 -0.5558615 63.95476
v 125.6478 -0.02024651 64.29633
v 126.2206 0.1374044 64.39687
v 126.279 0.1534986 64.40714
v 126.3061 0.1609621 64.4119
v 126.3404 0.1703939 64.41792
v 126.976 0.3453426 64.52948
v 127.3398 0.4454775 64.59334
v 127.6647 1.715926 64.02657
v 127.3398 0.4454775 64.59334
v 128.4769 4.892053 62.60965

vn -0.2274148 -0.8893151 0.3967383
vn -0.2274148 -0.8893151 0.3967384
vn 0.004993784 -0.967618 -0.2523696
vn 0.2729908 -0.4492989 -0.8506507
vn 0.2729908 -0.4492989 -0.8506507
vn 0.5678213 0.7890343 -0.234529
vn 0.2637359 0.8168367 -0.5130512
vn 0.9620157 0.1286476 0.2407808
vn 0.5678176 0.7890363 -0.2345309
vn 0.567817 0.7890368 -0.2345313
vn 0.5678173 0.7890366 -0.2345311
vn 0.567818 0.7890362 -0.2345306
vn 0.5678188 0.7890357 -0.23453
vn 0.5678145 0.7890379 -0.2345333
vn 0.5678166 0.7890369 -0.2345317
vn 0.567817 0.7890367 -0.2345314
vn 0.5678169 0.7890369 -0.2345315
vn 0.5678168 0.7890368 -0.2345316
vn 0.567817 0.7890367 -0.2345314
vn 0.5678168 0.7890369 -0.2345316
vn 0.5678177 0.7890363 -0.234531
vn 0.5678189 0.7890357 -0.2345302
vn 0.5678172 0.7890365 -0.2345313
vn 0.5678166 0.789037 -0.2345318
vn 0.6784528 0.7168124 -0.1608786
vn 0.9437921 0.2963803 0.146339
vn 0.9506251 0.2616609 0.1668702
vn 0.9506249 0.2616615 0.1668697
vn 0.9506249 0.2616618 0.1668695
vn 0.9506248 0.2616636 0.1668684
vn 0.9506245 0.2616646 0.1668676
vn 0.9506243 0.2616659 0.1668666
vn 0.9506246 0.2616636 0.1668683
vn 0.9506247 0.2616627 0.166869
vn 0.9506249 0.2616623 0.1668693
vn 0.9506248 0.2616622 0.1668694
vn 0.9506246 0.2616631 0.1668688
vn 0.9506248 0.2616626 0.1668691
vn 0.9506249 0.2616616 0.1668697
vn 0.958279 0.2048723 0.1993212
vn 0.8123403 -0.3660177 0.4540206
vn 0.7765698 -0.4189883 0.4705192
vn 0.7765692 -0.4189891 0.4705195
vn 0.7765689 -0.4189897 0.4705197
vn 0.7765688 -0.4189897 0.4705196
vn 0.776569 -0.4189893 0.4705195
vn 0.7765694 -0.4189889 0.4705193
vn 0.7765692 -0.4189893 0.4705195
vn 0.7765694 -0.418989 0.4705194
vn 0.7765691 -0.4189892 0.4705194
vn 0.7765692 -0.4189893 0.4705195
vn 0.7765694 -0.4189889 0.4705193
vn 0.6494439 -0.5662649 0.5075107
vn 0.7765827 -0.4189705 0.4705138
vn 0.1476101 -0.8542032 0.4985462
vn 0.1476088 -0.8542035 0.4985459
vn 0.1476084 -0.8542037 0.498546
vn 0.1476072 -0.8542039 0.4985458
vn 0.1476092 -0.8542035 0.498546
vn 0.1476109 -0.8542033 0.4985461
vn 0.1476135 -0.8542026 0.4985462
vn 0.1476581 -0.8541933 0.498549
vn 0.1476301 -0.8541991 0.4985473
vn 0.1476021 -0.8542051 0.4985454
vn 0.1476061 -0.8542042 0.4985458
vn 0.147609 -0.8542035 0.498546
vn 0.1476095 -0.8542033 0.498546
vn 0.1476098 -0.8542033 0.4985461
vn 0.1476146 -0.854202 0.498547
vn 0.304769 -0.7983001 0.5194546
vn -0.2274149 -0.889315 0.3967385
vn -0.2274149 -0.889315 0.3967385
vn -0.2274149 -0.889315 0.3967385
vn 0.2729908 -0.4492989 -0.8506507
vn -0.1476092 0.8542035 -0.4985459
vn 0.2729908 -0.4492989 -0.8506507
vn 0.956378 0.03115314 0.2904664
vn 0.05988239 -0.9192214 -0.3891609
vn 0.09743652 -0.8722136 -0.4793221
vn -0.2074444 -0.9189898 0.335298
vn -0.2274149 -0.889315 0.3967385
vn -0.2274149 -0.889315 0.3967385
vn -0.2274149 -0.889315 0.3967385
vn -0.1980865 -0.9308637 0.307009
vn 0.2729908 -0.4492989 -0.8506507
vn -0.2239343 -0.8949337 0.3859368
vn -0.2274149 -0.889315 0.3967385
vn -0.1865225 -0.9439173 0.272451
vn -0.2274211 -0.8893144 0.3967363
vn -0.2434013 -0.8607333 0.4470952
vn -0.1476092 0.8542035 -0.4985459
vn -0.227437 -0.889313 0.3967304
vn -0.2729924 0.4492928 0.8506535
vn -0.2729908 0.4492989 0.8506507
vn -0.2729912 0.449299 0.8506506
vn 0 0 0
vn -0.1476093 0.8542035 -0.498546
vn -0.1476092 0.8542035 -0.498546
vn -0.1476093 0.8542036 -0.498546
vn -0.2729912 0.449299 0.8506506
vn -0.2729912 0.449299 0.8506506
vn 0.9347505 -0.08514468 0.3449522
vn 0.9347504 -0.08514468 0.3449522
vn 0.9347505 -0.08514468 0.3449522
vn 0.9347505 -0.08514468 0.3449522
vn 0.9347505 -0.08514468 0.3449522
vn 0.9347505 -0.08514468 0.3449522
vn 0.9347505 -0.08514468 0.3449522
vn 0.9347505 -0.08514468 0.3449522
vn 0.9347505 -0.08514468 0.3449522
vn 0.2729908 -0.4492989 -0.8506507
vn 0.2729908 -0.4492989 -0.8506507
vn 0.2729908 -0.4492989 -0.8506507
vn 0.2729908 -0.4492989 -0.8506507
vn 0.2729908 -0.4492989 -0.8506507
vn 0.2729908 -0.4492989 -0.8506507
vn 0.2729908 -0.4492989 -0.8506507
vn 0.2729908 -0.4492989 -0.8506507
vn 0.2729908 -0.4492989 -0.8506507
vn 0.2729908 -0.4492989 -0.8506507
vn 0.2729908 -0.4492989 -0.8506507
vn 0.2729908 -0.4492989 -0.8506507
vn 0.2729908 -0.4492989 -0.8506507
vn 0.2729908 -0.4492989 -0.8506507
vn 0.2729908 -0.4492989 -0.8506507
vn 0.2729908 -0.4492989 -0.8506507
vn 0.2729908 -0.4492989 -0.8506507
vn 0.2729908 -0.4492989 -0.8506507
vn 0.2729908 -0.4492989 -0.8506507
vn 0.2729908 -0.4492989 -0.8506507
vn 0.2729908 -0.4492989 -0.8506507
vn 0.2729908 -0.4492989 -0.8506507
vn 0.2729908 -0.4492989 -0.8506507
vn 0.2729908 -0.4492989 -0.8506507
vn 0.2729908 -0.4492989 -0.8506507
vn 0.2729908 -0.4492989 -0.8506507
vn 0.2729908 -0.4492989 -0.8506507
vn 0.2729908 -0.4492989 -0.8506507
vn 0.2729908 -0.4492989 -0.8506507
vn 0.2729908 -0.4492989 -0.8506507
vn 0.2729908 -0.4492989 -0.8506507
vn 0.2729908 -0.4492989 -0.8506507
vn 0.2729908 -0.4492989 -0.8506507
vn 0.2729908 -0.4492989 -0.8506507
vn 0.2729908 -0.4492989 -0.8506507
vn 0.2729908 -0.4492989 -0.8506507
vn 0.2729908 -0.4492989 -0.8506507
vn 0.2729908 -0.4492989 -0.8506507
vn -0.5678173 -0.7890366 0.2345311
vn -0.7456433 -0.657534 0.1080059
vn -0.8824612 -0.4690469 -0.03545729
vn -0.5678173 -0.7890365 0.2345311
vn -0.9570704 -0.03729028 -0.2874471
vn -0.8948618 0.2059793 -0.3959738
vn -0.7765691 0.4189894 -0.4705194
vn -0.7765691 0.4189894 -0.4705195
vn -0.5678172 -0.7890366 0.2345312
vn 0.9347505 -0.08514468 0.3449522
vn 0.9347505 -0.08514468 0.3449522
vn 0.9347505 -0.08514468 0.3449522
vn 0.9347505 -0.08514468 0.3449522
vn 0.9347505 -0.08514468 0.3449522
vn 0.9347505 -0.08514468 0.3449522
vn 0.9347505 -0.08514468 0.3449522
vn 0.9347504 -0.08514468 0.3449522
vn 0.1673257 0.9619538 -0.2159796
vn -0.272991 0.4492983 0.850651
vn -0.272991 0.4492989 0.8506506
vn -0.2729911 0.4492989 0.8506507
vn -0.272991 0.4492989 0.8506507
vn -0.272991 0.4492989 0.8506507
vn -0.272991 0.4492987 0.8506508
vn -0.272991 0.4492987 0.8506508
vn -0.272991 0.4492987 0.8506508
vn -0.272991 0.4492987 0.8506508
vn -0.272991 0.4492987 0.8506508
vn -0.272991 0.4492987 0.8506507
vn -0.272991 0.4492987 0.8506508
vn -0.272991 0.4492987 0.8506507
vn -0.2729912 0.4492989 0.8506507
vn -0.2729911 0.449299 0.8506506
vn -0.2729912 0.4492989 0.8506507
vn -0.2729912 0.4492989 0.8506507
vn -0.2729912 0.4492989 0.8506507
vn -0.2729912 0.4492989 0.8506507
vn -0.2729912 0.4492989 0.8506507
vn -0.2729912 0.4492989 0.8506507
vn -0.2729912 0.4492989 0.8506507
vn -0.2729911 0.4492991 0.8506506
vn -0.2729911 0.4492991 0.8506505
vn -0.2729911 0.4492991 0.8506505
vn -0.2729911 0.4492991 0.8506505
vn -0.2729911 0.4492991 0.8506505
vn -0.2729911 0.4492991 0.8506505
vn -0.2729911 0.4492991 0.8506505
vn -0.272991 0.4492991 0.8506506
vn -0.2729909 0.4492992 0.8506505
vn -0.2729909 0.4492992 0.8506505
vn -0.2729909 0.4492992 0.8506505
vn -0.2729909 0.4492992 0.8506505
vn -0.2729909 0.4492992 0.8506505
vn -0.2729909 0.4492992 0.8506505
vn -0.2729909 0.4492992 0.8506505
vn -0.2729909 0.4492992 0.8506505
vn -0.272991 0.4492989 0.8506507
vn -0.272991 0.4492989 0.8506507
vn -0.272991 0.4492989 0.8506506

f 1//1 2//2 3//3
f 4//4 1//1 3//3
f 3//3 5//5 4//4
f 3//3 6//6 5//5
f 5//5 6//6 7//7
f 8//8 7//7 6//6
f 9//9 8//8 6//6
f 10//10 9//9 6//6
f 9//9 10//10 11//11
f 11//11 10//10 12//12
f 13//13 11//11 12//12
f 13//13 12//12 14//14
f 13//13 14//14 15//15
f 15//15 14//14 16//16
f 15//15 16//16 17//17
f 18//18 17//17 16//16
f 19//19 17//17 18//18
f 19//19 18//18 20//20
f 21//21 19//19 20//20
f 22//22 19//19 21//21
f 22//22 21//21 23//23
f 24//24 22//22 23//23
f 24//24 23//23 25//25
f 26//26 24//24 25//25
f 26//26 25//25 27//27
f 28//28 26//26 27//27
f 28//28 27//27 29//29
f 29//29 27//27 30//30
f 31//31 29//29 30//30
f 31//31 30//30 32//32
f 33//33 31//31 32//32
f 33//33 32//32 34//34
f 35//35 33//33 34//34
f 35//35 34//34 36//36
f 37//37 35//35 36//36
f 37//37 36//36 38//38
f 39//39 37//37 38//38
f 39//39 38//38 40//40
f 41//41 39//39 40//40
f 41//41 40//40 42//42
f 41//41 42//42 43//43
f 43//43 42//42 44//44
f 45//45 43//43 44//44
f 45//45 44//44 46//46
f 47//47 45//45 46//46
f 48//48 45//45 47//47
f 48//48 47//47 49//49
f 50//50 48//48 49//49
f 50//50 49//49 51//51
f 52//52 50//50 51//51
f 52//52 51//51 53//53
f 54//54 52//52 53//53
f 55//55 54//54 53//53
f 55//55 53//53 56//56
f 55//55 56//56 57//57
f 57//57 56//56 58//58
f 57//57 58//58 59//59
f 59//59 58//58 60//60
f 59//59 60//60 61//61
f 61//61 60//60 62//62
f 61//61 62//62 63//63
f 63//63 62//62 64//64
f 63//63 64//64 65//65
f 65//65 64//64 66//66
f 65//65 66//66 67//67
f 68//68 67//67 66//66
f 69//69 67//67 68//68
f 69//69 68//68 70//70
f 71//71 69//69 70//70
f 72//72 71//71 73//73
f 74//74 75//75 76//76
f 77//77 74//74 76//76
f 75//75 77//77 76//76
f 78//78 75//75 74//74
f 79//79 75//75 78//78
f 78//78 74//74 80//80
f 81//81 78//78 80//80
f 82//82 78//78 81//81
f 82//82 83//83 78//78
f 83//83 84//84 79//79
f 84//84 85//85 79//79
f 80//80 74//74 86//86
f 87//87 80//80 86//86
f 81//81 80//80 87//87
f 86//86 74//74 88//88
f 88//88 74//74 77//77
f 86//86 88//88 89//89
f 90//90 86//86 89//89
f 87//87 86//86 90//90
f 75//75 91//91 77//77
f 90//90 89//89 92//92
f 90//90 92//92 93//93
f 94//94 90//90 93//93
f 95//95 83//83 82//82
f 95//95 82//82 81//81
f 95//95 81//81 87//87
f 95//95 87//87 90//90
f 95//95 96//96 83//83
f 97//97 91//91 75//75
f 97//97 98//98 91//91
f 97//97 99//99 98//98
f 100//100 95//95 101//101
f 102//102 103//103 104//104
f 102//102 104//104 105//105
f 102//102 105//105 106//106
f 106//106 105//105 107//107
f 108//108 102//102 106//106
f 109//109 102//102 108//108
f 110//110 108//108 106//106
f 111//111 112//112 113//113
f 111//111 113//113 114//114
f 111//111 114//114 115//115
f 111//111 115//115 116//116
f 111//111 116//116 117//117
f 117//117 118//118 111//111
f 118//118 119//119 111//111
f 120//120 111//111 119//119
f 120//120 121//121 111//111
f 121//121 122//122 111//111
f 111//111 122//122 123//123
f 114//114 113//113 124//124
f 124//124 113//113 125//125
f 125//125 113//113 126//126
f 126//126 113//113 127//127
f 127//127 113//113 128//128
f 128//128 113//113 129//129
f 129//129 113//113 130//130
f 130//130 113//113 131//131
f 131//131 113//113 132//132
f 132//132 113//113 133//133
f 133//133 113//113 134//134
f 133//133 134//134 135//135
f 135//135 134//134 136//136
f 134//134 137//137 136//136
f 137//137 134//134 138//138
f 138//138 134//134 139//139
f 139//139 134//134 140//140
f 140//140 134//134 141//141
f 134//134 142//142 141//141
f 134//134 143//143 142//142
f 134//134 144//144 143//143
f 144//144 134//134 145//145
f 145//145 134//134 146//146
f 147//147 134//134 148//148
f 149//149 150//150 151//151
f 149//149 152//152 150//150
f 151//151 150//150 153//153
f 151//151 153//153 154//154
f 154//154 153//153 155//155
f 154//154 155//155 156//156
f 152//152 157//157 150//150
f 158//158 159//159 160//160
f 161//161 159//159 158//158
f 162//162 159//159 161//161
f 163//163 162//162 161//161
f 164//164 162//162 163//163
f 165//165 162//162 164//164
f 9//9 166//166 8//8
f 166//166 9//9 167//167
f 168//168 169//169 170//170
f 168//168 171//171 169//169
f 172//172 169//169 173//173
f 174//174 169//169 172//172
f 169//169 174//174 175//175
f 176//176 169//169 175//175
f 177//177 169//169 176//176
f 178//178 169//169 177//177
f 178//178 179//179 169//169
f 179//179 180//180 169//169
f 180//180 181//181 169//169
f 182//182 181//181 180//180
f 182//182 183//183 181//181
f 183//183 184//184 181//181
f 184//184 185//185 181//181
f 185//185 186//186 181//181
f 186//186 187//187 181//181
f 187//187 188//188 181//181
f 188//188 189//189 181//181
f 181//181 189//189 190//190
f 181//181 190//190 191//191
f 192//192 181//181 191//191
f 193//193 181//181 192//192
f 194//194 181//181 193//193
f 195//195 181//181 194//194
f 195//195 196//196 181//181
f 196//196 197//197 198//198
f 196//196 198//198 199//199
f 199//199 200//200 196//196
f 196//196 200//200 201//201
f 201//201 202//202 196//196
f 196//196 202//202 203//203
f 196//196 203//203 204//204
f 205//205 196//196 206//206
f 207//207 196//196 205//205
