v 75.79495 120.4755 12.66542
v 91.65529 106.825 12.66543
v 75.79495 120.4755 12.66542
v 75.79495 120.4755 12.66543
v 75.33615 119.9424 16.16691
v 75.15263 119.7292 17.56751
v 75.15263 119.7292 17.56751
v 91.01295 106.0787 17.56751
v 106.8733 92.42825 17.56752
v 74.99474 119.5457 17.61518
v 105.4523 90.77718 17.99657
v 74.97511 119.5229 17.62111
v 105.2757 90.57201 18.04989
v 74.9696 119.5165 17.62277
v 105.2261 90.5144 18.06485
v 74.90769 119.4446 17.64146
v 104.6689 89.86702 18.23309
v 74.1444 118.5577 17.87192
v 104.5841 89.76848 18.25869
v 73.42071 117.7169 18.09043
v 73.33746 117.6201 18.11556
v 104.4944 89.6643 18.28576
v 73.16381 117.4184 18.16799
v 104.4752 89.64188 18.29159
v 72.70332 116.8833 18.30703
v 104.424 89.58244 18.30704
v 72.62935 116.7974 18.47606
v 104.0166 89.10913 19.23782
v 103.7582 88.80885 19.82835
v 72.61099 116.7761 18.51801
v 103.593 88.61691 20.20581
v 72.60553 116.7697 18.53049
v 103.5438 88.55978 20.31815
v 72.56424 116.7217 18.62482
v 103.1723 88.12807 21.16714
v 72.0906 116.1714 19.70707
v 103.1196 88.06693 21.28739
v 71.6993 115.7168 20.60118
v 103.0762 88.0164 21.38674
v 71.31252 115.2674 21.48493
v 103.0332 87.96648 21.48493
v 71.32741 115.2847 21.60079
v 103.1672 88.12215 22.52772
v 71.36076 115.3234 21.8604
v 103.4674 88.47093 24.86417
v 71.45382 115.4316 22.58465
v 71.49103 115.4748 22.87429
v 103.4818 88.48775 24.97682
v 71.61792 115.6222 23.86193
v 103.4959 88.50414 25.08656
v 71.7224 115.7436 24.67514
v 103.5075 88.51762 25.17692
v 71.79493 115.8279 25.23963
v 103.5156 88.52699 25.23963
v 103.5156 88.52699 25.23964
v 71.91814 115.9711 25.36634
v 104.6245 89.81537 26.38007
v 71.95441 116.0132 25.40364
v 104.9508 90.19459 26.71574
v 71.95811 116.0175 25.40745
v 104.9842 90.2333 26.75001
v 71.95982 116.0195 25.40921
v 104.9996 90.25125 26.7659
v 71.96199 116.022 25.41144
v 105.0191 90.27394 26.78598
v 72.00224 116.0688 25.45283
v 105.3813 90.69476 27.15848
v 73.86797 118.2365 27.37168
v 105.5886 90.93563 27.37169
v 73.86797 118.2365 27.37168
v 105.5886 90.93563 27.37169
v 73.86797 118.2365 27.37168
v 73.86797 118.2365 27.37168
v 73.68445 118.0233 28.77228
v 73.22564 117.4902 32.27377
v 73.22564 117.4902 32.27377
v 73.22564 117.4902 32.27376
v 73.86797 118.2365 27.37168
v 73.86797 118.2365 27.37168
v 73.86797 118.2365 27.37168
v 105.5886 90.93563 27.37169
v 105.5886 90.93563 27.37169
v 105.5886 90.93563 27.37169
v 73.86797 118.2365 27.37168
v 69.07957 112.6729 28.00966
v 73.86797 118.2365 27.37168
v 105.5886 90.93563 27.37169
v 73.86797 118.2365 27.37168
v 89.7283 104.5861 27.37169
v 105.5886 90.93563 27.37169
v 89.08598 103.8398 32.27377
v 105.5886 90.93565 27.37169
v 105.5886 90.93563 27.37169
v 105.4051 90.7224 28.77228
v 100.8002 85.37204 28.00967
v 105.5886 90.93563 27.37169
v 69.07957 112.6729 28.00966
v 104.9463 90.18932 32.27377
v 100.8002 85.37204 28.00967
v 103.5156 88.52699 25.23964
v 103.5156 88.52699 25.23963
v 91.65529 106.825 12.66543
v 75.79495 120.4755 12.66542
v 75.79495 120.4755 12.66543
v 75.33615 119.9424 16.16691
v 91.01295 106.0787 17.56751
v 75.15263 119.7292 17.56751
v 107.1394 92.73739 15.537
v 107.5156 93.17457 12.66543
v 106.8733 92.42825 17.56752
v 75.79495 120.4755 12.66542
v 70.89635 114.7838 14.14447
v 68.11475 111.5519 20.50026
v 72.70332 116.8833 18.30703
v 73.16381 117.4184 18.16799
v 73.33746 117.6201 18.11556
v 73.42071 117.7169 18.09043
v 74.1444 118.5577 17.87192
v 74.90769 119.4446 17.64146
v 74.9696 119.5165 17.62277
v 74.97511 119.5229 17.62111
v 74.99474 119.5457 17.61518
v 75.15263 119.7292 17.56751
v 72.62935 116.7974 18.47606
v 72.61099 116.7761 18.51801
v 72.60553 116.7697 18.53049
v 72.56424 116.7217 18.62482
v 72.0906 116.1714 19.70707
v 71.6993 115.7168 20.60118
v 71.31252 115.2674 21.48493
v 71.32741 115.2847 21.60079
v 71.36076 115.3234 21.8604
v 71.45382 115.4316 22.58465
v 69.07957 112.6729 28.00966
v 71.49103 115.4748 22.87429
v 71.61792 115.6222 23.86193
v 71.7224 115.7436 24.67514
v 71.79493 115.8279 25.23963
v 71.91814 115.9711 25.36634
v 71.95441 116.0132 25.40364
v 71.95811 116.0175 25.40745
v 71.95982 116.0195 25.40921
v 71.96199 116.022 25.41144
v 72.00224 116.0688 25.45283
v 73.86797 118.2365 27.37168
v 73.86797 118.2365 27.37168
v 73.86797 118.2365 27.37168
v 73.22564 117.4902 32.27377
v 75.79495 120.4755 12.66542
v 102.617 87.48293 14.14447
v 70.89635 114.7838 14.14447
v 91.65529 106.825 12.66543
v 99.8354 84.25101 20.50027
v 68.11475 111.5519 20.50026
v 100.8002 85.37204 28.00967
v 69.07957 112.6729 28.00966
v 107.5156 93.17457 12.66543
v 73.22564 117.4902 32.27376
v 89.7283 104.5861 27.37169
v 73.86797 118.2365 27.37168
v 89.08598 103.8398 32.27377
v 105.5886 90.93565 27.37169
v 104.9463 90.18932 32.27377
v 105.4051 90.7224 28.77228
v 105.5886 90.93563 27.37169
v 106.8733 92.42825 17.56752
v 102.617 87.48293 14.14447
v 107.1394 92.73739 15.537
v 102.617 87.48293 14.14447
v 107.5156 93.17457 12.66543
v 106.8733 92.42825 17.56752
v 105.4523 90.77718 17.99657
v 106.8733 92.42825 17.56752
v 105.2757 90.57201 18.04989
v 105.2261 90.5144 18.06485
v 104.6689 89.86702 18.23309
v 104.5841 89.76848 18.25869
v 104.4944 89.6643 18.28576
v 104.4752 89.64188 18.29159
v 104.424 89.58244 18.30704
v 99.8354 84.25101 20.50027
v 104.0166 89.10913 19.23782
v 103.7582 88.80885 19.82835
v 103.593 88.61691 20.20581
v 103.5438 88.55978 20.31815
v 103.1723 88.12807 21.16714
v 103.1196 88.06693 21.28739
v 103.0762 88.0164 21.38674
v 103.0332 87.96648 21.48493
v 103.1672 88.12215 22.52772
v 103.4674 88.47093 24.86417
v 103.4818 88.48775 24.97682
v 103.4959 88.50414 25.08656
v 103.5075 88.51762 25.17692
v 103.5156 88.52699 25.23963
v 100.8002 85.37204 28.00967
v 103.5156 88.52699 25.23964
v 104.6245 89.81537 26.38007
v 104.9508 90.19459 26.71574
v 104.9842 90.2333 26.75001
v 104.9996 90.25125 26.7659
v 105.0191 90.27394 26.78598
v 105.3813 90.69476 27.15848
v 105.5886 90.93563 27.37169
v 105.4051 90.7224 28.77228
v 105.5886 90.93563 27.37169
v 104.9463 90.18932 32.27377

vn 0.1284653 0.1492629 -0.9804168
vn 0.1284654 0.1492629 -0.9804168
vn -0.3957194 0.5378591 -0.7443882
vn -0.7579355 0.6523296 -3.20375E-07
vn -0.7579355 0.6523296 -3.20375E-07
vn 0.1260634 0.1464722 0.9811493
vn -0.2343626 -0.05550939 0.9705633
vn 0.5907001 0.6863287 0.4242949
vn 0.1260606 0.1464686 0.9811502
vn 0.1260601 0.146468 0.9811504
vn 0.1260603 0.1464682 0.9811503
vn 0.126061 0.1464689 0.9811501
vn 0.1260617 0.1464697 0.9811499
vn 0.1260576 0.1464657 0.981151
vn 0.1260596 0.1464676 0.9811504
vn 0.1260599 0.146468 0.9811503
vn 0.1260599 0.1464679 0.9811504
vn 0.1260598 0.1464678 0.9811504
vn 0.12606 0.146468 0.9811503
vn 0.1260598 0.1464678 0.9811504
vn 0.1260605 0.1464686 0.9811502
vn 0.1260616 0.1464698 0.9811499
vn 0.1260601 0.1464682 0.9811503
vn 0.1260595 0.1464676 0.9811505
vn 0.2211556 0.2569588 0.9407776
vn 0.5263925 0.6116104 0.5906299
vn 0.541711 0.6294086 0.5571303
vn 0.5417106 0.6294082 0.5571309
vn 0.5417104 0.6294081 0.5571312
vn 0.5417097 0.6294074 0.557133
vn 0.5417091 0.6294069 0.557134
vn 0.5417083 0.6294063 0.5571354
vn 0.5417095 0.6294073 0.5571331
vn 0.54171 0.6294076 0.557132
vn 0.5417104 0.6294079 0.5571316
vn 0.5417104 0.6294079 0.5571315
vn 0.5417099 0.6294075 0.5571324
vn 0.5417102 0.6294078 0.5571319
vn 0.5417106 0.6294082 0.5571309
vn 0.5644565 0.6558363 0.5012661
vn 0.6469561 0.7516918 -0.1280913
vn 0.6400336 0.7436486 -0.193245
vn 0.6400335 0.7436485 -0.193246
vn 0.6400335 0.7436484 -0.1932467
vn 0.6400334 0.7436484 -0.1932467
vn 0.6400334 0.7436484 -0.1932463
vn 0.6400334 0.7436486 -0.1932457
vn 0.6400334 0.7436485 -0.1932462
vn 0.6400335 0.7436486 -0.1932458
vn 0.6400334 0.7436485 -0.1932461
vn 0.6400334 0.7436486 -0.1932462
vn 0.6400334 0.7436486 -0.1932457
vn 0.6026405 0.7002021 -0.3828074
vn 0.6400364 0.743652 -0.1932229
vn 0.3634341 0.4222704 -0.8304236
vn 0.3634334 0.4222695 -0.8304242
vn 0.3634332 0.4222693 -0.8304246
vn 0.3634326 0.4222684 -0.8304252
vn 0.3634336 0.4222698 -0.8304241
vn 0.3634343 0.4222711 -0.8304233
vn 0.3634355 0.4222729 -0.8304216
vn 0.3634557 0.422305 -0.8303965
vn 0.3634431 0.4222849 -0.8304123
vn 0.3634302 0.4222648 -0.8304282
vn 0.3634322 0.4222676 -0.8304259
vn 0.3634334 0.4222696 -0.8304242
vn 0.3634337 0.42227 -0.8304239
vn 0.3634339 0.4222702 -0.8304238
vn 0.3634367 0.4222733 -0.830421
vn 0.4490436 0.5217392 -0.7253607
vn 0.1284656 0.1492627 -0.9804168
vn 0.1284656 0.1492627 -0.9804168
vn 0.1284656 0.1492627 -0.9804168
vn -0.7579355 0.6523296 -3.20375E-07
vn -0.3634335 -0.4222699 0.8304241
vn -0.7579355 0.6523296 -3.20375E-07
vn 0.6174356 0.7173924 0.3226786
vn -0.4928945 0.5929672 -0.6367455
vn -0.5538501 0.6230543 -0.5523165
vn 0.07429036 0.1952329 -0.9779392
vn 0.1284656 0.1492627 -0.9804168
vn 0.1284656 0.1492627 -0.9804168
vn 0.1284656 0.1492627 -0.9804168
vn 0.04971291 0.2156605 -0.9752021
vn -0.7579355 0.6523296 -3.20375E-07
vn 0.1188611 0.1575156 -0.9803371
vn 0.1284656 0.1492627 -0.9804168
vn 0.0199862 0.2400159 -0.9705632
vn 0.1284613 0.1492578 -0.9804181
vn 0.1737376 0.1098217 -0.9786493
vn -0.3634335 -0.4222698 0.8304241
vn 0.1284505 0.1492452 -0.9804215
vn 0.7579364 -0.6523286 -6.48642E-06
vn 0.7579355 -0.6523296 3.20375E-07
vn 0.7579352 -0.6523299 2.353817E-07
vn 0 0 0
vn -0.3634336 -0.4222699 0.8304241
vn -0.3634336 -0.4222699 0.8304241
vn -0.3634336 -0.4222699 0.8304242
vn 0.7579352 -0.6523299 2.353817E-07
vn 0.7579352 -0.6523299 2.353817E-07
vn 0.639555 0.7430927 0.1969334
vn 0.6395549 0.7430926 0.1969334
vn 0.639555 0.7430927 0.1969334
vn 0.639555 0.7430927 0.1969334
vn 0.639555 0.7430927 0.1969334
vn 0.639555 0.7430927 0.1969334
vn 0.639555 0.7430927 0.1969334
vn 0.639555 0.7430927 0.1969334
vn 0.639555 0.7430927 0.1969334
vn -0.7579355 0.6523296 -3.20375E-07
vn -0.7579355 0.6523296 -3.20375E-07
vn -0.7579355 0.6523296 -3.20375E-07
vn -0.7579355 0.6523296 -3.20375E-07
vn -0.7579355 0.6523296 -3.20375E-07
vn -0.7579355 0.6523296 -3.20375E-07
vn -0.7579355 0.6523296 -3.20375E-07
vn -0.7579355 0.6523296 -3.20375E-07
vn -0.7579355 0.6523296 -3.20375E-07
vn -0.7579355 0.6523296 -3.20375E-07
vn -0.7579355 0.6523296 -3.20375E-07
vn -0.7579355 0.6523296 -3.20375E-07
vn -0.7579355 0.6523296 -3.20375E-07
vn -0.7579354 0.6523296 -3.203749E-07
vn -0.7579355 0.6523296 -3.20375E-07
vn -0.7579355 0.6523296 -3.20375E-07
vn -0.7579354 0.6523296 -3.203749E-07
vn -0.7579355 0.6523296 -3.20375E-07
vn -0.7579355 0.6523296 -3.20375E-07
vn -0.7579355 0.6523296 -3.20375E-07
vn -0.7579354 0.6523296 -3.203749E-07
vn -0.7579355 0.6523296 -3.20375E-07
vn -0.7579355 0.6523296 -3.20375E-07
vn -0.7579355 0.6523296 -3.20375E-07
vn -0.7579355 0.6523296 -3.20375E-07
vn -0.7579355 0.6523296 -3.20375E-07
vn -0.7579355 0.6523296 -3.20375E-07
vn -0.7579355 0.6523296 -3.20375E-07
vn -0.7579355 0.6523296 -3.20375E-07
vn -0.7579355 0.6523296 -3.20375E-07
vn -0.7579355 0.6523296 -3.20375E-07
vn -0.7579354 0.6523296 -3.203749E-07
vn -0.7579355 0.6523296 -3.20375E-07
vn -0.7579354 0.6523296 -3.203749E-07
vn -0.7579354 0.6523296 -3.203749E-07
vn -0.7579355 0.6523296 -3.20375E-07
vn -0.7579354 0.6523296 -3.203749E-07
vn -0.7579354 0.6523296 -3.203749E-07
vn -0.1260603 -0.1464683 -0.9811503
vn -0.2837205 -0.3296521 -0.9004622
vn -0.4322766 -0.5022579 -0.7489151
vn -0.1260603 -0.1464683 -0.9811502
vn -0.6159739 -0.7156941 -0.3291779
vn -0.6511154 -0.7565246 -0.06098761
vn -0.6400334 -0.7436485 0.1932463
vn -0.6400334 -0.7436485 0.1932463
vn -0.1260602 -0.1464682 -0.9811503
vn 0.639555 0.7430927 0.1969334
vn 0.639555 0.7430927 0.1969334
vn 0.639555 0.7430927 0.1969334
vn 0.639555 0.7430927 0.1969334
vn 0.639555 0.7430927 0.1969334
vn 0.639555 0.7430927 0.1969334
vn 0.639555 0.7430927 0.1969334
vn 0.6395549 0.7430926 0.1969334
vn 0.02791561 -0.2784554 0.9600434
vn 0.7579355 -0.6523294 -4.019558E-07
vn 0.7579353 -0.6523297 2.778783E-07
vn 0.7579353 -0.6523297 1.64945E-07
vn 0.7579353 -0.6523297 2.778784E-07
vn 0.7579353 -0.6523297 2.778784E-07
vn 0.7579354 -0.6523296 -3.718229E-09
vn 0.7579354 -0.6523296 -3.718349E-09
vn 0.7579354 -0.6523296 -3.717803E-09
vn 0.7579354 -0.6523296 -3.718432E-09
vn 0.7579354 -0.6523296 -3.718477E-09
vn 0.7579353 -0.6523296 -3.71814E-09
vn 0.7579354 -0.6523296 -3.716779E-09
vn 0.7579353 -0.6523296 -3.719829E-09
vn 0.7579353 -0.6523298 1.350788E-07
vn 0.7579352 -0.6523298 2.602757E-07
vn 0.7579353 -0.6523298 1.363439E-07
vn 0.7579353 -0.6523298 1.363433E-07
vn 0.7579353 -0.6523298 1.363425E-07
vn 0.7579353 -0.6523298 1.36343E-07
vn 0.7579353 -0.6523298 1.363431E-07
vn 0.7579353 -0.6523298 1.363432E-07
vn 0.7579353 -0.6523298 1.363438E-07
vn 0.7579352 -0.6523298 3.593923E-07
vn 0.7579352 -0.6523298 3.842081E-07
vn 0.7579352 -0.6523298 3.842082E-07
vn 0.7579352 -0.6523298 3.842076E-07
vn 0.7579352 -0.6523298 3.84209E-07
vn 0.7579352 -0.6523298 3.842084E-07
vn 0.7579352 -0.6523298 3.84208E-07
vn 0.7579353 -0.6523297 3.837707E-07
vn 0.7579353 -0.6523297 5.946806E-07
vn 0.7579353 -0.6523297 5.946807E-07
vn 0.7579353 -0.6523297 5.946811E-07
vn 0.7579353 -0.6523297 5.94674E-07
vn 0.7579353 -0.6523297 5.946819E-07
vn 0.7579353 -0.6523297 5.946813E-07
vn 0.7579353 -0.6523297 5.946798E-07
vn 0.7579353 -0.6523297 5.946786E-07
vn 0.7579353 -0.6523297 2.778784E-07
vn 0.7579353 -0.6523297 2.778784E-07
vn 0.7579353 -0.6523297 2.778783E-07

f 1//1 2//2 3//3
f 4//4 1//1 3//3
f 3//3 5//5 4//4
f 3//3 6//6 5//5
f 5//5 6//6 7//7
f 8//8 7//7 6//6
f 9//9 8//8 6//6
f 10//10 9//9 6//6
f 9//9 10//10 11//11
f 11//11 10//10 12//12
f 13//13 11//11 12//12
f 13//13 12//12 14//14
f 13//13 14//14 15//15
f 15//15 14//14 16//16
f 15//15 16//16 17//17
f 18//18 17//17 16//16
f 19//19 17//17 18//18
f 19//19 18//18 20//20
f 21//21 19//19 20//20
f 22//22 19//19 21//21
f 22//22 21//21 23//23
f 24//24 22//22 23//23
f 24//24 23//23 25//25
f 26//26 24//24 25//25
f 26//26 25//25 27//27
f 28//28 26//26 27//27
f 28//28 27//27 29//29
f 29//29 27//27 30//30
f 31//31 29//29 30//30
f 31//31 30//30 32//32
f 33//33 31//31 32//32
f 33//33 32//32 34//34
f 35//35 33//33 34//34
f 35//35 34//34 36//36
f 37//37 35//35 36//36
f 37//37 36//36 38//38
f 39//39 37//37 38//38
f 39//39 38//38 40//40
f 41//41 39//39 40//40
f 41//41 40//40 42//42
f 41//41 42//42 43//43
f 43//43 42//42 44//44
f 45//45 43//43 44//44
f 45//45 44//44 46//46
f 47//47 45//45 46//46
f 48//48 45//45 47//47
f 48//48 47//47 49//49
f 50//50 48//48 49//49
f 50//50 49//49 51//51
f 52//52 50//50 51//51
f 52//52 51//51 53//53
f 54//54 52//52 53//53
f 55//55 54//54 53//53
f 55//55 53//53 56//56
f 55//55 56//56 57//57
f 57//57 56//56 58//58
f 57//57 58//58 59//59
f 59//59 58//58 60//60
f 59//59 60//60 61//61
f 61//61 60//60 62//62
f 61//61 62//62 63//63
f 63//63 62//62 64//64
f 63//63 64//64 65//65
f 65//65 64//64 66//66
f 65//65 66//66 67//67
f 68//68 67//67 66//66
f 69//69 67//67 68//68
f 69//69 68//68 70//70
f 71//71 69//69 70//70
f 72//72 71//71 73//73
f 74//74 75//75 76//76
f 77//77 74//74 76//76
f 75//75 77//77 76//76
f 78//78 75//75 74//74
f 79//79 75//75 78//78
f 78//78 74//74 80//80
f 81//81 78//78 80//80
f 82//82 78//78 81//81
f 82//82 83//83 78//78
f 83//83 84//84 79//79
f 84//84 85//85 79//79
f 80//80 74//74 86//86
f 87//87 80//80 86//86
f 81//81 80//80 87//87
f 86//86 74//74 88//88
f 88//88 74//74 77//77
f 86//86 88//88 89//89
f 90//90 86//86 89//89
f 87//87 86//86 90//90
f 75//75 91//91 77//77
f 90//90 89//89 92//92
f 90//90 92//92 93//93
f 94//94 90//90 93//93
f 95//95 83//83 82//82
f 95//95 82//82 81//81
f 95//95 81//81 87//87
f 95//95 87//87 90//90
f 95//95 96//96 83//83
f 97//97 91//91 75//75
f 97//97 98//98 91//91
f 97//97 99//99 98//98
f 100//100 95//95 101//101
f 102//102 103//103 104//104
f 102//102 104//104 105//105
f 102//102 105//105 106//106
f 106//106 105//105 107//107
f 108//108 102//102 106//106
f 109//109 102//102 108//108
f 110//110 108//108 106//106
f 111//111 112//112 113//113
f 111//111 113//113 114//114
f 111//111 114//114 115//115
f 111//111 115//115 116//116
f 111//111 116//116 117//117
f 117//117 118//118 111//111
f 118//118 119//119 111//111
f 120//120 111//111 119//119
f 120//120 121//121 111//111
f 121//121 122//122 111//111
f 111//111 122//122 123//123
f 114//114 113//113 124//124
f 124//124 113//113 125//125
f 125//125 113//113 126//126
f 126//126 113//113 127//127
f 127//127 113//113 128//128
f 128//128 113//113 129//129
f 129//129 113//113 130//130
f 130//130 113//113 131//131
f 131//131 113//113 132//132
f 132//132 113//113 133//133
f 133//133 113//113 134//134
f 133//133 134//134 135//135
f 135//135 134//134 136//136
f 134//134 137//137 136//136
f 137//137 134//134 138//138
f 138//138 134//134 139//139
f 139//139 134//134 140//140
f 140//140 134//134 141//141
f 134//134 142//142 141//141
f 134//134 143//143 142//142
f 134//134 144//144 143//143
f 144//144 134//134 145//145
f 145//145 134//134 146//146
f 147//147 134//134 148//148
f 149//149 150//150 151//151
f 149//149 152//152 150//150
f 151//151 150//150 153//153
f 151//151 153//153 154//154
f 154//154 153//153 155//155
f 154//154 155//155 156//156
f 152//152 157//157 150//150
f 158//158 159//159 160//160
f 161//161 159//159 158//158
f 162//162 159//159 161//161
f 163//163 162//162 161//161
f 164//164 162//162 163//163
f 165//165 162//162 164//164
f 9//9 166//166 8//8
f 166//166 9//9 167//167
f 168//168 169//169 170//170
f 168//168 171//171 169//169
f 172//172 169//169 173//173
f 174//174 169//169 172//172
f 169//169 174//174 175//175
f 176//176 169//169 175//175
f 177//177 169//169 176//176
f 178//178 169//169 177//177
f 178//178 179//179 169//169
f 179//179 180//180 169//169
f 180//180 181//181 169//169
f 182//182 181//181 180//180
f 182//182 183//183 181//181
f 183//183 184//184 181//181
f 184//184 185//185 181//181
f 185//185 186//186 181//181
f 186//186 187//187 181//181
f 187//187 188//188 181//181
f 188//188 189//189 181//181
f 181//181 189//189 190//190
f 181//181 190//190 191//191
f 192//192 181//181 191//191
f 193//193 181//181 192//192
f 194//194 181//181 193//193
f 195//195 181//181 194//194
f 195//195 196//196 181//181
f 196//196 197//197 198//198
f 196//196 198//198 199//199
f 199//199 200//200 196//196
f 196//196 200//200 201//201
f 201//201 202//202 196//196
f 196//196 202//202 203//203
f 196//196 203//203 204//204
f 205//205 196//196 206//206
f 207//207 196//196 205//205
