v -57.16539 6.935925 -134.0414
v -52.35765 -13.43 -134.0414
v -57.16539 6.935925 -134.0414
v -57.16539 6.935925 -134.0414
v -53.80227 7.729849 -134.9437
v -52.45702 8.047419 -135.3047
v -52.45702 8.047419 -135.3047
v -47.64928 -12.31851 -135.3047
v -42.84155 -32.68444 -135.3047
v -52.31208 8.081636 -135.108
v -41.53706 -32.37649 -133.5347
v -52.29407 8.085888 -135.0836
v -41.37495 -32.33823 -133.3147
v -52.28902 8.087082 -135.0767
v -41.32944 -32.32748 -133.253
v -52.23218 8.100498 -134.9996
v -40.81796 -32.20673 -132.5589
v -51.53149 8.265907 -134.0488
v -40.7401 -32.18835 -132.4533
v -50.86715 8.422739 -133.1474
v -50.79072 8.440781 -133.0437
v -40.65779 -32.16893 -132.3416
v -50.63132 8.478411 -132.8274
v -40.64008 -32.16475 -132.3176
v -50.2086 8.578201 -132.2538
v -40.59311 -32.15366 -132.2538
v -50.01235 8.624529 -132.226
v -39.5125 -31.89856 -132.1005
v -38.82692 -31.73672 -132.0032
v -49.96366 8.636023 -132.2191
v -38.3887 -31.63326 -131.941
v -49.94917 8.639444 -132.217
v -38.25829 -31.60248 -131.9225
v -49.83965 8.665297 -132.2015
v -37.27263 -31.3698 -131.7825
v -48.5832 8.961905 -132.0231
v -37.13302 -31.33684 -131.7627
v -47.54517 9.206951 -131.8758
v -37.01768 -31.30961 -131.7464
v -46.51917 9.449158 -131.7302
v -36.90368 -31.2827 -131.7302
v -46.42754 9.470787 -131.8015
v -36.07905 -31.08803 -132.3718
v -46.22224 9.519251 -131.9612
v -34.2314 -30.65186 -133.8094
v -45.64951 9.654457 -132.4068
v -45.42046 9.708529 -132.585
v -34.14231 -30.63083 -133.8787
v -44.63944 9.8929 -133.1927
v -34.05553 -30.61034 -133.9462
v -43.99635 10.04471 -133.6931
v -33.98407 -30.59348 -134.0018
v -43.54996 10.15009 -134.0404
v -33.93447 -30.58177 -134.0404
v -33.93447 -30.58177 -134.0404
v -43.51966 10.15724 -134.2657
v -33.66186 -30.51741 -136.0681
v -43.51075 10.15935 -134.332
v -33.58162 -30.49847 -136.665
v -43.50984 10.15956 -134.3388
v -33.57342 -30.49653 -136.7259
v -43.50942 10.15966 -134.3419
v -33.56962 -30.49564 -136.7541
v -43.50888 10.15979 -134.3459
v -33.56482 -30.4945 -136.7898
v -43.49899 10.16212 -134.4195
v -33.47578 -30.47348 -137.4522
v -43.04029 10.27041 -137.8313
v -33.42481 -30.46145 -137.8313
v -43.04029 10.27041 -137.8313
v -33.42481 -30.46145 -137.8313
v -43.04029 10.27041 -137.8313
v -43.04029 10.27041 -137.8313
v -41.69505 10.58798 -138.1922
v -38.33192 11.3819 -139.0945
v -38.33192 11.3819 -139.0945
v -38.33193 11.3819 -139.0945
v -43.04029 10.27041 -137.8313
v -43.04029 10.27041 -137.8313
v -43.04029 10.27041 -137.8313
v -33.42481 -30.46145 -137.8313
v -33.42481 -30.46145 -137.8313
v -33.42481 -30.46145 -137.8313
v -43.04029 10.27041 -137.8313
v -39.35126 11.14127 -131.5129
v -43.04029 10.27041 -137.8313
v -33.42481 -30.46145 -137.8313
v -43.04029 10.27041 -137.8313
v -38.23255 -10.09552 -137.8313
v -33.42481 -30.46145 -137.8313
v -33.52419 -8.984028 -139.0945
v -33.42481 -30.46143 -137.8313
v -33.42481 -30.46145 -137.8313
v -32.07956 -30.14388 -138.1922
v -29.73577 -29.59058 -131.5129
v -33.42481 -30.46145 -137.8313
v -39.35126 11.14127 -131.5129
v -28.71645 -29.34996 -139.0945
v -29.73577 -29.59058 -131.5129
v -33.93447 -30.58177 -134.0404
v -33.93447 -30.58177 -134.0404
v -52.35765 -13.43 -134.0414
v -57.16539 6.935925 -134.0414
v -57.16539 6.935925 -134.0414
v -53.80227 7.729849 -134.9437
v -47.64928 -12.31851 -135.3047
v -52.45702 8.047419 -135.3047
v -44.79181 -33.14484 -134.7814
v -47.54991 -33.79594 -134.0414
v -42.84155 -32.68444 -135.3047
v -57.16539 6.935925 -134.0414
v -52.66853 7.99749 -127.9397
v -45.28967 9.739401 -126.8924
v -50.2086 8.578201 -132.2538
v -50.63132 8.478411 -132.8274
v -50.79072 8.440781 -133.0437
v -50.86715 8.422739 -133.1474
v -51.53149 8.265907 -134.0488
v -52.23218 8.100498 -134.9996
v -52.28902 8.087082 -135.0767
v -52.29407 8.085888 -135.0836
v -52.31208 8.081636 -135.108
v -52.45702 8.047419 -135.3047
v -50.01235 8.624529 -132.226
v -49.96366 8.636023 -132.2191
v -49.94917 8.639444 -132.217
v -49.83965 8.665297 -132.2015
v -48.5832 8.961905 -132.0231
v -47.54517 9.206951 -131.8758
v -46.51917 9.449158 -131.7302
v -46.42754 9.470787 -131.8015
v -46.22224 9.519251 -131.9612
v -45.64951 9.654457 -132.4068
v -39.35126 11.14127 -131.5129
v -45.42046 9.708529 -132.585
v -44.63944 9.8929 -133.1927
v -43.99635 10.04471 -133.6931
v -43.54996 10.15009 -134.0404
v -43.51966 10.15724 -134.2657
v -43.51075 10.15935 -134.332
v -43.50984 10.15956 -134.3388
v -43.50942 10.15966 -134.3419
v -43.50888 10.15979 -134.3459
v -43.49899 10.16212 -134.4195
v -43.04029 10.27041 -137.8313
v -43.04029 10.27041 -137.8313
v -43.04029 10.27041 -137.8313
v -38.33192 11.3819 -139.0945
v -57.16539 6.935925 -134.0414
v -43.05305 -32.73437 -127.9397
v -52.66853 7.99749 -127.9397
v -52.35765 -13.43 -134.0414
v -35.67419 -30.99245 -126.8924
v -45.28967 9.739401 -126.8924
v -29.73577 -29.59058 -131.5129
v -39.35126 11.14127 -131.5129
v -47.54991 -33.79594 -134.0414
v -38.33193 11.3819 -139.0945
v -38.23255 -10.09552 -137.8313
v -43.04029 10.27041 -137.8313
v -33.52419 -8.984028 -139.0945
v -33.42481 -30.46143 -137.8313
v -28.71645 -29.34996 -139.0945
v -32.07956 -30.14388 -138.1922
v -33.42481 -30.46145 -137.8313
v -42.84155 -32.68444 -135.3047
v -43.05305 -32.73437 -127.9397
v -44.79181 -33.14484 -134.7814
v -43.05305 -32.73437 -127.9397
v -47.54991 -33.79594 -134.0414
v -42.84155 -32.68444 -135.3047
v -41.53706 -32.37649 -133.5347
v -42.84155 -32.68444 -135.3047
v -41.37495 -32.33823 -133.3147
v -41.32944 -32.32748 -133.253
v -40.81796 -32.20673 -132.5589
v -40.7401 -32.18835 -132.4533
v -40.65779 -32.16893 -132.3416
v -40.64008 -32.16475 -132.3176
v -40.59311 -32.15366 -132.2538
v -35.67419 -30.99245 -126.8924
v -39.5125 -31.89856 -132.1005
v -38.82692 -31.73672 -132.0032
v -38.3887 -31.63326 -131.941
v -38.25829 -31.60248 -131.9225
v -37.27263 -31.3698 -131.7825
v -37.13302 -31.33684 -131.7627
v -37.01768 -31.30961 -131.7464
v -36.90368 -31.2827 -131.7302
v -36.07905 -31.08803 -132.3718
v -34.2314 -30.65186 -133.8094
v -34.14231 -30.63083 -133.8787
v -34.05553 -30.61034 -133.9462
v -33.98407 -30.59348 -134.0018
v -33.93447 -30.58177 -134.0404
v -29.73577 -29.59058 -131.5129
v -33.93447 -30.58177 -134.0404
v -33.66186 -30.51741 -136.0681
v -33.58162 -30.49847 -136.665
v -33.57342 -30.49653 -136.7259
v -33.56962 -30.49564 -136.7541
v -33.56482 -30.4945 -136.7898
v -33.47578 -30.47348 -137.4522
v -33.42481 -30.46145 -137.8313
v -32.07956 -30.14388 -138.1922
v -33.42481 -30.46145 -137.8313
v -28.71645 -29.34996 -139.0945

vn -0.9416729 -0.2222983 0.2526571
vn -0.9416729 -0.2222984 0.2526571
vn -0.8644925 0.4646002 0.1918316
vn -0.2297529 0.973249 4.238973E-08
vn -0.2297529 0.973249 4.238973E-08
vn 0.7758881 0.1831623 -0.6036963
vn 0.8997167 0.3577024 -0.2501178
vn -0.01505694 -0.003554607 -0.9998803
vn 0.7758909 0.1831627 -0.6036925
vn 0.7758914 0.1831628 -0.6036919
vn 0.7758912 0.1831627 -0.6036922
vn 0.7758906 0.1831625 -0.603693
vn 0.77589 0.1831623 -0.6036938
vn 0.7758933 0.1831637 -0.6036893
vn 0.7758917 0.183163 -0.6036915
vn 0.7758914 0.1831629 -0.6036918
vn 0.7758916 0.183163 -0.6036918
vn 0.7758915 0.183163 -0.6036917
vn 0.7758914 0.1831629 -0.6036919
vn 0.7758916 0.1831629 -0.6036916
vn 0.7758909 0.1831628 -0.6036926
vn 0.7758899 0.1831625 -0.6036938
vn 0.7758912 0.1831629 -0.6036921
vn 0.7758918 0.183163 -0.6036914
vn 0.6783942 0.160147 -0.7170317
vn 0.1725018 0.04072198 -0.9841671
vn 0.1331801 0.03143934 -0.9905931
vn 0.1331809 0.03143956 -0.9905929
vn 0.1331812 0.03143965 -0.990593
vn 0.1331832 0.03144028 -0.9905928
vn 0.1331844 0.03144066 -0.9905925
vn 0.133186 0.03144125 -0.9905922
vn 0.1331833 0.03144035 -0.9905927
vn 0.1331822 0.0314399 -0.9905927
vn 0.1331817 0.03143972 -0.990593
vn 0.1331816 0.03143964 -0.9905928
vn 0.1331827 0.03143999 -0.9905927
vn 0.1331821 0.03143983 -0.9905928
vn 0.1331809 0.03143951 -0.990593
vn 0.06943753 0.01639173 -0.9974517
vn -0.5350712 -0.1263133 -0.8353108
vn -0.5875417 -0.1386998 -0.7972183
vn -0.5875426 -0.1387001 -0.7972177
vn -0.5875431 -0.1387002 -0.7972173
vn -0.5875431 -0.1387002 -0.7972173
vn -0.5875428 -0.1387001 -0.7972175
vn -0.5875424 -0.1386999 -0.7972178
vn -0.5875427 -0.1387 -0.7972177
vn -0.5875425 -0.1386999 -0.7972179
vn -0.5875427 -0.1387 -0.7972176
vn -0.5875427 -0.1387 -0.7972177
vn -0.5875423 -0.1386999 -0.7972178
vn -0.7289225 -0.1720752 -0.6626177
vn -0.5875243 -0.1386956 -0.797232
vn -0.9640934 -0.2275914 -0.1368434
vn -0.9640934 -0.2275915 -0.1368421
vn -0.9640936 -0.2275916 -0.1368417
vn -0.9640937 -0.2275917 -0.1368404
vn -0.9640935 -0.2275914 -0.1368425
vn -0.9640934 -0.2275911 -0.1368441
vn -0.964093 -0.2275907 -0.1368468
vn -0.9640883 -0.2275838 -0.1368916
vn -0.9640913 -0.2275882 -0.1368635
vn -0.9640943 -0.2275924 -0.1368353
vn -0.9640939 -0.2275919 -0.1368394
vn -0.9640935 -0.2275915 -0.1368422
vn -0.9640934 -0.2275914 -0.1368428
vn -0.9640934 -0.2275914 -0.1368431
vn -0.9640927 -0.2275913 -0.1368481
vn -0.92816 -0.2191087 -0.3008497
vn -0.9416728 -0.2222986 0.2526571
vn -0.9416728 -0.2222986 0.2526571
vn -0.9416728 -0.2222986 0.2526571
vn -0.2297529 0.973249 4.238973E-08
vn 0.9640935 0.2275913 0.1368424
vn -0.2297529 0.973249 4.238973E-08
vn -0.1214327 -0.0286665 -0.9921857
vn -0.7862848 0.5956762 0.1640917
vn -0.7203162 0.6788857 0.142334
vn -0.9556168 -0.1525884 0.2520186
vn -0.9416728 -0.2222986 0.2526571
vn -0.9416728 -0.2222986 0.2526571
vn -0.9416728 -0.2222986 0.2526571
vn -0.9603293 -0.120869 0.2513133
vn -0.2297529 0.973249 4.238973E-08
vn -0.9445081 -0.2099567 0.2526313
vn -0.9416728 -0.2222986 0.2526571
vn -0.9647005 -0.08242623 0.2501178
vn -0.9416712 -0.2222982 0.2526636
vn -0.9261776 -0.2803328 0.2522074
vn 0.9640934 0.2275914 0.1368425
vn -0.941667 -0.2222972 0.25268
vn 0.2297464 -0.9732506 1.711747E-06
vn 0.2297529 -0.973249 -4.238973E-08
vn 0.229753 -0.973249 3.751914E-07
vn 0 0 0
vn 0.9640935 0.2275914 0.1368425
vn 0.9640935 0.2275914 0.1368425
vn 0.9640936 0.2275914 0.1368425
vn 0.229753 -0.973249 3.751914E-07
vn 0.229753 -0.973249 3.751914E-07
vn -0.2458983 -0.05804878 -0.9675559
vn -0.2458983 -0.05804878 -0.9675559
vn -0.2458983 -0.05804878 -0.9675559
vn -0.2458983 -0.05804878 -0.9675559
vn -0.2458983 -0.05804878 -0.9675559
vn -0.2458983 -0.05804878 -0.9675559
vn -0.2458983 -0.05804878 -0.9675559
vn -0.2458983 -0.05804878 -0.9675559
vn -0.2458983 -0.05804878 -0.9675559
vn -0.2297529 0.973249 4.238973E-08
vn -0.2297529 0.973249 4.238973E-08
vn -0.2297529 0.973249 4.238973E-08
vn -0.2297529 0.973249 4.238973E-08
vn -0.2297529 0.973249 4.238973E-08
vn -0.2297529 0.973249 4.238973E-08
vn -0.2297529 0.973249 4.238973E-08
vn -0.2297529 0.973249 4.238973E-08
vn -0.2297529 0.973249 4.238973E-08
vn -0.2297529 0.973249 4.238973E-08
vn -0.2297529 0.973249 4.238973E-08
vn -0.2297529 0.973249 4.238973E-08
vn -0.2297529 0.973249 4.238973E-08
vn -0.2297529 0.973249 4.238973E-08
vn -0.2297529 0.973249 4.238973E-08
vn -0.2297529 0.973249 4.238973E-08
vn -0.2297529 0.973249 4.238973E-08
vn -0.2297529 0.973249 4.238973E-08
vn -0.2297529 0.973249 4.238973E-08
vn -0.2297529 0.973249 4.238973E-08
vn -0.2297529 0.973249 4.238973E-08
vn -0.2297529 0.973249 4.238973E-08
vn -0.2297529 0.973249 4.238973E-08
vn -0.2297529 0.973249 4.238973E-08
vn -0.2297529 0.973249 4.238973E-08
vn -0.2297529 0.973249 4.238973E-08
vn -0.2297529 0.973249 4.238973E-08
vn -0.2297529 0.973249 4.238973E-08
vn -0.2297529 0.973249 4.238973E-08
vn -0.2297529 0.973249 4.238973E-08
vn -0.2297529 0.973249 4.238973E-08
vn -0.2297529 0.973249 4.238973E-08
vn -0.2297529 0.973249 4.238973E-08
vn -0.2297529 0.973249 4.238973E-08
vn -0.2297529 0.973249 4.238973E-08
vn -0.2297529 0.973249 4.238973E-08
vn -0.2297529 0.973249 4.238973E-08
vn -0.2297529 0.973249 4.238973E-08
vn -0.7758912 -0.1831627 0.6036922
vn -0.6022177 -0.142164 0.785572
vn -0.372509 -0.08793723 0.9238529
vn -0.7758911 -0.1831627 0.6036922
vn 0.1147915 0.02709869 0.99302
vn 0.3723834 0.08790782 0.9239064
vn 0.5875428 0.1387 0.7972175
vn 0.5875428 0.1387 0.7972175
vn -0.7758912 -0.1831628 0.6036921
vn -0.2458983 -0.05804878 -0.9675559
vn -0.2458983 -0.05804878 -0.9675559
vn -0.2458983 -0.05804878 -0.9675559
vn -0.2458983 -0.05804878 -0.9675559
vn -0.2458983 -0.05804878 -0.9675559
vn -0.2458983 -0.05804878 -0.9675559
vn -0.2458983 -0.0580488 -0.9675559
vn -0.2458983 -0.05804879 -0.9675559
vn 0.968699 0.02030127 -0.2474068
vn 0.2297522 -0.9732492 1.437576E-07
vn 0.229753 -0.973249 1.664008E-07
vn 0.2297529 -0.973249 2.118937E-07
vn 0.229753 -0.973249 1.664008E-07
vn 0.229753 -0.973249 1.664008E-07
vn 0.2297527 -0.9732491 1.570218E-07
vn 0.2297527 -0.9732491 1.570217E-07
vn 0.2297527 -0.9732491 1.570219E-07
vn 0.2297527 -0.9732491 1.570216E-07
vn 0.2297527 -0.9732491 1.570216E-07
vn 0.2297526 -0.973249 1.570219E-07
vn 0.2297527 -0.9732491 1.57023E-07
vn 0.2297526 -0.973249 1.570203E-07
vn 0.2297529 -0.973249 2.836688E-07
vn 0.229753 -0.973249 2.528848E-07
vn 0.2297529 -0.973249 2.848222E-07
vn 0.2297529 -0.973249 2.848225E-07
vn 0.2297529 -0.973249 2.84823E-07
vn 0.2297529 -0.973249 2.848227E-07
vn 0.2297529 -0.973249 2.848227E-07
vn 0.2297529 -0.973249 2.848227E-07
vn 0.2297529 -0.973249 2.848225E-07
vn 0.2297531 -0.973249 2.27342E-07
vn 0.2297531 -0.973249 2.20947E-07
vn 0.2297531 -0.973249 2.20947E-07
vn 0.2297531 -0.973249 2.209468E-07
vn 0.2297531 -0.973249 2.209472E-07
vn 0.2297531 -0.973249 2.20947E-07
vn 0.2297531 -0.973249 2.209469E-07
vn 0.2297531 -0.973249 1.555015E-07
vn 0.2297532 -0.973249 2.812042E-09
vn 0.2297532 -0.973249 2.811923E-09
vn 0.2297532 -0.973249 2.811686E-09
vn 0.2297532 -0.973249 2.816103E-09
vn 0.2297532 -0.973249 2.811293E-09
vn 0.2297532 -0.973249 2.81156E-09
vn 0.2297532 -0.973249 2.812428E-09
vn 0.2297532 -0.9732489 2.813068E-09
vn 0.229753 -0.973249 1.664008E-07
vn 0.229753 -0.973249 1.664009E-07
vn 0.229753 -0.973249 1.664008E-07

f 1//1 2//2 3//3
f 4//4 1//1 3//3
f 3//3 5//5 4//4
f 3//3 6//6 5//5
f 5//5 6//6 7//7
f 8//8 7//7 6//6
f 9//9 8//8 6//6
f 10//10 9//9 6//6
f 9//9 10//10 11//11
f 11//11 10//10 12//12
f 13//13 11//11 12//12
f 13//13 12//12 14//14
f 13//13 14//14 15//15
f 15//15 14//14 16//16
f 15//15 16//16 17//17
f 18//18 17//17 16//16
f 19//19 17//17 18//18
f 19//19 18//18 20//20
f 21//21 19//19 20//20
f 22//22 19//19 21//21
f 22//22 21//21 23//23
f 24//24 22//22 23//23
f 24//24 23//23 25//25
f 26//26 24//24 25//25
f 26//26 25//25 27//27
f 28//28 26//26 27//27
f 28//28 27//27 29//29
f 29//29 27//27 30//30
f 31//31 29//29 30//30
f 31//31 30//30 32//32
f 33//33 31//31 32//32
f 33//33 32//32 34//34
f 35//35 33//33 34//34
f 35//35 34//34 36//36
f 37//37 35//35 36//36
f 37//37 36//36 38//38
f 39//39 37//37 38//38
f 39//39 38//38 40//40
f 41//41 39//39 40//40
f 41//41 40//40 42//42
f 41//41 42//42 43//43
f 43//43 42//42 44//44
f 45//45 43//43 44//44
f 45//45 44//44 46//46
f 47//47 45//45 46//46
f 48//48 45//45 47//47
f 48//48 47//47 49//49
f 50//50 48//48 49//49
f 50//50 49//49 51//51
f 52//52 50//50 51//51
f 52//52 51//51 53//53
f 54//54 52//52 53//53
f 55//55 54//54 53//53
f 55//55 53//53 56//56
f 55//55 56//56 57//57
f 57//57 56//56 58//58
f 57//57 58//58 59//59
f 59//59 58//58 60//60
f 59//59 60//60 61//61
f 61//61 60//60 62//62
f 61//61 62//62 63//63
f 63//63 62//62 64//64
f 63//63 64//64 65//65
f 65//65 64//64 66//66
f 65//65 66//66 67//67
f 68//68 67//67 66//66
f 69//69 67//67 68//68
f 69//69 68//68 70//70
f 71//71 69//69 70//70
f 72//72 71//71 73//73
f 74//74 75//75 76//76
f 77//77 74//74 76//76
f 75//75 77//77 76//76
f 78//78 75//75 74//74
f 79//79 75//75 78//78
f 78//78 74//74 80//80
f 81//81 78//78 80//80
f 82//82 78//78 81//81
f 82//82 83//83 78//78
f 83//83 84//84 79//79
f 84//84 85//85 79//79
f 80//80 74//74 86//86
f 87//87 80//80 86//86
f 81//81 80//80 87//87
f 86//86 74//74 88//88
f 88//88 74//74 77//77
f 86//86 88//88 89//89
f 90//90 86//86 89//89
f 87//87 86//86 90//90
f 75//75 91//91 77//77
f 90//90 89//89 92//92
f 90//90 92//92 93//93
f 94//94 90//90 93//93
f 95//95 83//83 82//82
f 95//95 82//82 81//81
f 95//95 81//81 87//87
f 95//95 87//87 90//90
f 95//95 96//96 83//83
f 97//97 91//91 75//75
f 97//97 98//98 91//91
f 97//97 99//99 98//98
f 100//100 95//95 101//101
f 102//102 103//103 104//104
f 102//102 104//104 105//105
f 102//102 105//105 106//106
f 106//106 105//105 107//107
f 108//108 102//102 106//106
f 109//109 102//102 108//108
f 110//110 108//108 106//106
f 111//111 112//112 113//113
f 111//111 113//113 114//114
f 111//111 114//114 115//115
f 111//111 115//115 116//116
f 111//111 116//116 117//117
f 117//117 118//118 111//111
f 118//118 119//119 111//111
f 120//120 111//111 119//119
f 120//120 121//121 111//111
f 121//121 122//122 111//111
f 111//111 122//122 123//123
f 114//114 113//113 124//124
f 124//124 113//113 125//125
f 125//125 113//113 126//126
f 126//126 113//113 127//127
f 127//127 113//113 128//128
f 128//128 113//113 129//129
f 129//129 113//113 130//130
f 130//130 113//113 131//131
f 131//131 113//113 132//132
f 132//132 113//113 133//133
f 133//133 113//113 134//134
f 133//133 134//134 135//135
f 135//135 134//134 136//136
f 134//134 137//137 136//136
f 137//137 134//134 138//138
f 138//138 134//134 139//139
f 139//139 134//134 140//140
f 140//140 134//134 141//141
f 134//134 142//142 141//141
f 134//134 143//143 142//142
f 134//134 144//144 143//143
f 144//144 134//134 145//145
f 145//145 134//134 146//146
f 147//147 134//134 148//148
f 149//149 150//150 151//151
f 149//149 152//152 150//150
f 151//151 150//150 153//153
f 151//151 153//153 154//154
f 154//154 153//153 155//155
f 154//154 155//155 156//156
f 152//152 157//157 150//150
f 158//158 159//159 160//160
f 161//161 159//159 158//158
f 162//162 159//159 161//161
f 163//163 162//162 161//161
f 164//164 162//162 163//163
f 165//165 162//162 164//164
f 9//9 166//166 8//8
f 166//166 9//9 167//167
f 168//168 169//169 170//170
f 168//168 171//171 169//169
f 172//172 169//169 173//173
f 174//174 169//169 172//172
f 169//169 174//174 175//175
f 176//176 169//169 175//175
f 177//177 169//169 176//176
f 178//178 169//169 177//177
f 178//178 179//179 169//169
f 179//179 180//180 169//169
f 180//180 181//181 169//169
f 182//182 181//181 180//180
f 182//182 183//183 181//181
f 183//183 184//184 181//181
f 184//184 185//185 181//181
f 185//185 186//186 181//181
f 186//186 187//187 181//181
f 187//187 188//188 181//181
f 188//188 189//189 181//181
f 181//181 189//189 190//190
f 181//181 190//190 191//191
f 192//192 181//181 191//191
f 193//193 181//181 192//192
f 194//194 181//181 193//193
f 195//195 181//181 194//194
f 195//195 196//196 181//181
f 196//196 197//197 198//198
f 196//196 198//198 199//199
f 199//199 200//200 196//196
f 196//196 200//200 201//201
f 201//201 202//202 196//196
f 196//196 202//202 203//203
f 196//196 203//203 204//204
f 205//205 196//196 206//206
f 207//207 196//196 205//205
