v -46.44329 32.2198 -133.5065
v -28.55981 43.08565 -133.5065
v -46.44329 32.2198 -133.5065
v -46.44329 32.2198 -133.5065
v -44.67784 29.31415 -134.5999
v -43.97166 28.15188 -135.0372
v -43.97166 28.15188 -135.0372
v -26.08818 39.01773 -135.0373
v -8.204704 49.88359 -135.0373
v -43.96123 28.13471 -135.2831
v -8.110783 49.729 -137.2501
v -43.95993 28.13257 -135.3137
v -8.099111 49.70979 -137.5251
v -43.95956 28.13197 -135.3223
v -8.095835 49.7044 -137.6023
v -43.95547 28.12524 -135.4187
v -8.059008 49.64379 -138.47
v -43.90502 28.04221 -136.6073
v -8.053403 49.63456 -138.602
v -43.85719 27.96348 -137.7342
v -43.85169 27.95443 -137.8639
v -8.047476 49.62481 -138.7417
v -43.84021 27.93554 -138.1343
v -8.046201 49.62271 -138.7717
v -43.80978 27.88544 -138.8514
v -8.04282 49.61715 -138.8514
v -43.72919 27.75282 -138.9831
v -7.599113 48.88688 -139.5767
v -7.317608 48.42356 -140.0369
v -43.70921 27.71992 -139.0158
v -7.137672 48.12741 -140.3311
v -43.70325 27.71012 -139.0255
v -7.084124 48.03928 -140.4186
v -43.65829 27.63611 -139.099
v -6.679407 47.37318 -141.0803
v -43.14238 26.78701 -139.9424
v -6.622084 47.27884 -141.174
v -42.71616 26.08551 -140.6392
v -6.574726 47.20089 -141.2514
v -42.29487 25.39215 -141.3279
v -6.527916 47.12385 -141.3279
v -42.23376 25.29156 -141.3183
v -5.977871 46.21856 -141.2413
v -42.09682 25.06618 -141.2967
v -4.745457 44.1902 -141.0473
v -41.71479 24.43743 -141.2366
v -41.56202 24.18598 -141.2125
v -4.686033 44.0924 -141.038
v -41.04106 23.32858 -141.1305
v -4.628151 43.99714 -141.0289
v -40.61211 22.62259 -141.063
v -4.580488 43.91869 -141.0214
v -40.31436 22.13254 -141.0161
v -4.547405 43.86424 -141.0161
v -4.547405 43.86424 -141.0161
v -40.23793 22.00675 -140.8427
v -3.859547 42.73213 -139.4556
v -40.21544 21.96972 -140.7917
v -3.657084 42.39891 -138.9963
v -40.21314 21.96594 -140.7865
v -3.636415 42.36489 -138.9494
v -40.21207 21.96419 -140.7841
v -3.626829 42.34912 -138.9277
v -40.21073 21.96198 -140.781
v -3.614716 42.32918 -138.9002
v -40.18577 21.92089 -140.7244
v -3.390039 41.9594 -138.3905
v -39.0284 20.01605 -138.0987
v -3.261442 41.74775 -138.0987
v -39.0284 20.01605 -138.0987
v -3.261442 41.74775 -138.0987
v -39.0284 20.01605 -138.0987
v -39.0284 20.01605 -138.0987
v -38.32222 18.85379 -138.536
v -36.55677 15.94813 -139.6294
v -36.55677 15.94813 -139.6294
v -36.55677 15.94813 -139.6294
v -39.0284 20.01605 -138.0987
v -39.0284 20.01605 -138.0987
v -39.0284 20.01605 -138.0987
v -3.261442 41.74775 -138.0987
v -3.261442 41.74775 -138.0987
v -3.261442 41.74775 -138.0987
v -39.0284 20.01605 -138.0987
v -39.12869 20.18111 -145.4643
v -39.0284 20.01605 -138.0987
v -3.261442 41.74775 -138.0987
v -39.0284 20.01605 -138.0987
v -21.14492 30.8819 -138.0987
v -3.261442 41.74775 -138.0987
v -18.67329 26.81399 -139.6294
v -3.261461 41.74774 -138.0987
v -3.261442 41.74775 -138.0987
v -2.555264 40.58549 -138.5361
v -3.36174 41.91281 -145.4643
v -3.261442 41.74775 -138.0987
v -39.12869 20.18111 -145.4643
v -0.789814 37.67984 -139.6294
v -3.36174 41.91281 -145.4643
v -4.547405 43.86424 -141.0161
v -4.547405 43.86424 -141.0161
v -28.55981 43.08565 -133.5065
v -46.44329 32.2198 -133.5065
v -46.44329 32.2198 -133.5065
v -44.67784 29.31415 -134.5999
v -26.08818 39.01773 -135.0373
v -43.97166 28.15188 -135.0372
v -9.228488 51.56857 -134.4032
v -10.67634 53.9515 -133.5065
v -8.204704 49.88359 -135.0373
v -46.44329 32.2198 -133.5065
v -46.11952 31.68692 -141.1348
v -43.08971 26.70033 -146.0878
v -43.80978 27.88544 -138.8514
v -43.84021 27.93554 -138.1343
v -43.85169 27.95443 -137.8639
v -43.85719 27.96348 -137.7342
v -43.90502 28.04221 -136.6073
v -43.95547 28.12524 -135.4187
v -43.95956 28.13197 -135.3223
v -43.95993 28.13257 -135.3137
v -43.96123 28.13471 -135.2831
v -43.97166 28.15188 -135.0372
v -43.72919 27.75282 -138.9831
v -43.70921 27.71992 -139.0158
v -43.70325 27.71012 -139.0255
v -43.65829 27.63611 -139.099
v -43.14238 26.78701 -139.9424
v -42.71616 26.08551 -140.6392
v -42.29487 25.39215 -141.3279
v -42.23376 25.29156 -141.3183
v -42.09682 25.06618 -141.2967
v -41.71479 24.43743 -141.2366
v -39.12869 20.18111 -145.4643
v -41.56202 24.18598 -141.2125
v -41.04106 23.32858 -141.1305
v -40.61211 22.62259 -141.063
v -40.31436 22.13254 -141.0161
v -40.23793 22.00675 -140.8427
v -40.21544 21.96972 -140.7917
v -40.21314 21.96594 -140.7865
v -40.21207 21.96419 -140.7841
v -40.21073 21.96198 -140.781
v -40.18577 21.92089 -140.7244
v -39.0284 20.01605 -138.0987
v -39.0284 20.01605 -138.0987
v -39.0284 20.01605 -138.0987
v -36.55677 15.94813 -139.6294
v -46.44329 32.2198 -133.5065
v -10.35257 53.41862 -141.1348
v -46.11952 31.68692 -141.1348
v -28.55981 43.08565 -133.5065
v -7.322762 48.43203 -146.0878
v -43.08971 26.70033 -146.0878
v -3.36174 41.91281 -145.4643
v -39.12869 20.18111 -145.4643
v -10.67634 53.9515 -133.5065
v -36.55677 15.94813 -139.6294
v -21.14492 30.8819 -138.0987
v -39.0284 20.01605 -138.0987
v -18.67329 26.81399 -139.6294
v -3.261461 41.74774 -138.0987
v -0.789814 37.67984 -139.6294
v -2.555264 40.58549 -138.5361
v -3.261442 41.74775 -138.0987
v -8.204704 49.88359 -135.0373
v -10.35257 53.41862 -141.1348
v -9.228488 51.56857 -134.4032
v -10.35257 53.41862 -141.1348
v -10.67634 53.9515 -133.5065
v -8.204704 49.88359 -135.0373
v -8.110783 49.729 -137.2501
v -8.204704 49.88359 -135.0373
v -8.099111 49.70979 -137.5251
v -8.095835 49.7044 -137.6023
v -8.059008 49.64379 -138.47
v -8.053403 49.63456 -138.602
v -8.047476 49.62481 -138.7417
v -8.046201 49.62271 -138.7717
v -8.04282 49.61715 -138.8514
v -7.322762 48.43203 -146.0878
v -7.599113 48.88688 -139.5767
v -7.317608 48.42356 -140.0369
v -7.137672 48.12741 -140.3311
v -7.084124 48.03928 -140.4186
v -6.679407 47.37318 -141.0803
v -6.622084 47.27884 -141.174
v -6.574726 47.20089 -141.2514
v -6.527916 47.12385 -141.3279
v -5.977871 46.21856 -141.2413
v -4.745457 44.1902 -141.0473
v -4.686033 44.0924 -141.038
v -4.628151 43.99714 -141.0289
v -4.580488 43.91869 -141.0214
v -4.547405 43.86424 -141.0161
v -3.36174 41.91281 -145.4643
v -4.547405 43.86424 -141.0161
v -3.859547 42.73213 -139.4556
v -3.657084 42.39891 -138.9963
v -3.636415 42.36489 -138.9494
v -3.626829 42.34912 -138.9277
v -3.614716 42.32918 -138.9002
v -3.390039 41.9594 -138.3905
v -3.261442 41.74775 -138.0987
v -2.555264 40.58549 -138.5361
v -3.261442 41.74775 -138.0987
v -0.789814 37.67984 -139.6294

vn -0.4943264 0.8135829 0.3061443
vn -0.4943263 0.813583 0.3061443
vn -0.9314979 0.2797896 0.2324423
vn -0.8546175 -0.5192583 4.395843E-07
vn -0.8546175 -0.5192583 4.395843E-07
vn 0.517532 -0.8517762 0.0814734
vn 0.368497 -0.8788404 -0.3030674
vn 0.2718943 -0.4474943 0.851952
vn 0.5175324 -0.8517764 0.08146879
vn 0.5175325 -0.8517765 0.08146795
vn 0.5175325 -0.8517764 0.08146829
vn 0.5175325 -0.8517764 0.0814693
vn 0.5175325 -0.8517762 0.08147036
vn 0.5175322 -0.851777 0.08146459
vn 0.5175323 -0.8517766 0.08146736
vn 0.5175323 -0.8517765 0.08146788
vn 0.5175324 -0.8517767 0.08146775
vn 0.5175324 -0.8517765 0.08146765
vn 0.5175323 -0.8517765 0.08146794
vn 0.5175324 -0.8517766 0.08146761
vn 0.5175323 -0.8517765 0.08146877
vn 0.5175323 -0.8517763 0.08147033
vn 0.5175323 -0.8517765 0.08146815
vn 0.5175324 -0.8517766 0.08146729
vn 0.5052309 -0.8315301 0.2308671
vn 0.3519475 -0.5792493 0.7352571
vn 0.3360373 -0.5530634 0.7623647
vn 0.3360375 -0.5530639 0.7623641
vn 0.3360377 -0.5530642 0.7623639
vn 0.3360384 -0.5530657 0.7623627
vn 0.3360388 -0.5530665 0.7623617
vn 0.3360393 -0.5530677 0.7623606
vn 0.3360384 -0.5530658 0.7623625
vn 0.3360381 -0.5530648 0.7623632
vn 0.3360379 -0.5530645 0.7623637
vn 0.3360379 -0.5530643 0.7623636
vn 0.3360383 -0.5530651 0.7623629
vn 0.3360381 -0.5530648 0.7623634
vn 0.3360376 -0.5530639 0.7623641
vn 0.3092541 -0.5089824 0.803305
vn -0.008064873 0.01327462 0.9998795
vn -0.04230191 0.06962334 0.996676
vn -0.04230245 0.06962427 0.996676
vn -0.04230278 0.06962489 0.996676
vn -0.04230279 0.06962486 0.9966759
vn -0.04230258 0.06962448 0.9966759
vn -0.0423024 0.06962394 0.996676
vn -0.04230258 0.06962437 0.996676
vn -0.04230241 0.06962404 0.996676
vn -0.04230259 0.06962432 0.9966759
vn -0.04230259 0.06962431 0.996676
vn -0.04230237 0.06962393 0.996676
vn -0.1434608 0.2361147 0.961077
vn -0.04229033 0.06960411 0.9966779
vn -0.3958631 0.6515287 0.6471497
vn -0.3958634 0.6515294 0.6471487
vn -0.3958636 0.6515297 0.6471485
vn -0.3958639 0.6515304 0.6471475
vn -0.3958634 0.6515292 0.6471491
vn -0.3958631 0.6515282 0.6471504
vn -0.3958624 0.6515265 0.6471524
vn -0.395852 0.6514985 0.6471869
vn -0.3958585 0.6515161 0.6471653
vn -0.3958652 0.6515336 0.6471435
vn -0.3958641 0.6515312 0.6471467
vn -0.3958634 0.6515293 0.6471488
vn -0.3958632 0.651529 0.6471493
vn -0.3958632 0.6515288 0.6471496
vn -0.3958614 0.6515262 0.6471534
vn -0.3339775 0.549675 0.765713
vn -0.4943261 0.8135831 0.3061443
vn -0.4943261 0.8135831 0.3061443
vn -0.4943261 0.8135831 0.3061443
vn -0.8546175 -0.5192583 4.395843E-07
vn 0.3958635 -0.6515291 -0.647149
vn -0.8546175 -0.5192583 4.395843E-07
vn 0.2218631 -0.3651506 0.9041249
vn -0.9708915 0.1335528 0.19883
vn -0.9845793 0.02930946 0.1724662
vn -0.5537966 0.7746342 0.3053706
vn -0.4943261 0.8135831 0.3061443
vn -0.4943261 0.8135831 0.3061443
vn -0.4943261 0.8135831 0.3061443
vn -0.5797247 0.7557707 0.304516
vn -0.8546175 -0.5192583 4.395843E-07
vn -0.5051078 0.8069409 0.3061252
vn -0.4943261 0.8135831 0.3061443
vn -0.610219 0.7319719 0.3030674
vn -0.4943272 0.8135848 0.3061379
vn -0.4421225 0.8432941 0.305586
vn 0.3958634 -0.6515291 -0.647149
vn -0.4943299 0.8135893 0.3061218
vn 0.854614 0.5192639 1.685901E-06
vn 0.8546175 0.5192583 -4.395843E-07
vn 0.8546174 0.5192583 -8.504453E-07
vn 0 0 0
vn 0.3958634 -0.6515291 -0.6471491
vn 0.3958634 -0.6515292 -0.6471491
vn 0.3958634 -0.6515292 -0.6471491
vn 0.8546174 0.5192583 -8.504453E-07
vn 0.8546174 0.5192583 -8.504453E-07
vn 0.1589684 -0.261636 0.9519851
vn 0.1589684 -0.2616359 0.9519851
vn 0.1589684 -0.261636 0.9519851
vn 0.1589684 -0.261636 0.9519851
vn 0.1589684 -0.261636 0.9519851
vn 0.1589684 -0.261636 0.9519851
vn 0.1589684 -0.261636 0.9519851
vn 0.1589684 -0.261636 0.9519851
vn 0.1589684 -0.261636 0.9519851
vn -0.8546175 -0.5192583 4.395843E-07
vn -0.8546175 -0.5192583 4.395843E-07
vn -0.8546175 -0.5192583 4.395843E-07
vn -0.8546175 -0.5192583 4.395843E-07
vn -0.8546175 -0.5192583 4.395843E-07
vn -0.8546175 -0.5192583 4.395843E-07
vn -0.8546175 -0.5192583 4.395843E-07
vn -0.8546175 -0.5192583 4.395843E-07
vn -0.8546175 -0.5192583 4.395843E-07
vn -0.8546175 -0.5192583 4.395843E-07
vn -0.8546175 -0.5192583 4.395843E-07
vn -0.8546175 -0.5192583 4.395843E-07
vn -0.8546175 -0.5192583 4.395843E-07
vn -0.8546174 -0.5192582 4.395842E-07
vn -0.8546175 -0.5192583 4.395843E-07
vn -0.8546175 -0.5192583 4.395843E-07
vn -0.8546174 -0.5192582 4.395842E-07
vn -0.8546175 -0.5192583 4.395843E-07
vn -0.8546175 -0.5192583 4.395843E-07
vn -0.8546175 -0.5192583 4.395843E-07
vn -0.8546174 -0.5192582 4.395842E-07
vn -0.8546175 -0.5192583 4.395843E-07
vn -0.8546175 -0.5192583 4.395843E-07
vn -0.8546175 -0.5192583 4.395843E-07
vn -0.8546175 -0.5192583 4.395843E-07
vn -0.8546175 -0.5192583 4.395843E-07
vn -0.8546175 -0.5192583 4.395843E-07
vn -0.8546175 -0.5192583 4.395843E-07
vn -0.8546175 -0.5192583 4.395843E-07
vn -0.8546175 -0.5192583 4.395843E-07
vn -0.8546175 -0.5192583 4.395843E-07
vn -0.8546174 -0.5192582 4.395842E-07
vn -0.8546175 -0.5192583 4.395843E-07
vn -0.8546174 -0.5192582 4.395842E-07
vn -0.8546174 -0.5192582 4.395842E-07
vn -0.8546175 -0.5192583 4.395843E-07
vn -0.8546174 -0.5192582 4.395842E-07
vn -0.8546174 -0.5192582 4.395842E-07
vn -0.5175325 0.8517765 -0.08146833
vn -0.4900415 0.8065304 -0.3307085
vn -0.4251741 0.6997688 -0.574065
vn -0.5175324 0.8517764 -0.08146836
vn -0.2250852 0.3704539 -0.9011663
vn -0.08986371 0.1479006 -0.9849112
vn 0.04230268 -0.06962445 -0.9966759
vn 0.04230268 -0.06962444 -0.996676
vn -0.5175324 0.8517765 -0.08146823
vn 0.1589684 -0.261636 0.9519851
vn 0.1589684 -0.261636 0.9519851
vn 0.1589684 -0.261636 0.9519851
vn 0.1589684 -0.261636 0.9519851
vn 0.1589684 -0.261636 0.9519851
vn 0.1589684 -0.261636 0.9519851
vn 0.1589684 -0.261636 0.9519851
vn 0.1589684 -0.2616359 0.9519851
vn 0.6573728 -0.6913692 -0.2997825
vn 0.8546171 0.5192589 -2.140298E-07
vn 0.8546174 0.5192583 -6.450147E-07
vn 0.8546174 0.5192584 -6.27868E-07
vn 0.8546174 0.5192583 -6.450148E-07
vn 0.8546174 0.5192583 -6.450148E-07
vn 0.8546173 0.5192585 -4.66495E-07
vn 0.8546173 0.5192585 -4.664948E-07
vn 0.8546173 0.5192585 -4.664954E-07
vn 0.8546173 0.5192585 -4.664947E-07
vn 0.8546173 0.5192585 -4.664946E-07
vn 0.8546172 0.5192585 -4.664951E-07
vn 0.8546173 0.5192585 -4.664971E-07
vn 0.8546172 0.5192585 -4.664924E-07
vn 0.8546174 0.5192584 -6.893773E-07
vn 0.8546174 0.5192583 -7.30107E-07
vn 0.8546174 0.5192584 -6.914078E-07
vn 0.8546174 0.5192584 -6.914078E-07
vn 0.8546174 0.5192584 -6.914079E-07
vn 0.8546174 0.5192584 -6.914079E-07
vn 0.8546174 0.5192584 -6.914079E-07
vn 0.8546174 0.5192584 -6.914079E-07
vn 0.8546174 0.5192584 -6.914081E-07
vn 0.8546175 0.5192582 -7.61057E-07
vn 0.8546175 0.5192582 -7.68806E-07
vn 0.8546175 0.5192582 -7.688062E-07
vn 0.8546175 0.5192582 -7.688055E-07
vn 0.8546175 0.5192582 -7.688069E-07
vn 0.8546175 0.5192582 -7.688062E-07
vn 0.8546175 0.5192582 -7.688059E-07
vn 0.8546175 0.5192582 -6.961984E-07
vn 0.8546176 0.519258 -6.533504E-07
vn 0.8546176 0.519258 -6.533504E-07
vn 0.8546176 0.519258 -6.533504E-07
vn 0.8546176 0.519258 -6.53351E-07
vn 0.8546176 0.519258 -6.533504E-07
vn 0.8546176 0.519258 -6.533504E-07
vn 0.8546176 0.519258 -6.533504E-07
vn 0.8546175 0.519258 -6.533504E-07
vn 0.8546174 0.5192583 -6.450148E-07
vn 0.8546174 0.5192583 -6.450148E-07
vn 0.8546174 0.5192583 -6.450148E-07

f 1//1 2//2 3//3
f 4//4 1//1 3//3
f 3//3 5//5 4//4
f 3//3 6//6 5//5
f 5//5 6//6 7//7
f 8//8 7//7 6//6
f 9//9 8//8 6//6
f 10//10 9//9 6//6
f 9//9 10//10 11//11
f 11//11 10//10 12//12
f 13//13 11//11 12//12
f 13//13 12//12 14//14
f 13//13 14//14 15//15
f 15//15 14//14 16//16
f 15//15 16//16 17//17
f 18//18 17//17 16//16
f 19//19 17//17 18//18
f 19//19 18//18 20//20
f 21//21 19//19 20//20
f 22//22 19//19 21//21
f 22//22 21//21 23//23
f 24//24 22//22 23//23
f 24//24 23//23 25//25
f 26//26 24//24 25//25
f 26//26 25//25 27//27
f 28//28 26//26 27//27
f 28//28 27//27 29//29
f 29//29 27//27 30//30
f 31//31 29//29 30//30
f 31//31 30//30 32//32
f 33//33 31//31 32//32
f 33//33 32//32 34//34
f 35//35 33//33 34//34
f 35//35 34//34 36//36
f 37//37 35//35 36//36
f 37//37 36//36 38//38
f 39//39 37//37 38//38
f 39//39 38//38 40//40
f 41//41 39//39 40//40
f 41//41 40//40 42//42
f 41//41 42//42 43//43
f 43//43 42//42 44//44
f 45//45 43//43 44//44
f 45//45 44//44 46//46
f 47//47 45//45 46//46
f 48//48 45//45 47//47
f 48//48 47//47 49//49
f 50//50 48//48 49//49
f 50//50 49//49 51//51
f 52//52 50//50 51//51
f 52//52 51//51 53//53
f 54//54 52//52 53//53
f 55//55 54//54 53//53
f 55//55 53//53 56//56
f 55//55 56//56 57//57
f 57//57 56//56 58//58
f 57//57 58//58 59//59
f 59//59 58//58 60//60
f 59//59 60//60 61//61
f 61//61 60//60 62//62
f 61//61 62//62 63//63
f 63//63 62//62 64//64
f 63//63 64//64 65//65
f 65//65 64//64 66//66
f 65//65 66//66 67//67
f 68//68 67//67 66//66
f 69//69 67//67 68//68
f 69//69 68//68 70//70
f 71//71 69//69 70//70
f 72//72 71//71 73//73
f 74//74 75//75 76//76
f 77//77 74//74 76//76
f 75//75 77//77 76//76
f 78//78 75//75 74//74
f 79//79 75//75 78//78
f 78//78 74//74 80//80
f 81//81 78//78 80//80
f 82//82 78//78 81//81
f 82//82 83//83 78//78
f 83//83 84//84 79//79
f 84//84 85//85 79//79
f 80//80 74//74 86//86
f 87//87 80//80 86//86
f 81//81 80//80 87//87
f 86//86 74//74 88//88
f 88//88 74//74 77//77
f 86//86 88//88 89//89
f 90//90 86//86 89//89
f 87//87 86//86 90//90
f 75//75 91//91 77//77
f 90//90 89//89 92//92
f 90//90 92//92 93//93
f 94//94 90//90 93//93
f 95//95 83//83 82//82
f 95//95 82//82 81//81
f 95//95 81//81 87//87
f 95//95 87//87 90//90
f 95//95 96//96 83//83
f 97//97 91//91 75//75
f 97//97 98//98 91//91
f 97//97 99//99 98//98
f 100//100 95//95 101//101
f 102//102 103//103 104//104
f 102//102 104//104 105//105
f 102//102 105//105 106//106
f 106//106 105//105 107//107
f 108//108 102//102 106//106
f 109//109 102//102 108//108
f 110//110 108//108 106//106
f 111//111 112//112 113//113
f 111//111 113//113 114//114
f 111//111 114//114 115//115
f 111//111 115//115 116//116
f 111//111 116//116 117//117
f 117//117 118//118 111//111
f 118//118 119//119 111//111
f 120//120 111//111 119//119
f 120//120 121//121 111//111
f 121//121 122//122 111//111
f 111//111 122//122 123//123
f 114//114 113//113 124//124
f 124//124 113//113 125//125
f 125//125 113//113 126//126
f 126//126 113//113 127//127
f 127//127 113//113 128//128
f 128//128 113//113 129//129
f 129//129 113//113 130//130
f 130//130 113//113 131//131
f 131//131 113//113 132//132
f 132//132 113//113 133//133
f 133//133 113//113 134//134
f 133//133 134//134 135//135
f 135//135 134//134 136//136
f 134//134 137//137 136//136
f 137//137 134//134 138//138
f 138//138 134//134 139//139
f 139//139 134//134 140//140
f 140//140 134//134 141//141
f 134//134 142//142 141//141
f 134//134 143//143 142//142
f 134//134 144//144 143//143
f 144//144 134//134 145//145
f 145//145 134//134 146//146
f 147//147 134//134 148//148
f 149//149 150//150 151//151
f 149//149 152//152 150//150
f 151//151 150//150 153//153
f 151//151 153//153 154//154
f 154//154 153//153 155//155
f 154//154 155//155 156//156
f 152//152 157//157 150//150
f 158//158 159//159 160//160
f 161//161 159//159 158//158
f 162//162 159//159 161//161
f 163//163 162//162 161//161
f 164//164 162//162 163//163
f 165//165 162//162 164//164
f 9//9 166//166 8//8
f 166//166 9//9 167//167
f 168//168 169//169 170//170
f 168//168 171//171 169//169
f 172//172 169//169 173//173
f 174//174 169//169 172//172
f 169//169 174//174 175//175
f 176//176 169//169 175//175
f 177//177 169//169 176//176
f 178//178 169//169 177//177
f 178//178 179//179 169//169
f 179//179 180//180 169//169
f 180//180 181//181 169//169
f 182//182 181//181 180//180
f 182//182 183//183 181//181
f 183//183 184//184 181//181
f 184//184 185//185 181//181
f 185//185 186//186 181//181
f 186//186 187//187 181//181
f 187//187 188//188 181//181
f 188//188 189//189 181//181
f 181//181 189//189 190//190
f 181//181 190//190 191//191
f 192//192 181//181 191//191
f 193//193 181//181 192//192
f 194//194 181//181 193//193
f 195//195 181//181 194//194
f 195//195 196//196 181//181
f 196//196 197//197 198//198
f 196//196 198//198 199//199
f 199//199 200//200 196//196
f 196//196 200//200 201//201
f 201//201 202//202 196//196
f 196//196 202//202 203//203
f 196//196 203//203 204//204
f 205//205 196//196 206//206
f 207//207 196//196 205//205
