v -124.2183 -76.39606 -19.95597
v -128.8176 -68.82621 -5.624089
v -124.2183 -76.39606 -19.95597
v -124.2183 -76.39606 -19.95597
v -122.5576 -78.94054 -18.07907
v -121.8933 -79.95833 -17.3283
v -121.8933 -79.95833 -17.3283
v -126.4926 -72.38849 -2.996423
v -131.092 -64.81864 11.33546
v -121.6574 -79.90274 -17.28198
v -128.9694 -64.31833 11.75238
v -121.6281 -79.89584 -17.27623
v -128.7057 -64.25616 11.80419
v -121.6199 -79.89389 -17.27461
v -128.6316 -64.2387 11.81873
v -121.5274 -79.87209 -17.25645
v -127.7994 -64.04253 11.98221
v -120.3873 -79.60336 -17.0325
v -127.6727 -64.01266 12.00709
v -119.3063 -79.34856 -16.82018
v -119.182 -79.31924 -16.79575
v -127.5388 -63.9811 12.03339
v -118.9226 -79.25811 -16.7448
v -127.5099 -63.9743 12.03905
v -118.2348 -79.09598 -16.6097
v -127.4335 -63.95629 12.05407
v -118.0817 -79.18797 -16.51199
v -126.5908 -64.46286 12.59208
v -126.0561 -64.78425 12.93343
v -118.0437 -79.2108 -16.48775
v -125.7143 -64.98968 13.15161
v -118.0324 -79.2176 -16.48054
v -125.6126 -65.05081 13.21654
v -117.947 -79.26894 -16.42601
v -124.8439 -65.51287 13.70728
v -116.9671 -79.85793 -15.80044
v -124.735 -65.57832 13.77679
v -116.1576 -80.34454 -15.28362
v -124.6451 -65.63239 13.83422
v -115.3574 -80.82552 -14.77279
v -124.5562 -65.68583 13.89097
v -115.3447 -80.9276 -14.71481
v -124.4421 -66.60463 14.41288
v -115.3163 -81.15634 -14.58488
v -124.1865 -68.66328 15.58223
v -115.2371 -81.79449 -14.2224
v -115.2054 -82.0497 -14.07743
v -124.1742 -68.76254 15.63861
v -115.0974 -82.91991 -13.58314
v -124.1622 -68.85923 15.69353
v -115.0085 -83.63643 -13.17614
v -124.1523 -68.93884 15.73876
v -114.9467 -84.1338 -12.89362
v -124.1455 -68.99411 15.77015
v -124.1455 -68.99411 15.77015
v -115.0832 -84.30907 -12.84485
v -125.3739 -70.57157 16.20911
v -115.1234 -84.36066 -12.83049
v -125.7355 -71.03587 16.33831
v -115.1275 -84.36593 -12.82903
v -125.7724 -71.08327 16.3515
v -115.1294 -84.36837 -12.82835
v -125.7895 -71.10526 16.35762
v -115.1318 -84.37146 -12.82749
v -125.8111 -71.13303 16.36535
v -115.1764 -84.4287 -12.81156
v -126.2124 -71.64828 16.50873
v -117.2433 -87.08288 -12.07298
v -126.442 -71.94319 16.59079
v -117.2433 -87.08288 -12.07297
v -126.442 -71.94319 16.59079
v -117.2433 -87.08288 -12.07297
v -117.2433 -87.08288 -12.07297
v -116.579 -88.10068 -11.32221
v -114.9183 -90.64516 -9.445309
v -114.9183 -90.64516 -9.445309
v -114.9183 -90.64516 -9.44531
v -117.2433 -87.08288 -12.07297
v -117.2433 -87.08288 -12.07297
v -117.2433 -87.08288 -12.07297
v -126.442 -71.94319 16.59079
v -126.442 -71.94319 16.59079
v -126.442 -71.94319 16.59079
v -117.2433 -87.08288 -12.07297
v -110.3252 -84.74699 -11.0866
v -117.2433 -87.08288 -12.07297
v -126.442 -71.94319 16.59079
v -117.2433 -87.08288 -12.07297
v -121.8426 -79.51304 2.258911
v -126.442 -71.94319 16.59079
v -119.5176 -83.07531 4.886576
v -126.442 -71.9432 16.59078
v -126.442 -71.94319 16.59079
v -125.7777 -72.96098 17.34156
v -119.5239 -69.6073 17.57716
v -126.442 -71.94319 16.59079
v -110.3252 -84.74699 -11.0866
v -124.117 -75.50546 19.21846
v -119.5239 -69.6073 17.57716
v -124.1455 -68.99411 15.77015
v -124.1455 -68.99411 15.77015
v -128.8176 -68.82621 -5.624089
v -124.2183 -76.39606 -19.95597
v -124.2183 -76.39606 -19.95597
v -122.5576 -78.94054 -18.07907
v -126.4926 -72.38849 -2.996423
v -121.8933 -79.95833 -17.3283
v -132.0551 -63.3431 10.24705
v -133.417 -61.25637 8.707796
v -131.092 -64.81864 11.33546
v -124.2183 -76.39606 -19.95597
v -116.9013 -74.67136 -18.51876
v -111.1466 -78.13042 -14.84495
v -118.2348 -79.09598 -16.6097
v -118.9226 -79.25811 -16.7448
v -119.182 -79.31924 -16.79575
v -119.3063 -79.34856 -16.82018
v -120.3873 -79.60336 -17.0325
v -121.5274 -79.87209 -17.25645
v -121.6199 -79.89389 -17.27461
v -121.6281 -79.89584 -17.27623
v -121.6574 -79.90274 -17.28198
v -121.8933 -79.95833 -17.3283
v -118.0817 -79.18797 -16.51199
v -118.0437 -79.2108 -16.48775
v -118.0324 -79.2176 -16.48054
v -117.947 -79.26894 -16.42601
v -116.9671 -79.85793 -15.80044
v -116.1576 -80.34454 -15.28362
v -115.3574 -80.82552 -14.77279
v -115.3447 -80.9276 -14.71481
v -115.3163 -81.15634 -14.58488
v -115.2371 -81.79449 -14.2224
v -110.3252 -84.74699 -11.0866
v -115.2054 -82.0497 -14.07743
v -115.0974 -82.91991 -13.58314
v -115.0085 -83.63643 -13.17614
v -114.9467 -84.1338 -12.89362
v -115.0832 -84.30907 -12.84485
v -115.1234 -84.36066 -12.83049
v -115.1275 -84.36593 -12.82903
v -115.1294 -84.36837 -12.82835
v -115.1318 -84.37146 -12.82749
v -115.1764 -84.4287 -12.81156
v -117.2433 -87.08288 -12.07298
v -117.2433 -87.08288 -12.07297
v -117.2433 -87.08288 -12.07297
v -114.9183 -90.64516 -9.445309
v -124.2183 -76.39606 -19.95597
v -126.1 -59.53167 10.145
v -116.9013 -74.67136 -18.51876
v -128.8176 -68.82621 -5.624089
v -120.3453 -62.99074 13.81882
v -111.1466 -78.13042 -14.84495
v -119.5239 -69.6073 17.57716
v -110.3252 -84.74699 -11.0866
v -133.417 -61.25637 8.707796
v -114.9183 -90.64516 -9.44531
v -121.8426 -79.51304 2.258911
v -117.2433 -87.08288 -12.07297
v -119.5176 -83.07531 4.886576
v -126.442 -71.9432 16.59078
v -124.117 -75.50546 19.21846
v -125.7777 -72.96098 17.34156
v -126.442 -71.94319 16.59079
v -131.092 -64.81864 11.33546
v -126.1 -59.53167 10.145
v -132.0551 -63.3431 10.24705
v -126.1 -59.53167 10.145
v -133.417 -61.25637 8.707796
v -131.092 -64.81864 11.33546
v -128.9694 -64.31833 11.75238
v -131.092 -64.81864 11.33546
v -128.7057 -64.25616 11.80419
v -128.6316 -64.2387 11.81873
v -127.7994 -64.04253 11.98221
v -127.6727 -64.01266 12.00709
v -127.5388 -63.9811 12.03339
v -127.5099 -63.9743 12.03905
v -127.4335 -63.95629 12.05407
v -120.3453 -62.99074 13.81882
v -126.5908 -64.46286 12.59208
v -126.0561 -64.78425 12.93343
v -125.7143 -64.98968 13.15161
v -125.6126 -65.05081 13.21654
v -124.8439 -65.51287 13.70728
v -124.735 -65.57832 13.77679
v -124.6451 -65.63239 13.83422
v -124.5562 -65.68583 13.89097
v -124.4421 -66.60463 14.41288
v -124.1865 -68.66328 15.58223
v -124.1742 -68.76254 15.63861
v -124.1622 -68.85923 15.69353
v -124.1523 -68.93884 15.73876
v -124.1455 -68.99411 15.77015
v -119.5239 -69.6073 17.57716
v -124.1455 -68.99411 15.77015
v -125.3739 -70.57157 16.20911
v -125.7355 -71.03587 16.33831
v -125.7724 -71.08327 16.3515
v -125.7895 -71.10526 16.35762
v -125.8111 -71.13303 16.36535
v -126.2124 -71.64828 16.50873
v -126.442 -71.94319 16.59079
v -125.7777 -72.96098 17.34156
v -126.442 -71.94319 16.59079
v -124.117 -75.50546 19.21846

vn -0.4649993 0.712454 -0.5255331
vn -0.4649993 0.7124541 -0.525533
vn -0.1753944 0.2485359 -0.9526106
vn 0.27299 -0.4492986 -0.8506513
vn 0.27299 -0.4492986 -0.8506513
vn 0.1073139 -0.8644961 0.4910504
vn 0.4989325 -0.7688341 0.3999509
vn -0.707531 -0.6928945 0.1389145
vn 0.1073182 -0.8644949 0.4910515
vn 0.107319 -0.8644948 0.4910516
vn 0.1073187 -0.8644948 0.4910516
vn 0.1073177 -0.864495 0.4910515
vn 0.1073167 -0.8644952 0.4910513
vn 0.1073224 -0.8644942 0.4910519
vn 0.1073196 -0.8644947 0.4910516
vn 0.1073191 -0.8644947 0.4910516
vn 0.1073193 -0.8644948 0.4910516
vn 0.1073193 -0.8644947 0.4910516
vn 0.1073191 -0.8644948 0.4910516
vn 0.1073194 -0.8644947 0.4910516
vn 0.1073183 -0.864495 0.4910514
vn 0.1073167 -0.8644953 0.4910511
vn 0.1073189 -0.8644948 0.4910514
vn 0.1073197 -0.8644947 0.4910517
vn -0.03810647 -0.8885936 0.4571103
vn -0.568863 -0.7884714 0.2338977
vn -0.6001188 -0.7706307 0.2144441
vn -0.600118 -0.770631 0.2144444
vn -0.6001178 -0.7706313 0.2144446
vn -0.6001163 -0.7706323 0.2144455
vn -0.6001152 -0.7706329 0.214446
vn -0.6001139 -0.7706337 0.2144466
vn -0.6001161 -0.7706324 0.2144455
vn -0.600117 -0.7706317 0.2144451
vn -0.6001175 -0.7706315 0.2144449
vn -0.6001176 -0.7706314 0.2144449
vn -0.6001166 -0.7706319 0.2144453
vn -0.6001172 -0.7706317 0.2144451
vn -0.6001181 -0.7706311 0.2144445
vn -0.6483045 -0.7392137 0.1823865
vn -0.9468486 -0.2818894 -0.1549726
vn -0.956012 -0.2253443 -0.1877795
vn -0.9560121 -0.2253433 -0.18778
vn -0.9560122 -0.2253427 -0.1877803
vn -0.9560122 -0.2253427 -0.1877803
vn -0.9560121 -0.2253431 -0.1877801
vn -0.956012 -0.2253436 -0.18778
vn -0.9560121 -0.2253432 -0.1877801
vn -0.9560121 -0.2253436 -0.18778
vn -0.9560121 -0.2253432 -0.1877801
vn -0.9560122 -0.2253433 -0.1877802
vn -0.956012 -0.2253436 -0.1877799
vn -0.9584139 -0.05056236 -0.2808671
vn -0.9560096 -0.2253638 -0.1877685
vn -0.7518886 0.4519483 -0.4800065
vn -0.7518878 0.4519493 -0.4800066
vn -0.7518876 0.4519497 -0.4800068
vn -0.7518868 0.4519506 -0.4800069
vn -0.7518881 0.451949 -0.4800067
vn -0.7518891 0.4519477 -0.4800066
vn -0.7518905 0.4519453 -0.4800062
vn -0.7519162 0.451908 -0.4800013
vn -0.7519001 0.4519315 -0.4800043
vn -0.7518839 0.451955 -0.4800076
vn -0.7518863 0.4519516 -0.4800071
vn -0.7518879 0.4519492 -0.4800067
vn -0.7518883 0.4519487 -0.4800065
vn -0.7518885 0.4519485 -0.4800065
vn -0.7518915 0.4519447 -0.4800054
vn -0.8417931 0.3164689 -0.4373007
vn -0.4649994 0.7124541 -0.5255328
vn -0.4649994 0.7124541 -0.5255328
vn -0.4649994 0.7124541 -0.5255328
vn 0.27299 -0.4492986 -0.8506513
vn 0.751888 -0.451949 0.4800068
vn 0.27299 -0.4492986 -0.8506513
vn -0.7745973 -0.6270371 0.08260694
vn -0.09442078 0.12107 -0.9881433
vn -0.03640699 0.03014064 -0.9988827
vn -0.4444286 0.6787314 -0.5846426
vn -0.4649994 0.7124541 -0.5255328
vn -0.4649994 0.7124541 -0.5255328
vn -0.4649994 0.7124541 -0.5255328
vn -0.4344074 0.6623857 -0.6103569
vn 0.27299 -0.4492986 -0.8506513
vn -0.46151 0.7067044 -0.5362625
vn -0.4649994 0.7124541 -0.5255328
vn -0.4217193 0.6417532 -0.6405511
vn -0.4649938 0.7124577 -0.5255329
vn -0.480546 0.7381489 -0.4735101
vn 0.751888 -0.4519489 0.4800067
vn -0.4649795 0.7124669 -0.5255331
vn -0.2729932 0.4493036 0.8506476
vn -0.27299 0.4492986 0.8506513
vn -0.2729897 0.4492989 0.8506513
vn 0 0 0
vn 0.7518881 -0.4519489 0.4800067
vn 0.7518881 -0.451949 0.4800067
vn 0.7518882 -0.451949 0.4800067
vn -0.2729897 0.4492989 0.8506513
vn -0.2729897 0.4492989 0.8506513
vn -0.8421711 -0.5390176 0.01443086
vn -0.842171 -0.5390176 0.01443086
vn -0.8421711 -0.5390176 0.01443086
vn -0.8421711 -0.5390176 0.01443086
vn -0.8421711 -0.5390176 0.01443086
vn -0.8421711 -0.5390176 0.01443086
vn -0.8421711 -0.5390176 0.01443086
vn -0.8421711 -0.5390176 0.01443086
vn -0.8421711 -0.5390176 0.01443086
vn 0.27299 -0.4492986 -0.8506513
vn 0.27299 -0.4492986 -0.8506513
vn 0.27299 -0.4492986 -0.8506513
vn 0.27299 -0.4492986 -0.8506513
vn 0.27299 -0.4492986 -0.8506513
vn 0.27299 -0.4492986 -0.8506513
vn 0.27299 -0.4492986 -0.8506513
vn 0.27299 -0.4492986 -0.8506513
vn 0.27299 -0.4492986 -0.8506513
vn 0.27299 -0.4492986 -0.8506513
vn 0.27299 -0.4492986 -0.8506513
vn 0.27299 -0.4492986 -0.8506513
vn 0.27299 -0.4492986 -0.8506513
vn 0.27299 -0.4492986 -0.8506513
vn 0.27299 -0.4492986 -0.8506513
vn 0.27299 -0.4492986 -0.8506513
vn 0.27299 -0.4492986 -0.8506513
vn 0.27299 -0.4492986 -0.8506513
vn 0.27299 -0.4492986 -0.8506513
vn 0.27299 -0.4492986 -0.8506513
vn 0.27299 -0.4492986 -0.8506513
vn 0.27299 -0.4492986 -0.8506513
vn 0.27299 -0.4492986 -0.8506513
vn 0.27299 -0.4492986 -0.8506513
vn 0.27299 -0.4492986 -0.8506513
vn 0.27299 -0.4492986 -0.8506513
vn 0.27299 -0.4492986 -0.8506513
vn 0.27299 -0.4492986 -0.8506513
vn 0.27299 -0.4492986 -0.8506513
vn 0.27299 -0.4492986 -0.8506513
vn 0.27299 -0.4492986 -0.8506513
vn 0.27299 -0.4492986 -0.8506513
vn 0.27299 -0.4492986 -0.8506513
vn 0.27299 -0.4492986 -0.8506513
vn 0.27299 -0.4492986 -0.8506513
vn 0.27299 -0.4492986 -0.8506513
vn 0.27299 -0.4492986 -0.8506513
vn 0.27299 -0.4492986 -0.8506513
vn -0.1073187 0.8644949 -0.4910516
vn 0.1377731 0.8933816 -0.4276544
vn 0.3906155 0.8598342 -0.3287933
vn -0.1073186 0.8644947 -0.4910515
vn 0.770657 0.631397 -0.08617426
vn 0.8978563 0.4365072 0.05758377
vn 0.9560121 0.2253431 0.1877802
vn 0.9560121 0.2253431 0.1877802
vn -0.1073188 0.8644948 -0.4910515
vn -0.8421711 -0.5390176 0.01443086
vn -0.8421711 -0.5390176 0.01443086
vn -0.8421711 -0.5390176 0.01443086
vn -0.8421711 -0.5390176 0.01443086
vn -0.8421711 -0.5390176 0.01443086
vn -0.8421711 -0.5390176 0.01443086
vn -0.8421711 -0.5390176 0.01443087
vn -0.842171 -0.5390176 0.01443087
vn 0.3999733 -0.6065299 0.6871266
vn -0.2729903 0.4492992 0.8506509
vn -0.2729898 0.4492987 0.8506513
vn -0.2729899 0.4492988 0.8506512
vn -0.2729898 0.4492987 0.8506513
vn -0.2729898 0.4492987 0.8506513
vn -0.27299 0.4492989 0.8506511
vn -0.27299 0.4492989 0.8506511
vn -0.27299 0.4492989 0.8506511
vn -0.27299 0.4492989 0.8506511
vn -0.27299 0.4492989 0.8506511
vn -0.27299 0.4492989 0.8506511
vn -0.27299 0.4492989 0.8506511
vn -0.27299 0.4492989 0.8506511
vn -0.2729898 0.4492989 0.8506512
vn -0.2729897 0.4492988 0.8506513
vn -0.2729898 0.4492989 0.8506512
vn -0.2729898 0.4492989 0.8506512
vn -0.2729898 0.4492989 0.8506512
vn -0.2729898 0.4492989 0.8506512
vn -0.2729898 0.4492989 0.8506512
vn -0.2729898 0.4492989 0.8506512
vn -0.2729898 0.4492989 0.8506512
vn -0.2729897 0.4492987 0.8506513
vn -0.2729897 0.4492987 0.8506514
vn -0.2729897 0.4492987 0.8506514
vn -0.2729897 0.4492987 0.8506514
vn -0.2729897 0.4492987 0.8506514
vn -0.2729897 0.4492987 0.8506514
vn -0.2729897 0.4492987 0.8506514
vn -0.2729898 0.4492987 0.8506513
vn -0.2729898 0.4492985 0.8506514
vn -0.2729898 0.4492985 0.8506514
vn -0.2729898 0.4492985 0.8506514
vn -0.2729898 0.4492985 0.8506514
vn -0.2729898 0.4492985 0.8506514
vn -0.2729898 0.4492985 0.8506514
vn -0.2729898 0.4492985 0.8506514
vn -0.2729897 0.4492984 0.8506514
vn -0.2729898 0.4492987 0.8506513
vn -0.2729898 0.4492987 0.8506513
vn -0.2729898 0.4492987 0.8506513

f 1//1 2//2 3//3
f 4//4 1//1 3//3
f 3//3 5//5 4//4
f 3//3 6//6 5//5
f 5//5 6//6 7//7
f 8//8 7//7 6//6
f 9//9 8//8 6//6
f 10//10 9//9 6//6
f 9//9 10//10 11//11
f 11//11 10//10 12//12
f 13//13 11//11 12//12
f 13//13 12//12 14//14
f 13//13 14//14 15//15
f 15//15 14//14 16//16
f 15//15 16//16 17//17
f 18//18 17//17 16//16
f 19//19 17//17 18//18
f 19//19 18//18 20//20
f 21//21 19//19 20//20
f 22//22 19//19 21//21
f 22//22 21//21 23//23
f 24//24 22//22 23//23
f 24//24 23//23 25//25
f 26//26 24//24 25//25
f 26//26 25//25 27//27
f 28//28 26//26 27//27
f 28//28 27//27 29//29
f 29//29 27//27 30//30
f 31//31 29//29 30//30
f 31//31 30//30 32//32
f 33//33 31//31 32//32
f 33//33 32//32 34//34
f 35//35 33//33 34//34
f 35//35 34//34 36//36
f 37//37 35//35 36//36
f 37//37 36//36 38//38
f 39//39 37//37 38//38
f 39//39 38//38 40//40
f 41//41 39//39 40//40
f 41//41 40//40 42//42
f 41//41 42//42 43//43
f 43//43 42//42 44//44
f 45//45 43//43 44//44
f 45//45 44//44 46//46
f 47//47 45//45 46//46
f 48//48 45//45 47//47
f 48//48 47//47 49//49
f 50//50 48//48 49//49
f 50//50 49//49 51//51
f 52//52 50//50 51//51
f 52//52 51//51 53//53
f 54//54 52//52 53//53
f 55//55 54//54 53//53
f 55//55 53//53 56//56
f 55//55 56//56 57//57
f 57//57 56//56 58//58
f 57//57 58//58 59//59
f 59//59 58//58 60//60
f 59//59 60//60 61//61
f 61//61 60//60 62//62
f 61//61 62//62 63//63
f 63//63 62//62 64//64
f 63//63 64//64 65//65
f 65//65 64//64 66//66
f 65//65 66//66 67//67
f 68//68 67//67 66//66
f 69//69 67//67 68//68
f 69//69 68//68 70//70
f 71//71 69//69 70//70
f 72//72 71//71 73//73
f 74//74 75//75 76//76
f 77//77 74//74 76//76
f 75//75 77//77 76//76
f 78//78 75//75 74//74
f 79//79 75//75 78//78
f 78//78 74//74 80//80
f 81//81 78//78 80//80
f 82//82 78//78 81//81
f 82//82 83//83 78//78
f 83//83 84//84 79//79
f 84//84 85//85 79//79
f 80//80 74//74 86//86
f 87//87 80//80 86//86
f 81//81 80//80 87//87
f 86//86 74//74 88//88
f 88//88 74//74 77//77
f 86//86 88//88 89//89
f 90//90 86//86 89//89
f 87//87 86//86 90//90
f 75//75 91//91 77//77
f 90//90 89//89 92//92
f 90//90 92//92 93//93
f 94//94 90//90 93//93
f 95//95 83//83 82//82
f 95//95 82//82 81//81
f 95//95 81//81 87//87
f 95//95 87//87 90//90
f 95//95 96//96 83//83
f 97//97 91//91 75//75
f 97//97 98//98 91//91
f 97//97 99//99 98//98
f 100//100 95//95 101//101
f 102//102 103//103 104//104
f 102//102 104//104 105//105
f 102//102 105//105 106//106
f 106//106 105//105 107//107
f 108//108 102//102 106//106
f 109//109 102//102 108//108
f 110//110 108//108 106//106
f 111//111 112//112 113//113
f 111//111 113//113 114//114
f 111//111 114//114 115//115
f 111//111 115//115 116//116
f 111//111 116//116 117//117
f 117//117 118//118 111//111
f 118//118 119//119 111//111
f 120//120 111//111 119//119
f 120//120 121//121 111//111
f 121//121 122//122 111//111
f 111//111 122//122 123//123
f 114//114 113//113 124//124
f 124//124 113//113 125//125
f 125//125 113//113 126//126
f 126//126 113//113 127//127
f 127//127 113//113 128//128
f 128//128 113//113 129//129
f 129//129 113//113 130//130
f 130//130 113//113 131//131
f 131//131 113//113 132//132
f 132//132 113//113 133//133
f 133//133 113//113 134//134
f 133//133 134//134 135//135
f 135//135 134//134 136//136
f 134//134 137//137 136//136
f 137//137 134//134 138//138
f 138//138 134//134 139//139
f 139//139 134//134 140//140
f 140//140 134//134 141//141
f 134//134 142//142 141//141
f 134//134 143//143 142//142
f 134//134 144//144 143//143
f 144//144 134//134 145//145
f 145//145 134//134 146//146
f 147//147 134//134 148//148
f 149//149 150//150 151//151
f 149//149 152//152 150//150
f 151//151 150//150 153//153
f 151//151 153//153 154//154
f 154//154 153//153 155//155
f 154//154 155//155 156//156
f 152//152 157//157 150//150
f 158//158 159//159 160//160
f 161//161 159//159 158//158
f 162//162 159//159 161//161
f 163//163 162//162 161//161
f 164//164 162//162 163//163
f 165//165 162//162 164//164
f 9//9 166//166 8//8
f 166//166 9//9 167//167
f 168//168 169//169 170//170
f 168//168 171//171 169//169
f 172//172 169//169 173//173
f 174//174 169//169 172//172
f 169//169 174//174 175//175
f 176//176 169//169 175//175
f 177//177 169//169 176//176
f 178//178 169//169 177//177
f 178//178 179//179 169//169
f 179//179 180//180 169//169
f 180//180 181//181 169//169
f 182//182 181//181 180//180
f 182//182 183//183 181//181
f 183//183 184//184 181//181
f 184//184 185//185 181//181
f 185//185 186//186 181//181
f 186//186 187//187 181//181
f 187//187 188//188 181//181
f 188//188 189//189 181//181
f 181//181 189//189 190//190
f 181//181 190//190 191//191
f 192//192 181//181 191//191
f 193//193 181//181 192//192
f 194//194 181//181 193//193
f 195//195 181//181 194//194
f 195//195 196//196 181//181
f 196//196 197//197 198//198
f 196//196 198//198 199//199
f 199//199 200//200 196//196
f 196//196 200//200 201//201
f 201//201 202//202 196//196
f 196//196 202//202 203//203
f 196//196 203//203 204//204
f 205//205 196//196 206//206
f 207//207 196//196 205//205
