v 90.78514 69.28987 -86.88354
v 89.32117 51.54971 -97.88483
v 90.78514 69.28987 -86.88354
v 90.78514 69.28987 -86.88354
v 93.28142 67.79816 -84.81026
v 94.27993 67.20148 -83.98095
v 94.27993 67.20148 -83.98095
v 92.81596 49.46132 -94.98224
v 91.35199 31.72115 -105.9835
v 94.1837 67.08755 -83.78443
v 90.48593 30.69582 -104.2149
v 94.17175 67.07339 -83.76002
v 90.37831 30.56841 -103.9951
v 94.16839 67.06941 -83.75316
v 90.34809 30.53264 -103.9334
v 94.13065 67.02475 -83.6761
v 90.00851 30.13061 -103.2399
v 93.66546 66.474 -82.7261
v 89.95682 30.06942 -103.1344
v 93.22439 65.95183 -81.82536
v 93.17365 65.89175 -81.72175
v 89.90218 30.00472 -103.0228
v 93.06782 65.76646 -81.50562
v 89.89042 29.9908 -102.9987
v 92.78717 65.4342 -80.9325
v 89.85923 29.95388 -102.9351
v 92.86317 65.3302 -80.77489
v 90.27774 29.38116 -102.0672
v 90.54327 29.01781 -101.5166
v 92.88203 65.30439 -80.73578
v 90.71298 28.78555 -101.1647
v 92.88764 65.29671 -80.72414
v 90.76349 28.71643 -101.0599
v 92.93005 65.23866 -80.63619
v 91.14523 28.19404 -100.2684
v 93.41667 64.57275 -79.62712
v 91.1993 28.12005 -100.1562
v 93.81869 64.0226 -78.79347
v 91.24397 28.05892 -100.0636
v 94.21605 63.47882 -77.96947
v 91.28812 27.9985 -99.97205
v 94.32447 63.44802 -77.93424
v 92.26392 27.72131 -99.65492
v 94.5674 63.37901 -77.85529
v 94.45026 27.10025 -98.94437
v 95.24513 63.1865 -77.63503
v 95.51617 63.1095 -77.54694
v 94.55568 27.0703 -98.9101
v 96.44035 62.84698 -77.24658
v 94.65836 27.04113 -98.87673
v 97.20132 62.63081 -76.99927
v 94.74292 27.01711 -98.84925
v 97.72955 62.48076 -76.8276
v 94.80161 27.00044 -98.83018
v 94.80161 27.00044 -98.83018
v 97.93994 62.51308 -76.90772
v 96.69513 27.29138 -99.5513
v 98.00186 62.5226 -76.9313
v 97.25246 27.37701 -99.76356
v 98.00819 62.52357 -76.93372
v 97.30936 27.38575 -99.78522
v 98.01112 62.52402 -76.93483
v 97.33575 27.38981 -99.79527
v 98.01482 62.52459 -76.93624
v 97.36909 27.39493 -99.80798
v 98.08354 62.53515 -76.96242
v 97.98757 27.48996 -100.0435
v 101.2695 63.02467 -78.17576
v 98.34157 27.54435 -100.1783
v 101.2695 63.02467 -78.17576
v 98.34157 27.54435 -100.1783
v 101.2695 63.02467 -78.17576
v 101.2695 63.02467 -78.17576
v 102.268 62.42799 -77.34644
v 104.7643 60.93627 -75.27316
v 104.7643 60.93627 -75.27316
v 104.7643 60.93628 -75.27316
v 101.2695 63.02467 -78.17576
v 101.2695 63.02467 -78.17576
v 101.2695 63.02467 -78.17576
v 98.34157 27.54435 -100.1783
v 98.34157 27.54435 -100.1783
v 98.34157 27.54435 -100.1783
v 101.2695 63.02467 -78.17576
v 97.68438 59.84845 -72.57684
v 101.2695 63.02467 -78.17576
v 98.34157 27.54435 -100.1783
v 101.2695 63.02467 -78.17576
v 99.80554 45.28451 -89.17705
v 98.34157 27.54435 -100.1783
v 103.3003 43.19611 -86.27445
v 98.34158 27.54437 -100.1783
v 98.34157 27.54435 -100.1783
v 99.34008 26.94767 -99.34902
v 94.75644 24.36813 -94.57942
v 98.34157 27.54435 -100.1783
v 97.68438 59.84845 -72.57684
v 101.8364 25.45595 -97.27574
v 94.75644 24.36813 -94.57942
v 94.80161 27.00044 -98.83018
v 94.80161 27.00044 -98.83018
v 89.32117 51.54971 -97.88483
v 90.78514 69.28987 -86.88354
v 90.78514 69.28987 -86.88354
v 93.28142 67.79816 -84.81026
v 92.81596 49.46132 -94.98224
v 94.27993 67.20148 -83.98095
v 89.9044 32.5862 -107.1858
v 87.85721 33.80956 -108.8861
v 91.35199 31.72115 -105.9835
v 90.78514 69.28987 -86.88354
v 87.79962 65.75533 -80.78663
v 90.65738 61.84457 -74.8606
v 92.78717 65.4342 -80.9325
v 93.06782 65.76646 -81.50562
v 93.17365 65.89175 -81.72175
v 93.22439 65.95183 -81.82536
v 93.66546 66.474 -82.7261
v 94.13065 67.02475 -83.6761
v 94.16839 67.06941 -83.75316
v 94.17175 67.07339 -83.76002
v 94.1837 67.08755 -83.78443
v 94.27993 67.20148 -83.98095
v 92.86317 65.3302 -80.77489
v 92.88203 65.30439 -80.73578
v 92.88764 65.29671 -80.72414
v 92.93005 65.23866 -80.63619
v 93.41667 64.57275 -79.62712
v 93.81869 64.0226 -78.79347
v 94.21605 63.47882 -77.96947
v 94.32447 63.44802 -77.93424
v 94.5674 63.37901 -77.85529
v 95.24513 63.1865 -77.63503
v 97.68438 59.84845 -72.57684
v 95.51617 63.1095 -77.54694
v 96.44035 62.84698 -77.24658
v 97.20132 62.63081 -76.99927
v 97.72955 62.48076 -76.8276
v 97.93994 62.51308 -76.90772
v 98.00186 62.5226 -76.9313
v 98.00819 62.52357 -76.93372
v 98.01112 62.52402 -76.93483
v 98.01482 62.52459 -76.93624
v 98.08354 62.53515 -76.96242
v 101.2695 63.02467 -78.17576
v 101.2695 63.02467 -78.17576
v 101.2695 63.02467 -78.17576
v 104.7643 60.93627 -75.27316
v 90.78514 69.28987 -86.88354
v 84.87169 30.27502 -102.7892
v 87.79962 65.75533 -80.78663
v 89.32117 51.54971 -97.88483
v 87.72945 26.36425 -96.86317
v 90.65738 61.84457 -74.8606
v 94.75644 24.36813 -94.57942
v 97.68438 59.84845 -72.57684
v 87.85721 33.80956 -108.8861
v 104.7643 60.93628 -75.27316
v 99.80554 45.28451 -89.17705
v 101.2695 63.02467 -78.17576
v 103.3003 43.19611 -86.27445
v 98.34158 27.54437 -100.1783
v 101.8364 25.45595 -97.27574
v 99.34008 26.94767 -99.34902
v 98.34157 27.54435 -100.1783
v 91.35199 31.72115 -105.9835
v 84.87169 30.27502 -102.7892
v 89.9044 32.5862 -107.1858
v 84.87169 30.27502 -102.7892
v 87.85721 33.80956 -108.8861
v 91.35199 31.72115 -105.9835
v 90.48593 30.69582 -104.2149
v 91.35199 31.72115 -105.9835
v 90.37831 30.56841 -103.9951
v 90.34809 30.53264 -103.9334
v 90.00851 30.13061 -103.2399
v 89.95682 30.06942 -103.1344
v 89.90218 30.00472 -103.0228
v 89.89042 29.9908 -102.9987
v 89.85923 29.95388 -102.9351
v 87.72945 26.36425 -96.86317
v 90.27774 29.38116 -102.0672
v 90.54327 29.01781 -101.5166
v 90.71298 28.78555 -101.1647
v 90.76349 28.71643 -101.0599
v 91.14523 28.19404 -100.2684
v 91.1993 28.12005 -100.1562
v 91.24397 28.05892 -100.0636
v 91.28812 27.9985 -99.97205
v 92.26392 27.72131 -99.65492
v 94.45026 27.10025 -98.94437
v 94.55568 27.0703 -98.9101
v 94.65836 27.04113 -98.87673
v 94.74292 27.01711 -98.84925
v 94.80161 27.00044 -98.83018
v 94.75644 24.36813 -94.57942
v 94.80161 27.00044 -98.83018
v 96.69513 27.29138 -99.5513
v 97.25246 27.37701 -99.76356
v 97.30936 27.38575 -99.78522
v 97.33575 27.38981 -99.79527
v 97.36909 27.39493 -99.80798
v 97.98757 27.48996 -100.0435
v 98.34157 27.54435 -100.1783
v 99.34008 26.94767 -99.34902
v 98.34157 27.54435 -100.1783
v 101.8364 25.45595 -97.27574

vn -0.6989571 0.4176802 -0.5805188
vn -0.6989572 0.4176801 -0.5805189
vn -0.4851584 0.868847 -0.09862178
vn 0.06996018 0.8477691 0.525731
vn 0.06996018 0.8477691 0.525731
vn 0.9181227 -0.2608034 0.2983827
vn 0.7018263 -0.2935896 0.649034
vn 0.8574541 0.2182205 -0.4659958
vn 0.9181209 -0.2608058 0.2983862
vn 0.9181206 -0.2608061 0.2983869
vn 0.9181207 -0.260806 0.2983866
vn 0.9181212 -0.2608056 0.2983858
vn 0.9181215 -0.2608052 0.2983848
vn 0.9181193 -0.2608074 0.2983898
vn 0.9181204 -0.2608063 0.2983874
vn 0.9181205 -0.2608061 0.298387
vn 0.9181206 -0.2608062 0.2983871
vn 0.9181204 -0.2608062 0.2983872
vn 0.9181206 -0.2608061 0.2983869
vn 0.9181205 -0.2608063 0.2983872
vn 0.9181209 -0.2608057 0.2983863
vn 0.9181215 -0.260805 0.298385
vn 0.9181206 -0.2608059 0.2983868
vn 0.9181204 -0.2608064 0.2983875
vn 0.966453 -0.1881664 0.17482
vn 0.9395324 0.1211137 -0.3203283
vn 0.9250344 0.142132 -0.3522923
vn 0.9250346 0.1421316 -0.3522916
vn 0.9250348 0.1421315 -0.3522913
vn 0.9250357 0.1421305 -0.3522897
vn 0.9250361 0.1421299 -0.3522886
vn 0.9250367 0.1421293 -0.3522871
vn 0.9250357 0.1421305 -0.3522895
vn 0.9250351 0.1421309 -0.3522905
vn 0.9250351 0.1421312 -0.352291
vn 0.9250349 0.1421312 -0.3522911
vn 0.9250353 0.1421307 -0.3522901
vn 0.9250352 0.142131 -0.3522907
vn 0.9250347 0.1421316 -0.3522916
vn 0.8984535 0.1754541 -0.4024887
vn 0.4498022 0.4435957 -0.775178
vn 0.3900779 0.4618089 -0.7966
vn 0.390077 0.4618092 -0.7966004
vn 0.3900764 0.4618093 -0.7966007
vn 0.3900763 0.4618093 -0.7966006
vn 0.3900767 0.4618092 -0.7966004
vn 0.3900773 0.4618092 -0.7966002
vn 0.3900768 0.4618092 -0.7966005
vn 0.3900772 0.4618092 -0.7966003
vn 0.3900768 0.4618092 -0.7966003
vn 0.3900769 0.4618093 -0.7966005
vn 0.3900773 0.4618091 -0.7966002
vn 0.2014978 0.5041492 -0.839781
vn 0.3900987 0.4618031 -0.7965933
vn -0.3733832 0.5109662 -0.7742729
vn -0.3733844 0.5109659 -0.7742724
vn -0.3733848 0.5109659 -0.7742724
vn -0.3733859 0.5109655 -0.7742719
vn -0.373384 0.5109661 -0.7742726
vn -0.3733825 0.5109666 -0.7742731
vn -0.3733799 0.5109671 -0.7742738
vn -0.3733377 0.5109783 -0.7742868
vn -0.3733642 0.5109713 -0.7742787
vn -0.3733908 0.5109644 -0.7742704
vn -0.373387 0.5109653 -0.7742717
vn -0.3733843 0.5109659 -0.7742724
vn -0.3733837 0.5109661 -0.7742727
vn -0.3733835 0.5109661 -0.7742728
vn -0.3733788 0.5109668 -0.7742746
vn -0.2131489 0.527555 -0.8223462
vn -0.6989572 0.4176799 -0.580519
vn -0.6989572 0.4176799 -0.580519
vn -0.6989572 0.4176799 -0.580519
vn 0.06996018 0.8477691 0.525731
vn 0.3733841 -0.5109661 0.7742725
vn 0.06996018 0.8477691 0.525731
vn 0.7965341 0.2697963 -0.5410578
vn -0.4007502 0.9159051 0.0227357
vn -0.3359539 0.9357426 0.1073347
vn -0.6922202 0.4768575 -0.5416992
vn -0.6989572 0.4176799 -0.580519
vn -0.6989572 0.4176799 -0.580519
vn -0.6989572 0.4176799 -0.580519
vn -0.6880334 0.5027808 -0.5232795
vn 0.06996018 0.8477691 0.525731
vn -0.6980112 0.4283838 -0.5738186
vn -0.6989572 0.4176799 -0.580519
vn -0.6820384 0.5333747 -0.5003349
vn -0.6989619 0.4176778 -0.5805148
vn -0.7019012 0.3660228 -0.6110336
vn 0.373384 -0.5109661 0.7742725
vn -0.698974 0.4176722 -0.5805043
vn -0.06996503 -0.8477662 -0.525735
vn -0.06996018 -0.8477691 -0.525731
vn -0.06996048 -0.8477693 -0.5257307
vn 0 0 0
vn 0.373384 -0.5109661 0.7742726
vn 0.373384 -0.5109661 0.7742726
vn 0.3733841 -0.5109661 0.7742726
vn -0.06996048 -0.8477693 -0.5257307
vn -0.06996048 -0.8477693 -0.5257307
vn 0.7117333 0.3268501 -0.6217753
vn 0.7117333 0.3268501 -0.6217753
vn 0.7117333 0.3268501 -0.6217753
vn 0.7117333 0.3268501 -0.6217753
vn 0.7117333 0.3268501 -0.6217753
vn 0.7117333 0.3268501 -0.6217753
vn 0.7117333 0.3268501 -0.6217753
vn 0.7117333 0.3268501 -0.6217753
vn 0.7117333 0.3268501 -0.6217753
vn 0.06996018 0.8477691 0.525731
vn 0.06996018 0.8477691 0.525731
vn 0.06996018 0.8477691 0.525731
vn 0.06996018 0.8477691 0.525731
vn 0.06996018 0.8477691 0.525731
vn 0.06996018 0.8477691 0.525731
vn 0.06996018 0.8477691 0.525731
vn 0.06996018 0.8477691 0.525731
vn 0.06996018 0.8477691 0.525731
vn 0.06996018 0.8477691 0.525731
vn 0.06996018 0.8477691 0.525731
vn 0.06996018 0.8477691 0.525731
vn 0.06996018 0.8477691 0.525731
vn 0.06996017 0.8477691 0.525731
vn 0.06996018 0.8477691 0.525731
vn 0.06996018 0.8477691 0.525731
vn 0.06996017 0.8477691 0.525731
vn 0.06996018 0.8477691 0.525731
vn 0.06996018 0.8477691 0.525731
vn 0.06996018 0.8477691 0.525731
vn 0.06996017 0.8477691 0.525731
vn 0.06996018 0.8477691 0.525731
vn 0.06996018 0.8477691 0.525731
vn 0.06996018 0.8477691 0.525731
vn 0.06996018 0.8477691 0.525731
vn 0.06996018 0.8477691 0.525731
vn 0.06996018 0.8477691 0.525731
vn 0.06996018 0.8477691 0.525731
vn 0.06996018 0.8477691 0.525731
vn 0.06996018 0.8477691 0.525731
vn 0.06996018 0.8477691 0.525731
vn 0.06996017 0.8477691 0.525731
vn 0.06996018 0.8477691 0.525731
vn 0.06996017 0.8477691 0.525731
vn 0.06996017 0.8477691 0.525731
vn 0.06996018 0.8477691 0.525731
vn 0.06996017 0.8477691 0.525731
vn 0.06996017 0.8477691 0.525731
vn -0.9181208 0.260806 -0.2983866
vn -0.986899 0.135629 -0.08737967
vn -0.9893702 -0.008383377 0.1451768
vn -0.9181206 0.2608059 -0.2983865
vn -0.8006436 -0.2666509 0.5365325
vn -0.6094459 -0.3809061 0.6953318
vn -0.3900767 -0.4618093 0.7966004
vn -0.3900768 -0.4618093 0.7966004
vn -0.9181207 0.260806 -0.2983867
vn 0.7117333 0.3268501 -0.6217753
vn 0.7117333 0.3268501 -0.6217753
vn 0.7117333 0.3268501 -0.6217753
vn 0.7117333 0.3268501 -0.6217753
vn 0.7117333 0.3268501 -0.6217753
vn 0.7117333 0.3268501 -0.6217753
vn 0.7117333 0.3268501 -0.6217753
vn 0.7117333 0.3268501 -0.6217753
vn 0.6702444 -0.5809305 0.4618357
vn -0.06996069 -0.8477688 -0.5257314
vn -0.06996033 -0.8477691 -0.5257308
vn -0.06996042 -0.8477691 -0.5257309
vn -0.06996033 -0.8477692 -0.5257308
vn -0.06996033 -0.8477692 -0.5257308
vn -0.06996048 -0.847769 -0.5257311
vn -0.06996048 -0.847769 -0.5257311
vn -0.06996048 -0.847769 -0.5257311
vn -0.06996048 -0.847769 -0.5257311
vn -0.06996048 -0.847769 -0.5257311
vn -0.06996047 -0.847769 -0.525731
vn -0.06996048 -0.847769 -0.5257311
vn -0.06996047 -0.847769 -0.525731
vn -0.06996048 -0.8477692 -0.5257308
vn -0.06996039 -0.8477692 -0.5257308
vn -0.06996048 -0.8477692 -0.5257308
vn -0.06996048 -0.8477692 -0.5257308
vn -0.06996048 -0.8477692 -0.5257308
vn -0.06996048 -0.8477692 -0.5257308
vn -0.06996048 -0.8477692 -0.5257308
vn -0.06996048 -0.8477692 -0.5257308
vn -0.06996048 -0.8477692 -0.5257308
vn -0.06996033 -0.8477693 -0.5257307
vn -0.0699603 -0.8477693 -0.5257307
vn -0.0699603 -0.8477693 -0.5257307
vn -0.0699603 -0.8477693 -0.5257307
vn -0.0699603 -0.8477693 -0.5257307
vn -0.0699603 -0.8477693 -0.5257307
vn -0.0699603 -0.8477693 -0.5257307
vn -0.06996027 -0.8477693 -0.5257308
vn -0.06996005 -0.8477693 -0.5257307
vn -0.06996005 -0.8477693 -0.5257307
vn -0.06996005 -0.8477693 -0.5257307
vn -0.06996005 -0.8477693 -0.5257307
vn -0.06996005 -0.8477693 -0.5257307
vn -0.06996005 -0.8477693 -0.5257307
vn -0.06996005 -0.8477693 -0.5257307
vn -0.06996005 -0.8477693 -0.5257307
vn -0.06996033 -0.8477692 -0.5257308
vn -0.06996033 -0.8477692 -0.5257308
vn -0.06996033 -0.8477691 -0.5257308

f 1//1 2//2 3//3
f 4//4 1//1 3//3
f 3//3 5//5 4//4
f 3//3 6//6 5//5
f 5//5 6//6 7//7
f 8//8 7//7 6//6
f 9//9 8//8 6//6
f 10//10 9//9 6//6
f 9//9 10//10 11//11
f 11//11 10//10 12//12
f 13//13 11//11 12//12
f 13//13 12//12 14//14
f 13//13 14//14 15//15
f 15//15 14//14 16//16
f 15//15 16//16 17//17
f 18//18 17//17 16//16
f 19//19 17//17 18//18
f 19//19 18//18 20//20
f 21//21 19//19 20//20
f 22//22 19//19 21//21
f 22//22 21//21 23//23
f 24//24 22//22 23//23
f 24//24 23//23 25//25
f 26//26 24//24 25//25
f 26//26 25//25 27//27
f 28//28 26//26 27//27
f 28//28 27//27 29//29
f 29//29 27//27 30//30
f 31//31 29//29 30//30
f 31//31 30//30 32//32
f 33//33 31//31 32//32
f 33//33 32//32 34//34
f 35//35 33//33 34//34
f 35//35 34//34 36//36
f 37//37 35//35 36//36
f 37//37 36//36 38//38
f 39//39 37//37 38//38
f 39//39 38//38 40//40
f 41//41 39//39 40//40
f 41//41 40//40 42//42
f 41//41 42//42 43//43
f 43//43 42//42 44//44
f 45//45 43//43 44//44
f 45//45 44//44 46//46
f 47//47 45//45 46//46
f 48//48 45//45 47//47
f 48//48 47//47 49//49
f 50//50 48//48 49//49
f 50//50 49//49 51//51
f 52//52 50//50 51//51
f 52//52 51//51 53//53
f 54//54 52//52 53//53
f 55//55 54//54 53//53
f 55//55 53//53 56//56
f 55//55 56//56 57//57
f 57//57 56//56 58//58
f 57//57 58//58 59//59
f 59//59 58//58 60//60
f 59//59 60//60 61//61
f 61//61 60//60 62//62
f 61//61 62//62 63//63
f 63//63 62//62 64//64
f 63//63 64//64 65//65
f 65//65 64//64 66//66
f 65//65 66//66 67//67
f 68//68 67//67 66//66
f 69//69 67//67 68//68
f 69//69 68//68 70//70
f 71//71 69//69 70//70
f 72//72 71//71 73//73
f 74//74 75//75 76//76
f 77//77 74//74 76//76
f 75//75 77//77 76//76
f 78//78 75//75 74//74
f 79//79 75//75 78//78
f 78//78 74//74 80//80
f 81//81 78//78 80//80
f 82//82 78//78 81//81
f 82//82 83//83 78//78
f 83//83 84//84 79//79
f 84//84 85//85 79//79
f 80//80 74//74 86//86
f 87//87 80//80 86//86
f 81//81 80//80 87//87
f 86//86 74//74 88//88
f 88//88 74//74 77//77
f 86//86 88//88 89//89
f 90//90 86//86 89//89
f 87//87 86//86 90//90
f 75//75 91//91 77//77
f 90//90 89//89 92//92
f 90//90 92//92 93//93
f 94//94 90//90 93//93
f 95//95 83//83 82//82
f 95//95 82//82 81//81
f 95//95 81//81 87//87
f 95//95 87//87 90//90
f 95//95 96//96 83//83
f 97//97 91//91 75//75
f 97//97 98//98 91//91
f 97//97 99//99 98//98
f 100//100 95//95 101//101
f 102//102 103//103 104//104
f 102//102 104//104 105//105
f 102//102 105//105 106//106
f 106//106 105//105 107//107
f 108//108 102//102 106//106
f 109//109 102//102 108//108
f 110//110 108//108 106//106
f 111//111 112//112 113//113
f 111//111 113//113 114//114
f 111//111 114//114 115//115
f 111//111 115//115 116//116
f 111//111 116//116 117//117
f 117//117 118//118 111//111
f 118//118 119//119 111//111
f 120//120 111//111 119//119
f 120//120 121//121 111//111
f 121//121 122//122 111//111
f 111//111 122//122 123//123
f 114//114 113//113 124//124
f 124//124 113//113 125//125
f 125//125 113//113 126//126
f 126//126 113//113 127//127
f 127//127 113//113 128//128
f 128//128 113//113 129//129
f 129//129 113//113 130//130
f 130//130 113//113 131//131
f 131//131 113//113 132//132
f 132//132 113//113 133//133
f 133//133 113//113 134//134
f 133//133 134//134 135//135
f 135//135 134//134 136//136
f 134//134 137//137 136//136
f 137//137 134//134 138//138
f 138//138 134//134 139//139
f 139//139 134//134 140//140
f 140//140 134//134 141//141
f 134//134 142//142 141//141
f 134//134 143//143 142//142
f 134//134 144//144 143//143
f 144//144 134//134 145//145
f 145//145 134//134 146//146
f 147//147 134//134 148//148
f 149//149 150//150 151//151
f 149//149 152//152 150//150
f 151//151 150//150 153//153
f 151//151 153//153 154//154
f 154//154 153//153 155//155
f 154//154 155//155 156//156
f 152//152 157//157 150//150
f 158//158 159//159 160//160
f 161//161 159//159 158//158
f 162//162 159//159 161//161
f 163//163 162//162 161//161
f 164//164 162//162 163//163
f 165//165 162//162 164//164
f 9//9 166//166 8//8
f 166//166 9//9 167//167
f 168//168 169//169 170//170
f 168//168 171//171 169//169
f 172//172 169//169 173//173
f 174//174 169//169 172//172
f 169//169 174//174 175//175
f 176//176 169//169 175//175
f 177//177 169//169 176//176
f 178//178 169//169 177//177
f 178//178 179//179 169//169
f 179//179 180//180 169//169
f 180//180 181//181 169//169
f 182//182 181//181 180//180
f 182//182 183//183 181//181
f 183//183 184//184 181//181
f 184//184 185//185 181//181
f 185//185 186//186 181//181
f 186//186 187//187 181//181
f 187//187 188//188 181//181
f 188//188 189//189 181//181
f 181//181 189//189 190//190
f 181//181 190//190 191//191
f 192//192 181//181 191//191
f 193//193 181//181 192//192
f 194//194 181//181 193//193
f 195//195 181//181 194//194
f 195//195 196//196 181//181
f 196//196 197//197 198//198
f 196//196 198//198 199//199
f 199//199 200//200 196//196
f 196//196 200//200 201//201
f 201//201 202//202 196//196
f 196//196 202//202 203//203
f 196//196 203//203 204//204
f 205//205 196//196 206//206
f 207//207 196//196 205//205
