v 54.63812 -2.250895 -133.5965
v 46.55688 -21.55319 -133.5965
v 54.63812 -2.250895 -133.5965
v 54.63812 -2.250894 -133.5965
v 51.49255 -0.9339466 -134.6578
v 50.23433 -0.4071674 -135.0822
v 50.23433 -0.4071674 -135.0822
v 42.15308 -19.70947 -135.0823
v 34.07183 -39.01176 -135.0823
v 50.21365 -0.39851 -135.3279
v 33.88573 -38.93385 -137.2933
v 50.21108 -0.3974342 -135.3585
v 33.8626 -38.92416 -137.5681
v 50.21036 -0.3971329 -135.367
v 33.85611 -38.92145 -137.6452
v 50.20225 -0.3937378 -135.4633
v 33.78313 -38.89089 -138.5122
v 50.10228 -0.3518848 -136.651
v 33.77203 -38.88625 -138.6441
v 50.0075 -0.3122025 -137.777
v 49.9966 -0.3076382 -137.9066
v 33.76028 -38.88133 -138.7836
v 49.97386 -0.2981167 -138.1768
v 33.75776 -38.88027 -138.8137
v 49.91355 -0.2728672 -138.8932
v 33.75105 -38.87746 -138.8933
v 49.76926 -0.2124596 -139.0235
v 32.95657 -38.54484 -139.6105
v 32.45251 -38.3338 -140.0656
v 49.73347 -0.1974716 -139.0558
v 32.13032 -38.19891 -140.3565
v 49.72281 -0.1930103 -139.0654
v 32.03443 -38.15877 -140.443
v 49.6423 -0.1592999 -139.1381
v 31.30976 -37.85537 -141.0973
v 48.71852 0.2274551 -139.9721
v 31.20711 -37.8124 -141.1899
v 47.95533 0.5469761 -140.6611
v 31.12231 -37.77689 -141.2665
v 47.20099 0.8627949 -141.3421
v 31.0385 -37.74181 -141.3421
v 47.09251 0.9082108 -141.3314
v 30.06218 -37.33305 -141.2456
v 46.84946 1.009972 -141.3074
v 27.87468 -36.41722 -141.0292
v 46.17137 1.293863 -141.2403
v 45.90019 1.407398 -141.2135
v 27.76921 -36.37306 -141.0187
v 44.97552 1.794529 -141.122
v 27.66647 -36.33004 -141.0086
v 44.21415 2.113289 -141.0467
v 27.58187 -36.29462 -141.0002
v 43.68564 2.334558 -140.9944
v 27.52315 -36.27004 -140.9944
v 27.52315 -36.27004 -140.9944
v 43.55139 2.390764 -140.8196
v 26.31487 -35.76418 -139.4214
v 43.51188 2.407309 -140.7682
v 25.95922 -35.61528 -138.9584
v 43.50784 2.408998 -140.7629
v 25.92292 -35.60007 -138.9112
v 43.50597 2.409781 -140.7605
v 25.90608 -35.59303 -138.8893
v 43.5036 2.410772 -140.7574
v 25.8848 -35.58412 -138.8616
v 43.45975 2.429131 -140.7003
v 25.49014 -35.41888 -138.3478
v 41.42675 3.280283 -138.0537
v 25.26425 -35.32431 -138.0537
v 41.42674 3.280285 -138.0537
v 25.26425 -35.32431 -138.0537
v 41.42674 3.280285 -138.0537
v 41.42674 3.280285 -138.0537
v 40.16851 3.807064 -138.4782
v 37.02295 5.124012 -139.5394
v 37.02295 5.124012 -139.5394
v 37.02295 5.12401 -139.5394
v 41.42674 3.280285 -138.0537
v 41.42674 3.280285 -138.0537
v 41.42674 3.280285 -138.0537
v 25.26425 -35.32431 -138.0537
v 25.26425 -35.32431 -138.0537
v 25.26425 -35.32431 -138.0537
v 41.42674 3.280285 -138.0537
v 41.54075 3.232557 -145.4208
v 41.42674 3.280285 -138.0537
v 25.26425 -35.32431 -138.0537
v 41.42674 3.280285 -138.0537
v 33.34549 -16.02202 -138.0537
v 25.26425 -35.32431 -138.0537
v 28.9417 -14.17829 -139.5394
v 25.26426 -35.3243 -138.0537
v 25.26425 -35.32431 -138.0537
v 24.00602 -34.79753 -138.4782
v 25.37826 -35.37204 -145.4208
v 25.26425 -35.32431 -138.0537
v 41.54075 3.232557 -145.4208
v 20.86046 -33.48059 -139.5394
v 25.37826 -35.37204 -145.4208
v 27.52315 -36.27004 -140.9944
v 27.52315 -36.27004 -140.9944
v 46.55688 -21.55319 -133.5965
v 54.63812 -2.250895 -133.5965
v 54.63812 -2.250894 -133.5965
v 51.49255 -0.9339466 -134.6578
v 42.15308 -19.70947 -135.0823
v 50.23433 -0.4071674 -135.0822
v 35.89595 -39.77546 -134.4669
v 38.47563 -40.85549 -133.5965
v 34.07183 -39.01176 -135.0823
v 54.63812 -2.250895 -133.5965
v 53.99656 -1.98229 -141.2185
v 48.57145 0.2890301 -146.1163
v 49.91355 -0.2728672 -138.8932
v 49.97386 -0.2981167 -138.1768
v 49.9966 -0.3076382 -137.9066
v 50.0075 -0.3122025 -137.777
v 50.10228 -0.3518848 -136.651
v 50.20225 -0.3937378 -135.4633
v 50.21036 -0.3971329 -135.367
v 50.21108 -0.3974342 -135.3585
v 50.21365 -0.39851 -135.3279
v 50.23433 -0.4071674 -135.0822
v 49.76926 -0.2124596 -139.0235
v 49.73347 -0.1974716 -139.0558
v 49.72281 -0.1930103 -139.0654
v 49.6423 -0.1592999 -139.1381
v 48.71852 0.2274551 -139.9721
v 47.95533 0.5469761 -140.6611
v 47.20099 0.8627949 -141.3421
v 47.09251 0.9082108 -141.3314
v 46.84946 1.009972 -141.3074
v 46.17137 1.293863 -141.2403
v 41.54075 3.232557 -145.4208
v 45.90019 1.407398 -141.2135
v 44.97552 1.794529 -141.122
v 44.21415 2.113289 -141.0467
v 43.68564 2.334558 -140.9944
v 43.55139 2.390764 -140.8196
v 43.51188 2.407309 -140.7682
v 43.50784 2.408998 -140.7629
v 43.50597 2.409781 -140.7605
v 43.5036 2.410772 -140.7574
v 43.45975 2.429131 -140.7003
v 41.42675 3.280283 -138.0537
v 41.42674 3.280285 -138.0537
v 41.42674 3.280285 -138.0537
v 37.02295 5.124012 -139.5394
v 54.63812 -2.250895 -133.5965
v 37.83407 -40.58689 -141.2186
v 53.99656 -1.98229 -141.2185
v 46.55688 -21.55319 -133.5965
v 32.40896 -38.31557 -146.1163
v 48.57145 0.2890301 -146.1163
v 25.37826 -35.37204 -145.4208
v 41.54075 3.232557 -145.4208
v 38.47563 -40.85549 -133.5965
v 37.02295 5.12401 -139.5394
v 33.34549 -16.02202 -138.0537
v 41.42674 3.280285 -138.0537
v 28.9417 -14.17829 -139.5394
v 25.26426 -35.3243 -138.0537
v 20.86046 -33.48059 -139.5394
v 24.00602 -34.79753 -138.4782
v 25.26425 -35.32431 -138.0537
v 34.07183 -39.01176 -135.0823
v 37.83407 -40.58689 -141.2186
v 35.89595 -39.77546 -134.4669
v 37.83407 -40.58689 -141.2186
v 38.47563 -40.85549 -133.5965
v 34.07183 -39.01176 -135.0823
v 33.88573 -38.93385 -137.2933
v 34.07183 -39.01176 -135.0823
v 33.8626 -38.92416 -137.5681
v 33.85611 -38.92145 -137.6452
v 33.78313 -38.89089 -138.5122
v 33.77203 -38.88625 -138.6441
v 33.76028 -38.88133 -138.7836
v 33.75776 -38.88027 -138.8137
v 33.75105 -38.87746 -138.8933
v 32.40896 -38.31557 -146.1163
v 32.95657 -38.54484 -139.6105
v 32.45251 -38.3338 -140.0656
v 32.13032 -38.19891 -140.3565
v 32.03443 -38.15877 -140.443
v 31.30976 -37.85537 -141.0973
v 31.20711 -37.8124 -141.1899
v 31.12231 -37.77689 -141.2665
v 31.0385 -37.74181 -141.3421
v 30.06218 -37.33305 -141.2456
v 27.87468 -36.41722 -141.0292
v 27.76921 -36.37306 -141.0187
v 27.66647 -36.33004 -141.0086
v 27.58187 -36.29462 -141.0002
v 27.52315 -36.27004 -140.9944
v 25.37826 -35.37204 -145.4208
v 27.52315 -36.27004 -140.9944
v 26.31487 -35.76418 -139.4214
v 25.95922 -35.61528 -138.9584
v 25.92292 -35.60007 -138.9112
v 25.90608 -35.59303 -138.8893
v 25.8848 -35.58412 -138.8616
v 25.49014 -35.41888 -138.3478
v 25.26425 -35.32431 -138.0537
v 24.00602 -34.79753 -138.4782
v 25.26425 -35.32431 -138.0537
v 20.86046 -33.48059 -139.5394

vn 0.8807575 -0.3687443 0.2971433
vn 0.8807574 -0.3687444 0.2971433
vn 0.9200484 0.3203313 0.2256082
vn 0.3861876 0.9224203 3.213063E-07
vn 0.3861876 0.9224203 3.213063E-07
vn -0.9186034 0.3845895 0.09087901
vn -0.8172903 0.4954883 -0.2941569
vn -0.4755572 0.1990998 0.8568574
vn -0.9186038 0.3845893 0.0908744
vn -0.918604 0.3845894 0.09087356
vn -0.9186039 0.3845894 0.0908739
vn -0.9186039 0.3845893 0.09087491
vn -0.9186038 0.3845892 0.09087597
vn -0.9186041 0.3845899 0.0908702
vn -0.918604 0.3845896 0.09087297
vn -0.9186039 0.3845895 0.09087349
vn -0.918604 0.3845896 0.09087335
vn -0.9186039 0.3845895 0.09087326
vn -0.9186039 0.3845895 0.09087355
vn -0.918604 0.3845895 0.09087321
vn -0.9186038 0.3845895 0.09087437
vn -0.9186037 0.3845893 0.09087594
vn -0.9186038 0.3845895 0.09087376
vn -0.918604 0.3845896 0.09087289
vn -0.8954512 0.3748962 0.2400424
vn -0.6187752 0.2590606 0.7416232
vn -0.590277 0.2471293 0.7684402
vn -0.5902775 0.2471295 0.7684397
vn -0.5902778 0.2471297 0.7684395
vn -0.5902792 0.2471304 0.7684382
vn -0.5902801 0.2471309 0.7684373
vn -0.5902812 0.2471316 0.7684362
vn -0.5902793 0.2471305 0.768438
vn -0.5902784 0.24713 0.7684388
vn -0.5902781 0.2471298 0.7684392
vn -0.5902781 0.2471297 0.7684392
vn -0.5902788 0.2471301 0.7684384
vn -0.5902784 0.2471299 0.7684389
vn -0.5902776 0.2471295 0.7684397
vn -0.5423443 0.2270614 0.8088918
vn 0.02303384 -0.009644115 0.9996883
vn 0.08382253 -0.03509433 0.9958625
vn 0.08382351 -0.03509477 0.9958625
vn 0.08382414 -0.03509508 0.9958625
vn 0.08382414 -0.03509505 0.9958624
vn 0.08382375 -0.03509486 0.9958624
vn 0.08382329 -0.03509453 0.9958625
vn 0.08382368 -0.03509478 0.9958625
vn 0.08382335 -0.03509462 0.9958626
vn 0.08382366 -0.03509473 0.9958624
vn 0.08382365 -0.03509472 0.9958625
vn 0.08382325 -0.03509454 0.9958625
vn 0.263205 -0.1101958 0.9584259
vn 0.08380187 -0.03508559 0.9958646
vn 0.7088232 -0.2967615 0.6399238
vn 0.7088239 -0.2967619 0.6399227
vn 0.7088243 -0.296762 0.6399225
vn 0.7088248 -0.2967624 0.6399215
vn 0.7088237 -0.2967617 0.6399231
vn 0.708823 -0.2967611 0.6399244
vn 0.7088214 -0.2967601 0.6399264
vn 0.7087969 -0.2967438 0.6399612
vn 0.7088122 -0.2967541 0.6399394
vn 0.7088278 -0.2967642 0.6399175
vn 0.7088255 -0.2967629 0.6399207
vn 0.7088239 -0.2967618 0.6399229
vn 0.7088235 -0.2967616 0.6399233
vn 0.7088234 -0.2967616 0.6399236
vn 0.7088204 -0.2967604 0.6399274
vn 0.5999261 -0.2511699 0.759607
vn 0.8807573 -0.3687446 0.2971433
vn 0.8807573 -0.3687446 0.2971433
vn 0.8807573 -0.3687446 0.2971433
vn 0.3861876 0.9224203 3.213063E-07
vn -0.7088238 0.2967616 -0.639923
vn 0.3861876 0.9224203 3.213063E-07
vn -0.3862303 0.1617015 0.9081184
vn 0.8656741 0.461915 0.1929841
vn 0.8152489 0.5543899 0.1673955
vn 0.9059697 -0.3022757 0.2963924
vn 0.8807573 -0.3687446 0.2971433
vn 0.8807573 -0.3687446 0.2971433
vn 0.8807573 -0.3687446 0.2971433
vn 0.915851 -0.2717715 0.2955629
vn 0.3861876 0.9224203 3.213063E-07
vn 0.8855755 -0.3570336 0.297125
vn 0.8807573 -0.3687446 0.2971433
vn 0.9265204 -0.2345886 0.2941569
vn 0.8807592 -0.3687454 0.297137
vn 0.8559827 -0.4234638 0.2966012
vn -0.7088237 0.2967617 -0.639923
vn 0.8807638 -0.3687473 0.2971207
vn -0.3861815 -0.9224229 1.741687E-06
vn -0.3861876 -0.9224203 -3.213063E-07
vn -0.3861875 -0.9224204 -7.333964E-07
vn 0 0 0
vn -0.7088238 0.2967617 -0.6399232
vn -0.7088237 0.2967617 -0.6399231
vn -0.7088238 0.2967617 -0.6399232
vn -0.3861875 -0.9224204 -7.333964E-07
vn -0.3861875 -0.9224204 -7.333964E-07
vn -0.2740912 0.1147526 0.954833
vn -0.2740912 0.1147526 0.9548329
vn -0.2740912 0.1147526 0.954833
vn -0.2740912 0.1147526 0.954833
vn -0.2740912 0.1147526 0.954833
vn -0.2740912 0.1147526 0.954833
vn -0.2740912 0.1147526 0.954833
vn -0.2740912 0.1147526 0.954833
vn -0.2740912 0.1147526 0.954833
vn 0.3861876 0.9224203 3.213063E-07
vn 0.3861876 0.9224203 3.213063E-07
vn 0.3861876 0.9224203 3.213063E-07
vn 0.3861876 0.9224203 3.213063E-07
vn 0.3861876 0.9224203 3.213063E-07
vn 0.3861876 0.9224203 3.213063E-07
vn 0.3861876 0.9224203 3.213063E-07
vn 0.3861876 0.9224203 3.213063E-07
vn 0.3861876 0.9224203 3.213063E-07
vn 0.3861876 0.9224203 3.213063E-07
vn 0.3861876 0.9224203 3.213063E-07
vn 0.3861876 0.9224203 3.213063E-07
vn 0.3861876 0.9224203 3.213063E-07
vn 0.3861876 0.9224203 3.213063E-07
vn 0.3861876 0.9224203 3.213063E-07
vn 0.3861876 0.9224203 3.213063E-07
vn 0.3861876 0.9224203 3.213063E-07
vn 0.3861876 0.9224203 3.213063E-07
vn 0.3861876 0.9224203 3.213063E-07
vn 0.3861876 0.9224203 3.213063E-07
vn 0.3861876 0.9224203 3.213063E-07
vn 0.3861876 0.9224203 3.213063E-07
vn 0.3861876 0.9224203 3.213063E-07
vn 0.3861876 0.9224203 3.213063E-07
vn 0.3861876 0.9224203 3.213063E-07
vn 0.3861876 0.9224203 3.213063E-07
vn 0.3861876 0.9224203 3.213063E-07
vn 0.3861876 0.9224203 3.213063E-07
vn 0.3861876 0.9224203 3.213063E-07
vn 0.3861876 0.9224203 3.213063E-07
vn 0.3861876 0.9224203 3.213063E-07
vn 0.3861876 0.9224203 3.213063E-07
vn 0.3861876 0.9224203 3.213063E-07
vn 0.3861876 0.9224203 3.213063E-07
vn 0.3861876 0.9224203 3.213063E-07
vn 0.3861876 0.9224203 3.213063E-07
vn 0.3861876 0.9224203 3.213063E-07
vn 0.3861876 0.9224203 3.213063E-07
vn 0.918604 -0.3845894 -0.09087393
vn 0.8676 -0.3632356 -0.3396032
vn 0.7502542 -0.3141066 -0.5817695
vn 0.9186038 -0.3845893 -0.09087396
vn 0.3919797 -0.1641087 -0.9052184
vn 0.1510511 -0.06323966 -0.9865012
vn -0.08382381 0.03509479 -0.9958624
vn -0.08382379 0.03509478 -0.9958625
vn 0.9186038 -0.3845895 -0.09087384
vn -0.2740912 0.1147526 0.954833
vn -0.2740912 0.1147526 0.954833
vn -0.2740912 0.1147526 0.954833
vn -0.2740912 0.1147526 0.954833
vn -0.2740912 0.1147526 0.954833
vn -0.2740912 0.1147526 0.954833
vn -0.2740912 0.1147526 0.954833
vn -0.2740912 0.1147525 0.9548329
vn -0.9407748 0.1740122 -0.2909686
vn -0.386187 -0.9224206 -1.023833E-07
vn -0.3861876 -0.9224203 -5.273513E-07
vn -0.3861875 -0.9224204 -5.1126E-07
vn -0.3861876 -0.9224203 -5.273513E-07
vn -0.3861876 -0.9224203 -5.273513E-07
vn -0.3861873 -0.9224204 -3.513238E-07
vn -0.3861873 -0.9224204 -3.513237E-07
vn -0.3861873 -0.9224204 -3.513242E-07
vn -0.3861873 -0.9224204 -3.513235E-07
vn -0.3861873 -0.9224204 -3.513235E-07
vn -0.3861873 -0.9224204 -3.51324E-07
vn -0.3861873 -0.9224204 -3.51326E-07
vn -0.3861873 -0.9224204 -3.513213E-07
vn -0.3861874 -0.9224204 -5.731161E-07
vn -0.3861876 -0.9224204 -6.126981E-07
vn -0.3861874 -0.9224204 -5.751367E-07
vn -0.3861874 -0.9224204 -5.751367E-07
vn -0.3861874 -0.9224204 -5.751368E-07
vn -0.3861874 -0.9224204 -5.751368E-07
vn -0.3861874 -0.9224204 -5.751368E-07
vn -0.3861874 -0.9224204 -5.751368E-07
vn -0.3861874 -0.9224204 -5.75137E-07
vn -0.3861876 -0.9224203 -6.427381E-07
vn -0.3861877 -0.9224203 -6.502594E-07
vn -0.3861877 -0.9224203 -6.502594E-07
vn -0.3861877 -0.9224203 -6.502589E-07
vn -0.3861877 -0.9224203 -6.502602E-07
vn -0.3861877 -0.9224203 -6.502595E-07
vn -0.3861877 -0.9224203 -6.502593E-07
vn -0.3861877 -0.9224203 -5.775814E-07
vn -0.3861879 -0.9224202 -5.326856E-07
vn -0.3861879 -0.9224202 -5.326856E-07
vn -0.3861879 -0.9224202 -5.326855E-07
vn -0.3861879 -0.9224202 -5.326862E-07
vn -0.3861879 -0.9224202 -5.326855E-07
vn -0.3861879 -0.9224202 -5.326855E-07
vn -0.3861879 -0.9224202 -5.326856E-07
vn -0.3861879 -0.9224201 -5.326855E-07
vn -0.3861876 -0.9224203 -5.273513E-07
vn -0.3861876 -0.9224203 -5.273513E-07
vn -0.3861876 -0.9224203 -5.273513E-07

f 1//1 2//2 3//3
f 4//4 1//1 3//3
f 3//3 5//5 4//4
f 3//3 6//6 5//5
f 5//5 6//6 7//7
f 8//8 7//7 6//6
f 9//9 8//8 6//6
f 10//10 9//9 6//6
f 9//9 10//10 11//11
f 11//11 10//10 12//12
f 13//13 11//11 12//12
f 13//13 12//12 14//14
f 13//13 14//14 15//15
f 15//15 14//14 16//16
f 15//15 16//16 17//17
f 18//18 17//17 16//16
f 19//19 17//17 18//18
f 19//19 18//18 20//20
f 21//21 19//19 20//20
f 22//22 19//19 21//21
f 22//22 21//21 23//23
f 24//24 22//22 23//23
f 24//24 23//23 25//25
f 26//26 24//24 25//25
f 26//26 25//25 27//27
f 28//28 26//26 27//27
f 28//28 27//27 29//29
f 29//29 27//27 30//30
f 31//31 29//29 30//30
f 31//31 30//30 32//32
f 33//33 31//31 32//32
f 33//33 32//32 34//34
f 35//35 33//33 34//34
f 35//35 34//34 36//36
f 37//37 35//35 36//36
f 37//37 36//36 38//38
f 39//39 37//37 38//38
f 39//39 38//38 40//40
f 41//41 39//39 40//40
f 41//41 40//40 42//42
f 41//41 42//42 43//43
f 43//43 42//42 44//44
f 45//45 43//43 44//44
f 45//45 44//44 46//46
f 47//47 45//45 46//46
f 48//48 45//45 47//47
f 48//48 47//47 49//49
f 50//50 48//48 49//49
f 50//50 49//49 51//51
f 52//52 50//50 51//51
f 52//52 51//51 53//53
f 54//54 52//52 53//53
f 55//55 54//54 53//53
f 55//55 53//53 56//56
f 55//55 56//56 57//57
f 57//57 56//56 58//58
f 57//57 58//58 59//59
f 59//59 58//58 60//60
f 59//59 60//60 61//61
f 61//61 60//60 62//62
f 61//61 62//62 63//63
f 63//63 62//62 64//64
f 63//63 64//64 65//65
f 65//65 64//64 66//66
f 65//65 66//66 67//67
f 68//68 67//67 66//66
f 69//69 67//67 68//68
f 69//69 68//68 70//70
f 71//71 69//69 70//70
f 72//72 71//71 73//73
f 74//74 75//75 76//76
f 77//77 74//74 76//76
f 75//75 77//77 76//76
f 78//78 75//75 74//74
f 79//79 75//75 78//78
f 78//78 74//74 80//80
f 81//81 78//78 80//80
f 82//82 78//78 81//81
f 82//82 83//83 78//78
f 83//83 84//84 79//79
f 84//84 85//85 79//79
f 80//80 74//74 86//86
f 87//87 80//80 86//86
f 81//81 80//80 87//87
f 86//86 74//74 88//88
f 88//88 74//74 77//77
f 86//86 88//88 89//89
f 90//90 86//86 89//89
f 87//87 86//86 90//90
f 75//75 91//91 77//77
f 90//90 89//89 92//92
f 90//90 92//92 93//93
f 94//94 90//90 93//93
f 95//95 83//83 82//82
f 95//95 82//82 81//81
f 95//95 81//81 87//87
f 95//95 87//87 90//90
f 95//95 96//96 83//83
f 97//97 91//91 75//75
f 97//97 98//98 91//91
f 97//97 99//99 98//98
f 100//100 95//95 101//101
f 102//102 103//103 104//104
f 102//102 104//104 105//105
f 102//102 105//105 106//106
f 106//106 105//105 107//107
f 108//108 102//102 106//106
f 109//109 102//102 108//108
f 110//110 108//108 106//106
f 111//111 112//112 113//113
f 111//111 113//113 114//114
f 111//111 114//114 115//115
f 111//111 115//115 116//116
f 111//111 116//116 117//117
f 117//117 118//118 111//111
f 118//118 119//119 111//111
f 120//120 111//111 119//119
f 120//120 121//121 111//111
f 121//121 122//122 111//111
f 111//111 122//122 123//123
f 114//114 113//113 124//124
f 124//124 113//113 125//125
f 125//125 113//113 126//126
f 126//126 113//113 127//127
f 127//127 113//113 128//128
f 128//128 113//113 129//129
f 129//129 113//113 130//130
f 130//130 113//113 131//131
f 131//131 113//113 132//132
f 132//132 113//113 133//133
f 133//133 113//113 134//134
f 133//133 134//134 135//135
f 135//135 134//134 136//136
f 134//134 137//137 136//136
f 137//137 134//134 138//138
f 138//138 134//134 139//139
f 139//139 134//134 140//140
f 140//140 134//134 141//141
f 134//134 142//142 141//141
f 134//134 143//143 142//142
f 134//134 144//144 143//143
f 144//144 134//134 145//145
f 145//145 134//134 146//146
f 147//147 134//134 148//148
f 149//149 150//150 151//151
f 149//149 152//152 150//150
f 151//151 150//150 153//153
f 151//151 153//153 154//154
f 154//154 153//153 155//155
f 154//154 155//155 156//156
f 152//152 157//157 150//150
f 158//158 159//159 160//160
f 161//161 159//159 158//158
f 162//162 159//159 161//161
f 163//163 162//162 161//161
f 164//164 162//162 163//163
f 165//165 162//162 164//164
f 9//9 166//166 8//8
f 166//166 9//9 167//167
f 168//168 169//169 170//170
f 168//168 171//171 169//169
f 172//172 169//169 173//173
f 174//174 169//169 172//172
f 169//169 174//174 175//175
f 176//176 169//169 175//175
f 177//177 169//169 176//176
f 178//178 169//169 177//177
f 178//178 179//179 169//169
f 179//179 180//180 169//169
f 180//180 181//181 169//169
f 182//182 181//181 180//180
f 182//182 183//183 181//181
f 183//183 184//184 181//181
f 184//184 185//185 181//181
f 185//185 186//186 181//181
f 186//186 187//187 181//181
f 187//187 188//188 181//181
f 188//188 189//189 181//181
f 181//181 189//189 190//190
f 181//181 190//190 191//191
f 192//192 181//181 191//191
f 193//193 181//181 192//192
f 194//194 181//181 193//193
f 195//195 181//181 194//194
f 195//195 196//196 181//181
f 196//196 197//197 198//198
f 196//196 198//198 199//199
f 199//199 200//200 196//196
f 196//196 200//200 201//201
f 201//201 202//202 196//196
f 196//196 202//202 203//203
f 196//196 203//203 204//204
f 205//205 196//196 206//206
f 207//207 196//196 205//205
