v -58.79967 -25.22377 130.735
v -72.74815 -28.51656 121.8774
v -58.79967 -25.22377 130.735
v -58.79967 -25.22376 130.735
v -59.5853 -21.7403 130.6772
v -59.89955 -20.34691 130.6541
v -59.89955 -20.34691 130.6541
v -73.84803 -23.6397 121.7965
v -87.79651 -26.93249 112.9389
v -59.80273 -20.23152 130.4587
v -86.92509 -25.89403 111.1806
v -59.7907 -20.21719 130.4344
v -86.8168 -25.76498 110.9621
v -59.78732 -20.21316 130.4276
v -86.7864 -25.72876 110.9007
v -59.74935 -20.16792 130.351
v -86.44472 -25.32158 110.2113
v -59.28127 -19.61012 129.4065
v -86.39271 -25.2596 110.1064
v -58.83748 -19.08126 128.5111
v -58.78642 -19.02042 128.4081
v -86.33772 -25.19408 109.9954
v -58.67994 -18.89352 128.1932
v -86.32589 -25.17998 109.9715
v -58.39755 -18.55701 127.6234
v -86.29451 -25.14259 109.9082
v -58.39873 -18.36561 127.5541
v -86.301 -24.0887 109.5267
v -86.30511 -23.42006 109.2846
v -58.39902 -18.31813 127.5369
v -86.30775 -22.99268 109.1298
v -58.39911 -18.304 127.5318
v -86.30853 -22.86549 109.0838
v -58.39977 -18.19719 127.4931
v -86.31445 -21.90421 108.7358
v -58.40731 -16.9718 127.0495
v -86.31528 -21.76805 108.6865
v -58.41354 -15.95944 126.6829
v -86.31598 -21.65557 108.6457
v -58.4197 -14.95881 126.3207
v -86.31667 -21.54439 108.6055
v -58.46702 -14.85701 126.3573
v -86.74251 -20.62823 108.9355
v -58.57303 -14.62893 126.4395
v -87.69666 -18.57554 109.675
v -58.8688 -13.99263 126.6687
v -58.98708 -13.73817 126.7604
v -87.74266 -18.47656 109.7106
v -59.3904 -12.87047 127.0729
v -87.78747 -18.38016 109.7453
v -59.7225 -12.15602 127.3303
v -87.82437 -18.30077 109.7739
v -59.95302 -11.66009 127.509
v -87.84998 -18.24567 109.7938
v -87.84998 -18.24567 109.7938
v -60.08058 -11.59668 127.6863
v -88.99803 -17.67499 111.3895
v -60.11813 -11.57801 127.7384
v -89.33595 -17.50702 111.8592
v -60.12196 -11.57611 127.7438
v -89.37045 -17.48987 111.9072
v -60.12374 -11.57523 127.7463
v -89.38644 -17.48192 111.9294
v -60.12598 -11.57411 127.7494
v -89.40665 -17.47187 111.9575
v -60.16765 -11.5534 127.8073
v -89.78165 -17.28547 112.4787
v -62.09931 -10.5932 130.4922
v -89.99628 -17.17878 112.777
v -62.09931 -10.59319 130.4922
v -89.99628 -17.17878 112.777
v -62.09931 -10.59319 130.4922
v -62.09931 -10.59319 130.4922
v -62.41357 -9.199807 130.4691
v -63.1992 -5.716338 130.4113
v -63.1992 -5.716338 130.4113
v -63.1992 -5.716339 130.4113
v -62.09931 -10.59319 130.4922
v -62.09931 -10.59319 130.4922
v -62.09931 -10.59319 130.4922
v -89.99628 -17.17878 112.777
v -89.99628 -17.17878 112.777
v -89.99628 -17.17878 112.777
v -62.09931 -10.59319 130.4922
v -58.90661 -7.850121 124.4448
v -62.09931 -10.59319 130.4922
v -89.99628 -17.17878 112.777
v -62.09931 -10.59319 130.4922
v -76.0478 -13.88599 121.6346
v -89.99628 -17.17878 112.777
v -77.14767 -9.00913 121.5537
v -89.99626 -17.17877 112.7771
v -89.99628 -17.17878 112.777
v -90.31053 -15.78539 112.7539
v -86.80357 -14.4357 106.7296
v -89.99628 -17.17878 112.777
v -58.90661 -7.850121 124.4448
v -91.09616 -12.30192 112.6961
v -86.80357 -14.4357 106.7296
v -87.84998 -18.24567 109.7938
v -87.84998 -18.24567 109.7938
v -72.74815 -28.51656 121.8774
v -58.79967 -25.22377 130.735
v -58.79967 -25.22376 130.735
v -59.5853 -21.7403 130.6772
v -73.84803 -23.6397 121.7965
v -59.89955 -20.34691 130.6541
v -87.34093 -28.95255 112.9724
v -86.69663 -31.80935 113.0198
v -87.79651 -26.93249 112.9389
v -58.79967 -25.22377 130.735
v -55.79567 -21.64396 124.6737
v -55.83997 -14.44756 122.0682
v -58.39755 -18.55701 127.6234
v -58.67994 -18.89352 128.1932
v -58.78642 -19.02042 128.4081
v -58.83748 -19.08126 128.5111
v -59.28127 -19.61012 129.4065
v -59.74935 -20.16792 130.351
v -59.78732 -20.21316 130.4276
v -59.7907 -20.21719 130.4344
v -59.80273 -20.23152 130.4587
v -59.89955 -20.34691 130.6541
v -58.39873 -18.36561 127.5541
v -58.39902 -18.31813 127.5369
v -58.39911 -18.304 127.5318
v -58.39977 -18.19719 127.4931
v -58.40731 -16.9718 127.0495
v -58.41354 -15.95944 126.6829
v -58.4197 -14.95881 126.3207
v -58.46702 -14.85701 126.3573
v -58.57303 -14.62893 126.4395
v -58.8688 -13.99263 126.6687
v -58.90661 -7.850121 124.4448
v -58.98708 -13.73817 126.7604
v -59.3904 -12.87047 127.0729
v -59.7225 -12.15602 127.3303
v -59.95302 -11.66009 127.509
v -60.08058 -11.59668 127.6863
v -60.11813 -11.57801 127.7384
v -60.12196 -11.57611 127.7438
v -60.12374 -11.57523 127.7463
v -60.12598 -11.57411 127.7494
v -60.16765 -11.5534 127.8073
v -62.09931 -10.5932 130.4922
v -62.09931 -10.59319 130.4922
v -62.09931 -10.59319 130.4922
v -63.1992 -5.716338 130.4113
v -58.79967 -25.22377 130.735
v -83.69263 -28.22954 106.9585
v -55.79567 -21.64396 124.6737
v -72.74815 -28.51656 121.8774
v -83.73693 -21.03314 104.353
v -55.83997 -14.44756 122.0682
v -86.80357 -14.4357 106.7296
v -58.90661 -7.850121 124.4448
v -86.69663 -31.80935 113.0198
v -63.1992 -5.716339 130.4113
v -76.0478 -13.88599 121.6346
v -62.09931 -10.59319 130.4922
v -77.14767 -9.00913 121.5537
v -89.99626 -17.17877 112.7771
v -91.09616 -12.30192 112.6961
v -90.31053 -15.78539 112.7539
v -89.99628 -17.17878 112.777
v -87.79651 -26.93249 112.9389
v -83.69263 -28.22954 106.9585
v -87.34093 -28.95255 112.9724
v -83.69263 -28.22954 106.9585
v -86.69663 -31.80935 113.0198
v -87.79651 -26.93249 112.9389
v -86.92509 -25.89403 111.1806
v -87.79651 -26.93249 112.9389
v -86.8168 -25.76498 110.9621
v -86.7864 -25.72876 110.9007
v -86.44472 -25.32158 110.2113
v -86.39271 -25.2596 110.1064
v -86.33772 -25.19408 109.9954
v -86.32589 -25.17998 109.9715
v -86.29451 -25.14259 109.9082
v -83.73693 -21.03314 104.353
v -86.301 -24.0887 109.5267
v -86.30511 -23.42006 109.2846
v -86.30775 -22.99268 109.1298
v -86.30853 -22.86549 109.0838
v -86.31445 -21.90421 108.7358
v -86.31528 -21.76805 108.6865
v -86.31598 -21.65557 108.6457
v -86.31667 -21.54439 108.6055
v -86.74251 -20.62823 108.9355
v -87.69666 -18.57554 109.675
v -87.74266 -18.47656 109.7106
v -87.78747 -18.38016 109.7453
v -87.82437 -18.30077 109.7739
v -87.84998 -18.24567 109.7938
v -86.80357 -14.4357 106.7296
v -87.84998 -18.24567 109.7938
v -88.99803 -17.67499 111.3895
v -89.33595 -17.50702 111.8592
v -89.37045 -17.48987 111.9072
v -89.38644 -17.48192 111.9294
v -89.40665 -17.47187 111.9575
v -89.78165 -17.28547 112.4787
v -89.99628 -17.17878 112.777
v -90.31053 -15.78539 112.7539
v -89.99628 -17.17878 112.777
v -91.09616 -12.30192 112.6961

vn 0.2199768 -0.9753709 0.01618482
vn 0.2199766 -0.9753709 0.01618474
vn 0.7058054 -0.6133666 0.3544295
vn 0.827895 0.1954394 0.5257311
vn 0.827895 0.1954394 0.5257311
vn -0.4006776 0.8619938 0.3105223
vn -0.1006837 0.9932074 0.05832753
vn -0.5534428 0.1324849 0.8222826
vn -0.400676 0.8619959 0.3105185
vn -0.4006757 0.8619964 0.3105179
vn -0.4006758 0.8619962 0.3105181
vn -0.4006763 0.8619958 0.3105189
vn -0.4006767 0.8619952 0.3105197
vn -0.400674 0.8619981 0.3105154
vn -0.4006753 0.8619967 0.3105175
vn -0.4006755 0.8619964 0.3105178
vn -0.4006755 0.8619966 0.3105178
vn -0.4006754 0.8619965 0.3105177
vn -0.4006756 0.8619964 0.3105179
vn -0.4006754 0.8619966 0.3105176
vn -0.4006759 0.8619961 0.3105186
vn -0.4006765 0.8619952 0.3105198
vn -0.4006756 0.8619963 0.3105181
vn -0.4006753 0.8619968 0.3105174
vn -0.455292 0.7815866 0.4264173
vn -0.5606208 0.317015 0.7649874
vn -0.5608535 0.2787902 0.7795637
vn -0.5608534 0.2787909 0.7795634
vn -0.5608534 0.2787912 0.7795633
vn -0.5608534 0.2787933 0.7795627
vn -0.5608532 0.2787945 0.7795622
vn -0.5608531 0.2787961 0.7795618
vn -0.5608533 0.2787934 0.7795627
vn -0.5608534 0.2787922 0.7795629
vn -0.5608535 0.2787917 0.7795632
vn -0.5608535 0.2787916 0.7795631
vn -0.5608534 0.2787927 0.7795627
vn -0.5608535 0.2787921 0.779563
vn -0.5608535 0.2787909 0.7795634
vn -0.5592564 0.2163008 0.8002789
vn -0.4180713 -0.4098327 0.8107119
vn -0.3924914 -0.467723 0.7919506
vn -0.392491 -0.467724 0.7919503
vn -0.3924907 -0.4677246 0.79195
vn -0.3924907 -0.4677246 0.79195
vn -0.3924908 -0.4677242 0.7919502
vn -0.392491 -0.4677237 0.7919504
vn -0.3924909 -0.4677241 0.7919503
vn -0.392491 -0.4677238 0.7919504
vn -0.3924908 -0.467724 0.7919502
vn -0.3924909 -0.4677241 0.7919503
vn -0.392491 -0.4677236 0.7919504
vn -0.3058349 -0.6284218 0.7152281
vn -0.3925003 -0.4677036 0.7919576
vn 0.005787445 -0.9402543 0.3404241
vn 0.00578813 -0.9402545 0.340423
vn 0.00578835 -0.9402548 0.3404227
vn 0.005788939 -0.940255 0.3404217
vn 0.005787948 -0.9402545 0.3404234
vn 0.005787285 -0.9402541 0.3404248
vn 0.005785977 -0.9402531 0.3404271
vn 0.005765251 -0.9402394 0.3404653
vn 0.0057782 -0.9402481 0.3404413
vn 0.005791416 -0.9402567 0.3404173
vn 0.005789429 -0.9402555 0.3404208
vn 0.005788093 -0.9402546 0.3404231
vn 0.00578777 -0.9402544 0.3404236
vn 0.005787618 -0.9402543 0.3404239
vn 0.005784742 -0.940253 0.3404278
vn -0.08824622 -0.8802657 0.4662029
vn 0.2199765 -0.9753709 0.01618464
vn 0.2199765 -0.9753709 0.01618464
vn 0.2199765 -0.9753709 0.01618464
vn 0.827895 0.1954394 0.5257311
vn -0.005788088 0.9402544 -0.3404234
vn 0.827895 0.1954394 0.5257311
vn -0.5401587 0.02537739 0.8411805
vn 0.7723918 -0.4848576 0.4102733
vn 0.8079463 -0.3879978 0.4434869
vn 0.2782417 -0.9590203 0.05349641
vn 0.2199765 -0.9753709 0.01618464
vn 0.2199765 -0.9753709 0.01618464
vn 0.2199765 -0.9753709 0.01618464
vn 0.3040818 -0.9500523 0.07025027
vn 0.827895 0.1954394 0.5257311
vn 0.2304396 -0.9728185 0.02284565
vn 0.2199765 -0.9753709 0.01618464
vn 0.3348476 -0.9379287 0.09037157
vn 0.2199799 -0.9753703 0.016179
vn 0.1698745 -0.9853452 -0.01541573
vn -0.005788017 0.9402544 -0.3404234
vn 0.2199887 -0.9753686 0.01616453
vn -0.8278936 -0.1954462 -0.525731
vn -0.827895 -0.1954394 -0.5257311
vn -0.8278949 -0.1954394 -0.5257315
vn 0 0 0
vn -0.005787975 0.9402545 -0.3404235
vn -0.005787962 0.9402545 -0.3404234
vn -0.00578798 0.9402546 -0.3404235
vn -0.8278949 -0.1954394 -0.5257315
vn -0.8278949 -0.1954394 -0.5257315
vn -0.5159461 -0.1022493 0.8504968
vn -0.5159461 -0.1022493 0.8504967
vn -0.5159461 -0.1022493 0.8504968
vn -0.5159461 -0.1022493 0.8504968
vn -0.5159461 -0.1022493 0.8504968
vn -0.5159461 -0.1022493 0.8504968
vn -0.5159461 -0.1022493 0.8504968
vn -0.5159461 -0.1022493 0.8504968
vn -0.5159461 -0.1022493 0.8504968
vn 0.827895 0.1954394 0.5257311
vn 0.827895 0.1954394 0.5257311
vn 0.827895 0.1954394 0.5257311
vn 0.827895 0.1954394 0.5257311
vn 0.827895 0.1954394 0.5257311
vn 0.827895 0.1954394 0.5257311
vn 0.827895 0.1954394 0.5257311
vn 0.827895 0.1954394 0.5257311
vn 0.827895 0.1954394 0.5257311
vn 0.827895 0.1954394 0.5257311
vn 0.827895 0.1954394 0.5257311
vn 0.827895 0.1954394 0.5257311
vn 0.827895 0.1954394 0.5257311
vn 0.827895 0.1954394 0.5257311
vn 0.827895 0.1954394 0.5257311
vn 0.827895 0.1954394 0.5257311
vn 0.827895 0.1954394 0.5257311
vn 0.827895 0.1954394 0.5257311
vn 0.827895 0.1954394 0.5257311
vn 0.827895 0.1954394 0.5257311
vn 0.827895 0.1954394 0.5257311
vn 0.827895 0.1954394 0.5257311
vn 0.827895 0.1954394 0.5257311
vn 0.827895 0.1954394 0.5257311
vn 0.827895 0.1954394 0.5257311
vn 0.827895 0.1954394 0.5257311
vn 0.827895 0.1954394 0.5257311
vn 0.827895 0.1954394 0.5257311
vn 0.827895 0.1954394 0.5257311
vn 0.827895 0.1954394 0.5257311
vn 0.827895 0.1954394 0.5257311
vn 0.827895 0.1954394 0.5257311
vn 0.827895 0.1954394 0.5257311
vn 0.827895 0.1954394 0.5257311
vn 0.827895 0.1954394 0.5257311
vn 0.827895 0.1954394 0.5257311
vn 0.827895 0.1954394 0.5257311
vn 0.827895 0.1954394 0.5257311
vn 0.4006758 -0.8619963 -0.3105182
vn 0.4868613 -0.7158087 -0.5005837
vn 0.5441099 -0.5073676 -0.6682235
vn 0.4006758 -0.8619961 -0.3105181
vn 0.5411844 -0.03211654 -0.8402905
vn 0.4810105 0.2346934 -0.8447177
vn 0.3924907 0.4677242 -0.7919502
vn 0.3924908 0.4677242 -0.7919502
vn 0.4006757 -0.8619962 -0.3105181
vn -0.5159461 -0.1022493 0.8504968
vn -0.5159461 -0.1022493 0.8504968
vn -0.5159461 -0.1022493 0.8504968
vn -0.5159461 -0.1022493 0.8504968
vn -0.5159461 -0.1022493 0.8504968
vn -0.5159461 -0.1022493 0.8504968
vn -0.5159461 -0.1022493 0.8504968
vn -0.5159461 -0.1022493 0.8504967
vn -0.3833049 0.9154665 -0.1224682
vn -0.8278949 -0.1954401 -0.5257311
vn -0.8278949 -0.1954394 -0.5257313
vn -0.8278949 -0.1954395 -0.5257313
vn -0.827895 -0.1954394 -0.5257313
vn -0.827895 -0.1954394 -0.5257313
vn -0.8278949 -0.1954397 -0.5257313
vn -0.8278949 -0.1954397 -0.5257313
vn -0.8278949 -0.1954397 -0.5257313
vn -0.8278949 -0.1954397 -0.5257313
vn -0.8278949 -0.1954397 -0.5257313
vn -0.8278949 -0.1954397 -0.5257312
vn -0.8278949 -0.1954397 -0.5257313
vn -0.8278949 -0.1954397 -0.5257312
vn -0.8278949 -0.1954395 -0.5257314
vn -0.8278949 -0.1954394 -0.5257314
vn -0.8278949 -0.1954395 -0.5257314
vn -0.8278949 -0.1954395 -0.5257314
vn -0.8278949 -0.1954395 -0.5257314
vn -0.8278949 -0.1954395 -0.5257314
vn -0.8278949 -0.1954395 -0.5257314
vn -0.8278949 -0.1954395 -0.5257314
vn -0.8278949 -0.1954395 -0.5257314
vn -0.8278949 -0.1954393 -0.5257314
vn -0.8278949 -0.1954392 -0.5257314
vn -0.8278949 -0.1954392 -0.5257314
vn -0.8278949 -0.1954392 -0.5257314
vn -0.8278949 -0.1954392 -0.5257314
vn -0.8278949 -0.1954392 -0.5257314
vn -0.8278949 -0.1954392 -0.5257314
vn -0.827895 -0.1954393 -0.5257313
vn -0.8278951 -0.1954391 -0.5257313
vn -0.8278951 -0.1954391 -0.5257313
vn -0.8278951 -0.1954391 -0.5257313
vn -0.8278951 -0.1954391 -0.5257313
vn -0.8278951 -0.1954391 -0.5257313
vn -0.8278951 -0.1954391 -0.5257313
vn -0.8278951 -0.1954391 -0.5257313
vn -0.827895 -0.1954391 -0.5257312
vn -0.827895 -0.1954394 -0.5257313
vn -0.827895 -0.1954394 -0.5257313
vn -0.8278949 -0.1954394 -0.5257313

f 1//1 2//2 3//3
f 4//4 1//1 3//3
f 3//3 5//5 4//4
f 3//3 6//6 5//5
f 5//5 6//6 7//7
f 8//8 7//7 6//6
f 9//9 8//8 6//6
f 10//10 9//9 6//6
f 9//9 10//10 11//11
f 11//11 10//10 12//12
f 13//13 11//11 12//12
f 13//13 12//12 14//14
f 13//13 14//14 15//15
f 15//15 14//14 16//16
f 15//15 16//16 17//17
f 18//18 17//17 16//16
f 19//19 17//17 18//18
f 19//19 18//18 20//20
f 21//21 19//19 20//20
f 22//22 19//19 21//21
f 22//22 21//21 23//23
f 24//24 22//22 23//23
f 24//24 23//23 25//25
f 26//26 24//24 25//25
f 26//26 25//25 27//27
f 28//28 26//26 27//27
f 28//28 27//27 29//29
f 29//29 27//27 30//30
f 31//31 29//29 30//30
f 31//31 30//30 32//32
f 33//33 31//31 32//32
f 33//33 32//32 34//34
f 35//35 33//33 34//34
f 35//35 34//34 36//36
f 37//37 35//35 36//36
f 37//37 36//36 38//38
f 39//39 37//37 38//38
f 39//39 38//38 40//40
f 41//41 39//39 40//40
f 41//41 40//40 42//42
f 41//41 42//42 43//43
f 43//43 42//42 44//44
f 45//45 43//43 44//44
f 45//45 44//44 46//46
f 47//47 45//45 46//46
f 48//48 45//45 47//47
f 48//48 47//47 49//49
f 50//50 48//48 49//49
f 50//50 49//49 51//51
f 52//52 50//50 51//51
f 52//52 51//51 53//53
f 54//54 52//52 53//53
f 55//55 54//54 53//53
f 55//55 53//53 56//56
f 55//55 56//56 57//57
f 57//57 56//56 58//58
f 57//57 58//58 59//59
f 59//59 58//58 60//60
f 59//59 60//60 61//61
f 61//61 60//60 62//62
f 61//61 62//62 63//63
f 63//63 62//62 64//64
f 63//63 64//64 65//65
f 65//65 64//64 66//66
f 65//65 66//66 67//67
f 68//68 67//67 66//66
f 69//69 67//67 68//68
f 69//69 68//68 70//70
f 71//71 69//69 70//70
f 72//72 71//71 73//73
f 74//74 75//75 76//76
f 77//77 74//74 76//76
f 75//75 77//77 76//76
f 78//78 75//75 74//74
f 79//79 75//75 78//78
f 78//78 74//74 80//80
f 81//81 78//78 80//80
f 82//82 78//78 81//81
f 82//82 83//83 78//78
f 83//83 84//84 79//79
f 84//84 85//85 79//79
f 80//80 74//74 86//86
f 87//87 80//80 86//86
f 81//81 80//80 87//87
f 86//86 74//74 88//88
f 88//88 74//74 77//77
f 86//86 88//88 89//89
f 90//90 86//86 89//89
f 87//87 86//86 90//90
f 75//75 91//91 77//77
f 90//90 89//89 92//92
f 90//90 92//92 93//93
f 94//94 90//90 93//93
f 95//95 83//83 82//82
f 95//95 82//82 81//81
f 95//95 81//81 87//87
f 95//95 87//87 90//90
f 95//95 96//96 83//83
f 97//97 91//91 75//75
f 97//97 98//98 91//91
f 97//97 99//99 98//98
f 100//100 95//95 101//101
f 102//102 103//103 104//104
f 102//102 104//104 105//105
f 102//102 105//105 106//106
f 106//106 105//105 107//107
f 108//108 102//102 106//106
f 109//109 102//102 108//108
f 110//110 108//108 106//106
f 111//111 112//112 113//113
f 111//111 113//113 114//114
f 111//111 114//114 115//115
f 111//111 115//115 116//116
f 111//111 116//116 117//117
f 117//117 118//118 111//111
f 118//118 119//119 111//111
f 120//120 111//111 119//119
f 120//120 121//121 111//111
f 121//121 122//122 111//111
f 111//111 122//122 123//123
f 114//114 113//113 124//124
f 124//124 113//113 125//125
f 125//125 113//113 126//126
f 126//126 113//113 127//127
f 127//127 113//113 128//128
f 128//128 113//113 129//129
f 129//129 113//113 130//130
f 130//130 113//113 131//131
f 131//131 113//113 132//132
f 132//132 113//113 133//133
f 133//133 113//113 134//134
f 133//133 134//134 135//135
f 135//135 134//134 136//136
f 134//134 137//137 136//136
f 137//137 134//134 138//138
f 138//138 134//134 139//139
f 139//139 134//134 140//140
f 140//140 134//134 141//141
f 134//134 142//142 141//141
f 134//134 143//143 142//142
f 134//134 144//144 143//143
f 144//144 134//134 145//145
f 145//145 134//134 146//146
f 147//147 134//134 148//148
f 149//149 150//150 151//151
f 149//149 152//152 150//150
f 151//151 150//150 153//153
f 151//151 153//153 154//154
f 154//154 153//153 155//155
f 154//154 155//155 156//156
f 152//152 157//157 150//150
f 158//158 159//159 160//160
f 161//161 159//159 158//158
f 162//162 159//159 161//161
f 163//163 162//162 161//161
f 164//164 162//162 163//163
f 165//165 162//162 164//164
f 9//9 166//166 8//8
f 166//166 9//9 167//167
f 168//168 169//169 170//170
f 168//168 171//171 169//169
f 172//172 169//169 173//173
f 174//174 169//169 172//172
f 169//169 174//174 175//175
f 176//176 169//169 175//175
f 177//177 169//169 176//176
f 178//178 169//169 177//177
f 178//178 179//179 169//169
f 179//179 180//180 169//169
f 180//180 181//181 169//169
f 182//182 181//181 180//180
f 182//182 183//183 181//181
f 183//183 184//184 181//181
f 184//184 185//185 181//181
f 185//185 186//186 181//181
f 186//186 187//187 181//181
f 187//187 188//188 181//181
f 188//188 189//189 181//181
f 181//181 189//189 190//190
f 181//181 190//190 191//191
f 192//192 181//181 191//191
f 193//193 181//181 192//192
f 194//194 181//181 193//193
f 195//195 181//181 194//194
f 195//195 196//196 181//181
f 196//196 197//197 198//198
f 196//196 198//198 199//199
f 199//199 200//200 196//196
f 196//196 200//200 201//201
f 201//201 202//202 196//196
f 196//196 202//202 203//203
f 196//196 203//203 204//204
f 205//205 196//196 206//206
f 207//207 196//196 205//205
