v 106.7669 63.06247 -71.30568
v 116.9147 58.81391 -53.50522
v 106.7669 63.06247 -71.30568
v 106.7669 63.06248 -71.30568
v 105.5372 66.09747 -69.88027
v 105.0453 67.31147 -69.3101
v 105.0453 67.31147 -69.3101
v 115.1931 63.0629 -51.50964
v 125.3409 58.81435 -33.70918
v 104.8296 67.28083 -69.19444
v 123.3994 58.53858 -32.66814
v 104.8028 67.27702 -69.18006
v 123.1581 58.50431 -32.53877
v 104.7953 67.27595 -69.17603
v 123.0904 58.49469 -32.50246
v 104.7107 67.26394 -69.13068
v 122.3291 58.38656 -32.09426
v 103.6678 67.11581 -68.57149
v 122.2132 58.3701 -32.03214
v 102.679 66.97536 -68.04131
v 102.5652 66.95921 -67.98032
v 122.0907 58.3527 -31.96645
v 102.328 66.92551 -67.85311
v 122.0643 58.34896 -31.95231
v 101.6988 66.83615 -67.51576
v 121.9944 58.33903 -31.91483
v 101.5714 66.95807 -67.41405
v 121.2931 59.01038 -31.35475
v 120.8481 59.43631 -30.99941
v 101.5398 66.98832 -67.38881
v 120.5637 59.70856 -30.77229
v 101.5304 66.99732 -67.3813
v 120.479 59.78958 -30.70469
v 101.4594 67.06536 -67.32454
v 119.8393 60.40194 -30.19383
v 100.6439 67.84595 -66.67332
v 119.7487 60.48867 -30.12147
v 99.97012 68.49084 -66.13531
v 119.6738 60.56033 -30.06169
v 99.30419 69.12827 -65.60354
v 119.5998 60.63115 -30.00261
v 99.30296 69.24297 -65.57545
v 119.5887 61.66343 -29.74989
v 99.30019 69.49995 -65.51254
v 119.5638 63.97633 -29.18366
v 99.29247 70.21691 -65.33702
v 99.28938 70.50364 -65.26682
v 119.5626 64.08785 -29.15635
v 99.27885 71.48132 -65.02747
v 119.5614 64.19648 -29.12976
v 99.27019 72.28633 -64.83039
v 119.5604 64.28593 -29.10786
v 99.26417 72.84513 -64.69359
v 119.5598 64.34801 -29.09266
v 119.5598 64.34801 -29.09266
v 99.40313 73.02132 -64.73076
v 120.8104 65.93362 -29.42717
v 99.44403 73.07317 -64.7417
v 121.1785 66.40033 -29.52563
v 99.4482 73.07846 -64.74281
v 121.2161 66.44798 -29.53568
v 99.45014 73.08092 -64.74333
v 121.2335 66.47007 -29.54034
v 99.45259 73.08402 -64.74399
v 121.2555 66.49799 -29.54623
v 99.49797 73.14156 -64.75613
v 121.664 67.0159 -29.65549
v 101.6022 75.80945 -65.31896
v 121.8978 67.31233 -29.71803
v 101.6022 75.80946 -65.31896
v 121.8978 67.31233 -29.71803
v 101.6022 75.80946 -65.31896
v 101.6022 75.80946 -65.31896
v 101.1103 77.02345 -64.74879
v 99.88065 80.05845 -63.32339
v 99.88065 80.05845 -63.32339
v 99.88065 80.05844 -63.32339
v 101.6022 75.80946 -65.31896
v 101.6022 75.80946 -65.31896
v 101.6022 75.80946 -65.31896
v 121.8978 67.31233 -29.71803
v 121.8978 67.31233 -29.71803
v 121.8978 67.31233 -29.71803
v 101.6022 75.80946 -65.31896
v 95.20457 74.12981 -62.07265
v 101.6022 75.80946 -65.31896
v 121.8978 67.31233 -29.71803
v 101.6022 75.80946 -65.31896
v 111.75 71.56089 -47.51849
v 121.8978 67.31233 -29.71803
v 110.0285 75.80988 -45.52292
v 121.8978 67.31234 -29.71805
v 121.8978 67.31233 -29.71803
v 121.4059 68.52633 -29.14787
v 115.5002 65.63269 -26.47172
v 121.8978 67.31233 -29.71803
v 95.20457 74.12981 -62.07265
v 120.1763 71.56133 -27.72246
v 115.5002 65.63269 -26.47172
v 119.5598 64.34801 -29.09266
v 119.5598 64.34801 -29.09266
v 116.9147 58.81391 -53.50522
v 106.7669 63.06247 -71.30568
v 106.7669 63.06248 -71.30568
v 105.5372 66.09747 -69.88027
v 115.1931 63.0629 -51.50964
v 105.0453 67.31147 -69.3101
v 126.054 57.05436 -34.53577
v 127.0625 54.56535 -35.70475
v 125.3409 58.81435 -33.70918
v 106.7669 63.06247 -71.30568
v 100.0739 62.11184 -67.71698
v 95.28462 66.69608 -63.89254
v 101.6988 66.83615 -67.51576
v 102.328 66.92551 -67.85311
v 102.5652 66.95921 -67.98032
v 102.679 66.97536 -68.04131
v 103.6678 67.11581 -68.57149
v 104.7107 67.26394 -69.13068
v 104.7953 67.27595 -69.17603
v 104.8028 67.27702 -69.18006
v 104.8296 67.28083 -69.19444
v 105.0453 67.31147 -69.3101
v 101.5714 66.95807 -67.41405
v 101.5398 66.98832 -67.38881
v 101.5304 66.99732 -67.3813
v 101.4594 67.06536 -67.32454
v 100.6439 67.84595 -66.67332
v 99.97012 68.49084 -66.13531
v 99.30419 69.12827 -65.60354
v 99.30296 69.24297 -65.57545
v 99.30019 69.49995 -65.51254
v 99.29247 70.21691 -65.33702
v 95.20457 74.12981 -62.07265
v 99.28938 70.50364 -65.26682
v 99.27885 71.48132 -65.02747
v 99.27019 72.28633 -64.83039
v 99.26417 72.84513 -64.69359
v 99.40313 73.02132 -64.73076
v 99.44403 73.07317 -64.7417
v 99.4482 73.07846 -64.74281
v 99.45014 73.08092 -64.74333
v 99.45259 73.08402 -64.74399
v 99.49797 73.14156 -64.75613
v 101.6022 75.80945 -65.31896
v 101.6022 75.80946 -65.31896
v 101.6022 75.80946 -65.31896
v 99.88065 80.05845 -63.32339
v 106.7669 63.06247 -71.30568
v 120.3695 53.61472 -32.11606
v 100.0739 62.11184 -67.71698
v 116.9147 58.81391 -53.50522
v 115.5802 58.19896 -28.29161
v 95.28462 66.69608 -63.89254
v 115.5002 65.63269 -26.47172
v 95.20457 74.12981 -62.07265
v 127.0625 54.56535 -35.70475
v 99.88065 80.05844 -63.32339
v 111.75 71.56089 -47.51849
v 101.6022 75.80946 -65.31896
v 110.0285 75.80988 -45.52292
v 121.8978 67.31234 -29.71805
v 120.1763 71.56133 -27.72246
v 121.4059 68.52633 -29.14787
v 121.8978 67.31233 -29.71803
v 125.3409 58.81435 -33.70918
v 120.3695 53.61472 -32.11606
v 126.054 57.05436 -34.53577
v 120.3695 53.61472 -32.11606
v 127.0625 54.56535 -35.70475
v 125.3409 58.81435 -33.70918
v 123.3994 58.53858 -32.66814
v 125.3409 58.81435 -33.70918
v 123.1581 58.50431 -32.53877
v 123.0904 58.49469 -32.50246
v 122.3291 58.38656 -32.09426
v 122.2132 58.3701 -32.03214
v 122.0907 58.3527 -31.96645
v 122.0643 58.34896 -31.95231
v 121.9944 58.33903 -31.91483
v 115.5802 58.19896 -28.29161
v 121.2931 59.01038 -31.35475
v 120.8481 59.43631 -30.99941
v 120.5637 59.70856 -30.77229
v 120.479 59.78958 -30.70469
v 119.8393 60.40194 -30.19383
v 119.7487 60.48867 -30.12147
v 119.6738 60.56033 -30.06169
v 119.5998 60.63115 -30.00261
v 119.5887 61.66343 -29.74989
v 119.5638 63.97633 -29.18366
v 119.5626 64.08785 -29.15635
v 119.5614 64.19648 -29.12976
v 119.5604 64.28593 -29.10786
v 119.5598 64.34801 -29.09266
v 115.5002 65.63269 -26.47172
v 119.5598 64.34801 -29.09266
v 120.8104 65.93362 -29.42717
v 121.1785 66.40033 -29.52563
v 121.2161 66.44798 -29.53568
v 121.2335 66.47007 -29.54034
v 121.2555 66.49799 -29.54623
v 121.664 67.0159 -29.65549
v 121.8978 67.31233 -29.71803
v 121.4059 68.52633 -29.14787
v 121.8978 67.31233 -29.71803
v 120.1763 71.56133 -27.72246

vn 0.3443115 -0.8497981 -0.399115
vn 0.3443116 -0.8497981 -0.3991149
vn -0.0541768 -0.5130843 -0.8566267
vn -0.4849447 0.2030306 -0.850651
vn -0.4849447 0.2030306 -0.850651
vn -0.01045366 0.9712634 0.2377775
vn -0.4094327 0.8699702 0.2748034
vn 0.6990528 0.674462 -0.237542
vn -0.01045757 0.9712628 0.2377799
vn -0.01045834 0.9712628 0.2377803
vn -0.01045802 0.9712627 0.2377802
vn -0.01045709 0.9712629 0.2377798
vn -0.01045613 0.9712629 0.2377793
vn -0.01046148 0.9712623 0.2377815
vn -0.01045891 0.9712626 0.2377805
vn -0.01045842 0.9712626 0.2377803
vn -0.01045857 0.9712628 0.2377803
vn -0.01045864 0.9712626 0.2377804
vn -0.01045838 0.9712627 0.2377802
vn -0.01045867 0.9712627 0.2377804
vn -0.01045765 0.9712628 0.2377799
vn -0.01045625 0.9712629 0.2377792
vn -0.01045822 0.9712627 0.2377801
vn -0.01045898 0.9712626 0.2377805
vn 0.1215616 0.9788853 0.1643367
vn 0.5848535 0.7984625 -0.1428424
vn 0.610959 0.7746122 -0.1634173
vn 0.6109584 0.7746126 -0.1634169
vn 0.6109582 0.7746128 -0.1634167
vn 0.6109568 0.7746142 -0.1634158
vn 0.610956 0.7746149 -0.1634152
vn 0.6109548 0.774616 -0.1634146
vn 0.6109567 0.7746143 -0.1634158
vn 0.6109575 0.7746134 -0.1634162
vn 0.610958 0.7746132 -0.1634165
vn 0.610958 0.7746131 -0.1634164
vn 0.6109572 0.7746137 -0.1634159
vn 0.6109577 0.7746134 -0.1634163
vn 0.6109585 0.7746127 -0.1634168
vn 0.650819 0.7335107 -0.1959509
vn 0.871887 0.1880173 -0.4521755
vn 0.8744823 0.1242077 -0.468885
vn 0.8744823 0.1242066 -0.4688852
vn 0.8744824 0.1242059 -0.4688854
vn 0.8744823 0.1242059 -0.4688854
vn 0.8744823 0.1242064 -0.4688853
vn 0.8744822 0.1242069 -0.4688853
vn 0.8744823 0.1242065 -0.4688853
vn 0.8744823 0.1242068 -0.4688853
vn 0.8744823 0.1242065 -0.4688853
vn 0.8744823 0.1242065 -0.4688854
vn 0.8744823 0.124207 -0.4688852
vn 0.859395 -0.06963138 -0.5065489
vn 0.874482 0.1242296 -0.4688797
vn 0.6257475 -0.5989591 -0.499688
vn 0.6257467 -0.59896 -0.4996877
vn 0.6257465 -0.5989605 -0.4996876
vn 0.6257458 -0.5989614 -0.4996873
vn 0.625747 -0.5989597 -0.4996879
vn 0.6257479 -0.5989585 -0.4996884
vn 0.6257493 -0.5989562 -0.499689
vn 0.6257743 -0.59892 -0.4997012
vn 0.6257587 -0.5989428 -0.4996935
vn 0.6257429 -0.5989656 -0.499686
vn 0.6257452 -0.5989623 -0.499687
vn 0.6257468 -0.59896 -0.4996878
vn 0.6257471 -0.5989594 -0.4996879
vn 0.6257473 -0.5989593 -0.4996879
vn 0.6257504 -0.5989555 -0.4996887
vn 0.7192504 -0.4607353 -0.5200018
vn 0.3443117 -0.8497981 -0.3991147
vn 0.3443117 -0.8497981 -0.3991147
vn 0.3443117 -0.8497981 -0.3991147
vn -0.4849447 0.2030306 -0.850651
vn -0.6257468 0.5989597 0.4996879
vn -0.4849447 0.2030306 -0.850651
vn 0.7523496 0.5927524 -0.2874279
vn -0.1451302 -0.3975302 -0.9060391
vn -0.2067033 -0.3109846 -0.927665
vn 0.3089867 -0.8332254 -0.458544
vn 0.3443117 -0.8497981 -0.3991147
vn 0.3443117 -0.8497981 -0.3991147
vn 0.3443117 -0.8497981 -0.3991147
vn 0.2925297 -0.8243654 -0.4846112
vn -0.4849447 0.2030306 -0.850651
vn 0.3381478 -0.8471562 -0.4098566
vn 0.3443117 -0.8497981 -0.3991147
vn 0.2722697 -0.8125443 -0.5154036
vn 0.3443064 -0.8498014 -0.3991125
vn 0.3728024 -0.8604584 -0.3473179
vn -0.6257469 0.5989597 0.4996879
vn 0.3442927 -0.8498096 -0.3991066
vn 0.4849471 -0.2030365 0.8506483
vn 0.4849447 -0.2030306 0.850651
vn 0.4849443 -0.2030308 0.8506511
vn 0 0 0
vn -0.625747 0.5989597 0.4996879
vn -0.625747 0.5989597 0.4996879
vn -0.625747 0.5989598 0.4996879
vn 0.4849443 -0.2030308 0.8506511
vn 0.4849443 -0.2030308 0.8506511
vn 0.8039142 0.4864377 -0.3421992
vn 0.8039142 0.4864376 -0.3421992
vn 0.8039142 0.4864377 -0.3421992
vn 0.8039142 0.4864377 -0.3421992
vn 0.8039142 0.4864377 -0.3421992
vn 0.8039142 0.4864377 -0.3421992
vn 0.8039142 0.4864377 -0.3421992
vn 0.8039142 0.4864377 -0.3421992
vn 0.8039142 0.4864377 -0.3421992
vn -0.4849447 0.2030306 -0.850651
vn -0.4849447 0.2030306 -0.850651
vn -0.4849447 0.2030306 -0.850651
vn -0.4849447 0.2030306 -0.850651
vn -0.4849447 0.2030306 -0.850651
vn -0.4849447 0.2030306 -0.850651
vn -0.4849447 0.2030306 -0.850651
vn -0.4849447 0.2030306 -0.850651
vn -0.4849447 0.2030306 -0.850651
vn -0.4849447 0.2030306 -0.850651
vn -0.4849447 0.2030306 -0.850651
vn -0.4849447 0.2030306 -0.850651
vn -0.4849447 0.2030306 -0.850651
vn -0.4849447 0.2030306 -0.850651
vn -0.4849447 0.2030306 -0.850651
vn -0.4849447 0.2030306 -0.850651
vn -0.4849447 0.2030306 -0.850651
vn -0.4849447 0.2030306 -0.850651
vn -0.4849447 0.2030306 -0.850651
vn -0.4849447 0.2030306 -0.850651
vn -0.4849447 0.2030306 -0.850651
vn -0.4849447 0.2030306 -0.850651
vn -0.4849447 0.2030306 -0.850651
vn -0.4849447 0.2030306 -0.850651
vn -0.4849447 0.2030306 -0.850651
vn -0.4849447 0.2030306 -0.850651
vn -0.4849447 0.2030306 -0.850651
vn -0.4849447 0.2030306 -0.850651
vn -0.4849447 0.2030306 -0.850651
vn -0.4849447 0.2030306 -0.850651
vn -0.4849447 0.2030306 -0.850651
vn -0.4849447 0.2030306 -0.850651
vn -0.4849447 0.2030306 -0.850651
vn -0.4849447 0.2030306 -0.850651
vn -0.4849447 0.2030306 -0.850651
vn -0.4849447 0.2030306 -0.850651
vn -0.4849447 0.2030306 -0.850651
vn -0.4849447 0.2030306 -0.850651
vn 0.01045799 -0.9712628 -0.2377802
vn -0.2108849 -0.9711238 -0.1115624
vn -0.4329831 -0.90084 0.03182797
vn 0.01045796 -0.9712626 -0.2377801
vn -0.7492666 -0.5980963 0.284395
vn -0.8434521 -0.3656364 0.3935717
vn -0.8744823 -0.1242064 0.4688854
vn -0.8744823 -0.1242064 0.4688854
vn 0.0104581 -0.9712627 -0.2377801
vn 0.8039142 0.4864377 -0.3421992
vn 0.8039142 0.4864377 -0.3421992
vn 0.8039142 0.4864377 -0.3421992
vn 0.8039142 0.4864377 -0.3421992
vn 0.8039142 0.4864377 -0.3421992
vn 0.8039142 0.4864377 -0.3421992
vn 0.8039142 0.4864377 -0.3421992
vn 0.8039142 0.4864376 -0.3421991
vn -0.2388085 0.7909637 0.5633355
vn 0.4849449 -0.2030313 0.8506507
vn 0.4849445 -0.2030307 0.850651
vn 0.4849445 -0.2030308 0.8506511
vn 0.4849445 -0.2030307 0.8506511
vn 0.4849445 -0.2030307 0.8506511
vn 0.4849447 -0.2030309 0.850651
vn 0.4849447 -0.2030309 0.850651
vn 0.4849447 -0.2030309 0.850651
vn 0.4849447 -0.2030309 0.850651
vn 0.4849447 -0.2030309 0.850651
vn 0.4849447 -0.2030309 0.8506509
vn 0.4849447 -0.2030309 0.850651
vn 0.4849447 -0.2030309 0.8506509
vn 0.4849445 -0.2030309 0.8506511
vn 0.4849444 -0.2030308 0.8506511
vn 0.4849445 -0.2030309 0.8506511
vn 0.4849445 -0.2030309 0.8506511
vn 0.4849445 -0.2030309 0.8506511
vn 0.4849445 -0.2030309 0.8506511
vn 0.4849445 -0.2030309 0.8506511
vn 0.4849445 -0.2030309 0.8506511
vn 0.4849445 -0.2030309 0.8506511
vn 0.4849444 -0.2030307 0.8506511
vn 0.4849444 -0.2030307 0.8506512
vn 0.4849444 -0.2030307 0.8506512
vn 0.4849444 -0.2030307 0.8506512
vn 0.4849444 -0.2030307 0.8506512
vn 0.4849444 -0.2030307 0.8506512
vn 0.4849444 -0.2030307 0.8506512
vn 0.4849445 -0.2030306 0.8506511
vn 0.4849445 -0.2030304 0.8506512
vn 0.4849445 -0.2030304 0.8506512
vn 0.4849445 -0.2030304 0.8506512
vn 0.4849445 -0.2030304 0.8506512
vn 0.4849445 -0.2030304 0.8506512
vn 0.4849445 -0.2030304 0.8506512
vn 0.4849445 -0.2030304 0.8506512
vn 0.4849445 -0.2030304 0.8506511
vn 0.4849445 -0.2030307 0.8506511
vn 0.4849445 -0.2030307 0.8506511
vn 0.4849445 -0.2030307 0.850651

f 1//1 2//2 3//3
f 4//4 1//1 3//3
f 3//3 5//5 4//4
f 3//3 6//6 5//5
f 5//5 6//6 7//7
f 8//8 7//7 6//6
f 9//9 8//8 6//6
f 10//10 9//9 6//6
f 9//9 10//10 11//11
f 11//11 10//10 12//12
f 13//13 11//11 12//12
f 13//13 12//12 14//14
f 13//13 14//14 15//15
f 15//15 14//14 16//16
f 15//15 16//16 17//17
f 18//18 17//17 16//16
f 19//19 17//17 18//18
f 19//19 18//18 20//20
f 21//21 19//19 20//20
f 22//22 19//19 21//21
f 22//22 21//21 23//23
f 24//24 22//22 23//23
f 24//24 23//23 25//25
f 26//26 24//24 25//25
f 26//26 25//25 27//27
f 28//28 26//26 27//27
f 28//28 27//27 29//29
f 29//29 27//27 30//30
f 31//31 29//29 30//30
f 31//31 30//30 32//32
f 33//33 31//31 32//32
f 33//33 32//32 34//34
f 35//35 33//33 34//34
f 35//35 34//34 36//36
f 37//37 35//35 36//36
f 37//37 36//36 38//38
f 39//39 37//37 38//38
f 39//39 38//38 40//40
f 41//41 39//39 40//40
f 41//41 40//40 42//42
f 41//41 42//42 43//43
f 43//43 42//42 44//44
f 45//45 43//43 44//44
f 45//45 44//44 46//46
f 47//47 45//45 46//46
f 48//48 45//45 47//47
f 48//48 47//47 49//49
f 50//50 48//48 49//49
f 50//50 49//49 51//51
f 52//52 50//50 51//51
f 52//52 51//51 53//53
f 54//54 52//52 53//53
f 55//55 54//54 53//53
f 55//55 53//53 56//56
f 55//55 56//56 57//57
f 57//57 56//56 58//58
f 57//57 58//58 59//59
f 59//59 58//58 60//60
f 59//59 60//60 61//61
f 61//61 60//60 62//62
f 61//61 62//62 63//63
f 63//63 62//62 64//64
f 63//63 64//64 65//65
f 65//65 64//64 66//66
f 65//65 66//66 67//67
f 68//68 67//67 66//66
f 69//69 67//67 68//68
f 69//69 68//68 70//70
f 71//71 69//69 70//70
f 72//72 71//71 73//73
f 74//74 75//75 76//76
f 77//77 74//74 76//76
f 75//75 77//77 76//76
f 78//78 75//75 74//74
f 79//79 75//75 78//78
f 78//78 74//74 80//80
f 81//81 78//78 80//80
f 82//82 78//78 81//81
f 82//82 83//83 78//78
f 83//83 84//84 79//79
f 84//84 85//85 79//79
f 80//80 74//74 86//86
f 87//87 80//80 86//86
f 81//81 80//80 87//87
f 86//86 74//74 88//88
f 88//88 74//74 77//77
f 86//86 88//88 89//89
f 90//90 86//86 89//89
f 87//87 86//86 90//90
f 75//75 91//91 77//77
f 90//90 89//89 92//92
f 90//90 92//92 93//93
f 94//94 90//90 93//93
f 95//95 83//83 82//82
f 95//95 82//82 81//81
f 95//95 81//81 87//87
f 95//95 87//87 90//90
f 95//95 96//96 83//83
f 97//97 91//91 75//75
f 97//97 98//98 91//91
f 97//97 99//99 98//98
f 100//100 95//95 101//101
f 102//102 103//103 104//104
f 102//102 104//104 105//105
f 102//102 105//105 106//106
f 106//106 105//105 107//107
f 108//108 102//102 106//106
f 109//109 102//102 108//108
f 110//110 108//108 106//106
f 111//111 112//112 113//113
f 111//111 113//113 114//114
f 111//111 114//114 115//115
f 111//111 115//115 116//116
f 111//111 116//116 117//117
f 117//117 118//118 111//111
f 118//118 119//119 111//111
f 120//120 111//111 119//119
f 120//120 121//121 111//111
f 121//121 122//122 111//111
f 111//111 122//122 123//123
f 114//114 113//113 124//124
f 124//124 113//113 125//125
f 125//125 113//113 126//126
f 126//126 113//113 127//127
f 127//127 113//113 128//128
f 128//128 113//113 129//129
f 129//129 113//113 130//130
f 130//130 113//113 131//131
f 131//131 113//113 132//132
f 132//132 113//113 133//133
f 133//133 113//113 134//134
f 133//133 134//134 135//135
f 135//135 134//134 136//136
f 134//134 137//137 136//136
f 137//137 134//134 138//138
f 138//138 134//134 139//139
f 139//139 134//134 140//140
f 140//140 134//134 141//141
f 134//134 142//142 141//141
f 134//134 143//143 142//142
f 134//134 144//144 143//143
f 144//144 134//134 145//145
f 145//145 134//134 146//146
f 147//147 134//134 148//148
f 149//149 150//150 151//151
f 149//149 152//152 150//150
f 151//151 150//150 153//153
f 151//151 153//153 154//154
f 154//154 153//153 155//155
f 154//154 155//155 156//156
f 152//152 157//157 150//150
f 158//158 159//159 160//160
f 161//161 159//159 158//158
f 162//162 159//159 161//161
f 163//163 162//162 161//161
f 164//164 162//162 163//163
f 165//165 162//162 164//164
f 9//9 166//166 8//8
f 166//166 9//9 167//167
f 168//168 169//169 170//170
f 168//168 171//171 169//169
f 172//172 169//169 173//173
f 174//174 169//169 172//172
f 169//169 174//174 175//175
f 176//176 169//169 175//175
f 177//177 169//169 176//176
f 178//178 169//169 177//177
f 178//178 179//179 169//169
f 179//179 180//180 169//169
f 180//180 181//181 169//169
f 182//182 181//181 180//180
f 182//182 183//183 181//181
f 183//183 184//184 181//181
f 184//184 185//185 181//181
f 185//185 186//186 181//181
f 186//186 187//187 181//181
f 187//187 188//188 181//181
f 188//188 189//189 181//181
f 181//181 189//189 190//190
f 181//181 190//190 191//191
f 192//192 181//181 191//191
f 193//193 181//181 192//192
f 194//194 181//181 193//193
f 195//195 181//181 194//194
f 195//195 196//196 181//181
f 196//196 197//197 198//198
f 196//196 198//198 199//199
f 199//199 200//200 196//196
f 196//196 200//200 201//201
f 201//201 202//202 196//196
f 196//196 202//202 203//203
f 196//196 203//203 204//204
f 205//205 196//196 206//206
f 207//207 196//196 205//205
