v -47.68549 120.2127 -63.33371
v -40.50902 128.551 -45.53323
v -47.68549 120.2127 -63.33371
v -47.68549 120.2127 -63.33371
v -44.41676 120.4345 -64.75543
v -43.10926 120.5232 -65.32412
v -43.10926 120.5232 -65.32412
v -35.93279 128.8615 -47.52364
v -28.75632 137.1998 -29.72316
v -43.07104 120.7377 -65.43996
v -28.41241 139.1296 -30.76578
v -43.0663 120.7643 -65.45436
v -28.36967 139.3694 -30.89535
v -43.06496 120.7718 -65.4584
v -28.35767 139.4367 -30.93172
v -43.04998 120.8559 -65.50382
v -28.22283 140.1934 -31.34053
v -42.86525 121.8924 -66.06386
v -28.2023 140.3085 -31.40276
v -42.69011 122.8752 -66.59485
v -42.66996 122.9883 -66.65593
v -28.1806 140.4303 -31.46854
v -42.62794 123.2241 -66.78334
v -28.17593 140.4565 -31.4827
v -42.51649 123.8495 -67.1212
v -28.16355 140.526 -31.52024
v -42.36084 123.9324 -67.22282
v -27.30648 140.9828 -32.07977
v -26.76271 141.2726 -32.43475
v -42.32222 123.953 -67.24802
v -26.41514 141.4579 -32.66165
v -42.31073 123.9591 -67.25552
v -26.31171 141.513 -32.72918
v -42.22387 124.0054 -67.31223
v -25.52995 141.9297 -33.23954
v -41.22733 124.5366 -67.96281
v -25.41922 141.9887 -33.31182
v -40.40403 124.9754 -68.50028
v -25.32774 142.0375 -33.37154
v -39.59026 125.4091 -69.03153
v -25.23732 142.0857 -33.43057
v -39.48085 125.3745 -69.05945
v -24.25262 141.7744 -33.68179
v -39.23571 125.2971 -69.12199
v -22.04633 141.0772 -34.24465
v -38.5518 125.0809 -69.29646
v -38.27829 124.9945 -69.36624
v -21.93995 141.0435 -34.27179
v -37.34567 124.6997 -69.60416
v -21.83633 141.0108 -34.29823
v -36.57776 124.457 -69.80007
v -21.751 140.9838 -34.31999
v -36.04472 124.2886 -69.93607
v -21.69178 140.9651 -34.3351
v -21.69178 140.9651 -34.3351
v -35.92063 124.1017 -69.89855
v -20.57495 139.2832 -33.99751
v -35.8841 124.0467 -69.88751
v -20.24622 138.7881 -33.89814
v -35.88037 124.0411 -69.88638
v -20.21266 138.7376 -33.888
v -35.87864 124.0385 -69.88586
v -20.1971 138.7142 -33.8833
v -35.87646 124.0352 -69.8852
v -20.17743 138.6846 -33.87735
v -35.83593 123.9741 -69.87295
v -19.81264 138.1352 -33.76708
v -33.95679 121.1442 -69.30493
v -19.60385 137.8208 -33.70397
v -33.95679 121.1442 -69.30493
v -19.60385 137.8208 -33.70397
v -33.95679 121.1442 -69.30493
v -33.95679 121.1442 -69.30493
v -32.6493 121.2329 -69.87362
v -29.38056 121.4547 -71.29534
v -29.38056 121.4547 -71.29534
v -29.38056 121.4547 -71.29533
v -33.95679 121.1442 -69.30493
v -33.95679 121.1442 -69.30493
v -33.95679 121.1442 -69.30493
v -19.60385 137.8208 -33.70397
v -19.60385 137.8208 -33.70397
v -19.60385 137.8208 -33.70397
v -33.95679 121.1442 -69.30493
v -33.55642 127.7434 -72.5576
v -33.95679 121.1442 -69.30493
v -19.60385 137.8208 -33.70397
v -33.95679 121.1442 -69.30493
v -26.78032 129.4825 -51.50445
v -19.60385 137.8208 -33.70397
v -22.20409 129.793 -53.49485
v -19.60386 137.8208 -33.70399
v -19.60385 137.8208 -33.70397
v -18.29635 137.9095 -34.27266
v -19.20347 144.42 -36.95664
v -19.60385 137.8208 -33.70397
v -33.55642 127.7434 -72.5576
v -15.02762 138.1313 -35.69438
v -19.20347 144.42 -36.95664
v -21.69178 140.9651 -34.3351
v -21.69178 140.9651 -34.3351
v -40.50902 128.551 -45.53323
v -47.68549 120.2127 -63.33371
v -47.68549 120.2127 -63.33371
v -44.41676 120.4345 -64.75543
v -35.93279 128.8615 -47.52364
v -43.10926 120.5232 -65.32412
v -30.65186 137.0712 -28.8987
v -33.33255 136.8893 -27.73275
v -28.75632 137.1998 -29.72316
v -47.68549 120.2127 -63.33371
v -46.49996 126.8652 -66.92788
v -40.6475 129.9845 -70.74854
v -42.51649 123.8495 -67.1212
v -42.62794 123.2241 -66.78334
v -42.66996 122.9883 -66.65593
v -42.69011 122.8752 -66.59485
v -42.86525 121.8924 -66.06386
v -43.04998 120.8559 -65.50382
v -43.06496 120.7718 -65.4584
v -43.0663 120.7643 -65.45436
v -43.07104 120.7377 -65.43996
v -43.10926 120.5232 -65.32412
v -42.36084 123.9324 -67.22282
v -42.32222 123.953 -67.24802
v -42.31073 123.9591 -67.25552
v -42.22387 124.0054 -67.31223
v -41.22733 124.5366 -67.96281
v -40.40403 124.9754 -68.50028
v -39.59026 125.4091 -69.03153
v -39.48085 125.3745 -69.05945
v -39.23571 125.2971 -69.12199
v -38.5518 125.0809 -69.29646
v -33.55642 127.7434 -72.5576
v -38.27829 124.9945 -69.36624
v -37.34567 124.6997 -69.60416
v -36.57776 124.457 -69.80007
v -36.04472 124.2886 -69.93607
v -35.92063 124.1017 -69.89855
v -35.8841 124.0467 -69.88751
v -35.88037 124.0411 -69.88638
v -35.87864 124.0385 -69.88586
v -35.87646 124.0352 -69.8852
v -35.83593 123.9741 -69.87295
v -33.95679 121.1442 -69.30493
v -33.95679 121.1442 -69.30493
v -33.95679 121.1442 -69.30493
v -29.38056 121.4547 -71.29534
v -47.68549 120.2127 -63.33371
v -32.14702 143.5417 -31.32692
v -46.49996 126.8652 -66.92788
v -40.50902 128.551 -45.53323
v -26.29456 146.661 -35.14758
v -40.6475 129.9845 -70.74854
v -19.20347 144.42 -36.95664
v -33.55642 127.7434 -72.5576
v -33.33255 136.8893 -27.73275
v -29.38056 121.4547 -71.29533
v -26.78032 129.4825 -51.50445
v -33.95679 121.1442 -69.30493
v -22.20409 129.793 -53.49485
v -19.60386 137.8208 -33.70399
v -15.02762 138.1313 -35.69438
v -18.29635 137.9095 -34.27266
v -19.60385 137.8208 -33.70397
v -28.75632 137.1998 -29.72316
v -32.14702 143.5417 -31.32692
v -30.65186 137.0712 -28.8987
v -32.14702 143.5417 -31.32692
v -33.33255 136.8893 -27.73275
v -28.75632 137.1998 -29.72316
v -28.41241 139.1296 -30.76578
v -28.75632 137.1998 -29.72316
v -28.36967 139.3694 -30.89535
v -28.35767 139.4367 -30.93172
v -28.22283 140.1934 -31.34053
v -28.2023 140.3085 -31.40276
v -28.1806 140.4303 -31.46854
v -28.17593 140.4565 -31.4827
v -28.16355 140.526 -31.52024
v -26.29456 146.661 -35.14758
v -27.30648 140.9828 -32.07977
v -26.76271 141.2726 -32.43475
v -26.41514 141.4579 -32.66165
v -26.31171 141.513 -32.72918
v -25.52995 141.9297 -33.23954
v -25.41922 141.9887 -33.31182
v -25.32774 142.0375 -33.37154
v -25.23732 142.0857 -33.43057
v -24.25262 141.7744 -33.68179
v -22.04633 141.0772 -34.24465
v -21.93995 141.0435 -34.27179
v -21.83633 141.0108 -34.29823
v -21.751 140.9838 -34.31999
v -21.69178 140.9651 -34.3351
v -19.20347 144.42 -36.95664
v -21.69178 140.9651 -34.3351
v -20.57495 139.2832 -33.99751
v -20.24622 138.7881 -33.89814
v -20.21266 138.7376 -33.888
v -20.1971 138.7142 -33.8833
v -20.17743 138.6846 -33.87735
v -19.81264 138.1352 -33.76708
v -19.60385 137.8208 -33.70397
v -18.29635 137.9095 -34.27266
v -19.60385 137.8208 -33.70397
v -15.02762 138.1313 -35.69438

vn -0.9152461 -0.06209898 0.3980806
vn -0.9152461 -0.06209892 0.3980808
vn -0.9180954 -0.3064696 -0.2513506
vn -0.34295 -0.3984698 -0.850651
vn -0.34295 -0.3984698 -0.850651
vn 0.9264938 -0.2928172 -0.2363627
vn 0.8575471 0.005122661 -0.5143802
vn 0.422905 -0.8741004 0.2389553
vn 0.9264946 -0.292813 -0.2363646
vn 0.9264948 -0.2928123 -0.2363651
vn 0.9264947 -0.2928126 -0.2363649
vn 0.9264946 -0.2928135 -0.2363643
vn 0.9264944 -0.2928144 -0.2363638
vn 0.9264951 -0.2928096 -0.236367
vn 0.9264948 -0.2928119 -0.2363655
vn 0.9264947 -0.2928123 -0.2363652
vn 0.9264948 -0.2928122 -0.2363653
vn 0.9264947 -0.2928121 -0.2363653
vn 0.9264947 -0.2928123 -0.2363651
vn 0.9264948 -0.2928121 -0.2363653
vn 0.9264946 -0.2928131 -0.2363648
vn 0.9264943 -0.2928144 -0.236364
vn 0.9264946 -0.2928126 -0.2363651
vn 0.9264948 -0.2928118 -0.2363655
vn 0.8925316 -0.4205638 -0.16283
vn 0.5764195 -0.8043 0.1443676
vn 0.5456001 -0.8216574 0.1649236
vn 0.5456007 -0.8216569 0.1649231
vn 0.545601 -0.8216569 0.1649229
vn 0.5456026 -0.8216562 0.1649218
vn 0.5456035 -0.8216556 0.164921
vn 0.5456046 -0.821655 0.16492
vn 0.5456026 -0.8216561 0.1649217
vn 0.5456017 -0.8216564 0.1649224
vn 0.5456014 -0.8216568 0.1649227
vn 0.5456012 -0.8216566 0.1649228
vn 0.5456021 -0.8216562 0.1649222
vn 0.5456017 -0.8216566 0.1649225
vn 0.5456007 -0.821657 0.1649232
vn 0.4940894 -0.8466998 0.1974214
vn -0.09343164 -0.8866102 0.4529824
vn -0.1548958 -0.8691853 0.4696
vn -0.1548968 -0.869185 0.4696003
vn -0.1548974 -0.8691849 0.4696005
vn -0.1548974 -0.8691848 0.4696005
vn -0.154897 -0.8691849 0.4696003
vn -0.1548965 -0.8691851 0.4696001
vn -0.1548969 -0.869185 0.4696003
vn -0.1548966 -0.8691851 0.4696002
vn -0.1548969 -0.869185 0.4696002
vn -0.1548969 -0.8691851 0.4696003
vn -0.1548965 -0.8691851 0.4696001
vn -0.3344395 -0.7944374 0.5069709
vn -0.154875 -0.8691919 0.4695946
vn -0.7646592 -0.407557 0.4991929
vn -0.7646599 -0.4075559 0.4991927
vn -0.7646602 -0.4075556 0.4991927
vn -0.7646607 -0.4075545 0.4991925
vn -0.7646598 -0.4075563 0.4991927
vn -0.764659 -0.4075578 0.4991928
vn -0.7646575 -0.4075601 0.4991929
vn -0.7646348 -0.4075995 0.4991956
vn -0.7646491 -0.4075747 0.499194
vn -0.7646635 -0.40755 0.4991922
vn -0.7646614 -0.4075536 0.4991925
vn -0.7646599 -0.407556 0.4991927
vn -0.7646595 -0.4075565 0.4991927
vn -0.7646594 -0.4075567 0.4991928
vn -0.7646567 -0.4075609 0.4991937
vn -0.6624571 -0.5394384 0.5197661
vn -0.915246 -0.06209884 0.3980809
vn -0.915246 -0.06209884 0.3980809
vn -0.915246 -0.06209884 0.3980809
vn -0.34295 -0.3984698 -0.850651
vn 0.7646598 0.4075563 -0.4991926
vn -0.34295 -0.3984698 -0.850651
vn 0.3286002 -0.8992458 0.2887542
vn -0.8551958 -0.3433244 -0.3882893
vn -0.7989543 -0.3642068 -0.4785661
vn -0.9372993 -0.09025279 0.336637
vn -0.915246 -0.06209884 0.3980809
vn -0.915246 -0.06209884 0.3980809
vn -0.915246 -0.06209884 0.3980809
vn -0.9457027 -0.102812 0.3083442
vn -0.34295 -0.3984698 -0.850651
vn -0.9195143 -0.06714501 0.3872791
vn -0.915246 -0.06209884 0.3980809
vn -0.9545478 -0.1178268 0.2737798
vn -0.9152474 -0.06209277 0.3980787
vn -0.8930048 -0.03805622 0.4484352
vn 0.7646597 0.4075562 -0.4991926
vn -0.915251 -0.0620772 0.3980728
vn 0.3429436 0.3984694 0.8506538
vn 0.34295 0.3984698 0.850651
vn 0.3429499 0.3984703 0.8506508
vn 0 0 0
vn 0.7646598 0.4075563 -0.4991927
vn 0.7646598 0.4075563 -0.4991927
vn 0.7646598 0.4075563 -0.4991927
vn 0.3429499 0.3984703 0.8506508
vn 0.3429499 0.3984703 0.8506508
vn 0.2114477 -0.9150767 0.3434013
vn 0.2114477 -0.9150767 0.3434012
vn 0.2114477 -0.9150767 0.3434013
vn 0.2114477 -0.9150767 0.3434013
vn 0.2114477 -0.9150767 0.3434013
vn 0.2114477 -0.9150767 0.3434013
vn 0.2114477 -0.9150767 0.3434013
vn 0.2114477 -0.9150767 0.3434013
vn 0.2114477 -0.9150767 0.3434013
vn -0.34295 -0.3984698 -0.850651
vn -0.34295 -0.3984698 -0.850651
vn -0.34295 -0.3984698 -0.850651
vn -0.34295 -0.3984698 -0.850651
vn -0.34295 -0.3984698 -0.850651
vn -0.34295 -0.3984698 -0.850651
vn -0.34295 -0.3984698 -0.850651
vn -0.34295 -0.3984698 -0.850651
vn -0.34295 -0.3984698 -0.850651
vn -0.34295 -0.3984698 -0.850651
vn -0.34295 -0.3984698 -0.850651
vn -0.34295 -0.3984698 -0.850651
vn -0.34295 -0.3984698 -0.850651
vn -0.34295 -0.3984698 -0.850651
vn -0.34295 -0.3984698 -0.850651
vn -0.34295 -0.3984698 -0.850651
vn -0.34295 -0.3984698 -0.850651
vn -0.34295 -0.3984698 -0.850651
vn -0.34295 -0.3984698 -0.850651
vn -0.34295 -0.3984698 -0.850651
vn -0.34295 -0.3984698 -0.850651
vn -0.34295 -0.3984698 -0.850651
vn -0.34295 -0.3984698 -0.850651
vn -0.34295 -0.3984698 -0.850651
vn -0.34295 -0.3984698 -0.850651
vn -0.34295 -0.3984698 -0.850651
vn -0.34295 -0.3984698 -0.850651
vn -0.34295 -0.3984698 -0.850651
vn -0.34295 -0.3984698 -0.850651
vn -0.34295 -0.3984698 -0.850651
vn -0.34295 -0.3984698 -0.850651
vn -0.34295 -0.3984698 -0.850651
vn -0.34295 -0.3984698 -0.850651
vn -0.34295 -0.3984698 -0.850651
vn -0.34295 -0.3984698 -0.850651
vn -0.34295 -0.3984698 -0.850651
vn -0.34295 -0.3984698 -0.850651
vn -0.34295 -0.3984698 -0.850651
vn -0.9264948 0.2928127 0.2363649
vn -0.8572726 0.5029721 0.1100124
vn -0.7211388 0.6919845 -0.03341045
vn -0.9264946 0.2928126 0.2363648
vn -0.3346421 0.8979837 -0.2857271
vn -0.08427915 0.9149707 -0.394621
vn 0.1548971 0.8691849 -0.4696003
vn 0.154897 0.869185 -0.4696003
vn -0.9264947 0.2928126 0.236365
vn 0.2114477 -0.9150767 0.3434013
vn 0.2114477 -0.9150767 0.3434013
vn 0.2114477 -0.9150767 0.3434013
vn 0.2114477 -0.9150767 0.3434013
vn 0.2114477 -0.9150767 0.3434013
vn 0.2114477 -0.9150767 0.3434013
vn 0.2114477 -0.9150767 0.3434013
vn 0.2114477 -0.9150767 0.3434013
vn 0.9657781 0.1416193 -0.217294
vn 0.3429493 0.3984698 0.8506513
vn 0.3429499 0.39847 0.8506508
vn 0.3429498 0.39847 0.850651
vn 0.34295 0.39847 0.8506509
vn 0.34295 0.39847 0.8506509
vn 0.3429497 0.39847 0.8506511
vn 0.3429497 0.39847 0.8506511
vn 0.3429497 0.39847 0.8506511
vn 0.3429497 0.39847 0.8506511
vn 0.3429497 0.39847 0.8506511
vn 0.3429497 0.3984699 0.850651
vn 0.3429497 0.39847 0.8506511
vn 0.3429497 0.3984699 0.850651
vn 0.3429498 0.3984701 0.850651
vn 0.3429499 0.3984701 0.8506509
vn 0.3429498 0.3984701 0.850651
vn 0.3429498 0.3984701 0.850651
vn 0.3429498 0.3984701 0.850651
vn 0.3429498 0.3984701 0.850651
vn 0.3429498 0.3984701 0.850651
vn 0.3429498 0.3984701 0.850651
vn 0.3429498 0.3984701 0.850651
vn 0.34295 0.3984701 0.8506508
vn 0.34295 0.3984701 0.8506508
vn 0.34295 0.3984701 0.8506508
vn 0.34295 0.3984701 0.8506508
vn 0.34295 0.3984701 0.8506508
vn 0.34295 0.3984701 0.8506508
vn 0.34295 0.3984701 0.8506508
vn 0.34295 0.3984701 0.8506508
vn 0.3429503 0.39847 0.8506508
vn 0.3429503 0.39847 0.8506508
vn 0.3429503 0.39847 0.8506508
vn 0.3429503 0.39847 0.8506508
vn 0.3429503 0.39847 0.8506508
vn 0.3429503 0.39847 0.8506508
vn 0.3429503 0.39847 0.8506508
vn 0.3429502 0.39847 0.8506508
vn 0.34295 0.39847 0.8506509
vn 0.34295 0.39847 0.8506509
vn 0.3429499 0.39847 0.8506508

f 1//1 2//2 3//3
f 4//4 1//1 3//3
f 3//3 5//5 4//4
f 3//3 6//6 5//5
f 5//5 6//6 7//7
f 8//8 7//7 6//6
f 9//9 8//8 6//6
f 10//10 9//9 6//6
f 9//9 10//10 11//11
f 11//11 10//10 12//12
f 13//13 11//11 12//12
f 13//13 12//12 14//14
f 13//13 14//14 15//15
f 15//15 14//14 16//16
f 15//15 16//16 17//17
f 18//18 17//17 16//16
f 19//19 17//17 18//18
f 19//19 18//18 20//20
f 21//21 19//19 20//20
f 22//22 19//19 21//21
f 22//22 21//21 23//23
f 24//24 22//22 23//23
f 24//24 23//23 25//25
f 26//26 24//24 25//25
f 26//26 25//25 27//27
f 28//28 26//26 27//27
f 28//28 27//27 29//29
f 29//29 27//27 30//30
f 31//31 29//29 30//30
f 31//31 30//30 32//32
f 33//33 31//31 32//32
f 33//33 32//32 34//34
f 35//35 33//33 34//34
f 35//35 34//34 36//36
f 37//37 35//35 36//36
f 37//37 36//36 38//38
f 39//39 37//37 38//38
f 39//39 38//38 40//40
f 41//41 39//39 40//40
f 41//41 40//40 42//42
f 41//41 42//42 43//43
f 43//43 42//42 44//44
f 45//45 43//43 44//44
f 45//45 44//44 46//46
f 47//47 45//45 46//46
f 48//48 45//45 47//47
f 48//48 47//47 49//49
f 50//50 48//48 49//49
f 50//50 49//49 51//51
f 52//52 50//50 51//51
f 52//52 51//51 53//53
f 54//54 52//52 53//53
f 55//55 54//54 53//53
f 55//55 53//53 56//56
f 55//55 56//56 57//57
f 57//57 56//56 58//58
f 57//57 58//58 59//59
f 59//59 58//58 60//60
f 59//59 60//60 61//61
f 61//61 60//60 62//62
f 61//61 62//62 63//63
f 63//63 62//62 64//64
f 63//63 64//64 65//65
f 65//65 64//64 66//66
f 65//65 66//66 67//67
f 68//68 67//67 66//66
f 69//69 67//67 68//68
f 69//69 68//68 70//70
f 71//71 69//69 70//70
f 72//72 71//71 73//73
f 74//74 75//75 76//76
f 77//77 74//74 76//76
f 75//75 77//77 76//76
f 78//78 75//75 74//74
f 79//79 75//75 78//78
f 78//78 74//74 80//80
f 81//81 78//78 80//80
f 82//82 78//78 81//81
f 82//82 83//83 78//78
f 83//83 84//84 79//79
f 84//84 85//85 79//79
f 80//80 74//74 86//86
f 87//87 80//80 86//86
f 81//81 80//80 87//87
f 86//86 74//74 88//88
f 88//88 74//74 77//77
f 86//86 88//88 89//89
f 90//90 86//86 89//89
f 87//87 86//86 90//90
f 75//75 91//91 77//77
f 90//90 89//89 92//92
f 90//90 92//92 93//93
f 94//94 90//90 93//93
f 95//95 83//83 82//82
f 95//95 82//82 81//81
f 95//95 81//81 87//87
f 95//95 87//87 90//90
f 95//95 96//96 83//83
f 97//97 91//91 75//75
f 97//97 98//98 91//91
f 97//97 99//99 98//98
f 100//100 95//95 101//101
f 102//102 103//103 104//104
f 102//102 104//104 105//105
f 102//102 105//105 106//106
f 106//106 105//105 107//107
f 108//108 102//102 106//106
f 109//109 102//102 108//108
f 110//110 108//108 106//106
f 111//111 112//112 113//113
f 111//111 113//113 114//114
f 111//111 114//114 115//115
f 111//111 115//115 116//116
f 111//111 116//116 117//117
f 117//117 118//118 111//111
f 118//118 119//119 111//111
f 120//120 111//111 119//119
f 120//120 121//121 111//111
f 121//121 122//122 111//111
f 111//111 122//122 123//123
f 114//114 113//113 124//124
f 124//124 113//113 125//125
f 125//125 113//113 126//126
f 126//126 113//113 127//127
f 127//127 113//113 128//128
f 128//128 113//113 129//129
f 129//129 113//113 130//130
f 130//130 113//113 131//131
f 131//131 113//113 132//132
f 132//132 113//113 133//133
f 133//133 113//113 134//134
f 133//133 134//134 135//135
f 135//135 134//134 136//136
f 134//134 137//137 136//136
f 137//137 134//134 138//138
f 138//138 134//134 139//139
f 139//139 134//134 140//140
f 140//140 134//134 141//141
f 134//134 142//142 141//141
f 134//134 143//143 142//142
f 134//134 144//144 143//143
f 144//144 134//134 145//145
f 145//145 134//134 146//146
f 147//147 134//134 148//148
f 149//149 150//150 151//151
f 149//149 152//152 150//150
f 151//151 150//150 153//153
f 151//151 153//153 154//154
f 154//154 153//153 155//155
f 154//154 155//155 156//156
f 152//152 157//157 150//150
f 158//158 159//159 160//160
f 161//161 159//159 158//158
f 162//162 159//159 161//161
f 163//163 162//162 161//161
f 164//164 162//162 163//163
f 165//165 162//162 164//164
f 9//9 166//166 8//8
f 166//166 9//9 167//167
f 168//168 169//169 170//170
f 168//168 171//171 169//169
f 172//172 169//169 173//173
f 174//174 169//169 172//172
f 169//169 174//174 175//175
f 176//176 169//169 175//175
f 177//177 169//169 176//176
f 178//178 169//169 177//177
f 178//178 179//179 169//169
f 179//179 180//180 169//169
f 180//180 181//181 169//169
f 182//182 181//181 180//180
f 182//182 183//183 181//181
f 183//183 184//184 181//181
f 184//184 185//185 181//181
f 185//185 186//186 181//181
f 186//186 187//187 181//181
f 187//187 188//188 181//181
f 188//188 189//189 181//181
f 181//181 189//189 190//190
f 181//181 190//190 191//191
f 192//192 181//181 191//191
f 193//193 181//181 192//192
f 194//194 181//181 193//193
f 195//195 181//181 194//194
f 195//195 196//196 181//181
f 196//196 197//197 198//198
f 196//196 198//198 199//199
f 199//199 200//200 196//196
f 196//196 200//200 201//201
f 201//201 202//202 196//196
f 196//196 202//202 203//203
f 196//196 203//203 204//204
f 205//205 196//196 206//206
f 207//207 196//196 205//205
