v 7.595064 -145.4825 12.66387
v -13.25975 -143.7615 12.66387
v 7.595064 -145.4825 12.66387
v 7.595064 -145.4825 12.66387
v 7.652683 -144.7842 16.16591
v 7.675732 -144.5049 17.56673
v 7.675732 -144.5049 17.56673
v -13.17908 -142.784 17.56673
v -34.0339 -141.063 17.56673
v 7.695635 -144.2638 17.61459
v -33.85477 -138.8923 17.99749
v 7.698109 -144.2338 17.62054
v -33.83251 -138.6226 18.05102
v 7.698803 -144.2254 17.62221
v -33.82626 -138.5468 18.06604
v 7.706606 -144.1308 17.64097
v -33.75602 -137.6957 18.23494
v 7.802824 -142.9648 17.87235
v -33.74533 -137.5662 18.26065
v 7.894049 -141.8594 18.09172
v 7.904543 -141.7322 18.11696
v -33.73403 -137.4292 18.28783
v 7.926432 -141.4669 18.16959
v -33.7316 -137.3997 18.29368
v 7.98448 -140.7635 18.30918
v -33.72515 -137.3216 18.30919
v 7.993795 -140.6507 18.47831
v -33.67385 -136.7 19.24046
v -33.6413 -136.3056 19.8313
v 7.996107 -140.6227 18.52027
v -33.6205 -136.0535 20.20896
v 7.996794 -140.6143 18.53275
v -33.61431 -135.9785 20.32135
v 8.001993 -140.5513 18.62714
v -33.56752 -135.4115 21.17079
v 8.061638 -139.8285 19.70995
v -33.56089 -135.3312 21.29111
v 8.110914 -139.2314 20.60453
v -33.55542 -135.2648 21.3905
v 8.15962 -138.6412 21.48874
v -33.55001 -135.1992 21.48875
v 8.157736 -138.664 21.60459
v -33.56696 -135.4047 22.53138
v 8.153515 -138.7152 21.86415
v -33.60496 -135.8652 24.86746
v 8.141737 -138.8579 22.5883
v 8.137026 -138.915 22.8779
v -33.60679 -135.8874 24.9801
v 8.120964 -139.1096 23.86538
v -33.60858 -135.909 25.08982
v 8.10774 -139.2699 24.67846
v -33.61005 -135.9268 25.18016
v 8.09856 -139.3811 25.24287
v -33.61107 -135.9392 25.24287
v -33.61107 -135.9392 25.24287
v 8.083019 -139.5695 25.36943
v -33.75094 -137.6342 26.38198
v 8.078444 -139.6249 25.40669
v -33.79211 -138.1331 26.71726
v 8.077978 -139.6306 25.41049
v -33.79631 -138.184 26.75148
v 8.077761 -139.6332 25.41225
v -33.79826 -138.2076 26.76736
v 8.077488 -139.6365 25.41448
v -33.80072 -138.2375 26.78742
v 8.072411 -139.698 25.45582
v -33.84641 -138.7911 27.15948
v 7.837067 -142.5499 27.37243
v -33.87256 -139.108 27.37244
v 7.837067 -142.5499 27.37244
v -33.87256 -139.108 27.37244
v 7.837067 -142.5499 27.37244
v 7.837067 -142.5499 27.37244
v 7.860115 -142.2706 28.77325
v 7.917734 -141.5724 32.27529
v 7.917734 -141.5724 32.27529
v 7.917734 -141.5724 32.27529
v 7.837067 -142.5499 27.37244
v 7.837067 -142.5499 27.37244
v 7.837067 -142.5499 27.37244
v -33.87256 -139.108 27.37244
v -33.87256 -139.108 27.37244
v -33.87256 -139.108 27.37244
v 7.837067 -142.5499 27.37244
v 8.440722 -135.2348 28.01615
v 7.837067 -142.5499 27.37244
v -33.87256 -139.108 27.37244
v 7.837067 -142.5499 27.37244
v -13.01775 -140.8289 27.37244
v -33.87256 -139.108 27.37244
v -12.93708 -139.8514 32.27529
v -33.87254 -139.108 27.37244
v -33.87256 -139.108 27.37244
v -33.84951 -138.8287 28.77326
v -33.26891 -131.7929 28.01616
v -33.87256 -139.108 27.37244
v 8.440722 -135.2348 28.01615
v -33.79189 -138.1304 32.2753
v -33.26891 -131.7929 28.01616
v -33.61107 -135.9392 25.24287
v -33.61107 -135.9392 25.24287
v -13.25975 -143.7615 12.66387
v 7.595064 -145.4825 12.66387
v 7.595064 -145.4825 12.66387
v 7.652683 -144.7842 16.16591
v -13.17908 -142.784 17.56673
v 7.675732 -144.5049 17.56673
v -34.06731 -141.4679 15.5359
v -34.11456 -142.0405 12.66388
v -34.0339 -141.063 17.56673
v 7.595064 -145.4825 12.66387
v 8.212559 -137.9996 14.14878
v 8.562841 -133.7549 20.5079
v 7.98448 -140.7635 18.30918
v 7.926432 -141.4669 18.16959
v 7.904543 -141.7322 18.11696
v 7.894049 -141.8594 18.09172
v 7.802824 -142.9648 17.87235
v 7.706606 -144.1308 17.64097
v 7.698803 -144.2254 17.62221
v 7.698109 -144.2338 17.62054
v 7.695635 -144.2638 17.61459
v 7.675732 -144.5049 17.56673
v 7.993795 -140.6507 18.47831
v 7.996107 -140.6227 18.52027
v 7.996794 -140.6143 18.53275
v 8.001993 -140.5513 18.62714
v 8.061638 -139.8285 19.70995
v 8.110914 -139.2314 20.60453
v 8.15962 -138.6412 21.48874
v 8.157736 -138.664 21.60459
v 8.153515 -138.7152 21.86415
v 8.141737 -138.8579 22.5883
v 8.440722 -135.2348 28.01615
v 8.137026 -138.915 22.8779
v 8.120964 -139.1096 23.86538
v 8.10774 -139.2699 24.67846
v 8.09856 -139.3811 25.24287
v 8.083019 -139.5695 25.36943
v 8.078444 -139.6249 25.40669
v 8.077978 -139.6306 25.41049
v 8.077761 -139.6332 25.41225
v 8.077488 -139.6365 25.41448
v 8.072411 -139.698 25.45582
v 7.837067 -142.5499 27.37243
v 7.837067 -142.5499 27.37244
v 7.837067 -142.5499 27.37244
v 7.917734 -141.5724 32.27529
v 7.595064 -145.4825 12.66387
v -33.49706 -134.5577 14.14879
v 8.212559 -137.9996 14.14878
v -13.25975 -143.7615 12.66387
v -33.14678 -130.313 20.50791
v 8.562841 -133.7549 20.5079
v -33.26891 -131.7929 28.01616
v 8.440722 -135.2348 28.01615
v -34.11456 -142.0405 12.66388
v 7.917734 -141.5724 32.27529
v -13.01775 -140.8289 27.37244
v 7.837067 -142.5499 27.37244
v -12.93708 -139.8514 32.27529
v -33.87254 -139.108 27.37244
v -33.79189 -138.1304 32.2753
v -33.84951 -138.8287 28.77326
v -33.87256 -139.108 27.37244
v -34.0339 -141.063 17.56673
v -33.49706 -134.5577 14.14879
v -34.06731 -141.4679 15.5359
v -33.49706 -134.5577 14.14879
v -34.11456 -142.0405 12.66388
v -34.0339 -141.063 17.56673
v -33.85477 -138.8923 17.99749
v -34.0339 -141.063 17.56673
v -33.83251 -138.6226 18.05102
v -33.82626 -138.5468 18.06604
v -33.75602 -137.6957 18.23494
v -33.74533 -137.5662 18.26065
v -33.73403 -137.4292 18.28783
v -33.7316 -137.3997 18.29368
v -33.72515 -137.3216 18.30919
v -33.14678 -130.313 20.50791
v -33.67385 -136.7 19.24046
v -33.6413 -136.3056 19.8313
v -33.6205 -136.0535 20.20896
v -33.61431 -135.9785 20.32135
v -33.56752 -135.4115 21.17079
v -33.56089 -135.3312 21.29111
v -33.55542 -135.2648 21.3905
v -33.55001 -135.1992 21.48875
v -33.56696 -135.4047 22.53138
v -33.60496 -135.8652 24.86746
v -33.60679 -135.8874 24.9801
v -33.60858 -135.909 25.08982
v -33.61005 -135.9268 25.18016
v -33.61107 -135.9392 25.24287
v -33.26891 -131.7929 28.01616
v -33.61107 -135.9392 25.24287
v -33.75094 -137.6342 26.38198
v -33.79211 -138.1331 26.71726
v -33.79631 -138.184 26.75148
v -33.79826 -138.2076 26.76736
v -33.80072 -138.2375 26.78742
v -33.84641 -138.7911 27.15948
v -33.87256 -139.108 27.37244
v -33.84951 -138.8287 28.77326
v -33.87256 -139.108 27.37244
v -33.79189 -138.1304 32.2753

vn -0.01613294 -0.1955031 -0.9805704
vn -0.01613309 -0.1955031 -0.9805704
vn 0.6363373 -0.2019595 -0.7445047
vn 0.9966124 -0.08224221 -2.535526E-07
vn 0.9966124 -0.08224221 -2.535526E-07
vn -0.01595628 -0.1933604 0.980998
vn 0.1569132 0.1819074 0.9707153
vn -0.07449961 -0.9027864 0.4235876
vn -0.01595619 -0.1933558 0.9809989
vn -0.01595608 -0.193355 0.9809992
vn -0.01595614 -0.1933553 0.9809991
vn -0.01595631 -0.1933563 0.9809989
vn -0.01595645 -0.1933573 0.9809986
vn -0.0159554 -0.1933517 0.9809998
vn -0.01595591 -0.1933544 0.9809992
vn -0.015956 -0.1933549 0.9809991
vn -0.01595597 -0.1933548 0.9809992
vn -0.01595596 -0.1933547 0.9809992
vn -0.015956 -0.193355 0.9809991
vn -0.01595599 -0.1933547 0.9809992
vn -0.01595608 -0.1933558 0.9809989
vn -0.01595625 -0.1933573 0.9809986
vn -0.01595596 -0.1933552 0.980999
vn -0.01595591 -0.1933544 0.9809993
vn -0.02794252 -0.3386082 0.9405125
vn -0.06640273 -0.8046685 0.5899994
vn -0.0683319 -0.8280454 0.5564815
vn -0.06833182 -0.8280449 0.5564821
vn -0.06833179 -0.8280448 0.5564824
vn -0.06833155 -0.8280437 0.5564842
vn -0.0683314 -0.8280429 0.5564852
vn -0.0683311 -0.828042 0.5564866
vn -0.0683315 -0.8280436 0.5564843
vn -0.06833173 -0.8280441 0.5564833
vn -0.06833182 -0.8280445 0.5564829
vn -0.06833187 -0.8280445 0.5564827
vn -0.06833173 -0.8280438 0.5564836
vn -0.06833179 -0.8280443 0.5564831
vn -0.06833187 -0.828045 0.5564821
vn -0.07119597 -0.8627518 0.5005901
vn -0.08155663 -0.9883028 -0.1288659
vn -0.08067966 -0.977676 -0.1940113
vn -0.08067968 -0.9776759 -0.1940123
vn -0.08067971 -0.9776757 -0.194013
vn -0.08067968 -0.9776757 -0.194013
vn -0.08067966 -0.9776757 -0.1940126
vn -0.08067955 -0.9776759 -0.194012
vn -0.08067962 -0.9776759 -0.1940125
vn -0.0806796 -0.977676 -0.1940121
vn -0.08067958 -0.9776758 -0.1940124
vn -0.08067958 -0.9776759 -0.1940124
vn -0.08067957 -0.9776759 -0.194012
vn -0.07595307 -0.9204004 -0.3835289
vn -0.08067995 -0.9776804 -0.1939892
vn -0.04576648 -0.5545986 -0.8308585
vn -0.04576643 -0.5545974 -0.8308592
vn -0.04576645 -0.5545971 -0.8308595
vn -0.04576647 -0.5545961 -0.8308601
vn -0.04576641 -0.5545979 -0.830859
vn -0.04576623 -0.5545992 -0.8308582
vn -0.04576614 -0.5546014 -0.8308566
vn -0.04576363 -0.5546394 -0.8308314
vn -0.04576527 -0.5546156 -0.8308472
vn -0.04576666 -0.5545917 -0.8308631
vn -0.04576655 -0.5545952 -0.8308608
vn -0.04576641 -0.5545976 -0.8308591
vn -0.04576643 -0.554598 -0.8308588
vn -0.04576645 -0.5545983 -0.8308587
vn -0.04576686 -0.5546025 -0.8308559
vn -0.05656644 -0.6854722 -0.7258981
vn -0.01613328 -0.1955031 -0.9805704
vn -0.01613328 -0.1955031 -0.9805704
vn -0.01613328 -0.1955031 -0.9805704
vn 0.9966124 -0.08224221 -2.535526E-07
vn 0.04576627 0.5545978 0.830859
vn 0.9966124 -0.08224221 -2.535526E-07
vn -0.07786375 -0.9435531 0.3219393
vn 0.7473384 -0.1895085 -0.6368452
vn 0.8143318 -0.1780864 -0.5524029
vn 0.05471581 -0.2008522 -0.9780923
vn -0.01613328 -0.1955031 -0.9805704
vn -0.01613328 -0.1955031 -0.9805704
vn -0.01613328 -0.1955031 -0.9805704
vn 0.08660626 -0.2029344 -0.9753548
vn 0.9966124 -0.08224221 -2.535526E-07
vn -0.003512178 -0.1965345 -0.9804906
vn -0.01613328 -0.1955031 -0.9805704
vn 0.1249711 -0.2051689 -0.9707152
vn -0.01613275 -0.1954966 -0.9805717
vn -0.07594207 -0.1902063 -0.9788026
vn 0.04576634 0.5545978 0.8308589
vn -0.01613137 -0.19548 -0.980575
vn -0.9966125 0.08224084 -6.554308E-06
vn -0.9966124 0.08224221 2.535526E-07
vn -0.9966123 0.08224262 1.688899E-07
vn 0 0 0
vn 0.04576636 0.5545979 0.830859
vn 0.04576639 0.5545979 0.830859
vn 0.04576637 0.5545979 0.8308591
vn -0.9966123 0.08224262 1.688899E-07
vn -0.9966123 0.08224262 1.688899E-07
vn -0.08064435 -0.9772486 0.1961676
vn -0.08064434 -0.9772485 0.1961676
vn -0.08064435 -0.9772486 0.1961676
vn -0.08064435 -0.9772486 0.1961676
vn -0.08064435 -0.9772486 0.1961676
vn -0.08064435 -0.9772486 0.1961676
vn -0.08064435 -0.9772486 0.1961676
vn -0.08064435 -0.9772486 0.1961676
vn -0.08064435 -0.9772486 0.1961676
vn 0.9966124 -0.08224221 -2.535526E-07
vn 0.9966124 -0.08224221 -2.535526E-07
vn 0.9966124 -0.08224221 -2.535526E-07
vn 0.9966124 -0.08224221 -2.535526E-07
vn 0.9966124 -0.08224221 -2.535526E-07
vn 0.9966124 -0.08224221 -2.535526E-07
vn 0.9966124 -0.08224221 -2.535526E-07
vn 0.9966124 -0.08224221 -2.535526E-07
vn 0.9966124 -0.08224221 -2.535526E-07
vn 0.9966124 -0.08224221 -2.535526E-07
vn 0.9966124 -0.08224221 -2.535526E-07
vn 0.9966124 -0.08224221 -2.535526E-07
vn 0.9966124 -0.08224221 -2.535526E-07
vn 0.9966123 -0.0822422 -2.535525E-07
vn 0.9966124 -0.08224221 -2.535526E-07
vn 0.9966124 -0.08224221 -2.535526E-07
vn 0.9966123 -0.0822422 -2.535525E-07
vn 0.9966124 -0.08224221 -2.535526E-07
vn 0.9966124 -0.08224221 -2.535526E-07
vn 0.9966124 -0.08224221 -2.535526E-07
vn 0.9966123 -0.0822422 -2.535525E-07
vn 0.9966124 -0.08224221 -2.535526E-07
vn 0.9966124 -0.08224221 -2.535526E-07
vn 0.9966124 -0.08224221 -2.535526E-07
vn 0.9966124 -0.08224221 -2.535526E-07
vn 0.9966124 -0.08224221 -2.535526E-07
vn 0.9966124 -0.08224221 -2.535526E-07
vn 0.9966124 -0.08224221 -2.535526E-07
vn 0.9966124 -0.08224221 -2.535526E-07
vn 0.9966124 -0.08224221 -2.535526E-07
vn 0.9966124 -0.08224221 -2.535526E-07
vn 0.9966123 -0.0822422 -2.535525E-07
vn 0.9966124 -0.08224221 -2.535526E-07
vn 0.9966123 -0.0822422 -2.535525E-07
vn 0.9966123 -0.0822422 -2.535525E-07
vn 0.9966124 -0.08224221 -2.535526E-07
vn 0.9966123 -0.0822422 -2.535525E-07
vn 0.9966123 -0.0822422 -2.535525E-07
vn 0.01595615 0.1933554 -0.9809991
vn 0.0358279 0.4341617 -0.9001222
vn 0.05454729 0.6610038 -0.7483974
vn 0.01595613 0.1933554 -0.9809989
vn 0.07767988 0.9413251 -0.3284402
vn 0.08209307 0.9948044 -0.06020799
vn 0.08067957 0.9776757 0.1940126
vn 0.08067957 0.9776758 0.1940126
vn 0.01595606 0.1933553 -0.9809991
vn -0.08064435 -0.9772486 0.1961676
vn -0.08064435 -0.9772486 0.1961676
vn -0.08064435 -0.9772486 0.1961676
vn -0.08064435 -0.9772486 0.1961676
vn -0.08064435 -0.9772486 0.1961676
vn -0.08064435 -0.9772486 0.1961676
vn -0.08064435 -0.9772486 0.1961676
vn -0.08064435 -0.9772485 0.1961676
vn -0.186318 0.2081194 0.9601937
vn -0.9966124 0.08224206 -4.688913E-07
vn -0.9966123 0.08224241 2.112212E-07
vn -0.9966124 0.08224241 9.828443E-08
vn -0.9966124 0.08224241 2.112212E-07
vn -0.9966124 0.08224241 2.112212E-07
vn -0.9966124 0.08224227 -7.049067E-08
vn -0.9966124 0.08224227 -7.049078E-08
vn -0.9966124 0.08224227 -7.049024E-08
vn -0.9966124 0.08224227 -7.049087E-08
vn -0.9966124 0.08224227 -7.049091E-08
vn -0.9966123 0.08224226 -7.049057E-08
vn -0.9966124 0.08224227 -7.048921E-08
vn -0.9966123 0.08224226 -7.049226E-08
vn -0.9966124 0.08224247 6.846921E-08
vn -0.9966124 0.0822425 1.93687E-07
vn -0.9966124 0.08224247 6.973578E-08
vn -0.9966124 0.08224247 6.973523E-08
vn -0.9966124 0.08224247 6.973446E-08
vn -0.9966124 0.08224247 6.973494E-08
vn -0.9966124 0.08224247 6.973498E-08
vn -0.9966124 0.08224247 6.97351E-08
vn -0.9966124 0.08224247 6.973571E-08
vn -0.9966124 0.08224252 2.928191E-07
vn -0.9966124 0.08224253 3.176388E-07
vn -0.9966124 0.08224253 3.17639E-07
vn -0.9966124 0.08224253 3.176383E-07
vn -0.9966124 0.08224253 3.176397E-07
vn -0.9966124 0.08224253 3.176391E-07
vn -0.9966124 0.08224253 3.176388E-07
vn -0.9966124 0.08224245 3.171444E-07
vn -0.9966124 0.08224238 5.280018E-07
vn -0.9966124 0.08224238 5.28002E-07
vn -0.9966124 0.08224238 5.280024E-07
vn -0.9966124 0.08224238 5.279952E-07
vn -0.9966124 0.08224238 5.280032E-07
vn -0.9966124 0.08224238 5.280025E-07
vn -0.9966124 0.08224238 5.280011E-07
vn -0.9966123 0.08224238 5.279998E-07
vn -0.9966124 0.08224241 2.112212E-07
vn -0.9966124 0.08224241 2.112212E-07
vn -0.9966123 0.08224241 2.112212E-07

f 1//1 2//2 3//3
f 4//4 1//1 3//3
f 3//3 5//5 4//4
f 3//3 6//6 5//5
f 5//5 6//6 7//7
f 8//8 7//7 6//6
f 9//9 8//8 6//6
f 10//10 9//9 6//6
f 9//9 10//10 11//11
f 11//11 10//10 12//12
f 13//13 11//11 12//12
f 13//13 12//12 14//14
f 13//13 14//14 15//15
f 15//15 14//14 16//16
f 15//15 16//16 17//17
f 18//18 17//17 16//16
f 19//19 17//17 18//18
f 19//19 18//18 20//20
f 21//21 19//19 20//20
f 22//22 19//19 21//21
f 22//22 21//21 23//23
f 24//24 22//22 23//23
f 24//24 23//23 25//25
f 26//26 24//24 25//25
f 26//26 25//25 27//27
f 28//28 26//26 27//27
f 28//28 27//27 29//29
f 29//29 27//27 30//30
f 31//31 29//29 30//30
f 31//31 30//30 32//32
f 33//33 31//31 32//32
f 33//33 32//32 34//34
f 35//35 33//33 34//34
f 35//35 34//34 36//36
f 37//37 35//35 36//36
f 37//37 36//36 38//38
f 39//39 37//37 38//38
f 39//39 38//38 40//40
f 41//41 39//39 40//40
f 41//41 40//40 42//42
f 41//41 42//42 43//43
f 43//43 42//42 44//44
f 45//45 43//43 44//44
f 45//45 44//44 46//46
f 47//47 45//45 46//46
f 48//48 45//45 47//47
f 48//48 47//47 49//49
f 50//50 48//48 49//49
f 50//50 49//49 51//51
f 52//52 50//50 51//51
f 52//52 51//51 53//53
f 54//54 52//52 53//53
f 55//55 54//54 53//53
f 55//55 53//53 56//56
f 55//55 56//56 57//57
f 57//57 56//56 58//58
f 57//57 58//58 59//59
f 59//59 58//58 60//60
f 59//59 60//60 61//61
f 61//61 60//60 62//62
f 61//61 62//62 63//63
f 63//63 62//62 64//64
f 63//63 64//64 65//65
f 65//65 64//64 66//66
f 65//65 66//66 67//67
f 68//68 67//67 66//66
f 69//69 67//67 68//68
f 69//69 68//68 70//70
f 71//71 69//69 70//70
f 72//72 71//71 73//73
f 74//74 75//75 76//76
f 77//77 74//74 76//76
f 75//75 77//77 76//76
f 78//78 75//75 74//74
f 79//79 75//75 78//78
f 78//78 74//74 80//80
f 81//81 78//78 80//80
f 82//82 78//78 81//81
f 82//82 83//83 78//78
f 83//83 84//84 79//79
f 84//84 85//85 79//79
f 80//80 74//74 86//86
f 87//87 80//80 86//86
f 81//81 80//80 87//87
f 86//86 74//74 88//88
f 88//88 74//74 77//77
f 86//86 88//88 89//89
f 90//90 86//86 89//89
f 87//87 86//86 90//90
f 75//75 91//91 77//77
f 90//90 89//89 92//92
f 90//90 92//92 93//93
f 94//94 90//90 93//93
f 95//95 83//83 82//82
f 95//95 82//82 81//81
f 95//95 81//81 87//87
f 95//95 87//87 90//90
f 95//95 96//96 83//83
f 97//97 91//91 75//75
f 97//97 98//98 91//91
f 97//97 99//99 98//98
f 100//100 95//95 101//101
f 102//102 103//103 104//104
f 102//102 104//104 105//105
f 102//102 105//105 106//106
f 106//106 105//105 107//107
f 108//108 102//102 106//106
f 109//109 102//102 108//108
f 110//110 108//108 106//106
f 111//111 112//112 113//113
f 111//111 113//113 114//114
f 111//111 114//114 115//115
f 111//111 115//115 116//116
f 111//111 116//116 117//117
f 117//117 118//118 111//111
f 118//118 119//119 111//111
f 120//120 111//111 119//119
f 120//120 121//121 111//111
f 121//121 122//122 111//111
f 111//111 122//122 123//123
f 114//114 113//113 124//124
f 124//124 113//113 125//125
f 125//125 113//113 126//126
f 126//126 113//113 127//127
f 127//127 113//113 128//128
f 128//128 113//113 129//129
f 129//129 113//113 130//130
f 130//130 113//113 131//131
f 131//131 113//113 132//132
f 132//132 113//113 133//133
f 133//133 113//113 134//134
f 133//133 134//134 135//135
f 135//135 134//134 136//136
f 134//134 137//137 136//136
f 137//137 134//134 138//138
f 138//138 134//134 139//139
f 139//139 134//134 140//140
f 140//140 134//134 141//141
f 134//134 142//142 141//141
f 134//134 143//143 142//142
f 134//134 144//144 143//143
f 144//144 134//134 145//145
f 145//145 134//134 146//146
f 147//147 134//134 148//148
f 149//149 150//150 151//151
f 149//149 152//152 150//150
f 151//151 150//150 153//153
f 151//151 153//153 154//154
f 154//154 153//153 155//155
f 154//154 155//155 156//156
f 152//152 157//157 150//150
f 158//158 159//159 160//160
f 161//161 159//159 158//158
f 162//162 159//159 161//161
f 163//163 162//162 161//161
f 164//164 162//162 163//163
f 165//165 162//162 164//164
f 9//9 166//166 8//8
f 166//166 9//9 167//167
f 168//168 169//169 170//170
f 168//168 171//171 169//169
f 172//172 169//169 173//173
f 174//174 169//169 172//172
f 169//169 174//174 175//175
f 176//176 169//169 175//175
f 177//177 169//169 176//176
f 178//178 169//169 177//177
f 178//178 179//179 169//169
f 179//179 180//180 169//169
f 180//180 181//181 169//169
f 182//182 181//181 180//180
f 182//182 183//183 181//181
f 183//183 184//184 181//181
f 184//184 185//185 181//181
f 185//185 186//186 181//181
f 186//186 187//187 181//181
f 187//187 188//188 181//181
f 188//188 189//189 181//181
f 181//181 189//189 190//190
f 181//181 190//190 191//191
f 192//192 181//181 191//191
f 193//193 181//181 192//192
f 194//194 181//181 193//193
f 195//195 181//181 194//194
f 195//195 196//196 181//181
f 196//196 197//197 198//198
f 196//196 198//198 199//199
f 199//199 200//200 196//196
f 196//196 200//200 201//201
f 201//201 202//202 196//196
f 196//196 202//202 203//203
f 196//196 203//203 204//204
f 205//205 196//196 206//206
f 207//207 196//196 205//205
