v -104.858 -28.30794 96.5325
v -106.322 -46.04809 85.53123
v -104.858 -28.30794 96.5325
v -104.858 -28.30794 96.5325
v -102.3641 -29.80072 98.60781
v -101.3665 -30.39783 99.43793
v -101.3665 -30.39783 99.43793
v -102.8304 -48.13797 88.43666
v -104.2944 -65.87812 77.43539
v -101.4629 -30.51169 99.63438
v -105.1623 -66.90292 79.20344
v -101.4749 -30.52584 99.65879
v -105.2701 -67.03027 79.42314
v -101.4783 -30.52982 99.66565
v -105.3004 -67.06602 79.48483
v -101.5161 -30.57446 99.74268
v -105.6407 -67.46784 80.17807
v -101.9823 -31.12492 100.6924
v -105.6925 -67.52901 80.28359
v -102.4243 -31.64683 101.5928
v -102.4751 -31.70687 101.6964
v -105.7473 -67.59366 80.39515
v -102.5812 -31.8321 101.9124
v -105.7591 -67.60757 80.41915
v -102.8624 -32.16418 102.4854
v -105.7903 -67.64448 80.48281
v -102.7866 -32.26822 102.643
v -105.3728 -68.21734 81.35102
v -105.1078 -68.58079 81.90185
v -102.7678 -32.29403 102.6821
v -104.9385 -68.8131 82.25394
v -102.7622 -32.30171 102.6938
v -104.8881 -68.88224 82.35871
v -102.7199 -32.35977 102.7818
v -104.5072 -69.40476 83.15063
v -102.2344 -33.02586 103.7913
v -104.4533 -69.47878 83.2628
v -101.8332 -33.57615 104.6253
v -104.4087 -69.53992 83.35547
v -101.4368 -34.12006 105.4496
v -104.3647 -69.60035 83.44706
v -101.3284 -34.15091 105.4849
v -103.3892 -69.87799 83.76496
v -101.0856 -34.22002 105.5641
v -101.2037 -70.50005 84.47725
v -100.4081 -34.41286 105.7849
v -100.1372 -34.48997 105.8732
v -101.0984 -70.53004 84.5116
v -99.21333 -34.75292 106.1742
v -100.9957 -70.55927 84.54504
v -98.45266 -34.96944 106.4222
v -100.9112 -70.58332 84.57259
v -97.92464 -35.11973 106.5943
v -100.8525 -70.60002 84.59171
v -100.8525 -70.60002 84.59171
v -97.71417 -35.08751 106.5143
v -98.95831 -70.31004 83.87203
v -97.65222 -35.07802 106.4908
v -98.40077 -70.22468 83.6602
v -97.6459 -35.07706 106.4883
v -98.34386 -70.21597 83.63858
v -97.64297 -35.07661 106.4872
v -98.31747 -70.21193 83.62855
v -97.63926 -35.07604 106.4858
v -98.2841 -70.20682 83.61588
v -97.57051 -35.06551 106.4597
v -97.6654 -70.1121 83.38081
v -94.38338 -34.57759 105.2488
v -97.31127 -70.05788 83.24626
v -94.38338 -34.57759 105.2488
v -97.31127 -70.05788 83.24626
v -94.38338 -34.57759 105.2488
v -94.38338 -34.57759 105.2488
v -93.3858 -35.17471 106.0789
v -90.89184 -36.66748 108.1542
v -90.89184 -36.66748 108.1542
v -90.89184 -36.66748 108.1542
v -94.38338 -34.57759 105.2488
v -94.38338 -34.57759 105.2488
v -94.38338 -34.57759 105.2488
v -97.31127 -70.05788 83.24626
v -97.31127 -70.05788 83.24626
v -97.31127 -70.05788 83.24626
v -94.38338 -34.57759 105.2488
v -97.97435 -37.75175 110.8451
v -94.38338 -34.57759 105.2488
v -97.31127 -70.05788 83.24626
v -94.38338 -34.57759 105.2488
v -95.84733 -52.31774 94.24753
v -97.31127 -70.05788 83.24626
v -92.35578 -54.40762 97.15295
v -97.31126 -70.05787 83.24627
v -97.31127 -70.05788 83.24626
v -96.31368 -70.655 84.07638
v -100.9022 -73.23203 88.84261
v -97.31127 -70.05788 83.24626
v -97.97435 -37.75175 110.8451
v -93.81973 -72.14777 86.15169
v -100.9022 -73.23203 88.84261
v -100.8525 -70.60002 84.59171
v -100.8525 -70.60002 84.59171
v -106.322 -46.04809 85.53123
v -104.858 -28.30794 96.5325
v -104.858 -28.30794 96.5325
v -102.3641 -29.80072 98.60781
v -102.8304 -48.13797 88.43666
v -101.3665 -30.39783 99.43793
v -105.7406 -65.01246 76.23193
v -107.7859 -63.78823 74.52997
v -104.2944 -65.87812 77.43539
v -104.858 -28.30794 96.5325
v -107.8499 -31.84066 102.6273
v -104.9986 -35.75241 108.5558
v -102.8624 -32.16418 102.4854
v -102.5812 -31.8321 101.9124
v -102.4751 -31.70687 101.6964
v -102.4243 -31.64683 101.5928
v -101.9823 -31.12492 100.6924
v -101.5161 -30.57446 99.74268
v -101.4783 -30.52982 99.66565
v -101.4749 -30.52584 99.65879
v -101.4629 -30.51169 99.63438
v -101.3665 -30.39783 99.43793
v -102.7866 -32.26822 102.643
v -102.7678 -32.29403 102.6821
v -102.7622 -32.30171 102.6938
v -102.7199 -32.35977 102.7818
v -102.2344 -33.02586 103.7913
v -101.8332 -33.57615 104.6253
v -101.4368 -34.12006 105.4496
v -101.3284 -34.15091 105.4849
v -101.0856 -34.22002 105.5641
v -100.4081 -34.41286 105.7849
v -97.97435 -37.75175 110.8451
v -100.1372 -34.48997 105.8732
v -99.21333 -34.75292 106.1742
v -98.45266 -34.96944 106.4222
v -97.92464 -35.11973 106.5943
v -97.71417 -35.08751 106.5143
v -97.65222 -35.07802 106.4908
v -97.6459 -35.07706 106.4883
v -97.64297 -35.07661 106.4872
v -97.63926 -35.07604 106.4858
v -97.57051 -35.06551 106.4597
v -94.38338 -34.57759 105.2488
v -94.38338 -34.57759 105.2488
v -94.38338 -34.57759 105.2488
v -90.89184 -36.66748 108.1542
v -104.858 -28.30794 96.5325
v -110.7778 -67.32095 80.6248
v -107.8499 -31.84066 102.6273
v -106.322 -46.04809 85.53123
v -107.9265 -71.2327 86.55329
v -104.9986 -35.75241 108.5558
v -100.9022 -73.23203 88.84261
v -97.97435 -37.75175 110.8451
v -107.7859 -63.78823 74.52997
v -90.89184 -36.66748 108.1542
v -95.84733 -52.31774 94.24753
v -94.38338 -34.57759 105.2488
v -92.35578 -54.40762 97.15295
v -97.31126 -70.05787 83.24627
v -93.81973 -72.14777 86.15169
v -96.31368 -70.655 84.07638
v -97.31127 -70.05788 83.24626
v -104.2944 -65.87812 77.43539
v -110.7778 -67.32095 80.6248
v -105.7406 -65.01246 76.23193
v -110.7778 -67.32095 80.6248
v -107.7859 -63.78823 74.52997
v -104.2944 -65.87812 77.43539
v -105.1623 -66.90292 79.20344
v -104.2944 -65.87812 77.43539
v -105.2701 -67.03027 79.42314
v -105.3004 -67.06602 79.48483
v -105.6407 -67.46784 80.17807
v -105.6925 -67.52901 80.28359
v -105.7473 -67.59366 80.39515
v -105.7591 -67.60757 80.41915
v -105.7903 -67.64448 80.48281
v -107.9265 -71.2327 86.55329
v -105.3728 -68.21734 81.35102
v -105.1078 -68.58079 81.90185
v -104.9385 -68.8131 82.25394
v -104.8881 -68.88224 82.35871
v -104.5072 -69.40476 83.15063
v -104.4533 -69.47878 83.2628
v -104.4087 -69.53992 83.35547
v -104.3647 -69.60035 83.44706
v -103.3892 -69.87799 83.76496
v -101.2037 -70.50005 84.47725
v -101.0984 -70.53004 84.5116
v -100.9957 -70.55927 84.54504
v -100.9112 -70.58332 84.57259
v -100.8525 -70.60002 84.59171
v -100.9022 -73.23203 88.84261
v -100.8525 -70.60002 84.59171
v -98.95831 -70.31004 83.87203
v -98.40077 -70.22468 83.6602
v -98.34386 -70.21597 83.63858
v -98.31747 -70.21193 83.62855
v -98.2841 -70.20682 83.61588
v -97.6654 -70.1121 83.38081
v -97.31127 -70.05788 83.24626
v -96.31368 -70.655 84.07638
v -97.31127 -70.05788 83.24626
v -93.81973 -72.14777 86.15169

vn -0.6983085 0.417977 -0.5810856
vn -0.6983085 0.4179768 -0.5810857
vn -0.4846666 0.8690724 -0.09905236
vn 0.06995913 0.8477694 0.5257306
vn 0.06995913 0.8477694 0.5257306
vn 0.917767 -0.2612231 0.2991089
vn 0.701184 -0.2938833 0.6495951
vn 0.8579183 0.2177806 -0.4653469
vn 0.9177652 -0.2612255 0.2991124
vn 0.917765 -0.2612258 0.2991132
vn 0.917765 -0.2612257 0.2991129
vn 0.9177654 -0.2612253 0.299112
vn 0.9177658 -0.2612249 0.2991111
vn 0.9177637 -0.261227 0.299116
vn 0.9177647 -0.261226 0.2991137
vn 0.9177648 -0.2612258 0.2991132
vn 0.9177649 -0.2612259 0.2991134
vn 0.9177648 -0.2612259 0.2991134
vn 0.9177649 -0.2612258 0.2991132
vn 0.9177648 -0.261226 0.2991135
vn 0.9177653 -0.2612254 0.2991125
vn 0.9177658 -0.2612247 0.2991112
vn 0.917765 -0.2612256 0.299113
vn 0.9177647 -0.2612261 0.2991138
vn 0.9662276 -0.1886172 0.175579
vn 0.9398375 0.1206439 -0.3196098
vn 0.9253743 0.1416671 -0.3515863
vn 0.9253745 0.1416667 -0.3515856
vn 0.9253747 0.1416665 -0.3515854
vn 0.9253756 0.1416656 -0.3515837
vn 0.9253759 0.141665 -0.3515826
vn 0.9253766 0.1416643 -0.3515812
vn 0.9253756 0.1416656 -0.3515835
vn 0.925375 0.141666 -0.3515845
vn 0.9253749 0.1416663 -0.351585
vn 0.9253748 0.1416662 -0.3515851
vn 0.9253752 0.1416657 -0.3515841
vn 0.925375 0.1416661 -0.3515847
vn 0.9253746 0.1416667 -0.3515857
vn 0.8988481 0.1749986 -0.4018054
vn 0.4506133 0.4433307 -0.7748585
vn 0.3909143 0.4615711 -0.7963279
vn 0.3909133 0.4615714 -0.7963282
vn 0.3909127 0.4615715 -0.7963285
vn 0.3909127 0.4615715 -0.7963284
vn 0.390913 0.4615714 -0.7963282
vn 0.3909136 0.4615714 -0.7963281
vn 0.3909132 0.4615715 -0.7963283
vn 0.3909135 0.4615714 -0.7963282
vn 0.3909132 0.4615714 -0.7963282
vn 0.3909132 0.4615715 -0.7963283
vn 0.3909136 0.4615713 -0.7963281
vn 0.2023878 0.5039988 -0.8396574
vn 0.390935 0.4615653 -0.7963211
vn -0.3725404 0.5110947 -0.7745939
vn -0.3725415 0.5110945 -0.7745935
vn -0.372542 0.5110945 -0.7745935
vn -0.3725431 0.5110942 -0.774593
vn -0.3725412 0.5110947 -0.7745937
vn -0.3725397 0.5110952 -0.7745942
vn -0.3725371 0.5110957 -0.7745948
vn -0.3724948 0.5111069 -0.7746078
vn -0.3725213 0.5110999 -0.7745998
vn -0.372548 0.511093 -0.7745915
vn -0.3725441 0.5110939 -0.7745928
vn -0.3725414 0.5110946 -0.7745935
vn -0.3725408 0.5110947 -0.7745938
vn -0.3725406 0.5110947 -0.7745939
vn -0.372536 0.5110954 -0.7745957
vn -0.2122611 0.5276039 -0.8225445
vn -0.6983085 0.4179767 -0.5810858
vn -0.6983085 0.4179767 -0.5810858
vn -0.6983085 0.4179767 -0.5810858
vn 0.06995913 0.8477694 0.5257306
vn 0.3725412 -0.5110947 0.7745936
vn 0.06995913 0.8477694 0.5257306
vn 0.7970809 0.2693807 -0.5404592
vn -0.4003298 0.9160981 0.02236731
vn -0.3355894 0.93591 0.1070151
vn -0.6915733 0.4771535 -0.5422646
vn -0.6983085 0.4179767 -0.5810858
vn -0.6983085 0.4179767 -0.5810858
vn -0.6983085 0.4179767 -0.5810858
vn -0.6873883 0.503076 -0.5238433
vn 0.06995913 0.8477694 0.5257306
vn -0.6973625 0.4286805 -0.5743853
vn -0.6983085 0.4179767 -0.5810858
vn -0.6813965 0.5336685 -0.500896
vn -0.6983133 0.4179745 -0.5810817
vn -0.7012537 0.3663189 -0.6115994
vn 0.3725412 -0.5110947 0.7745936
vn -0.6983254 0.417969 -0.5810711
vn -0.06996398 -0.8477665 -0.5257347
vn -0.06995913 -0.8477694 -0.5257306
vn -0.06995944 -0.8477696 -0.5257304
vn 0 0 0
vn 0.3725411 -0.5110947 0.7745937
vn 0.3725412 -0.5110947 0.7745937
vn 0.3725412 -0.5110947 0.7745937
vn -0.06995944 -0.8477696 -0.5257304
vn -0.06995944 -0.8477696 -0.5257304
vn 0.7123699 0.3264698 -0.621246
vn 0.7123699 0.3264698 -0.621246
vn 0.7123699 0.3264698 -0.621246
vn 0.7123699 0.3264698 -0.621246
vn 0.7123699 0.3264698 -0.621246
vn 0.7123699 0.3264698 -0.621246
vn 0.7123699 0.3264698 -0.621246
vn 0.7123699 0.3264698 -0.621246
vn 0.7123699 0.3264698 -0.621246
vn 0.06995913 0.8477694 0.5257306
vn 0.06995913 0.8477694 0.5257306
vn 0.06995913 0.8477694 0.5257306
vn 0.06995913 0.8477694 0.5257306
vn 0.06995913 0.8477694 0.5257306
vn 0.06995913 0.8477694 0.5257306
vn 0.06995913 0.8477694 0.5257306
vn 0.06995913 0.8477694 0.5257306
vn 0.06995913 0.8477694 0.5257306
vn 0.06995913 0.8477694 0.5257306
vn 0.06995913 0.8477694 0.5257306
vn 0.06995913 0.8477694 0.5257306
vn 0.06995913 0.8477694 0.5257306
vn 0.06995913 0.8477694 0.5257306
vn 0.06995913 0.8477694 0.5257306
vn 0.06995913 0.8477694 0.5257306
vn 0.06995913 0.8477694 0.5257306
vn 0.06995913 0.8477694 0.5257306
vn 0.06995913 0.8477694 0.5257306
vn 0.06995913 0.8477694 0.5257306
vn 0.06995913 0.8477694 0.5257306
vn 0.06995913 0.8477694 0.5257306
vn 0.06995913 0.8477694 0.5257306
vn 0.06995913 0.8477694 0.5257306
vn 0.06995913 0.8477694 0.5257306
vn 0.06995913 0.8477694 0.5257306
vn 0.06995913 0.8477694 0.5257306
vn 0.06995913 0.8477694 0.5257306
vn 0.06995913 0.8477694 0.5257306
vn 0.06995913 0.8477694 0.5257306
vn 0.06995913 0.8477694 0.5257306
vn 0.06995913 0.8477694 0.5257306
vn 0.06995913 0.8477694 0.5257306
vn 0.06995913 0.8477694 0.5257306
vn 0.06995913 0.8477694 0.5257306
vn 0.06995913 0.8477694 0.5257306
vn 0.06995913 0.8477694 0.5257306
vn 0.06995913 0.8477694 0.5257306
vn -0.9177651 0.2612257 -0.2991128
vn -0.9867662 0.1360952 -0.08815111
vn -0.989486 -0.007901048 0.1444126
vn -0.917765 0.2612256 -0.2991128
vn -0.8011855 -0.2662336 0.5359306
vn -0.6101652 -0.38057 0.6948849
vn -0.390913 -0.4615715 0.7963282
vn -0.3909131 -0.4615715 0.7963282
vn -0.917765 0.2612257 -0.2991129
vn 0.7123699 0.3264698 -0.621246
vn 0.7123699 0.3264698 -0.621246
vn 0.7123699 0.3264698 -0.621246
vn 0.7123699 0.3264698 -0.621246
vn 0.7123699 0.3264698 -0.621246
vn 0.7123699 0.3264698 -0.621246
vn 0.7123699 0.3264698 -0.621246
vn 0.7123699 0.3264698 -0.621246
vn 0.6696094 -0.5812211 0.4623908
vn -0.06995965 -0.8477691 -0.525731
vn -0.06995928 -0.8477694 -0.5257304
vn -0.06995938 -0.8477694 -0.5257306
vn -0.06995929 -0.8477695 -0.5257305
vn -0.06995929 -0.8477695 -0.5257305
vn -0.06995944 -0.8477693 -0.5257307
vn -0.06995944 -0.8477693 -0.5257307
vn -0.06995944 -0.8477693 -0.5257307
vn -0.06995944 -0.8477693 -0.5257307
vn -0.06995944 -0.8477693 -0.5257307
vn -0.06995943 -0.8477693 -0.5257307
vn -0.06995944 -0.8477693 -0.5257307
vn -0.06995943 -0.8477693 -0.5257307
vn -0.06995944 -0.8477695 -0.5257305
vn -0.06995935 -0.8477696 -0.5257304
vn -0.06995944 -0.8477695 -0.5257305
vn -0.06995944 -0.8477695 -0.5257305
vn -0.06995944 -0.8477695 -0.5257305
vn -0.06995944 -0.8477695 -0.5257305
vn -0.06995944 -0.8477695 -0.5257305
vn -0.06995944 -0.8477695 -0.5257305
vn -0.06995944 -0.8477695 -0.5257305
vn -0.06995928 -0.8477696 -0.5257304
vn -0.06995926 -0.8477696 -0.5257304
vn -0.06995926 -0.8477696 -0.5257304
vn -0.06995926 -0.8477696 -0.5257304
vn -0.06995926 -0.8477696 -0.5257304
vn -0.06995926 -0.8477696 -0.5257304
vn -0.06995926 -0.8477696 -0.5257304
vn -0.06995922 -0.8477696 -0.5257304
vn -0.06995901 -0.8477696 -0.5257304
vn -0.06995901 -0.8477696 -0.5257304
vn -0.06995901 -0.8477696 -0.5257304
vn -0.06995901 -0.8477696 -0.5257304
vn -0.06995901 -0.8477696 -0.5257304
vn -0.06995901 -0.8477696 -0.5257304
vn -0.06995901 -0.8477696 -0.5257304
vn -0.06995901 -0.8477696 -0.5257303
vn -0.06995929 -0.8477695 -0.5257305
vn -0.06995929 -0.8477695 -0.5257305
vn -0.06995928 -0.8477694 -0.5257304

f 1//1 2//2 3//3
f 4//4 1//1 3//3
f 3//3 5//5 4//4
f 3//3 6//6 5//5
f 5//5 6//6 7//7
f 8//8 7//7 6//6
f 9//9 8//8 6//6
f 10//10 9//9 6//6
f 9//9 10//10 11//11
f 11//11 10//10 12//12
f 13//13 11//11 12//12
f 13//13 12//12 14//14
f 13//13 14//14 15//15
f 15//15 14//14 16//16
f 15//15 16//16 17//17
f 18//18 17//17 16//16
f 19//19 17//17 18//18
f 19//19 18//18 20//20
f 21//21 19//19 20//20
f 22//22 19//19 21//21
f 22//22 21//21 23//23
f 24//24 22//22 23//23
f 24//24 23//23 25//25
f 26//26 24//24 25//25
f 26//26 25//25 27//27
f 28//28 26//26 27//27
f 28//28 27//27 29//29
f 29//29 27//27 30//30
f 31//31 29//29 30//30
f 31//31 30//30 32//32
f 33//33 31//31 32//32
f 33//33 32//32 34//34
f 35//35 33//33 34//34
f 35//35 34//34 36//36
f 37//37 35//35 36//36
f 37//37 36//36 38//38
f 39//39 37//37 38//38
f 39//39 38//38 40//40
f 41//41 39//39 40//40
f 41//41 40//40 42//42
f 41//41 42//42 43//43
f 43//43 42//42 44//44
f 45//45 43//43 44//44
f 45//45 44//44 46//46
f 47//47 45//45 46//46
f 48//48 45//45 47//47
f 48//48 47//47 49//49
f 50//50 48//48 49//49
f 50//50 49//49 51//51
f 52//52 50//50 51//51
f 52//52 51//51 53//53
f 54//54 52//52 53//53
f 55//55 54//54 53//53
f 55//55 53//53 56//56
f 55//55 56//56 57//57
f 57//57 56//56 58//58
f 57//57 58//58 59//59
f 59//59 58//58 60//60
f 59//59 60//60 61//61
f 61//61 60//60 62//62
f 61//61 62//62 63//63
f 63//63 62//62 64//64
f 63//63 64//64 65//65
f 65//65 64//64 66//66
f 65//65 66//66 67//67
f 68//68 67//67 66//66
f 69//69 67//67 68//68
f 69//69 68//68 70//70
f 71//71 69//69 70//70
f 72//72 71//71 73//73
f 74//74 75//75 76//76
f 77//77 74//74 76//76
f 75//75 77//77 76//76
f 78//78 75//75 74//74
f 79//79 75//75 78//78
f 78//78 74//74 80//80
f 81//81 78//78 80//80
f 82//82 78//78 81//81
f 82//82 83//83 78//78
f 83//83 84//84 79//79
f 84//84 85//85 79//79
f 80//80 74//74 86//86
f 87//87 80//80 86//86
f 81//81 80//80 87//87
f 86//86 74//74 88//88
f 88//88 74//74 77//77
f 86//86 88//88 89//89
f 90//90 86//86 89//89
f 87//87 86//86 90//90
f 75//75 91//91 77//77
f 90//90 89//89 92//92
f 90//90 92//92 93//93
f 94//94 90//90 93//93
f 95//95 83//83 82//82
f 95//95 82//82 81//81
f 95//95 81//81 87//87
f 95//95 87//87 90//90
f 95//95 96//96 83//83
f 97//97 91//91 75//75
f 97//97 98//98 91//91
f 97//97 99//99 98//98
f 100//100 95//95 101//101
f 102//102 103//103 104//104
f 102//102 104//104 105//105
f 102//102 105//105 106//106
f 106//106 105//105 107//107
f 108//108 102//102 106//106
f 109//109 102//102 108//108
f 110//110 108//108 106//106
f 111//111 112//112 113//113
f 111//111 113//113 114//114
f 111//111 114//114 115//115
f 111//111 115//115 116//116
f 111//111 116//116 117//117
f 117//117 118//118 111//111
f 118//118 119//119 111//111
f 120//120 111//111 119//119
f 120//120 121//121 111//111
f 121//121 122//122 111//111
f 111//111 122//122 123//123
f 114//114 113//113 124//124
f 124//124 113//113 125//125
f 125//125 113//113 126//126
f 126//126 113//113 127//127
f 127//127 113//113 128//128
f 128//128 113//113 129//129
f 129//129 113//113 130//130
f 130//130 113//113 131//131
f 131//131 113//113 132//132
f 132//132 113//113 133//133
f 133//133 113//113 134//134
f 133//133 134//134 135//135
f 135//135 134//134 136//136
f 134//134 137//137 136//136
f 137//137 134//134 138//138
f 138//138 134//134 139//139
f 139//139 134//134 140//140
f 140//140 134//134 141//141
f 134//134 142//142 141//141
f 134//134 143//143 142//142
f 134//134 144//144 143//143
f 144//144 134//134 145//145
f 145//145 134//134 146//146
f 147//147 134//134 148//148
f 149//149 150//150 151//151
f 149//149 152//152 150//150
f 151//151 150//150 153//153
f 151//151 153//153 154//154
f 154//154 153//153 155//155
f 154//154 155//155 156//156
f 152//152 157//157 150//150
f 158//158 159//159 160//160
f 161//161 159//159 158//158
f 162//162 159//159 161//161
f 163//163 162//162 161//161
f 164//164 162//162 163//163
f 165//165 162//162 164//164
f 9//9 166//166 8//8
f 166//166 9//9 167//167
f 168//168 169//169 170//170
f 168//168 171//171 169//169
f 172//172 169//169 173//173
f 174//174 169//169 172//172
f 169//169 174//174 175//175
f 176//176 169//169 175//175
f 177//177 169//169 176//176
f 178//178 169//169 177//177
f 178//178 179//179 169//169
f 179//179 180//180 169//169
f 180//180 181//181 169//169
f 182//182 181//181 180//180
f 182//182 183//183 181//181
f 183//183 184//184 181//181
f 184//184 185//185 181//181
f 185//185 186//186 181//181
f 186//186 187//187 181//181
f 187//187 188//188 181//181
f 188//188 189//189 181//181
f 181//181 189//189 190//190
f 181//181 190//190 191//191
f 192//192 181//181 191//191
f 193//193 181//181 192//192
f 194//194 181//181 193//193
f 195//195 181//181 194//194
f 195//195 196//196 181//181
f 196//196 197//197 198//198
f 196//196 198//198 199//199
f 199//199 200//200 196//196
f 196//196 200//200 201//201
f 201//201 202//202 196//196
f 196//196 202//202 203//203
f 196//196 203//203 204//204
f 205//205 196//196 206//206
f 207//207 196//196 205//205
