v 36.50349 -83.252 -113.4102
v 29.06155 -71.00375 -122.2678
v 36.50349 -83.252 -113.4102
v 36.50349 -83.252 -113.4102
v 39.57621 -81.4329 -113.4764
v 40.8053 -80.70526 -113.5029
v 40.8053 -80.70526 -113.5029
v 33.36336 -68.457 -122.3605
v 25.92142 -56.20874 -131.218
v 40.94448 -80.76213 -113.6985
v 27.17408 -56.72058 -132.9783
v 40.96178 -80.7692 -113.7228
v 27.32974 -56.78418 -133.197
v 40.96663 -80.77118 -113.7296
v 27.37345 -56.80204 -133.2584
v 41.02121 -80.79348 -113.8063
v 27.86461 -57.00272 -133.9486
v 41.69406 -81.06841 -114.7518
v 27.93937 -57.03327 -134.0536
v 42.332 -81.32907 -115.6482
v 42.4054 -81.35905 -115.7513
v 28.01841 -57.06557 -134.1647
v 42.55846 -81.4216 -115.9664
v 28.03542 -57.07252 -134.1886
v 42.96439 -81.58746 -116.5368
v 28.08052 -57.09095 -134.252
v 43.146 -81.52754 -116.6066
v 29.08054 -56.76102 -134.636
v 29.71499 -56.5517 -134.8796
v 43.19106 -81.51268 -116.6238
v 30.12053 -56.41791 -135.0353
v 43.20447 -81.50826 -116.629
v 30.24121 -56.37809 -135.0816
v 43.30582 -81.47482 -116.6679
v 31.15336 -56.07716 -135.4319
v 44.46856 -81.09121 -117.1144
v 31.28255 -56.03454 -135.4814
v 45.42917 -80.77428 -117.4832
v 31.38929 -55.99932 -135.5224
v 46.37865 -80.46103 -117.8478
v 31.49479 -55.96452 -135.5629
v 46.46103 -80.38465 -117.8114
v 32.23616 -55.27708 -135.2352
v 46.6456 -80.21351 -117.7298
v 33.89725 -53.73683 -134.501
v 47.16051 -79.73606 -117.5022
v 47.36643 -79.54512 -117.4112
v 33.97735 -53.66256 -134.4656
v 48.06859 -78.89404 -117.1008
v 34.05537 -53.59022 -134.4311
v 48.64674 -78.35795 -116.8452
v 34.11961 -53.53065 -134.4027
v 49.04807 -77.98582 -116.6678
v 34.1642 -53.48931 -134.383
v 34.1642 -53.48931 -134.383
v 49.06951 -77.84473 -116.4907
v 34.35721 -52.21943 -132.7892
v 49.07582 -77.80319 -116.4386
v 34.41402 -51.84566 -132.3201
v 49.07647 -77.79895 -116.4333
v 34.41983 -51.8075 -132.2722
v 49.07677 -77.79699 -116.4308
v 34.42252 -51.78981 -132.25
v 49.07715 -77.7945 -116.4277
v 34.42591 -51.76744 -132.2219
v 49.08415 -77.74842 -116.3699
v 34.48896 -51.35266 -131.7013
v 49.40891 -75.61178 -113.6882
v 34.52504 -51.11526 -131.4033
v 49.40891 -75.61177 -113.6882
v 34.52504 -51.11526 -131.4033
v 49.40891 -75.61177 -113.6882
v 49.40891 -75.61177 -113.6882
v 50.638 -74.88413 -113.7146
v 53.71072 -73.06503 -113.7808
v 53.71072 -73.06503 -113.7808
v 53.71072 -73.06503 -113.7808
v 49.40891 -75.61177 -113.6882
v 49.40891 -75.61177 -113.6882
v 49.40891 -75.61177 -113.6882
v 34.52504 -51.11526 -131.4033
v 34.52504 -51.11526 -131.4033
v 34.52504 -51.11526 -131.4033
v 49.40891 -75.61177 -113.6882
v 52.98903 -77.81313 -119.7401
v 49.40891 -75.61177 -113.6882
v 34.52504 -51.11526 -131.4033
v 49.40891 -75.61177 -113.6882
v 41.96698 -63.36351 -122.5458
v 34.52504 -51.11526 -131.4033
v 46.26878 -60.81677 -122.6384
v 34.52505 -51.11527 -131.4033
v 34.52504 -51.11526 -131.4033
v 35.75413 -50.38762 -131.4298
v 38.10516 -53.31662 -137.4553
v 34.52504 -51.11526 -131.4033
v 52.98903 -77.81313 -119.7401
v 38.82685 -48.56852 -131.496
v 38.10516 -53.31662 -137.4553
v 34.1642 -53.48931 -134.383
v 34.1642 -53.48931 -134.383
v 29.06155 -71.00375 -122.2678
v 36.50349 -83.252 -113.4102
v 36.50349 -83.252 -113.4102
v 39.57621 -81.4329 -113.4764
v 33.36336 -68.457 -122.3605
v 40.8053 -80.70526 -113.5029
v 24.13956 -57.26364 -131.1797
v 21.61962 -58.75549 -131.1254
v 25.92142 -56.20874 -131.218
v 36.50349 -83.252 -113.4102
v 40.82167 -85.0164 -119.4781
v 47.65021 -82.76355 -122.1
v 42.96439 -81.58746 -116.5368
v 42.55846 -81.4216 -115.9664
v 42.4054 -81.35905 -115.7513
v 42.332 -81.32907 -115.6482
v 41.69406 -81.06841 -114.7518
v 41.02121 -80.79348 -113.8063
v 40.96663 -80.77118 -113.7296
v 40.96178 -80.7692 -113.7228
v 40.94448 -80.76213 -113.6985
v 40.8053 -80.70526 -113.5029
v 43.146 -81.52754 -116.6066
v 43.19106 -81.51268 -116.6238
v 43.20447 -81.50826 -116.629
v 43.30582 -81.47482 -116.6679
v 44.46856 -81.09121 -117.1144
v 45.42917 -80.77428 -117.4832
v 46.37865 -80.46103 -117.8478
v 46.46103 -80.38465 -117.8114
v 46.6456 -80.21351 -117.7298
v 47.16051 -79.73606 -117.5022
v 52.98903 -77.81313 -119.7401
v 47.36643 -79.54512 -117.4112
v 48.06859 -78.89404 -117.1008
v 48.64674 -78.35795 -116.8452
v 49.04807 -77.98582 -116.6678
v 49.06951 -77.84473 -116.4907
v 49.07582 -77.80319 -116.4386
v 49.07647 -77.79895 -116.4333
v 49.07677 -77.79699 -116.4308
v 49.07715 -77.7945 -116.4277
v 49.08415 -77.74842 -116.3699
v 49.40891 -75.61178 -113.6882
v 49.40891 -75.61177 -113.6882
v 49.40891 -75.61177 -113.6882
v 53.71072 -73.06503 -113.7808
v 36.50349 -83.252 -113.4102
v 25.93781 -60.51989 -137.1933
v 40.82167 -85.0164 -119.4781
v 29.06155 -71.00375 -122.2678
v 32.76634 -58.26704 -139.8152
v 47.65021 -82.76355 -122.1
v 38.10516 -53.31662 -137.4553
v 52.98903 -77.81313 -119.7401
v 21.61962 -58.75549 -131.1254
v 53.71072 -73.06503 -113.7808
v 41.96698 -63.36351 -122.5458
v 49.40891 -75.61177 -113.6882
v 46.26878 -60.81677 -122.6384
v 34.52505 -51.11527 -131.4033
v 38.82685 -48.56852 -131.496
v 35.75413 -50.38762 -131.4298
v 34.52504 -51.11526 -131.4033
v 25.92142 -56.20874 -131.218
v 25.93781 -60.51989 -137.1933
v 24.13956 -57.26364 -131.1797
v 25.93781 -60.51989 -137.1933
v 21.61962 -58.75549 -131.1254
v 25.92142 -56.20874 -131.218
v 27.17408 -56.72058 -132.9783
v 25.92142 -56.20874 -131.218
v 27.32974 -56.78418 -133.197
v 27.37345 -56.80204 -133.2584
v 27.86461 -57.00272 -133.9486
v 27.93937 -57.03327 -134.0536
v 28.01841 -57.06557 -134.1647
v 28.03542 -57.07252 -134.1886
v 28.08052 -57.09095 -134.252
v 32.76634 -58.26704 -139.8152
v 29.08054 -56.76102 -134.636
v 29.71499 -56.5517 -134.8796
v 30.12053 -56.41791 -135.0353
v 30.24121 -56.37809 -135.0816
v 31.15336 -56.07716 -135.4319
v 31.28255 -56.03454 -135.4814
v 31.38929 -55.99932 -135.5224
v 31.49479 -55.96452 -135.5629
v 32.23616 -55.27708 -135.2352
v 33.89725 -53.73683 -134.501
v 33.97735 -53.66256 -134.4656
v 34.05537 -53.59022 -134.4311
v 34.11961 -53.53065 -134.4027
v 34.1642 -53.48931 -134.383
v 38.10516 -53.31662 -137.4553
v 34.1642 -53.48931 -134.383
v 34.35721 -52.21943 -132.7892
v 34.41402 -51.84566 -132.3201
v 34.41983 -51.8075 -132.2722
v 34.42252 -51.78981 -132.25
v 34.42591 -51.76744 -132.2219
v 34.48896 -51.35266 -131.7013
v 34.52504 -51.11526 -131.4033
v 35.75413 -50.38762 -131.4298
v 34.52504 -51.11526 -131.4033
v 38.82685 -48.56852 -131.496

vn -0.8603608 -0.5093485 0.01852925
vn -0.8603609 -0.5093484 0.01852917
vn -0.3657756 -0.8598389 0.3562096
vn 0.4417072 -0.726981 0.5257312
vn 0.4417072 -0.726981 0.5257312
vn 0.697547 0.6468044 0.308338
vn 0.9141808 0.4014187 0.05600667
vn -0.04255216 0.5683599 0.8216789
vn 0.6975494 0.6468035 0.3083342
vn 0.69755 0.6468033 0.3083336
vn 0.6975497 0.6468034 0.3083338
vn 0.6975492 0.6468037 0.3083346
vn 0.6975484 0.646804 0.3083354
vn 0.697552 0.6468022 0.3083311
vn 0.6975503 0.6468031 0.3083332
vn 0.69755 0.6468032 0.3083335
vn 0.6975502 0.6468033 0.3083335
vn 0.6975501 0.6468031 0.3083334
vn 0.6975499 0.6468032 0.3083336
vn 0.6975502 0.6468032 0.3083333
vn 0.6975495 0.6468034 0.3083343
vn 0.6975486 0.6468038 0.3083355
vn 0.6975498 0.6468032 0.3083338
vn 0.6975504 0.6468031 0.3083331
vn 0.6044703 0.6741749 0.4243867
vn 0.1307053 0.6318883 0.763959
vn 0.09429204 0.620368 0.7786223
vn 0.09429277 0.6203681 0.7786219
vn 0.09429308 0.6203683 0.7786219
vn 0.09429502 0.6203688 0.7786213
vn 0.09429621 0.6203691 0.7786208
vn 0.0942978 0.6203694 0.7786204
vn 0.09429517 0.6203688 0.7786213
vn 0.09429403 0.6203685 0.7786215
vn 0.0942935 0.6203685 0.7786217
vn 0.09429339 0.6203685 0.7786217
vn 0.09429445 0.6203687 0.7786213
vn 0.09429386 0.6203686 0.7786216
vn 0.09429276 0.6203682 0.778622
vn 0.03536622 0.5996495 0.7994809
vn -0.5169457 0.2727027 0.8114189
vn -0.5641966 0.2305313 0.7928035
vn -0.5641975 0.2305306 0.7928032
vn -0.564198 0.2305302 0.792803
vn -0.564198 0.2305302 0.792803
vn -0.5641976 0.2305305 0.792803
vn -0.5641972 0.2305307 0.7928033
vn -0.5641975 0.2305305 0.7928032
vn -0.5641973 0.2305307 0.7928033
vn -0.5641975 0.2305305 0.7928032
vn -0.5641975 0.2305305 0.7928033
vn -0.5641971 0.2305308 0.7928033
vn -0.6905967 0.09854732 0.7164947
vn -0.5641809 0.2305458 0.7928105
vn -0.8921901 -0.2943492 0.3425717
vn -0.8921902 -0.29435 0.3425707
vn -0.8921903 -0.2943503 0.3425704
vn -0.8921904 -0.2943509 0.3425693
vn -0.8921902 -0.2943498 0.342571
vn -0.89219 -0.294349 0.3425725
vn -0.8921894 -0.2943475 0.3425747
vn -0.8921828 -0.2943235 0.3426129
vn -0.8921871 -0.2943385 0.342589
vn -0.8921912 -0.2943538 0.342565
vn -0.8921907 -0.2943515 0.3425684
vn -0.8921902 -0.2943499 0.3425708
vn -0.8921901 -0.2943496 0.3425713
vn -0.8921901 -0.2943494 0.3425715
vn -0.8921897 -0.2943462 0.3425754
vn -0.8637871 -0.1862683 0.4681624
vn -0.860361 -0.5093483 0.01852907
vn -0.860361 -0.5093483 0.01852907
vn -0.860361 -0.5093483 0.01852907
vn 0.4417072 -0.726981 0.5257312
vn 0.8921901 0.2943499 -0.3425711
vn 0.4417072 -0.726981 0.5257312
vn -0.1403405 0.5227928 0.8408284
vn -0.2229026 -0.8835941 0.4117959
vn -0.1197359 -0.8875864 0.4448076
vn -0.8268038 -0.5597124 0.05583492
vn -0.860361 -0.5093483 0.01852907
vn -0.860361 -0.5093483 0.01852907
vn -0.860361 -0.5093483 0.01852907
vn -0.8102878 -0.5815201 0.07258223
vn 0.4417072 -0.726981 0.5257312
vn -0.8547 -0.5185107 0.0251899
vn -0.860361 -0.5093483 0.01852907
vn -0.7892471 -0.6070397 0.09269245
vn -0.8603593 -0.5093513 0.01852343
vn -0.8853281 -0.464783 -0.01307554
vn 0.8921901 0.2943498 -0.342571
vn -0.860355 -0.5093592 0.01850896
vn -0.4417132 0.7269775 -0.5257311
vn -0.4417072 0.726981 -0.5257312
vn -0.4417071 0.7269809 -0.5257316
vn 0 0 0
vn 0.8921902 0.2943498 -0.3425711
vn 0.8921902 0.2943498 -0.3425711
vn 0.8921902 0.2943498 -0.3425711
vn -0.4417071 0.7269809 -0.5257316
vn -0.4417071 0.7269809 -0.5257316
vn -0.2543101 0.4605031 0.8504489
vn -0.2543101 0.4605031 0.8504488
vn -0.2543101 0.4605031 0.8504489
vn -0.2543101 0.4605031 0.8504489
vn -0.2543101 0.4605031 0.8504489
vn -0.2543101 0.4605031 0.8504489
vn -0.2543101 0.4605031 0.8504489
vn -0.2543101 0.4605031 0.8504489
vn -0.2543101 0.4605031 0.8504489
vn 0.4417072 -0.726981 0.5257312
vn 0.4417072 -0.726981 0.5257312
vn 0.4417072 -0.726981 0.5257312
vn 0.4417072 -0.726981 0.5257312
vn 0.4417072 -0.726981 0.5257312
vn 0.4417072 -0.726981 0.5257312
vn 0.4417072 -0.726981 0.5257312
vn 0.4417072 -0.726981 0.5257312
vn 0.4417072 -0.726981 0.5257312
vn 0.4417072 -0.726981 0.5257312
vn 0.4417072 -0.726981 0.5257312
vn 0.4417072 -0.726981 0.5257312
vn 0.4417072 -0.726981 0.5257312
vn 0.4417072 -0.726981 0.5257312
vn 0.4417072 -0.726981 0.5257312
vn 0.4417072 -0.726981 0.5257312
vn 0.4417072 -0.726981 0.5257312
vn 0.4417072 -0.726981 0.5257312
vn 0.4417072 -0.726981 0.5257312
vn 0.4417072 -0.726981 0.5257312
vn 0.4417072 -0.726981 0.5257312
vn 0.4417072 -0.726981 0.5257312
vn 0.4417072 -0.726981 0.5257312
vn 0.4417072 -0.726981 0.5257312
vn 0.4417072 -0.726981 0.5257312
vn 0.4417072 -0.726981 0.5257312
vn 0.4417072 -0.726981 0.5257312
vn 0.4417072 -0.726981 0.5257312
vn 0.4417072 -0.726981 0.5257312
vn 0.4417072 -0.726981 0.5257312
vn 0.4417072 -0.726981 0.5257312
vn 0.4417072 -0.726981 0.5257312
vn 0.4417072 -0.726981 0.5257312
vn 0.4417072 -0.726981 0.5257312
vn 0.4417072 -0.726981 0.5257312
vn 0.4417072 -0.726981 0.5257312
vn 0.4417072 -0.726981 0.5257312
vn 0.4417072 -0.726981 0.5257312
vn -0.6975498 -0.6468034 -0.3083339
vn -0.5323192 -0.6840677 -0.4986859
vn -0.3167115 -0.6746197 -0.6667699
vn -0.6975496 -0.6468033 -0.3083339
vn 0.1342455 -0.5258409 -0.8399224
vn 0.3695948 -0.3865101 -0.844991
vn 0.5641976 -0.2305304 -0.7928031
vn 0.5641976 -0.2305304 -0.7928032
vn -0.6975498 -0.6468033 -0.3083338
vn -0.2543101 0.4605031 0.8504489
vn -0.2543101 0.4605031 0.8504489
vn -0.2543101 0.4605031 0.8504489
vn -0.2543101 0.4605031 0.8504489
vn -0.2543101 0.4605031 0.8504489
vn -0.2543101 0.4605031 0.8504489
vn -0.2543101 0.4605031 0.8504489
vn -0.2543101 0.4605031 0.8504488
vn 0.7529027 0.6461977 -0.1247639
vn -0.4417078 0.7269807 -0.5257312
vn -0.4417071 0.7269809 -0.5257314
vn -0.4417073 0.7269809 -0.5257314
vn -0.4417072 0.726981 -0.5257314
vn -0.4417072 0.726981 -0.5257314
vn -0.4417075 0.7269809 -0.5257313
vn -0.4417075 0.7269809 -0.5257313
vn -0.4417075 0.7269809 -0.5257313
vn -0.4417075 0.7269809 -0.5257313
vn -0.4417075 0.7269809 -0.5257313
vn -0.4417074 0.7269808 -0.5257313
vn -0.4417075 0.7269809 -0.5257313
vn -0.4417074 0.7269808 -0.5257313
vn -0.4417073 0.7269809 -0.5257315
vn -0.4417071 0.7269809 -0.5257315
vn -0.4417073 0.7269809 -0.5257315
vn -0.4417073 0.7269809 -0.5257315
vn -0.4417073 0.7269809 -0.5257315
vn -0.4417073 0.7269809 -0.5257315
vn -0.4417073 0.7269809 -0.5257315
vn -0.4417073 0.7269809 -0.5257315
vn -0.4417073 0.7269809 -0.5257315
vn -0.441707 0.726981 -0.5257315
vn -0.441707 0.726981 -0.5257315
vn -0.441707 0.726981 -0.5257315
vn -0.441707 0.726981 -0.5257315
vn -0.441707 0.726981 -0.5257315
vn -0.441707 0.726981 -0.5257315
vn -0.441707 0.726981 -0.5257315
vn -0.4417071 0.726981 -0.5257314
vn -0.4417069 0.7269812 -0.5257313
vn -0.4417069 0.7269812 -0.5257313
vn -0.4417069 0.7269812 -0.5257313
vn -0.4417069 0.7269812 -0.5257313
vn -0.4417069 0.7269812 -0.5257313
vn -0.4417069 0.7269812 -0.5257313
vn -0.4417069 0.7269812 -0.5257313
vn -0.4417069 0.7269811 -0.5257313
vn -0.4417072 0.726981 -0.5257314
vn -0.4417072 0.726981 -0.5257314
vn -0.4417071 0.7269809 -0.5257314

f 1//1 2//2 3//3
f 4//4 1//1 3//3
f 3//3 5//5 4//4
f 3//3 6//6 5//5
f 5//5 6//6 7//7
f 8//8 7//7 6//6
f 9//9 8//8 6//6
f 10//10 9//9 6//6
f 9//9 10//10 11//11
f 11//11 10//10 12//12
f 13//13 11//11 12//12
f 13//13 12//12 14//14
f 13//13 14//14 15//15
f 15//15 14//14 16//16
f 15//15 16//16 17//17
f 18//18 17//17 16//16
f 19//19 17//17 18//18
f 19//19 18//18 20//20
f 21//21 19//19 20//20
f 22//22 19//19 21//21
f 22//22 21//21 23//23
f 24//24 22//22 23//23
f 24//24 23//23 25//25
f 26//26 24//24 25//25
f 26//26 25//25 27//27
f 28//28 26//26 27//27
f 28//28 27//27 29//29
f 29//29 27//27 30//30
f 31//31 29//29 30//30
f 31//31 30//30 32//32
f 33//33 31//31 32//32
f 33//33 32//32 34//34
f 35//35 33//33 34//34
f 35//35 34//34 36//36
f 37//37 35//35 36//36
f 37//37 36//36 38//38
f 39//39 37//37 38//38
f 39//39 38//38 40//40
f 41//41 39//39 40//40
f 41//41 40//40 42//42
f 41//41 42//42 43//43
f 43//43 42//42 44//44
f 45//45 43//43 44//44
f 45//45 44//44 46//46
f 47//47 45//45 46//46
f 48//48 45//45 47//47
f 48//48 47//47 49//49
f 50//50 48//48 49//49
f 50//50 49//49 51//51
f 52//52 50//50 51//51
f 52//52 51//51 53//53
f 54//54 52//52 53//53
f 55//55 54//54 53//53
f 55//55 53//53 56//56
f 55//55 56//56 57//57
f 57//57 56//56 58//58
f 57//57 58//58 59//59
f 59//59 58//58 60//60
f 59//59 60//60 61//61
f 61//61 60//60 62//62
f 61//61 62//62 63//63
f 63//63 62//62 64//64
f 63//63 64//64 65//65
f 65//65 64//64 66//66
f 65//65 66//66 67//67
f 68//68 67//67 66//66
f 69//69 67//67 68//68
f 69//69 68//68 70//70
f 71//71 69//69 70//70
f 72//72 71//71 73//73
f 74//74 75//75 76//76
f 77//77 74//74 76//76
f 75//75 77//77 76//76
f 78//78 75//75 74//74
f 79//79 75//75 78//78
f 78//78 74//74 80//80
f 81//81 78//78 80//80
f 82//82 78//78 81//81
f 82//82 83//83 78//78
f 83//83 84//84 79//79
f 84//84 85//85 79//79
f 80//80 74//74 86//86
f 87//87 80//80 86//86
f 81//81 80//80 87//87
f 86//86 74//74 88//88
f 88//88 74//74 77//77
f 86//86 88//88 89//89
f 90//90 86//86 89//89
f 87//87 86//86 90//90
f 75//75 91//91 77//77
f 90//90 89//89 92//92
f 90//90 92//92 93//93
f 94//94 90//90 93//93
f 95//95 83//83 82//82
f 95//95 82//82 81//81
f 95//95 81//81 87//87
f 95//95 87//87 90//90
f 95//95 96//96 83//83
f 97//97 91//91 75//75
f 97//97 98//98 91//91
f 97//97 99//99 98//98
f 100//100 95//95 101//101
f 102//102 103//103 104//104
f 102//102 104//104 105//105
f 102//102 105//105 106//106
f 106//106 105//105 107//107
f 108//108 102//102 106//106
f 109//109 102//102 108//108
f 110//110 108//108 106//106
f 111//111 112//112 113//113
f 111//111 113//113 114//114
f 111//111 114//114 115//115
f 111//111 115//115 116//116
f 111//111 116//116 117//117
f 117//117 118//118 111//111
f 118//118 119//119 111//111
f 120//120 111//111 119//119
f 120//120 121//121 111//111
f 121//121 122//122 111//111
f 111//111 122//122 123//123
f 114//114 113//113 124//124
f 124//124 113//113 125//125
f 125//125 113//113 126//126
f 126//126 113//113 127//127
f 127//127 113//113 128//128
f 128//128 113//113 129//129
f 129//129 113//113 130//130
f 130//130 113//113 131//131
f 131//131 113//113 132//132
f 132//132 113//113 133//133
f 133//133 113//113 134//134
f 133//133 134//134 135//135
f 135//135 134//134 136//136
f 134//134 137//137 136//136
f 137//137 134//134 138//138
f 138//138 134//134 139//139
f 139//139 134//134 140//140
f 140//140 134//134 141//141
f 134//134 142//142 141//141
f 134//134 143//143 142//142
f 134//134 144//144 143//143
f 144//144 134//134 145//145
f 145//145 134//134 146//146
f 147//147 134//134 148//148
f 149//149 150//150 151//151
f 149//149 152//152 150//150
f 151//151 150//150 153//153
f 151//151 153//153 154//154
f 154//154 153//153 155//155
f 154//154 155//155 156//156
f 152//152 157//157 150//150
f 158//158 159//159 160//160
f 161//161 159//159 158//158
f 162//162 159//159 161//161
f 163//163 162//162 161//161
f 164//164 162//162 163//163
f 165//165 162//162 164//164
f 9//9 166//166 8//8
f 166//166 9//9 167//167
f 168//168 169//169 170//170
f 168//168 171//171 169//169
f 172//172 169//169 173//173
f 174//174 169//169 172//172
f 169//169 174//174 175//175
f 176//176 169//169 175//175
f 177//177 169//169 176//176
f 178//178 169//169 177//177
f 178//178 179//179 169//169
f 179//179 180//180 169//169
f 180//180 181//181 169//169
f 182//182 181//181 180//180
f 182//182 183//183 181//181
f 183//183 184//184 181//181
f 184//184 185//185 181//181
f 185//185 186//186 181//181
f 186//186 187//187 181//181
f 187//187 188//188 181//181
f 188//188 189//189 181//181
f 181//181 189//189 190//190
f 181//181 190//190 191//191
f 192//192 181//181 191//191
f 193//193 181//181 192//192
f 194//194 181//181 193//193
f 195//195 181//181 194//194
f 195//195 196//196 181//181
f 196//196 197//197 198//198
f 196//196 198//198 199//199
f 199//199 200//200 196//196
f 196//196 200//200 201//201
f 201//201 202//202 196//196
f 196//196 202//202 203//203
f 196//196 203//203 204//204
f 205//205 196//196 206//206
f 207//207 196//196 205//205
