v 138.3861 10.09767 -32.99463
v 133.5784 30.46357 -32.99463
v 138.3861 10.09767 -32.99463
v 138.3861 10.09767 -32.99462
v 139.0989 10.26593 -29.49908
v 139.384 10.33323 -28.10087
v 139.384 10.33323 -28.10087
v 134.5762 30.69913 -28.10087
v 129.7685 51.06502 -28.10087
v 139.6199 10.38893 -28.0552
v 131.892 51.56631 -27.68989
v 139.6492 10.39585 -28.04953
v 132.1559 51.6286 -27.63882
v 139.6575 10.39779 -28.04794
v 132.23 51.6461 -27.62448
v 139.75 10.41963 -28.03003
v 133.0626 51.84265 -27.46334
v 140.8906 10.6889 -27.80928
v 133.1893 51.87257 -27.43881
v 141.972 10.94419 -27.59998
v 142.0965 10.97356 -27.5759
v 133.3233 51.9042 -27.41288
v 142.3559 11.03482 -27.52568
v 133.3521 51.911 -27.4073
v 143.0441 11.19726 -27.3925
v 133.4286 51.92905 -27.3925
v 143.1558 11.22364 -27.22441
v 134.0438 52.0743 -26.46692
v 134.4342 52.16644 -25.8797
v 143.1835 11.23018 -27.1827
v 134.6837 52.22534 -25.50435
v 143.1918 11.23213 -27.17029
v 134.7579 52.24287 -25.39264
v 143.2541 11.24685 -27.07649
v 135.3191 52.37534 -24.5484
v 143.9695 11.41572 -26.00029
v 135.3986 52.39411 -24.42882
v 144.5605 11.55524 -25.11119
v 135.4643 52.40961 -24.33003
v 145.1446 11.69314 -24.23238
v 135.5292 52.42493 -24.23239
v 145.1234 11.68812 -24.11633
v 135.3377 52.37973 -23.18793
v 145.0757 11.67687 -23.85631
v 134.9087 52.27846 -20.84775
v 144.9427 11.64547 -23.1309
v 144.8895 11.63292 -22.84079
v 134.888 52.27357 -20.73492
v 144.7082 11.59011 -21.85158
v 134.8679 52.26881 -20.62501
v 144.5589 11.55486 -21.03707
v 134.8513 52.2649 -20.5345
v 144.4552 11.53039 -20.47168
v 134.8398 52.26218 -20.47168
v 134.8398 52.26218 -20.47168
v 144.2724 11.48724 -20.3434
v 133.1946 51.87382 -19.3172
v 144.2186 11.47454 -20.30565
v 132.7104 51.75951 -18.97739
v 144.2131 11.47324 -20.30179
v 132.661 51.74784 -18.9427
v 144.2106 11.47264 -20.30001
v 132.638 51.74243 -18.92662
v 144.2074 11.47188 -20.29775
v 132.6091 51.73559 -18.90628
v 144.1477 11.45779 -20.25585
v 132.0717 51.60874 -18.52919
v 141.3796 10.80435 -18.31336
v 131.7642 51.53614 -18.31336
v 141.3796 10.80435 -18.31336
v 131.7642 51.53614 -18.31336
v 141.3796 10.80435 -18.31336
v 141.3796 10.80435 -18.31336
v 141.6647 10.87165 -16.91514
v 142.3775 11.0399 -13.41961
v 142.3775 11.0399 -13.41961
v 142.3775 11.0399 -13.41961
v 141.3796 10.80435 -18.31336
v 141.3796 10.80435 -18.31336
v 141.3796 10.80435 -18.31336
v 131.7642 51.53614 -18.31336
v 131.7642 51.53614 -18.31336
v 131.7642 51.53614 -18.31336
v 141.3796 10.80435 -18.31336
v 148.5286 12.49199 -17.73625
v 141.3796 10.80435 -18.31336
v 131.7642 51.53614 -18.31336
v 141.3796 10.80435 -18.31336
v 136.5719 31.17024 -18.31336
v 131.7642 51.53614 -18.31336
v 137.5697 31.4058 -13.41961
v 131.7642 51.53612 -18.31336
v 131.7642 51.53614 -18.31336
v 132.0493 51.60344 -16.91515
v 138.9132 53.22378 -17.73625
v 131.7642 51.53614 -18.31336
v 148.5286 12.49199 -17.73625
v 132.762 51.77169 -13.41961
v 138.9132 53.22378 -17.73625
v 134.8398 52.26218 -20.47168
v 134.8398 52.26218 -20.47168
v 133.5784 30.46357 -32.99463
v 138.3861 10.09767 -32.99463
v 138.3861 10.09767 -32.99462
v 139.0989 10.26593 -29.49908
v 134.5762 30.69913 -28.10087
v 139.384 10.33323 -28.10087
v 129.3552 50.96745 -30.12793
v 128.7706 50.82946 -32.99463
v 129.7685 51.06502 -28.10087
v 138.3861 10.09767 -32.99463
v 145.7063 11.82574 -31.57788
v 149.9075 12.8175 -25.25765
v 143.0441 11.19726 -27.3925
v 142.3559 11.03482 -27.52568
v 142.0965 10.97356 -27.5759
v 141.972 10.94419 -27.59998
v 140.8906 10.6889 -27.80928
v 139.75 10.41963 -28.03003
v 139.6575 10.39779 -28.04794
v 139.6492 10.39585 -28.04953
v 139.6199 10.38893 -28.0552
v 139.384 10.33323 -28.10087
v 143.1558 11.22364 -27.22441
v 143.1835 11.23018 -27.1827
v 143.1918 11.23213 -27.17029
v 143.2541 11.24685 -27.07649
v 143.9695 11.41572 -26.00029
v 144.5605 11.55524 -25.11119
v 145.1446 11.69314 -24.23238
v 145.1234 11.68812 -24.11633
v 145.0757 11.67687 -23.85631
v 144.9427 11.64547 -23.1309
v 148.5286 12.49199 -17.73625
v 144.8895 11.63292 -22.84079
v 144.7082 11.59011 -21.85158
v 144.5589 11.55486 -21.03707
v 144.4552 11.53039 -20.47168
v 144.2724 11.48724 -20.3434
v 144.2186 11.47454 -20.30565
v 144.2131 11.47324 -20.30179
v 144.2106 11.47264 -20.30001
v 144.2074 11.47188 -20.29775
v 144.1477 11.45779 -20.25585
v 141.3796 10.80435 -18.31336
v 141.3796 10.80435 -18.31336
v 141.3796 10.80435 -18.31336
v 142.3775 11.0399 -13.41961
v 138.3861 10.09767 -32.99463
v 136.0909 52.55752 -31.57788
v 145.7063 11.82574 -31.57788
v 133.5784 30.46357 -32.99463
v 140.292 53.54928 -25.25765
v 149.9075 12.8175 -25.25765
v 138.9132 53.22378 -17.73625
v 148.5286 12.49199 -17.73625
v 128.7706 50.82946 -32.99463
v 142.3775 11.0399 -13.41961
v 136.5719 31.17024 -18.31336
v 141.3796 10.80435 -18.31336
v 137.5697 31.4058 -13.41961
v 131.7642 51.53612 -18.31336
v 132.762 51.77169 -13.41961
v 132.0493 51.60344 -16.91515
v 131.7642 51.53614 -18.31336
v 129.7685 51.06502 -28.10087
v 136.0909 52.55752 -31.57788
v 129.3552 50.96745 -30.12793
v 136.0909 52.55752 -31.57788
v 128.7706 50.82946 -32.99463
v 129.7685 51.06502 -28.10087
v 131.892 51.56631 -27.68989
v 129.7685 51.06502 -28.10087
v 132.1559 51.6286 -27.63882
v 132.23 51.6461 -27.62448
v 133.0626 51.84265 -27.46334
v 133.1893 51.87257 -27.43881
v 133.3233 51.9042 -27.41288
v 133.3521 51.911 -27.4073
v 133.4286 51.92905 -27.3925
v 140.292 53.54928 -25.25765
v 134.0438 52.0743 -26.46692
v 134.4342 52.16644 -25.8797
v 134.6837 52.22534 -25.50435
v 134.7579 52.24287 -25.39264
v 135.3191 52.37534 -24.5484
v 135.3986 52.39411 -24.42882
v 135.4643 52.40961 -24.33003
v 135.5292 52.42493 -24.23239
v 135.3377 52.37973 -23.18793
v 134.9087 52.27846 -20.84775
v 134.888 52.27357 -20.73492
v 134.8679 52.26881 -20.62501
v 134.8513 52.2649 -20.5345
v 134.8398 52.26218 -20.47168
v 138.9132 53.22378 -17.73625
v 134.8398 52.26218 -20.47168
v 133.1946 51.87382 -19.3172
v 132.7104 51.75951 -18.97739
v 132.661 51.74784 -18.9427
v 132.638 51.74243 -18.92662
v 132.6091 51.73559 -18.90628
v 132.0717 51.60874 -18.52919
v 131.7642 51.53614 -18.31336
v 132.0493 51.60344 -16.91515
v 131.7642 51.53614 -18.31336
v 132.762 51.77169 -13.41961

vn -0.1995681 -0.04711203 -0.9787508
vn -0.1995681 -0.04711188 -0.9787508
vn -0.002002359 -0.6691518 -0.743123
vn 0.2297527 -0.973249 -8.940697E-08
vn 0.2297527 -0.973249 -8.940697E-08
vn -0.1801598 -0.04252997 0.9827175
vn 0.2300543 -0.09099979 0.9689139
vn -0.877847 -0.2072313 0.4317864
vn -0.1801554 -0.04252865 0.9827182
vn -0.1801546 -0.0425285 0.9827185
vn -0.1801549 -0.04252854 0.9827184
vn -0.1801559 -0.04252869 0.9827182
vn -0.180157 -0.04252887 0.982718
vn -0.1801513 -0.04252814 0.9827191
vn -0.180154 -0.04252849 0.9827186
vn -0.1801545 -0.04252856 0.9827184
vn -0.1801544 -0.04252855 0.9827186
vn -0.1801543 -0.04252852 0.9827185
vn -0.1801546 -0.04252858 0.9827185
vn -0.1801543 -0.04252848 0.9827186
vn -0.1801554 -0.04252875 0.9827183
vn -0.1801569 -0.04252906 0.982718
vn -0.1801548 -0.04252867 0.9827183
vn -0.180154 -0.04252847 0.9827186
vn -0.3223543 -0.07609737 0.9435555
vn -0.7805642 -0.1842659 0.5972984
vn -0.8036881 -0.1897247 0.5639946
vn -0.8036875 -0.1897246 0.5639952
vn -0.8036874 -0.1897246 0.5639956
vn -0.8036863 -0.1897245 0.5639973
vn -0.8036855 -0.1897243 0.5639983
vn -0.8036845 -0.1897243 0.5639998
vn -0.8036861 -0.1897245 0.5639974
vn -0.8036867 -0.1897244 0.5639964
vn -0.8036872 -0.1897245 0.563996
vn -0.8036872 -0.1897244 0.5639959
vn -0.8036865 -0.1897243 0.5639968
vn -0.803687 -0.1897244 0.5639963
vn -0.8036876 -0.1897245 0.5639953
vn -0.8380729 -0.1978418 0.5084214
vn -0.9662321 -0.2280961 -0.119866
vn -0.95643 -0.2257822 -0.1851054
vn -0.9564298 -0.2257821 -0.1851065
vn -0.9564297 -0.2257821 -0.1851072
vn -0.9564297 -0.2257821 -0.1851071
vn -0.9564297 -0.2257821 -0.1851067
vn -0.9564298 -0.2257823 -0.1851062
vn -0.9564298 -0.2257822 -0.1851066
vn -0.9564298 -0.2257822 -0.1851063
vn -0.9564297 -0.2257822 -0.1851066
vn -0.9564298 -0.2257822 -0.1851066
vn -0.9564298 -0.2257822 -0.1851061
vn -0.9021722 -0.2129738 -0.3751365
vn -0.956434 -0.2257832 -0.1850833
vn -0.5489094 -0.1295799 -0.8257769
vn -0.5489083 -0.1295796 -0.8257775
vn -0.5489081 -0.1295795 -0.8257779
vn -0.548907 -0.1295791 -0.8257785
vn -0.5489087 -0.1295797 -0.8257774
vn -0.54891 -0.1295803 -0.8257766
vn -0.548912 -0.1295811 -0.8257749
vn -0.5489471 -0.1295952 -0.8257494
vn -0.5489252 -0.1295863 -0.8257654
vn -0.548903 -0.1295776 -0.8257815
vn -0.5489063 -0.1295788 -0.8257793
vn -0.5489084 -0.1295796 -0.8257775
vn -0.5489089 -0.1295798 -0.8257772
vn -0.5489091 -0.1295798 -0.8257771
vn -0.5489132 -0.1295807 -0.8257743
vn -0.6757833 -0.1595307 -0.7196298
vn -0.1995681 -0.0471117 -0.9787508
vn -0.1995681 -0.0471117 -0.9787508
vn -0.1995681 -0.0471117 -0.9787508
vn 0.2297527 -0.973249 -8.940697E-08
vn 0.5489086 0.1295799 0.8257774
vn 0.2297527 -0.973249 -8.940697E-08
vn -0.9185537 -0.2168408 0.3305133
vn 0.04508993 -0.7706484 -0.6356633
vn 0.0773998 -0.8306575 -0.5513777
vn -0.1827401 -0.116141 -0.9762773
vn -0.1995681 -0.0471117 -0.9787508
vn -0.1995681 -0.0471117 -0.9787508
vn -0.1995681 -0.0471117 -0.9787508
vn -0.1748415 -0.1471084 -0.9735448
vn 0.2297527 -0.973249 -8.940697E-08
vn -0.1966482 -0.05943363 -0.9786711
vn -0.1995681 -0.0471117 -0.9787508
vn -0.1650704 -0.1842764 -0.9689138
vn -0.1995618 -0.04711021 -0.9787521
vn -0.2129969 0.01141033 -0.9769862
vn 0.5489086 0.1295798 0.8257774
vn -0.1995456 -0.04710638 -0.9787556
vn -0.2297541 0.9732487 -6.70582E-06
vn -0.2297527 0.973249 8.940697E-08
vn -0.2297523 0.9732491 9.09259E-10
vn 0 0 0
vn 0.5489087 0.1295798 0.8257774
vn 0.5489087 0.1295798 0.8257774
vn 0.5489087 0.1295798 0.8257775
vn -0.2297523 0.9732491 9.09259E-10
vn -0.2297523 0.9732491 9.09259E-10
vn -0.9525682 -0.2248706 0.2050535
vn -0.9525682 -0.2248705 0.2050535
vn -0.9525682 -0.2248706 0.2050535
vn -0.9525682 -0.2248706 0.2050535
vn -0.9525682 -0.2248706 0.2050535
vn -0.9525682 -0.2248706 0.2050535
vn -0.9525682 -0.2248706 0.2050535
vn -0.9525682 -0.2248706 0.2050535
vn -0.9525682 -0.2248706 0.2050535
vn 0.2297527 -0.973249 -8.940697E-08
vn 0.2297527 -0.973249 -8.940697E-08
vn 0.2297527 -0.973249 -8.940697E-08
vn 0.2297527 -0.973249 -8.940697E-08
vn 0.2297527 -0.973249 -8.940697E-08
vn 0.2297527 -0.973249 -8.940697E-08
vn 0.2297527 -0.973249 -8.940697E-08
vn 0.2297527 -0.973249 -8.940697E-08
vn 0.2297527 -0.973249 -8.940697E-08
vn 0.2297527 -0.973249 -8.940697E-08
vn 0.2297527 -0.973249 -8.940697E-08
vn 0.2297527 -0.973249 -8.940697E-08
vn 0.2297527 -0.973249 -8.940697E-08
vn 0.2297527 -0.973249 -8.940696E-08
vn 0.2297527 -0.973249 -8.940697E-08
vn 0.2297527 -0.973249 -8.940697E-08
vn 0.2297527 -0.973249 -8.940696E-08
vn 0.2297527 -0.973249 -8.940697E-08
vn 0.2297527 -0.973249 -8.940697E-08
vn 0.2297527 -0.973249 -8.940697E-08
vn 0.2297527 -0.973249 -8.940696E-08
vn 0.2297527 -0.973249 -8.940697E-08
vn 0.2297527 -0.973249 -8.940697E-08
vn 0.2297527 -0.973249 -8.940697E-08
vn 0.2297527 -0.973249 -8.940697E-08
vn 0.2297527 -0.973249 -8.940697E-08
vn 0.2297527 -0.973249 -8.940697E-08
vn 0.2297527 -0.973249 -8.940697E-08
vn 0.2297527 -0.973249 -8.940697E-08
vn 0.2297527 -0.973249 -8.940697E-08
vn 0.2297527 -0.973249 -8.940697E-08
vn 0.2297527 -0.973249 -8.940696E-08
vn 0.2297527 -0.973249 -8.940697E-08
vn 0.2297527 -0.973249 -8.940696E-08
vn 0.2297527 -0.973249 -8.940696E-08
vn 0.2297527 -0.973249 -8.940697E-08
vn 0.2297527 -0.973249 -8.940696E-08
vn 0.2297527 -0.973249 -8.940696E-08
vn 0.180155 0.04252855 -0.9827185
vn 0.4160204 0.0982088 -0.9040365
vn 0.6388749 0.1508176 -0.7543823
vn 0.180155 0.04252857 -0.9827183
vn 0.9163207 0.2163137 -0.3369938
vn 0.970912 0.229201 -0.06925926
vn 0.9564297 0.2257822 0.1851067
vn 0.9564297 0.2257822 0.1851067
vn 0.1801549 0.04252861 -0.9827184
vn -0.9525682 -0.2248706 0.2050535
vn -0.9525682 -0.2248706 0.2050535
vn -0.9525682 -0.2248706 0.2050535
vn -0.9525682 -0.2248706 0.2050535
vn -0.9525682 -0.2248706 0.2050535
vn -0.9525682 -0.2248706 0.2050535
vn -0.9525682 -0.2248706 0.2050535
vn -0.9525682 -0.2248705 0.2050535
vn 0.1488265 0.2435105 0.9584118
vn -0.2297529 0.973249 -6.316963E-07
vn -0.2297525 0.973249 4.515811E-08
vn -0.2297526 0.9732491 -6.773446E-08
vn -0.2297525 0.9732491 4.515812E-08
vn -0.2297525 0.9732491 4.515812E-08
vn -0.2297527 0.973249 -2.352042E-07
vn -0.2297527 0.973249 -2.352043E-07
vn -0.2297527 0.973249 -2.352038E-07
vn -0.2297527 0.973249 -2.352044E-07
vn -0.2297527 0.973249 -2.352045E-07
vn -0.2297527 0.973249 -2.352041E-07
vn -0.2297527 0.973249 -2.352028E-07
vn -0.2297527 0.973249 -2.352058E-07
vn -0.2297525 0.9732491 -9.814087E-08
vn -0.2297525 0.9732491 2.682962E-08
vn -0.2297525 0.9732491 -9.689158E-08
vn -0.2297525 0.9732491 -9.689212E-08
vn -0.2297525 0.9732491 -9.689288E-08
vn -0.2297525 0.9732491 -9.689241E-08
vn -0.2297525 0.9732491 -9.689237E-08
vn -0.2297525 0.9732491 -9.689224E-08
vn -0.2297525 0.9732491 -9.689165E-08
vn -0.2297524 0.9732491 1.257778E-07
vn -0.2297524 0.9732491 1.505514E-07
vn -0.2297524 0.9732491 1.505516E-07
vn -0.2297524 0.9732491 1.505509E-07
vn -0.2297524 0.9732491 1.505524E-07
vn -0.2297524 0.9732491 1.505517E-07
vn -0.2297524 0.9732491 1.505514E-07
vn -0.2297525 0.9732491 1.507193E-07
vn -0.2297526 0.9732491 3.621776E-07
vn -0.2297526 0.9732491 3.621778E-07
vn -0.2297526 0.9732491 3.621782E-07
vn -0.2297526 0.9732491 3.62171E-07
vn -0.2297526 0.9732491 3.62179E-07
vn -0.2297526 0.9732491 3.621784E-07
vn -0.2297526 0.9732491 3.621769E-07
vn -0.2297526 0.973249 3.621757E-07
vn -0.2297525 0.9732491 4.515812E-08
vn -0.2297525 0.9732491 4.515812E-08
vn -0.2297525 0.973249 4.515811E-08

f 1//1 2//2 3//3
f 4//4 1//1 3//3
f 3//3 5//5 4//4
f 3//3 6//6 5//5
f 5//5 6//6 7//7
f 8//8 7//7 6//6
f 9//9 8//8 6//6
f 10//10 9//9 6//6
f 9//9 10//10 11//11
f 11//11 10//10 12//12
f 13//13 11//11 12//12
f 13//13 12//12 14//14
f 13//13 14//14 15//15
f 15//15 14//14 16//16
f 15//15 16//16 17//17
f 18//18 17//17 16//16
f 19//19 17//17 18//18
f 19//19 18//18 20//20
f 21//21 19//19 20//20
f 22//22 19//19 21//21
f 22//22 21//21 23//23
f 24//24 22//22 23//23
f 24//24 23//23 25//25
f 26//26 24//24 25//25
f 26//26 25//25 27//27
f 28//28 26//26 27//27
f 28//28 27//27 29//29
f 29//29 27//27 30//30
f 31//31 29//29 30//30
f 31//31 30//30 32//32
f 33//33 31//31 32//32
f 33//33 32//32 34//34
f 35//35 33//33 34//34
f 35//35 34//34 36//36
f 37//37 35//35 36//36
f 37//37 36//36 38//38
f 39//39 37//37 38//38
f 39//39 38//38 40//40
f 41//41 39//39 40//40
f 41//41 40//40 42//42
f 41//41 42//42 43//43
f 43//43 42//42 44//44
f 45//45 43//43 44//44
f 45//45 44//44 46//46
f 47//47 45//45 46//46
f 48//48 45//45 47//47
f 48//48 47//47 49//49
f 50//50 48//48 49//49
f 50//50 49//49 51//51
f 52//52 50//50 51//51
f 52//52 51//51 53//53
f 54//54 52//52 53//53
f 55//55 54//54 53//53
f 55//55 53//53 56//56
f 55//55 56//56 57//57
f 57//57 56//56 58//58
f 57//57 58//58 59//59
f 59//59 58//58 60//60
f 59//59 60//60 61//61
f 61//61 60//60 62//62
f 61//61 62//62 63//63
f 63//63 62//62 64//64
f 63//63 64//64 65//65
f 65//65 64//64 66//66
f 65//65 66//66 67//67
f 68//68 67//67 66//66
f 69//69 67//67 68//68
f 69//69 68//68 70//70
f 71//71 69//69 70//70
f 72//72 71//71 73//73
f 74//74 75//75 76//76
f 77//77 74//74 76//76
f 75//75 77//77 76//76
f 78//78 75//75 74//74
f 79//79 75//75 78//78
f 78//78 74//74 80//80
f 81//81 78//78 80//80
f 82//82 78//78 81//81
f 82//82 83//83 78//78
f 83//83 84//84 79//79
f 84//84 85//85 79//79
f 80//80 74//74 86//86
f 87//87 80//80 86//86
f 81//81 80//80 87//87
f 86//86 74//74 88//88
f 88//88 74//74 77//77
f 86//86 88//88 89//89
f 90//90 86//86 89//89
f 87//87 86//86 90//90
f 75//75 91//91 77//77
f 90//90 89//89 92//92
f 90//90 92//92 93//93
f 94//94 90//90 93//93
f 95//95 83//83 82//82
f 95//95 82//82 81//81
f 95//95 81//81 87//87
f 95//95 87//87 90//90
f 95//95 96//96 83//83
f 97//97 91//91 75//75
f 97//97 98//98 91//91
f 97//97 99//99 98//98
f 100//100 95//95 101//101
f 102//102 103//103 104//104
f 102//102 104//104 105//105
f 102//102 105//105 106//106
f 106//106 105//105 107//107
f 108//108 102//102 106//106
f 109//109 102//102 108//108
f 110//110 108//108 106//106
f 111//111 112//112 113//113
f 111//111 113//113 114//114
f 111//111 114//114 115//115
f 111//111 115//115 116//116
f 111//111 116//116 117//117
f 117//117 118//118 111//111
f 118//118 119//119 111//111
f 120//120 111//111 119//119
f 120//120 121//121 111//111
f 121//121 122//122 111//111
f 111//111 122//122 123//123
f 114//114 113//113 124//124
f 124//124 113//113 125//125
f 125//125 113//113 126//126
f 126//126 113//113 127//127
f 127//127 113//113 128//128
f 128//128 113//113 129//129
f 129//129 113//113 130//130
f 130//130 113//113 131//131
f 131//131 113//113 132//132
f 132//132 113//113 133//133
f 133//133 113//113 134//134
f 133//133 134//134 135//135
f 135//135 134//134 136//136
f 134//134 137//137 136//136
f 137//137 134//134 138//138
f 138//138 134//134 139//139
f 139//139 134//134 140//140
f 140//140 134//134 141//141
f 134//134 142//142 141//141
f 134//134 143//143 142//142
f 134//134 144//144 143//143
f 144//144 134//134 145//145
f 145//145 134//134 146//146
f 147//147 134//134 148//148
f 149//149 150//150 151//151
f 149//149 152//152 150//150
f 151//151 150//150 153//153
f 151//151 153//153 154//154
f 154//154 153//153 155//155
f 154//154 155//155 156//156
f 152//152 157//157 150//150
f 158//158 159//159 160//160
f 161//161 159//159 158//158
f 162//162 159//159 161//161
f 163//163 162//162 161//161
f 164//164 162//162 163//163
f 165//165 162//162 164//164
f 9//9 166//166 8//8
f 166//166 9//9 167//167
f 168//168 169//169 170//170
f 168//168 171//171 169//169
f 172//172 169//169 173//173
f 174//174 169//169 172//172
f 169//169 174//174 175//175
f 176//176 169//169 175//175
f 177//177 169//169 176//176
f 178//178 169//169 177//177
f 178//178 179//179 169//169
f 179//179 180//180 169//169
f 180//180 181//181 169//169
f 182//182 181//181 180//180
f 182//182 183//183 181//181
f 183//183 184//184 181//181
f 184//184 185//185 181//181
f 185//185 186//186 181//181
f 186//186 187//187 181//181
f 187//187 188//188 181//181
f 188//188 189//189 181//181
f 181//181 189//189 190//190
f 181//181 190//190 191//191
f 192//192 181//181 191//191
f 193//193 181//181 192//192
f 194//194 181//181 193//193
f 195//195 181//181 194//194
f 195//195 196//196 181//181
f 196//196 197//197 198//198
f 196//196 198//198 199//199
f 199//199 200//200 196//196
f 196//196 200//200 201//201
f 201//201 202//202 196//196
f 196//196 202//202 203//203
f 196//196 203//203 204//204
f 205//205 196//196 206//206
f 207//207 196//196 205//205
