v 58.76673 -15.8244 130.6439
v 71.98672 -21.35917 121.7863
v 58.76673 -15.8244 130.6439
v 58.76673 -15.8244 130.6439
v 57.37314 -19.11262 130.6186
v 56.8157 -20.42791 130.6085
v 56.8157 -20.42791 130.6085
v 70.03571 -25.96268 121.7509
v 83.2557 -31.49746 112.8934
v 56.66908 -20.46681 130.414
v 81.93604 -31.84756 111.1425
v 56.65086 -20.47164 130.3898
v 81.77206 -31.89106 110.925
v 56.64574 -20.473 130.383
v 81.72601 -31.90327 110.8639
v 56.58825 -20.48825 130.3067
v 81.20858 -32.04055 110.1774
v 55.87941 -20.6763 129.3663
v 81.12982 -32.06144 110.0729
v 55.20734 -20.8546 128.4746
v 55.13002 -20.87511 128.3721
v 81.04655 -32.08353 109.9624
v 54.96877 -20.91789 128.1581
v 81.02864 -32.08829 109.9386
v 54.54113 -21.03134 127.5907
v 80.98112 -32.10089 109.8756
v 54.43022 -21.18807 127.5232
v 80.37043 -32.96394 109.5034
v 79.98298 -33.51149 109.2673
v 54.40271 -21.22696 127.5064
v 79.73532 -33.86148 109.1164
v 54.39452 -21.23853 127.5014
v 79.66162 -33.96564 109.0714
v 54.33263 -21.326 127.4637
v 79.10458 -34.75285 108.732
v 53.62255 -22.32949 127.0309
v 79.02569 -34.86435 108.6839
v 53.03592 -23.15853 126.6734
v 78.96051 -34.95647 108.6442
v 52.45609 -23.97796 126.32
v 78.89608 -35.04752 108.6049
v 52.43528 -24.08794 126.3577
v 78.70885 -36.03727 108.9439
v 52.38867 -24.33434 126.4421
v 78.28937 -38.25487 109.7035
v 52.25864 -25.02175 126.6776
v 52.20664 -25.29667 126.7717
v 78.26915 -38.36179 109.7402
v 52.02932 -26.23406 127.0928
v 78.24944 -38.46595 109.7758
v 51.88331 -27.00591 127.3572
v 78.23322 -38.55171 109.8052
v 51.78196 -27.54169 127.5407
v 78.22196 -38.61124 109.8256
v 78.22196 -38.61124 109.8256
v 51.84922 -27.6661 127.7189
v 78.8273 -39.73091 111.4287
v 51.86902 -27.70271 127.7713
v 79.00548 -40.06047 111.9006
v 51.87104 -27.70645 127.7767
v 79.02367 -40.09411 111.9488
v 51.87198 -27.70818 127.7791
v 79.0321 -40.10972 111.9711
v 51.87316 -27.71038 127.7823
v 79.04276 -40.12943 111.9993
v 51.89513 -27.75101 127.8405
v 79.24049 -40.49516 112.5229
v 52.91365 -29.63492 130.5378
v 79.35365 -40.70448 112.8227
v 52.91366 -29.63493 130.5378
v 79.35365 -40.70448 112.8227
v 52.91366 -29.63493 130.5378
v 52.91366 -29.63493 130.5378
v 52.35622 -30.95021 130.5277
v 50.96263 -34.23843 130.5025
v 50.96263 -34.23843 130.5025
v 50.96263 -34.23843 130.5025
v 52.91366 -29.63493 130.5378
v 52.91366 -29.63493 130.5378
v 52.91366 -29.63493 130.5378
v 79.35365 -40.70448 112.8227
v 79.35365 -40.70448 112.8227
v 79.35365 -40.70448 112.8227
v 52.91366 -29.63493 130.5378
v 48.69925 -30.05196 124.5084
v 52.91366 -29.63493 130.5378
v 79.35365 -40.70448 112.8227
v 52.91366 -29.63493 130.5378
v 66.13366 -35.1697 121.6802
v 79.35365 -40.70448 112.8227
v 64.18263 -39.77321 121.6449
v 79.35364 -40.70448 112.8227
v 79.35365 -40.70448 112.8227
v 78.79622 -42.01977 112.8126
v 75.13924 -41.12151 106.7932
v 79.35365 -40.70448 112.8227
v 48.69925 -30.05196 124.5084
v 77.40263 -45.30799 112.7873
v 75.13924 -41.12151 106.7932
v 78.22196 -38.61124 109.8256
v 78.22196 -38.61124 109.8256
v 71.98672 -21.35917 121.7863
v 58.76673 -15.8244 130.6439
v 58.76673 -15.8244 130.6439
v 57.37314 -19.11262 130.6186
v 70.03571 -25.96268 121.7509
v 56.8157 -20.42791 130.6085
v 84.06384 -29.59062 112.908
v 85.20673 -26.89395 112.9287
v 83.2557 -31.49746 112.8934
v 58.76673 -15.8244 130.6439
v 54.21758 -17.03127 124.6083
v 50.04749 -22.92451 122.0669
v 54.54113 -21.03134 127.5907
v 54.96877 -20.91789 128.1581
v 55.13002 -20.87511 128.3721
v 55.20734 -20.8546 128.4746
v 55.87941 -20.6763 129.3663
v 56.58825 -20.48825 130.3067
v 56.64574 -20.473 130.383
v 56.65086 -20.47164 130.3898
v 56.66908 -20.46681 130.414
v 56.8157 -20.42791 130.6085
v 54.43022 -21.18807 127.5232
v 54.40271 -21.22696 127.5064
v 54.39452 -21.23853 127.5014
v 54.33263 -21.326 127.4637
v 53.62255 -22.32949 127.0309
v 53.03592 -23.15853 126.6734
v 52.45609 -23.97796 126.32
v 52.43528 -24.08794 126.3577
v 52.38867 -24.33434 126.4421
v 52.25864 -25.02175 126.6776
v 48.69925 -30.05196 124.5084
v 52.20664 -25.29667 126.7717
v 52.02932 -26.23406 127.0928
v 51.88331 -27.00591 127.3572
v 51.78196 -27.54169 127.5407
v 51.84922 -27.6661 127.7189
v 51.86902 -27.70271 127.7713
v 51.87104 -27.70645 127.7767
v 51.87198 -27.70818 127.7791
v 51.87316 -27.71038 127.7823
v 51.89513 -27.75101 127.8405
v 52.91365 -29.63492 130.5378
v 52.91366 -29.63493 130.5378
v 52.91366 -29.63493 130.5378
v 50.96263 -34.23843 130.5025
v 58.76673 -15.8244 130.6439
v 80.65757 -28.10081 106.8932
v 54.21758 -17.03127 124.6083
v 71.98672 -21.35917 121.7863
v 76.48749 -33.99406 104.3518
v 50.04749 -22.92451 122.0669
v 75.13924 -41.12151 106.7932
v 48.69925 -30.05196 124.5084
v 85.20673 -26.89395 112.9287
v 50.96263 -34.23843 130.5025
v 66.13366 -35.1697 121.6802
v 52.91366 -29.63493 130.5378
v 64.18263 -39.77321 121.6449
v 79.35364 -40.70448 112.8227
v 77.40263 -45.30799 112.7873
v 78.79622 -42.01977 112.8126
v 79.35365 -40.70448 112.8227
v 83.2557 -31.49746 112.8934
v 80.65757 -28.10081 106.8932
v 84.06384 -29.59062 112.908
v 80.65757 -28.10081 106.8932
v 85.20673 -26.89395 112.9287
v 83.2557 -31.49746 112.8934
v 81.93604 -31.84756 111.1425
v 83.2557 -31.49746 112.8934
v 81.77206 -31.89106 110.925
v 81.72601 -31.90327 110.8639
v 81.20858 -32.04055 110.1774
v 81.12982 -32.06144 110.0729
v 81.04655 -32.08353 109.9624
v 81.02864 -32.08829 109.9386
v 80.98112 -32.10089 109.8756
v 76.48749 -33.99406 104.3518
v 80.37043 -32.96394 109.5034
v 79.98298 -33.51149 109.2673
v 79.73532 -33.86148 109.1164
v 79.66162 -33.96564 109.0714
v 79.10458 -34.75285 108.732
v 79.02569 -34.86435 108.6839
v 78.96051 -34.95647 108.6442
v 78.89608 -35.04752 108.6049
v 78.70885 -36.03727 108.9439
v 78.28937 -38.25487 109.7035
v 78.26915 -38.36179 109.7402
v 78.24944 -38.46595 109.7758
v 78.23322 -38.55171 109.8052
v 78.22196 -38.61124 109.8256
v 75.13924 -41.12151 106.7932
v 78.22196 -38.61124 109.8256
v 78.8273 -39.73091 111.4287
v 79.00548 -40.06047 111.9006
v 79.02367 -40.09411 111.9488
v 79.0321 -40.10972 111.9711
v 79.04276 -40.12943 111.9993
v 79.24049 -40.49516 112.5229
v 79.35365 -40.70448 112.8227
v 78.79622 -42.01977 112.8126
v 79.35365 -40.70448 112.8227
v 77.40263 -45.30799 112.7873

vn 0.3902041 0.9207013 0.007070465
vn 0.3902042 0.9207013 0.007070384
vn -0.2143832 0.9128401 0.3475093
vn -0.7846578 0.3285104 0.525731
vn -0.7846578 0.3285104 0.525731
vn -0.1761533 -0.9312439 0.3189906
vn -0.4972498 -0.8649895 0.06735025
vn 0.3751817 -0.4234658 0.8245698
vn -0.1761558 -0.9312447 0.3189868
vn -0.1761564 -0.9312449 0.3189861
vn -0.1761561 -0.9312448 0.3189864
vn -0.1761554 -0.9312447 0.3189872
vn -0.1761547 -0.9312444 0.3189879
vn -0.1761587 -0.9312452 0.3189837
vn -0.1761568 -0.9312449 0.3189857
vn -0.1761564 -0.9312448 0.3189861
vn -0.1761566 -0.9312449 0.318986
vn -0.1761566 -0.9312449 0.3189859
vn -0.1761564 -0.9312448 0.3189862
vn -0.1761566 -0.9312449 0.3189859
vn -0.1761559 -0.9312447 0.3189868
vn -0.1761549 -0.9312444 0.318988
vn -0.1761563 -0.9312447 0.3189864
vn -0.1761568 -0.9312449 0.3189857
vn -0.08449007 -0.8968069 0.4342799
vn 0.2731938 -0.5780241 0.7689299
vn 0.2957265 -0.546988 0.7831667
vn 0.295726 -0.5469885 0.7831664
vn 0.2957258 -0.5469888 0.7831663
vn 0.2957246 -0.5469904 0.7831658
vn 0.2957238 -0.5469913 0.7831653
vn 0.2957227 -0.5469925 0.7831649
vn 0.2957245 -0.5469905 0.7831657
vn 0.2957252 -0.5469896 0.7831659
vn 0.2957256 -0.5469892 0.7831662
vn 0.2957257 -0.5469891 0.7831661
vn 0.295725 -0.5469899 0.7831658
vn 0.2957254 -0.5469895 0.7831661
vn 0.2957261 -0.5469885 0.7831664
vn 0.3309455 -0.4951234 0.803323
vn 0.5814573 0.09589952 0.8079052
vn 0.5943745 0.1576831 0.7885779
vn 0.5943747 0.1576841 0.7885775
vn 0.5943749 0.1576848 0.7885773
vn 0.5943748 0.1576848 0.7885773
vn 0.5943747 0.1576844 0.7885774
vn 0.5943745 0.1576839 0.7885776
vn 0.5943747 0.1576843 0.7885775
vn 0.5943746 0.157684 0.7885777
vn 0.5943746 0.1576843 0.7885775
vn 0.5943747 0.1576843 0.7885776
vn 0.5943745 0.1576838 0.7885776
vn 0.6174334 0.3381083 0.7102526
vn 0.5943704 0.1576622 0.7885851
vn 0.5448477 0.769989 0.3320512
vn 0.5448473 0.7699897 0.3320501
vn 0.5448472 0.76999 0.3320498
vn 0.5448469 0.7699905 0.3320488
vn 0.5448474 0.7699896 0.3320505
vn 0.5448477 0.7699888 0.332052
vn 0.5448482 0.7699873 0.3320542
vn 0.5448572 0.7699644 0.3320926
vn 0.5448517 0.7699788 0.3320685
vn 0.5448459 0.7699932 0.3320444
vn 0.5448468 0.7699912 0.3320479
vn 0.5448473 0.7699896 0.3320503
vn 0.5448475 0.7699893 0.3320508
vn 0.5448476 0.7699892 0.332051
vn 0.5448492 0.7699865 0.3320549
vn 0.5866873 0.6674791 0.4585519
vn 0.3902043 0.9207012 0.007070284
vn 0.3902043 0.9207012 0.007070284
vn 0.3902043 0.9207012 0.007070284
vn -0.7846578 0.3285104 0.525731
vn -0.5448473 -0.7699896 -0.3320506
vn -0.7846578 0.3285104 0.525731
vn 0.4269222 -0.3285582 0.8424886
vn -0.3432241 0.8477589 0.4043537
vn -0.4284785 0.7900972 0.4383522
vn 0.3334691 0.9417148 0.04440508
vn 0.3902043 0.9207012 0.007070284
vn 0.3902043 0.9207012 0.007070284
vn 0.3902043 0.9207012 0.007070284
vn 0.307307 0.9496415 0.06118438
vn -0.7846578 0.3285104 0.525731
vn 0.3802396 0.9247862 0.01373203
vn 0.3902043 0.9207012 0.007070284
vn 0.2753152 0.9579061 0.0813488
vn 0.3902012 0.9207026 0.007064645
vn 0.4366096 0.8993171 -0.02451364
vn -0.5448473 -0.7699895 -0.3320505
vn 0.390193 0.9207062 0.00705017
vn 0.7846605 -0.328504 -0.525731
vn 0.7846578 -0.3285104 -0.525731
vn 0.7846576 -0.3285103 -0.5257314
vn 0 0 0
vn -0.5448474 -0.7699896 -0.3320506
vn -0.5448474 -0.7699896 -0.3320506
vn -0.5448474 -0.7699896 -0.3320506
vn 0.7846576 -0.3285103 -0.5257314
vn 0.7846576 -0.3285103 -0.5257314
vn 0.4817186 -0.2106903 0.8506214
vn 0.4817186 -0.2106903 0.8506213
vn 0.4817186 -0.2106903 0.8506214
vn 0.4817186 -0.2106903 0.8506214
vn 0.4817186 -0.2106903 0.8506214
vn 0.4817186 -0.2106903 0.8506214
vn 0.4817186 -0.2106903 0.8506214
vn 0.4817186 -0.2106903 0.8506214
vn 0.4817186 -0.2106903 0.8506214
vn -0.7846578 0.3285104 0.525731
vn -0.7846578 0.3285104 0.525731
vn -0.7846578 0.3285104 0.525731
vn -0.7846578 0.3285104 0.525731
vn -0.7846578 0.3285104 0.525731
vn -0.7846578 0.3285104 0.525731
vn -0.7846578 0.3285104 0.525731
vn -0.7846578 0.3285104 0.525731
vn -0.7846578 0.3285104 0.525731
vn -0.7846578 0.3285104 0.525731
vn -0.7846578 0.3285104 0.525731
vn -0.7846578 0.3285104 0.525731
vn -0.7846578 0.3285104 0.525731
vn -0.7846577 0.3285104 0.525731
vn -0.7846578 0.3285104 0.525731
vn -0.7846578 0.3285104 0.525731
vn -0.7846577 0.3285104 0.525731
vn -0.7846578 0.3285104 0.525731
vn -0.7846578 0.3285104 0.525731
vn -0.7846578 0.3285104 0.525731
vn -0.7846577 0.3285104 0.525731
vn -0.7846578 0.3285104 0.525731
vn -0.7846578 0.3285104 0.525731
vn -0.7846578 0.3285104 0.525731
vn -0.7846578 0.3285104 0.525731
vn -0.7846578 0.3285104 0.525731
vn -0.7846578 0.3285104 0.525731
vn -0.7846578 0.3285104 0.525731
vn -0.7846578 0.3285104 0.525731
vn -0.7846578 0.3285104 0.525731
vn -0.7846578 0.3285104 0.525731
vn -0.7846577 0.3285104 0.525731
vn -0.7846578 0.3285104 0.525731
vn -0.7846577 0.3285104 0.525731
vn -0.7846577 0.3285104 0.525731
vn -0.7846578 0.3285104 0.525731
vn -0.7846577 0.3285104 0.525731
vn -0.7846577 0.3285104 0.525731
vn 0.1761561 0.9312449 -0.3189864
vn 0.02022449 0.8611641 -0.5079247
vn -0.1484291 0.7238286 -0.6738256
vn 0.1761561 0.9312447 -0.3189864
vn -0.423822 0.3346379 -0.8416606
vn -0.5305613 0.08278274 -0.8435946
vn -0.5943747 -0.1576844 -0.7885774
vn -0.5943747 -0.1576844 -0.7885775
vn 0.1761562 0.9312447 -0.3189864
vn 0.4817186 -0.2106903 0.8506214
vn 0.4817186 -0.2106903 0.8506214
vn 0.4817186 -0.2106903 0.8506214
vn 0.4817186 -0.2106903 0.8506214
vn 0.4817186 -0.2106903 0.8506214
vn 0.4817186 -0.2106903 0.8506214
vn 0.4817186 -0.2106903 0.8506214
vn 0.4817186 -0.2106903 0.8506213
vn -0.2229647 -0.9681915 -0.1135432
vn 0.7846581 -0.3285097 -0.525731
vn 0.7846576 -0.3285103 -0.5257311
vn 0.7846577 -0.3285103 -0.5257312
vn 0.7846577 -0.3285103 -0.5257312
vn 0.7846577 -0.3285103 -0.5257312
vn 0.7846578 -0.3285101 -0.5257311
vn 0.7846578 -0.3285101 -0.5257311
vn 0.7846578 -0.3285101 -0.5257311
vn 0.7846578 -0.3285101 -0.5257311
vn 0.7846578 -0.3285101 -0.5257311
vn 0.7846578 -0.3285101 -0.5257311
vn 0.7846578 -0.3285101 -0.5257311
vn 0.7846578 -0.3285101 -0.5257311
vn 0.7846577 -0.3285102 -0.5257313
vn 0.7846577 -0.3285103 -0.5257313
vn 0.7846577 -0.3285102 -0.5257313
vn 0.7846577 -0.3285102 -0.5257313
vn 0.7846577 -0.3285102 -0.5257313
vn 0.7846577 -0.3285102 -0.5257313
vn 0.7846577 -0.3285102 -0.5257313
vn 0.7846577 -0.3285102 -0.5257313
vn 0.7846577 -0.3285102 -0.5257313
vn 0.7846576 -0.3285104 -0.5257313
vn 0.7846576 -0.3285105 -0.5257313
vn 0.7846576 -0.3285105 -0.5257313
vn 0.7846576 -0.3285105 -0.5257313
vn 0.7846576 -0.3285105 -0.5257313
vn 0.7846576 -0.3285105 -0.5257313
vn 0.7846576 -0.3285105 -0.5257313
vn 0.7846576 -0.3285105 -0.5257312
vn 0.7846576 -0.3285107 -0.5257311
vn 0.7846576 -0.3285107 -0.5257311
vn 0.7846576 -0.3285107 -0.5257311
vn 0.7846576 -0.3285107 -0.5257311
vn 0.7846576 -0.3285107 -0.5257311
vn 0.7846576 -0.3285107 -0.5257311
vn 0.7846576 -0.3285107 -0.5257311
vn 0.7846575 -0.3285106 -0.5257311
vn 0.7846577 -0.3285103 -0.5257312
vn 0.7846577 -0.3285103 -0.5257312
vn 0.7846576 -0.3285103 -0.5257311

f 1//1 2//2 3//3
f 4//4 1//1 3//3
f 3//3 5//5 4//4
f 3//3 6//6 5//5
f 5//5 6//6 7//7
f 8//8 7//7 6//6
f 9//9 8//8 6//6
f 10//10 9//9 6//6
f 9//9 10//10 11//11
f 11//11 10//10 12//12
f 13//13 11//11 12//12
f 13//13 12//12 14//14
f 13//13 14//14 15//15
f 15//15 14//14 16//16
f 15//15 16//16 17//17
f 18//18 17//17 16//16
f 19//19 17//17 18//18
f 19//19 18//18 20//20
f 21//21 19//19 20//20
f 22//22 19//19 21//21
f 22//22 21//21 23//23
f 24//24 22//22 23//23
f 24//24 23//23 25//25
f 26//26 24//24 25//25
f 26//26 25//25 27//27
f 28//28 26//26 27//27
f 28//28 27//27 29//29
f 29//29 27//27 30//30
f 31//31 29//29 30//30
f 31//31 30//30 32//32
f 33//33 31//31 32//32
f 33//33 32//32 34//34
f 35//35 33//33 34//34
f 35//35 34//34 36//36
f 37//37 35//35 36//36
f 37//37 36//36 38//38
f 39//39 37//37 38//38
f 39//39 38//38 40//40
f 41//41 39//39 40//40
f 41//41 40//40 42//42
f 41//41 42//42 43//43
f 43//43 42//42 44//44
f 45//45 43//43 44//44
f 45//45 44//44 46//46
f 47//47 45//45 46//46
f 48//48 45//45 47//47
f 48//48 47//47 49//49
f 50//50 48//48 49//49
f 50//50 49//49 51//51
f 52//52 50//50 51//51
f 52//52 51//51 53//53
f 54//54 52//52 53//53
f 55//55 54//54 53//53
f 55//55 53//53 56//56
f 55//55 56//56 57//57
f 57//57 56//56 58//58
f 57//57 58//58 59//59
f 59//59 58//58 60//60
f 59//59 60//60 61//61
f 61//61 60//60 62//62
f 61//61 62//62 63//63
f 63//63 62//62 64//64
f 63//63 64//64 65//65
f 65//65 64//64 66//66
f 65//65 66//66 67//67
f 68//68 67//67 66//66
f 69//69 67//67 68//68
f 69//69 68//68 70//70
f 71//71 69//69 70//70
f 72//72 71//71 73//73
f 74//74 75//75 76//76
f 77//77 74//74 76//76
f 75//75 77//77 76//76
f 78//78 75//75 74//74
f 79//79 75//75 78//78
f 78//78 74//74 80//80
f 81//81 78//78 80//80
f 82//82 78//78 81//81
f 82//82 83//83 78//78
f 83//83 84//84 79//79
f 84//84 85//85 79//79
f 80//80 74//74 86//86
f 87//87 80//80 86//86
f 81//81 80//80 87//87
f 86//86 74//74 88//88
f 88//88 74//74 77//77
f 86//86 88//88 89//89
f 90//90 86//86 89//89
f 87//87 86//86 90//90
f 75//75 91//91 77//77
f 90//90 89//89 92//92
f 90//90 92//92 93//93
f 94//94 90//90 93//93
f 95//95 83//83 82//82
f 95//95 82//82 81//81
f 95//95 81//81 87//87
f 95//95 87//87 90//90
f 95//95 96//96 83//83
f 97//97 91//91 75//75
f 97//97 98//98 91//91
f 97//97 99//99 98//98
f 100//100 95//95 101//101
f 102//102 103//103 104//104
f 102//102 104//104 105//105
f 102//102 105//105 106//106
f 106//106 105//105 107//107
f 108//108 102//102 106//106
f 109//109 102//102 108//108
f 110//110 108//108 106//106
f 111//111 112//112 113//113
f 111//111 113//113 114//114
f 111//111 114//114 115//115
f 111//111 115//115 116//116
f 111//111 116//116 117//117
f 117//117 118//118 111//111
f 118//118 119//119 111//111
f 120//120 111//111 119//119
f 120//120 121//121 111//111
f 121//121 122//122 111//111
f 111//111 122//122 123//123
f 114//114 113//113 124//124
f 124//124 113//113 125//125
f 125//125 113//113 126//126
f 126//126 113//113 127//127
f 127//127 113//113 128//128
f 128//128 113//113 129//129
f 129//129 113//113 130//130
f 130//130 113//113 131//131
f 131//131 113//113 132//132
f 132//132 113//113 133//133
f 133//133 113//113 134//134
f 133//133 134//134 135//135
f 135//135 134//134 136//136
f 134//134 137//137 136//136
f 137//137 134//134 138//138
f 138//138 134//134 139//139
f 139//139 134//134 140//140
f 140//140 134//134 141//141
f 134//134 142//142 141//141
f 134//134 143//143 142//142
f 134//134 144//144 143//143
f 144//144 134//134 145//145
f 145//145 134//134 146//146
f 147//147 134//134 148//148
f 149//149 150//150 151//151
f 149//149 152//152 150//150
f 151//151 150//150 153//153
f 151//151 153//153 154//154
f 154//154 153//153 155//155
f 154//154 155//155 156//156
f 152//152 157//157 150//150
f 158//158 159//159 160//160
f 161//161 159//159 158//158
f 162//162 159//159 161//161
f 163//163 162//162 161//161
f 164//164 162//162 163//163
f 165//165 162//162 164//164
f 9//9 166//166 8//8
f 166//166 9//9 167//167
f 168//168 169//169 170//170
f 168//168 171//171 169//169
f 172//172 169//169 173//173
f 174//174 169//169 172//172
f 169//169 174//174 175//175
f 176//176 169//169 175//175
f 177//177 169//169 176//176
f 178//178 169//169 177//177
f 178//178 179//179 169//169
f 179//179 180//180 169//169
f 180//180 181//181 169//169
f 182//182 181//181 180//180
f 182//182 183//183 181//181
f 183//183 184//184 181//181
f 184//184 185//185 181//181
f 185//185 186//186 181//181
f 186//186 187//187 181//181
f 187//187 188//188 181//181
f 188//188 189//189 181//181
f 181//181 189//189 190//190
f 181//181 190//190 191//191
f 192//192 181//181 191//191
f 193//193 181//181 192//192
f 194//194 181//181 193//193
f 195//195 181//181 194//194
f 195//195 196//196 181//181
f 196//196 197//197 198//198
f 196//196 198//198 199//199
f 199//199 200//200 196//196
f 196//196 200//200 201//201
f 201//201 202//202 196//196
f 196//196 202//202 203//203
f 196//196 203//203 204//204
f 205//205 196//196 206//206
f 207//207 196//196 205//205
