v 44.41208 113.2345 -75.51322
v 27.08778 109.1448 -86.51452
v 44.41208 113.2345 -75.51322
v 44.41208 113.2345 -75.51322
v 46.22816 110.8879 -77.50076
v 46.9546 109.9493 -78.29577
v 46.9546 109.9493 -78.29577
v 29.6303 105.8596 -89.29707
v 12.30601 101.7699 -100.2984
v 46.94867 109.7213 -78.20168
v 12.25259 99.71815 -99.45153
v 46.94793 109.693 -78.18999
v 12.24596 99.4632 -99.34631
v 46.94772 109.685 -78.1867
v 12.24409 99.39162 -99.31676
v 46.94539 109.5956 -78.14981
v 12.22315 98.58715 -98.98472
v 46.9167 108.4936 -77.69494
v 12.21996 98.4647 -98.93417
v 46.8895 107.4487 -77.26367
v 46.88637 107.3285 -77.21405
v 12.21659 98.33524 -98.88074
v 46.87984 107.0778 -77.11057
v 12.21587 98.30739 -98.86925
v 46.86253 106.4129 -76.83616
v 12.21394 98.23351 -98.83875
v 46.93972 106.2326 -76.8907
v 12.639 97.24081 -99.13908
v 12.90868 96.61101 -99.32963
v 46.95888 106.1879 -76.90424
v 13.08105 96.20844 -99.45142
v 46.96458 106.1746 -76.90826
v 13.13235 96.08864 -99.48766
v 47.00766 106.074 -76.9387
v 13.52006 95.18317 -99.7616
v 47.50188 104.9198 -77.2879
v 13.57497 95.05492 -99.80041
v 47.91019 103.9662 -77.57639
v 13.62034 94.94897 -99.83246
v 48.31377 103.0236 -77.86155
v 13.66518 94.84425 -99.86414
v 48.37995 102.9849 -77.95134
v 14.26076 94.49519 -100.6723
v 48.52822 102.898 -78.15252
v 15.59517 93.71312 -102.4829
v 48.94186 102.6555 -78.71379
v 49.10729 102.5586 -78.93825
v 15.65952 93.67541 -102.5702
v 49.67136 102.228 -79.70362
v 15.72219 93.63867 -102.6552
v 50.13581 101.9558 -80.33382
v 15.77379 93.60843 -102.7253
v 50.45821 101.7668 -80.77128
v 15.80962 93.58743 -102.7739
v 15.80962 93.58743 -102.7739
v 50.5522 101.8626 -80.9549
v 16.65553 94.44962 -104.4265
v 50.57986 101.8908 -81.00895
v 16.90451 94.7034 -104.9129
v 50.58269 101.8937 -81.01447
v 16.92993 94.72931 -104.9626
v 50.58399 101.8951 -81.01703
v 16.94172 94.74133 -104.9856
v 50.58565 101.8967 -81.02026
v 16.95661 94.75651 -105.0147
v 50.61635 101.928 -81.08024
v 17.23292 95.03812 -105.5545
v 52.03965 103.3787 -83.86086
v 17.39106 95.19931 -105.8635
v 52.03965 103.3787 -83.86087
v 17.39106 95.19931 -105.8635
v 52.03965 103.3787 -83.86087
v 52.03965 103.3787 -83.86087
v 52.76609 102.4401 -84.65588
v 54.58218 100.0934 -86.64342
v 54.58218 100.0934 -86.64342
v 54.58218 100.0934 -86.64342
v 52.03965 103.3787 -83.86087
v 52.03965 103.3787 -83.86087
v 52.03965 103.3787 -83.86087
v 17.39106 95.19931 -105.8635
v 17.39106 95.19931 -105.8635
v 17.39106 95.19931 -105.8635
v 52.03965 103.3787 -83.86087
v 51.41929 96.86969 -80.46424
v 52.03965 103.3787 -83.86087
v 17.39106 95.19931 -105.8635
v 52.03965 103.3787 -83.86087
v 34.71535 99.28902 -94.86217
v 17.39106 95.19931 -105.8635
v 37.25788 96.00375 -97.64471
v 17.39108 95.19932 -105.8635
v 17.39106 95.19931 -105.8635
v 18.1175 94.26067 -106.6585
v 16.7707 88.69028 -102.4668
v 17.39106 95.19931 -105.8635
v 51.41929 96.86969 -80.46424
v 19.93358 91.91405 -108.646
v 16.7707 88.69028 -102.4668
v 15.80962 93.58743 -102.7739
v 15.80962 93.58743 -102.7739
v 27.08778 109.1448 -86.51452
v 44.41208 113.2345 -75.51322
v 44.41208 113.2345 -75.51322
v 46.22816 110.8879 -77.50076
v 29.6303 105.8596 -89.29707
v 46.9546 109.9493 -78.29577
v 11.25286 103.1307 -99.1458
v 9.763485 105.0551 -97.51582
v 12.30601 101.7699 -100.2984
v 44.41208 113.2345 -75.51322
v 44.22794 106.1618 -72.594
v 47.13042 99.3833 -74.64478
v 46.86253 106.4129 -76.83616
v 46.87984 107.0778 -77.11057
v 46.88637 107.3285 -77.21405
v 46.8895 107.4487 -77.26367
v 46.9167 108.4936 -77.69494
v 46.94539 109.5956 -78.14981
v 46.94772 109.685 -78.1867
v 46.94793 109.693 -78.18999
v 46.94867 109.7213 -78.20168
v 46.9546 109.9493 -78.29577
v 46.93972 106.2326 -76.8907
v 46.95888 106.1879 -76.90424
v 46.96458 106.1746 -76.90826
v 47.00766 106.074 -76.9387
v 47.50188 104.9198 -77.2879
v 47.91019 103.9662 -77.57639
v 48.31377 103.0236 -77.86155
v 48.37995 102.9849 -77.95134
v 48.52822 102.898 -78.15252
v 48.94186 102.6555 -78.71379
v 51.41929 96.86969 -80.46424
v 49.10729 102.5586 -78.93825
v 49.67136 102.228 -79.70362
v 50.13581 101.9558 -80.33382
v 50.45821 101.7668 -80.77128
v 50.5522 101.8626 -80.9549
v 50.57986 101.8908 -81.00895
v 50.58269 101.8937 -81.01447
v 50.58399 101.8951 -81.01703
v 50.58565 101.8967 -81.02026
v 50.61635 101.928 -81.08024
v 52.03965 103.3787 -83.86086
v 52.03965 103.3787 -83.86087
v 52.03965 103.3787 -83.86087
v 54.58218 100.0934 -86.64342
v 44.41208 113.2345 -75.51322
v 9.579353 97.98244 -94.5966
v 44.22794 106.1618 -72.594
v 27.08778 109.1448 -86.51452
v 12.48184 91.2039 -96.64738
v 47.13042 99.3833 -74.64478
v 16.7707 88.69028 -102.4668
v 51.41929 96.86969 -80.46424
v 9.763485 105.0551 -97.51582
v 54.58218 100.0934 -86.64342
v 34.71535 99.28902 -94.86217
v 52.03965 103.3787 -83.86087
v 37.25788 96.00375 -97.64471
v 17.39108 95.19932 -105.8635
v 19.93358 91.91405 -108.646
v 18.1175 94.26067 -106.6585
v 17.39106 95.19931 -105.8635
v 12.30601 101.7699 -100.2984
v 9.579353 97.98244 -94.5966
v 11.25286 103.1307 -99.1458
v 9.579353 97.98244 -94.5966
v 9.763485 105.0551 -97.51582
v 12.30601 101.7699 -100.2984
v 12.25259 99.71815 -99.45153
v 12.30601 101.7699 -100.2984
v 12.24596 99.4632 -99.34631
v 12.24409 99.39162 -99.31676
v 12.22315 98.58715 -98.98472
v 12.21996 98.4647 -98.93417
v 12.21659 98.33524 -98.88074
v 12.21587 98.30739 -98.86925
v 12.21394 98.23351 -98.83875
v 12.48184 91.2039 -96.64738
v 12.639 97.24081 -99.13908
v 12.90868 96.61101 -99.32963
v 13.08105 96.20844 -99.45142
v 13.13235 96.08864 -99.48766
v 13.52006 95.18317 -99.7616
v 13.57497 95.05492 -99.80041
v 13.62034 94.94897 -99.83246
v 13.66518 94.84425 -99.86414
v 14.26076 94.49519 -100.6723
v 15.59517 93.71312 -102.4829
v 15.65952 93.67541 -102.5702
v 15.72219 93.63867 -102.6552
v 15.77379 93.60843 -102.7253
v 15.80962 93.58743 -102.7739
v 16.7707 88.69028 -102.4668
v 15.80962 93.58743 -102.7739
v 16.65553 94.44962 -104.4265
v 16.90451 94.7034 -104.9129
v 16.92993 94.72931 -104.9626
v 16.94172 94.74133 -104.9856
v 16.95661 94.75651 -105.0147
v 17.23292 95.03812 -105.5545
v 17.39106 95.19931 -105.8635
v 18.1175 94.26067 -106.6585
v 17.39106 95.19931 -105.8635
v 19.93358 91.91405 -108.646

vn -0.5085043 0.6570542 0.5565099
vn -0.5085044 0.6570541 0.5565098
vn 0.1527014 0.6260627 0.764675
vn 0.827895 0.1954391 0.5257313
vn 0.827895 0.1954391 0.5257313
vn 0.5603669 -0.3284146 -0.7603505
vn 0.6204758 -0.6228113 -0.4765671
vn 0.3507393 0.5510542 -0.7571797
vn 0.5603665 -0.3284189 -0.7603488
vn 0.5603666 -0.3284197 -0.7603486
vn 0.5603666 -0.3284194 -0.7603486
vn 0.5603665 -0.3284185 -0.7603491
vn 0.5603665 -0.3284175 -0.7603495
vn 0.5603668 -0.3284227 -0.760347
vn 0.5603666 -0.3284202 -0.7603482
vn 0.5603666 -0.3284197 -0.7603484
vn 0.5603667 -0.3284199 -0.7603484
vn 0.5603666 -0.3284199 -0.7603483
vn 0.5603666 -0.3284197 -0.7603484
vn 0.5603666 -0.32842 -0.7603484
vn 0.5603666 -0.3284189 -0.7603488
vn 0.5603666 -0.3284175 -0.7603493
vn 0.5603666 -0.3284194 -0.7603484
vn 0.5603667 -0.3284203 -0.7603482
vn 0.5575846 -0.1852793 -0.8091793
vn 0.4284153 0.3846282 -0.8176316
vn 0.41325 0.4212057 -0.8073477
vn 0.4132503 0.4212049 -0.8073478
vn 0.4132505 0.4212046 -0.807348
vn 0.4132514 0.4212028 -0.8073485
vn 0.4132519 0.4212017 -0.8073487
vn 0.4132528 0.4212002 -0.807349
vn 0.4132515 0.4212027 -0.8073485
vn 0.4132508 0.4212037 -0.8073482
vn 0.4132507 0.4212042 -0.8073482
vn 0.4132505 0.4212042 -0.8073481
vn 0.413251 0.4212032 -0.8073483
vn 0.4132508 0.4212039 -0.8073483
vn 0.4132503 0.4212049 -0.8073479
vn 0.3873942 0.4785837 -0.7879615
vn 0.06097765 0.9004093 -0.4307493
vn 0.0240592 0.9240906 -0.3814153
vn 0.02405858 0.924091 -0.3814146
vn 0.02405815 0.9240912 -0.3814141
vn 0.02405818 0.9240912 -0.381414
vn 0.02405843 0.924091 -0.3814143
vn 0.02405885 0.9240909 -0.3814147
vn 0.02405854 0.924091 -0.3814144
vn 0.02405876 0.924091 -0.3814147
vn 0.02405858 0.924091 -0.3814144
vn 0.0240586 0.9240911 -0.3814144
vn 0.02405885 0.9240909 -0.3814147
vn -0.08684204 0.9706901 -0.2240966
vn 0.02407189 0.9240832 -0.3814324
vn -0.379227 0.8856587 0.2679468
vn -0.3792275 0.8856581 0.2679478
vn -0.3792278 0.885658 0.2679482
vn -0.3792284 0.8856574 0.267949
vn -0.3792274 0.8856584 0.2679475
vn -0.3792265 0.8856592 0.2679464
vn -0.3792251 0.8856603 0.2679442
vn -0.3792017 0.8856804 0.2679107
vn -0.3792165 0.8856679 0.2679317
vn -0.379231 0.8856552 0.267953
vn -0.379229 0.885657 0.2679499
vn -0.3792275 0.8856582 0.2679477
vn -0.3792272 0.8856584 0.2679472
vn -0.3792271 0.8856586 0.267947
vn -0.3792251 0.8856607 0.2679429
vn -0.3046422 0.9437021 0.1289168
vn -0.5085046 0.6570541 0.5565097
vn -0.5085046 0.6570541 0.5565097
vn -0.5085046 0.6570541 0.5565097
vn 0.827895 0.1954391 0.5257313
vn 0.3792273 -0.8856584 -0.2679476
vn 0.827895 0.1954391 0.5257313
vn 0.3007483 0.6365027 -0.7102216
vn 0.2992697 0.5753433 0.7611949
vn 0.3975578 0.5316259 0.7478782
vn -0.4483984 0.6692793 0.592456
vn -0.5085046 0.6570541 0.5565097
vn -0.5085046 0.6570541 0.5565097
vn -0.5085046 0.6570541 0.5565097
vn -0.4205244 0.67369 0.6077014
vn 0.827895 0.1954391 0.5257313
vn -0.4979786 0.6594805 0.5631188
vn -0.5085046 0.6570541 0.5565097
vn -0.3863118 0.6780896 0.6252661
vn -0.5085061 0.6570492 0.556514
vn -0.5572969 0.6441296 0.5239439
vn 0.3792273 -0.8856583 -0.2679475
vn -0.5085101 0.6570369 0.5565249
vn -0.8278986 -0.1954345 -0.5257274
vn -0.827895 -0.1954391 -0.5257313
vn -0.8278952 -0.1954394 -0.525731
vn 0 0 0
vn 0.3792273 -0.8856584 -0.2679475
vn 0.3792273 -0.8856584 -0.2679475
vn 0.3792273 -0.8856584 -0.2679475
vn -0.8278952 -0.1954394 -0.525731
vn -0.8278952 -0.1954394 -0.525731
vn 0.23667 0.7280684 -0.6433536
vn 0.23667 0.7280683 -0.6433535
vn 0.23667 0.7280684 -0.6433536
vn 0.23667 0.7280684 -0.6433536
vn 0.23667 0.7280684 -0.6433536
vn 0.23667 0.7280684 -0.6433536
vn 0.23667 0.7280684 -0.6433536
vn 0.23667 0.7280684 -0.6433536
vn 0.23667 0.7280684 -0.6433536
vn 0.827895 0.1954391 0.5257313
vn 0.827895 0.1954391 0.5257313
vn 0.827895 0.1954391 0.5257313
vn 0.827895 0.1954391 0.5257313
vn 0.827895 0.1954391 0.5257313
vn 0.827895 0.1954391 0.5257313
vn 0.827895 0.1954391 0.5257313
vn 0.827895 0.1954391 0.5257313
vn 0.827895 0.1954391 0.5257313
vn 0.827895 0.1954391 0.5257313
vn 0.827895 0.1954391 0.5257313
vn 0.827895 0.1954391 0.5257313
vn 0.827895 0.1954391 0.5257313
vn 0.827895 0.1954391 0.5257312
vn 0.827895 0.1954391 0.5257313
vn 0.827895 0.1954391 0.5257313
vn 0.827895 0.1954391 0.5257312
vn 0.827895 0.1954391 0.5257313
vn 0.827895 0.1954391 0.5257313
vn 0.827895 0.1954391 0.5257313
vn 0.827895 0.1954391 0.5257312
vn 0.827895 0.1954391 0.5257313
vn 0.827895 0.1954391 0.5257313
vn 0.827895 0.1954391 0.5257313
vn 0.827895 0.1954391 0.5257313
vn 0.827895 0.1954391 0.5257313
vn 0.827895 0.1954391 0.5257313
vn 0.827895 0.1954391 0.5257313
vn 0.827895 0.1954391 0.5257313
vn 0.827895 0.1954391 0.5257313
vn 0.827895 0.1954391 0.5257313
vn 0.827895 0.1954391 0.5257312
vn 0.827895 0.1954391 0.5257313
vn 0.827895 0.1954391 0.5257312
vn 0.827895 0.1954391 0.5257312
vn 0.827895 0.1954391 0.5257313
vn 0.827895 0.1954391 0.5257312
vn 0.827895 0.1954391 0.5257312
vn -0.5603666 0.3284194 0.7603487
vn -0.5482562 0.08421744 0.8320592
vn -0.495676 -0.183703 0.8488572
vn -0.5603665 0.3284193 0.7603486
vn -0.3039959 -0.6313586 0.7134234
vn -0.164896 -0.8110939 0.5611917
vn -0.02405849 -0.924091 0.3814143
vn -0.02405851 -0.9240911 0.3814143
vn -0.5603666 0.3284194 0.7603486
vn 0.23667 0.7280684 -0.6433536
vn 0.23667 0.7280684 -0.6433536
vn 0.23667 0.7280684 -0.6433536
vn 0.23667 0.7280684 -0.6433536
vn 0.23667 0.7280684 -0.6433536
vn 0.23667 0.7280684 -0.6433536
vn 0.23667 0.7280684 -0.6433536
vn 0.23667 0.7280683 -0.6433535
vn 0.3300379 -0.6830358 -0.651565
vn -0.8278955 -0.1954386 -0.5257308
vn -0.827895 -0.1954392 -0.5257311
vn -0.8278952 -0.1954392 -0.525731
vn -0.8278951 -0.1954392 -0.5257311
vn -0.8278951 -0.1954392 -0.5257311
vn -0.8278952 -0.195439 -0.525731
vn -0.8278952 -0.195439 -0.525731
vn -0.8278952 -0.195439 -0.525731
vn -0.8278952 -0.195439 -0.525731
vn -0.8278952 -0.195439 -0.525731
vn -0.8278952 -0.195439 -0.525731
vn -0.8278952 -0.195439 -0.525731
vn -0.8278952 -0.195439 -0.525731
vn -0.8278952 -0.1954392 -0.525731
vn -0.8278951 -0.1954393 -0.5257311
vn -0.8278952 -0.1954392 -0.525731
vn -0.8278952 -0.1954392 -0.525731
vn -0.8278952 -0.1954392 -0.525731
vn -0.8278952 -0.1954392 -0.525731
vn -0.8278952 -0.1954392 -0.525731
vn -0.8278952 -0.1954392 -0.525731
vn -0.8278952 -0.1954392 -0.525731
vn -0.8278951 -0.1954394 -0.5257311
vn -0.827895 -0.1954394 -0.5257311
vn -0.827895 -0.1954394 -0.5257311
vn -0.827895 -0.1954394 -0.5257311
vn -0.827895 -0.1954394 -0.5257311
vn -0.827895 -0.1954394 -0.5257311
vn -0.827895 -0.1954394 -0.5257311
vn -0.827895 -0.1954393 -0.5257312
vn -0.8278949 -0.1954394 -0.5257313
vn -0.8278949 -0.1954394 -0.5257313
vn -0.8278949 -0.1954394 -0.5257313
vn -0.8278949 -0.1954394 -0.5257313
vn -0.8278949 -0.1954394 -0.5257313
vn -0.8278949 -0.1954394 -0.5257313
vn -0.8278949 -0.1954394 -0.5257313
vn -0.8278949 -0.1954394 -0.5257313
vn -0.8278951 -0.1954392 -0.5257311
vn -0.8278951 -0.1954392 -0.5257311
vn -0.827895 -0.1954392 -0.5257311

f 1//1 2//2 3//3
f 4//4 1//1 3//3
f 3//3 5//5 4//4
f 3//3 6//6 5//5
f 5//5 6//6 7//7
f 8//8 7//7 6//6
f 9//9 8//8 6//6
f 10//10 9//9 6//6
f 9//9 10//10 11//11
f 11//11 10//10 12//12
f 13//13 11//11 12//12
f 13//13 12//12 14//14
f 13//13 14//14 15//15
f 15//15 14//14 16//16
f 15//15 16//16 17//17
f 18//18 17//17 16//16
f 19//19 17//17 18//18
f 19//19 18//18 20//20
f 21//21 19//19 20//20
f 22//22 19//19 21//21
f 22//22 21//21 23//23
f 24//24 22//22 23//23
f 24//24 23//23 25//25
f 26//26 24//24 25//25
f 26//26 25//25 27//27
f 28//28 26//26 27//27
f 28//28 27//27 29//29
f 29//29 27//27 30//30
f 31//31 29//29 30//30
f 31//31 30//30 32//32
f 33//33 31//31 32//32
f 33//33 32//32 34//34
f 35//35 33//33 34//34
f 35//35 34//34 36//36
f 37//37 35//35 36//36
f 37//37 36//36 38//38
f 39//39 37//37 38//38
f 39//39 38//38 40//40
f 41//41 39//39 40//40
f 41//41 40//40 42//42
f 41//41 42//42 43//43
f 43//43 42//42 44//44
f 45//45 43//43 44//44
f 45//45 44//44 46//46
f 47//47 45//45 46//46
f 48//48 45//45 47//47
f 48//48 47//47 49//49
f 50//50 48//48 49//49
f 50//50 49//49 51//51
f 52//52 50//50 51//51
f 52//52 51//51 53//53
f 54//54 52//52 53//53
f 55//55 54//54 53//53
f 55//55 53//53 56//56
f 55//55 56//56 57//57
f 57//57 56//56 58//58
f 57//57 58//58 59//59
f 59//59 58//58 60//60
f 59//59 60//60 61//61
f 61//61 60//60 62//62
f 61//61 62//62 63//63
f 63//63 62//62 64//64
f 63//63 64//64 65//65
f 65//65 64//64 66//66
f 65//65 66//66 67//67
f 68//68 67//67 66//66
f 69//69 67//67 68//68
f 69//69 68//68 70//70
f 71//71 69//69 70//70
f 72//72 71//71 73//73
f 74//74 75//75 76//76
f 77//77 74//74 76//76
f 75//75 77//77 76//76
f 78//78 75//75 74//74
f 79//79 75//75 78//78
f 78//78 74//74 80//80
f 81//81 78//78 80//80
f 82//82 78//78 81//81
f 82//82 83//83 78//78
f 83//83 84//84 79//79
f 84//84 85//85 79//79
f 80//80 74//74 86//86
f 87//87 80//80 86//86
f 81//81 80//80 87//87
f 86//86 74//74 88//88
f 88//88 74//74 77//77
f 86//86 88//88 89//89
f 90//90 86//86 89//89
f 87//87 86//86 90//90
f 75//75 91//91 77//77
f 90//90 89//89 92//92
f 90//90 92//92 93//93
f 94//94 90//90 93//93
f 95//95 83//83 82//82
f 95//95 82//82 81//81
f 95//95 81//81 87//87
f 95//95 87//87 90//90
f 95//95 96//96 83//83
f 97//97 91//91 75//75
f 97//97 98//98 91//91
f 97//97 99//99 98//98
f 100//100 95//95 101//101
f 102//102 103//103 104//104
f 102//102 104//104 105//105
f 102//102 105//105 106//106
f 106//106 105//105 107//107
f 108//108 102//102 106//106
f 109//109 102//102 108//108
f 110//110 108//108 106//106
f 111//111 112//112 113//113
f 111//111 113//113 114//114
f 111//111 114//114 115//115
f 111//111 115//115 116//116
f 111//111 116//116 117//117
f 117//117 118//118 111//111
f 118//118 119//119 111//111
f 120//120 111//111 119//119
f 120//120 121//121 111//111
f 121//121 122//122 111//111
f 111//111 122//122 123//123
f 114//114 113//113 124//124
f 124//124 113//113 125//125
f 125//125 113//113 126//126
f 126//126 113//113 127//127
f 127//127 113//113 128//128
f 128//128 113//113 129//129
f 129//129 113//113 130//130
f 130//130 113//113 131//131
f 131//131 113//113 132//132
f 132//132 113//113 133//133
f 133//133 113//113 134//134
f 133//133 134//134 135//135
f 135//135 134//134 136//136
f 134//134 137//137 136//136
f 137//137 134//134 138//138
f 138//138 134//134 139//139
f 139//139 134//134 140//140
f 140//140 134//134 141//141
f 134//134 142//142 141//141
f 134//134 143//143 142//142
f 134//134 144//144 143//143
f 144//144 134//134 145//145
f 145//145 134//134 146//146
f 147//147 134//134 148//148
f 149//149 150//150 151//151
f 149//149 152//152 150//150
f 151//151 150//150 153//153
f 151//151 153//153 154//154
f 154//154 153//153 155//155
f 154//154 155//155 156//156
f 152//152 157//157 150//150
f 158//158 159//159 160//160
f 161//161 159//159 158//158
f 162//162 159//159 161//161
f 163//163 162//162 161//161
f 164//164 162//162 163//163
f 165//165 162//162 164//164
f 9//9 166//166 8//8
f 166//166 9//9 167//167
f 168//168 169//169 170//170
f 168//168 171//171 169//169
f 172//172 169//169 173//173
f 174//174 169//169 172//172
f 169//169 174//174 175//175
f 176//176 169//169 175//175
f 177//177 169//169 176//176
f 178//178 169//169 177//177
f 178//178 179//179 169//169
f 179//179 180//180 169//169
f 180//180 181//181 169//169
f 182//182 181//181 180//180
f 182//182 183//183 181//181
f 183//183 184//184 181//181
f 184//184 185//185 181//181
f 185//185 186//186 181//181
f 186//186 187//187 181//181
f 187//187 188//188 181//181
f 188//188 189//189 181//181
f 181//181 189//189 190//190
f 181//181 190//190 191//191
f 192//192 181//181 191//191
f 193//193 181//181 192//192
f 194//194 181//181 193//193
f 195//195 181//181 194//194
f 195//195 196//196 181//181
f 196//196 197//197 198//198
f 196//196 198//198 199//199
f 199//199 200//200 196//196
f 196//196 200//200 201//201
f 201//201 202//202 196//196
f 196//196 202//202 203//203
f 196//196 203//203 204//204
f 205//205 196//196 206//206
f 207//207 196//196 205//205
