v -94.44794 103.5092 34.94263
v -95.35271 92.5452 52.74311
v -94.44794 103.5092 34.94263
v -94.44794 103.5092 34.94263
v -96.97253 101.4176 33.52601
v -97.98238 100.581 32.95936
v -97.98238 100.581 32.95936
v -98.88714 89.61697 50.75984
v -99.79191 78.65293 68.56032
v -97.8882 100.3848 32.84327
v -98.94433 76.88672 67.51552
v -97.8765 100.3604 32.82885
v -98.839 76.66724 67.38569
v -97.87321 100.3535 32.8248
v -98.80943 76.60562 67.34924
v -97.83628 100.2766 32.77928
v -98.4771 75.9131 66.93958
v -97.38101 99.32788 32.21808
v -98.42651 75.80769 66.87722
v -96.94936 98.42839 31.68599
v -96.8997 98.32492 31.62477
v -98.37303 75.69625 66.81129
v -96.79613 98.10909 31.4971
v -98.36153 75.67227 66.79711
v -96.52147 97.53675 31.15854
v -98.33101 75.60867 66.75949
v -96.59941 97.37844 31.05706
v -98.76019 74.73694 66.20074
v -99.03247 74.18387 65.84624
v -96.61875 97.33916 31.03189
v -99.20651 73.83035 65.61966
v -96.6245 97.32747 31.02439
v -99.25831 73.72515 65.55222
v -96.668 97.23912 30.96777
v -99.64977 72.93001 65.04256
v -97.16702 96.22553 30.31809
v -99.70522 72.81739 64.97038
v -97.57928 95.38815 29.78135
v -99.75102 72.72435 64.91074
v -97.98676 94.56046 29.25084
v -99.7963 72.63239 64.85179
v -98.09579 94.52451 29.22316
v -100.7776 72.30887 64.60265
v -98.34008 94.44398 29.16113
v -102.9761 71.58401 64.04443
v -99.0216 94.21928 28.98809
v -99.29415 94.12943 28.91889
v -103.0821 71.54906 64.01752
v -100.2235 93.82302 28.68293
v -103.1854 71.51501 63.9913
v -100.9887 93.57073 28.48864
v -103.2704 71.48698 63.96972
v -101.5199 93.3956 28.35377
v -103.3294 71.46753 63.95473
v -103.3294 71.46752 63.95473
v -101.7298 93.47459 28.39175
v -105.2183 72.17837 64.29655
v -101.7916 93.49783 28.40293
v -105.7743 72.3876 64.39717
v -101.7979 93.50021 28.40407
v -105.8311 72.40896 64.40744
v -101.8008 93.5013 28.4046
v -105.8574 72.41886 64.4122
v -101.8045 93.50269 28.40527
v -105.8907 72.43138 64.41823
v -101.873 93.5285 28.41768
v -106.5076 72.66357 64.52988
v -105.0512 94.72453 28.99282
v -106.8608 72.79646 64.59378
v -105.0512 94.72453 28.99282
v -106.8608 72.79646 64.59378
v -105.0512 94.72453 28.99282
v -105.0512 94.72453 28.99282
v -106.0611 93.8879 28.42618
v -108.5857 91.7963 27.00956
v -108.5857 91.7963 27.00956
v -108.5857 91.7963 27.00956
v -105.0512 94.72453 28.99282
v -105.0512 94.72453 28.99282
v -105.0512 94.72453 28.99282
v -106.8608 72.79646 64.59378
v -106.8608 72.79646 64.59378
v -106.8608 72.79646 64.59378
v -105.0512 94.72453 28.99282
v -101.523 89.13844 25.73145
v -105.0512 94.72453 28.99282
v -106.8608 72.79646 64.59378
v -105.0512 94.72453 28.99282
v -105.956 83.7605 46.7933
v -106.8608 72.79646 64.59378
v -109.4904 80.83227 44.81004
v -106.8608 72.79647 64.59377
v -106.8608 72.79646 64.59378
v -107.8706 71.95982 64.02714
v -103.3326 67.21036 61.33241
v -106.8608 72.79646 64.59378
v -101.523 89.13844 25.73145
v -110.3952 69.86823 62.61052
v -103.3326 67.21036 61.33241
v -103.3294 71.46752 63.95473
v -103.3294 71.46753 63.95473
v -95.35271 92.5452 52.74311
v -94.44794 103.5092 34.94263
v -94.44794 103.5092 34.94263
v -96.97253 101.4176 33.52601
v -98.88714 89.61697 50.75984
v -97.98238 100.581 32.95936
v -98.3279 79.86584 69.38181
v -96.25748 81.58116 70.54359
v -99.79191 78.65293 68.56032
v -94.44794 103.5092 34.94263
v -91.52614 97.42073 31.34098
v -94.45673 91.46815 27.52559
v -96.52147 97.53675 31.15854
v -96.79613 98.10909 31.4971
v -96.8997 98.32492 31.62477
v -96.94936 98.42839 31.68599
v -97.38101 99.32788 32.21808
v -97.83628 100.2766 32.77928
v -97.87321 100.3535 32.8248
v -97.8765 100.3604 32.82885
v -97.8882 100.3848 32.84327
v -97.98238 100.581 32.95936
v -96.59941 97.37844 31.05706
v -96.61875 97.33916 31.03189
v -96.6245 97.32747 31.02439
v -96.668 97.23912 30.96777
v -97.16702 96.22553 30.31809
v -97.57928 95.38815 29.78135
v -97.98676 94.56046 29.25084
v -98.09579 94.52451 29.22316
v -98.34008 94.44398 29.16113
v -99.0216 94.21928 28.98809
v -101.523 89.13844 25.73145
v -99.29415 94.12943 28.91889
v -100.2235 93.82302 28.68293
v -100.9887 93.57073 28.48864
v -101.5199 93.3956 28.35377
v -101.7298 93.47459 28.39175
v -101.7916 93.49783 28.40293
v -101.7979 93.50021 28.40407
v -101.8008 93.5013 28.4046
v -101.8045 93.50269 28.40527
v -101.873 93.5285 28.41768
v -105.0512 94.72453 28.99282
v -105.0512 94.72453 28.99282
v -105.0512 94.72453 28.99282
v -108.5857 91.7963 27.00956
v -94.44794 103.5092 34.94263
v -93.33568 75.49265 66.94193
v -91.52614 97.42073 31.34098
v -95.35271 92.5452 52.74311
v -96.26627 69.54008 63.12654
v -94.45673 91.46815 27.52559
v -103.3326 67.21036 61.33241
v -101.523 89.13844 25.73145
v -96.25748 81.58116 70.54359
v -108.5857 91.7963 27.00956
v -105.956 83.7605 46.7933
v -105.0512 94.72453 28.99282
v -109.4904 80.83227 44.81004
v -106.8608 72.79647 64.59377
v -110.3952 69.86823 62.61052
v -107.8706 71.95982 64.02714
v -106.8608 72.79646 64.59378
v -99.79191 78.65293 68.56032
v -93.33568 75.49265 66.94193
v -98.3279 79.86584 69.38181
v -93.33568 75.49265 66.94193
v -96.25748 81.58116 70.54359
v -99.79191 78.65293 68.56032
v -98.94433 76.88672 67.51552
v -99.79191 78.65293 68.56032
v -98.839 76.66724 67.38569
v -98.80943 76.60562 67.34924
v -98.4771 75.9131 66.93958
v -98.42651 75.80769 66.87722
v -98.37303 75.69625 66.81129
v -98.36153 75.67227 66.79711
v -98.33101 75.60867 66.75949
v -96.26627 69.54008 63.12654
v -98.76019 74.73694 66.20074
v -99.03247 74.18387 65.84624
v -99.20651 73.83035 65.61966
v -99.25831 73.72515 65.55222
v -99.64977 72.93001 65.04256
v -99.70522 72.81739 64.97038
v -99.75102 72.72435 64.91074
v -99.7963 72.63239 64.85179
v -100.7776 72.30887 64.60265
v -102.9761 71.58401 64.04443
v -103.0821 71.54906 64.01752
v -103.1854 71.51501 63.9913
v -103.2704 71.48698 63.96972
v -103.3294 71.46753 63.95473
v -103.3326 67.21036 61.33241
v -103.3294 71.46752 63.95473
v -105.2183 72.17837 64.29655
v -105.7743 72.3876 64.39717
v -105.8311 72.40896 64.40744
v -105.8574 72.41886 64.4122
v -105.8907 72.43138 64.41823
v -106.5076 72.66357 64.52988
v -106.8608 72.79646 64.59378
v -107.8706 71.95982 64.02714
v -106.8608 72.79646 64.59378
v -110.3952 69.86823 62.61052

vn 0.7068845 0.5856461 0.3966525
vn 0.7068845 0.585646 0.3966527
vn 0.5648451 0.7856379 -0.2524348
vn 0.04323728 0.5239505 -0.8506508
vn 0.04323728 0.5239505 -0.8506508
vn -0.923255 -0.3043873 -0.234412
vn -0.6936654 -0.5056623 -0.5129663
vn -0.8537753 0.4615586 0.2408969
vn -0.9232531 -0.3043911 -0.234414
vn -0.9232529 -0.3043917 -0.2344144
vn -0.923253 -0.3043915 -0.2344142
vn -0.9232534 -0.3043907 -0.2344137
vn -0.9232538 -0.3043899 -0.2344131
vn -0.9232516 -0.3043942 -0.2344164
vn -0.9232526 -0.3043922 -0.2344148
vn -0.9232528 -0.3043917 -0.2344145
vn -0.9232529 -0.3043919 -0.2344146
vn -0.9232528 -0.3043919 -0.2344146
vn -0.9232528 -0.3043917 -0.2344145
vn -0.9232528 -0.304392 -0.2344147
vn -0.9232532 -0.3043911 -0.2344141
vn -0.9232537 -0.3043898 -0.2344133
vn -0.9232529 -0.3043915 -0.2344144
vn -0.9232526 -0.3043922 -0.2344148
vn -0.970271 -0.1809218 -0.1607543
vn -0.9376662 0.3151672 0.1464645
vn -0.9227771 0.3472688 0.166994
vn -0.9227774 0.3472681 0.1669936
vn -0.9227775 0.3472679 0.1669934
vn -0.9227784 0.3472664 0.1669922
vn -0.9227788 0.3472654 0.1669915
vn -0.9227794 0.3472642 0.1669905
vn -0.9227784 0.3472663 0.1669921
vn -0.9227778 0.3472671 0.1669928
vn -0.9227778 0.3472675 0.1669932
vn -0.9227777 0.3472675 0.1669933
vn -0.9227781 0.3472667 0.1669926
vn -0.9227779 0.3472672 0.166993
vn -0.9227774 0.3472681 0.1669936
vn -0.8955748 0.3977044 0.199442
vn -0.4418344 0.7736847 0.4540864
vn -0.3817534 0.7955006 0.4705774
vn -0.3817525 0.7955009 0.4705777
vn -0.3817518 0.7955012 0.470578
vn -0.3817518 0.7955011 0.4705779
vn -0.3817522 0.7955009 0.4705777
vn -0.3817527 0.7955009 0.4705775
vn -0.3817523 0.795501 0.4705777
vn -0.3817527 0.7955009 0.4705776
vn -0.3817523 0.795501 0.4705777
vn -0.3817524 0.7955011 0.4705777
vn -0.3817527 0.7955008 0.4705775
vn -0.1923251 0.8398866 0.5075448
vn -0.3817742 0.7954938 0.4705721
vn 0.3828986 0.7777415 0.4985047
vn 0.3828998 0.777741 0.4985045
vn 0.3829002 0.7777409 0.4985045
vn 0.3829013 0.7777404 0.4985043
vn 0.3828994 0.7777413 0.4985045
vn 0.382898 0.777742 0.4985046
vn 0.3828954 0.777743 0.4985048
vn 0.3828539 0.7777617 0.4985076
vn 0.38288 0.77775 0.4985059
vn 0.3829061 0.7777383 0.498504
vn 0.3829024 0.77774 0.4985043
vn 0.3828997 0.7777411 0.4985045
vn 0.3828991 0.7777413 0.4985045
vn 0.3828989 0.7777414 0.4985046
vn 0.3828943 0.7777432 0.4985055
vn 0.222908 0.8249243 0.5194345
vn 0.7068844 0.5856459 0.3966528
vn 0.7068844 0.5856459 0.3966528
vn 0.7068844 0.5856459 0.3966528
vn 0.04323728 0.5239505 -0.8506508
vn -0.3828995 -0.7777413 -0.4985044
vn 0.04323728 0.5239505 -0.8506508
vn -0.791886 0.5371059 0.2905753
vn 0.4919732 0.7787637 -0.3892167
vn 0.4339457 0.7628207 -0.4793705
vn 0.70817 0.6213921 0.3352125
vn 0.7068844 0.5856459 0.3966528
vn 0.7068844 0.5856459 0.3966528
vn 0.7068844 0.5856459 0.3966528
vn 0.7075781 0.6364992 0.3069237
vn 0.04323728 0.5239505 -0.8506508
vn 0.7073712 0.5922374 0.3858511
vn 0.7068844 0.5856459 0.3966528
vn 0.7058946 0.6538576 0.2723661
vn 0.7068892 0.5856419 0.3966505
vn 0.7030175 0.5531266 0.4470097
vn -0.3828995 -0.7777412 -0.4985044
vn 0.7069011 0.5856313 0.3966447
vn -0.04323238 -0.5239464 0.8506535
vn -0.04323728 -0.5239505 0.8506508
vn -0.04323698 -0.5239507 0.8506507
vn 0 0 0
vn -0.3828994 -0.7777413 -0.4985045
vn -0.3828994 -0.7777413 -0.4985045
vn -0.3828995 -0.7777413 -0.4985045
vn -0.04323698 -0.5239507 0.8506507
vn -0.04323698 -0.5239507 0.8506507
vn -0.7060065 0.6184617 0.3450508
vn -0.7060065 0.6184617 0.3450507
vn -0.7060065 0.6184617 0.3450508
vn -0.7060065 0.6184617 0.3450508
vn -0.7060065 0.6184617 0.3450508
vn -0.7060065 0.6184617 0.3450508
vn -0.7060065 0.6184617 0.3450508
vn -0.7060065 0.6184617 0.3450508
vn -0.7060065 0.6184617 0.3450508
vn 0.04323728 0.5239505 -0.8506508
vn 0.04323728 0.5239505 -0.8506508
vn 0.04323728 0.5239505 -0.8506508
vn 0.04323728 0.5239505 -0.8506508
vn 0.04323728 0.5239505 -0.8506508
vn 0.04323728 0.5239505 -0.8506508
vn 0.04323728 0.5239505 -0.8506508
vn 0.04323728 0.5239505 -0.8506508
vn 0.04323728 0.5239505 -0.8506508
vn 0.04323728 0.5239505 -0.8506508
vn 0.04323728 0.5239505 -0.8506508
vn 0.04323728 0.5239505 -0.8506508
vn 0.04323728 0.5239505 -0.8506508
vn 0.04323728 0.5239504 -0.8506507
vn 0.04323728 0.5239505 -0.8506508
vn 0.04323728 0.5239505 -0.8506508
vn 0.04323728 0.5239504 -0.8506507
vn 0.04323728 0.5239505 -0.8506508
vn 0.04323728 0.5239505 -0.8506508
vn 0.04323728 0.5239505 -0.8506508
vn 0.04323728 0.5239504 -0.8506507
vn 0.04323728 0.5239505 -0.8506508
vn 0.04323728 0.5239505 -0.8506508
vn 0.04323728 0.5239505 -0.8506508
vn 0.04323728 0.5239505 -0.8506508
vn 0.04323728 0.5239505 -0.8506508
vn 0.04323728 0.5239505 -0.8506508
vn 0.04323728 0.5239505 -0.8506508
vn 0.04323728 0.5239505 -0.8506508
vn 0.04323728 0.5239505 -0.8506508
vn 0.04323728 0.5239505 -0.8506508
vn 0.04323728 0.5239504 -0.8506507
vn 0.04323728 0.5239505 -0.8506508
vn 0.04323728 0.5239504 -0.8506507
vn 0.04323728 0.5239504 -0.8506507
vn 0.04323728 0.5239505 -0.8506508
vn 0.04323728 0.5239504 -0.8506507
vn 0.04323728 0.5239504 -0.8506507
vn 0.9232531 0.3043915 0.2344142
vn 0.9897608 0.09346744 0.107878
vn 0.9895909 -0.1394398 -0.03558762
vn 0.9232529 0.3043914 0.2344142
vn 0.7960548 -0.5325487 -0.2875565
vn 0.6026886 -0.6927505 -0.3960597
vn 0.3817522 -0.795501 -0.4705777
vn 0.3817522 -0.7955011 -0.4705777
vn 0.9232529 0.3043915 0.2344143
vn -0.7060065 0.6184617 0.3450508
vn -0.7060065 0.6184617 0.3450508
vn -0.7060065 0.6184617 0.3450508
vn -0.7060065 0.6184617 0.3450508
vn -0.7060065 0.6184617 0.3450508
vn -0.7060065 0.6184617 0.3450508
vn -0.7060065 0.6184617 0.3450508
vn -0.7060065 0.6184617 0.3450507
vn -0.7009637 -0.6797346 -0.2158956
vn -0.04323676 -0.52395 0.8506511
vn -0.04323713 -0.5239506 0.8506507
vn -0.04323704 -0.5239505 0.8506507
vn -0.04323713 -0.5239506 0.8506507
vn -0.04323713 -0.5239506 0.8506507
vn -0.04323698 -0.5239503 0.8506508
vn -0.04323698 -0.5239503 0.8506508
vn -0.04323698 -0.5239503 0.8506508
vn -0.04323698 -0.5239503 0.8506508
vn -0.04323698 -0.5239503 0.8506508
vn -0.04323697 -0.5239503 0.8506508
vn -0.04323698 -0.5239503 0.8506508
vn -0.04323697 -0.5239503 0.8506508
vn -0.04323698 -0.5239506 0.8506507
vn -0.04323707 -0.5239506 0.8506507
vn -0.04323698 -0.5239506 0.8506507
vn -0.04323698 -0.5239506 0.8506507
vn -0.04323698 -0.5239506 0.8506507
vn -0.04323698 -0.5239506 0.8506507
vn -0.04323698 -0.5239506 0.8506507
vn -0.04323698 -0.5239506 0.8506507
vn -0.04323698 -0.5239506 0.8506507
vn -0.04323714 -0.5239507 0.8506507
vn -0.04323716 -0.5239507 0.8506506
vn -0.04323716 -0.5239507 0.8506506
vn -0.04323716 -0.5239507 0.8506506
vn -0.04323716 -0.5239507 0.8506506
vn -0.04323716 -0.5239507 0.8506506
vn -0.04323716 -0.5239507 0.8506506
vn -0.0432372 -0.5239506 0.8506507
vn -0.04323741 -0.5239507 0.8506506
vn -0.04323741 -0.5239507 0.8506506
vn -0.04323741 -0.5239507 0.8506506
vn -0.04323741 -0.5239507 0.8506506
vn -0.04323741 -0.5239507 0.8506506
vn -0.04323741 -0.5239507 0.8506506
vn -0.04323741 -0.5239507 0.8506506
vn -0.04323741 -0.5239507 0.8506505
vn -0.04323713 -0.5239506 0.8506507
vn -0.04323713 -0.5239506 0.8506507
vn -0.04323713 -0.5239506 0.8506507

f 1//1 2//2 3//3
f 4//4 1//1 3//3
f 3//3 5//5 4//4
f 3//3 6//6 5//5
f 5//5 6//6 7//7
f 8//8 7//7 6//6
f 9//9 8//8 6//6
f 10//10 9//9 6//6
f 9//9 10//10 11//11
f 11//11 10//10 12//12
f 13//13 11//11 12//12
f 13//13 12//12 14//14
f 13//13 14//14 15//15
f 15//15 14//14 16//16
f 15//15 16//16 17//17
f 18//18 17//17 16//16
f 19//19 17//17 18//18
f 19//19 18//18 20//20
f 21//21 19//19 20//20
f 22//22 19//19 21//21
f 22//22 21//21 23//23
f 24//24 22//22 23//23
f 24//24 23//23 25//25
f 26//26 24//24 25//25
f 26//26 25//25 27//27
f 28//28 26//26 27//27
f 28//28 27//27 29//29
f 29//29 27//27 30//30
f 31//31 29//29 30//30
f 31//31 30//30 32//32
f 33//33 31//31 32//32
f 33//33 32//32 34//34
f 35//35 33//33 34//34
f 35//35 34//34 36//36
f 37//37 35//35 36//36
f 37//37 36//36 38//38
f 39//39 37//37 38//38
f 39//39 38//38 40//40
f 41//41 39//39 40//40
f 41//41 40//40 42//42
f 41//41 42//42 43//43
f 43//43 42//42 44//44
f 45//45 43//43 44//44
f 45//45 44//44 46//46
f 47//47 45//45 46//46
f 48//48 45//45 47//47
f 48//48 47//47 49//49
f 50//50 48//48 49//49
f 50//50 49//49 51//51
f 52//52 50//50 51//51
f 52//52 51//51 53//53
f 54//54 52//52 53//53
f 55//55 54//54 53//53
f 55//55 53//53 56//56
f 55//55 56//56 57//57
f 57//57 56//56 58//58
f 57//57 58//58 59//59
f 59//59 58//58 60//60
f 59//59 60//60 61//61
f 61//61 60//60 62//62
f 61//61 62//62 63//63
f 63//63 62//62 64//64
f 63//63 64//64 65//65
f 65//65 64//64 66//66
f 65//65 66//66 67//67
f 68//68 67//67 66//66
f 69//69 67//67 68//68
f 69//69 68//68 70//70
f 71//71 69//69 70//70
f 72//72 71//71 73//73
f 74//74 75//75 76//76
f 77//77 74//74 76//76
f 75//75 77//77 76//76
f 78//78 75//75 74//74
f 79//79 75//75 78//78
f 78//78 74//74 80//80
f 81//81 78//78 80//80
f 82//82 78//78 81//81
f 82//82 83//83 78//78
f 83//83 84//84 79//79
f 84//84 85//85 79//79
f 80//80 74//74 86//86
f 87//87 80//80 86//86
f 81//81 80//80 87//87
f 86//86 74//74 88//88
f 88//88 74//74 77//77
f 86//86 88//88 89//89
f 90//90 86//86 89//89
f 87//87 86//86 90//90
f 75//75 91//91 77//77
f 90//90 89//89 92//92
f 90//90 92//92 93//93
f 94//94 90//90 93//93
f 95//95 83//83 82//82
f 95//95 82//82 81//81
f 95//95 81//81 87//87
f 95//95 87//87 90//90
f 95//95 96//96 83//83
f 97//97 91//91 75//75
f 97//97 98//98 91//91
f 97//97 99//99 98//98
f 100//100 95//95 101//101
f 102//102 103//103 104//104
f 102//102 104//104 105//105
f 102//102 105//105 106//106
f 106//106 105//105 107//107
f 108//108 102//102 106//106
f 109//109 102//102 108//108
f 110//110 108//108 106//106
f 111//111 112//112 113//113
f 111//111 113//113 114//114
f 111//111 114//114 115//115
f 111//111 115//115 116//116
f 111//111 116//116 117//117
f 117//117 118//118 111//111
f 118//118 119//119 111//111
f 120//120 111//111 119//119
f 120//120 121//121 111//111
f 121//121 122//122 111//111
f 111//111 122//122 123//123
f 114//114 113//113 124//124
f 124//124 113//113 125//125
f 125//125 113//113 126//126
f 126//126 113//113 127//127
f 127//127 113//113 128//128
f 128//128 113//113 129//129
f 129//129 113//113 130//130
f 130//130 113//113 131//131
f 131//131 113//113 132//132
f 132//132 113//113 133//133
f 133//133 113//113 134//134
f 133//133 134//134 135//135
f 135//135 134//134 136//136
f 134//134 137//137 136//136
f 137//137 134//134 138//138
f 138//138 134//134 139//139
f 139//139 134//134 140//140
f 140//140 134//134 141//141
f 134//134 142//142 141//141
f 134//134 143//143 142//142
f 134//134 144//144 143//143
f 144//144 134//134 145//145
f 145//145 134//134 146//146
f 147//147 134//134 148//148
f 149//149 150//150 151//151
f 149//149 152//152 150//150
f 151//151 150//150 153//153
f 151//151 153//153 154//154
f 154//154 153//153 155//155
f 154//154 155//155 156//156
f 152//152 157//157 150//150
f 158//158 159//159 160//160
f 161//161 159//159 158//158
f 162//162 159//159 161//161
f 163//163 162//162 161//161
f 164//164 162//162 163//163
f 165//165 162//162 164//164
f 9//9 166//166 8//8
f 166//166 9//9 167//167
f 168//168 169//169 170//170
f 168//168 171//171 169//169
f 172//172 169//169 173//173
f 174//174 169//169 172//172
f 169//169 174//174 175//175
f 176//176 169//169 175//175
f 177//177 169//169 176//176
f 178//178 169//169 177//177
f 178//178 179//179 169//169
f 179//179 180//180 169//169
f 180//180 181//181 169//169
f 182//182 181//181 180//180
f 182//182 183//183 181//181
f 183//183 184//184 181//181
f 184//184 185//185 181//181
f 185//185 186//186 181//181
f 186//186 187//187 181//181
f 187//187 188//188 181//181
f 188//188 189//189 181//181
f 181//181 189//189 190//190
f 181//181 190//190 191//191
f 192//192 181//181 191//191
f 193//193 181//181 192//192
f 194//194 181//181 193//193
f 195//195 181//181 194//194
f 195//195 196//196 181//181
f 196//196 197//197 198//198
f 196//196 198//198 199//199
f 199//199 200//200 196//196
f 196//196 200//200 201//201
f 201//201 202//202 196//196
f 196//196 202//202 203//203
f 196//196 203//203 204//204
f 205//205 196//196 206//206
f 207//207 196//196 205//205
