v 73.47199 -92.39616 83.49776
v 59.0733 -101.1447 83.49776
v 73.47199 -92.39616 83.49776
v 73.47199 -92.39616 83.49776
v 74.47412 -94.0455 80.49268
v 74.87498 -94.70524 79.29064
v 74.87498 -94.70524 79.29064
v 60.47628 -103.4538 79.29064
v 46.07759 -112.2023 79.29064
v 75.00105 -94.91273 79.33437
v 47.21222 -114.0697 79.68417
v 75.01671 -94.93851 79.3398
v 47.35322 -114.3018 79.73307
v 75.02111 -94.94576 79.34132
v 47.3928 -114.3669 79.7468
v 75.07054 -95.02711 79.35847
v 47.83768 -115.0991 79.9011
v 75.67999 -96.03017 79.56985
v 47.9054 -115.2106 79.92459
v 76.25783 -96.9812 79.77026
v 76.3243 -97.09061 79.79332
v 47.97699 -115.3284 79.94942
v 76.46295 -97.3188 79.84141
v 47.9924 -115.3538 79.95476
v 76.83063 -97.92393 79.96893
v 48.03325 -115.421 79.96893
v 76.91743 -98.0668 79.85278
v 48.51123 -116.2077 79.32939
v 48.81447 -116.7068 78.92364
v 76.93896 -98.10225 79.82397
v 49.00831 -117.0258 78.66429
v 76.94538 -98.11279 79.81539
v 49.06599 -117.1207 78.5871
v 76.99382 -98.19252 79.75058
v 49.50197 -117.8383 78.00376
v 77.54958 -99.1072 79.00697
v 49.56372 -117.9399 77.92114
v 78.00871 -99.86288 78.39263
v 49.61473 -118.0239 77.85288
v 78.46253 -100.6098 77.78541
v 49.66516 -118.1069 77.78541
v 78.4734 -100.6277 77.66919
v 49.76298 -118.2679 76.73942
v 78.49776 -100.6678 77.40878
v 49.98215 -118.6286 74.39579
v 78.5657 -100.7796 76.6823
v 78.59286 -100.8243 76.39177
v 49.99271 -118.646 74.28278
v 78.68551 -100.9768 75.4011
v 50.00301 -118.6629 74.17271
v 78.7618 -101.1023 74.58539
v 50.01148 -118.6768 74.08208
v 78.81474 -101.1895 74.01917
v 50.01736 -118.6865 74.01917
v 50.01736 -118.6865 74.01917
v 78.74736 -101.0786 73.83237
v 49.41089 -117.6884 72.3381
v 78.72752 -101.0459 73.7774
v 49.23238 -117.3946 71.84331
v 78.72549 -101.0426 73.77179
v 49.21416 -117.3646 71.79279
v 78.72456 -101.041 73.76919
v 49.20571 -117.3507 71.76937
v 78.72337 -101.0391 73.76589
v 49.19503 -117.3331 71.73977
v 78.70136 -101.0029 73.70489
v 48.99694 -117.0071 71.19068
v 77.68094 -99.3234 70.8764
v 48.88356 -116.8205 70.8764
v 77.68093 -99.3234 70.8764
v 48.88356 -116.8205 70.8764
v 77.68093 -99.3234 70.8764
v 77.68093 -99.3234 70.8764
v 78.08179 -99.98314 69.67437
v 79.08392 -101.6325 66.66928
v 79.08392 -101.6325 66.66928
v 79.08392 -101.6325 66.66928
v 77.68093 -99.3234 70.8764
v 77.68093 -99.3234 70.8764
v 77.68093 -99.3234 70.8764
v 48.88356 -116.8205 70.8764
v 48.88356 -116.8205 70.8764
v 48.88356 -116.8205 70.8764
v 77.68093 -99.3234 70.8764
v 81.35153 -105.3646 72.9548
v 77.68093 -99.3234 70.8764
v 48.88356 -116.8205 70.8764
v 77.68093 -99.3234 70.8764
v 63.28224 -108.0719 70.8764
v 48.88356 -116.8205 70.8764
v 64.68523 -110.381 66.66928
v 48.88357 -116.8205 70.8764
v 48.88356 -116.8205 70.8764
v 49.28441 -117.4802 69.67437
v 52.55416 -122.8617 72.9548
v 48.88356 -116.8205 70.8764
v 81.35153 -105.3646 72.9548
v 50.28654 -119.1295 66.66928
v 52.55416 -122.8617 72.9548
v 50.01736 -118.6865 74.01917
v 50.01736 -118.6865 74.01917
v 59.0733 -101.1447 83.49776
v 73.47199 -92.39616 83.49776
v 73.47199 -92.39616 83.49776
v 74.47412 -94.0455 80.49268
v 60.47628 -103.4538 79.29064
v 74.87498 -94.70524 79.29064
v 45.49646 -111.2458 81.03329
v 44.67461 -109.8932 83.49776
v 46.07759 -112.2023 79.29064
v 73.47199 -92.39616 83.49776
v 77.38331 -98.83356 84.85433
v 80.64712 -104.2053 80.4873
v 76.83063 -97.92393 79.96893
v 76.46295 -97.3188 79.84141
v 76.3243 -97.09061 79.79332
v 76.25783 -96.9812 79.77026
v 75.67999 -96.03017 79.56985
v 75.07054 -95.02711 79.35847
v 75.02111 -94.94576 79.34132
v 75.01671 -94.93851 79.3398
v 75.00105 -94.91273 79.33437
v 74.87498 -94.70524 79.29064
v 76.91743 -98.0668 79.85278
v 76.93896 -98.10225 79.82397
v 76.94538 -98.11279 79.81539
v 76.99382 -98.19252 79.75058
v 77.54958 -99.1072 79.00697
v 78.00871 -99.86288 78.39263
v 78.46253 -100.6098 77.78541
v 78.4734 -100.6277 77.66919
v 78.49776 -100.6678 77.40878
v 78.5657 -100.7796 76.6823
v 81.35153 -105.3646 72.9548
v 78.59286 -100.8243 76.39177
v 78.68551 -100.9768 75.4011
v 78.7618 -101.1023 74.58539
v 78.81474 -101.1895 74.01917
v 78.74736 -101.0786 73.83237
v 78.72752 -101.0459 73.7774
v 78.72549 -101.0426 73.77179
v 78.72456 -101.041 73.76919
v 78.72337 -101.0391 73.76589
v 78.70136 -101.0029 73.70489
v 77.68094 -99.3234 70.8764
v 77.68093 -99.3234 70.8764
v 77.68093 -99.3234 70.8764
v 79.08392 -101.6325 66.66928
v 73.47199 -92.39616 83.49776
v 48.58593 -116.3306 84.85434
v 77.38331 -98.83356 84.85433
v 59.0733 -101.1447 83.49776
v 51.84974 -121.7023 80.4873
v 80.64712 -104.2053 80.4873
v 52.55416 -122.8617 72.9548
v 81.35153 -105.3646 72.9548
v 44.67461 -109.8932 83.49776
v 79.08392 -101.6325 66.66928
v 63.28224 -108.0719 70.8764
v 77.68093 -99.3234 70.8764
v 64.68523 -110.381 66.66928
v 48.88357 -116.8205 70.8764
v 50.28654 -119.1295 66.66928
v 49.28441 -117.4802 69.67437
v 48.88356 -116.8205 70.8764
v 46.07759 -112.2023 79.29064
v 48.58593 -116.3306 84.85434
v 45.49646 -111.2458 81.03329
v 48.58593 -116.3306 84.85434
v 44.67461 -109.8932 83.49776
v 46.07759 -112.2023 79.29064
v 47.21222 -114.0697 79.68417
v 46.07759 -112.2023 79.29064
v 47.35322 -114.3018 79.73307
v 47.3928 -114.3669 79.7468
v 47.83768 -115.0991 79.9011
v 47.9054 -115.2106 79.92459
v 47.97699 -115.3284 79.94942
v 47.9924 -115.3538 79.95476
v 48.03325 -115.421 79.96893
v 51.84974 -121.7023 80.4873
v 48.51123 -116.2077 79.32939
v 48.81447 -116.7068 78.92364
v 49.00831 -117.0258 78.66429
v 49.06599 -117.1207 78.5871
v 49.50197 -117.8383 78.00376
v 49.56372 -117.9399 77.92114
v 49.61473 -118.0239 77.85288
v 49.66516 -118.1069 77.78541
v 49.76298 -118.2679 76.73942
v 49.98215 -118.6286 74.39579
v 49.99271 -118.646 74.28278
v 50.00301 -118.6629 74.17271
v 50.01148 -118.6768 74.08208
v 50.01736 -118.6865 74.01917
v 52.55416 -122.8617 72.9548
v 50.01736 -118.6865 74.01917
v 49.41089 -117.6884 72.3381
v 49.23238 -117.3946 71.84331
v 49.21416 -117.3646 71.79279
v 49.20571 -117.3507 71.76937
v 49.19503 -117.3331 71.73977
v 48.99694 -117.0071 71.19068
v 48.88356 -116.8205 70.8764
v 49.28441 -117.4802 69.67437
v 48.88356 -116.8205 70.8764
v 50.28654 -119.1295 66.66928

vn -0.2805953 0.461816 0.8414229
vn -0.2805954 0.4618159 0.8414229
vn 0.3431334 0.6885657 0.6388559
vn 0.8546172 0.5192588 8.940697E-08
vn 0.8546172 0.5192588 8.940697E-08
vn 0.09203356 -0.1514725 -0.9841678
vn 0.3986364 -0.3837402 -0.8329663
vn -0.3577122 0.5887371 -0.7248659
vn 0.09203568 -0.1514765 -0.9841669
vn 0.09203616 -0.1514773 -0.9841669
vn 0.09203595 -0.151477 -0.9841669
vn 0.09203536 -0.1514762 -0.9841671
vn 0.09203476 -0.1514753 -0.9841672
vn 0.09203823 -0.1514799 -0.9841662
vn 0.09203656 -0.1514777 -0.9841667
vn 0.09203625 -0.1514773 -0.9841667
vn 0.09203635 -0.1514774 -0.9841669
vn 0.09203639 -0.1514775 -0.9841667
vn 0.09203622 -0.1514772 -0.9841668
vn 0.09203639 -0.1514775 -0.9841668
vn 0.09203579 -0.1514765 -0.984167
vn 0.09203494 -0.1514752 -0.9841672
vn 0.09203616 -0.151477 -0.9841668
vn 0.0920366 -0.1514778 -0.9841667
vn 0.01390228 -0.02288111 -0.9996418
vn -0.2785896 0.4585139 -0.8438916
vn -0.2962796 0.4876287 -0.8212411
vn -0.2962792 0.4876281 -0.8212414
vn -0.2962791 0.4876279 -0.8212417
vn -0.2962781 0.4876266 -0.8212429
vn -0.2962774 0.4876257 -0.8212436
vn -0.2962765 0.4876246 -0.8212445
vn -0.296278 0.4876264 -0.821243
vn -0.2962786 0.4876271 -0.8212422
vn -0.2962789 0.4876276 -0.821242
vn -0.296279 0.4876276 -0.8212419
vn -0.2962784 0.4876268 -0.8212425
vn -0.2962787 0.4876273 -0.8212422
vn -0.2962793 0.4876281 -0.8212415
vn -0.323704 0.5327649 -0.7819064
vn -0.5038514 0.829259 -0.2417921
vn -0.5110371 0.8410854 -0.1772466
vn -0.5110372 0.8410856 -0.1772456
vn -0.5110373 0.8410857 -0.1772449
vn -0.5110372 0.8410857 -0.1772449
vn -0.5110372 0.8410856 -0.1772453
vn -0.511037 0.8410856 -0.1772458
vn -0.5110372 0.8410857 -0.1772454
vn -0.5110371 0.8410857 -0.1772458
vn -0.5110371 0.8410856 -0.1772454
vn -0.5110371 0.8410857 -0.1772455
vn -0.5110371 0.8410856 -0.1772459
vn -0.5191529 0.8544432 0.02017551
vn -0.5110349 0.8410821 -0.1772688
vn -0.4264372 0.7018479 0.5705795
vn -0.4264368 0.7018472 0.5705805
vn -0.4264368 0.701847 0.570581
vn -0.4264365 0.7018463 0.5705819
vn -0.4264369 0.7018475 0.5705802
vn -0.4264372 0.7018485 0.5705789
vn -0.4264377 0.7018499 0.5705766
vn -0.4264463 0.7018749 0.5705395
vn -0.426441 0.7018592 0.5705628
vn -0.4264354 0.7018436 0.5705862
vn -0.4264363 0.7018458 0.5705829
vn -0.4264368 0.7018473 0.5705804
vn -0.426437 0.7018476 0.5705799
vn -0.4264371 0.7018477 0.5705797
vn -0.4264387 0.7018502 0.5705756
vn -0.4700428 0.7736156 0.4249457
vn -0.2805956 0.4618158 0.8414229
vn -0.2805956 0.4618158 0.8414229
vn -0.2805956 0.4618158 0.8414229
vn 0.8546172 0.5192588 8.940697E-08
vn 0.4264368 -0.7018475 -0.5705802
vn 0.8546172 0.5192588 8.940697E-08
vn -0.3967445 0.652978 -0.6451463
vn 0.4676077 0.694773 0.5464738
vn 0.5480283 0.6891848 0.4740143
vn -0.2191667 0.4975415 0.8392965
vn -0.2805956 0.4618158 0.8414229
vn -0.2805956 0.4618158 0.8414229
vn -0.2805956 0.4618158 0.8414229
vn -0.1910752 0.5128445 0.8369474
vn 0.8546172 0.5192588 8.940697E-08
vn -0.2697534 0.4683584 0.8413523
vn -0.2805956 0.4618158 0.8414229
vn -0.1569143 0.5306086 0.8329661
vn -0.2805927 0.461811 0.8414265
vn -0.3313994 0.4298009 0.8399082
vn 0.4264368 -0.7018474 -0.5705802
vn -0.2805852 0.4617988 0.8414357
vn -0.8546192 -0.5192556 5.752387E-06
vn -0.8546172 -0.5192588 -8.940697E-08
vn -0.8546171 -0.5192591 1.43811E-07
vn 0 0 0
vn 0.4264369 -0.7018476 -0.5705802
vn 0.4264369 -0.7018475 -0.5705802
vn 0.4264369 -0.7018476 -0.5705802
vn -0.8546171 -0.5192591 1.43811E-07
vn -0.8546171 -0.5192591 1.43811E-07
vn -0.4369161 0.7190943 -0.5403774
vn -0.4369161 0.7190942 -0.5403774
vn -0.4369161 0.7190943 -0.5403774
vn -0.4369161 0.7190943 -0.5403774
vn -0.4369161 0.7190943 -0.5403774
vn -0.4369161 0.7190943 -0.5403774
vn -0.4369161 0.7190943 -0.5403774
vn -0.4369161 0.7190943 -0.5403774
vn -0.4369161 0.7190943 -0.5403774
vn 0.8546172 0.5192588 8.940697E-08
vn 0.8546172 0.5192588 8.940697E-08
vn 0.8546172 0.5192588 8.940697E-08
vn 0.8546172 0.5192588 8.940697E-08
vn 0.8546172 0.5192588 8.940697E-08
vn 0.8546172 0.5192588 8.940697E-08
vn 0.8546172 0.5192588 8.940697E-08
vn 0.8546172 0.5192588 8.940697E-08
vn 0.8546172 0.5192588 8.940697E-08
vn 0.8546172 0.5192588 8.940697E-08
vn 0.8546172 0.5192588 8.940697E-08
vn 0.8546172 0.5192588 8.940697E-08
vn 0.8546172 0.5192588 8.940697E-08
vn 0.8546172 0.5192587 8.940696E-08
vn 0.8546172 0.5192588 8.940697E-08
vn 0.8546172 0.5192588 8.940697E-08
vn 0.8546172 0.5192587 8.940696E-08
vn 0.8546172 0.5192588 8.940697E-08
vn 0.8546172 0.5192588 8.940697E-08
vn 0.8546172 0.5192588 8.940697E-08
vn 0.8546172 0.5192587 8.940696E-08
vn 0.8546172 0.5192588 8.940697E-08
vn 0.8546172 0.5192588 8.940697E-08
vn 0.8546172 0.5192588 8.940697E-08
vn 0.8546172 0.5192588 8.940697E-08
vn 0.8546172 0.5192588 8.940697E-08
vn 0.8546172 0.5192588 8.940697E-08
vn 0.8546172 0.5192588 8.940697E-08
vn 0.8546172 0.5192588 8.940697E-08
vn 0.8546172 0.5192588 8.940697E-08
vn 0.8546172 0.5192588 8.940697E-08
vn 0.8546172 0.5192587 8.940696E-08
vn 0.8546172 0.5192588 8.940697E-08
vn 0.8546172 0.5192587 8.940696E-08
vn 0.8546172 0.5192587 8.940696E-08
vn 0.8546172 0.5192588 8.940697E-08
vn 0.8546172 0.5192587 8.940696E-08
vn 0.8546172 0.5192587 8.940696E-08
vn -0.09203593 0.151477 0.9841669
vn 0.0401035 -0.06600356 0.9970133
vn 0.1788898 -0.2944237 0.9387829
vn -0.09203591 0.1514769 0.9841668
vn 0.3944321 -0.6491722 0.6503837
vn 0.4711882 -0.7755007 0.4202148
vn 0.5110371 -0.8410857 0.1772453
vn 0.5110371 -0.8410857 0.1772453
vn -0.09203605 0.151477 0.9841669
vn -0.4369161 0.7190943 -0.5403774
vn -0.4369161 0.7190943 -0.5403774
vn -0.4369161 0.7190943 -0.5403774
vn -0.4369161 0.7190943 -0.5403774
vn -0.4369161 0.7190943 -0.5403774
vn -0.4369161 0.7190943 -0.5403774
vn -0.4369162 0.7190943 -0.5403774
vn -0.4369161 0.7190942 -0.5403774
vn 0.1014457 -0.5575263 -0.8239377
vn -0.8546175 -0.5192584 5.305188E-07
vn -0.8546171 -0.5192589 2.720202E-08
vn -0.8546172 -0.5192589 1.307636E-07
vn -0.8546172 -0.5192589 2.720202E-08
vn -0.8546172 -0.5192589 2.720202E-08
vn -0.8546173 -0.5192587 2.356827E-07
vn -0.8546173 -0.5192587 2.356828E-07
vn -0.8546173 -0.5192587 2.356824E-07
vn -0.8546173 -0.5192587 2.356828E-07
vn -0.8546173 -0.5192587 2.356828E-07
vn -0.8546172 -0.5192587 2.356827E-07
vn -0.8546173 -0.5192587 2.356821E-07
vn -0.8546172 -0.5192587 2.356833E-07
vn -0.8546171 -0.5192589 1.823514E-07
vn -0.8546171 -0.519259 7.55031E-08
vn -0.8546171 -0.5192589 1.818649E-07
vn -0.8546171 -0.5192589 1.818655E-07
vn -0.8546171 -0.5192589 1.818662E-07
vn -0.8546171 -0.5192589 1.818658E-07
vn -0.8546171 -0.5192589 1.818657E-07
vn -0.8546171 -0.5192589 1.818656E-07
vn -0.8546171 -0.5192589 1.818651E-07
vn -0.8546171 -0.519259 -9.561744E-09
vn -0.8546171 -0.519259 -3.085934E-08
vn -0.8546171 -0.519259 -3.085951E-08
vn -0.8546171 -0.519259 -3.085909E-08
vn -0.8546171 -0.519259 -3.085998E-08
vn -0.8546171 -0.519259 -3.085959E-08
vn -0.8546171 -0.519259 -3.085935E-08
vn -0.8546171 -0.519259 -5.703914E-08
vn -0.8546171 -0.519259 -2.77881E-07
vn -0.8546171 -0.519259 -2.778812E-07
vn -0.8546171 -0.519259 -2.778815E-07
vn -0.8546171 -0.519259 -2.778743E-07
vn -0.8546171 -0.519259 -2.778823E-07
vn -0.8546171 -0.519259 -2.778817E-07
vn -0.8546171 -0.519259 -2.778802E-07
vn -0.8546171 -0.519259 -2.778791E-07
vn -0.8546172 -0.5192589 2.720202E-08
vn -0.8546172 -0.5192589 2.720202E-08
vn -0.8546171 -0.5192589 2.720202E-08

f 1//1 2//2 3//3
f 4//4 1//1 3//3
f 3//3 5//5 4//4
f 3//3 6//6 5//5
f 5//5 6//6 7//7
f 8//8 7//7 6//6
f 9//9 8//8 6//6
f 10//10 9//9 6//6
f 9//9 10//10 11//11
f 11//11 10//10 12//12
f 13//13 11//11 12//12
f 13//13 12//12 14//14
f 13//13 14//14 15//15
f 15//15 14//14 16//16
f 15//15 16//16 17//17
f 18//18 17//17 16//16
f 19//19 17//17 18//18
f 19//19 18//18 20//20
f 21//21 19//19 20//20
f 22//22 19//19 21//21
f 22//22 21//21 23//23
f 24//24 22//22 23//23
f 24//24 23//23 25//25
f 26//26 24//24 25//25
f 26//26 25//25 27//27
f 28//28 26//26 27//27
f 28//28 27//27 29//29
f 29//29 27//27 30//30
f 31//31 29//29 30//30
f 31//31 30//30 32//32
f 33//33 31//31 32//32
f 33//33 32//32 34//34
f 35//35 33//33 34//34
f 35//35 34//34 36//36
f 37//37 35//35 36//36
f 37//37 36//36 38//38
f 39//39 37//37 38//38
f 39//39 38//38 40//40
f 41//41 39//39 40//40
f 41//41 40//40 42//42
f 41//41 42//42 43//43
f 43//43 42//42 44//44
f 45//45 43//43 44//44
f 45//45 44//44 46//46
f 47//47 45//45 46//46
f 48//48 45//45 47//47
f 48//48 47//47 49//49
f 50//50 48//48 49//49
f 50//50 49//49 51//51
f 52//52 50//50 51//51
f 52//52 51//51 53//53
f 54//54 52//52 53//53
f 55//55 54//54 53//53
f 55//55 53//53 56//56
f 55//55 56//56 57//57
f 57//57 56//56 58//58
f 57//57 58//58 59//59
f 59//59 58//58 60//60
f 59//59 60//60 61//61
f 61//61 60//60 62//62
f 61//61 62//62 63//63
f 63//63 62//62 64//64
f 63//63 64//64 65//65
f 65//65 64//64 66//66
f 65//65 66//66 67//67
f 68//68 67//67 66//66
f 69//69 67//67 68//68
f 69//69 68//68 70//70
f 71//71 69//69 70//70
f 72//72 71//71 73//73
f 74//74 75//75 76//76
f 77//77 74//74 76//76
f 75//75 77//77 76//76
f 78//78 75//75 74//74
f 79//79 75//75 78//78
f 78//78 74//74 80//80
f 81//81 78//78 80//80
f 82//82 78//78 81//81
f 82//82 83//83 78//78
f 83//83 84//84 79//79
f 84//84 85//85 79//79
f 80//80 74//74 86//86
f 87//87 80//80 86//86
f 81//81 80//80 87//87
f 86//86 74//74 88//88
f 88//88 74//74 77//77
f 86//86 88//88 89//89
f 90//90 86//86 89//89
f 87//87 86//86 90//90
f 75//75 91//91 77//77
f 90//90 89//89 92//92
f 90//90 92//92 93//93
f 94//94 90//90 93//93
f 95//95 83//83 82//82
f 95//95 82//82 81//81
f 95//95 81//81 87//87
f 95//95 87//87 90//90
f 95//95 96//96 83//83
f 97//97 91//91 75//75
f 97//97 98//98 91//91
f 97//97 99//99 98//98
f 100//100 95//95 101//101
f 102//102 103//103 104//104
f 102//102 104//104 105//105
f 102//102 105//105 106//106
f 106//106 105//105 107//107
f 108//108 102//102 106//106
f 109//109 102//102 108//108
f 110//110 108//108 106//106
f 111//111 112//112 113//113
f 111//111 113//113 114//114
f 111//111 114//114 115//115
f 111//111 115//115 116//116
f 111//111 116//116 117//117
f 117//117 118//118 111//111
f 118//118 119//119 111//111
f 120//120 111//111 119//119
f 120//120 121//121 111//111
f 121//121 122//122 111//111
f 111//111 122//122 123//123
f 114//114 113//113 124//124
f 124//124 113//113 125//125
f 125//125 113//113 126//126
f 126//126 113//113 127//127
f 127//127 113//113 128//128
f 128//128 113//113 129//129
f 129//129 113//113 130//130
f 130//130 113//113 131//131
f 131//131 113//113 132//132
f 132//132 113//113 133//133
f 133//133 113//113 134//134
f 133//133 134//134 135//135
f 135//135 134//134 136//136
f 134//134 137//137 136//136
f 137//137 134//134 138//138
f 138//138 134//134 139//139
f 139//139 134//134 140//140
f 140//140 134//134 141//141
f 134//134 142//142 141//141
f 134//134 143//143 142//142
f 134//134 144//144 143//143
f 144//144 134//134 145//145
f 145//145 134//134 146//146
f 147//147 134//134 148//148
f 149//149 150//150 151//151
f 149//149 152//152 150//150
f 151//151 150//150 153//153
f 151//151 153//153 154//154
f 154//154 153//153 155//155
f 154//154 155//155 156//156
f 152//152 157//157 150//150
f 158//158 159//159 160//160
f 161//161 159//159 158//158
f 162//162 159//159 161//161
f 163//163 162//162 161//161
f 164//164 162//162 163//163
f 165//165 162//162 164//164
f 9//9 166//166 8//8
f 166//166 9//9 167//167
f 168//168 169//169 170//170
f 168//168 171//171 169//169
f 172//172 169//169 173//173
f 174//174 169//169 172//172
f 169//169 174//174 175//175
f 176//176 169//169 175//175
f 177//177 169//169 176//176
f 178//178 169//169 177//177
f 178//178 179//179 169//169
f 179//179 180//180 169//169
f 180//180 181//181 169//169
f 182//182 181//181 180//180
f 182//182 183//183 181//181
f 183//183 184//184 181//181
f 184//184 185//185 181//181
f 185//185 186//186 181//181
f 186//186 187//187 181//181
f 187//187 188//188 181//181
f 188//188 189//189 181//181
f 181//181 189//189 190//190
f 181//181 190//190 191//191
f 192//192 181//181 191//191
f 193//193 181//181 192//192
f 194//194 181//181 193//193
f 195//195 181//181 194//194
f 195//195 196//196 181//181
f 196//196 197//197 198//198
f 196//196 198//198 199//199
f 199//199 200//200 196//196
f 196//196 200//200 201//201
f 201//201 202//202 196//196
f 196//196 202//202 203//203
f 196//196 203//203 204//204
f 205//205 196//196 206//206
f 207//207 196//196 205//205
