v 44.74424 -123.4852 62.75678
v 37.56778 -131.8235 44.95631
v 44.74424 -123.4852 62.75678
v 44.74424 -123.4852 62.75678
v 41.44449 -123.5579 64.12115
v 40.12459 -123.5869 64.6669
v 40.12459 -123.5869 64.6669
v 32.94812 -131.9252 46.86642
v 25.77166 -140.2635 29.06595
v 39.99873 -123.3799 64.62064
v 24.6389 -138.3998 28.64966
v 39.98309 -123.3541 64.6149
v 24.49813 -138.1683 28.59794
v 39.9787 -123.3469 64.61328
v 24.45861 -138.1032 28.58341
v 39.92935 -123.2657 64.59515
v 24.01446 -137.3725 28.42019
v 39.3209 -122.2647 64.37154
v 23.94685 -137.2613 28.39534
v 38.74401 -121.3156 64.15954
v 38.67764 -121.2064 64.13515
v 23.87538 -137.1437 28.36908
v 38.53922 -120.9787 64.08428
v 23.86 -137.1184 28.36343
v 38.17215 -120.3748 63.94939
v 23.81922 -137.0513 28.34844
v 37.98519 -120.3072 63.9931
v 22.78974 -136.6791 28.58911
v 22.13659 -136.4429 28.74181
v 37.9388 -120.2904 64.00394
v 21.71911 -136.2919 28.83941
v 37.925 -120.2854 64.00716
v 21.59486 -136.247 28.86845
v 37.82066 -120.2477 64.03156
v 20.65584 -135.9075 29.08798
v 36.62366 -119.8149 64.3114
v 20.52284 -135.8594 29.11908
v 35.63475 -119.4573 64.54259
v 20.41296 -135.8197 29.14476
v 34.65729 -119.1039 64.7711
v 20.30436 -135.7804 29.17015
v 34.56415 -119.1475 64.8291
v 19.46608 -136.1733 29.69217
v 34.35546 -119.2453 64.95906
v 17.58787 -137.0537 30.86179
v 33.77325 -119.5182 65.32162
v 33.54041 -119.6274 65.46661
v 17.49731 -137.0961 30.91818
v 32.74648 -119.9995 65.96102
v 17.4091 -137.1375 30.97312
v 32.09275 -120.3059 66.36811
v 17.33646 -137.1715 31.01835
v 31.63898 -120.5186 66.6507
v 17.28604 -137.1952 31.04975
v 17.28604 -137.1952 31.04975
v 31.59418 -120.7131 66.75984
v 16.88289 -138.9452 32.03205
v 31.581 -120.7703 66.79196
v 16.76423 -139.4603 32.32118
v 31.57965 -120.7762 66.79524
v 16.75212 -139.5129 32.35069
v 31.57903 -120.7789 66.79677
v 16.7465 -139.5373 32.36438
v 31.57824 -120.7823 66.79869
v 16.7394 -139.5681 32.38168
v 31.56361 -120.8458 66.83434
v 16.60772 -140.1397 32.70253
v 30.88529 -123.7904 68.48712
v 16.53235 -140.4669 32.88618
v 30.88529 -123.7904 68.48712
v 16.53235 -140.4669 32.88618
v 30.88529 -123.7904 68.48712
v 30.88529 -123.7904 68.48712
v 29.56539 -123.8194 69.03287
v 26.26564 -123.8921 70.39724
v 26.26564 -123.8921 70.39724
v 26.26564 -123.8921 70.39724
v 30.88529 -123.7904 68.48712
v 30.88529 -123.7904 68.48712
v 30.88529 -123.7904 68.48712
v 16.53235 -140.4669 32.88618
v 16.53235 -140.4669 32.88618
v 16.53235 -140.4669 32.88618
v 30.88529 -123.7904 68.48712
v 27.77301 -117.3486 66.72438
v 30.88529 -123.7904 68.48712
v 16.53235 -140.4669 32.88618
v 30.88529 -123.7904 68.48712
v 23.70882 -132.1286 50.68665
v 16.53235 -140.4669 32.88618
v 19.08917 -132.2303 52.59676
v 16.53236 -140.4669 32.88619
v 16.53235 -140.4669 32.88618
v 15.21245 -140.4959 33.43192
v 13.42008 -134.0251 31.12343
v 16.53235 -140.4669 32.88618
v 27.77301 -117.3486 66.72438
v 11.9127 -140.5686 34.79629
v 13.42008 -134.0251 31.12343
v 17.28604 -137.1952 31.04975
v 17.28604 -137.1952 31.04975
v 37.56778 -131.8235 44.95631
v 44.74424 -123.4852 62.75678
v 44.74424 -123.4852 62.75678
v 41.44449 -123.5579 64.12115
v 32.94812 -131.9252 46.86642
v 40.12459 -123.5869 64.6669
v 27.68518 -140.2213 28.27475
v 30.39131 -140.1617 27.15584
v 25.77166 -140.2635 29.06595
v 44.74424 -123.4852 62.75678
v 40.83936 -117.0609 61.32176
v 33.80964 -114.5191 62.96519
v 38.17215 -120.3748 63.94939
v 38.53922 -120.9787 64.08428
v 38.67764 -121.2064 64.13515
v 38.74401 -121.3156 64.15954
v 39.3209 -122.2647 64.37154
v 39.92935 -123.2657 64.59515
v 39.9787 -123.3469 64.61328
v 39.98309 -123.3541 64.6149
v 39.99873 -123.3799 64.62064
v 40.12459 -123.5869 64.6669
v 37.98519 -120.3072 63.9931
v 37.9388 -120.2904 64.00394
v 37.925 -120.2854 64.00716
v 37.82066 -120.2477 64.03156
v 36.62366 -119.8149 64.3114
v 35.63475 -119.4573 64.54259
v 34.65729 -119.1039 64.7711
v 34.56415 -119.1475 64.8291
v 34.35546 -119.2453 64.95906
v 33.77325 -119.5182 65.32162
v 27.77301 -117.3486 66.72438
v 33.54041 -119.6274 65.46661
v 32.74648 -119.9995 65.96102
v 32.09275 -120.3059 66.36811
v 31.63898 -120.5186 66.6507
v 31.59418 -120.7131 66.75984
v 31.581 -120.7703 66.79196
v 31.57965 -120.7762 66.79524
v 31.57903 -120.7789 66.79677
v 31.57824 -120.7823 66.79869
v 31.56361 -120.8458 66.83434
v 30.88529 -123.7904 68.48712
v 30.88529 -123.7904 68.48712
v 30.88529 -123.7904 68.48712
v 26.26564 -123.8921 70.39724
v 44.74424 -123.4852 62.75678
v 26.48643 -133.7374 25.72082
v 40.83936 -117.0609 61.32176
v 37.56778 -131.8235 44.95631
v 19.45671 -131.1956 27.36425
v 33.80964 -114.5191 62.96519
v 13.42008 -134.0251 31.12343
v 27.77301 -117.3486 66.72438
v 30.39131 -140.1617 27.15584
v 26.26564 -123.8921 70.39724
v 23.70882 -132.1286 50.68665
v 30.88529 -123.7904 68.48712
v 19.08917 -132.2303 52.59676
v 16.53236 -140.4669 32.88619
v 11.9127 -140.5686 34.79629
v 15.21245 -140.4959 33.43192
v 16.53235 -140.4669 32.88618
v 25.77166 -140.2635 29.06595
v 26.48643 -133.7374 25.72082
v 27.68518 -140.2213 28.27475
v 26.48643 -133.7374 25.72082
v 30.39131 -140.1617 27.15584
v 25.77166 -140.2635 29.06595
v 24.6389 -138.3998 28.64966
v 25.77166 -140.2635 29.06595
v 24.49813 -138.1683 28.59794
v 24.45861 -138.1032 28.58341
v 24.01446 -137.3725 28.42019
v 23.94685 -137.2613 28.39534
v 23.87538 -137.1437 28.36908
v 23.86 -137.1184 28.36343
v 23.81922 -137.0513 28.34844
v 19.45671 -131.1956 27.36425
v 22.78974 -136.6791 28.58911
v 22.13659 -136.4429 28.74181
v 21.71911 -136.2919 28.83941
v 21.59486 -136.247 28.86845
v 20.65584 -135.9075 29.08798
v 20.52284 -135.8594 29.11908
v 20.41296 -135.8197 29.14476
v 20.30436 -135.7804 29.17015
v 19.46608 -136.1733 29.69217
v 17.58787 -137.0537 30.86179
v 17.49731 -137.0961 30.91818
v 17.4091 -137.1375 30.97312
v 17.33646 -137.1715 31.01835
v 17.28604 -137.1952 31.04975
v 13.42008 -134.0251 31.12343
v 17.28604 -137.1952 31.04975
v 16.88289 -138.9452 32.03205
v 16.76423 -139.4603 32.32118
v 16.75212 -139.5129 32.35069
v 16.7465 -139.5373 32.36438
v 16.7394 -139.5681 32.38168
v 16.60772 -140.1397 32.70253
v 16.53235 -140.4669 32.88618
v 15.21245 -140.4959 33.43192
v 16.53235 -140.4669 32.88618
v 11.9127 -140.5686 34.79629

vn 0.9239296 0.02034359 -0.3820219
vn 0.9239295 0.02034353 -0.382022
vn 0.9246883 0.2747666 0.2635433
vn 0.3429499 0.3984699 0.850651
vn 0.3429499 0.3984699 0.850651
vn -0.7887208 -0.3697028 0.4911615
vn -0.8661433 0.03621307 0.4984827
vn -0.05490699 -0.895519 0.4416234
vn -0.7887233 -0.3696991 0.4911604
vn -0.7887238 -0.3696984 0.4911603
vn -0.7887236 -0.3696986 0.4911603
vn -0.7887231 -0.3696995 0.4911605
vn -0.7887225 -0.3697004 0.4911606
vn -0.7887253 -0.3696954 0.49116
vn -0.788724 -0.3696978 0.4911603
vn -0.7887237 -0.3696983 0.4911603
vn -0.7887239 -0.3696982 0.4911604
vn -0.7887238 -0.369698 0.4911603
vn -0.7887237 -0.3696983 0.4911604
vn -0.7887239 -0.369698 0.4911603
vn -0.7887233 -0.369699 0.4911605
vn -0.7887225 -0.3697003 0.4911607
vn -0.7887235 -0.3696984 0.4911604
vn -0.7887241 -0.3696977 0.4911603
vn -0.7027459 -0.4920734 0.5138215
vn -0.2343482 -0.8406435 0.4882619
vn -0.1969457 -0.8549429 0.4798808
vn -0.1969465 -0.8549424 0.479881
vn -0.1969468 -0.8549424 0.4798811
vn -0.1969487 -0.8549417 0.4798817
vn -0.1969498 -0.8549412 0.479882
vn -0.1969513 -0.8549405 0.4798826
vn -0.1969488 -0.8549416 0.4798818
vn -0.1969477 -0.854942 0.4798813
vn -0.1969472 -0.8549423 0.4798812
vn -0.1969472 -0.8549423 0.4798811
vn -0.1969482 -0.8549418 0.4798814
vn -0.1969476 -0.8549421 0.4798813
vn -0.1969465 -0.8549425 0.479881
vn -0.1360673 -0.8749474 0.4647077
vn 0.4570474 -0.861935 0.2194914
vn 0.510196 -0.8393724 0.187495
vn 0.5101969 -0.8393721 0.1874945
vn 0.5101974 -0.8393719 0.1874941
vn 0.5101974 -0.8393718 0.1874941
vn 0.510197 -0.8393719 0.1874943
vn 0.5101966 -0.8393721 0.1874947
vn 0.510197 -0.839372 0.1874944
vn 0.5101967 -0.8393722 0.1874946
vn 0.510197 -0.8393719 0.1874945
vn 0.510197 -0.839372 0.1874945
vn 0.5101966 -0.8393721 0.1874947
vn 0.6556224 -0.7500574 0.08702708
vn 0.5101783 -0.8393807 0.1875061
vn 0.9184755 -0.3321094 -0.2147242
vn 0.9184757 -0.3321083 -0.2147248
vn 0.9184759 -0.332108 -0.2147251
vn 0.918476 -0.3321069 -0.2147257
vn 0.9184757 -0.3321087 -0.2147246
vn 0.9184756 -0.33211 -0.2147236
vn 0.918475 -0.3321121 -0.214722
vn 0.9184681 -0.3321486 -0.2146955
vn 0.9184725 -0.3321258 -0.2147122
vn 0.9184769 -0.3321027 -0.2147287
vn 0.9184763 -0.3321061 -0.2147264
vn 0.9184757 -0.3321084 -0.2147247
vn 0.9184756 -0.3321089 -0.2147244
vn 0.9184756 -0.3321092 -0.2147243
vn 0.9184746 -0.3321135 -0.2147219
vn 0.8725049 -0.4706329 -0.1313022
vn 0.9239295 0.02034345 -0.3820221
vn 0.9239295 0.02034345 -0.3820221
vn 0.9239295 0.02034345 -0.3820221
vn 0.3429499 0.3984699 0.850651
vn -0.9184757 0.3321086 0.2147245
vn 0.3429499 0.3984699 0.850651
vn 0.04801746 -0.9118234 0.4077657
vn 0.8608353 0.3162058 0.3987189
vn 0.803846 0.340684 0.4876128
vn 0.9459608 0.04860293 -0.3206188
vn 0.9239295 0.02034345 -0.3820221
vn 0.9239295 0.02034345 -0.3820221
vn 0.9239295 0.02034345 -0.3820221
vn 0.9543399 0.06127871 -0.2923709
vn 0.3429499 0.3984699 0.850651
vn 0.9281992 0.02538245 -0.3712175
vn 0.9239295 0.02034345 -0.3820221
vn 0.9631439 0.07649113 -0.2578824
vn 0.9239283 0.02034953 -0.3820246
vn 0.9016702 -0.003612347 -0.4324098
vn -0.9184757 0.3321086 0.2147245
vn 0.9239255 0.02036514 -0.3820307
vn -0.3429435 -0.3984697 -0.8506536
vn -0.3429499 -0.3984699 -0.850651
vn -0.34295 -0.3984695 -0.8506511
vn 0 0 0
vn -0.9184757 0.3321087 0.2147245
vn -0.9184757 0.3321087 0.2147246
vn -0.9184758 0.3321087 0.2147246
vn -0.34295 -0.3984695 -0.8506511
vn -0.34295 -0.3984695 -0.8506511
vn 0.1695294 -0.9169561 0.3611811
vn 0.1695294 -0.916956 0.3611811
vn 0.1695294 -0.9169561 0.3611811
vn 0.1695294 -0.9169561 0.3611811
vn 0.1695294 -0.9169561 0.3611811
vn 0.1695294 -0.9169561 0.3611811
vn 0.1695294 -0.9169561 0.3611811
vn 0.1695294 -0.9169561 0.3611811
vn 0.1695294 -0.9169561 0.3611811
vn 0.3429499 0.3984699 0.850651
vn 0.3429499 0.3984699 0.850651
vn 0.3429499 0.3984699 0.850651
vn 0.3429499 0.3984699 0.850651
vn 0.3429499 0.3984699 0.850651
vn 0.3429499 0.3984699 0.850651
vn 0.3429499 0.3984699 0.850651
vn 0.3429499 0.3984699 0.850651
vn 0.3429499 0.3984699 0.850651
vn 0.3429499 0.3984699 0.850651
vn 0.3429499 0.3984699 0.850651
vn 0.3429499 0.3984699 0.850651
vn 0.3429499 0.3984699 0.850651
vn 0.3429499 0.3984699 0.850651
vn 0.3429499 0.3984699 0.850651
vn 0.3429499 0.3984699 0.850651
vn 0.3429499 0.3984699 0.850651
vn 0.3429499 0.3984699 0.850651
vn 0.3429499 0.3984699 0.850651
vn 0.3429499 0.3984699 0.850651
vn 0.3429499 0.3984699 0.850651
vn 0.3429499 0.3984699 0.850651
vn 0.3429499 0.3984699 0.850651
vn 0.3429499 0.3984699 0.850651
vn 0.3429499 0.3984699 0.850651
vn 0.3429499 0.3984699 0.850651
vn 0.3429499 0.3984699 0.850651
vn 0.3429499 0.3984699 0.850651
vn 0.3429499 0.3984699 0.850651
vn 0.3429499 0.3984699 0.850651
vn 0.3429499 0.3984699 0.850651
vn 0.3429499 0.3984699 0.850651
vn 0.3429499 0.3984699 0.850651
vn 0.3429499 0.3984699 0.850651
vn 0.3429499 0.3984699 0.850651
vn 0.3429499 0.3984699 0.850651
vn 0.3429499 0.3984699 0.850651
vn 0.3429499 0.3984699 0.850651
vn 0.7887236 0.3696987 -0.4911604
vn 0.6341807 0.5698277 -0.5226009
vn 0.4226759 0.743257 -0.5185696
vn 0.7887235 0.3696987 -0.4911603
vn -0.04156712 0.9111213 -0.4100374
vn -0.2943054 0.9055564 -0.3055363
vn -0.5101971 0.8393719 -0.1874944
vn -0.5101971 0.8393719 -0.1874944
vn 0.7887235 0.3696986 -0.4911604
vn 0.1695294 -0.9169561 0.3611811
vn 0.1695294 -0.9169561 0.3611811
vn 0.1695294 -0.9169561 0.3611811
vn 0.1695294 -0.9169561 0.3611811
vn 0.1695294 -0.9169561 0.3611811
vn 0.1695294 -0.9169561 0.3611811
vn 0.1695294 -0.9169561 0.3611811
vn 0.1695294 -0.916956 0.3611811
vn -0.974281 -0.1007316 0.2015689
vn -0.3429492 -0.3984699 -0.8506513
vn -0.34295 -0.3984697 -0.850651
vn -0.3429499 -0.3984697 -0.8506511
vn -0.34295 -0.3984697 -0.8506511
vn -0.34295 -0.3984697 -0.8506511
vn -0.3429497 -0.3984697 -0.8506511
vn -0.3429497 -0.3984697 -0.8506511
vn -0.3429497 -0.3984697 -0.8506511
vn -0.3429497 -0.3984697 -0.8506511
vn -0.3429497 -0.3984697 -0.8506511
vn -0.3429497 -0.3984697 -0.8506511
vn -0.3429497 -0.3984697 -0.8506511
vn -0.3429497 -0.3984697 -0.8506511
vn -0.3429499 -0.3984696 -0.8506511
vn -0.34295 -0.3984696 -0.8506511
vn -0.3429499 -0.3984696 -0.8506511
vn -0.3429499 -0.3984696 -0.8506511
vn -0.3429499 -0.3984696 -0.8506511
vn -0.3429499 -0.3984696 -0.8506511
vn -0.3429499 -0.3984696 -0.8506511
vn -0.3429499 -0.3984696 -0.8506511
vn -0.3429499 -0.3984696 -0.8506511
vn -0.3429501 -0.3984696 -0.8506511
vn -0.3429501 -0.3984696 -0.8506511
vn -0.3429501 -0.3984696 -0.8506511
vn -0.3429501 -0.3984696 -0.8506511
vn -0.3429501 -0.3984696 -0.8506511
vn -0.3429501 -0.3984696 -0.8506511
vn -0.3429501 -0.3984696 -0.8506511
vn -0.3429501 -0.3984697 -0.850651
vn -0.3429502 -0.3984698 -0.850651
vn -0.3429502 -0.3984698 -0.850651
vn -0.3429502 -0.3984698 -0.850651
vn -0.3429502 -0.3984698 -0.850651
vn -0.3429502 -0.3984698 -0.850651
vn -0.3429502 -0.3984698 -0.850651
vn -0.3429502 -0.3984698 -0.850651
vn -0.3429502 -0.3984697 -0.8506509
vn -0.34295 -0.3984697 -0.8506511
vn -0.34295 -0.3984697 -0.8506511
vn -0.34295 -0.3984697 -0.850651

f 1//1 2//2 3//3
f 4//4 1//1 3//3
f 3//3 5//5 4//4
f 3//3 6//6 5//5
f 5//5 6//6 7//7
f 8//8 7//7 6//6
f 9//9 8//8 6//6
f 10//10 9//9 6//6
f 9//9 10//10 11//11
f 11//11 10//10 12//12
f 13//13 11//11 12//12
f 13//13 12//12 14//14
f 13//13 14//14 15//15
f 15//15 14//14 16//16
f 15//15 16//16 17//17
f 18//18 17//17 16//16
f 19//19 17//17 18//18
f 19//19 18//18 20//20
f 21//21 19//19 20//20
f 22//22 19//19 21//21
f 22//22 21//21 23//23
f 24//24 22//22 23//23
f 24//24 23//23 25//25
f 26//26 24//24 25//25
f 26//26 25//25 27//27
f 28//28 26//26 27//27
f 28//28 27//27 29//29
f 29//29 27//27 30//30
f 31//31 29//29 30//30
f 31//31 30//30 32//32
f 33//33 31//31 32//32
f 33//33 32//32 34//34
f 35//35 33//33 34//34
f 35//35 34//34 36//36
f 37//37 35//35 36//36
f 37//37 36//36 38//38
f 39//39 37//37 38//38
f 39//39 38//38 40//40
f 41//41 39//39 40//40
f 41//41 40//40 42//42
f 41//41 42//42 43//43
f 43//43 42//42 44//44
f 45//45 43//43 44//44
f 45//45 44//44 46//46
f 47//47 45//45 46//46
f 48//48 45//45 47//47
f 48//48 47//47 49//49
f 50//50 48//48 49//49
f 50//50 49//49 51//51
f 52//52 50//50 51//51
f 52//52 51//51 53//53
f 54//54 52//52 53//53
f 55//55 54//54 53//53
f 55//55 53//53 56//56
f 55//55 56//56 57//57
f 57//57 56//56 58//58
f 57//57 58//58 59//59
f 59//59 58//58 60//60
f 59//59 60//60 61//61
f 61//61 60//60 62//62
f 61//61 62//62 63//63
f 63//63 62//62 64//64
f 63//63 64//64 65//65
f 65//65 64//64 66//66
f 65//65 66//66 67//67
f 68//68 67//67 66//66
f 69//69 67//67 68//68
f 69//69 68//68 70//70
f 71//71 69//69 70//70
f 72//72 71//71 73//73
f 74//74 75//75 76//76
f 77//77 74//74 76//76
f 75//75 77//77 76//76
f 78//78 75//75 74//74
f 79//79 75//75 78//78
f 78//78 74//74 80//80
f 81//81 78//78 80//80
f 82//82 78//78 81//81
f 82//82 83//83 78//78
f 83//83 84//84 79//79
f 84//84 85//85 79//79
f 80//80 74//74 86//86
f 87//87 80//80 86//86
f 81//81 80//80 87//87
f 86//86 74//74 88//88
f 88//88 74//74 77//77
f 86//86 88//88 89//89
f 90//90 86//86 89//89
f 87//87 86//86 90//90
f 75//75 91//91 77//77
f 90//90 89//89 92//92
f 90//90 92//92 93//93
f 94//94 90//90 93//93
f 95//95 83//83 82//82
f 95//95 82//82 81//81
f 95//95 81//81 87//87
f 95//95 87//87 90//90
f 95//95 96//96 83//83
f 97//97 91//91 75//75
f 97//97 98//98 91//91
f 97//97 99//99 98//98
f 100//100 95//95 101//101
f 102//102 103//103 104//104
f 102//102 104//104 105//105
f 102//102 105//105 106//106
f 106//106 105//105 107//107
f 108//108 102//102 106//106
f 109//109 102//102 108//108
f 110//110 108//108 106//106
f 111//111 112//112 113//113
f 111//111 113//113 114//114
f 111//111 114//114 115//115
f 111//111 115//115 116//116
f 111//111 116//116 117//117
f 117//117 118//118 111//111
f 118//118 119//119 111//111
f 120//120 111//111 119//119
f 120//120 121//121 111//111
f 121//121 122//122 111//111
f 111//111 122//122 123//123
f 114//114 113//113 124//124
f 124//124 113//113 125//125
f 125//125 113//113 126//126
f 126//126 113//113 127//127
f 127//127 113//113 128//128
f 128//128 113//113 129//129
f 129//129 113//113 130//130
f 130//130 113//113 131//131
f 131//131 113//113 132//132
f 132//132 113//113 133//133
f 133//133 113//113 134//134
f 133//133 134//134 135//135
f 135//135 134//134 136//136
f 134//134 137//137 136//136
f 137//137 134//134 138//138
f 138//138 134//134 139//139
f 139//139 134//134 140//140
f 140//140 134//134 141//141
f 134//134 142//142 141//141
f 134//134 143//143 142//142
f 134//134 144//144 143//143
f 144//144 134//134 145//145
f 145//145 134//134 146//146
f 147//147 134//134 148//148
f 149//149 150//150 151//151
f 149//149 152//152 150//150
f 151//151 150//150 153//153
f 151//151 153//153 154//154
f 154//154 153//153 155//155
f 154//154 155//155 156//156
f 152//152 157//157 150//150
f 158//158 159//159 160//160
f 161//161 159//159 158//158
f 162//162 159//159 161//161
f 163//163 162//162 161//161
f 164//164 162//162 163//163
f 165//165 162//162 164//164
f 9//9 166//166 8//8
f 166//166 9//9 167//167
f 168//168 169//169 170//170
f 168//168 171//171 169//169
f 172//172 169//169 173//173
f 174//174 169//169 172//172
f 169//169 174//174 175//175
f 176//176 169//169 175//175
f 177//177 169//169 176//176
f 178//178 169//169 177//177
f 178//178 179//179 169//169
f 179//179 180//180 169//169
f 180//180 181//181 169//169
f 182//182 181//181 180//180
f 182//182 183//183 181//181
f 183//183 184//184 181//181
f 184//184 185//185 181//181
f 185//185 186//186 181//181
f 186//186 187//187 181//181
f 187//187 188//188 181//181
f 188//188 189//189 181//181
f 181//181 189//189 190//190
f 181//181 190//190 191//191
f 192//192 181//181 191//191
f 193//193 181//181 192//192
f 194//194 181//181 193//193
f 195//195 181//181 194//194
f 195//195 196//196 181//181
f 196//196 197//197 198//198
f 196//196 198//198 199//199
f 199//199 200//200 196//196
f 196//196 200//200 201//201
f 201//201 202//202 196//196
f 196//196 202//202 203//203
f 196//196 203//203 204//204
f 205//205 196//196 206//206
f 207//207 196//196 205//205
