v 99.88065 80.05844 -63.32339
v 110.0285 75.80989 -45.52292
v 99.88065 80.05844 -63.32339
v 99.88065 80.05844 -63.32339
v 101.1103 77.02345 -64.7488
v 101.6022 75.80945 -65.31896
v 101.6022 75.80945 -65.31896
v 111.75 71.5609 -47.51849
v 121.8978 67.31235 -29.71802
v 101.8179 75.84009 -65.43463
v 123.8394 67.58811 -30.75906
v 101.8447 75.8439 -65.44901
v 124.0806 67.62238 -30.88843
v 101.8523 75.84497 -65.45304
v 124.1484 67.632 -30.92475
v 101.9369 75.85698 -65.4984
v 124.9097 67.74014 -31.33294
v 102.9797 76.00511 -66.05758
v 125.0255 67.75659 -31.39507
v 103.9685 76.14555 -66.58775
v 104.0823 76.16171 -66.64875
v 125.148 67.77399 -31.46075
v 104.3195 76.1954 -66.77596
v 125.1744 67.77773 -31.47489
v 104.9487 76.28477 -67.11331
v 125.2443 67.78767 -31.51237
v 105.0761 76.16285 -67.21503
v 125.9457 67.11632 -32.07245
v 126.3907 66.69038 -32.42779
v 105.1077 76.1326 -67.24026
v 126.6751 66.41814 -32.65491
v 105.1171 76.1236 -67.24777
v 126.7597 66.33711 -32.72251
v 105.1882 76.05556 -67.30453
v 127.3995 65.72475 -33.23337
v 106.0037 75.27496 -67.95575
v 127.4901 65.63802 -33.30573
v 106.6774 74.63007 -68.49376
v 127.565 65.56637 -33.36551
v 107.3433 73.99265 -69.02553
v 127.6389 65.49554 -33.42459
v 107.3446 73.87795 -69.05361
v 127.6501 64.46326 -33.67731
v 107.3473 73.62096 -69.11653
v 127.675 62.15036 -34.24355
v 107.3551 72.90401 -69.29205
v 107.3581 72.61728 -69.36224
v 127.6762 62.03885 -34.27084
v 107.3687 71.6396 -69.60159
v 127.6773 61.93021 -34.29744
v 107.3773 70.83459 -69.79868
v 127.6783 61.84077 -34.31934
v 107.3834 70.27579 -69.93548
v 127.679 61.77868 -34.33454
v 127.679 61.77868 -34.33454
v 107.2444 70.09961 -69.89831
v 126.4284 60.19307 -34.00003
v 107.2035 70.04775 -69.88737
v 126.0603 59.72636 -33.90157
v 107.1993 70.04246 -69.88625
v 126.0227 59.67872 -33.89152
v 107.1974 70.04 -69.88573
v 126.0053 59.65662 -33.88686
v 107.1949 70.0369 -69.88508
v 125.9832 59.6287 -33.88097
v 107.1496 69.97935 -69.87294
v 125.5747 59.11079 -33.77171
v 105.0453 67.31147 -69.31011
v 125.3409 58.81436 -33.70917
v 105.0453 67.31146 -69.31011
v 125.3409 58.81436 -33.70917
v 105.0453 67.31146 -69.31011
v 105.0453 67.31146 -69.31011
v 105.5372 66.09747 -69.88027
v 106.7669 63.06247 -71.30568
v 106.7669 63.06247 -71.30568
v 106.7669 63.06247 -71.30568
v 105.0453 67.31146 -69.31011
v 105.0453 67.31146 -69.31011
v 105.0453 67.31146 -69.31011
v 125.3409 58.81436 -33.70917
v 125.3409 58.81436 -33.70917
v 125.3409 58.81436 -33.70917
v 105.0453 67.31146 -69.31011
v 111.443 68.99111 -72.55642
v 105.0453 67.31146 -69.31011
v 125.3409 58.81436 -33.70917
v 105.0453 67.31146 -69.31011
v 115.1931 63.06291 -51.50964
v 125.3409 58.81436 -33.70917
v 116.9147 58.81392 -53.50521
v 125.3409 58.81436 -33.70919
v 125.3409 58.81436 -33.70917
v 125.8328 57.60036 -34.27934
v 131.7386 60.49401 -36.95548
v 125.3409 58.81436 -33.70917
v 111.443 68.99111 -72.55642
v 127.0625 54.56537 -35.70474
v 131.7386 60.49401 -36.95548
v 127.679 61.77868 -34.33454
v 127.679 61.77868 -34.33454
v 110.0285 75.80989 -45.52292
v 99.88065 80.05844 -63.32339
v 99.88065 80.05844 -63.32339
v 101.1103 77.02345 -64.7488
v 111.75 71.5609 -47.51849
v 101.6022 75.80945 -65.31896
v 121.1847 69.07233 -28.89143
v 120.1763 71.56134 -27.72245
v 121.8978 67.31235 -29.71802
v 99.88065 80.05844 -63.32339
v 106.5736 81.00908 -66.91209
v 111.3629 76.42484 -70.73653
v 104.9487 76.28477 -67.11331
v 104.3195 76.1954 -66.77596
v 104.0823 76.16171 -66.64875
v 103.9685 76.14555 -66.58775
v 102.9797 76.00511 -66.05758
v 101.9369 75.85698 -65.4984
v 101.8523 75.84497 -65.45304
v 101.8447 75.8439 -65.44901
v 101.8179 75.84009 -65.43463
v 101.6022 75.80945 -65.31896
v 105.0761 76.16285 -67.21503
v 105.1077 76.1326 -67.24026
v 105.1171 76.1236 -67.24777
v 105.1882 76.05556 -67.30453
v 106.0037 75.27496 -67.95575
v 106.6774 74.63007 -68.49376
v 107.3433 73.99265 -69.02553
v 107.3446 73.87795 -69.05361
v 107.3473 73.62096 -69.11653
v 107.3551 72.90401 -69.29205
v 111.443 68.99111 -72.55642
v 107.3581 72.61728 -69.36224
v 107.3687 71.6396 -69.60159
v 107.3773 70.83459 -69.79868
v 107.3834 70.27579 -69.93548
v 107.2444 70.09961 -69.89831
v 107.2035 70.04775 -69.88737
v 107.1993 70.04246 -69.88625
v 107.1974 70.04 -69.88573
v 107.1949 70.0369 -69.88508
v 107.1496 69.97935 -69.87294
v 105.0453 67.31147 -69.31011
v 105.0453 67.31146 -69.31011
v 105.0453 67.31146 -69.31011
v 106.7669 63.06247 -71.30568
v 99.88065 80.05844 -63.32339
v 126.8693 72.51198 -31.31115
v 106.5736 81.00908 -66.91209
v 110.0285 75.80989 -45.52292
v 131.6585 67.92773 -35.13559
v 111.3629 76.42484 -70.73653
v 131.7386 60.49401 -36.95548
v 111.443 68.99111 -72.55642
v 120.1763 71.56134 -27.72245
v 106.7669 63.06247 -71.30568
v 115.1931 63.06291 -51.50964
v 105.0453 67.31146 -69.31011
v 116.9147 58.81392 -53.50521
v 125.3409 58.81436 -33.70919
v 127.0625 54.56537 -35.70474
v 125.8328 57.60036 -34.27934
v 125.3409 58.81436 -33.70917
v 121.8978 67.31235 -29.71802
v 126.8693 72.51198 -31.31115
v 121.1847 69.07233 -28.89143
v 126.8693 72.51198 -31.31115
v 120.1763 71.56134 -27.72245
v 121.8978 67.31235 -29.71802
v 123.8394 67.58811 -30.75906
v 121.8978 67.31235 -29.71802
v 124.0806 67.62238 -30.88843
v 124.1484 67.632 -30.92475
v 124.9097 67.74014 -31.33294
v 125.0255 67.75659 -31.39507
v 125.148 67.77399 -31.46075
v 125.1744 67.77773 -31.47489
v 125.2443 67.78767 -31.51237
v 131.6585 67.92773 -35.13559
v 125.9457 67.11632 -32.07245
v 126.3907 66.69038 -32.42779
v 126.6751 66.41814 -32.65491
v 126.7597 66.33711 -32.72251
v 127.3995 65.72475 -33.23337
v 127.4901 65.63802 -33.30573
v 127.565 65.56637 -33.36551
v 127.6389 65.49554 -33.42459
v 127.6501 64.46326 -33.67731
v 127.675 62.15036 -34.24355
v 127.6762 62.03885 -34.27084
v 127.6773 61.93021 -34.29744
v 127.6783 61.84077 -34.31934
v 127.679 61.77868 -34.33454
v 131.7386 60.49401 -36.95548
v 127.679 61.77868 -34.33454
v 126.4284 60.19307 -34.00003
v 126.0603 59.72636 -33.90157
v 126.0227 59.67872 -33.89152
v 126.0053 59.65662 -33.88686
v 125.9832 59.6287 -33.88097
v 125.5747 59.11079 -33.77171
v 125.3409 58.81436 -33.70917
v 125.8328 57.60036 -34.27934
v 125.3409 58.81436 -33.70917
v 127.0625 54.56537 -35.70474

vn -0.3443123 0.8497983 0.399114
vn -0.3443122 0.8497982 0.3991142
vn -0.577019 0.7773454 -0.2505661
vn -0.4849446 0.2030305 -0.8506511
vn -0.4849446 0.2030305 -0.8506511
vn 0.01045395 -0.9712634 -0.2377774
vn 0.2722702 -0.8125446 -0.5154032
vn -0.6990525 -0.6744622 0.2375422
vn 0.01045813 -0.9712629 -0.2377793
vn 0.01045885 -0.9712629 -0.2377798
vn 0.01045857 -0.9712629 -0.2377795
vn 0.01045772 -0.9712631 -0.237779
vn 0.01045682 -0.9712631 -0.2377784
vn 0.0104616 -0.9712623 -0.2377817
vn 0.01045931 -0.9712627 -0.2377801
vn 0.01045887 -0.9712628 -0.2377798
vn 0.01045899 -0.9712629 -0.2377799
vn 0.01045907 -0.9712628 -0.23778
vn 0.01045882 -0.9712628 -0.2377798
vn 0.01045913 -0.9712628 -0.23778
vn 0.0104581 -0.9712629 -0.2377794
vn 0.01045674 -0.9712631 -0.2377786
vn 0.0104586 -0.9712628 -0.2377798
vn 0.01045938 -0.9712628 -0.2377802
vn -0.1215613 -0.9788854 -0.1643363
vn -0.5848532 -0.7984627 0.1428428
vn -0.6109586 -0.7746124 0.1634177
vn -0.610958 -0.7746128 0.1634172
vn -0.6109579 -0.7746131 0.1634171
vn -0.6109567 -0.7746143 0.1634159
vn -0.6109558 -0.774615 0.1634152
vn -0.6109549 -0.774616 0.1634141
vn -0.6109565 -0.7746144 0.1634158
vn -0.6109571 -0.7746136 0.1634165
vn -0.6109576 -0.7746134 0.1634169
vn -0.6109576 -0.7746133 0.163417
vn -0.6109568 -0.7746139 0.1634163
vn -0.6109573 -0.7746136 0.1634167
vn -0.610958 -0.7746129 0.1634173
vn -0.6508186 -0.733511 0.1959513
vn -0.8718869 -0.1880175 0.4521757
vn -0.8744822 -0.1242079 0.468885
vn -0.8744823 -0.1242068 0.4688854
vn -0.8744823 -0.1242062 0.4688856
vn -0.8744823 -0.1242061 0.4688855
vn -0.8744822 -0.1242066 0.4688854
vn -0.8744823 -0.1242071 0.4688852
vn -0.8744823 -0.1242067 0.4688853
vn -0.8744823 -0.124207 0.4688852
vn -0.8744823 -0.1242067 0.4688853
vn -0.8744824 -0.1242067 0.4688853
vn -0.8744823 -0.1242071 0.4688852
vn -0.8593951 0.06963126 0.5065488
vn -0.874482 -0.1242297 0.4688796
vn -0.6257478 0.598959 0.4996876
vn -0.625747 0.59896 0.4996874
vn -0.6257468 0.5989604 0.4996874
vn -0.6257459 0.5989612 0.4996873
vn -0.6257473 0.5989597 0.4996875
vn -0.6257485 0.5989586 0.4996876
vn -0.6257502 0.5989564 0.4996877
vn -0.6257806 0.5989226 0.4996903
vn -0.6257615 0.5989438 0.4996887
vn -0.6257425 0.5989652 0.499687
vn -0.6257452 0.5989621 0.4996873
vn -0.6257471 0.5989599 0.4996874
vn -0.6257474 0.5989594 0.4996875
vn -0.6257477 0.5989593 0.4996876
vn -0.6257507 0.5989553 0.4996885
vn -0.7192506 0.4607352 0.5200016
vn -0.3443121 0.8497982 0.3991143
vn -0.3443121 0.8497982 0.3991143
vn -0.3443121 0.8497982 0.3991143
vn -0.4849446 0.2030305 -0.8506511
vn 0.6257473 -0.5989598 -0.4996873
vn -0.4849446 0.2030305 -0.8506511
vn -0.7523493 -0.5927526 0.2874282
vn -0.5923665 0.706296 -0.3876183
vn -0.5946383 0.6464801 -0.4779841
vn -0.3778968 0.8620757 0.3376678
vn -0.3443121 0.8497982 0.3991143
vn -0.3443121 0.8497982 0.3991143
vn -0.3443121 0.8497982 0.3991143
vn -0.3924313 0.8661909 0.3093721
vn -0.4849446 0.2030305 -0.8506511
vn -0.3504301 0.8522983 0.3883123
vn -0.3443121 0.8497982 0.3991143
vn -0.4094331 0.8699701 0.2748028
vn -0.3443068 0.8498014 0.399112
vn -0.3145689 0.8360777 0.4494668
vn 0.6257473 -0.5989597 -0.4996874
vn -0.3442931 0.8498097 0.3991062
vn 0.4849423 -0.2030246 0.8506539
vn 0.4849446 -0.2030305 0.8506511
vn 0.484945 -0.2030303 0.850651
vn 0 0 0
vn 0.6257473 -0.5989597 -0.4996875
vn 0.6257473 -0.5989597 -0.4996875
vn 0.6257474 -0.5989597 -0.4996875
vn 0.484945 -0.2030303 0.850651
vn 0.484945 -0.2030303 0.850651
vn -0.8039141 -0.4864379 0.3421993
vn -0.803914 -0.4864379 0.3421993
vn -0.8039141 -0.4864379 0.3421993
vn -0.8039141 -0.4864379 0.3421993
vn -0.8039141 -0.4864379 0.3421993
vn -0.8039141 -0.4864379 0.3421993
vn -0.8039141 -0.4864379 0.3421993
vn -0.8039141 -0.4864379 0.3421993
vn -0.8039141 -0.4864379 0.3421993
vn -0.4849446 0.2030305 -0.8506511
vn -0.4849446 0.2030305 -0.8506511
vn -0.4849446 0.2030305 -0.8506511
vn -0.4849446 0.2030305 -0.8506511
vn -0.4849446 0.2030305 -0.8506511
vn -0.4849446 0.2030305 -0.8506511
vn -0.4849446 0.2030305 -0.8506511
vn -0.4849446 0.2030305 -0.8506511
vn -0.4849446 0.2030305 -0.8506511
vn -0.4849446 0.2030305 -0.8506511
vn -0.4849446 0.2030305 -0.8506511
vn -0.4849446 0.2030305 -0.8506511
vn -0.4849446 0.2030305 -0.8506511
vn -0.4849446 0.2030305 -0.8506511
vn -0.4849446 0.2030305 -0.8506511
vn -0.4849446 0.2030305 -0.8506511
vn -0.4849446 0.2030305 -0.8506511
vn -0.4849446 0.2030305 -0.8506511
vn -0.4849446 0.2030305 -0.8506511
vn -0.4849446 0.2030305 -0.8506511
vn -0.4849446 0.2030305 -0.8506511
vn -0.4849446 0.2030305 -0.8506511
vn -0.4849446 0.2030305 -0.8506511
vn -0.4849446 0.2030305 -0.8506511
vn -0.4849446 0.2030305 -0.8506511
vn -0.4849446 0.2030305 -0.8506511
vn -0.4849446 0.2030305 -0.8506511
vn -0.4849446 0.2030305 -0.8506511
vn -0.4849446 0.2030305 -0.8506511
vn -0.4849446 0.2030305 -0.8506511
vn -0.4849446 0.2030305 -0.8506511
vn -0.4849446 0.2030305 -0.8506511
vn -0.4849446 0.2030305 -0.8506511
vn -0.4849446 0.2030305 -0.8506511
vn -0.4849446 0.2030305 -0.8506511
vn -0.4849446 0.2030305 -0.8506511
vn -0.4849446 0.2030305 -0.8506511
vn -0.4849446 0.2030305 -0.8506511
vn -0.01045854 0.9712629 0.2377795
vn 0.2108844 0.971124 0.1115618
vn 0.4329826 0.9008402 -0.03182842
vn -0.0104585 0.9712628 0.2377795
vn 0.7492664 0.5980965 -0.2843952
vn 0.843452 0.3656366 -0.3935718
vn 0.8744823 0.1242065 -0.4688853
vn 0.8744823 0.1242065 -0.4688853
vn -0.01045858 0.9712628 0.2377796
vn -0.8039141 -0.4864379 0.3421993
vn -0.8039141 -0.4864379 0.3421993
vn -0.8039141 -0.4864379 0.3421993
vn -0.8039141 -0.4864379 0.3421993
vn -0.8039141 -0.4864379 0.3421993
vn -0.8039141 -0.4864379 0.3421993
vn -0.8039141 -0.4864379 0.3421994
vn -0.803914 -0.4864379 0.3421993
vn 0.4355054 -0.8733141 -0.2183059
vn 0.4849444 -0.2030299 0.8506514
vn 0.4849448 -0.2030304 0.850651
vn 0.4849448 -0.2030303 0.8506511
vn 0.4849448 -0.2030304 0.8506511
vn 0.4849448 -0.2030304 0.8506511
vn 0.4849446 -0.2030302 0.8506512
vn 0.4849446 -0.2030302 0.8506512
vn 0.4849446 -0.2030302 0.8506512
vn 0.4849446 -0.2030302 0.8506512
vn 0.4849446 -0.2030302 0.8506512
vn 0.4849446 -0.2030302 0.8506511
vn 0.4849446 -0.2030302 0.8506512
vn 0.4849446 -0.2030302 0.8506511
vn 0.4849449 -0.2030302 0.8506511
vn 0.4849449 -0.2030303 0.850651
vn 0.4849449 -0.2030302 0.8506511
vn 0.4849449 -0.2030302 0.8506511
vn 0.4849449 -0.2030302 0.8506511
vn 0.4849449 -0.2030302 0.8506511
vn 0.4849449 -0.2030302 0.8506511
vn 0.4849449 -0.2030302 0.8506511
vn 0.4849449 -0.2030302 0.8506511
vn 0.4849449 -0.2030304 0.850651
vn 0.4849449 -0.2030305 0.850651
vn 0.4849449 -0.2030305 0.850651
vn 0.4849449 -0.2030305 0.850651
vn 0.4849449 -0.2030305 0.850651
vn 0.4849449 -0.2030305 0.850651
vn 0.4849449 -0.2030305 0.850651
vn 0.4849449 -0.2030305 0.850651
vn 0.4849449 -0.2030307 0.850651
vn 0.4849449 -0.2030307 0.850651
vn 0.4849449 -0.2030307 0.850651
vn 0.4849449 -0.2030307 0.850651
vn 0.4849449 -0.2030307 0.850651
vn 0.4849449 -0.2030307 0.850651
vn 0.4849449 -0.2030307 0.850651
vn 0.4849448 -0.2030307 0.8506509
vn 0.4849448 -0.2030304 0.8506511
vn 0.4849448 -0.2030304 0.8506511
vn 0.4849448 -0.2030304 0.850651

f 1//1 2//2 3//3
f 4//4 1//1 3//3
f 3//3 5//5 4//4
f 3//3 6//6 5//5
f 5//5 6//6 7//7
f 8//8 7//7 6//6
f 9//9 8//8 6//6
f 10//10 9//9 6//6
f 9//9 10//10 11//11
f 11//11 10//10 12//12
f 13//13 11//11 12//12
f 13//13 12//12 14//14
f 13//13 14//14 15//15
f 15//15 14//14 16//16
f 15//15 16//16 17//17
f 18//18 17//17 16//16
f 19//19 17//17 18//18
f 19//19 18//18 20//20
f 21//21 19//19 20//20
f 22//22 19//19 21//21
f 22//22 21//21 23//23
f 24//24 22//22 23//23
f 24//24 23//23 25//25
f 26//26 24//24 25//25
f 26//26 25//25 27//27
f 28//28 26//26 27//27
f 28//28 27//27 29//29
f 29//29 27//27 30//30
f 31//31 29//29 30//30
f 31//31 30//30 32//32
f 33//33 31//31 32//32
f 33//33 32//32 34//34
f 35//35 33//33 34//34
f 35//35 34//34 36//36
f 37//37 35//35 36//36
f 37//37 36//36 38//38
f 39//39 37//37 38//38
f 39//39 38//38 40//40
f 41//41 39//39 40//40
f 41//41 40//40 42//42
f 41//41 42//42 43//43
f 43//43 42//42 44//44
f 45//45 43//43 44//44
f 45//45 44//44 46//46
f 47//47 45//45 46//46
f 48//48 45//45 47//47
f 48//48 47//47 49//49
f 50//50 48//48 49//49
f 50//50 49//49 51//51
f 52//52 50//50 51//51
f 52//52 51//51 53//53
f 54//54 52//52 53//53
f 55//55 54//54 53//53
f 55//55 53//53 56//56
f 55//55 56//56 57//57
f 57//57 56//56 58//58
f 57//57 58//58 59//59
f 59//59 58//58 60//60
f 59//59 60//60 61//61
f 61//61 60//60 62//62
f 61//61 62//62 63//63
f 63//63 62//62 64//64
f 63//63 64//64 65//65
f 65//65 64//64 66//66
f 65//65 66//66 67//67
f 68//68 67//67 66//66
f 69//69 67//67 68//68
f 69//69 68//68 70//70
f 71//71 69//69 70//70
f 72//72 71//71 73//73
f 74//74 75//75 76//76
f 77//77 74//74 76//76
f 75//75 77//77 76//76
f 78//78 75//75 74//74
f 79//79 75//75 78//78
f 78//78 74//74 80//80
f 81//81 78//78 80//80
f 82//82 78//78 81//81
f 82//82 83//83 78//78
f 83//83 84//84 79//79
f 84//84 85//85 79//79
f 80//80 74//74 86//86
f 87//87 80//80 86//86
f 81//81 80//80 87//87
f 86//86 74//74 88//88
f 88//88 74//74 77//77
f 86//86 88//88 89//89
f 90//90 86//86 89//89
f 87//87 86//86 90//90
f 75//75 91//91 77//77
f 90//90 89//89 92//92
f 90//90 92//92 93//93
f 94//94 90//90 93//93
f 95//95 83//83 82//82
f 95//95 82//82 81//81
f 95//95 81//81 87//87
f 95//95 87//87 90//90
f 95//95 96//96 83//83
f 97//97 91//91 75//75
f 97//97 98//98 91//91
f 97//97 99//99 98//98
f 100//100 95//95 101//101
f 102//102 103//103 104//104
f 102//102 104//104 105//105
f 102//102 105//105 106//106
f 106//106 105//105 107//107
f 108//108 102//102 106//106
f 109//109 102//102 108//108
f 110//110 108//108 106//106
f 111//111 112//112 113//113
f 111//111 113//113 114//114
f 111//111 114//114 115//115
f 111//111 115//115 116//116
f 111//111 116//116 117//117
f 117//117 118//118 111//111
f 118//118 119//119 111//111
f 120//120 111//111 119//119
f 120//120 121//121 111//111
f 121//121 122//122 111//111
f 111//111 122//122 123//123
f 114//114 113//113 124//124
f 124//124 113//113 125//125
f 125//125 113//113 126//126
f 126//126 113//113 127//127
f 127//127 113//113 128//128
f 128//128 113//113 129//129
f 129//129 113//113 130//130
f 130//130 113//113 131//131
f 131//131 113//113 132//132
f 132//132 113//113 133//133
f 133//133 113//113 134//134
f 133//133 134//134 135//135
f 135//135 134//134 136//136
f 134//134 137//137 136//136
f 137//137 134//134 138//138
f 138//138 134//134 139//139
f 139//139 134//134 140//140
f 140//140 134//134 141//141
f 134//134 142//142 141//141
f 134//134 143//143 142//142
f 134//134 144//144 143//143
f 144//144 134//134 145//145
f 145//145 134//134 146//146
f 147//147 134//134 148//148
f 149//149 150//150 151//151
f 149//149 152//152 150//150
f 151//151 150//150 153//153
f 151//151 153//153 154//154
f 154//154 153//153 155//155
f 154//154 155//155 156//156
f 152//152 157//157 150//150
f 158//158 159//159 160//160
f 161//161 159//159 158//158
f 162//162 159//159 161//161
f 163//163 162//162 161//161
f 164//164 162//162 163//163
f 165//165 162//162 164//164
f 9//9 166//166 8//8
f 166//166 9//9 167//167
f 168//168 169//169 170//170
f 168//168 171//171 169//169
f 172//172 169//169 173//173
f 174//174 169//169 172//172
f 169//169 174//174 175//175
f 176//176 169//169 175//175
f 177//177 169//169 176//176
f 178//178 169//169 177//177
f 178//178 179//179 169//169
f 179//179 180//180 169//169
f 180//180 181//181 169//169
f 182//182 181//181 180//180
f 182//182 183//183 181//181
f 183//183 184//184 181//181
f 184//184 185//185 181//181
f 185//185 186//186 181//181
f 186//186 187//187 181//181
f 187//187 188//188 181//181
f 188//188 189//189 181//181
f 181//181 189//189 190//190
f 181//181 190//190 191//191
f 192//192 181//181 191//191
f 193//193 181//181 192//192
f 194//194 181//181 193//193
f 195//195 181//181 194//194
f 195//195 196//196 181//181
f 196//196 197//197 198//198
f 196//196 198//198 199//199
f 199//199 200//200 196//196
f 196//196 200//200 201//201
f 201//201 202//202 196//196
f 196//196 202//202 203//203
f 196//196 203//203 204//204
f 205//205 196//196 206//206
f 207//207 196//196 205//205
