v 94.16464 83.91301 -67.16786
v 81.39485 94.90355 -67.16785
v 94.16464 83.91301 -67.16786
v 94.16464 83.91301 -67.16786
v 92.99691 82.55624 -70.25829
v 92.52982 82.01353 -71.49445
v 92.52982 82.01353 -71.49445
v 79.76003 93.00406 -71.49444
v 66.99023 103.9946 -71.49442
v 92.3703 81.82819 -71.46191
v 65.55455 102.3265 -71.2015
v 92.35048 81.80515 -71.45786
v 65.37615 102.1192 -71.1651
v 92.34491 81.79868 -71.45673
v 65.32607 102.061 -71.15488
v 92.28236 81.72601 -71.44396
v 64.76314 101.407 -71.04003
v 91.51121 80.83002 -71.28663
v 64.67746 101.3074 -71.02255
v 90.78005 79.98049 -71.13745
v 90.69595 79.88277 -71.12029
v 64.58687 101.2022 -71.00407
v 90.52051 79.67893 -71.0845
v 64.56738 101.1795 -71.00009
v 90.05527 79.13838 -70.98958
v 64.51569 101.1195 -70.98955
v 89.94982 79.01585 -71.11327
v 63.93498 100.4447 -71.67062
v 63.56656 100.0167 -72.10272
v 89.92365 78.98545 -71.14395
v 63.33107 99.74306 -72.37892
v 89.91586 78.9764 -71.15308
v 63.26098 99.66162 -72.46111
v 89.85701 78.90802 -71.22211
v 62.7313 99.0462 -73.08234
v 89.18182 78.12351 -72.01402
v 62.65628 98.95903 -73.17033
v 88.62399 77.47539 -72.66825
v 62.5943 98.88702 -73.24303
v 88.07263 76.83477 -73.31491
v 62.53304 98.81583 -73.31488
v 88.06247 76.82296 -73.43198
v 62.44157 98.70956 -74.36842
v 88.0397 76.7965 -73.69425
v 62.23663 98.47144 -76.72894
v 87.97617 76.72269 -74.42597
v 87.95076 76.69317 -74.7186
v 62.22674 98.45996 -76.84275
v 87.86413 76.59251 -75.71641
v 62.21712 98.44878 -76.95361
v 87.79279 76.50964 -76.538
v 62.20919 98.43957 -77.04491
v 87.74328 76.4521 -77.10831
v 62.20369 98.43317 -77.10827
v 62.20369 98.43317 -77.10827
v 87.83344 76.55685 -77.28894
v 63.01506 99.3759 -78.734
v 87.85997 76.58768 -77.34211
v 63.25388 99.65339 -79.21252
v 87.86268 76.59084 -77.34754
v 63.27826 99.68172 -79.26137
v 87.86394 76.59229 -77.35005
v 63.28957 99.69485 -79.28402
v 87.86552 76.59413 -77.35323
v 63.30386 99.71145 -79.31265
v 87.89497 76.62835 -77.41224
v 63.56888 100.0194 -79.84367
v 89.26016 78.21455 -80.14763
v 63.72057 100.1956 -80.14761
v 89.26016 78.21455 -80.14764
v 63.72057 100.1956 -80.14761
v 89.26016 78.21455 -80.14764
v 89.26016 78.21455 -80.14764
v 88.79307 77.67184 -81.3838
v 87.62534 76.31507 -84.47423
v 87.62534 76.31507 -84.47423
v 87.62534 76.31507 -84.47423
v 89.26016 78.21455 -80.14764
v 89.26016 78.21455 -80.14764
v 89.26016 78.21455 -80.14764
v 63.72057 100.1956 -80.14761
v 63.72057 100.1956 -80.14761
v 63.72057 100.1956 -80.14761
v 89.26016 78.21455 -80.14764
v 84.59158 72.79017 -78.39556
v 89.26016 78.21455 -80.14764
v 63.72057 100.1956 -80.14761
v 89.26016 78.21455 -80.14764
v 76.49036 89.20509 -80.14762
v 63.72057 100.1956 -80.14761
v 74.85554 87.3056 -84.47421
v 63.72058 100.1956 -80.14761
v 63.72057 100.1956 -80.14761
v 63.25348 99.65292 -81.38377
v 59.05198 94.77123 -78.39553
v 63.72057 100.1956 -80.14761
v 84.59158 72.79017 -78.39556
v 62.08574 98.29613 -84.47419
v 59.05198 94.77123 -78.39553
v 62.20369 98.43317 -77.10827
v 62.20369 98.43317 -77.10827
v 81.39485 94.90355 -67.16785
v 94.16464 83.91301 -67.16786
v 94.16464 83.91301 -67.16786
v 92.99691 82.55624 -70.25829
v 79.76003 93.00406 -71.49444
v 92.52982 82.01353 -71.49445
v 67.6674 104.7814 -69.70229
v 68.62505 105.8941 -67.16783
v 66.99023 103.9946 -71.49442
v 94.16464 83.91301 -67.16786
v 89.21557 78.16273 -66.15811
v 85.25027 73.5555 -70.80878
v 90.05527 79.13838 -70.98958
v 90.52051 79.67893 -71.0845
v 90.69595 79.88277 -71.12029
v 90.78005 79.98049 -71.13745
v 91.51121 80.83002 -71.28663
v 92.28236 81.72601 -71.44396
v 92.34491 81.79868 -71.45673
v 92.35048 81.80515 -71.45786
v 92.3703 81.82819 -71.46191
v 92.52982 82.01353 -71.49445
v 89.94982 79.01585 -71.11327
v 89.92365 78.98545 -71.14395
v 89.91586 78.9764 -71.15308
v 89.85701 78.90802 -71.22211
v 89.18182 78.12351 -72.01402
v 88.62399 77.47539 -72.66825
v 88.07263 76.83477 -73.31491
v 88.06247 76.82296 -73.43198
v 88.0397 76.7965 -73.69425
v 87.97617 76.72269 -74.42597
v 84.59158 72.79017 -78.39556
v 87.95076 76.69317 -74.7186
v 87.86413 76.59251 -75.71641
v 87.79279 76.50964 -76.538
v 87.74328 76.4521 -77.10831
v 87.83344 76.55685 -77.28894
v 87.85997 76.58768 -77.34211
v 87.86268 76.59084 -77.34754
v 87.86394 76.59229 -77.35005
v 87.86552 76.59413 -77.35323
v 87.89497 76.62835 -77.41224
v 89.26016 78.21455 -80.14763
v 89.26016 78.21455 -80.14764
v 89.26016 78.21455 -80.14764
v 87.62534 76.31507 -84.47423
v 94.16464 83.91301 -67.16786
v 63.67598 100.1438 -66.15808
v 89.21557 78.16273 -66.15811
v 81.39485 94.90355 -67.16785
v 59.71068 95.53656 -70.80875
v 85.25027 73.5555 -70.80878
v 59.05198 94.77123 -78.39553
v 84.59158 72.79017 -78.39556
v 68.62505 105.8941 -67.16783
v 87.62534 76.31507 -84.47423
v 76.49036 89.20509 -80.14762
v 89.26016 78.21455 -80.14764
v 74.85554 87.3056 -84.47421
v 63.72058 100.1956 -80.14761
v 62.08574 98.29613 -84.47419
v 63.25348 99.65292 -81.38377
v 63.72057 100.1956 -80.14761
v 66.99023 103.9946 -71.49442
v 63.67598 100.1438 -66.15808
v 67.6674 104.7814 -69.70229
v 63.67598 100.1438 -66.15808
v 68.62505 105.8941 -67.16783
v 66.99023 103.9946 -71.49442
v 65.55455 102.3265 -71.2015
v 66.99023 103.9946 -71.49442
v 65.37615 102.1192 -71.1651
v 65.32607 102.061 -71.15488
v 64.76314 101.407 -71.04003
v 64.67746 101.3074 -71.02255
v 64.58687 101.2022 -71.00407
v 64.56738 101.1795 -71.00009
v 64.51569 101.1195 -70.98955
v 59.71068 95.53656 -70.80875
v 63.93498 100.4447 -71.67062
v 63.56656 100.0167 -72.10272
v 63.33107 99.74306 -72.37892
v 63.26098 99.66162 -72.46111
v 62.7313 99.0462 -73.08234
v 62.65628 98.95903 -73.17033
v 62.5943 98.88702 -73.24303
v 62.53304 98.81583 -73.31488
v 62.44157 98.70956 -74.36842
v 62.23663 98.47144 -76.72894
v 62.22674 98.45996 -76.84275
v 62.21712 98.44878 -76.95361
v 62.20919 98.43957 -77.04491
v 62.20369 98.43317 -77.10827
v 59.05198 94.77123 -78.39553
v 62.20369 98.43317 -77.10827
v 63.01506 99.3759 -78.734
v 63.25388 99.65339 -79.21252
v 63.27826 99.68172 -79.26137
v 63.28957 99.69485 -79.28402
v 63.30386 99.71145 -79.31265
v 63.56888 100.0194 -79.84367
v 63.72057 100.1956 -80.14761
v 63.25348 99.65292 -81.38377
v 63.72057 100.1956 -80.14761
v 62.08574 98.29613 -84.47419

vn 0.3269655 0.3798961 0.8653167
vn 0.3269653 0.3798962 0.8653167
vn 0.7415083 -0.1360916 0.6569968
vn 0.7579356 -0.6523296 -8.428469E-07
vn 0.7579356 -0.6523296 -8.428469E-07
vn -0.08605936 -0.09999026 -0.9912599
vn -0.2164909 -0.4683314 -0.8566201
vn 0.4705926 0.546778 -0.6925146
vn -0.08606256 -0.09999355 -0.9912592
vn -0.08606309 -0.09999422 -0.9912592
vn -0.08606289 -0.09999394 -0.9912592
vn -0.0860623 -0.09999312 -0.9912593
vn -0.08606164 -0.09999228 -0.9912594
vn -0.08606495 -0.09999702 -0.9912587
vn -0.08606337 -0.09999474 -0.991259
vn -0.08606306 -0.09999431 -0.9912591
vn -0.08606315 -0.09999444 -0.9912592
vn -0.0860632 -0.0999945 -0.9912591
vn -0.08606302 -0.09999427 -0.9912591
vn -0.08606327 -0.09999452 -0.9912591
vn -0.0860625 -0.09999364 -0.9912592
vn -0.08606151 -0.09999242 -0.9912594
vn -0.08606284 -0.09999415 -0.9912591
vn -0.08606342 -0.0999948 -0.9912591
vn 0.0124541 0.01447176 -0.999818
vn 0.3748579 0.435545 -0.8184022
vn 0.3963803 0.4605518 -0.7942134
vn 0.3963799 0.4605512 -0.7942138
vn 0.3963798 0.460551 -0.7942141
vn 0.3963788 0.4605497 -0.7942154
vn 0.3963782 0.4605488 -0.7942161
vn 0.3963775 0.4605477 -0.7942171
vn 0.3963788 0.4605496 -0.7942154
vn 0.3963792 0.4605503 -0.7942146
vn 0.3963795 0.4605508 -0.7942144
vn 0.3963795 0.4605508 -0.7942142
vn 0.3963789 0.4605501 -0.7942149
vn 0.3963793 0.4605505 -0.7942146
vn 0.3963799 0.4605513 -0.7942138
vn 0.42962 0.4991725 -0.7524983
vn 0.6395404 0.7430761 -0.1970437
vn 0.6466274 0.7513103 -0.1319315
vn 0.6466275 0.7513105 -0.1319305
vn 0.6466275 0.7513106 -0.1319298
vn 0.6466275 0.7513105 -0.1319298
vn 0.6466275 0.7513104 -0.1319302
vn 0.6466275 0.7513103 -0.1319308
vn 0.6466275 0.7513104 -0.1319303
vn 0.6466275 0.7513104 -0.1319307
vn 0.6466275 0.7513103 -0.1319303
vn 0.6466276 0.7513104 -0.1319304
vn 0.6466275 0.7513103 -0.1319308
vn 0.6509075 0.7562828 0.06599964
vn 0.6466255 0.751308 -0.1319539
vn 0.5180904 0.6019632 0.6076371
vn 0.5180898 0.6019626 0.6076381
vn 0.5180897 0.6019625 0.6076385
vn 0.5180891 0.601962 0.6076394
vn 0.5180901 0.6019629 0.6076378
vn 0.518091 0.6019635 0.6076366
vn 0.5180922 0.6019644 0.6076343
vn 0.5181144 0.6019816 0.6075984
vn 0.5181005 0.6019709 0.607621
vn 0.5180867 0.60196 0.6076436
vn 0.5180886 0.6019616 0.6076404
vn 0.51809 0.6019627 0.607638
vn 0.5180902 0.6019629 0.6076375
vn 0.5180903 0.6019631 0.6076373
vn 0.5180923 0.6019655 0.6076334
vn 0.5771693 0.6706066 0.4660072
vn 0.3269652 0.3798963 0.8653167
vn 0.3269652 0.3798963 0.8653167
vn 0.3269652 0.3798963 0.8653167
vn 0.7579356 -0.6523296 -8.428469E-07
vn -0.5180902 -0.6019627 -0.6076379
vn 0.7579356 -0.6523296 -8.428469E-07
vn 0.5171915 0.6009207 -0.609432
vn 0.7886804 -0.2492975 0.5619913
vn 0.8104164 -0.3249534 0.487474
vn 0.3799894 0.3325889 0.8631298
vn 0.3269652 0.3798963 0.8653167
vn 0.3269652 0.3798963 0.8653167
vn 0.3269652 0.3798963 0.8653167
vn 0.4032955 0.310684 0.860714
vn 0.7579356 -0.6523296 -8.428469E-07
vn 0.3365401 0.3716091 0.8652444
vn 0.3269652 0.3798963 0.8653167
vn 0.4308673 0.2838248 0.8566197
vn 0.3269614 0.379892 0.86532
vn 0.2808639 0.4183739 0.8637587
vn -0.5180901 -0.6019627 -0.6076378
vn 0.3269518 0.3798808 0.8653286
vn -0.7579333 0.6523323 6.850529E-06
vn -0.7579356 0.6523296 8.428469E-07
vn -0.7579358 0.6523294 1.059168E-06
vn 0 0 0
vn -0.5180902 -0.6019628 -0.6076378
vn -0.5180901 -0.6019628 -0.6076378
vn -0.5180902 -0.6019629 -0.6076379
vn -0.7579358 0.6523294 1.059168E-06
vn -0.7579358 0.6523294 1.059168E-06
vn 0.5644712 0.6558543 -0.5012259
vn 0.5644712 0.6558543 -0.5012258
vn 0.5644712 0.6558543 -0.5012259
vn 0.5644712 0.6558543 -0.5012259
vn 0.5644712 0.6558543 -0.5012259
vn 0.5644712 0.6558543 -0.5012259
vn 0.5644712 0.6558543 -0.5012259
vn 0.5644712 0.6558543 -0.5012259
vn 0.5644712 0.6558543 -0.5012259
vn 0.7579356 -0.6523296 -8.428469E-07
vn 0.7579356 -0.6523296 -8.428469E-07
vn 0.7579356 -0.6523296 -8.428469E-07
vn 0.7579356 -0.6523296 -8.428469E-07
vn 0.7579356 -0.6523296 -8.428469E-07
vn 0.7579356 -0.6523296 -8.428469E-07
vn 0.7579356 -0.6523296 -8.428469E-07
vn 0.7579356 -0.6523296 -8.428469E-07
vn 0.7579356 -0.6523296 -8.428469E-07
vn 0.7579356 -0.6523296 -8.428469E-07
vn 0.7579356 -0.6523296 -8.428469E-07
vn 0.7579356 -0.6523296 -8.428469E-07
vn 0.7579356 -0.6523296 -8.428469E-07
vn 0.7579355 -0.6523296 -8.428469E-07
vn 0.7579356 -0.6523296 -8.428469E-07
vn 0.7579356 -0.6523296 -8.428469E-07
vn 0.7579355 -0.6523296 -8.428469E-07
vn 0.7579356 -0.6523296 -8.428469E-07
vn 0.7579356 -0.6523296 -8.428469E-07
vn 0.7579356 -0.6523296 -8.428469E-07
vn 0.7579355 -0.6523296 -8.428469E-07
vn 0.7579356 -0.6523296 -8.428469E-07
vn 0.7579356 -0.6523296 -8.428469E-07
vn 0.7579356 -0.6523296 -8.428469E-07
vn 0.7579356 -0.6523296 -8.428469E-07
vn 0.7579356 -0.6523296 -8.428469E-07
vn 0.7579356 -0.6523296 -8.428469E-07
vn 0.7579356 -0.6523296 -8.428469E-07
vn 0.7579356 -0.6523296 -8.428469E-07
vn 0.7579356 -0.6523296 -8.428469E-07
vn 0.7579356 -0.6523296 -8.428469E-07
vn 0.7579355 -0.6523296 -8.428469E-07
vn 0.7579356 -0.6523296 -8.428469E-07
vn 0.7579355 -0.6523296 -8.428469E-07
vn 0.7579355 -0.6523296 -8.428469E-07
vn 0.7579356 -0.6523296 -8.428469E-07
vn 0.7579355 -0.6523296 -8.428469E-07
vn 0.7579355 -0.6523296 -8.428469E-07
vn 0.08606287 0.09999391 0.9912593
vn -0.08014978 -0.09312689 0.9924232
vn -0.2525779 -0.2934693 0.921998
vn 0.08606282 0.09999388 0.9912591
vn -0.5144463 -0.5977311 0.614868
vn -0.6038868 -0.7016506 0.3781631
vn -0.6466275 -0.7513103 0.1319302
vn -0.6466276 -0.7513104 0.1319302
vn 0.08606286 0.09999403 0.9912592
vn 0.5644712 0.6558543 -0.5012259
vn 0.5644712 0.6558543 -0.5012259
vn 0.5644712 0.6558543 -0.5012259
vn 0.5644712 0.6558543 -0.5012259
vn 0.5644712 0.6558543 -0.5012259
vn 0.5644712 0.6558543 -0.5012259
vn 0.5644712 0.6558543 -0.5012259
vn 0.5644712 0.6558543 -0.5012258
vn -0.4738823 -0.2397074 -0.8473348
vn -0.7579353 0.6523299 1.480377E-06
vn -0.7579356 0.6523294 9.510073E-07
vn -0.7579357 0.6523295 1.056535E-06
vn -0.7579357 0.6523295 9.510073E-07
vn -0.7579357 0.6523295 9.510073E-07
vn -0.7579356 0.6523297 1.170279E-06
vn -0.7579356 0.6523297 1.170279E-06
vn -0.7579356 0.6523297 1.170279E-06
vn -0.7579356 0.6523297 1.170279E-06
vn -0.7579356 0.6523297 1.170279E-06
vn -0.7579355 0.6523296 1.170279E-06
vn -0.7579356 0.6523297 1.170279E-06
vn -0.7579355 0.6523296 1.17028E-06
vn -0.7579357 0.6523295 1.105779E-06
vn -0.7579358 0.6523294 9.958089E-07
vn -0.7579357 0.6523295 1.105191E-06
vn -0.7579357 0.6523295 1.105192E-06
vn -0.7579357 0.6523295 1.105192E-06
vn -0.7579357 0.6523295 1.105192E-06
vn -0.7579357 0.6523295 1.105192E-06
vn -0.7579357 0.6523295 1.105192E-06
vn -0.7579357 0.6523295 1.105191E-06
vn -0.7579358 0.6523294 9.083284E-07
vn -0.7579358 0.6523294 8.864261E-07
vn -0.7579358 0.6523294 8.864259E-07
vn -0.7579358 0.6523294 8.864263E-07
vn -0.7579358 0.6523294 8.864254E-07
vn -0.7579358 0.6523294 8.864258E-07
vn -0.7579358 0.6523294 8.864261E-07
vn -0.7579358 0.6523294 8.633997E-07
vn -0.7579358 0.6523294 6.421321E-07
vn -0.7579358 0.6523294 6.421319E-07
vn -0.7579358 0.6523294 6.421315E-07
vn -0.7579358 0.6523294 6.421387E-07
vn -0.7579358 0.6523294 6.421308E-07
vn -0.7579358 0.6523294 6.421313E-07
vn -0.7579358 0.6523294 6.421328E-07
vn -0.7579357 0.6523294 6.42134E-07
vn -0.7579357 0.6523295 9.510073E-07
vn -0.7579357 0.6523295 9.510073E-07
vn -0.7579356 0.6523294 9.510073E-07

f 1//1 2//2 3//3
f 4//4 1//1 3//3
f 3//3 5//5 4//4
f 3//3 6//6 5//5
f 5//5 6//6 7//7
f 8//8 7//7 6//6
f 9//9 8//8 6//6
f 10//10 9//9 6//6
f 9//9 10//10 11//11
f 11//11 10//10 12//12
f 13//13 11//11 12//12
f 13//13 12//12 14//14
f 13//13 14//14 15//15
f 15//15 14//14 16//16
f 15//15 16//16 17//17
f 18//18 17//17 16//16
f 19//19 17//17 18//18
f 19//19 18//18 20//20
f 21//21 19//19 20//20
f 22//22 19//19 21//21
f 22//22 21//21 23//23
f 24//24 22//22 23//23
f 24//24 23//23 25//25
f 26//26 24//24 25//25
f 26//26 25//25 27//27
f 28//28 26//26 27//27
f 28//28 27//27 29//29
f 29//29 27//27 30//30
f 31//31 29//29 30//30
f 31//31 30//30 32//32
f 33//33 31//31 32//32
f 33//33 32//32 34//34
f 35//35 33//33 34//34
f 35//35 34//34 36//36
f 37//37 35//35 36//36
f 37//37 36//36 38//38
f 39//39 37//37 38//38
f 39//39 38//38 40//40
f 41//41 39//39 40//40
f 41//41 40//40 42//42
f 41//41 42//42 43//43
f 43//43 42//42 44//44
f 45//45 43//43 44//44
f 45//45 44//44 46//46
f 47//47 45//45 46//46
f 48//48 45//45 47//47
f 48//48 47//47 49//49
f 50//50 48//48 49//49
f 50//50 49//49 51//51
f 52//52 50//50 51//51
f 52//52 51//51 53//53
f 54//54 52//52 53//53
f 55//55 54//54 53//53
f 55//55 53//53 56//56
f 55//55 56//56 57//57
f 57//57 56//56 58//58
f 57//57 58//58 59//59
f 59//59 58//58 60//60
f 59//59 60//60 61//61
f 61//61 60//60 62//62
f 61//61 62//62 63//63
f 63//63 62//62 64//64
f 63//63 64//64 65//65
f 65//65 64//64 66//66
f 65//65 66//66 67//67
f 68//68 67//67 66//66
f 69//69 67//67 68//68
f 69//69 68//68 70//70
f 71//71 69//69 70//70
f 72//72 71//71 73//73
f 74//74 75//75 76//76
f 77//77 74//74 76//76
f 75//75 77//77 76//76
f 78//78 75//75 74//74
f 79//79 75//75 78//78
f 78//78 74//74 80//80
f 81//81 78//78 80//80
f 82//82 78//78 81//81
f 82//82 83//83 78//78
f 83//83 84//84 79//79
f 84//84 85//85 79//79
f 80//80 74//74 86//86
f 87//87 80//80 86//86
f 81//81 80//80 87//87
f 86//86 74//74 88//88
f 88//88 74//74 77//77
f 86//86 88//88 89//89
f 90//90 86//86 89//89
f 87//87 86//86 90//90
f 75//75 91//91 77//77
f 90//90 89//89 92//92
f 90//90 92//92 93//93
f 94//94 90//90 93//93
f 95//95 83//83 82//82
f 95//95 82//82 81//81
f 95//95 81//81 87//87
f 95//95 87//87 90//90
f 95//95 96//96 83//83
f 97//97 91//91 75//75
f 97//97 98//98 91//91
f 97//97 99//99 98//98
f 100//100 95//95 101//101
f 102//102 103//103 104//104
f 102//102 104//104 105//105
f 102//102 105//105 106//106
f 106//106 105//105 107//107
f 108//108 102//102 106//106
f 109//109 102//102 108//108
f 110//110 108//108 106//106
f 111//111 112//112 113//113
f 111//111 113//113 114//114
f 111//111 114//114 115//115
f 111//111 115//115 116//116
f 111//111 116//116 117//117
f 117//117 118//118 111//111
f 118//118 119//119 111//111
f 120//120 111//111 119//119
f 120//120 121//121 111//111
f 121//121 122//122 111//111
f 111//111 122//122 123//123
f 114//114 113//113 124//124
f 124//124 113//113 125//125
f 125//125 113//113 126//126
f 126//126 113//113 127//127
f 127//127 113//113 128//128
f 128//128 113//113 129//129
f 129//129 113//113 130//130
f 130//130 113//113 131//131
f 131//131 113//113 132//132
f 132//132 113//113 133//133
f 133//133 113//113 134//134
f 133//133 134//134 135//135
f 135//135 134//134 136//136
f 134//134 137//137 136//136
f 137//137 134//134 138//138
f 138//138 134//134 139//139
f 139//139 134//134 140//140
f 140//140 134//134 141//141
f 134//134 142//142 141//141
f 134//134 143//143 142//142
f 134//134 144//144 143//143
f 144//144 134//134 145//145
f 145//145 134//134 146//146
f 147//147 134//134 148//148
f 149//149 150//150 151//151
f 149//149 152//152 150//150
f 151//151 150//150 153//153
f 151//151 153//153 154//154
f 154//154 153//153 155//155
f 154//154 155//155 156//156
f 152//152 157//157 150//150
f 158//158 159//159 160//160
f 161//161 159//159 158//158
f 162//162 159//159 161//161
f 163//163 162//162 161//161
f 164//164 162//162 163//163
f 165//165 162//162 164//164
f 9//9 166//166 8//8
f 166//166 9//9 167//167
f 168//168 169//169 170//170
f 168//168 171//171 169//169
f 172//172 169//169 173//173
f 174//174 169//169 172//172
f 169//169 174//174 175//175
f 176//176 169//169 175//175
f 177//177 169//169 176//176
f 178//178 169//169 177//177
f 178//178 179//179 169//169
f 179//179 180//180 169//169
f 180//180 181//181 169//169
f 182//182 181//181 180//180
f 182//182 183//183 181//181
f 183//183 184//184 181//181
f 184//184 185//185 181//181
f 185//185 186//186 181//181
f 186//186 187//187 181//181
f 187//187 188//188 181//181
f 188//188 189//189 181//181
f 181//181 189//189 190//190
f 181//181 190//190 191//191
f 192//192 181//181 191//191
f 193//193 181//181 192//192
f 194//194 181//181 193//193
f 195//195 181//181 194//194
f 195//195 196//196 181//181
f 196//196 197//197 198//198
f 196//196 198//198 199//199
f 199//199 200//200 196//196
f 196//196 200//200 201//201
f 201//201 202//202 196//196
f 196//196 202//202 203//203
f 196//196 203//203 204//204
f 205//205 196//196 206//206
f 207//207 196//196 205//205
