v 49.43669 73.10033 112.7606
v 40.08758 62.23771 121.6182
v 49.43669 73.10033 112.7606
v 49.43669 73.10033 112.7606
v 52.15745 70.78703 112.7954
v 53.24576 69.86171 112.8093
v 53.24576 69.86171 112.8093
v 43.89664 58.99909 121.6669
v 34.54753 48.13647 130.5245
v 53.39386 69.89308 113.0041
v 35.88043 48.41876 132.2775
v 53.41226 69.89697 113.0283
v 36.04606 48.45384 132.4953
v 53.41743 69.89807 113.0351
v 36.09256 48.46369 132.5565
v 53.47549 69.91037 113.1115
v 36.61519 48.57437 133.2439
v 54.19144 70.062 114.0531
v 36.69474 48.59122 133.3485
v 54.87026 70.20576 114.9459
v 54.94835 70.2223 115.0486
v 36.77884 48.60903 133.4591
v 55.11122 70.2568 115.2628
v 36.79694 48.61287 133.4829
v 55.54315 70.34827 115.8309
v 36.84493 48.62303 133.546
v 55.71245 70.25808 115.899
v 37.77718 48.1264 133.921
v 38.36864 47.81131 134.1588
v 55.75446 70.2357 115.9159
v 38.7467 47.60992 134.3109
v 55.76696 70.22904 115.9209
v 38.85921 47.54998 134.3561
v 55.86144 70.17871 115.9589
v 39.70955 47.09698 134.6981
v 56.9454 69.60126 116.3948
v 39.82999 47.03283 134.7466
v 57.84092 69.12421 116.755
v 39.92949 46.97982 134.7866
v 58.72606 68.65266 117.111
v 40.02784 46.92743 134.8261
v 58.79407 68.56366 117.0736
v 40.63993 46.12632 134.4898
v 58.94645 68.36422 116.9899
v 42.01137 44.33138 133.7361
v 59.37157 67.80782 116.7562
v 59.54159 67.5853 116.6628
v 42.0775 44.24483 133.6997
v 60.12131 66.82657 116.3442
v 42.14191 44.16053 133.6643
v 60.59864 66.20183 116.0819
v 42.19495 44.09111 133.6352
v 60.92999 65.76817 115.8998
v 42.23176 44.04293 133.6149
v 42.23177 44.04293 133.6149
v 60.92606 65.6265 115.7219
v 42.19641 42.76789 132.0139
v 60.9249 65.5848 115.6695
v 42.186 42.3926 131.5427
v 60.92478 65.58054 115.6642
v 42.18494 42.35429 131.4946
v 60.92472 65.57857 115.6617
v 42.18445 42.33652 131.4723
v 60.92466 65.57607 115.6586
v 42.18383 42.31407 131.4441
v 60.92337 65.5298 115.6005
v 42.17228 41.8976 130.9212
v 60.86389 63.38448 112.9067
v 42.16567 41.65923 130.6219
v 60.86389 63.38447 112.9067
v 42.16567 41.65923 130.6219
v 60.86389 63.38447 112.9067
v 60.86389 63.38447 112.9067
v 61.95219 62.45915 112.9206
v 64.67296 60.14585 112.9554
v 64.67296 60.14585 112.9554
v 64.67295 60.14585 112.9554
v 60.86389 63.38447 112.9067
v 60.86389 63.38447 112.9067
v 60.86389 63.38447 112.9067
v 42.16567 41.65923 130.6219
v 42.16567 41.65923 130.6219
v 42.16567 41.65923 130.6219
v 60.86389 63.38447 112.9067
v 64.80515 64.91325 118.9415
v 60.86389 63.38447 112.9067
v 42.16567 41.65923 130.6219
v 60.86389 63.38447 112.9067
v 51.51478 52.52185 121.7643
v 42.16567 41.65923 130.6219
v 55.32384 49.28323 121.813
v 42.16568 41.65924 130.6219
v 42.16567 41.65923 130.6219
v 43.25397 40.73391 130.6358
v 46.10692 43.188 136.6567
v 42.16567 41.65923 130.6219
v 64.80515 64.91325 118.9415
v 45.97473 38.42061 130.6706
v 46.10692 43.188 136.6567
v 42.23177 44.04293 133.6149
v 42.23176 44.04293 133.6149
v 40.08758 62.23771 121.6182
v 49.43669 73.10033 112.7606
v 49.43669 73.10033 112.7606
v 52.15745 70.78703 112.7954
v 43.89664 58.99909 121.6669
v 53.24576 69.86171 112.8093
v 32.96977 49.47795 130.5043
v 30.73847 51.37509 130.4758
v 34.54753 48.13647 130.5245
v 49.43669 73.10033 112.7606
v 54.03148 74.07345 118.8037
v 60.3973 70.68224 121.364
v 55.54315 70.34827 115.8309
v 55.11122 70.2568 115.2628
v 54.94835 70.2223 115.0486
v 54.87026 70.20576 114.9459
v 54.19144 70.062 114.0531
v 53.47549 69.91037 113.1115
v 53.41743 69.89807 113.0351
v 53.41226 69.89697 113.0283
v 53.39386 69.89308 113.0041
v 53.24576 69.86171 112.8093
v 55.71245 70.25808 115.899
v 55.75446 70.2357 115.9159
v 55.76696 70.22904 115.9209
v 55.86144 70.17871 115.9589
v 56.9454 69.60126 116.3948
v 57.84092 69.12421 116.755
v 58.72606 68.65266 117.111
v 58.79407 68.56366 117.0736
v 58.94645 68.36422 116.9899
v 59.37157 67.80782 116.7562
v 64.80515 64.91325 118.9415
v 59.54159 67.5853 116.6628
v 60.12131 66.82657 116.3442
v 60.59864 66.20183 116.0819
v 60.92999 65.76817 115.8998
v 60.92606 65.6265 115.7219
v 60.9249 65.5848 115.6695
v 60.92478 65.58054 115.6642
v 60.92472 65.57857 115.6617
v 60.92466 65.57607 115.6586
v 60.92337 65.5298 115.6005
v 60.86389 63.38448 112.9067
v 60.86389 63.38447 112.9067
v 60.86389 63.38447 112.9067
v 64.67296 60.14585 112.9554
v 49.43669 73.10033 112.7606
v 35.33326 52.34821 136.5189
v 54.03148 74.07345 118.8037
v 40.08758 62.23771 121.6182
v 41.69908 48.957 139.0791
v 60.3973 70.68224 121.364
v 46.10692 43.188 136.6567
v 64.80515 64.91325 118.9415
v 30.73847 51.37509 130.4758
v 64.67295 60.14585 112.9554
v 51.51478 52.52185 121.7643
v 60.86389 63.38447 112.9067
v 55.32384 49.28323 121.813
v 42.16568 41.65924 130.6219
v 45.97473 38.42061 130.6706
v 43.25397 40.73391 130.6358
v 42.16567 41.65923 130.6219
v 34.54753 48.13647 130.5245
v 35.33326 52.34821 136.5189
v 32.96977 49.47795 130.5043
v 35.33326 52.34821 136.5189
v 30.73847 51.37509 130.4758
v 34.54753 48.13647 130.5245
v 35.88043 48.41876 132.2775
v 34.54753 48.13647 130.5245
v 36.04606 48.45384 132.4953
v 36.09256 48.46369 132.5565
v 36.61519 48.57437 133.2439
v 36.69474 48.59122 133.3485
v 36.77884 48.60903 133.4591
v 36.79694 48.61287 133.4829
v 36.84493 48.62303 133.546
v 41.69908 48.957 139.0791
v 37.77718 48.1264 133.921
v 38.36864 47.81131 134.1588
v 38.7467 47.60992 134.3109
v 38.85921 47.54998 134.3561
v 39.70955 47.09698 134.6981
v 39.82999 47.03283 134.7466
v 39.92949 46.97982 134.7866
v 40.02784 46.92743 134.8261
v 40.63993 46.12632 134.4898
v 42.01137 44.33138 133.7361
v 42.0775 44.24483 133.6997
v 42.14191 44.16053 133.6643
v 42.19495 44.09111 133.6352
v 42.23176 44.04293 133.6149
v 46.10692 43.188 136.6567
v 42.23177 44.04293 133.6149
v 42.19641 42.76789 132.0139
v 42.186 42.3926 131.5427
v 42.18494 42.35429 131.4946
v 42.18445 42.33652 131.4723
v 42.18383 42.31407 131.4441
v 42.17228 41.8976 130.9212
v 42.16567 41.65923 130.6219
v 43.25397 40.73391 130.6358
v 42.16567 41.65923 130.6219
v 45.97473 38.42061 130.6706

vn -0.7618126 0.6477242 -0.00974257
vn -0.7618127 0.6477241 -0.00974249
vn -0.217284 0.9113786 -0.3495382
vn 0.5549053 0.6447381 -0.5257312
vn 0.5549053 0.6447381 -0.5257312
vn 0.5759095 -0.7537563 -0.3165118
vn 0.8326317 -0.5500345 -0.06470503
vn -0.1436199 -0.5482218 -0.8239092
vn 0.5759121 -0.7537559 -0.316508
vn 0.5759127 -0.7537559 -0.3165074
vn 0.5759125 -0.7537559 -0.3165076
vn 0.5759118 -0.7537561 -0.3165084
vn 0.5759111 -0.7537562 -0.3165092
vn 0.5759149 -0.7537552 -0.3165049
vn 0.5759131 -0.7537557 -0.316507
vn 0.5759127 -0.7537557 -0.3165073
vn 0.5759129 -0.7537558 -0.3165073
vn 0.5759129 -0.7537557 -0.3165072
vn 0.5759127 -0.7537557 -0.3165074
vn 0.575913 -0.7537557 -0.3165071
vn 0.5759122 -0.7537559 -0.3165081
vn 0.5759112 -0.753756 -0.3165092
vn 0.5759126 -0.7537557 -0.3165076
vn 0.5759132 -0.7537557 -0.3165069
vn 0.4787736 -0.7643097 -0.4319801
vn 0.01676092 -0.6404904 -0.7677834
vn -0.01727297 -0.6228889 -0.7821199
vn -0.01727227 -0.6228892 -0.7821196
vn -0.01727198 -0.6228893 -0.7821195
vn -0.01727016 -0.6228902 -0.782119
vn -0.01726903 -0.6228907 -0.7821185
vn -0.01726751 -0.6228912 -0.782118
vn -0.01727001 -0.6228902 -0.7821189
vn -0.01727109 -0.6228898 -0.7821191
vn -0.01727161 -0.6228896 -0.7821194
vn -0.01727171 -0.6228896 -0.7821193
vn -0.0172707 -0.62289 -0.7821189
vn -0.01727127 -0.6228898 -0.7821192
vn -0.01727229 -0.6228892 -0.7821196
vn -0.07197783 -0.5923758 -0.8024403
vn -0.561032 -0.1765975 -0.8087378
vn -0.6003365 -0.1271445 -0.7895761
vn -0.6003372 -0.1271438 -0.7895758
vn -0.6003376 -0.1271432 -0.7895756
vn -0.6003376 -0.1271432 -0.7895756
vn -0.6003373 -0.1271435 -0.7895757
vn -0.6003369 -0.1271439 -0.7895759
vn -0.6003373 -0.1271436 -0.7895758
vn -0.600337 -0.1271439 -0.7895759
vn -0.6003371 -0.1271436 -0.7895758
vn -0.6003372 -0.1271436 -0.7895759
vn -0.6003369 -0.1271439 -0.7895759
vn -0.7020572 0.02388885 -0.7117199
vn -0.6003235 -0.1271615 -0.7895833
vn -0.8317342 0.4430816 -0.3345099
vn -0.8317341 0.4430824 -0.3345088
vn -0.8317342 0.4430827 -0.3345085
vn -0.8317342 0.4430833 -0.3345074
vn -0.8317342 0.4430822 -0.3345092
vn -0.8317341 0.4430814 -0.3345106
vn -0.8317339 0.4430798 -0.3345129
vn -0.8317316 0.4430553 -0.3345512
vn -0.8317331 0.4430707 -0.3345272
vn -0.8317345 0.4430863 -0.3345031
vn -0.8317344 0.443084 -0.3345065
vn -0.8317342 0.4430824 -0.3345089
vn -0.8317341 0.443082 -0.3345094
vn -0.8317342 0.4430818 -0.3345096
vn -0.8317344 0.4430787 -0.3345135
vn -0.8228744 0.3324766 -0.4608004
vn -0.7618129 0.647724 -0.00974239
vn -0.7618129 0.647724 -0.00974239
vn -0.7618129 0.647724 -0.00974239
vn 0.5549053 0.6447381 -0.5257312
vn 0.8317341 -0.4430823 0.3345092
vn 0.5549053 0.6447381 -0.5257312
vn -0.2324072 -0.486651 -0.8421153
vn -0.0728242 0.9109272 -0.4060893
vn 0.02930748 0.8975894 -0.4398577
vn -0.7204621 0.691895 -0.04707045
vn -0.7618129 0.647724 -0.00974239
vn -0.7618129 0.647724 -0.00974239
vn -0.7618129 0.647724 -0.00974239
vn -0.7006041 0.7106885 -0.06384229
vn 0.5549053 0.6447381 -0.5257312
vn -0.7547268 0.6558341 -0.01640392
vn -0.7618129 0.647724 -0.00974239
vn -0.6756808 0.7323937 -0.08399408
vn -0.7618106 0.6477267 -0.009736751
vn -0.7937539 0.6078467 0.02184636
vn 0.8317341 -0.4430822 0.3345092
vn -0.7618049 0.6477336 -0.009722277
vn -0.5549105 -0.6447336 0.5257311
vn -0.5549053 -0.6447381 0.5257312
vn -0.5549051 -0.644738 0.5257316
vn 0 0 0
vn 0.8317342 -0.4430822 0.3345093
vn 0.8317342 -0.4430822 0.3345092
vn 0.8317342 -0.4430823 0.3345093
vn -0.5549051 -0.644738 0.5257316
vn -0.5549051 -0.644738 0.5257316
vn -0.3342473 -0.405915 -0.8505951
vn -0.3342473 -0.405915 -0.8505951
vn -0.3342473 -0.405915 -0.8505951
vn -0.3342473 -0.405915 -0.8505951
vn -0.3342473 -0.405915 -0.8505951
vn -0.3342473 -0.405915 -0.8505951
vn -0.3342473 -0.405915 -0.8505951
vn -0.3342473 -0.405915 -0.8505951
vn -0.3342473 -0.405915 -0.8505951
vn 0.5549053 0.6447381 -0.5257312
vn 0.5549053 0.6447381 -0.5257312
vn 0.5549053 0.6447381 -0.5257312
vn 0.5549053 0.6447381 -0.5257312
vn 0.5549053 0.6447381 -0.5257312
vn 0.5549053 0.6447381 -0.5257312
vn 0.5549053 0.6447381 -0.5257312
vn 0.5549053 0.6447381 -0.5257312
vn 0.5549053 0.6447381 -0.5257312
vn 0.5549053 0.6447381 -0.5257312
vn 0.5549053 0.6447381 -0.5257312
vn 0.5549053 0.6447381 -0.5257312
vn 0.5549053 0.6447381 -0.5257312
vn 0.5549052 0.6447381 -0.5257311
vn 0.5549053 0.6447381 -0.5257312
vn 0.5549053 0.6447381 -0.5257312
vn 0.5549052 0.6447381 -0.5257311
vn 0.5549053 0.6447381 -0.5257312
vn 0.5549053 0.6447381 -0.5257312
vn 0.5549053 0.6447381 -0.5257312
vn 0.5549052 0.6447381 -0.5257311
vn 0.5549053 0.6447381 -0.5257312
vn 0.5549053 0.6447381 -0.5257312
vn 0.5549053 0.6447381 -0.5257312
vn 0.5549053 0.6447381 -0.5257312
vn 0.5549053 0.6447381 -0.5257312
vn 0.5549053 0.6447381 -0.5257312
vn 0.5549053 0.6447381 -0.5257312
vn 0.5549053 0.6447381 -0.5257312
vn 0.5549053 0.6447381 -0.5257312
vn 0.5549053 0.6447381 -0.5257312
vn 0.5549052 0.6447381 -0.5257311
vn 0.5549053 0.6447381 -0.5257312
vn 0.5549052 0.6447381 -0.5257311
vn 0.5549052 0.6447381 -0.5257311
vn 0.5549053 0.6447381 -0.5257312
vn 0.5549052 0.6447381 -0.5257311
vn 0.5549052 0.6447381 -0.5257311
vn -0.5759125 0.7537559 0.3165077
vn -0.4054971 0.7614199 0.5057787
vn -0.1934892 0.7146474 0.6721914
vn -0.5759124 0.7537558 0.3165077
vn 0.2269103 0.4906919 0.8412691
vn 0.435302 0.3135088 0.8439341
vn 0.6003373 0.1271435 0.7895757
vn 0.6003373 0.1271435 0.7895758
vn -0.5759125 0.7537558 0.3165076
vn -0.3342473 -0.405915 -0.8505951
vn -0.3342473 -0.405915 -0.8505951
vn -0.3342473 -0.405915 -0.8505951
vn -0.3342473 -0.405915 -0.8505951
vn -0.3342473 -0.405915 -0.8505951
vn -0.3342473 -0.405915 -0.8505951
vn -0.3342473 -0.405915 -0.8505951
vn -0.3342473 -0.405915 -0.8505951
vn 0.6334455 -0.7650188 0.1161598
vn -0.5549058 -0.6447377 0.5257311
vn -0.5549052 -0.644738 0.5257313
vn -0.5549053 -0.644738 0.5257314
vn -0.5549052 -0.644738 0.5257314
vn -0.5549052 -0.644738 0.5257314
vn -0.5549055 -0.6447379 0.5257313
vn -0.5549055 -0.6447379 0.5257313
vn -0.5549055 -0.6447379 0.5257313
vn -0.5549055 -0.6447379 0.5257313
vn -0.5549055 -0.6447379 0.5257313
vn -0.5549054 -0.6447378 0.5257313
vn -0.5549055 -0.6447379 0.5257313
vn -0.5549054 -0.6447378 0.5257313
vn -0.5549052 -0.6447379 0.5257314
vn -0.5549052 -0.644738 0.5257314
vn -0.5549052 -0.6447379 0.5257314
vn -0.5549052 -0.6447379 0.5257314
vn -0.5549052 -0.6447379 0.5257314
vn -0.5549052 -0.6447379 0.5257314
vn -0.5549052 -0.6447379 0.5257314
vn -0.5549052 -0.6447379 0.5257314
vn -0.5549052 -0.6447379 0.5257314
vn -0.5549051 -0.6447381 0.5257314
vn -0.5549051 -0.6447381 0.5257314
vn -0.5549051 -0.6447381 0.5257314
vn -0.5549051 -0.6447381 0.5257314
vn -0.5549051 -0.6447381 0.5257314
vn -0.5549051 -0.6447381 0.5257314
vn -0.5549051 -0.6447381 0.5257314
vn -0.5549051 -0.6447381 0.5257314
vn -0.554905 -0.6447383 0.5257313
vn -0.554905 -0.6447383 0.5257313
vn -0.554905 -0.6447383 0.5257313
vn -0.554905 -0.6447383 0.5257313
vn -0.554905 -0.6447383 0.5257313
vn -0.554905 -0.6447383 0.5257313
vn -0.554905 -0.6447383 0.5257313
vn -0.5549049 -0.6447383 0.5257313
vn -0.5549052 -0.644738 0.5257314
vn -0.5549052 -0.644738 0.5257314
vn -0.5549052 -0.644738 0.5257313

f 1//1 2//2 3//3
f 4//4 1//1 3//3
f 3//3 5//5 4//4
f 3//3 6//6 5//5
f 5//5 6//6 7//7
f 8//8 7//7 6//6
f 9//9 8//8 6//6
f 10//10 9//9 6//6
f 9//9 10//10 11//11
f 11//11 10//10 12//12
f 13//13 11//11 12//12
f 13//13 12//12 14//14
f 13//13 14//14 15//15
f 15//15 14//14 16//16
f 15//15 16//16 17//17
f 18//18 17//17 16//16
f 19//19 17//17 18//18
f 19//19 18//18 20//20
f 21//21 19//19 20//20
f 22//22 19//19 21//21
f 22//22 21//21 23//23
f 24//24 22//22 23//23
f 24//24 23//23 25//25
f 26//26 24//24 25//25
f 26//26 25//25 27//27
f 28//28 26//26 27//27
f 28//28 27//27 29//29
f 29//29 27//27 30//30
f 31//31 29//29 30//30
f 31//31 30//30 32//32
f 33//33 31//31 32//32
f 33//33 32//32 34//34
f 35//35 33//33 34//34
f 35//35 34//34 36//36
f 37//37 35//35 36//36
f 37//37 36//36 38//38
f 39//39 37//37 38//38
f 39//39 38//38 40//40
f 41//41 39//39 40//40
f 41//41 40//40 42//42
f 41//41 42//42 43//43
f 43//43 42//42 44//44
f 45//45 43//43 44//44
f 45//45 44//44 46//46
f 47//47 45//45 46//46
f 48//48 45//45 47//47
f 48//48 47//47 49//49
f 50//50 48//48 49//49
f 50//50 49//49 51//51
f 52//52 50//50 51//51
f 52//52 51//51 53//53
f 54//54 52//52 53//53
f 55//55 54//54 53//53
f 55//55 53//53 56//56
f 55//55 56//56 57//57
f 57//57 56//56 58//58
f 57//57 58//58 59//59
f 59//59 58//58 60//60
f 59//59 60//60 61//61
f 61//61 60//60 62//62
f 61//61 62//62 63//63
f 63//63 62//62 64//64
f 63//63 64//64 65//65
f 65//65 64//64 66//66
f 65//65 66//66 67//67
f 68//68 67//67 66//66
f 69//69 67//67 68//68
f 69//69 68//68 70//70
f 71//71 69//69 70//70
f 72//72 71//71 73//73
f 74//74 75//75 76//76
f 77//77 74//74 76//76
f 75//75 77//77 76//76
f 78//78 75//75 74//74
f 79//79 75//75 78//78
f 78//78 74//74 80//80
f 81//81 78//78 80//80
f 82//82 78//78 81//81
f 82//82 83//83 78//78
f 83//83 84//84 79//79
f 84//84 85//85 79//79
f 80//80 74//74 86//86
f 87//87 80//80 86//86
f 81//81 80//80 87//87
f 86//86 74//74 88//88
f 88//88 74//74 77//77
f 86//86 88//88 89//89
f 90//90 86//86 89//89
f 87//87 86//86 90//90
f 75//75 91//91 77//77
f 90//90 89//89 92//92
f 90//90 92//92 93//93
f 94//94 90//90 93//93
f 95//95 83//83 82//82
f 95//95 82//82 81//81
f 95//95 81//81 87//87
f 95//95 87//87 90//90
f 95//95 96//96 83//83
f 97//97 91//91 75//75
f 97//97 98//98 91//91
f 97//97 99//99 98//98
f 100//100 95//95 101//101
f 102//102 103//103 104//104
f 102//102 104//104 105//105
f 102//102 105//105 106//106
f 106//106 105//105 107//107
f 108//108 102//102 106//106
f 109//109 102//102 108//108
f 110//110 108//108 106//106
f 111//111 112//112 113//113
f 111//111 113//113 114//114
f 111//111 114//114 115//115
f 111//111 115//115 116//116
f 111//111 116//116 117//117
f 117//117 118//118 111//111
f 118//118 119//119 111//111
f 120//120 111//111 119//119
f 120//120 121//121 111//111
f 121//121 122//122 111//111
f 111//111 122//122 123//123
f 114//114 113//113 124//124
f 124//124 113//113 125//125
f 125//125 113//113 126//126
f 126//126 113//113 127//127
f 127//127 113//113 128//128
f 128//128 113//113 129//129
f 129//129 113//113 130//130
f 130//130 113//113 131//131
f 131//131 113//113 132//132
f 132//132 113//113 133//133
f 133//133 113//113 134//134
f 133//133 134//134 135//135
f 135//135 134//134 136//136
f 134//134 137//137 136//136
f 137//137 134//134 138//138
f 138//138 134//134 139//139
f 139//139 134//134 140//140
f 140//140 134//134 141//141
f 134//134 142//142 141//141
f 134//134 143//143 142//142
f 134//134 144//144 143//143
f 144//144 134//134 145//145
f 145//145 134//134 146//146
f 147//147 134//134 148//148
f 149//149 150//150 151//151
f 149//149 152//152 150//150
f 151//151 150//150 153//153
f 151//151 153//153 154//154
f 154//154 153//153 155//155
f 154//154 155//155 156//156
f 152//152 157//157 150//150
f 158//158 159//159 160//160
f 161//161 159//159 158//158
f 162//162 159//159 161//161
f 163//163 162//162 161//161
f 164//164 162//162 163//163
f 165//165 162//162 164//164
f 9//9 166//166 8//8
f 166//166 9//9 167//167
f 168//168 169//169 170//170
f 168//168 171//171 169//169
f 172//172 169//169 173//173
f 174//174 169//169 172//172
f 169//169 174//174 175//175
f 176//176 169//169 175//175
f 177//177 169//169 176//176
f 178//178 169//169 177//177
f 178//178 179//179 169//169
f 179//179 180//180 169//169
f 180//180 181//181 169//169
f 182//182 181//181 180//180
f 182//182 183//183 181//181
f 183//183 184//184 181//181
f 184//184 185//185 181//181
f 185//185 186//186 181//181
f 186//186 187//187 181//181
f 187//187 188//188 181//181
f 188//188 189//189 181//181
f 181//181 189//189 190//190
f 181//181 190//190 191//191
f 192//192 181//181 191//191
f 193//193 181//181 192//192
f 194//194 181//181 193//193
f 195//195 181//181 194//194
f 195//195 196//196 181//181
f 196//196 197//197 198//198
f 196//196 198//198 199//199
f 199//199 200//200 196//196
f 196//196 200//200 201//201
f 201//201 202//202 196//196
f 196//196 202//202 203//203
f 196//196 203//203 204//204
f 205//205 196//196 206//206
f 207//207 196//196 205//205
