v -88.26394 24.05197 -113.7178
v -75.04393 18.51719 -122.5754
v -88.26394 24.05197 -113.7178
v -88.26394 24.05198 -113.7178
v -86.85995 27.33557 -113.6741
v -86.29836 28.64901 -113.6567
v -86.29836 28.64901 -113.6567
v -73.07835 23.11423 -122.5142
v -59.85833 17.57944 -131.3718
v -86.15199 28.68652 -113.4616
v -58.54107 17.917 -129.6167
v -86.1338 28.69118 -113.4374
v -58.37738 17.95895 -129.3986
v -86.1287 28.69249 -113.4306
v -58.33143 17.97073 -129.3374
v -86.07131 28.7072 -113.3541
v -57.81493 18.10308 -128.6492
v -85.36375 28.88851 -112.4114
v -57.73631 18.12323 -128.5445
v -84.6929 29.06042 -111.5176
v -84.61573 29.0802 -111.4148
v -57.6532 18.14453 -128.4337
v -84.45477 29.12145 -111.2003
v -57.63531 18.14911 -128.4099
v -84.02791 29.23083 -110.6316
v -57.58789 18.16126 -128.3467
v -83.91664 29.38689 -110.563
v -56.97519 19.02058 -127.9692
v -56.58648 19.56577 -127.7297
v -83.88903 29.42561 -110.546
v -56.33801 19.91425 -127.5766
v -83.88081 29.43713 -110.5409
v -56.26406 20.01795 -127.5311
v -83.81872 29.52422 -110.5027
v -55.70521 20.80176 -127.1867
v -83.10632 30.52337 -110.0637
v -55.62605 20.91278 -127.138
v -82.51778 31.34883 -109.7011
v -55.56066 21.00449 -127.0977
v -81.93604 32.16472 -109.3427
v -55.49602 21.09515 -127.0578
v -81.91482 32.2748 -109.3798
v -55.30497 22.0859 -127.3918
v -81.86726 32.52145 -109.4629
v -54.87691 24.30573 -128.14
v -81.73457 33.20956 -109.6949
v -81.6815 33.48475 -109.7876
v -54.85628 24.41277 -128.1761
v -81.50056 34.42309 -110.1039
v -54.83617 24.51702 -128.2112
v -81.35156 35.19572 -110.3643
v -54.81962 24.60287 -128.2402
v -81.24815 35.73203 -110.5451
v -54.80813 24.66246 -128.2602
v -54.80812 24.66246 -128.2602
v -81.31465 35.8575 -110.7228
v -55.40669 25.79167 -129.8592
v -81.33423 35.89443 -110.7751
v -55.58288 26.12403 -130.3298
v -81.33623 35.8982 -110.7804
v -55.60086 26.15796 -130.3779
v -81.33716 35.89995 -110.7829
v -55.6092 26.1737 -130.4002
v -81.33833 35.90216 -110.786
v -55.61974 26.19358 -130.4283
v -81.36005 35.94314 -110.844
v -55.81525 26.56242 -130.9506
v -82.36718 37.84309 -113.5344
v -55.92716 26.77353 -131.2495
v -82.36718 37.84309 -113.5344
v -55.92716 26.77353 -131.2495
v -82.36718 37.84309 -113.5344
v -82.36718 37.84309 -113.5344
v -81.80558 39.15654 -113.5169
v -80.4016 42.44014 -113.4733
v -80.4016 42.44014 -113.4733
v -80.4016 42.44013 -113.4733
v -82.36718 37.84309 -113.5344
v -82.36718 37.84309 -113.5344
v -82.36718 37.84309 -113.5344
v -55.92716 26.77353 -131.2495
v -55.92716 26.77353 -131.2495
v -55.92716 26.77353 -131.2495
v -82.36718 37.84309 -113.5344
v -78.16353 38.21801 -107.4947
v -82.36718 37.84309 -113.5344
v -55.92716 26.77353 -131.2495
v -82.36718 37.84309 -113.5344
v -69.14717 32.30831 -122.392
v -55.92716 26.77353 -131.2495
v -67.18158 36.90535 -122.3308
v -55.92717 26.77353 -131.2495
v -55.92716 26.77353 -131.2495
v -55.36556 28.08697 -131.2321
v -51.72351 27.14844 -125.2098
v -55.92716 26.77353 -131.2495
v -78.16353 38.21801 -107.4947
v -53.96157 31.37057 -131.1884
v -51.72351 27.14844 -125.2098
v -54.80812 24.66246 -128.2602
v -54.80813 24.66246 -128.2602
v -75.04393 18.51719 -122.5754
v -88.26394 24.05197 -113.7178
v -88.26394 24.05198 -113.7178
v -86.85995 27.33557 -113.6741
v -73.07835 23.11423 -122.5142
v -86.29836 28.64901 -113.6567
v -60.67251 15.67529 -131.3971
v -61.82392 12.9824 -131.4329
v -59.85833 17.57944 -131.3718
v -88.26394 24.05197 -113.7178
v -83.72305 25.21562 -107.6676
v -79.53932 31.08338 -105.0899
v -84.02791 29.23083 -110.6316
v -84.45477 29.12145 -111.2003
v -84.61573 29.0802 -111.4148
v -84.6929 29.06042 -111.5176
v -85.36375 28.88851 -112.4114
v -86.07131 28.7072 -113.3541
v -86.1287 28.69249 -113.4306
v -86.1338 28.69118 -113.4374
v -86.15199 28.68652 -113.4616
v -86.29836 28.64901 -113.6567
v -83.91664 29.38689 -110.563
v -83.88903 29.42561 -110.546
v -83.88081 29.43713 -110.5409
v -83.81872 29.52422 -110.5027
v -83.10632 30.52337 -110.0637
v -82.51778 31.34883 -109.7011
v -81.93604 32.16472 -109.3427
v -81.91482 32.2748 -109.3798
v -81.86726 32.52145 -109.4629
v -81.73457 33.20956 -109.6949
v -78.16353 38.21801 -107.4947
v -81.6815 33.48475 -109.7876
v -81.50056 34.42309 -110.1039
v -81.35156 35.19572 -110.3643
v -81.24815 35.73203 -110.5451
v -81.31465 35.8575 -110.7228
v -81.33423 35.89443 -110.7751
v -81.33623 35.8982 -110.7804
v -81.33716 35.89995 -110.7829
v -81.33833 35.90216 -110.786
v -81.36005 35.94314 -110.844
v -82.36718 37.84309 -113.5344
v -82.36718 37.84309 -113.5344
v -82.36718 37.84309 -113.5344
v -80.4016 42.44014 -113.4733
v -88.26394 24.05197 -113.7178
v -57.28303 14.14605 -125.3827
v -83.72305 25.21562 -107.6676
v -75.04393 18.51719 -122.5754
v -53.0993 20.01381 -122.805
v -79.53932 31.08338 -105.0899
v -51.72351 27.14844 -125.2098
v -78.16353 38.21801 -107.4947
v -61.82392 12.9824 -131.4329
v -80.4016 42.44013 -113.4733
v -69.14717 32.30831 -122.392
v -82.36718 37.84309 -113.5344
v -67.18158 36.90535 -122.3308
v -55.92717 26.77353 -131.2495
v -53.96157 31.37057 -131.1884
v -55.36556 28.08697 -131.2321
v -55.92716 26.77353 -131.2495
v -59.85833 17.57944 -131.3718
v -57.28303 14.14605 -125.3827
v -60.67251 15.67529 -131.3971
v -57.28303 14.14605 -125.3827
v -61.82392 12.9824 -131.4329
v -59.85833 17.57944 -131.3718
v -58.54107 17.917 -129.6167
v -59.85833 17.57944 -131.3718
v -58.37738 17.95895 -129.3986
v -58.33143 17.97073 -129.3374
v -57.81493 18.10308 -128.6492
v -57.73631 18.12323 -128.5445
v -57.6532 18.14453 -128.4337
v -57.63531 18.14911 -128.4099
v -57.58789 18.16126 -128.3467
v -53.0993 20.01381 -122.805
v -56.97519 19.02058 -127.9692
v -56.58648 19.56577 -127.7297
v -56.33801 19.91425 -127.5766
v -56.26406 20.01795 -127.5311
v -55.70521 20.80176 -127.1867
v -55.62605 20.91278 -127.138
v -55.56066 21.00449 -127.0977
v -55.49602 21.09515 -127.0578
v -55.30497 22.0859 -127.3918
v -54.87691 24.30573 -128.14
v -54.85628 24.41277 -128.1761
v -54.83617 24.51702 -128.2112
v -54.81962 24.60287 -128.2402
v -54.80813 24.66246 -128.2602
v -51.72351 27.14844 -125.2098
v -54.80812 24.66246 -128.2602
v -55.40669 25.79167 -129.8592
v -55.58288 26.12403 -130.3298
v -55.60086 26.15796 -130.3779
v -55.6092 26.1737 -130.4002
v -55.61974 26.19358 -130.4283
v -55.81525 26.56242 -130.9506
v -55.92716 26.77353 -131.2495
v -55.36556 28.08697 -131.2321
v -55.92716 26.77353 -131.2495
v -53.96157 31.37057 -131.1884

vn -0.3931174 -0.9194071 -0.01222585
vn -0.3931173 -0.9194071 -0.01222593
vn -0.8091254 -0.4842743 0.3328582
vn -0.7846581 0.3285104 0.5257307
vn -0.7846581 0.3285104 0.5257307
vn 0.1797528 0.9321826 -0.3142049
vn 0.278199 0.9566251 0.0864526
vn -0.3721829 0.4285751 -0.8232881
vn 0.1797557 0.9321831 -0.3142014
vn 0.1797562 0.9321834 -0.3142007
vn 0.1797561 0.9321833 -0.314201
vn 0.1797555 0.9321831 -0.3142018
vn 0.1797549 0.9321828 -0.3142027
vn 0.1797579 0.932184 -0.3141978
vn 0.1797565 0.9321834 -0.3142002
vn 0.1797562 0.9321833 -0.3142006
vn 0.1797563 0.9321834 -0.3142005
vn 0.1797563 0.9321834 -0.3142004
vn 0.1797562 0.9321833 -0.3142006
vn 0.1797564 0.9321834 -0.3142004
vn 0.1797557 0.9321832 -0.3142013
vn 0.1797548 0.9321829 -0.3142025
vn 0.179756 0.9321833 -0.3142008
vn 0.1797565 0.9321835 -0.3142001
vn 0.08821134 0.8985865 -0.4298387
vn -0.2698152 0.5825409 -0.7667111
vn -0.292418 0.5516448 -0.7811401
vn -0.2924175 0.5516454 -0.7811397
vn -0.2924174 0.5516457 -0.7811397
vn -0.2924164 0.5516474 -0.781139
vn -0.2924157 0.5516484 -0.7811384
vn -0.292415 0.5516497 -0.7811377
vn -0.2924163 0.5516475 -0.7811388
vn -0.2924168 0.5516465 -0.7811393
vn -0.2924171 0.5516461 -0.7811396
vn -0.2924171 0.5516459 -0.7811396
vn -0.2924165 0.5516468 -0.7811391
vn -0.2924169 0.5516464 -0.7811394
vn -0.2924175 0.5516454 -0.7811399
vn -0.3277614 0.4999893 -0.801613
vn -0.580143 -0.09020261 -0.8095047
vn -0.5932953 -0.1520358 -0.7904972
vn -0.5932956 -0.1520368 -0.7904969
vn -0.5932957 -0.1520375 -0.7904968
vn -0.5932956 -0.1520375 -0.7904967
vn -0.5932956 -0.1520371 -0.7904968
vn -0.5932956 -0.1520365 -0.7904969
vn -0.5932956 -0.152037 -0.7904969
vn -0.5932956 -0.1520366 -0.790497
vn -0.5932956 -0.1520369 -0.7904968
vn -0.5932957 -0.1520369 -0.7904969
vn -0.5932956 -0.1520365 -0.7904969
vn -0.617085 -0.3327566 -0.7130774
vn -0.5932914 -0.1520148 -0.7905043
vn -0.5466301 -0.7666594 -0.3367923
vn -0.5466297 -0.76666 -0.3367912
vn -0.5466296 -0.7666604 -0.336791
vn -0.5466291 -0.766661 -0.3367901
vn -0.5466299 -0.7666599 -0.3367916
vn -0.5466306 -0.766659 -0.3367927
vn -0.5466316 -0.7666572 -0.3367946
vn -0.5466492 -0.7666305 -0.336827
vn -0.5466381 -0.7666473 -0.3368068
vn -0.5466272 -0.7666641 -0.3367863
vn -0.5466287 -0.7666618 -0.3367893
vn -0.5466297 -0.76666 -0.3367913
vn -0.54663 -0.7666597 -0.3367918
vn -0.5466301 -0.7666596 -0.336792
vn -0.5466315 -0.7666568 -0.336796
vn -0.5878903 -0.6634164 -0.4628864
vn -0.3931172 -0.9194072 -0.01222603
vn -0.3931172 -0.9194072 -0.01222603
vn -0.3931172 -0.9194072 -0.01222603
vn -0.7846581 0.3285104 0.5257307
vn 0.54663 0.7666599 0.3367915
vn -0.7846581 0.3285104 0.5257307
vn -0.4241893 0.3339193 -0.841761
vn -0.8519633 -0.3473249 0.3918212
vn -0.8697616 -0.2465248 0.4274814
vn -0.4478728 -0.8937433 0.02515751
vn -0.3931172 -0.9194072 -0.01222603
vn -0.3931172 -0.9194072 -0.01222603
vn -0.3931172 -0.9194072 -0.01222603
vn -0.4718481 -0.8806794 0.04199066
vn -0.7846581 0.3285104 0.5257307
vn -0.4030247 -0.9151722 -0.005572523
vn -0.3931172 -0.9194072 -0.01222603
vn -0.5001335 -0.8637083 0.06224638
vn -0.393114 -0.9194086 -0.0122204
vn -0.3452927 -0.9374742 -0.04376446
vn 0.5466299 0.7666599 0.3367915
vn -0.3931058 -0.9194123 -0.01220592
vn 0.7846553 -0.3285168 -0.5257308
vn 0.7846581 -0.3285104 -0.5257307
vn 0.7846583 -0.3285105 -0.5257304
vn 0 0 0
vn 0.54663 0.7666599 0.3367916
vn 0.5466299 0.7666599 0.3367916
vn 0.54663 0.7666599 0.3367916
vn 0.7846583 -0.3285105 -0.5257304
vn 0.7846583 -0.3285105 -0.5257304
vn -0.4793442 0.2162669 -0.8505633
vn -0.4793441 0.2162669 -0.8505633
vn -0.4793442 0.2162669 -0.8505633
vn -0.4793442 0.2162669 -0.8505633
vn -0.4793442 0.2162669 -0.8505633
vn -0.4793442 0.2162669 -0.8505633
vn -0.4793442 0.2162669 -0.8505633
vn -0.4793442 0.2162669 -0.8505633
vn -0.4793442 0.2162669 -0.8505633
vn -0.7846581 0.3285104 0.5257307
vn -0.7846581 0.3285104 0.5257307
vn -0.7846581 0.3285104 0.5257307
vn -0.7846581 0.3285104 0.5257307
vn -0.7846581 0.3285104 0.5257307
vn -0.7846581 0.3285104 0.5257307
vn -0.7846581 0.3285104 0.5257307
vn -0.7846581 0.3285104 0.5257307
vn -0.7846581 0.3285104 0.5257307
vn -0.7846581 0.3285104 0.5257307
vn -0.7846581 0.3285104 0.5257307
vn -0.7846581 0.3285104 0.5257307
vn -0.7846581 0.3285104 0.5257307
vn -0.784658 0.3285104 0.5257307
vn -0.7846581 0.3285104 0.5257307
vn -0.7846581 0.3285104 0.5257307
vn -0.784658 0.3285104 0.5257307
vn -0.7846581 0.3285104 0.5257307
vn -0.7846581 0.3285104 0.5257307
vn -0.7846581 0.3285104 0.5257307
vn -0.784658 0.3285104 0.5257307
vn -0.7846581 0.3285104 0.5257307
vn -0.7846581 0.3285104 0.5257307
vn -0.7846581 0.3285104 0.5257307
vn -0.7846581 0.3285104 0.5257307
vn -0.7846581 0.3285104 0.5257307
vn -0.7846581 0.3285104 0.5257307
vn -0.7846581 0.3285104 0.5257307
vn -0.7846581 0.3285104 0.5257307
vn -0.7846581 0.3285104 0.5257307
vn -0.7846581 0.3285104 0.5257307
vn -0.784658 0.3285104 0.5257307
vn -0.7846581 0.3285104 0.5257307
vn -0.784658 0.3285104 0.5257307
vn -0.784658 0.3285104 0.5257307
vn -0.7846581 0.3285104 0.5257307
vn -0.784658 0.3285104 0.5257307
vn -0.784658 0.3285104 0.5257307
vn -0.1797561 -0.9321833 0.314201
vn -0.02398023 -0.8634993 0.5037796
vn 0.1447776 -0.7274929 0.6706666
vn -0.179756 -0.9321831 0.314201
vn 0.4210714 -0.3399852 0.8408979
vn 0.5286075 -0.08848396 0.8442422
vn 0.5932956 0.1520371 0.7904968
vn 0.5932957 0.1520371 0.7904968
vn -0.179756 -0.9321833 0.3142009
vn -0.4793442 0.2162669 -0.8505633
vn -0.4793442 0.2162669 -0.8505633
vn -0.4793442 0.2162669 -0.8505633
vn -0.4793442 0.2162669 -0.8505633
vn -0.4793442 0.2162669 -0.8505633
vn -0.4793442 0.2162669 -0.8505633
vn -0.4793442 0.2162669 -0.8505633
vn -0.4793441 0.2162669 -0.8505633
vn 0.544079 0.8336785 -0.09464782
vn 0.7846578 -0.3285111 -0.5257307
vn 0.7846581 -0.3285105 -0.5257305
vn 0.7846581 -0.3285106 -0.5257306
vn 0.7846581 -0.3285105 -0.5257306
vn 0.7846581 -0.3285105 -0.5257306
vn 0.784658 -0.3285107 -0.5257306
vn 0.784658 -0.3285107 -0.5257306
vn 0.784658 -0.3285107 -0.5257306
vn 0.784658 -0.3285107 -0.5257306
vn 0.784658 -0.3285107 -0.5257306
vn 0.784658 -0.3285107 -0.5257306
vn 0.784658 -0.3285107 -0.5257306
vn 0.784658 -0.3285107 -0.5257306
vn 0.7846581 -0.3285106 -0.5257305
vn 0.7846582 -0.3285105 -0.5257305
vn 0.7846581 -0.3285106 -0.5257305
vn 0.7846581 -0.3285106 -0.5257305
vn 0.7846581 -0.3285106 -0.5257305
vn 0.7846581 -0.3285106 -0.5257305
vn 0.7846581 -0.3285106 -0.5257305
vn 0.7846581 -0.3285106 -0.5257305
vn 0.7846581 -0.3285106 -0.5257305
vn 0.7846583 -0.3285104 -0.5257305
vn 0.7846583 -0.3285104 -0.5257305
vn 0.7846583 -0.3285104 -0.5257305
vn 0.7846583 -0.3285104 -0.5257305
vn 0.7846583 -0.3285104 -0.5257305
vn 0.7846583 -0.3285104 -0.5257305
vn 0.7846583 -0.3285104 -0.5257305
vn 0.7846582 -0.3285104 -0.5257306
vn 0.7846583 -0.3285102 -0.5257306
vn 0.7846583 -0.3285102 -0.5257306
vn 0.7846583 -0.3285102 -0.5257306
vn 0.7846583 -0.3285102 -0.5257306
vn 0.7846583 -0.3285102 -0.5257306
vn 0.7846583 -0.3285102 -0.5257306
vn 0.7846583 -0.3285102 -0.5257306
vn 0.7846582 -0.3285102 -0.5257306
vn 0.7846581 -0.3285105 -0.5257306
vn 0.7846581 -0.3285105 -0.5257306
vn 0.7846581 -0.3285105 -0.5257305

f 1//1 2//2 3//3
f 4//4 1//1 3//3
f 3//3 5//5 4//4
f 3//3 6//6 5//5
f 5//5 6//6 7//7
f 8//8 7//7 6//6
f 9//9 8//8 6//6
f 10//10 9//9 6//6
f 9//9 10//10 11//11
f 11//11 10//10 12//12
f 13//13 11//11 12//12
f 13//13 12//12 14//14
f 13//13 14//14 15//15
f 15//15 14//14 16//16
f 15//15 16//16 17//17
f 18//18 17//17 16//16
f 19//19 17//17 18//18
f 19//19 18//18 20//20
f 21//21 19//19 20//20
f 22//22 19//19 21//21
f 22//22 21//21 23//23
f 24//24 22//22 23//23
f 24//24 23//23 25//25
f 26//26 24//24 25//25
f 26//26 25//25 27//27
f 28//28 26//26 27//27
f 28//28 27//27 29//29
f 29//29 27//27 30//30
f 31//31 29//29 30//30
f 31//31 30//30 32//32
f 33//33 31//31 32//32
f 33//33 32//32 34//34
f 35//35 33//33 34//34
f 35//35 34//34 36//36
f 37//37 35//35 36//36
f 37//37 36//36 38//38
f 39//39 37//37 38//38
f 39//39 38//38 40//40
f 41//41 39//39 40//40
f 41//41 40//40 42//42
f 41//41 42//42 43//43
f 43//43 42//42 44//44
f 45//45 43//43 44//44
f 45//45 44//44 46//46
f 47//47 45//45 46//46
f 48//48 45//45 47//47
f 48//48 47//47 49//49
f 50//50 48//48 49//49
f 50//50 49//49 51//51
f 52//52 50//50 51//51
f 52//52 51//51 53//53
f 54//54 52//52 53//53
f 55//55 54//54 53//53
f 55//55 53//53 56//56
f 55//55 56//56 57//57
f 57//57 56//56 58//58
f 57//57 58//58 59//59
f 59//59 58//58 60//60
f 59//59 60//60 61//61
f 61//61 60//60 62//62
f 61//61 62//62 63//63
f 63//63 62//62 64//64
f 63//63 64//64 65//65
f 65//65 64//64 66//66
f 65//65 66//66 67//67
f 68//68 67//67 66//66
f 69//69 67//67 68//68
f 69//69 68//68 70//70
f 71//71 69//69 70//70
f 72//72 71//71 73//73
f 74//74 75//75 76//76
f 77//77 74//74 76//76
f 75//75 77//77 76//76
f 78//78 75//75 74//74
f 79//79 75//75 78//78
f 78//78 74//74 80//80
f 81//81 78//78 80//80
f 82//82 78//78 81//81
f 82//82 83//83 78//78
f 83//83 84//84 79//79
f 84//84 85//85 79//79
f 80//80 74//74 86//86
f 87//87 80//80 86//86
f 81//81 80//80 87//87
f 86//86 74//74 88//88
f 88//88 74//74 77//77
f 86//86 88//88 89//89
f 90//90 86//86 89//89
f 87//87 86//86 90//90
f 75//75 91//91 77//77
f 90//90 89//89 92//92
f 90//90 92//92 93//93
f 94//94 90//90 93//93
f 95//95 83//83 82//82
f 95//95 82//82 81//81
f 95//95 81//81 87//87
f 95//95 87//87 90//90
f 95//95 96//96 83//83
f 97//97 91//91 75//75
f 97//97 98//98 91//91
f 97//97 99//99 98//98
f 100//100 95//95 101//101
f 102//102 103//103 104//104
f 102//102 104//104 105//105
f 102//102 105//105 106//106
f 106//106 105//105 107//107
f 108//108 102//102 106//106
f 109//109 102//102 108//108
f 110//110 108//108 106//106
f 111//111 112//112 113//113
f 111//111 113//113 114//114
f 111//111 114//114 115//115
f 111//111 115//115 116//116
f 111//111 116//116 117//117
f 117//117 118//118 111//111
f 118//118 119//119 111//111
f 120//120 111//111 119//119
f 120//120 121//121 111//111
f 121//121 122//122 111//111
f 111//111 122//122 123//123
f 114//114 113//113 124//124
f 124//124 113//113 125//125
f 125//125 113//113 126//126
f 126//126 113//113 127//127
f 127//127 113//113 128//128
f 128//128 113//113 129//129
f 129//129 113//113 130//130
f 130//130 113//113 131//131
f 131//131 113//113 132//132
f 132//132 113//113 133//133
f 133//133 113//113 134//134
f 133//133 134//134 135//135
f 135//135 134//134 136//136
f 134//134 137//137 136//136
f 137//137 134//134 138//138
f 138//138 134//134 139//139
f 139//139 134//134 140//140
f 140//140 134//134 141//141
f 134//134 142//142 141//141
f 134//134 143//143 142//142
f 134//134 144//144 143//143
f 144//144 134//134 145//145
f 145//145 134//134 146//146
f 147//147 134//134 148//148
f 149//149 150//150 151//151
f 149//149 152//152 150//150
f 151//151 150//150 153//153
f 151//151 153//153 154//154
f 154//154 153//153 155//155
f 154//154 155//155 156//156
f 152//152 157//157 150//150
f 158//158 159//159 160//160
f 161//161 159//159 158//158
f 162//162 159//159 161//161
f 163//163 162//162 161//161
f 164//164 162//162 163//163
f 165//165 162//162 164//164
f 9//9 166//166 8//8
f 166//166 9//9 167//167
f 168//168 169//169 170//170
f 168//168 171//171 169//169
f 172//172 169//169 173//173
f 174//174 169//169 172//172
f 169//169 174//174 175//175
f 176//176 169//169 175//175
f 177//177 169//169 176//176
f 178//178 169//169 177//177
f 178//178 179//179 169//169
f 179//179 180//180 169//169
f 180//180 181//181 169//169
f 182//182 181//181 180//180
f 182//182 183//183 181//181
f 183//183 184//184 181//181
f 184//184 185//185 181//181
f 185//185 186//186 181//181
f 186//186 187//187 181//181
f 187//187 188//188 181//181
f 188//188 189//189 181//181
f 181//181 189//189 190//190
f 181//181 190//190 191//191
f 192//192 181//181 191//191
f 193//193 181//181 192//192
f 194//194 181//181 193//193
f 195//195 181//181 194//194
f 195//195 196//196 181//181
f 196//196 197//197 198//198
f 196//196 198//198 199//199
f 199//199 200//200 196//196
f 196//196 200//200 201//201
f 201//201 202//202 196//196
f 196//196 202//202 203//203
f 196//196 203//203 204//204
f 205//205 196//196 206//206
f 207//207 196//196 205//205
