v -111.5105 -44.70526 -84.43034
v -115.3814 -28.30785 -84.43034
v -111.5105 -44.70526 -84.43034
v -111.5105 -44.70526 -84.43034
v -113.2787 -45.12269 -81.35559
v -113.986 -45.28966 -80.12569
v -113.986 -45.28966 -80.12569
v -117.8569 -28.89226 -80.12569
v -121.7278 -12.49485 -80.12569
v -113.8418 -45.25561 -79.92846
v -120.4298 -12.18842 -78.35069
v -113.8239 -45.25138 -79.90395
v -120.2685 -12.15034 -78.13011
v -113.8189 -45.25019 -79.89707
v -120.2232 -12.13965 -78.06819
v -113.7623 -45.23684 -79.81974
v -119.7142 -12.0195 -77.37222
v -113.0651 -45.07225 -78.86632
v -119.6367 -12.00121 -77.26628
v -112.404 -44.91619 -77.96236
v -112.3279 -44.89824 -77.85837
v -119.5548 -11.98188 -77.15428
v -112.1693 -44.86079 -77.64146
v -119.5372 -11.97772 -77.13019
v -111.7487 -44.76149 -77.06628
v -119.4905 -11.96669 -77.06628
v -111.7765 -44.76807 -76.86474
v -119.6438 -12.00288 -75.95654
v -119.741 -12.02584 -75.25248
v -111.7834 -44.7697 -76.81474
v -119.8032 -12.04051 -74.80245
v -111.7855 -44.77018 -76.79986
v -119.8217 -12.04488 -74.66852
v -111.801 -44.77385 -76.68739
v -119.9615 -12.07789 -73.6563
v -111.9793 -44.81593 -75.39707
v -119.9813 -12.08257 -73.51293
v -112.1265 -44.85069 -74.33107
v -119.9977 -12.08643 -73.39449
v -112.2721 -44.88506 -73.27741
v -120.0139 -12.09025 -73.27741
v -112.364 -44.90675 -73.20647
v -120.8408 -12.28547 -72.63895
v -112.5699 -44.95535 -73.04753
v -122.6937 -12.72286 -71.20845
v -113.1442 -45.09093 -72.6041
v -113.3739 -45.14516 -72.42677
v -122.783 -12.74395 -71.13947
v -114.1571 -45.33005 -71.82207
v -122.8701 -12.7645 -71.07229
v -114.802 -45.48228 -71.32418
v -122.9417 -12.78141 -71.01697
v -115.2497 -45.58796 -70.97857
v -122.9915 -12.79316 -70.97856
v -122.9915 -12.79316 -70.97856
v -115.4688 -45.6397 -71.01053
v -124.9639 -13.25878 -71.26624
v -115.5333 -45.65493 -71.01994
v -125.5445 -13.39584 -71.35091
v -115.5399 -45.65648 -71.0209
v -125.6037 -13.40983 -71.35955
v -115.543 -45.6572 -71.02135
v -125.6312 -13.41632 -71.36356
v -115.5468 -45.65812 -71.0219
v -125.6659 -13.42451 -71.36862
v -115.6184 -45.67501 -71.03235
v -126.3102 -13.5766 -71.46259
v -118.9372 -46.45847 -71.51637
v -126.679 -13.66366 -71.51637
v -118.9372 -46.45847 -71.51637
v -126.679 -13.66366 -71.51637
v -118.9372 -46.45847 -71.51637
v -118.9372 -46.45847 -71.51637
v -119.6445 -46.62543 -70.28646
v -121.4127 -47.04287 -67.21171
v -121.4127 -47.04287 -67.21171
v -121.4127 -47.04287 -67.21171
v -118.9372 -46.45847 -71.51637
v -118.9372 -46.45847 -71.51637
v -118.9372 -46.45847 -71.51637
v -126.679 -13.66366 -71.51637
v -126.679 -13.66366 -71.51637
v -126.679 -13.66366 -71.51637
v -118.9372 -46.45847 -71.51637
v -114.0377 -45.30186 -66.13611
v -118.9372 -46.45847 -71.51637
v -126.679 -13.66366 -71.51637
v -118.9372 -46.45847 -71.51637
v -122.8081 -30.06106 -71.51637
v -126.679 -13.66366 -71.51637
v -125.2836 -30.64546 -67.21171
v -126.679 -13.66367 -71.51637
v -126.679 -13.66366 -71.51637
v -127.3863 -13.83063 -70.28646
v -121.7795 -12.50706 -66.13611
v -126.679 -13.66366 -71.51637
v -114.0377 -45.30186 -66.13611
v -129.1545 -14.24806 -67.21171
v -121.7795 -12.50706 -66.13611
v -122.9915 -12.79316 -70.97856
v -122.9915 -12.79316 -70.97856
v -115.3814 -28.30785 -84.43034
v -111.5105 -44.70526 -84.43034
v -111.5105 -44.70526 -84.43034
v -113.2787 -45.12269 -81.35559
v -117.8569 -28.89226 -80.12569
v -113.986 -45.28966 -80.12569
v -120.7024 -12.25278 -81.90873
v -119.2523 -11.91045 -84.43034
v -121.7278 -12.49485 -80.12569
v -111.5105 -44.70526 -84.43034
v -107.0358 -43.64893 -78.31152
v -108.0826 -43.89605 -70.7338
v -111.7487 -44.76149 -77.06628
v -112.1693 -44.86079 -77.64146
v -112.3279 -44.89824 -77.85837
v -112.404 -44.91619 -77.96236
v -113.0651 -45.07225 -78.86632
v -113.7623 -45.23684 -79.81974
v -113.8189 -45.25019 -79.89707
v -113.8239 -45.25138 -79.90395
v -113.8418 -45.25561 -79.92846
v -113.986 -45.28966 -80.12569
v -111.7765 -44.76807 -76.86474
v -111.7834 -44.7697 -76.81474
v -111.7855 -44.77018 -76.79986
v -111.801 -44.77385 -76.68739
v -111.9793 -44.81593 -75.39707
v -112.1265 -44.85069 -74.33107
v -112.2721 -44.88506 -73.27741
v -112.364 -44.90675 -73.20647
v -112.5699 -44.95535 -73.04753
v -113.1442 -45.09093 -72.6041
v -114.0377 -45.30186 -66.13611
v -113.3739 -45.14516 -72.42677
v -114.1571 -45.33005 -71.82207
v -114.802 -45.48228 -71.32418
v -115.2497 -45.58796 -70.97857
v -115.4688 -45.6397 -71.01053
v -115.5333 -45.65493 -71.01994
v -115.5399 -45.65648 -71.0209
v -115.543 -45.6572 -71.02135
v -115.5468 -45.65812 -71.0219
v -115.6184 -45.67501 -71.03235
v -118.9372 -46.45847 -71.51637
v -118.9372 -46.45847 -71.51637
v -118.9372 -46.45847 -71.51637
v -121.4127 -47.04287 -67.21171
v -111.5105 -44.70526 -84.43034
v -114.7776 -10.85412 -78.31152
v -107.0358 -43.64893 -78.31152
v -115.3814 -28.30785 -84.43034
v -115.8244 -11.10124 -70.7338
v -108.0826 -43.89605 -70.7338
v -121.7795 -12.50706 -66.13611
v -114.0377 -45.30186 -66.13611
v -119.2523 -11.91045 -84.43034
v -121.4127 -47.04287 -67.21171
v -122.8081 -30.06106 -71.51637
v -118.9372 -46.45847 -71.51637
v -125.2836 -30.64546 -67.21171
v -126.679 -13.66367 -71.51637
v -129.1545 -14.24806 -67.21171
v -127.3863 -13.83063 -70.28646
v -126.679 -13.66366 -71.51637
v -121.7278 -12.49485 -80.12569
v -114.7776 -10.85412 -78.31152
v -120.7024 -12.25278 -81.90873
v -114.7776 -10.85412 -78.31152
v -119.2523 -11.91045 -84.43034
v -121.7278 -12.49485 -80.12569
v -120.4298 -12.18842 -78.35069
v -121.7278 -12.49485 -80.12569
v -120.2685 -12.15034 -78.13011
v -120.2232 -12.13965 -78.06819
v -119.7142 -12.0195 -77.37222
v -119.6367 -12.00121 -77.26628
v -119.5548 -11.98188 -77.15428
v -119.5372 -11.97772 -77.13019
v -119.4905 -11.96669 -77.06628
v -115.8244 -11.10124 -70.7338
v -119.6438 -12.00288 -75.95654
v -119.741 -12.02584 -75.25248
v -119.8032 -12.04051 -74.80245
v -119.8217 -12.04488 -74.66852
v -119.9615 -12.07789 -73.6563
v -119.9813 -12.08257 -73.51293
v -119.9977 -12.08643 -73.39449
v -120.0139 -12.09025 -73.27741
v -120.8408 -12.28547 -72.63895
v -122.6937 -12.72286 -71.20845
v -122.783 -12.74395 -71.13947
v -122.8701 -12.7645 -71.07229
v -122.9417 -12.78141 -71.01697
v -122.9915 -12.79316 -70.97856
v -121.7795 -12.50706 -66.13611
v -122.9915 -12.79316 -70.97856
v -124.9639 -13.25878 -71.26624
v -125.5445 -13.39584 -71.35091
v -125.6037 -13.40983 -71.35955
v -125.6312 -13.41632 -71.36356
v -125.6659 -13.42451 -71.36862
v -126.3102 -13.5766 -71.46259
v -126.679 -13.66366 -71.51637
v -127.3863 -13.83063 -70.28646
v -126.679 -13.66366 -71.51637
v -129.1545 -14.24806 -67.21171

vn 0.4951129 0.1168797 -0.8609311
vn 0.4951129 0.1168799 -0.8609311
vn 0.5254387 -0.54464 -0.6536677
vn 0.2297526 -0.9732491 -1.490116E-07
vn 0.2297526 -0.9732491 -1.490116E-07
vn -0.778078 -0.183679 0.6007134
vn -0.4576449 -0.2533434 0.8522784
vn -0.9315611 -0.2199111 -0.289539
vn -0.7780753 -0.1836781 0.6007171
vn -0.7780749 -0.1836781 0.6007178
vn -0.7780751 -0.1836781 0.6007175
vn -0.7780758 -0.1836781 0.6007167
vn -0.7780764 -0.1836782 0.6007158
vn -0.7780728 -0.183678 0.6007205
vn -0.7780745 -0.1836781 0.6007182
vn -0.7780748 -0.1836781 0.6007178
vn -0.7780748 -0.1836781 0.600718
vn -0.7780747 -0.1836781 0.600718
vn -0.7780749 -0.1836781 0.6007177
vn -0.7780747 -0.1836781 0.6007181
vn -0.7780753 -0.1836782 0.6007171
vn -0.7780762 -0.1836784 0.6007158
vn -0.7780749 -0.1836782 0.6007175
vn -0.7780745 -0.1836781 0.6007183
vn -0.8573571 -0.2023941 0.4732604
vn -0.9683782 -0.2286025 -0.09992211
vn -0.9635903 -0.2274721 -0.1405356
vn -0.9635903 -0.2274722 -0.1405347
vn -0.9635904 -0.2274722 -0.1405344
vn -0.9635907 -0.2274725 -0.1405324
vn -0.9635908 -0.2274726 -0.1405311
vn -0.9635909 -0.2274728 -0.1405294
vn -0.9635907 -0.2274725 -0.1405322
vn -0.9635904 -0.2274722 -0.1405334
vn -0.9635905 -0.2274722 -0.140534
vn -0.9635904 -0.2274721 -0.140534
vn -0.9635905 -0.2274722 -0.1405329
vn -0.9635906 -0.2274722 -0.1405336
vn -0.9635903 -0.2274721 -0.1405348
vn -0.9524987 -0.2248537 -0.2053947
vn -0.6347095 -0.1498341 -0.7580856
vn -0.5846488 -0.1380164 -0.7994606
vn -0.584648 -0.1380162 -0.7994612
vn -0.5846475 -0.138016 -0.7994617
vn -0.5846474 -0.138016 -0.7994617
vn -0.5846477 -0.1380161 -0.7994614
vn -0.5846482 -0.1380164 -0.799461
vn -0.5846478 -0.1380162 -0.7994614
vn -0.5846482 -0.1380163 -0.7994612
vn -0.5846478 -0.1380162 -0.7994613
vn -0.5846479 -0.1380163 -0.7994614
vn -0.5846482 -0.1380163 -0.799461
vn -0.4198515 -0.09911322 -0.9021648
vn -0.5846663 -0.1380206 -0.7994471
vn 0.1367735 0.03228782 -0.990076
vn 0.1367747 0.03228816 -0.9900758
vn 0.1367752 0.0322883 -0.9900758
vn 0.1367763 0.03228867 -0.9900755
vn 0.1367743 0.03228801 -0.9900759
vn 0.1367729 0.03228737 -0.9900762
vn 0.1367703 0.03228647 -0.9900765
vn 0.136728 0.03227071 -0.9900829
vn 0.1367545 0.03228065 -0.9900789
vn 0.1367812 0.0322904 -0.9900749
vn 0.1367773 0.03228909 -0.9900755
vn 0.1367746 0.0322881 -0.9900758
vn 0.136774 0.03228794 -0.9900759
vn 0.1367738 0.03228788 -0.990076
vn 0.1367689 0.0322868 -0.9900767
vn -0.02657595 -0.006273626 -0.9996272
vn 0.4951128 0.1168801 -0.8609311
vn 0.4951128 0.1168801 -0.8609311
vn 0.4951128 0.1168801 -0.8609311
vn 0.2297526 -0.9732491 -1.490116E-07
vn -0.1367744 -0.0322879 0.9900759
vn 0.2297526 -0.9732491 -1.490116E-07
vn -0.8951395 -0.2113132 -0.3925203
vn 0.49626 -0.6641417 -0.5591437
vn 0.468747 -0.7382731 -0.4850042
vn 0.5101853 0.0474363 -0.8587554
vn 0.4951128 0.1168801 -0.8609311
vn 0.4951128 0.1168801 -0.8609311
vn 0.4951128 0.1168801 -0.8609311
vn 0.5161445 0.01601112 -0.8563519
vn 0.2297526 -0.9732491 -1.490116E-07
vn 0.4979777 0.1045451 -0.860865
vn 0.4951128 0.1168801 -0.8609311
vn 0.5226286 -0.02193283 -0.8522783
vn 0.4951184 0.1168814 -0.8609277
vn 0.4804301 0.175106 -0.8593747
vn -0.1367744 -0.03228796 0.9900758
vn 0.4951326 0.1168847 -0.8609191
vn -0.2297492 0.9732499 -5.828223E-06
vn -0.2297526 0.9732491 1.490116E-07
vn -0.2297522 0.9732491 3.685675E-07
vn 0 0 0
vn -0.1367743 -0.03228796 0.9900759
vn -0.1367744 -0.032288 0.9900759
vn -0.1367744 -0.03228797 0.990076
vn -0.2297522 0.9732491 3.685675E-07
vn -0.2297522 0.9732491 3.685675E-07
vn -0.8379004 -0.1978009 -0.5087216
vn -0.8379004 -0.1978009 -0.5087216
vn -0.8379004 -0.1978009 -0.5087216
vn -0.8379004 -0.1978009 -0.5087216
vn -0.8379004 -0.1978009 -0.5087216
vn -0.8379004 -0.1978009 -0.5087216
vn -0.8379004 -0.1978009 -0.5087216
vn -0.8379004 -0.1978009 -0.5087216
vn -0.8379004 -0.1978009 -0.5087216
vn 0.2297526 -0.9732491 -1.490116E-07
vn 0.2297526 -0.9732491 -1.490116E-07
vn 0.2297526 -0.9732491 -1.490116E-07
vn 0.2297526 -0.9732491 -1.490116E-07
vn 0.2297526 -0.9732491 -1.490116E-07
vn 0.2297526 -0.9732491 -1.490116E-07
vn 0.2297526 -0.9732491 -1.490116E-07
vn 0.2297526 -0.9732491 -1.490116E-07
vn 0.2297526 -0.9732491 -1.490116E-07
vn 0.2297526 -0.9732491 -1.490116E-07
vn 0.2297526 -0.9732491 -1.490116E-07
vn 0.2297526 -0.9732491 -1.490116E-07
vn 0.2297526 -0.9732491 -1.490116E-07
vn 0.2297526 -0.973249 -1.490116E-07
vn 0.2297526 -0.9732491 -1.490116E-07
vn 0.2297526 -0.9732491 -1.490116E-07
vn 0.2297526 -0.973249 -1.490116E-07
vn 0.2297526 -0.9732491 -1.490116E-07
vn 0.2297526 -0.9732491 -1.490116E-07
vn 0.2297526 -0.9732491 -1.490116E-07
vn 0.2297526 -0.973249 -1.490116E-07
vn 0.2297526 -0.9732491 -1.490116E-07
vn 0.2297526 -0.9732491 -1.490116E-07
vn 0.2297526 -0.9732491 -1.490116E-07
vn 0.2297526 -0.9732491 -1.490116E-07
vn 0.2297526 -0.9732491 -1.490116E-07
vn 0.2297526 -0.9732491 -1.490116E-07
vn 0.2297526 -0.9732491 -1.490116E-07
vn 0.2297526 -0.9732491 -1.490116E-07
vn 0.2297526 -0.9732491 -1.490116E-07
vn 0.2297526 -0.9732491 -1.490116E-07
vn 0.2297526 -0.973249 -1.490116E-07
vn 0.2297526 -0.9732491 -1.490116E-07
vn 0.2297526 -0.973249 -1.490116E-07
vn 0.2297526 -0.973249 -1.490116E-07
vn 0.2297526 -0.9732491 -1.490116E-07
vn 0.2297526 -0.973249 -1.490116E-07
vn 0.2297526 -0.973249 -1.490116E-07
vn 0.7780752 0.1836781 -0.6007175
vn 0.9005724 0.2125957 -0.3791733
vn 0.9668768 0.228248 -0.1142451
vn 0.778075 0.1836781 -0.6007174
vn 0.8977445 0.2119281 0.3861882
vn 0.7623078 0.179956 0.6216934
vn 0.5846477 0.1380162 0.7994614
vn 0.5846478 0.1380162 0.7994614
vn 0.778075 0.1836781 -0.6007175
vn -0.8379004 -0.1978009 -0.5087216
vn -0.8379004 -0.1978009 -0.5087216
vn -0.8379004 -0.1978009 -0.5087216
vn -0.8379004 -0.1978009 -0.5087216
vn -0.8379004 -0.1978009 -0.5087216
vn -0.8379004 -0.1978009 -0.5087216
vn -0.8379004 -0.1978009 -0.5087216
vn -0.8379004 -0.1978009 -0.5087216
vn -0.5314187 0.08292664 0.8430405
vn -0.2297522 0.9732491 -4.852869E-07
vn -0.2297524 0.973249 2.587895E-07
vn -0.2297523 0.9732491 1.718054E-07
vn -0.2297524 0.9732491 2.587895E-07
vn -0.2297524 0.9732491 2.587895E-07
vn -0.2297523 0.9732491 -4.941707E-08
vn -0.2297523 0.9732491 -4.941725E-08
vn -0.2297523 0.9732491 -4.941653E-08
vn -0.2297523 0.9732491 -4.941742E-08
vn -0.2297523 0.9732491 -4.941749E-08
vn -0.2297523 0.9732491 -4.941688E-08
vn -0.2297523 0.9732491 -4.941464E-08
vn -0.2297523 0.9732491 -4.941984E-08
vn -0.2297523 0.9732491 1.93222E-07
vn -0.2297523 0.9732491 3.042611E-07
vn -0.2297523 0.9732491 1.954329E-07
vn -0.2297523 0.9732491 1.954326E-07
vn -0.2297523 0.9732491 1.954321E-07
vn -0.2297523 0.9732491 1.954324E-07
vn -0.2297523 0.9732491 1.954324E-07
vn -0.2297523 0.9732491 1.954325E-07
vn -0.2297523 0.9732491 1.954331E-07
vn -0.2297524 0.9732491 3.91298E-07
vn -0.2297524 0.9732491 4.130896E-07
vn -0.2297524 0.9732491 4.130897E-07
vn -0.2297524 0.9732491 4.130889E-07
vn -0.2297524 0.9732491 4.130908E-07
vn -0.2297524 0.9732491 4.130899E-07
vn -0.2297524 0.9732491 4.130895E-07
vn -0.2297525 0.9732491 3.639623E-07
vn -0.2297526 0.9732491 4.760533E-07
vn -0.2297526 0.9732491 4.760535E-07
vn -0.2297526 0.9732491 4.760537E-07
vn -0.2297526 0.9732491 4.760493E-07
vn -0.2297526 0.9732491 4.760542E-07
vn -0.2297526 0.9732491 4.760538E-07
vn -0.2297526 0.9732491 4.760528E-07
vn -0.2297526 0.973249 4.76052E-07
vn -0.2297524 0.9732491 2.587895E-07
vn -0.2297524 0.9732491 2.587896E-07
vn -0.2297524 0.973249 2.587895E-07

f 1//1 2//2 3//3
f 4//4 1//1 3//3
f 3//3 5//5 4//4
f 3//3 6//6 5//5
f 5//5 6//6 7//7
f 8//8 7//7 6//6
f 9//9 8//8 6//6
f 10//10 9//9 6//6
f 9//9 10//10 11//11
f 11//11 10//10 12//12
f 13//13 11//11 12//12
f 13//13 12//12 14//14
f 13//13 14//14 15//15
f 15//15 14//14 16//16
f 15//15 16//16 17//17
f 18//18 17//17 16//16
f 19//19 17//17 18//18
f 19//19 18//18 20//20
f 21//21 19//19 20//20
f 22//22 19//19 21//21
f 22//22 21//21 23//23
f 24//24 22//22 23//23
f 24//24 23//23 25//25
f 26//26 24//24 25//25
f 26//26 25//25 27//27
f 28//28 26//26 27//27
f 28//28 27//27 29//29
f 29//29 27//27 30//30
f 31//31 29//29 30//30
f 31//31 30//30 32//32
f 33//33 31//31 32//32
f 33//33 32//32 34//34
f 35//35 33//33 34//34
f 35//35 34//34 36//36
f 37//37 35//35 36//36
f 37//37 36//36 38//38
f 39//39 37//37 38//38
f 39//39 38//38 40//40
f 41//41 39//39 40//40
f 41//41 40//40 42//42
f 41//41 42//42 43//43
f 43//43 42//42 44//44
f 45//45 43//43 44//44
f 45//45 44//44 46//46
f 47//47 45//45 46//46
f 48//48 45//45 47//47
f 48//48 47//47 49//49
f 50//50 48//48 49//49
f 50//50 49//49 51//51
f 52//52 50//50 51//51
f 52//52 51//51 53//53
f 54//54 52//52 53//53
f 55//55 54//54 53//53
f 55//55 53//53 56//56
f 55//55 56//56 57//57
f 57//57 56//56 58//58
f 57//57 58//58 59//59
f 59//59 58//58 60//60
f 59//59 60//60 61//61
f 61//61 60//60 62//62
f 61//61 62//62 63//63
f 63//63 62//62 64//64
f 63//63 64//64 65//65
f 65//65 64//64 66//66
f 65//65 66//66 67//67
f 68//68 67//67 66//66
f 69//69 67//67 68//68
f 69//69 68//68 70//70
f 71//71 69//69 70//70
f 72//72 71//71 73//73
f 74//74 75//75 76//76
f 77//77 74//74 76//76
f 75//75 77//77 76//76
f 78//78 75//75 74//74
f 79//79 75//75 78//78
f 78//78 74//74 80//80
f 81//81 78//78 80//80
f 82//82 78//78 81//81
f 82//82 83//83 78//78
f 83//83 84//84 79//79
f 84//84 85//85 79//79
f 80//80 74//74 86//86
f 87//87 80//80 86//86
f 81//81 80//80 87//87
f 86//86 74//74 88//88
f 88//88 74//74 77//77
f 86//86 88//88 89//89
f 90//90 86//86 89//89
f 87//87 86//86 90//90
f 75//75 91//91 77//77
f 90//90 89//89 92//92
f 90//90 92//92 93//93
f 94//94 90//90 93//93
f 95//95 83//83 82//82
f 95//95 82//82 81//81
f 95//95 81//81 87//87
f 95//95 87//87 90//90
f 95//95 96//96 83//83
f 97//97 91//91 75//75
f 97//97 98//98 91//91
f 97//97 99//99 98//98
f 100//100 95//95 101//101
f 102//102 103//103 104//104
f 102//102 104//104 105//105
f 102//102 105//105 106//106
f 106//106 105//105 107//107
f 108//108 102//102 106//106
f 109//109 102//102 108//108
f 110//110 108//108 106//106
f 111//111 112//112 113//113
f 111//111 113//113 114//114
f 111//111 114//114 115//115
f 111//111 115//115 116//116
f 111//111 116//116 117//117
f 117//117 118//118 111//111
f 118//118 119//119 111//111
f 120//120 111//111 119//119
f 120//120 121//121 111//111
f 121//121 122//122 111//111
f 111//111 122//122 123//123
f 114//114 113//113 124//124
f 124//124 113//113 125//125
f 125//125 113//113 126//126
f 126//126 113//113 127//127
f 127//127 113//113 128//128
f 128//128 113//113 129//129
f 129//129 113//113 130//130
f 130//130 113//113 131//131
f 131//131 113//113 132//132
f 132//132 113//113 133//133
f 133//133 113//113 134//134
f 133//133 134//134 135//135
f 135//135 134//134 136//136
f 134//134 137//137 136//136
f 137//137 134//134 138//138
f 138//138 134//134 139//139
f 139//139 134//134 140//140
f 140//140 134//134 141//141
f 134//134 142//142 141//141
f 134//134 143//143 142//142
f 134//134 144//144 143//143
f 144//144 134//134 145//145
f 145//145 134//134 146//146
f 147//147 134//134 148//148
f 149//149 150//150 151//151
f 149//149 152//152 150//150
f 151//151 150//150 153//153
f 151//151 153//153 154//154
f 154//154 153//153 155//155
f 154//154 155//155 156//156
f 152//152 157//157 150//150
f 158//158 159//159 160//160
f 161//161 159//159 158//158
f 162//162 159//159 161//161
f 163//163 162//162 161//161
f 164//164 162//162 163//163
f 165//165 162//162 164//164
f 9//9 166//166 8//8
f 166//166 9//9 167//167
f 168//168 169//169 170//170
f 168//168 171//171 169//169
f 172//172 169//169 173//173
f 174//174 169//169 172//172
f 169//169 174//174 175//175
f 176//176 169//169 175//175
f 177//177 169//169 176//176
f 178//178 169//169 177//177
f 178//178 179//179 169//169
f 179//179 180//180 169//169
f 180//180 181//181 169//169
f 182//182 181//181 180//180
f 182//182 183//183 181//181
f 183//183 184//184 181//181
f 184//184 185//185 181//181
f 185//185 186//186 181//181
f 186//186 187//187 181//181
f 187//187 188//188 181//181
f 188//188 189//189 181//181
f 181//181 189//189 190//190
f 181//181 190//190 191//191
f 192//192 181//181 191//191
f 193//193 181//181 192//192
f 194//194 181//181 193//193
f 195//195 181//181 194//194
f 195//195 196//196 181//181
f 196//196 197//197 198//198
f 196//196 198//198 199//199
f 199//199 200//200 196//196
f 196//196 200//200 201//201
f 201//201 202//202 196//196
f 196//196 202//202 203//203
f 196//196 203//203 204//204
f 205//205 196//196 206//206
f 207//207 196//196 205//205
