v -38.33192 11.38191 -139.0945
v -33.52417 -8.984022 -139.0945
v -38.33192 11.38191 -139.0945
v -38.33192 11.38191 -139.0945
v -41.69504 10.58798 -138.1922
v -43.04029 10.27041 -137.8313
v -43.04029 10.27041 -137.8313
v -38.23254 -10.09552 -137.8313
v -33.4248 -30.46145 -137.8313
v -43.18523 10.2362 -138.0279
v -34.72929 -30.7694 -139.6013
v -43.20324 10.23195 -138.0524
v -34.89139 -30.80767 -139.8212
v -43.2083 10.23075 -138.0592
v -34.9369 -30.81841 -139.883
v -43.26513 10.21734 -138.1363
v -35.44838 -30.93916 -140.577
v -43.96582 10.05193 -139.0871
v -35.52624 -30.95753 -140.6826
v -44.63017 9.895096 -139.9885
v -44.7066 9.877054 -140.0922
v -35.60855 -30.97696 -140.7943
v -44.866 9.839424 -140.3085
v -35.62626 -30.98115 -140.8183
v -45.28872 9.739632 -140.8821
v -35.67323 -30.99224 -140.8821
v -45.48497 9.693306 -140.9099
v -36.75384 -31.24733 -141.0355
v -37.43942 -31.40918 -141.1328
v -45.53366 9.68181 -140.9168
v -37.87764 -31.51263 -141.195
v -45.54815 9.678391 -140.9189
v -38.00806 -31.54341 -141.2135
v -45.65767 9.652536 -140.9344
v -38.99372 -31.7761 -141.3534
v -46.91412 9.355928 -141.1128
v -39.13332 -31.80905 -141.3732
v -47.95215 9.110882 -141.2601
v -39.24866 -31.83628 -141.3896
v -48.97815 8.868675 -141.4057
v -39.36266 -31.86319 -141.4057
v -49.06978 8.847046 -141.3345
v -40.1873 -32.05786 -140.7641
v -49.27507 8.798582 -141.1747
v -42.03495 -32.49403 -139.3265
v -49.84781 8.663376 -140.7291
v -50.07686 8.609304 -140.5509
v -42.12404 -32.51506 -139.2572
v -50.85788 8.424932 -139.9432
v -42.21082 -32.53555 -139.1897
v -51.50097 8.273121 -139.4428
v -42.28227 -32.55242 -139.1341
v -51.94736 8.16774 -139.0955
v -42.33187 -32.56413 -139.0955
v -42.33187 -32.56413 -139.0955
v -51.97766 8.160589 -138.8702
v -42.60449 -32.62849 -137.0678
v -51.98657 8.158484 -138.8039
v -42.68473 -32.64743 -136.471
v -51.98748 8.15827 -138.7971
v -42.69292 -32.64936 -136.41
v -51.9879 8.158171 -138.794
v -42.69672 -32.65026 -136.3818
v -51.98844 8.158043 -138.79
v -42.70152 -32.65139 -136.3461
v -51.99833 8.155708 -138.7164
v -42.79057 -32.67241 -135.6838
v -52.45703 8.047424 -135.3047
v -42.84154 -32.68444 -135.3047
v -52.45703 8.047424 -135.3047
v -42.84154 -32.68444 -135.3047
v -52.45703 8.047424 -135.3047
v -52.45703 8.047424 -135.3047
v -53.80228 7.729853 -134.9437
v -57.1654 6.935928 -134.0414
v -57.1654 6.935928 -134.0414
v -57.1654 6.935928 -134.0414
v -52.45703 8.047424 -135.3047
v -52.45703 8.047424 -135.3047
v -52.45703 8.047424 -135.3047
v -42.84154 -32.68444 -135.3047
v -42.84154 -32.68444 -135.3047
v -42.84154 -32.68444 -135.3047
v -52.45703 8.047424 -135.3047
v -56.14607 7.176561 -141.6231
v -52.45703 8.047424 -135.3047
v -42.84154 -32.68444 -135.3047
v -52.45703 8.047424 -135.3047
v -47.64928 -12.31851 -135.3047
v -42.84154 -32.68444 -135.3047
v -52.35765 -13.43001 -134.0414
v -42.84154 -32.68443 -135.3047
v -42.84154 -32.68444 -135.3047
v -44.18678 -33.00201 -134.9437
v -46.53057 -33.55531 -141.6231
v -42.84154 -32.68444 -135.3047
v -56.14607 7.176561 -141.6231
v -47.5499 -33.79594 -134.0414
v -46.53057 -33.55531 -141.6231
v -42.33187 -32.56413 -139.0955
v -42.33187 -32.56413 -139.0955
v -33.52417 -8.984022 -139.0945
v -38.33192 11.38191 -139.0945
v -38.33192 11.38191 -139.0945
v -41.69504 10.58798 -138.1922
v -38.23254 -10.09552 -137.8313
v -43.04029 10.27041 -137.8313
v -31.47452 -30.00105 -138.3545
v -28.71642 -29.34996 -139.0945
v -33.42479 -30.46145 -137.8313
v -38.33192 11.38191 -139.0945
v -42.82878 10.32034 -145.1962
v -50.20765 8.578432 -146.2435
v -45.28872 9.739632 -140.8821
v -44.866 9.839424 -140.3085
v -44.7066 9.877054 -140.0922
v -44.63017 9.895096 -139.9885
v -43.96582 10.05193 -139.0871
v -43.26513 10.21734 -138.1363
v -43.2083 10.23075 -138.0592
v -43.20324 10.23195 -138.0524
v -43.18523 10.2362 -138.0279
v -43.04029 10.27041 -137.8313
v -45.48497 9.693306 -140.9099
v -45.53366 9.68181 -140.9168
v -45.54815 9.678391 -140.9189
v -45.65767 9.652536 -140.9344
v -46.91412 9.355928 -141.1128
v -47.95215 9.110882 -141.2601
v -48.97815 8.868675 -141.4057
v -49.06978 8.847046 -141.3345
v -49.27507 8.798582 -141.1747
v -49.84781 8.663376 -140.7291
v -56.14607 7.176561 -141.6231
v -50.07686 8.609304 -140.5509
v -50.85788 8.424932 -139.9432
v -51.50097 8.273121 -139.4428
v -51.94736 8.16774 -139.0955
v -51.97766 8.160589 -138.8702
v -51.98657 8.158484 -138.8039
v -51.98748 8.15827 -138.7971
v -51.9879 8.158171 -138.794
v -51.98844 8.158043 -138.79
v -51.99833 8.155708 -138.7164
v -52.45703 8.047424 -135.3047
v -52.45703 8.047424 -135.3047
v -52.45703 8.047424 -135.3047
v -57.1654 6.935928 -134.0414
v -38.33192 11.38191 -139.0945
v -33.21329 -30.41152 -145.1962
v -42.82878 10.32034 -145.1962
v -33.52417 -8.984022 -139.0945
v -40.59215 -32.15343 -146.2435
v -50.20765 8.578432 -146.2435
v -46.53057 -33.55531 -141.6231
v -56.14607 7.176561 -141.6231
v -28.71642 -29.34996 -139.0945
v -57.1654 6.935928 -134.0414
v -47.64928 -12.31851 -135.3047
v -52.45703 8.047424 -135.3047
v -52.35765 -13.43001 -134.0414
v -42.84154 -32.68443 -135.3047
v -47.5499 -33.79594 -134.0414
v -44.18678 -33.00201 -134.9437
v -42.84154 -32.68444 -135.3047
v -33.42479 -30.46145 -137.8313
v -33.21329 -30.41152 -145.1962
v -31.47452 -30.00105 -138.3545
v -33.21329 -30.41152 -145.1962
v -28.71642 -29.34996 -139.0945
v -33.42479 -30.46145 -137.8313
v -34.72929 -30.7694 -139.6013
v -33.4248 -30.46145 -137.8313
v -34.89139 -30.80767 -139.8212
v -34.9369 -30.81841 -139.883
v -35.44838 -30.93916 -140.577
v -35.52624 -30.95753 -140.6826
v -35.60855 -30.97696 -140.7943
v -35.62626 -30.98115 -140.8183
v -35.67323 -30.99224 -140.8821
v -40.59215 -32.15343 -146.2435
v -36.75384 -31.24733 -141.0355
v -37.43942 -31.40918 -141.1328
v -37.87764 -31.51263 -141.195
v -38.00806 -31.54341 -141.2135
v -38.99372 -31.7761 -141.3534
v -39.13332 -31.80905 -141.3732
v -39.24866 -31.83628 -141.3896
v -39.36266 -31.86319 -141.4057
v -40.1873 -32.05786 -140.7641
v -42.03495 -32.49403 -139.3265
v -42.12404 -32.51506 -139.2572
v -42.21082 -32.53555 -139.1897
v -42.28227 -32.55242 -139.1341
v -42.33187 -32.56413 -139.0955
v -46.53057 -33.55531 -141.6231
v -42.33187 -32.56413 -139.0955
v -42.60449 -32.62849 -137.0678
v -42.68473 -32.64743 -136.471
v -42.69292 -32.64936 -136.41
v -42.69672 -32.65026 -136.3818
v -42.70152 -32.65139 -136.3461
v -42.79057 -32.67241 -135.6838
v -42.84154 -32.68444 -135.3047
v -44.18678 -33.00201 -134.9437
v -42.84154 -32.68444 -135.3047
v -47.5499 -33.79594 -134.0414

vn 0.9416729 0.2222994 -0.2526572
vn 0.9416729 0.2222992 -0.2526572
vn 0.5654502 0.802164 -0.1918318
vn -0.229753 0.9732491 -1.371081E-07
vn -0.229753 0.9732491 -1.371081E-07
vn -0.7758883 -0.1831625 0.6036964
vn -0.9647007 -0.08242682 0.2501179
vn 0.01505707 0.003554212 0.9998804
vn -0.7758909 -0.1831634 0.6036927
vn -0.7758915 -0.1831635 0.6036921
vn -0.7758912 -0.1831634 0.6036923
vn -0.7758906 -0.1831634 0.6036931
vn -0.7758899 -0.1831633 0.603694
vn -0.7758935 -0.1831635 0.6036894
vn -0.7758918 -0.1831634 0.6036916
vn -0.7758914 -0.1831634 0.6036919
vn -0.7758917 -0.1831634 0.6036919
vn -0.7758916 -0.1831634 0.6036918
vn -0.7758914 -0.1831634 0.603692
vn -0.7758917 -0.1831634 0.6036918
vn -0.7758909 -0.1831633 0.6036927
vn -0.77589 -0.1831631 0.6036939
vn -0.7758913 -0.1831633 0.6036922
vn -0.7758918 -0.1831634 0.6036915
vn -0.6783942 -0.1601474 0.7170318
vn -0.1725017 -0.04072242 0.9841672
vn -0.13318 -0.03143988 0.9905933
vn -0.1331808 -0.03144003 0.990593
vn -0.1331811 -0.03144008 0.990593
vn -0.1331832 -0.03144041 0.9905928
vn -0.1331844 -0.03144062 0.9905925
vn -0.1331861 -0.03144079 0.9905923
vn -0.1331833 -0.03144041 0.9905928
vn -0.1331821 -0.03144031 0.9905928
vn -0.1331816 -0.03144025 0.990593
vn -0.1331815 -0.03144028 0.990593
vn -0.1331826 -0.03144044 0.9905928
vn -0.133182 -0.03144032 0.990593
vn -0.1331808 -0.03144008 0.9905931
vn -0.06943738 -0.01639232 0.9974518
vn 0.5350714 0.126313 0.8353108
vn 0.5875419 0.1386997 0.7972183
vn 0.5875428 0.1386998 0.7972177
vn 0.5875434 0.1386999 0.7972174
vn 0.5875433 0.1386999 0.7972173
vn 0.587543 0.1386999 0.7972175
vn 0.5875425 0.1386999 0.7972178
vn 0.5875429 0.1386999 0.7972177
vn 0.5875427 0.1386999 0.7972179
vn 0.5875428 0.1386999 0.7972176
vn 0.5875429 0.1387 0.7972177
vn 0.5875425 0.1386999 0.7972179
vn 0.7289227 0.1720753 0.6626177
vn 0.5875244 0.1386956 0.797232
vn 0.9640935 0.2275917 0.1368433
vn 0.9640936 0.2275917 0.136842
vn 0.9640938 0.2275917 0.1368416
vn 0.9640939 0.2275916 0.1368404
vn 0.9640937 0.2275918 0.1368424
vn 0.9640934 0.227592 0.136844
vn 0.9640929 0.2275922 0.1368467
vn 0.9640856 0.2275962 0.1368916
vn 0.9640902 0.2275936 0.1368635
vn 0.9640948 0.2275913 0.1368352
vn 0.9640942 0.2275915 0.1368393
vn 0.9640936 0.2275917 0.1368421
vn 0.9640936 0.2275917 0.1368427
vn 0.9640936 0.2275917 0.136843
vn 0.9640929 0.2275915 0.136848
vn 0.9281601 0.2191089 0.3008497
vn 0.9416729 0.222299 -0.2526572
vn 0.9416729 0.222299 -0.2526572
vn 0.9416729 0.222299 -0.2526572
vn -0.229753 0.9732491 -1.371081E-07
vn -0.9640936 -0.2275919 -0.1368424
vn -0.229753 0.9732491 -1.371081E-07
vn 0.1214328 0.02866614 0.9921858
vn 0.4368801 0.8844263 -0.1640918
vn 0.3406636 0.9293491 -0.1423341
vn 0.9229695 0.2908856 -0.2520187
vn 0.9416729 0.222299 -0.2526572
vn 0.9416729 0.222299 -0.2526572
vn 0.9416729 0.222299 -0.2526572
vn 0.9129991 0.3213639 -0.2513134
vn -0.229753 0.9732491 -1.371081E-07
vn 0.9386895 0.2346059 -0.2526314
vn 0.9416729 0.222299 -0.2526572
vn 0.8997167 0.357703 -0.2501179
vn 0.9416713 0.2222986 -0.2526636
vn 0.9537673 0.163462 -0.2522075
vn -0.9640936 -0.2275918 -0.1368424
vn 0.9416671 0.2222976 -0.2526801
vn 0.2297595 -0.9732476 -1.617029E-06
vn 0.229753 -0.9732491 1.371081E-07
vn 0.2297529 -0.9732491 -2.80473E-07
vn 0 0 0
vn -0.9640936 -0.2275918 -0.1368425
vn -0.9640937 -0.2275918 -0.1368424
vn -0.9640937 -0.2275918 -0.1368424
vn 0.2297529 -0.9732491 -2.80473E-07
vn 0.2297529 -0.9732491 -2.80473E-07
vn 0.2458984 0.05804853 0.967556
vn 0.2458984 0.05804853 0.9675559
vn 0.2458984 0.05804853 0.967556
vn 0.2458984 0.05804853 0.967556
vn 0.2458984 0.05804853 0.967556
vn 0.2458984 0.05804853 0.967556
vn 0.2458984 0.05804853 0.967556
vn 0.2458984 0.05804853 0.967556
vn 0.2458984 0.05804853 0.967556
vn -0.229753 0.9732491 -1.371081E-07
vn -0.229753 0.9732491 -1.371081E-07
vn -0.229753 0.9732491 -1.371081E-07
vn -0.229753 0.9732491 -1.371081E-07
vn -0.229753 0.9732491 -1.371081E-07
vn -0.229753 0.9732491 -1.371081E-07
vn -0.229753 0.9732491 -1.371081E-07
vn -0.229753 0.9732491 -1.371081E-07
vn -0.229753 0.9732491 -1.371081E-07
vn -0.229753 0.9732491 -1.371081E-07
vn -0.229753 0.9732491 -1.371081E-07
vn -0.229753 0.9732491 -1.371081E-07
vn -0.229753 0.9732491 -1.371081E-07
vn -0.2297529 0.973249 -1.371081E-07
vn -0.229753 0.9732491 -1.371081E-07
vn -0.229753 0.9732491 -1.371081E-07
vn -0.2297529 0.973249 -1.371081E-07
vn -0.229753 0.9732491 -1.371081E-07
vn -0.229753 0.9732491 -1.371081E-07
vn -0.229753 0.9732491 -1.371081E-07
vn -0.2297529 0.973249 -1.371081E-07
vn -0.229753 0.9732491 -1.371081E-07
vn -0.229753 0.9732491 -1.371081E-07
vn -0.229753 0.9732491 -1.371081E-07
vn -0.229753 0.9732491 -1.371081E-07
vn -0.229753 0.9732491 -1.371081E-07
vn -0.229753 0.9732491 -1.371081E-07
vn -0.229753 0.9732491 -1.371081E-07
vn -0.229753 0.9732491 -1.371081E-07
vn -0.229753 0.9732491 -1.371081E-07
vn -0.229753 0.9732491 -1.371081E-07
vn -0.2297529 0.973249 -1.371081E-07
vn -0.229753 0.9732491 -1.371081E-07
vn -0.2297529 0.973249 -1.371081E-07
vn -0.2297529 0.973249 -1.371081E-07
vn -0.229753 0.9732491 -1.371081E-07
vn -0.2297529 0.973249 -1.371081E-07
vn -0.2297529 0.973249 -1.371081E-07
vn 0.7758912 0.1831634 -0.6036924
vn 0.6022176 0.1421647 -0.7855721
vn 0.372509 0.08793777 -0.9238529
vn 0.7758911 0.1831634 -0.6036923
vn -0.1147916 -0.02709837 -0.9930201
vn -0.3723835 -0.08790766 -0.9239064
vn -0.587543 -0.1387 -0.7972175
vn -0.587543 -0.1387 -0.7972175
vn 0.7758912 0.1831634 -0.6036922
vn 0.2458984 0.05804853 0.967556
vn 0.2458984 0.05804853 0.967556
vn 0.2458984 0.05804853 0.967556
vn 0.2458984 0.05804853 0.967556
vn 0.2458984 0.05804853 0.967556
vn 0.2458984 0.05804853 0.967556
vn 0.2458984 0.05804852 0.967556
vn 0.2458984 0.05804852 0.9675559
vn -0.8755099 -0.4150574 0.2474069
vn 0.2297537 -0.973249 -4.90393E-08
vn 0.2297529 -0.9732491 -7.168243E-08
vn 0.229753 -0.9732491 -1.171753E-07
vn 0.2297529 -0.9732491 -7.168243E-08
vn 0.2297529 -0.9732491 -7.168243E-08
vn 0.2297532 -0.973249 -6.230339E-08
vn 0.2297532 -0.973249 -6.230334E-08
vn 0.2297532 -0.973249 -6.230351E-08
vn 0.2297532 -0.973249 -6.230322E-08
vn 0.2297532 -0.973249 -6.230319E-08
vn 0.2297532 -0.973249 -6.230352E-08
vn 0.2297532 -0.973249 -6.230457E-08
vn 0.2297532 -0.973249 -6.230196E-08
vn 0.229753 -0.9732491 -1.889504E-07
vn 0.2297529 -0.9732491 -1.581664E-07
vn 0.229753 -0.9732491 -1.901039E-07
vn 0.229753 -0.9732491 -1.901041E-07
vn 0.229753 -0.9732491 -1.901046E-07
vn 0.229753 -0.9732491 -1.901043E-07
vn 0.229753 -0.9732491 -1.901043E-07
vn 0.229753 -0.9732491 -1.901043E-07
vn 0.229753 -0.9732491 -1.901041E-07
vn 0.2297528 -0.9732491 -1.326236E-07
vn 0.2297528 -0.9732491 -1.262286E-07
vn 0.2297528 -0.9732491 -1.262286E-07
vn 0.2297528 -0.9732491 -1.262284E-07
vn 0.2297528 -0.9732491 -1.262288E-07
vn 0.2297528 -0.9732491 -1.262286E-07
vn 0.2297528 -0.9732491 -1.262285E-07
vn 0.2297528 -0.9732491 -6.078312E-08
vn 0.2297526 -0.9732492 9.19064E-08
vn 0.2297526 -0.9732492 9.190652E-08
vn 0.2297526 -0.9732492 9.190676E-08
vn 0.2297526 -0.9732492 9.190234E-08
vn 0.2297526 -0.9732492 9.190715E-08
vn 0.2297526 -0.9732492 9.190688E-08
vn 0.2297526 -0.9732492 9.190601E-08
vn 0.2297526 -0.9732491 9.190537E-08
vn 0.2297529 -0.9732491 -7.168243E-08
vn 0.2297529 -0.9732491 -7.168244E-08
vn 0.2297529 -0.9732491 -7.168244E-08

f 1//1 2//2 3//3
f 4//4 1//1 3//3
f 3//3 5//5 4//4
f 3//3 6//6 5//5
f 5//5 6//6 7//7
f 8//8 7//7 6//6
f 9//9 8//8 6//6
f 10//10 9//9 6//6
f 9//9 10//10 11//11
f 11//11 10//10 12//12
f 13//13 11//11 12//12
f 13//13 12//12 14//14
f 13//13 14//14 15//15
f 15//15 14//14 16//16
f 15//15 16//16 17//17
f 18//18 17//17 16//16
f 19//19 17//17 18//18
f 19//19 18//18 20//20
f 21//21 19//19 20//20
f 22//22 19//19 21//21
f 22//22 21//21 23//23
f 24//24 22//22 23//23
f 24//24 23//23 25//25
f 26//26 24//24 25//25
f 26//26 25//25 27//27
f 28//28 26//26 27//27
f 28//28 27//27 29//29
f 29//29 27//27 30//30
f 31//31 29//29 30//30
f 31//31 30//30 32//32
f 33//33 31//31 32//32
f 33//33 32//32 34//34
f 35//35 33//33 34//34
f 35//35 34//34 36//36
f 37//37 35//35 36//36
f 37//37 36//36 38//38
f 39//39 37//37 38//38
f 39//39 38//38 40//40
f 41//41 39//39 40//40
f 41//41 40//40 42//42
f 41//41 42//42 43//43
f 43//43 42//42 44//44
f 45//45 43//43 44//44
f 45//45 44//44 46//46
f 47//47 45//45 46//46
f 48//48 45//45 47//47
f 48//48 47//47 49//49
f 50//50 48//48 49//49
f 50//50 49//49 51//51
f 52//52 50//50 51//51
f 52//52 51//51 53//53
f 54//54 52//52 53//53
f 55//55 54//54 53//53
f 55//55 53//53 56//56
f 55//55 56//56 57//57
f 57//57 56//56 58//58
f 57//57 58//58 59//59
f 59//59 58//58 60//60
f 59//59 60//60 61//61
f 61//61 60//60 62//62
f 61//61 62//62 63//63
f 63//63 62//62 64//64
f 63//63 64//64 65//65
f 65//65 64//64 66//66
f 65//65 66//66 67//67
f 68//68 67//67 66//66
f 69//69 67//67 68//68
f 69//69 68//68 70//70
f 71//71 69//69 70//70
f 72//72 71//71 73//73
f 74//74 75//75 76//76
f 77//77 74//74 76//76
f 75//75 77//77 76//76
f 78//78 75//75 74//74
f 79//79 75//75 78//78
f 78//78 74//74 80//80
f 81//81 78//78 80//80
f 82//82 78//78 81//81
f 82//82 83//83 78//78
f 83//83 84//84 79//79
f 84//84 85//85 79//79
f 80//80 74//74 86//86
f 87//87 80//80 86//86
f 81//81 80//80 87//87
f 86//86 74//74 88//88
f 88//88 74//74 77//77
f 86//86 88//88 89//89
f 90//90 86//86 89//89
f 87//87 86//86 90//90
f 75//75 91//91 77//77
f 90//90 89//89 92//92
f 90//90 92//92 93//93
f 94//94 90//90 93//93
f 95//95 83//83 82//82
f 95//95 82//82 81//81
f 95//95 81//81 87//87
f 95//95 87//87 90//90
f 95//95 96//96 83//83
f 97//97 91//91 75//75
f 97//97 98//98 91//91
f 97//97 99//99 98//98
f 100//100 95//95 101//101
f 102//102 103//103 104//104
f 102//102 104//104 105//105
f 102//102 105//105 106//106
f 106//106 105//105 107//107
f 108//108 102//102 106//106
f 109//109 102//102 108//108
f 110//110 108//108 106//106
f 111//111 112//112 113//113
f 111//111 113//113 114//114
f 111//111 114//114 115//115
f 111//111 115//115 116//116
f 111//111 116//116 117//117
f 117//117 118//118 111//111
f 118//118 119//119 111//111
f 120//120 111//111 119//119
f 120//120 121//121 111//111
f 121//121 122//122 111//111
f 111//111 122//122 123//123
f 114//114 113//113 124//124
f 124//124 113//113 125//125
f 125//125 113//113 126//126
f 126//126 113//113 127//127
f 127//127 113//113 128//128
f 128//128 113//113 129//129
f 129//129 113//113 130//130
f 130//130 113//113 131//131
f 131//131 113//113 132//132
f 132//132 113//113 133//133
f 133//133 113//113 134//134
f 133//133 134//134 135//135
f 135//135 134//134 136//136
f 134//134 137//137 136//136
f 137//137 134//134 138//138
f 138//138 134//134 139//139
f 139//139 134//134 140//140
f 140//140 134//134 141//141
f 134//134 142//142 141//141
f 134//134 143//143 142//142
f 134//134 144//144 143//143
f 144//144 134//134 145//145
f 145//145 134//134 146//146
f 147//147 134//134 148//148
f 149//149 150//150 151//151
f 149//149 152//152 150//150
f 151//151 150//150 153//153
f 151//151 153//153 154//154
f 154//154 153//153 155//155
f 154//154 155//155 156//156
f 152//152 157//157 150//150
f 158//158 159//159 160//160
f 161//161 159//159 158//158
f 162//162 159//159 161//161
f 163//163 162//162 161//161
f 164//164 162//162 163//163
f 165//165 162//162 164//164
f 9//9 166//166 8//8
f 166//166 9//9 167//167
f 168//168 169//169 170//170
f 168//168 171//171 169//169
f 172//172 169//169 173//173
f 174//174 169//169 172//172
f 169//169 174//174 175//175
f 176//176 169//169 175//175
f 177//177 169//169 176//176
f 178//178 169//169 177//177
f 178//178 179//179 169//169
f 179//179 180//180 169//169
f 180//180 181//181 169//169
f 182//182 181//181 180//180
f 182//182 183//183 181//181
f 183//183 184//184 181//181
f 184//184 185//185 181//181
f 185//185 186//186 181//181
f 186//186 187//187 181//181
f 187//187 188//188 181//181
f 188//188 189//189 181//181
f 181//181 189//189 190//190
f 181//181 190//190 191//191
f 192//192 181//181 191//191
f 193//193 181//181 192//192
f 194//194 181//181 193//193
f 195//195 181//181 194//194
f 195//195 196//196 181//181
f 196//196 197//197 198//198
f 196//196 198//198 199//199
f 199//199 200//200 196//196
f 196//196 200//200 201//201
f 201//201 202//202 196//196
f 196//196 202//202 203//203
f 196//196 203//203 204//204
f 205//205 196//196 206//206
f 207//207 196//196 205//205
