v -143.2539 11.09184 -27.86866
v -137.5414 1.689934 -45.66913
v -143.2539 11.09184 -27.86866
v -143.2539 11.09184 -27.86866
v -142.326 14.25546 -29.24186
v -141.9549 15.52091 -29.79114
v -141.9549 15.52091 -29.79114
v -136.2424 6.119003 -47.5916
v -130.5298 -3.282899 -65.39207
v -141.7192 15.57808 -29.74572
v -128.4091 -2.768294 -64.98328
v -141.69 15.58519 -29.74007
v -128.1456 -2.704347 -64.93249
v -141.6817 15.58718 -29.73849
v -128.0716 -2.686394 -64.91823
v -141.5893 15.6096 -29.72068
v -127.24 -2.484618 -64.75794
v -140.4502 15.88602 -29.5011
v -127.1135 -2.453907 -64.73354
v -139.3702 16.14809 -29.29292
v -139.2459 16.17824 -29.26897
v -126.9796 -2.421436 -64.70776
v -138.9868 16.24112 -29.21902
v -126.9509 -2.414449 -64.7022
v -138.2995 16.40788 -29.08655
v -126.8745 -2.395921 -64.68748
v -138.1785 16.56543 -29.13093
v -126.2081 -1.528402 -64.93185
v -125.7854 -0.9780111 -65.08688
v -138.1485 16.60452 -29.14194
v -125.5152 -0.6262083 -65.18598
v -138.1396 16.61615 -29.14522
v -125.4347 -0.5215111 -65.21547
v -138.072 16.70407 -29.16998
v -124.827 0.2697792 -65.43836
v -137.2973 17.71276 -29.45411
v -124.7409 0.381855 -65.46993
v -136.6572 18.54609 -29.68885
v -124.6697 0.4744482 -65.49602
v -136.0245 19.36977 -29.92086
v -124.5994 0.5659676 -65.5218
v -136.038 19.47166 -29.97902
v -124.7211 1.482965 -66.04517
v -136.0683 19.69995 -30.10931
v -124.9936 3.537556 -67.21783
v -136.1528 20.33684 -30.47281
v -136.1865 20.59154 -30.61819
v -125.0067 3.636622 -67.27437
v -136.3017 21.46003 -31.11388
v -125.0195 3.733119 -67.32944
v -136.3966 22.17514 -31.52202
v -125.0301 3.812578 -67.37479
v -136.4624 22.67154 -31.80534
v -125.0374 3.867731 -67.40627
v -125.0374 3.867733 -67.40627
v -136.6345 22.77302 -31.91415
v -126.5856 4.781076 -68.38554
v -136.6851 22.80289 -31.94617
v -127.0413 5.049907 -68.67377
v -136.6903 22.80594 -31.94944
v -127.0878 5.077352 -68.70319
v -136.6927 22.80735 -31.95096
v -127.1094 5.090078 -68.71684
v -136.6957 22.80914 -31.95288
v -127.1366 5.106162 -68.73409
v -136.7519 22.84229 -31.98841
v -127.6423 5.40449 -69.05394
v -139.3568 24.37904 -33.63608
v -127.9318 5.575242 -69.23701
v -139.3568 24.37905 -33.63609
v -127.9318 5.575242 -69.23701
v -139.3568 24.37905 -33.63609
v -139.3568 24.37905 -33.63609
v -138.9857 25.64449 -34.18536
v -138.0578 28.80812 -35.55856
v -138.0578 28.80812 -35.55856
v -138.0578 28.80811 -35.55856
v -139.3568 24.37905 -33.63609
v -139.3568 24.37905 -33.63609
v -139.3568 24.37905 -33.63609
v -127.9318 5.575242 -69.23701
v -127.9318 5.575242 -69.23701
v -127.9318 5.575242 -69.23701
v -139.3568 24.37905 -33.63609
v -132.269 25.3931 -31.89707
v -139.3568 24.37905 -33.63609
v -127.9318 5.575242 -69.23701
v -139.3568 24.37905 -33.63609
v -133.6443 14.97714 -51.43655
v -127.9318 5.575242 -69.23701
v -132.3453 19.40621 -53.35902
v -127.9318 5.575251 -69.237
v -127.9318 5.575242 -69.23701
v -127.5606 6.840689 -69.78629
v -120.844 6.589292 -67.498
v -127.9318 5.575242 -69.23701
v -132.269 25.3931 -31.89707
v -126.6327 10.00431 -71.15949
v -120.844 6.589292 -67.498
v -125.0374 3.867733 -67.40627
v -125.0374 3.867731 -67.40627
v -137.5414 1.689934 -45.66913
v -143.2539 11.09184 -27.86866
v -143.2539 11.09184 -27.86866
v -142.326 14.25546 -29.24186
v -136.2424 6.119003 -47.5916
v -141.9549 15.52091 -29.79114
v -131.0679 -5.117481 -64.59576
v -131.8289 -7.711969 -63.4696
v -130.5298 -3.282899 -65.39207
v -143.2539 11.09184 -27.86866
v -135.9432 12.86579 -26.45949
v -131.3931 18.78957 -28.12812
v -138.2995 16.40788 -29.08655
v -138.9868 16.24112 -29.21902
v -139.2459 16.17824 -29.26897
v -139.3702 16.14809 -29.29292
v -140.4502 15.88602 -29.5011
v -141.5893 15.6096 -29.72068
v -141.6817 15.58718 -29.73849
v -141.69 15.58519 -29.74007
v -141.7192 15.57808 -29.74572
v -141.9549 15.52091 -29.79114
v -138.1785 16.56543 -29.13093
v -138.1485 16.60452 -29.14194
v -138.1396 16.61615 -29.14522
v -138.072 16.70407 -29.16998
v -137.2973 17.71276 -29.45411
v -136.6572 18.54609 -29.68885
v -136.0245 19.36977 -29.92086
v -136.038 19.47166 -29.97902
v -136.0683 19.69995 -30.10931
v -136.1528 20.33684 -30.47281
v -132.269 25.3931 -31.89707
v -136.1865 20.59154 -30.61819
v -136.3017 21.46003 -31.11388
v -136.3966 22.17514 -31.52202
v -136.4624 22.67154 -31.80534
v -136.6345 22.77302 -31.91415
v -136.6851 22.80289 -31.94617
v -136.6903 22.80594 -31.94944
v -136.6927 22.80735 -31.95096
v -136.6957 22.80914 -31.95288
v -136.7519 22.84229 -31.98841
v -139.3568 24.37904 -33.63608
v -139.3568 24.37905 -33.63609
v -139.3568 24.37905 -33.63609
v -138.0578 28.80812 -35.55856
v -143.2539 11.09184 -27.86866
v -124.5182 -5.938011 -62.06042
v -135.9432 12.86579 -26.45949
v -137.5414 1.689934 -45.66913
v -119.9681 -0.01423454 -63.72905
v -131.3931 18.78957 -28.12812
v -120.844 6.589292 -67.498
v -132.269 25.3931 -31.89707
v -131.8289 -7.711969 -63.4696
v -138.0578 28.80811 -35.55856
v -133.6443 14.97714 -51.43655
v -139.3568 24.37905 -33.63609
v -132.3453 19.40621 -53.35902
v -127.9318 5.575251 -69.237
v -126.6327 10.00431 -71.15949
v -127.5606 6.840689 -69.78629
v -127.9318 5.575242 -69.23701
v -130.5298 -3.282899 -65.39207
v -124.5182 -5.938011 -62.06042
v -131.0679 -5.117481 -64.59576
v -124.5182 -5.938011 -62.06042
v -131.8289 -7.711969 -63.4696
v -130.5298 -3.282899 -65.39207
v -128.4091 -2.768294 -64.98328
v -130.5298 -3.282899 -65.39207
v -128.1456 -2.704347 -64.93249
v -128.0716 -2.686394 -64.91823
v -127.24 -2.484618 -64.75794
v -127.1135 -2.453907 -64.73354
v -126.9796 -2.421436 -64.70776
v -126.9509 -2.414449 -64.7022
v -126.8745 -2.395921 -64.68748
v -119.9681 -0.01423454 -63.72905
v -126.2081 -1.528402 -64.93185
v -125.7854 -0.9780111 -65.08688
v -125.5152 -0.6262083 -65.18598
v -125.4347 -0.5215111 -65.21547
v -124.827 0.2697792 -65.43836
v -124.7409 0.381855 -65.46993
v -124.6697 0.4744482 -65.49602
v -124.5994 0.5659676 -65.5218
v -124.7211 1.482965 -66.04517
v -124.9936 3.537556 -67.21783
v -125.0067 3.636622 -67.27437
v -125.0195 3.733119 -67.32944
v -125.0301 3.812578 -67.37479
v -125.0374 3.867731 -67.40627
v -120.844 6.589292 -67.498
v -125.0374 3.867733 -67.40627
v -126.5856 4.781076 -68.38554
v -127.0413 5.049907 -68.67377
v -127.0878 5.077352 -68.70319
v -127.1094 5.090078 -68.71684
v -127.1366 5.106162 -68.73409
v -127.6423 5.40449 -69.05394
v -127.9318 5.575242 -69.23701
v -127.5606 6.840689 -69.78629
v -127.9318 5.575242 -69.23701
v -126.6327 10.00431 -71.15949

vn -0.2598058 -0.8858131 0.3844949
vn -0.2598058 -0.8858131 0.3844948
vn -0.3749191 -0.3801597 0.845526
vn -0.2729906 0.449299 0.8506507
vn -0.2729906 0.449299 0.8506507
vn -0.114444 0.8627904 -0.4924383
vn 0.2185879 0.9404508 -0.2603303
vn -0.8379869 0.3232363 -0.4396546
vn -0.1144395 0.8627913 -0.4924377
vn -0.1144387 0.8627916 -0.4924375
vn -0.114439 0.8627915 -0.4924376
vn -0.1144399 0.8627912 -0.4924379
vn -0.1144409 0.8627909 -0.4924381
vn -0.1144356 0.8627926 -0.4924366
vn -0.1144381 0.8627918 -0.4924373
vn -0.1144386 0.8627916 -0.4924374
vn -0.1144385 0.8627917 -0.4924375
vn -0.1144384 0.8627917 -0.4924374
vn -0.1144387 0.8627916 -0.4924375
vn -0.1144384 0.8627917 -0.4924374
vn -0.1144395 0.8627914 -0.4924376
vn -0.114441 0.8627909 -0.4924379
vn -0.1144389 0.8627915 -0.4924374
vn -0.1144381 0.8627918 -0.4924373
vn -0.2572026 0.817961 -0.5145745
vn -0.7313915 0.4774754 -0.4869125
vn -0.7563404 0.4461917 -0.4783956
vn -0.7563398 0.4461923 -0.4783957
vn -0.7563397 0.4461926 -0.4783958
vn -0.7563386 0.4461944 -0.4783962
vn -0.7563378 0.4461953 -0.4783964
vn -0.7563368 0.4461967 -0.4783965
vn -0.7563385 0.4461945 -0.4783961
vn -0.7563391 0.4461934 -0.478396
vn -0.7563395 0.446193 -0.478396
vn -0.7563394 0.4461929 -0.478396
vn -0.7563388 0.4461938 -0.4783961
vn -0.7563393 0.4461933 -0.4783961
vn -0.7563399 0.4461923 -0.4783958
vn -0.7938284 0.3942832 -0.4630091
vn -0.960655 -0.1743486 -0.2162054
vn -0.9551859 -0.2317773 -0.1841174
vn -0.9551859 -0.2317783 -0.1841169
vn -0.9551858 -0.2317789 -0.1841166
vn -0.9551858 -0.2317788 -0.1841166
vn -0.9551858 -0.2317785 -0.1841167
vn -0.9551859 -0.2317779 -0.1841169
vn -0.9551859 -0.2317784 -0.1841168
vn -0.9551859 -0.231778 -0.1841169
vn -0.9551858 -0.2317783 -0.1841167
vn -0.9551859 -0.2317783 -0.1841168
vn -0.9551859 -0.2317779 -0.1841169
vn -0.9139031 -0.3972596 -0.08346387
vn -0.9551886 -0.2317578 -0.1841284
vn -0.594498 -0.7739777 0.2180156
vn -0.594497 -0.7739782 0.2180162
vn -0.5944967 -0.7739785 0.2180164
vn -0.5944957 -0.7739791 0.2180169
vn -0.5944973 -0.7739781 0.2180161
vn -0.5944987 -0.7739773 0.2180156
vn -0.5945007 -0.7739758 0.2180144
vn -0.5945365 -0.7739531 0.2179976
vn -0.5945141 -0.7739675 0.2180081
vn -0.5944916 -0.7739817 0.2180189
vn -0.5944949 -0.7739797 0.2180173
vn -0.5944971 -0.7739782 0.2180162
vn -0.5944976 -0.7739779 0.2180159
vn -0.5944978 -0.7739778 0.2180158
vn -0.5945016 -0.7739756 0.2180133
vn -0.7127962 -0.6882964 0.134796
vn -0.2598057 -0.8858132 0.3844946
vn -0.2598057 -0.8858132 0.3844946
vn -0.2598057 -0.8858132 0.3844946
vn -0.2729906 0.449299 0.8506507
vn 0.5944973 0.7739781 -0.2180162
vn -0.2729906 0.449299 0.8506507
vn -0.8846506 0.230177 -0.4054776
vn -0.3763144 -0.2336601 0.8965436
vn -0.3719113 -0.1278019 0.9194285
vn -0.2785448 -0.8516524 0.4439608
vn -0.2598057 -0.8858132 0.3844946
vn -0.2598057 -0.8858132 0.3844946
vn -0.2598057 -0.8858132 0.3844946
vn -0.2865426 -0.8348227 0.4700688
vn -0.2729906 0.449299 0.8506507
vn -0.2632471 -0.880052 0.3952337
vn -0.2598057 -0.8858132 0.3844946
vn -0.2958012 -0.8133699 0.5009304
vn -0.2597996 -0.885814 0.384497
vn -0.2429403 -0.9111925 0.3327286
vn 0.5944973 0.7739781 -0.2180161
vn -0.2597838 -0.885816 0.3845031
vn 0.2729888 -0.4493052 -0.850648
vn 0.2729906 -0.449299 -0.8506507
vn 0.272991 -0.4492991 -0.8506505
vn 0 0 0
vn 0.5944974 0.7739781 -0.2180161
vn 0.5944973 0.7739781 -0.2180161
vn 0.5944974 0.7739781 -0.2180161
vn 0.272991 -0.4492991 -0.8506505
vn 0.272991 -0.4492991 -0.8506505
vn -0.9262706 0.1160404 -0.3585492
vn -0.9262705 0.1160404 -0.3585492
vn -0.9262706 0.1160404 -0.3585492
vn -0.9262706 0.1160404 -0.3585492
vn -0.9262706 0.1160404 -0.3585492
vn -0.9262706 0.1160404 -0.3585492
vn -0.9262706 0.1160404 -0.3585492
vn -0.9262706 0.1160404 -0.3585492
vn -0.9262706 0.1160404 -0.3585492
vn -0.2729906 0.449299 0.8506507
vn -0.2729906 0.449299 0.8506507
vn -0.2729906 0.449299 0.8506507
vn -0.2729906 0.449299 0.8506507
vn -0.2729906 0.449299 0.8506507
vn -0.2729906 0.449299 0.8506507
vn -0.2729906 0.449299 0.8506507
vn -0.2729906 0.449299 0.8506507
vn -0.2729906 0.449299 0.8506507
vn -0.2729906 0.449299 0.8506507
vn -0.2729906 0.449299 0.8506507
vn -0.2729906 0.449299 0.8506507
vn -0.2729906 0.449299 0.8506507
vn -0.2729906 0.449299 0.8506506
vn -0.2729906 0.449299 0.8506507
vn -0.2729906 0.449299 0.8506507
vn -0.2729906 0.449299 0.8506506
vn -0.2729906 0.449299 0.8506507
vn -0.2729906 0.449299 0.8506507
vn -0.2729906 0.449299 0.8506507
vn -0.2729906 0.449299 0.8506506
vn -0.2729906 0.449299 0.8506507
vn -0.2729906 0.449299 0.8506507
vn -0.2729906 0.449299 0.8506507
vn -0.2729906 0.449299 0.8506507
vn -0.2729906 0.449299 0.8506507
vn -0.2729906 0.449299 0.8506507
vn -0.2729906 0.449299 0.8506507
vn -0.2729906 0.449299 0.8506507
vn -0.2729906 0.449299 0.8506507
vn -0.2729906 0.449299 0.8506507
vn -0.2729906 0.449299 0.8506506
vn -0.2729906 0.449299 0.8506507
vn -0.2729906 0.449299 0.8506506
vn -0.2729906 0.449299 0.8506506
vn -0.2729906 0.449299 0.8506507
vn -0.2729906 0.449299 0.8506506
vn -0.2729906 0.449299 0.8506506
vn 0.114439 -0.8627915 0.4924377
vn 0.3521233 -0.7762075 0.5229831
vn 0.5815428 -0.6273125 0.5179645
vn 0.114439 -0.8627914 0.4924376
vn 0.8820313 -0.2361058 0.4077685
vn 0.9531004 0.006205889 0.302591
vn 0.9551858 0.2317784 0.1841166
vn 0.9551858 0.2317784 0.1841167
vn 0.114439 -0.8627915 0.4924375
vn -0.9262706 0.1160404 -0.3585492
vn -0.9262706 0.1160404 -0.3585492
vn -0.9262706 0.1160404 -0.3585492
vn -0.9262706 0.1160404 -0.3585492
vn -0.9262706 0.1160404 -0.3585492
vn -0.9262706 0.1160404 -0.3585492
vn -0.9262706 0.1160404 -0.3585492
vn -0.9262705 0.1160404 -0.3585492
vn 0.3097701 0.7762864 -0.5490192
vn 0.2729904 -0.4492997 -0.8506504
vn 0.2729908 -0.449299 -0.8506505
vn 0.2729908 -0.4492991 -0.8506505
vn 0.2729908 -0.449299 -0.8506506
vn 0.2729908 -0.449299 -0.8506506
vn 0.2729906 -0.4492993 -0.8506505
vn 0.2729906 -0.4492993 -0.8506505
vn 0.2729906 -0.4492993 -0.8506505
vn 0.2729906 -0.4492993 -0.8506505
vn 0.2729906 -0.4492993 -0.8506505
vn 0.2729906 -0.4492993 -0.8506505
vn 0.2729906 -0.4492993 -0.8506505
vn 0.2729906 -0.4492993 -0.8506505
vn 0.2729909 -0.4492992 -0.8506505
vn 0.2729909 -0.449299 -0.8506505
vn 0.2729909 -0.4492992 -0.8506505
vn 0.2729909 -0.4492992 -0.8506505
vn 0.2729909 -0.4492992 -0.8506505
vn 0.2729909 -0.4492992 -0.8506505
vn 0.2729909 -0.4492992 -0.8506505
vn 0.2729909 -0.4492992 -0.8506505
vn 0.2729909 -0.4492992 -0.8506505
vn 0.2729909 -0.4492989 -0.8506506
vn 0.2729909 -0.4492989 -0.8506506
vn 0.2729909 -0.4492989 -0.8506506
vn 0.2729909 -0.4492989 -0.8506506
vn 0.2729909 -0.4492989 -0.8506506
vn 0.2729909 -0.4492989 -0.8506506
vn 0.2729909 -0.4492989 -0.8506506
vn 0.2729909 -0.4492989 -0.8506507
vn 0.2729908 -0.4492988 -0.8506507
vn 0.2729908 -0.4492988 -0.8506507
vn 0.2729908 -0.4492988 -0.8506507
vn 0.2729908 -0.4492988 -0.8506507
vn 0.2729908 -0.4492988 -0.8506507
vn 0.2729908 -0.4492988 -0.8506507
vn 0.2729908 -0.4492988 -0.8506507
vn 0.2729908 -0.4492987 -0.8506507
vn 0.2729908 -0.449299 -0.8506506
vn 0.2729908 -0.449299 -0.8506506
vn 0.2729908 -0.449299 -0.8506505

f 1//1 2//2 3//3
f 4//4 1//1 3//3
f 3//3 5//5 4//4
f 3//3 6//6 5//5
f 5//5 6//6 7//7
f 8//8 7//7 6//6
f 9//9 8//8 6//6
f 10//10 9//9 6//6
f 9//9 10//10 11//11
f 11//11 10//10 12//12
f 13//13 11//11 12//12
f 13//13 12//12 14//14
f 13//13 14//14 15//15
f 15//15 14//14 16//16
f 15//15 16//16 17//17
f 18//18 17//17 16//16
f 19//19 17//17 18//18
f 19//19 18//18 20//20
f 21//21 19//19 20//20
f 22//22 19//19 21//21
f 22//22 21//21 23//23
f 24//24 22//22 23//23
f 24//24 23//23 25//25
f 26//26 24//24 25//25
f 26//26 25//25 27//27
f 28//28 26//26 27//27
f 28//28 27//27 29//29
f 29//29 27//27 30//30
f 31//31 29//29 30//30
f 31//31 30//30 32//32
f 33//33 31//31 32//32
f 33//33 32//32 34//34
f 35//35 33//33 34//34
f 35//35 34//34 36//36
f 37//37 35//35 36//36
f 37//37 36//36 38//38
f 39//39 37//37 38//38
f 39//39 38//38 40//40
f 41//41 39//39 40//40
f 41//41 40//40 42//42
f 41//41 42//42 43//43
f 43//43 42//42 44//44
f 45//45 43//43 44//44
f 45//45 44//44 46//46
f 47//47 45//45 46//46
f 48//48 45//45 47//47
f 48//48 47//47 49//49
f 50//50 48//48 49//49
f 50//50 49//49 51//51
f 52//52 50//50 51//51
f 52//52 51//51 53//53
f 54//54 52//52 53//53
f 55//55 54//54 53//53
f 55//55 53//53 56//56
f 55//55 56//56 57//57
f 57//57 56//56 58//58
f 57//57 58//58 59//59
f 59//59 58//58 60//60
f 59//59 60//60 61//61
f 61//61 60//60 62//62
f 61//61 62//62 63//63
f 63//63 62//62 64//64
f 63//63 64//64 65//65
f 65//65 64//64 66//66
f 65//65 66//66 67//67
f 68//68 67//67 66//66
f 69//69 67//67 68//68
f 69//69 68//68 70//70
f 71//71 69//69 70//70
f 72//72 71//71 73//73
f 74//74 75//75 76//76
f 77//77 74//74 76//76
f 75//75 77//77 76//76
f 78//78 75//75 74//74
f 79//79 75//75 78//78
f 78//78 74//74 80//80
f 81//81 78//78 80//80
f 82//82 78//78 81//81
f 82//82 83//83 78//78
f 83//83 84//84 79//79
f 84//84 85//85 79//79
f 80//80 74//74 86//86
f 87//87 80//80 86//86
f 81//81 80//80 87//87
f 86//86 74//74 88//88
f 88//88 74//74 77//77
f 86//86 88//88 89//89
f 90//90 86//86 89//89
f 87//87 86//86 90//90
f 75//75 91//91 77//77
f 90//90 89//89 92//92
f 90//90 92//92 93//93
f 94//94 90//90 93//93
f 95//95 83//83 82//82
f 95//95 82//82 81//81
f 95//95 81//81 87//87
f 95//95 87//87 90//90
f 95//95 96//96 83//83
f 97//97 91//91 75//75
f 97//97 98//98 91//91
f 97//97 99//99 98//98
f 100//100 95//95 101//101
f 102//102 103//103 104//104
f 102//102 104//104 105//105
f 102//102 105//105 106//106
f 106//106 105//105 107//107
f 108//108 102//102 106//106
f 109//109 102//102 108//108
f 110//110 108//108 106//106
f 111//111 112//112 113//113
f 111//111 113//113 114//114
f 111//111 114//114 115//115
f 111//111 115//115 116//116
f 111//111 116//116 117//117
f 117//117 118//118 111//111
f 118//118 119//119 111//111
f 120//120 111//111 119//119
f 120//120 121//121 111//111
f 121//121 122//122 111//111
f 111//111 122//122 123//123
f 114//114 113//113 124//124
f 124//124 113//113 125//125
f 125//125 113//113 126//126
f 126//126 113//113 127//127
f 127//127 113//113 128//128
f 128//128 113//113 129//129
f 129//129 113//113 130//130
f 130//130 113//113 131//131
f 131//131 113//113 132//132
f 132//132 113//113 133//133
f 133//133 113//113 134//134
f 133//133 134//134 135//135
f 135//135 134//134 136//136
f 134//134 137//137 136//136
f 137//137 134//134 138//138
f 138//138 134//134 139//139
f 139//139 134//134 140//140
f 140//140 134//134 141//141
f 134//134 142//142 141//141
f 134//134 143//143 142//142
f 134//134 144//144 143//143
f 144//144 134//134 145//145
f 145//145 134//134 146//146
f 147//147 134//134 148//148
f 149//149 150//150 151//151
f 149//149 152//152 150//150
f 151//151 150//150 153//153
f 151//151 153//153 154//154
f 154//154 153//153 155//155
f 154//154 155//155 156//156
f 152//152 157//157 150//150
f 158//158 159//159 160//160
f 161//161 159//159 158//158
f 162//162 159//159 161//161
f 163//163 162//162 161//161
f 164//164 162//162 163//163
f 165//165 162//162 164//164
f 9//9 166//166 8//8
f 166//166 9//9 167//167
f 168//168 169//169 170//170
f 168//168 171//171 169//169
f 172//172 169//169 173//173
f 174//174 169//169 172//172
f 169//169 174//174 175//175
f 176//176 169//169 175//175
f 177//177 169//169 176//176
f 178//178 169//169 177//177
f 178//178 179//179 169//169
f 179//179 180//180 169//169
f 180//180 181//181 169//169
f 182//182 181//181 180//180
f 182//182 183//183 181//181
f 183//183 184//184 181//181
f 184//184 185//185 181//181
f 185//185 186//186 181//181
f 186//186 187//187 181//181
f 187//187 188//188 181//181
f 188//188 189//189 181//181
f 181//181 189//189 190//190
f 181//181 190//190 191//191
f 192//192 181//181 191//191
f 193//193 181//181 192//192
f 194//194 181//181 193//193
f 195//195 181//181 194//194
f 195//195 196//196 181//181
f 196//196 197//197 198//198
f 196//196 198//198 199//199
f 199//199 200//200 196//196
f 196//196 200//200 201//201
f 201//201 202//202 196//196
f 196//196 202//202 203//203
f 196//196 203//203 204//204
f 205//205 196//196 206//206
f 207//207 196//196 205//205
