v -50.79242 -114.2685 -75.19978
v -60.03547 -99.05595 -86.20106
v -50.79242 -114.2685 -75.19978
v -50.79242 -114.2685 -75.19978
v -47.91254 -114.037 -77.29926
v -46.7606 -113.9444 -78.13906
v -46.7606 -113.9444 -78.13906
v -56.00365 -98.73185 -89.14035
v -65.2467 -83.51926 -100.1416
v -46.77411 -114.0941 -78.33469
v -65.36829 -84.86639 -101.9023
v -46.77579 -114.1127 -78.359
v -65.38341 -85.0338 -102.1211
v -46.77626 -114.1179 -78.36582
v -65.38765 -85.0808 -102.1825
v -46.78156 -114.1766 -78.44253
v -65.43533 -85.609 -102.8729
v -46.84687 -114.9002 -79.38825
v -65.44258 -85.68941 -102.9779
v -46.90879 -115.5863 -80.28491
v -46.91592 -115.6652 -80.38806
v -65.45026 -85.7744 -103.089
v -46.93077 -115.8298 -80.60321
v -65.4519 -85.79269 -103.1129
v -46.97018 -116.2664 -81.17375
v -65.45628 -85.8412 -103.1763
v -46.84917 -116.3074 -81.3322
v -64.78996 -86.06729 -104.0488
v -64.36721 -86.21073 -104.6023
v -46.81914 -116.3176 -81.37151
v -64.09699 -86.30242 -104.9562
v -46.81021 -116.3207 -81.38321
v -64.01658 -86.3297 -105.0614
v -46.74268 -116.3436 -81.47163
v -63.4088 -86.53593 -105.8573
v -45.96792 -116.6064 -82.48608
v -63.32272 -86.56514 -105.97
v -45.32785 -116.8236 -83.32418
v -63.2516 -86.58927 -106.0631
v -44.6952 -117.0383 -84.15256
v -63.1813 -86.61312 -106.1551
v -44.58945 -117.0003 -84.18891
v -62.22956 -86.27145 -106.4823
v -44.35251 -116.9153 -84.27036
v -60.09711 -85.50588 -107.2153
v -43.69149 -116.678 -84.49758
v -43.42714 -116.5831 -84.58846
v -59.99429 -85.46897 -107.2507
v -42.52573 -116.2595 -84.89831
v -59.89414 -85.43301 -107.2851
v -41.78352 -115.993 -85.15344
v -59.81167 -85.4034 -107.3134
v -41.26832 -115.808 -85.33054
v -59.75443 -85.38286 -107.3331
v -59.75443 -85.38286 -107.3331
v -41.11549 -115.6588 -85.25251
v -58.37901 -84.03931 -106.6309
v -41.07051 -115.6148 -85.22954
v -57.97417 -83.64384 -106.4241
v -41.06592 -115.6103 -85.2272
v -57.93285 -83.60348 -106.403
v -41.06379 -115.6082 -85.22611
v -57.91368 -83.58475 -106.3933
v -41.0611 -115.6056 -85.22474
v -57.88946 -83.5611 -106.3809
v -41.01118 -115.5569 -85.19925
v -57.4402 -83.12225 -106.1515
v -38.69696 -113.2962 -84.01764
v -57.18306 -82.87107 -106.0202
v -38.69696 -113.2962 -84.01764
v -57.18306 -82.87107 -106.0202
v -38.69696 -113.2962 -84.01764
v -38.69696 -113.2962 -84.01764
v -37.54501 -113.2036 -84.85744
v -34.66514 -112.9722 -86.95693
v -34.66514 -112.9722 -86.95693
v -34.66514 -112.9722 -86.95692
v -38.69696 -113.2962 -84.01764
v -38.69696 -113.2962 -84.01764
v -38.69696 -113.2962 -84.01764
v -57.18306 -82.87107 -106.0202
v -57.18306 -82.87107 -106.0202
v -57.18306 -82.87107 -106.0202
v -38.69696 -113.2962 -84.01764
v -39.80786 -117.9957 -89.58273
v -38.69696 -113.2962 -84.01764
v -57.18306 -82.87107 -106.0202
v -38.69696 -113.2962 -84.01764
v -47.94001 -98.08366 -95.01893
v -57.18306 -82.87107 -106.0202
v -43.9082 -97.75956 -97.95822
v -57.18306 -82.87109 -106.0202
v -57.18306 -82.87107 -106.0202
v -56.03112 -82.77847 -106.86
v -58.29397 -87.57055 -111.5853
v -57.18306 -82.87107 -106.0202
v -39.80786 -117.9957 -89.58273
v -53.15125 -82.54697 -108.9595
v -58.29397 -87.57055 -111.5853
v -59.75443 -85.38286 -107.3331
v -59.75443 -85.38286 -107.3331
v -60.03547 -99.05595 -86.20106
v -50.79242 -114.2685 -75.19978
v -50.79242 -114.2685 -75.19978
v -47.91254 -114.037 -77.29926
v -56.00365 -98.73185 -89.14035
v -46.7606 -113.9444 -78.13906
v -66.91674 -83.6535 -98.92415
v -69.27853 -83.84335 -97.20235
v -65.2467 -83.51926 -100.1416
v -50.79242 -114.2685 -75.19978
v -51.21157 -118.9124 -81.26916
v -46.66162 -120.4563 -87.22678
v -46.97018 -116.2664 -81.17375
v -46.93077 -115.8298 -80.60321
v -46.91592 -115.6652 -80.38806
v -46.90879 -115.5863 -80.28491
v -46.84687 -114.9002 -79.38825
v -46.78156 -114.1766 -78.44253
v -46.77626 -114.1179 -78.36582
v -46.77579 -114.1127 -78.359
v -46.77411 -114.0941 -78.33469
v -46.7606 -113.9444 -78.13906
v -46.84917 -116.3074 -81.3322
v -46.81914 -116.3176 -81.37151
v -46.81021 -116.3207 -81.38321
v -46.74268 -116.3436 -81.47163
v -45.96792 -116.6064 -82.48608
v -45.32785 -116.8236 -83.32418
v -44.6952 -117.0383 -84.15256
v -44.58945 -117.0003 -84.18891
v -44.35251 -116.9153 -84.27036
v -43.69149 -116.678 -84.49758
v -39.80786 -117.9957 -89.58273
v -43.42714 -116.5831 -84.58846
v -42.52573 -116.2595 -84.89831
v -41.78352 -115.993 -85.15344
v -41.26832 -115.808 -85.33054
v -41.11549 -115.6588 -85.25251
v -41.07051 -115.6148 -85.22954
v -41.06592 -115.6103 -85.2272
v -41.06379 -115.6082 -85.22611
v -41.0611 -115.6056 -85.22474
v -41.01118 -115.5569 -85.19925
v -38.69696 -113.2962 -84.01764
v -38.69696 -113.2962 -84.01764
v -38.69696 -113.2962 -84.01764
v -34.66514 -112.9722 -86.95693
v -50.79242 -114.2685 -75.19978
v -69.69768 -88.48724 -103.2717
v -51.21157 -118.9124 -81.26916
v -60.03547 -99.05595 -86.20106
v -65.14772 -90.03108 -109.2293
v -46.66162 -120.4563 -87.22678
v -58.29397 -87.57055 -111.5853
v -39.80786 -117.9957 -89.58273
v -69.27853 -83.84335 -97.20235
v -34.66514 -112.9722 -86.95692
v -47.94001 -98.08366 -95.01893
v -38.69696 -113.2962 -84.01764
v -43.9082 -97.75956 -97.95822
v -57.18306 -82.87109 -106.0202
v -53.15125 -82.54697 -108.9595
v -56.03112 -82.77847 -106.86
v -57.18306 -82.87107 -106.0202
v -65.2467 -83.51926 -100.1416
v -69.69768 -88.48724 -103.2717
v -66.91674 -83.6535 -98.92415
v -69.69768 -88.48724 -103.2717
v -69.27853 -83.84335 -97.20235
v -65.2467 -83.51926 -100.1416
v -65.36829 -84.86639 -101.9023
v -65.2467 -83.51926 -100.1416
v -65.38341 -85.0338 -102.1211
v -65.38765 -85.0808 -102.1825
v -65.43533 -85.609 -102.8729
v -65.44258 -85.68941 -102.9779
v -65.45026 -85.7744 -103.089
v -65.4519 -85.79269 -103.1129
v -65.45628 -85.8412 -103.1763
v -65.14772 -90.03108 -109.2293
v -64.78996 -86.06729 -104.0488
v -64.36721 -86.21073 -104.6023
v -64.09699 -86.30242 -104.9562
v -64.01658 -86.3297 -105.0614
v -63.4088 -86.53593 -105.8573
v -63.32272 -86.56514 -105.97
v -63.2516 -86.58927 -106.0631
v -63.1813 -86.61312 -106.1551
v -62.22956 -86.27145 -106.4823
v -60.09711 -85.50588 -107.2153
v -59.99429 -85.46897 -107.2507
v -59.89414 -85.43301 -107.2851
v -59.81167 -85.4034 -107.3134
v -59.75443 -85.38286 -107.3331
v -58.29397 -87.57055 -111.5853
v -59.75443 -85.38286 -107.3331
v -58.37901 -84.03931 -106.6309
v -57.97417 -83.64384 -106.4241
v -57.93285 -83.60348 -106.403
v -57.91368 -83.58475 -106.3933
v -57.88946 -83.5611 -106.3809
v -57.4402 -83.12225 -106.1515
v -57.18306 -82.87107 -106.0202
v -56.03112 -82.77847 -106.86
v -57.18306 -82.87107 -106.0202
v -53.15125 -82.54697 -108.9595

vn -0.8063632 -0.06481956 0.5878578
vn -0.8063633 -0.06481945 0.5878577
vn -0.3247771 -0.5223272 0.7884758
vn 0.4417079 -0.7269809 0.5257308
vn 0.4417079 -0.7269809 0.5257308
vn 0.8954861 0.3214872 -0.3078158
vn 0.8607259 -0.03864262 -0.5076
vn 0.5736543 0.6794107 0.4575169
vn 0.8954857 0.3214846 -0.3078196
vn 0.8954858 0.3214841 -0.3078203
vn 0.8954857 0.3214843 -0.3078201
vn 0.8954858 0.321485 -0.3078193
vn 0.8954857 0.3214857 -0.3078185
vn 0.8954857 0.3214818 -0.3078228
vn 0.8954857 0.3214836 -0.3078207
vn 0.8954857 0.321484 -0.3078203
vn 0.8954858 0.3214839 -0.3078205
vn 0.8954857 0.3214839 -0.3078205
vn 0.8954857 0.321484 -0.3078203
vn 0.8954858 0.3214839 -0.3078206
vn 0.8954858 0.3214845 -0.3078196
vn 0.8954858 0.3214855 -0.3078184
vn 0.8954857 0.3214841 -0.3078201
vn 0.8954858 0.3214836 -0.3078208
vn 0.8935012 0.4093238 -0.1846879
vn 0.6956803 0.6475623 0.3109532
vn 0.6719273 0.656362 0.3430781
vn 0.6719278 0.6563618 0.3430775
vn 0.671928 0.6563617 0.3430773
vn 0.6719294 0.6563612 0.3430758
vn 0.6719301 0.6563609 0.3430747
vn 0.6719312 0.6563603 0.3430735
vn 0.6719295 0.6563612 0.3430756
vn 0.6719286 0.6563615 0.3430764
vn 0.6719283 0.6563617 0.3430769
vn 0.6719282 0.6563617 0.3430769
vn 0.6719289 0.6563613 0.3430761
vn 0.6719286 0.6563616 0.3430766
vn 0.6719278 0.6563618 0.3430775
vn 0.6313434 0.668215 0.3935661
vn 0.1137277 0.6266398 0.7709661
vn 0.05476624 0.6067514 0.7930027
vn 0.05476527 0.6067511 0.793003
vn 0.05476463 0.606751 0.7930033
vn 0.05476464 0.6067509 0.7930032
vn 0.05476503 0.606751 0.7930031
vn 0.05476559 0.6067511 0.793003
vn 0.05476515 0.6067511 0.7930031
vn 0.0547655 0.6067512 0.7930031
vn 0.05476519 0.606751 0.7930031
vn 0.05476521 0.6067511 0.7930032
vn 0.0547656 0.6067511 0.793003
vn -0.122778 0.5314994 0.8381133
vn 0.05478645 0.6067587 0.7929958
vn -0.5944791 0.2017142 0.7783996
vn -0.5944799 0.2017134 0.7783991
vn -0.5944803 0.2017132 0.778399
vn -0.5944811 0.2017124 0.7783985
vn -0.5944797 0.2017137 0.7783993
vn -0.5944785 0.2017145 0.7784001
vn -0.5944765 0.2017161 0.7784011
vn -0.5944436 0.2017417 0.7784196
vn -0.5944643 0.2017257 0.778408
vn -0.5944849 0.2017094 0.7783964
vn -0.594482 0.2017118 0.7783981
vn -0.5944799 0.2017135 0.7783992
vn -0.5944794 0.2017138 0.7783994
vn -0.5944793 0.201714 0.7783995
vn -0.594476 0.2017174 0.7784012
vn -0.47352 0.3088149 0.8248711
vn -0.8063633 -0.06481931 0.5878576
vn -0.8063633 -0.06481931 0.5878576
vn -0.8063633 -0.06481931 0.5878576
vn 0.4417079 -0.7269809 0.5257308
vn 0.5944797 -0.2017135 -0.7783993
vn 0.4417079 -0.7269809 0.5257308
vn 0.4947436 0.6862181 0.5332294
vn -0.1878325 -0.5948884 0.7815539
vn -0.08931582 -0.6371616 0.7655376
vn -0.7729426 -0.1163068 0.6237246
vn -0.8063633 -0.06481931 0.5878576
vn -0.8063633 -0.06481931 0.5878576
vn -0.8063633 -0.06481931 0.5878576
vn -0.7565773 -0.1393555 0.6388825
vn 0.4417079 -0.7269809 0.5257308
vn -0.800703 -0.07401607 0.5944715
vn -0.8063633 -0.06481931 0.5878576
vn -0.735792 -0.1669784 0.6562989
vn -0.806366 -0.06482384 0.5878536
vn -0.831432 -0.02105742 0.5552274
vn 0.5944796 -0.2017136 -0.7783993
vn -0.8063726 -0.06483547 0.5878431
vn -0.4417135 0.7269804 -0.5257267
vn -0.4417079 0.7269809 -0.5257308
vn -0.4417081 0.7269806 -0.5257311
vn 0 0 0
vn 0.5944797 -0.2017136 -0.7783994
vn 0.5944797 -0.2017137 -0.7783993
vn 0.5944797 -0.2017136 -0.7783994
vn -0.4417081 0.7269806 -0.5257311
vn -0.4417081 0.7269806 -0.5257311
vn 0.3932837 0.6835915 0.6148419
vn 0.3932837 0.6835915 0.6148419
vn 0.3932837 0.6835915 0.6148419
vn 0.3932837 0.6835915 0.6148419
vn 0.3932837 0.6835915 0.6148419
vn 0.3932837 0.6835915 0.6148419
vn 0.3932837 0.6835915 0.6148419
vn 0.3932837 0.6835915 0.6148419
vn 0.3932837 0.6835915 0.6148419
vn 0.4417079 -0.7269809 0.5257308
vn 0.4417079 -0.7269809 0.5257308
vn 0.4417079 -0.7269809 0.5257308
vn 0.4417079 -0.7269809 0.5257308
vn 0.4417079 -0.7269809 0.5257308
vn 0.4417079 -0.7269809 0.5257308
vn 0.4417079 -0.7269809 0.5257308
vn 0.4417079 -0.7269809 0.5257308
vn 0.4417079 -0.7269809 0.5257308
vn 0.4417079 -0.7269809 0.5257308
vn 0.4417079 -0.7269809 0.5257308
vn 0.4417079 -0.7269809 0.5257308
vn 0.4417079 -0.7269809 0.5257308
vn 0.4417079 -0.7269809 0.5257308
vn 0.4417079 -0.7269809 0.5257308
vn 0.4417079 -0.7269809 0.5257308
vn 0.4417079 -0.7269809 0.5257308
vn 0.4417079 -0.7269809 0.5257308
vn 0.4417079 -0.7269809 0.5257308
vn 0.4417079 -0.7269809 0.5257308
vn 0.4417079 -0.7269809 0.5257308
vn 0.4417079 -0.7269809 0.5257308
vn 0.4417079 -0.7269809 0.5257308
vn 0.4417079 -0.7269809 0.5257308
vn 0.4417079 -0.7269809 0.5257308
vn 0.4417079 -0.7269809 0.5257308
vn 0.4417079 -0.7269809 0.5257308
vn 0.4417079 -0.7269809 0.5257308
vn 0.4417079 -0.7269809 0.5257308
vn 0.4417079 -0.7269809 0.5257308
vn 0.4417079 -0.7269809 0.5257308
vn 0.4417079 -0.7269809 0.5257308
vn 0.4417079 -0.7269809 0.5257308
vn 0.4417079 -0.7269809 0.5257308
vn 0.4417079 -0.7269809 0.5257308
vn 0.4417079 -0.7269809 0.5257308
vn 0.4417079 -0.7269809 0.5257308
vn 0.4417079 -0.7269809 0.5257308
vn -0.8954858 -0.3214844 0.3078201
vn -0.8802571 -0.4643894 0.09741599
vn -0.8003562 -0.5840768 -0.1352189
vn -0.8954856 -0.3214843 0.30782
vn -0.4998769 -0.686033 -0.5286605
vn -0.2792986 -0.6683018 -0.6894673
vn -0.05476505 -0.606751 -0.7930031
vn -0.05476508 -0.606751 -0.7930032
vn -0.8954857 -0.3214842 0.3078201
vn 0.3932837 0.6835915 0.6148419
vn 0.3932837 0.6835915 0.6148419
vn 0.3932837 0.6835915 0.6148419
vn 0.3932837 0.6835915 0.6148419
vn 0.3932837 0.6835915 0.6148419
vn 0.3932837 0.6835915 0.6148419
vn 0.3932837 0.6835915 0.6148419
vn 0.3932837 0.6835915 0.6148419
vn 0.700027 0.2109063 -0.6822615
vn -0.4417085 0.7269809 -0.5257304
vn -0.441708 0.7269807 -0.5257309
vn -0.4417081 0.7269807 -0.5257309
vn -0.441708 0.7269807 -0.525731
vn -0.441708 0.7269807 -0.525731
vn -0.4417082 0.7269808 -0.5257307
vn -0.4417082 0.7269808 -0.5257307
vn -0.4417082 0.7269808 -0.5257307
vn -0.4417082 0.7269808 -0.5257307
vn -0.4417082 0.7269808 -0.5257307
vn -0.4417082 0.7269807 -0.5257307
vn -0.4417082 0.7269808 -0.5257307
vn -0.4417082 0.7269807 -0.5257307
vn -0.4417081 0.7269807 -0.5257309
vn -0.4417081 0.7269807 -0.525731
vn -0.4417081 0.7269807 -0.5257309
vn -0.4417081 0.7269807 -0.5257309
vn -0.4417081 0.7269807 -0.5257309
vn -0.4417081 0.7269807 -0.5257309
vn -0.4417081 0.7269807 -0.5257309
vn -0.4417081 0.7269807 -0.5257309
vn -0.4417081 0.7269807 -0.5257309
vn -0.441708 0.7269807 -0.5257311
vn -0.4417079 0.7269807 -0.5257311
vn -0.4417079 0.7269807 -0.5257311
vn -0.4417079 0.7269807 -0.5257311
vn -0.4417079 0.7269807 -0.5257311
vn -0.4417079 0.7269807 -0.5257311
vn -0.4417079 0.7269807 -0.5257311
vn -0.4417079 0.7269807 -0.525731
vn -0.4417077 0.7269808 -0.5257311
vn -0.4417077 0.7269808 -0.5257311
vn -0.4417077 0.7269808 -0.5257311
vn -0.4417077 0.7269808 -0.5257311
vn -0.4417077 0.7269808 -0.5257311
vn -0.4417077 0.7269808 -0.5257311
vn -0.4417077 0.7269808 -0.5257311
vn -0.4417077 0.7269808 -0.525731
vn -0.441708 0.7269807 -0.525731
vn -0.441708 0.7269807 -0.525731
vn -0.441708 0.7269807 -0.5257309

f 1//1 2//2 3//3
f 4//4 1//1 3//3
f 3//3 5//5 4//4
f 3//3 6//6 5//5
f 5//5 6//6 7//7
f 8//8 7//7 6//6
f 9//9 8//8 6//6
f 10//10 9//9 6//6
f 9//9 10//10 11//11
f 11//11 10//10 12//12
f 13//13 11//11 12//12
f 13//13 12//12 14//14
f 13//13 14//14 15//15
f 15//15 14//14 16//16
f 15//15 16//16 17//17
f 18//18 17//17 16//16
f 19//19 17//17 18//18
f 19//19 18//18 20//20
f 21//21 19//19 20//20
f 22//22 19//19 21//21
f 22//22 21//21 23//23
f 24//24 22//22 23//23
f 24//24 23//23 25//25
f 26//26 24//24 25//25
f 26//26 25//25 27//27
f 28//28 26//26 27//27
f 28//28 27//27 29//29
f 29//29 27//27 30//30
f 31//31 29//29 30//30
f 31//31 30//30 32//32
f 33//33 31//31 32//32
f 33//33 32//32 34//34
f 35//35 33//33 34//34
f 35//35 34//34 36//36
f 37//37 35//35 36//36
f 37//37 36//36 38//38
f 39//39 37//37 38//38
f 39//39 38//38 40//40
f 41//41 39//39 40//40
f 41//41 40//40 42//42
f 41//41 42//42 43//43
f 43//43 42//42 44//44
f 45//45 43//43 44//44
f 45//45 44//44 46//46
f 47//47 45//45 46//46
f 48//48 45//45 47//47
f 48//48 47//47 49//49
f 50//50 48//48 49//49
f 50//50 49//49 51//51
f 52//52 50//50 51//51
f 52//52 51//51 53//53
f 54//54 52//52 53//53
f 55//55 54//54 53//53
f 55//55 53//53 56//56
f 55//55 56//56 57//57
f 57//57 56//56 58//58
f 57//57 58//58 59//59
f 59//59 58//58 60//60
f 59//59 60//60 61//61
f 61//61 60//60 62//62
f 61//61 62//62 63//63
f 63//63 62//62 64//64
f 63//63 64//64 65//65
f 65//65 64//64 66//66
f 65//65 66//66 67//67
f 68//68 67//67 66//66
f 69//69 67//67 68//68
f 69//69 68//68 70//70
f 71//71 69//69 70//70
f 72//72 71//71 73//73
f 74//74 75//75 76//76
f 77//77 74//74 76//76
f 75//75 77//77 76//76
f 78//78 75//75 74//74
f 79//79 75//75 78//78
f 78//78 74//74 80//80
f 81//81 78//78 80//80
f 82//82 78//78 81//81
f 82//82 83//83 78//78
f 83//83 84//84 79//79
f 84//84 85//85 79//79
f 80//80 74//74 86//86
f 87//87 80//80 86//86
f 81//81 80//80 87//87
f 86//86 74//74 88//88
f 88//88 74//74 77//77
f 86//86 88//88 89//89
f 90//90 86//86 89//89
f 87//87 86//86 90//90
f 75//75 91//91 77//77
f 90//90 89//89 92//92
f 90//90 92//92 93//93
f 94//94 90//90 93//93
f 95//95 83//83 82//82
f 95//95 82//82 81//81
f 95//95 81//81 87//87
f 95//95 87//87 90//90
f 95//95 96//96 83//83
f 97//97 91//91 75//75
f 97//97 98//98 91//91
f 97//97 99//99 98//98
f 100//100 95//95 101//101
f 102//102 103//103 104//104
f 102//102 104//104 105//105
f 102//102 105//105 106//106
f 106//106 105//105 107//107
f 108//108 102//102 106//106
f 109//109 102//102 108//108
f 110//110 108//108 106//106
f 111//111 112//112 113//113
f 111//111 113//113 114//114
f 111//111 114//114 115//115
f 111//111 115//115 116//116
f 111//111 116//116 117//117
f 117//117 118//118 111//111
f 118//118 119//119 111//111
f 120//120 111//111 119//119
f 120//120 121//121 111//111
f 121//121 122//122 111//111
f 111//111 122//122 123//123
f 114//114 113//113 124//124
f 124//124 113//113 125//125
f 125//125 113//113 126//126
f 126//126 113//113 127//127
f 127//127 113//113 128//128
f 128//128 113//113 129//129
f 129//129 113//113 130//130
f 130//130 113//113 131//131
f 131//131 113//113 132//132
f 132//132 113//113 133//133
f 133//133 113//113 134//134
f 133//133 134//134 135//135
f 135//135 134//134 136//136
f 134//134 137//137 136//136
f 137//137 134//134 138//138
f 138//138 134//134 139//139
f 139//139 134//134 140//140
f 140//140 134//134 141//141
f 134//134 142//142 141//141
f 134//134 143//143 142//142
f 134//134 144//144 143//143
f 144//144 134//134 145//145
f 145//145 134//134 146//146
f 147//147 134//134 148//148
f 149//149 150//150 151//151
f 149//149 152//152 150//150
f 151//151 150//150 153//153
f 151//151 153//153 154//154
f 154//154 153//153 155//155
f 154//154 155//155 156//156
f 152//152 157//157 150//150
f 158//158 159//159 160//160
f 161//161 159//159 158//158
f 162//162 159//159 161//161
f 163//163 162//162 161//161
f 164//164 162//162 163//163
f 165//165 162//162 164//164
f 9//9 166//166 8//8
f 166//166 9//9 167//167
f 168//168 169//169 170//170
f 168//168 171//171 169//169
f 172//172 169//169 173//173
f 174//174 169//169 172//172
f 169//169 174//174 175//175
f 176//176 169//169 175//175
f 177//177 169//169 176//176
f 178//178 169//169 177//177
f 178//178 179//179 169//169
f 179//179 180//180 169//169
f 180//180 181//181 169//169
f 182//182 181//181 180//180
f 182//182 183//183 181//181
f 183//183 184//184 181//181
f 184//184 185//185 181//181
f 185//185 186//186 181//181
f 186//186 187//187 181//181
f 187//187 188//188 181//181
f 188//188 189//189 181//181
f 181//181 189//189 190//190
f 181//181 190//190 191//191
f 192//192 181//181 191//191
f 193//193 181//181 192//192
f 194//194 181//181 193//193
f 195//195 181//181 194//194
f 195//195 196//196 181//181
f 196//196 197//197 198//198
f 196//196 198//198 199//199
f 199//199 200//200 196//196
f 196//196 200//200 201//201
f 201//201 202//202 196//196
f 196//196 202//202 203//203
f 196//196 203//203 204//204
f 205//205 196//196 206//206
f 207//207 196//196 205//205
