v -124.4131 6.825043 74.49683
v -115.1701 -8.387552 85.49811
v -124.4131 6.825043 74.49683
v -124.4131 6.825043 74.49683
v -122.865 9.27501 76.58398
v -122.2458 10.255 77.41883
v -122.2458 10.255 77.41883
v -113.0028 -4.957598 88.4201
v -103.7597 -20.17019 99.42139
v -122.3839 10.31287 77.61488
v -105.0027 -19.64938 101.1859
v -122.4011 10.32006 77.63924
v -105.1571 -19.58466 101.4051
v -122.4059 10.32207 77.64609
v -105.2005 -19.56649 101.4667
v -122.46 10.34476 77.72295
v -105.6878 -19.36229 102.1585
v -123.1277 10.62451 78.67072
v -105.762 -19.3312 102.2638
v -123.7607 10.88975 79.56932
v -123.8335 10.92026 79.6727
v -105.8404 -19.29834 102.3752
v -123.9854 10.9839 79.88831
v -105.8573 -19.29127 102.3991
v -124.3881 11.15267 80.46008
v -105.9021 -19.27252 102.4626
v -124.3678 11.27932 80.61814
v -105.7901 -18.57512 103.3329
v -105.7191 -18.13267 103.8851
v -124.3628 11.31075 80.65735
v -105.6737 -17.84985 104.238
v -124.3613 11.3201 80.66902
v -105.6602 -17.76569 104.3431
v -124.3499 11.39078 80.75723
v -105.5581 -17.12957 105.1369
v -124.2197 12.20166 81.76915
v -105.5436 -17.03947 105.2493
v -124.1122 12.87157 82.60516
v -105.5317 -16.96504 105.3422
v -124.0059 13.53372 83.43148
v -105.5199 -16.89147 105.434
v -123.9231 13.60993 83.46731
v -104.7747 -16.20557 105.7565
v -123.7376 13.78069 83.54758
v -103.1053 -14.66879 106.4789
v -123.2201 14.25706 83.77151
v -123.0132 14.44758 83.86107
v -103.0248 -14.59469 106.5137
v -122.3075 15.09719 84.16644
v -102.9464 -14.52251 106.5476
v -121.7264 15.63207 84.41788
v -102.8818 -14.46308 106.5756
v -121.323 16.00336 84.59241
v -102.837 -14.42183 106.595
v -102.837 -14.42183 106.595
v -121.1203 16.06943 84.5134
v -101.0119 -13.82726 105.8838
v -121.0606 16.08887 84.49014
v -100.4748 -13.65226 105.6744
v -121.0545 16.09086 84.48776
v -100.4199 -13.63439 105.6531
v -121.0517 16.09178 84.48666
v -100.3945 -13.62611 105.6432
v -121.0481 16.09294 84.48527
v -100.3624 -13.61564 105.6306
v -120.9819 16.11452 84.45946
v -99.76624 -13.42144 105.3983
v -117.9111 17.11491 83.26283
v -99.42504 -13.31028 105.2654
v -117.9111 17.11491 83.26283
v -99.42504 -13.31028 105.2654
v -117.9111 17.11491 83.26283
v -117.9111 17.11491 83.26283
v -117.2919 18.0949 84.09769
v -115.7438 20.54486 86.18482
v -115.7438 20.54486 86.18482
v -115.7438 20.54486 86.18482
v -117.9111 17.11491 83.26283
v -117.9111 17.11491 83.26283
v -117.9111 17.11491 83.26283
v -99.42504 -13.31028 105.2654
v -99.42504 -13.31028 105.2654
v -99.42504 -13.31028 105.2654
v -117.9111 17.11491 83.26283
v -122.5676 18.32177 88.844
v -117.9111 17.11491 83.26283
v -99.42504 -13.31028 105.2654
v -117.9111 17.11491 83.26283
v -108.6681 1.902313 94.26411
v -99.42504 -13.31028 105.2654
v -106.5007 5.332268 97.1861
v -99.42505 -13.31026 105.2654
v -99.42504 -13.31028 105.2654
v -98.8058 -12.33029 106.1002
v -104.0816 -12.10341 110.8466
v -99.42504 -13.31028 105.2654
v -122.5676 18.32177 88.844
v -97.2577 -9.880325 108.1874
v -104.0816 -12.10341 110.8466
v -102.837 -14.42183 106.595
v -102.837 -14.42183 106.595
v -115.1701 -8.387552 85.49811
v -124.4131 6.825043 74.49683
v -124.4131 6.825043 74.49683
v -122.865 9.27501 76.58398
v -113.0028 -4.957598 88.4201
v -122.2458 10.255 77.41883
v -104.6575 -21.59093 98.21105
v -105.9271 -23.60015 96.49939
v -103.7597 -20.17019 99.42139
v -124.4131 6.825043 74.49683
v -128.6978 8.620391 80.57935
v -127.9334 13.38249 86.52214
v -124.3881 11.15267 80.46008
v -123.9854 10.9839 79.88831
v -123.8335 10.92026 79.6727
v -123.7607 10.88975 79.56932
v -123.1277 10.62451 78.67072
v -122.46 10.34476 77.72295
v -122.4059 10.32207 77.64609
v -122.4011 10.32006 77.63924
v -122.3839 10.31287 77.61488
v -122.2458 10.255 77.41883
v -124.3678 11.27932 80.61814
v -124.3628 11.31075 80.65735
v -124.3613 11.3201 80.66902
v -124.3499 11.39078 80.75723
v -124.2197 12.20166 81.76915
v -124.1122 12.87157 82.60516
v -124.0059 13.53372 83.43148
v -123.9231 13.60993 83.46731
v -123.7376 13.78069 83.54758
v -123.2201 14.25706 83.77151
v -122.5676 18.32177 88.844
v -123.0132 14.44758 83.86107
v -122.3075 15.09719 84.16644
v -121.7264 15.63207 84.41788
v -121.323 16.00336 84.59241
v -121.1203 16.06943 84.5134
v -121.0606 16.08887 84.49014
v -121.0545 16.09086 84.48776
v -121.0517 16.09178 84.48666
v -121.0481 16.09294 84.48527
v -120.9819 16.11452 84.45946
v -117.9111 17.11491 83.26283
v -117.9111 17.11491 83.26283
v -117.9111 17.11491 83.26283
v -115.7438 20.54486 86.18482
v -124.4131 6.825043 74.49683
v -110.2118 -21.8048 102.5819
v -128.6978 8.620391 80.57935
v -115.1701 -8.387552 85.49811
v -109.4473 -17.04269 108.5247
v -127.9334 13.38249 86.52214
v -104.0816 -12.10341 110.8466
v -122.5676 18.32177 88.844
v -105.9271 -23.60015 96.49939
v -115.7438 20.54486 86.18482
v -108.6681 1.902313 94.26411
v -117.9111 17.11491 83.26283
v -106.5007 5.332268 97.1861
v -99.42505 -13.31026 105.2654
v -97.2577 -9.880325 108.1874
v -98.8058 -12.33029 106.1002
v -99.42504 -13.31028 105.2654
v -103.7597 -20.17019 99.42139
v -110.2118 -21.8048 102.5819
v -104.6575 -21.59093 98.21105
v -110.2118 -21.8048 102.5819
v -105.9271 -23.60015 96.49939
v -103.7597 -20.17019 99.42139
v -105.0027 -19.64938 101.1859
v -103.7597 -20.17019 99.42139
v -105.1571 -19.58466 101.4051
v -105.2005 -19.56649 101.4667
v -105.6878 -19.36229 102.1585
v -105.762 -19.3312 102.2638
v -105.8404 -19.29834 102.3752
v -105.8573 -19.29127 102.3991
v -105.9021 -19.27252 102.4626
v -109.4473 -17.04269 108.5247
v -105.7901 -18.57512 103.3329
v -105.7191 -18.13267 103.8851
v -105.6737 -17.84985 104.238
v -105.6602 -17.76569 104.3431
v -105.5581 -17.12957 105.1369
v -105.5436 -17.03947 105.2493
v -105.5317 -16.96504 105.3422
v -105.5199 -16.89147 105.434
v -104.7747 -16.20557 105.7565
v -103.1053 -14.66879 106.4789
v -103.0248 -14.59469 106.5137
v -102.9464 -14.52251 106.5476
v -102.8818 -14.46308 106.5756
v -102.837 -14.42183 106.595
v -104.0816 -12.10341 110.8466
v -102.837 -14.42183 106.595
v -101.0119 -13.82726 105.8838
v -100.4748 -13.65226 105.6744
v -100.4199 -13.63439 105.6531
v -100.3945 -13.62611 105.6432
v -100.3624 -13.61564 105.6306
v -99.76624 -13.42144 105.3983
v -99.42504 -13.31028 105.2654
v -98.8058 -12.33029 106.1002
v -99.42504 -13.31028 105.2654
v -97.2577 -9.880325 108.1874

vn -0.4334682 -0.6859903 -0.5843995
vn -0.4334681 -0.6859904 -0.5843994
vn -0.6165727 -0.04772967 -0.7858499
vn -0.4417074 0.7269815 -0.5257306
vn -0.4417074 0.7269815 -0.5257306
vn 0.7010703 0.6453462 0.3033624
vn 0.3666448 0.7819067 0.5041764
vn 0.8660055 0.1924104 -0.4615329
vn 0.7010679 0.6453471 0.3033662
vn 0.7010674 0.6453474 0.3033669
vn 0.7010676 0.6453472 0.3033666
vn 0.7010682 0.6453469 0.3033658
vn 0.7010688 0.6453466 0.303365
vn 0.7010653 0.6453484 0.3033693
vn 0.701067 0.6453475 0.3033673
vn 0.7010673 0.6453474 0.3033668
vn 0.7010673 0.6453475 0.303367
vn 0.7010671 0.6453474 0.303367
vn 0.7010673 0.6453474 0.3033668
vn 0.7010672 0.6453475 0.3033671
vn 0.7010678 0.6453472 0.3033662
vn 0.7010687 0.6453467 0.3033649
vn 0.7010674 0.6453473 0.3033666
vn 0.701067 0.6453476 0.3033673
vn 0.7774859 0.6025829 0.1800268
vn 0.8949214 0.3156654 -0.3153902
vn 0.8915824 0.2904594 -0.3474396
vn 0.8915824 0.2904599 -0.347439
vn 0.8915825 0.2904601 -0.3474388
vn 0.8915827 0.2904616 -0.3474373
vn 0.8915827 0.2904624 -0.3474362
vn 0.8915827 0.2904636 -0.3474351
vn 0.8915826 0.2904617 -0.3474371
vn 0.8915825 0.2904608 -0.3474379
vn 0.8915826 0.2904604 -0.3474384
vn 0.8915825 0.2904603 -0.3474384
vn 0.8915825 0.2904611 -0.3474375
vn 0.8915826 0.2904607 -0.3474381
vn 0.8915825 0.2904599 -0.347439
vn 0.8830755 0.2488783 -0.3977907
vn 0.6048557 -0.191484 -0.7729708
vn 0.5598216 -0.2345726 -0.7947173
vn 0.5598209 -0.2345734 -0.7947177
vn 0.5598204 -0.2345739 -0.7947179
vn 0.5598204 -0.2345738 -0.7947178
vn 0.5598207 -0.2345735 -0.7947177
vn 0.559821 -0.2345731 -0.7947176
vn 0.5598208 -0.2345734 -0.7947177
vn 0.559821 -0.2345732 -0.7947177
vn 0.5598207 -0.2345734 -0.7947177
vn 0.5598208 -0.2345734 -0.7947178
vn 0.559821 -0.2345731 -0.7947176
vn 0.4106867 -0.3571491 -0.8389167
vn 0.5598373 -0.2345581 -0.7947105
vn -0.09987638 -0.6221979 -0.776463
vn -0.0998775 -0.6221982 -0.7764624
vn -0.09987789 -0.6221985 -0.7764624
vn -0.09987891 -0.6221988 -0.7764618
vn -0.09987717 -0.6221981 -0.7764627
vn -0.09987587 -0.6221974 -0.7764634
vn -0.09987354 -0.6221964 -0.7764644
vn -0.09983568 -0.6221792 -0.7764831
vn -0.0998594 -0.6221901 -0.7764714
vn -0.09988335 -0.6222008 -0.7764598
vn -0.09987985 -0.6221993 -0.7764614
vn -0.09987742 -0.6221982 -0.7764625
vn -0.09987688 -0.622198 -0.7764627
vn -0.09987665 -0.6221979 -0.7764629
vn -0.09987213 -0.6221965 -0.7764646
vn 0.05088921 -0.564749 -0.8236924
vn -0.433468 -0.6859905 -0.5843993
vn -0.433468 -0.6859905 -0.5843993
vn -0.433468 -0.6859905 -0.5843993
vn -0.4417074 0.7269815 -0.5257306
vn 0.09987728 0.622198 0.7764627
vn -0.4417074 0.7269815 -0.5257306
vn 0.8351657 0.119141 -0.5369393
vn -0.6173927 0.1072651 -0.7793077
vn -0.6091407 0.2141946 -0.7635892
vn -0.4637555 -0.6326056 -0.6202751
vn -0.433468 -0.6859905 -0.5843993
vn -0.433468 -0.6859905 -0.5843993
vn -0.433468 -0.6859905 -0.5843993
vn -0.4766595 -0.6074607 -0.6354426
vn -0.4417074 0.7269815 -0.5257306
vn -0.4390222 -0.6767295 -0.5910134
vn -0.433468 -0.6859905 -0.5843993
vn -0.4915783 -0.5762853 -0.6528753
vn -0.4334733 -0.6859908 -0.5843952
vn -0.40617 -0.7284024 -0.5517753
vn 0.09987722 0.622198 0.7764626
vn -0.4334866 -0.6859912 -0.5843847
vn 0.4417044 -0.7269863 0.5257266
vn 0.4417074 -0.7269815 0.5257306
vn 0.441707 -0.7269815 0.5257308
vn 0 0 0
vn 0.09987717 0.622198 0.7764627
vn 0.09987718 0.6221981 0.7764627
vn 0.09987719 0.6221981 0.7764627
vn 0.441707 -0.7269815 0.5257308
vn 0.441707 -0.7269815 0.5257308
vn 0.7854937 0.0302459 -0.6181303
vn 0.7854936 0.0302459 -0.6181302
vn 0.7854937 0.0302459 -0.6181303
vn 0.7854937 0.0302459 -0.6181303
vn 0.7854937 0.0302459 -0.6181303
vn 0.7854937 0.0302459 -0.6181303
vn 0.7854937 0.0302459 -0.6181303
vn 0.7854937 0.0302459 -0.6181303
vn 0.7854937 0.0302459 -0.6181303
vn -0.4417074 0.7269815 -0.5257306
vn -0.4417074 0.7269815 -0.5257306
vn -0.4417074 0.7269815 -0.5257306
vn -0.4417074 0.7269815 -0.5257306
vn -0.4417074 0.7269815 -0.5257306
vn -0.4417074 0.7269815 -0.5257306
vn -0.4417074 0.7269815 -0.5257306
vn -0.4417074 0.7269815 -0.5257306
vn -0.4417074 0.7269815 -0.5257306
vn -0.4417074 0.7269815 -0.5257306
vn -0.4417074 0.7269815 -0.5257306
vn -0.4417074 0.7269815 -0.5257306
vn -0.4417074 0.7269815 -0.5257306
vn -0.4417074 0.7269815 -0.5257306
vn -0.4417074 0.7269815 -0.5257306
vn -0.4417074 0.7269815 -0.5257306
vn -0.4417074 0.7269815 -0.5257306
vn -0.4417074 0.7269815 -0.5257306
vn -0.4417074 0.7269815 -0.5257306
vn -0.4417074 0.7269815 -0.5257306
vn -0.4417074 0.7269815 -0.5257306
vn -0.4417074 0.7269815 -0.5257306
vn -0.4417074 0.7269815 -0.5257306
vn -0.4417074 0.7269815 -0.5257306
vn -0.4417074 0.7269815 -0.5257306
vn -0.4417074 0.7269815 -0.5257306
vn -0.4417074 0.7269815 -0.5257306
vn -0.4417074 0.7269815 -0.5257306
vn -0.4417074 0.7269815 -0.5257306
vn -0.4417074 0.7269815 -0.5257306
vn -0.4417074 0.7269815 -0.5257306
vn -0.4417074 0.7269815 -0.5257306
vn -0.4417074 0.7269815 -0.5257306
vn -0.4417074 0.7269815 -0.5257306
vn -0.4417074 0.7269815 -0.5257306
vn -0.4417074 0.7269815 -0.5257306
vn -0.4417074 0.7269815 -0.5257306
vn -0.4417074 0.7269815 -0.5257306
vn -0.7010677 -0.6453472 -0.3033666
vn -0.8197903 -0.5651155 -0.09267377
vn -0.8878816 -0.4382766 0.1399282
vn -0.7010676 -0.6453471 -0.3033665
vn -0.8373989 -0.123787 0.5323909
vn -0.7188249 0.0638637 0.6922517
vn -0.5598206 0.2345735 0.7947177
vn -0.5598207 0.2345735 0.7947178
vn -0.7010675 -0.6453472 -0.3033666
vn 0.7854937 0.0302459 -0.6181303
vn 0.7854937 0.0302459 -0.6181303
vn 0.7854937 0.0302459 -0.6181303
vn 0.7854937 0.0302459 -0.6181303
vn 0.7854937 0.0302459 -0.6181303
vn 0.7854937 0.0302459 -0.6181303
vn 0.7854937 0.0302459 -0.6181303
vn 0.7854936 0.03024589 -0.6181302
vn 0.5140399 0.5243012 0.678875
vn 0.4417071 -0.726982 0.5257302
vn 0.4417072 -0.7269815 0.5257307
vn 0.4417072 -0.7269816 0.5257307
vn 0.4417072 -0.7269815 0.5257307
vn 0.4417072 -0.7269815 0.5257307
vn 0.4417072 -0.7269818 0.5257305
vn 0.4417072 -0.7269818 0.5257305
vn 0.4417072 -0.7269818 0.5257305
vn 0.4417072 -0.7269818 0.5257305
vn 0.4417072 -0.7269818 0.5257305
vn 0.4417071 -0.7269817 0.5257305
vn 0.4417072 -0.7269818 0.5257305
vn 0.4417071 -0.7269817 0.5257305
vn 0.4417071 -0.7269816 0.5257307
vn 0.4417071 -0.7269815 0.5257308
vn 0.4417071 -0.7269816 0.5257307
vn 0.4417071 -0.7269816 0.5257307
vn 0.4417071 -0.7269816 0.5257307
vn 0.4417071 -0.7269816 0.5257307
vn 0.4417071 -0.7269816 0.5257307
vn 0.4417071 -0.7269816 0.5257307
vn 0.4417071 -0.7269816 0.5257307
vn 0.4417072 -0.7269815 0.5257308
vn 0.4417072 -0.7269815 0.5257308
vn 0.4417072 -0.7269815 0.5257308
vn 0.4417072 -0.7269815 0.5257308
vn 0.4417072 -0.7269815 0.5257308
vn 0.4417072 -0.7269815 0.5257308
vn 0.4417072 -0.7269815 0.5257308
vn 0.4417073 -0.7269815 0.5257308
vn 0.4417074 -0.7269813 0.5257308
vn 0.4417074 -0.7269813 0.5257308
vn 0.4417074 -0.7269813 0.5257308
vn 0.4417074 -0.7269813 0.5257308
vn 0.4417074 -0.7269813 0.5257308
vn 0.4417074 -0.7269813 0.5257308
vn 0.4417074 -0.7269813 0.5257308
vn 0.4417074 -0.7269813 0.5257308
vn 0.4417072 -0.7269815 0.5257307
vn 0.4417072 -0.7269815 0.5257307
vn 0.4417072 -0.7269815 0.5257307

f 1//1 2//2 3//3
f 4//4 1//1 3//3
f 3//3 5//5 4//4
f 3//3 6//6 5//5
f 5//5 6//6 7//7
f 8//8 7//7 6//6
f 9//9 8//8 6//6
f 10//10 9//9 6//6
f 9//9 10//10 11//11
f 11//11 10//10 12//12
f 13//13 11//11 12//12
f 13//13 12//12 14//14
f 13//13 14//14 15//15
f 15//15 14//14 16//16
f 15//15 16//16 17//17
f 18//18 17//17 16//16
f 19//19 17//17 18//18
f 19//19 18//18 20//20
f 21//21 19//19 20//20
f 22//22 19//19 21//21
f 22//22 21//21 23//23
f 24//24 22//22 23//23
f 24//24 23//23 25//25
f 26//26 24//24 25//25
f 26//26 25//25 27//27
f 28//28 26//26 27//27
f 28//28 27//27 29//29
f 29//29 27//27 30//30
f 31//31 29//29 30//30
f 31//31 30//30 32//32
f 33//33 31//31 32//32
f 33//33 32//32 34//34
f 35//35 33//33 34//34
f 35//35 34//34 36//36
f 37//37 35//35 36//36
f 37//37 36//36 38//38
f 39//39 37//37 38//38
f 39//39 38//38 40//40
f 41//41 39//39 40//40
f 41//41 40//40 42//42
f 41//41 42//42 43//43
f 43//43 42//42 44//44
f 45//45 43//43 44//44
f 45//45 44//44 46//46
f 47//47 45//45 46//46
f 48//48 45//45 47//47
f 48//48 47//47 49//49
f 50//50 48//48 49//49
f 50//50 49//49 51//51
f 52//52 50//50 51//51
f 52//52 51//51 53//53
f 54//54 52//52 53//53
f 55//55 54//54 53//53
f 55//55 53//53 56//56
f 55//55 56//56 57//57
f 57//57 56//56 58//58
f 57//57 58//58 59//59
f 59//59 58//58 60//60
f 59//59 60//60 61//61
f 61//61 60//60 62//62
f 61//61 62//62 63//63
f 63//63 62//62 64//64
f 63//63 64//64 65//65
f 65//65 64//64 66//66
f 65//65 66//66 67//67
f 68//68 67//67 66//66
f 69//69 67//67 68//68
f 69//69 68//68 70//70
f 71//71 69//69 70//70
f 72//72 71//71 73//73
f 74//74 75//75 76//76
f 77//77 74//74 76//76
f 75//75 77//77 76//76
f 78//78 75//75 74//74
f 79//79 75//75 78//78
f 78//78 74//74 80//80
f 81//81 78//78 80//80
f 82//82 78//78 81//81
f 82//82 83//83 78//78
f 83//83 84//84 79//79
f 84//84 85//85 79//79
f 80//80 74//74 86//86
f 87//87 80//80 86//86
f 81//81 80//80 87//87
f 86//86 74//74 88//88
f 88//88 74//74 77//77
f 86//86 88//88 89//89
f 90//90 86//86 89//89
f 87//87 86//86 90//90
f 75//75 91//91 77//77
f 90//90 89//89 92//92
f 90//90 92//92 93//93
f 94//94 90//90 93//93
f 95//95 83//83 82//82
f 95//95 82//82 81//81
f 95//95 81//81 87//87
f 95//95 87//87 90//90
f 95//95 96//96 83//83
f 97//97 91//91 75//75
f 97//97 98//98 91//91
f 97//97 99//99 98//98
f 100//100 95//95 101//101
f 102//102 103//103 104//104
f 102//102 104//104 105//105
f 102//102 105//105 106//106
f 106//106 105//105 107//107
f 108//108 102//102 106//106
f 109//109 102//102 108//108
f 110//110 108//108 106//106
f 111//111 112//112 113//113
f 111//111 113//113 114//114
f 111//111 114//114 115//115
f 111//111 115//115 116//116
f 111//111 116//116 117//117
f 117//117 118//118 111//111
f 118//118 119//119 111//111
f 120//120 111//111 119//119
f 120//120 121//121 111//111
f 121//121 122//122 111//111
f 111//111 122//122 123//123
f 114//114 113//113 124//124
f 124//124 113//113 125//125
f 125//125 113//113 126//126
f 126//126 113//113 127//127
f 127//127 113//113 128//128
f 128//128 113//113 129//129
f 129//129 113//113 130//130
f 130//130 113//113 131//131
f 131//131 113//113 132//132
f 132//132 113//113 133//133
f 133//133 113//113 134//134
f 133//133 134//134 135//135
f 135//135 134//134 136//136
f 134//134 137//137 136//136
f 137//137 134//134 138//138
f 138//138 134//134 139//139
f 139//139 134//134 140//140
f 140//140 134//134 141//141
f 134//134 142//142 141//141
f 134//134 143//143 142//142
f 134//134 144//144 143//143
f 144//144 134//134 145//145
f 145//145 134//134 146//146
f 147//147 134//134 148//148
f 149//149 150//150 151//151
f 149//149 152//152 150//150
f 151//151 150//150 153//153
f 151//151 153//153 154//154
f 154//154 153//153 155//155
f 154//154 155//155 156//156
f 152//152 157//157 150//150
f 158//158 159//159 160//160
f 161//161 159//159 158//158
f 162//162 159//159 161//161
f 163//163 162//162 161//161
f 164//164 162//162 163//163
f 165//165 162//162 164//164
f 9//9 166//166 8//8
f 166//166 9//9 167//167
f 168//168 169//169 170//170
f 168//168 171//171 169//169
f 172//172 169//169 173//173
f 174//174 169//169 172//172
f 169//169 174//174 175//175
f 176//176 169//169 175//175
f 177//177 169//169 176//176
f 178//178 169//169 177//177
f 178//178 179//179 169//169
f 179//179 180//180 169//169
f 180//180 181//181 169//169
f 182//182 181//181 180//180
f 182//182 183//183 181//181
f 183//183 184//184 181//181
f 184//184 185//185 181//181
f 185//185 186//186 181//181
f 186//186 187//187 181//181
f 187//187 188//188 181//181
f 188//188 189//189 181//181
f 181//181 189//189 190//190
f 181//181 190//190 191//191
f 192//192 181//181 191//191
f 193//193 181//181 192//192
f 194//194 181//181 193//193
f 195//195 181//181 194//194
f 195//195 196//196 181//181
f 196//196 197//197 198//198
f 196//196 198//198 199//199
f 199//199 200//200 196//196
f 196//196 200//200 201//201
f 201//201 202//202 196//196
f 196//196 202//202 203//203
f 196//196 203//203 204//204
f 205//205 196//196 206//206
f 207//207 196//196 205//205
