v -18.07433 52.33444 133.2163
v 2.780489 50.61346 133.2163
v -18.07433 52.33444 133.2163
v -18.07433 52.33443 133.2163
v -18.35783 48.89888 134.1499
v -18.47124 47.52465 134.5234
v -18.47124 47.52465 134.5234
v 2.383577 45.80368 134.5234
v 23.23839 44.0827 134.5234
v -18.48363 47.37446 134.3281
v 23.12684 42.73097 132.7656
v -18.48517 47.3558 134.3038
v 23.11298 42.563 132.5472
v -18.48561 47.35056 134.297
v 23.10909 42.51583 132.4858
v -18.49046 47.29167 134.2204
v 23.06535 41.98582 131.7966
v -18.55038 46.5656 133.2762
v 23.05869 41.90515 131.6917
v -18.60719 45.87719 132.381
v -18.61373 45.798 132.2781
v 23.05166 41.81986 131.5808
v -18.62736 45.63282 132.0633
v 23.05014 41.80151 131.5569
v -18.6635 45.19479 131.4936
v 23.04613 41.75284 131.4936
v -18.68011 44.99359 131.4676
v 22.9547 40.64495 131.3503
v 22.8967 39.94205 131.2594
v -18.68423 44.94367 131.4612
v 22.85962 39.49277 131.2013
v -18.68545 44.92881 131.4592
v 22.84859 39.35907 131.184
v -18.69472 44.81653 131.4447
v 22.76519 38.34853 131.0533
v -18.80102 43.52836 131.2781
v 22.75338 38.20539 131.0347
v -18.88884 42.46413 131.1404
v 22.74363 38.08715 131.0195
v -18.97565 41.41222 131.0043
v 22.73398 37.97027 131.0043
v -18.98334 41.31904 131.0765
v 22.66478 37.13166 131.6536
v -19.00056 41.11027 131.2381
v 22.50972 35.25272 133.1083
v -19.04863 40.52783 131.6891
v -19.06785 40.2949 131.8694
v 22.50225 35.16212 133.1785
v -19.13339 39.50066 132.4843
v 22.49496 35.07388 133.2468
v -19.18736 38.84668 132.9907
v 22.48897 35.00121 133.3031
v -19.22482 38.39272 133.3421
v 22.48481 34.95077 133.3421
v 22.48481 34.95077 133.3421
v -19.22721 38.36374 133.5677
v 22.46328 34.68993 135.3723
v -19.22792 38.35521 133.6341
v 22.45695 34.61316 135.9698
v -19.22799 38.35434 133.6409
v 22.4563 34.60532 136.0308
v -19.22802 38.35394 133.644
v 22.456 34.60168 136.0591
v -19.22807 38.35342 133.648
v 22.45562 34.59709 136.0949
v -19.22885 38.34396 133.7217
v 22.44859 34.51189 136.758
v -19.26506 37.90508 137.1376
v 22.44456 34.46313 137.1375
v -19.26506 37.90508 137.1376
v 22.44456 34.46313 137.1375
v -19.26506 37.90508 137.1376
v -19.26506 37.90508 137.1376
v -19.37847 36.53086 137.511
v -19.66197 33.09529 138.4446
v -19.66197 33.09529 138.4446
v -19.66197 33.09529 138.4446
v -19.26506 37.90508 137.1376
v -19.26506 37.90508 137.1376
v -19.26506 37.90508 137.1376
v 22.44456 34.46313 137.1375
v 22.44456 34.46313 137.1375
v 22.44456 34.46313 137.1375
v -19.26506 37.90508 137.1376
v -19.58149 34.07058 130.8538
v -19.26506 37.90508 137.1376
v 22.44456 34.46313 137.1375
v -19.26506 37.90508 137.1376
v 1.589754 36.1841 137.1375
v 22.44456 34.46313 137.1375
v 1.192842 31.37432 138.4446
v 22.44455 34.46313 137.1375
v 22.44456 34.46313 137.1375
v 22.33116 33.08891 137.511
v 22.12813 30.62863 130.8538
v 22.44456 34.46313 137.1375
v -19.58149 34.07058 130.8538
v 22.04765 29.65334 138.4446
v 22.12813 30.62863 130.8538
v 22.48481 34.95077 133.3421
v 22.48481 34.95077 133.3421
v 2.780489 50.61346 133.2163
v -18.07433 52.33444 133.2163
v -18.07433 52.33443 133.2163
v -18.35783 48.89888 134.1499
v 2.383577 45.80368 134.5234
v -18.47124 47.52465 134.5234
v 23.4028 46.07498 133.982
v 23.6353 48.89249 133.2163
v 23.23839 44.0827 134.5234
v -18.07433 52.33444 133.2163
v -18.45886 47.67471 127.1568
v -19.08315 40.10957 126.1782
v -18.6635 45.19479 131.4936
v -18.62736 45.63282 132.0633
v -18.61373 45.798 132.2781
v -18.60719 45.87719 132.381
v -18.55038 46.5656 133.2762
v -18.49046 47.29167 134.2204
v -18.48561 47.35056 134.297
v -18.48517 47.3558 134.3038
v -18.48363 47.37446 134.3281
v -18.47124 47.52465 134.5234
v -18.68011 44.99359 131.4676
v -18.68423 44.94367 131.4612
v -18.68545 44.92881 131.4592
v -18.69472 44.81653 131.4447
v -18.80102 43.52836 131.2781
v -18.88884 42.46413 131.1404
v -18.97565 41.41222 131.0043
v -18.98334 41.31904 131.0765
v -19.00056 41.11027 131.2381
v -19.04863 40.52783 131.6891
v -19.58149 34.07058 130.8538
v -19.06785 40.2949 131.8694
v -19.13339 39.50066 132.4843
v -19.18736 38.84668 132.9907
v -19.22482 38.39272 133.3421
v -19.22721 38.36374 133.5677
v -19.22792 38.35521 133.6341
v -19.22799 38.35434 133.6409
v -19.22802 38.35394 133.644
v -19.22807 38.35342 133.648
v -19.22885 38.34396 133.7217
v -19.26506 37.90508 137.1376
v -19.26506 37.90508 137.1376
v -19.26506 37.90508 137.1376
v -19.66197 33.09529 138.4446
v -18.07433 52.33444 133.2163
v 23.25077 44.23276 127.1568
v -18.45886 47.67471 127.1568
v 2.780489 50.61346 133.2163
v 22.62648 36.66762 126.1782
v -19.08315 40.10957 126.1782
v 22.12813 30.62863 130.8538
v -19.58149 34.07058 130.8538
v 23.6353 48.89249 133.2163
v -19.66197 33.09529 138.4446
v 1.589754 36.1841 137.1375
v -19.26506 37.90508 137.1376
v 1.192842 31.37432 138.4446
v 22.44455 34.46313 137.1375
v 22.04765 29.65334 138.4446
v 22.33116 33.08891 137.511
v 22.44456 34.46313 137.1375
v 23.23839 44.0827 134.5234
v 23.25077 44.23276 127.1568
v 23.4028 46.07498 133.982
v 23.25077 44.23276 127.1568
v 23.6353 48.89249 133.2163
v 23.23839 44.0827 134.5234
v 23.12684 42.73097 132.7656
v 23.23839 44.0827 134.5234
v 23.11298 42.563 132.5472
v 23.10909 42.51583 132.4858
v 23.06535 41.98582 131.7966
v 23.05869 41.90515 131.6917
v 23.05166 41.81986 131.5808
v 23.05014 41.80151 131.5569
v 23.04613 41.75284 131.4936
v 22.62648 36.66762 126.1782
v 22.9547 40.64495 131.3503
v 22.8967 39.94205 131.2594
v 22.85962 39.49277 131.2013
v 22.84859 39.35907 131.184
v 22.76519 38.34853 131.0533
v 22.75338 38.20539 131.0347
v 22.74363 38.08715 131.0195
v 22.73398 37.97027 131.0043
v 22.66478 37.13166 131.6536
v 22.50972 35.25272 133.1083
v 22.50225 35.16212 133.1785
v 22.49496 35.07388 133.2468
v 22.48897 35.00121 133.3031
v 22.48481 34.95077 133.3421
v 22.12813 30.62863 130.8538
v 22.48481 34.95077 133.3421
v 22.46328 34.68993 135.3723
v 22.45695 34.61316 135.9698
v 22.4563 34.60532 136.0308
v 22.456 34.60168 136.0591
v 22.45562 34.59709 136.0949
v 22.44859 34.51189 136.758
v 22.44456 34.46313 137.1375
v 22.33116 33.08891 137.511
v 22.44456 34.46313 137.1375
v 22.04765 29.65334 138.4446

vn 0.07938192 0.9619568 -0.2614149
vn 0.07938207 0.9619568 -0.2614149
vn -0.5883151 0.7838946 -0.1984809
vn -0.9966124 0.08224231 1.788139E-07
vn -0.9966124 0.08224231 1.788139E-07
vn -0.06511196 -0.789029 0.610896
vn -0.2195265 -0.940658 0.2587876
vn 0.00201793 0.02444801 0.9996991
vn -0.06511192 -0.7890318 0.6108923
vn -0.06511201 -0.7890324 0.6108916
vn -0.06511195 -0.7890322 0.6108919
vn -0.06511182 -0.7890316 0.6108927
vn -0.0651117 -0.7890308 0.6108935
vn -0.06511258 -0.7890344 0.610889
vn -0.06511216 -0.7890327 0.6108912
vn -0.06511208 -0.7890323 0.6108916
vn -0.06511211 -0.7890325 0.6108915
vn -0.06511211 -0.7890325 0.6108914
vn -0.06511208 -0.7890323 0.6108916
vn -0.06511208 -0.7890326 0.6108914
vn -0.06511203 -0.7890319 0.6108923
vn -0.06511191 -0.7890308 0.6108935
vn -0.06511213 -0.7890322 0.6108918
vn -0.06511216 -0.7890328 0.6108911
vn -0.05678917 -0.6881751 0.7233189
vn -0.01384237 -0.1677472 0.9857329
vn -0.01051486 -0.1274252 0.9917926
vn -0.01051497 -0.127426 0.9917923
vn -0.01051502 -0.1274263 0.9917924
vn -0.01051534 -0.1274284 0.9917922
vn -0.01051553 -0.1274296 0.9917919
vn -0.01051588 -0.1274313 0.9917917
vn -0.01051539 -0.1274285 0.9917921
vn -0.01051511 -0.1274274 0.9917921
vn -0.01051501 -0.1274268 0.9917924
vn -0.01051494 -0.1274267 0.9917923
vn -0.01051513 -0.1274278 0.9917921
vn -0.01051506 -0.1274272 0.9917923
vn -0.01051492 -0.127426 0.9917924
vn -0.005123517 -0.06209317 0.9980573
vn 0.04583608 0.5554374 0.8302943
vn 0.05024137 0.6088212 0.7917149
vn 0.05024147 0.6088221 0.7917143
vn 0.05024155 0.6088227 0.7917139
vn 0.05024152 0.6088226 0.7917138
vn 0.05024147 0.6088223 0.791714
vn 0.05024131 0.6088219 0.7917144
vn 0.05024141 0.6088222 0.7917142
vn 0.05024137 0.608822 0.7917144
vn 0.05024138 0.6088222 0.7917141
vn 0.05024138 0.6088222 0.7917143
vn 0.05024134 0.6088218 0.7917144
vn 0.06208747 0.7523744 0.6558033
vn 0.05023982 0.6088035 0.7917287
vn 0.08156721 0.9884323 0.1278609
vn 0.08156726 0.9884324 0.1278596
vn 0.08156731 0.9884326 0.1278592
vn 0.08156742 0.9884326 0.1278579
vn 0.08156721 0.9884325 0.12786
vn 0.08156691 0.9884323 0.1278616
vn 0.08156659 0.9884319 0.1278643
vn 0.08156052 0.9884266 0.1279092
vn 0.08156439 0.98843 0.1278811
vn 0.08156803 0.9884333 0.1278528
vn 0.08156761 0.9884329 0.1278569
vn 0.08156723 0.9884324 0.1278597
vn 0.0815672 0.9884323 0.1278603
vn 0.0815672 0.9884323 0.1278606
vn 0.08156722 0.9884318 0.1278656
vn 0.07865318 0.953119 0.2921951
vn 0.07938226 0.9619568 -0.2614149
vn 0.07938226 0.9619568 -0.2614149
vn 0.07938226 0.9619568 -0.2614149
vn -0.9966124 0.08224231 1.788139E-07
vn -0.08156707 -0.9884325 -0.12786
vn -0.9966124 0.08224231 1.788139E-07
vn 0.01100086 0.1333034 0.9910143
vn -0.7062605 0.6872926 -0.1697794
vn -0.7787006 0.609867 -0.1472675
vn 0.008373322 0.965369 -0.2607542
vn 0.07938226 0.9619568 -0.2614149
vn 0.07938226 0.9619568 -0.2614149
vn 0.07938226 0.9619568 -0.2614149
vn -0.02369371 0.9653113 -0.2600244
vn -0.9966124 0.08224231 1.788139E-07
vn 0.06675574 0.9629226 -0.2613884
vn 0.07938226 0.9619568 -0.2614149
vn -0.06235782 0.9639194 -0.2587875
vn 0.07938211 0.9619551 -0.2614213
vn 0.1390773 0.9552817 -0.2609493
vn -0.08156714 -0.9884324 -0.12786
vn 0.07938175 0.9619506 -0.2614377
vn 0.996613 -0.08223563 -1.993754E-06
vn 0.9966124 -0.08224231 -1.788139E-07
vn 0.9966124 -0.08224242 -5.953898E-07
vn 0 0 0
vn -0.08156715 -0.9884325 -0.12786
vn -0.08156719 -0.9884325 -0.12786
vn -0.08156717 -0.9884325 -0.12786
vn 0.9966124 -0.08224242 -5.953898E-07
vn 0.9966124 -0.08224242 -5.953898E-07
vn 0.02149972 0.2605292 0.9652266
vn 0.02149972 0.2605292 0.9652265
vn 0.02149972 0.2605292 0.9652266
vn 0.02149972 0.2605292 0.9652266
vn 0.02149972 0.2605292 0.9652266
vn 0.02149972 0.2605292 0.9652266
vn 0.02149972 0.2605292 0.9652266
vn 0.02149972 0.2605292 0.9652266
vn 0.02149972 0.2605292 0.9652266
vn -0.9966124 0.08224231 1.788139E-07
vn -0.9966124 0.08224231 1.788139E-07
vn -0.9966124 0.08224231 1.788139E-07
vn -0.9966124 0.08224231 1.788139E-07
vn -0.9966124 0.08224231 1.788139E-07
vn -0.9966124 0.08224231 1.788139E-07
vn -0.9966124 0.08224231 1.788139E-07
vn -0.9966124 0.08224231 1.788139E-07
vn -0.9966124 0.08224231 1.788139E-07
vn -0.9966124 0.08224231 1.788139E-07
vn -0.9966124 0.08224231 1.788139E-07
vn -0.9966124 0.08224231 1.788139E-07
vn -0.9966124 0.08224231 1.788139E-07
vn -0.9966124 0.0822423 1.788139E-07
vn -0.9966124 0.08224231 1.788139E-07
vn -0.9966124 0.08224231 1.788139E-07
vn -0.9966124 0.0822423 1.788139E-07
vn -0.9966124 0.08224231 1.788139E-07
vn -0.9966124 0.08224231 1.788139E-07
vn -0.9966124 0.08224231 1.788139E-07
vn -0.9966124 0.0822423 1.788139E-07
vn -0.9966124 0.08224231 1.788139E-07
vn -0.9966124 0.08224231 1.788139E-07
vn -0.9966124 0.08224231 1.788139E-07
vn -0.9966124 0.08224231 1.788139E-07
vn -0.9966124 0.08224231 1.788139E-07
vn -0.9966124 0.08224231 1.788139E-07
vn -0.9966124 0.08224231 1.788139E-07
vn -0.9966124 0.08224231 1.788139E-07
vn -0.9966124 0.08224231 1.788139E-07
vn -0.9966124 0.08224231 1.788139E-07
vn -0.9966124 0.0822423 1.788139E-07
vn -0.9966124 0.08224231 1.788139E-07
vn -0.9966124 0.0822423 1.788139E-07
vn -0.9966124 0.0822423 1.788139E-07
vn -0.9966124 0.08224231 1.788139E-07
vn -0.9966124 0.0822423 1.788139E-07
vn -0.9966124 0.0822423 1.788139E-07
vn 0.06511195 0.7890322 -0.610892
vn 0.05030107 0.6095542 -0.7911471
vn 0.03078778 0.3730921 -0.9272834
vn 0.06511196 0.789032 -0.6108919
vn -0.01044029 -0.1265105 -0.9919104
vn -0.03215505 -0.3896511 -0.9204011
vn -0.05024138 -0.6088223 -0.791714
vn -0.05024138 -0.6088223 -0.7917141
vn 0.06511203 0.7890322 -0.6108918
vn 0.02149972 0.2605292 0.9652266
vn 0.02149972 0.2605292 0.9652266
vn 0.02149972 0.2605292 0.9652266
vn 0.02149972 0.2605292 0.9652266
vn 0.02149972 0.2605292 0.9652266
vn 0.02149972 0.2605292 0.9652266
vn 0.02149973 0.2605292 0.9652266
vn 0.02149973 0.2605292 0.9652265
vn 0.1243834 -0.9586458 0.2559825
vn 0.9966125 -0.0822416 -3.714136E-07
vn 0.9966124 -0.08224236 -3.871018E-07
vn 0.9966124 -0.08224227 -4.335304E-07
vn 0.9966124 -0.08224237 -3.871019E-07
vn 0.9966124 -0.08224237 -3.871019E-07
vn 0.9966124 -0.08224205 -3.806036E-07
vn 0.9966124 -0.08224205 -3.806036E-07
vn 0.9966124 -0.08224205 -3.806038E-07
vn 0.9966124 -0.08224205 -3.806035E-07
vn 0.9966124 -0.08224205 -3.806034E-07
vn 0.9966124 -0.08224204 -3.806038E-07
vn 0.9966124 -0.08224205 -3.806048E-07
vn 0.9966124 -0.08224204 -3.806022E-07
vn 0.9966124 -0.08224227 -5.052865E-07
vn 0.9966124 -0.08224239 -4.733776E-07
vn 0.9966124 -0.08224227 -5.064221E-07
vn 0.9966124 -0.08224227 -5.064224E-07
vn 0.9966124 -0.08224227 -5.064229E-07
vn 0.9966124 -0.08224227 -5.064226E-07
vn 0.9966124 -0.08224227 -5.064226E-07
vn 0.9966124 -0.08224227 -5.064226E-07
vn 0.9966124 -0.08224227 -5.064224E-07
vn 0.9966124 -0.08224249 -4.469495E-07
vn 0.9966124 -0.08224251 -4.403328E-07
vn 0.9966124 -0.08224251 -4.403327E-07
vn 0.9966124 -0.08224251 -4.403326E-07
vn 0.9966124 -0.08224251 -4.40333E-07
vn 0.9966124 -0.08224251 -4.403327E-07
vn 0.9966124 -0.08224251 -4.403327E-07
vn 0.9966124 -0.08224248 -3.751836E-07
vn 0.9966124 -0.08224264 -2.210486E-07
vn 0.9966124 -0.08224264 -2.210485E-07
vn 0.9966124 -0.08224264 -2.210482E-07
vn 0.9966124 -0.08224264 -2.210527E-07
vn 0.9966124 -0.08224264 -2.210478E-07
vn 0.9966124 -0.08224264 -2.210481E-07
vn 0.9966124 -0.08224264 -2.21049E-07
vn 0.9966124 -0.08224263 -2.210496E-07
vn 0.9966124 -0.08224237 -3.871018E-07
vn 0.9966124 -0.08224237 -3.871019E-07
vn 0.9966124 -0.08224236 -3.871018E-07

f 1//1 2//2 3//3
f 4//4 1//1 3//3
f 3//3 5//5 4//4
f 3//3 6//6 5//5
f 5//5 6//6 7//7
f 8//8 7//7 6//6
f 9//9 8//8 6//6
f 10//10 9//9 6//6
f 9//9 10//10 11//11
f 11//11 10//10 12//12
f 13//13 11//11 12//12
f 13//13 12//12 14//14
f 13//13 14//14 15//15
f 15//15 14//14 16//16
f 15//15 16//16 17//17
f 18//18 17//17 16//16
f 19//19 17//17 18//18
f 19//19 18//18 20//20
f 21//21 19//19 20//20
f 22//22 19//19 21//21
f 22//22 21//21 23//23
f 24//24 22//22 23//23
f 24//24 23//23 25//25
f 26//26 24//24 25//25
f 26//26 25//25 27//27
f 28//28 26//26 27//27
f 28//28 27//27 29//29
f 29//29 27//27 30//30
f 31//31 29//29 30//30
f 31//31 30//30 32//32
f 33//33 31//31 32//32
f 33//33 32//32 34//34
f 35//35 33//33 34//34
f 35//35 34//34 36//36
f 37//37 35//35 36//36
f 37//37 36//36 38//38
f 39//39 37//37 38//38
f 39//39 38//38 40//40
f 41//41 39//39 40//40
f 41//41 40//40 42//42
f 41//41 42//42 43//43
f 43//43 42//42 44//44
f 45//45 43//43 44//44
f 45//45 44//44 46//46
f 47//47 45//45 46//46
f 48//48 45//45 47//47
f 48//48 47//47 49//49
f 50//50 48//48 49//49
f 50//50 49//49 51//51
f 52//52 50//50 51//51
f 52//52 51//51 53//53
f 54//54 52//52 53//53
f 55//55 54//54 53//53
f 55//55 53//53 56//56
f 55//55 56//56 57//57
f 57//57 56//56 58//58
f 57//57 58//58 59//59
f 59//59 58//58 60//60
f 59//59 60//60 61//61
f 61//61 60//60 62//62
f 61//61 62//62 63//63
f 63//63 62//62 64//64
f 63//63 64//64 65//65
f 65//65 64//64 66//66
f 65//65 66//66 67//67
f 68//68 67//67 66//66
f 69//69 67//67 68//68
f 69//69 68//68 70//70
f 71//71 69//69 70//70
f 72//72 71//71 73//73
f 74//74 75//75 76//76
f 77//77 74//74 76//76
f 75//75 77//77 76//76
f 78//78 75//75 74//74
f 79//79 75//75 78//78
f 78//78 74//74 80//80
f 81//81 78//78 80//80
f 82//82 78//78 81//81
f 82//82 83//83 78//78
f 83//83 84//84 79//79
f 84//84 85//85 79//79
f 80//80 74//74 86//86
f 87//87 80//80 86//86
f 81//81 80//80 87//87
f 86//86 74//74 88//88
f 88//88 74//74 77//77
f 86//86 88//88 89//89
f 90//90 86//86 89//89
f 87//87 86//86 90//90
f 75//75 91//91 77//77
f 90//90 89//89 92//92
f 90//90 92//92 93//93
f 94//94 90//90 93//93
f 95//95 83//83 82//82
f 95//95 82//82 81//81
f 95//95 81//81 87//87
f 95//95 87//87 90//90
f 95//95 96//96 83//83
f 97//97 91//91 75//75
f 97//97 98//98 91//91
f 97//97 99//99 98//98
f 100//100 95//95 101//101
f 102//102 103//103 104//104
f 102//102 104//104 105//105
f 102//102 105//105 106//106
f 106//106 105//105 107//107
f 108//108 102//102 106//106
f 109//109 102//102 108//108
f 110//110 108//108 106//106
f 111//111 112//112 113//113
f 111//111 113//113 114//114
f 111//111 114//114 115//115
f 111//111 115//115 116//116
f 111//111 116//116 117//117
f 117//117 118//118 111//111
f 118//118 119//119 111//111
f 120//120 111//111 119//119
f 120//120 121//121 111//111
f 121//121 122//122 111//111
f 111//111 122//122 123//123
f 114//114 113//113 124//124
f 124//124 113//113 125//125
f 125//125 113//113 126//126
f 126//126 113//113 127//127
f 127//127 113//113 128//128
f 128//128 113//113 129//129
f 129//129 113//113 130//130
f 130//130 113//113 131//131
f 131//131 113//113 132//132
f 132//132 113//113 133//133
f 133//133 113//113 134//134
f 133//133 134//134 135//135
f 135//135 134//134 136//136
f 134//134 137//137 136//136
f 137//137 134//134 138//138
f 138//138 134//134 139//139
f 139//139 134//134 140//140
f 140//140 134//134 141//141
f 134//134 142//142 141//141
f 134//134 143//143 142//142
f 134//134 144//144 143//143
f 144//144 134//134 145//145
f 145//145 134//134 146//146
f 147//147 134//134 148//148
f 149//149 150//150 151//151
f 149//149 152//152 150//150
f 151//151 150//150 153//153
f 151//151 153//153 154//154
f 154//154 153//153 155//155
f 154//154 155//155 156//156
f 152//152 157//157 150//150
f 158//158 159//159 160//160
f 161//161 159//159 158//158
f 162//162 159//159 161//161
f 163//163 162//162 161//161
f 164//164 162//162 163//163
f 165//165 162//162 164//164
f 9//9 166//166 8//8
f 166//166 9//9 167//167
f 168//168 169//169 170//170
f 168//168 171//171 169//169
f 172//172 169//169 173//173
f 174//174 169//169 172//172
f 169//169 174//174 175//175
f 176//176 169//169 175//175
f 177//177 169//169 176//176
f 178//178 169//169 177//177
f 178//178 179//179 169//169
f 179//179 180//180 169//169
f 180//180 181//181 169//169
f 182//182 181//181 180//180
f 182//182 183//183 181//181
f 183//183 184//184 181//181
f 184//184 185//185 181//181
f 185//185 186//186 181//181
f 186//186 187//187 181//181
f 187//187 188//188 181//181
f 188//188 189//189 181//181
f 181//181 189//189 190//190
f 181//181 190//190 191//191
f 192//192 181//181 191//191
f 193//193 181//181 192//192
f 194//194 181//181 193//193
f 195//195 181//181 194//194
f 195//195 196//196 181//181
f 196//196 197//197 198//198
f 196//196 198//198 199//199
f 199//199 200//200 196//196
f 196//196 200//200 201//201
f 201//201 202//202 196//196
f 196//196 202//202 203//203
f 196//196 203//203 204//204
f 205//205 196//196 206//206
f 207//207 196//196 205//205
