v 118.7134 44.26556 66.68298
v 122.5843 27.86816 66.68298
v 118.7134 44.26556 66.68298
v 118.7134 44.26556 66.68298
v 116.8277 43.8204 69.68317
v 116.0735 43.64235 70.88324
v 116.0735 43.64235 70.88324
v 119.9444 27.24495 70.88325
v 123.8153 10.84756 70.88325
v 115.8373 43.58659 70.83891
v 121.6896 10.34576 70.48419
v 115.8079 43.57966 70.83339
v 121.4255 10.2834 70.4346
v 115.7997 43.57772 70.83185
v 121.3513 10.2659 70.42068
v 115.7071 43.55585 70.81446
v 120.5178 10.06914 70.26421
v 114.5653 43.28632 70.60011
v 120.391 10.03919 70.24039
v 113.4828 43.03076 70.39688
v 113.3582 43.00137 70.3735
v 120.2569 10.00753 70.21522
v 113.0985 42.94005 70.32474
v 120.228 10.00072 70.20979
v 112.4097 42.77744 70.19542
v 120.1515 9.982651 70.19543
v 112.2467 42.73896 70.31114
v 119.254 9.770792 70.83263
v 118.6846 9.636381 71.23691
v 112.2062 42.72942 70.33985
v 118.3207 9.550467 71.49531
v 112.1942 42.72658 70.3484
v 118.2124 9.524899 71.57221
v 112.1032 42.7051 70.41298
v 117.3938 9.331657 72.15343
v 111.0598 42.45877 71.15387
v 117.2779 9.304287 72.23575
v 110.1977 42.25526 71.76597
v 117.1821 9.281675 72.30376
v 109.3456 42.05411 72.37098
v 117.0874 9.259325 72.37098
v 109.3249 42.04923 72.48714
v 116.9015 9.215435 73.4165
v 109.2787 42.03831 72.74743
v 116.4849 9.1171 75.75905
v 109.1495 42.00783 73.47358
v 109.0979 41.99564 73.76398
v 116.4648 9.112358 75.872
v 108.9218 41.95407 74.75419
v 116.4453 9.107738 75.98202
v 108.7768 41.91984 75.56953
v 116.4292 9.103937 76.07262
v 108.6762 41.89608 76.13549
v 116.418 9.101297 76.1355
v 116.418 9.101297 76.1355
v 108.802 41.92579 76.3226
v 117.5505 9.36866 77.8195
v 108.8391 41.93454 76.37768
v 117.8839 9.447357 78.31518
v 108.8428 41.93542 76.3833
v 117.9179 9.455391 78.36578
v 108.8446 41.93584 76.38591
v 117.9337 9.459116 78.38924
v 108.8468 41.93636 76.38921
v 117.9537 9.463823 78.4189
v 108.8879 41.94607 76.45032
v 118.3236 9.551153 78.96895
v 110.7935 42.39592 79.28377
v 118.5353 9.601137 79.28378
v 110.7935 42.39592 79.28377
v 118.5353 9.601137 79.28378
v 110.7935 42.39592 79.28377
v 110.7935 42.39592 79.28377
v 110.0393 42.21786 80.48385
v 108.1536 41.77271 83.48403
v 108.1536 41.77271 83.48403
v 108.1536 41.77271 83.48403
v 110.7935 42.39592 79.28377
v 110.7935 42.39592 79.28377
v 110.7935 42.39592 79.28377
v 118.5353 9.601137 79.28378
v 118.5353 9.601137 79.28378
v 118.5353 9.601137 79.28378
v 110.7935 42.39592 79.28377
v 103.9189 40.77303 77.18748
v 110.7935 42.39592 79.28377
v 118.5353 9.601137 79.28378
v 110.7935 42.39592 79.28377
v 114.6644 25.99853 79.28378
v 118.5353 9.601137 79.28378
v 112.0245 25.37532 83.48404
v 118.5353 9.601154 79.28378
v 118.5353 9.601137 79.28378
v 117.7811 9.423079 80.48385
v 111.6607 7.978249 77.18748
v 118.5353 9.601137 79.28378
v 103.9189 40.77303 77.18748
v 115.8954 8.977928 83.48404
v 111.6607 7.978249 77.18748
v 116.418 9.101297 76.1355
v 116.418 9.101297 76.1355
v 122.5843 27.86816 66.68298
v 118.7134 44.26556 66.68298
v 118.7134 44.26556 66.68298
v 116.8277 43.8204 69.68317
v 119.9444 27.24495 70.88325
v 116.0735 43.64235 70.88324
v 124.9088 11.1057 69.14344
v 126.4552 11.47077 66.68298
v 123.8153 10.84756 70.88325
v 118.7134 44.26556 66.68298
v 111.3858 42.53574 65.30733
v 105.2577 41.08909 69.65845
v 112.4097 42.77744 70.19542
v 113.0985 42.94005 70.32474
v 113.3582 43.00137 70.3735
v 113.4828 43.03076 70.39688
v 114.5653 43.28632 70.60011
v 115.7071 43.55585 70.81446
v 115.7997 43.57772 70.83185
v 115.8079 43.57966 70.83339
v 115.8373 43.58659 70.83891
v 116.0735 43.64235 70.88324
v 112.2467 42.73896 70.31114
v 112.2062 42.72942 70.33985
v 112.1942 42.72658 70.3484
v 112.1032 42.7051 70.41298
v 111.0598 42.45877 71.15387
v 110.1977 42.25526 71.76597
v 109.3456 42.05411 72.37098
v 109.3249 42.04923 72.48714
v 109.2787 42.03831 72.74743
v 109.1495 42.00783 73.47358
v 103.9189 40.77303 77.18748
v 109.0979 41.99564 73.76398
v 108.9218 41.95407 74.75419
v 108.7768 41.91984 75.56953
v 108.6762 41.89608 76.13549
v 108.802 41.92579 76.3226
v 108.8391 41.93454 76.37768
v 108.8428 41.93542 76.3833
v 108.8446 41.93584 76.38591
v 108.8468 41.93636 76.38921
v 108.8879 41.94607 76.45032
v 110.7935 42.39592 79.28377
v 110.7935 42.39592 79.28377
v 110.7935 42.39592 79.28377
v 108.1536 41.77271 83.48403
v 118.7134 44.26556 66.68298
v 119.1276 9.740955 65.30734
v 111.3858 42.53574 65.30733
v 122.5843 27.86816 66.68298
v 112.9995 8.294304 69.65845
v 105.2577 41.08909 69.65845
v 111.6607 7.978249 77.18748
v 103.9189 40.77303 77.18748
v 126.4552 11.47077 66.68298
v 108.1536 41.77271 83.48403
v 114.6644 25.99853 79.28378
v 110.7935 42.39592 79.28377
v 112.0245 25.37532 83.48404
v 118.5353 9.601154 79.28378
v 115.8954 8.977928 83.48404
v 117.7811 9.423079 80.48385
v 118.5353 9.601137 79.28378
v 123.8153 10.84756 70.88325
v 119.1276 9.740955 65.30734
v 124.9088 11.1057 69.14344
v 119.1276 9.740955 65.30734
v 126.4552 11.47077 66.68298
v 123.8153 10.84756 70.88325
v 121.6896 10.34576 70.48419
v 123.8153 10.84756 70.88325
v 121.4255 10.2834 70.4346
v 121.3513 10.2659 70.42068
v 120.5178 10.06914 70.26421
v 120.391 10.03919 70.24039
v 120.2569 10.00753 70.21522
v 120.228 10.00072 70.20979
v 120.1515 9.982651 70.19543
v 112.9995 8.294304 69.65845
v 119.254 9.770792 70.83263
v 118.6846 9.636381 71.23691
v 118.3207 9.550467 71.49531
v 118.2124 9.524899 71.57221
v 117.3938 9.331657 72.15343
v 117.2779 9.304287 72.23575
v 117.1821 9.281675 72.30376
v 117.0874 9.259325 72.37098
v 116.9015 9.215435 73.4165
v 116.4849 9.1171 75.75905
v 116.4648 9.112358 75.872
v 116.4453 9.107738 75.98202
v 116.4292 9.103937 76.07262
v 116.418 9.101297 76.1355
v 111.6607 7.978249 77.18748
v 116.418 9.101297 76.1355
v 117.5505 9.36866 77.8195
v 117.8839 9.447357 78.31518
v 117.9179 9.455391 78.36578
v 117.9337 9.459116 78.38924
v 117.9537 9.463823 78.4189
v 118.3236 9.551153 78.96895
v 118.5353 9.601137 79.28378
v 117.7811 9.423079 80.48385
v 118.5353 9.601137 79.28378
v 115.8954 8.977928 83.48404

vn 0.527993 0.1246426 -0.8400521
vn 0.5279931 0.1246424 -0.8400521
vn 0.251361 0.7280173 -0.6378154
vn -0.229753 0.973249 -3.427267E-07
vn -0.229753 0.973249 -3.427267E-07
vn -0.1749231 -0.04129349 0.9837158
vn -0.5551785 0.01424845 0.8316092
vn 0.6686735 0.1578525 0.7266073
vn -0.1749275 -0.04129481 0.9837149
vn -0.1749283 -0.04129497 0.9837148
vn -0.1749279 -0.04129492 0.9837148
vn -0.174927 -0.04129478 0.9837151
vn -0.1749259 -0.04129459 0.9837152
vn -0.1749316 -0.04129532 0.9837142
vn -0.1749289 -0.04129498 0.9837147
vn -0.1749284 -0.0412949 0.9837148
vn -0.1749285 -0.04129492 0.9837148
vn -0.1749286 -0.04129494 0.9837147
vn -0.1749283 -0.04129489 0.9837148
vn -0.1749286 -0.04129498 0.9837148
vn -0.1749275 -0.04129471 0.9837149
vn -0.174926 -0.0412944 0.9837152
vn -0.1749281 -0.04129478 0.9837148
vn -0.174929 -0.041295 0.9837147
vn -0.02852003 -0.006732523 0.9995706
vn 0.5200808 0.1227745 0.8452469
vn 0.5532929 0.1306148 0.8226827
vn 0.5532922 0.1306147 0.822683
vn 0.5532919 0.1306146 0.8226833
vn 0.5532902 0.1306144 0.8226845
vn 0.5532891 0.1306142 0.8226852
vn 0.5532877 0.1306141 0.8226861
vn 0.5532901 0.1306144 0.8226846
vn 0.553291 0.1306144 0.8226838
vn 0.5532916 0.1306145 0.8226836
vn 0.5532916 0.1306144 0.8226835
vn 0.5532907 0.1306143 0.8226841
vn 0.5532913 0.1306144 0.8226838
vn 0.5532922 0.1306146 0.8226831
vn 0.6047912 0.1427719 0.7834818
vn 0.9437722 0.2227944 0.2442476
vn 0.9573992 0.2260114 0.1797374
vn 0.9573995 0.2260114 0.1797363
vn 0.9573996 0.2260114 0.1797356
vn 0.9573995 0.2260114 0.1797356
vn 0.9573994 0.2260114 0.179736
vn 0.9573993 0.2260115 0.1797366
vn 0.9573995 0.2260115 0.1797362
vn 0.9573994 0.2260115 0.1797365
vn 0.9573994 0.2260115 0.1797362
vn 0.9573995 0.2260115 0.1797362
vn 0.9573993 0.2260115 0.1797366
vn 0.9730974 0.2297173 -0.01764452
vn 0.9573953 0.2260105 0.1797595
vn 0.8006766 0.1890141 -0.5684986
vn 0.8006758 0.1890139 -0.5684996
vn 0.8006757 0.1890138 -0.5685001
vn 0.8006749 0.1890136 -0.568501
vn 0.8006761 0.189014 -0.5684993
vn 0.800677 0.1890146 -0.5684981
vn 0.8006783 0.1890152 -0.5684958
vn 0.8007021 0.1890265 -0.5684586
vn 0.8006873 0.1890194 -0.5684819
vn 0.8006722 0.1890124 -0.5685053
vn 0.8006744 0.1890133 -0.568502
vn 0.8006759 0.189014 -0.5684996
vn 0.8006762 0.1890141 -0.5684991
vn 0.8006764 0.1890141 -0.5684988
vn 0.8006792 0.1890147 -0.5684947
vn 0.8820475 0.2082232 -0.4226527
vn 0.5279931 0.1246422 -0.8400521
vn 0.5279931 0.1246422 -0.8400521
vn 0.5279931 0.1246422 -0.8400521
vn -0.229753 0.973249 -3.427267E-07
vn -0.800676 -0.1890142 0.5684994
vn -0.229753 0.973249 -3.427267E-07
vn 0.7420279 0.1751692 0.6470783
vn 0.16821 0.8210016 -0.5455837
vn 0.1076176 0.8743342 -0.4732423
vn 0.510335 0.1934756 -0.8379292
vn 0.5279931 0.1246422 -0.8400521
vn 0.5279931 0.1246422 -0.8400521
vn 0.5279931 0.1246422 -0.8400521
vn 0.5015196 0.2242265 -0.835584
vn -0.229753 0.973249 -3.427267E-07
vn 0.5250461 0.1369578 -0.8399817
vn 0.5279931 0.1246422 -0.8400521
vn 0.4901945 0.2610277 -0.8316092
vn 0.5279877 0.1246409 -0.8400557
vn 0.5408302 0.06598054 -0.83854
vn -0.800676 -0.1890141 0.5684993
vn 0.5279738 0.1246377 -0.8400649
vn 0.2297567 -0.9732481 -5.48955E-06
vn 0.229753 -0.973249 3.427267E-07
vn 0.2297527 -0.973249 1.085902E-07
vn 0 0 0
vn -0.8006761 -0.1890141 0.5684993
vn -0.8006761 -0.1890141 0.5684993
vn -0.8006761 -0.1890141 0.5684994
vn 0.2297527 -0.973249 1.085902E-07
vn 0.2297527 -0.973249 1.085902E-07
vn 0.8175799 0.1930046 0.5425056
vn 0.8175798 0.1930045 0.5425056
vn 0.8175799 0.1930046 0.5425056
vn 0.8175799 0.1930046 0.5425056
vn 0.8175799 0.1930046 0.5425056
vn 0.8175799 0.1930046 0.5425056
vn 0.8175799 0.1930046 0.5425056
vn 0.8175799 0.1930046 0.5425056
vn 0.8175799 0.1930046 0.5425056
vn -0.229753 0.973249 -3.427267E-07
vn -0.229753 0.973249 -3.427267E-07
vn -0.229753 0.973249 -3.427267E-07
vn -0.229753 0.973249 -3.427267E-07
vn -0.229753 0.973249 -3.427267E-07
vn -0.229753 0.973249 -3.427267E-07
vn -0.229753 0.973249 -3.427267E-07
vn -0.229753 0.973249 -3.427267E-07
vn -0.229753 0.973249 -3.427267E-07
vn -0.229753 0.973249 -3.427267E-07
vn -0.229753 0.973249 -3.427267E-07
vn -0.229753 0.973249 -3.427267E-07
vn -0.229753 0.973249 -3.427267E-07
vn -0.229753 0.9732489 -3.427267E-07
vn -0.229753 0.973249 -3.427267E-07
vn -0.229753 0.973249 -3.427267E-07
vn -0.229753 0.9732489 -3.427267E-07
vn -0.229753 0.973249 -3.427267E-07
vn -0.229753 0.973249 -3.427267E-07
vn -0.229753 0.973249 -3.427267E-07
vn -0.229753 0.9732489 -3.427267E-07
vn -0.229753 0.973249 -3.427267E-07
vn -0.229753 0.973249 -3.427267E-07
vn -0.229753 0.973249 -3.427267E-07
vn -0.229753 0.973249 -3.427267E-07
vn -0.229753 0.973249 -3.427267E-07
vn -0.229753 0.973249 -3.427267E-07
vn -0.229753 0.973249 -3.427267E-07
vn -0.229753 0.973249 -3.427267E-07
vn -0.229753 0.973249 -3.427267E-07
vn -0.229753 0.973249 -3.427267E-07
vn -0.229753 0.9732489 -3.427267E-07
vn -0.229753 0.973249 -3.427267E-07
vn -0.229753 0.9732489 -3.427267E-07
vn -0.229753 0.9732489 -3.427267E-07
vn -0.229753 0.973249 -3.427267E-07
vn -0.229753 0.9732489 -3.427267E-07
vn -0.229753 0.9732489 -3.427267E-07
vn 0.1749279 0.04129492 -0.9837149
vn -0.07270923 -0.01716434 -0.9972054
vn -0.3329797 -0.07860592 -0.9396518
vn 0.1749279 0.04129489 -0.9837148
vn -0.737681 -0.174143 -0.6523043
vn -0.882112 -0.2082386 -0.4225104
vn -0.9573994 -0.2260115 -0.179736
vn -0.9573995 -0.2260115 -0.179736
vn 0.174928 0.04129485 -0.9837148
vn 0.8175799 0.1930046 0.5425056
vn 0.8175799 0.1930046 0.5425056
vn 0.8175799 0.1930046 0.5425056
vn 0.8175799 0.1930046 0.5425056
vn 0.8175799 0.1930046 0.5425056
vn 0.8175799 0.1930046 0.5425056
vn 0.8175799 0.1930046 0.5425056
vn 0.8175798 0.1930045 0.5425056
vn -0.4704265 -0.3194299 0.8225955
vn 0.2297534 -0.9732488 -2.761891E-07
vn 0.2297528 -0.9732489 2.256585E-07
vn 0.2297529 -0.973249 1.222119E-07
vn 0.2297528 -0.973249 2.256585E-07
vn 0.2297528 -0.973249 2.256585E-07
vn 0.2297531 -0.973249 1.778634E-08
vn 0.2297531 -0.973249 1.778627E-08
vn 0.2297531 -0.973249 1.778661E-08
vn 0.2297531 -0.973249 1.778625E-08
vn 0.2297531 -0.973249 1.778623E-08
vn 0.2297531 -0.9732489 1.778635E-08
vn 0.2297531 -0.973249 1.778695E-08
vn 0.2297531 -0.9732489 1.778571E-08
vn 0.2297528 -0.973249 7.049781E-08
vn 0.2297528 -0.973249 1.771672E-07
vn 0.2297528 -0.973249 7.097859E-08
vn 0.2297528 -0.973249 7.097807E-08
vn 0.2297528 -0.973249 7.097731E-08
vn 0.2297528 -0.973249 7.097778E-08
vn 0.2297528 -0.973249 7.097781E-08
vn 0.2297528 -0.973249 7.097792E-08
vn 0.2297528 -0.973249 7.097843E-08
vn 0.2297527 -0.973249 2.620934E-07
vn 0.2297527 -0.973249 2.833563E-07
vn 0.2297527 -0.973249 2.833565E-07
vn 0.2297527 -0.973249 2.833561E-07
vn 0.2297527 -0.973249 2.83357E-07
vn 0.2297527 -0.973249 2.833566E-07
vn 0.2297527 -0.973249 2.833563E-07
vn 0.2297528 -0.973249 3.097086E-07
vn 0.2297527 -0.973249 5.305134E-07
vn 0.2297527 -0.973249 5.305135E-07
vn 0.2297527 -0.973249 5.305139E-07
vn 0.2297527 -0.973249 5.305067E-07
vn 0.2297527 -0.973249 5.305147E-07
vn 0.2297527 -0.973249 5.305141E-07
vn 0.2297527 -0.973249 5.305126E-07
vn 0.2297527 -0.973249 5.305114E-07
vn 0.2297528 -0.973249 2.256585E-07
vn 0.2297528 -0.973249 2.256585E-07
vn 0.2297528 -0.9732489 2.256585E-07

f 1//1 2//2 3//3
f 4//4 1//1 3//3
f 3//3 5//5 4//4
f 3//3 6//6 5//5
f 5//5 6//6 7//7
f 8//8 7//7 6//6
f 9//9 8//8 6//6
f 10//10 9//9 6//6
f 9//9 10//10 11//11
f 11//11 10//10 12//12
f 13//13 11//11 12//12
f 13//13 12//12 14//14
f 13//13 14//14 15//15
f 15//15 14//14 16//16
f 15//15 16//16 17//17
f 18//18 17//17 16//16
f 19//19 17//17 18//18
f 19//19 18//18 20//20
f 21//21 19//19 20//20
f 22//22 19//19 21//21
f 22//22 21//21 23//23
f 24//24 22//22 23//23
f 24//24 23//23 25//25
f 26//26 24//24 25//25
f 26//26 25//25 27//27
f 28//28 26//26 27//27
f 28//28 27//27 29//29
f 29//29 27//27 30//30
f 31//31 29//29 30//30
f 31//31 30//30 32//32
f 33//33 31//31 32//32
f 33//33 32//32 34//34
f 35//35 33//33 34//34
f 35//35 34//34 36//36
f 37//37 35//35 36//36
f 37//37 36//36 38//38
f 39//39 37//37 38//38
f 39//39 38//38 40//40
f 41//41 39//39 40//40
f 41//41 40//40 42//42
f 41//41 42//42 43//43
f 43//43 42//42 44//44
f 45//45 43//43 44//44
f 45//45 44//44 46//46
f 47//47 45//45 46//46
f 48//48 45//45 47//47
f 48//48 47//47 49//49
f 50//50 48//48 49//49
f 50//50 49//49 51//51
f 52//52 50//50 51//51
f 52//52 51//51 53//53
f 54//54 52//52 53//53
f 55//55 54//54 53//53
f 55//55 53//53 56//56
f 55//55 56//56 57//57
f 57//57 56//56 58//58
f 57//57 58//58 59//59
f 59//59 58//58 60//60
f 59//59 60//60 61//61
f 61//61 60//60 62//62
f 61//61 62//62 63//63
f 63//63 62//62 64//64
f 63//63 64//64 65//65
f 65//65 64//64 66//66
f 65//65 66//66 67//67
f 68//68 67//67 66//66
f 69//69 67//67 68//68
f 69//69 68//68 70//70
f 71//71 69//69 70//70
f 72//72 71//71 73//73
f 74//74 75//75 76//76
f 77//77 74//74 76//76
f 75//75 77//77 76//76
f 78//78 75//75 74//74
f 79//79 75//75 78//78
f 78//78 74//74 80//80
f 81//81 78//78 80//80
f 82//82 78//78 81//81
f 82//82 83//83 78//78
f 83//83 84//84 79//79
f 84//84 85//85 79//79
f 80//80 74//74 86//86
f 87//87 80//80 86//86
f 81//81 80//80 87//87
f 86//86 74//74 88//88
f 88//88 74//74 77//77
f 86//86 88//88 89//89
f 90//90 86//86 89//89
f 87//87 86//86 90//90
f 75//75 91//91 77//77
f 90//90 89//89 92//92
f 90//90 92//92 93//93
f 94//94 90//90 93//93
f 95//95 83//83 82//82
f 95//95 82//82 81//81
f 95//95 81//81 87//87
f 95//95 87//87 90//90
f 95//95 96//96 83//83
f 97//97 91//91 75//75
f 97//97 98//98 91//91
f 97//97 99//99 98//98
f 100//100 95//95 101//101
f 102//102 103//103 104//104
f 102//102 104//104 105//105
f 102//102 105//105 106//106
f 106//106 105//105 107//107
f 108//108 102//102 106//106
f 109//109 102//102 108//108
f 110//110 108//108 106//106
f 111//111 112//112 113//113
f 111//111 113//113 114//114
f 111//111 114//114 115//115
f 111//111 115//115 116//116
f 111//111 116//116 117//117
f 117//117 118//118 111//111
f 118//118 119//119 111//111
f 120//120 111//111 119//119
f 120//120 121//121 111//111
f 121//121 122//122 111//111
f 111//111 122//122 123//123
f 114//114 113//113 124//124
f 124//124 113//113 125//125
f 125//125 113//113 126//126
f 126//126 113//113 127//127
f 127//127 113//113 128//128
f 128//128 113//113 129//129
f 129//129 113//113 130//130
f 130//130 113//113 131//131
f 131//131 113//113 132//132
f 132//132 113//113 133//133
f 133//133 113//113 134//134
f 133//133 134//134 135//135
f 135//135 134//134 136//136
f 134//134 137//137 136//136
f 137//137 134//134 138//138
f 138//138 134//134 139//139
f 139//139 134//134 140//140
f 140//140 134//134 141//141
f 134//134 142//142 141//141
f 134//134 143//143 142//142
f 134//134 144//144 143//143
f 144//144 134//134 145//145
f 145//145 134//134 146//146
f 147//147 134//134 148//148
f 149//149 150//150 151//151
f 149//149 152//152 150//150
f 151//151 150//150 153//153
f 151//151 153//153 154//154
f 154//154 153//153 155//155
f 154//154 155//155 156//156
f 152//152 157//157 150//150
f 158//158 159//159 160//160
f 161//161 159//159 158//158
f 162//162 159//159 161//161
f 163//163 162//162 161//161
f 164//164 162//162 163//163
f 165//165 162//162 164//164
f 9//9 166//166 8//8
f 166//166 9//9 167//167
f 168//168 169//169 170//170
f 168//168 171//171 169//169
f 172//172 169//169 173//173
f 174//174 169//169 172//172
f 169//169 174//174 175//175
f 176//176 169//169 175//175
f 177//177 169//169 176//176
f 178//178 169//169 177//177
f 178//178 179//179 169//169
f 179//179 180//180 169//169
f 180//180 181//181 169//169
f 182//182 181//181 180//180
f 182//182 183//183 181//181
f 183//183 184//184 181//181
f 184//184 185//185 181//181
f 185//185 186//186 181//181
f 186//186 187//187 181//181
f 187//187 188//188 181//181
f 188//188 189//189 181//181
f 181//181 189//189 190//190
f 181//181 190//190 191//191
f 192//192 181//181 191//191
f 193//193 181//181 192//192
f 194//194 181//181 193//193
f 195//195 181//181 194//194
f 195//195 196//196 181//181
f 196//196 197//197 198//198
f 196//196 198//198 199//199
f 199//199 200//200 196//196
f 196//196 200//200 201//201
f 201//201 202//202 196//196
f 196//196 202//202 203//203
f 196//196 203//203 204//204
f 205//205 196//196 206//206
f 207//207 196//196 205//205
