v 140.0639 -12.29611 -27.75675
v 132.8875 -20.6344 -45.55723
v 140.0639 -12.29611 -27.75675
v 140.0639 -12.29611 -27.75676
v 139.7732 -9.029074 -29.16992
v 139.6569 -7.722257 -29.73518
v 139.6569 -7.722257 -29.73518
v 132.4804 -16.06055 -47.53566
v 125.3039 -24.39883 -65.33614
v 139.8625 -7.651042 -29.85143
v 127.1544 -23.7579 -66.38239
v 139.888 -7.642194 -29.86588
v 127.3843 -23.67826 -66.51239
v 139.8952 -7.639709 -29.86993
v 127.4489 -23.6559 -66.5489
v 139.9758 -7.611786 -29.91552
v 128.1744 -23.40459 -66.95913
v 140.9697 -7.267517 -30.4775
v 128.2849 -23.36634 -67.02157
v 141.9121 -6.941105 -31.01033
v 142.0205 -6.903555 -31.07162
v 128.4016 -23.3259 -67.08759
v 142.2466 -6.825236 -31.19947
v 128.4267 -23.31719 -67.10179
v 142.8463 -6.617541 -31.53851
v 128.4933 -23.29412 -67.13946
v 142.9039 -6.450686 -31.63989
v 128.8105 -22.37534 -67.69769
v 129.0116 -21.79243 -68.05185
v 142.9182 -6.409286 -31.66504
v 129.1402 -21.41984 -68.27823
v 142.9224 -6.396966 -31.67253
v 129.1785 -21.30896 -68.3456
v 142.9545 -6.303852 -31.7291
v 129.4677 -20.47091 -68.85477
v 143.3232 -5.235566 -32.37817
v 129.5087 -20.35221 -68.92689
v 143.6278 -4.352993 -32.91439
v 129.5426 -20.25415 -68.98647
v 143.9289 -3.480646 -33.44441
v 129.576 -20.15722 -69.04536
v 143.8777 -3.37784 -33.47194
v 129.1154 -19.23196 -69.2931
v 143.7631 -3.147494 -33.53361
v 128.0835 -17.15886 -69.84818
v 143.4432 -2.504868 -33.70568
v 143.3153 -2.247869 -33.77449
v 128.0338 -17.0589 -69.87495
v 142.8791 -1.37155 -34.00912
v 127.9853 -16.96153 -69.90102
v 142.5199 -0.6499949 -34.20232
v 127.9454 -16.88136 -69.92249
v 142.2706 -0.149127 -34.33643
v 127.9177 -16.8257 -69.93738
v 127.9177 -16.8257 -69.93738
v 142.0669 -0.05554485 -34.29813
v 126.0842 -15.98346 -69.5927
v 142.0069 -0.02799988 -34.28686
v 125.5445 -15.73556 -69.49124
v 142.0008 -0.02518749 -34.28571
v 125.4894 -15.71025 -69.48089
v 141.998 -0.02388382 -34.28518
v 125.4638 -15.69851 -69.47609
v 141.9944 -0.02223492 -34.2845
v 125.4315 -15.68368 -69.47002
v 141.9278 0.008331299 -34.272
v 124.8326 -15.40858 -69.35743
v 138.8428 1.425456 -33.69204
v 124.4899 -15.25112 -69.29299
v 138.8428 1.425458 -33.69204
v 124.4899 -15.25112 -69.29299
v 138.8428 1.425458 -33.69204
v 138.8428 1.425458 -33.69204
v 138.7265 2.732275 -34.25731
v 138.4357 5.999314 -35.67047
v 138.4357 5.999314 -35.67047
v 138.4357 5.999312 -35.67047
v 138.8428 1.425458 -33.69204
v 138.8428 1.425458 -33.69204
v 138.8428 1.425458 -33.69204
v 124.4899 -15.25112 -69.29299
v 124.4899 -15.25112 -69.29299
v 124.4899 -15.25112 -69.29299
v 138.8428 1.425458 -33.69204
v 145.2914 2.850145 -36.95925
v 138.8428 1.425458 -33.69204
v 124.4899 -15.25112 -69.29299
v 138.8428 1.425458 -33.69204
v 131.6663 -6.912831 -51.49252
v 124.4899 -15.25112 -69.29299
v 131.2593 -2.338976 -53.47095
v 124.4899 -15.25111 -69.29298
v 124.4899 -15.25112 -69.29299
v 124.3736 -13.9443 -69.85825
v 130.9385 -13.82643 -72.5602
v 124.4899 -15.25112 -69.29299
v 145.2914 2.850145 -36.95925
v 124.0828 -10.67726 -71.27142
v 130.9385 -13.82643 -72.5602
v 127.9177 -16.8257 -69.93738
v 127.9177 -16.8257 -69.93738
v 132.8875 -20.6344 -45.55723
v 140.0639 -12.29611 -27.75675
v 140.0639 -12.29611 -27.75676
v 139.7732 -9.029074 -29.16992
v 132.4804 -16.06055 -47.53566
v 139.6569 -7.722257 -29.73518
v 125.4725 -26.29339 -64.51664
v 125.711 -28.97269 -63.3577
v 125.3039 -24.39883 -65.33614
v 140.0639 -12.29611 -27.75675
v 146.4427 -10.08668 -31.36341
v 148.608 -3.812892 -35.17521
v 142.8463 -6.617541 -31.53851
v 142.2466 -6.825236 -31.19947
v 142.0205 -6.903555 -31.07162
v 141.9121 -6.941105 -31.01033
v 140.9697 -7.267517 -30.4775
v 139.9758 -7.611786 -29.91552
v 139.8952 -7.639709 -29.86993
v 139.888 -7.642194 -29.86588
v 139.8625 -7.651042 -29.85143
v 139.6569 -7.722257 -29.73518
v 142.9039 -6.450686 -31.63989
v 142.9182 -6.409286 -31.66504
v 142.9224 -6.396966 -31.67253
v 142.9545 -6.303852 -31.7291
v 143.3232 -5.235566 -32.37817
v 143.6278 -4.352993 -32.91439
v 143.9289 -3.480646 -33.44441
v 143.8777 -3.37784 -33.47194
v 143.7631 -3.147494 -33.53361
v 143.4432 -2.504868 -33.70568
v 145.2914 2.850145 -36.95925
v 143.3153 -2.247869 -33.77449
v 142.8791 -1.37155 -34.00912
v 142.5199 -0.6499949 -34.20232
v 142.2706 -0.149127 -34.33643
v 142.0669 -0.05554485 -34.29813
v 142.0069 -0.02799988 -34.28686
v 142.0008 -0.02518749 -34.28571
v 141.998 -0.02388382 -34.28518
v 141.9944 -0.02223492 -34.2845
v 141.9278 0.008331299 -34.272
v 138.8428 1.425456 -33.69204
v 138.8428 1.425458 -33.69204
v 138.8428 1.425458 -33.69204
v 138.4357 5.999314 -35.67047
v 140.0639 -12.29611 -27.75675
v 132.0898 -26.76326 -66.96436
v 146.4427 -10.08668 -31.36341
v 132.8875 -20.6344 -45.55723
v 134.2551 -20.48947 -70.77615
v 148.608 -3.812892 -35.17521
v 130.9385 -13.82643 -72.5602
v 145.2914 2.850145 -36.95925
v 125.711 -28.97269 -63.3577
v 138.4357 5.999312 -35.67047
v 131.6663 -6.912831 -51.49252
v 138.8428 1.425458 -33.69204
v 131.2593 -2.338976 -53.47095
v 124.4899 -15.25111 -69.29298
v 124.0828 -10.67726 -71.27142
v 124.3736 -13.9443 -69.85825
v 124.4899 -15.25112 -69.29299
v 125.3039 -24.39883 -65.33614
v 132.0898 -26.76326 -66.96436
v 125.4725 -26.29339 -64.51664
v 132.0898 -26.76326 -66.96436
v 125.711 -28.97269 -63.3577
v 125.3039 -24.39883 -65.33614
v 127.1544 -23.7579 -66.38239
v 125.3039 -24.39883 -65.33614
v 127.3843 -23.67826 -66.51239
v 127.4489 -23.6559 -66.5489
v 128.1744 -23.40459 -66.95913
v 128.2849 -23.36634 -67.02157
v 128.4016 -23.3259 -67.08759
v 128.4267 -23.31719 -67.10179
v 128.4933 -23.29412 -67.13946
v 134.2551 -20.48947 -70.77615
v 128.8105 -22.37534 -67.69769
v 129.0116 -21.79243 -68.05185
v 129.1402 -21.41984 -68.27823
v 129.1785 -21.30896 -68.3456
v 129.4677 -20.47091 -68.85477
v 129.5087 -20.35221 -68.92689
v 129.5426 -20.25415 -68.98647
v 129.576 -20.15722 -69.04536
v 129.1154 -19.23196 -69.2931
v 128.0835 -17.15886 -69.84818
v 128.0338 -17.0589 -69.87495
v 127.9853 -16.96153 -69.90102
v 127.9454 -16.88136 -69.92249
v 127.9177 -16.8257 -69.93738
v 130.9385 -13.82643 -72.5602
v 127.9177 -16.8257 -69.93738
v 126.0842 -15.98346 -69.5927
v 125.5445 -15.73556 -69.49124
v 125.4894 -15.71025 -69.48089
v 125.4638 -15.69851 -69.47609
v 125.4315 -15.68368 -69.47002
v 124.8326 -15.40858 -69.35743
v 124.4899 -15.25112 -69.29299
v 124.3736 -13.9443 -69.85825
v 124.4899 -15.25112 -69.29299
v 124.0828 -10.67726 -71.27142

vn 0.08140954 -0.9147705 0.3956859
vn 0.08140948 -0.9147706 0.3956858
vn 0.2849991 -0.4352244 0.854023
vn 0.3429494 0.3984708 0.8506508
vn 0.3429494 0.3984708 0.8506508
vn -0.4333392 0.8705655 -0.233094
vn -0.03209092 0.9619291 -0.2714089
vn -0.9283549 0.2819478 0.2422035
vn -0.4333354 0.8705667 -0.2330964
vn -0.4333347 0.8705671 -0.2330968
vn -0.433335 0.8705669 -0.2330967
vn -0.4333359 0.8705666 -0.2330963
vn -0.4333368 0.8705662 -0.2330958
vn -0.4333318 0.8705682 -0.233098
vn -0.4333342 0.8705673 -0.233097
vn -0.4333346 0.8705671 -0.2330968
vn -0.4333345 0.8705672 -0.2330969
vn -0.4333344 0.8705671 -0.2330969
vn -0.4333346 0.8705671 -0.2330967
vn -0.4333344 0.8705672 -0.2330969
vn -0.4333354 0.8705668 -0.2330964
vn -0.4333367 0.8705663 -0.2330956
vn -0.4333348 0.870567 -0.2330966
vn -0.4333341 0.8705673 -0.233097
vn -0.5540856 0.8170655 -0.1593529
vn -0.8834182 0.44464 0.1478767
vn -0.8957393 0.4114568 0.1683881
vn -0.895739 0.4114574 0.1683877
vn -0.8957389 0.4114577 0.1683876
vn -0.8957384 0.4114595 0.1683867
vn -0.8957379 0.4114606 0.1683861
vn -0.8957373 0.411462 0.1683854
vn -0.8957382 0.4114596 0.1683866
vn -0.8957385 0.4114586 0.168387
vn -0.8957388 0.4114581 0.1683873
vn -0.8957388 0.411458 0.1683873
vn -0.8957384 0.4114589 0.1683868
vn -0.8957387 0.4114584 0.1683871
vn -0.895739 0.4114574 0.1683877
vn -0.9124172 0.3566137 0.2008021
vn -0.8602052 -0.2306096 0.4548258
vn -0.8334312 -0.2886752 0.4712313
vn -0.8334308 -0.2886762 0.4712316
vn -0.8334305 -0.2886769 0.4712317
vn -0.8334305 -0.2886768 0.4712317
vn -0.8334306 -0.2886764 0.4712316
vn -0.8334308 -0.2886759 0.4712316
vn -0.8334307 -0.2886763 0.4712317
vn -0.8334309 -0.288676 0.4712316
vn -0.8334306 -0.2886763 0.4712317
vn -0.8334308 -0.2886763 0.4712317
vn -0.8334308 -0.2886759 0.4712316
vn -0.7316921 -0.454574 0.5079263
vn -0.833441 -0.2886556 0.4712262
vn -0.2829106 -0.8197087 0.4980353
vn -0.2829095 -0.8197092 0.4980351
vn -0.2829091 -0.8197095 0.498035
vn -0.282908 -0.81971 0.4980347
vn -0.2829098 -0.8197091 0.4980352
vn -0.2829112 -0.8197084 0.4980358
vn -0.2829135 -0.819707 0.4980364
vn -0.2829521 -0.8196862 0.4980488
vn -0.282928 -0.8196993 0.498041
vn -0.2829036 -0.8197124 0.4980334
vn -0.2829071 -0.8197106 0.4980344
vn -0.2829096 -0.8197092 0.4980351
vn -0.2829101 -0.8197089 0.4980353
vn -0.2829103 -0.8197088 0.4980353
vn -0.2829149 -0.8197068 0.4980361
vn -0.4289634 -0.7391998 0.5192053
vn 0.08140942 -0.9147707 0.3956856
vn 0.08140942 -0.9147707 0.3956856
vn 0.08140942 -0.9147707 0.3956856
vn 0.3429494 0.3984708 0.8506508
vn 0.2829097 0.8197091 -0.4980353
vn 0.3429494 0.3984708 0.8506508
vn -0.9384632 0.1847695 0.2918
vn 0.3136486 -0.2911164 0.9038118
vn 0.3292133 -0.1861103 0.925733
vn 0.1055699 -0.8841479 0.4551236
vn 0.08140942 -0.9147707 0.3956856
vn 0.08140942 -0.9147707 0.3956856
vn 0.08140942 -0.9147707 0.3956856
vn 0.1163011 -0.8688616 0.4812003
vn 0.3429494 0.3984708 0.8506508
vn 0.08574034 -0.9096511 0.4064278
vn 0.08140942 -0.9147707 0.3956856
vn 0.1290916 -0.8492245 0.512009
vn 0.08141562 -0.9147711 0.3956833
vn 0.06067711 -0.9370457 0.343895
vn 0.2829098 0.819709 -0.4980352
vn 0.08143155 -0.9147723 0.3956774
vn -0.3429489 -0.3984771 -0.850648
vn -0.3429494 -0.3984708 -0.8506508
vn -0.342949 -0.3984708 -0.8506509
vn 0 0 0
vn 0.2829098 0.8197091 -0.4980353
vn 0.2829098 0.8197091 -0.4980353
vn 0.2829098 0.8197091 -0.4980353
vn -0.342949 -0.3984708 -0.8506509
vn -0.342949 -0.3984708 -0.8506509
vn -0.9358196 0.06644911 0.3461592
vn -0.9358196 0.06644911 0.3461592
vn -0.9358196 0.06644911 0.3461592
vn -0.9358196 0.06644911 0.3461592
vn -0.9358196 0.06644911 0.3461592
vn -0.9358196 0.06644911 0.3461592
vn -0.9358196 0.06644911 0.3461592
vn -0.9358196 0.06644911 0.3461592
vn -0.9358196 0.06644911 0.3461592
vn 0.3429494 0.3984708 0.8506508
vn 0.3429494 0.3984708 0.8506508
vn 0.3429494 0.3984708 0.8506508
vn 0.3429494 0.3984708 0.8506508
vn 0.3429494 0.3984708 0.8506508
vn 0.3429494 0.3984708 0.8506508
vn 0.3429494 0.3984708 0.8506508
vn 0.3429494 0.3984708 0.8506508
vn 0.3429494 0.3984708 0.8506508
vn 0.3429494 0.3984708 0.8506508
vn 0.3429494 0.3984708 0.8506508
vn 0.3429494 0.3984708 0.8506508
vn 0.3429494 0.3984708 0.8506508
vn 0.3429494 0.3984708 0.8506507
vn 0.3429494 0.3984708 0.8506508
vn 0.3429494 0.3984708 0.8506508
vn 0.3429494 0.3984708 0.8506507
vn 0.3429494 0.3984708 0.8506508
vn 0.3429494 0.3984708 0.8506508
vn 0.3429494 0.3984708 0.8506508
vn 0.3429494 0.3984708 0.8506507
vn 0.3429494 0.3984708 0.8506508
vn 0.3429494 0.3984708 0.8506508
vn 0.3429494 0.3984708 0.8506508
vn 0.3429494 0.3984708 0.8506508
vn 0.3429494 0.3984708 0.8506508
vn 0.3429494 0.3984708 0.8506508
vn 0.3429494 0.3984708 0.8506508
vn 0.3429494 0.3984708 0.8506508
vn 0.3429494 0.3984708 0.8506508
vn 0.3429494 0.3984708 0.8506508
vn 0.3429494 0.3984708 0.8506507
vn 0.3429494 0.3984708 0.8506508
vn 0.3429494 0.3984708 0.8506507
vn 0.3429494 0.3984708 0.8506507
vn 0.3429494 0.3984708 0.8506508
vn 0.3429494 0.3984708 0.8506507
vn 0.3429494 0.3984708 0.8506507
vn 0.4333351 -0.870567 0.2330967
vn 0.6298968 -0.769351 0.1064379
vn 0.795163 -0.6052625 -0.0370551
vn 0.433335 -0.8705668 0.2330966
vn 0.9381598 -0.1909411 -0.2887868
vn 0.9158905 0.05929179 -0.3970255
vn 0.8334306 0.2886764 -0.4712317
vn 0.8334306 0.2886764 -0.4712317
vn 0.4333349 -0.870567 0.2330966
vn -0.9358196 0.06644911 0.3461592
vn -0.9358196 0.06644911 0.3461592
vn -0.9358196 0.06644911 0.3461592
vn -0.9358196 0.06644911 0.3461592
vn -0.9358196 0.06644911 0.3461592
vn -0.9358196 0.06644911 0.3461592
vn -0.9358196 0.06644911 0.3461592
vn -0.9358196 0.06644911 0.3461592
vn -0.1492689 0.8149502 -0.5599777
vn -0.3429494 -0.3984714 -0.8506505
vn -0.3429492 -0.3984708 -0.8506508
vn -0.3429492 -0.3984709 -0.8506508
vn -0.3429492 -0.3984708 -0.8506508
vn -0.3429492 -0.3984708 -0.8506508
vn -0.3429493 -0.3984711 -0.8506507
vn -0.3429493 -0.3984711 -0.8506507
vn -0.3429493 -0.3984711 -0.8506507
vn -0.3429493 -0.3984711 -0.8506507
vn -0.3429493 -0.3984711 -0.8506507
vn -0.3429492 -0.3984711 -0.8506507
vn -0.3429493 -0.3984711 -0.8506507
vn -0.3429492 -0.3984711 -0.8506507
vn -0.3429491 -0.3984709 -0.8506508
vn -0.3429491 -0.3984708 -0.8506509
vn -0.3429491 -0.3984709 -0.8506508
vn -0.3429491 -0.3984709 -0.8506508
vn -0.3429491 -0.3984709 -0.8506508
vn -0.3429491 -0.3984709 -0.8506508
vn -0.3429491 -0.3984709 -0.8506508
vn -0.3429491 -0.3984709 -0.8506508
vn -0.3429491 -0.3984709 -0.8506508
vn -0.3429491 -0.3984707 -0.8506509
vn -0.3429491 -0.3984707 -0.8506509
vn -0.3429491 -0.3984707 -0.8506509
vn -0.3429491 -0.3984707 -0.8506509
vn -0.3429491 -0.3984707 -0.8506509
vn -0.3429491 -0.3984707 -0.8506509
vn -0.3429491 -0.3984707 -0.8506509
vn -0.3429492 -0.3984707 -0.8506509
vn -0.3429493 -0.3984705 -0.8506509
vn -0.3429493 -0.3984705 -0.8506509
vn -0.3429493 -0.3984705 -0.8506509
vn -0.3429493 -0.3984705 -0.8506509
vn -0.3429493 -0.3984705 -0.8506509
vn -0.3429493 -0.3984705 -0.8506509
vn -0.3429493 -0.3984705 -0.8506509
vn -0.3429493 -0.3984705 -0.8506509
vn -0.3429492 -0.3984708 -0.8506508
vn -0.3429492 -0.3984708 -0.8506508
vn -0.3429492 -0.3984708 -0.8506508

f 1//1 2//2 3//3
f 4//4 1//1 3//3
f 3//3 5//5 4//4
f 3//3 6//6 5//5
f 5//5 6//6 7//7
f 8//8 7//7 6//6
f 9//9 8//8 6//6
f 10//10 9//9 6//6
f 9//9 10//10 11//11
f 11//11 10//10 12//12
f 13//13 11//11 12//12
f 13//13 12//12 14//14
f 13//13 14//14 15//15
f 15//15 14//14 16//16
f 15//15 16//16 17//17
f 18//18 17//17 16//16
f 19//19 17//17 18//18
f 19//19 18//18 20//20
f 21//21 19//19 20//20
f 22//22 19//19 21//21
f 22//22 21//21 23//23
f 24//24 22//22 23//23
f 24//24 23//23 25//25
f 26//26 24//24 25//25
f 26//26 25//25 27//27
f 28//28 26//26 27//27
f 28//28 27//27 29//29
f 29//29 27//27 30//30
f 31//31 29//29 30//30
f 31//31 30//30 32//32
f 33//33 31//31 32//32
f 33//33 32//32 34//34
f 35//35 33//33 34//34
f 35//35 34//34 36//36
f 37//37 35//35 36//36
f 37//37 36//36 38//38
f 39//39 37//37 38//38
f 39//39 38//38 40//40
f 41//41 39//39 40//40
f 41//41 40//40 42//42
f 41//41 42//42 43//43
f 43//43 42//42 44//44
f 45//45 43//43 44//44
f 45//45 44//44 46//46
f 47//47 45//45 46//46
f 48//48 45//45 47//47
f 48//48 47//47 49//49
f 50//50 48//48 49//49
f 50//50 49//49 51//51
f 52//52 50//50 51//51
f 52//52 51//51 53//53
f 54//54 52//52 53//53
f 55//55 54//54 53//53
f 55//55 53//53 56//56
f 55//55 56//56 57//57
f 57//57 56//56 58//58
f 57//57 58//58 59//59
f 59//59 58//58 60//60
f 59//59 60//60 61//61
f 61//61 60//60 62//62
f 61//61 62//62 63//63
f 63//63 62//62 64//64
f 63//63 64//64 65//65
f 65//65 64//64 66//66
f 65//65 66//66 67//67
f 68//68 67//67 66//66
f 69//69 67//67 68//68
f 69//69 68//68 70//70
f 71//71 69//69 70//70
f 72//72 71//71 73//73
f 74//74 75//75 76//76
f 77//77 74//74 76//76
f 75//75 77//77 76//76
f 78//78 75//75 74//74
f 79//79 75//75 78//78
f 78//78 74//74 80//80
f 81//81 78//78 80//80
f 82//82 78//78 81//81
f 82//82 83//83 78//78
f 83//83 84//84 79//79
f 84//84 85//85 79//79
f 80//80 74//74 86//86
f 87//87 80//80 86//86
f 81//81 80//80 87//87
f 86//86 74//74 88//88
f 88//88 74//74 77//77
f 86//86 88//88 89//89
f 90//90 86//86 89//89
f 87//87 86//86 90//90
f 75//75 91//91 77//77
f 90//90 89//89 92//92
f 90//90 92//92 93//93
f 94//94 90//90 93//93
f 95//95 83//83 82//82
f 95//95 82//82 81//81
f 95//95 81//81 87//87
f 95//95 87//87 90//90
f 95//95 96//96 83//83
f 97//97 91//91 75//75
f 97//97 98//98 91//91
f 97//97 99//99 98//98
f 100//100 95//95 101//101
f 102//102 103//103 104//104
f 102//102 104//104 105//105
f 102//102 105//105 106//106
f 106//106 105//105 107//107
f 108//108 102//102 106//106
f 109//109 102//102 108//108
f 110//110 108//108 106//106
f 111//111 112//112 113//113
f 111//111 113//113 114//114
f 111//111 114//114 115//115
f 111//111 115//115 116//116
f 111//111 116//116 117//117
f 117//117 118//118 111//111
f 118//118 119//119 111//111
f 120//120 111//111 119//119
f 120//120 121//121 111//111
f 121//121 122//122 111//111
f 111//111 122//122 123//123
f 114//114 113//113 124//124
f 124//124 113//113 125//125
f 125//125 113//113 126//126
f 126//126 113//113 127//127
f 127//127 113//113 128//128
f 128//128 113//113 129//129
f 129//129 113//113 130//130
f 130//130 113//113 131//131
f 131//131 113//113 132//132
f 132//132 113//113 133//133
f 133//133 113//113 134//134
f 133//133 134//134 135//135
f 135//135 134//134 136//136
f 134//134 137//137 136//136
f 137//137 134//134 138//138
f 138//138 134//134 139//139
f 139//139 134//134 140//140
f 140//140 134//134 141//141
f 134//134 142//142 141//141
f 134//134 143//143 142//142
f 134//134 144//144 143//143
f 144//144 134//134 145//145
f 145//145 134//134 146//146
f 147//147 134//134 148//148
f 149//149 150//150 151//151
f 149//149 152//152 150//150
f 151//151 150//150 153//153
f 151//151 153//153 154//154
f 154//154 153//153 155//155
f 154//154 155//155 156//156
f 152//152 157//157 150//150
f 158//158 159//159 160//160
f 161//161 159//159 158//158
f 162//162 159//159 161//161
f 163//163 162//162 161//161
f 164//164 162//162 163//163
f 165//165 162//162 164//164
f 9//9 166//166 8//8
f 166//166 9//9 167//167
f 168//168 169//169 170//170
f 168//168 171//171 169//169
f 172//172 169//169 173//173
f 174//174 169//169 172//172
f 169//169 174//174 175//175
f 176//176 169//169 175//175
f 177//177 169//169 176//176
f 178//178 169//169 177//177
f 178//178 179//179 169//169
f 179//179 180//180 169//169
f 180//180 181//181 169//169
f 182//182 181//181 180//180
f 182//182 183//183 181//181
f 183//183 184//184 181//181
f 184//184 185//185 181//181
f 185//185 186//186 181//181
f 186//186 187//187 181//181
f 187//187 188//188 181//181
f 188//188 189//189 181//181
f 181//181 189//189 190//190
f 181//181 190//190 191//191
f 192//192 181//181 191//191
f 193//193 181//181 192//192
f 194//194 181//181 193//193
f 195//195 181//181 194//194
f 195//195 196//196 181//181
f 196//196 197//197 198//198
f 196//196 198//198 199//199
f 199//199 200//200 196//196
f 196//196 200//200 201//201
f 201//201 202//202 196//196
f 196//196 202//202 203//203
f 196//196 203//203 204//204
f 205//205 196//196 206//206
f 207//207 196//196 205//205
