v 141.612 -13.59142 19.22003
v 142.3405 -4.763827 4.888166
v 141.612 -13.59142 19.22003
v 141.612 -13.59142 19.22003
v 141.3185 -16.61533 17.34256
v 141.201 -17.82489 16.59157
v 141.201 -17.82489 16.59157
v 141.9295 -8.997302 2.259704
v 142.658 -0.1697121 -12.07216
v 140.9664 -17.88371 16.54341
v 140.5457 -0.6990519 -12.50556
v 140.9372 -17.89102 16.53743
v 140.2833 -0.7648306 -12.55942
v 140.929 -17.89307 16.53575
v 140.2096 -0.7832975 -12.57454
v 140.837 -17.91613 16.51687
v 139.3814 -0.9908504 -12.74448
v 139.7024 -18.20046 16.28407
v 139.2553 -1.022442 -12.77034
v 138.6267 -18.47004 16.06335
v 138.503 -18.50105 16.03796
v 139.122 -1.055842 -12.79769
v 138.2449 -18.56573 15.985
v 139.0934 -1.063029 -12.80357
v 137.5604 -18.73727 15.84455
v 139.0173 -1.082088 -12.81918
v 137.4674 -18.88928 15.7462
v 138.5051 -1.919129 -13.36078
v 138.1802 -2.450184 -13.70439
v 137.4443 -18.927 15.72179
v 137.9724 -2.789628 -13.92403
v 137.4374 -18.93822 15.71453
v 137.9106 -2.890647 -13.98939
v 137.3855 -19.02305 15.65964
v 137.4434 -3.654138 -14.48341
v 136.79 -19.9963 15.0299
v 137.3773 -3.762276 -14.55338
v 136.298 -20.80036 14.50964
v 137.3226 -3.851616 -14.61118
v 135.8116 -21.5951 13.99541
v 137.2686 -3.93992 -14.66832
v 135.8477 -21.69167 13.93777
v 137.5928 -4.808993 -15.18714
v 135.9284 -21.90802 13.80861
v 138.3193 -6.756208 -16.34958
v 136.1536 -22.51162 13.44827
v 136.2437 -22.75302 13.30416
v 138.3543 -6.850097 -16.40563
v 136.5508 -23.57612 12.81279
v 138.3885 -6.941552 -16.46022
v 136.8036 -24.25386 12.40819
v 138.4166 -7.016857 -16.50518
v 136.9792 -24.72431 12.12735
v 138.4361 -7.069128 -16.53638
v 138.4361 -7.069129 -16.53639
v 137.1812 -24.81747 12.08023
v 140.2547 -7.907601 -16.9604
v 137.2407 -24.84489 12.06637
v 140.7899 -8.154394 -17.0852
v 137.2468 -24.84769 12.06495
v 140.8446 -8.179588 -17.09794
v 137.2496 -24.84899 12.06429
v 140.8699 -8.191273 -17.10385
v 137.2531 -24.85063 12.06346
v 140.9019 -8.206038 -17.11132
v 137.3192 -24.88106 12.04808
v 141.496 -8.47991 -17.24982
v 140.379 -26.29184 11.33465
v 141.8359 -8.636665 -17.32909
v 140.379 -26.29184 11.33464
v 141.8359 -8.636665 -17.32909
v 140.379 -26.29184 11.33464
v 140.379 -26.29184 11.33464
v 140.2616 -27.50141 10.58365
v 139.968 -30.52532 8.706182
v 139.968 -30.52532 8.706182
v 139.968 -30.52532 8.706182
v 140.379 -26.29184 11.33464
v 140.379 -26.29184 11.33464
v 140.379 -26.29184 11.33464
v 141.8359 -8.636665 -17.32909
v 141.8359 -8.636665 -17.32909
v 141.8359 -8.636665 -17.32909
v 140.379 -26.29184 11.33464
v 133.1683 -27.39025 10.29158
v 140.379 -26.29184 11.33464
v 141.8359 -8.636665 -17.32909
v 140.379 -26.29184 11.33464
v 141.1075 -17.46425 -2.997223
v 141.8359 -8.636665 -17.32909
v 140.6965 -21.69773 -5.625685
v 141.8359 -8.636674 -17.32907
v 141.8359 -8.636665 -17.32909
v 141.7185 -9.846228 -18.08008
v 134.6252 -9.73507 -18.37214
v 141.8359 -8.636665 -17.32909
v 133.1683 -27.39025 10.29158
v 141.4249 -12.87014 -19.95755
v 134.6252 -9.73507 -18.37214
v 138.4361 -7.069129 -16.53639
v 138.4361 -7.069128 -16.53638
v 142.3405 -4.763827 4.888166
v 141.612 -13.59142 19.22003
v 141.612 -13.59142 19.22003
v 141.3185 -16.61533 17.34256
v 141.9295 -8.997302 2.259704
v 141.201 -17.82489 16.59157
v 142.8282 1.583852 -10.98342
v 143.069 4.063765 -9.4437
v 142.658 -0.1697121 -12.07216
v 141.612 -13.59142 19.22003
v 134.3308 -15.41617 17.726
v 130.8333 -21.13183 14.02772
v 137.5604 -18.73727 15.84455
v 138.2449 -18.56573 15.985
v 138.503 -18.50105 16.03796
v 138.6267 -18.47004 16.06335
v 139.7024 -18.20046 16.28407
v 140.837 -17.91613 16.51687
v 140.929 -17.89307 16.53575
v 140.9372 -17.89102 16.53743
v 140.9664 -17.88371 16.54341
v 141.201 -17.82489 16.59157
v 137.4674 -18.88928 15.7462
v 137.4443 -18.927 15.72179
v 137.4374 -18.93822 15.71453
v 137.3855 -19.02305 15.65964
v 136.79 -19.9963 15.0299
v 136.298 -20.80036 14.50964
v 135.8116 -21.5951 13.99541
v 135.8477 -21.69167 13.93777
v 135.9284 -21.90802 13.80861
v 136.1536 -22.51162 13.44827
v 133.1683 -27.39025 10.29158
v 136.2437 -22.75302 13.30416
v 136.5508 -23.57612 12.81279
v 136.8036 -24.25386 12.40819
v 136.9792 -24.72431 12.12735
v 137.1812 -24.81747 12.08023
v 137.2407 -24.84489 12.06637
v 137.2468 -24.84769 12.06495
v 137.2496 -24.84899 12.06429
v 137.2531 -24.85063 12.06346
v 137.3192 -24.88106 12.04808
v 140.379 -26.29184 11.33465
v 140.379 -26.29184 11.33464
v 140.379 -26.29184 11.33464
v 139.968 -30.52532 8.706182
v 141.612 -13.59142 19.22003
v 135.7877 2.23901 -10.93773
v 134.3308 -15.41617 17.726
v 142.3405 -4.763827 4.888166
v 132.2902 -3.476655 -14.63601
v 130.8333 -21.13183 14.02772
v 134.6252 -9.73507 -18.37214
v 133.1683 -27.39025 10.29158
v 143.069 4.063765 -9.4437
v 139.968 -30.52532 8.706182
v 141.1075 -17.46425 -2.997223
v 140.379 -26.29184 11.33464
v 140.6965 -21.69773 -5.625685
v 141.8359 -8.636674 -17.32907
v 141.4249 -12.87014 -19.95755
v 141.7185 -9.846228 -18.08008
v 141.8359 -8.636665 -17.32909
v 142.658 -0.1697121 -12.07216
v 135.7877 2.23901 -10.93773
v 142.8282 1.583852 -10.98342
v 135.7877 2.23901 -10.93773
v 143.069 4.063765 -9.4437
v 142.658 -0.1697121 -12.07216
v 140.5457 -0.6990519 -12.50556
v 142.658 -0.1697121 -12.07216
v 140.2833 -0.7648306 -12.55942
v 140.2096 -0.7832975 -12.57454
v 139.3814 -0.9908504 -12.74448
v 139.2553 -1.022442 -12.77034
v 139.122 -1.055842 -12.79769
v 139.0934 -1.063029 -12.80357
v 139.0173 -1.082088 -12.81918
v 132.2902 -3.476655 -14.63601
v 138.5051 -1.919129 -13.36078
v 138.1802 -2.450184 -13.70439
v 137.9724 -2.789628 -13.92403
v 137.9106 -2.890647 -13.98939
v 137.4434 -3.654138 -14.48341
v 137.3773 -3.762276 -14.55338
v 137.3226 -3.851616 -14.61118
v 137.2686 -3.93992 -14.66832
v 137.5928 -4.808993 -15.18714
v 138.3193 -6.756208 -16.34958
v 138.3543 -6.850097 -16.40563
v 138.3885 -6.941552 -16.46022
v 138.4166 -7.016857 -16.50518
v 138.4361 -7.069128 -16.53638
v 134.6252 -9.73507 -18.37214
v 138.4361 -7.069129 -16.53639
v 140.2547 -7.907601 -16.9604
v 140.7899 -8.154394 -17.0852
v 140.8446 -8.179588 -17.09794
v 140.8699 -8.191273 -17.10385
v 140.9019 -8.206038 -17.11132
v 141.496 -8.47991 -17.24982
v 141.8359 -8.636665 -17.32909
v 141.7185 -9.846228 -18.08008
v 141.8359 -8.636665 -17.32909
v 141.4249 -12.87014 -19.95755

vn 0.08220093 0.846694 0.5256924
vn 0.08220094 0.8466941 0.5256923
vn 0.03427366 0.3018756 0.9527311
vn -0.04323652 -0.5239507 0.8506505
vn -0.04323652 -0.5239507 0.8506505
vn 0.3050902 -0.8176992 -0.4881477
vn -0.08748935 -0.9122823 -0.4001088
vn 0.9476146 -0.2912223 -0.131211
vn 0.3050858 -0.8177001 -0.4881488
vn 0.305085 -0.8177004 -0.488149
vn 0.3050853 -0.8177003 -0.4881489
vn 0.3050863 -0.8177 -0.4881488
vn 0.3050873 -0.8176997 -0.4881486
vn 0.3050818 -0.8177014 -0.4881493
vn 0.3050844 -0.8177006 -0.488149
vn 0.3050849 -0.8177004 -0.4881489
vn 0.3050848 -0.8177006 -0.488149
vn 0.3050847 -0.8177005 -0.4881489
vn 0.305085 -0.8177004 -0.4881489
vn 0.3050847 -0.8177006 -0.488149
vn 0.3050858 -0.8177003 -0.4881487
vn 0.3050873 -0.8176998 -0.4881484
vn 0.3050852 -0.8177004 -0.4881488
vn 0.3050843 -0.8177006 -0.488149
vn 0.4450881 -0.7723848 -0.453121
vn 0.8689957 -0.4398168 -0.2267325
vn 0.8884302 -0.4096147 -0.207142
vn 0.8884298 -0.4096153 -0.2071424
vn 0.8884296 -0.4096155 -0.2071425
vn 0.8884287 -0.4096172 -0.2071434
vn 0.8884281 -0.4096182 -0.2071439
vn 0.8884273 -0.4096196 -0.2071446
vn 0.8884286 -0.4096173 -0.2071434
vn 0.8884291 -0.4096163 -0.207143
vn 0.8884295 -0.4096159 -0.2071428
vn 0.8884295 -0.4096158 -0.2071428
vn 0.8884289 -0.4096167 -0.2071432
vn 0.8884293 -0.4096162 -0.207143
vn 0.8884298 -0.4096153 -0.2071424
vn 0.9165803 -0.3595752 -0.1748898
vn 0.9693992 0.1839458 0.162572
vn 0.9513435 0.238414 0.1952035
vn 0.9513432 0.2384149 0.195204
vn 0.9513431 0.2384155 0.1952043
vn 0.951343 0.2384155 0.1952044
vn 0.9513431 0.2384151 0.1952042
vn 0.9513432 0.2384146 0.195204
vn 0.9513432 0.238415 0.1952042
vn 0.9513434 0.2384147 0.195204
vn 0.9513431 0.238415 0.1952042
vn 0.9513432 0.238415 0.1952042
vn 0.9513432 0.2384146 0.195204
vn 0.872566 0.3948802 0.2875736
vn 0.9513504 0.2383956 0.1951926
vn 0.4569735 0.7467863 0.4832035
vn 0.4569724 0.7467868 0.4832037
vn 0.456972 0.7467871 0.4832038
vn 0.4569709 0.7467875 0.4832039
vn 0.4569727 0.7467867 0.4832037
vn 0.4569742 0.7467859 0.4832037
vn 0.4569766 0.7467845 0.4832033
vn 0.4570165 0.7467631 0.4831987
vn 0.4569915 0.7467766 0.4832015
vn 0.4569663 0.7467901 0.4832046
vn 0.45697 0.7467881 0.4832041
vn 0.4569725 0.7467868 0.4832037
vn 0.456973 0.7467865 0.4832036
vn 0.4569733 0.7467864 0.4832036
vn 0.4569778 0.7467844 0.4832025
vn 0.5993422 0.6676164 0.4416758
vn 0.08220094 0.8466942 0.5256921
vn 0.08220094 0.8466942 0.5256921
vn 0.08220094 0.8466942 0.5256921
vn -0.04323652 -0.5239507 0.8506505
vn -0.4569727 -0.7467866 -0.4832038
vn -0.04323652 -0.5239507 0.8506505
vn 0.9765506 -0.2019043 -0.07472553
vn 0.02050982 0.1514891 0.9882461
vn 0.01058491 0.04408551 0.9989717
vn 0.0789213 0.8073282 0.5848015
vn 0.08220094 0.8466942 0.5256921
vn 0.08220094 0.8466942 0.5256921
vn 0.08220094 0.8466942 0.5256921
vn 0.07731024 0.7882223 0.6105152
vn -0.04323652 -0.5239507 0.8506505
vn 0.08165257 0.8399909 0.5364219
vn 0.08220094 0.8466942 0.5256921
vn 0.07526021 0.7640866 0.6407087
vn 0.08219434 0.8466948 0.5256922
vn 0.0846424 0.8766261 0.4736692
vn -0.4569727 -0.7467866 -0.4832037
vn 0.0821774 0.8466964 0.5256923
vn 0.04323709 0.5239566 -0.8506469
vn 0.04323652 0.5239507 -0.8506505
vn 0.0432361 0.5239508 -0.8506505
vn 0 0 0
vn -0.4569728 -0.7467866 -0.4832038
vn -0.4569727 -0.7467867 -0.4832037
vn -0.4569728 -0.7467867 -0.4832038
vn 0.0432361 0.5239508 -0.8506505
vn 0.0432361 0.5239508 -0.8506505
vn 0.9956776 -0.09265333 -0.006461156
vn 0.9956775 -0.09265333 -0.006461155
vn 0.9956776 -0.09265333 -0.006461156
vn 0.9956776 -0.09265333 -0.006461156
vn 0.9956776 -0.09265333 -0.006461156
vn 0.9956776 -0.09265333 -0.006461156
vn 0.9956776 -0.09265333 -0.006461156
vn 0.9956776 -0.09265333 -0.006461156
vn 0.9956776 -0.09265333 -0.006461156
vn -0.04323652 -0.5239507 0.8506505
vn -0.04323652 -0.5239507 0.8506505
vn -0.04323652 -0.5239507 0.8506505
vn -0.04323652 -0.5239507 0.8506505
vn -0.04323652 -0.5239507 0.8506505
vn -0.04323652 -0.5239507 0.8506505
vn -0.04323652 -0.5239507 0.8506505
vn -0.04323652 -0.5239507 0.8506505
vn -0.04323652 -0.5239507 0.8506505
vn -0.04323652 -0.5239507 0.8506505
vn -0.04323652 -0.5239507 0.8506505
vn -0.04323652 -0.5239507 0.8506505
vn -0.04323652 -0.5239507 0.8506505
vn -0.04323652 -0.5239507 0.8506504
vn -0.04323652 -0.5239507 0.8506505
vn -0.04323652 -0.5239507 0.8506505
vn -0.04323652 -0.5239507 0.8506504
vn -0.04323652 -0.5239507 0.8506505
vn -0.04323652 -0.5239507 0.8506505
vn -0.04323652 -0.5239507 0.8506505
vn -0.04323652 -0.5239507 0.8506504
vn -0.04323652 -0.5239507 0.8506505
vn -0.04323652 -0.5239507 0.8506505
vn -0.04323652 -0.5239507 0.8506505
vn -0.04323652 -0.5239507 0.8506505
vn -0.04323652 -0.5239507 0.8506505
vn -0.04323652 -0.5239507 0.8506505
vn -0.04323652 -0.5239507 0.8506505
vn -0.04323652 -0.5239507 0.8506505
vn -0.04323652 -0.5239507 0.8506505
vn -0.04323652 -0.5239507 0.8506505
vn -0.04323652 -0.5239507 0.8506504
vn -0.04323652 -0.5239507 0.8506505
vn -0.04323652 -0.5239507 0.8506504
vn -0.04323652 -0.5239507 0.8506504
vn -0.04323652 -0.5239507 0.8506505
vn -0.04323652 -0.5239507 0.8506504
vn -0.04323652 -0.5239507 0.8506504
vn -0.3050854 0.8177003 0.488149
vn -0.5356098 0.7309029 0.4229697
vn -0.7441009 0.5850508 0.3225363
vn -0.3050854 0.8177002 0.4881488
vn -0.9750776 0.207588 0.07830124
vn -0.9975635 -0.02402277 -0.06550037
vn -0.9513431 -0.2384151 -0.1952042
vn -0.9513431 -0.2384151 -0.1952043
vn -0.3050853 0.8177003 0.4881488
vn 0.9956776 -0.09265333 -0.006461156
vn 0.9956776 -0.09265333 -0.006461156
vn 0.9956776 -0.09265333 -0.006461156
vn 0.9956776 -0.09265333 -0.006461156
vn 0.9956776 -0.09265333 -0.006461156
vn 0.9956776 -0.09265333 -0.006461156
vn 0.9956776 -0.09265333 -0.006461164
vn 0.9956775 -0.09265332 -0.006461163
vn -0.07172427 -0.7228406 -0.6872825
vn 0.04323658 0.5239514 -0.8506501
vn 0.04323631 0.5239507 -0.8506504
vn 0.0432363 0.5239508 -0.8506504
vn 0.04323631 0.5239508 -0.8506505
vn 0.04323631 0.5239508 -0.8506505
vn 0.04323642 0.523951 -0.8506503
vn 0.04323642 0.523951 -0.8506503
vn 0.04323642 0.523951 -0.8506503
vn 0.04323642 0.523951 -0.8506503
vn 0.04323642 0.523951 -0.8506503
vn 0.04323642 0.523951 -0.8506503
vn 0.04323642 0.523951 -0.8506503
vn 0.04323642 0.523951 -0.8506503
vn 0.04323623 0.5239509 -0.8506504
vn 0.04323622 0.5239508 -0.8506505
vn 0.04323623 0.5239509 -0.8506504
vn 0.04323623 0.5239509 -0.8506504
vn 0.04323623 0.5239509 -0.8506504
vn 0.04323623 0.5239509 -0.8506504
vn 0.04323623 0.5239509 -0.8506504
vn 0.04323623 0.5239509 -0.8506504
vn 0.04323623 0.5239509 -0.8506504
vn 0.04323621 0.5239507 -0.8506505
vn 0.04323621 0.5239506 -0.8506505
vn 0.04323621 0.5239506 -0.8506505
vn 0.04323621 0.5239506 -0.8506505
vn 0.04323621 0.5239506 -0.8506505
vn 0.04323621 0.5239506 -0.8506505
vn 0.04323621 0.5239506 -0.8506505
vn 0.04323628 0.5239506 -0.8506505
vn 0.04323637 0.5239505 -0.8506507
vn 0.04323637 0.5239505 -0.8506507
vn 0.04323637 0.5239505 -0.8506507
vn 0.04323637 0.5239505 -0.8506507
vn 0.04323637 0.5239505 -0.8506507
vn 0.04323637 0.5239505 -0.8506507
vn 0.04323637 0.5239505 -0.8506507
vn 0.04323637 0.5239505 -0.8506506
vn 0.04323631 0.5239508 -0.8506505
vn 0.04323631 0.5239508 -0.8506505
vn 0.04323631 0.5239507 -0.8506504

f 1//1 2//2 3//3
f 4//4 1//1 3//3
f 3//3 5//5 4//4
f 3//3 6//6 5//5
f 5//5 6//6 7//7
f 8//8 7//7 6//6
f 9//9 8//8 6//6
f 10//10 9//9 6//6
f 9//9 10//10 11//11
f 11//11 10//10 12//12
f 13//13 11//11 12//12
f 13//13 12//12 14//14
f 13//13 14//14 15//15
f 15//15 14//14 16//16
f 15//15 16//16 17//17
f 18//18 17//17 16//16
f 19//19 17//17 18//18
f 19//19 18//18 20//20
f 21//21 19//19 20//20
f 22//22 19//19 21//21
f 22//22 21//21 23//23
f 24//24 22//22 23//23
f 24//24 23//23 25//25
f 26//26 24//24 25//25
f 26//26 25//25 27//27
f 28//28 26//26 27//27
f 28//28 27//27 29//29
f 29//29 27//27 30//30
f 31//31 29//29 30//30
f 31//31 30//30 32//32
f 33//33 31//31 32//32
f 33//33 32//32 34//34
f 35//35 33//33 34//34
f 35//35 34//34 36//36
f 37//37 35//35 36//36
f 37//37 36//36 38//38
f 39//39 37//37 38//38
f 39//39 38//38 40//40
f 41//41 39//39 40//40
f 41//41 40//40 42//42
f 41//41 42//42 43//43
f 43//43 42//42 44//44
f 45//45 43//43 44//44
f 45//45 44//44 46//46
f 47//47 45//45 46//46
f 48//48 45//45 47//47
f 48//48 47//47 49//49
f 50//50 48//48 49//49
f 50//50 49//49 51//51
f 52//52 50//50 51//51
f 52//52 51//51 53//53
f 54//54 52//52 53//53
f 55//55 54//54 53//53
f 55//55 53//53 56//56
f 55//55 56//56 57//57
f 57//57 56//56 58//58
f 57//57 58//58 59//59
f 59//59 58//58 60//60
f 59//59 60//60 61//61
f 61//61 60//60 62//62
f 61//61 62//62 63//63
f 63//63 62//62 64//64
f 63//63 64//64 65//65
f 65//65 64//64 66//66
f 65//65 66//66 67//67
f 68//68 67//67 66//66
f 69//69 67//67 68//68
f 69//69 68//68 70//70
f 71//71 69//69 70//70
f 72//72 71//71 73//73
f 74//74 75//75 76//76
f 77//77 74//74 76//76
f 75//75 77//77 76//76
f 78//78 75//75 74//74
f 79//79 75//75 78//78
f 78//78 74//74 80//80
f 81//81 78//78 80//80
f 82//82 78//78 81//81
f 82//82 83//83 78//78
f 83//83 84//84 79//79
f 84//84 85//85 79//79
f 80//80 74//74 86//86
f 87//87 80//80 86//86
f 81//81 80//80 87//87
f 86//86 74//74 88//88
f 88//88 74//74 77//77
f 86//86 88//88 89//89
f 90//90 86//86 89//89
f 87//87 86//86 90//90
f 75//75 91//91 77//77
f 90//90 89//89 92//92
f 90//90 92//92 93//93
f 94//94 90//90 93//93
f 95//95 83//83 82//82
f 95//95 82//82 81//81
f 95//95 81//81 87//87
f 95//95 87//87 90//90
f 95//95 96//96 83//83
f 97//97 91//91 75//75
f 97//97 98//98 91//91
f 97//97 99//99 98//98
f 100//100 95//95 101//101
f 102//102 103//103 104//104
f 102//102 104//104 105//105
f 102//102 105//105 106//106
f 106//106 105//105 107//107
f 108//108 102//102 106//106
f 109//109 102//102 108//108
f 110//110 108//108 106//106
f 111//111 112//112 113//113
f 111//111 113//113 114//114
f 111//111 114//114 115//115
f 111//111 115//115 116//116
f 111//111 116//116 117//117
f 117//117 118//118 111//111
f 118//118 119//119 111//111
f 120//120 111//111 119//119
f 120//120 121//121 111//111
f 121//121 122//122 111//111
f 111//111 122//122 123//123
f 114//114 113//113 124//124
f 124//124 113//113 125//125
f 125//125 113//113 126//126
f 126//126 113//113 127//127
f 127//127 113//113 128//128
f 128//128 113//113 129//129
f 129//129 113//113 130//130
f 130//130 113//113 131//131
f 131//131 113//113 132//132
f 132//132 113//113 133//133
f 133//133 113//113 134//134
f 133//133 134//134 135//135
f 135//135 134//134 136//136
f 134//134 137//137 136//136
f 137//137 134//134 138//138
f 138//138 134//134 139//139
f 139//139 134//134 140//140
f 140//140 134//134 141//141
f 134//134 142//142 141//141
f 134//134 143//143 142//142
f 134//134 144//144 143//143
f 144//144 134//134 145//145
f 145//145 134//134 146//146
f 147//147 134//134 148//148
f 149//149 150//150 151//151
f 149//149 152//152 150//150
f 151//151 150//150 153//153
f 151//151 153//153 154//154
f 154//154 153//153 155//155
f 154//154 155//155 156//156
f 152//152 157//157 150//150
f 158//158 159//159 160//160
f 161//161 159//159 158//158
f 162//162 159//159 161//161
f 163//163 162//162 161//161
f 164//164 162//162 163//163
f 165//165 162//162 164//164
f 9//9 166//166 8//8
f 166//166 9//9 167//167
f 168//168 169//169 170//170
f 168//168 171//171 169//169
f 172//172 169//169 173//173
f 174//174 169//169 172//172
f 169//169 174//174 175//175
f 176//176 169//169 175//175
f 177//177 169//169 176//176
f 178//178 169//169 177//177
f 178//178 179//179 169//169
f 179//179 180//180 169//169
f 180//180 181//181 169//169
f 182//182 181//181 180//180
f 182//182 183//183 181//181
f 183//183 184//184 181//181
f 184//184 185//185 181//181
f 185//185 186//186 181//181
f 186//186 187//187 181//181
f 187//187 188//188 181//181
f 188//188 189//189 181//181
f 181//181 189//189 190//190
f 181//181 190//190 191//191
f 192//192 181//181 191//191
f 193//193 181//181 192//192
f 194//194 181//181 193//193
f 195//195 181//181 194//194
f 195//195 196//196 181//181
f 196//196 197//197 198//198
f 196//196 198//198 199//199
f 199//199 200//200 196//196
f 196//196 200//200 201//201
f 201//201 202//202 196//196
f 196//196 202//202 203//203
f 196//196 203//203 204//204
f 205//205 196//196 206//206
f 207//207 196//196 205//205
