v -51.35281 -27.25622 132.7766
v -35.49247 -40.90668 132.7766
v -51.35281 -27.25622 132.7766
v -51.35281 -27.25621 132.7766
v -49.13435 -24.67862 133.8672
v -48.24697 -23.64758 134.3035
v -48.24697 -23.64758 134.3035
v -32.38664 -37.29804 134.3035
v -16.52631 -50.94851 134.3035
v -48.23374 -23.6322 134.5494
v -16.40718 -50.81008 136.5163
v -48.23209 -23.63029 134.5799
v -16.39237 -50.79288 136.7912
v -48.23163 -23.62975 134.5885
v -16.38822 -50.78806 136.8684
v -48.22644 -23.62372 134.6849
v -16.34151 -50.73378 137.736
v -48.16245 -23.54937 135.8734
v -16.3344 -50.72552 137.8681
v -48.10178 -23.47888 137.0003
v -48.0948 -23.47077 137.13
v -16.32688 -50.71678 138.0077
v -48.08024 -23.45385 137.4003
v -16.32526 -50.7149 138.0377
v -48.04163 -23.409 138.1174
v -16.32097 -50.70992 138.1174
v -47.94034 -23.2913 138.249
v -15.76318 -50.06183 138.8421
v -15.4093 -49.65065 139.3018
v -47.9152 -23.2621 138.2816
v -15.1831 -49.38784 139.5957
v -47.90772 -23.25341 138.2914
v -15.11578 -49.30962 139.6832
v -47.8512 -23.18773 138.3648
v -14.607 -48.71848 140.3442
v -47.20264 -22.43417 139.2074
v -14.53494 -48.63475 140.4378
v -46.66683 -21.81162 139.9035
v -14.47541 -48.56557 140.5152
v -46.13723 -21.19628 140.5916
v -14.41656 -48.4972 140.5916
v -46.06045 -21.10708 140.5819
v -13.7256 -47.69438 140.5042
v -45.88844 -20.90722 140.5601
v -12.17745 -45.89561 140.3083
v -45.40854 -20.34963 140.4994
v -45.21662 -20.12664 140.4751
v -12.1028 -45.80888 140.2989
v -44.5622 -19.36628 140.3923
v -12.03009 -45.72439 140.2897
v -44.02336 -18.7402 140.3242
v -11.97022 -45.65483 140.2821
v -43.64933 -18.30562 140.2768
v -11.92866 -45.60654 140.2768
v -11.92866 -45.60654 140.2768
v -43.5534 -18.19416 140.1033
v -11.06533 -44.60344 138.7153
v -43.52517 -18.16136 140.0522
v -10.81122 -44.30819 138.2556
v -43.52228 -18.158 140.047
v -10.78528 -44.27805 138.2087
v -43.52095 -18.15645 140.0446
v -10.77325 -44.26408 138.1869
v -43.51926 -18.15449 140.0416
v -10.75804 -44.24641 138.1594
v -43.48793 -18.11809 139.9849
v -10.47605 -43.91877 137.6494
v -42.03532 -16.43032 137.3574
v -10.31465 -43.73124 137.3574
v -42.03532 -16.43031 137.3574
v -10.31465 -43.73124 137.3574
v -42.03532 -16.43031 137.3574
v -42.03532 -16.43031 137.3574
v -41.14793 -15.39927 137.7937
v -38.92948 -12.82168 138.8844
v -38.92948 -12.82168 138.8844
v -38.92949 -12.82168 138.8844
v -42.03532 -16.43031 137.3574
v -42.03532 -16.43031 137.3574
v -42.03532 -16.43031 137.3574
v -10.31465 -43.73124 137.3574
v -10.31465 -43.73124 137.3574
v -10.31465 -43.73124 137.3574
v -42.03532 -16.43031 137.3574
v -42.15751 -16.57229 144.7232
v -42.03532 -16.43031 137.3574
v -10.31465 -43.73124 137.3574
v -42.03532 -16.43031 137.3574
v -26.17498 -30.08077 137.3574
v -10.31465 -43.73124 137.3574
v -23.06915 -26.47214 138.8844
v -10.31466 -43.73122 137.3574
v -10.31465 -43.73124 137.3574
v -9.427271 -42.7002 137.7937
v -10.43685 -43.87321 144.7232
v -10.31465 -43.73124 137.3574
v -42.15751 -16.57229 144.7232
v -7.20882 -40.1226 138.8844
v -10.43685 -43.87321 144.7232
v -11.92866 -45.60654 140.2768
v -11.92866 -45.60654 140.2768
v -35.49247 -40.90668 132.7766
v -51.35281 -27.25622 132.7766
v -51.35281 -27.25621 132.7766
v -49.13435 -24.67862 133.8672
v -32.38664 -37.29804 134.3035
v -48.24697 -23.64758 134.3035
v -17.81279 -52.44325 133.671
v -19.63214 -54.55714 132.7766
v -16.52631 -50.94851 134.3035
v -51.35281 -27.25622 132.7766
v -50.94212 -26.77905 140.4043
v -47.13331 -22.35362 145.3528
v -48.04163 -23.409 138.1174
v -48.08024 -23.45385 137.4003
v -48.0948 -23.47077 137.13
v -48.10178 -23.47888 137.0003
v -48.16245 -23.54937 135.8734
v -48.22644 -23.62372 134.6849
v -48.23163 -23.62975 134.5885
v -48.23209 -23.63029 134.5799
v -48.23374 -23.6322 134.5494
v -48.24697 -23.64758 134.3035
v -47.94034 -23.2913 138.249
v -47.9152 -23.2621 138.2816
v -47.90772 -23.25341 138.2914
v -47.8512 -23.18773 138.3648
v -47.20264 -22.43417 139.2074
v -46.66683 -21.81162 139.9035
v -46.13723 -21.19628 140.5916
v -46.06045 -21.10708 140.5819
v -45.88844 -20.90722 140.5601
v -45.40854 -20.34963 140.4994
v -42.15751 -16.57229 144.7232
v -45.21662 -20.12664 140.4751
v -44.5622 -19.36628 140.3923
v -44.02336 -18.7402 140.3242
v -43.64933 -18.30562 140.2768
v -43.5534 -18.19416 140.1033
v -43.52517 -18.16136 140.0522
v -43.52228 -18.158 140.047
v -43.52095 -18.15645 140.0446
v -43.51926 -18.15449 140.0416
v -43.48793 -18.11809 139.9849
v -42.03532 -16.43032 137.3574
v -42.03532 -16.43031 137.3574
v -42.03532 -16.43031 137.3574
v -38.92948 -12.82168 138.8844
v -51.35281 -27.25622 132.7766
v -19.22146 -54.07997 140.4043
v -50.94212 -26.77905 140.4043
v -35.49247 -40.90668 132.7766
v -15.41265 -49.65454 145.3528
v -47.13331 -22.35362 145.3528
v -10.43685 -43.87321 144.7232
v -42.15751 -16.57229 144.7232
v -19.63214 -54.55714 132.7766
v -38.92949 -12.82168 138.8844
v -26.17498 -30.08077 137.3574
v -42.03532 -16.43031 137.3574
v -23.06915 -26.47214 138.8844
v -10.31466 -43.73122 137.3574
v -7.20882 -40.1226 138.8844
v -9.427271 -42.7002 137.7937
v -10.31465 -43.73124 137.3574
v -16.52631 -50.94851 134.3035
v -19.22146 -54.07997 140.4043
v -17.81279 -52.44325 133.671
v -19.22146 -54.07997 140.4043
v -19.63214 -54.55714 132.7766
v -16.52631 -50.94851 134.3035
v -16.40718 -50.81008 136.5163
v -16.52631 -50.94851 134.3035
v -16.39237 -50.79288 136.7912
v -16.38822 -50.78806 136.8684
v -16.34151 -50.73378 137.736
v -16.3344 -50.72552 137.8681
v -16.32688 -50.71678 138.0077
v -16.32526 -50.7149 138.0377
v -16.32097 -50.70992 138.1174
v -15.41265 -49.65454 145.3528
v -15.76318 -50.06183 138.8421
v -15.4093 -49.65065 139.3018
v -15.1831 -49.38784 139.5957
v -15.11578 -49.30962 139.6832
v -14.607 -48.71848 140.3442
v -14.53494 -48.63475 140.4378
v -14.47541 -48.56557 140.5152
v -14.41656 -48.4972 140.5916
v -13.7256 -47.69438 140.5042
v -12.17745 -45.89561 140.3083
v -12.1028 -45.80888 140.2989
v -12.03009 -45.72439 140.2897
v -11.97022 -45.65483 140.2821
v -11.92866 -45.60654 140.2768
v -10.43685 -43.87321 144.7232
v -11.92866 -45.60654 140.2768
v -11.06533 -44.60344 138.7153
v -10.81122 -44.30819 138.2556
v -10.78528 -44.27805 138.2087
v -10.77325 -44.26408 138.1869
v -10.75804 -44.24641 138.1594
v -10.47605 -43.91877 137.6494
v -10.31465 -43.73124 137.3574
v -9.427271 -42.7002 137.7937
v -10.31465 -43.73124 137.3574
v -7.20882 -40.1226 138.8844

vn -0.6211662 -0.7217262 -0.3053914
vn -0.6211661 -0.7217263 -0.3053914
vn -0.964882 -0.1234451 -0.2318706
vn -0.7579354 0.6523297 -2.384186E-07
vn -0.7579354 0.6523297 -2.384186E-07
vn 0.6501188 0.7553665 -0.0822615
vn 0.5077349 0.806726 0.3023221
vn 0.3411334 0.3963589 -0.8523659
vn 0.6501192 0.7553666 -0.08225688
vn 0.6501193 0.7553667 -0.08225604
vn 0.6501193 0.7553667 -0.08225638
vn 0.6501193 0.7553666 -0.0822574
vn 0.6501192 0.7553664 -0.08225845
vn 0.6501191 0.7553672 -0.08225268
vn 0.6501192 0.7553669 -0.08225545
vn 0.6501192 0.7553667 -0.08225597
vn 0.6501192 0.7553669 -0.08225583
vn 0.6501192 0.7553668 -0.08225574
vn 0.6501192 0.7553667 -0.08225603
vn 0.6501192 0.7553668 -0.08225569
vn 0.6501192 0.7553667 -0.08225686
vn 0.6501191 0.7553666 -0.08225842
vn 0.6501191 0.7553667 -0.08225624
vn 0.6501192 0.7553669 -0.08225537
vn 0.6345881 0.7373213 -0.2316364
vn 0.4417622 0.5132786 -0.7357929
vn 0.4217606 0.4900388 -0.7628762
vn 0.4217609 0.4900393 -0.7628756
vn 0.4217611 0.4900395 -0.7628754
vn 0.421762 0.4900408 -0.7628742
vn 0.4217626 0.4900416 -0.7628732
vn 0.4217632 0.4900427 -0.7628722
vn 0.4217621 0.4900409 -0.762874
vn 0.4217616 0.4900401 -0.7628747
vn 0.4217614 0.4900398 -0.7628752
vn 0.4217613 0.4900396 -0.7628751
vn 0.4217618 0.4900403 -0.7628744
vn 0.4217616 0.49004 -0.7628749
vn 0.421761 0.4900393 -0.7628757
vn 0.3880924 0.4509201 -0.8037757
vn -0.01064781 -0.01237212 -0.9998669
vn -0.05365717 -0.06234422 -0.9966114
vn -0.05365786 -0.06234505 -0.9966113
vn -0.05365828 -0.06234561 -0.9966113
vn -0.05365829 -0.06234558 -0.9966112
vn -0.05365802 -0.06234524 -0.9966112
vn -0.05365776 -0.06234473 -0.9966113
vn -0.053658 -0.06234513 -0.9966113
vn -0.05365779 -0.06234484 -0.9966114
vn -0.053658 -0.06234508 -0.9966112
vn -0.053658 -0.06234507 -0.9966114
vn -0.05365772 -0.06234473 -0.9966113
vn -0.1807218 -0.2099791 -0.9608582
vn -0.05364259 -0.06232715 -0.9966132
vn -0.4976456 -0.5782095 -0.6465468
vn -0.497646 -0.5782101 -0.6465457
vn -0.4976463 -0.5782105 -0.6465455
vn -0.4976466 -0.5782111 -0.6465445
vn -0.497646 -0.5782099 -0.6465461
vn -0.4976456 -0.578209 -0.6465474
vn -0.4976445 -0.5782074 -0.6465493
vn -0.4976297 -0.5781816 -0.6465839
vn -0.497639 -0.5781978 -0.6465623
vn -0.4976485 -0.578214 -0.6465405
vn -0.497647 -0.5782118 -0.6465437
vn -0.497646 -0.5782101 -0.6465458
vn -0.4976458 -0.5782098 -0.6465463
vn -0.4976457 -0.5782096 -0.6465465
vn -0.4976435 -0.5782073 -0.6465504
vn -0.4199617 -0.4879495 -0.7652043
vn -0.6211659 -0.7217264 -0.3053914
vn -0.6211659 -0.7217264 -0.3053914
vn -0.6211659 -0.7217264 -0.3053914
vn -0.7579354 0.6523297 -2.384186E-07
vn 0.4976461 0.5782099 0.6465461
vn -0.7579354 0.6523297 -2.384186E-07
vn 0.2782536 0.3232995 -0.9044626
vn -0.9797531 0.02729128 -0.1983409
vn -0.9761537 0.1323841 -0.172042
vn -0.6734467 -0.6735551 -0.3046196
vn -0.6211659 -0.7217264 -0.3053914
vn -0.6211659 -0.7217264 -0.3053914
vn -0.6211659 -0.7217264 -0.3053914
vn -0.6959314 -0.6506959 -0.3037671
vn -0.7579354 0.6523297 -2.384186E-07
vn -0.6307129 -0.7134067 -0.3053724
vn -0.6211659 -0.7217264 -0.3053914
vn -0.7221111 -0.6222193 -0.3023221
vn -0.6211672 -0.721728 -0.3053851
vn -0.5745387 -0.7595928 -0.3048345
vn 0.497646 0.5782099 0.646546
vn -0.6211706 -0.7217319 -0.3053689
vn 0.7579311 -0.6523347 -1.881839E-06
vn 0.7579354 -0.6523297 2.384186E-07
vn 0.7579353 -0.6523298 6.49384E-07
vn 0 0 0
vn 0.497646 0.5782099 0.6465461
vn 0.497646 0.5782099 0.6465461
vn 0.497646 0.5782099 0.6465461
vn 0.7579353 -0.6523298 6.49384E-07
vn 0.7579353 -0.6523298 6.49384E-07
vn 0.1992161 0.2314667 -0.952227
vn 0.1992161 0.2314667 -0.9522269
vn 0.1992161 0.2314667 -0.952227
vn 0.1992161 0.2314667 -0.952227
vn 0.1992161 0.2314667 -0.952227
vn 0.1992161 0.2314667 -0.952227
vn 0.1992161 0.2314667 -0.952227
vn 0.1992161 0.2314667 -0.952227
vn 0.1992161 0.2314667 -0.952227
vn -0.7579354 0.6523297 -2.384186E-07
vn -0.7579354 0.6523297 -2.384186E-07
vn -0.7579354 0.6523297 -2.384186E-07
vn -0.7579354 0.6523297 -2.384186E-07
vn -0.7579354 0.6523297 -2.384186E-07
vn -0.7579354 0.6523297 -2.384186E-07
vn -0.7579354 0.6523297 -2.384186E-07
vn -0.7579354 0.6523297 -2.384186E-07
vn -0.7579354 0.6523297 -2.384186E-07
vn -0.7579354 0.6523297 -2.384186E-07
vn -0.7579354 0.6523297 -2.384186E-07
vn -0.7579354 0.6523297 -2.384186E-07
vn -0.7579354 0.6523297 -2.384186E-07
vn -0.7579353 0.6523297 -2.384186E-07
vn -0.7579354 0.6523297 -2.384186E-07
vn -0.7579354 0.6523297 -2.384186E-07
vn -0.7579353 0.6523297 -2.384186E-07
vn -0.7579354 0.6523297 -2.384186E-07
vn -0.7579354 0.6523297 -2.384186E-07
vn -0.7579354 0.6523297 -2.384186E-07
vn -0.7579353 0.6523297 -2.384186E-07
vn -0.7579354 0.6523297 -2.384186E-07
vn -0.7579354 0.6523297 -2.384186E-07
vn -0.7579354 0.6523297 -2.384186E-07
vn -0.7579354 0.6523297 -2.384186E-07
vn -0.7579354 0.6523297 -2.384186E-07
vn -0.7579354 0.6523297 -2.384186E-07
vn -0.7579354 0.6523297 -2.384186E-07
vn -0.7579354 0.6523297 -2.384186E-07
vn -0.7579354 0.6523297 -2.384186E-07
vn -0.7579354 0.6523297 -2.384186E-07
vn -0.7579353 0.6523297 -2.384186E-07
vn -0.7579354 0.6523297 -2.384186E-07
vn -0.7579353 0.6523297 -2.384186E-07
vn -0.7579353 0.6523297 -2.384186E-07
vn -0.7579354 0.6523297 -2.384186E-07
vn -0.7579353 0.6523297 -2.384186E-07
vn -0.7579353 0.6523297 -2.384186E-07
vn -0.6501193 -0.7553667 0.08225641
vn -0.6154545 -0.7150899 0.3314547
vn -0.5338379 -0.6202604 0.5747123
vn -0.6501192 -0.7553666 0.08225644
vn -0.282303 -0.3280046 0.9015088
vn -0.1123848 -0.1305784 0.9850478
vn 0.05365811 0.0623452 0.9966112
vn 0.05365811 0.06234518 0.9966113
vn -0.6501192 -0.7553667 0.08225632
vn 0.1992161 0.2314667 -0.952227
vn 0.1992161 0.2314667 -0.952227
vn 0.1992161 0.2314667 -0.952227
vn 0.1992161 0.2314667 -0.952227
vn 0.1992161 0.2314667 -0.952227
vn 0.1992161 0.2314667 -0.952227
vn 0.1992161 0.2314667 -0.952227
vn 0.1992161 0.2314667 -0.9522269
vn 0.7619694 0.5744341 0.2990453
vn 0.757935 -0.6523302 1.341876E-08
vn 0.7579353 -0.6523297 4.439013E-07
vn 0.7579353 -0.6523299 4.268429E-07
vn 0.7579354 -0.6523297 4.439013E-07
vn 0.7579354 -0.6523297 4.439013E-07
vn 0.7579352 -0.6523299 2.655896E-07
vn 0.7579352 -0.6523299 2.655895E-07
vn 0.7579352 -0.6523299 2.6559E-07
vn 0.7579352 -0.6523299 2.655893E-07
vn 0.7579352 -0.6523299 2.655892E-07
vn 0.7579352 -0.6523299 2.655898E-07
vn 0.7579352 -0.6523299 2.655918E-07
vn 0.7579352 -0.6523299 2.655871E-07
vn 0.7579353 -0.6523299 4.883814E-07
vn 0.7579353 -0.6523297 5.290151E-07
vn 0.7579353 -0.6523299 4.904111E-07
vn 0.7579353 -0.6523299 4.904111E-07
vn 0.7579353 -0.6523299 4.904111E-07
vn 0.7579353 -0.6523299 4.904111E-07
vn 0.7579353 -0.6523299 4.904111E-07
vn 0.7579353 -0.6523299 4.904112E-07
vn 0.7579353 -0.6523299 4.904114E-07
vn 0.7579354 -0.6523297 5.59889E-07
vn 0.7579355 -0.6523297 5.676191E-07
vn 0.7579355 -0.6523297 5.676191E-07
vn 0.7579355 -0.6523297 5.676185E-07
vn 0.7579355 -0.6523297 5.676198E-07
vn 0.7579355 -0.6523297 5.676192E-07
vn 0.7579355 -0.6523297 5.676189E-07
vn 0.7579355 -0.6523297 4.950052E-07
vn 0.7579356 -0.6523295 4.519856E-07
vn 0.7579356 -0.6523295 4.519856E-07
vn 0.7579356 -0.6523295 4.519855E-07
vn 0.7579356 -0.6523295 4.519861E-07
vn 0.7579356 -0.6523295 4.519855E-07
vn 0.7579356 -0.6523295 4.519855E-07
vn 0.7579356 -0.6523295 4.519856E-07
vn 0.7579355 -0.6523294 4.519855E-07
vn 0.7579354 -0.6523297 4.439013E-07
vn 0.7579354 -0.6523297 4.439013E-07
vn 0.7579353 -0.6523297 4.439013E-07

f 1//1 2//2 3//3
f 4//4 1//1 3//3
f 3//3 5//5 4//4
f 3//3 6//6 5//5
f 5//5 6//6 7//7
f 8//8 7//7 6//6
f 9//9 8//8 6//6
f 10//10 9//9 6//6
f 9//9 10//10 11//11
f 11//11 10//10 12//12
f 13//13 11//11 12//12
f 13//13 12//12 14//14
f 13//13 14//14 15//15
f 15//15 14//14 16//16
f 15//15 16//16 17//17
f 18//18 17//17 16//16
f 19//19 17//17 18//18
f 19//19 18//18 20//20
f 21//21 19//19 20//20
f 22//22 19//19 21//21
f 22//22 21//21 23//23
f 24//24 22//22 23//23
f 24//24 23//23 25//25
f 26//26 24//24 25//25
f 26//26 25//25 27//27
f 28//28 26//26 27//27
f 28//28 27//27 29//29
f 29//29 27//27 30//30
f 31//31 29//29 30//30
f 31//31 30//30 32//32
f 33//33 31//31 32//32
f 33//33 32//32 34//34
f 35//35 33//33 34//34
f 35//35 34//34 36//36
f 37//37 35//35 36//36
f 37//37 36//36 38//38
f 39//39 37//37 38//38
f 39//39 38//38 40//40
f 41//41 39//39 40//40
f 41//41 40//40 42//42
f 41//41 42//42 43//43
f 43//43 42//42 44//44
f 45//45 43//43 44//44
f 45//45 44//44 46//46
f 47//47 45//45 46//46
f 48//48 45//45 47//47
f 48//48 47//47 49//49
f 50//50 48//48 49//49
f 50//50 49//49 51//51
f 52//52 50//50 51//51
f 52//52 51//51 53//53
f 54//54 52//52 53//53
f 55//55 54//54 53//53
f 55//55 53//53 56//56
f 55//55 56//56 57//57
f 57//57 56//56 58//58
f 57//57 58//58 59//59
f 59//59 58//58 60//60
f 59//59 60//60 61//61
f 61//61 60//60 62//62
f 61//61 62//62 63//63
f 63//63 62//62 64//64
f 63//63 64//64 65//65
f 65//65 64//64 66//66
f 65//65 66//66 67//67
f 68//68 67//67 66//66
f 69//69 67//67 68//68
f 69//69 68//68 70//70
f 71//71 69//69 70//70
f 72//72 71//71 73//73
f 74//74 75//75 76//76
f 77//77 74//74 76//76
f 75//75 77//77 76//76
f 78//78 75//75 74//74
f 79//79 75//75 78//78
f 78//78 74//74 80//80
f 81//81 78//78 80//80
f 82//82 78//78 81//81
f 82//82 83//83 78//78
f 83//83 84//84 79//79
f 84//84 85//85 79//79
f 80//80 74//74 86//86
f 87//87 80//80 86//86
f 81//81 80//80 87//87
f 86//86 74//74 88//88
f 88//88 74//74 77//77
f 86//86 88//88 89//89
f 90//90 86//86 89//89
f 87//87 86//86 90//90
f 75//75 91//91 77//77
f 90//90 89//89 92//92
f 90//90 92//92 93//93
f 94//94 90//90 93//93
f 95//95 83//83 82//82
f 95//95 82//82 81//81
f 95//95 81//81 87//87
f 95//95 87//87 90//90
f 95//95 96//96 83//83
f 97//97 91//91 75//75
f 97//97 98//98 91//91
f 97//97 99//99 98//98
f 100//100 95//95 101//101
f 102//102 103//103 104//104
f 102//102 104//104 105//105
f 102//102 105//105 106//106
f 106//106 105//105 107//107
f 108//108 102//102 106//106
f 109//109 102//102 108//108
f 110//110 108//108 106//106
f 111//111 112//112 113//113
f 111//111 113//113 114//114
f 111//111 114//114 115//115
f 111//111 115//115 116//116
f 111//111 116//116 117//117
f 117//117 118//118 111//111
f 118//118 119//119 111//111
f 120//120 111//111 119//119
f 120//120 121//121 111//111
f 121//121 122//122 111//111
f 111//111 122//122 123//123
f 114//114 113//113 124//124
f 124//124 113//113 125//125
f 125//125 113//113 126//126
f 126//126 113//113 127//127
f 127//127 113//113 128//128
f 128//128 113//113 129//129
f 129//129 113//113 130//130
f 130//130 113//113 131//131
f 131//131 113//113 132//132
f 132//132 113//113 133//133
f 133//133 113//113 134//134
f 133//133 134//134 135//135
f 135//135 134//134 136//136
f 134//134 137//137 136//136
f 137//137 134//134 138//138
f 138//138 134//134 139//139
f 139//139 134//134 140//140
f 140//140 134//134 141//141
f 134//134 142//142 141//141
f 134//134 143//143 142//142
f 134//134 144//144 143//143
f 144//144 134//134 145//145
f 145//145 134//134 146//146
f 147//147 134//134 148//148
f 149//149 150//150 151//151
f 149//149 152//152 150//150
f 151//151 150//150 153//153
f 151//151 153//153 154//154
f 154//154 153//153 155//155
f 154//154 155//155 156//156
f 152//152 157//157 150//150
f 158//158 159//159 160//160
f 161//161 159//159 158//158
f 162//162 159//159 161//161
f 163//163 162//162 161//161
f 164//164 162//162 163//163
f 165//165 162//162 164//164
f 9//9 166//166 8//8
f 166//166 9//9 167//167
f 168//168 169//169 170//170
f 168//168 171//171 169//169
f 172//172 169//169 173//173
f 174//174 169//169 172//172
f 169//169 174//174 175//175
f 176//176 169//169 175//175
f 177//177 169//169 176//176
f 178//178 169//169 177//177
f 178//178 179//179 169//169
f 179//179 180//180 169//169
f 180//180 181//181 169//169
f 182//182 181//181 180//180
f 182//182 183//183 181//181
f 183//183 184//184 181//181
f 184//184 185//185 181//181
f 185//185 186//186 181//181
f 186//186 187//187 181//181
f 187//187 188//188 181//181
f 188//188 189//189 181//181
f 181//181 189//189 190//190
f 181//181 190//190 191//191
f 192//192 181//181 191//191
f 193//193 181//181 192//192
f 194//194 181//181 193//193
f 195//195 181//181 194//194
f 195//195 196//196 181//181
f 196//196 197//197 198//198
f 196//196 198//198 199//199
f 199//199 200//200 196//196
f 196//196 200//200 201//201
f 201//201 202//202 196//196
f 196//196 202//202 203//203
f 196//196 203//203 204//204
f 205//205 196//196 206//206
f 207//207 196//196 205//205
