v -146.1417 -6.914371 8.706534
v -145.4132 1.913192 -5.625333
v -146.1417 -6.914371 8.706534
v -146.1417 -6.914371 8.706535
v -145.8322 -3.891974 10.58388
v -145.7084 -2.683016 11.33482
v -145.7084 -2.683016 11.33482
v -144.9799 6.144547 -2.997048
v -144.2514 14.97211 -17.32891
v -145.4734 -2.625105 11.38244
v -142.1362 15.49331 -16.90038
v -145.4442 -2.617909 11.38835
v -141.8734 15.55808 -16.84712
v -145.4359 -2.615889 11.39001
v -141.7996 15.57626 -16.83217
v -145.3438 -2.593182 11.40868
v -140.9702 15.78062 -16.66414
v -144.2076 -2.313227 11.63887
v -140.844 15.81173 -16.63857
v -143.1304 -2.047794 11.85711
v -143.0065 -2.017259 11.88222
v -140.7105 15.84461 -16.61153
v -142.748 -1.953571 11.93459
v -140.6818 15.85169 -16.60571
v -142.0625 -1.784677 12.07345
v -140.6056 15.87045 -16.59028
v -141.9687 -1.633039 12.17162
v -140.089 16.70543 -16.04972
v -139.7612 17.23517 -15.70677
v -141.9454 -1.595417 12.19598
v -139.5517 17.57378 -15.48756
v -141.9385 -1.58422 12.20323
v -139.4893 17.67455 -15.42233
v -141.8862 -1.499599 12.25801
v -139.018 18.43615 -14.92927
v -141.2854 -0.5287514 12.88653
v -138.9513 18.54403 -14.85943
v -140.7891 0.2733212 13.40578
v -138.8961 18.63314 -14.80174
v -140.2986 1.066102 13.91902
v -138.8416 18.72123 -14.74471
v -140.3341 1.16279 13.97677
v -139.1613 19.59143 -14.22497
v -140.4137 1.379428 14.10616
v -139.8777 21.54117 -13.06046
v -140.6357 1.983813 14.46714
v -140.7245 2.225518 14.6115
v -139.9122 21.63518 -13.00431
v -141.0274 3.049689 15.10375
v -139.9459 21.72675 -12.94962
v -141.2767 3.728306 15.50906
v -139.9736 21.80216 -12.90458
v -141.4498 4.199368 15.79041
v -139.9928 21.8545 -12.87332
v -139.9928 21.8545 -12.87332
v -141.6514 4.293292 15.83802
v -141.8072 22.69981 -12.44488
v -141.7107 4.320937 15.85203
v -142.3412 22.94862 -12.31877
v -141.7168 4.32376 15.85346
v -142.3958 22.97402 -12.3059
v -141.7196 4.325068 15.85412
v -142.421 22.9858 -12.29993
v -141.7231 4.326723 15.85496
v -142.453 23.00069 -12.29239
v -141.789 4.3574 15.87051
v -143.0456 23.27679 -12.15244
v -144.8418 5.779695 16.59139
v -143.3848 23.43483 -12.07234
v -144.8418 5.779697 16.59139
v -143.3848 23.43483 -12.07234
v -144.8418 5.779697 16.59139
v -144.8418 5.779697 16.59139
v -144.7179 6.988656 17.34233
v -144.4084 10.01105 19.21968
v -144.4084 10.01105 19.21968
v -144.4084 10.01105 19.21968
v -144.8418 5.779697 16.59139
v -144.8418 5.779697 16.59139
v -144.8418 5.779697 16.59139
v -143.3848 23.43483 -12.07234
v -143.3848 23.43483 -12.07234
v -143.3848 23.43483 -12.07234
v -144.8418 5.779697 16.59139
v -137.6244 6.850394 17.61772
v -144.8418 5.779697 16.59139
v -143.3848 23.43483 -12.07234
v -144.8418 5.779697 16.59139
v -144.1133 14.60726 2.259522
v -143.3848 23.43483 -12.07234
v -143.68 18.83862 4.887807
v -143.3848 23.43482 -12.07233
v -143.3848 23.43483 -12.07234
v -143.261 24.64378 -11.32141
v -136.1675 24.50552 -11.04601
v -143.3848 23.43483 -12.07234
v -137.6244 6.850394 17.61772
v -142.9515 27.66618 -9.444059
v -136.1675 24.50552 -11.04601
v -139.9928 21.8545 -12.87332
v -139.9928 21.8545 -12.87332
v -145.4132 1.913192 -5.625333
v -146.1417 -6.914371 8.706534
v -146.1417 -6.914371 8.706535
v -145.8322 -3.891974 10.58388
v -144.9799 6.144547 -2.997048
v -145.7084 -2.683016 11.33482
v -144.4309 13.21943 -18.41759
v -144.6848 10.74076 -19.9572
v -144.2514 14.97211 -17.32891
v -146.1417 -6.914371 8.706534
v -138.85 -5.11769 10.1838
v -135.3221 0.5838633 13.87494
v -142.0625 -1.784677 12.07345
v -142.748 -1.953571 11.93459
v -143.0065 -2.017259 11.88222
v -143.1304 -2.047794 11.85711
v -144.2076 -2.313227 11.63887
v -145.3438 -2.593182 11.40868
v -145.4359 -2.615889 11.39001
v -145.4442 -2.617909 11.38835
v -145.4734 -2.625105 11.38244
v -145.7084 -2.683016 11.33482
v -141.9687 -1.633039 12.17162
v -141.9454 -1.595417 12.19598
v -141.9385 -1.58422 12.20323
v -141.8862 -1.499599 12.25801
v -141.2854 -0.5287514 12.88653
v -140.7891 0.2733212 13.40578
v -140.2986 1.066102 13.91902
v -140.3341 1.16279 13.97677
v -140.4137 1.379428 14.10616
v -140.6357 1.983813 14.46714
v -137.6244 6.850394 17.61772
v -140.7245 2.225518 14.6115
v -141.0274 3.049689 15.10375
v -141.2767 3.728306 15.50906
v -141.4498 4.199368 15.79041
v -141.6514 4.293292 15.83802
v -141.7107 4.320937 15.85203
v -141.7168 4.32376 15.85346
v -141.7196 4.325068 15.85412
v -141.7231 4.326723 15.85496
v -141.789 4.3574 15.87051
v -144.8418 5.779695 16.59139
v -144.8418 5.779697 16.59139
v -144.8418 5.779697 16.59139
v -144.4084 10.01105 19.21968
v -146.1417 -6.914371 8.706534
v -137.3931 12.53744 -18.47993
v -138.85 -5.11769 10.1838
v -145.4132 1.913192 -5.625333
v -133.8651 18.23899 -14.78879
v -135.3221 0.5838633 13.87494
v -136.1675 24.50552 -11.04601
v -137.6244 6.850394 17.61772
v -144.6848 10.74076 -19.9572
v -144.4084 10.01105 19.21968
v -144.1133 14.60726 2.259522
v -144.8418 5.779697 16.59139
v -143.68 18.83862 4.887807
v -143.3848 23.43482 -12.07233
v -142.9515 27.66618 -9.444059
v -143.261 24.64378 -11.32141
v -143.3848 23.43483 -12.07234
v -144.2514 14.97211 -17.32891
v -137.3931 12.53744 -18.47993
v -144.4309 13.21943 -18.41759
v -137.3931 12.53744 -18.47993
v -144.6848 10.74076 -19.9572
v -144.2514 14.97211 -17.32891
v -142.1362 15.49331 -16.90038
v -144.2514 14.97211 -17.32891
v -141.8734 15.55808 -16.84712
v -141.7996 15.57626 -16.83217
v -140.9702 15.78062 -16.66414
v -140.844 15.81173 -16.63857
v -140.7105 15.84461 -16.61153
v -140.6818 15.85169 -16.60571
v -140.6056 15.87045 -16.59028
v -133.8651 18.23899 -14.78879
v -140.089 16.70543 -16.04972
v -139.7612 17.23517 -15.70677
v -139.5517 17.57378 -15.48756
v -139.4893 17.67455 -15.42233
v -139.018 18.43615 -14.92927
v -138.9513 18.54403 -14.85943
v -138.8961 18.63314 -14.80174
v -138.8416 18.72123 -14.74471
v -139.1613 19.59143 -14.22497
v -139.8777 21.54117 -13.06046
v -139.9122 21.63518 -13.00431
v -139.9459 21.72675 -12.94962
v -139.9736 21.80216 -12.90458
v -139.9928 21.8545 -12.87332
v -136.1675 24.50552 -11.04601
v -139.9928 21.8545 -12.87332
v -141.8072 22.69981 -12.44488
v -142.3412 22.94862 -12.31877
v -142.3958 22.97402 -12.3059
v -142.421 22.9858 -12.29993
v -142.453 23.00069 -12.29239
v -143.0456 23.27679 -12.15244
v -143.3848 23.43483 -12.07234
v -143.261 24.64378 -11.32141
v -143.3848 23.43483 -12.07234
v -142.9515 27.66618 -9.444059

vn -0.08666281 -0.8462712 -0.5256564
vn -0.0866628 -0.8462711 -0.5256565
vn -0.09393767 -0.9835188 0.1544879
vn -0.04323716 -0.5239499 0.850651
vn -0.04323716 -0.5239499 0.850651
vn -0.3008231 0.8187602 0.4890166
vn 0.07967715 0.7636681 0.6406737
vn -0.9461864 0.2948075 0.1334904
vn -0.3008187 0.8187613 0.4890172
vn -0.3008179 0.8187616 0.4890175
vn -0.3008182 0.8187615 0.4890174
vn -0.3008192 0.8187613 0.4890171
vn -0.3008202 0.8187611 0.4890168
vn -0.3008147 0.8187622 0.4890185
vn -0.3008173 0.8187616 0.4890177
vn -0.3008178 0.8187615 0.4890175
vn -0.3008177 0.8187616 0.4890176
vn -0.3008176 0.8187616 0.4890176
vn -0.3008179 0.8187615 0.4890175
vn -0.3008176 0.8187616 0.4890176
vn -0.3008187 0.8187613 0.4890173
vn -0.3008202 0.818761 0.489017
vn -0.3008181 0.8187614 0.4890175
vn -0.3008173 0.8187617 0.4890177
vn -0.4410747 0.7739869 0.45431
vn -0.8667776 0.4430823 0.228855
vn -0.886373 0.4129584 0.2093044
vn -0.8863725 0.4129589 0.2093048
vn -0.8863724 0.4129592 0.209305
vn -0.8863716 0.4129607 0.2093062
vn -0.8863708 0.4129616 0.2093068
vn -0.8863701 0.4129628 0.2093078
vn -0.8863714 0.4129608 0.2093063
vn -0.8863719 0.41296 0.2093055
vn -0.8863723 0.4129596 0.2093052
vn -0.8863722 0.4129595 0.2093051
vn -0.8863717 0.4129604 0.2093057
vn -0.886372 0.4129599 0.2093054
vn -0.8863726 0.412959 0.2093048
vn -0.9147893 0.363033 0.1771089
vn -0.9704724 -0.1802162 -0.1603299
vn -0.9527012 -0.2347465 -0.193014
vn -0.952701 -0.2347474 -0.1930145
vn -0.9527008 -0.2347479 -0.1930149
vn -0.9527007 -0.2347479 -0.1930149
vn -0.9527008 -0.2347476 -0.1930146
vn -0.952701 -0.2347472 -0.1930142
vn -0.9527009 -0.2347475 -0.1930145
vn -0.9527011 -0.2347472 -0.1930144
vn -0.9527009 -0.2347475 -0.1930145
vn -0.952701 -0.2347475 -0.1930145
vn -0.952701 -0.2347471 -0.1930142
vn -0.874738 -0.3914938 -0.285598
vn -0.952708 -0.2347281 -0.1930029
vn -0.4609509 -0.7449433 -0.4822694
vn -0.4609497 -0.7449437 -0.4822697
vn -0.4609494 -0.744944 -0.4822699
vn -0.4609482 -0.7449443 -0.4822702
vn -0.4609501 -0.7449437 -0.4822696
vn -0.4609516 -0.7449432 -0.482269
vn -0.460954 -0.7449421 -0.4822682
vn -0.4609943 -0.7449264 -0.4822539
vn -0.460969 -0.7449363 -0.4822629
vn -0.4609436 -0.7449463 -0.4822718
vn -0.4609473 -0.7449448 -0.4822706
vn -0.4609498 -0.7449437 -0.4822696
vn -0.4609503 -0.7449435 -0.4822695
vn -0.4609506 -0.7449434 -0.4822695
vn -0.4609551 -0.7449413 -0.4822685
vn -0.6029187 -0.6652394 -0.4403926
vn -0.08666279 -0.846271 -0.5256567
vn -0.08666279 -0.846271 -0.5256567
vn -0.08666279 -0.846271 -0.5256567
vn -0.04323716 -0.5239499 0.850651
vn 0.46095 0.7449437 0.4822695
vn -0.04323716 -0.5239499 0.850651
vn -0.9755954 0.2056115 0.07705628
vn -0.08916156 -0.9480298 0.3054335
vn -0.08454473 -0.9096429 0.4066965
vn -0.08951574 -0.8813584 -0.4638904
vn -0.08666279 -0.846271 -0.5256567
vn -0.08666279 -0.846271 -0.5256567
vn -0.08666279 -0.846271 -0.5256567
vn -0.09065538 -0.8957379 -0.4352414
vn -0.04323716 -0.5239499 0.850651
vn -0.08720908 -0.8528374 -0.5148426
vn -0.08666279 -0.846271 -0.5256567
vn -0.09190644 -0.9118632 -0.4000734
vn -0.0866562 -0.8462716 -0.5256568
vn -0.08390417 -0.8132859 -0.575783
vn 0.46095 0.7449437 0.4822695
vn -0.08663926 -0.8462733 -0.5256569
vn 0.04323656 0.523944 -0.8506547
vn 0.04323716 0.5239499 -0.850651
vn 0.04323759 0.5239498 -0.850651
vn 0 0 0
vn 0.4609501 0.7449437 0.4822695
vn 0.4609501 0.7449437 0.4822696
vn 0.4609501 0.7449437 0.4822696
vn 0.04323759 0.5239498 -0.850651
vn 0.04323759 0.5239498 -0.850651
vn -0.995299 0.09644774 0.008816528
vn -0.9952989 0.09644774 0.008816528
vn -0.995299 0.09644774 0.008816528
vn -0.995299 0.09644774 0.008816528
vn -0.995299 0.09644774 0.008816528
vn -0.995299 0.09644774 0.008816528
vn -0.995299 0.09644774 0.008816528
vn -0.995299 0.09644774 0.008816528
vn -0.995299 0.09644774 0.008816528
vn -0.04323716 -0.5239499 0.850651
vn -0.04323716 -0.5239499 0.850651
vn -0.04323716 -0.5239499 0.850651
vn -0.04323716 -0.5239499 0.850651
vn -0.04323716 -0.5239499 0.850651
vn -0.04323716 -0.5239499 0.850651
vn -0.04323716 -0.5239499 0.850651
vn -0.04323716 -0.5239499 0.850651
vn -0.04323716 -0.5239499 0.850651
vn -0.04323716 -0.5239499 0.850651
vn -0.04323716 -0.5239499 0.850651
vn -0.04323716 -0.5239499 0.850651
vn -0.04323716 -0.5239499 0.850651
vn -0.04323716 -0.5239498 0.850651
vn -0.04323716 -0.5239499 0.850651
vn -0.04323716 -0.5239499 0.850651
vn -0.04323716 -0.5239498 0.850651
vn -0.04323716 -0.5239499 0.850651
vn -0.04323716 -0.5239499 0.850651
vn -0.04323716 -0.5239499 0.850651
vn -0.04323716 -0.5239498 0.850651
vn -0.04323716 -0.5239499 0.850651
vn -0.04323716 -0.5239499 0.850651
vn -0.04323716 -0.5239499 0.850651
vn -0.04323716 -0.5239499 0.850651
vn -0.04323716 -0.5239499 0.850651
vn -0.04323716 -0.5239499 0.850651
vn -0.04323716 -0.5239499 0.850651
vn -0.04323716 -0.5239499 0.850651
vn -0.04323716 -0.5239499 0.850651
vn -0.04323716 -0.5239499 0.850651
vn -0.04323716 -0.5239498 0.850651
vn -0.04323716 -0.5239499 0.850651
vn -0.04323716 -0.5239498 0.850651
vn -0.04323716 -0.5239498 0.850651
vn -0.04323716 -0.5239499 0.850651
vn -0.04323716 -0.5239498 0.850651
vn -0.04323716 -0.5239498 0.850651
vn 0.3008183 -0.8187616 -0.4890174
vn 0.5318244 -0.7328565 -0.4243634
vn 0.7411052 -0.5878202 -0.3243924
vn 0.3008183 -0.8187614 -0.4890173
vn 0.9740924 -0.2112889 -0.08062962
vn 0.9977987 0.02020616 0.06316225
vn 0.9527008 0.2347476 0.1930146
vn 0.9527009 0.2347476 0.1930146
vn 0.3008182 -0.8187615 -0.4890174
vn -0.995299 0.09644774 0.008816528
vn -0.995299 0.09644774 0.008816528
vn -0.995299 0.09644774 0.008816528
vn -0.995299 0.09644774 0.008816528
vn -0.995299 0.09644774 0.008816528
vn -0.995299 0.09644774 0.008816528
vn -0.995299 0.09644774 0.008816521
vn -0.9952989 0.09644774 0.00881652
vn 0.09363052 0.9349437 0.3422187
vn 0.0432371 0.5239492 -0.8506514
vn 0.04323738 0.5239498 -0.850651
vn 0.04323739 0.5239497 -0.8506511
vn 0.04323738 0.5239498 -0.850651
vn 0.04323738 0.5239498 -0.850651
vn 0.04323727 0.5239496 -0.8506511
vn 0.04323727 0.5239496 -0.8506511
vn 0.04323727 0.5239496 -0.8506511
vn 0.04323727 0.5239496 -0.8506511
vn 0.04323727 0.5239496 -0.8506511
vn 0.04323726 0.5239495 -0.8506511
vn 0.04323727 0.5239496 -0.8506511
vn 0.04323726 0.5239495 -0.8506511
vn 0.04323746 0.5239497 -0.8506511
vn 0.04323747 0.5239498 -0.850651
vn 0.04323746 0.5239497 -0.8506511
vn 0.04323746 0.5239497 -0.8506511
vn 0.04323746 0.5239497 -0.8506511
vn 0.04323746 0.5239497 -0.8506511
vn 0.04323746 0.5239497 -0.8506511
vn 0.04323746 0.5239497 -0.8506511
vn 0.04323746 0.5239497 -0.8506511
vn 0.04323748 0.5239499 -0.850651
vn 0.04323748 0.5239499 -0.850651
vn 0.04323748 0.5239499 -0.850651
vn 0.04323748 0.5239499 -0.850651
vn 0.04323748 0.5239499 -0.850651
vn 0.04323748 0.5239499 -0.850651
vn 0.04323748 0.5239499 -0.850651
vn 0.04323741 0.5239499 -0.850651
vn 0.04323732 0.5239501 -0.8506508
vn 0.04323732 0.5239501 -0.8506508
vn 0.04323732 0.5239501 -0.8506508
vn 0.04323732 0.5239501 -0.8506508
vn 0.04323732 0.5239501 -0.8506508
vn 0.04323732 0.5239501 -0.8506508
vn 0.04323732 0.5239501 -0.8506508
vn 0.04323731 0.52395 -0.8506508
vn 0.04323738 0.5239498 -0.850651
vn 0.04323738 0.5239498 -0.850651
vn 0.04323738 0.5239498 -0.850651

f 1//1 2//2 3//3
f 4//4 1//1 3//3
f 3//3 5//5 4//4
f 3//3 6//6 5//5
f 5//5 6//6 7//7
f 8//8 7//7 6//6
f 9//9 8//8 6//6
f 10//10 9//9 6//6
f 9//9 10//10 11//11
f 11//11 10//10 12//12
f 13//13 11//11 12//12
f 13//13 12//12 14//14
f 13//13 14//14 15//15
f 15//15 14//14 16//16
f 15//15 16//16 17//17
f 18//18 17//17 16//16
f 19//19 17//17 18//18
f 19//19 18//18 20//20
f 21//21 19//19 20//20
f 22//22 19//19 21//21
f 22//22 21//21 23//23
f 24//24 22//22 23//23
f 24//24 23//23 25//25
f 26//26 24//24 25//25
f 26//26 25//25 27//27
f 28//28 26//26 27//27
f 28//28 27//27 29//29
f 29//29 27//27 30//30
f 31//31 29//29 30//30
f 31//31 30//30 32//32
f 33//33 31//31 32//32
f 33//33 32//32 34//34
f 35//35 33//33 34//34
f 35//35 34//34 36//36
f 37//37 35//35 36//36
f 37//37 36//36 38//38
f 39//39 37//37 38//38
f 39//39 38//38 40//40
f 41//41 39//39 40//40
f 41//41 40//40 42//42
f 41//41 42//42 43//43
f 43//43 42//42 44//44
f 45//45 43//43 44//44
f 45//45 44//44 46//46
f 47//47 45//45 46//46
f 48//48 45//45 47//47
f 48//48 47//47 49//49
f 50//50 48//48 49//49
f 50//50 49//49 51//51
f 52//52 50//50 51//51
f 52//52 51//51 53//53
f 54//54 52//52 53//53
f 55//55 54//54 53//53
f 55//55 53//53 56//56
f 55//55 56//56 57//57
f 57//57 56//56 58//58
f 57//57 58//58 59//59
f 59//59 58//58 60//60
f 59//59 60//60 61//61
f 61//61 60//60 62//62
f 61//61 62//62 63//63
f 63//63 62//62 64//64
f 63//63 64//64 65//65
f 65//65 64//64 66//66
f 65//65 66//66 67//67
f 68//68 67//67 66//66
f 69//69 67//67 68//68
f 69//69 68//68 70//70
f 71//71 69//69 70//70
f 72//72 71//71 73//73
f 74//74 75//75 76//76
f 77//77 74//74 76//76
f 75//75 77//77 76//76
f 78//78 75//75 74//74
f 79//79 75//75 78//78
f 78//78 74//74 80//80
f 81//81 78//78 80//80
f 82//82 78//78 81//81
f 82//82 83//83 78//78
f 83//83 84//84 79//79
f 84//84 85//85 79//79
f 80//80 74//74 86//86
f 87//87 80//80 86//86
f 81//81 80//80 87//87
f 86//86 74//74 88//88
f 88//88 74//74 77//77
f 86//86 88//88 89//89
f 90//90 86//86 89//89
f 87//87 86//86 90//90
f 75//75 91//91 77//77
f 90//90 89//89 92//92
f 90//90 92//92 93//93
f 94//94 90//90 93//93
f 95//95 83//83 82//82
f 95//95 82//82 81//81
f 95//95 81//81 87//87
f 95//95 87//87 90//90
f 95//95 96//96 83//83
f 97//97 91//91 75//75
f 97//97 98//98 91//91
f 97//97 99//99 98//98
f 100//100 95//95 101//101
f 102//102 103//103 104//104
f 102//102 104//104 105//105
f 102//102 105//105 106//106
f 106//106 105//105 107//107
f 108//108 102//102 106//106
f 109//109 102//102 108//108
f 110//110 108//108 106//106
f 111//111 112//112 113//113
f 111//111 113//113 114//114
f 111//111 114//114 115//115
f 111//111 115//115 116//116
f 111//111 116//116 117//117
f 117//117 118//118 111//111
f 118//118 119//119 111//111
f 120//120 111//111 119//119
f 120//120 121//121 111//111
f 121//121 122//122 111//111
f 111//111 122//122 123//123
f 114//114 113//113 124//124
f 124//124 113//113 125//125
f 125//125 113//113 126//126
f 126//126 113//113 127//127
f 127//127 113//113 128//128
f 128//128 113//113 129//129
f 129//129 113//113 130//130
f 130//130 113//113 131//131
f 131//131 113//113 132//132
f 132//132 113//113 133//133
f 133//133 113//113 134//134
f 133//133 134//134 135//135
f 135//135 134//134 136//136
f 134//134 137//137 136//136
f 137//137 134//134 138//138
f 138//138 134//134 139//139
f 139//139 134//134 140//140
f 140//140 134//134 141//141
f 134//134 142//142 141//141
f 134//134 143//143 142//142
f 134//134 144//144 143//143
f 144//144 134//134 145//145
f 145//145 134//134 146//146
f 147//147 134//134 148//148
f 149//149 150//150 151//151
f 149//149 152//152 150//150
f 151//151 150//150 153//153
f 151//151 153//153 154//154
f 154//154 153//153 155//155
f 154//154 155//155 156//156
f 152//152 157//157 150//150
f 158//158 159//159 160//160
f 161//161 159//159 158//158
f 162//162 159//159 161//161
f 163//163 162//162 161//161
f 164//164 162//162 163//163
f 165//165 162//162 164//164
f 9//9 166//166 8//8
f 166//166 9//9 167//167
f 168//168 169//169 170//170
f 168//168 171//171 169//169
f 172//172 169//169 173//173
f 174//174 169//169 172//172
f 169//169 174//174 175//175
f 176//176 169//169 175//175
f 177//177 169//169 176//176
f 178//178 169//169 177//177
f 178//178 179//179 169//169
f 179//179 180//180 169//169
f 180//180 181//181 169//169
f 182//182 181//181 180//180
f 182//182 183//183 181//181
f 183//183 184//184 181//181
f 184//184 185//185 181//181
f 185//185 186//186 181//181
f 186//186 187//187 181//181
f 187//187 188//188 181//181
f 188//188 189//189 181//181
f 181//181 189//189 190//190
f 181//181 190//190 191//191
f 192//192 181//181 191//191
f 193//193 181//181 192//192
f 194//194 181//181 193//193
f 195//195 181//181 194//194
f 195//195 196//196 181//181
f 196//196 197//197 198//198
f 196//196 198//198 199//199
f 199//199 200//200 196//196
f 196//196 200//200 201//201
f 201//201 202//202 196//196
f 196//196 202//202 203//203
f 196//196 203//203 204//204
f 205//205 196//196 206//206
f 207//207 196//196 205//205
