v -57.23717 -132.3965 -27.8836
v -46.53016 -129.8689 -45.68407
v -57.23717 -132.3965 -27.8836
v -57.23717 -132.3965 -27.8836
v -59.95331 -130.5239 -29.25146
v -61.03977 -129.7748 -29.7986
v -61.03977 -129.7748 -29.7986
v -50.33276 -127.2472 -47.59908
v -39.62576 -124.7197 -65.39955
v -61.02045 -129.5332 -29.75268
v -39.45193 -122.5452 -64.98623
v -61.01805 -129.5032 -29.74697
v -39.43033 -122.275 -64.93487
v -61.01738 -129.4948 -29.74537
v -39.42426 -122.1991 -64.92045
v -61.00981 -129.4 -29.72736
v -39.35611 -121.3465 -64.75838
v -60.91644 -128.232 -29.50535
v -39.34573 -121.2167 -64.73372
v -60.82791 -127.1246 -29.29485
v -60.81773 -126.9972 -29.27064
v -39.33477 -121.0795 -64.70764
v -60.79649 -126.7315 -29.22013
v -39.33241 -121.05 -64.70203
v -60.74016 -126.0268 -29.08619
v -39.32615 -120.9717 -64.68714
v -60.85204 -125.8626 -29.13017
v -39.94222 -120.0672 -64.92928
v -40.33308 -119.4933 -65.0829
v -60.8798 -125.8218 -29.14108
v -40.58292 -119.1265 -65.18109
v -60.88806 -125.8097 -29.14432
v -40.65727 -119.0173 -65.21031
v -60.9505 -125.718 -29.16886
v -41.21922 -118.1923 -65.43117
v -61.66683 -124.6663 -29.4504
v -41.29881 -118.0755 -65.46245
v -62.25863 -123.7974 -29.68299
v -41.36456 -117.9789 -65.4883
v -62.84357 -122.9386 -29.91289
v -41.42956 -117.8835 -65.51384
v -62.94461 -122.9195 -29.97095
v -42.33892 -117.7115 -66.03639
v -63.171 -122.8767 -30.10104
v -44.37641 -117.326 -67.20722
v -63.80258 -122.7572 -30.46398
v -64.05517 -122.7094 -30.60912
v -44.47465 -117.3075 -67.26367
v -64.91643 -122.5465 -31.10404
v -44.57034 -117.2894 -67.31866
v -65.62559 -122.4124 -31.51155
v -44.64914 -117.2745 -67.36395
v -66.11785 -122.3193 -31.79442
v -44.70383 -117.2641 -67.39537
v -44.70383 -117.2641 -67.39537
v -66.26804 -122.4507 -31.90343
v -46.05559 -118.4474 -68.37648
v -66.31225 -122.4894 -31.93552
v -46.45346 -118.7957 -68.66525
v -66.31676 -122.4934 -31.9388
v -46.49408 -118.8313 -68.69473
v -66.31886 -122.4952 -31.94031
v -46.51291 -118.8478 -68.7084
v -66.3215 -122.4975 -31.94223
v -46.53672 -118.8686 -68.72569
v -66.37056 -122.5405 -31.97784
v -46.97824 -119.2551 -69.04614
v -68.64497 -124.5315 -33.62861
v -47.23095 -119.4764 -69.22957
v -68.64497 -124.5315 -33.62862
v -47.23095 -119.4764 -69.22957
v -68.64497 -124.5315 -33.62862
v -68.64497 -124.5315 -33.62862
v -69.73142 -123.7825 -34.17576
v -72.44757 -121.9099 -35.54362
v -72.44757 -121.9099 -35.54362
v -72.44756 -121.9099 -35.54362
v -68.64497 -124.5315 -33.62862
v -68.64497 -124.5315 -33.62862
v -68.64497 -124.5315 -33.62862
v -47.23095 -119.4764 -69.22957
v -47.23095 -119.4764 -69.22957
v -47.23095 -119.4764 -69.22957
v -68.64497 -124.5315 -33.62862
v -67.39333 -117.4854 -31.87523
v -68.64497 -124.5315 -33.62862
v -47.23095 -119.4764 -69.22957
v -68.64497 -124.5315 -33.62862
v -57.93796 -122.0039 -51.42909
v -47.23095 -119.4764 -69.22957
v -61.74056 -119.3823 -53.3441
v -47.23096 -119.4764 -69.22955
v -47.23095 -119.4764 -69.22957
v -48.31741 -118.7273 -69.77671
v -45.97932 -112.4302 -67.47618
v -47.23095 -119.4764 -69.22957
v -67.39333 -117.4854 -31.87523
v -51.03355 -116.8547 -71.14457
v -45.97932 -112.4302 -67.47618
v -44.70383 -117.2641 -67.39537
v -44.70383 -117.2641 -67.39537
v -46.53016 -129.8689 -45.68407
v -57.23717 -132.3965 -27.8836
v -57.23717 -132.3965 -27.8836
v -59.95331 -130.5239 -29.25146
v -50.33276 -127.2472 -47.59908
v -61.03977 -129.7748 -29.7986
v -38.05067 -125.8056 -64.60633
v -35.82315 -127.3413 -63.48455
v -39.62576 -124.7197 -65.39955
v -57.23717 -132.3965 -27.8836
v -56.63795 -124.9005 -26.45878
v -60.84477 -118.7241 -28.11217
v -60.74016 -126.0268 -29.08619
v -60.79649 -126.7315 -29.22013
v -60.81773 -126.9972 -29.27064
v -60.82791 -127.1246 -29.29485
v -60.91644 -128.232 -29.50535
v -61.00981 -129.4 -29.72736
v -61.01738 -129.4948 -29.74537
v -61.01805 -129.5032 -29.74697
v -61.02045 -129.5332 -29.75268
v -61.03977 -129.7748 -29.7986
v -60.85204 -125.8626 -29.13017
v -60.8798 -125.8218 -29.14108
v -60.88806 -125.8097 -29.14432
v -60.9505 -125.718 -29.16886
v -61.66683 -124.6663 -29.4504
v -62.25863 -123.7974 -29.68299
v -62.84357 -122.9386 -29.91289
v -62.94461 -122.9195 -29.97095
v -63.171 -122.8767 -30.10104
v -63.80258 -122.7572 -30.46398
v -67.39333 -117.4854 -31.87523
v -64.05517 -122.7094 -30.60912
v -64.91643 -122.5465 -31.10404
v -65.62559 -122.4124 -31.51155
v -66.11785 -122.3193 -31.79442
v -66.26804 -122.4507 -31.90343
v -66.31225 -122.4894 -31.93552
v -66.31676 -122.4934 -31.9388
v -66.31886 -122.4952 -31.94031
v -66.3215 -122.4975 -31.94223
v -66.37056 -122.5405 -31.97784
v -68.64497 -124.5315 -33.62861
v -68.64497 -124.5315 -33.62862
v -68.64497 -124.5315 -33.62862
v -72.44757 -121.9099 -35.54362
v -57.23717 -132.3965 -27.8836
v -35.22394 -119.8453 -62.05973
v -56.63795 -124.9005 -26.45878
v -46.53016 -129.8689 -45.68407
v -39.43076 -113.669 -63.71312
v -60.84477 -118.7241 -28.11217
v -45.97932 -112.4302 -67.47618
v -67.39333 -117.4854 -31.87523
v -35.82315 -127.3413 -63.48455
v -72.44756 -121.9099 -35.54362
v -57.93796 -122.0039 -51.42909
v -68.64497 -124.5315 -33.62862
v -61.74056 -119.3823 -53.3441
v -47.23096 -119.4764 -69.22955
v -51.03355 -116.8547 -71.14457
v -48.31741 -118.7273 -69.77671
v -47.23095 -119.4764 -69.22957
v -39.62576 -124.7197 -65.39955
v -35.22394 -119.8453 -62.05973
v -38.05067 -125.8056 -64.60633
v -35.22394 -119.8453 -62.05973
v -35.82315 -127.3413 -63.48455
v -39.62576 -124.7197 -65.39955
v -39.45193 -122.5452 -64.98623
v -39.62576 -124.7197 -65.39955
v -39.43033 -122.275 -64.93487
v -39.42426 -122.1991 -64.92045
v -39.35611 -121.3465 -64.75838
v -39.34573 -121.2167 -64.73372
v -39.33477 -121.0795 -64.70764
v -39.33241 -121.05 -64.70203
v -39.32615 -120.9717 -64.68714
v -39.43076 -113.669 -63.71312
v -39.94222 -120.0672 -64.92928
v -40.33308 -119.4933 -65.0829
v -40.58292 -119.1265 -65.18109
v -40.65727 -119.0173 -65.21031
v -41.21922 -118.1923 -65.43117
v -41.29881 -118.0755 -65.46245
v -41.36456 -117.9789 -65.4883
v -41.42956 -117.8835 -65.51384
v -42.33892 -117.7115 -66.03639
v -44.37641 -117.326 -67.20722
v -44.47465 -117.3075 -67.26367
v -44.57034 -117.2894 -67.31866
v -44.64914 -117.2745 -67.36395
v -44.70383 -117.2641 -67.39537
v -45.97932 -112.4302 -67.47618
v -44.70383 -117.2641 -67.39537
v -46.05559 -118.4474 -68.37648
v -46.45346 -118.7957 -68.66525
v -46.49408 -118.8313 -68.69473
v -46.51291 -118.8478 -68.7084
v -46.53672 -118.8686 -68.72569
v -46.97824 -119.2551 -69.04614
v -47.23095 -119.4764 -69.22957
v -48.31741 -118.7273 -69.77671
v -47.23095 -119.4764 -69.22957
v -51.03355 -116.8547 -71.14457

vn 0.7605189 -0.5243293 0.3830014
vn 0.760519 -0.5243293 0.3830012
vn 0.2444406 -0.4767083 0.8443922
vn -0.5116673 -0.120788 0.8506508
vn -0.5116673 -0.120788 0.8506508
vn -0.8556097 0.1618464 -0.4916687
vn -0.8252362 0.5019776 -0.2588518
vn -0.5690489 -0.694144 -0.4408486
vn -0.8556091 0.1618509 -0.491668
vn -0.8556092 0.1618518 -0.4916679
vn -0.8556091 0.1618514 -0.491668
vn -0.8556092 0.1618504 -0.4916683
vn -0.8556092 0.1618494 -0.4916685
vn -0.8556091 0.161855 -0.4916669
vn -0.8556091 0.1618523 -0.4916677
vn -0.8556091 0.1618518 -0.4916678
vn -0.8556092 0.161852 -0.4916678
vn -0.8556091 0.161852 -0.4916677
vn -0.8556092 0.1618517 -0.4916678
vn -0.8556092 0.1618521 -0.4916678
vn -0.8556092 0.1618509 -0.491668
vn -0.8556093 0.1618494 -0.4916683
vn -0.8556092 0.1618515 -0.4916678
vn -0.8556092 0.1618524 -0.4916677
vn -0.8576294 0.01227542 -0.514122
vn -0.6822951 -0.5446018 -0.487732
vn -0.6603661 -0.5780926 -0.4792973
vn -0.6603665 -0.5780919 -0.4792974
vn -0.6603667 -0.5780917 -0.4792975
vn -0.660368 -0.5780901 -0.4792978
vn -0.6603687 -0.5780889 -0.479298
vn -0.6603698 -0.5780876 -0.4792981
vn -0.6603681 -0.5780899 -0.4792978
vn -0.6603673 -0.5780908 -0.4792976
vn -0.660367 -0.5780913 -0.4792976
vn -0.6603669 -0.5780913 -0.4792976
vn -0.6603675 -0.5780904 -0.4792978
vn -0.6603673 -0.578091 -0.4792977
vn -0.6603665 -0.5780919 -0.4792975
vn -0.622758 -0.6299523 -0.4640398
vn -0.1345718 -0.9665825 -0.218195
vn -0.07829253 -0.9793948 -0.1861621
vn -0.07829161 -0.979395 -0.1861616
vn -0.07829099 -0.9793952 -0.1861613
vn -0.07829101 -0.9793951 -0.1861613
vn -0.07829138 -0.979395 -0.1861615
vn -0.07829192 -0.9793949 -0.1861617
vn -0.07829151 -0.979395 -0.1861615
vn -0.07829183 -0.979395 -0.1861617
vn -0.07829154 -0.979395 -0.1861615
vn -0.07829157 -0.9793951 -0.1861615
vn -0.07829194 -0.9793949 -0.1861617
vn 0.09185466 -0.9920848 -0.08562019
vn -0.07831185 -0.9793912 -0.1861731
vn 0.5496465 -0.8069832 0.2160255
vn 0.5496473 -0.8069825 0.2160261
vn 0.5496477 -0.8069823 0.2160263
vn 0.5496485 -0.8069815 0.2160268
vn 0.549647 -0.8069828 0.216026
vn 0.5496459 -0.8069838 0.2160255
vn 0.5496439 -0.8069853 0.2160244
vn 0.5496112 -0.8070121 0.2160075
vn 0.5496317 -0.8069953 0.216018
vn 0.5496523 -0.8069785 0.2160288
vn 0.5496494 -0.8069809 0.2160272
vn 0.5496472 -0.8069825 0.2160261
vn 0.5496468 -0.8069829 0.2160258
vn 0.5496467 -0.8069831 0.2160257
vn 0.5496434 -0.806986 0.2160232
vn 0.4312576 -0.8924195 0.132683
vn 0.7605191 -0.5243292 0.3830011
vn 0.7605191 -0.5243292 0.3830011
vn 0.7605191 -0.5243292 0.3830011
vn -0.5116673 -0.120788 0.8506508
vn -0.549647 0.8069828 -0.2160261
vn -0.5116673 -0.120788 0.8506508
vn -0.4952062 -0.7676148 -0.4068645
vn 0.1048618 -0.4323792 0.8955737
vn 0.00568772 -0.3951775 0.9185872
vn 0.7222437 -0.5315861 0.4424711
vn 0.7605191 -0.5243292 0.3830011
vn 0.7605191 -0.5243292 0.3830011
vn 0.7605191 -0.5243292 0.3830011
vn 0.7037708 -0.5339819 0.4685832
vn -0.5116673 -0.120788 0.8506508
vn 0.7539765 -0.5258216 0.3937402
vn 0.7605191 -0.5243292 0.3830011
vn 0.6805148 -0.5361415 0.4994519
vn 0.7605217 -0.5243237 0.3830035
vn 0.789871 -0.5161257 0.3312378
vn -0.549647 0.8069827 -0.216026
vn 0.7605286 -0.5243093 0.3830096
vn 0.5116726 0.1207844 -0.8506482
vn 0.5116673 0.120788 -0.8506508
vn 0.5116675 0.1207884 -0.8506507
vn 0 0 0
vn -0.549647 0.8069828 -0.216026
vn -0.549647 0.8069828 -0.216026
vn -0.5496471 0.8069828 -0.216026
vn 0.5116675 0.1207884 -0.8506507
vn 0.5116675 0.1207884 -0.8506507
vn -0.3997591 -0.8429053 -0.3601438
vn -0.3997591 -0.8429053 -0.3601438
vn -0.3997591 -0.8429053 -0.3601438
vn -0.3997591 -0.8429053 -0.3601438
vn -0.3997591 -0.8429053 -0.3601438
vn -0.3997591 -0.8429053 -0.3601438
vn -0.3997591 -0.8429053 -0.3601438
vn -0.3997591 -0.8429053 -0.3601438
vn -0.3997591 -0.8429053 -0.3601438
vn -0.5116673 -0.120788 0.8506508
vn -0.5116673 -0.120788 0.8506508
vn -0.5116673 -0.120788 0.8506508
vn -0.5116673 -0.120788 0.8506508
vn -0.5116673 -0.120788 0.8506508
vn -0.5116673 -0.120788 0.8506508
vn -0.5116673 -0.120788 0.8506508
vn -0.5116673 -0.120788 0.8506508
vn -0.5116673 -0.120788 0.8506508
vn -0.5116673 -0.120788 0.8506508
vn -0.5116673 -0.120788 0.8506508
vn -0.5116673 -0.120788 0.8506508
vn -0.5116673 -0.120788 0.8506508
vn -0.5116673 -0.120788 0.8506508
vn -0.5116673 -0.120788 0.8506508
vn -0.5116673 -0.120788 0.8506508
vn -0.5116673 -0.120788 0.8506508
vn -0.5116673 -0.120788 0.8506508
vn -0.5116673 -0.120788 0.8506508
vn -0.5116673 -0.120788 0.8506508
vn -0.5116673 -0.120788 0.8506508
vn -0.5116673 -0.120788 0.8506508
vn -0.5116673 -0.120788 0.8506508
vn -0.5116673 -0.120788 0.8506508
vn -0.5116673 -0.120788 0.8506508
vn -0.5116673 -0.120788 0.8506508
vn -0.5116673 -0.120788 0.8506508
vn -0.5116673 -0.120788 0.8506508
vn -0.5116673 -0.120788 0.8506508
vn -0.5116673 -0.120788 0.8506508
vn -0.5116673 -0.120788 0.8506508
vn -0.5116673 -0.120788 0.8506508
vn -0.5116673 -0.120788 0.8506508
vn -0.5116673 -0.120788 0.8506508
vn -0.5116673 -0.120788 0.8506508
vn -0.5116673 -0.120788 0.8506508
vn -0.5116673 -0.120788 0.8506508
vn -0.5116673 -0.120788 0.8506508
vn 0.8556092 -0.1618514 0.491668
vn 0.8476207 0.09092011 0.5227551
vn 0.7778399 0.3553805 0.5183339
vn 0.8556091 -0.1618513 0.4916679
vn 0.5000213 0.7632696 0.4091437
vn 0.2919834 0.9066984 0.3043749
vn 0.07829141 0.979395 0.1861614
vn 0.07829143 0.979395 0.1861614
vn 0.8556092 -0.1618515 0.4916679
vn -0.3997591 -0.8429053 -0.3601438
vn -0.3997591 -0.8429053 -0.3601438
vn -0.3997591 -0.8429053 -0.3601438
vn -0.3997591 -0.8429053 -0.3601438
vn -0.3997591 -0.8429053 -0.3601438
vn -0.3997591 -0.8429053 -0.3601438
vn -0.3997591 -0.8429053 -0.3601438
vn -0.3997591 -0.8429053 -0.3601438
vn -0.6409475 0.5379296 -0.5475567
vn 0.5116678 0.1207877 -0.8506505
vn 0.5116674 0.1207882 -0.8506507
vn 0.5116675 0.1207882 -0.8506507
vn 0.5116674 0.1207882 -0.8506507
vn 0.5116674 0.1207882 -0.8506507
vn 0.5116676 0.120788 -0.8506507
vn 0.5116676 0.120788 -0.8506507
vn 0.5116676 0.120788 -0.8506507
vn 0.5116676 0.120788 -0.8506507
vn 0.5116676 0.120788 -0.8506507
vn 0.5116675 0.120788 -0.8506506
vn 0.5116676 0.120788 -0.8506507
vn 0.5116675 0.120788 -0.8506506
vn 0.5116675 0.1207882 -0.8506507
vn 0.5116674 0.1207883 -0.8506507
vn 0.5116675 0.1207882 -0.8506507
vn 0.5116675 0.1207882 -0.8506507
vn 0.5116675 0.1207882 -0.8506507
vn 0.5116675 0.1207882 -0.8506507
vn 0.5116675 0.1207882 -0.8506507
vn 0.5116675 0.1207882 -0.8506507
vn 0.5116675 0.1207882 -0.8506507
vn 0.5116674 0.1207884 -0.8506508
vn 0.5116673 0.1207884 -0.8506508
vn 0.5116673 0.1207884 -0.8506508
vn 0.5116673 0.1207884 -0.8506508
vn 0.5116673 0.1207884 -0.8506508
vn 0.5116673 0.1207884 -0.8506508
vn 0.5116673 0.1207884 -0.8506508
vn 0.5116673 0.1207883 -0.8506508
vn 0.5116671 0.1207883 -0.8506509
vn 0.5116671 0.1207883 -0.8506509
vn 0.5116671 0.1207883 -0.8506509
vn 0.5116671 0.1207883 -0.8506509
vn 0.5116671 0.1207883 -0.8506509
vn 0.5116671 0.1207883 -0.8506509
vn 0.5116671 0.1207883 -0.8506509
vn 0.5116671 0.1207883 -0.8506508
vn 0.5116674 0.1207882 -0.8506507
vn 0.5116674 0.1207882 -0.8506507
vn 0.5116674 0.1207882 -0.8506507

f 1//1 2//2 3//3
f 4//4 1//1 3//3
f 3//3 5//5 4//4
f 3//3 6//6 5//5
f 5//5 6//6 7//7
f 8//8 7//7 6//6
f 9//9 8//8 6//6
f 10//10 9//9 6//6
f 9//9 10//10 11//11
f 11//11 10//10 12//12
f 13//13 11//11 12//12
f 13//13 12//12 14//14
f 13//13 14//14 15//15
f 15//15 14//14 16//16
f 15//15 16//16 17//17
f 18//18 17//17 16//16
f 19//19 17//17 18//18
f 19//19 18//18 20//20
f 21//21 19//19 20//20
f 22//22 19//19 21//21
f 22//22 21//21 23//23
f 24//24 22//22 23//23
f 24//24 23//23 25//25
f 26//26 24//24 25//25
f 26//26 25//25 27//27
f 28//28 26//26 27//27
f 28//28 27//27 29//29
f 29//29 27//27 30//30
f 31//31 29//29 30//30
f 31//31 30//30 32//32
f 33//33 31//31 32//32
f 33//33 32//32 34//34
f 35//35 33//33 34//34
f 35//35 34//34 36//36
f 37//37 35//35 36//36
f 37//37 36//36 38//38
f 39//39 37//37 38//38
f 39//39 38//38 40//40
f 41//41 39//39 40//40
f 41//41 40//40 42//42
f 41//41 42//42 43//43
f 43//43 42//42 44//44
f 45//45 43//43 44//44
f 45//45 44//44 46//46
f 47//47 45//45 46//46
f 48//48 45//45 47//47
f 48//48 47//47 49//49
f 50//50 48//48 49//49
f 50//50 49//49 51//51
f 52//52 50//50 51//51
f 52//52 51//51 53//53
f 54//54 52//52 53//53
f 55//55 54//54 53//53
f 55//55 53//53 56//56
f 55//55 56//56 57//57
f 57//57 56//56 58//58
f 57//57 58//58 59//59
f 59//59 58//58 60//60
f 59//59 60//60 61//61
f 61//61 60//60 62//62
f 61//61 62//62 63//63
f 63//63 62//62 64//64
f 63//63 64//64 65//65
f 65//65 64//64 66//66
f 65//65 66//66 67//67
f 68//68 67//67 66//66
f 69//69 67//67 68//68
f 69//69 68//68 70//70
f 71//71 69//69 70//70
f 72//72 71//71 73//73
f 74//74 75//75 76//76
f 77//77 74//74 76//76
f 75//75 77//77 76//76
f 78//78 75//75 74//74
f 79//79 75//75 78//78
f 78//78 74//74 80//80
f 81//81 78//78 80//80
f 82//82 78//78 81//81
f 82//82 83//83 78//78
f 83//83 84//84 79//79
f 84//84 85//85 79//79
f 80//80 74//74 86//86
f 87//87 80//80 86//86
f 81//81 80//80 87//87
f 86//86 74//74 88//88
f 88//88 74//74 77//77
f 86//86 88//88 89//89
f 90//90 86//86 89//89
f 87//87 86//86 90//90
f 75//75 91//91 77//77
f 90//90 89//89 92//92
f 90//90 92//92 93//93
f 94//94 90//90 93//93
f 95//95 83//83 82//82
f 95//95 82//82 81//81
f 95//95 81//81 87//87
f 95//95 87//87 90//90
f 95//95 96//96 83//83
f 97//97 91//91 75//75
f 97//97 98//98 91//91
f 97//97 99//99 98//98
f 100//100 95//95 101//101
f 102//102 103//103 104//104
f 102//102 104//104 105//105
f 102//102 105//105 106//106
f 106//106 105//105 107//107
f 108//108 102//102 106//106
f 109//109 102//102 108//108
f 110//110 108//108 106//106
f 111//111 112//112 113//113
f 111//111 113//113 114//114
f 111//111 114//114 115//115
f 111//111 115//115 116//116
f 111//111 116//116 117//117
f 117//117 118//118 111//111
f 118//118 119//119 111//111
f 120//120 111//111 119//119
f 120//120 121//121 111//111
f 121//121 122//122 111//111
f 111//111 122//122 123//123
f 114//114 113//113 124//124
f 124//124 113//113 125//125
f 125//125 113//113 126//126
f 126//126 113//113 127//127
f 127//127 113//113 128//128
f 128//128 113//113 129//129
f 129//129 113//113 130//130
f 130//130 113//113 131//131
f 131//131 113//113 132//132
f 132//132 113//113 133//133
f 133//133 113//113 134//134
f 133//133 134//134 135//135
f 135//135 134//134 136//136
f 134//134 137//137 136//136
f 137//137 134//134 138//138
f 138//138 134//134 139//139
f 139//139 134//134 140//140
f 140//140 134//134 141//141
f 134//134 142//142 141//141
f 134//134 143//143 142//142
f 134//134 144//144 143//143
f 144//144 134//134 145//145
f 145//145 134//134 146//146
f 147//147 134//134 148//148
f 149//149 150//150 151//151
f 149//149 152//152 150//150
f 151//151 150//150 153//153
f 151//151 153//153 154//154
f 154//154 153//153 155//155
f 154//154 155//155 156//156
f 152//152 157//157 150//150
f 158//158 159//159 160//160
f 161//161 159//159 158//158
f 162//162 159//159 161//161
f 163//163 162//162 161//161
f 164//164 162//162 163//163
f 165//165 162//162 164//164
f 9//9 166//166 8//8
f 166//166 9//9 167//167
f 168//168 169//169 170//170
f 168//168 171//171 169//169
f 172//172 169//169 173//173
f 174//174 169//169 172//172
f 169//169 174//174 175//175
f 176//176 169//169 175//175
f 177//177 169//169 176//176
f 178//178 169//169 177//177
f 178//178 179//179 169//169
f 179//179 180//180 169//169
f 180//180 181//181 169//169
f 182//182 181//181 180//180
f 182//182 183//183 181//181
f 183//183 184//184 181//181
f 184//184 185//185 181//181
f 185//185 186//186 181//181
f 186//186 187//187 181//181
f 187//187 188//188 181//181
f 188//188 189//189 181//181
f 181//181 189//189 190//190
f 181//181 190//190 191//191
f 192//192 181//181 191//191
f 193//193 181//181 192//192
f 194//194 181//181 193//193
f 195//195 181//181 194//194
f 195//195 196//196 181//181
f 196//196 197//197 198//198
f 196//196 198//198 199//199
f 199//199 200//200 196//196
f 196//196 200//200 201//201
f 201//201 202//202 196//196
f 196//196 202//202 203//203
f 196//196 203//203 204//204
f 205//205 196//196 206//206
f 207//207 196//196 205//205
