v -41.00964 -140.7213 8.707066
v -49.18005 -137.3006 -5.624791
v -41.00964 -140.7213 8.707066
v -41.00965 -140.7213 8.707067
v -43.78076 -139.4754 10.58422
v -44.88921 -138.977 11.33508
v -44.88921 -138.977 11.33508
v -53.05962 -135.5564 -2.996778
v -61.23003 -132.1357 -17.32863
v -44.8705 -138.7356 11.38204
v -61.06167 -129.9625 -16.90594
v -44.86818 -138.7056 11.38788
v -61.04075 -129.6925 -16.85341
v -44.86752 -138.6972 11.38952
v -61.03487 -129.6167 -16.83867
v -44.86019 -138.6025 11.40794
v -60.96886 -128.7646 -16.67293
v -44.76976 -137.4352 11.63498
v -60.95881 -128.6349 -16.6477
v -44.68401 -136.3285 11.85025
v -44.67415 -136.2012 11.87502
v -60.94819 -128.4978 -16.62103
v -44.65358 -135.9356 11.92667
v -60.9459 -128.4683 -16.61529
v -44.59902 -135.2314 12.06364
v -60.93984 -128.39 -16.60007
v -44.71351 -135.0945 12.16158
v -61.57027 -127.6363 -16.06078
v -61.97023 -127.1582 -15.71864
v -44.74192 -135.0606 12.18588
v -62.22589 -126.8525 -15.49994
v -44.75037 -135.0505 12.19311
v -62.30197 -126.7616 -15.43486
v -44.81426 -134.9741 12.24777
v -62.877 -126.0741 -14.94296
v -45.54727 -134.0978 12.87481
v -62.95845 -125.9767 -14.87328
v -46.15285 -133.3738 13.39285
v -63.02573 -125.8963 -14.81573
v -46.75142 -132.6582 13.90488
v -63.09224 -125.8168 -14.75883
v -46.85431 -132.6614 13.96275
v -64.01823 -125.8463 -14.238
v -47.08484 -132.6688 14.09241
v -66.09296 -125.9126 -13.07103
v -47.72797 -132.6893 14.45415
v -47.98516 -132.6976 14.59882
v -66.193 -125.9158 -13.01476
v -48.86217 -132.7256 15.09211
v -66.29044 -125.9189 -12.95995
v -49.58429 -132.7486 15.49827
v -66.37068 -125.9215 -12.91482
v -50.08556 -132.7646 15.78022
v -66.42638 -125.9232 -12.8835
v -66.42638 -125.9232 -12.8835
v -50.23787 -132.9265 15.82841
v -67.7972 -127.3802 -12.44975
v -50.2827 -132.9742 15.84259
v -68.20068 -127.8091 -12.32209
v -50.28728 -132.979 15.84404
v -68.24187 -127.8528 -12.30905
v -50.2894 -132.9813 15.84472
v -68.26098 -127.8731 -12.30301
v -50.29208 -132.9841 15.84556
v -68.28512 -127.8988 -12.29537
v -50.34183 -133.037 15.86131
v -68.73287 -128.3747 -12.1537
v -52.64833 -135.4885 16.5911
v -68.98915 -128.6471 -12.07261
v -52.64833 -135.4885 16.59111
v -68.98915 -128.6471 -12.07261
v -52.64833 -135.4885 16.59111
v -52.64833 -135.4885 16.59111
v -53.75678 -134.9901 17.34197
v -56.5279 -133.7442 19.21912
v -56.5279 -133.7442 19.21912
v -56.5279 -133.7442 19.21912
v -52.64833 -135.4885 16.59111
v -52.64833 -135.4885 16.59111
v -52.64833 -135.4885 16.59111
v -68.98915 -128.6471 -12.07261
v -68.98915 -128.6471 -12.07261
v -68.98915 -128.6471 -12.07261
v -52.64833 -135.4885 16.59111
v -51.40234 -128.2965 17.59734
v -52.64833 -135.4885 16.59111
v -68.98915 -128.6471 -12.07261
v -52.64833 -135.4885 16.59111
v -60.81874 -132.0678 2.259248
v -68.98915 -128.6471 -12.07261
v -64.6983 -130.3235 4.887261
v -68.98914 -128.6471 -12.07259
v -68.98915 -128.6471 -12.07261
v -70.0976 -128.1487 -11.32175
v -67.74316 -121.4551 -11.06637
v -68.98915 -128.6471 -12.07261
v -51.40234 -128.2965 17.59734
v -72.86871 -126.9028 -9.444594
v -67.74316 -121.4551 -11.06637
v -66.42638 -125.9232 -12.8835
v -66.42638 -125.9232 -12.8835
v -49.18005 -137.3006 -5.624791
v -41.00964 -140.7213 8.707066
v -41.00965 -140.7213 8.707067
v -43.78076 -139.4754 10.58422
v -53.05962 -135.5564 -2.996778
v -44.88921 -138.977 11.33508
v -59.62306 -132.8582 -18.41719
v -57.35046 -133.8799 -19.95665
v -61.23003 -132.1357 -17.32863
v -41.00964 -140.7213 8.707066
v -40.42928 -133.2301 10.1642
v -44.73407 -128.0836 13.84667
v -44.59902 -135.2314 12.06364
v -44.65358 -135.9356 11.92667
v -44.67415 -136.2012 11.87502
v -44.68401 -136.3285 11.85025
v -44.76976 -137.4352 11.63498
v -44.86019 -138.6025 11.40794
v -44.86752 -138.6972 11.38952
v -44.86818 -138.7056 11.38788
v -44.8705 -138.7356 11.38204
v -44.88921 -138.977 11.33508
v -44.71351 -135.0945 12.16158
v -44.74192 -135.0606 12.18588
v -44.75037 -135.0505 12.19311
v -44.81426 -134.9741 12.24777
v -45.54727 -134.0978 12.87481
v -46.15285 -133.3738 13.39285
v -46.75142 -132.6582 13.90488
v -46.85431 -132.6614 13.96275
v -47.08484 -132.6688 14.09241
v -47.72797 -132.6893 14.45415
v -51.40234 -128.2965 17.59734
v -47.98516 -132.6976 14.59882
v -48.86217 -132.7256 15.09211
v -49.58429 -132.7486 15.49827
v -50.08556 -132.7646 15.78022
v -50.23787 -132.9265 15.82841
v -50.2827 -132.9742 15.84259
v -50.28728 -132.979 15.84404
v -50.2894 -132.9813 15.84472
v -50.29208 -132.9841 15.84556
v -50.34183 -133.037 15.86131
v -52.64833 -135.4885 16.5911
v -52.64833 -135.4885 16.59111
v -52.64833 -135.4885 16.59111
v -56.5279 -133.7442 19.21912
v -41.00964 -140.7213 8.707066
v -56.77009 -126.3887 -18.49952
v -40.42928 -133.2301 10.1642
v -49.18005 -137.3006 -5.624791
v -61.07489 -121.2422 -14.81704
v -44.73407 -128.0836 13.84667
v -67.74316 -121.4551 -11.06637
v -51.40234 -128.2965 17.59734
v -57.35046 -133.8799 -19.95665
v -56.5279 -133.7442 19.21912
v -60.81874 -132.0678 2.259248
v -52.64833 -135.4885 16.59111
v -64.6983 -130.3235 4.887261
v -68.98914 -128.6471 -12.07259
v -72.86871 -126.9028 -9.444594
v -70.0976 -128.1487 -11.32175
v -68.98915 -128.6471 -12.07261
v -61.23003 -132.1357 -17.32863
v -56.77009 -126.3887 -18.49952
v -59.62306 -132.8582 -18.41719
v -56.77009 -126.3887 -18.49952
v -57.35046 -133.8799 -19.95665
v -61.23003 -132.1357 -17.32863
v -61.06167 -129.9625 -16.90594
v -61.23003 -132.1357 -17.32863
v -61.04075 -129.6925 -16.85341
v -61.03487 -129.6167 -16.83867
v -60.96886 -128.7646 -16.67293
v -60.95881 -128.6349 -16.6477
v -60.94819 -128.4978 -16.62103
v -60.9459 -128.4683 -16.61529
v -60.93984 -128.39 -16.60007
v -61.07489 -121.2422 -14.81704
v -61.57027 -127.6363 -16.06078
v -61.97023 -127.1582 -15.71864
v -62.22589 -126.8525 -15.49994
v -62.30197 -126.7616 -15.43486
v -62.877 -126.0741 -14.94296
v -62.95845 -125.9767 -14.87328
v -63.02573 -125.8963 -14.81573
v -63.09224 -125.8168 -14.75883
v -64.01823 -125.8463 -14.238
v -66.09296 -125.9126 -13.07103
v -66.193 -125.9158 -13.01476
v -66.29044 -125.9189 -12.95995
v -66.37068 -125.9215 -12.91482
v -66.42638 -125.9232 -12.8835
v -67.74316 -121.4551 -11.06637
v -66.42638 -125.9232 -12.8835
v -67.7972 -127.3802 -12.44975
v -68.20068 -127.8091 -12.32209
v -68.24187 -127.8528 -12.30905
v -68.26098 -127.8731 -12.30301
v -68.28512 -127.8988 -12.29537
v -68.73287 -128.3747 -12.1537
v -68.98915 -128.6471 -12.07261
v -70.0976 -128.1487 -11.32175
v -68.98915 -128.6471 -12.07261
v -72.86871 -126.9028 -9.444594

vn 0.7759128 -0.3488578 -0.5256022
vn 0.7759127 -0.3488578 -0.5256023
vn 0.9047149 -0.3970036 0.1545288
vn 0.4849453 -0.2030313 0.8506505
vn 0.4849453 -0.2030313 0.8506505
vn -0.8712513 -0.02782656 0.4900478
vn -0.6995329 0.3166387 0.6406199
vn -0.5763118 -0.8057966 0.1362223
vn -0.871251 -0.02782198 0.4900485
vn -0.871251 -0.02782116 0.4900487
vn -0.871251 -0.02782148 0.4900486
vn -0.8712512 -0.02782246 0.4900483
vn -0.8712512 -0.02782349 0.4900481
vn -0.8712506 -0.02781794 0.4900497
vn -0.8712509 -0.0278206 0.4900489
vn -0.8712509 -0.02782111 0.4900487
vn -0.871251 -0.02782097 0.4900489
vn -0.8712509 -0.02782088 0.4900488
vn -0.8712509 -0.02782117 0.4900488
vn -0.871251 -0.02782083 0.4900488
vn -0.871251 -0.02782198 0.4900486
vn -0.8712511 -0.02782351 0.4900482
vn -0.8712509 -0.02782138 0.4900487
vn -0.8712509 -0.02782053 0.4900489
vn -0.8727208 -0.1751343 0.4557264
vn -0.69213 -0.6836752 0.2313965
vn -0.6696853 -0.7117742 0.2118943
vn -0.6696857 -0.7117736 0.2118947
vn -0.6696859 -0.7117735 0.2118949
vn -0.669687 -0.7117721 0.2118961
vn -0.6696876 -0.7117712 0.2118967
vn -0.6696885 -0.7117701 0.2118977
vn -0.6696871 -0.711772 0.2118962
vn -0.6696864 -0.7117727 0.2118954
vn -0.6696862 -0.7117732 0.2118951
vn -0.6696861 -0.7117732 0.211895
vn -0.6696867 -0.7117723 0.2118956
vn -0.6696864 -0.7117729 0.2118953
vn -0.6696857 -0.7117736 0.2118947
vn -0.6312144 -0.7544879 0.1797677
vn -0.1331467 -0.97848 -0.1576361
vn -0.07583004 -0.9787769 -0.1903825
vn -0.07582913 -0.978777 -0.1903831
vn -0.07582854 -0.978777 -0.1903834
vn -0.07582853 -0.9787769 -0.1903834
vn -0.07582889 -0.9787769 -0.1903832
vn -0.07582932 -0.9787769 -0.1903828
vn -0.07582895 -0.978777 -0.1903831
vn -0.07582927 -0.9787771 -0.1903829
vn -0.07582896 -0.9787769 -0.190383
vn -0.07582898 -0.9787771 -0.190383
vn -0.07582936 -0.9787769 -0.1903828
vn 0.09735144 -0.9541009 -0.2832213
vn -0.07584963 -0.9787776 -0.1903714
vn 0.5624482 -0.6724272 -0.4811379
vn 0.562449 -0.6724263 -0.4811381
vn 0.5624493 -0.672426 -0.4811383
vn 0.5624501 -0.6724251 -0.4811386
vn 0.5624488 -0.6724266 -0.4811381
vn 0.5624479 -0.6724279 -0.4811375
vn 0.5624461 -0.6724298 -0.4811366
vn 0.5624186 -0.6724632 -0.4811223
vn 0.5624359 -0.6724423 -0.4811314
vn 0.5624533 -0.6724213 -0.4811403
vn 0.5624508 -0.6724243 -0.4811391
vn 0.562449 -0.6724264 -0.4811381
vn 0.5624486 -0.6724268 -0.481138
vn 0.5624484 -0.6724271 -0.4811379
vn 0.562445 -0.6724306 -0.4811369
vn 0.4423173 -0.7821586 -0.4388433
vn 0.7759126 -0.3488578 -0.5256024
vn 0.7759126 -0.3488578 -0.5256024
vn 0.7759126 -0.3488578 -0.5256024
vn 0.4849453 -0.2030313 0.8506505
vn -0.5624489 0.6724266 0.481138
vn 0.4849453 -0.2030313 0.8506505
vn -0.500886 -0.8618219 0.07985105
vn 0.8726758 -0.3809539 0.3054684
vn 0.8377803 -0.3642769 0.4067267
vn 0.8084066 -0.3624013 -0.4638363
vn 0.7759126 -0.3488578 -0.5256024
vn 0.7759126 -0.3488578 -0.5256024
vn 0.7759126 -0.3488578 -0.5256024
vn 0.8217362 -0.367915 -0.4351875
vn 0.4849453 -0.2030313 0.8506505
vn 0.781989 -0.3514061 -0.5147883
vn 0.7759126 -0.3488578 -0.5256024
vn 0.8366958 -0.3740645 -0.4000197
vn 0.7759153 -0.3488517 -0.5256025
vn 0.7453983 -0.3360323 -0.5757288
vn -0.5624488 0.6724266 0.481138
vn 0.7759221 -0.3488362 -0.5256027
vn -0.4849399 0.2030289 -0.8506542
vn -0.4849453 0.2030313 -0.8506505
vn -0.4849451 0.2030317 -0.8506505
vn 0 0 0
vn -0.5624488 0.6724266 0.481138
vn -0.5624488 0.6724266 0.4811381
vn -0.5624489 0.6724267 0.4811381
vn -0.4849451 0.2030317 -0.8506505
vn -0.4849451 0.2030317 -0.8506505
vn -0.4034699 -0.9149189 0.01164232
vn -0.4034699 -0.9149188 0.01164232
vn -0.4034699 -0.9149189 0.01164232
vn -0.4034699 -0.9149189 0.01164232
vn -0.4034699 -0.9149189 0.01164232
vn -0.4034699 -0.9149189 0.01164232
vn -0.4034699 -0.9149189 0.01164232
vn -0.4034699 -0.9149189 0.01164232
vn -0.4034699 -0.9149189 0.01164232
vn 0.4849453 -0.2030313 0.8506505
vn 0.4849453 -0.2030313 0.8506505
vn 0.4849453 -0.2030313 0.8506505
vn 0.4849453 -0.2030313 0.8506505
vn 0.4849453 -0.2030313 0.8506505
vn 0.4849453 -0.2030313 0.8506505
vn 0.4849453 -0.2030313 0.8506505
vn 0.4849453 -0.2030313 0.8506505
vn 0.4849453 -0.2030313 0.8506505
vn 0.4849453 -0.2030313 0.8506505
vn 0.4849453 -0.2030313 0.8506505
vn 0.4849453 -0.2030313 0.8506505
vn 0.4849453 -0.2030313 0.8506505
vn 0.4849453 -0.2030313 0.8506505
vn 0.4849453 -0.2030313 0.8506505
vn 0.4849453 -0.2030313 0.8506505
vn 0.4849453 -0.2030313 0.8506505
vn 0.4849453 -0.2030313 0.8506505
vn 0.4849453 -0.2030313 0.8506505
vn 0.4849453 -0.2030313 0.8506505
vn 0.4849453 -0.2030313 0.8506505
vn 0.4849453 -0.2030313 0.8506505
vn 0.4849453 -0.2030313 0.8506505
vn 0.4849453 -0.2030313 0.8506505
vn 0.4849453 -0.2030313 0.8506505
vn 0.4849453 -0.2030313 0.8506505
vn 0.4849453 -0.2030313 0.8506505
vn 0.4849453 -0.2030313 0.8506505
vn 0.4849453 -0.2030313 0.8506505
vn 0.4849453 -0.2030313 0.8506505
vn 0.4849453 -0.2030313 0.8506505
vn 0.4849453 -0.2030313 0.8506505
vn 0.4849453 -0.2030313 0.8506505
vn 0.4849453 -0.2030313 0.8506505
vn 0.4849453 -0.2030313 0.8506505
vn 0.4849453 -0.2030313 0.8506505
vn 0.4849453 -0.2030313 0.8506505
vn 0.4849453 -0.2030313 0.8506505
vn 0.8712511 0.02782152 -0.4900486
vn 0.8621325 0.2742797 -0.4260262
vn 0.7900919 0.5187285 -0.3266123
vn 0.871251 0.02782156 -0.4900486
vn 0.5058026 0.8586063 -0.08342143
vn 0.2935539 0.9540353 0.0603556
vn 0.07582882 0.9787769 0.1903831
vn 0.07582884 0.978777 0.1903831
vn 0.871251 0.02782145 -0.4900487
vn -0.4034699 -0.9149189 0.01164232
vn -0.4034699 -0.9149189 0.01164232
vn -0.4034699 -0.9149189 0.01164232
vn -0.4034699 -0.9149189 0.01164232
vn -0.4034699 -0.9149189 0.01164232
vn -0.4034699 -0.9149189 0.01164232
vn -0.4034699 -0.9149189 0.01164231
vn -0.4034699 -0.9149188 0.01164231
vn -0.8581371 0.3827837 0.3421656
vn -0.4849447 0.203031 -0.8506509
vn -0.4849452 0.2030315 -0.8506505
vn -0.4849451 0.2030315 -0.8506506
vn -0.4849452 0.2030315 -0.8506505
vn -0.4849452 0.2030315 -0.8506505
vn -0.484945 0.2030313 -0.8506507
vn -0.484945 0.2030313 -0.8506507
vn -0.484945 0.2030313 -0.8506507
vn -0.484945 0.2030313 -0.8506507
vn -0.484945 0.2030313 -0.8506507
vn -0.484945 0.2030313 -0.8506507
vn -0.484945 0.2030313 -0.8506507
vn -0.484945 0.2030313 -0.8506507
vn -0.4849451 0.2030315 -0.8506506
vn -0.4849451 0.2030316 -0.8506505
vn -0.4849451 0.2030315 -0.8506506
vn -0.4849451 0.2030315 -0.8506506
vn -0.4849451 0.2030315 -0.8506506
vn -0.4849451 0.2030315 -0.8506506
vn -0.4849451 0.2030315 -0.8506506
vn -0.4849451 0.2030315 -0.8506506
vn -0.4849451 0.2030315 -0.8506506
vn -0.4849452 0.2030316 -0.8506505
vn -0.4849453 0.2030316 -0.8506505
vn -0.4849453 0.2030316 -0.8506505
vn -0.4849453 0.2030316 -0.8506505
vn -0.4849453 0.2030316 -0.8506505
vn -0.4849453 0.2030316 -0.8506505
vn -0.4849453 0.2030316 -0.8506505
vn -0.4849453 0.2030315 -0.8506505
vn -0.4849455 0.2030315 -0.8506504
vn -0.4849455 0.2030315 -0.8506504
vn -0.4849455 0.2030315 -0.8506504
vn -0.4849455 0.2030315 -0.8506504
vn -0.4849455 0.2030315 -0.8506504
vn -0.4849455 0.2030315 -0.8506504
vn -0.4849455 0.2030315 -0.8506504
vn -0.4849454 0.2030315 -0.8506503
vn -0.4849452 0.2030315 -0.8506505
vn -0.4849452 0.2030315 -0.8506505
vn -0.4849452 0.2030315 -0.8506505

f 1//1 2//2 3//3
f 4//4 1//1 3//3
f 3//3 5//5 4//4
f 3//3 6//6 5//5
f 5//5 6//6 7//7
f 8//8 7//7 6//6
f 9//9 8//8 6//6
f 10//10 9//9 6//6
f 9//9 10//10 11//11
f 11//11 10//10 12//12
f 13//13 11//11 12//12
f 13//13 12//12 14//14
f 13//13 14//14 15//15
f 15//15 14//14 16//16
f 15//15 16//16 17//17
f 18//18 17//17 16//16
f 19//19 17//17 18//18
f 19//19 18//18 20//20
f 21//21 19//19 20//20
f 22//22 19//19 21//21
f 22//22 21//21 23//23
f 24//24 22//22 23//23
f 24//24 23//23 25//25
f 26//26 24//24 25//25
f 26//26 25//25 27//27
f 28//28 26//26 27//27
f 28//28 27//27 29//29
f 29//29 27//27 30//30
f 31//31 29//29 30//30
f 31//31 30//30 32//32
f 33//33 31//31 32//32
f 33//33 32//32 34//34
f 35//35 33//33 34//34
f 35//35 34//34 36//36
f 37//37 35//35 36//36
f 37//37 36//36 38//38
f 39//39 37//37 38//38
f 39//39 38//38 40//40
f 41//41 39//39 40//40
f 41//41 40//40 42//42
f 41//41 42//42 43//43
f 43//43 42//42 44//44
f 45//45 43//43 44//44
f 45//45 44//44 46//46
f 47//47 45//45 46//46
f 48//48 45//45 47//47
f 48//48 47//47 49//49
f 50//50 48//48 49//49
f 50//50 49//49 51//51
f 52//52 50//50 51//51
f 52//52 51//51 53//53
f 54//54 52//52 53//53
f 55//55 54//54 53//53
f 55//55 53//53 56//56
f 55//55 56//56 57//57
f 57//57 56//56 58//58
f 57//57 58//58 59//59
f 59//59 58//58 60//60
f 59//59 60//60 61//61
f 61//61 60//60 62//62
f 61//61 62//62 63//63
f 63//63 62//62 64//64
f 63//63 64//64 65//65
f 65//65 64//64 66//66
f 65//65 66//66 67//67
f 68//68 67//67 66//66
f 69//69 67//67 68//68
f 69//69 68//68 70//70
f 71//71 69//69 70//70
f 72//72 71//71 73//73
f 74//74 75//75 76//76
f 77//77 74//74 76//76
f 75//75 77//77 76//76
f 78//78 75//75 74//74
f 79//79 75//75 78//78
f 78//78 74//74 80//80
f 81//81 78//78 80//80
f 82//82 78//78 81//81
f 82//82 83//83 78//78
f 83//83 84//84 79//79
f 84//84 85//85 79//79
f 80//80 74//74 86//86
f 87//87 80//80 86//86
f 81//81 80//80 87//87
f 86//86 74//74 88//88
f 88//88 74//74 77//77
f 86//86 88//88 89//89
f 90//90 86//86 89//89
f 87//87 86//86 90//90
f 75//75 91//91 77//77
f 90//90 89//89 92//92
f 90//90 92//92 93//93
f 94//94 90//90 93//93
f 95//95 83//83 82//82
f 95//95 82//82 81//81
f 95//95 81//81 87//87
f 95//95 87//87 90//90
f 95//95 96//96 83//83
f 97//97 91//91 75//75
f 97//97 98//98 91//91
f 97//97 99//99 98//98
f 100//100 95//95 101//101
f 102//102 103//103 104//104
f 102//102 104//104 105//105
f 102//102 105//105 106//106
f 106//106 105//105 107//107
f 108//108 102//102 106//106
f 109//109 102//102 108//108
f 110//110 108//108 106//106
f 111//111 112//112 113//113
f 111//111 113//113 114//114
f 111//111 114//114 115//115
f 111//111 115//115 116//116
f 111//111 116//116 117//117
f 117//117 118//118 111//111
f 118//118 119//119 111//111
f 120//120 111//111 119//119
f 120//120 121//121 111//111
f 121//121 122//122 111//111
f 111//111 122//122 123//123
f 114//114 113//113 124//124
f 124//124 113//113 125//125
f 125//125 113//113 126//126
f 126//126 113//113 127//127
f 127//127 113//113 128//128
f 128//128 113//113 129//129
f 129//129 113//113 130//130
f 130//130 113//113 131//131
f 131//131 113//113 132//132
f 132//132 113//113 133//133
f 133//133 113//113 134//134
f 133//133 134//134 135//135
f 135//135 134//134 136//136
f 134//134 137//137 136//136
f 137//137 134//134 138//138
f 138//138 134//134 139//139
f 139//139 134//134 140//140
f 140//140 134//134 141//141
f 134//134 142//142 141//141
f 134//134 143//143 142//142
f 134//134 144//144 143//143
f 144//144 134//134 145//145
f 145//145 134//134 146//146
f 147//147 134//134 148//148
f 149//149 150//150 151//151
f 149//149 152//152 150//150
f 151//151 150//150 153//153
f 151//151 153//153 154//154
f 154//154 153//153 155//155
f 154//154 155//155 156//156
f 152//152 157//157 150//150
f 158//158 159//159 160//160
f 161//161 159//159 158//158
f 162//162 159//159 161//161
f 163//163 162//162 161//161
f 164//164 162//162 163//163
f 165//165 162//162 164//164
f 9//9 166//166 8//8
f 166//166 9//9 167//167
f 168//168 169//169 170//170
f 168//168 171//171 169//169
f 172//172 169//169 173//173
f 174//174 169//169 172//172
f 169//169 174//174 175//175
f 176//176 169//169 175//175
f 177//177 169//169 176//176
f 178//178 169//169 177//177
f 178//178 179//179 169//169
f 179//179 180//180 169//169
f 180//180 181//181 169//169
f 182//182 181//181 180//180
f 182//182 183//183 181//181
f 183//183 184//184 181//181
f 184//184 185//185 181//181
f 185//185 186//186 181//181
f 186//186 187//187 181//181
f 187//187 188//188 181//181
f 188//188 189//189 181//181
f 181//181 189//189 190//190
f 181//181 190//190 191//191
f 192//192 181//181 191//191
f 193//193 181//181 192//192
f 194//194 181//181 193//193
f 195//195 181//181 194//194
f 195//195 196//196 181//181
f 196//196 197//197 198//198
f 196//196 198//198 199//199
f 199//199 200//200 196//196
f 196//196 200//200 201//201
f 201//201 202//202 196//196
f 196//196 202//202 203//203
f 196//196 203//203 204//204
f 205//205 196//196 206//206
f 207//207 196//196 205//205
