v 93.26981 -84.47128 -71.30071
v 92.36503 -95.43533 -53.50023
v 93.26981 -84.47128 -71.30071
v 93.26981 -84.47128 -71.30071
v 95.77997 -82.36711 -69.87709
v 96.78403 -81.52545 -69.30763
v 96.78403 -81.52545 -69.30763
v 95.87925 -92.48949 -51.50714
v 94.97448 -103.4535 -33.70666
v 96.68855 -81.32964 -69.19188
v 94.11521 -101.6912 -32.66485
v 96.67669 -81.30531 -69.17749
v 94.00844 -101.4722 -32.53539
v 96.67336 -81.29847 -69.17345
v 93.97845 -101.4107 -32.49904
v 96.63593 -81.22169 -69.12807
v 93.64154 -100.7197 -32.09055
v 96.17438 -80.27508 -68.56847
v 93.59026 -100.6146 -32.02837
v 95.73677 -79.37757 -68.0379
v 95.68643 -79.27432 -67.97687
v 93.53604 -100.5034 -31.96264
v 95.58143 -79.05898 -67.84956
v 93.52438 -100.4794 -31.94849
v 95.30299 -78.48789 -67.51196
v 93.49344 -100.416 -31.91098
v 95.37985 -78.32918 -67.41029
v 93.9167 -99.54204 -31.35117
v 94.18524 -98.98757 -30.996
v 95.39893 -78.2898 -67.38507
v 94.35689 -98.63316 -30.76898
v 95.4046 -78.27808 -67.37756
v 94.40797 -98.52769 -30.70142
v 95.44749 -78.18951 -67.32083
v 94.79404 -97.73054 -30.1908
v 95.93964 -77.17336 -66.66992
v 94.84872 -97.61763 -30.11848
v 96.34622 -76.33385 -66.13217
v 94.8939 -97.52435 -30.05873
v 96.7481 -75.50407 -65.60065
v 94.93855 -97.43216 -29.99967
v 96.85687 -75.46758 -65.57265
v 95.91747 -97.10382 -29.74767
v 97.10058 -75.38584 -65.50991
v 98.11082 -96.36816 -29.18307
v 97.78047 -75.15781 -65.33489
v 98.05238 -75.0666 -65.2649
v 98.21658 -96.3327 -29.15585
v 98.97952 -74.75564 -65.02624
v 98.3196 -96.29814 -29.12933
v 99.74293 -74.49959 -64.82973
v 98.40442 -96.2697 -29.10749
v 100.2728 -74.32185 -64.69331
v 98.46329 -96.24995 -29.09234
v 98.46329 -96.24995 -29.09234
v 100.4832 -74.39983 -64.73065
v 100.3566 -96.9517 -29.42834
v 100.5451 -74.42278 -64.74164
v 100.9139 -97.15825 -29.52724
v 100.5515 -74.42512 -64.74276
v 100.9708 -97.17934 -29.53733
v 100.5544 -74.42621 -64.74328
v 100.9972 -97.18911 -29.54201
v 100.5581 -74.42758 -64.74393
v 101.0305 -97.20147 -29.54793
v 100.6268 -74.45305 -64.75613
v 101.649 -97.43069 -29.65768
v 103.8125 -75.63378 -65.32147
v 102.0029 -97.56187 -29.7205
v 103.8125 -75.63378 -65.32147
v 102.0029 -97.56187 -29.7205
v 103.8125 -75.63378 -65.32147
v 103.8125 -75.63378 -65.32147
v 104.8165 -74.79211 -64.75202
v 107.3267 -72.68795 -63.32839
v 107.3267 -72.68795 -63.32839
v 107.3267 -72.68795 -63.32839
v 103.8125 -75.63378 -65.32147
v 103.8125 -75.63378 -65.32147
v 103.8125 -75.63378 -65.32147
v 102.0029 -97.56187 -29.7205
v 102.0029 -97.56187 -29.7205
v 102.0029 -97.56187 -29.7205
v 103.8125 -75.63378 -65.32147
v 100.2474 -70.06409 -62.07208
v 103.8125 -75.63378 -65.32147
v 102.0029 -97.56187 -29.7205
v 103.8125 -75.63378 -65.32147
v 102.9077 -86.59783 -47.52098
v 102.0029 -97.56187 -29.7205
v 106.4219 -83.652 -45.5279
v 102.0029 -97.56187 -29.72051
v 102.0029 -97.56187 -29.7205
v 103.007 -96.72021 -29.15104
v 98.4379 -91.99218 -26.4711
v 102.0029 -97.56187 -29.7205
v 100.2474 -70.06409 -62.07208
v 105.5171 -94.61604 -27.72742
v 98.4379 -91.99218 -26.4711
v 98.46329 -96.24995 -29.09234
v 98.46329 -96.24995 -29.09234
v 92.36503 -95.43533 -53.50023
v 93.26981 -84.47128 -71.30071
v 93.26981 -84.47128 -71.30071
v 95.77997 -82.36711 -69.87709
v 95.87925 -92.48949 -51.50714
v 96.78403 -81.52545 -69.30763
v 93.51884 -104.6737 -34.53222
v 91.46026 -106.3994 -35.69974
v 94.97448 -103.4535 -33.70666
v 93.26981 -84.47128 -71.30071
v 90.30772 -78.39616 -67.70937
v 93.19795 -72.42851 -63.88674
v 95.30299 -78.48789 -67.51196
v 95.58143 -79.05898 -67.84956
v 95.68643 -79.27432 -67.97687
v 95.73677 -79.37757 -68.0379
v 96.17438 -80.27508 -68.56847
v 96.63593 -81.22169 -69.12807
v 96.67336 -81.29847 -69.17345
v 96.67669 -81.30531 -69.17749
v 96.68855 -81.32964 -69.19188
v 96.78403 -81.52545 -69.30763
v 95.37985 -78.32918 -67.41029
v 95.39893 -78.2898 -67.38507
v 95.4046 -78.27808 -67.37756
v 95.44749 -78.18951 -67.32083
v 95.93964 -77.17336 -66.66992
v 96.34622 -76.33385 -66.13217
v 96.7481 -75.50407 -65.60065
v 96.85687 -75.46758 -65.57265
v 97.10058 -75.38584 -65.50991
v 97.78047 -75.15781 -65.33489
v 100.2474 -70.06409 -62.07208
v 98.05238 -75.0666 -65.2649
v 98.97952 -74.75564 -65.02624
v 99.74293 -74.49959 -64.82973
v 100.2728 -74.32185 -64.69331
v 100.4832 -74.39983 -64.73065
v 100.5451 -74.42278 -64.74164
v 100.5515 -74.42512 -64.74276
v 100.5544 -74.42621 -64.74328
v 100.5581 -74.42758 -64.74393
v 100.6268 -74.45305 -64.75613
v 103.8125 -75.63378 -65.32147
v 103.8125 -75.63378 -65.32147
v 103.8125 -75.63378 -65.32147
v 107.3267 -72.68795 -63.32839
v 93.26981 -84.47128 -71.30071
v 88.49817 -100.3243 -32.10839
v 90.30772 -78.39616 -67.70937
v 92.36503 -95.43533 -53.50023
v 91.3884 -94.35661 -28.28576
v 93.19795 -72.42851 -63.88674
v 98.4379 -91.99218 -26.4711
v 100.2474 -70.06409 -62.07208
v 91.46026 -106.3994 -35.69974
v 107.3267 -72.68795 -63.32839
v 102.9077 -86.59783 -47.52098
v 103.8125 -75.63378 -65.32147
v 106.4219 -83.652 -45.5279
v 102.0029 -97.56187 -29.72051
v 105.5171 -94.61604 -27.72742
v 103.007 -96.72021 -29.15104
v 102.0029 -97.56187 -29.7205
v 94.97448 -103.4535 -33.70666
v 88.49817 -100.3243 -32.10839
v 93.51884 -104.6737 -34.53222
v 88.49817 -100.3243 -32.10839
v 91.46026 -106.3994 -35.69974
v 94.97448 -103.4535 -33.70666
v 94.11521 -101.6912 -32.66485
v 94.97448 -103.4535 -33.70666
v 94.00844 -101.4722 -32.53539
v 93.97845 -101.4107 -32.49904
v 93.64154 -100.7197 -32.09055
v 93.59026 -100.6146 -32.02837
v 93.53604 -100.5034 -31.96264
v 93.52438 -100.4794 -31.94849
v 93.49344 -100.416 -31.91098
v 91.3884 -94.35661 -28.28576
v 93.9167 -99.54204 -31.35117
v 94.18524 -98.98757 -30.996
v 94.35689 -98.63316 -30.76898
v 94.40797 -98.52769 -30.70142
v 94.79404 -97.73054 -30.1908
v 94.84872 -97.61763 -30.11848
v 94.8939 -97.52435 -30.05873
v 94.93855 -97.43216 -29.99967
v 95.91747 -97.10382 -29.74767
v 98.11082 -96.36816 -29.18307
v 98.21658 -96.3327 -29.15585
v 98.3196 -96.29814 -29.12933
v 98.40442 -96.2697 -29.10749
v 98.46329 -96.24995 -29.09234
v 98.4379 -91.99218 -26.4711
v 98.46329 -96.24995 -29.09234
v 100.3566 -96.9517 -29.42834
v 100.9139 -97.15825 -29.52724
v 100.9708 -97.17934 -29.53733
v 100.9972 -97.18911 -29.54201
v 101.0305 -97.20147 -29.54793
v 101.649 -97.43069 -29.65768
v 102.0029 -97.56187 -29.7205
v 103.007 -96.72021 -29.15104
v 102.0029 -97.56187 -29.7205
v 105.5171 -94.61604 -27.72742

vn -0.7028436 -0.5891655 -0.3986162
vn -0.7028436 -0.5891656 -0.3986161
vn -0.5055002 -0.1063456 -0.8562478
vn 0.0432373 0.5239505 -0.8506508
vn 0.0432373 0.5239505 -0.8506508
vn 0.9210611 0.308922 0.2370939
vn 0.7018945 0.657342 0.2743097
vn 0.8567224 -0.4574662 -0.2382259
vn 0.9210593 0.3089255 0.2370963
vn 0.9210591 0.3089263 0.2370967
vn 0.9210591 0.308926 0.2370966
vn 0.9210595 0.3089251 0.2370962
vn 0.9210599 0.3089242 0.2370957
vn 0.9210577 0.3089291 0.2370979
vn 0.9210588 0.3089268 0.2370969
vn 0.921059 0.3089263 0.2370967
vn 0.921059 0.3089265 0.2370968
vn 0.9210589 0.3089265 0.2370968
vn 0.921059 0.3089263 0.2370967
vn 0.9210589 0.3089266 0.2370968
vn 0.9210593 0.3089256 0.2370963
vn 0.9210599 0.3089243 0.2370956
vn 0.921059 0.3089261 0.2370965
vn 0.9210588 0.3089269 0.2370969
vn 0.968896 0.1856685 0.1636086
vn 0.9396188 -0.3106466 -0.1435802
vn 0.9249472 -0.3428251 -0.1641459
vn 0.9249474 -0.3428244 -0.1641455
vn 0.9249476 -0.3428242 -0.1641454
vn 0.9249485 -0.3428225 -0.1641445
vn 0.9249489 -0.3428214 -0.1641439
vn 0.9249495 -0.3428199 -0.1641432
vn 0.9249485 -0.3428223 -0.1641444
vn 0.9249479 -0.3428233 -0.1641448
vn 0.9249479 -0.3428238 -0.1641451
vn 0.9249477 -0.3428239 -0.1641451
vn 0.9249481 -0.3428229 -0.1641446
vn 0.924948 -0.3428235 -0.1641449
vn 0.9249474 -0.3428244 -0.1641455
vn 0.8980872 -0.3934 -0.1966622
vn 0.446941 -0.7716396 -0.4525667
vn 0.3870162 -0.7937508 -0.4692318
vn 0.3870153 -0.7937511 -0.4692321
vn 0.3870146 -0.7937514 -0.4692323
vn 0.3870146 -0.7937513 -0.4692323
vn 0.387015 -0.7937511 -0.4692321
vn 0.3870155 -0.7937509 -0.4692321
vn 0.3870151 -0.7937511 -0.4692322
vn 0.3870155 -0.7937511 -0.4692321
vn 0.3870151 -0.7937511 -0.4692322
vn 0.3870152 -0.7937511 -0.4692322
vn 0.3870155 -0.7937509 -0.4692321
vn 0.197917 -0.8390646 -0.5067543
vn 0.387037 -0.7937437 -0.4692266
vn -0.377626 -0.7797106 -0.4994499
vn -0.3776271 -0.7797101 -0.4994496
vn -0.3776276 -0.7797101 -0.4994496
vn -0.3776287 -0.7797096 -0.4994492
vn -0.3776268 -0.7797103 -0.4994498
vn -0.3776253 -0.7797108 -0.4994503
vn -0.3776227 -0.7797114 -0.4994509
vn -0.3775806 -0.779724 -0.4994631
vn -0.377607 -0.7797162 -0.4994555
vn -0.3776336 -0.7797082 -0.4994479
vn -0.3776298 -0.7797094 -0.499449
vn -0.377627 -0.7797102 -0.4994496
vn -0.3776265 -0.7797104 -0.4994498
vn -0.3776262 -0.7797105 -0.4994498
vn -0.3776216 -0.7797123 -0.4994506
vn -0.2173464 -0.8261211 -0.5198892
vn -0.7028436 -0.5891657 -0.3986159
vn -0.7028436 -0.5891657 -0.3986159
vn -0.7028436 -0.5891657 -0.3986159
vn 0.0432373 0.5239505 -0.8506508
vn 0.3776268 0.7797102 0.4994498
vn 0.0432373 0.5239505 -0.8506508
vn 0.7953494 -0.5333249 -0.2880699
vn -0.4235942 0.0157661 -0.905715
vn -0.3602223 0.1009925 -0.9273838
vn -0.6979954 -0.5504506 -0.4580464
vn -0.7028436 -0.5891657 -0.3986159
vn -0.7028436 -0.5891657 -0.3986159
vn -0.7028436 -0.5891657 -0.3986159
vn -0.6946517 -0.5320637 -0.484115
vn 0.0432373 0.5239505 -0.8506508
vn -0.7022357 -0.5824871 -0.4093579
vn -0.7028436 -0.5891657 -0.3986159
vn -0.689665 -0.5091465 -0.5149098
vn -0.7028483 -0.5891616 -0.3986136
vn -0.7041761 -0.6195579 -0.34682
vn 0.3776268 0.7797102 0.4994498
vn -0.7028604 -0.5891511 -0.3986078
vn -0.04324218 -0.5239546 0.8506481
vn -0.0432373 -0.5239505 0.8506508
vn -0.0432376 -0.5239502 0.850651
vn 0 0 0
vn 0.3776268 0.7797103 0.4994498
vn 0.3776268 0.7797103 0.4994498
vn 0.3776268 0.7797103 0.4994498
vn -0.0432376 -0.5239502 0.850651
vn -0.0432376 -0.5239502 0.850651
vn 0.7100291 -0.6151097 -0.3427812
vn 0.7100291 -0.6151097 -0.3427812
vn 0.7100291 -0.6151097 -0.3427812
vn 0.7100291 -0.6151097 -0.3427812
vn 0.7100291 -0.6151097 -0.3427812
vn 0.7100291 -0.6151097 -0.3427812
vn 0.7100291 -0.6151097 -0.3427812
vn 0.7100291 -0.6151097 -0.3427812
vn 0.7100291 -0.6151097 -0.3427812
vn 0.0432373 0.5239505 -0.8506508
vn 0.0432373 0.5239505 -0.8506508
vn 0.0432373 0.5239505 -0.8506508
vn 0.0432373 0.5239505 -0.8506508
vn 0.0432373 0.5239505 -0.8506508
vn 0.0432373 0.5239505 -0.8506508
vn 0.0432373 0.5239505 -0.8506508
vn 0.0432373 0.5239505 -0.8506508
vn 0.0432373 0.5239505 -0.8506508
vn 0.0432373 0.5239505 -0.8506508
vn 0.0432373 0.5239505 -0.8506508
vn 0.0432373 0.5239505 -0.8506508
vn 0.0432373 0.5239505 -0.8506508
vn 0.0432373 0.5239505 -0.8506508
vn 0.0432373 0.5239505 -0.8506508
vn 0.0432373 0.5239505 -0.8506508
vn 0.0432373 0.5239505 -0.8506508
vn 0.0432373 0.5239505 -0.8506508
vn 0.0432373 0.5239505 -0.8506508
vn 0.0432373 0.5239505 -0.8506508
vn 0.0432373 0.5239505 -0.8506508
vn 0.0432373 0.5239505 -0.8506508
vn 0.0432373 0.5239505 -0.8506508
vn 0.0432373 0.5239505 -0.8506508
vn 0.0432373 0.5239505 -0.8506508
vn 0.0432373 0.5239505 -0.8506508
vn 0.0432373 0.5239505 -0.8506508
vn 0.0432373 0.5239505 -0.8506508
vn 0.0432373 0.5239505 -0.8506508
vn 0.0432373 0.5239505 -0.8506508
vn 0.0432373 0.5239505 -0.8506508
vn 0.0432373 0.5239505 -0.8506508
vn 0.0432373 0.5239505 -0.8506508
vn 0.0432373 0.5239505 -0.8506508
vn 0.0432373 0.5239505 -0.8506508
vn 0.0432373 0.5239505 -0.8506508
vn 0.0432373 0.5239505 -0.8506508
vn 0.0432373 0.5239505 -0.8506508
vn -0.9210592 -0.308926 -0.2370966
vn -0.9889682 -0.09829697 -0.1108133
vn -0.9903581 0.1346427 0.03259313
vn -0.9210591 -0.3089259 -0.2370965
vn -0.799487 0.5287468 0.2850398
vn -0.6072261 0.6899114 0.39408
vn -0.387015 0.7937511 0.4692322
vn -0.387015 0.7937511 0.4692323
vn -0.9210591 -0.308926 -0.2370965
vn 0.7100291 -0.6151097 -0.3427812
vn 0.7100291 -0.6151097 -0.3427812
vn 0.7100291 -0.6151097 -0.3427812
vn 0.7100291 -0.6151097 -0.3427812
vn 0.7100291 -0.6151097 -0.3427812
vn 0.7100291 -0.6151097 -0.3427812
vn 0.7100291 -0.6151097 -0.3427812
vn 0.7100291 -0.6151097 -0.3427812
vn 0.6794695 0.4706638 0.562847
vn -0.04323782 -0.5239509 0.8506505
vn -0.04323745 -0.5239503 0.8506508
vn -0.04323754 -0.5239504 0.8506509
vn -0.04323745 -0.5239503 0.8506509
vn -0.04323745 -0.5239503 0.8506509
vn -0.0432376 -0.5239506 0.8506508
vn -0.0432376 -0.5239506 0.8506508
vn -0.0432376 -0.5239506 0.8506508
vn -0.0432376 -0.5239506 0.8506508
vn -0.0432376 -0.5239506 0.8506508
vn -0.0432376 -0.5239506 0.8506507
vn -0.0432376 -0.5239506 0.8506508
vn -0.0432376 -0.5239506 0.8506507
vn -0.0432376 -0.5239504 0.8506509
vn -0.04323751 -0.5239503 0.850651
vn -0.0432376 -0.5239503 0.8506509
vn -0.0432376 -0.5239503 0.8506509
vn -0.0432376 -0.5239503 0.8506509
vn -0.0432376 -0.5239503 0.8506509
vn -0.0432376 -0.5239503 0.8506509
vn -0.0432376 -0.5239503 0.8506509
vn -0.0432376 -0.5239503 0.8506509
vn -0.04323744 -0.5239502 0.850651
vn -0.04323743 -0.5239502 0.850651
vn -0.04323743 -0.5239502 0.850651
vn -0.04323743 -0.5239502 0.850651
vn -0.04323743 -0.5239502 0.850651
vn -0.04323743 -0.5239502 0.850651
vn -0.04323743 -0.5239502 0.850651
vn -0.04323738 -0.5239503 0.850651
vn -0.04323718 -0.5239502 0.850651
vn -0.04323718 -0.5239502 0.850651
vn -0.04323718 -0.5239502 0.850651
vn -0.04323718 -0.5239502 0.850651
vn -0.04323718 -0.5239502 0.850651
vn -0.04323718 -0.5239502 0.850651
vn -0.04323718 -0.5239502 0.850651
vn -0.04323717 -0.5239502 0.850651
vn -0.04323745 -0.5239503 0.8506509
vn -0.04323745 -0.5239503 0.8506509
vn -0.04323745 -0.5239503 0.8506508

f 1//1 2//2 3//3
f 4//4 1//1 3//3
f 3//3 5//5 4//4
f 3//3 6//6 5//5
f 5//5 6//6 7//7
f 8//8 7//7 6//6
f 9//9 8//8 6//6
f 10//10 9//9 6//6
f 9//9 10//10 11//11
f 11//11 10//10 12//12
f 13//13 11//11 12//12
f 13//13 12//12 14//14
f 13//13 14//14 15//15
f 15//15 14//14 16//16
f 15//15 16//16 17//17
f 18//18 17//17 16//16
f 19//19 17//17 18//18
f 19//19 18//18 20//20
f 21//21 19//19 20//20
f 22//22 19//19 21//21
f 22//22 21//21 23//23
f 24//24 22//22 23//23
f 24//24 23//23 25//25
f 26//26 24//24 25//25
f 26//26 25//25 27//27
f 28//28 26//26 27//27
f 28//28 27//27 29//29
f 29//29 27//27 30//30
f 31//31 29//29 30//30
f 31//31 30//30 32//32
f 33//33 31//31 32//32
f 33//33 32//32 34//34
f 35//35 33//33 34//34
f 35//35 34//34 36//36
f 37//37 35//35 36//36
f 37//37 36//36 38//38
f 39//39 37//37 38//38
f 39//39 38//38 40//40
f 41//41 39//39 40//40
f 41//41 40//40 42//42
f 41//41 42//42 43//43
f 43//43 42//42 44//44
f 45//45 43//43 44//44
f 45//45 44//44 46//46
f 47//47 45//45 46//46
f 48//48 45//45 47//47
f 48//48 47//47 49//49
f 50//50 48//48 49//49
f 50//50 49//49 51//51
f 52//52 50//50 51//51
f 52//52 51//51 53//53
f 54//54 52//52 53//53
f 55//55 54//54 53//53
f 55//55 53//53 56//56
f 55//55 56//56 57//57
f 57//57 56//56 58//58
f 57//57 58//58 59//59
f 59//59 58//58 60//60
f 59//59 60//60 61//61
f 61//61 60//60 62//62
f 61//61 62//62 63//63
f 63//63 62//62 64//64
f 63//63 64//64 65//65
f 65//65 64//64 66//66
f 65//65 66//66 67//67
f 68//68 67//67 66//66
f 69//69 67//67 68//68
f 69//69 68//68 70//70
f 71//71 69//69 70//70
f 72//72 71//71 73//73
f 74//74 75//75 76//76
f 77//77 74//74 76//76
f 75//75 77//77 76//76
f 78//78 75//75 74//74
f 79//79 75//75 78//78
f 78//78 74//74 80//80
f 81//81 78//78 80//80
f 82//82 78//78 81//81
f 82//82 83//83 78//78
f 83//83 84//84 79//79
f 84//84 85//85 79//79
f 80//80 74//74 86//86
f 87//87 80//80 86//86
f 81//81 80//80 87//87
f 86//86 74//74 88//88
f 88//88 74//74 77//77
f 86//86 88//88 89//89
f 90//90 86//86 89//89
f 87//87 86//86 90//90
f 75//75 91//91 77//77
f 90//90 89//89 92//92
f 90//90 92//92 93//93
f 94//94 90//90 93//93
f 95//95 83//83 82//82
f 95//95 82//82 81//81
f 95//95 81//81 87//87
f 95//95 87//87 90//90
f 95//95 96//96 83//83
f 97//97 91//91 75//75
f 97//97 98//98 91//91
f 97//97 99//99 98//98
f 100//100 95//95 101//101
f 102//102 103//103 104//104
f 102//102 104//104 105//105
f 102//102 105//105 106//106
f 106//106 105//105 107//107
f 108//108 102//102 106//106
f 109//109 102//102 108//108
f 110//110 108//108 106//106
f 111//111 112//112 113//113
f 111//111 113//113 114//114
f 111//111 114//114 115//115
f 111//111 115//115 116//116
f 111//111 116//116 117//117
f 117//117 118//118 111//111
f 118//118 119//119 111//111
f 120//120 111//111 119//119
f 120//120 121//121 111//111
f 121//121 122//122 111//111
f 111//111 122//122 123//123
f 114//114 113//113 124//124
f 124//124 113//113 125//125
f 125//125 113//113 126//126
f 126//126 113//113 127//127
f 127//127 113//113 128//128
f 128//128 113//113 129//129
f 129//129 113//113 130//130
f 130//130 113//113 131//131
f 131//131 113//113 132//132
f 132//132 113//113 133//133
f 133//133 113//113 134//134
f 133//133 134//134 135//135
f 135//135 134//134 136//136
f 134//134 137//137 136//136
f 137//137 134//134 138//138
f 138//138 134//134 139//139
f 139//139 134//134 140//140
f 140//140 134//134 141//141
f 134//134 142//142 141//141
f 134//134 143//143 142//142
f 134//134 144//144 143//143
f 144//144 134//134 145//145
f 145//145 134//134 146//146
f 147//147 134//134 148//148
f 149//149 150//150 151//151
f 149//149 152//152 150//150
f 151//151 150//150 153//153
f 151//151 153//153 154//154
f 154//154 153//153 155//155
f 154//154 155//155 156//156
f 152//152 157//157 150//150
f 158//158 159//159 160//160
f 161//161 159//159 158//158
f 162//162 159//159 161//161
f 163//163 162//162 161//161
f 164//164 162//162 163//163
f 165//165 162//162 164//164
f 9//9 166//166 8//8
f 166//166 9//9 167//167
f 168//168 169//169 170//170
f 168//168 171//171 169//169
f 172//172 169//169 173//173
f 174//174 169//169 172//172
f 169//169 174//174 175//175
f 176//176 169//169 175//175
f 177//177 169//169 176//176
f 178//178 169//169 177//177
f 178//178 179//179 169//169
f 179//179 180//180 169//169
f 180//180 181//181 169//169
f 182//182 181//181 180//180
f 182//182 183//183 181//181
f 183//183 184//184 181//181
f 184//184 185//185 181//181
f 185//185 186//186 181//181
f 186//186 187//187 181//181
f 187//187 188//188 181//181
f 188//188 189//189 181//181
f 181//181 189//189 190//190
f 181//181 190//190 191//191
f 192//192 181//181 191//191
f 193//193 181//181 192//192
f 194//194 181//181 193//193
f 195//195 181//181 194//194
f 195//195 196//196 181//181
f 196//196 197//197 198//198
f 196//196 198//198 199//199
f 199//199 200//200 196//196
f 196//196 200//200 201//201
f 201//201 202//202 196//196
f 196//196 202//202 203//203
f 196//196 203//203 204//204
f 205//205 196//196 206//206
f 207//207 196//196 205//205
