v 25.68172 26.49345 138.3307
v 30.48946 6.127521 138.3307
v 25.68172 26.49345 138.3307
v 25.68172 26.49345 138.3307
v 29.04721 27.28793 137.4378
v 30.39341 27.60573 137.0806
v 30.39341 27.60573 137.0806
v 35.20115 7.239799 137.0806
v 40.00889 -13.12613 137.0806
v 30.53783 27.63982 137.2777
v 41.3087 -12.81929 138.8543
v 30.55578 27.64406 137.3022
v 41.47021 -12.78116 139.0747
v 30.56082 27.64525 137.309
v 41.51556 -12.77045 139.1365
v 30.61745 27.65862 137.3863
v 42.02522 -12.65014 139.832
v 31.31562 27.82343 138.339
v 42.10279 -12.63183 139.9378
v 31.97758 27.9797 139.2423
v 32.05373 27.99768 139.3462
v 42.1848 -12.61247 140.0497
v 32.21257 28.03517 139.5629
v 42.20245 -12.6083 140.0738
v 32.63377 28.13461 140.1377
v 42.24925 -12.59725 140.1377
v 32.82994 28.18091 140.1661
v 43.32945 -12.34225 140.2941
v 44.01478 -12.18047 140.3933
v 32.87861 28.1924 140.1731
v 44.45283 -12.07706 140.4567
v 32.8931 28.19582 140.1752
v 44.58319 -12.04628 140.4756
v 33.00257 28.22167 140.1911
v 45.56848 -11.81369 140.6183
v 34.25855 28.51816 140.3729
v 45.70803 -11.78075 140.6385
v 35.29619 28.76311 140.5232
v 45.82333 -11.75353 140.6552
v 36.3218 29.00523 140.6717
v 45.93728 -11.72663 140.6717
v 36.41362 29.02691 140.6006
v 46.76361 -11.53156 140.0323
v 36.61933 29.07547 140.4415
v 48.61506 -11.09449 138.5999
v 37.19324 29.21095 139.9974
v 37.42277 29.26513 139.8199
v 48.70433 -11.07342 138.5308
v 38.20539 29.44988 139.2144
v 48.79128 -11.05289 138.4636
v 38.84979 29.60201 138.7158
v 48.86288 -11.03598 138.4082
v 39.2971 29.7076 138.3697
v 48.91258 -11.02425 138.3697
v 48.91259 -11.02425 138.3697
v 39.32799 29.71489 138.1445
v 49.19056 -10.95863 136.3428
v 39.33708 29.71704 138.0782
v 49.27238 -10.93932 135.7462
v 39.33801 29.71726 138.0714
v 49.28073 -10.93734 135.6853
v 39.33844 29.71736 138.0683
v 49.28461 -10.93643 135.657
v 39.33899 29.71749 138.0643
v 49.2895 -10.93528 135.6213
v 39.34907 29.71987 137.9908
v 49.3803 -10.91384 134.9593
v 39.81678 29.83028 134.5803
v 49.43227 -10.90157 134.5803
v 39.81679 29.83028 134.5803
v 49.43227 -10.90157 134.5803
v 39.81679 29.83028 134.5803
v 39.81679 29.83028 134.5803
v 41.16298 30.14808 134.2231
v 44.52847 30.94256 133.3302
v 44.52847 30.94256 133.3302
v 44.52847 30.94256 133.3302
v 39.81679 29.83028 134.5803
v 39.81679 29.83028 134.5803
v 39.81678 29.83028 134.5803
v 49.43227 -10.90157 134.5803
v 49.43227 -10.90157 134.5803
v 49.43227 -10.90157 134.5803
v 39.81679 29.83028 134.5803
v 43.48911 30.6972 140.909
v 39.81678 29.83028 134.5803
v 49.43227 -10.90157 134.5803
v 39.81678 29.83028 134.5803
v 44.62453 9.464354 134.5803
v 49.43227 -10.90157 134.5803
v 49.33621 10.57663 133.3302
v 49.43226 -10.90155 134.5803
v 49.43227 -10.90157 134.5803
v 50.77846 -10.58378 134.2231
v 53.10459 -10.03465 140.909
v 49.43227 -10.90157 134.5803
v 43.48911 30.6972 140.909
v 54.14395 -9.789294 133.3302
v 53.10459 -10.03465 140.909
v 48.91259 -11.02425 138.3697
v 48.91258 -11.02425 138.3697
v 30.48946 6.127521 138.3307
v 25.68172 26.49345 138.3307
v 25.68172 26.49345 138.3307
v 29.04721 27.28793 137.4378
v 35.20115 7.239799 137.0806
v 30.39341 27.60573 137.0806
v 38.05724 -13.58685 137.5984
v 35.2972 -14.23841 138.3307
v 40.00889 -13.12613 137.0806
v 25.68172 26.49345 138.3307
v 30.16244 27.5512 144.4449
v 37.53851 29.29245 145.5128
v 32.63377 28.13461 140.1377
v 32.21257 28.03517 139.5629
v 32.05373 27.99768 139.3462
v 31.97758 27.9797 139.2423
v 31.31562 27.82343 138.339
v 30.61745 27.65862 137.3863
v 30.56082 27.64525 137.309
v 30.55578 27.64406 137.3022
v 30.53783 27.63982 137.2777
v 30.39341 27.60573 137.0806
v 32.82994 28.18091 140.1661
v 32.87861 28.1924 140.1731
v 32.8931 28.19582 140.1752
v 33.00257 28.22167 140.1911
v 34.25855 28.51816 140.3729
v 35.29619 28.76311 140.5232
v 36.3218 29.00523 140.6717
v 36.41362 29.02691 140.6006
v 36.61933 29.07547 140.4415
v 37.19324 29.21095 139.9974
v 43.48911 30.6972 140.909
v 37.42277 29.26513 139.8199
v 38.20539 29.44988 139.2144
v 38.84979 29.60201 138.7158
v 39.2971 29.7076 138.3697
v 39.32799 29.71489 138.1445
v 39.33708 29.71704 138.0782
v 39.33801 29.71726 138.0714
v 39.33844 29.71736 138.0683
v 39.33899 29.71749 138.0643
v 39.34907 29.71987 137.9908
v 39.81678 29.83028 134.5803
v 39.81679 29.83028 134.5803
v 39.81679 29.83028 134.5803
v 44.52847 30.94256 133.3302
v 25.68172 26.49345 138.3307
v 39.77792 -13.18065 144.4449
v 30.16244 27.5512 144.4449
v 30.48946 6.127521 138.3307
v 47.15398 -11.4394 145.5128
v 37.53851 29.29245 145.5128
v 53.10459 -10.03465 140.909
v 43.48911 30.6972 140.909
v 35.2972 -14.23841 138.3307
v 44.52847 30.94256 133.3302
v 44.62453 9.464354 134.5803
v 39.81678 29.83028 134.5803
v 49.33621 10.57663 133.3302
v 49.43226 -10.90155 134.5803
v 54.14395 -9.789294 133.3302
v 50.77846 -10.58378 134.2231
v 49.43227 -10.90157 134.5803
v 40.00889 -13.12613 137.0806
v 39.77792 -13.18065 144.4449
v 38.05724 -13.58685 137.5984
v 39.77792 -13.18065 144.4449
v 35.2972 -14.23841 138.3307
v 40.00889 -13.12613 137.0806
v 41.3087 -12.81929 138.8543
v 40.00889 -13.12613 137.0806
v 41.47021 -12.78116 139.0747
v 41.51556 -12.77045 139.1365
v 42.02522 -12.65014 139.832
v 42.10279 -12.63183 139.9378
v 42.1848 -12.61247 140.0497
v 42.20245 -12.6083 140.0738
v 42.24925 -12.59725 140.1377
v 47.15398 -11.4394 145.5128
v 43.32945 -12.34225 140.2941
v 44.01478 -12.18047 140.3933
v 44.45283 -12.07706 140.4567
v 44.58319 -12.04628 140.4756
v 45.56848 -11.81369 140.6183
v 45.70803 -11.78075 140.6385
v 45.82333 -11.75353 140.6552
v 45.93728 -11.72663 140.6717
v 46.76361 -11.53156 140.0323
v 48.61506 -11.09449 138.5999
v 48.70433 -11.07342 138.5308
v 48.79128 -11.05289 138.4636
v 48.86288 -11.03598 138.4082
v 48.91258 -11.02425 138.3697
v 53.10459 -10.03465 140.909
v 48.91259 -11.02425 138.3697
v 49.19056 -10.95863 136.3428
v 49.27238 -10.93932 135.7462
v 49.28073 -10.93734 135.6853
v 49.28461 -10.93643 135.657
v 49.2895 -10.93528 135.6213
v 49.3803 -10.91384 134.9593
v 49.43227 -10.90157 134.5803
v 50.77846 -10.58378 134.2231
v 49.43227 -10.90157 134.5803
v 54.14395 -9.789294 133.3302

vn -0.9423371 -0.222455 0.2500291
vn -0.942337 -0.2224552 0.2500291
vn -0.8649967 0.4644812 0.1898363
vn -0.2297529 0.973249 7.748895E-08
vn -0.2297529 0.973249 7.748895E-08
vn 0.7774805 0.1835382 -0.6015295
vn 0.9003743 0.3578576 -0.2475163
vn -0.01241469 -0.002930827 -0.9999186
vn 0.7774833 0.1835386 -0.6015258
vn 0.7774839 0.1835387 -0.6015251
vn 0.7774836 0.1835386 -0.6015254
vn 0.777483 0.1835384 -0.6015262
vn 0.7774824 0.1835382 -0.601527
vn 0.7774857 0.1835396 -0.6015224
vn 0.7774841 0.1835389 -0.6015247
vn 0.7774838 0.1835388 -0.6015251
vn 0.777484 0.1835389 -0.601525
vn 0.7774839 0.1835389 -0.6015249
vn 0.7774838 0.1835388 -0.6015251
vn 0.7774841 0.1835388 -0.6015248
vn 0.7774833 0.1835387 -0.6015258
vn 0.7774824 0.1835384 -0.601527
vn 0.7774836 0.1835388 -0.6015252
vn 0.7774842 0.1835389 -0.6015246
vn 0.6802865 0.1605937 -0.7151365
vn 0.1751018 0.04133578 -0.9836822
vn 0.1357973 0.03205718 -0.9902179
vn 0.1357981 0.03205741 -0.9902177
vn 0.1357984 0.0320575 -0.9902177
vn 0.1358004 0.03205813 -0.9902175
vn 0.1358016 0.03205851 -0.9902172
vn 0.1358031 0.0320591 -0.990217
vn 0.1358005 0.0320582 -0.9902174
vn 0.1357994 0.03205775 -0.9902175
vn 0.1357989 0.03205757 -0.9902177
vn 0.1357988 0.03205749 -0.9902176
vn 0.1357998 0.03205784 -0.9902174
vn 0.1357992 0.03205768 -0.9902176
vn 0.1357981 0.03205736 -0.9902177
vn 0.07207305 0.01701392 -0.9972543
vn -0.5328619 -0.1257917 -0.8368003
vn -0.5854329 -0.138202 -0.7988545
vn -0.5854338 -0.1382022 -0.7988539
vn -0.5854343 -0.1382024 -0.7988535
vn -0.5854343 -0.1382023 -0.7988534
vn -0.5854339 -0.1382022 -0.7988536
vn -0.5854335 -0.138202 -0.798854
vn -0.5854339 -0.1382021 -0.7988538
vn -0.5854337 -0.1382021 -0.798854
vn -0.5854338 -0.1382021 -0.7988537
vn -0.5854339 -0.1382021 -0.7988538
vn -0.5854335 -0.138202 -0.798854
vn -0.7271689 -0.1716611 -0.6646487
vn -0.5854154 -0.1381977 -0.7988681
vn -0.9637282 -0.2275051 -0.1395325
vn -0.9637283 -0.2275052 -0.1395312
vn -0.9637285 -0.2275053 -0.1395307
vn -0.9637285 -0.2275054 -0.1395295
vn -0.9637284 -0.2275052 -0.1395316
vn -0.9637283 -0.2275048 -0.1395332
vn -0.9637278 -0.2275045 -0.1395359
vn -0.963723 -0.2274975 -0.1395807
vn -0.9637261 -0.227502 -0.1395526
vn -0.9637292 -0.2275061 -0.1395244
vn -0.9637287 -0.2275056 -0.1395285
vn -0.9637283 -0.2275052 -0.1395313
vn -0.9637282 -0.2275051 -0.1395319
vn -0.9637282 -0.2275051 -0.1395322
vn -0.9637276 -0.2275051 -0.1395371
vn -0.9273615 -0.2189202 -0.3034379
vn -0.942337 -0.2224554 0.2500291
vn -0.942337 -0.2224554 0.2500291
vn -0.942337 -0.2224554 0.2500291
vn -0.2297529 0.973249 7.748895E-08
vn 0.9637284 0.227505 0.1395315
vn -0.2297529 0.973249 7.748895E-08
vn -0.1188104 -0.02804742 -0.9925207
vn -0.7867161 0.5955743 0.1623849
vn -0.7206903 0.6787974 0.1408536
vn -0.9562793 -0.1527448 0.2493973
vn -0.942337 -0.2224554 0.2500291
vn -0.942337 -0.2224554 0.2500291
vn -0.942337 -0.2224554 0.2500291
vn -0.96099 -0.1210249 0.2486993
vn -0.2297529 0.973249 7.748895E-08
vn -0.9451723 -0.2101134 0.2500035
vn -0.942337 -0.2224554 0.2500291
vn -0.965358 -0.0825814 0.2475162
vn -0.9423354 -0.222455 0.2500356
vn -0.9268406 -0.2804893 0.2495841
vn 0.9637283 0.2275051 0.1395315
vn -0.9423313 -0.222454 0.250052
vn 0.2297463 -0.9732506 1.658402E-06
vn 0.2297529 -0.973249 -7.748895E-08
vn 0.229753 -0.973249 3.403867E-07
vn 0 0 0
vn 0.9637284 0.2275051 0.1395316
vn 0.9637284 0.2275051 0.1395316
vn 0.9637284 0.2275051 0.1395316
vn 0.229753 -0.973249 3.403867E-07
vn 0.229753 -0.973249 3.403867E-07
vn -0.2433406 -0.05744496 -0.9682383
vn -0.2433406 -0.05744495 -0.9682382
vn -0.2433406 -0.05744496 -0.9682383
vn -0.2433406 -0.05744496 -0.9682383
vn -0.2433406 -0.05744496 -0.9682383
vn -0.2433406 -0.05744496 -0.9682383
vn -0.2433406 -0.05744496 -0.9682383
vn -0.2433406 -0.05744496 -0.9682383
vn -0.2433406 -0.05744496 -0.9682383
vn -0.2297529 0.973249 7.748895E-08
vn -0.2297529 0.973249 7.748895E-08
vn -0.2297529 0.973249 7.748895E-08
vn -0.2297529 0.973249 7.748895E-08
vn -0.2297529 0.973249 7.748895E-08
vn -0.2297529 0.973249 7.748895E-08
vn -0.2297529 0.973249 7.748895E-08
vn -0.2297529 0.973249 7.748895E-08
vn -0.2297529 0.973249 7.748895E-08
vn -0.2297529 0.973249 7.748895E-08
vn -0.2297529 0.973249 7.748895E-08
vn -0.2297529 0.973249 7.748895E-08
vn -0.2297529 0.973249 7.748895E-08
vn -0.2297529 0.973249 7.748894E-08
vn -0.2297529 0.973249 7.748895E-08
vn -0.2297529 0.973249 7.748895E-08
vn -0.2297529 0.973249 7.748894E-08
vn -0.2297529 0.973249 7.748895E-08
vn -0.2297529 0.973249 7.748895E-08
vn -0.2297529 0.973249 7.748895E-08
vn -0.2297529 0.973249 7.748894E-08
vn -0.2297529 0.973249 7.748895E-08
vn -0.2297529 0.973249 7.748895E-08
vn -0.2297529 0.973249 7.748895E-08
vn -0.2297529 0.973249 7.748895E-08
vn -0.2297529 0.973249 7.748895E-08
vn -0.2297529 0.973249 7.748895E-08
vn -0.2297529 0.973249 7.748895E-08
vn -0.2297529 0.973249 7.748895E-08
vn -0.2297529 0.973249 7.748895E-08
vn -0.2297529 0.973249 7.748895E-08
vn -0.2297529 0.973249 7.748894E-08
vn -0.2297529 0.973249 7.748895E-08
vn -0.2297529 0.973249 7.748894E-08
vn -0.2297529 0.973249 7.748894E-08
vn -0.2297529 0.973249 7.748895E-08
vn -0.2297529 0.973249 7.748894E-08
vn -0.2297529 0.973249 7.748894E-08
vn -0.7774836 -0.1835386 0.6015255
vn -0.6042913 -0.1426535 0.783889
vn -0.3749489 -0.08851323 0.9228102
vn -0.7774835 -0.1835386 0.6015254
vn 0.112167 0.0264791 0.9933366
vn 0.3699406 0.08733111 0.9249418
vn 0.585434 0.1382021 0.7988536
vn 0.585434 0.1382021 0.7988537
vn -0.7774836 -0.1835387 0.6015253
vn -0.2433406 -0.05744496 -0.9682383
vn -0.2433406 -0.05744496 -0.9682383
vn -0.2433406 -0.05744496 -0.9682383
vn -0.2433406 -0.05744496 -0.9682383
vn -0.2433406 -0.05744496 -0.9682383
vn -0.2433406 -0.05744496 -0.9682383
vn -0.2433406 -0.05744497 -0.9682383
vn -0.2433406 -0.05744496 -0.9682382
vn 0.9693493 0.02045477 -0.2448334
vn 0.2297522 -0.9732491 1.067222E-07
vn 0.2297529 -0.973249 1.314489E-07
vn 0.2297528 -0.973249 1.766607E-07
vn 0.2297529 -0.973249 1.314489E-07
vn 0.2297529 -0.973249 1.314489E-07
vn 0.2297526 -0.9732491 1.212068E-07
vn 0.2297526 -0.9732491 1.212068E-07
vn 0.2297526 -0.9732491 1.212069E-07
vn 0.2297526 -0.9732491 1.212066E-07
vn 0.2297526 -0.9732491 1.212066E-07
vn 0.2297526 -0.973249 1.212069E-07
vn 0.2297526 -0.9732491 1.21208E-07
vn 0.2297526 -0.973249 1.212054E-07
vn 0.2297528 -0.973249 2.484402E-07
vn 0.2297529 -0.973249 2.179938E-07
vn 0.2297528 -0.973249 2.495991E-07
vn 0.2297528 -0.973249 2.495993E-07
vn 0.2297528 -0.973249 2.495998E-07
vn 0.2297528 -0.973249 2.495996E-07
vn 0.2297528 -0.973249 2.495995E-07
vn 0.2297528 -0.973249 2.495995E-07
vn 0.2297528 -0.973249 2.495994E-07
vn 0.229753 -0.973249 1.927167E-07
vn 0.2297531 -0.973249 1.863882E-07
vn 0.2297531 -0.973249 1.863882E-07
vn 0.2297531 -0.973249 1.86388E-07
vn 0.2297531 -0.973249 1.863885E-07
vn 0.2297531 -0.973249 1.863882E-07
vn 0.2297531 -0.973249 1.863881E-07
vn 0.229753 -0.973249 1.20855E-07
vn 0.2297532 -0.9732489 -3.139892E-08
vn 0.2297532 -0.9732489 -3.139904E-08
vn 0.2297532 -0.9732489 -3.139928E-08
vn 0.2297532 -0.9732489 -3.139488E-08
vn 0.2297532 -0.9732489 -3.139967E-08
vn 0.2297532 -0.9732489 -3.13994E-08
vn 0.2297532 -0.9732489 -3.139854E-08
vn 0.2297532 -0.9732488 -3.13979E-08
vn 0.2297529 -0.973249 1.314489E-07
vn 0.2297529 -0.973249 1.314489E-07
vn 0.2297529 -0.973249 1.314489E-07

f 1//1 2//2 3//3
f 4//4 1//1 3//3
f 3//3 5//5 4//4
f 3//3 6//6 5//5
f 5//5 6//6 7//7
f 8//8 7//7 6//6
f 9//9 8//8 6//6
f 10//10 9//9 6//6
f 9//9 10//10 11//11
f 11//11 10//10 12//12
f 13//13 11//11 12//12
f 13//13 12//12 14//14
f 13//13 14//14 15//15
f 15//15 14//14 16//16
f 15//15 16//16 17//17
f 18//18 17//17 16//16
f 19//19 17//17 18//18
f 19//19 18//18 20//20
f 21//21 19//19 20//20
f 22//22 19//19 21//21
f 22//22 21//21 23//23
f 24//24 22//22 23//23
f 24//24 23//23 25//25
f 26//26 24//24 25//25
f 26//26 25//25 27//27
f 28//28 26//26 27//27
f 28//28 27//27 29//29
f 29//29 27//27 30//30
f 31//31 29//29 30//30
f 31//31 30//30 32//32
f 33//33 31//31 32//32
f 33//33 32//32 34//34
f 35//35 33//33 34//34
f 35//35 34//34 36//36
f 37//37 35//35 36//36
f 37//37 36//36 38//38
f 39//39 37//37 38//38
f 39//39 38//38 40//40
f 41//41 39//39 40//40
f 41//41 40//40 42//42
f 41//41 42//42 43//43
f 43//43 42//42 44//44
f 45//45 43//43 44//44
f 45//45 44//44 46//46
f 47//47 45//45 46//46
f 48//48 45//45 47//47
f 48//48 47//47 49//49
f 50//50 48//48 49//49
f 50//50 49//49 51//51
f 52//52 50//50 51//51
f 52//52 51//51 53//53
f 54//54 52//52 53//53
f 55//55 54//54 53//53
f 55//55 53//53 56//56
f 55//55 56//56 57//57
f 57//57 56//56 58//58
f 57//57 58//58 59//59
f 59//59 58//58 60//60
f 59//59 60//60 61//61
f 61//61 60//60 62//62
f 61//61 62//62 63//63
f 63//63 62//62 64//64
f 63//63 64//64 65//65
f 65//65 64//64 66//66
f 65//65 66//66 67//67
f 68//68 67//67 66//66
f 69//69 67//67 68//68
f 69//69 68//68 70//70
f 71//71 69//69 70//70
f 72//72 71//71 73//73
f 74//74 75//75 76//76
f 77//77 74//74 76//76
f 75//75 77//77 76//76
f 78//78 75//75 74//74
f 79//79 75//75 78//78
f 78//78 74//74 80//80
f 81//81 78//78 80//80
f 82//82 78//78 81//81
f 82//82 83//83 78//78
f 83//83 84//84 79//79
f 84//84 85//85 79//79
f 80//80 74//74 86//86
f 87//87 80//80 86//86
f 81//81 80//80 87//87
f 86//86 74//74 88//88
f 88//88 74//74 77//77
f 86//86 88//88 89//89
f 90//90 86//86 89//89
f 87//87 86//86 90//90
f 75//75 91//91 77//77
f 90//90 89//89 92//92
f 90//90 92//92 93//93
f 94//94 90//90 93//93
f 95//95 83//83 82//82
f 95//95 82//82 81//81
f 95//95 81//81 87//87
f 95//95 87//87 90//90
f 95//95 96//96 83//83
f 97//97 91//91 75//75
f 97//97 98//98 91//91
f 97//97 99//99 98//98
f 100//100 95//95 101//101
f 102//102 103//103 104//104
f 102//102 104//104 105//105
f 102//102 105//105 106//106
f 106//106 105//105 107//107
f 108//108 102//102 106//106
f 109//109 102//102 108//108
f 110//110 108//108 106//106
f 111//111 112//112 113//113
f 111//111 113//113 114//114
f 111//111 114//114 115//115
f 111//111 115//115 116//116
f 111//111 116//116 117//117
f 117//117 118//118 111//111
f 118//118 119//119 111//111
f 120//120 111//111 119//119
f 120//120 121//121 111//111
f 121//121 122//122 111//111
f 111//111 122//122 123//123
f 114//114 113//113 124//124
f 124//124 113//113 125//125
f 125//125 113//113 126//126
f 126//126 113//113 127//127
f 127//127 113//113 128//128
f 128//128 113//113 129//129
f 129//129 113//113 130//130
f 130//130 113//113 131//131
f 131//131 113//113 132//132
f 132//132 113//113 133//133
f 133//133 113//113 134//134
f 133//133 134//134 135//135
f 135//135 134//134 136//136
f 134//134 137//137 136//136
f 137//137 134//134 138//138
f 138//138 134//134 139//139
f 139//139 134//134 140//140
f 140//140 134//134 141//141
f 134//134 142//142 141//141
f 134//134 143//143 142//142
f 134//134 144//144 143//143
f 144//144 134//134 145//145
f 145//145 134//134 146//146
f 147//147 134//134 148//148
f 149//149 150//150 151//151
f 149//149 152//152 150//150
f 151//151 150//150 153//153
f 151//151 153//153 154//154
f 154//154 153//153 155//155
f 154//154 155//155 156//156
f 152//152 157//157 150//150
f 158//158 159//159 160//160
f 161//161 159//159 158//158
f 162//162 159//159 161//161
f 163//163 162//162 161//161
f 164//164 162//162 163//163
f 165//165 162//162 164//164
f 9//9 166//166 8//8
f 166//166 9//9 167//167
f 168//168 169//169 170//170
f 168//168 171//171 169//169
f 172//172 169//169 173//173
f 174//174 169//169 172//172
f 169//169 174//174 175//175
f 176//176 169//169 175//175
f 177//177 169//169 176//176
f 178//178 169//169 177//177
f 178//178 179//179 169//169
f 179//179 180//180 169//169
f 180//180 181//181 169//169
f 182//182 181//181 180//180
f 182//182 183//183 181//181
f 183//183 184//184 181//181
f 184//184 185//185 181//181
f 185//185 186//186 181//181
f 186//186 187//187 181//181
f 187//187 188//188 181//181
f 188//188 189//189 181//181
f 181//181 189//189 190//190
f 181//181 190//190 191//191
f 192//192 181//181 191//191
f 193//193 181//181 192//192
f 194//194 181//181 193//193
f 195//195 181//181 194//194
f 195//195 196//196 181//181
f 196//196 197//197 198//198
f 196//196 198//198 199//199
f 199//199 200//200 196//196
f 196//196 200//200 201//201
f 201//201 202//202 196//196
f 196//196 202//202 203//203
f 196//196 203//203 204//204
f 205//205 196//196 206//206
f 207//207 196//196 205//205
