v 37.17859 -110.7534 85.89111
v 20.75908 -103.8791 96.89241
v 37.17859 -110.7534 85.89111
v 37.17859 -110.7534 85.89111
v 35.00333 -112.7768 83.90886
v 34.13323 -113.5861 83.11597
v 34.13323 -113.5861 83.11597
v 17.71372 -106.7118 94.11726
v 1.29422 -99.83747 105.1186
v 34.10205 -113.8118 83.21049
v 1.013678 -101.869 105.9693
v 34.09818 -113.8399 83.22223
v 0.9788151 -102.1214 106.075
v 34.0971 -113.8478 83.22553
v 0.9690285 -102.1923 106.1047
v 34.08487 -113.9363 83.2626
v 0.8590279 -102.9889 106.4382
v 33.93418 -115.0275 83.71954
v 0.8422852 -103.1101 106.489
v 33.79131 -116.0621 84.15279
v 33.77487 -116.1811 84.20263
v 0.8245831 -103.2383 106.5427
v 33.74059 -116.4293 84.30659
v 0.8207741 -103.2659 106.5542
v 33.64968 -117.0877 84.58226
v 0.8106737 -103.339 106.5849
v 33.54414 -117.2531 84.5281
v 0.2295074 -104.2498 106.2866
v -0.1392097 -104.8277 106.0974
v 33.51795 -117.2941 84.51466
v -0.3748884 -105.1971 105.9764
v 33.51016 -117.3063 84.51066
v -0.4450274 -105.307 105.9404
v 33.45126 -117.3986 84.48043
v -0.9751272 -106.1378 105.6684
v 32.77552 -118.4577 84.13365
v -1.050209 -106.2555 105.6299
v 32.21725 -119.3326 83.84715
v -1.112238 -106.3527 105.598
v 31.66546 -120.1974 83.56397
v -1.173549 -106.4488 105.5666
v 31.59379 -120.2251 83.47429
v -1.818593 -106.6977 104.7594
v 31.4332 -120.287 83.27334
v -3.26386 -107.2555 102.9508
v 30.9852 -120.4599 82.71272
v 30.80603 -120.5291 82.48852
v -3.333547 -107.2824 102.8636
v 30.1951 -120.7649 81.72403
v -3.401425 -107.3086 102.7787
v 29.69207 -120.959 81.09456
v -3.457318 -107.3301 102.7088
v 29.34289 -121.0937 80.65761
v -3.496116 -107.3451 102.6602
v -3.496116 -107.3451 102.6602
v 29.26561 -120.9843 80.47385
v -4.191689 -106.3597 101.0063
v 29.24286 -120.952 80.41976
v -4.396422 -106.0697 100.5195
v 29.24054 -120.9487 80.41424
v -4.417321 -106.0401 100.4698
v 29.23946 -120.9472 80.41167
v -4.427014 -106.0264 100.4468
v 29.2381 -120.9453 80.40844
v -4.439263 -106.009 100.4177
v 29.21285 -120.9095 80.34842
v -4.666459 -105.6871 99.87746
v 28.04251 -119.2516 77.56567
v -4.796498 -105.5029 99.56827
v 28.04251 -119.2516 77.56567
v -4.796498 -105.5029 99.56827
v 28.04251 -119.2516 77.56567
v 28.04251 -119.2516 77.56567
v 27.17241 -120.0609 76.77277
v 24.99715 -122.0843 74.79053
v 24.99715 -122.0843 74.79053
v 24.99715 -122.0843 74.79053
v 28.04251 -119.2516 77.56567
v 28.04251 -119.2516 77.56567
v 28.04251 -119.2516 77.56567
v -4.796498 -105.5029 99.56827
v -4.796498 -105.5029 99.56827
v -4.796498 -105.5029 99.56827
v 28.04251 -119.2516 77.56567
v 27.59792 -125.7686 80.9744
v 28.04251 -119.2516 77.56567
v -4.796498 -105.5029 99.56827
v 28.04251 -119.2516 77.56567
v 11.623 -112.3773 88.56697
v -4.796498 -105.5029 99.56827
v 8.577644 -115.21 85.79183
v -4.796485 -105.5029 99.56826
v -4.796498 -105.5029 99.56827
v -5.6666 -106.3123 98.77537
v -5.24109 -112.02 102.977
v -4.796498 -105.5029 99.56827
v 27.59792 -125.7686 80.9744
v -7.841857 -108.3357 96.79312
v -5.24109 -112.02 102.977
v -3.496116 -107.3451 102.6602
v -3.496116 -107.3451 102.6602
v 20.75908 -103.8791 96.89241
v 37.17859 -110.7534 85.89111
v 37.17859 -110.7534 85.89111
v 35.00333 -112.7768 83.90886
v 17.71372 -106.7118 94.11726
v 34.13323 -113.5861 83.11597
v 2.55565 -98.66411 106.2681
v 4.339579 -97.00474 107.8937
v 1.29422 -99.83747 105.1186
v 37.17859 -110.7534 85.89111
v 36.21149 -117.7565 88.8237
v 32.24305 -123.976 86.78713
v 33.64968 -117.0877 84.58226
v 33.74059 -116.4293 84.30659
v 33.77487 -116.1811 84.20263
v 33.79131 -116.0621 84.15279
v 33.93418 -115.0275 83.71954
v 34.08487 -113.9363 83.2626
v 34.0971 -113.8478 83.22553
v 34.09818 -113.8399 83.22223
v 34.10205 -113.8118 83.21049
v 34.13323 -113.5861 83.11597
v 33.54414 -117.2531 84.5281
v 33.51795 -117.2941 84.51466
v 33.51016 -117.3063 84.51066
v 33.45126 -117.3986 84.48043
v 32.77552 -118.4577 84.13365
v 32.21725 -119.3326 83.84715
v 31.66546 -120.1974 83.56397
v 31.59379 -120.2251 83.47429
v 31.4332 -120.287 83.27334
v 30.9852 -120.4599 82.71272
v 27.59792 -125.7686 80.9744
v 30.80603 -120.5291 82.48852
v 30.1951 -120.7649 81.72403
v 29.69207 -120.959 81.09456
v 29.34289 -121.0937 80.65761
v 29.26561 -120.9843 80.47385
v 29.24286 -120.952 80.41976
v 29.24054 -120.9487 80.41424
v 29.23946 -120.9472 80.41167
v 29.2381 -120.9453 80.40844
v 29.21285 -120.9095 80.34842
v 28.04251 -119.2516 77.56567
v 28.04251 -119.2516 77.56567
v 28.04251 -119.2516 77.56567
v 24.99715 -122.0843 74.79053
v 37.17859 -110.7534 85.89111
v 3.372487 -104.0078 110.8263
v 36.21149 -117.7565 88.8237
v 20.75908 -103.8791 96.89241
v -0.5959578 -110.2274 108.7897
v 32.24305 -123.976 86.78713
v -5.24109 -112.02 102.977
v 27.59792 -125.7686 80.9744
v 4.339579 -97.00474 107.8937
v 24.99715 -122.0843 74.79053
v 11.623 -112.3773 88.56697
v 28.04251 -119.2516 77.56567
v 8.577644 -115.21 85.79183
v -4.796485 -105.5029 99.56826
v -7.841857 -108.3357 96.79312
v -5.6666 -106.3123 98.77537
v -4.796498 -105.5029 99.56827
v 1.29422 -99.83747 105.1186
v 3.372487 -104.0078 110.8263
v 2.55565 -98.66411 106.2681
v 3.372487 -104.0078 110.8263
v 4.339579 -97.00474 107.8937
v 1.29422 -99.83747 105.1186
v 1.013678 -101.869 105.9693
v 1.29422 -99.83747 105.1186
v 0.9788151 -102.1214 106.075
v 0.9690285 -102.1923 106.1047
v 0.8590279 -102.9889 106.4382
v 0.8422852 -103.1101 106.489
v 0.8245831 -103.2383 106.5427
v 0.8207741 -103.2659 106.5542
v 0.8106737 -103.339 106.5849
v -0.5959578 -110.2274 108.7897
v 0.2295074 -104.2498 106.2866
v -0.1392097 -104.8277 106.0974
v -0.3748884 -105.1971 105.9764
v -0.4450274 -105.307 105.9404
v -0.9751272 -106.1378 105.6684
v -1.050209 -106.2555 105.6299
v -1.112238 -106.3527 105.598
v -1.173549 -106.4488 105.5666
v -1.818593 -106.6977 104.7594
v -3.26386 -107.2555 102.9508
v -3.333547 -107.2824 102.8636
v -3.401425 -107.3086 102.7787
v -3.457318 -107.3301 102.7088
v -3.496116 -107.3451 102.6602
v -5.24109 -112.02 102.977
v -3.496116 -107.3451 102.6602
v -4.191689 -106.3597 101.0063
v -4.396422 -106.0697 100.5195
v -4.417321 -106.0401 100.4698
v -4.427014 -106.0264 100.4468
v -4.439263 -106.009 100.4177
v -4.666459 -105.6871 99.87746
v -4.796498 -105.5029 99.56827
v -5.6666 -106.3123 98.77537
v -4.796498 -105.5029 99.56827
v -7.841857 -108.3357 96.79312

vn 0.6090721 0.5665459 0.5550286
vn 0.609072 0.566546 0.5550287
vn 0.9730899 0.2163618 0.079268
vn 0.7846574 -0.3285109 -0.5257313
vn 0.7846574 -0.3285109 -0.5257313
vn -0.6069152 -0.234216 -0.7594714
vn -0.4919834 -0.6073104 -0.6238001
vn -0.2569591 0.5994194 -0.7580688
vn -0.606916 -0.2342201 -0.7594694
vn -0.6069161 -0.2342209 -0.7594692
vn -0.606916 -0.2342206 -0.7594693
vn -0.606916 -0.2342196 -0.7594697
vn -0.6069158 -0.2342186 -0.75947
vn -0.6069161 -0.2342241 -0.7594681
vn -0.606916 -0.2342215 -0.759469
vn -0.606916 -0.234221 -0.7594692
vn -0.606916 -0.2342212 -0.7594692
vn -0.606916 -0.2342212 -0.7594691
vn -0.606916 -0.2342209 -0.7594692
vn -0.6069161 -0.2342213 -0.7594691
vn -0.6069159 -0.2342202 -0.7594696
vn -0.6069157 -0.2342187 -0.7594701
vn -0.6069158 -0.2342208 -0.7594693
vn -0.606916 -0.2342216 -0.759469
vn -0.5809138 -0.09352987 -0.8085737
vn -0.3607287 0.4477438 -0.8181688
vn -0.3398054 0.4813843 -0.8079613
vn -0.3398058 0.4813836 -0.8079615
vn -0.339806 0.4813833 -0.8079616
vn -0.3398069 0.4813816 -0.8079623
vn -0.3398075 0.4813805 -0.8079627
vn -0.3398082 0.481379 -0.8079632
vn -0.339807 0.4813814 -0.8079624
vn -0.3398065 0.4813824 -0.8079618
vn -0.3398063 0.481383 -0.8079618
vn -0.3398062 0.481383 -0.8079616
vn -0.3398067 0.481382 -0.8079619
vn -0.3398065 0.4813826 -0.8079619
vn -0.3398058 0.4813836 -0.8079615
vn -0.3049423 0.5338247 -0.788696
vn 0.0860386 0.8975511 -0.4324345
vn 0.126356 0.9149976 -0.3831624
vn 0.1263566 0.9149979 -0.3831616
vn 0.126357 0.9149982 -0.383161
vn 0.126357 0.9149981 -0.383161
vn 0.1263568 0.9149979 -0.3831614
vn 0.1263565 0.9149978 -0.3831619
vn 0.1263568 0.914998 -0.3831615
vn 0.1263565 0.9149979 -0.3831618
vn 0.1263567 0.9149979 -0.3831615
vn 0.1263568 0.914998 -0.3831616
vn 0.1263565 0.9149978 -0.3831619
vn 0.2434811 0.943212 -0.2259828
vn 0.1263424 0.9149924 -0.3831795
vn 0.5185021 0.8126204 0.2660896
vn 0.5185024 0.8126197 0.2660907
vn 0.5185026 0.8126196 0.2660911
vn 0.5185028 0.812619 0.2660921
vn 0.5185024 0.81262 0.2660904
vn 0.5185021 0.8126208 0.2660889
vn 0.5185013 0.8126218 0.2660865
vn 0.5184903 0.8126418 0.266047
vn 0.5184972 0.8126293 0.2660719
vn 0.5185043 0.8126167 0.2660967
vn 0.5185032 0.8126186 0.2660931
vn 0.5185024 0.8126198 0.2660906
vn 0.5185022 0.8126201 0.2660901
vn 0.5185022 0.8126202 0.2660899
vn 0.5185004 0.8126227 0.2660859
vn 0.4542522 0.8817768 0.1269832
vn 0.6090719 0.566546 0.5550288
vn 0.6090719 0.566546 0.5550288
vn 0.6090719 0.566546 0.5550288
vn 0.7846574 -0.3285109 -0.5257313
vn -0.5185025 -0.8126199 -0.2660903
vn 0.7846574 -0.3285109 -0.5257313
vn -0.1936936 0.6756781 -0.711296
vn 0.9922175 0.118154 -0.03929088
vn 0.9914188 0.04774072 -0.1216948
vn 0.6632818 0.5417739 0.5162735
vn 0.6090719 0.566546 0.5550288
vn 0.6090719 0.566546 0.5550288
vn 0.6090719 0.566546 0.5550288
vn 0.6866541 0.5296951 0.4979249
vn 0.7846574 -0.3285109 -0.5257313
vn 0.6189587 0.562345 0.5483232
vn 0.6090719 0.566546 0.5550288
vn 0.7139177 0.5143935 0.4751009
vn 0.6090726 0.566541 0.5550331
vn 0.5608615 0.5852436 0.5855974
vn -0.5185024 -0.8126199 -0.2660903
vn 0.6090746 0.5665281 0.5550441
vn -0.7846531 0.3285148 0.5257351
vn -0.7846574 0.3285109 0.5257313
vn -0.7846573 0.3285106 0.5257316
vn 0 0 0
vn -0.5185024 -0.81262 -0.2660903
vn -0.5185024 -0.81262 -0.2660904
vn -0.5185024 -0.81262 -0.2660904
vn -0.7846573 0.3285106 0.5257316
vn -0.7846573 0.3285106 0.5257316
vn -0.1155181 0.7557157 -0.6446312
vn -0.115518 0.7557157 -0.6446311
vn -0.1155181 0.7557157 -0.6446312
vn -0.1155181 0.7557157 -0.6446312
vn -0.1155181 0.7557157 -0.6446312
vn -0.1155181 0.7557157 -0.6446312
vn -0.1155181 0.7557157 -0.6446312
vn -0.1155181 0.7557157 -0.6446312
vn -0.1155181 0.7557157 -0.6446312
vn 0.7846574 -0.3285109 -0.5257313
vn 0.7846574 -0.3285109 -0.5257313
vn 0.7846574 -0.3285109 -0.5257313
vn 0.7846574 -0.3285109 -0.5257313
vn 0.7846574 -0.3285109 -0.5257313
vn 0.7846574 -0.3285109 -0.5257313
vn 0.7846574 -0.3285109 -0.5257313
vn 0.7846574 -0.3285109 -0.5257313
vn 0.7846574 -0.3285109 -0.5257313
vn 0.7846574 -0.3285109 -0.5257313
vn 0.7846574 -0.3285109 -0.5257313
vn 0.7846574 -0.3285109 -0.5257313
vn 0.7846574 -0.3285109 -0.5257313
vn 0.7846573 -0.3285109 -0.5257313
vn 0.7846574 -0.3285109 -0.5257313
vn 0.7846574 -0.3285109 -0.5257313
vn 0.7846573 -0.3285109 -0.5257313
vn 0.7846574 -0.3285109 -0.5257313
vn 0.7846574 -0.3285109 -0.5257313
vn 0.7846574 -0.3285109 -0.5257313
vn 0.7846573 -0.3285109 -0.5257313
vn 0.7846574 -0.3285109 -0.5257313
vn 0.7846574 -0.3285109 -0.5257313
vn 0.7846574 -0.3285109 -0.5257313
vn 0.7846574 -0.3285109 -0.5257313
vn 0.7846574 -0.3285109 -0.5257313
vn 0.7846574 -0.3285109 -0.5257313
vn 0.7846574 -0.3285109 -0.5257313
vn 0.7846574 -0.3285109 -0.5257313
vn 0.7846574 -0.3285109 -0.5257313
vn 0.7846574 -0.3285109 -0.5257313
vn 0.7846573 -0.3285109 -0.5257313
vn 0.7846574 -0.3285109 -0.5257313
vn 0.7846573 -0.3285109 -0.5257313
vn 0.7846573 -0.3285109 -0.5257313
vn 0.7846574 -0.3285109 -0.5257313
vn 0.7846573 -0.3285109 -0.5257313
vn 0.7846573 -0.3285109 -0.5257313
vn 0.6069161 0.2342206 0.7594694
vn 0.5552809 -0.004625414 0.83165
vn 0.4598141 -0.2603868 0.8489815
vn 0.606916 0.2342205 0.7594693
vn 0.1977374 -0.6711252 0.7144865
vn 0.03112751 -0.8261023 0.5626599
vn -0.1263568 -0.9149979 0.3831614
vn -0.1263568 -0.914998 0.3831614
vn 0.606916 0.2342207 0.7594693
vn -0.1155181 0.7557157 -0.6446312
vn -0.1155181 0.7557157 -0.6446312
vn -0.1155181 0.7557157 -0.6446312
vn -0.1155181 0.7557157 -0.6446312
vn -0.1155181 0.7557157 -0.6446312
vn -0.1155181 0.7557157 -0.6446312
vn -0.1155181 0.7557157 -0.6446312
vn -0.1155181 0.7557157 -0.6446311
vn -0.755546 -0.4881499 -0.4368751
vn -0.7846569 0.3285113 0.5257317
vn -0.7846573 0.3285107 0.5257314
vn -0.7846572 0.3285108 0.5257315
vn -0.7846573 0.3285107 0.5257314
vn -0.7846573 0.3285107 0.5257314
vn -0.7846572 0.328511 0.5257316
vn -0.7846572 0.328511 0.5257316
vn -0.7846572 0.328511 0.5257316
vn -0.7846572 0.328511 0.5257316
vn -0.7846572 0.328511 0.5257316
vn -0.7846571 0.3285109 0.5257315
vn -0.7846572 0.328511 0.5257316
vn -0.7846571 0.3285109 0.5257315
vn -0.7846572 0.3285107 0.5257316
vn -0.7846573 0.3285106 0.5257315
vn -0.7846572 0.3285107 0.5257316
vn -0.7846572 0.3285107 0.5257316
vn -0.7846572 0.3285107 0.5257316
vn -0.7846572 0.3285107 0.5257316
vn -0.7846572 0.3285107 0.5257316
vn -0.7846572 0.3285107 0.5257316
vn -0.7846572 0.3285107 0.5257316
vn -0.7846574 0.3285106 0.5257314
vn -0.7846574 0.3285106 0.5257314
vn -0.7846574 0.3285106 0.5257314
vn -0.7846574 0.3285106 0.5257314
vn -0.7846574 0.3285106 0.5257314
vn -0.7846574 0.3285106 0.5257314
vn -0.7846574 0.3285106 0.5257314
vn -0.7846574 0.3285106 0.5257314
vn -0.7846575 0.3285106 0.5257312
vn -0.7846575 0.3285106 0.5257312
vn -0.7846575 0.3285106 0.5257312
vn -0.7846575 0.3285106 0.5257312
vn -0.7846575 0.3285106 0.5257312
vn -0.7846575 0.3285106 0.5257312
vn -0.7846575 0.3285106 0.5257312
vn -0.7846575 0.3285106 0.5257311
vn -0.7846573 0.3285107 0.5257314
vn -0.7846573 0.3285107 0.5257314
vn -0.7846573 0.3285107 0.5257314

f 1//1 2//2 3//3
f 4//4 1//1 3//3
f 3//3 5//5 4//4
f 3//3 6//6 5//5
f 5//5 6//6 7//7
f 8//8 7//7 6//6
f 9//9 8//8 6//6
f 10//10 9//9 6//6
f 9//9 10//10 11//11
f 11//11 10//10 12//12
f 13//13 11//11 12//12
f 13//13 12//12 14//14
f 13//13 14//14 15//15
f 15//15 14//14 16//16
f 15//15 16//16 17//17
f 18//18 17//17 16//16
f 19//19 17//17 18//18
f 19//19 18//18 20//20
f 21//21 19//19 20//20
f 22//22 19//19 21//21
f 22//22 21//21 23//23
f 24//24 22//22 23//23
f 24//24 23//23 25//25
f 26//26 24//24 25//25
f 26//26 25//25 27//27
f 28//28 26//26 27//27
f 28//28 27//27 29//29
f 29//29 27//27 30//30
f 31//31 29//29 30//30
f 31//31 30//30 32//32
f 33//33 31//31 32//32
f 33//33 32//32 34//34
f 35//35 33//33 34//34
f 35//35 34//34 36//36
f 37//37 35//35 36//36
f 37//37 36//36 38//38
f 39//39 37//37 38//38
f 39//39 38//38 40//40
f 41//41 39//39 40//40
f 41//41 40//40 42//42
f 41//41 42//42 43//43
f 43//43 42//42 44//44
f 45//45 43//43 44//44
f 45//45 44//44 46//46
f 47//47 45//45 46//46
f 48//48 45//45 47//47
f 48//48 47//47 49//49
f 50//50 48//48 49//49
f 50//50 49//49 51//51
f 52//52 50//50 51//51
f 52//52 51//51 53//53
f 54//54 52//52 53//53
f 55//55 54//54 53//53
f 55//55 53//53 56//56
f 55//55 56//56 57//57
f 57//57 56//56 58//58
f 57//57 58//58 59//59
f 59//59 58//58 60//60
f 59//59 60//60 61//61
f 61//61 60//60 62//62
f 61//61 62//62 63//63
f 63//63 62//62 64//64
f 63//63 64//64 65//65
f 65//65 64//64 66//66
f 65//65 66//66 67//67
f 68//68 67//67 66//66
f 69//69 67//67 68//68
f 69//69 68//68 70//70
f 71//71 69//69 70//70
f 72//72 71//71 73//73
f 74//74 75//75 76//76
f 77//77 74//74 76//76
f 75//75 77//77 76//76
f 78//78 75//75 74//74
f 79//79 75//75 78//78
f 78//78 74//74 80//80
f 81//81 78//78 80//80
f 82//82 78//78 81//81
f 82//82 83//83 78//78
f 83//83 84//84 79//79
f 84//84 85//85 79//79
f 80//80 74//74 86//86
f 87//87 80//80 86//86
f 81//81 80//80 87//87
f 86//86 74//74 88//88
f 88//88 74//74 77//77
f 86//86 88//88 89//89
f 90//90 86//86 89//89
f 87//87 86//86 90//90
f 75//75 91//91 77//77
f 90//90 89//89 92//92
f 90//90 92//92 93//93
f 94//94 90//90 93//93
f 95//95 83//83 82//82
f 95//95 82//82 81//81
f 95//95 81//81 87//87
f 95//95 87//87 90//90
f 95//95 96//96 83//83
f 97//97 91//91 75//75
f 97//97 98//98 91//91
f 97//97 99//99 98//98
f 100//100 95//95 101//101
f 102//102 103//103 104//104
f 102//102 104//104 105//105
f 102//102 105//105 106//106
f 106//106 105//105 107//107
f 108//108 102//102 106//106
f 109//109 102//102 108//108
f 110//110 108//108 106//106
f 111//111 112//112 113//113
f 111//111 113//113 114//114
f 111//111 114//114 115//115
f 111//111 115//115 116//116
f 111//111 116//116 117//117
f 117//117 118//118 111//111
f 118//118 119//119 111//111
f 120//120 111//111 119//119
f 120//120 121//121 111//111
f 121//121 122//122 111//111
f 111//111 122//122 123//123
f 114//114 113//113 124//124
f 124//124 113//113 125//125
f 125//125 113//113 126//126
f 126//126 113//113 127//127
f 127//127 113//113 128//128
f 128//128 113//113 129//129
f 129//129 113//113 130//130
f 130//130 113//113 131//131
f 131//131 113//113 132//132
f 132//132 113//113 133//133
f 133//133 113//113 134//134
f 133//133 134//134 135//135
f 135//135 134//134 136//136
f 134//134 137//137 136//136
f 137//137 134//134 138//138
f 138//138 134//134 139//139
f 139//139 134//134 140//140
f 140//140 134//134 141//141
f 134//134 142//142 141//141
f 134//134 143//143 142//142
f 134//134 144//144 143//143
f 144//144 134//134 145//145
f 145//145 134//134 146//146
f 147//147 134//134 148//148
f 149//149 150//150 151//151
f 149//149 152//152 150//150
f 151//151 150//150 153//153
f 151//151 153//153 154//154
f 154//154 153//153 155//155
f 154//154 155//155 156//156
f 152//152 157//157 150//150
f 158//158 159//159 160//160
f 161//161 159//159 158//158
f 162//162 159//159 161//161
f 163//163 162//162 161//161
f 164//164 162//162 163//163
f 165//165 162//162 164//164
f 9//9 166//166 8//8
f 166//166 9//9 167//167
f 168//168 169//169 170//170
f 168//168 171//171 169//169
f 172//172 169//169 173//173
f 174//174 169//169 172//172
f 169//169 174//174 175//175
f 176//176 169//169 175//175
f 177//177 169//169 176//176
f 178//178 169//169 177//177
f 178//178 179//179 169//169
f 179//179 180//180 169//169
f 180//180 181//181 169//169
f 182//182 181//181 180//180
f 182//182 183//183 181//181
f 183//183 184//184 181//181
f 184//184 185//185 181//181
f 185//185 186//186 181//181
f 186//186 187//187 181//181
f 187//187 188//188 181//181
f 188//188 189//189 181//181
f 181//181 189//189 190//190
f 181//181 190//190 191//191
f 192//192 181//181 191//191
f 193//193 181//181 192//192
f 194//194 181//181 193//193
f 195//195 181//181 194//194
f 195//195 196//196 181//181
f 196//196 197//197 198//198
f 196//196 198//198 199//199
f 199//199 200//200 196//196
f 196//196 200//200 201//201
f 201//201 202//202 196//196
f 196//196 202//202 203//203
f 196//196 203//203 204//204
f 205//205 196//196 206//206
f 207//207 196//196 205//205
