v 121.3636 -13.48771 74.73423
v 109.7518 -26.97932 85.73553
v 121.3636 -13.48771 74.73423
v 121.3636 -13.48771 74.73424
v 120.1351 -10.79764 76.73659
v 119.6437 -9.721608 77.53753
v 119.6437 -9.721608 77.53753
v 108.0319 -23.21321 88.53882
v 96.42015 -36.70481 99.54011
v 119.4386 -9.620809 77.44465
v 94.57414 -35.79762 98.70422
v 119.4131 -9.608284 77.43311
v 94.34475 -35.68489 98.60034
v 119.4059 -9.604767 77.42987
v 94.28034 -35.65324 98.57118
v 119.3255 -9.565244 77.39345
v 93.55653 -35.29753 98.24342
v 118.3339 -9.077955 76.94446
v 93.44635 -35.24339 98.19353
v 117.3938 -8.615943 76.51875
v 117.2856 -8.562794 76.46978
v 93.32988 -35.18615 98.14079
v 117.0601 -8.451939 76.36764
v 93.30481 -35.17383 98.12945
v 116.4619 -8.157962 76.09676
v 93.23834 -35.14117 98.09935
v 116.3382 -8.006163 76.15237
v 92.55724 -34.3053 98.40553
v 92.12512 -33.77499 98.59978
v 116.3075 -7.9685 76.16616
v 91.84891 -33.43602 98.72394
v 116.2983 -7.957292 76.17027
v 91.76671 -33.33515 98.76089
v 116.2293 -7.87258 76.2013
v 91.14545 -32.57273 99.04016
v 115.4374 -6.900696 76.5573
v 91.05746 -32.46474 99.07972
v 114.7831 -6.097767 76.85141
v 90.98476 -32.37553 99.1124
v 114.1364 -5.304141 77.14211
v 90.91291 -32.28735 99.1447
v 114.1331 -5.22785 77.23219
v 90.88323 -31.60073 99.95542
v 114.1257 -5.056915 77.43402
v 90.81674 -30.06231 101.7719
v 114.1051 -4.580033 77.9971
v 114.0969 -4.389319 78.22228
v 90.81353 -29.98813 101.8595
v 114.0688 -3.739017 78.99013
v 90.81041 -29.91588 101.9448
v 114.0456 -3.203564 79.62236
v 90.80784 -29.85638 102.015
v 114.0296 -2.831881 80.06122
v 90.80605 -29.81509 102.0638
v 90.80605 -29.81508 102.0638
v 114.1588 -2.793695 80.24445
v 91.96909 -29.47142 103.7128
v 114.1968 -2.782455 80.29838
v 92.31142 -29.37027 104.1982
v 114.2007 -2.781307 80.30389
v 92.34637 -29.35994 104.2478
v 114.2025 -2.780777 80.30643
v 92.36257 -29.35515 104.2707
v 114.2048 -2.780104 80.30966
v 92.38306 -29.3491 104.2998
v 114.247 -2.767632 80.36951
v 92.76294 -29.23685 104.8384
v 116.2039 -2.189396 83.14411
v 92.98037 -29.1726 105.1467
v 116.2039 -2.189396 83.14412
v 92.98037 -29.1726 105.1467
v 116.2039 -2.189396 83.14412
v 116.2039 -2.189396 83.14412
v 115.7125 -1.113365 83.94506
v 114.484 1.576712 85.94741
v 114.484 1.576712 85.94741
v 114.484 1.57671 85.94741
v 116.2039 -2.189396 83.14412
v 116.2039 -2.189396 83.14412
v 116.2039 -2.189396 83.14412
v 92.98037 -29.1726 105.1467
v 92.98037 -29.1726 105.1467
v 92.98037 -29.1726 105.1467
v 116.2039 -2.189396 83.14412
v 110.1354 0.2917423 79.78162
v 116.2039 -2.189396 83.14412
v 92.98037 -29.1726 105.1467
v 116.2039 -2.189396 83.14412
v 104.5921 -15.681 94.14541
v 92.98037 -29.1726 105.1467
v 102.8722 -11.91489 96.9487
v 92.98038 -29.17259 105.1467
v 92.98037 -29.1726 105.1467
v 92.48898 -28.09657 105.9476
v 86.91185 -26.69146 101.7842
v 92.98037 -29.1726 105.1467
v 110.1354 0.2917423 79.78162
v 91.26048 -25.40649 107.95
v 86.91185 -26.69146 101.7842
v 90.80605 -29.81508 102.0638
v 90.80605 -29.81509 102.0638
v 109.7518 -26.97932 85.73553
v 121.3636 -13.48771 74.73423
v 121.3636 -13.48771 74.73424
v 120.1351 -10.79764 76.73659
v 108.0319 -23.21321 88.53882
v 119.6437 -9.721608 77.53753
v 97.13255 -38.26479 98.37894
v 98.14005 -40.47092 96.73682
v 96.42015 -36.70481 99.54011
v 121.3636 -13.48771 74.73423
v 114.9999 -10.36042 71.85271
v 110.3491 -4.65278 73.94341
v 116.4619 -8.157962 76.09676
v 117.0601 -8.451939 76.36764
v 117.2856 -8.562794 76.46978
v 117.3938 -8.615943 76.51875
v 118.3339 -9.077955 76.94446
v 119.3255 -9.565244 77.39345
v 119.4059 -9.604767 77.42987
v 119.4131 -9.608284 77.43311
v 119.4386 -9.620809 77.44465
v 119.6437 -9.721608 77.53753
v 116.3382 -8.006163 76.15237
v 116.3075 -7.9685 76.16616
v 116.2983 -7.957292 76.17027
v 116.2293 -7.87258 76.2013
v 115.4374 -6.900696 76.5573
v 114.7831 -6.097767 76.85141
v 114.1364 -5.304141 77.14211
v 114.1331 -5.22785 77.23219
v 114.1257 -5.056915 77.43402
v 114.1051 -4.580033 77.9971
v 110.1354 0.2917423 79.78162
v 114.0969 -4.389319 78.22228
v 114.0688 -3.739017 78.99013
v 114.0456 -3.203564 79.62236
v 114.0296 -2.831881 80.06122
v 114.1588 -2.793695 80.24445
v 114.1968 -2.782455 80.29838
v 114.2007 -2.781307 80.30389
v 114.2025 -2.780777 80.30643
v 114.2048 -2.780104 80.30966
v 114.247 -2.767632 80.36951
v 116.2039 -2.189396 83.14411
v 116.2039 -2.189396 83.14412
v 116.2039 -2.189396 83.14412
v 114.484 1.576712 85.94741
v 121.3636 -13.48771 74.73423
v 91.77643 -37.34362 93.85529
v 114.9999 -10.36042 71.85271
v 109.7518 -26.97932 85.73553
v 87.12556 -31.63598 95.94599
v 110.3491 -4.65278 73.94341
v 86.91185 -26.69146 101.7842
v 110.1354 0.2917423 79.78162
v 98.14005 -40.47092 96.73682
v 114.484 1.57671 85.94741
v 104.5921 -15.681 94.14541
v 116.2039 -2.189396 83.14412
v 102.8722 -11.91489 96.9487
v 92.98038 -29.17259 105.1467
v 91.26048 -25.40649 107.95
v 92.48898 -28.09657 105.9476
v 92.98037 -29.1726 105.1467
v 96.42015 -36.70481 99.54011
v 91.77643 -37.34362 93.85529
v 97.13255 -38.26479 98.37894
v 91.77643 -37.34362 93.85529
v 98.14005 -40.47092 96.73682
v 96.42015 -36.70481 99.54011
v 94.57414 -35.79762 98.70422
v 96.42015 -36.70481 99.54011
v 94.34475 -35.68489 98.60034
v 94.28034 -35.65324 98.57118
v 93.55653 -35.29753 98.24342
v 93.44635 -35.24339 98.19353
v 93.32988 -35.18615 98.14079
v 93.30481 -35.17383 98.12945
v 93.23834 -35.14117 98.09935
v 87.12556 -31.63598 95.94599
v 92.55724 -34.3053 98.40553
v 92.12512 -33.77499 98.59978
v 91.84891 -33.43602 98.72394
v 91.76671 -33.33515 98.76089
v 91.14545 -32.57273 99.04016
v 91.05746 -32.46474 99.07972
v 90.98476 -32.37553 99.1124
v 90.91291 -32.28735 99.1447
v 90.88323 -31.60073 99.95542
v 90.81674 -30.06231 101.7719
v 90.81353 -29.98813 101.8595
v 90.81041 -29.91588 101.9448
v 90.80784 -29.85638 102.015
v 90.80605 -29.81509 102.0638
v 86.91185 -26.69146 101.7842
v 90.80605 -29.81508 102.0638
v 91.96909 -29.47142 103.7128
v 92.31142 -29.37027 104.1982
v 92.34637 -29.35994 104.2478
v 92.36257 -29.35515 104.2707
v 92.38306 -29.3491 104.2998
v 92.76294 -29.23685 104.8384
v 92.98037 -29.1726 105.1467
v 92.48898 -28.09657 105.9476
v 92.98037 -29.1726 105.1467
v 91.26048 -25.40649 107.95

vn 0.3439779 -0.7532204 -0.5606588
vn 0.3439778 -0.7532206 -0.5606587
vn 0.6222943 -0.1522976 -0.7678251
vn 0.5549044 0.6447385 -0.5257314
vn 0.5549044 0.6447385 -0.5257314
vn -0.02791868 0.6460302 0.7628011
vn -0.2620454 0.8368302 0.4806742
vn 0.6540183 0.05246911 0.7546569
vn -0.02792268 0.6460319 0.7627995
vn -0.02792336 0.6460324 0.7627992
vn -0.0279231 0.6460322 0.7627993
vn -0.0279223 0.6460317 0.7627998
vn -0.02792145 0.6460312 0.7628002
vn -0.02792594 0.646034 0.7627977
vn -0.02792379 0.6460326 0.7627989
vn -0.02792337 0.6460324 0.7627991
vn -0.02792349 0.6460325 0.7627991
vn -0.02792356 0.6460325 0.762799
vn -0.02792332 0.6460324 0.7627991
vn -0.02792362 0.6460325 0.762799
vn -0.02792264 0.646032 0.7627994
vn -0.02792136 0.6460313 0.7628
vn -0.02792312 0.6460323 0.7627991
vn -0.02792385 0.6460327 0.7627989
vn 0.09780519 0.5770112 0.8108591
vn 0.5428476 0.1982491 0.8160967
vn 0.5681776 0.1678876 0.805598
vn 0.568177 0.1678882 0.8055981
vn 0.5681769 0.1678884 0.8055983
vn 0.5681757 0.1678901 0.8055988
vn 0.568175 0.1678911 0.805599
vn 0.5681741 0.1678925 0.8055994
vn 0.5681757 0.1678903 0.8055988
vn 0.5681762 0.1678892 0.8055985
vn 0.5681766 0.1678888 0.8055985
vn 0.5681766 0.1678887 0.8055984
vn 0.5681759 0.1678896 0.8055986
vn 0.5681764 0.1678891 0.8055986
vn 0.568177 0.1678882 0.8055982
vn 0.6069402 0.1184412 0.7858723
vn 0.8277915 -0.3650869 0.4259966
vn 0.8314453 -0.4085999 0.3764902
vn 0.8314454 -0.4086007 0.3764894
vn 0.8314455 -0.4086011 0.376489
vn 0.8314454 -0.4086011 0.3764889
vn 0.8314453 -0.4086008 0.3764892
vn 0.8314454 -0.4086004 0.3764896
vn 0.8314455 -0.4086007 0.3764893
vn 0.8314455 -0.4086005 0.3764896
vn 0.8314454 -0.4086006 0.3764893
vn 0.8314455 -0.4086007 0.3764893
vn 0.8314454 -0.4086003 0.3764896
vn 0.8206438 -0.5278987 0.2187851
vn 0.8314448 -0.4085853 0.3765074
vn 0.6076654 -0.7457381 -0.2731622
vn 0.6076646 -0.7457383 -0.2731632
vn 0.6076645 -0.7457384 -0.2731636
vn 0.6076636 -0.7457387 -0.2731645
vn 0.6076649 -0.7457383 -0.273163
vn 0.6076661 -0.7457379 -0.2731619
vn 0.6076677 -0.7457371 -0.2731597
vn 0.6076965 -0.7457259 -0.2731262
vn 0.6076785 -0.745733 -0.2731473
vn 0.6076604 -0.7457399 -0.2731684
vn 0.607663 -0.745739 -0.2731653
vn 0.6076648 -0.7457383 -0.2731632
vn 0.6076651 -0.7457381 -0.2731627
vn 0.6076653 -0.7457381 -0.2731625
vn 0.6076681 -0.7457374 -0.2731584
vn 0.6942573 -0.7070762 -0.1343517
vn 0.3439777 -0.7532207 -0.5606586
vn 0.3439777 -0.7532207 -0.5606586
vn 0.3439777 -0.7532207 -0.5606586
vn 0.5549044 0.6447385 -0.5257314
vn -0.607665 0.7457381 0.2731631
vn 0.5549044 0.6447385 -0.5257314
vn 0.7063424 -0.03127858 0.7071791
vn 0.6453462 0.001064607 -0.7638896
vn 0.6522521 0.1083698 -0.7502156
vn 0.3825338 -0.7055091 -0.5965944
vn 0.3439777 -0.7532207 -0.5606586
vn 0.3439777 -0.7532207 -0.5606586
vn 0.3439777 -0.7532207 -0.5606586
vn 0.3993048 -0.6828046 -0.6118282
vn 0.5549044 0.6447385 -0.5257314
vn 0.3509814 -0.7449966 -0.5672674
vn 0.3439777 -0.7532207 -0.5606586
vn 0.4189959 -0.6544706 -0.6293733
vn 0.3439727 -0.7532198 -0.5606629
vn 0.310035 -0.7905722 -0.5280853
vn -0.6076649 0.7457381 0.273163
vn 0.3439598 -0.7532176 -0.5606737
vn -0.554902 -0.6447437 0.5257275
vn -0.5549044 -0.6447385 0.5257314
vn -0.5549048 -0.6447384 0.5257311
vn 0 0 0
vn -0.607665 0.7457382 0.273163
vn -0.6076649 0.7457382 0.273163
vn -0.607665 0.7457383 0.273163
vn -0.5549048 -0.6447384 0.5257311
vn -0.5549048 -0.6447384 0.5257311
vn 0.7574698 -0.1302722 0.6397412
vn 0.7574698 -0.1302722 0.6397411
vn 0.7574698 -0.1302722 0.6397412
vn 0.7574698 -0.1302722 0.6397412
vn 0.7574698 -0.1302722 0.6397412
vn 0.7574698 -0.1302722 0.6397412
vn 0.7574698 -0.1302722 0.6397412
vn 0.7574698 -0.1302722 0.6397412
vn 0.7574698 -0.1302722 0.6397412
vn 0.5549044 0.6447385 -0.5257314
vn 0.5549044 0.6447385 -0.5257314
vn 0.5549044 0.6447385 -0.5257314
vn 0.5549044 0.6447385 -0.5257314
vn 0.5549044 0.6447385 -0.5257314
vn 0.5549044 0.6447385 -0.5257314
vn 0.5549044 0.6447385 -0.5257314
vn 0.5549044 0.6447385 -0.5257314
vn 0.5549044 0.6447385 -0.5257314
vn 0.5549044 0.6447385 -0.5257314
vn 0.5549044 0.6447385 -0.5257314
vn 0.5549044 0.6447385 -0.5257314
vn 0.5549044 0.6447385 -0.5257314
vn 0.5549044 0.6447385 -0.5257313
vn 0.5549044 0.6447385 -0.5257314
vn 0.5549044 0.6447385 -0.5257314
vn 0.5549044 0.6447385 -0.5257313
vn 0.5549044 0.6447385 -0.5257314
vn 0.5549044 0.6447385 -0.5257314
vn 0.5549044 0.6447385 -0.5257314
vn 0.5549044 0.6447385 -0.5257313
vn 0.5549044 0.6447385 -0.5257314
vn 0.5549044 0.6447385 -0.5257314
vn 0.5549044 0.6447385 -0.5257314
vn 0.5549044 0.6447385 -0.5257314
vn 0.5549044 0.6447385 -0.5257314
vn 0.5549044 0.6447385 -0.5257314
vn 0.5549044 0.6447385 -0.5257314
vn 0.5549044 0.6447385 -0.5257314
vn 0.5549044 0.6447385 -0.5257314
vn 0.5549044 0.6447385 -0.5257314
vn 0.5549044 0.6447385 -0.5257313
vn 0.5549044 0.6447385 -0.5257314
vn 0.5549044 0.6447385 -0.5257313
vn 0.5549044 0.6447385 -0.5257313
vn 0.5549044 0.6447385 -0.5257314
vn 0.5549044 0.6447385 -0.5257313
vn 0.5549044 0.6447385 -0.5257313
vn 0.02792308 -0.6460322 -0.7627994
vn -0.1831103 -0.5217972 -0.8331857
vn -0.3961603 -0.3509056 -0.8484823
vn 0.02792303 -0.6460321 -0.7627993
vn -0.7033044 0.02602729 -0.7104124
vn -0.7973984 0.2320686 -0.5570458
vn -0.8314454 0.4086007 -0.3764891
vn -0.8314455 0.4086007 -0.3764892
vn 0.0279231 -0.6460322 -0.7627993
vn 0.7574698 -0.1302722 0.6397412
vn 0.7574698 -0.1302722 0.6397412
vn 0.7574698 -0.1302722 0.6397412
vn 0.7574698 -0.1302722 0.6397412
vn 0.7574698 -0.1302722 0.6397412
vn 0.7574698 -0.1302722 0.6397412
vn 0.7574698 -0.1302722 0.6397412
vn 0.7574698 -0.1302722 0.6397411
vn -0.449366 0.6068134 0.6556277
vn -0.5549042 -0.644739 0.525731
vn -0.5549045 -0.6447384 0.5257312
vn -0.5549046 -0.6447386 0.5257311
vn -0.5549046 -0.6447385 0.5257313
vn -0.5549046 -0.6447385 0.5257313
vn -0.5549044 -0.6447387 0.5257311
vn -0.5549044 -0.6447387 0.5257311
vn -0.5549044 -0.6447387 0.5257311
vn -0.5549044 -0.6447387 0.5257311
vn -0.5549044 -0.6447387 0.5257311
vn -0.5549044 -0.6447387 0.5257311
vn -0.5549044 -0.6447387 0.5257311
vn -0.5549044 -0.6447387 0.5257311
vn -0.5549046 -0.6447386 0.5257311
vn -0.5549046 -0.6447384 0.5257312
vn -0.5549046 -0.6447386 0.5257311
vn -0.5549046 -0.6447386 0.5257311
vn -0.5549046 -0.6447386 0.5257311
vn -0.5549046 -0.6447386 0.5257311
vn -0.5549046 -0.6447386 0.5257311
vn -0.5549046 -0.6447386 0.5257311
vn -0.5549046 -0.6447386 0.5257311
vn -0.5549047 -0.6447384 0.5257313
vn -0.5549047 -0.6447384 0.5257313
vn -0.5549047 -0.6447384 0.5257313
vn -0.5549047 -0.6447384 0.5257313
vn -0.5549047 -0.6447384 0.5257313
vn -0.5549047 -0.6447384 0.5257313
vn -0.5549047 -0.6447384 0.5257313
vn -0.5549046 -0.6447384 0.5257313
vn -0.5549046 -0.6447383 0.5257315
vn -0.5549046 -0.6447383 0.5257315
vn -0.5549046 -0.6447383 0.5257315
vn -0.5549046 -0.6447383 0.5257315
vn -0.5549046 -0.6447383 0.5257315
vn -0.5549046 -0.6447383 0.5257315
vn -0.5549046 -0.6447383 0.5257315
vn -0.5549046 -0.6447382 0.5257314
vn -0.5549046 -0.6447385 0.5257313
vn -0.5549046 -0.6447385 0.5257313
vn -0.5549045 -0.6447384 0.5257312

f 1//1 2//2 3//3
f 4//4 1//1 3//3
f 3//3 5//5 4//4
f 3//3 6//6 5//5
f 5//5 6//6 7//7
f 8//8 7//7 6//6
f 9//9 8//8 6//6
f 10//10 9//9 6//6
f 9//9 10//10 11//11
f 11//11 10//10 12//12
f 13//13 11//11 12//12
f 13//13 12//12 14//14
f 13//13 14//14 15//15
f 15//15 14//14 16//16
f 15//15 16//16 17//17
f 18//18 17//17 16//16
f 19//19 17//17 18//18
f 19//19 18//18 20//20
f 21//21 19//19 20//20
f 22//22 19//19 21//21
f 22//22 21//21 23//23
f 24//24 22//22 23//23
f 24//24 23//23 25//25
f 26//26 24//24 25//25
f 26//26 25//25 27//27
f 28//28 26//26 27//27
f 28//28 27//27 29//29
f 29//29 27//27 30//30
f 31//31 29//29 30//30
f 31//31 30//30 32//32
f 33//33 31//31 32//32
f 33//33 32//32 34//34
f 35//35 33//33 34//34
f 35//35 34//34 36//36
f 37//37 35//35 36//36
f 37//37 36//36 38//38
f 39//39 37//37 38//38
f 39//39 38//38 40//40
f 41//41 39//39 40//40
f 41//41 40//40 42//42
f 41//41 42//42 43//43
f 43//43 42//42 44//44
f 45//45 43//43 44//44
f 45//45 44//44 46//46
f 47//47 45//45 46//46
f 48//48 45//45 47//47
f 48//48 47//47 49//49
f 50//50 48//48 49//49
f 50//50 49//49 51//51
f 52//52 50//50 51//51
f 52//52 51//51 53//53
f 54//54 52//52 53//53
f 55//55 54//54 53//53
f 55//55 53//53 56//56
f 55//55 56//56 57//57
f 57//57 56//56 58//58
f 57//57 58//58 59//59
f 59//59 58//58 60//60
f 59//59 60//60 61//61
f 61//61 60//60 62//62
f 61//61 62//62 63//63
f 63//63 62//62 64//64
f 63//63 64//64 65//65
f 65//65 64//64 66//66
f 65//65 66//66 67//67
f 68//68 67//67 66//66
f 69//69 67//67 68//68
f 69//69 68//68 70//70
f 71//71 69//69 70//70
f 72//72 71//71 73//73
f 74//74 75//75 76//76
f 77//77 74//74 76//76
f 75//75 77//77 76//76
f 78//78 75//75 74//74
f 79//79 75//75 78//78
f 78//78 74//74 80//80
f 81//81 78//78 80//80
f 82//82 78//78 81//81
f 82//82 83//83 78//78
f 83//83 84//84 79//79
f 84//84 85//85 79//79
f 80//80 74//74 86//86
f 87//87 80//80 86//86
f 81//81 80//80 87//87
f 86//86 74//74 88//88
f 88//88 74//74 77//77
f 86//86 88//88 89//89
f 90//90 86//86 89//89
f 87//87 86//86 90//90
f 75//75 91//91 77//77
f 90//90 89//89 92//92
f 90//90 92//92 93//93
f 94//94 90//90 93//93
f 95//95 83//83 82//82
f 95//95 82//82 81//81
f 95//95 81//81 87//87
f 95//95 87//87 90//90
f 95//95 96//96 83//83
f 97//97 91//91 75//75
f 97//97 98//98 91//91
f 97//97 99//99 98//98
f 100//100 95//95 101//101
f 102//102 103//103 104//104
f 102//102 104//104 105//105
f 102//102 105//105 106//106
f 106//106 105//105 107//107
f 108//108 102//102 106//106
f 109//109 102//102 108//108
f 110//110 108//108 106//106
f 111//111 112//112 113//113
f 111//111 113//113 114//114
f 111//111 114//114 115//115
f 111//111 115//115 116//116
f 111//111 116//116 117//117
f 117//117 118//118 111//111
f 118//118 119//119 111//111
f 120//120 111//111 119//119
f 120//120 121//121 111//111
f 121//121 122//122 111//111
f 111//111 122//122 123//123
f 114//114 113//113 124//124
f 124//124 113//113 125//125
f 125//125 113//113 126//126
f 126//126 113//113 127//127
f 127//127 113//113 128//128
f 128//128 113//113 129//129
f 129//129 113//113 130//130
f 130//130 113//113 131//131
f 131//131 113//113 132//132
f 132//132 113//113 133//133
f 133//133 113//113 134//134
f 133//133 134//134 135//135
f 135//135 134//134 136//136
f 134//134 137//137 136//136
f 137//137 134//134 138//138
f 138//138 134//134 139//139
f 139//139 134//134 140//140
f 140//140 134//134 141//141
f 134//134 142//142 141//141
f 134//134 143//143 142//142
f 134//134 144//144 143//143
f 144//144 134//134 145//145
f 145//145 134//134 146//146
f 147//147 134//134 148//148
f 149//149 150//150 151//151
f 149//149 152//152 150//150
f 151//151 150//150 153//153
f 151//151 153//153 154//154
f 154//154 153//153 155//155
f 154//154 155//155 156//156
f 152//152 157//157 150//150
f 158//158 159//159 160//160
f 161//161 159//159 158//158
f 162//162 159//159 161//161
f 163//163 162//162 161//161
f 164//164 162//162 163//163
f 165//165 162//162 164//164
f 9//9 166//166 8//8
f 166//166 9//9 167//167
f 168//168 169//169 170//170
f 168//168 171//171 169//169
f 172//172 169//169 173//173
f 174//174 169//169 172//172
f 169//169 174//174 175//175
f 176//176 169//169 175//175
f 177//177 169//169 176//176
f 178//178 169//169 177//177
f 178//178 179//179 169//169
f 179//179 180//180 169//169
f 180//180 181//181 169//169
f 182//182 181//181 180//180
f 182//182 183//183 181//181
f 183//183 184//184 181//181
f 184//184 185//185 181//181
f 185//185 186//186 181//181
f 186//186 187//187 181//181
f 187//187 188//188 181//181
f 188//188 189//189 181//181
f 181//181 189//189 190//190
f 181//181 190//190 191//191
f 192//192 181//181 191//191
f 193//193 181//181 192//192
f 194//194 181//181 193//193
f 195//195 181//181 194//194
f 195//195 196//196 181//181
f 196//196 197//197 198//198
f 196//196 198//198 199//199
f 199//199 200//200 196//196
f 196//196 200//200 201//201
f 201//201 202//202 196//196
f 196//196 202//202 203//203
f 196//196 203//203 204//204
f 205//205 196//196 206//206
f 207//207 196//196 205//205
