v 7.917734 -141.5724 32.27529
v -12.93708 -139.8514 32.2753
v 7.917734 -141.5724 32.27529
v 7.917734 -141.5724 32.27529
v 7.860115 -142.2706 28.77325
v 7.837067 -142.5499 27.37244
v 7.837067 -142.5499 27.37244
v -13.01775 -140.8289 27.37245
v -33.87256 -139.108 27.37245
v 7.817163 -142.7911 27.32457
v -34.05169 -141.2786 26.9417
v 7.81469 -142.8211 27.31863
v -34.07395 -141.5484 26.88817
v 7.813995 -142.8295 27.31696
v -34.0802 -141.6241 26.87314
v 7.806192 -142.9241 27.29819
v -34.15043 -142.4752 26.70424
v 7.709974 -144.09 27.06682
v -34.16113 -142.6048 26.67854
v 7.61875 -145.1955 26.84744
v 7.608255 -145.3227 26.82221
v -34.17242 -142.7417 26.65136
v 7.586365 -145.5879 26.76957
v -34.17486 -142.7712 26.64551
v 7.528318 -146.2913 26.62998
v -34.18131 -142.8494 26.63
v 7.519003 -146.4042 26.46086
v -34.2326 -143.471 25.69872
v -34.26515 -143.8654 25.10789
v 7.516691 -146.4322 26.4189
v -34.28595 -144.1175 24.73023
v 7.516005 -146.4406 26.40641
v -34.29214 -144.1925 24.61784
v 7.510805 -146.5036 26.31203
v -34.33894 -144.7595 23.76839
v 7.45116 -147.2263 25.22921
v -34.34556 -144.8398 23.64808
v 7.401884 -147.8235 24.33463
v -34.35104 -144.9061 23.54868
v 7.353178 -148.4137 23.45042
v -34.35645 -144.9717 23.45044
v 7.355062 -148.3908 23.33457
v -34.33949 -144.7662 22.40781
v 7.359283 -148.3397 23.07501
v -34.30149 -144.3058 20.07172
v 7.371061 -148.197 22.35086
v 7.375772 -148.1399 22.06127
v -34.29966 -144.2836 19.95909
v 7.391834 -147.9452 21.07378
v -34.29788 -144.262 19.84937
v 7.405058 -147.785 20.2607
v -34.29641 -144.2441 19.75902
v 7.414238 -147.6737 19.6963
v -34.29539 -144.2318 19.69631
v -34.29539 -144.2318 19.69631
v 7.429779 -147.4854 19.56973
v -34.15552 -142.5368 18.55721
v 7.434353 -147.43 19.53248
v -34.11435 -142.0379 18.22193
v 7.43482 -147.4243 19.52867
v -34.11015 -141.987 18.1877
v 7.435038 -147.4217 19.52691
v -34.10819 -141.9634 18.17183
v 7.43531 -147.4184 19.52468
v -34.10573 -141.9335 18.15177
v 7.440388 -147.3569 19.48334
v -34.06004 -141.3799 17.7797
v 7.675732 -144.5049 17.56673
v -34.0339 -141.063 17.56674
v 7.675732 -144.5049 17.56673
v -34.0339 -141.063 17.56674
v 7.675732 -144.5049 17.56673
v 7.675732 -144.5049 17.56673
v 7.652683 -144.7842 16.16591
v 7.595064 -145.4825 12.66387
v 7.595064 -145.4825 12.66387
v 7.595064 -145.4825 12.66387
v 7.675732 -144.5049 17.56673
v 7.675732 -144.5049 17.56673
v 7.675732 -144.5049 17.56673
v -34.0339 -141.063 17.56674
v -34.0339 -141.063 17.56674
v -34.0339 -141.063 17.56674
v 7.675732 -144.5049 17.56673
v 7.072077 -151.82 16.92301
v 7.675732 -144.5049 17.56673
v -34.0339 -141.063 17.56674
v 7.675732 -144.5049 17.56673
v -13.17908 -142.784 17.56673
v -34.0339 -141.063 17.56674
v -13.25975 -143.7615 12.66388
v -34.03387 -141.063 17.56674
v -34.0339 -141.063 17.56674
v -34.05695 -141.3423 16.16593
v -34.63755 -148.3781 16.92303
v -34.0339 -141.063 17.56674
v 7.072077 -151.82 16.92301
v -34.11456 -142.0405 12.66389
v -34.63755 -148.3781 16.92303
v -34.29539 -144.2318 19.69631
v -34.29539 -144.2318 19.69631
v -12.93708 -139.8514 32.2753
v 7.917734 -141.5724 32.27529
v 7.917734 -141.5724 32.27529
v 7.860115 -142.2706 28.77325
v -13.01775 -140.8289 27.37245
v 7.837067 -142.5499 27.37244
v -33.83915 -138.7031 29.40328
v -33.79189 -138.1304 32.27531
v -33.87256 -139.108 27.37245
v 7.917734 -141.5724 32.27529
v 7.30024 -149.0552 30.79038
v 6.949957 -153.2999 24.43126
v 7.528318 -146.2913 26.62998
v 7.586365 -145.5879 26.76957
v 7.608255 -145.3227 26.82221
v 7.61875 -145.1955 26.84744
v 7.709974 -144.09 27.06682
v 7.806192 -142.9241 27.29819
v 7.813995 -142.8295 27.31696
v 7.81469 -142.8211 27.31863
v 7.817163 -142.7911 27.32457
v 7.837067 -142.5499 27.37244
v 7.519003 -146.4042 26.46086
v 7.516691 -146.4322 26.4189
v 7.516005 -146.4406 26.40641
v 7.510805 -146.5036 26.31203
v 7.45116 -147.2263 25.22921
v 7.401884 -147.8235 24.33463
v 7.353178 -148.4137 23.45042
v 7.355062 -148.3908 23.33457
v 7.359283 -148.3397 23.07501
v 7.371061 -148.197 22.35086
v 7.072077 -151.82 16.92301
v 7.375772 -148.1399 22.06127
v 7.391834 -147.9452 21.07378
v 7.405058 -147.785 20.2607
v 7.414238 -147.6737 19.6963
v 7.429779 -147.4854 19.56973
v 7.434353 -147.43 19.53248
v 7.43482 -147.4243 19.52867
v 7.435038 -147.4217 19.52691
v 7.43531 -147.4184 19.52468
v 7.440388 -147.3569 19.48334
v 7.675732 -144.5049 17.56673
v 7.675732 -144.5049 17.56673
v 7.675732 -144.5049 17.56673
v 7.595064 -145.4825 12.66387
v 7.917734 -141.5724 32.27529
v -34.40939 -145.6133 30.7904
v 7.30024 -149.0552 30.79038
v -12.93708 -139.8514 32.2753
v -34.75967 -149.858 24.43127
v 6.949957 -153.2999 24.43126
v -34.63755 -148.3781 16.92303
v 7.072077 -151.82 16.92301
v -33.79189 -138.1304 32.27531
v 7.595064 -145.4825 12.66387
v -13.17908 -142.784 17.56673
v 7.675732 -144.5049 17.56673
v -13.25975 -143.7615 12.66388
v -34.03387 -141.063 17.56674
v -34.11456 -142.0405 12.66389
v -34.05695 -141.3423 16.16593
v -34.0339 -141.063 17.56674
v -33.87256 -139.108 27.37245
v -34.40939 -145.6133 30.7904
v -33.83915 -138.7031 29.40328
v -34.40939 -145.6133 30.7904
v -33.79189 -138.1304 32.27531
v -33.87256 -139.108 27.37245
v -34.05169 -141.2786 26.9417
v -33.87256 -139.108 27.37245
v -34.07395 -141.5484 26.88817
v -34.0802 -141.6241 26.87314
v -34.15043 -142.4752 26.70424
v -34.16113 -142.6048 26.67854
v -34.17242 -142.7417 26.65136
v -34.17486 -142.7712 26.64551
v -34.18131 -142.8494 26.63
v -34.75967 -149.858 24.43127
v -34.2326 -143.471 25.69872
v -34.26515 -143.8654 25.10789
v -34.28595 -144.1175 24.73023
v -34.29214 -144.1925 24.61784
v -34.33894 -144.7595 23.76839
v -34.34556 -144.8398 23.64808
v -34.35104 -144.9061 23.54868
v -34.35645 -144.9717 23.45044
v -34.33949 -144.7662 22.40781
v -34.30149 -144.3058 20.07172
v -34.29966 -144.2836 19.95909
v -34.29788 -144.262 19.84937
v -34.29641 -144.2441 19.75902
v -34.29539 -144.2318 19.69631
v -34.63755 -148.3781 16.92303
v -34.29539 -144.2318 19.69631
v -34.15552 -142.5368 18.55721
v -34.11435 -142.0379 18.22193
v -34.11015 -141.987 18.1877
v -34.10819 -141.9634 18.17183
v -34.10573 -141.9335 18.15177
v -34.06004 -141.3799 17.7797
v -34.0339 -141.063 17.56674
v -34.05695 -141.3423 16.16593
v -34.0339 -141.063 17.56674
v -34.11456 -142.0405 12.66389

vn 0.01613402 0.1955029 0.9805704
vn 0.01613387 0.1955029 0.9805704
vn 0.6608362 0.0949144 0.7445044
vn 0.9966124 -0.08224219 -2.48896E-07
vn 0.9966124 -0.08224219 -2.48896E-07
vn 0.01595613 0.1933605 -0.980998
vn 0.1249705 -0.2051688 -0.9707153
vn 0.07449922 0.9027864 -0.4235874
vn 0.01595548 0.193356 -0.9809989
vn 0.01595546 0.1933551 -0.9809991
vn 0.01595545 0.1933555 -0.980999
vn 0.01595545 0.1933565 -0.9809989
vn 0.01595547 0.1933575 -0.9809986
vn 0.0159556 0.1933518 -0.9809998
vn 0.01595553 0.1933545 -0.9809992
vn 0.01595553 0.1933551 -0.9809991
vn 0.01595553 0.1933549 -0.9809992
vn 0.01595553 0.1933548 -0.9809991
vn 0.01595554 0.1933551 -0.9809991
vn 0.01595549 0.1933548 -0.9809992
vn 0.01595559 0.1933559 -0.9809989
vn 0.01595567 0.1933575 -0.9809986
vn 0.01595561 0.1933553 -0.980999
vn 0.01595552 0.1933545 -0.9809992
vn 0.02794213 0.3386084 -0.9405125
vn 0.06640229 0.8046685 -0.5899993
vn 0.06833136 0.8280455 -0.5564814
vn 0.06833135 0.828045 -0.556482
vn 0.06833136 0.8280448 -0.5564823
vn 0.06833143 0.8280437 -0.5564841
vn 0.06833144 0.8280429 -0.5564851
vn 0.06833158 0.828042 -0.5564865
vn 0.06833145 0.8280436 -0.5564842
vn 0.06833132 0.8280442 -0.5564831
vn 0.06833129 0.8280446 -0.5564827
vn 0.06833123 0.8280446 -0.5564826
vn 0.06833128 0.8280439 -0.5564836
vn 0.06833129 0.8280444 -0.5564831
vn 0.0683313 0.828045 -0.5564821
vn 0.07119539 0.8627519 -0.50059
vn 0.08155638 0.9883027 0.128866
vn 0.0806795 0.977676 0.1940113
vn 0.08067946 0.9776759 0.1940124
vn 0.08067941 0.9776757 0.1940131
vn 0.08067943 0.9776757 0.1940131
vn 0.08067945 0.9776757 0.1940127
vn 0.08067959 0.9776759 0.1940121
vn 0.08067952 0.9776758 0.1940126
vn 0.08067955 0.9776759 0.1940122
vn 0.08067954 0.9776757 0.1940125
vn 0.08067956 0.9776759 0.1940125
vn 0.08067957 0.9776758 0.1940121
vn 0.0759532 0.9204003 0.383529
vn 0.08067995 0.9776804 0.1939893
vn 0.04576679 0.5545985 0.8308586
vn 0.04576665 0.5545973 0.8308592
vn 0.04576659 0.554597 0.8308596
vn 0.04576639 0.5545959 0.8308601
vn 0.04576674 0.5545977 0.8308591
vn 0.04576714 0.554599 0.8308582
vn 0.0457676 0.5546013 0.8308566
vn 0.04577629 0.5546383 0.8308315
vn 0.04577078 0.5546151 0.8308473
vn 0.04576549 0.5545917 0.8308631
vn 0.04576616 0.5545951 0.8308609
vn 0.04576669 0.5545974 0.8308592
vn 0.04576676 0.5545979 0.8308588
vn 0.04576678 0.5545982 0.8308587
vn 0.04576705 0.5546024 0.830856
vn 0.05656663 0.6854721 0.7258982
vn 0.01613368 0.1955029 0.9805704
vn 0.01613368 0.1955029 0.9805704
vn 0.01613368 0.1955029 0.9805704
vn 0.9966124 -0.08224219 -2.48896E-07
vn -0.04576687 -0.5545976 -0.8308591
vn 0.9966124 -0.08224219 -2.48896E-07
vn 0.0778634 0.9435531 -0.3219392
vn 0.7682946 0.06443576 0.6368448
vn 0.8325093 0.04218616 0.5524025
vn 0.08690123 0.1891656 0.9780923
vn 0.01613368 0.1955029 0.9805704
vn 0.01613368 0.1955029 0.9805704
vn 0.01613368 0.1955029 0.9805704
vn 0.1187016 0.1859919 0.9753548
vn 0.9966124 -0.08224219 -2.48896E-07
vn 0.02875312 0.1944514 0.9804906
vn 0.01613368 0.1955029 0.9805704
vn 0.1569138 0.1819072 0.9707151
vn 0.01613314 0.1954965 0.9805717
vn -0.04373433 0.2000821 0.9788026
vn -0.0457668 -0.5545976 -0.830859
vn 0.01613177 0.1954798 0.980575
vn -0.9966123 0.08224355 7.056757E-06
vn -0.9966124 0.08224219 2.48896E-07
vn -0.9966124 0.08224177 3.335586E-07
vn 0 0 0
vn -0.04576679 -0.5545977 -0.8308591
vn -0.04576676 -0.5545977 -0.8308591
vn -0.04576679 -0.5545977 -0.8308591
vn -0.9966124 0.08224177 3.335586E-07
vn -0.9966124 0.08224177 3.335586E-07
vn 0.08064409 0.9772486 -0.1961675
vn 0.08064409 0.9772485 -0.1961675
vn 0.08064409 0.9772486 -0.1961675
vn 0.08064409 0.9772486 -0.1961675
vn 0.08064409 0.9772486 -0.1961675
vn 0.08064409 0.9772486 -0.1961675
vn 0.08064409 0.9772486 -0.1961675
vn 0.08064409 0.9772486 -0.1961675
vn 0.08064409 0.9772486 -0.1961675
vn 0.9966124 -0.08224219 -2.48896E-07
vn 0.9966124 -0.08224219 -2.48896E-07
vn 0.9966124 -0.08224219 -2.48896E-07
vn 0.9966124 -0.08224219 -2.48896E-07
vn 0.9966124 -0.08224219 -2.48896E-07
vn 0.9966124 -0.08224219 -2.48896E-07
vn 0.9966124 -0.08224219 -2.48896E-07
vn 0.9966124 -0.08224219 -2.48896E-07
vn 0.9966124 -0.08224219 -2.48896E-07
vn 0.9966124 -0.08224219 -2.48896E-07
vn 0.9966124 -0.08224219 -2.48896E-07
vn 0.9966124 -0.08224219 -2.48896E-07
vn 0.9966124 -0.08224219 -2.48896E-07
vn 0.9966123 -0.08224218 -2.488959E-07
vn 0.9966124 -0.08224219 -2.48896E-07
vn 0.9966124 -0.08224219 -2.48896E-07
vn 0.9966123 -0.08224218 -2.488959E-07
vn 0.9966124 -0.08224219 -2.48896E-07
vn 0.9966124 -0.08224219 -2.48896E-07
vn 0.9966124 -0.08224219 -2.48896E-07
vn 0.9966123 -0.08224218 -2.488959E-07
vn 0.9966124 -0.08224219 -2.48896E-07
vn 0.9966124 -0.08224219 -2.48896E-07
vn 0.9966124 -0.08224219 -2.48896E-07
vn 0.9966124 -0.08224219 -2.48896E-07
vn 0.9966124 -0.08224219 -2.48896E-07
vn 0.9966124 -0.08224219 -2.48896E-07
vn 0.9966124 -0.08224219 -2.48896E-07
vn 0.9966124 -0.08224219 -2.48896E-07
vn 0.9966124 -0.08224219 -2.48896E-07
vn 0.9966124 -0.08224219 -2.48896E-07
vn 0.9966123 -0.08224218 -2.488959E-07
vn 0.9966124 -0.08224219 -2.48896E-07
vn 0.9966123 -0.08224218 -2.488959E-07
vn 0.9966123 -0.08224218 -2.488959E-07
vn 0.9966124 -0.08224219 -2.48896E-07
vn 0.9966123 -0.08224218 -2.488959E-07
vn 0.9966123 -0.08224218 -2.488959E-07
vn -0.01595545 -0.1933555 0.9809991
vn -0.03582726 -0.4341618 0.9001222
vn -0.05454675 -0.6610039 0.7483972
vn -0.01595547 -0.1933555 0.9809989
vn -0.07767956 -0.9413251 0.3284401
vn -0.08209291 -0.9948044 0.06020788
vn -0.08067955 -0.9776757 -0.1940127
vn -0.08067956 -0.9776757 -0.1940127
vn -0.01595552 -0.1933554 0.980999
vn 0.08064409 0.9772486 -0.1961675
vn 0.08064409 0.9772486 -0.1961675
vn 0.08064409 0.9772486 -0.1961675
vn 0.08064409 0.9772486 -0.1961675
vn 0.08064409 0.9772486 -0.1961675
vn 0.08064409 0.9772486 -0.1961675
vn 0.08064409 0.9772486 -0.1961675
vn 0.08064408 0.9772485 -0.1961675
vn -0.2179144 -0.1747613 -0.9601936
vn -0.9966124 0.08224233 9.713398E-07
vn -0.9966123 0.08224197 2.912273E-07
vn -0.9966124 0.08224198 4.041641E-07
vn -0.9966124 0.08224197 2.912273E-07
vn -0.9966124 0.08224197 2.912273E-07
vn -0.9966124 0.08224212 5.729392E-07
vn -0.9966124 0.08224212 5.729393E-07
vn -0.9966124 0.08224212 5.729387E-07
vn -0.9966124 0.08224212 5.729394E-07
vn -0.9966124 0.08224212 5.729394E-07
vn -0.9966123 0.08224212 5.729391E-07
vn -0.9966124 0.08224212 5.729377E-07
vn -0.9966123 0.08224212 5.729407E-07
vn -0.9966124 0.08224192 4.339793E-07
vn -0.9966124 0.08224189 3.087615E-07
vn -0.9966124 0.08224192 4.327127E-07
vn -0.9966124 0.08224192 4.327133E-07
vn -0.9966124 0.08224192 4.32714E-07
vn -0.9966124 0.08224192 4.327136E-07
vn -0.9966124 0.08224192 4.327135E-07
vn -0.9966124 0.08224192 4.327134E-07
vn -0.9966124 0.08224192 4.327128E-07
vn -0.9966124 0.08224187 2.096294E-07
vn -0.9966124 0.08224186 1.848097E-07
vn -0.9966124 0.08224186 1.848095E-07
vn -0.9966124 0.08224186 1.848102E-07
vn -0.9966124 0.08224186 1.848088E-07
vn -0.9966124 0.08224186 1.848094E-07
vn -0.9966124 0.08224186 1.848097E-07
vn -0.9966124 0.08224194 1.853041E-07
vn -0.9966124 0.082242 -2.555329E-08
vn -0.9966124 0.082242 -2.55535E-08
vn -0.9966124 0.082242 -2.555387E-08
vn -0.9966124 0.082242 -2.554669E-08
vn -0.9966124 0.082242 -2.555464E-08
vn -0.9966124 0.082242 -2.555405E-08
vn -0.9966124 0.082242 -2.555256E-08
vn -0.9966123 0.082242 -2.555136E-08
vn -0.9966124 0.08224197 2.912273E-07
vn -0.9966124 0.08224197 2.912273E-07
vn -0.9966123 0.08224197 2.912273E-07

f 1//1 2//2 3//3
f 4//4 1//1 3//3
f 3//3 5//5 4//4
f 3//3 6//6 5//5
f 5//5 6//6 7//7
f 8//8 7//7 6//6
f 9//9 8//8 6//6
f 10//10 9//9 6//6
f 9//9 10//10 11//11
f 11//11 10//10 12//12
f 13//13 11//11 12//12
f 13//13 12//12 14//14
f 13//13 14//14 15//15
f 15//15 14//14 16//16
f 15//15 16//16 17//17
f 18//18 17//17 16//16
f 19//19 17//17 18//18
f 19//19 18//18 20//20
f 21//21 19//19 20//20
f 22//22 19//19 21//21
f 22//22 21//21 23//23
f 24//24 22//22 23//23
f 24//24 23//23 25//25
f 26//26 24//24 25//25
f 26//26 25//25 27//27
f 28//28 26//26 27//27
f 28//28 27//27 29//29
f 29//29 27//27 30//30
f 31//31 29//29 30//30
f 31//31 30//30 32//32
f 33//33 31//31 32//32
f 33//33 32//32 34//34
f 35//35 33//33 34//34
f 35//35 34//34 36//36
f 37//37 35//35 36//36
f 37//37 36//36 38//38
f 39//39 37//37 38//38
f 39//39 38//38 40//40
f 41//41 39//39 40//40
f 41//41 40//40 42//42
f 41//41 42//42 43//43
f 43//43 42//42 44//44
f 45//45 43//43 44//44
f 45//45 44//44 46//46
f 47//47 45//45 46//46
f 48//48 45//45 47//47
f 48//48 47//47 49//49
f 50//50 48//48 49//49
f 50//50 49//49 51//51
f 52//52 50//50 51//51
f 52//52 51//51 53//53
f 54//54 52//52 53//53
f 55//55 54//54 53//53
f 55//55 53//53 56//56
f 55//55 56//56 57//57
f 57//57 56//56 58//58
f 57//57 58//58 59//59
f 59//59 58//58 60//60
f 59//59 60//60 61//61
f 61//61 60//60 62//62
f 61//61 62//62 63//63
f 63//63 62//62 64//64
f 63//63 64//64 65//65
f 65//65 64//64 66//66
f 65//65 66//66 67//67
f 68//68 67//67 66//66
f 69//69 67//67 68//68
f 69//69 68//68 70//70
f 71//71 69//69 70//70
f 72//72 71//71 73//73
f 74//74 75//75 76//76
f 77//77 74//74 76//76
f 75//75 77//77 76//76
f 78//78 75//75 74//74
f 79//79 75//75 78//78
f 78//78 74//74 80//80
f 81//81 78//78 80//80
f 82//82 78//78 81//81
f 82//82 83//83 78//78
f 83//83 84//84 79//79
f 84//84 85//85 79//79
f 80//80 74//74 86//86
f 87//87 80//80 86//86
f 81//81 80//80 87//87
f 86//86 74//74 88//88
f 88//88 74//74 77//77
f 86//86 88//88 89//89
f 90//90 86//86 89//89
f 87//87 86//86 90//90
f 75//75 91//91 77//77
f 90//90 89//89 92//92
f 90//90 92//92 93//93
f 94//94 90//90 93//93
f 95//95 83//83 82//82
f 95//95 82//82 81//81
f 95//95 81//81 87//87
f 95//95 87//87 90//90
f 95//95 96//96 83//83
f 97//97 91//91 75//75
f 97//97 98//98 91//91
f 97//97 99//99 98//98
f 100//100 95//95 101//101
f 102//102 103//103 104//104
f 102//102 104//104 105//105
f 102//102 105//105 106//106
f 106//106 105//105 107//107
f 108//108 102//102 106//106
f 109//109 102//102 108//108
f 110//110 108//108 106//106
f 111//111 112//112 113//113
f 111//111 113//113 114//114
f 111//111 114//114 115//115
f 111//111 115//115 116//116
f 111//111 116//116 117//117
f 117//117 118//118 111//111
f 118//118 119//119 111//111
f 120//120 111//111 119//119
f 120//120 121//121 111//111
f 121//121 122//122 111//111
f 111//111 122//122 123//123
f 114//114 113//113 124//124
f 124//124 113//113 125//125
f 125//125 113//113 126//126
f 126//126 113//113 127//127
f 127//127 113//113 128//128
f 128//128 113//113 129//129
f 129//129 113//113 130//130
f 130//130 113//113 131//131
f 131//131 113//113 132//132
f 132//132 113//113 133//133
f 133//133 113//113 134//134
f 133//133 134//134 135//135
f 135//135 134//134 136//136
f 134//134 137//137 136//136
f 137//137 134//134 138//138
f 138//138 134//134 139//139
f 139//139 134//134 140//140
f 140//140 134//134 141//141
f 134//134 142//142 141//141
f 134//134 143//143 142//142
f 134//134 144//144 143//143
f 144//144 134//134 145//145
f 145//145 134//134 146//146
f 147//147 134//134 148//148
f 149//149 150//150 151//151
f 149//149 152//152 150//150
f 151//151 150//150 153//153
f 151//151 153//153 154//154
f 154//154 153//153 155//155
f 154//154 155//155 156//156
f 152//152 157//157 150//150
f 158//158 159//159 160//160
f 161//161 159//159 158//158
f 162//162 159//159 161//161
f 163//163 162//162 161//161
f 164//164 162//162 163//163
f 165//165 162//162 164//164
f 9//9 166//166 8//8
f 166//166 9//9 167//167
f 168//168 169//169 170//170
f 168//168 171//171 169//169
f 172//172 169//169 173//173
f 174//174 169//169 172//172
f 169//169 174//174 175//175
f 176//176 169//169 175//175
f 177//177 169//169 176//176
f 178//178 169//169 177//177
f 178//178 179//179 169//169
f 179//179 180//180 169//169
f 180//180 181//181 169//169
f 182//182 181//181 180//180
f 182//182 183//183 181//181
f 183//183 184//184 181//181
f 184//184 185//185 181//181
f 185//185 186//186 181//181
f 186//186 187//187 181//181
f 187//187 188//188 181//181
f 188//188 189//189 181//181
f 181//181 189//189 190//190
f 181//181 190//190 191//191
f 192//192 181//181 191//191
f 193//193 181//181 192//192
f 194//194 181//181 193//193
f 195//195 181//181 194//194
f 195//195 196//196 181//181
f 196//196 197//197 198//198
f 196//196 198//198 199//199
f 199//199 200//200 196//196
f 196//196 200//200 201//201
f 201//201 202//202 196//196
f 196//196 202//202 203//203
f 196//196 203//203 204//204
f 205//205 196//196 206//206
f 207//207 196//196 205//205
