v 142.3775 11.0399 -13.4196
v 137.5697 31.4058 -13.4196
v 142.3775 11.0399 -13.4196
v 142.3775 11.0399 -13.4196
v 141.6647 10.87164 -16.91514
v 141.3796 10.80434 -18.31336
v 141.3796 10.80434 -18.31336
v 136.5719 31.17024 -18.31335
v 131.7642 51.53614 -18.31335
v 141.1437 10.74864 -18.35902
v 129.6407 51.03485 -18.72433
v 141.1144 10.74172 -18.3647
v 129.3768 50.97256 -18.77541
v 141.1061 10.73978 -18.36629
v 129.3027 50.95507 -18.78974
v 141.0136 10.71794 -18.38419
v 128.4701 50.75851 -18.95089
v 139.873 10.44868 -18.60495
v 128.3434 50.7286 -18.97542
v 138.7915 10.19338 -18.81425
v 138.6671 10.16401 -18.83833
v 128.2094 50.69697 -19.00135
v 138.4077 10.10275 -18.88855
v 128.1805 50.69016 -19.00693
v 137.7195 9.940311 -19.02173
v 128.1041 50.67211 -19.02172
v 137.6078 9.913935 -19.18982
v 127.4888 50.52687 -19.9473
v 127.0985 50.43472 -20.53453
v 137.5801 9.907391 -19.23153
v 126.849 50.37582 -20.90988
v 137.5718 9.905443 -19.24394
v 126.7747 50.3583 -21.02158
v 137.5095 9.890722 -19.33774
v 126.2135 50.22582 -21.86583
v 136.7941 9.721848 -20.41393
v 126.1341 50.20705 -21.98541
v 136.2031 9.582331 -21.30304
v 126.0684 50.19155 -22.0842
v 135.619 9.444431 -22.18184
v 126.0035 50.17623 -22.18184
v 135.6402 9.449453 -22.2979
v 126.195 50.22143 -23.2263
v 135.6879 9.460707 -22.55791
v 126.624 50.32271 -25.56647
v 135.8209 9.4921 -23.28333
v 135.8741 9.504654 -23.57343
v 126.6447 50.32759 -25.67931
v 136.0554 9.547464 -24.56265
v 126.6648 50.33234 -25.78922
v 136.2047 9.582712 -25.37716
v 126.6814 50.33626 -25.87972
v 136.3084 9.607182 -25.94255
v 126.6929 50.33898 -25.94254
v 126.6929 50.33898 -25.94254
v 136.4912 9.650331 -26.07082
v 128.338 50.72734 -27.09703
v 136.545 9.663033 -26.10858
v 128.8223 50.84165 -27.43683
v 136.5505 9.66433 -26.11243
v 128.8717 50.85332 -27.47152
v 136.553 9.66493 -26.11422
v 128.8946 50.85873 -27.48761
v 136.5562 9.665691 -26.11648
v 128.9236 50.86557 -27.50794
v 136.6159 9.679785 -26.15838
v 129.4609 50.99242 -27.88503
v 139.384 10.33323 -28.10087
v 129.7685 51.06503 -28.10086
v 139.384 10.33323 -28.10087
v 129.7685 51.06503 -28.10086
v 139.384 10.33323 -28.10087
v 139.384 10.33323 -28.10087
v 139.0989 10.26592 -29.49908
v 138.3861 10.09767 -32.99462
v 138.3861 10.09767 -32.99462
v 138.3861 10.09767 -32.99462
v 139.384 10.33323 -28.10087
v 139.384 10.33323 -28.10087
v 139.384 10.33323 -28.10087
v 129.7685 51.06503 -28.10086
v 129.7685 51.06503 -28.10086
v 129.7685 51.06503 -28.10086
v 139.384 10.33323 -28.10087
v 132.235 8.645578 -28.67798
v 139.384 10.33323 -28.10087
v 129.7685 51.06503 -28.10086
v 139.384 10.33323 -28.10087
v 134.5762 30.69913 -28.10087
v 129.7685 51.06503 -28.10086
v 133.5784 30.46357 -32.99462
v 129.7685 51.065 -28.10086
v 129.7685 51.06503 -28.10086
v 129.4834 50.99772 -29.49908
v 122.6195 49.37737 -28.67798
v 129.7685 51.06503 -28.10086
v 132.235 8.645578 -28.67798
v 128.7706 50.82947 -32.99462
v 122.6195 49.37737 -28.67798
v 126.6929 50.33898 -25.94254
v 126.6929 50.33898 -25.94254
v 137.5697 31.4058 -13.4196
v 142.3775 11.0399 -13.4196
v 142.3775 11.0399 -13.4196
v 141.6647 10.87164 -16.91514
v 136.5719 31.17024 -18.31335
v 141.3796 10.80434 -18.31336
v 132.1775 51.63371 -16.28629
v 132.762 51.7717 -13.4196
v 131.7642 51.53614 -18.31335
v 142.3775 11.0399 -13.4196
v 135.0573 9.311838 -14.83635
v 130.8561 8.320078 -21.15658
v 137.7195 9.940311 -19.02173
v 138.4077 10.10275 -18.88855
v 138.6671 10.16401 -18.83833
v 138.7915 10.19338 -18.81425
v 139.873 10.44868 -18.60495
v 141.0136 10.71794 -18.38419
v 141.1061 10.73978 -18.36629
v 141.1144 10.74172 -18.3647
v 141.1437 10.74864 -18.35902
v 141.3796 10.80434 -18.31336
v 137.6078 9.913935 -19.18982
v 137.5801 9.907391 -19.23153
v 137.5718 9.905443 -19.24394
v 137.5095 9.890722 -19.33774
v 136.7941 9.721848 -20.41393
v 136.2031 9.582331 -21.30304
v 135.619 9.444431 -22.18184
v 135.6402 9.449453 -22.2979
v 135.6879 9.460707 -22.55791
v 135.8209 9.4921 -23.28333
v 132.235 8.645578 -28.67798
v 135.8741 9.504654 -23.57343
v 136.0554 9.547464 -24.56265
v 136.2047 9.582712 -25.37716
v 136.3084 9.607182 -25.94255
v 136.4912 9.650331 -26.07082
v 136.545 9.663033 -26.10858
v 136.5505 9.66433 -26.11243
v 136.553 9.66493 -26.11422
v 136.5562 9.665691 -26.11648
v 136.6159 9.679785 -26.15838
v 139.384 10.33323 -28.10087
v 139.384 10.33323 -28.10087
v 139.384 10.33323 -28.10087
v 138.3861 10.09767 -32.99462
v 142.3775 11.0399 -13.4196
v 125.4418 50.04363 -14.83634
v 135.0573 9.311838 -14.83635
v 137.5697 31.4058 -13.4196
v 121.2406 49.05187 -21.15657
v 130.8561 8.320078 -21.15658
v 122.6195 49.37737 -28.67798
v 132.235 8.645578 -28.67798
v 132.762 51.7717 -13.4196
v 138.3861 10.09767 -32.99462
v 134.5762 30.69913 -28.10087
v 139.384 10.33323 -28.10087
v 133.5784 30.46357 -32.99462
v 129.7685 51.065 -28.10086
v 128.7706 50.82947 -32.99462
v 129.4834 50.99772 -29.49908
v 129.7685 51.06503 -28.10086
v 131.7642 51.53614 -18.31335
v 125.4418 50.04363 -14.83634
v 132.1775 51.63371 -16.28629
v 125.4418 50.04363 -14.83634
v 132.762 51.7717 -13.4196
v 131.7642 51.53614 -18.31335
v 129.6407 51.03485 -18.72433
v 131.7642 51.53614 -18.31335
v 129.3768 50.97256 -18.77541
v 129.3027 50.95507 -18.78974
v 128.4701 50.75851 -18.95089
v 128.3434 50.7286 -18.97542
v 128.2094 50.69697 -19.00135
v 128.1805 50.69016 -19.00693
v 128.1041 50.67211 -19.02172
v 121.2406 49.05187 -21.15657
v 127.4888 50.52687 -19.9473
v 127.0985 50.43472 -20.53453
v 126.849 50.37582 -20.90988
v 126.7747 50.3583 -21.02158
v 126.2135 50.22582 -21.86583
v 126.1341 50.20705 -21.98541
v 126.0684 50.19155 -22.0842
v 126.0035 50.17623 -22.18184
v 126.195 50.22143 -23.2263
v 126.624 50.32271 -25.56647
v 126.6447 50.32759 -25.67931
v 126.6648 50.33234 -25.78922
v 126.6814 50.33626 -25.87972
v 126.6929 50.33898 -25.94254
v 122.6195 49.37737 -28.67798
v 126.6929 50.33898 -25.94254
v 128.338 50.72734 -27.09703
v 128.8223 50.84165 -27.43683
v 128.8717 50.85332 -27.47152
v 128.8946 50.85873 -27.48761
v 128.9236 50.86557 -27.50794
v 129.4609 50.99242 -27.88503
v 129.7685 51.06503 -28.10086
v 129.4834 50.99772 -29.49908
v 129.7685 51.06503 -28.10086
v 128.7706 50.82947 -32.99462

vn 0.1995682 0.04711108 0.9787508
vn 0.1995681 0.04711123 0.9787508
vn 0.3010444 -0.5976123 0.743123
vn 0.2297527 -0.9732491 2.980232E-08
vn 0.2297527 -0.9732491 2.980232E-08
vn 0.1801599 0.04252997 -0.9827175
vn -0.1650705 -0.1842759 -0.968914
vn 0.8778471 0.2072315 -0.4317864
vn 0.1801554 0.0425292 -0.9827183
vn 0.1801547 0.04252897 -0.9827185
vn 0.180155 0.04252908 -0.9827184
vn 0.1801559 0.0425294 -0.9827183
vn 0.1801569 0.04252969 -0.982718
vn 0.1801515 0.04252781 -0.9827191
vn 0.1801541 0.04252871 -0.9827186
vn 0.1801546 0.04252888 -0.9827185
vn 0.1801545 0.04252883 -0.9827186
vn 0.1801544 0.04252881 -0.9827185
vn 0.1801547 0.04252889 -0.9827185
vn 0.1801543 0.04252883 -0.9827186
vn 0.1801555 0.04252909 -0.9827183
vn 0.1801569 0.04252949 -0.982718
vn 0.1801549 0.04252888 -0.9827184
vn 0.180154 0.0425287 -0.9827186
vn 0.3223543 0.07609761 -0.9435555
vn 0.7805642 0.1842662 -0.5972984
vn 0.8036881 0.1897251 -0.5639946
vn 0.8036876 0.1897249 -0.5639952
vn 0.8036875 0.1897248 -0.5639955
vn 0.8036864 0.1897244 -0.5639973
vn 0.8036857 0.1897242 -0.5639983
vn 0.8036848 0.1897237 -0.5639997
vn 0.8036863 0.1897244 -0.5639974
vn 0.8036868 0.1897247 -0.5639964
vn 0.8036872 0.1897248 -0.563996
vn 0.8036872 0.1897249 -0.5639958
vn 0.8036866 0.1897246 -0.5639968
vn 0.803687 0.1897248 -0.5639963
vn 0.8036876 0.189725 -0.5639952
vn 0.8380729 0.1978422 -0.5084214
vn 0.9662321 0.2280963 0.1198661
vn 0.95643 0.2257823 0.1851055
vn 0.9564298 0.2257823 0.1851065
vn 0.9564297 0.2257823 0.1851072
vn 0.9564296 0.2257823 0.1851072
vn 0.9564297 0.2257823 0.1851068
vn 0.9564298 0.2257822 0.1851062
vn 0.9564298 0.2257822 0.1851067
vn 0.9564299 0.2257822 0.1851063
vn 0.9564297 0.2257822 0.1851066
vn 0.9564298 0.2257822 0.1851067
vn 0.9564298 0.2257822 0.1851062
vn 0.9021723 0.2129737 0.3751366
vn 0.956434 0.2257832 0.1850833
vn 0.5489094 0.1295796 0.825777
vn 0.5489083 0.1295794 0.8257776
vn 0.548908 0.1295794 0.825778
vn 0.5489069 0.1295793 0.8257786
vn 0.5489087 0.1295795 0.8257775
vn 0.5489101 0.1295795 0.8257766
vn 0.5489122 0.1295797 0.825775
vn 0.5489499 0.1295829 0.8257495
vn 0.5489263 0.129581 0.8257656
vn 0.5489026 0.1295788 0.8257816
vn 0.548906 0.1295792 0.8257793
vn 0.5489084 0.1295794 0.8257776
vn 0.5489089 0.1295795 0.8257772
vn 0.5489091 0.1295796 0.8257771
vn 0.5489132 0.1295806 0.8257743
vn 0.6757832 0.1595305 0.7196298
vn 0.1995681 0.04711141 0.9787508
vn 0.1995681 0.04711141 0.9787508
vn 0.1995681 0.04711141 0.9787508
vn 0.2297527 -0.9732491 2.980232E-08
vn -0.5489087 -0.1295793 -0.8257775
vn 0.2297527 -0.9732491 2.980232E-08
vn 0.9185538 0.216841 -0.3305133
vn 0.3043144 -0.7094539 0.6356633
vn 0.3022525 -0.7775771 0.5513777
vn 0.2153874 -0.02215603 0.9762773
vn 0.1995681 0.04711141 0.9787508
vn 0.1995681 0.04711141 0.9787508
vn 0.1995681 0.04711141 0.9787508
vn 0.2221717 -0.05338642 0.9735449
vn 0.2297527 -0.9732491 2.980232E-08
vn 0.2024669 0.03478451 0.9786711
vn 0.1995681 0.04711141 0.9787508
vn 0.2300542 -0.09100025 0.9689139
vn 0.1995618 0.04710992 0.9787521
vn 0.1854073 0.1054606 0.9769863
vn -0.5489086 -0.1295794 -0.8257774
vn 0.1995455 0.0471061 0.9787557
vn -0.2297513 0.9732494 6.765425E-06
vn -0.2297527 0.9732491 -2.980232E-08
vn -0.2297531 0.973249 5.869536E-08
vn 0 0 0
vn -0.5489087 -0.1295794 -0.8257775
vn -0.5489087 -0.1295795 -0.8257775
vn -0.5489087 -0.1295794 -0.8257775
vn -0.2297531 0.973249 5.869536E-08
vn -0.2297531 0.973249 5.869536E-08
vn 0.9525682 0.2248707 -0.2050534
vn 0.9525682 0.2248707 -0.2050534
vn 0.9525682 0.2248707 -0.2050534
vn 0.9525682 0.2248707 -0.2050534
vn 0.9525682 0.2248707 -0.2050534
vn 0.9525682 0.2248707 -0.2050534
vn 0.9525682 0.2248707 -0.2050534
vn 0.9525682 0.2248707 -0.2050534
vn 0.9525682 0.2248707 -0.2050534
vn 0.2297527 -0.9732491 2.980232E-08
vn 0.2297527 -0.9732491 2.980232E-08
vn 0.2297527 -0.9732491 2.980232E-08
vn 0.2297527 -0.9732491 2.980232E-08
vn 0.2297527 -0.9732491 2.980232E-08
vn 0.2297527 -0.9732491 2.980232E-08
vn 0.2297527 -0.9732491 2.980232E-08
vn 0.2297527 -0.9732491 2.980232E-08
vn 0.2297527 -0.9732491 2.980232E-08
vn 0.2297527 -0.9732491 2.980232E-08
vn 0.2297527 -0.9732491 2.980232E-08
vn 0.2297527 -0.9732491 2.980232E-08
vn 0.2297527 -0.9732491 2.980232E-08
vn 0.2297527 -0.973249 2.980232E-08
vn 0.2297527 -0.9732491 2.980232E-08
vn 0.2297527 -0.9732491 2.980232E-08
vn 0.2297527 -0.973249 2.980232E-08
vn 0.2297527 -0.9732491 2.980232E-08
vn 0.2297527 -0.9732491 2.980232E-08
vn 0.2297527 -0.9732491 2.980232E-08
vn 0.2297527 -0.973249 2.980232E-08
vn 0.2297527 -0.9732491 2.980232E-08
vn 0.2297527 -0.9732491 2.980232E-08
vn 0.2297527 -0.9732491 2.980232E-08
vn 0.2297527 -0.9732491 2.980232E-08
vn 0.2297527 -0.9732491 2.980232E-08
vn 0.2297527 -0.9732491 2.980232E-08
vn 0.2297527 -0.9732491 2.980232E-08
vn 0.2297527 -0.9732491 2.980232E-08
vn 0.2297527 -0.9732491 2.980232E-08
vn 0.2297527 -0.9732491 2.980232E-08
vn 0.2297527 -0.973249 2.980232E-08
vn 0.2297527 -0.9732491 2.980232E-08
vn 0.2297527 -0.973249 2.980232E-08
vn 0.2297527 -0.973249 2.980232E-08
vn 0.2297527 -0.9732491 2.980232E-08
vn 0.2297527 -0.973249 2.980232E-08
vn 0.2297527 -0.973249 2.980232E-08
vn -0.180155 -0.0425291 0.9827185
vn -0.4160205 -0.09820928 0.9040365
vn -0.6388749 -0.150818 0.7543823
vn -0.180155 -0.04252908 0.9827183
vn -0.9163207 -0.2163139 0.3369937
vn -0.970912 -0.229201 0.06925919
vn -0.9564297 -0.2257822 -0.1851068
vn -0.9564297 -0.2257822 -0.1851068
vn -0.1801549 -0.04252899 0.9827184
vn 0.9525682 0.2248707 -0.2050534
vn 0.9525682 0.2248707 -0.2050534
vn 0.9525682 0.2248707 -0.2050534
vn 0.9525682 0.2248707 -0.2050534
vn 0.9525682 0.2248707 -0.2050534
vn 0.9525682 0.2248707 -0.2050534
vn 0.9525682 0.2248707 -0.2050534
vn 0.9525682 0.2248707 -0.2050534
vn -0.2420155 0.1512455 -0.9584119
vn -0.2297525 0.9732491 6.91301E-07
vn -0.2297529 0.973249 1.444652E-08
vn -0.2297529 0.973249 1.273391E-07
vn -0.2297529 0.973249 1.444652E-08
vn -0.2297529 0.973249 1.444652E-08
vn -0.2297527 0.9732491 2.948089E-07
vn -0.2297527 0.9732491 2.94809E-07
vn -0.2297527 0.9732491 2.948084E-07
vn -0.2297527 0.9732491 2.948091E-07
vn -0.2297527 0.9732491 2.948091E-07
vn -0.2297527 0.973249 2.948088E-07
vn -0.2297527 0.9732491 2.948074E-07
vn -0.2297527 0.973249 2.948104E-07
vn -0.229753 0.973249 1.577455E-07
vn -0.229753 0.973249 3.277501E-08
vn -0.229753 0.973249 1.564962E-07
vn -0.229753 0.973249 1.564968E-07
vn -0.229753 0.973249 1.564975E-07
vn -0.229753 0.973249 1.56497E-07
vn -0.229753 0.973249 1.56497E-07
vn -0.229753 0.973249 1.564969E-07
vn -0.229753 0.973249 1.564963E-07
vn -0.229753 0.973249 -6.617316E-08
vn -0.229753 0.973249 -9.094677E-08
vn -0.229753 0.973249 -9.094697E-08
vn -0.229753 0.973249 -9.094633E-08
vn -0.229753 0.973249 -9.094774E-08
vn -0.229753 0.973249 -9.094707E-08
vn -0.229753 0.973249 -9.094674E-08
vn -0.2297529 0.973249 -9.111472E-08
vn -0.2297529 0.973249 -3.02573E-07
vn -0.2297529 0.973249 -3.025732E-07
vn -0.2297529 0.973249 -3.025736E-07
vn -0.2297529 0.973249 -3.025664E-07
vn -0.2297529 0.973249 -3.025744E-07
vn -0.2297529 0.973249 -3.025738E-07
vn -0.2297529 0.973249 -3.025723E-07
vn -0.2297529 0.973249 -3.025711E-07
vn -0.2297529 0.973249 1.444651E-08
vn -0.2297529 0.973249 1.444651E-08
vn -0.2297529 0.973249 1.444652E-08

f 1//1 2//2 3//3
f 4//4 1//1 3//3
f 3//3 5//5 4//4
f 3//3 6//6 5//5
f 5//5 6//6 7//7
f 8//8 7//7 6//6
f 9//9 8//8 6//6
f 10//10 9//9 6//6
f 9//9 10//10 11//11
f 11//11 10//10 12//12
f 13//13 11//11 12//12
f 13//13 12//12 14//14
f 13//13 14//14 15//15
f 15//15 14//14 16//16
f 15//15 16//16 17//17
f 18//18 17//17 16//16
f 19//19 17//17 18//18
f 19//19 18//18 20//20
f 21//21 19//19 20//20
f 22//22 19//19 21//21
f 22//22 21//21 23//23
f 24//24 22//22 23//23
f 24//24 23//23 25//25
f 26//26 24//24 25//25
f 26//26 25//25 27//27
f 28//28 26//26 27//27
f 28//28 27//27 29//29
f 29//29 27//27 30//30
f 31//31 29//29 30//30
f 31//31 30//30 32//32
f 33//33 31//31 32//32
f 33//33 32//32 34//34
f 35//35 33//33 34//34
f 35//35 34//34 36//36
f 37//37 35//35 36//36
f 37//37 36//36 38//38
f 39//39 37//37 38//38
f 39//39 38//38 40//40
f 41//41 39//39 40//40
f 41//41 40//40 42//42
f 41//41 42//42 43//43
f 43//43 42//42 44//44
f 45//45 43//43 44//44
f 45//45 44//44 46//46
f 47//47 45//45 46//46
f 48//48 45//45 47//47
f 48//48 47//47 49//49
f 50//50 48//48 49//49
f 50//50 49//49 51//51
f 52//52 50//50 51//51
f 52//52 51//51 53//53
f 54//54 52//52 53//53
f 55//55 54//54 53//53
f 55//55 53//53 56//56
f 55//55 56//56 57//57
f 57//57 56//56 58//58
f 57//57 58//58 59//59
f 59//59 58//58 60//60
f 59//59 60//60 61//61
f 61//61 60//60 62//62
f 61//61 62//62 63//63
f 63//63 62//62 64//64
f 63//63 64//64 65//65
f 65//65 64//64 66//66
f 65//65 66//66 67//67
f 68//68 67//67 66//66
f 69//69 67//67 68//68
f 69//69 68//68 70//70
f 71//71 69//69 70//70
f 72//72 71//71 73//73
f 74//74 75//75 76//76
f 77//77 74//74 76//76
f 75//75 77//77 76//76
f 78//78 75//75 74//74
f 79//79 75//75 78//78
f 78//78 74//74 80//80
f 81//81 78//78 80//80
f 82//82 78//78 81//81
f 82//82 83//83 78//78
f 83//83 84//84 79//79
f 84//84 85//85 79//79
f 80//80 74//74 86//86
f 87//87 80//80 86//86
f 81//81 80//80 87//87
f 86//86 74//74 88//88
f 88//88 74//74 77//77
f 86//86 88//88 89//89
f 90//90 86//86 89//89
f 87//87 86//86 90//90
f 75//75 91//91 77//77
f 90//90 89//89 92//92
f 90//90 92//92 93//93
f 94//94 90//90 93//93
f 95//95 83//83 82//82
f 95//95 82//82 81//81
f 95//95 81//81 87//87
f 95//95 87//87 90//90
f 95//95 96//96 83//83
f 97//97 91//91 75//75
f 97//97 98//98 91//91
f 97//97 99//99 98//98
f 100//100 95//95 101//101
f 102//102 103//103 104//104
f 102//102 104//104 105//105
f 102//102 105//105 106//106
f 106//106 105//105 107//107
f 108//108 102//102 106//106
f 109//109 102//102 108//108
f 110//110 108//108 106//106
f 111//111 112//112 113//113
f 111//111 113//113 114//114
f 111//111 114//114 115//115
f 111//111 115//115 116//116
f 111//111 116//116 117//117
f 117//117 118//118 111//111
f 118//118 119//119 111//111
f 120//120 111//111 119//119
f 120//120 121//121 111//111
f 121//121 122//122 111//111
f 111//111 122//122 123//123
f 114//114 113//113 124//124
f 124//124 113//113 125//125
f 125//125 113//113 126//126
f 126//126 113//113 127//127
f 127//127 113//113 128//128
f 128//128 113//113 129//129
f 129//129 113//113 130//130
f 130//130 113//113 131//131
f 131//131 113//113 132//132
f 132//132 113//113 133//133
f 133//133 113//113 134//134
f 133//133 134//134 135//135
f 135//135 134//134 136//136
f 134//134 137//137 136//136
f 137//137 134//134 138//138
f 138//138 134//134 139//139
f 139//139 134//134 140//140
f 140//140 134//134 141//141
f 134//134 142//142 141//141
f 134//134 143//143 142//142
f 134//134 144//144 143//143
f 144//144 134//134 145//145
f 145//145 134//134 146//146
f 147//147 134//134 148//148
f 149//149 150//150 151//151
f 149//149 152//152 150//150
f 151//151 150//150 153//153
f 151//151 153//153 154//154
f 154//154 153//153 155//155
f 154//154 155//155 156//156
f 152//152 157//157 150//150
f 158//158 159//159 160//160
f 161//161 159//159 158//158
f 162//162 159//159 161//161
f 163//163 162//162 161//161
f 164//164 162//162 163//163
f 165//165 162//162 164//164
f 9//9 166//166 8//8
f 166//166 9//9 167//167
f 168//168 169//169 170//170
f 168//168 171//171 169//169
f 172//172 169//169 173//173
f 174//174 169//169 172//172
f 169//169 174//174 175//175
f 176//176 169//169 175//175
f 177//177 169//169 176//176
f 178//178 169//169 177//177
f 178//178 179//179 169//169
f 179//179 180//180 169//169
f 180//180 181//181 169//169
f 182//182 181//181 180//180
f 182//182 183//183 181//181
f 183//183 184//184 181//181
f 184//184 185//185 181//181
f 185//185 186//186 181//181
f 186//186 187//187 181//181
f 187//187 188//188 181//181
f 188//188 189//189 181//181
f 181//181 189//189 190//190
f 181//181 190//190 191//191
f 192//192 181//181 191//191
f 193//193 181//181 192//192
f 194//194 181//181 193//193
f 195//195 181//181 194//194
f 195//195 196//196 181//181
f 196//196 197//197 198//198
f 196//196 198//198 199//199
f 199//199 200//200 196//196
f 196//196 200//200 201//201
f 201//201 202//202 196//196
f 196//196 202//202 203//203
f 196//196 203//203 204//204
f 205//205 196//196 206//206
f 207//207 196//196 205//205
