v -57.78721 -0.5533562 133.3191
v -49.70597 18.74894 133.3191
v -57.78721 -0.5533562 133.3191
v -57.78721 -0.5533562 133.3191
v -54.59843 -1.888397 134.216
v -53.32291 -2.422413 134.5748
v -53.32291 -2.422413 134.5748
v -45.24167 16.87988 134.5748
v -37.16042 36.18218 134.5748
v -53.18583 -2.479807 134.3779
v -35.92663 35.66563 132.8027
v -53.16879 -2.486938 134.3534
v -35.77332 35.60145 132.5825
v -53.16401 -2.488941 134.3465
v -35.73027 35.58342 132.5206
v -53.11026 -2.511446 134.2693
v -35.2465 35.38089 131.8258
v -52.44754 -2.788904 133.3175
v -35.17287 35.35006 131.72
v -51.8192 -3.05197 132.415
v -51.74691 -3.082233 132.3111
v -35.09502 35.31747 131.6082
v -51.59615 -3.145353 132.0946
v -35.07827 35.31046 131.5842
v -51.19634 -3.31274 131.5203
v -35.03384 35.29185 131.5204
v -51.01038 -3.390594 131.4922
v -34.0099 34.86316 131.3652
v -33.36026 34.59118 131.2668
v -50.96424 -3.409912 131.4852
v -32.94501 34.41733 131.2039
v -50.95052 -3.415661 131.4831
v -32.82144 34.36559 131.1852
v -50.84674 -3.459106 131.4674
v -31.88746 33.97456 131.0437
v -49.65617 -3.957561 131.287
v -31.75517 33.91918 131.0236
v -48.67256 -4.369366 131.138
v -31.64589 33.87342 131.0071
v -47.70036 -4.776396 130.9907
v -31.53786 33.8282 130.9907
v -47.61341 -4.812798 131.0618
v -30.75536 33.50059 131.631
v -47.41861 -4.894356 131.2213
v -29.00212 32.76656 133.0656
v -46.87513 -5.121891 131.666
v -46.65779 -5.212887 131.8438
v -28.91759 32.73117 133.1348
v -45.91668 -5.523165 132.4502
v -28.83524 32.6967 133.2022
v -45.30645 -5.778646 132.9495
v -28.76744 32.66831 133.2576
v -44.88287 -5.955988 133.2961
v -28.72038 32.64861 133.2961
v -28.72037 32.64861 133.2961
v -44.85383 -5.968145 133.5214
v -28.45905 32.5392 135.3234
v -44.84528 -5.971724 133.5877
v -28.38214 32.507 135.9201
v -44.84441 -5.972088 133.5945
v -28.37428 32.50371 135.981
v -44.84401 -5.972258 133.5976
v -28.37064 32.50218 136.0093
v -44.84349 -5.972473 133.6016
v -28.36604 32.50026 136.045
v -44.83401 -5.976442 133.6751
v -28.28068 32.46452 136.7072
v -44.39432 -6.160528 137.0862
v -28.23183 32.44407 137.0862
v -44.39432 -6.160528 137.0862
v -28.23183 32.44407 137.0862
v -44.39432 -6.160528 137.0862
v -44.39432 -6.160528 137.0862
v -43.11881 -6.694544 137.4449
v -39.93003 -8.029585 138.3418
v -39.93003 -8.029585 138.3418
v -39.93003 -8.029585 138.3418
v -44.39432 -6.160528 137.0862
v -44.39432 -6.160528 137.0862
v -44.39432 -6.160528 137.0862
v -28.23183 32.44407 137.0862
v -28.23183 32.44407 137.0862
v -28.23183 32.44407 137.0862
v -44.39432 -6.160528 137.0862
v -40.90712 -7.620506 130.7618
v -44.39432 -6.160528 137.0862
v -28.23183 32.44407 137.0862
v -44.39432 -6.160528 137.0862
v -36.31308 13.14177 137.0862
v -28.23183 32.44407 137.0862
v -31.84878 11.27271 138.3418
v -28.23184 32.44405 137.0862
v -28.23183 32.44407 137.0862
v -26.95632 31.91005 137.4449
v -24.74462 30.98409 130.7618
v -28.23183 32.44407 137.0862
v -40.90712 -7.620506 130.7618
v -23.76753 30.57501 138.3418
v -24.74462 30.98409 130.7618
v -28.72037 32.64861 133.2961
v -28.72038 32.64861 133.2961
v -49.70597 18.74894 133.3191
v -57.78721 -0.5533562 133.3191
v -57.78721 -0.5533562 133.3191
v -54.59843 -1.888397 134.216
v -45.24167 16.87988 134.5748
v -53.32291 -2.422413 134.5748
v -39.0096 36.95637 134.0547
v -41.62472 38.05124 133.3191
v -37.16042 36.18218 134.5748
v -57.78721 -0.5533562 133.3191
v -53.53405 -2.334013 127.2102
v -46.54209 -5.261324 126.1509
v -51.19634 -3.31274 131.5203
v -51.59615 -3.145353 132.0946
v -51.74691 -3.082233 132.3111
v -51.8192 -3.05197 132.415
v -52.44754 -2.788904 133.3175
v -53.11026 -2.511446 134.2693
v -53.16401 -2.488941 134.3465
v -53.16879 -2.486938 134.3534
v -53.18583 -2.479807 134.3779
v -53.32291 -2.422413 134.5748
v -51.01038 -3.390594 131.4922
v -50.96424 -3.409912 131.4852
v -50.95052 -3.415661 131.4831
v -50.84674 -3.459106 131.4674
v -49.65617 -3.957561 131.287
v -48.67256 -4.369366 131.138
v -47.70036 -4.776396 130.9907
v -47.61341 -4.812798 131.0618
v -47.41861 -4.894356 131.2213
v -46.87513 -5.121891 131.666
v -40.90712 -7.620506 130.7618
v -46.65779 -5.212887 131.8438
v -45.91668 -5.523165 132.4502
v -45.30645 -5.778646 132.9495
v -44.88287 -5.955988 133.2961
v -44.85383 -5.968145 133.5214
v -44.84528 -5.971724 133.5877
v -44.84441 -5.972088 133.5945
v -44.84401 -5.972258 133.5976
v -44.84349 -5.972473 133.6016
v -44.83401 -5.976442 133.6751
v -44.39432 -6.160528 137.0862
v -44.39432 -6.160528 137.0862
v -44.39432 -6.160528 137.0862
v -39.93003 -8.029585 138.3418
v -57.78721 -0.5533562 133.3191
v -37.37156 36.27058 127.2102
v -53.53405 -2.334013 127.2102
v -49.70597 18.74894 133.3191
v -30.3796 33.34327 126.151
v -46.54209 -5.261324 126.1509
v -24.74462 30.98409 130.7618
v -40.90712 -7.620506 130.7618
v -41.62472 38.05124 133.3191
v -39.93003 -8.029585 138.3418
v -36.31308 13.14177 137.0862
v -44.39432 -6.160528 137.0862
v -31.84878 11.27271 138.3418
v -28.23184 32.44405 137.0862
v -23.76753 30.57501 138.3418
v -26.95632 31.91005 137.4449
v -28.23183 32.44407 137.0862
v -37.16042 36.18218 134.5748
v -37.37156 36.27058 127.2102
v -39.0096 36.95637 134.0547
v -37.37156 36.27058 127.2102
v -41.62472 38.05124 133.3191
v -37.16042 36.18218 134.5748
v -35.92663 35.66563 132.8027
v -37.16042 36.18218 134.5748
v -35.77332 35.60145 132.5825
v -35.73027 35.58342 132.5206
v -35.2465 35.38089 131.8258
v -35.17287 35.35006 131.72
v -35.09502 35.31747 131.6082
v -35.07827 35.31046 131.5842
v -35.03384 35.29185 131.5204
v -30.3796 33.34327 126.151
v -34.0099 34.86316 131.3652
v -33.36026 34.59118 131.2668
v -32.94501 34.41733 131.2039
v -32.82144 34.36559 131.1852
v -31.88746 33.97456 131.0437
v -31.75517 33.91918 131.0236
v -31.64589 33.87342 131.0071
v -31.53786 33.8282 130.9907
v -30.75536 33.50059 131.631
v -29.00212 32.76656 133.0656
v -28.91759 32.73117 133.1348
v -28.83524 32.6967 133.2022
v -28.76744 32.66831 133.2576
v -28.72038 32.64861 133.2961
v -24.74462 30.98409 130.7618
v -28.72037 32.64861 133.2961
v -28.45905 32.5392 135.3234
v -28.38214 32.507 135.9201
v -28.37428 32.50371 135.981
v -28.37064 32.50218 136.0093
v -28.36604 32.50026 136.045
v -28.28068 32.46452 136.7072
v -28.23183 32.44407 137.0862
v -26.95632 31.91005 137.4449
v -28.23183 32.44407 137.0862
v -23.76753 30.57501 138.3418

vn -0.8928586 0.3738106 -0.2511357
vn -0.8928586 0.3738107 -0.2511357
vn -0.9292362 -0.3164846 -0.1906766
vn -0.3861876 -0.9224203 -3.129244E-07
vn -0.3861876 -0.9224203 -3.129244E-07
vn 0.7362412 -0.3082406 0.6024422
vn 0.8292698 -0.5005037 0.2486116
vn -0.01282066 0.005367452 0.9999033
vn 0.7362439 -0.3082414 0.6024384
vn 0.7362444 -0.3082416 0.6024379
vn 0.7362442 -0.3082415 0.6024381
vn 0.7362437 -0.3082412 0.6024389
vn 0.7362431 -0.3082409 0.6024397
vn 0.7362461 -0.3082428 0.6024351
vn 0.7362447 -0.3082419 0.6024373
vn 0.7362443 -0.3082417 0.6024377
vn 0.7362445 -0.3082418 0.6024377
vn 0.7362445 -0.3082418 0.6024376
vn 0.7362443 -0.3082417 0.6024378
vn 0.7362446 -0.3082418 0.6024376
vn 0.7362439 -0.3082415 0.6024384
vn 0.736243 -0.3082411 0.6024397
vn 0.7362441 -0.3082417 0.6024379
vn 0.7362447 -0.3082419 0.6024373
vn 0.6440035 -0.2696235 0.7159349
vn 0.1649197 -0.06904665 0.9838872
vn 0.127661 -0.05344759 0.9903767
vn 0.1276617 -0.05344793 0.9903765
vn 0.127662 -0.05344808 0.9903765
vn 0.1276639 -0.05344902 0.9903764
vn 0.127665 -0.05344959 0.9903761
vn 0.1276664 -0.05345044 0.9903758
vn 0.127664 -0.05344911 0.9903762
vn 0.127663 -0.05344849 0.9903763
vn 0.1276625 -0.05344822 0.9903765
vn 0.1276624 -0.05344813 0.9903765
vn 0.1276634 -0.05344865 0.9903762
vn 0.1276628 -0.05344839 0.9903765
vn 0.1276617 -0.05344789 0.9903766
vn 0.06725742 -0.02815855 0.9973382
vn -0.5059148 0.21181 0.836174
vn -0.5557002 0.2326535 0.7981664
vn -0.555701 0.2326539 0.7981658
vn -0.5557015 0.2326542 0.7981654
vn -0.5557015 0.2326541 0.7981653
vn -0.5557011 0.232654 0.7981656
vn -0.5557008 0.2326537 0.7981659
vn -0.5557011 0.2326539 0.7981657
vn -0.5557009 0.2326538 0.798166
vn -0.5557011 0.2326538 0.7981657
vn -0.5557011 0.2326539 0.7981657
vn -0.5557008 0.2326537 0.7981659
vn -0.6898923 0.2888353 0.6637943
vn -0.5556836 0.2326465 0.79818
vn -0.9135433 0.3824709 0.1384005
vn -0.9135433 0.3824709 0.1383993
vn -0.9135435 0.3824711 0.1383988
vn -0.9135435 0.3824712 0.1383976
vn -0.9135434 0.3824709 0.1383997
vn -0.9135434 0.3824706 0.1384013
vn -0.913543 0.3824701 0.138404
vn -0.9135394 0.3824625 0.1384488
vn -0.9135417 0.3824674 0.1384207
vn -0.9135441 0.382472 0.1383924
vn -0.9135437 0.3824714 0.1383965
vn -0.9135434 0.3824709 0.1383994
vn -0.9135433 0.3824709 0.1384
vn -0.9135433 0.3824709 0.1384003
vn -0.9135427 0.3824707 0.1384052
vn -0.8792487 0.3681128 0.3023486
vn -0.8928585 0.3738109 -0.2511357
vn -0.8928585 0.3738109 -0.2511357
vn -0.8928585 0.3738109 -0.2511357
vn -0.3861876 -0.9224203 -3.129244E-07
vn 0.9135435 -0.3824708 -0.1383996
vn -0.3861876 -0.9224203 -3.129244E-07
vn -0.1136519 0.04758222 0.9923806
vn -0.8735334 -0.4586246 -0.1631038
vn -0.822066 -0.5515357 -0.1414771
vn -0.9180403 0.3073292 -0.250501
vn -0.8928585 0.3738109 -0.2511357
vn -0.8928585 0.3738109 -0.2511357
vn -0.8928585 0.3738109 -0.2511357
vn -0.9278878 0.2768109 -0.2497999
vn -0.3861876 -0.9224203 -3.129244E-07
vn -0.8976786 0.3621007 -0.25111
vn -0.8928585 0.3738109 -0.2511357
vn -0.9384999 0.239604 -0.2486117
vn -0.892857 0.3738103 -0.2511421
vn -0.8680588 0.4285197 -0.2506886
vn 0.9135433 -0.3824708 -0.1383996
vn -0.892853 0.3738086 -0.2511586
vn 0.3861814 0.9224229 -1.430649E-06
vn 0.3861876 0.9224203 3.129244E-07
vn 0.3861877 0.9224202 -1.048277E-07
vn 0 0 0
vn 0.9135435 -0.3824709 -0.1383997
vn 0.9135434 -0.3824709 -0.1383997
vn 0.9135435 -0.3824709 -0.1383997
vn 0.3861877 0.9224202 -1.048277E-07
vn 0.3861877 0.9224202 -1.048277E-07
vn -0.2316527 0.09698532 0.9679519
vn -0.2316527 0.09698531 0.9679518
vn -0.2316527 0.09698532 0.9679519
vn -0.2316527 0.09698532 0.9679519
vn -0.2316527 0.09698532 0.9679519
vn -0.2316527 0.09698532 0.9679519
vn -0.2316527 0.09698532 0.9679519
vn -0.2316527 0.09698532 0.9679519
vn -0.2316527 0.09698532 0.9679519
vn -0.3861876 -0.9224203 -3.129244E-07
vn -0.3861876 -0.9224203 -3.129244E-07
vn -0.3861876 -0.9224203 -3.129244E-07
vn -0.3861876 -0.9224203 -3.129244E-07
vn -0.3861876 -0.9224203 -3.129244E-07
vn -0.3861876 -0.9224203 -3.129244E-07
vn -0.3861876 -0.9224203 -3.129244E-07
vn -0.3861876 -0.9224203 -3.129244E-07
vn -0.3861876 -0.9224203 -3.129244E-07
vn -0.3861876 -0.9224203 -3.129244E-07
vn -0.3861876 -0.9224203 -3.129244E-07
vn -0.3861876 -0.9224203 -3.129244E-07
vn -0.3861876 -0.9224203 -3.129244E-07
vn -0.3861876 -0.9224202 -3.129244E-07
vn -0.3861876 -0.9224203 -3.129244E-07
vn -0.3861876 -0.9224203 -3.129244E-07
vn -0.3861876 -0.9224202 -3.129244E-07
vn -0.3861876 -0.9224203 -3.129244E-07
vn -0.3861876 -0.9224203 -3.129244E-07
vn -0.3861876 -0.9224203 -3.129244E-07
vn -0.3861876 -0.9224202 -3.129244E-07
vn -0.3861876 -0.9224203 -3.129244E-07
vn -0.3861876 -0.9224203 -3.129244E-07
vn -0.3861876 -0.9224203 -3.129244E-07
vn -0.3861876 -0.9224203 -3.129244E-07
vn -0.3861876 -0.9224203 -3.129244E-07
vn -0.3861876 -0.9224203 -3.129244E-07
vn -0.3861876 -0.9224203 -3.129244E-07
vn -0.3861876 -0.9224203 -3.129244E-07
vn -0.3861876 -0.9224203 -3.129244E-07
vn -0.3861876 -0.9224203 -3.129244E-07
vn -0.3861876 -0.9224202 -3.129244E-07
vn -0.3861876 -0.9224203 -3.129244E-07
vn -0.3861876 -0.9224202 -3.129244E-07
vn -0.3861876 -0.9224202 -3.129244E-07
vn -0.3861876 -0.9224203 -3.129244E-07
vn -0.3861876 -0.9224202 -3.129244E-07
vn -0.3861876 -0.9224202 -3.129244E-07
vn -0.7362443 0.3082415 -0.6024382
vn -0.5719048 0.239438 -0.7845982
vn -0.3543937 0.1483732 -0.9232499
vn -0.7362441 0.3082415 -0.6024381
vn 0.1073563 -0.04494643 -0.9932042
vn 0.3515952 -0.1472013 -0.9245067
vn 0.5557012 -0.2326539 -0.7981656
vn 0.5557012 -0.2326539 -0.7981656
vn -0.7362442 0.3082416 -0.602438
vn -0.2316527 0.09698532 0.9679519
vn -0.2316527 0.09698532 0.9679519
vn -0.2316527 0.09698532 0.9679519
vn -0.2316527 0.09698532 0.9679519
vn -0.2316527 0.09698532 0.9679519
vn -0.2316527 0.09698532 0.9679519
vn -0.2316527 0.09698533 0.9679519
vn -0.2316527 0.09698532 0.9679518
vn 0.9526244 -0.1789733 0.245917
vn 0.3861869 0.9224206 1.27898E-07
vn 0.3861876 0.9224202 1.040484E-07
vn 0.3861875 0.9224203 5.871821E-08
vn 0.3861876 0.9224203 1.040484E-07
vn 0.3861876 0.9224203 1.040484E-07
vn 0.3861873 0.9224204 1.139271E-07
vn 0.3861873 0.9224204 1.139272E-07
vn 0.3861873 0.9224204 1.13927E-07
vn 0.3861873 0.9224204 1.139273E-07
vn 0.3861873 0.9224204 1.139273E-07
vn 0.3861873 0.9224203 1.13927E-07
vn 0.3861873 0.9224204 1.13926E-07
vn 0.3861873 0.9224203 1.139286E-07
vn 0.3861875 0.9224203 -1.305951E-08
vn 0.3861876 0.9224203 1.7529E-08
vn 0.3861875 0.9224203 -1.421611E-08
vn 0.3861875 0.9224203 -1.421638E-08
vn 0.3861875 0.9224203 -1.421684E-08
vn 0.3861875 0.9224203 -1.421659E-08
vn 0.3861875 0.9224203 -1.421658E-08
vn 0.3861875 0.9224203 -1.421654E-08
vn 0.3861875 0.9224203 -1.421639E-08
vn 0.3861877 0.9224202 4.291799E-08
vn 0.3861878 0.9224202 4.927447E-08
vn 0.3861878 0.9224202 4.927452E-08
vn 0.3861878 0.9224202 4.927469E-08
vn 0.3861878 0.9224202 4.927425E-08
vn 0.3861878 0.9224202 4.927452E-08
vn 0.3861878 0.9224202 4.927456E-08
vn 0.3861877 0.9224202 1.147708E-07
vn 0.3861879 0.9224201 2.672083E-07
vn 0.3861879 0.9224201 2.672084E-07
vn 0.3861879 0.9224201 2.672086E-07
vn 0.3861879 0.9224201 2.672042E-07
vn 0.3861879 0.9224201 2.67209E-07
vn 0.3861879 0.9224201 2.672087E-07
vn 0.3861879 0.9224201 2.672079E-07
vn 0.3861879 0.9224201 2.672072E-07
vn 0.3861876 0.9224203 1.040484E-07
vn 0.3861876 0.9224203 1.040484E-07
vn 0.3861876 0.9224202 1.040484E-07

f 1//1 2//2 3//3
f 4//4 1//1 3//3
f 3//3 5//5 4//4
f 3//3 6//6 5//5
f 5//5 6//6 7//7
f 8//8 7//7 6//6
f 9//9 8//8 6//6
f 10//10 9//9 6//6
f 9//9 10//10 11//11
f 11//11 10//10 12//12
f 13//13 11//11 12//12
f 13//13 12//12 14//14
f 13//13 14//14 15//15
f 15//15 14//14 16//16
f 15//15 16//16 17//17
f 18//18 17//17 16//16
f 19//19 17//17 18//18
f 19//19 18//18 20//20
f 21//21 19//19 20//20
f 22//22 19//19 21//21
f 22//22 21//21 23//23
f 24//24 22//22 23//23
f 24//24 23//23 25//25
f 26//26 24//24 25//25
f 26//26 25//25 27//27
f 28//28 26//26 27//27
f 28//28 27//27 29//29
f 29//29 27//27 30//30
f 31//31 29//29 30//30
f 31//31 30//30 32//32
f 33//33 31//31 32//32
f 33//33 32//32 34//34
f 35//35 33//33 34//34
f 35//35 34//34 36//36
f 37//37 35//35 36//36
f 37//37 36//36 38//38
f 39//39 37//37 38//38
f 39//39 38//38 40//40
f 41//41 39//39 40//40
f 41//41 40//40 42//42
f 41//41 42//42 43//43
f 43//43 42//42 44//44
f 45//45 43//43 44//44
f 45//45 44//44 46//46
f 47//47 45//45 46//46
f 48//48 45//45 47//47
f 48//48 47//47 49//49
f 50//50 48//48 49//49
f 50//50 49//49 51//51
f 52//52 50//50 51//51
f 52//52 51//51 53//53
f 54//54 52//52 53//53
f 55//55 54//54 53//53
f 55//55 53//53 56//56
f 55//55 56//56 57//57
f 57//57 56//56 58//58
f 57//57 58//58 59//59
f 59//59 58//58 60//60
f 59//59 60//60 61//61
f 61//61 60//60 62//62
f 61//61 62//62 63//63
f 63//63 62//62 64//64
f 63//63 64//64 65//65
f 65//65 64//64 66//66
f 65//65 66//66 67//67
f 68//68 67//67 66//66
f 69//69 67//67 68//68
f 69//69 68//68 70//70
f 71//71 69//69 70//70
f 72//72 71//71 73//73
f 74//74 75//75 76//76
f 77//77 74//74 76//76
f 75//75 77//77 76//76
f 78//78 75//75 74//74
f 79//79 75//75 78//78
f 78//78 74//74 80//80
f 81//81 78//78 80//80
f 82//82 78//78 81//81
f 82//82 83//83 78//78
f 83//83 84//84 79//79
f 84//84 85//85 79//79
f 80//80 74//74 86//86
f 87//87 80//80 86//86
f 81//81 80//80 87//87
f 86//86 74//74 88//88
f 88//88 74//74 77//77
f 86//86 88//88 89//89
f 90//90 86//86 89//89
f 87//87 86//86 90//90
f 75//75 91//91 77//77
f 90//90 89//89 92//92
f 90//90 92//92 93//93
f 94//94 90//90 93//93
f 95//95 83//83 82//82
f 95//95 82//82 81//81
f 95//95 81//81 87//87
f 95//95 87//87 90//90
f 95//95 96//96 83//83
f 97//97 91//91 75//75
f 97//97 98//98 91//91
f 97//97 99//99 98//98
f 100//100 95//95 101//101
f 102//102 103//103 104//104
f 102//102 104//104 105//105
f 102//102 105//105 106//106
f 106//106 105//105 107//107
f 108//108 102//102 106//106
f 109//109 102//102 108//108
f 110//110 108//108 106//106
f 111//111 112//112 113//113
f 111//111 113//113 114//114
f 111//111 114//114 115//115
f 111//111 115//115 116//116
f 111//111 116//116 117//117
f 117//117 118//118 111//111
f 118//118 119//119 111//111
f 120//120 111//111 119//119
f 120//120 121//121 111//111
f 121//121 122//122 111//111
f 111//111 122//122 123//123
f 114//114 113//113 124//124
f 124//124 113//113 125//125
f 125//125 113//113 126//126
f 126//126 113//113 127//127
f 127//127 113//113 128//128
f 128//128 113//113 129//129
f 129//129 113//113 130//130
f 130//130 113//113 131//131
f 131//131 113//113 132//132
f 132//132 113//113 133//133
f 133//133 113//113 134//134
f 133//133 134//134 135//135
f 135//135 134//134 136//136
f 134//134 137//137 136//136
f 137//137 134//134 138//138
f 138//138 134//134 139//139
f 139//139 134//134 140//140
f 140//140 134//134 141//141
f 134//134 142//142 141//141
f 134//134 143//143 142//142
f 134//134 144//144 143//143
f 144//144 134//134 145//145
f 145//145 134//134 146//146
f 147//147 134//134 148//148
f 149//149 150//150 151//151
f 149//149 152//152 150//150
f 151//151 150//150 153//153
f 151//151 153//153 154//154
f 154//154 153//153 155//155
f 154//154 155//155 156//156
f 152//152 157//157 150//150
f 158//158 159//159 160//160
f 161//161 159//159 158//158
f 162//162 159//159 161//161
f 163//163 162//162 161//161
f 164//164 162//162 163//163
f 165//165 162//162 164//164
f 9//9 166//166 8//8
f 166//166 9//9 167//167
f 168//168 169//169 170//170
f 168//168 171//171 169//169
f 172//172 169//169 173//173
f 174//174 169//169 172//172
f 169//169 174//174 175//175
f 176//176 169//169 175//175
f 177//177 169//169 176//176
f 178//178 169//169 177//177
f 178//178 179//179 169//169
f 179//179 180//180 169//169
f 180//180 181//181 169//169
f 182//182 181//181 180//180
f 182//182 183//183 181//181
f 183//183 184//184 181//181
f 184//184 185//185 181//181
f 185//185 186//186 181//181
f 186//186 187//187 181//181
f 187//187 188//188 181//181
f 188//188 189//189 181//181
f 181//181 189//189 190//190
f 181//181 190//190 191//191
f 192//192 181//181 191//191
f 193//193 181//181 192//192
f 194//194 181//181 193//193
f 195//195 181//181 194//194
f 195//195 196//196 181//181
f 196//196 197//197 198//198
f 196//196 198//198 199//199
f 199//199 200//200 196//196
f 196//196 200//200 201//201
f 201//201 202//202 196//196
f 196//196 202//202 203//203
f 196//196 203//203 204//204
f 205//205 196//196 206//206
f 207//207 196//196 205//205
