v -55.73789 -133.0762 27.16468
v -61.45041 -123.6743 44.96513
v -55.73789 -133.0762 27.16468
v -55.73788 -133.0762 27.16468
v -52.49194 -133.6811 28.5259
v -51.19355 -133.9231 29.07039
v -51.19355 -133.9231 29.07039
v -56.90607 -124.5212 46.87084
v -62.61859 -115.1193 64.6713
v -51.03588 -133.7392 29.02384
v -61.19954 -113.464 64.25236
v -51.01629 -133.7163 29.01805
v -61.0232 -113.2582 64.2003
v -51.01079 -133.7099 29.01643
v -60.97369 -113.2005 64.18568
v -50.94897 -133.6378 28.99818
v -60.41729 -112.5514 64.02142
v -50.18674 -132.7486 28.77315
v -60.3326 -112.4526 63.99642
v -49.46405 -131.9056 28.5598
v -49.38091 -131.8086 28.53525
v -60.24306 -112.3482 63.96999
v -49.20751 -131.6063 28.48406
v -60.22379 -112.3257 63.9643
v -48.74766 -131.0699 28.3483
v -60.1727 -112.2661 63.94921
v -48.55218 -131.0334 28.39177
v -59.09628 -112.0653 64.18858
v -58.41335 -111.9378 64.34044
v -48.50367 -131.0244 28.40256
v -57.97683 -111.8564 64.43751
v -48.48924 -131.0217 28.40577
v -57.84692 -111.8322 64.4664
v -48.38015 -131.0013 28.43003
v -56.86508 -111.649 64.68473
v -47.12856 -130.7678 28.70834
v -56.72601 -111.623 64.71565
v -46.09456 -130.5749 28.93828
v -56.61113 -111.6016 64.7412
v -45.07253 -130.3842 29.16554
v -56.49757 -111.5804 64.76646
v -44.98762 -130.4423 29.22349
v -55.73339 -112.1035 65.28799
v -44.79738 -130.5725 29.35333
v -54.02119 -113.2755 66.45651
v -44.26663 -130.9359 29.71555
v -44.05437 -131.0811 29.86041
v -53.93864 -113.332 66.51286
v -43.33061 -131.5766 30.35435
v -53.85822 -113.3871 66.56773
v -42.73467 -131.9845 30.76107
v -53.792 -113.4324 66.61293
v -42.321 -132.2677 31.04338
v -53.74604 -113.4639 66.64429
v -53.74604 -113.4639 66.64429
v -42.30816 -132.4667 31.15265
v -53.63044 -115.2554 67.62767
v -42.30438 -132.5253 31.18481
v -53.59642 -115.7828 67.91711
v -42.30399 -132.5313 31.18809
v -53.59295 -115.8366 67.94666
v -42.30381 -132.5341 31.18961
v -53.59133 -115.8616 67.96036
v -42.30359 -132.5376 31.19154
v -53.5893 -115.8931 67.97768
v -42.29939 -132.6026 31.22723
v -53.55154 -116.4783 68.29887
v -42.10489 -135.617 32.88181
v -53.52993 -116.8132 68.48272
v -42.10489 -135.617 32.88181
v -53.52993 -116.8132 68.48272
v -42.10489 -135.617 32.88181
v -42.10489 -135.617 32.88181
v -40.80651 -135.859 33.4263
v -37.56056 -136.464 34.78752
v -37.56056 -136.464 34.78752
v -37.56056 -136.464 34.78752
v -42.10489 -135.617 32.88181
v -42.10489 -135.617 32.88181
v -42.10489 -135.617 32.88181
v -53.52993 -116.8132 68.48272
v -53.52993 -116.8132 68.48272
v -53.52993 -116.8132 68.48272
v -42.10489 -135.617 32.88181
v -37.99278 -129.7653 31.11067
v -42.10489 -135.617 32.88181
v -53.52993 -116.8132 68.48272
v -42.10489 -135.617 32.88181
v -47.81741 -126.2151 50.68227
v -53.52993 -116.8132 68.48272
v -43.27308 -127.0621 52.58798
v -53.52992 -116.8132 68.4827
v -53.52993 -116.8132 68.48272
v -52.23155 -117.0552 69.02721
v -49.41782 -110.9615 66.71158
v -53.52993 -116.8132 68.48272
v -37.99278 -129.7653 31.11067
v -48.9856 -117.6602 70.38843
v -49.41782 -110.9615 66.71158
v -53.74604 -113.4639 66.64429
v -53.74604 -113.4639 66.64429
v -61.45041 -123.6743 44.96513
v -55.73789 -133.0762 27.16468
v -55.73788 -133.0762 27.16468
v -52.49194 -133.6811 28.5259
v -56.90607 -124.5212 46.87084
v -51.19355 -133.9231 29.07039
v -64.50092 -114.7685 63.88193
v -67.16293 -114.2724 62.76559
v -62.61859 -115.1193 64.6713
v -55.73789 -133.0762 27.16468
v -50.8461 -127.3697 25.72051
v -43.49583 -125.9983 27.35499
v -48.74766 -131.0699 28.3483
v -49.20751 -131.6063 28.48406
v -49.38091 -131.8086 28.53525
v -49.46405 -131.9056 28.5598
v -50.18674 -132.7486 28.77315
v -50.94897 -133.6378 28.99818
v -51.01079 -133.7099 29.01643
v -51.01629 -133.7163 29.01805
v -51.03588 -133.7392 29.02384
v -51.19355 -133.9231 29.07039
v -48.55218 -131.0334 28.39177
v -48.50367 -131.0244 28.40256
v -48.48924 -131.0217 28.40577
v -48.38015 -131.0013 28.43003
v -47.12856 -130.7678 28.70834
v -46.09456 -130.5749 28.93828
v -45.07253 -130.3842 29.16554
v -44.98762 -130.4423 29.22349
v -44.79738 -130.5725 29.35333
v -44.26663 -130.9359 29.71555
v -37.99278 -129.7653 31.11067
v -44.05437 -131.0811 29.86041
v -43.33061 -131.5766 30.35435
v -42.73467 -131.9845 30.76107
v -42.321 -132.2677 31.04338
v -42.30816 -132.4667 31.15265
v -42.30438 -132.5253 31.18481
v -42.30399 -132.5313 31.18809
v -42.30381 -132.5341 31.18961
v -42.30359 -132.5376 31.19154
v -42.29939 -132.6026 31.22723
v -42.10489 -135.617 32.88181
v -42.10489 -135.617 32.88181
v -42.10489 -135.617 32.88181
v -37.56056 -136.464 34.78752
v -55.73789 -133.0762 27.16468
v -62.27113 -108.5659 61.32141
v -50.8461 -127.3697 25.72051
v -61.45041 -123.6743 44.96513
v -54.92087 -107.1945 62.9559
v -43.49583 -125.9983 27.35499
v -49.41782 -110.9615 66.71158
v -37.99278 -129.7653 31.11067
v -67.16293 -114.2724 62.76559
v -37.56056 -136.464 34.78752
v -47.81741 -126.2151 50.68227
v -42.10489 -135.617 32.88181
v -43.27308 -127.0621 52.58798
v -53.52992 -116.8132 68.4827
v -48.9856 -117.6602 70.38843
v -52.23155 -117.0552 69.02721
v -53.52993 -116.8132 68.48272
v -62.61859 -115.1193 64.6713
v -62.27113 -108.5659 61.32141
v -64.50092 -114.7685 63.88193
v -62.27113 -108.5659 61.32141
v -67.16293 -114.2724 62.76559
v -62.61859 -115.1193 64.6713
v -61.19954 -113.464 64.25236
v -62.61859 -115.1193 64.6713
v -61.0232 -113.2582 64.2003
v -60.97369 -113.2005 64.18568
v -60.41729 -112.5514 64.02142
v -60.3326 -112.4526 63.99642
v -60.24306 -112.3482 63.96999
v -60.22379 -112.3257 63.9643
v -60.1727 -112.2661 63.94921
v -54.92087 -107.1945 62.9559
v -59.09628 -112.0653 64.18858
v -58.41335 -111.9378 64.34044
v -57.97683 -111.8564 64.43751
v -57.84692 -111.8322 64.4664
v -56.86508 -111.649 64.68473
v -56.72601 -111.623 64.71565
v -56.61113 -111.6016 64.7412
v -56.49757 -111.5804 64.76646
v -55.73339 -112.1035 65.28799
v -54.02119 -113.2755 66.45651
v -53.93864 -113.332 66.51286
v -53.85822 -113.3871 66.56773
v -53.792 -113.4324 66.61293
v -53.74604 -113.4639 66.64429
v -49.41782 -110.9615 66.71158
v -53.74604 -113.4639 66.64429
v -53.63044 -115.2554 67.62767
v -53.59642 -115.7828 67.91711
v -53.59295 -115.8366 67.94666
v -53.59133 -115.8616 67.96036
v -53.5893 -115.8931 67.97768
v -53.55154 -116.4783 68.29887
v -53.52993 -116.8132 68.48272
v -52.23155 -117.0552 69.02721
v -53.52993 -116.8132 68.48272
v -48.9856 -117.6602 70.38843

vn -0.908866 0.16939 -0.3811425
vn -0.908866 0.16939 -0.3811423
vn -0.5124028 -0.1637893 -0.8429807
vn 0.2729905 -0.4492991 -0.8506506
vn 0.2729905 -0.4492991 -0.8506506
vn 0.7190048 -0.4921804 0.4907041
vn 0.9383383 -0.2312281 0.2570116
vn -0.09030457 -0.8923005 0.4423175
vn 0.7190077 -0.4921768 0.4907034
vn 0.7190083 -0.4921762 0.4907033
vn 0.719008 -0.4921764 0.4907034
vn 0.7190074 -0.4921772 0.4907036
vn 0.7190067 -0.4921779 0.4907039
vn 0.7190105 -0.4921739 0.4907023
vn 0.7190087 -0.4921758 0.490703
vn 0.7190083 -0.4921762 0.4907032
vn 0.7190085 -0.4921761 0.4907032
vn 0.7190085 -0.492176 0.4907031
vn 0.7190083 -0.4921762 0.4907032
vn 0.7190085 -0.492176 0.4907032
vn 0.7190078 -0.4921768 0.4907034
vn 0.7190067 -0.492178 0.4907037
vn 0.7190081 -0.4921764 0.4907032
vn 0.7190087 -0.4921758 0.4907031
vn 0.6143789 -0.5990035 0.5135499
vn 0.09570403 -0.8671665 0.488736
vn 0.05647095 -0.8752278 0.4804033
vn 0.05647174 -0.8752276 0.4804034
vn 0.05647206 -0.8752276 0.4804035
vn 0.05647411 -0.8752274 0.4804038
vn 0.05647538 -0.8752271 0.480404
vn 0.05647705 -0.8752269 0.4804041
vn 0.05647427 -0.8752273 0.4804038
vn 0.05647308 -0.8752273 0.4804036
vn 0.05647251 -0.8752276 0.4804036
vn 0.05647241 -0.8752275 0.4804036
vn 0.05647353 -0.8752273 0.4804038
vn 0.0564729 -0.8752275 0.4804037
vn 0.05647173 -0.8752276 0.4804035
vn -0.006859441 -0.8851233 0.465306
vn -0.5903118 -0.7764301 0.2206545
vn -0.6391418 -0.7455826 0.1886909
vn -0.6391426 -0.7455821 0.1886904
vn -0.6391432 -0.7455817 0.1886901
vn -0.6391431 -0.7455817 0.18869
vn -0.6391428 -0.7455819 0.1886902
vn -0.6391423 -0.7455823 0.1886904
vn -0.6391428 -0.745582 0.1886902
vn -0.6391425 -0.7455823 0.1886904
vn -0.6391426 -0.745582 0.1886902
vn -0.6391427 -0.7455821 0.1886902
vn -0.6391423 -0.7455822 0.1886904
vn -0.768301 -0.6339706 0.08828942
vn -0.6391256 -0.7455937 0.1887019
vn -0.9603577 -0.179185 -0.2135554
vn -0.9603577 -0.1791838 -0.2135559
vn -0.9603578 -0.1791835 -0.2135562
vn -0.9603578 -0.1791823 -0.2135566
vn -0.9603577 -0.1791842 -0.2135558
vn -0.9603576 -0.1791858 -0.2135553
vn -0.9603572 -0.1791883 -0.2135542
vn -0.9603532 -0.1792304 -0.2135372
vn -0.9603558 -0.179204 -0.2135478
vn -0.9603583 -0.1791775 -0.2135587
vn -0.960358 -0.1791813 -0.213557
vn -0.9603577 -0.1791839 -0.2135559
vn -0.9603576 -0.1791845 -0.2135557
vn -0.9603577 -0.1791847 -0.2135555
vn -0.9603574 -0.1791891 -0.2135531
vn -0.937327 -0.3232675 -0.1300624
vn -0.9088661 0.1693901 -0.3811422
vn -0.9088661 0.1693901 -0.3811422
vn -0.9088661 0.1693901 -0.3811422
vn 0.2729905 -0.4492991 -0.8506506
vn 0.9603577 0.1791842 0.213556
vn 0.2729905 -0.4492991 -0.8506506
vn -0.1945478 -0.8917505 0.4085733
vn -0.3826958 -0.2316308 -0.8943663
vn -0.2864582 -0.275794 -0.9175399
vn -0.8871735 0.1370398 -0.4406168
vn -0.9088661 0.1693901 -0.3811422
vn -0.9088661 0.1693901 -0.3811422
vn -0.9088661 0.1693901 -0.3811422
vn -0.8759131 0.1222101 -0.4667342
vn 0.2729905 -0.4492991 -0.8506506
vn -0.9053382 0.1636819 -0.3918815
vn -0.9088661 0.1693901 -0.3811422
vn -0.8611249 0.1041472 -0.4976116
vn -0.908864 0.1693959 -0.3811446
vn -0.9236153 0.1960667 -0.3293822
vn 0.9603576 0.1791842 0.2135559
vn -0.9088587 0.1694109 -0.3811508
vn -0.2729968 0.4493003 0.850648
vn -0.2729905 0.4492991 0.8506506
vn -0.2729904 0.4492995 0.8506505
vn 0 0 0
vn 0.9603577 0.1791843 0.2135559
vn 0.9603577 0.1791842 0.2135558
vn 0.9603578 0.1791843 0.2135559
vn -0.2729904 0.4492995 0.8506505
vn -0.2729904 0.4492995 0.8506505
vn -0.3153387 -0.8771757 0.3621109
vn -0.3153386 -0.8771756 0.3621109
vn -0.3153387 -0.8771757 0.3621109
vn -0.3153387 -0.8771757 0.3621109
vn -0.3153387 -0.8771757 0.3621109
vn -0.3153387 -0.8771757 0.3621109
vn -0.3153387 -0.8771757 0.3621109
vn -0.3153387 -0.8771757 0.3621109
vn -0.3153387 -0.8771757 0.3621109
vn 0.2729905 -0.4492991 -0.8506506
vn 0.2729905 -0.4492991 -0.8506506
vn 0.2729905 -0.4492991 -0.8506506
vn 0.2729905 -0.4492991 -0.8506506
vn 0.2729905 -0.4492991 -0.8506506
vn 0.2729905 -0.4492991 -0.8506506
vn 0.2729905 -0.4492991 -0.8506506
vn 0.2729905 -0.4492991 -0.8506506
vn 0.2729905 -0.4492991 -0.8506506
vn 0.2729905 -0.4492991 -0.8506506
vn 0.2729905 -0.4492991 -0.8506506
vn 0.2729905 -0.4492991 -0.8506506
vn 0.2729905 -0.4492991 -0.8506506
vn 0.2729905 -0.449299 -0.8506505
vn 0.2729905 -0.4492991 -0.8506506
vn 0.2729905 -0.4492991 -0.8506506
vn 0.2729905 -0.449299 -0.8506505
vn 0.2729905 -0.4492991 -0.8506506
vn 0.2729905 -0.4492991 -0.8506506
vn 0.2729905 -0.4492991 -0.8506506
vn 0.2729905 -0.449299 -0.8506505
vn 0.2729905 -0.4492991 -0.8506506
vn 0.2729905 -0.4492991 -0.8506506
vn 0.2729905 -0.4492991 -0.8506506
vn 0.2729905 -0.4492991 -0.8506506
vn 0.2729905 -0.4492991 -0.8506506
vn 0.2729905 -0.4492991 -0.8506506
vn 0.2729905 -0.4492991 -0.8506506
vn 0.2729905 -0.4492991 -0.8506506
vn 0.2729905 -0.4492991 -0.8506506
vn 0.2729905 -0.4492991 -0.8506506
vn 0.2729905 -0.449299 -0.8506505
vn 0.2729905 -0.4492991 -0.8506506
vn 0.2729905 -0.449299 -0.8506505
vn 0.2729905 -0.449299 -0.8506505
vn 0.2729905 -0.4492991 -0.8506506
vn 0.2729905 -0.449299 -0.8506505
vn 0.2729905 -0.449299 -0.8506505
vn -0.7190081 0.4921765 -0.4907034
vn -0.5341404 0.6646267 -0.5224609
vn -0.2973459 0.8015316 -0.5187797
vn -0.7190079 0.4921764 -0.4907033
vn 0.1880664 0.8921004 -0.4108381
vn 0.4366841 0.8457642 -0.3065777
vn 0.6391428 0.7455819 -0.1886901
vn 0.6391428 0.745582 -0.1886901
vn -0.7190081 0.4921764 -0.4907033
vn -0.3153387 -0.8771757 0.3621109
vn -0.3153387 -0.8771757 0.3621109
vn -0.3153387 -0.8771757 0.3621109
vn -0.3153387 -0.8771757 0.3621109
vn -0.3153387 -0.8771757 0.3621109
vn -0.3153387 -0.8771757 0.3621109
vn -0.3153387 -0.8771757 0.3621109
vn -0.3153387 -0.8771756 0.3621109
vn 0.8346161 -0.07475089 0.5457364
vn -0.2729912 0.4492992 0.8506504
vn -0.2729904 0.4492992 0.8506505
vn -0.2729906 0.4492993 0.8506505
vn -0.2729904 0.4492993 0.8506505
vn -0.2729904 0.4492993 0.8506505
vn -0.2729908 0.4492992 0.8506505
vn -0.2729908 0.4492992 0.8506505
vn -0.2729908 0.4492992 0.8506505
vn -0.2729908 0.4492992 0.8506505
vn -0.2729908 0.4492992 0.8506505
vn -0.2729907 0.4492992 0.8506504
vn -0.2729908 0.4492992 0.8506505
vn -0.2729907 0.4492992 0.8506504
vn -0.2729905 0.4492994 0.8506505
vn -0.2729904 0.4492993 0.8506505
vn -0.2729905 0.4492994 0.8506505
vn -0.2729905 0.4492994 0.8506505
vn -0.2729905 0.4492994 0.8506505
vn -0.2729905 0.4492994 0.8506505
vn -0.2729905 0.4492994 0.8506505
vn -0.2729905 0.4492994 0.8506505
vn -0.2729905 0.4492994 0.8506505
vn -0.2729903 0.4492993 0.8506505
vn -0.2729903 0.4492993 0.8506505
vn -0.2729903 0.4492993 0.8506505
vn -0.2729903 0.4492993 0.8506505
vn -0.2729903 0.4492993 0.8506505
vn -0.2729903 0.4492993 0.8506505
vn -0.2729903 0.4492993 0.8506505
vn -0.2729903 0.4492993 0.8506506
vn -0.2729902 0.4492991 0.8506507
vn -0.2729902 0.4492991 0.8506507
vn -0.2729902 0.4492991 0.8506507
vn -0.2729902 0.4492991 0.8506507
vn -0.2729902 0.4492991 0.8506507
vn -0.2729902 0.4492991 0.8506507
vn -0.2729902 0.4492991 0.8506507
vn -0.2729902 0.4492991 0.8506507
vn -0.2729904 0.4492993 0.8506505
vn -0.2729904 0.4492993 0.8506505
vn -0.2729904 0.4492992 0.8506505

f 1//1 2//2 3//3
f 4//4 1//1 3//3
f 3//3 5//5 4//4
f 3//3 6//6 5//5
f 5//5 6//6 7//7
f 8//8 7//7 6//6
f 9//9 8//8 6//6
f 10//10 9//9 6//6
f 9//9 10//10 11//11
f 11//11 10//10 12//12
f 13//13 11//11 12//12
f 13//13 12//12 14//14
f 13//13 14//14 15//15
f 15//15 14//14 16//16
f 15//15 16//16 17//17
f 18//18 17//17 16//16
f 19//19 17//17 18//18
f 19//19 18//18 20//20
f 21//21 19//19 20//20
f 22//22 19//19 21//21
f 22//22 21//21 23//23
f 24//24 22//22 23//23
f 24//24 23//23 25//25
f 26//26 24//24 25//25
f 26//26 25//25 27//27
f 28//28 26//26 27//27
f 28//28 27//27 29//29
f 29//29 27//27 30//30
f 31//31 29//29 30//30
f 31//31 30//30 32//32
f 33//33 31//31 32//32
f 33//33 32//32 34//34
f 35//35 33//33 34//34
f 35//35 34//34 36//36
f 37//37 35//35 36//36
f 37//37 36//36 38//38
f 39//39 37//37 38//38
f 39//39 38//38 40//40
f 41//41 39//39 40//40
f 41//41 40//40 42//42
f 41//41 42//42 43//43
f 43//43 42//42 44//44
f 45//45 43//43 44//44
f 45//45 44//44 46//46
f 47//47 45//45 46//46
f 48//48 45//45 47//47
f 48//48 47//47 49//49
f 50//50 48//48 49//49
f 50//50 49//49 51//51
f 52//52 50//50 51//51
f 52//52 51//51 53//53
f 54//54 52//52 53//53
f 55//55 54//54 53//53
f 55//55 53//53 56//56
f 55//55 56//56 57//57
f 57//57 56//56 58//58
f 57//57 58//58 59//59
f 59//59 58//58 60//60
f 59//59 60//60 61//61
f 61//61 60//60 62//62
f 61//61 62//62 63//63
f 63//63 62//62 64//64
f 63//63 64//64 65//65
f 65//65 64//64 66//66
f 65//65 66//66 67//67
f 68//68 67//67 66//66
f 69//69 67//67 68//68
f 69//69 68//68 70//70
f 71//71 69//69 70//70
f 72//72 71//71 73//73
f 74//74 75//75 76//76
f 77//77 74//74 76//76
f 75//75 77//77 76//76
f 78//78 75//75 74//74
f 79//79 75//75 78//78
f 78//78 74//74 80//80
f 81//81 78//78 80//80
f 82//82 78//78 81//81
f 82//82 83//83 78//78
f 83//83 84//84 79//79
f 84//84 85//85 79//79
f 80//80 74//74 86//86
f 87//87 80//80 86//86
f 81//81 80//80 87//87
f 86//86 74//74 88//88
f 88//88 74//74 77//77
f 86//86 88//88 89//89
f 90//90 86//86 89//89
f 87//87 86//86 90//90
f 75//75 91//91 77//77
f 90//90 89//89 92//92
f 90//90 92//92 93//93
f 94//94 90//90 93//93
f 95//95 83//83 82//82
f 95//95 82//82 81//81
f 95//95 81//81 87//87
f 95//95 87//87 90//90
f 95//95 96//96 83//83
f 97//97 91//91 75//75
f 97//97 98//98 91//91
f 97//97 99//99 98//98
f 100//100 95//95 101//101
f 102//102 103//103 104//104
f 102//102 104//104 105//105
f 102//102 105//105 106//106
f 106//106 105//105 107//107
f 108//108 102//102 106//106
f 109//109 102//102 108//108
f 110//110 108//108 106//106
f 111//111 112//112 113//113
f 111//111 113//113 114//114
f 111//111 114//114 115//115
f 111//111 115//115 116//116
f 111//111 116//116 117//117
f 117//117 118//118 111//111
f 118//118 119//119 111//111
f 120//120 111//111 119//119
f 120//120 121//121 111//111
f 121//121 122//122 111//111
f 111//111 122//122 123//123
f 114//114 113//113 124//124
f 124//124 113//113 125//125
f 125//125 113//113 126//126
f 126//126 113//113 127//127
f 127//127 113//113 128//128
f 128//128 113//113 129//129
f 129//129 113//113 130//130
f 130//130 113//113 131//131
f 131//131 113//113 132//132
f 132//132 113//113 133//133
f 133//133 113//113 134//134
f 133//133 134//134 135//135
f 135//135 134//134 136//136
f 134//134 137//137 136//136
f 137//137 134//134 138//138
f 138//138 134//134 139//139
f 139//139 134//134 140//140
f 140//140 134//134 141//141
f 134//134 142//142 141//141
f 134//134 143//143 142//142
f 134//134 144//144 143//143
f 144//144 134//134 145//145
f 145//145 134//134 146//146
f 147//147 134//134 148//148
f 149//149 150//150 151//151
f 149//149 152//152 150//150
f 151//151 150//150 153//153
f 151//151 153//153 154//154
f 154//154 153//153 155//155
f 154//154 155//155 156//156
f 152//152 157//157 150//150
f 158//158 159//159 160//160
f 161//161 159//159 158//158
f 162//162 159//159 161//161
f 163//163 162//162 161//161
f 164//164 162//162 163//163
f 165//165 162//162 164//164
f 9//9 166//166 8//8
f 166//166 9//9 167//167
f 168//168 169//169 170//170
f 168//168 171//171 169//169
f 172//172 169//169 173//173
f 174//174 169//169 172//172
f 169//169 174//174 175//175
f 176//176 169//169 175//175
f 177//177 169//169 176//176
f 178//178 169//169 177//177
f 178//178 179//179 169//169
f 179//179 180//180 169//169
f 180//180 181//181 169//169
f 182//182 181//181 180//180
f 182//182 183//183 181//181
f 183//183 184//184 181//181
f 184//184 185//185 181//181
f 185//185 186//186 181//181
f 186//186 187//187 181//181
f 187//187 188//188 181//181
f 188//188 189//189 181//181
f 181//181 189//189 190//190
f 181//181 190//190 191//191
f 192//192 181//181 191//191
f 193//193 181//181 192//192
f 194//194 181//181 193//193
f 195//195 181//181 194//194
f 195//195 196//196 181//181
f 196//196 197//197 198//198
f 196//196 198//198 199//199
f 199//199 200//200 196//196
f 196//196 200//200 201//201
f 201//201 202//202 196//196
f 196//196 202//202 203//203
f 196//196 203//203 204//204
f 205//205 196//196 206//206
f 207//207 196//196 205//205
