v 94.2777 7.027362 -108.9626
v 103.5208 -8.185244 -97.96133
v 94.2777 7.027362 -108.9626
v 94.2777 7.027363 -108.9626
v 95.80861 9.476626 -106.862
v 96.42097 10.45633 -106.0218
v 96.42097 10.45633 -106.0218
v 105.664 -4.756272 -95.02048
v 114.9071 -19.96888 -84.01917
v 96.28181 10.51323 -105.8262
v 113.6547 -19.45684 -82.25886
v 96.26453 10.5203 -105.8019
v 113.499 -19.39321 -82.04012
v 96.25967 10.52228 -105.7951
v 113.4553 -19.37535 -81.9787
v 96.20511 10.54459 -105.7184
v 112.9642 -19.17458 -81.28848
v 95.53237 10.81962 -104.7728
v 112.8895 -19.14402 -81.18343
v 94.89453 11.08039 -103.8764
v 94.82116 11.11039 -103.7732
v 112.8105 -19.11171 -81.07236
v 94.66811 11.17296 -103.5581
v 112.7935 -19.10476 -81.04846
v 94.26226 11.33888 -102.9877
v 112.7484 -19.08633 -80.98508
v 94.28148 11.46517 -102.8292
v 112.8542 -18.39094 -80.11241
v 112.9214 -17.94975 -79.55875
v 94.28625 11.4965 -102.7899
v 112.9643 -17.66775 -79.20486
v 94.28767 11.50583 -102.7782
v 112.977 -17.58382 -79.09954
v 94.29839 11.5763 -102.6897
v 113.0736 -16.94954 -78.30355
v 94.42145 12.38485 -101.6751
v 113.0872 -16.8597 -78.19081
v 94.52311 13.05284 -100.8368
v 113.0985 -16.78548 -78.09766
v 94.6236 13.71309 -100.0082
v 113.1097 -16.71212 -78.0056
v 94.70598 13.78947 -99.97182
v 113.8512 -16.02471 -77.67802
v 94.89056 13.9606 -99.89027
v 115.5125 -14.48454 -76.94404
v 95.40553 14.43803 -99.66274
v 95.61148 14.62896 -99.57175
v 115.5926 -14.41027 -76.90865
v 96.31372 15.28001 -99.2615
v 115.6706 -14.33794 -76.87418
v 96.89194 15.81607 -99.00603
v 115.7348 -14.27837 -76.84579
v 97.2933 16.18818 -98.8287
v 115.7794 -14.23703 -76.82609
v 115.7794 -14.23703 -76.82609
v 97.49622 16.25511 -98.90664
v 117.6057 -13.63468 -77.52754
v 97.55595 16.27481 -98.92958
v 118.1432 -13.45739 -77.73402
v 97.56205 16.27682 -98.93192
v 118.1981 -13.43929 -77.75509
v 97.56487 16.27775 -98.93301
v 118.2235 -13.4309 -77.76486
v 97.56845 16.27893 -98.93438
v 118.2557 -13.42029 -77.77722
v 97.63473 16.30079 -98.95984
v 118.8522 -13.22354 -78.00634
v 100.7075 17.31427 -100.1401
v 119.1936 -13.11093 -78.13747
v 100.7075 17.31428 -100.1401
v 119.1936 -13.11093 -78.13747
v 100.7075 17.31428 -100.1401
v 100.7075 17.31428 -100.1401
v 101.3199 18.29398 -99.29985
v 102.8508 20.74325 -97.19924
v 102.8508 20.74325 -97.19924
v 102.8508 20.74324 -97.19924
v 100.7075 17.31428 -100.1401
v 100.7075 17.31428 -100.1401
v 100.7075 17.31428 -100.1401
v 119.1936 -13.11093 -78.13747
v 119.1936 -13.11093 -78.13747
v 119.1936 -13.11093 -78.13747
v 100.7075 17.31428 -100.1401
v 96.02236 18.49106 -94.57646
v 100.7075 17.31428 -100.1401
v 119.1936 -13.11093 -78.13747
v 100.7075 17.31428 -100.1401
v 109.9506 2.101669 -89.13878
v 119.1936 -13.11093 -78.13747
v 112.0939 5.530639 -86.19794
v 119.1936 -13.11092 -78.13749
v 119.1936 -13.11093 -78.13747
v 119.806 -12.13123 -77.29723
v 114.5085 -11.93415 -72.57385
v 119.1936 -13.11093 -78.13747
v 96.02236 18.49106 -94.57646
v 121.3369 -9.681965 -75.19662
v 114.5085 -11.93415 -72.57385
v 115.7794 -14.23703 -76.82609
v 115.7794 -14.23703 -76.82609
v 103.5208 -8.185244 -97.96133
v 94.2777 7.027362 -108.9626
v 94.2777 7.027363 -108.9626
v 95.80861 9.476626 -106.862
v 105.664 -4.756272 -95.02048
v 96.42097 10.45633 -106.0218
v 114.0193 -21.3892 -85.23731
v 112.7638 -23.39785 -86.96002
v 114.9071 -19.96888 -84.01917
v 94.2777 7.027362 -108.9626
v 89.96027 8.792464 -102.8944
v 90.68294 13.54088 -96.93549
v 94.26226 11.33888 -102.9877
v 94.66811 11.17296 -103.5581
v 94.82116 11.11039 -103.7732
v 94.89453 11.08039 -103.8764
v 95.53237 10.81962 -104.7728
v 96.20511 10.54459 -105.7184
v 96.25967 10.52228 -105.7951
v 96.26453 10.5203 -105.8019
v 96.28181 10.51323 -105.8262
v 96.42097 10.45633 -106.0218
v 94.28148 11.46517 -102.8292
v 94.28625 11.4965 -102.7899
v 94.28767 11.50583 -102.7782
v 94.29839 11.5763 -102.6897
v 94.42145 12.38485 -101.6751
v 94.52311 13.05284 -100.8368
v 94.6236 13.71309 -100.0082
v 94.70598 13.78947 -99.97182
v 94.89056 13.9606 -99.89027
v 95.40553 14.43803 -99.66274
v 96.02236 18.49106 -94.57646
v 95.61148 14.62896 -99.57175
v 96.31372 15.28001 -99.2615
v 96.89194 15.81607 -99.00603
v 97.2933 16.18818 -98.8287
v 97.49622 16.25511 -98.90664
v 97.55595 16.27481 -98.92958
v 97.56205 16.27682 -98.93192
v 97.56487 16.27775 -98.93301
v 97.56845 16.27893 -98.93438
v 97.63473 16.30079 -98.95984
v 100.7075 17.31427 -100.1401
v 100.7075 17.31428 -100.1401
v 100.7075 17.31428 -100.1401
v 102.8508 20.74325 -97.19924
v 94.2777 7.027362 -108.9626
v 108.4464 -21.63274 -80.89183
v 89.96027 8.792464 -102.8944
v 103.5208 -8.185244 -97.96133
v 109.1691 -16.88432 -74.93288
v 90.68294 13.54088 -96.93549
v 114.5085 -11.93415 -72.57385
v 96.02236 18.49106 -94.57646
v 112.7638 -23.39785 -86.96002
v 102.8508 20.74324 -97.19924
v 109.9506 2.101669 -89.13878
v 100.7075 17.31428 -100.1401
v 112.0939 5.530639 -86.19794
v 119.1936 -13.11092 -78.13749
v 121.3369 -9.681965 -75.19662
v 119.806 -12.13123 -77.29723
v 119.1936 -13.11093 -78.13747
v 114.9071 -19.96888 -84.01917
v 108.4464 -21.63274 -80.89183
v 114.0193 -21.3892 -85.23731
v 108.4464 -21.63274 -80.89183
v 112.7638 -23.39785 -86.96002
v 114.9071 -19.96888 -84.01917
v 113.6547 -19.45684 -82.25886
v 114.9071 -19.96888 -84.01917
v 113.499 -19.39321 -82.04012
v 113.4553 -19.37535 -81.9787
v 112.9642 -19.17458 -81.28848
v 112.8895 -19.14402 -81.18343
v 112.8105 -19.11171 -81.07236
v 112.7935 -19.10476 -81.04846
v 112.7484 -19.08633 -80.98508
v 109.1691 -16.88432 -74.93288
v 112.8542 -18.39094 -80.11241
v 112.9214 -17.94975 -79.55875
v 112.9643 -17.66775 -79.20486
v 112.977 -17.58382 -79.09954
v 113.0736 -16.94954 -78.30355
v 113.0872 -16.8597 -78.19081
v 113.0985 -16.78548 -78.09766
v 113.1097 -16.71212 -78.0056
v 113.8512 -16.02471 -77.67802
v 115.5125 -14.48454 -76.94404
v 115.5926 -14.41027 -76.90865
v 115.6706 -14.33794 -76.87418
v 115.7348 -14.27837 -76.84579
v 115.7794 -14.23703 -76.82609
v 114.5085 -11.93415 -72.57385
v 115.7794 -14.23703 -76.82609
v 117.6057 -13.63468 -77.52754
v 118.1432 -13.45739 -77.73402
v 118.1981 -13.43929 -77.75509
v 118.2235 -13.4309 -77.76486
v 118.2557 -13.42029 -77.77722
v 118.8522 -13.22354 -78.00634
v 119.1936 -13.11093 -78.13747
v 119.806 -12.13123 -77.29723
v 119.1936 -13.11093 -78.13747
v 121.3369 -9.681965 -75.19662

vn -0.4286544 -0.6857932 -0.5881694
vn -0.4286544 -0.6857933 -0.5881693
vn -0.6129183 -0.04758044 -0.7887126
vn -0.4417079 0.7269809 -0.5257312
vn -0.4417079 0.7269809 -0.5257312
vn 0.6976321 0.6467698 0.3082178
vn 0.3618793 0.7817114 0.5079084
vn 0.8674229 0.1964393 -0.4571533
vn 0.6976296 0.6467707 0.3082216
vn 0.6976292 0.646771 0.3082223
vn 0.6976294 0.6467708 0.308222
vn 0.69763 0.6467705 0.3082213
vn 0.6976306 0.6467702 0.3082204
vn 0.6976271 0.646772 0.3082247
vn 0.6976288 0.6467711 0.3082227
vn 0.6976291 0.646771 0.3082223
vn 0.6976291 0.6467711 0.3082224
vn 0.697629 0.6467711 0.3082225
vn 0.6976291 0.646771 0.3082222
vn 0.697629 0.6467711 0.3082225
vn 0.6976296 0.6467708 0.3082216
vn 0.6976305 0.6467704 0.3082204
vn 0.6976292 0.646771 0.308222
vn 0.6976287 0.6467712 0.3082227
vn 0.7747324 0.6045864 0.1851089
vn 0.8952919 0.3193902 -0.3105517
vn 0.8921765 0.2942605 -0.3426835
vn 0.8921765 0.294261 -0.3426828
vn 0.8921766 0.2942612 -0.3426826
vn 0.8921768 0.2942627 -0.3426811
vn 0.8921767 0.2942635 -0.3426801
vn 0.8921768 0.2942647 -0.3426789
vn 0.8921767 0.2942628 -0.342681
vn 0.8921766 0.2942619 -0.3426818
vn 0.8921767 0.2942615 -0.3426822
vn 0.8921766 0.2942614 -0.3426822
vn 0.8921766 0.2942622 -0.3426814
vn 0.8921767 0.2942618 -0.3426819
vn 0.8921766 0.294261 -0.3426828
vn 0.8840274 0.2527888 -0.3931838
vn 0.6088979 -0.1874467 -0.7707837
vn 0.5641 -0.2306207 -0.7928465
vn 0.5640993 -0.2306214 -0.7928469
vn 0.5640988 -0.2306219 -0.7928471
vn 0.5640988 -0.2306218 -0.792847
vn 0.564099 -0.2306215 -0.7928469
vn 0.5640994 -0.2306211 -0.7928468
vn 0.5640991 -0.2306214 -0.792847
vn 0.5640994 -0.2306212 -0.7928469
vn 0.5640991 -0.2306214 -0.7928469
vn 0.5640992 -0.2306214 -0.792847
vn 0.5640994 -0.2306211 -0.7928468
vn 0.4155588 -0.3535551 -0.8380395
vn 0.5641156 -0.230606 -0.7928396
vn -0.09441992 -0.62041 -0.7785734
vn -0.09442104 -0.6204104 -0.7785729
vn -0.09442143 -0.6204106 -0.7785728
vn -0.09442245 -0.620411 -0.7785723
vn -0.09442071 -0.6204103 -0.7785732
vn -0.09441941 -0.6204097 -0.7785739
vn -0.09441707 -0.6204085 -0.7785749
vn -0.09437919 -0.6203912 -0.7785934
vn -0.09440293 -0.6204022 -0.7785818
vn -0.09442689 -0.620413 -0.7785702
vn -0.09442339 -0.6204115 -0.7785719
vn -0.09442096 -0.6204103 -0.778573
vn -0.09442043 -0.6204101 -0.7785732
vn -0.09442019 -0.6204101 -0.7785733
vn -0.09441567 -0.6204087 -0.778575
vn 0.05636809 -0.5623497 -0.8249763
vn -0.4286543 -0.6857934 -0.5881692
vn -0.4286543 -0.6857934 -0.5881692
vn -0.4286543 -0.6857934 -0.5881692
vn -0.4417079 0.7269809 -0.5257312
vn 0.09442081 0.6204102 0.7785732
vn -0.4417079 0.7269809 -0.5257312
vn 0.8371547 0.1232757 -0.5328933
vn -0.6142668 0.1073926 -0.7817566
vn -0.6064293 0.2143051 -0.7657135
vn -0.4589539 -0.632409 -0.6240355
vn -0.4286543 -0.6857934 -0.5881692
vn -0.4286543 -0.6857934 -0.5881692
vn -0.4286543 -0.6857934 -0.5881692
vn -0.4718714 -0.6072648 -0.6391925
vn -0.4417079 0.7269809 -0.5257312
vn -0.4342088 -0.6765324 -0.594783
vn -0.4286543 -0.6857934 -0.5881692
vn -0.486813 -0.5760902 -0.6566074
vn -0.4286595 -0.6857936 -0.5881652
vn -0.4013649 -0.7282056 -0.5555384
vn 0.09442076 0.6204102 0.7785731
vn -0.4286729 -0.6857942 -0.5881547
vn 0.441705 -0.7269856 0.5257271
vn 0.4417079 -0.7269809 0.5257312
vn 0.4417076 -0.7269809 0.5257314
vn 0 0 0
vn 0.09442071 0.6204103 0.7785732
vn 0.09442072 0.6204103 0.7785732
vn 0.09442073 0.6204103 0.7785732
vn 0.4417076 -0.7269809 0.5257314
vn 0.4417076 -0.7269809 0.5257314
vn 0.7881306 0.03444186 -0.6145438
vn 0.7881306 0.03444185 -0.6145437
vn 0.7881306 0.03444186 -0.6145438
vn 0.7881306 0.03444186 -0.6145438
vn 0.7881306 0.03444186 -0.6145438
vn 0.7881306 0.03444186 -0.6145438
vn 0.7881306 0.03444186 -0.6145438
vn 0.7881306 0.03444186 -0.6145438
vn 0.7881306 0.03444186 -0.6145438
vn -0.4417079 0.7269809 -0.5257312
vn -0.4417079 0.7269809 -0.5257312
vn -0.4417079 0.7269809 -0.5257312
vn -0.4417079 0.7269809 -0.5257312
vn -0.4417079 0.7269809 -0.5257312
vn -0.4417079 0.7269809 -0.5257312
vn -0.4417079 0.7269809 -0.5257312
vn -0.4417079 0.7269809 -0.5257312
vn -0.4417079 0.7269809 -0.5257312
vn -0.4417079 0.7269809 -0.5257312
vn -0.4417079 0.7269809 -0.5257312
vn -0.4417079 0.7269809 -0.5257312
vn -0.4417079 0.7269809 -0.5257312
vn -0.4417079 0.7269808 -0.5257311
vn -0.4417079 0.7269809 -0.5257312
vn -0.4417079 0.7269809 -0.5257312
vn -0.4417079 0.7269808 -0.5257311
vn -0.4417079 0.7269809 -0.5257312
vn -0.4417079 0.7269809 -0.5257312
vn -0.4417079 0.7269809 -0.5257312
vn -0.4417079 0.7269808 -0.5257311
vn -0.4417079 0.7269809 -0.5257312
vn -0.4417079 0.7269809 -0.5257312
vn -0.4417079 0.7269809 -0.5257312
vn -0.4417079 0.7269809 -0.5257312
vn -0.4417079 0.7269809 -0.5257312
vn -0.4417079 0.7269809 -0.5257312
vn -0.4417079 0.7269809 -0.5257312
vn -0.4417079 0.7269809 -0.5257312
vn -0.4417079 0.7269809 -0.5257312
vn -0.4417079 0.7269809 -0.5257312
vn -0.4417079 0.7269808 -0.5257311
vn -0.4417079 0.7269809 -0.5257312
vn -0.4417079 0.7269808 -0.5257311
vn -0.4417079 0.7269808 -0.5257311
vn -0.4417079 0.7269809 -0.5257312
vn -0.4417079 0.7269808 -0.5257311
vn -0.4417079 0.7269808 -0.5257311
vn -0.6976295 -0.6467708 -0.308222
vn -0.8175449 -0.5674917 -0.09784437
vn -0.8870774 -0.4415025 0.1347931
vn -0.6976293 -0.6467707 -0.3082219
vn -0.8393527 -0.1279166 0.5283225
vn -0.7220955 0.05968022 0.6892146
vn -0.564099 0.2306215 0.792847
vn -0.564099 0.2306215 0.792847
vn -0.6976293 -0.6467709 -0.308222
vn 0.7881306 0.03444186 -0.6145438
vn 0.7881306 0.03444186 -0.6145438
vn 0.7881306 0.03444186 -0.6145438
vn 0.7881306 0.03444186 -0.6145438
vn 0.7881306 0.03444186 -0.6145438
vn 0.7881306 0.03444186 -0.6145438
vn 0.7881306 0.03444185 -0.6145438
vn 0.7881306 0.03444185 -0.6145437
vn 0.5093263 0.5241084 0.6825666
vn 0.4417076 -0.7269813 0.5257308
vn 0.4417078 -0.7269808 0.5257313
vn 0.4417077 -0.7269809 0.5257313
vn 0.4417078 -0.7269809 0.5257313
vn 0.4417078 -0.7269809 0.5257313
vn 0.4417077 -0.726981 0.5257311
vn 0.4417077 -0.726981 0.5257311
vn 0.4417077 -0.726981 0.5257311
vn 0.4417077 -0.726981 0.5257311
vn 0.4417077 -0.726981 0.5257311
vn 0.4417077 -0.726981 0.5257311
vn 0.4417077 -0.726981 0.5257311
vn 0.4417077 -0.726981 0.5257311
vn 0.4417076 -0.726981 0.5257313
vn 0.4417077 -0.7269809 0.5257314
vn 0.4417076 -0.726981 0.5257313
vn 0.4417076 -0.726981 0.5257313
vn 0.4417076 -0.726981 0.5257313
vn 0.4417076 -0.726981 0.5257313
vn 0.4417076 -0.726981 0.5257313
vn 0.4417076 -0.726981 0.5257313
vn 0.4417076 -0.726981 0.5257313
vn 0.4417078 -0.7269808 0.5257314
vn 0.4417078 -0.7269808 0.5257314
vn 0.4417078 -0.7269808 0.5257314
vn 0.4417078 -0.7269808 0.5257314
vn 0.4417078 -0.7269808 0.5257314
vn 0.4417078 -0.7269808 0.5257314
vn 0.4417078 -0.7269808 0.5257314
vn 0.4417078 -0.7269808 0.5257314
vn 0.441708 -0.7269806 0.5257314
vn 0.441708 -0.7269806 0.5257314
vn 0.441708 -0.7269806 0.5257314
vn 0.441708 -0.7269806 0.5257314
vn 0.441708 -0.7269806 0.5257314
vn 0.441708 -0.7269806 0.5257314
vn 0.441708 -0.7269806 0.5257314
vn 0.4417079 -0.7269806 0.5257314
vn 0.4417078 -0.7269809 0.5257313
vn 0.4417078 -0.7269809 0.5257313
vn 0.4417078 -0.7269808 0.5257313

f 1//1 2//2 3//3
f 4//4 1//1 3//3
f 3//3 5//5 4//4
f 3//3 6//6 5//5
f 5//5 6//6 7//7
f 8//8 7//7 6//6
f 9//9 8//8 6//6
f 10//10 9//9 6//6
f 9//9 10//10 11//11
f 11//11 10//10 12//12
f 13//13 11//11 12//12
f 13//13 12//12 14//14
f 13//13 14//14 15//15
f 15//15 14//14 16//16
f 15//15 16//16 17//17
f 18//18 17//17 16//16
f 19//19 17//17 18//18
f 19//19 18//18 20//20
f 21//21 19//19 20//20
f 22//22 19//19 21//21
f 22//22 21//21 23//23
f 24//24 22//22 23//23
f 24//24 23//23 25//25
f 26//26 24//24 25//25
f 26//26 25//25 27//27
f 28//28 26//26 27//27
f 28//28 27//27 29//29
f 29//29 27//27 30//30
f 31//31 29//29 30//30
f 31//31 30//30 32//32
f 33//33 31//31 32//32
f 33//33 32//32 34//34
f 35//35 33//33 34//34
f 35//35 34//34 36//36
f 37//37 35//35 36//36
f 37//37 36//36 38//38
f 39//39 37//37 38//38
f 39//39 38//38 40//40
f 41//41 39//39 40//40
f 41//41 40//40 42//42
f 41//41 42//42 43//43
f 43//43 42//42 44//44
f 45//45 43//43 44//44
f 45//45 44//44 46//46
f 47//47 45//45 46//46
f 48//48 45//45 47//47
f 48//48 47//47 49//49
f 50//50 48//48 49//49
f 50//50 49//49 51//51
f 52//52 50//50 51//51
f 52//52 51//51 53//53
f 54//54 52//52 53//53
f 55//55 54//54 53//53
f 55//55 53//53 56//56
f 55//55 56//56 57//57
f 57//57 56//56 58//58
f 57//57 58//58 59//59
f 59//59 58//58 60//60
f 59//59 60//60 61//61
f 61//61 60//60 62//62
f 61//61 62//62 63//63
f 63//63 62//62 64//64
f 63//63 64//64 65//65
f 65//65 64//64 66//66
f 65//65 66//66 67//67
f 68//68 67//67 66//66
f 69//69 67//67 68//68
f 69//69 68//68 70//70
f 71//71 69//69 70//70
f 72//72 71//71 73//73
f 74//74 75//75 76//76
f 77//77 74//74 76//76
f 75//75 77//77 76//76
f 78//78 75//75 74//74
f 79//79 75//75 78//78
f 78//78 74//74 80//80
f 81//81 78//78 80//80
f 82//82 78//78 81//81
f 82//82 83//83 78//78
f 83//83 84//84 79//79
f 84//84 85//85 79//79
f 80//80 74//74 86//86
f 87//87 80//80 86//86
f 81//81 80//80 87//87
f 86//86 74//74 88//88
f 88//88 74//74 77//77
f 86//86 88//88 89//89
f 90//90 86//86 89//89
f 87//87 86//86 90//90
f 75//75 91//91 77//77
f 90//90 89//89 92//92
f 90//90 92//92 93//93
f 94//94 90//90 93//93
f 95//95 83//83 82//82
f 95//95 82//82 81//81
f 95//95 81//81 87//87
f 95//95 87//87 90//90
f 95//95 96//96 83//83
f 97//97 91//91 75//75
f 97//97 98//98 91//91
f 97//97 99//99 98//98
f 100//100 95//95 101//101
f 102//102 103//103 104//104
f 102//102 104//104 105//105
f 102//102 105//105 106//106
f 106//106 105//105 107//107
f 108//108 102//102 106//106
f 109//109 102//102 108//108
f 110//110 108//108 106//106
f 111//111 112//112 113//113
f 111//111 113//113 114//114
f 111//111 114//114 115//115
f 111//111 115//115 116//116
f 111//111 116//116 117//117
f 117//117 118//118 111//111
f 118//118 119//119 111//111
f 120//120 111//111 119//119
f 120//120 121//121 111//111
f 121//121 122//122 111//111
f 111//111 122//122 123//123
f 114//114 113//113 124//124
f 124//124 113//113 125//125
f 125//125 113//113 126//126
f 126//126 113//113 127//127
f 127//127 113//113 128//128
f 128//128 113//113 129//129
f 129//129 113//113 130//130
f 130//130 113//113 131//131
f 131//131 113//113 132//132
f 132//132 113//113 133//133
f 133//133 113//113 134//134
f 133//133 134//134 135//135
f 135//135 134//134 136//136
f 134//134 137//137 136//136
f 137//137 134//134 138//138
f 138//138 134//134 139//139
f 139//139 134//134 140//140
f 140//140 134//134 141//141
f 134//134 142//142 141//141
f 134//134 143//143 142//142
f 134//134 144//144 143//143
f 144//144 134//134 145//145
f 145//145 134//134 146//146
f 147//147 134//134 148//148
f 149//149 150//150 151//151
f 149//149 152//152 150//150
f 151//151 150//150 153//153
f 151//151 153//153 154//154
f 154//154 153//153 155//155
f 154//154 155//155 156//156
f 152//152 157//157 150//150
f 158//158 159//159 160//160
f 161//161 159//159 158//158
f 162//162 159//159 161//161
f 163//163 162//162 161//161
f 164//164 162//162 163//163
f 165//165 162//162 164//164
f 9//9 166//166 8//8
f 166//166 9//9 167//167
f 168//168 169//169 170//170
f 168//168 171//171 169//169
f 172//172 169//169 173//173
f 174//174 169//169 172//172
f 169//169 174//174 175//175
f 176//176 169//169 175//175
f 177//177 169//169 176//176
f 178//178 169//169 177//177
f 178//178 179//179 169//169
f 179//179 180//180 169//169
f 180//180 181//181 169//169
f 182//182 181//181 180//180
f 182//182 183//183 181//181
f 183//183 184//184 181//181
f 184//184 185//185 181//181
f 185//185 186//186 181//181
f 186//186 187//187 181//181
f 187//187 188//188 181//181
f 188//188 189//189 181//181
f 181//181 189//189 190//190
f 181//181 190//190 191//191
f 192//192 181//181 191//191
f 193//193 181//181 192//192
f 194//194 181//181 193//193
f 195//195 181//181 194//194
f 195//195 196//196 181//181
f 196//196 197//197 198//198
f 196//196 198//198 199//199
f 199//199 200//200 196//196
f 196//196 200//200 201//201
f 201//201 202//202 196//196
f 196//196 202//202 203//203
f 196//196 203//203 204//204
f 205//205 196//196 206//206
f 207//207 196//196 205//205
