v -47.70659 107.0447 -84.24002
v -62.10527 98.29613 -84.24003
v -47.70659 107.0447 -84.24002
v -47.70659 107.0447 -84.24002
v -48.70734 108.6917 -81.23324
v -49.10764 109.3506 -80.03052
v -49.10764 109.3506 -80.03052
v -63.50632 100.602 -80.03053
v -77.90501 91.85351 -80.03053
v -49.23373 109.5581 -80.07403
v -79.03981 93.72122 -80.42213
v -49.2494 109.5839 -80.07944
v -79.18082 93.95332 -80.47079
v -49.2538 109.5911 -80.08096
v -79.22042 94.01847 -80.48445
v -49.30323 109.6725 -80.09801
v -79.66537 94.7508 -80.63799
v -49.91278 110.6757 -80.30836
v -79.7331 94.86227 -80.66137
v -50.49072 111.6269 -80.50779
v -50.5572 111.7363 -80.53073
v -79.8047 94.98011 -80.68607
v -50.69587 111.9645 -80.57858
v -79.82011 95.00547 -80.69139
v -51.06361 112.5698 -80.70548
v -79.86097 95.07272 -80.70549
v -51.15035 112.7125 -80.58919
v -80.33865 95.85891 -80.06514
v -80.64171 96.3577 -79.65887
v -51.17188 112.748 -80.56033
v -80.83543 96.67652 -79.39919
v -51.17828 112.7585 -80.55175
v -80.89307 96.7714 -79.32191
v -51.2267 112.8382 -80.48685
v -81.32878 97.48851 -78.73783
v -51.7821 113.7523 -79.7423
v -81.3905 97.59007 -78.6551
v -52.24097 114.5075 -79.12718
v -81.44148 97.67399 -78.58675
v -52.69451 115.254 -78.51919
v -81.49187 97.75693 -78.5192
v -52.70532 115.2718 -78.40295
v -81.58921 97.91713 -77.47304
v -52.72955 115.3117 -78.1425
v -81.8073 98.27608 -75.12904
v -52.79716 115.4229 -77.41591
v -52.8242 115.4674 -77.12533
v -81.81782 98.29338 -75.01602
v -52.91639 115.6192 -76.1345
v -81.82806 98.31024 -74.90593
v -52.99229 115.7441 -75.31866
v -81.8365 98.32413 -74.81528
v -53.04499 115.8308 -74.75235
v -81.84235 98.33376 -74.75236
v -81.84235 98.33376 -74.75236
v -52.97752 115.7198 -74.56568
v -81.23511 97.33434 -73.07233
v -52.95766 115.6871 -74.51073
v -81.05637 97.04016 -72.57784
v -52.95563 115.6837 -74.50513
v -81.03813 97.01013 -72.52736
v -52.95469 115.6822 -74.50253
v -81.02966 96.99621 -72.50394
v -52.9535 115.6802 -74.49924
v -81.01897 96.97861 -72.47436
v -52.93146 115.644 -74.43826
v -80.82063 96.65216 -71.92561
v -51.90974 113.9624 -71.61152
v -80.7071 96.46532 -71.61153
v -51.90974 113.9624 -71.61152
v -80.7071 96.46532 -71.61153
v -51.90974 113.9624 -71.61152
v -51.90974 113.9624 -71.61152
v -52.31004 114.6212 -70.40881
v -53.31079 116.2683 -67.40202
v -53.31078 116.2683 -67.40202
v -53.31078 116.2683 -67.40202
v -51.90974 113.9624 -71.61152
v -51.90974 113.9624 -71.61152
v -51.90974 113.9624 -71.61152
v -80.7071 96.46532 -71.61153
v -80.7071 96.46532 -71.61153
v -80.7071 96.46532 -71.61153
v -51.90974 113.9624 -71.61152
v -55.58129 120.0052 -73.68368
v -51.90974 113.9624 -71.61152
v -80.7071 96.46532 -71.61153
v -51.90974 113.9624 -71.61152
v -66.30842 105.2138 -71.61153
v -80.7071 96.46532 -71.61153
v -67.70947 107.5197 -67.40202
v -80.70708 96.46532 -71.61153
v -80.7071 96.46532 -71.61153
v -81.1074 97.12415 -70.40881
v -84.37865 102.5081 -73.68369
v -80.7071 96.46532 -71.61153
v -55.58129 120.0052 -73.68368
v -82.10815 98.77122 -67.40202
v -84.37865 102.5081 -73.68369
v -81.84235 98.33376 -74.75236
v -81.84235 98.33376 -74.75236
v -62.10527 98.29613 -84.24003
v -47.70659 107.0447 -84.24002
v -47.70659 107.0447 -84.24002
v -48.70734 108.6917 -81.23324
v -63.50632 100.602 -80.03053
v -49.10764 109.3506 -80.03052
v -77.32467 90.89838 -81.77416
v -76.50395 89.54761 -84.24004
v -77.90501 91.85351 -80.03053
v -47.70659 107.0447 -84.24002
v -51.61852 113.4831 -85.58994
v -54.88033 118.8515 -81.21736
v -51.06361 112.5698 -80.70548
v -50.69587 111.9645 -80.57858
v -50.5572 111.7363 -80.53073
v -50.49072 111.6269 -80.50779
v -49.91278 110.6757 -80.30836
v -49.30323 109.6725 -80.09801
v -49.2538 109.5911 -80.08096
v -49.2494 109.5839 -80.07944
v -49.23373 109.5581 -80.07403
v -49.10764 109.3506 -80.03052
v -51.15035 112.7125 -80.58919
v -51.17188 112.748 -80.56033
v -51.17828 112.7585 -80.55175
v -51.2267 112.8382 -80.48685
v -51.7821 113.7523 -79.7423
v -52.24097 114.5075 -79.12718
v -52.69451 115.254 -78.51919
v -52.70532 115.2718 -78.40295
v -52.72955 115.3117 -78.1425
v -52.79716 115.4229 -77.41591
v -55.58129 120.0052 -73.68368
v -52.8242 115.4674 -77.12533
v -52.91639 115.6192 -76.1345
v -52.99229 115.7441 -75.31866
v -53.04499 115.8308 -74.75235
v -52.97752 115.7198 -74.56568
v -52.95766 115.6871 -74.51073
v -52.95563 115.6837 -74.50513
v -52.95469 115.6822 -74.50253
v -52.9535 115.6802 -74.49924
v -52.93146 115.644 -74.43826
v -51.90974 113.9624 -71.61152
v -51.90974 113.9624 -71.61152
v -51.90974 113.9624 -71.61152
v -53.31079 116.2683 -67.40202
v -47.70659 107.0447 -84.24002
v -80.41589 95.98603 -85.58995
v -51.61852 113.4831 -85.58994
v -62.10527 98.29613 -84.24003
v -83.67769 101.3544 -81.21737
v -54.88033 118.8515 -81.21736
v -84.37865 102.5081 -73.68369
v -55.58129 120.0052 -73.68368
v -76.50395 89.54761 -84.24004
v -53.31078 116.2683 -67.40202
v -66.30842 105.2138 -71.61153
v -51.90974 113.9624 -71.61152
v -67.70947 107.5197 -67.40202
v -80.70708 96.46532 -71.61153
v -82.10815 98.77122 -67.40202
v -81.1074 97.12415 -70.40881
v -80.7071 96.46532 -71.61153
v -77.90501 91.85351 -80.03053
v -80.41589 95.98603 -85.58995
v -77.32467 90.89838 -81.77416
v -80.41589 95.98603 -85.58995
v -76.50395 89.54761 -84.24004
v -77.90501 91.85351 -80.03053
v -79.03981 93.72122 -80.42213
v -77.90501 91.85351 -80.03053
v -79.18082 93.95332 -80.47079
v -79.22042 94.01847 -80.48445
v -79.66537 94.7508 -80.63799
v -79.7331 94.86227 -80.66137
v -79.8047 94.98011 -80.68607
v -79.82011 95.00547 -80.69139
v -79.86097 95.07272 -80.70549
v -83.67769 101.3544 -81.21737
v -80.33865 95.85891 -80.06514
v -80.64171 96.3577 -79.65887
v -80.83543 96.67652 -79.39919
v -80.89307 96.7714 -79.32191
v -81.32878 97.48851 -78.73783
v -81.3905 97.59007 -78.6551
v -81.44148 97.67399 -78.58675
v -81.49187 97.75693 -78.5192
v -81.58921 97.91713 -77.47304
v -81.8073 98.27608 -75.12904
v -81.81782 98.29338 -75.01602
v -81.82806 98.31024 -74.90593
v -81.8365 98.32413 -74.81528
v -81.84235 98.33376 -74.75236
v -84.37865 102.5081 -73.68369
v -81.84235 98.33376 -74.75236
v -81.23511 97.33434 -73.07233
v -81.05637 97.04016 -72.57784
v -81.03813 97.01013 -72.52736
v -81.02966 96.99621 -72.50394
v -81.01897 96.97861 -72.47436
v -80.82063 96.65216 -71.92561
v -80.7071 96.46532 -71.61153
v -81.1074 97.12415 -70.40881
v -80.7071 96.46532 -71.61153
v -82.10815 98.77122 -67.40202

vn 0.2802101 -0.46118 -0.8418999
vn 0.28021 -0.4611801 -0.8418999
vn 0.7689285 -0.01222518 -0.639218
vn 0.8546172 0.5192586 1.192093E-07
vn 0.8546172 0.5192586 1.192093E-07
vn -0.09158223 0.1507293 0.9843239
vn -0.1565327 0.5299793 0.8334385
vn 0.3580442 -0.5892845 0.7242569
vn -0.09158483 0.150733 0.984323
vn -0.09158524 0.1507338 0.984323
vn -0.09158509 0.1507335 0.984323
vn -0.09158465 0.1507326 0.9843231
vn -0.09158415 0.1507316 0.9843233
vn -0.0915866 0.1507368 0.9843223
vn -0.09158543 0.1507343 0.9843228
vn -0.0915852 0.1507338 0.9843228
vn -0.09158527 0.150734 0.984323
vn -0.09158531 0.1507341 0.9843228
vn -0.09158517 0.1507338 0.9843228
vn -0.09158536 0.1507341 0.9843228
vn -0.09158476 0.1507331 0.984323
vn -0.09158398 0.1507317 0.9843233
vn -0.09158501 0.1507336 0.9843228
vn -0.09158548 0.1507344 0.9843228
vn -0.0134441 0.02212608 0.9996649
vn 0.2789761 -0.4591512 0.8434171
vn 0.2966557 -0.488249 0.8207365
vn 0.2966553 -0.4882483 0.8207369
vn 0.2966552 -0.4882481 0.8207372
vn 0.2966545 -0.4882466 0.8207384
vn 0.296654 -0.4882456 0.8207391
vn 0.2966534 -0.4882443 0.82074
vn 0.2966544 -0.4882465 0.8207385
vn 0.2966548 -0.4882474 0.8207377
vn 0.296655 -0.4882479 0.8207375
vn 0.2966549 -0.4882479 0.8207374
vn 0.2966545 -0.488247 0.820738
vn 0.2966548 -0.4882476 0.8207377
vn 0.2966553 -0.4882484 0.820737
vn 0.324062 -0.5333555 0.7813552
vn 0.5039619 -0.8294415 0.2409347
vn 0.5111179 -0.8412192 0.176377
vn 0.511118 -0.8412194 0.176376
vn 0.5111181 -0.8412195 0.1763753
vn 0.5111181 -0.8412195 0.1763753
vn 0.511118 -0.8412194 0.1763757
vn 0.5111181 -0.8412192 0.1763763
vn 0.5111181 -0.8412194 0.1763758
vn 0.5111181 -0.8412194 0.1763762
vn 0.5111181 -0.8412193 0.1763758
vn 0.5111181 -0.8412194 0.1763759
vn 0.5111181 -0.8412192 0.1763763
vn 0.5191435 -0.8544278 -0.0210588
vn 0.511116 -0.8412158 0.1763992
vn 0.4261755 -0.7014167 -0.5713047
vn 0.4261751 -0.7014161 -0.5713058
vn 0.426175 -0.701416 -0.5713062
vn 0.4261745 -0.7014154 -0.5713071
vn 0.4261753 -0.7014163 -0.5713055
vn 0.426176 -0.701417 -0.5713042
vn 0.426177 -0.7014181 -0.5713019
vn 0.4261953 -0.7014373 -0.5712647
vn 0.4261838 -0.7014254 -0.571288
vn 0.4261725 -0.7014132 -0.5713115
vn 0.426174 -0.701415 -0.5713081
vn 0.4261751 -0.7014161 -0.5713057
vn 0.4261754 -0.7014164 -0.5713052
vn 0.4261755 -0.7014166 -0.571305
vn 0.4261769 -0.7014191 -0.5713009
vn 0.4698478 -0.7732944 -0.4257452
vn 0.2802098 -0.4611802 -0.8418999
vn 0.2802098 -0.4611802 -0.8418999
vn 0.2802098 -0.4611802 -0.8418999
vn 0.8546172 0.5192586 1.192093E-07
vn -0.4261754 0.7014162 0.5713055
vn 0.8546172 0.5192586 1.192093E-07
vn 0.3970399 -0.6534652 0.6444709
vn 0.8318305 0.09532038 -0.5467834
vn 0.863957 0.1692164 -0.4742828
vn 0.3402214 -0.4231219 -0.8397722
vn 0.2802098 -0.4611802 -0.8418999
vn 0.2802098 -0.4611802 -0.8418999
vn 0.2802098 -0.4611802 -0.8418999
vn 0.3667473 -0.4052421 -0.8374218
vn 0.8546172 0.5192586 1.192093E-07
vn 0.291012 -0.4545719 -0.8418293
vn 0.2802098 -0.4611802 -0.8418999
vn 0.3982547 -0.3831108 -0.8334383
vn 0.2802069 -0.4611754 -0.8419034
vn 0.2283888 -0.4915209 -0.8403844
vn -0.4261753 0.7014163 0.5713055
vn 0.2801995 -0.4611632 -0.8419126
vn -0.8546153 -0.5192618 -5.964314E-06
vn -0.8546172 -0.5192586 -1.192093E-07
vn -0.8546174 -0.5192583 -3.521063E-07
vn 0 0 0
vn -0.4261754 0.7014163 0.5713055
vn -0.4261753 0.7014163 0.5713055
vn -0.4261754 0.7014164 0.5713055
vn -0.8546174 -0.5192583 -3.521063E-07
vn -0.8546174 -0.5192583 -3.521063E-07
vn 0.4371636 -0.7195023 0.5396338
vn 0.4371635 -0.7195022 0.5396338
vn 0.4371636 -0.7195023 0.5396338
vn 0.4371636 -0.7195023 0.5396338
vn 0.4371636 -0.7195023 0.5396338
vn 0.4371636 -0.7195023 0.5396338
vn 0.4371636 -0.7195023 0.5396338
vn 0.4371636 -0.7195023 0.5396338
vn 0.4371636 -0.7195023 0.5396338
vn 0.8546172 0.5192586 1.192093E-07
vn 0.8546172 0.5192586 1.192093E-07
vn 0.8546172 0.5192586 1.192093E-07
vn 0.8546172 0.5192586 1.192093E-07
vn 0.8546172 0.5192586 1.192093E-07
vn 0.8546172 0.5192586 1.192093E-07
vn 0.8546172 0.5192586 1.192093E-07
vn 0.8546172 0.5192586 1.192093E-07
vn 0.8546172 0.5192586 1.192093E-07
vn 0.8546172 0.5192586 1.192093E-07
vn 0.8546172 0.5192586 1.192093E-07
vn 0.8546172 0.5192586 1.192093E-07
vn 0.8546172 0.5192586 1.192093E-07
vn 0.8546172 0.5192586 1.192093E-07
vn 0.8546172 0.5192586 1.192093E-07
vn 0.8546172 0.5192586 1.192093E-07
vn 0.8546172 0.5192586 1.192093E-07
vn 0.8546172 0.5192586 1.192093E-07
vn 0.8546172 0.5192586 1.192093E-07
vn 0.8546172 0.5192586 1.192093E-07
vn 0.8546172 0.5192586 1.192093E-07
vn 0.8546172 0.5192586 1.192093E-07
vn 0.8546172 0.5192586 1.192093E-07
vn 0.8546172 0.5192586 1.192093E-07
vn 0.8546172 0.5192586 1.192093E-07
vn 0.8546172 0.5192586 1.192093E-07
vn 0.8546172 0.5192586 1.192093E-07
vn 0.8546172 0.5192586 1.192093E-07
vn 0.8546172 0.5192586 1.192093E-07
vn 0.8546172 0.5192586 1.192093E-07
vn 0.8546172 0.5192586 1.192093E-07
vn 0.8546172 0.5192586 1.192093E-07
vn 0.8546172 0.5192586 1.192093E-07
vn 0.8546172 0.5192586 1.192093E-07
vn 0.8546172 0.5192586 1.192093E-07
vn 0.8546172 0.5192586 1.192093E-07
vn 0.8546172 0.5192586 1.192093E-07
vn 0.8546172 0.5192586 1.192093E-07
vn 0.09158508 -0.1507334 -0.984323
vn -0.04056023 0.06675672 -0.9969445
vn -0.1793198 0.2951328 -0.9384781
vn 0.09158503 -0.1507334 -0.9843228
vn -0.3947299 0.6496634 -0.6497122
vn -0.4713806 0.7758179 -0.4194129
vn -0.5111181 0.8412194 -0.1763757
vn -0.5111181 0.8412194 -0.1763757
vn 0.09158505 -0.1507335 -0.9843229
vn 0.4371636 -0.7195023 0.5396338
vn 0.4371636 -0.7195023 0.5396338
vn 0.4371636 -0.7195023 0.5396338
vn 0.4371636 -0.7195023 0.5396338
vn 0.4371636 -0.7195023 0.5396338
vn 0.4371636 -0.7195023 0.5396338
vn 0.4371636 -0.7195023 0.5396338
vn 0.4371635 -0.7195022 0.5396338
vn -0.4477059 0.3462894 0.8244048
vn -0.854617 -0.5192589 -7.394864E-07
vn -0.8546172 -0.5192584 -2.356578E-07
vn -0.8546173 -0.5192584 -3.392593E-07
vn -0.8546173 -0.5192584 -2.356578E-07
vn -0.8546173 -0.5192584 -2.356578E-07
vn -0.8546172 -0.5192586 -4.443505E-07
vn -0.8546172 -0.5192586 -4.443506E-07
vn -0.8546172 -0.5192586 -4.443503E-07
vn -0.8546172 -0.5192586 -4.443506E-07
vn -0.8546172 -0.5192586 -4.443506E-07
vn -0.8546171 -0.5192586 -4.443505E-07
vn -0.8546172 -0.5192586 -4.443499E-07
vn -0.8546171 -0.5192586 -4.443511E-07
vn -0.8546173 -0.5192584 -3.90803E-07
vn -0.8546174 -0.5192584 -2.838924E-07
vn -0.8546173 -0.5192584 -3.903146E-07
vn -0.8546173 -0.5192584 -3.903151E-07
vn -0.8546173 -0.5192584 -3.903158E-07
vn -0.8546173 -0.5192584 -3.903154E-07
vn -0.8546173 -0.5192584 -3.903153E-07
vn -0.8546173 -0.5192584 -3.903153E-07
vn -0.8546173 -0.5192584 -3.903147E-07
vn -0.8546174 -0.5192583 -1.987793E-07
vn -0.8546174 -0.5192583 -1.774697E-07
vn -0.8546174 -0.5192583 -1.774695E-07
vn -0.8546174 -0.5192583 -1.774699E-07
vn -0.8546174 -0.5192583 -1.77469E-07
vn -0.8546174 -0.5192583 -1.774694E-07
vn -0.8546174 -0.5192583 -1.774697E-07
vn -0.8546174 -0.5192584 -1.513501E-07
vn -0.8546174 -0.5192583 6.950427E-08
vn -0.8546174 -0.5192583 6.950447E-08
vn -0.8546174 -0.5192583 6.950484E-08
vn -0.8546174 -0.5192583 6.949764E-08
vn -0.8546174 -0.5192583 6.950558E-08
vn -0.8546174 -0.5192583 6.950503E-08
vn -0.8546174 -0.5192583 6.950355E-08
vn -0.8546173 -0.5192583 6.950238E-08
vn -0.8546173 -0.5192584 -2.356578E-07
vn -0.8546173 -0.5192584 -2.356578E-07
vn -0.8546172 -0.5192584 -2.356578E-07

f 1//1 2//2 3//3
f 4//4 1//1 3//3
f 3//3 5//5 4//4
f 3//3 6//6 5//5
f 5//5 6//6 7//7
f 8//8 7//7 6//6
f 9//9 8//8 6//6
f 10//10 9//9 6//6
f 9//9 10//10 11//11
f 11//11 10//10 12//12
f 13//13 11//11 12//12
f 13//13 12//12 14//14
f 13//13 14//14 15//15
f 15//15 14//14 16//16
f 15//15 16//16 17//17
f 18//18 17//17 16//16
f 19//19 17//17 18//18
f 19//19 18//18 20//20
f 21//21 19//19 20//20
f 22//22 19//19 21//21
f 22//22 21//21 23//23
f 24//24 22//22 23//23
f 24//24 23//23 25//25
f 26//26 24//24 25//25
f 26//26 25//25 27//27
f 28//28 26//26 27//27
f 28//28 27//27 29//29
f 29//29 27//27 30//30
f 31//31 29//29 30//30
f 31//31 30//30 32//32
f 33//33 31//31 32//32
f 33//33 32//32 34//34
f 35//35 33//33 34//34
f 35//35 34//34 36//36
f 37//37 35//35 36//36
f 37//37 36//36 38//38
f 39//39 37//37 38//38
f 39//39 38//38 40//40
f 41//41 39//39 40//40
f 41//41 40//40 42//42
f 41//41 42//42 43//43
f 43//43 42//42 44//44
f 45//45 43//43 44//44
f 45//45 44//44 46//46
f 47//47 45//45 46//46
f 48//48 45//45 47//47
f 48//48 47//47 49//49
f 50//50 48//48 49//49
f 50//50 49//49 51//51
f 52//52 50//50 51//51
f 52//52 51//51 53//53
f 54//54 52//52 53//53
f 55//55 54//54 53//53
f 55//55 53//53 56//56
f 55//55 56//56 57//57
f 57//57 56//56 58//58
f 57//57 58//58 59//59
f 59//59 58//58 60//60
f 59//59 60//60 61//61
f 61//61 60//60 62//62
f 61//61 62//62 63//63
f 63//63 62//62 64//64
f 63//63 64//64 65//65
f 65//65 64//64 66//66
f 65//65 66//66 67//67
f 68//68 67//67 66//66
f 69//69 67//67 68//68
f 69//69 68//68 70//70
f 71//71 69//69 70//70
f 72//72 71//71 73//73
f 74//74 75//75 76//76
f 77//77 74//74 76//76
f 75//75 77//77 76//76
f 78//78 75//75 74//74
f 79//79 75//75 78//78
f 78//78 74//74 80//80
f 81//81 78//78 80//80
f 82//82 78//78 81//81
f 82//82 83//83 78//78
f 83//83 84//84 79//79
f 84//84 85//85 79//79
f 80//80 74//74 86//86
f 87//87 80//80 86//86
f 81//81 80//80 87//87
f 86//86 74//74 88//88
f 88//88 74//74 77//77
f 86//86 88//88 89//89
f 90//90 86//86 89//89
f 87//87 86//86 90//90
f 75//75 91//91 77//77
f 90//90 89//89 92//92
f 90//90 92//92 93//93
f 94//94 90//90 93//93
f 95//95 83//83 82//82
f 95//95 82//82 81//81
f 95//95 81//81 87//87
f 95//95 87//87 90//90
f 95//95 96//96 83//83
f 97//97 91//91 75//75
f 97//97 98//98 91//91
f 97//97 99//99 98//98
f 100//100 95//95 101//101
f 102//102 103//103 104//104
f 102//102 104//104 105//105
f 102//102 105//105 106//106
f 106//106 105//105 107//107
f 108//108 102//102 106//106
f 109//109 102//102 108//108
f 110//110 108//108 106//106
f 111//111 112//112 113//113
f 111//111 113//113 114//114
f 111//111 114//114 115//115
f 111//111 115//115 116//116
f 111//111 116//116 117//117
f 117//117 118//118 111//111
f 118//118 119//119 111//111
f 120//120 111//111 119//119
f 120//120 121//121 111//111
f 121//121 122//122 111//111
f 111//111 122//122 123//123
f 114//114 113//113 124//124
f 124//124 113//113 125//125
f 125//125 113//113 126//126
f 126//126 113//113 127//127
f 127//127 113//113 128//128
f 128//128 113//113 129//129
f 129//129 113//113 130//130
f 130//130 113//113 131//131
f 131//131 113//113 132//132
f 132//132 113//113 133//133
f 133//133 113//113 134//134
f 133//133 134//134 135//135
f 135//135 134//134 136//136
f 134//134 137//137 136//136
f 137//137 134//134 138//138
f 138//138 134//134 139//139
f 139//139 134//134 140//140
f 140//140 134//134 141//141
f 134//134 142//142 141//141
f 134//134 143//143 142//142
f 134//134 144//144 143//143
f 144//144 134//134 145//145
f 145//145 134//134 146//146
f 147//147 134//134 148//148
f 149//149 150//150 151//151
f 149//149 152//152 150//150
f 151//151 150//150 153//153
f 151//151 153//153 154//154
f 154//154 153//153 155//155
f 154//154 155//155 156//156
f 152//152 157//157 150//150
f 158//158 159//159 160//160
f 161//161 159//159 158//158
f 162//162 159//159 161//161
f 163//163 162//162 161//161
f 164//164 162//162 163//163
f 165//165 162//162 164//164
f 9//9 166//166 8//8
f 166//166 9//9 167//167
f 168//168 169//169 170//170
f 168//168 171//171 169//169
f 172//172 169//169 173//173
f 174//174 169//169 172//172
f 169//169 174//174 175//175
f 176//176 169//169 175//175
f 177//177 169//169 176//176
f 178//178 169//169 177//177
f 178//178 179//179 169//169
f 179//179 180//180 169//169
f 180//180 181//181 169//169
f 182//182 181//181 180//180
f 182//182 183//183 181//181
f 183//183 184//184 181//181
f 184//184 185//185 181//181
f 185//185 186//186 181//181
f 186//186 187//187 181//181
f 187//187 188//188 181//181
f 188//188 189//189 181//181
f 181//181 189//189 190//190
f 181//181 190//190 191//191
f 192//192 181//181 191//191
f 193//193 181//181 192//192
f 194//194 181//181 193//193
f 195//195 181//181 194//194
f 195//195 196//196 181//181
f 196//196 197//197 198//198
f 196//196 198//198 199//199
f 199//199 200//200 196//196
f 196//196 200//200 201//201
f 201//201 202//202 196//196
f 196//196 202//202 203//203
f 196//196 203//203 204//204
f 205//205 196//196 206//206
f 207//207 196//196 205//205
