v 1.073234 -91.65405 112.7351
v 2.251919 -77.37074 121.5927
v 1.073234 -91.65405 112.7351
v 1.073232 -91.65405 112.7351
v -2.487958 -91.38739 112.779
v -3.912436 -91.28073 112.7966
v -3.912436 -91.28073 112.7966
v -2.73375 -76.99743 121.6541
v -1.555066 -62.71412 130.5117
v -4.013143 -91.39336 112.9916
v -2.461421 -63.72776 132.2669
v -4.025656 -91.40735 113.0158
v -2.574049 -63.85372 132.485
v -4.029169 -91.41129 113.0226
v -2.605669 -63.88908 132.5462
v -4.068655 -91.45544 113.0991
v -2.961049 -64.28652 133.2344
v -4.555493 -91.99991 114.0418
v -3.015141 -64.34702 133.3391
v -5.017078 -92.51613 114.9357
v -5.070178 -92.57552 115.0385
v -3.072329 -64.41098 133.4499
v -5.180931 -92.69937 115.253
v -3.084635 -64.42474 133.4737
v -5.474636 -93.02785 115.8217
v -3.117269 -64.46124 133.5369
v -5.664403 -93.0547 115.8903
v -4.162203 -64.60915 133.9145
v -4.825154 -64.70299 134.154
v -5.711487 -93.06137 115.9073
v -5.248904 -64.76297 134.3071
v -5.725498 -93.06335 115.9124
v -5.375013 -64.78082 134.3527
v -5.831399 -93.07835 115.9507
v -6.32813 -64.91573 134.6971
v -7.046372 -93.25032 116.3897
v -6.463127 -64.93484 134.7458
v -8.050131 -93.3924 116.7523
v -6.574656 -64.95063 134.7861
v -9.042261 -93.53284 117.1108
v -6.684893 -64.96623 134.826
v -9.149748 -93.50096 117.0737
v -7.652273 -64.67935 134.4921
v -9.390579 -93.42955 116.9906
v -9.819754 -64.03659 133.744
v -10.06246 -93.2303 116.7587
v -10.33116 -93.15062 116.666
v -9.924263 -64.00559 133.708
v -11.24737 -92.87891 116.3498
v -10.02606 -63.97541 133.6728
v -12.00177 -92.6552 116.0894
v -10.10989 -63.95055 133.6439
v -12.52544 -92.4999 115.9087
v -10.16807 -63.9333 133.6238
v -10.16807 -63.93329 133.6238
v -12.60617 -92.38307 115.731
v -10.89464 -62.88179 132.0249
v -12.62993 -92.34868 115.6787
v -11.1085 -62.5723 131.5543
v -12.63236 -92.34517 115.6734
v -11.13033 -62.5407 131.5062
v -12.63348 -92.34354 115.6709
v -11.14046 -62.52605 131.484
v -12.6349 -92.34148 115.6678
v -11.15325 -62.50753 131.4558
v -12.66127 -92.30332 115.6097
v -11.39057 -62.16408 130.9335
v -13.88377 -90.53411 112.9195
v -11.52641 -61.9675 130.6346
v -13.88377 -90.53411 112.9195
v -11.52641 -61.9675 130.6346
v -13.88377 -90.53411 112.9195
v -13.88377 -90.53411 112.9195
v -15.30825 -90.42744 112.937
v -18.86944 -90.1608 112.9809
v -18.86944 -90.1608 112.9809
v -18.86944 -90.1608 112.9809
v -13.88377 -90.53411 112.9195
v -13.88377 -90.53411 112.9195
v -13.88377 -90.53411 112.9195
v -11.52641 -61.9675 130.6346
v -11.52641 -61.9675 130.6346
v -11.52641 -61.9675 130.6346
v -13.88377 -90.53411 112.9195
v -16.15277 -94.09238 118.9593
v -13.88377 -90.53411 112.9195
v -11.52641 -61.9675 130.6346
v -13.88377 -90.53411 112.9195
v -12.70509 -76.2508 121.7771
v -11.52641 -61.9675 130.6346
v -17.69076 -75.87749 121.8385
v -11.52641 -61.96751 130.6346
v -11.52641 -61.9675 130.6346
v -12.95088 -61.86084 130.6522
v -13.79541 -65.52578 136.6745
v -11.52641 -61.9675 130.6346
v -16.15277 -94.09238 118.9593
v -16.51207 -61.59419 130.6961
v -13.79541 -65.52578 136.6745
v -10.16807 -63.93329 133.6238
v -10.16807 -63.9333 133.6238
v 2.251919 -77.37074 121.5927
v 1.073234 -91.65405 112.7351
v 1.073232 -91.65405 112.7351
v -2.487958 -91.38739 112.779
v -2.73375 -76.99743 121.6541
v -3.912436 -91.28073 112.7966
v 0.510066 -62.86876 130.4863
v 3.430603 -63.08743 130.4503
v -1.555066 -62.71412 130.5117
v 1.073234 -91.65405 112.7351
v -2.051172 -95.14827 118.7855
v -9.186419 -96.15826 121.3636
v -5.474636 -93.02785 115.8217
v -5.180931 -92.69937 115.253
v -5.070178 -92.57552 115.0385
v -5.017078 -92.51613 114.9357
v -4.555493 -91.99991 114.0418
v -4.068655 -91.45544 113.0991
v -4.029169 -91.41129 113.0226
v -4.025656 -91.40735 113.0158
v -4.013143 -91.39336 112.9916
v -3.912436 -91.28073 112.7966
v -5.664403 -93.0547 115.8903
v -5.711487 -93.06137 115.9073
v -5.725498 -93.06335 115.9124
v -5.831399 -93.07835 115.9507
v -7.046372 -93.25032 116.3897
v -8.050131 -93.3924 116.7523
v -9.042261 -93.53284 117.1108
v -9.149748 -93.50096 117.0737
v -9.390579 -93.42955 116.9906
v -10.06246 -93.2303 116.7587
v -16.15277 -94.09238 118.9593
v -10.33116 -93.15062 116.666
v -11.24737 -92.87891 116.3498
v -12.00177 -92.6552 116.0894
v -12.52544 -92.4999 115.9087
v -12.60617 -92.38307 115.731
v -12.62993 -92.34868 115.6787
v -12.63236 -92.34517 115.6734
v -12.63348 -92.34354 115.6709
v -12.6349 -92.34148 115.6678
v -12.66127 -92.30332 115.6097
v -13.88377 -90.53411 112.9195
v -13.88377 -90.53411 112.9195
v -13.88377 -90.53411 112.9195
v -18.86944 -90.1608 112.9809
v 1.073234 -91.65405 112.7351
v 0.3061972 -66.58167 136.5006
v -2.051172 -95.14827 118.7855
v 2.251919 -77.37074 121.5927
v -6.82905 -67.59165 139.0788
v -9.186419 -96.15826 121.3636
v -13.79541 -65.52578 136.6745
v -16.15277 -94.09238 118.9593
v 3.430603 -63.08743 130.4503
v -18.86944 -90.1608 112.9809
v -12.70509 -76.2508 121.7771
v -13.88377 -90.53411 112.9195
v -17.69076 -75.87749 121.8385
v -11.52641 -61.96751 130.6346
v -16.51207 -61.59419 130.6961
v -12.95088 -61.86084 130.6522
v -11.52641 -61.9675 130.6346
v -1.555066 -62.71412 130.5117
v 0.3061972 -66.58167 136.5006
v 0.510066 -62.86876 130.4863
v 0.3061972 -66.58167 136.5006
v 3.430603 -63.08743 130.4503
v -1.555066 -62.71412 130.5117
v -2.461421 -63.72776 132.2669
v -1.555066 -62.71412 130.5117
v -2.574049 -63.85372 132.485
v -2.605669 -63.88908 132.5462
v -2.961049 -64.28652 133.2344
v -3.015141 -64.34702 133.3391
v -3.072329 -64.41098 133.4499
v -3.084635 -64.42474 133.4737
v -3.117269 -64.46124 133.5369
v -6.82905 -67.59165 139.0788
v -4.162203 -64.60915 133.9145
v -4.825154 -64.70299 134.154
v -5.248904 -64.76297 134.3071
v -5.375013 -64.78082 134.3527
v -6.32813 -64.91573 134.6971
v -6.463127 -64.93484 134.7458
v -6.574656 -64.95063 134.7861
v -6.684893 -64.96623 134.826
v -7.652273 -64.67935 134.4921
v -9.819754 -64.03659 133.744
v -9.924263 -64.00559 133.708
v -10.02606 -63.97541 133.6728
v -10.10989 -63.95055 133.6439
v -10.16807 -63.9333 133.6238
v -13.79541 -65.52578 136.6745
v -10.16807 -63.93329 133.6238
v -10.89464 -62.88179 132.0249
v -11.1085 -62.5723 131.5543
v -11.13033 -62.5407 131.5062
v -11.14046 -62.52605 131.484
v -11.15325 -62.50753 131.4558
v -11.39057 -62.16408 130.9335
v -11.52641 -61.9675 130.6346
v -12.95088 -61.86084 130.6522
v -11.52641 -61.9675 130.6346
v -16.51207 -61.59419 130.6961

vn 0.9971331 -0.07466274 -0.01229242
vn 0.9971331 -0.0746626 -0.01229234
vn 0.711551 -0.6084086 -0.3514742
vn -0.0699593 -0.847769 -0.5257313
vn -0.0699593 -0.847769 -0.5257313
vn -0.9101956 0.2699222 -0.3141433
vn -0.9970053 -0.04598041 -0.06218082
vn -0.2089713 0.527784 -0.8232709
vn -0.9101974 0.2699203 -0.3141395
vn -0.9101979 0.2699199 -0.3141389
vn -0.9101976 0.2699201 -0.3141391
vn -0.9101973 0.2699206 -0.3141399
vn -0.9101967 0.2699212 -0.3141407
vn -0.9101992 0.269918 -0.3141364
vn -0.910198 0.2699195 -0.3141385
vn -0.9101978 0.2699198 -0.3141389
vn -0.910198 0.2699198 -0.3141388
vn -0.9101979 0.2699197 -0.3141387
vn -0.9101978 0.2699198 -0.3141389
vn -0.910198 0.2699197 -0.3141386
vn -0.9101974 0.2699202 -0.3141395
vn -0.9101968 0.2699209 -0.3141408
vn -0.9101977 0.2699199 -0.3141391
vn -0.9101981 0.2699195 -0.3141384
vn -0.8382114 0.3356932 -0.4297813
vn -0.3927818 0.5078595 -0.7666818
vn -0.3549475 0.5136869 -0.7811133
vn -0.3549483 0.5136867 -0.781113
vn -0.3549486 0.5136867 -0.781113
vn -0.3549506 0.5136863 -0.7811124
vn -0.3549518 0.513686 -0.7811119
vn -0.3549533 0.5136856 -0.7811115
vn -0.3549507 0.5136862 -0.7811123
vn -0.3549496 0.5136865 -0.7811126
vn -0.3549491 0.5136867 -0.7811128
vn -0.3549489 0.5136867 -0.7811127
vn -0.35495 0.5136865 -0.7811124
vn -0.3549494 0.5136866 -0.7811127
vn -0.3549483 0.5136868 -0.781113
vn -0.292819 0.5212584 -0.8015901
vn 0.3472808 0.4733565 -0.8095245
vn 0.4082216 0.4565428 -0.7905211
vn 0.4082226 0.4565426 -0.7905208
vn 0.4082233 0.4565424 -0.7905206
vn 0.4082232 0.4565424 -0.7905205
vn 0.4082228 0.4565425 -0.7905207
vn 0.4082223 0.4565425 -0.7905209
vn 0.4082228 0.4565425 -0.7905208
vn 0.4082224 0.4565426 -0.790521
vn 0.4082227 0.4565424 -0.7905208
vn 0.4082227 0.4565425 -0.7905208
vn 0.4082223 0.4565426 -0.7905209
vn 0.5795861 0.3943979 -0.7131131
vn 0.4082011 0.4565488 -0.7905282
vn 0.932264 0.1319621 -0.3368529
vn 0.9322643 0.1319615 -0.3368518
vn 0.9322646 0.1319613 -0.3368515
vn 0.932265 0.1319608 -0.3368505
vn 0.9322643 0.1319617 -0.3368522
vn 0.9322638 0.1319623 -0.3368536
vn 0.9322627 0.1319634 -0.3368559
vn 0.9322462 0.1319819 -0.3368942
vn 0.9322566 0.1319704 -0.3368701
vn 0.932267 0.1319586 -0.3368461
vn 0.9322655 0.1319603 -0.3368495
vn 0.9322643 0.1319615 -0.3368519
vn 0.9322641 0.1319618 -0.3368524
vn 0.9322641 0.131962 -0.3368526
vn 0.9322623 0.1319646 -0.3368565
vn 0.8596308 0.2161481 -0.4629417
vn 0.9971331 -0.07466244 -0.01229224
vn 0.9971331 -0.07466244 -0.01229224
vn 0.9971331 -0.07466244 -0.01229224
vn -0.0699593 -0.847769 -0.5257313
vn -0.9322643 -0.1319615 0.3368522
vn -0.0699593 -0.847769 -0.5257313
vn -0.1010009 0.5303342 -0.8417509
vn 0.5944054 -0.6931276 -0.4077454
vn 0.5039316 -0.7425042 -0.4412942
vn 0.9896426 -0.1347069 -0.04961386
vn 0.9971331 -0.07466244 -0.01229224
vn 0.9971331 -0.07466244 -0.01229224
vn 0.9971331 -0.07466244 -0.01229224
vn 0.9846234 -0.1615878 -0.06637858
vn -0.0699593 -0.847769 -0.5257313
vn 0.9961674 -0.08538888 -0.01895357
vn 0.9971331 -0.07466244 -0.01229224
vn 0.9772176 -0.1938047 -0.0865183
vn 0.9971329 -0.07466593 -0.0122866
vn 0.9995344 -0.02362946 0.01930112
vn -0.9322642 -0.1319616 0.3368522
vn 0.9971324 -0.07467486 -0.01227213
vn 0.06996622 0.8477685 0.5257311
vn 0.0699593 0.847769 0.5257313
vn 0.06995928 0.8477688 0.5257316
vn 0 0 0
vn -0.9322643 -0.1319616 0.3368523
vn -0.9322643 -0.1319617 0.3368522
vn -0.9322643 -0.1319616 0.3368523
vn 0.06995928 0.8477688 0.5257316
vn 0.06995928 0.8477688 0.5257316
vn 0.02883141 0.5250841 -0.8505618
vn 0.02883141 0.5250841 -0.8505617
vn 0.02883141 0.5250841 -0.8505618
vn 0.02883141 0.5250841 -0.8505618
vn 0.02883141 0.5250841 -0.8505618
vn 0.02883141 0.5250841 -0.8505618
vn 0.02883141 0.5250841 -0.8505618
vn 0.02883141 0.5250841 -0.8505618
vn 0.02883141 0.5250841 -0.8505618
vn -0.0699593 -0.847769 -0.5257313
vn -0.0699593 -0.847769 -0.5257313
vn -0.0699593 -0.847769 -0.5257313
vn -0.0699593 -0.847769 -0.5257313
vn -0.0699593 -0.847769 -0.5257313
vn -0.0699593 -0.847769 -0.5257313
vn -0.0699593 -0.847769 -0.5257313
vn -0.0699593 -0.847769 -0.5257313
vn -0.0699593 -0.847769 -0.5257313
vn -0.0699593 -0.847769 -0.5257313
vn -0.0699593 -0.847769 -0.5257313
vn -0.0699593 -0.847769 -0.5257313
vn -0.0699593 -0.847769 -0.5257313
vn -0.06995929 -0.847769 -0.5257312
vn -0.0699593 -0.847769 -0.5257313
vn -0.0699593 -0.847769 -0.5257313
vn -0.06995929 -0.847769 -0.5257312
vn -0.0699593 -0.847769 -0.5257313
vn -0.0699593 -0.847769 -0.5257313
vn -0.0699593 -0.847769 -0.5257313
vn -0.06995929 -0.847769 -0.5257312
vn -0.0699593 -0.847769 -0.5257313
vn -0.0699593 -0.847769 -0.5257313
vn -0.0699593 -0.847769 -0.5257313
vn -0.0699593 -0.847769 -0.5257313
vn -0.0699593 -0.847769 -0.5257313
vn -0.0699593 -0.847769 -0.5257313
vn -0.0699593 -0.847769 -0.5257313
vn -0.0699593 -0.847769 -0.5257313
vn -0.0699593 -0.847769 -0.5257313
vn -0.0699593 -0.847769 -0.5257313
vn -0.06995929 -0.847769 -0.5257312
vn -0.0699593 -0.847769 -0.5257313
vn -0.06995929 -0.847769 -0.5257312
vn -0.06995929 -0.847769 -0.5257312
vn -0.0699593 -0.847769 -0.5257313
vn -0.06995929 -0.847769 -0.5257312
vn -0.06995929 -0.847769 -0.5257312
vn 0.9101977 -0.2699201 0.3141392
vn 0.7774829 -0.3765376 0.5037259
vn 0.5790334 -0.4636614 0.6706254
vn 0.9101975 -0.2699201 0.3141392
vn 0.107821 -0.5303614 0.8408873
vn -0.1649419 -0.5099377 0.8442498
vn -0.4082229 -0.4565424 0.7905207
vn -0.4082229 -0.4565424 0.7905208
vn 0.9101977 -0.26992 0.3141391
vn 0.02883141 0.5250841 -0.8505618
vn 0.02883141 0.5250841 -0.8505618
vn 0.02883141 0.5250841 -0.8505618
vn 0.02883141 0.5250841 -0.8505618
vn 0.02883141 0.5250841 -0.8505618
vn 0.02883141 0.5250841 -0.8505618
vn 0.02883141 0.5250841 -0.8505618
vn 0.02883141 0.5250841 -0.8505617
vn -0.9622242 0.245041 0.1186567
vn 0.06996004 0.847769 0.5257313
vn 0.06995929 0.8477688 0.5257314
vn 0.0699594 0.8477689 0.5257314
vn 0.06995929 0.8477689 0.5257314
vn 0.06995929 0.8477689 0.5257314
vn 0.0699596 0.8477689 0.5257314
vn 0.0699596 0.8477689 0.5257314
vn 0.0699596 0.8477689 0.5257314
vn 0.0699596 0.8477689 0.5257314
vn 0.0699596 0.8477689 0.5257314
vn 0.0699596 0.8477688 0.5257313
vn 0.0699596 0.8477689 0.5257314
vn 0.0699596 0.8477688 0.5257313
vn 0.06995942 0.8477688 0.5257315
vn 0.06995929 0.8477688 0.5257315
vn 0.06995942 0.8477688 0.5257315
vn 0.06995942 0.8477688 0.5257315
vn 0.06995942 0.8477688 0.5257315
vn 0.06995942 0.8477688 0.5257315
vn 0.06995942 0.8477688 0.5257315
vn 0.06995942 0.8477688 0.5257315
vn 0.06995942 0.8477688 0.5257315
vn 0.06995919 0.8477688 0.5257315
vn 0.06995916 0.8477688 0.5257315
vn 0.06995916 0.8477688 0.5257315
vn 0.06995916 0.8477688 0.5257315
vn 0.06995916 0.8477688 0.5257315
vn 0.06995916 0.8477688 0.5257315
vn 0.06995916 0.8477688 0.5257315
vn 0.06995918 0.8477689 0.5257314
vn 0.06995899 0.847769 0.5257314
vn 0.06995899 0.847769 0.5257314
vn 0.06995899 0.847769 0.5257314
vn 0.06995899 0.847769 0.5257314
vn 0.06995899 0.847769 0.5257314
vn 0.06995899 0.847769 0.5257314
vn 0.06995899 0.847769 0.5257314
vn 0.06995898 0.8477689 0.5257313
vn 0.06995929 0.8477689 0.5257314
vn 0.06995929 0.8477689 0.5257314
vn 0.06995929 0.8477688 0.5257314

f 1//1 2//2 3//3
f 4//4 1//1 3//3
f 3//3 5//5 4//4
f 3//3 6//6 5//5
f 5//5 6//6 7//7
f 8//8 7//7 6//6
f 9//9 8//8 6//6
f 10//10 9//9 6//6
f 9//9 10//10 11//11
f 11//11 10//10 12//12
f 13//13 11//11 12//12
f 13//13 12//12 14//14
f 13//13 14//14 15//15
f 15//15 14//14 16//16
f 15//15 16//16 17//17
f 18//18 17//17 16//16
f 19//19 17//17 18//18
f 19//19 18//18 20//20
f 21//21 19//19 20//20
f 22//22 19//19 21//21
f 22//22 21//21 23//23
f 24//24 22//22 23//23
f 24//24 23//23 25//25
f 26//26 24//24 25//25
f 26//26 25//25 27//27
f 28//28 26//26 27//27
f 28//28 27//27 29//29
f 29//29 27//27 30//30
f 31//31 29//29 30//30
f 31//31 30//30 32//32
f 33//33 31//31 32//32
f 33//33 32//32 34//34
f 35//35 33//33 34//34
f 35//35 34//34 36//36
f 37//37 35//35 36//36
f 37//37 36//36 38//38
f 39//39 37//37 38//38
f 39//39 38//38 40//40
f 41//41 39//39 40//40
f 41//41 40//40 42//42
f 41//41 42//42 43//43
f 43//43 42//42 44//44
f 45//45 43//43 44//44
f 45//45 44//44 46//46
f 47//47 45//45 46//46
f 48//48 45//45 47//47
f 48//48 47//47 49//49
f 50//50 48//48 49//49
f 50//50 49//49 51//51
f 52//52 50//50 51//51
f 52//52 51//51 53//53
f 54//54 52//52 53//53
f 55//55 54//54 53//53
f 55//55 53//53 56//56
f 55//55 56//56 57//57
f 57//57 56//56 58//58
f 57//57 58//58 59//59
f 59//59 58//58 60//60
f 59//59 60//60 61//61
f 61//61 60//60 62//62
f 61//61 62//62 63//63
f 63//63 62//62 64//64
f 63//63 64//64 65//65
f 65//65 64//64 66//66
f 65//65 66//66 67//67
f 68//68 67//67 66//66
f 69//69 67//67 68//68
f 69//69 68//68 70//70
f 71//71 69//69 70//70
f 72//72 71//71 73//73
f 74//74 75//75 76//76
f 77//77 74//74 76//76
f 75//75 77//77 76//76
f 78//78 75//75 74//74
f 79//79 75//75 78//78
f 78//78 74//74 80//80
f 81//81 78//78 80//80
f 82//82 78//78 81//81
f 82//82 83//83 78//78
f 83//83 84//84 79//79
f 84//84 85//85 79//79
f 80//80 74//74 86//86
f 87//87 80//80 86//86
f 81//81 80//80 87//87
f 86//86 74//74 88//88
f 88//88 74//74 77//77
f 86//86 88//88 89//89
f 90//90 86//86 89//89
f 87//87 86//86 90//90
f 75//75 91//91 77//77
f 90//90 89//89 92//92
f 90//90 92//92 93//93
f 94//94 90//90 93//93
f 95//95 83//83 82//82
f 95//95 82//82 81//81
f 95//95 81//81 87//87
f 95//95 87//87 90//90
f 95//95 96//96 83//83
f 97//97 91//91 75//75
f 97//97 98//98 91//91
f 97//97 99//99 98//98
f 100//100 95//95 101//101
f 102//102 103//103 104//104
f 102//102 104//104 105//105
f 102//102 105//105 106//106
f 106//106 105//105 107//107
f 108//108 102//102 106//106
f 109//109 102//102 108//108
f 110//110 108//108 106//106
f 111//111 112//112 113//113
f 111//111 113//113 114//114
f 111//111 114//114 115//115
f 111//111 115//115 116//116
f 111//111 116//116 117//117
f 117//117 118//118 111//111
f 118//118 119//119 111//111
f 120//120 111//111 119//119
f 120//120 121//121 111//111
f 121//121 122//122 111//111
f 111//111 122//122 123//123
f 114//114 113//113 124//124
f 124//124 113//113 125//125
f 125//125 113//113 126//126
f 126//126 113//113 127//127
f 127//127 113//113 128//128
f 128//128 113//113 129//129
f 129//129 113//113 130//130
f 130//130 113//113 131//131
f 131//131 113//113 132//132
f 132//132 113//113 133//133
f 133//133 113//113 134//134
f 133//133 134//134 135//135
f 135//135 134//134 136//136
f 134//134 137//137 136//136
f 137//137 134//134 138//138
f 138//138 134//134 139//139
f 139//139 134//134 140//140
f 140//140 134//134 141//141
f 134//134 142//142 141//141
f 134//134 143//143 142//142
f 134//134 144//144 143//143
f 144//144 134//134 145//145
f 145//145 134//134 146//146
f 147//147 134//134 148//148
f 149//149 150//150 151//151
f 149//149 152//152 150//150
f 151//151 150//150 153//153
f 151//151 153//153 154//154
f 154//154 153//153 155//155
f 154//154 155//155 156//156
f 152//152 157//157 150//150
f 158//158 159//159 160//160
f 161//161 159//159 158//158
f 162//162 159//159 161//161
f 163//163 162//162 161//161
f 164//164 162//162 163//163
f 165//165 162//162 164//164
f 9//9 166//166 8//8
f 166//166 9//9 167//167
f 168//168 169//169 170//170
f 168//168 171//171 169//169
f 172//172 169//169 173//173
f 174//174 169//169 172//172
f 169//169 174//174 175//175
f 176//176 169//169 175//175
f 177//177 169//169 176//176
f 178//178 169//169 177//177
f 178//178 179//179 169//169
f 179//179 180//180 169//169
f 180//180 181//181 169//169
f 182//182 181//181 180//180
f 182//182 183//183 181//181
f 183//183 184//184 181//181
f 184//184 185//185 181//181
f 185//185 186//186 181//181
f 186//186 187//187 181//181
f 187//187 188//188 181//181
f 188//188 189//189 181//181
f 181//181 189//189 190//190
f 181//181 190//190 191//191
f 192//192 181//181 191//191
f 193//193 181//181 192//192
f 194//194 181//181 193//193
f 195//195 181//181 194//194
f 195//195 196//196 181//181
f 196//196 197//197 198//198
f 196//196 198//198 199//199
f 199//199 200//200 196//196
f 196//196 200//200 201//201
f 201//201 202//202 196//196
f 196//196 202//202 203//203
f 196//196 203//203 204//204
f 205//205 196//196 206//206
f 207//207 196//196 205//205
