v 59.40709 -75.31707 -108.6391
v 76.73138 -71.22736 -97.63776
v 59.40709 -75.31707 -108.6391
v 59.40709 -75.31708 -108.6391
v 58.83424 -78.23024 -106.654
v 58.6051 -79.3955 -105.86
v 58.6051 -79.3955 -105.86
v 75.92939 -75.30579 -94.85869
v 93.25368 -71.21609 -83.85739
v 58.71246 -79.5966 -105.9543
v 94.21986 -73.026 -84.70605
v 58.7258 -79.62159 -105.966
v 94.33991 -73.25091 -84.81151
v 58.72954 -79.62861 -105.9693
v 94.37363 -73.31405 -84.84112
v 58.77163 -79.70746 -106.0063
v 94.75246 -74.02371 -85.17387
v 59.2906 -80.67963 -106.4621
v 94.81012 -74.13173 -85.22452
v 59.78265 -81.60138 -106.8943
v 59.83926 -81.70741 -106.944
v 94.87108 -74.24593 -85.27807
v 59.95732 -81.92858 -107.0477
v 94.8842 -74.2705 -85.28959
v 60.27042 -82.51508 -107.3227
v 94.91899 -74.33567 -85.32014
v 60.28212 -82.71089 -107.2684
v 94.98343 -75.41389 -85.0208
v 95.02431 -76.09795 -84.83087
v 60.28502 -82.75948 -107.2549
v 95.05044 -76.5352 -84.70947
v 60.28588 -82.77393 -107.2509
v 95.05821 -76.66533 -84.67335
v 60.29242 -82.88321 -107.2205
v 95.11699 -77.6488 -84.4003
v 60.36734 -84.13688 -106.8725
v 95.12532 -77.7881 -84.36163
v 60.42924 -85.17261 -106.5849
v 95.13219 -77.90318 -84.32967
v 60.49042 -86.19634 -106.3007
v 95.13899 -78.01693 -84.2981
v 60.44863 -86.26073 -106.2109
v 94.76289 -78.59642 -83.49042
v 60.355 -86.40499 -106.0099
v 93.92023 -79.89479 -81.68076
v 60.09378 -86.80746 -105.4489
v 59.98932 -86.96842 -105.2246
v 93.87959 -79.9574 -81.59351
v 59.63312 -87.51726 -104.4596
v 93.84002 -80.01838 -81.50851
v 59.33982 -87.96916 -103.8298
v 93.80743 -80.06859 -81.43852
v 59.13624 -88.28285 -103.3925
v 93.78481 -80.10344 -81.38995
v 93.78481 -80.10345 -81.38995
v 59.00934 -88.23944 -103.2088
v 92.64275 -79.71271 -79.73673
v 58.97199 -88.22666 -103.1548
v 92.30659 -79.59769 -79.25014
v 58.96818 -88.22536 -103.1493
v 92.27228 -79.58595 -79.20045
v 58.96641 -88.22475 -103.1467
v 92.25636 -79.58051 -79.17742
v 58.96417 -88.22398 -103.1435
v 92.23625 -79.57363 -79.14831
v 58.92273 -88.20981 -103.0835
v 91.86322 -79.446 -78.60832
v 57.00113 -87.55237 -100.3018
v 91.6497 -79.37296 -78.29925
v 57.00113 -87.55237 -100.3018
v 91.6497 -79.37296 -78.29925
v 57.00113 -87.55237 -100.3018
v 57.00113 -87.55237 -100.3018
v 56.772 -88.71763 -99.50782
v 56.19915 -91.6308 -97.52277
v 56.19915 -91.6308 -97.52277
v 56.19915 -91.63079 -97.52277
v 57.00113 -87.55237 -100.3018
v 57.00113 -87.55237 -100.3018
v 57.00113 -87.55237 -100.3018
v 91.6497 -79.37296 -78.29925
v 91.6497 -79.37296 -78.29925
v 91.6497 -79.37296 -78.29925
v 57.00113 -87.55237 -100.3018
v 60.46935 -93.09177 -103.7042
v 57.00113 -87.55237 -100.3018
v 91.6497 -79.37296 -78.29925
v 57.00113 -87.55237 -100.3018
v 74.32542 -83.46266 -89.30054
v 91.6497 -79.37296 -78.29925
v 73.52344 -87.54108 -86.52147
v 91.64969 -79.37296 -78.29926
v 91.6497 -79.37296 -78.29925
v 91.42057 -80.53822 -77.50523
v 95.11793 -84.91236 -81.70157
v 91.6497 -79.37296 -78.29925
v 60.46935 -93.09177 -103.7042
v 90.84772 -83.45139 -75.52017
v 95.11793 -84.91236 -81.70157
v 93.78481 -80.10345 -81.38995
v 93.78481 -80.10344 -81.38995
v 76.73138 -71.22736 -97.63776
v 59.40709 -75.31707 -108.6391
v 59.40709 -75.31708 -108.6391
v 58.83424 -78.23024 -106.654
v 75.92939 -75.30579 -94.85869
v 58.6051 -79.3955 -105.86
v 93.58587 -69.52675 -85.00852
v 94.05566 -67.13766 -86.63647
v 93.25368 -71.21609 -83.85739
v 59.40709 -75.31707 -108.6391
v 62.73771 -81.55623 -111.5646
v 63.17772 -88.91875 -109.5205
v 60.27042 -82.51508 -107.3227
v 59.95732 -81.92858 -107.0477
v 59.83926 -81.70741 -106.944
v 59.78265 -81.60138 -106.8943
v 59.2906 -80.67963 -106.4621
v 58.77163 -79.70746 -106.0063
v 58.72954 -79.62861 -105.9693
v 58.7258 -79.62159 -105.966
v 58.71246 -79.5966 -105.9543
v 58.6051 -79.3955 -105.86
v 60.28212 -82.71089 -107.2684
v 60.28502 -82.75948 -107.2549
v 60.28588 -82.77393 -107.2509
v 60.29242 -82.88321 -107.2205
v 60.36734 -84.13688 -106.8725
v 60.42924 -85.17261 -106.5849
v 60.49042 -86.19634 -106.3007
v 60.44863 -86.26073 -106.2109
v 60.355 -86.40499 -106.0099
v 60.09378 -86.80746 -105.4489
v 60.46935 -93.09177 -103.7042
v 59.98932 -86.96842 -105.2246
v 59.63312 -87.51726 -104.4596
v 59.33982 -87.96916 -103.8298
v 59.13624 -88.28285 -103.3925
v 59.00934 -88.23944 -103.2088
v 58.97199 -88.22666 -103.1548
v 58.96818 -88.22536 -103.1493
v 58.96641 -88.22475 -103.1467
v 58.96417 -88.22398 -103.1435
v 58.92273 -88.20981 -103.0835
v 57.00113 -87.55237 -100.3018
v 57.00113 -87.55237 -100.3018
v 57.00113 -87.55237 -100.3018
v 56.19915 -91.6308 -97.52277
v 59.40709 -75.31707 -108.6391
v 97.38628 -73.37682 -89.56197
v 62.73771 -81.55623 -111.5646
v 76.73138 -71.22736 -97.63776
v 97.82629 -80.73934 -87.51787
v 63.17772 -88.91875 -109.5205
v 95.11793 -84.91236 -81.70157
v 60.46935 -93.09177 -103.7042
v 94.05566 -67.13766 -86.63647
v 56.19915 -91.63079 -97.52277
v 74.32542 -83.46266 -89.30054
v 57.00113 -87.55237 -100.3018
v 73.52344 -87.54108 -86.52147
v 91.64969 -79.37296 -78.29926
v 90.84772 -83.45139 -75.52017
v 91.42057 -80.53822 -77.50523
v 91.6497 -79.37296 -78.29925
v 93.25368 -71.21609 -83.85739
v 97.38628 -73.37682 -89.56197
v 93.58587 -69.52675 -85.00852
v 97.38628 -73.37682 -89.56197
v 94.05566 -67.13766 -86.63647
v 93.25368 -71.21609 -83.85739
v 94.21986 -73.026 -84.70605
v 93.25368 -71.21609 -83.85739
v 94.33991 -73.25091 -84.81151
v 94.37363 -73.31405 -84.84112
v 94.75246 -74.02371 -85.17387
v 94.81012 -74.13173 -85.22452
v 94.87108 -74.24593 -85.27807
v 94.8842 -74.2705 -85.28959
v 94.91899 -74.33567 -85.32014
v 97.82629 -80.73934 -87.51787
v 94.98343 -75.41389 -85.0208
v 95.02431 -76.09795 -84.83087
v 95.05044 -76.5352 -84.70947
v 95.05821 -76.66533 -84.67335
v 95.11699 -77.6488 -84.4003
v 95.12532 -77.7881 -84.36163
v 95.13219 -77.90318 -84.32967
v 95.13899 -78.01693 -84.2981
v 94.76289 -78.59642 -83.49042
v 93.92023 -79.89479 -81.68076
v 93.87959 -79.9574 -81.59351
v 93.84002 -80.01838 -81.50851
v 93.80743 -80.06859 -81.43852
v 93.78481 -80.10344 -81.38995
v 95.11793 -84.91236 -81.70157
v 93.78481 -80.10345 -81.38995
v 92.64275 -79.71271 -79.73673
v 92.30659 -79.59769 -79.25014
v 92.27228 -79.58595 -79.20045
v 92.25636 -79.58051 -79.17742
v 92.23625 -79.57363 -79.14831
v 91.86322 -79.446 -78.60832
v 91.6497 -79.37296 -78.29925
v 91.42057 -80.53822 -77.50523
v 91.6497 -79.37296 -78.29925
v 90.84772 -83.45139 -75.52017

vn 0.1603966 0.8156857 -0.5558145
vn 0.1603967 0.8156857 -0.5558144
vn -0.4170044 0.4921246 -0.764147
vn -0.8278949 -0.1954393 -0.5257313
vn -0.8278949 -0.1954393 -0.5257313
vn -0.3538665 -0.5452273 0.7599379
vn -0.2758667 -0.8351271 0.4758787
vn -0.5601801 0.3350274 0.757598
vn -0.3538642 -0.545231 0.7599363
vn -0.3538639 -0.5452318 0.759936
vn -0.353864 -0.5452315 0.7599361
vn -0.3538644 -0.5452306 0.7599366
vn -0.3538648 -0.5452297 0.759937
vn -0.3538627 -0.5452346 0.7599345
vn -0.3538637 -0.5452322 0.7599357
vn -0.3538639 -0.5452318 0.7599359
vn -0.3538639 -0.5452319 0.7599359
vn -0.3538638 -0.545232 0.7599358
vn -0.3538639 -0.5452318 0.7599359
vn -0.3538638 -0.5452321 0.7599359
vn -0.3538643 -0.545231 0.7599363
vn -0.3538649 -0.5452297 0.7599368
vn -0.353864 -0.5452315 0.7599359
vn -0.3538637 -0.5452323 0.7599357
vn -0.4154528 -0.4160376 0.8088953
vn -0.5551108 0.1513825 0.8178846
vn -0.557929 0.1908881 0.8076367
vn -0.5579289 0.1908873 0.8076367
vn -0.557929 0.190887 0.8076369
vn -0.557929 0.190885 0.8076375
vn -0.557929 0.1908837 0.8076377
vn -0.557929 0.190882 0.807638
vn -0.557929 0.1908848 0.8076375
vn -0.5579289 0.190886 0.8076371
vn -0.5579289 0.1908866 0.8076371
vn -0.5579289 0.1908866 0.807637
vn -0.5579289 0.1908855 0.8076373
vn -0.5579289 0.1908862 0.8076372
vn -0.5579289 0.1908873 0.8076369
vn -0.5605029 0.2537875 0.7883072
vn -0.4575655 0.7774355 0.4315414
vn -0.435167 0.8151839 0.3822365
vn -0.4351666 0.8151846 0.3822357
vn -0.4351663 0.815185 0.3822352
vn -0.4351663 0.815185 0.3822352
vn -0.4351665 0.8151847 0.3822355
vn -0.4351668 0.8151844 0.3822359
vn -0.4351666 0.8151847 0.3822356
vn -0.4351668 0.8151845 0.3822359
vn -0.4351666 0.8151846 0.3822356
vn -0.4351667 0.8151847 0.3822356
vn -0.4351668 0.8151844 0.3822359
vn -0.3568988 0.9066454 0.224983
vn -0.435175 0.8151717 0.3822536
vn -0.0574897 0.9619595 -0.2670744
vn -0.05748894 0.9619592 -0.2670754
vn -0.05748867 0.9619593 -0.2670758
vn -0.0574879 0.9619589 -0.2670767
vn -0.05748922 0.9619594 -0.2670752
vn -0.05749037 0.9619597 -0.267074
vn -0.05749212 0.96196 -0.2670719
vn -0.05752201 0.9619676 -0.2670383
vn -0.05750322 0.9619629 -0.2670594
vn -0.05748453 0.9619582 -0.2670806
vn -0.05748715 0.9619589 -0.2670775
vn -0.05748903 0.9619593 -0.2670754
vn -0.0574894 0.9619594 -0.2670749
vn -0.05748955 0.9619595 -0.2670747
vn -0.0574923 0.9619605 -0.2670706
vn -0.1501393 0.9803429 -0.1280084
vn 0.1603969 0.8156857 -0.5558143
vn 0.1603969 0.8156857 -0.5558143
vn 0.1603969 0.8156857 -0.5558143
vn -0.8278949 -0.1954393 -0.5257313
vn 0.0574893 -0.9619594 0.2670752
vn -0.8278949 -0.1954393 -0.5257313
vn -0.5537465 0.4338571 0.710727
vn -0.525353 0.3811479 -0.7607433
vn -0.5936636 0.2980395 -0.7474865
vn 0.1011704 0.7997386 -0.5917624
vn 0.1603969 0.8156857 -0.5558143
vn 0.1603969 0.8156857 -0.5558143
vn 0.1603969 0.8156857 -0.5558143
vn 0.07426834 0.7912164 -0.6070097
vn -0.8278949 -0.1954393 -0.5257313
vn 0.1498972 0.8131486 -0.5624235
vn 0.1603969 0.8156857 -0.5558143
vn 0.0417028 0.7798484 -0.6245777
vn 0.1604004 0.8156821 -0.5558186
vn 0.2098192 0.8259453 -0.5232497
vn 0.05748925 -0.9619593 0.2670752
vn 0.1604096 0.8156729 -0.5558296
vn 0.8278961 0.1954449 0.5257274
vn 0.8278949 0.1954393 0.5257313
vn 0.8278952 0.195439 0.525731
vn 0 0 0
vn 0.05748928 -0.9619594 0.2670752
vn 0.05748924 -0.9619594 0.2670752
vn 0.05748926 -0.9619594 0.2670752
vn 0.8278952 0.195439 0.525731
vn 0.8278952 0.195439 0.525731
vn -0.5374594 0.5444816 0.6439543
vn -0.5374593 0.5444816 0.6439543
vn -0.5374594 0.5444816 0.6439543
vn -0.5374594 0.5444816 0.6439543
vn -0.5374594 0.5444816 0.6439543
vn -0.5374594 0.5444816 0.6439543
vn -0.5374594 0.5444816 0.6439543
vn -0.5374594 0.5444816 0.6439543
vn -0.5374594 0.5444816 0.6439543
vn -0.8278949 -0.1954393 -0.5257313
vn -0.8278949 -0.1954393 -0.5257313
vn -0.8278949 -0.1954393 -0.5257313
vn -0.8278949 -0.1954393 -0.5257313
vn -0.8278949 -0.1954393 -0.5257313
vn -0.8278949 -0.1954393 -0.5257313
vn -0.8278949 -0.1954393 -0.5257313
vn -0.8278949 -0.1954393 -0.5257313
vn -0.8278949 -0.1954393 -0.5257313
vn -0.8278949 -0.1954393 -0.5257313
vn -0.8278949 -0.1954393 -0.5257313
vn -0.8278949 -0.1954393 -0.5257313
vn -0.8278949 -0.1954393 -0.5257313
vn -0.8278949 -0.1954393 -0.5257312
vn -0.8278949 -0.1954393 -0.5257313
vn -0.8278949 -0.1954393 -0.5257313
vn -0.8278949 -0.1954393 -0.5257312
vn -0.8278949 -0.1954393 -0.5257313
vn -0.8278949 -0.1954393 -0.5257313
vn -0.8278949 -0.1954393 -0.5257313
vn -0.8278949 -0.1954393 -0.5257312
vn -0.8278949 -0.1954393 -0.5257313
vn -0.8278949 -0.1954393 -0.5257313
vn -0.8278949 -0.1954393 -0.5257313
vn -0.8278949 -0.1954393 -0.5257313
vn -0.8278949 -0.1954393 -0.5257313
vn -0.8278949 -0.1954393 -0.5257313
vn -0.8278949 -0.1954393 -0.5257313
vn -0.8278949 -0.1954393 -0.5257313
vn -0.8278949 -0.1954393 -0.5257313
vn -0.8278949 -0.1954393 -0.5257313
vn -0.8278949 -0.1954393 -0.5257312
vn -0.8278949 -0.1954393 -0.5257313
vn -0.8278949 -0.1954393 -0.5257312
vn -0.8278949 -0.1954393 -0.5257312
vn -0.8278949 -0.1954393 -0.5257313
vn -0.8278949 -0.1954393 -0.5257312
vn -0.8278949 -0.1954393 -0.5257312
vn 0.353864 0.5452315 -0.7599362
vn 0.4523544 0.3215148 -0.8318676
vn 0.5252885 0.05842134 -0.8489162
vn 0.353864 0.5452313 -0.7599361
vn 0.5543466 -0.4278005 -0.7139234
vn 0.5104705 -0.650929 -0.561882
vn 0.4351666 -0.8151847 -0.3822354
vn 0.4351666 -0.8151847 -0.3822355
vn 0.353864 0.5452315 -0.759936
vn -0.5374594 0.5444816 0.6439543
vn -0.5374594 0.5444816 0.6439543
vn -0.5374594 0.5444816 0.6439543
vn -0.5374594 0.5444816 0.6439543
vn -0.5374594 0.5444816 0.6439543
vn -0.5374594 0.5444816 0.6439543
vn -0.5374594 0.5444816 0.6439543
vn -0.5374593 0.5444816 0.6439543
vn 0.01083586 -0.7590997 0.6508842
vn 0.827895 0.1954399 0.5257308
vn 0.827895 0.1954391 0.5257311
vn 0.8278951 0.1954392 0.525731
vn 0.827895 0.1954392 0.5257311
vn 0.827895 0.1954392 0.5257311
vn 0.827895 0.1954395 0.525731
vn 0.827895 0.1954395 0.525731
vn 0.827895 0.1954395 0.525731
vn 0.827895 0.1954395 0.525731
vn 0.827895 0.1954395 0.525731
vn 0.827895 0.1954394 0.525731
vn 0.827895 0.1954395 0.525731
vn 0.827895 0.1954394 0.525731
vn 0.8278952 0.1954392 0.525731
vn 0.8278951 0.1954391 0.5257311
vn 0.8278952 0.1954392 0.525731
vn 0.8278952 0.1954392 0.525731
vn 0.8278952 0.1954392 0.525731
vn 0.8278952 0.1954392 0.525731
vn 0.8278952 0.1954392 0.525731
vn 0.8278952 0.1954392 0.525731
vn 0.8278952 0.1954392 0.525731
vn 0.8278951 0.195439 0.5257311
vn 0.8278951 0.195439 0.5257311
vn 0.8278951 0.195439 0.5257311
vn 0.8278951 0.195439 0.5257311
vn 0.8278951 0.195439 0.5257311
vn 0.8278951 0.195439 0.5257311
vn 0.8278951 0.195439 0.5257311
vn 0.827895 0.1954391 0.5257312
vn 0.827895 0.195439 0.5257313
vn 0.827895 0.195439 0.5257313
vn 0.827895 0.195439 0.5257313
vn 0.827895 0.195439 0.5257313
vn 0.827895 0.195439 0.5257313
vn 0.827895 0.195439 0.5257313
vn 0.827895 0.195439 0.5257313
vn 0.8278949 0.195439 0.5257313
vn 0.827895 0.1954392 0.5257311
vn 0.827895 0.1954392 0.5257311
vn 0.827895 0.1954391 0.5257311

f 1//1 2//2 3//3
f 4//4 1//1 3//3
f 3//3 5//5 4//4
f 3//3 6//6 5//5
f 5//5 6//6 7//7
f 8//8 7//7 6//6
f 9//9 8//8 6//6
f 10//10 9//9 6//6
f 9//9 10//10 11//11
f 11//11 10//10 12//12
f 13//13 11//11 12//12
f 13//13 12//12 14//14
f 13//13 14//14 15//15
f 15//15 14//14 16//16
f 15//15 16//16 17//17
f 18//18 17//17 16//16
f 19//19 17//17 18//18
f 19//19 18//18 20//20
f 21//21 19//19 20//20
f 22//22 19//19 21//21
f 22//22 21//21 23//23
f 24//24 22//22 23//23
f 24//24 23//23 25//25
f 26//26 24//24 25//25
f 26//26 25//25 27//27
f 28//28 26//26 27//27
f 28//28 27//27 29//29
f 29//29 27//27 30//30
f 31//31 29//29 30//30
f 31//31 30//30 32//32
f 33//33 31//31 32//32
f 33//33 32//32 34//34
f 35//35 33//33 34//34
f 35//35 34//34 36//36
f 37//37 35//35 36//36
f 37//37 36//36 38//38
f 39//39 37//37 38//38
f 39//39 38//38 40//40
f 41//41 39//39 40//40
f 41//41 40//40 42//42
f 41//41 42//42 43//43
f 43//43 42//42 44//44
f 45//45 43//43 44//44
f 45//45 44//44 46//46
f 47//47 45//45 46//46
f 48//48 45//45 47//47
f 48//48 47//47 49//49
f 50//50 48//48 49//49
f 50//50 49//49 51//51
f 52//52 50//50 51//51
f 52//52 51//51 53//53
f 54//54 52//52 53//53
f 55//55 54//54 53//53
f 55//55 53//53 56//56
f 55//55 56//56 57//57
f 57//57 56//56 58//58
f 57//57 58//58 59//59
f 59//59 58//58 60//60
f 59//59 60//60 61//61
f 61//61 60//60 62//62
f 61//61 62//62 63//63
f 63//63 62//62 64//64
f 63//63 64//64 65//65
f 65//65 64//64 66//66
f 65//65 66//66 67//67
f 68//68 67//67 66//66
f 69//69 67//67 68//68
f 69//69 68//68 70//70
f 71//71 69//69 70//70
f 72//72 71//71 73//73
f 74//74 75//75 76//76
f 77//77 74//74 76//76
f 75//75 77//77 76//76
f 78//78 75//75 74//74
f 79//79 75//75 78//78
f 78//78 74//74 80//80
f 81//81 78//78 80//80
f 82//82 78//78 81//81
f 82//82 83//83 78//78
f 83//83 84//84 79//79
f 84//84 85//85 79//79
f 80//80 74//74 86//86
f 87//87 80//80 86//86
f 81//81 80//80 87//87
f 86//86 74//74 88//88
f 88//88 74//74 77//77
f 86//86 88//88 89//89
f 90//90 86//86 89//89
f 87//87 86//86 90//90
f 75//75 91//91 77//77
f 90//90 89//89 92//92
f 90//90 92//92 93//93
f 94//94 90//90 93//93
f 95//95 83//83 82//82
f 95//95 82//82 81//81
f 95//95 81//81 87//87
f 95//95 87//87 90//90
f 95//95 96//96 83//83
f 97//97 91//91 75//75
f 97//97 98//98 91//91
f 97//97 99//99 98//98
f 100//100 95//95 101//101
f 102//102 103//103 104//104
f 102//102 104//104 105//105
f 102//102 105//105 106//106
f 106//106 105//105 107//107
f 108//108 102//102 106//106
f 109//109 102//102 108//108
f 110//110 108//108 106//106
f 111//111 112//112 113//113
f 111//111 113//113 114//114
f 111//111 114//114 115//115
f 111//111 115//115 116//116
f 111//111 116//116 117//117
f 117//117 118//118 111//111
f 118//118 119//119 111//111
f 120//120 111//111 119//119
f 120//120 121//121 111//111
f 121//121 122//122 111//111
f 111//111 122//122 123//123
f 114//114 113//113 124//124
f 124//124 113//113 125//125
f 125//125 113//113 126//126
f 126//126 113//113 127//127
f 127//127 113//113 128//128
f 128//128 113//113 129//129
f 129//129 113//113 130//130
f 130//130 113//113 131//131
f 131//131 113//113 132//132
f 132//132 113//113 133//133
f 133//133 113//113 134//134
f 133//133 134//134 135//135
f 135//135 134//134 136//136
f 134//134 137//137 136//136
f 137//137 134//134 138//138
f 138//138 134//134 139//139
f 139//139 134//134 140//140
f 140//140 134//134 141//141
f 134//134 142//142 141//141
f 134//134 143//143 142//142
f 134//134 144//144 143//143
f 144//144 134//134 145//145
f 145//145 134//134 146//146
f 147//147 134//134 148//148
f 149//149 150//150 151//151
f 149//149 152//152 150//150
f 151//151 150//150 153//153
f 151//151 153//153 154//154
f 154//154 153//153 155//155
f 154//154 155//155 156//156
f 152//152 157//157 150//150
f 158//158 159//159 160//160
f 161//161 159//159 158//158
f 162//162 159//159 161//161
f 163//163 162//162 161//161
f 164//164 162//162 163//163
f 165//165 162//162 164//164
f 9//9 166//166 8//8
f 166//166 9//9 167//167
f 168//168 169//169 170//170
f 168//168 171//171 169//169
f 172//172 169//169 173//173
f 174//174 169//169 172//172
f 169//169 174//174 175//175
f 176//176 169//169 175//175
f 177//177 169//169 176//176
f 178//178 169//169 177//177
f 178//178 179//179 169//169
f 179//179 180//180 169//169
f 180//180 181//181 169//169
f 182//182 181//181 180//180
f 182//182 183//183 181//181
f 183//183 184//184 181//181
f 184//184 185//185 181//181
f 185//185 186//186 181//181
f 186//186 187//187 181//181
f 187//187 188//188 181//181
f 188//188 189//189 181//181
f 181//181 189//189 190//190
f 181//181 190//190 191//191
f 192//192 181//181 191//191
f 193//193 181//181 192//192
f 194//194 181//181 193//193
f 195//195 181//181 194//194
f 195//195 196//196 181//181
f 196//196 197//197 198//198
f 196//196 198//198 199//199
f 199//199 200//200 196//196
f 196//196 200//200 201//201
f 201//201 202//202 196//196
f 196//196 202//202 203//203
f 196//196 203//203 204//204
f 205//205 196//196 206//206
f 207//207 196//196 205//205
