v 47.99958 113.9874 70.40173
v 58.70658 116.515 52.60125
v 47.99958 113.9874 70.40173
v 47.99957 113.9874 70.40173
v 45.28555 115.8644 69.03577
v 44.19993 116.6152 68.48938
v 44.19993 116.6152 68.48938
v 54.90694 119.1428 50.6889
v 65.61394 121.6704 32.88842
v 44.21956 116.8568 68.53549
v 65.79057 123.8444 33.30336
v 44.222 116.8868 68.54121
v 65.81252 124.1145 33.35492
v 44.22268 116.8952 68.54282
v 65.81868 124.1904 33.36939
v 44.23038 116.99 68.5609
v 65.88794 125.0428 33.53209
v 44.32525 118.1577 68.78378
v 65.89848 125.1725 33.55685
v 44.41521 119.2648 68.9951
v 44.42556 119.3922 69.01941
v 65.90962 125.3097 33.58303
v 44.44714 119.6578 69.07011
v 65.91202 125.3392 33.58867
v 44.50438 120.3623 69.20457
v 65.91838 125.4175 33.60361
v 44.39269 120.5267 69.16074
v 65.3034 126.3229 33.36227
v 64.91323 126.8974 33.20915
v 44.36498 120.5676 69.14986
v 64.66383 127.2646 33.11128
v 44.35674 120.5797 69.14663
v 64.58961 127.3739 33.08215
v 44.29441 120.6715 69.12217
v 64.02867 128.1998 32.86202
v 43.57935 121.7243 68.84156
v 63.94922 128.3168 32.83084
v 42.9886 122.5941 68.60973
v 63.88358 128.4134 32.80508
v 42.4047 123.4538 68.38058
v 63.81871 128.5089 32.77962
v 42.30367 123.4731 68.32256
v 62.90947 128.6825 32.25735
v 42.07732 123.5163 68.19254
v 60.87225 129.0714 31.08719
v 41.44582 123.6368 67.8298
v 41.19327 123.685 67.68474
v 60.77403 129.0901 31.03077
v 40.33212 123.8494 67.1901
v 60.67834 129.1084 30.97581
v 39.62306 123.9847 66.78282
v 60.59956 129.1234 30.93056
v 39.13087 124.0787 66.50011
v 60.54488 129.1338 30.89914
v 60.54487 129.1338 30.89914
v 38.98049 123.9475 66.39102
v 59.19146 127.9529 29.91739
v 38.93623 123.9089 66.35892
v 58.7931 127.6054 29.62842
v 38.93171 123.9049 66.35564
v 58.75243 127.5699 29.59892
v 38.92961 123.9031 66.35412
v 58.73357 127.5534 29.58524
v 38.92696 123.9008 66.3522
v 58.70974 127.5326 29.56795
v 38.87785 123.8579 66.31657
v 58.26767 127.1469 29.24727
v 36.60065 121.871 64.6647
v 58.01465 126.9261 29.06373
v 36.60064 121.871 64.6647
v 58.01465 126.9261 29.06373
v 36.60064 121.871 64.6647
v 36.60064 121.871 64.6647
v 35.51503 122.6218 64.11831
v 32.801 124.4988 62.75235
v 32.801 124.4988 62.75235
v 32.801 124.4988 62.75235
v 36.60064 121.871 64.6647
v 36.60064 121.871 64.6647
v 36.60064 121.871 64.6647
v 58.01465 126.9261 29.06373
v 58.01465 126.9261 29.06373
v 58.01465 126.9261 29.06373
v 36.60064 121.871 64.6647
v 37.86144 128.9142 66.42317
v 36.60064 121.871 64.6647
v 58.01465 126.9261 29.06373
v 36.60064 121.871 64.6647
v 47.30765 124.3986 46.86421
v 58.01465 126.9261 29.06373
v 43.50801 127.0264 44.95187
v 58.01464 126.9261 29.06375
v 58.01465 126.9261 29.06373
v 56.92904 127.677 28.51735
v 59.27545 133.9694 30.82221
v 58.01465 126.9261 29.06373
v 37.86144 128.9142 66.42317
v 54.21501 129.554 27.15139
v 59.27545 133.9694 30.82221
v 60.54487 129.1338 30.89914
v 60.54488 129.1338 30.89914
v 58.70658 116.515 52.60125
v 47.99958 113.9874 70.40173
v 47.99957 113.9874 70.40173
v 45.28555 115.8644 69.03577
v 54.90694 119.1428 50.6889
v 44.19993 116.6152 68.48938
v 67.18781 120.5819 33.68054
v 69.41358 119.0425 34.80077
v 65.61394 121.6704 32.88842
v 47.99958 113.9874 70.40173
v 48.60846 121.4815 71.8321
v 44.40911 127.6644 70.18413
v 44.50438 120.3623 69.20457
v 44.44714 119.6578 69.07011
v 44.42556 119.3922 69.01941
v 44.41521 119.2648 68.9951
v 44.32525 118.1577 68.78378
v 44.23038 116.99 68.5609
v 44.22268 116.8952 68.54282
v 44.222 116.8868 68.54121
v 44.21956 116.8568 68.53549
v 44.19993 116.6152 68.48938
v 44.39269 120.5267 69.16074
v 44.36498 120.5676 69.14986
v 44.35674 120.5797 69.14663
v 44.29441 120.6715 69.12217
v 43.57935 121.7243 68.84156
v 42.9886 122.5941 68.60973
v 42.4047 123.4538 68.38058
v 42.30367 123.4731 68.32256
v 42.07732 123.5163 68.19254
v 41.44582 123.6368 67.8298
v 37.86144 128.9142 66.42317
v 41.19327 123.685 67.68474
v 40.33212 123.8494 67.1901
v 39.62306 123.9847 66.78282
v 39.13087 124.0787 66.50011
v 38.98049 123.9475 66.39102
v 38.93623 123.9089 66.35892
v 38.93171 123.9049 66.35564
v 38.92961 123.9031 66.35412
v 38.92696 123.9008 66.3522
v 38.87785 123.8579 66.31657
v 36.60065 121.871 64.6647
v 36.60064 121.871 64.6647
v 36.60064 121.871 64.6647
v 32.801 124.4988 62.75235
v 47.99958 113.9874 70.40173
v 70.02247 126.5367 36.23114
v 48.60846 121.4815 71.8321
v 58.70658 116.515 52.60125
v 65.82311 132.7196 34.58317
v 44.40911 127.6644 70.18413
v 59.27545 133.9694 30.82221
v 37.86144 128.9142 66.42317
v 69.41358 119.0425 34.80077
v 32.801 124.4988 62.75235
v 47.30765 124.3986 46.86421
v 36.60064 121.871 64.6647
v 43.50801 127.0264 44.95187
v 58.01464 126.9261 29.06375
v 54.21501 129.554 27.15139
v 56.92904 127.677 28.51735
v 58.01465 126.9261 29.06373
v 65.61394 121.6704 32.88842
v 70.02247 126.5367 36.23114
v 67.18781 120.5819 33.68054
v 70.02247 126.5367 36.23114
v 69.41358 119.0425 34.80077
v 65.61394 121.6704 32.88842
v 65.79057 123.8444 33.30336
v 65.61394 121.6704 32.88842
v 65.81252 124.1145 33.35492
v 65.81868 124.1904 33.36939
v 65.88794 125.0428 33.53209
v 65.89848 125.1725 33.55685
v 65.90962 125.3097 33.58303
v 65.91202 125.3392 33.58867
v 65.91838 125.4175 33.60361
v 65.82311 132.7196 34.58317
v 65.3034 126.3229 33.36227
v 64.91323 126.8974 33.20915
v 64.66383 127.2646 33.11128
v 64.58961 127.3739 33.08215
v 64.02867 128.1998 32.86202
v 63.94922 128.3168 32.83084
v 63.88358 128.4134 32.80508
v 63.81871 128.5089 32.77962
v 62.90947 128.6825 32.25735
v 60.87225 129.0714 31.08719
v 60.77403 129.0901 31.03077
v 60.67834 129.1084 30.97581
v 60.59956 129.1234 30.93056
v 60.54488 129.1338 30.89914
v 59.27545 133.9694 30.82221
v 60.54487 129.1338 30.89914
v 59.19146 127.9529 29.91739
v 58.7931 127.6054 29.62842
v 58.75243 127.5699 29.59892
v 58.73357 127.5534 29.58524
v 58.70974 127.5326 29.56795
v 58.26767 127.1469 29.24727
v 58.01465 126.9261 29.06373
v 56.92904 127.677 28.51735
v 58.01465 126.9261 29.06373
v 54.21501 129.554 27.15139

vn 0.7599279 -0.5255731 0.382469
vn 0.759928 -0.5255731 0.3824689
vn 0.243992 -0.4776526 0.8439881
vn -0.5116671 -0.1207881 0.850651
vn -0.5116671 -0.1207881 0.850651
vn -0.8554932 0.1632921 -0.4913931
vn -0.8246511 0.5032088 -0.2583248
vn -0.5699987 -0.6930956 -0.4412708
vn -0.8554927 0.1632966 -0.4913924
vn -0.8554927 0.1632975 -0.4913923
vn -0.8554927 0.1632971 -0.4913924
vn -0.8554927 0.1632961 -0.4913926
vn -0.8554927 0.1632951 -0.4913929
vn -0.8554926 0.1633007 -0.4913913
vn -0.8554927 0.163298 -0.491392
vn -0.8554927 0.1632975 -0.4913922
vn -0.8554928 0.1632977 -0.4913922
vn -0.8554927 0.1632977 -0.4913921
vn -0.8554927 0.1632974 -0.4913922
vn -0.8554927 0.1632978 -0.4913922
vn -0.8554928 0.1632966 -0.4913924
vn -0.8554928 0.1632951 -0.4913927
vn -0.8554927 0.1632972 -0.4913922
vn -0.8554927 0.1632981 -0.491392
vn -0.8577048 0.01374078 -0.513959
vn -0.6830652 -0.5433759 -0.488021
vn -0.6611769 -0.5769006 -0.4796155
vn -0.6611773 -0.5768998 -0.4796156
vn -0.6611775 -0.5768996 -0.4796157
vn -0.6611788 -0.576898 -0.479616
vn -0.6611795 -0.5768969 -0.4796162
vn -0.6611805 -0.5768956 -0.4796163
vn -0.6611789 -0.5768979 -0.479616
vn -0.6611781 -0.5768988 -0.4796158
vn -0.6611778 -0.5768993 -0.4796158
vn -0.6611776 -0.5768993 -0.4796158
vn -0.6611783 -0.5768983 -0.479616
vn -0.661178 -0.5768989 -0.4796159
vn -0.6611773 -0.5768999 -0.4796157
vn -0.6236312 -0.6288189 -0.4644039
vn -0.1358245 -0.9662476 -0.2189008
vn -0.07955562 -0.9791547 -0.1868878
vn -0.07955469 -0.9791549 -0.1868873
vn -0.07955407 -0.9791551 -0.186887
vn -0.07955409 -0.979155 -0.1868869
vn -0.07955446 -0.9791549 -0.1868871
vn -0.079555 -0.9791548 -0.1868873
vn -0.07955458 -0.9791549 -0.1868871
vn -0.07955492 -0.9791549 -0.1868873
vn -0.07955462 -0.9791549 -0.1868871
vn -0.07955465 -0.979155 -0.1868871
vn -0.07955502 -0.9791548 -0.1868873
vn 0.0905934 -0.9921343 -0.08638591
vn -0.07957493 -0.979151 -0.1868988
vn 0.548671 -0.8078358 0.2153176
vn 0.5486718 -0.8078349 0.2153181
vn 0.5486722 -0.8078348 0.2153183
vn 0.548673 -0.807834 0.2153188
vn 0.5486715 -0.8078352 0.215318
vn 0.5486704 -0.8078363 0.2153175
vn 0.5486684 -0.8078378 0.2153164
vn 0.5486356 -0.8078646 0.2152995
vn 0.5486562 -0.8078478 0.21531
vn 0.5486768 -0.807831 0.2153209
vn 0.5486739 -0.8078334 0.2153192
vn 0.5486717 -0.807835 0.2153181
vn 0.5486713 -0.8078354 0.2153178
vn 0.5486712 -0.8078356 0.2153177
vn 0.5486679 -0.8078385 0.2153153
vn 0.43016 -0.8930602 0.1319317
vn 0.7599281 -0.525573 0.3824688
vn 0.7599281 -0.525573 0.3824688
vn 0.7599281 -0.525573 0.3824688
vn -0.5116671 -0.1207881 0.850651
vn -0.5486715 0.8078352 -0.2153181
vn -0.5116671 -0.1207881 0.850651
vn -0.4962422 -0.7666847 -0.4073555
vn 0.1044781 -0.433187 0.8952281
vn 0.005355004 -0.3958781 0.9182875
vn 0.7216542 -0.5328267 0.4419401
vn 0.7599281 -0.525573 0.3824688
vn 0.7599281 -0.525573 0.3824688
vn 0.7599281 -0.525573 0.3824688
vn 0.7031831 -0.535219 0.4680538
vn -0.5116671 -0.1207881 0.850651
vn 0.7533855 -0.5270653 0.393208
vn 0.7599281 -0.525573 0.3824688
vn 0.6799298 -0.5373728 0.4989249
vn 0.7599308 -0.5255674 0.3824711
vn 0.7892811 -0.5173672 0.3307064
vn -0.5486715 0.8078352 -0.2153181
vn 0.7599376 -0.5255531 0.3824773
vn 0.5116723 0.1207844 -0.8506483
vn 0.5116671 0.1207881 -0.850651
vn 0.5116673 0.1207884 -0.8506508
vn 0 0 0
vn -0.5486715 0.8078353 -0.215318
vn -0.5486715 0.8078353 -0.215318
vn -0.5486716 0.8078353 -0.215318
vn 0.5116673 0.1207884 -0.8506508
vn 0.5116673 0.1207884 -0.8506508
vn -0.4008815 -0.8421302 -0.3607087
vn -0.4008815 -0.8421302 -0.3607087
vn -0.4008815 -0.8421302 -0.3607087
vn -0.4008815 -0.8421302 -0.3607087
vn -0.4008815 -0.8421302 -0.3607087
vn -0.4008815 -0.8421302 -0.3607087
vn -0.4008815 -0.8421302 -0.3607087
vn -0.4008815 -0.8421302 -0.3607087
vn -0.4008815 -0.8421302 -0.3607087
vn -0.5116671 -0.1207881 0.850651
vn -0.5116671 -0.1207881 0.850651
vn -0.5116671 -0.1207881 0.850651
vn -0.5116671 -0.1207881 0.850651
vn -0.5116671 -0.1207881 0.850651
vn -0.5116671 -0.1207881 0.850651
vn -0.5116671 -0.1207881 0.850651
vn -0.5116671 -0.1207881 0.850651
vn -0.5116671 -0.1207881 0.850651
vn -0.5116671 -0.1207881 0.850651
vn -0.5116671 -0.1207881 0.850651
vn -0.5116671 -0.1207881 0.850651
vn -0.5116671 -0.1207881 0.850651
vn -0.511667 -0.1207881 0.8506509
vn -0.5116671 -0.1207881 0.850651
vn -0.5116671 -0.1207881 0.850651
vn -0.511667 -0.1207881 0.8506509
vn -0.5116671 -0.1207881 0.850651
vn -0.5116671 -0.1207881 0.850651
vn -0.5116671 -0.1207881 0.850651
vn -0.511667 -0.1207881 0.8506509
vn -0.5116671 -0.1207881 0.850651
vn -0.5116671 -0.1207881 0.850651
vn -0.5116671 -0.1207881 0.850651
vn -0.5116671 -0.1207881 0.850651
vn -0.5116671 -0.1207881 0.850651
vn -0.5116671 -0.1207881 0.850651
vn -0.5116671 -0.1207881 0.850651
vn -0.5116671 -0.1207881 0.850651
vn -0.5116671 -0.1207881 0.850651
vn -0.5116671 -0.1207881 0.850651
vn -0.511667 -0.1207881 0.8506509
vn -0.5116671 -0.1207881 0.850651
vn -0.511667 -0.1207881 0.8506509
vn -0.511667 -0.1207881 0.8506509
vn -0.5116671 -0.1207881 0.850651
vn -0.511667 -0.1207881 0.8506509
vn -0.511667 -0.1207881 0.8506509
vn 0.8554927 -0.1632971 0.4913924
vn 0.8478273 0.08946066 0.5226719
vn 0.7783778 0.3540117 0.5184628
vn 0.8554926 -0.163297 0.4913923
vn 0.5010523 0.7623317 0.4096306
vn 0.2931761 0.9061007 0.3050073
vn 0.07955448 0.9791549 0.186887
vn 0.07955451 0.9791549 0.186887
vn 0.8554927 -0.1632971 0.4913923
vn -0.4008815 -0.8421302 -0.3607087
vn -0.4008815 -0.8421302 -0.3607087
vn -0.4008815 -0.8421302 -0.3607087
vn -0.4008815 -0.8421302 -0.3607087
vn -0.4008815 -0.8421302 -0.3607087
vn -0.4008815 -0.8421302 -0.3607087
vn -0.4008815 -0.8421302 -0.3607087
vn -0.4008814 -0.8421302 -0.3607087
vn -0.6403688 0.5391476 -0.5470355
vn 0.5116676 0.1207877 -0.8506507
vn 0.5116671 0.1207882 -0.8506508
vn 0.5116673 0.1207882 -0.8506508
vn 0.5116671 0.1207882 -0.8506509
vn 0.5116671 0.1207882 -0.8506509
vn 0.5116674 0.120788 -0.8506508
vn 0.5116674 0.120788 -0.8506508
vn 0.5116674 0.120788 -0.8506508
vn 0.5116674 0.120788 -0.8506508
vn 0.5116674 0.120788 -0.8506508
vn 0.5116673 0.120788 -0.8506507
vn 0.5116674 0.120788 -0.8506508
vn 0.5116673 0.120788 -0.8506507
vn 0.5116673 0.1207882 -0.8506508
vn 0.5116672 0.1207883 -0.8506508
vn 0.5116673 0.1207883 -0.8506508
vn 0.5116673 0.1207883 -0.8506508
vn 0.5116673 0.1207883 -0.8506508
vn 0.5116673 0.1207883 -0.8506508
vn 0.5116673 0.1207883 -0.8506508
vn 0.5116673 0.1207883 -0.8506508
vn 0.5116673 0.1207883 -0.8506508
vn 0.5116671 0.1207884 -0.8506509
vn 0.5116671 0.1207884 -0.8506509
vn 0.5116671 0.1207884 -0.8506509
vn 0.5116671 0.1207884 -0.8506509
vn 0.5116671 0.1207884 -0.8506509
vn 0.5116671 0.1207884 -0.8506509
vn 0.5116671 0.1207884 -0.8506509
vn 0.5116671 0.1207883 -0.8506509
vn 0.5116669 0.1207883 -0.850651
vn 0.5116669 0.1207883 -0.850651
vn 0.5116669 0.1207883 -0.850651
vn 0.5116669 0.1207883 -0.850651
vn 0.5116669 0.1207883 -0.850651
vn 0.5116669 0.1207883 -0.850651
vn 0.5116669 0.1207883 -0.850651
vn 0.5116668 0.1207883 -0.850651
vn 0.5116671 0.1207882 -0.8506509
vn 0.5116671 0.1207882 -0.8506509
vn 0.5116671 0.1207882 -0.8506508

f 1//1 2//2 3//3
f 4//4 1//1 3//3
f 3//3 5//5 4//4
f 3//3 6//6 5//5
f 5//5 6//6 7//7
f 8//8 7//7 6//6
f 9//9 8//8 6//6
f 10//10 9//9 6//6
f 9//9 10//10 11//11
f 11//11 10//10 12//12
f 13//13 11//11 12//12
f 13//13 12//12 14//14
f 13//13 14//14 15//15
f 15//15 14//14 16//16
f 15//15 16//16 17//17
f 18//18 17//17 16//16
f 19//19 17//17 18//18
f 19//19 18//18 20//20
f 21//21 19//19 20//20
f 22//22 19//19 21//21
f 22//22 21//21 23//23
f 24//24 22//22 23//23
f 24//24 23//23 25//25
f 26//26 24//24 25//25
f 26//26 25//25 27//27
f 28//28 26//26 27//27
f 28//28 27//27 29//29
f 29//29 27//27 30//30
f 31//31 29//29 30//30
f 31//31 30//30 32//32
f 33//33 31//31 32//32
f 33//33 32//32 34//34
f 35//35 33//33 34//34
f 35//35 34//34 36//36
f 37//37 35//35 36//36
f 37//37 36//36 38//38
f 39//39 37//37 38//38
f 39//39 38//38 40//40
f 41//41 39//39 40//40
f 41//41 40//40 42//42
f 41//41 42//42 43//43
f 43//43 42//42 44//44
f 45//45 43//43 44//44
f 45//45 44//44 46//46
f 47//47 45//45 46//46
f 48//48 45//45 47//47
f 48//48 47//47 49//49
f 50//50 48//48 49//49
f 50//50 49//49 51//51
f 52//52 50//50 51//51
f 52//52 51//51 53//53
f 54//54 52//52 53//53
f 55//55 54//54 53//53
f 55//55 53//53 56//56
f 55//55 56//56 57//57
f 57//57 56//56 58//58
f 57//57 58//58 59//59
f 59//59 58//58 60//60
f 59//59 60//60 61//61
f 61//61 60//60 62//62
f 61//61 62//62 63//63
f 63//63 62//62 64//64
f 63//63 64//64 65//65
f 65//65 64//64 66//66
f 65//65 66//66 67//67
f 68//68 67//67 66//66
f 69//69 67//67 68//68
f 69//69 68//68 70//70
f 71//71 69//69 70//70
f 72//72 71//71 73//73
f 74//74 75//75 76//76
f 77//77 74//74 76//76
f 75//75 77//77 76//76
f 78//78 75//75 74//74
f 79//79 75//75 78//78
f 78//78 74//74 80//80
f 81//81 78//78 80//80
f 82//82 78//78 81//81
f 82//82 83//83 78//78
f 83//83 84//84 79//79
f 84//84 85//85 79//79
f 80//80 74//74 86//86
f 87//87 80//80 86//86
f 81//81 80//80 87//87
f 86//86 74//74 88//88
f 88//88 74//74 77//77
f 86//86 88//88 89//89
f 90//90 86//86 89//89
f 87//87 86//86 90//90
f 75//75 91//91 77//77
f 90//90 89//89 92//92
f 90//90 92//92 93//93
f 94//94 90//90 93//93
f 95//95 83//83 82//82
f 95//95 82//82 81//81
f 95//95 81//81 87//87
f 95//95 87//87 90//90
f 95//95 96//96 83//83
f 97//97 91//91 75//75
f 97//97 98//98 91//91
f 97//97 99//99 98//98
f 100//100 95//95 101//101
f 102//102 103//103 104//104
f 102//102 104//104 105//105
f 102//102 105//105 106//106
f 106//106 105//105 107//107
f 108//108 102//102 106//106
f 109//109 102//102 108//108
f 110//110 108//108 106//106
f 111//111 112//112 113//113
f 111//111 113//113 114//114
f 111//111 114//114 115//115
f 111//111 115//115 116//116
f 111//111 116//116 117//117
f 117//117 118//118 111//111
f 118//118 119//119 111//111
f 120//120 111//111 119//119
f 120//120 121//121 111//111
f 121//121 122//122 111//111
f 111//111 122//122 123//123
f 114//114 113//113 124//124
f 124//124 113//113 125//125
f 125//125 113//113 126//126
f 126//126 113//113 127//127
f 127//127 113//113 128//128
f 128//128 113//113 129//129
f 129//129 113//113 130//130
f 130//130 113//113 131//131
f 131//131 113//113 132//132
f 132//132 113//113 133//133
f 133//133 113//113 134//134
f 133//133 134//134 135//135
f 135//135 134//134 136//136
f 134//134 137//137 136//136
f 137//137 134//134 138//138
f 138//138 134//134 139//139
f 139//139 134//134 140//140
f 140//140 134//134 141//141
f 134//134 142//142 141//141
f 134//134 143//143 142//142
f 134//134 144//144 143//143
f 144//144 134//134 145//145
f 145//145 134//134 146//146
f 147//147 134//134 148//148
f 149//149 150//150 151//151
f 149//149 152//152 150//150
f 151//151 150//150 153//153
f 151//151 153//153 154//154
f 154//154 153//153 155//155
f 154//154 155//155 156//156
f 152//152 157//157 150//150
f 158//158 159//159 160//160
f 161//161 159//159 158//158
f 162//162 159//159 161//161
f 163//163 162//162 161//161
f 164//164 162//162 163//163
f 165//165 162//162 164//164
f 9//9 166//166 8//8
f 166//166 9//9 167//167
f 168//168 169//169 170//170
f 168//168 171//171 169//169
f 172//172 169//169 173//173
f 174//174 169//169 172//172
f 169//169 174//174 175//175
f 176//176 169//169 175//175
f 177//177 169//169 176//176
f 178//178 169//169 177//177
f 178//178 179//179 169//169
f 179//179 180//180 169//169
f 180//180 181//181 169//169
f 182//182 181//181 180//180
f 182//182 183//183 181//181
f 183//183 184//184 181//181
f 184//184 185//185 181//181
f 185//185 186//186 181//181
f 186//186 187//187 181//181
f 187//187 188//188 181//181
f 188//188 189//189 181//181
f 181//181 189//189 190//190
f 181//181 190//190 191//191
f 192//192 181//181 191//191
f 193//193 181//181 192//192
f 194//194 181//181 193//193
f 195//195 181//181 194//194
f 195//195 196//196 181//181
f 196//196 197//197 198//198
f 196//196 198//198 199//199
f 199//199 200//200 196//196
f 196//196 200//200 201//201
f 201//201 202//202 196//196
f 196//196 202//202 203//203
f 196//196 203//203 204//204
f 205//205 196//196 206//206
f 207//207 196//196 205//205
