v 105.5782 64.94135 70.55347
v 106.4829 75.90538 52.75301
v 105.5782 64.94135 70.55347
v 105.5782 64.94135 70.55347
v 107.7175 62.45913 69.13332
v 108.5733 61.46623 68.56525
v 108.5733 61.46623 68.56525
v 109.478 72.43027 50.76478
v 110.3828 83.3943 32.96432
v 108.4476 61.2884 68.44933
v 109.2517 81.79382 31.92102
v 108.432 61.2663 68.43492
v 109.1111 81.59494 31.79138
v 108.4276 61.2601 68.43088
v 109.0716 81.53911 31.75498
v 108.3783 61.19038 68.38542
v 108.6281 80.91156 31.34591
v 107.7707 60.3307 67.82503
v 108.5606 80.81604 31.28364
v 107.1946 59.51561 67.2937
v 107.1284 59.42184 67.23258
v 108.4892 80.71506 31.21781
v 106.9902 59.22627 67.10509
v 108.4739 80.69333 31.20365
v 106.6236 58.70763 66.76701
v 108.4332 80.6357 31.16608
v 106.674 58.53858 66.66544
v 108.7105 79.7048 30.60679
v 108.8865 79.11418 30.25196
v 106.6865 58.49663 66.64024
v 108.9989 78.73667 30.02515
v 106.6902 58.48415 66.63274
v 109.0324 78.62432 29.95765
v 106.7183 58.3898 66.57607
v 109.2854 77.77521 29.44751
v 107.0408 57.30741 65.92577
v 109.3212 77.65495 29.37525
v 107.3072 56.41318 65.38851
v 109.3508 77.55559 29.31556
v 107.5705 55.52931 64.85748
v 109.3801 77.45738 29.25655
v 107.672 55.47573 64.82964
v 110.2935 76.97517 29.00597
v 107.8994 55.35569 64.76726
v 112.34 75.89478 28.44453
v 108.5338 55.02078 64.59322
v 108.7875 54.88685 64.52362
v 112.4387 75.84267 28.41746
v 109.6526 54.43015 64.28629
v 112.5348 75.79193 28.39109
v 110.3649 54.05411 64.09088
v 112.6139 75.75015 28.36938
v 110.8593 53.79308 63.95524
v 112.6689 75.72115 28.35431
v 112.6689 75.72115 28.3543
v 111.0794 53.83605 63.99289
v 114.6502 76.10784 28.69319
v 111.1442 53.84869 64.00397
v 115.2334 76.22166 28.79294
v 111.1509 53.84998 64.0051
v 115.2929 76.23328 28.80312
v 111.1539 53.85059 64.00563
v 115.3205 76.23866 28.80784
v 111.1578 53.85134 64.00629
v 115.3554 76.24548 28.81381
v 111.2297 53.86538 64.01859
v 116.0026 76.37178 28.92451
v 114.5634 54.51601 64.58879
v 116.373 76.44408 28.98786
v 114.5634 54.51601 64.58879
v 116.373 76.44408 28.98786
v 114.5634 54.51601 64.58879
v 114.5634 54.51601 64.58879
v 115.4192 53.52312 64.02073
v 117.5585 51.04089 62.60057
v 117.5585 51.04089 62.60057
v 117.5585 51.04089 62.60057
v 114.5634 54.51601 64.58879
v 114.5634 54.51601 64.58879
v 114.5634 54.51601 64.58879
v 116.373 76.44408 28.98786
v 116.373 76.44408 28.98786
v 116.373 76.44408 28.98786
v 114.5634 54.51601 64.58879
v 110.1502 49.59504 61.33345
v 114.5634 54.51601 64.58879
v 116.373 76.44408 28.98786
v 114.5634 54.51601 64.58879
v 115.4682 65.48004 46.78833
v 116.373 76.44408 28.98786
v 118.4633 62.00493 44.8001
v 116.373 76.44406 28.98788
v 116.373 76.44408 28.98786
v 117.2287 75.45119 28.4198
v 111.9598 71.52311 25.73252
v 116.373 76.44408 28.98786
v 110.1502 49.59504 61.33345
v 119.3681 72.96896 26.99963
v 111.9598 71.52311 25.73252
v 112.6689 75.72115 28.3543
v 112.6689 75.72115 28.35431
v 106.4829 75.90538 52.75301
v 105.5782 64.94135 70.55347
v 105.5782 64.94135 70.55347
v 107.7175 62.45913 69.13332
v 109.478 72.43027 50.76478
v 108.5733 61.46623 68.56525
v 109.1422 84.83374 33.78786
v 107.3877 86.86942 34.95254
v 110.3828 83.3943 32.96432
v 105.5782 64.94135 70.55347
v 101.6789 59.42415 66.95701
v 103.5727 53.0675 63.13795
v 106.6236 58.70763 66.76701
v 106.9902 59.22627 67.10509
v 107.1284 59.42184 67.23258
v 107.1946 59.51561 67.2937
v 107.7707 60.3307 67.82503
v 108.3783 61.19038 68.38542
v 108.4276 61.2601 68.43088
v 108.432 61.2663 68.43492
v 108.4476 61.2884 68.44933
v 108.5733 61.46623 68.56525
v 106.674 58.53858 66.66544
v 106.6865 58.49663 66.64024
v 106.6902 58.48415 66.63274
v 106.7183 58.3898 66.57607
v 107.0408 57.30741 65.92577
v 107.3072 56.41318 65.38851
v 107.5705 55.52931 64.85748
v 107.672 55.47573 64.82964
v 107.8994 55.35569 64.76726
v 108.5338 55.02078 64.59322
v 110.1502 49.59504 61.33345
v 108.7875 54.88685 64.52362
v 109.6526 54.43015 64.28629
v 110.3649 54.05411 64.09088
v 110.8593 53.79308 63.95524
v 111.0794 53.83605 63.99289
v 111.1442 53.84869 64.00397
v 111.1509 53.84998 64.0051
v 111.1539 53.85059 64.00563
v 111.1578 53.85134 64.00629
v 111.2297 53.86538 64.01859
v 114.5634 54.51601 64.58879
v 114.5634 54.51601 64.58879
v 114.5634 54.51601 64.58879
v 117.5585 51.04089 62.60057
v 105.5782 64.94135 70.55347
v 103.4884 81.35222 31.35608
v 101.6789 59.42415 66.95701
v 106.4829 75.90538 52.75301
v 105.3822 74.99557 27.53702
v 103.5727 53.0675 63.13795
v 111.9598 71.52311 25.73252
v 110.1502 49.59504 61.33345
v 107.3877 86.86942 34.95254
v 117.5585 51.04089 62.60057
v 115.4682 65.48004 46.78833
v 114.5634 54.51601 64.58879
v 118.4633 62.00493 44.8001
v 116.373 76.44406 28.98788
v 119.3681 72.96896 26.99963
v 117.2287 75.45119 28.4198
v 116.373 76.44408 28.98786
v 110.3828 83.3943 32.96432
v 103.4884 81.35222 31.35608
v 109.1422 84.83374 33.78786
v 103.4884 81.35222 31.35608
v 107.3877 86.86942 34.95254
v 110.3828 83.3943 32.96432
v 109.2517 81.79382 31.92102
v 110.3828 83.3943 32.96432
v 109.1111 81.59494 31.79138
v 109.0716 81.53911 31.75498
v 108.6281 80.91156 31.34591
v 108.5606 80.81604 31.28364
v 108.4892 80.71506 31.21781
v 108.4739 80.69333 31.20365
v 108.4332 80.6357 31.16608
v 105.3822 74.99557 27.53702
v 108.7105 79.7048 30.60679
v 108.8865 79.11418 30.25196
v 108.9989 78.73667 30.02515
v 109.0324 78.62432 29.95765
v 109.2854 77.77521 29.44751
v 109.3212 77.65495 29.37525
v 109.3508 77.55559 29.31556
v 109.3801 77.45738 29.25655
v 110.2935 76.97517 29.00597
v 112.34 75.89478 28.44453
v 112.4387 75.84267 28.41746
v 112.5348 75.79193 28.39109
v 112.6139 75.75015 28.36938
v 112.6689 75.72115 28.35431
v 111.9598 71.52311 25.73252
v 112.6689 75.72115 28.3543
v 114.6502 76.10784 28.69319
v 115.2334 76.22166 28.79294
v 115.2929 76.23328 28.80312
v 115.3205 76.23866 28.80784
v 115.3554 76.24548 28.81381
v 116.0026 76.37178 28.92451
v 116.373 76.44408 28.98786
v 117.2287 75.45119 28.4198
v 116.373 76.44408 28.98786
v 119.3681 72.96896 26.99963

vn -0.5990177 0.6950222 0.3976457
vn -0.5990177 0.6950222 0.3976455
vn -0.4829468 0.186718 0.8555108
vn -0.04323766 -0.5239504 0.8506506
vn -0.04323766 -0.5239504 0.8506506
vn 0.8594039 -0.4536949 -0.2357666
vn 0.5868826 -0.7621348 -0.2733489
vn 0.9190204 0.3130772 0.2395496
vn 0.8594015 -0.453698 -0.235769
vn 0.8594012 -0.4536987 -0.2357694
vn 0.8594013 -0.4536984 -0.2357693
vn 0.8594019 -0.4536976 -0.2357689
vn 0.8594024 -0.4536968 -0.2357684
vn 0.8593994 -0.4537013 -0.2357706
vn 0.8594008 -0.4536992 -0.2357696
vn 0.859401 -0.4536987 -0.2357694
vn 0.8594011 -0.4536989 -0.2357695
vn 0.859401 -0.4536989 -0.2357695
vn 0.8594011 -0.4536987 -0.2357693
vn 0.859401 -0.453699 -0.2357695
vn 0.8594016 -0.4536981 -0.235769
vn 0.8594023 -0.4536969 -0.2357683
vn 0.8594012 -0.4536986 -0.2357692
vn 0.8594008 -0.4536992 -0.2357696
vn 0.9264138 -0.3397796 -0.1621957
vn 0.9772485 0.1547826 0.1450092
vn 0.9679378 0.1889111 0.165557
vn 0.9679379 0.1889104 0.1655566
vn 0.967938 0.1889101 0.1655564
vn 0.9679387 0.1889083 0.1655555
vn 0.9679388 0.1889071 0.1655549
vn 0.9679393 0.1889056 0.1655543
vn 0.9679386 0.1889081 0.1655555
vn 0.9679382 0.1889092 0.1655559
vn 0.9679382 0.1889097 0.1655562
vn 0.9679381 0.1889098 0.1655561
vn 0.9679384 0.1889088 0.1655556
vn 0.9679383 0.1889094 0.165556
vn 0.9679379 0.1889104 0.1655565
vn 0.9495531 0.2431649 0.1980396
vn 0.5650615 0.6893517 0.4533211
vn 0.5094714 0.7208556 0.4699001
vn 0.5094705 0.7208561 0.4699004
vn 0.5094699 0.7208565 0.4699005
vn 0.5094699 0.7208564 0.4699005
vn 0.5094702 0.7208562 0.4699004
vn 0.5094707 0.7208559 0.4699004
vn 0.5094703 0.7208561 0.4699005
vn 0.5094707 0.720856 0.4699004
vn 0.5094703 0.7208561 0.4699004
vn 0.5094704 0.7208561 0.4699005
vn 0.5094707 0.7208558 0.4699003
vn 0.3301216 0.7961286 0.5071478
vn 0.5094907 0.7208453 0.4698949
vn -0.2474384 0.8305356 0.4989839
vn -0.2474396 0.8305353 0.4989836
vn -0.2474401 0.8305354 0.4989835
vn -0.2474412 0.8305351 0.4989832
vn -0.2474392 0.8305354 0.4989837
vn -0.2474377 0.8305357 0.4989843
vn -0.247435 0.8305359 0.4989849
vn -0.2473915 0.8305416 0.4989972
vn -0.2474188 0.8305381 0.4989895
vn -0.2474463 0.8305345 0.4989819
vn -0.2474423 0.8305351 0.4989829
vn -0.2474395 0.8305354 0.4989836
vn -0.2474389 0.8305354 0.4989837
vn -0.2474387 0.8305355 0.4989838
vn -0.2474338 0.8305365 0.4989846
vn -0.08179684 0.8504449 0.5196661
vn -0.5990177 0.6950223 0.3976454
vn -0.5990177 0.6950223 0.3976454
vn -0.5990177 0.6950223 0.3976454
vn -0.04323766 -0.5239504 0.8506506
vn 0.2474393 -0.8305354 -0.4989838
vn -0.04323766 -0.5239504 0.8506506
vn 0.8706352 0.3978606 0.2893118
vn -0.4219179 0.05298403 0.9050845
vn -0.3731794 -0.04135828 0.9268369
vn -0.6005758 0.6560397 0.4570783
vn -0.5990177 0.6950223 0.3976454
vn -0.5990177 0.6950223 0.3976454
vn -0.5990177 0.6950223 0.3976454
vn -0.6002851 0.6373572 0.4831496
vn -0.04323766 -0.5239504 0.8506506
vn -0.5995126 0.6883346 0.4083874
vn -0.5990177 0.6950223 0.3976454
vn -0.5991119 0.6139392 0.513949
vn -0.5990229 0.6950191 0.3976431
vn -0.5953459 0.7252243 0.3458512
vn 0.2474392 -0.8305354 -0.4989837
vn -0.5990366 0.6950107 0.3976372
vn 0.0432335 0.5239552 -0.8506479
vn 0.04323766 0.5239504 -0.8506506
vn 0.04323731 0.5239502 -0.8506508
vn 0 0 0
vn 0.2474392 -0.8305354 -0.4989838
vn 0.2474392 -0.8305354 -0.4989837
vn 0.2474392 -0.8305355 -0.4989838
vn 0.04323731 0.5239502 -0.8506508
vn 0.04323731 0.5239502 -0.8506508
vn 0.7995676 0.4923615 0.3439066
vn 0.7995676 0.4923615 0.3439066
vn 0.7995676 0.4923615 0.3439066
vn 0.7995676 0.4923615 0.3439066
vn 0.7995676 0.4923615 0.3439066
vn 0.7995676 0.4923615 0.3439066
vn 0.7995676 0.4923615 0.3439066
vn 0.7995676 0.4923615 0.3439066
vn 0.7995676 0.4923615 0.3439066
vn -0.04323766 -0.5239504 0.8506506
vn -0.04323766 -0.5239504 0.8506506
vn -0.04323766 -0.5239504 0.8506506
vn -0.04323766 -0.5239504 0.8506506
vn -0.04323766 -0.5239504 0.8506506
vn -0.04323766 -0.5239504 0.8506506
vn -0.04323766 -0.5239504 0.8506506
vn -0.04323766 -0.5239504 0.8506506
vn -0.04323766 -0.5239504 0.8506506
vn -0.04323766 -0.5239504 0.8506506
vn -0.04323766 -0.5239504 0.8506506
vn -0.04323766 -0.5239504 0.8506506
vn -0.04323766 -0.5239504 0.8506506
vn -0.04323765 -0.5239503 0.8506506
vn -0.04323766 -0.5239504 0.8506506
vn -0.04323766 -0.5239504 0.8506506
vn -0.04323765 -0.5239503 0.8506506
vn -0.04323766 -0.5239504 0.8506506
vn -0.04323766 -0.5239504 0.8506506
vn -0.04323766 -0.5239504 0.8506506
vn -0.04323765 -0.5239503 0.8506506
vn -0.04323766 -0.5239504 0.8506506
vn -0.04323766 -0.5239504 0.8506506
vn -0.04323766 -0.5239504 0.8506506
vn -0.04323766 -0.5239504 0.8506506
vn -0.04323766 -0.5239504 0.8506506
vn -0.04323766 -0.5239504 0.8506506
vn -0.04323766 -0.5239504 0.8506506
vn -0.04323766 -0.5239504 0.8506506
vn -0.04323766 -0.5239504 0.8506506
vn -0.04323766 -0.5239504 0.8506506
vn -0.04323765 -0.5239503 0.8506506
vn -0.04323766 -0.5239504 0.8506506
vn -0.04323765 -0.5239503 0.8506506
vn -0.04323765 -0.5239503 0.8506506
vn -0.04323766 -0.5239504 0.8506506
vn -0.04323765 -0.5239503 0.8506506
vn -0.04323765 -0.5239503 0.8506506
vn -0.8594014 0.4536984 0.2357693
vn -0.9602594 0.2567922 0.1093602
vn -0.9990512 0.02711985 -0.03407617
vn -0.8594013 0.4536983 0.2357692
vn -0.8739834 -0.3926738 -0.2862873
vn -0.7101238 -0.5827952 -0.3950621
vn -0.5094702 -0.7208561 -0.4699005
vn -0.5094702 -0.7208562 -0.4699005
vn -0.8594013 0.4536985 0.2357692
vn 0.7995676 0.4923615 0.3439066
vn 0.7995676 0.4923615 0.3439066
vn 0.7995676 0.4923615 0.3439066
vn 0.7995676 0.4923615 0.3439066
vn 0.7995676 0.4923615 0.3439066
vn 0.7995676 0.4923615 0.3439066
vn 0.7995676 0.4923615 0.3439066
vn 0.7995676 0.4923615 0.3439065
vn 0.5953385 -0.5743207 -0.5618966
vn 0.04323722 0.5239509 -0.8506503
vn 0.04323748 0.5239502 -0.8506507
vn 0.0432374 0.5239503 -0.8506507
vn 0.04323748 0.5239503 -0.8506507
vn 0.04323748 0.5239503 -0.8506507
vn 0.04323737 0.5239505 -0.8506505
vn 0.04323737 0.5239505 -0.8506505
vn 0.04323737 0.5239505 -0.8506505
vn 0.04323737 0.5239505 -0.8506505
vn 0.04323737 0.5239505 -0.8506505
vn 0.04323737 0.5239505 -0.8506505
vn 0.04323737 0.5239505 -0.8506505
vn 0.04323737 0.5239505 -0.8506505
vn 0.04323734 0.5239503 -0.8506507
vn 0.04323741 0.5239502 -0.8506507
vn 0.04323734 0.5239503 -0.8506507
vn 0.04323734 0.5239503 -0.8506507
vn 0.04323734 0.5239503 -0.8506507
vn 0.04323734 0.5239503 -0.8506507
vn 0.04323734 0.5239503 -0.8506507
vn 0.04323734 0.5239503 -0.8506507
vn 0.04323734 0.5239503 -0.8506507
vn 0.04323747 0.5239502 -0.8506508
vn 0.04323749 0.5239502 -0.8506508
vn 0.04323749 0.5239502 -0.8506508
vn 0.04323749 0.5239502 -0.8506508
vn 0.04323749 0.5239502 -0.8506508
vn 0.04323749 0.5239502 -0.8506508
vn 0.04323749 0.5239502 -0.8506508
vn 0.04323754 0.5239502 -0.8506507
vn 0.04323774 0.5239501 -0.8506508
vn 0.04323774 0.5239501 -0.8506508
vn 0.04323774 0.5239501 -0.8506508
vn 0.04323774 0.5239501 -0.8506508
vn 0.04323774 0.5239501 -0.8506508
vn 0.04323774 0.5239501 -0.8506508
vn 0.04323774 0.5239501 -0.8506508
vn 0.04323773 0.52395 -0.8506507
vn 0.04323748 0.5239503 -0.8506507
vn 0.04323748 0.5239503 -0.8506507
vn 0.04323748 0.5239502 -0.8506507

f 1//1 2//2 3//3
f 4//4 1//1 3//3
f 3//3 5//5 4//4
f 3//3 6//6 5//5
f 5//5 6//6 7//7
f 8//8 7//7 6//6
f 9//9 8//8 6//6
f 10//10 9//9 6//6
f 9//9 10//10 11//11
f 11//11 10//10 12//12
f 13//13 11//11 12//12
f 13//13 12//12 14//14
f 13//13 14//14 15//15
f 15//15 14//14 16//16
f 15//15 16//16 17//17
f 18//18 17//17 16//16
f 19//19 17//17 18//18
f 19//19 18//18 20//20
f 21//21 19//19 20//20
f 22//22 19//19 21//21
f 22//22 21//21 23//23
f 24//24 22//22 23//23
f 24//24 23//23 25//25
f 26//26 24//24 25//25
f 26//26 25//25 27//27
f 28//28 26//26 27//27
f 28//28 27//27 29//29
f 29//29 27//27 30//30
f 31//31 29//29 30//30
f 31//31 30//30 32//32
f 33//33 31//31 32//32
f 33//33 32//32 34//34
f 35//35 33//33 34//34
f 35//35 34//34 36//36
f 37//37 35//35 36//36
f 37//37 36//36 38//38
f 39//39 37//37 38//38
f 39//39 38//38 40//40
f 41//41 39//39 40//40
f 41//41 40//40 42//42
f 41//41 42//42 43//43
f 43//43 42//42 44//44
f 45//45 43//43 44//44
f 45//45 44//44 46//46
f 47//47 45//45 46//46
f 48//48 45//45 47//47
f 48//48 47//47 49//49
f 50//50 48//48 49//49
f 50//50 49//49 51//51
f 52//52 50//50 51//51
f 52//52 51//51 53//53
f 54//54 52//52 53//53
f 55//55 54//54 53//53
f 55//55 53//53 56//56
f 55//55 56//56 57//57
f 57//57 56//56 58//58
f 57//57 58//58 59//59
f 59//59 58//58 60//60
f 59//59 60//60 61//61
f 61//61 60//60 62//62
f 61//61 62//62 63//63
f 63//63 62//62 64//64
f 63//63 64//64 65//65
f 65//65 64//64 66//66
f 65//65 66//66 67//67
f 68//68 67//67 66//66
f 69//69 67//67 68//68
f 69//69 68//68 70//70
f 71//71 69//69 70//70
f 72//72 71//71 73//73
f 74//74 75//75 76//76
f 77//77 74//74 76//76
f 75//75 77//77 76//76
f 78//78 75//75 74//74
f 79//79 75//75 78//78
f 78//78 74//74 80//80
f 81//81 78//78 80//80
f 82//82 78//78 81//81
f 82//82 83//83 78//78
f 83//83 84//84 79//79
f 84//84 85//85 79//79
f 80//80 74//74 86//86
f 87//87 80//80 86//86
f 81//81 80//80 87//87
f 86//86 74//74 88//88
f 88//88 74//74 77//77
f 86//86 88//88 89//89
f 90//90 86//86 89//89
f 87//87 86//86 90//90
f 75//75 91//91 77//77
f 90//90 89//89 92//92
f 90//90 92//92 93//93
f 94//94 90//90 93//93
f 95//95 83//83 82//82
f 95//95 82//82 81//81
f 95//95 81//81 87//87
f 95//95 87//87 90//90
f 95//95 96//96 83//83
f 97//97 91//91 75//75
f 97//97 98//98 91//91
f 97//97 99//99 98//98
f 100//100 95//95 101//101
f 102//102 103//103 104//104
f 102//102 104//104 105//105
f 102//102 105//105 106//106
f 106//106 105//105 107//107
f 108//108 102//102 106//106
f 109//109 102//102 108//108
f 110//110 108//108 106//106
f 111//111 112//112 113//113
f 111//111 113//113 114//114
f 111//111 114//114 115//115
f 111//111 115//115 116//116
f 111//111 116//116 117//117
f 117//117 118//118 111//111
f 118//118 119//119 111//111
f 120//120 111//111 119//119
f 120//120 121//121 111//111
f 121//121 122//122 111//111
f 111//111 122//122 123//123
f 114//114 113//113 124//124
f 124//124 113//113 125//125
f 125//125 113//113 126//126
f 126//126 113//113 127//127
f 127//127 113//113 128//128
f 128//128 113//113 129//129
f 129//129 113//113 130//130
f 130//130 113//113 131//131
f 131//131 113//113 132//132
f 132//132 113//113 133//133
f 133//133 113//113 134//134
f 133//133 134//134 135//135
f 135//135 134//134 136//136
f 134//134 137//137 136//136
f 137//137 134//134 138//138
f 138//138 134//134 139//139
f 139//139 134//134 140//140
f 140//140 134//134 141//141
f 134//134 142//142 141//141
f 134//134 143//143 142//142
f 134//134 144//144 143//143
f 144//144 134//134 145//145
f 145//145 134//134 146//146
f 147//147 134//134 148//148
f 149//149 150//150 151//151
f 149//149 152//152 150//150
f 151//151 150//150 153//153
f 151//151 153//153 154//154
f 154//154 153//153 155//155
f 154//154 155//155 156//156
f 152//152 157//157 150//150
f 158//158 159//159 160//160
f 161//161 159//159 158//158
f 162//162 159//159 161//161
f 163//163 162//162 161//161
f 164//164 162//162 163//163
f 165//165 162//162 164//164
f 9//9 166//166 8//8
f 166//166 9//9 167//167
f 168//168 169//169 170//170
f 168//168 171//171 169//169
f 172//172 169//169 173//173
f 174//174 169//169 172//172
f 169//169 174//174 175//175
f 176//176 169//169 175//175
f 177//177 169//169 176//176
f 178//178 169//169 177//177
f 178//178 179//179 169//169
f 179//179 180//180 169//169
f 180//180 181//181 169//169
f 182//182 181//181 180//180
f 182//182 183//183 181//181
f 183//183 184//184 181//181
f 184//184 185//185 181//181
f 185//185 186//186 181//181
f 186//186 187//187 181//181
f 187//187 188//188 181//181
f 188//188 189//189 181//181
f 181//181 189//189 190//190
f 181//181 190//190 191//191
f 192//192 181//181 191//191
f 193//193 181//181 192//192
f 194//194 181//181 193//193
f 195//195 181//181 194//194
f 195//195 196//196 181//181
f 196//196 197//197 198//198
f 196//196 198//198 199//199
f 199//199 200//200 196//196
f 196//196 200//200 201//201
f 201//201 202//202 196//196
f 196//196 202//202 203//203
f 196//196 203//203 204//204
f 205//205 196//196 206//206
f 207//207 196//196 205//205
