v -72.98482 -80.76273 -97.26865
v -89.40433 -73.8884 -86.26735
v -72.98482 -80.76273 -97.26865
v -72.98482 -80.76273 -97.26865
v -73.16113 -77.86185 -99.34446
v -73.23166 -76.7015 -100.1748
v -73.23166 -76.7015 -100.1748
v -89.65118 -69.82719 -89.17348
v -106.0707 -62.95286 -78.17218
v -73.37717 -76.73468 -100.3712
v -107.3802 -63.25147 -79.94008
v -73.39525 -76.73881 -100.3956
v -107.5429 -63.28858 -80.15976
v -73.40032 -76.73996 -100.4025
v -107.5886 -63.299 -80.22144
v -73.45737 -76.75298 -100.4795
v -108.1021 -63.41608 -80.91463
v -74.16077 -76.91337 -101.4291
v -108.1803 -63.4339 -81.02013
v -74.82768 -77.06544 -102.3295
v -74.9044 -77.08294 -102.433
v -108.2629 -63.45274 -81.13168
v -75.06443 -77.11943 -102.6491
v -108.2807 -63.45679 -81.15569
v -75.48878 -77.21619 -103.2219
v -108.3278 -63.46755 -81.21935
v -75.5462 -77.10099 -103.3796
v -108.644 -62.83319 -82.08764
v -108.8446 -62.43073 -82.63852
v -75.56045 -77.0724 -103.4188
v -108.9728 -62.17348 -82.99064
v -75.56469 -77.0639 -103.4304
v -109.011 -62.09692 -83.09544
v -75.59673 -76.99961 -103.5184
v -109.2994 -61.51831 -83.88744
v -75.96437 -76.26202 -104.528
v -109.3402 -61.43636 -83.99961
v -76.2681 -75.65267 -105.3621
v -109.374 -61.36865 -84.09229
v -76.56831 -75.05037 -106.1865
v -109.4073 -61.30173 -84.18389
v -76.54577 -74.93997 -106.2218
v -109.2045 -60.30812 -84.50198
v -76.49527 -74.69261 -106.301
v -108.7499 -58.08187 -85.2147
v -76.35437 -74.00251 -106.522
v -76.29802 -73.72652 -106.6103
v -108.728 -57.97453 -85.24906
v -76.10589 -72.78548 -106.9116
v -108.7067 -57.86997 -85.28254
v -75.94769 -72.01062 -107.1596
v -108.6891 -57.78387 -85.3101
v -75.83788 -71.47276 -107.3318
v -108.6769 -57.72411 -85.32923
v -108.6769 -57.72411 -85.32923
v -75.71232 -71.30077 -107.2519
v -107.5469 -56.17628 -84.60991
v -75.67536 -71.25015 -107.2284
v -107.2143 -55.72069 -84.39818
v -75.67159 -71.24498 -107.226
v -107.1804 -55.67418 -84.37656
v -75.66984 -71.24258 -107.2249
v -107.1646 -55.65261 -84.36655
v -75.66763 -71.23956 -107.2235
v -107.1447 -55.62536 -84.35387
v -75.62662 -71.18338 -107.1974
v -106.7756 -55.11979 -84.11892
v -73.72535 -68.57906 -105.987
v -106.5644 -54.83041 -83.98444
v -73.72535 -68.57906 -105.987
v -106.5644 -54.83041 -83.98444
v -73.72535 -68.57906 -105.987
v -73.72535 -68.57906 -105.987
v -73.79588 -67.41871 -106.8174
v -73.97219 -64.51784 -108.8932
v -73.97219 -64.51784 -108.8932
v -73.97219 -64.51784 -108.8932
v -73.72535 -68.57906 -105.987
v -73.72535 -68.57906 -105.987
v -73.72535 -68.57906 -105.987
v -106.5644 -54.83041 -83.98444
v -106.5644 -54.83041 -83.98444
v -106.5644 -54.83041 -83.98444
v -73.72535 -68.57906 -105.987
v -78.19724 -70.30522 -111.5828
v -73.72535 -68.57906 -105.987
v -106.5644 -54.83041 -83.98444
v -73.72535 -68.57906 -105.987
v -90.14487 -61.70473 -94.98574
v -106.5644 -54.83041 -83.98444
v -90.39171 -57.64352 -97.89187
v -106.5644 -54.83042 -83.98445
v -106.5644 -54.83041 -83.98444
v -106.6349 -53.67007 -84.81477
v -111.0363 -56.55658 -89.58015
v -106.5644 -54.83041 -83.98444
v -78.19724 -70.30522 -111.5828
v -106.8112 -50.7692 -86.89057
v -111.0363 -56.55658 -89.58015
v -108.6769 -57.72411 -85.32923
v -108.6769 -57.72411 -85.32923
v -89.40433 -73.8884 -86.26735
v -72.98482 -80.76273 -97.26865
v -72.98482 -80.76273 -97.26865
v -73.16113 -77.86185 -99.34446
v -89.65118 -69.82719 -89.17348
v -73.23166 -76.7015 -100.1748
v -105.9684 -64.63508 -76.96842
v -105.8238 -67.01408 -75.26605
v -106.0707 -62.95286 -78.17218
v -72.98482 -80.76273 -97.26865
v -77.49906 -81.7921 -103.363
v -79.65812 -77.46046 -109.2921
v -75.48878 -77.21619 -103.2219
v -75.06443 -77.11943 -102.6491
v -74.9044 -77.08294 -102.433
v -74.82768 -77.06544 -102.3295
v -74.16077 -76.91337 -101.4291
v -73.45737 -76.75298 -100.4795
v -73.40032 -76.73996 -100.4025
v -73.39525 -76.73881 -100.3956
v -73.37717 -76.73468 -100.3712
v -73.23166 -76.7015 -100.1748
v -75.5462 -77.10099 -103.3796
v -75.56045 -77.0724 -103.4188
v -75.56469 -77.0639 -103.4304
v -75.59673 -76.99961 -103.5184
v -75.96437 -76.26202 -104.528
v -76.2681 -75.65267 -105.3621
v -76.56831 -75.05037 -106.1865
v -76.54577 -74.93997 -106.2218
v -76.49527 -74.69261 -106.301
v -76.35437 -74.00251 -106.522
v -78.19724 -70.30522 -111.5828
v -76.29802 -73.72652 -106.6103
v -76.10589 -72.78548 -106.9116
v -75.94769 -72.01062 -107.1596
v -75.83788 -71.47276 -107.3318
v -75.71232 -71.30077 -107.2519
v -75.67536 -71.25015 -107.2284
v -75.67159 -71.24498 -107.226
v -75.66984 -71.24258 -107.2249
v -75.66763 -71.23956 -107.2235
v -75.62662 -71.18338 -107.1974
v -73.72535 -68.57906 -105.987
v -73.72535 -68.57906 -105.987
v -73.72535 -68.57906 -105.987
v -73.97219 -64.51784 -108.8932
v -72.98482 -80.76273 -97.26865
v -110.3381 -68.04346 -81.36037
v -77.49906 -81.7921 -103.363
v -89.40433 -73.8884 -86.26735
v -112.4971 -63.71182 -87.28947
v -79.65812 -77.46046 -109.2921
v -111.0363 -56.55658 -89.58015
v -78.19724 -70.30522 -111.5828
v -105.8238 -67.01408 -75.26605
v -73.97219 -64.51784 -108.8932
v -90.14487 -61.70473 -94.98574
v -73.72535 -68.57906 -105.987
v -90.39171 -57.64352 -97.89187
v -106.5644 -54.83042 -83.98445
v -106.8112 -50.7692 -86.89057
v -106.6349 -53.67007 -84.81477
v -106.5644 -54.83041 -83.98444
v -106.0707 -62.95286 -78.17218
v -110.3381 -68.04346 -81.36037
v -105.9684 -64.63508 -76.96842
v -110.3381 -68.04346 -81.36037
v -105.8238 -67.01408 -75.26605
v -106.0707 -62.95286 -78.17218
v -107.3802 -63.25147 -79.94008
v -106.0707 -62.95286 -78.17218
v -107.5429 -63.28858 -80.15976
v -107.5886 -63.299 -80.22144
v -108.1021 -63.41608 -80.91463
v -108.1803 -63.4339 -81.02013
v -108.2629 -63.45274 -81.13168
v -108.2807 -63.45679 -81.15569
v -108.3278 -63.46755 -81.21935
v -112.4971 -63.71182 -87.28947
v -108.644 -62.83319 -82.08764
v -108.8446 -62.43073 -82.63852
v -108.9728 -62.17348 -82.99064
v -109.011 -62.09692 -83.09544
v -109.2994 -61.51831 -83.88744
v -109.3402 -61.43636 -83.99961
v -109.374 -61.36865 -84.09229
v -109.4073 -61.30173 -84.18389
v -109.2045 -60.30812 -84.50198
v -108.7499 -58.08187 -85.2147
v -108.728 -57.97453 -85.24906
v -108.7067 -57.86997 -85.28254
v -108.6891 -57.78387 -85.3101
v -108.6769 -57.72411 -85.32923
v -111.0363 -56.55658 -89.58015
v -108.6769 -57.72411 -85.32923
v -107.5469 -56.17628 -84.60991
v -107.2143 -55.72069 -84.39818
v -107.1804 -55.67418 -84.37656
v -107.1646 -55.65261 -84.36655
v -107.1447 -55.62536 -84.35387
v -106.7756 -55.11979 -84.11892
v -106.5644 -54.83041 -83.98444
v -106.6349 -53.67007 -84.81477
v -106.5644 -54.83041 -83.98444
v -106.8112 -50.7692 -86.89057

vn 0.04936911 -0.8122439 0.5812252
vn 0.04936899 -0.8122438 0.5812252
vn 0.5481318 -0.8304935 0.09915785
vn 0.7846574 -0.3285109 -0.5257313
vn 0.7846574 -0.3285109 -0.5257313
vn 0.1908755 0.9348761 -0.299288
vn 0.06209449 0.757622 -0.6497334
vn 0.5885225 0.6612433 0.4651864
vn 0.1908725 0.9348755 -0.2992915
vn 0.1908721 0.9348755 -0.2992922
vn 0.1908722 0.9348755 -0.2992919
vn 0.1908728 0.9348757 -0.2992911
vn 0.1908733 0.9348758 -0.2992902
vn 0.1908704 0.9348749 -0.2992951
vn 0.1908718 0.9348753 -0.2992927
vn 0.1908721 0.9348754 -0.2992923
vn 0.190872 0.9348755 -0.2992924
vn 0.190872 0.9348754 -0.2992925
vn 0.1908721 0.9348754 -0.2992923
vn 0.1908719 0.9348754 -0.2992925
vn 0.1908726 0.9348755 -0.2992916
vn 0.1908735 0.9348757 -0.2992903
vn 0.1908723 0.9348754 -0.2992921
vn 0.1908718 0.9348754 -0.2992928
vn 0.2776516 0.944466 -0.1757662
vn 0.5400291 0.7786729 0.3194322
vn 0.5520292 0.7561572 0.3514118
vn 0.552029 0.7561575 0.3514111
vn 0.5520289 0.7561578 0.3514109
vn 0.5520285 0.7561589 0.3514092
vn 0.5520281 0.7561595 0.3514081
vn 0.5520278 0.7561604 0.3514067
vn 0.5520284 0.7561589 0.351409
vn 0.5520285 0.7561583 0.35141
vn 0.5520288 0.7561581 0.3514106
vn 0.5520287 0.756158 0.3514106
vn 0.5520284 0.7561585 0.3514097
vn 0.5520287 0.7561583 0.3514102
vn 0.5520289 0.7561576 0.3514112
vn 0.5693987 0.7172679 0.4016365
vn 0.6011221 0.1958819 0.7747792
vn 0.5898141 0.1344953 0.7962602
vn 0.5898139 0.1344943 0.7962606
vn 0.5898138 0.1344937 0.7962608
vn 0.5898138 0.1344937 0.7962608
vn 0.5898138 0.1344941 0.7962606
vn 0.5898141 0.1344946 0.7962604
vn 0.5898139 0.1344942 0.7962606
vn 0.5898141 0.1344945 0.7962605
vn 0.5898139 0.1344942 0.7962605
vn 0.589814 0.1344942 0.7962606
vn 0.5898141 0.1344946 0.7962604
vn 0.5406337 -0.05237479 0.8396263
vn 0.5898185 0.1345164 0.7962534
vn 0.2820945 -0.5659549 0.7746727
vn 0.2820937 -0.5659558 0.7746723
vn 0.2820935 -0.5659562 0.7746722
vn 0.2820927 -0.565957 0.7746718
vn 0.282094 -0.5659556 0.7746724
vn 0.2820952 -0.5659545 0.7746729
vn 0.2820968 -0.5659524 0.7746736
vn 0.2821262 -0.5659201 0.7746866
vn 0.2821078 -0.5659404 0.7746785
vn 0.2820894 -0.5659608 0.7746703
vn 0.282092 -0.5659579 0.7746716
vn 0.2820938 -0.5659558 0.7746723
vn 0.2820942 -0.5659553 0.7746725
vn 0.2820943 -0.5659551 0.7746726
vn 0.2820971 -0.5659513 0.7746745
vn 0.3705819 -0.431289 0.8225929
vn 0.04936884 -0.8122438 0.5812253
vn 0.04936884 -0.8122438 0.5812253
vn 0.04936884 -0.8122438 0.5812253
vn 0.7846574 -0.3285109 -0.5257313
vn -0.2820941 0.5659556 -0.7746723
vn 0.7846574 -0.3285109 -0.5257313
vn 0.6063039 0.5834891 0.5403112
vn 0.6287107 -0.7773201 -0.02227722
vn 0.676111 -0.7289982 -0.1069371
vn 0.1049932 -0.8335314 0.5424038
vn 0.04936884 -0.8122438 0.5812253
vn 0.04936884 -0.8122438 0.5812253
vn 0.04936884 -0.8122438 0.5812253
vn 0.1299281 -0.841761 0.5239821
vn 0.7846574 -0.3285109 -0.5257313
vn 0.05930469 -0.8163359 0.5745249
vn 0.04936884 -0.8122438 0.5812253
vn 0.15984 -0.8505387 0.5010341
vn 0.04936475 -0.812247 0.5812212
vn 0.002163661 -0.791057 0.6117387
vn -0.282094 0.5659556 -0.7746723
vn 0.04935423 -0.8122551 0.5812107
vn -0.7846571 0.3285053 0.5257354
vn -0.7846574 0.3285109 0.5257313
vn -0.7846577 0.3285107 0.5257311
vn 0 0 0
vn -0.2820941 0.5659556 -0.7746724
vn -0.282094 0.5659556 -0.7746724
vn -0.2820941 0.5659556 -0.7746725
vn -0.7846577 0.3285107 0.5257311
vn -0.7846577 0.3285107 0.5257311
vn 0.6179607 0.4820175 0.621115
vn 0.6179607 0.4820175 0.6211149
vn 0.6179607 0.4820175 0.621115
vn 0.6179607 0.4820175 0.621115
vn 0.6179607 0.4820175 0.621115
vn 0.6179607 0.4820175 0.621115
vn 0.6179607 0.4820175 0.621115
vn 0.6179607 0.4820175 0.621115
vn 0.6179607 0.4820175 0.621115
vn 0.7846574 -0.3285109 -0.5257313
vn 0.7846574 -0.3285109 -0.5257313
vn 0.7846574 -0.3285109 -0.5257313
vn 0.7846574 -0.3285109 -0.5257313
vn 0.7846574 -0.3285109 -0.5257313
vn 0.7846574 -0.3285109 -0.5257313
vn 0.7846574 -0.3285109 -0.5257313
vn 0.7846574 -0.3285109 -0.5257313
vn 0.7846574 -0.3285109 -0.5257313
vn 0.7846574 -0.3285109 -0.5257313
vn 0.7846574 -0.3285109 -0.5257313
vn 0.7846574 -0.3285109 -0.5257313
vn 0.7846574 -0.3285109 -0.5257313
vn 0.7846574 -0.3285109 -0.5257313
vn 0.7846574 -0.3285109 -0.5257313
vn 0.7846574 -0.3285109 -0.5257313
vn 0.7846574 -0.3285109 -0.5257313
vn 0.7846574 -0.3285109 -0.5257313
vn 0.7846574 -0.3285109 -0.5257313
vn 0.7846574 -0.3285109 -0.5257313
vn 0.7846574 -0.3285109 -0.5257313
vn 0.7846574 -0.3285109 -0.5257313
vn 0.7846574 -0.3285109 -0.5257313
vn 0.7846574 -0.3285109 -0.5257313
vn 0.7846574 -0.3285109 -0.5257313
vn 0.7846574 -0.3285109 -0.5257313
vn 0.7846574 -0.3285109 -0.5257313
vn 0.7846574 -0.3285109 -0.5257313
vn 0.7846574 -0.3285109 -0.5257313
vn 0.7846574 -0.3285109 -0.5257313
vn 0.7846574 -0.3285109 -0.5257313
vn 0.7846574 -0.3285109 -0.5257313
vn 0.7846574 -0.3285109 -0.5257313
vn 0.7846574 -0.3285109 -0.5257313
vn 0.7846574 -0.3285109 -0.5257313
vn 0.7846574 -0.3285109 -0.5257313
vn 0.7846574 -0.3285109 -0.5257313
vn 0.7846574 -0.3285109 -0.5257313
vn -0.1908723 -0.9348756 0.2992919
vn -0.3337369 -0.9385177 0.08834148
vn -0.4628166 -0.8746429 -0.1442239
vn -0.1908723 -0.9348754 0.2992918
vn -0.605401 -0.5885811 -0.5357817
vn -0.6189057 -0.3663942 -0.6947742
vn -0.5898139 -0.134494 -0.7962606
vn -0.5898139 -0.1344941 -0.7962606
vn -0.1908723 -0.9348754 0.299292
vn 0.6179607 0.4820175 0.621115
vn 0.6179607 0.4820175 0.621115
vn 0.6179607 0.4820175 0.621115
vn 0.6179607 0.4820175 0.621115
vn 0.6179607 0.4820175 0.621115
vn 0.6179607 0.4820175 0.621115
vn 0.6179607 0.4820175 0.621115
vn 0.6179607 0.4820175 0.6211149
vn -0.2074738 0.8619879 -0.4625273
vn -0.7846574 0.3285103 0.5257317
vn -0.7846575 0.3285108 0.5257311
vn -0.7846576 0.3285107 0.5257313
vn -0.7846575 0.3285108 0.5257312
vn -0.7846575 0.3285108 0.5257312
vn -0.7846575 0.3285106 0.5257314
vn -0.7846575 0.3285106 0.5257314
vn -0.7846575 0.3285106 0.5257314
vn -0.7846575 0.3285106 0.5257314
vn -0.7846575 0.3285106 0.5257314
vn -0.7846575 0.3285106 0.5257314
vn -0.7846575 0.3285106 0.5257314
vn -0.7846575 0.3285106 0.5257314
vn -0.7846576 0.3285107 0.5257312
vn -0.7846576 0.3285108 0.5257311
vn -0.7846576 0.3285107 0.5257312
vn -0.7846576 0.3285107 0.5257312
vn -0.7846576 0.3285107 0.5257312
vn -0.7846576 0.3285107 0.5257312
vn -0.7846576 0.3285107 0.5257312
vn -0.7846576 0.3285107 0.5257312
vn -0.7846576 0.3285107 0.5257312
vn -0.7846576 0.3285109 0.5257311
vn -0.7846577 0.3285109 0.5257311
vn -0.7846577 0.3285109 0.5257311
vn -0.7846577 0.3285109 0.5257311
vn -0.7846577 0.3285109 0.5257311
vn -0.7846577 0.3285109 0.5257311
vn -0.7846577 0.3285109 0.5257311
vn -0.7846576 0.3285109 0.5257311
vn -0.7846575 0.3285111 0.5257311
vn -0.7846575 0.3285111 0.5257311
vn -0.7846575 0.3285111 0.5257311
vn -0.7846575 0.3285111 0.5257311
vn -0.7846575 0.3285111 0.5257311
vn -0.7846575 0.3285111 0.5257311
vn -0.7846575 0.3285111 0.5257311
vn -0.7846575 0.3285111 0.525731
vn -0.7846575 0.3285108 0.5257312
vn -0.7846575 0.3285108 0.5257312
vn -0.7846575 0.3285108 0.5257311

f 1//1 2//2 3//3
f 4//4 1//1 3//3
f 3//3 5//5 4//4
f 3//3 6//6 5//5
f 5//5 6//6 7//7
f 8//8 7//7 6//6
f 9//9 8//8 6//6
f 10//10 9//9 6//6
f 9//9 10//10 11//11
f 11//11 10//10 12//12
f 13//13 11//11 12//12
f 13//13 12//12 14//14
f 13//13 14//14 15//15
f 15//15 14//14 16//16
f 15//15 16//16 17//17
f 18//18 17//17 16//16
f 19//19 17//17 18//18
f 19//19 18//18 20//20
f 21//21 19//19 20//20
f 22//22 19//19 21//21
f 22//22 21//21 23//23
f 24//24 22//22 23//23
f 24//24 23//23 25//25
f 26//26 24//24 25//25
f 26//26 25//25 27//27
f 28//28 26//26 27//27
f 28//28 27//27 29//29
f 29//29 27//27 30//30
f 31//31 29//29 30//30
f 31//31 30//30 32//32
f 33//33 31//31 32//32
f 33//33 32//32 34//34
f 35//35 33//33 34//34
f 35//35 34//34 36//36
f 37//37 35//35 36//36
f 37//37 36//36 38//38
f 39//39 37//37 38//38
f 39//39 38//38 40//40
f 41//41 39//39 40//40
f 41//41 40//40 42//42
f 41//41 42//42 43//43
f 43//43 42//42 44//44
f 45//45 43//43 44//44
f 45//45 44//44 46//46
f 47//47 45//45 46//46
f 48//48 45//45 47//47
f 48//48 47//47 49//49
f 50//50 48//48 49//49
f 50//50 49//49 51//51
f 52//52 50//50 51//51
f 52//52 51//51 53//53
f 54//54 52//52 53//53
f 55//55 54//54 53//53
f 55//55 53//53 56//56
f 55//55 56//56 57//57
f 57//57 56//56 58//58
f 57//57 58//58 59//59
f 59//59 58//58 60//60
f 59//59 60//60 61//61
f 61//61 60//60 62//62
f 61//61 62//62 63//63
f 63//63 62//62 64//64
f 63//63 64//64 65//65
f 65//65 64//64 66//66
f 65//65 66//66 67//67
f 68//68 67//67 66//66
f 69//69 67//67 68//68
f 69//69 68//68 70//70
f 71//71 69//69 70//70
f 72//72 71//71 73//73
f 74//74 75//75 76//76
f 77//77 74//74 76//76
f 75//75 77//77 76//76
f 78//78 75//75 74//74
f 79//79 75//75 78//78
f 78//78 74//74 80//80
f 81//81 78//78 80//80
f 82//82 78//78 81//81
f 82//82 83//83 78//78
f 83//83 84//84 79//79
f 84//84 85//85 79//79
f 80//80 74//74 86//86
f 87//87 80//80 86//86
f 81//81 80//80 87//87
f 86//86 74//74 88//88
f 88//88 74//74 77//77
f 86//86 88//88 89//89
f 90//90 86//86 89//89
f 87//87 86//86 90//90
f 75//75 91//91 77//77
f 90//90 89//89 92//92
f 90//90 92//92 93//93
f 94//94 90//90 93//93
f 95//95 83//83 82//82
f 95//95 82//82 81//81
f 95//95 81//81 87//87
f 95//95 87//87 90//90
f 95//95 96//96 83//83
f 97//97 91//91 75//75
f 97//97 98//98 91//91
f 97//97 99//99 98//98
f 100//100 95//95 101//101
f 102//102 103//103 104//104
f 102//102 104//104 105//105
f 102//102 105//105 106//106
f 106//106 105//105 107//107
f 108//108 102//102 106//106
f 109//109 102//102 108//108
f 110//110 108//108 106//106
f 111//111 112//112 113//113
f 111//111 113//113 114//114
f 111//111 114//114 115//115
f 111//111 115//115 116//116
f 111//111 116//116 117//117
f 117//117 118//118 111//111
f 118//118 119//119 111//111
f 120//120 111//111 119//119
f 120//120 121//121 111//111
f 121//121 122//122 111//111
f 111//111 122//122 123//123
f 114//114 113//113 124//124
f 124//124 113//113 125//125
f 125//125 113//113 126//126
f 126//126 113//113 127//127
f 127//127 113//113 128//128
f 128//128 113//113 129//129
f 129//129 113//113 130//130
f 130//130 113//113 131//131
f 131//131 113//113 132//132
f 132//132 113//113 133//133
f 133//133 113//113 134//134
f 133//133 134//134 135//135
f 135//135 134//134 136//136
f 134//134 137//137 136//136
f 137//137 134//134 138//138
f 138//138 134//134 139//139
f 139//139 134//134 140//140
f 140//140 134//134 141//141
f 134//134 142//142 141//141
f 134//134 143//143 142//142
f 134//134 144//144 143//143
f 144//144 134//134 145//145
f 145//145 134//134 146//146
f 147//147 134//134 148//148
f 149//149 150//150 151//151
f 149//149 152//152 150//150
f 151//151 150//150 153//153
f 151//151 153//153 154//154
f 154//154 153//153 155//155
f 154//154 155//155 156//156
f 152//152 157//157 150//150
f 158//158 159//159 160//160
f 161//161 159//159 158//158
f 162//162 159//159 161//161
f 163//163 162//162 161//161
f 164//164 162//162 163//163
f 165//165 162//162 164//164
f 9//9 166//166 8//8
f 166//166 9//9 167//167
f 168//168 169//169 170//170
f 168//168 171//171 169//169
f 172//172 169//169 173//173
f 174//174 169//169 172//172
f 169//169 174//174 175//175
f 176//176 169//169 175//175
f 177//177 169//169 176//176
f 178//178 169//169 177//177
f 178//178 179//179 169//169
f 179//179 180//180 169//169
f 180//180 181//181 169//169
f 182//182 181//181 180//180
f 182//182 183//183 181//181
f 183//183 184//184 181//181
f 184//184 185//185 181//181
f 185//185 186//186 181//181
f 186//186 187//187 181//181
f 187//187 188//188 181//181
f 188//188 189//189 181//181
f 181//181 189//189 190//190
f 181//181 190//190 191//191
f 192//192 181//181 191//191
f 193//193 181//181 192//192
f 194//194 181//181 193//193
f 195//195 181//181 194//194
f 195//195 196//196 181//181
f 196//196 197//197 198//198
f 196//196 198//198 199//199
f 199//199 200//200 196//196
f 196//196 200//200 201//201
f 201//201 202//202 196//196
f 196//196 202//202 203//203
f 196//196 203//203 204//204
f 205//205 196//196 206//206
f 207//207 196//196 205//205
