v 107.3267 -72.68795 -63.32839
v 106.4219 -83.65199 -45.5279
v 107.3267 -72.68795 -63.32839
v 107.3267 -72.68795 -63.32839
v 104.8165 -74.79211 -64.75202
v 103.8125 -75.63378 -65.32147
v 103.8125 -75.63378 -65.32147
v 102.9077 -86.59782 -47.52098
v 102.0029 -97.56187 -29.72049
v 103.9079 -75.8296 -65.43723
v 102.8622 -99.32419 -30.7623
v 103.9198 -75.85393 -65.45161
v 102.969 -99.54318 -30.89176
v 103.9231 -75.86076 -65.45565
v 102.999 -99.60467 -30.92811
v 103.9606 -75.93754 -65.50104
v 103.3359 -100.2957 -31.3366
v 104.4221 -76.88415 -66.06064
v 103.3872 -100.4008 -31.39877
v 104.8597 -77.78165 -66.5912
v 104.9101 -77.8849 -66.65224
v 103.4414 -100.512 -31.46451
v 105.0151 -78.10026 -66.77955
v 103.453 -100.536 -31.47865
v 105.2935 -78.67134 -67.11715
v 103.484 -100.5994 -31.51616
v 105.2167 -78.83005 -67.21881
v 103.0607 -101.4734 -32.07597
v 102.7922 -102.0278 -32.43114
v 105.1976 -78.86943 -67.24403
v 102.6205 -102.3822 -32.65816
v 105.1919 -78.88115 -67.25154
v 102.5694 -102.4877 -32.72572
v 105.149 -78.96972 -67.30828
v 102.1834 -103.2849 -33.23635
v 104.6569 -79.98588 -67.95918
v 102.1287 -103.3978 -33.30867
v 104.2503 -80.82539 -68.49694
v 102.0835 -103.4911 -33.36842
v 103.8484 -81.65517 -69.02846
v 102.0389 -103.5833 -33.42748
v 103.7396 -81.69164 -69.05646
v 101.0599 -103.9116 -33.67947
v 103.4959 -81.77338 -69.11919
v 98.86658 -104.6472 -34.24408
v 102.816 -82.00143 -69.29421
v 102.5441 -82.09262 -69.3642
v 98.76083 -104.6827 -34.2713
v 101.617 -82.40359 -69.60287
v 98.65781 -104.7173 -34.29782
v 100.8536 -82.65964 -69.79938
v 98.57299 -104.7457 -34.31965
v 100.3237 -82.83738 -69.93579
v 98.51411 -104.7655 -34.33481
v 98.51411 -104.7655 -34.33481
v 100.1133 -82.75941 -69.89846
v 96.62077 -104.0637 -33.99881
v 100.0514 -82.73645 -69.88747
v 96.06349 -103.8572 -33.89991
v 100.045 -82.73411 -69.88635
v 96.0066 -103.8361 -33.88982
v 100.0421 -82.73302 -69.88583
v 95.98022 -103.8263 -33.88513
v 100.0384 -82.73165 -69.88517
v 95.94688 -103.8139 -33.87922
v 99.96969 -82.70618 -69.87298
v 95.32845 -103.5847 -33.76947
v 96.78403 -81.52545 -69.30763
v 94.97449 -103.4535 -33.70665
v 96.78403 -81.52545 -69.30763
v 94.97449 -103.4535 -33.70665
v 96.78403 -81.52545 -69.30763
v 96.78403 -81.52545 -69.30763
v 95.77996 -82.36712 -69.87709
v 93.26981 -84.47128 -71.30072
v 93.26981 -84.47128 -71.30072
v 93.26981 -84.47128 -71.30072
v 96.78403 -81.52545 -69.30763
v 96.78403 -81.52545 -69.30763
v 96.78403 -81.52545 -69.30763
v 94.97449 -103.4535 -33.70665
v 94.97449 -103.4535 -33.70665
v 94.97449 -103.4535 -33.70665
v 96.78403 -81.52545 -69.30763
v 100.3491 -87.09514 -72.55703
v 96.78403 -81.52545 -69.30763
v 94.97449 -103.4535 -33.70665
v 96.78403 -81.52545 -69.30763
v 95.87926 -92.48949 -51.50714
v 94.97449 -103.4535 -33.70665
v 92.36504 -95.43533 -53.50022
v 94.97449 -103.4535 -33.70667
v 94.97449 -103.4535 -33.70665
v 93.97042 -104.2952 -34.2761
v 98.53951 -109.0232 -36.95605
v 94.97449 -103.4535 -33.70665
v 100.3491 -87.09514 -72.55703
v 91.46027 -106.3994 -35.69973
v 98.53951 -109.0232 -36.95605
v 98.51411 -104.7655 -34.33481
v 98.51411 -104.7655 -34.33481
v 106.4219 -83.65199 -45.5279
v 107.3267 -72.68795 -63.32839
v 107.3267 -72.68795 -63.32839
v 104.8165 -74.79211 -64.75202
v 102.9077 -86.59782 -47.52098
v 103.8125 -75.63378 -65.32147
v 103.4586 -96.34167 -28.89493
v 105.5172 -94.61604 -27.72741
v 102.0029 -97.56187 -29.72049
v 107.3267 -72.68795 -63.32839
v 110.2888 -78.76306 -66.91974
v 107.3985 -84.73071 -70.74237
v 105.2935 -78.67134 -67.11715
v 105.0151 -78.10026 -66.77955
v 104.9101 -77.8849 -66.65224
v 104.8597 -77.78165 -66.5912
v 104.4221 -76.88415 -66.06064
v 103.9606 -75.93754 -65.50104
v 103.9231 -75.86076 -65.45565
v 103.9198 -75.85393 -65.45161
v 103.9079 -75.8296 -65.43723
v 103.8125 -75.63378 -65.32147
v 105.2167 -78.83005 -67.21881
v 105.1976 -78.86943 -67.24403
v 105.1919 -78.88115 -67.25154
v 105.149 -78.96972 -67.30828
v 104.6569 -79.98588 -67.95918
v 104.2503 -80.82539 -68.49694
v 103.8484 -81.65517 -69.02846
v 103.7396 -81.69164 -69.05646
v 103.4959 -81.77338 -69.11919
v 102.816 -82.00143 -69.29421
v 100.3491 -87.09514 -72.55703
v 102.5441 -82.09262 -69.3642
v 101.617 -82.40359 -69.60287
v 100.8536 -82.65964 -69.79938
v 100.3237 -82.83738 -69.93579
v 100.1133 -82.75941 -69.89846
v 100.0514 -82.73645 -69.88747
v 100.045 -82.73411 -69.88635
v 100.0421 -82.73302 -69.88583
v 100.0384 -82.73165 -69.88517
v 99.96969 -82.70618 -69.87298
v 96.78403 -81.52545 -69.30763
v 96.78403 -81.52545 -69.30763
v 96.78403 -81.52545 -69.30763
v 93.26981 -84.47128 -71.30072
v 107.3267 -72.68795 -63.32839
v 108.4792 -100.6911 -31.31876
v 110.2888 -78.76306 -66.91974
v 106.4219 -83.65199 -45.5279
v 105.589 -106.6588 -35.14139
v 107.3985 -84.73071 -70.74237
v 98.53951 -109.0232 -36.95605
v 100.3491 -87.09514 -72.55703
v 105.5172 -94.61604 -27.72741
v 93.26981 -84.47128 -71.30072
v 95.87926 -92.48949 -51.50714
v 96.78403 -81.52545 -69.30763
v 92.36504 -95.43533 -53.50022
v 94.97449 -103.4535 -33.70667
v 91.46027 -106.3994 -35.69973
v 93.97042 -104.2952 -34.2761
v 94.97449 -103.4535 -33.70665
v 102.0029 -97.56187 -29.72049
v 108.4792 -100.6911 -31.31876
v 103.4586 -96.34167 -28.89493
v 108.4792 -100.6911 -31.31876
v 105.5172 -94.61604 -27.72741
v 102.0029 -97.56187 -29.72049
v 102.8622 -99.32419 -30.7623
v 102.0029 -97.56187 -29.72049
v 102.969 -99.54318 -30.89176
v 102.999 -99.60467 -30.92811
v 103.3359 -100.2957 -31.3366
v 103.3872 -100.4008 -31.39877
v 103.4414 -100.512 -31.46451
v 103.453 -100.536 -31.47865
v 103.484 -100.5994 -31.51616
v 105.589 -106.6588 -35.14139
v 103.0607 -101.4734 -32.07597
v 102.7922 -102.0278 -32.43114
v 102.6205 -102.3822 -32.65816
v 102.5694 -102.4877 -32.72572
v 102.1834 -103.2849 -33.23635
v 102.1287 -103.3978 -33.30867
v 102.0835 -103.4911 -33.36842
v 102.0389 -103.5833 -33.42748
v 101.0599 -103.9116 -33.67947
v 98.86658 -104.6472 -34.24408
v 98.76083 -104.6827 -34.2713
v 98.65781 -104.7173 -34.29782
v 98.57299 -104.7457 -34.31965
v 98.51411 -104.7655 -34.33481
v 98.53951 -109.0232 -36.95605
v 98.51411 -104.7655 -34.33481
v 96.62077 -104.0637 -33.99881
v 96.06349 -103.8572 -33.89991
v 96.0066 -103.8361 -33.88982
v 95.98022 -103.8263 -33.88513
v 95.94688 -103.8139 -33.87922
v 95.32845 -103.5847 -33.76947
v 94.97449 -103.4535 -33.70665
v 93.97042 -104.2952 -34.2761
v 94.97449 -103.4535 -33.70665
v 91.46027 -106.3994 -35.69973

vn 0.7028438 0.5891662 0.3986153
vn 0.7028438 0.589166 0.3986154
vn 0.5617773 0.7883105 -0.2509446
vn 0.04323731 0.5239504 -0.8506509
vn 0.04323731 0.5239504 -0.8506509
vn -0.9210613 -0.3089222 -0.2370939
vn -0.6896653 -0.509147 -0.5149094
vn -0.8567225 0.4574658 0.2382261
vn -0.9210595 -0.308926 -0.2370958
vn -0.9210593 -0.3089267 -0.2370962
vn -0.9210594 -0.3089265 -0.237096
vn -0.9210598 -0.3089257 -0.2370955
vn -0.9210601 -0.3089249 -0.2370949
vn -0.9210579 -0.3089292 -0.2370982
vn -0.921059 -0.3089271 -0.2370966
vn -0.9210591 -0.3089267 -0.2370963
vn -0.9210593 -0.3089269 -0.2370964
vn -0.9210591 -0.3089269 -0.2370964
vn -0.9210592 -0.3089267 -0.2370963
vn -0.9210591 -0.308927 -0.2370965
vn -0.9210595 -0.308926 -0.2370959
vn -0.9210601 -0.3089248 -0.2370951
vn -0.9210593 -0.3089265 -0.2370962
vn -0.921059 -0.3089272 -0.2370967
vn -0.9688962 -0.1856689 -0.1636083
vn -0.9396189 0.3106462 0.1435805
vn -0.9249473 0.3428246 0.1641463
vn -0.9249476 0.3428239 0.1641458
vn -0.9249477 0.3428237 0.1641456
vn -0.9249486 0.3428222 0.1641445
vn -0.924949 0.3428212 0.1641437
vn -0.9249496 0.34282 0.1641427
vn -0.9249486 0.342822 0.1641444
vn -0.924948 0.3428228 0.1641451
vn -0.924948 0.3428233 0.1641454
vn -0.9249479 0.3428233 0.1641455
vn -0.9249483 0.3428225 0.1641449
vn -0.9249481 0.342823 0.1641452
vn -0.9249476 0.3428239 0.1641459
vn -0.8980874 0.3933994 0.1966626
vn -0.446941 0.7716392 0.4525668
vn -0.3870162 0.7937505 0.4692319
vn -0.3870152 0.7937508 0.4692322
vn -0.3870146 0.7937511 0.4692324
vn -0.3870146 0.793751 0.4692324
vn -0.387015 0.7937509 0.4692322
vn -0.3870155 0.7937508 0.469232
vn -0.3870151 0.7937509 0.4692322
vn -0.3870154 0.7937508 0.4692321
vn -0.3870151 0.7937509 0.4692321
vn -0.3870151 0.7937509 0.4692322
vn -0.3870155 0.7937508 0.469232
vn -0.197917 0.8390645 0.5067541
vn -0.3870369 0.7937436 0.4692265
vn 0.3776262 0.7797107 0.4994496
vn 0.3776273 0.7797102 0.4994493
vn 0.3776278 0.7797101 0.4994494
vn 0.3776288 0.7797096 0.4994492
vn 0.377627 0.7797104 0.4994494
vn 0.3776255 0.7797112 0.4994495
vn 0.3776229 0.7797122 0.4994496
vn 0.3775814 0.7797307 0.4994523
vn 0.3776075 0.7797191 0.4994507
vn 0.3776337 0.7797076 0.4994489
vn 0.3776299 0.7797092 0.4994492
vn 0.3776272 0.7797103 0.4994494
vn 0.3776267 0.7797105 0.4994495
vn 0.3776264 0.7797107 0.4994495
vn 0.3776218 0.7797123 0.4994504
vn 0.2173465 0.8261212 0.5198889
vn 0.7028438 0.589166 0.3986156
vn 0.7028438 0.589166 0.3986156
vn 0.7028438 0.589166 0.3986156
vn 0.04323731 0.5239504 -0.8506509
vn -0.377627 -0.7797105 -0.4994493
vn 0.04323731 0.5239504 -0.8506509
vn -0.7953494 0.5333245 0.2880701
vn 0.489349 0.7810498 -0.387942
vn 0.4316694 0.7648036 -0.4782648
vn 0.7041396 0.6249032 0.3371703
vn 0.7028438 0.589166 0.3986156
vn 0.7028438 0.589166 0.3986156
vn 0.7028438 0.589166 0.3986156
vn 0.703559 0.6400005 0.308876
vn 0.04323731 0.5239504 -0.8506509
vn 0.7033309 0.5957571 0.3878137
vn 0.7028438 0.589166 0.3986156
vn 0.7018946 0.6573423 0.2743091
vn 0.7028486 0.5891619 0.3986133
vn 0.6989842 0.5566403 0.4489689
vn -0.377627 -0.7797104 -0.4994493
vn 0.7028606 0.5891514 0.3986075
vn -0.04323243 -0.5239463 0.8506536
vn -0.04323731 -0.5239504 0.8506509
vn -0.04323701 -0.5239506 0.8506507
vn 0 0 0
vn -0.377627 -0.7797105 -0.4994494
vn -0.377627 -0.7797105 -0.4994494
vn -0.377627 -0.7797105 -0.4994494
vn -0.04323701 -0.5239506 0.8506507
vn -0.04323701 -0.5239506 0.8506507
vn -0.7100292 0.6151094 0.3427813
vn -0.7100292 0.6151093 0.3427813
vn -0.7100292 0.6151094 0.3427813
vn -0.7100292 0.6151094 0.3427813
vn -0.7100292 0.6151094 0.3427813
vn -0.7100292 0.6151094 0.3427813
vn -0.7100292 0.6151094 0.3427813
vn -0.7100292 0.6151094 0.3427813
vn -0.7100292 0.6151094 0.3427813
vn 0.04323731 0.5239504 -0.8506509
vn 0.04323731 0.5239504 -0.8506509
vn 0.04323731 0.5239504 -0.8506509
vn 0.04323731 0.5239504 -0.8506509
vn 0.04323731 0.5239504 -0.8506509
vn 0.04323731 0.5239504 -0.8506509
vn 0.04323731 0.5239504 -0.8506509
vn 0.04323731 0.5239504 -0.8506509
vn 0.04323731 0.5239504 -0.8506509
vn 0.04323731 0.5239504 -0.8506509
vn 0.04323731 0.5239504 -0.8506509
vn 0.04323731 0.5239504 -0.8506509
vn 0.04323731 0.5239504 -0.8506509
vn 0.04323731 0.5239503 -0.8506508
vn 0.04323731 0.5239504 -0.8506509
vn 0.04323731 0.5239504 -0.8506509
vn 0.04323731 0.5239503 -0.8506508
vn 0.04323731 0.5239504 -0.8506509
vn 0.04323731 0.5239504 -0.8506509
vn 0.04323731 0.5239504 -0.8506509
vn 0.04323731 0.5239503 -0.8506508
vn 0.04323731 0.5239504 -0.8506509
vn 0.04323731 0.5239504 -0.8506509
vn 0.04323731 0.5239504 -0.8506509
vn 0.04323731 0.5239504 -0.8506509
vn 0.04323731 0.5239504 -0.8506509
vn 0.04323731 0.5239504 -0.8506509
vn 0.04323731 0.5239504 -0.8506509
vn 0.04323731 0.5239504 -0.8506509
vn 0.04323731 0.5239504 -0.8506509
vn 0.04323731 0.5239504 -0.8506509
vn 0.04323731 0.5239503 -0.8506508
vn 0.04323731 0.5239504 -0.8506509
vn 0.04323731 0.5239503 -0.8506508
vn 0.04323731 0.5239503 -0.8506508
vn 0.04323731 0.5239504 -0.8506509
vn 0.04323731 0.5239503 -0.8506508
vn 0.04323731 0.5239503 -0.8506508
vn 0.9210594 0.3089265 0.237096
vn 0.9889684 0.09829748 0.1108128
vn 0.9903582 -0.1346422 -0.0325935
vn 0.9210593 0.3089263 0.237096
vn 0.7994871 -0.5287465 -0.2850399
vn 0.6072261 -0.6899111 -0.3940801
vn 0.3870149 -0.7937509 -0.4692321
vn 0.387015 -0.7937509 -0.4692322
vn 0.9210593 0.3089264 0.2370961
vn -0.7100292 0.6151094 0.3427813
vn -0.7100292 0.6151094 0.3427813
vn -0.7100292 0.6151094 0.3427813
vn -0.7100292 0.6151094 0.3427813
vn -0.7100292 0.6151094 0.3427813
vn -0.7100292 0.6151094 0.3427813
vn -0.7100292 0.6151094 0.3427814
vn -0.7100292 0.6151093 0.3427813
vn -0.6970071 -0.6831815 -0.2178176
vn -0.0432368 -0.52395 0.8506511
vn -0.04323716 -0.5239505 0.8506507
vn -0.04323707 -0.5239505 0.8506508
vn -0.04323716 -0.5239505 0.8506508
vn -0.04323716 -0.5239505 0.8506508
vn -0.04323701 -0.5239503 0.850651
vn -0.04323701 -0.5239503 0.850651
vn -0.04323701 -0.5239503 0.850651
vn -0.04323701 -0.5239503 0.850651
vn -0.04323701 -0.5239503 0.850651
vn -0.04323701 -0.5239503 0.8506509
vn -0.04323701 -0.5239503 0.850651
vn -0.04323701 -0.5239503 0.8506509
vn -0.04323701 -0.5239505 0.8506508
vn -0.0432371 -0.5239506 0.8506508
vn -0.04323701 -0.5239505 0.8506508
vn -0.04323701 -0.5239505 0.8506508
vn -0.04323701 -0.5239505 0.8506508
vn -0.04323701 -0.5239505 0.8506508
vn -0.04323701 -0.5239505 0.8506508
vn -0.04323701 -0.5239505 0.8506508
vn -0.04323701 -0.5239505 0.8506508
vn -0.04323717 -0.5239506 0.8506507
vn -0.04323719 -0.5239506 0.8506507
vn -0.04323719 -0.5239506 0.8506507
vn -0.04323719 -0.5239506 0.8506507
vn -0.04323719 -0.5239506 0.8506507
vn -0.04323719 -0.5239506 0.8506507
vn -0.04323719 -0.5239506 0.8506507
vn -0.04323723 -0.5239506 0.8506507
vn -0.04323744 -0.5239506 0.8506507
vn -0.04323744 -0.5239506 0.8506507
vn -0.04323744 -0.5239506 0.8506507
vn -0.04323744 -0.5239506 0.8506507
vn -0.04323744 -0.5239506 0.8506507
vn -0.04323744 -0.5239506 0.8506507
vn -0.04323744 -0.5239506 0.8506507
vn -0.04323744 -0.5239506 0.8506507
vn -0.04323716 -0.5239505 0.8506508
vn -0.04323716 -0.5239505 0.8506508
vn -0.04323716 -0.5239505 0.8506507

f 1//1 2//2 3//3
f 4//4 1//1 3//3
f 3//3 5//5 4//4
f 3//3 6//6 5//5
f 5//5 6//6 7//7
f 8//8 7//7 6//6
f 9//9 8//8 6//6
f 10//10 9//9 6//6
f 9//9 10//10 11//11
f 11//11 10//10 12//12
f 13//13 11//11 12//12
f 13//13 12//12 14//14
f 13//13 14//14 15//15
f 15//15 14//14 16//16
f 15//15 16//16 17//17
f 18//18 17//17 16//16
f 19//19 17//17 18//18
f 19//19 18//18 20//20
f 21//21 19//19 20//20
f 22//22 19//19 21//21
f 22//22 21//21 23//23
f 24//24 22//22 23//23
f 24//24 23//23 25//25
f 26//26 24//24 25//25
f 26//26 25//25 27//27
f 28//28 26//26 27//27
f 28//28 27//27 29//29
f 29//29 27//27 30//30
f 31//31 29//29 30//30
f 31//31 30//30 32//32
f 33//33 31//31 32//32
f 33//33 32//32 34//34
f 35//35 33//33 34//34
f 35//35 34//34 36//36
f 37//37 35//35 36//36
f 37//37 36//36 38//38
f 39//39 37//37 38//38
f 39//39 38//38 40//40
f 41//41 39//39 40//40
f 41//41 40//40 42//42
f 41//41 42//42 43//43
f 43//43 42//42 44//44
f 45//45 43//43 44//44
f 45//45 44//44 46//46
f 47//47 45//45 46//46
f 48//48 45//45 47//47
f 48//48 47//47 49//49
f 50//50 48//48 49//49
f 50//50 49//49 51//51
f 52//52 50//50 51//51
f 52//52 51//51 53//53
f 54//54 52//52 53//53
f 55//55 54//54 53//53
f 55//55 53//53 56//56
f 55//55 56//56 57//57
f 57//57 56//56 58//58
f 57//57 58//58 59//59
f 59//59 58//58 60//60
f 59//59 60//60 61//61
f 61//61 60//60 62//62
f 61//61 62//62 63//63
f 63//63 62//62 64//64
f 63//63 64//64 65//65
f 65//65 64//64 66//66
f 65//65 66//66 67//67
f 68//68 67//67 66//66
f 69//69 67//67 68//68
f 69//69 68//68 70//70
f 71//71 69//69 70//70
f 72//72 71//71 73//73
f 74//74 75//75 76//76
f 77//77 74//74 76//76
f 75//75 77//77 76//76
f 78//78 75//75 74//74
f 79//79 75//75 78//78
f 78//78 74//74 80//80
f 81//81 78//78 80//80
f 82//82 78//78 81//81
f 82//82 83//83 78//78
f 83//83 84//84 79//79
f 84//84 85//85 79//79
f 80//80 74//74 86//86
f 87//87 80//80 86//86
f 81//81 80//80 87//87
f 86//86 74//74 88//88
f 88//88 74//74 77//77
f 86//86 88//88 89//89
f 90//90 86//86 89//89
f 87//87 86//86 90//90
f 75//75 91//91 77//77
f 90//90 89//89 92//92
f 90//90 92//92 93//93
f 94//94 90//90 93//93
f 95//95 83//83 82//82
f 95//95 82//82 81//81
f 95//95 81//81 87//87
f 95//95 87//87 90//90
f 95//95 96//96 83//83
f 97//97 91//91 75//75
f 97//97 98//98 91//91
f 97//97 99//99 98//98
f 100//100 95//95 101//101
f 102//102 103//103 104//104
f 102//102 104//104 105//105
f 102//102 105//105 106//106
f 106//106 105//105 107//107
f 108//108 102//102 106//106
f 109//109 102//102 108//108
f 110//110 108//108 106//106
f 111//111 112//112 113//113
f 111//111 113//113 114//114
f 111//111 114//114 115//115
f 111//111 115//115 116//116
f 111//111 116//116 117//117
f 117//117 118//118 111//111
f 118//118 119//119 111//111
f 120//120 111//111 119//119
f 120//120 121//121 111//111
f 121//121 122//122 111//111
f 111//111 122//122 123//123
f 114//114 113//113 124//124
f 124//124 113//113 125//125
f 125//125 113//113 126//126
f 126//126 113//113 127//127
f 127//127 113//113 128//128
f 128//128 113//113 129//129
f 129//129 113//113 130//130
f 130//130 113//113 131//131
f 131//131 113//113 132//132
f 132//132 113//113 133//133
f 133//133 113//113 134//134
f 133//133 134//134 135//135
f 135//135 134//134 136//136
f 134//134 137//137 136//136
f 137//137 134//134 138//138
f 138//138 134//134 139//139
f 139//139 134//134 140//140
f 140//140 134//134 141//141
f 134//134 142//142 141//141
f 134//134 143//143 142//142
f 134//134 144//144 143//143
f 144//144 134//134 145//145
f 145//145 134//134 146//146
f 147//147 134//134 148//148
f 149//149 150//150 151//151
f 149//149 152//152 150//150
f 151//151 150//150 153//153
f 151//151 153//153 154//154
f 154//154 153//153 155//155
f 154//154 155//155 156//156
f 152//152 157//157 150//150
f 158//158 159//159 160//160
f 161//161 159//159 158//158
f 162//162 159//159 161//161
f 163//163 162//162 161//161
f 164//164 162//162 163//163
f 165//165 162//162 164//164
f 9//9 166//166 8//8
f 166//166 9//9 167//167
f 168//168 169//169 170//170
f 168//168 171//171 169//169
f 172//172 169//169 173//173
f 174//174 169//169 172//172
f 169//169 174//174 175//175
f 176//176 169//169 175//175
f 177//177 169//169 176//176
f 178//178 169//169 177//177
f 178//178 179//179 169//169
f 179//179 180//180 169//169
f 180//180 181//181 169//169
f 182//182 181//181 180//180
f 182//182 183//183 181//181
f 183//183 184//184 181//181
f 184//184 185//185 181//181
f 185//185 186//186 181//181
f 186//186 187//187 181//181
f 187//187 188//188 181//181
f 188//188 189//189 181//181
f 181//181 189//189 190//190
f 181//181 190//190 191//191
f 192//192 181//181 191//191
f 193//193 181//181 192//192
f 194//194 181//181 193//193
f 195//195 181//181 194//194
f 195//195 196//196 181//181
f 196//196 197//197 198//198
f 196//196 198//198 199//199
f 199//199 200//200 196//196
f 196//196 200//200 201//201
f 201//201 202//202 196//196
f 196//196 202//202 203//203
f 196//196 203//203 204//204
f 205//205 196//196 206//206
f 207//207 196//196 205//205
