v -99.02637 42.01203 -97.24417
v -97.56241 59.7522 -86.24287
v -99.02637 42.01203 -97.24417
v -99.02637 42.01203 -97.24417
v -96.33115 43.08232 -99.32872
v -95.25305 43.51043 -100.1625
v -95.25305 43.51043 -100.1625
v -93.78909 61.2506 -89.16124
v -92.32513 78.99077 -78.15994
v -95.33049 43.63845 -100.3587
v -93.02209 80.14298 -79.9252
v -95.34012 43.65437 -100.3831
v -93.1087 80.28616 -80.14456
v -95.34282 43.65883 -100.3899
v -93.13302 80.32636 -80.20615
v -95.37318 43.70903 -100.4668
v -93.4063 80.77814 -80.8983
v -95.74755 44.32793 -101.415
v -93.4479 80.84691 -81.00365
v -96.10251 44.91472 -102.314
v -96.14334 44.98222 -102.4174
v -93.49187 80.91961 -81.11503
v -96.22851 45.12302 -102.6331
v -93.50134 80.93525 -81.139
v -96.45436 45.4964 -103.2052
v -93.52644 80.97674 -81.20256
v -96.36326 45.58684 -103.3631
v -93.02477 81.47476 -82.0724
v -92.7065 81.79073 -82.62427
v -96.34065 45.60928 -103.4023
v -92.50307 81.99269 -82.97702
v -96.33392 45.61596 -103.414
v -92.44252 82.0528 -83.08199
v -96.28308 45.66643 -103.5021
v -91.98495 82.50706 -83.87541
v -95.69979 46.2455 -104.5135
v -91.92014 82.5714 -83.98779
v -95.2179 46.7239 -105.3491
v -91.86659 82.62456 -84.08063
v -94.74159 47.19675 -106.175
v -91.81367 82.67709 -84.17239
v -94.62978 47.20967 -106.2107
v -90.80731 82.79338 -84.49383
v -94.37924 47.23862 -106.2907
v -88.55251 83.05392 -85.21402
v -93.68029 47.31939 -106.514
v -93.40077 47.35168 -106.6033
v -88.44379 83.06648 -85.24875
v -92.44765 47.46182 -106.9077
v -88.33788 83.07872 -85.28257
v -91.66285 47.55251 -107.1584
v -88.25068 83.0888 -85.31042
v -91.11808 47.61545 -107.3324
v -88.19016 83.09579 -85.32976
v -88.19016 83.09579 -85.32976
v -90.91531 47.54959 -107.2531
v -86.36526 82.50301 -84.6167
v -90.85563 47.5302 -107.2298
v -85.82813 82.32853 -84.40682
v -90.84954 47.52822 -107.2274
v -85.77329 82.31071 -84.38539
v -90.84671 47.52731 -107.2263
v -85.74786 82.30246 -84.37546
v -90.84314 47.52615 -107.2249
v -85.71573 82.29202 -84.3629
v -90.77692 47.50463 -107.1991
v -85.11966 82.09839 -84.12999
v -87.70642 46.50723 -105.9993
v -84.77849 81.98757 -83.99669
v -87.70641 46.50723 -105.9993
v -84.77849 81.98757 -83.99669
v -87.70641 46.50723 -105.9993
v -87.70641 46.50723 -105.9993
v -86.62833 46.93534 -106.8331
v -83.9331 48.00563 -108.9176
v -83.9331 48.00563 -108.9176
v -83.9331 48.00563 -108.9176
v -87.70641 46.50723 -105.9993
v -87.70641 46.50723 -105.9993
v -87.70641 46.50723 -105.9993
v -84.77849 81.98757 -83.99669
v -84.77849 81.98757 -83.99669
v -84.77849 81.98757 -83.99669
v -87.70641 46.50723 -105.9993
v -90.75642 50.22208 -111.5838
v -87.70641 46.50723 -105.9993
v -84.77849 81.98757 -83.99669
v -87.70641 46.50723 -105.9993
v -86.24245 64.2474 -94.99799
v -84.77849 81.98757 -83.99669
v -82.46914 65.7458 -97.91635
v -84.77849 81.98755 -83.9967
v -84.77849 81.98757 -83.99669
v -83.7004 82.41568 -84.83051
v -87.8285 85.70242 -89.5812
v -84.77849 81.98757 -83.99669
v -90.75642 50.22208 -111.5838
v -81.00517 83.48597 -86.91505
v -87.8285 85.70242 -89.5812
v -88.19016 83.09579 -85.32976
v -88.19016 83.09579 -85.32976
v -97.56241 59.7522 -86.24287
v -99.02637 42.01203 -97.24417
v -99.02637 42.01203 -97.24417
v -96.33115 43.08232 -99.32872
v -93.78909 61.2506 -89.16124
v -95.25305 43.51043 -100.1625
v -93.88808 78.37012 -76.95111
v -96.09844 77.49237 -75.24158
v -92.32513 78.99077 -78.15994
v -99.02637 42.01203 -97.24417
v -101.429 45.98396 -103.3294
v -98.00346 49.38467 -109.2691
v -96.45436 45.4964 -103.2052
v -96.22851 45.12302 -102.6331
v -96.14334 44.98222 -102.4174
v -96.10251 44.91472 -102.314
v -95.74755 44.32793 -101.415
v -95.37318 43.70903 -100.4668
v -95.34282 43.65883 -100.3899
v -95.34012 43.65437 -100.3831
v -95.33049 43.63845 -100.3587
v -95.25305 43.51043 -100.1625
v -96.36326 45.58684 -103.3631
v -96.34065 45.60928 -103.4023
v -96.33392 45.61596 -103.414
v -96.28308 45.66643 -103.5021
v -95.69979 46.2455 -104.5135
v -95.2179 46.7239 -105.3491
v -94.74159 47.19675 -106.175
v -94.62978 47.20967 -106.2107
v -94.37924 47.23862 -106.2907
v -93.68029 47.31939 -106.514
v -90.75642 50.22208 -111.5838
v -93.40077 47.35168 -106.6033
v -92.44765 47.46182 -106.9077
v -91.66285 47.55251 -107.1584
v -91.11808 47.61545 -107.3324
v -90.91531 47.54959 -107.2531
v -90.85563 47.5302 -107.2298
v -90.84954 47.52822 -107.2274
v -90.84671 47.52731 -107.2263
v -90.84314 47.52615 -107.2249
v -90.77692 47.50463 -107.1991
v -87.70642 46.50723 -105.9993
v -87.70641 46.50723 -105.9993
v -87.70641 46.50723 -105.9993
v -83.9331 48.00563 -108.9176
v -99.02637 42.01203 -97.24417
v -98.50105 81.4643 -81.32681
v -101.429 45.98396 -103.3294
v -97.56241 59.7522 -86.24287
v -95.07553 84.86501 -87.26647
v -98.00346 49.38467 -109.2691
v -87.8285 85.70242 -89.5812
v -90.75642 50.22208 -111.5838
v -96.09844 77.49237 -75.24158
v -83.9331 48.00563 -108.9176
v -86.24245 64.2474 -94.99799
v -87.70641 46.50723 -105.9993
v -82.46914 65.7458 -97.91635
v -84.77849 81.98755 -83.9967
v -81.00517 83.48597 -86.91505
v -83.7004 82.41568 -84.83051
v -84.77849 81.98757 -83.99669
v -92.32513 78.99077 -78.15994
v -98.50105 81.4643 -81.32681
v -93.88808 78.37012 -76.95111
v -98.50105 81.4643 -81.32681
v -96.09844 77.49237 -75.24158
v -92.32513 78.99077 -78.15994
v -93.02209 80.14298 -79.9252
v -92.32513 78.99077 -78.15994
v -93.1087 80.28616 -80.14456
v -93.13302 80.32636 -80.20615
v -93.4063 80.77814 -80.8983
v -93.4479 80.84691 -81.00365
v -93.49187 80.91961 -81.11503
v -93.50134 80.93525 -81.139
v -93.52644 80.97674 -81.20256
v -95.07553 84.86501 -87.26647
v -93.02477 81.47476 -82.0724
v -92.7065 81.79073 -82.62427
v -92.50307 81.99269 -82.97702
v -92.44252 82.0528 -83.08199
v -91.98495 82.50706 -83.87541
v -91.92014 82.5714 -83.98779
v -91.86659 82.62456 -84.08063
v -91.81367 82.67709 -84.17239
v -90.80731 82.79338 -84.49383
v -88.55251 83.05392 -85.21402
v -88.44379 83.06648 -85.24875
v -88.33788 83.07872 -85.28257
v -88.25068 83.0888 -85.31042
v -88.19016 83.09579 -85.32976
v -87.8285 85.70242 -89.5812
v -88.19016 83.09579 -85.32976
v -86.36526 82.50301 -84.6167
v -85.82813 82.32853 -84.40682
v -85.77329 82.31071 -84.38539
v -85.74786 82.30246 -84.37546
v -85.71573 82.29202 -84.3629
v -85.11966 82.09839 -84.12999
v -84.77849 81.98757 -83.99669
v -83.7004 82.41568 -84.83051
v -84.77849 81.98757 -83.99669
v -81.00517 83.48597 -86.91505

vn -0.7546634 -0.2996801 0.5836737
vn -0.7546634 -0.29968 0.5836738
vn -0.6185126 -0.7792546 0.1010171
vn -0.06996015 -0.8477691 -0.5257311
vn -0.06996015 -0.8477691 -0.5257311
vn 0.9468714 0.1094093 -0.3024304
vn 0.7371849 0.1767755 -0.6521572
vn 0.8130322 -0.3538252 0.4623702
vn 0.9468699 0.1094119 -0.3024339
vn 0.9468698 0.1094123 -0.3024346
vn 0.9468699 0.1094122 -0.3024343
vn 0.9468702 0.1094117 -0.3024335
vn 0.9468704 0.1094112 -0.3024326
vn 0.9468687 0.1094137 -0.3024375
vn 0.9468695 0.1094125 -0.3024352
vn 0.9468697 0.1094123 -0.3024347
vn 0.9468697 0.1094124 -0.3024349
vn 0.9468696 0.1094124 -0.3024349
vn 0.9468697 0.1094123 -0.3024347
vn 0.9468696 0.1094125 -0.3024349
vn 0.94687 0.1094119 -0.302434
vn 0.9468704 0.1094111 -0.3024327
vn 0.9468697 0.1094121 -0.3024345
vn 0.9468696 0.1094126 -0.3024352
vn 0.9833857 0.02988486 -0.1790518
vn 0.9090693 -0.2711772 0.3163162
vn 0.8915091 -0.2895932 0.3483497
vn 0.8915094 -0.2895928 0.348349
vn 0.8915095 -0.2895927 0.3483488
vn 0.8915105 -0.2895919 0.3483471
vn 0.891511 -0.2895914 0.348346
vn 0.8915117 -0.2895908 0.3483446
vn 0.8915105 -0.2895919 0.3483469
vn 0.89151 -0.2895922 0.3483479
vn 0.8915098 -0.2895925 0.3483485
vn 0.8915097 -0.2895924 0.3483485
vn 0.8915102 -0.289592 0.3483476
vn 0.89151 -0.2895923 0.3483481
vn 0.8915094 -0.2895928 0.3483491
vn 0.8601184 -0.3182093 0.398672
vn 0.3757041 -0.5106077 0.7733864
vn 0.3139171 -0.5189571 0.7950721
vn 0.3139161 -0.5189572 0.7950725
vn 0.3139155 -0.5189573 0.7950728
vn 0.3139155 -0.5189573 0.7950727
vn 0.3139159 -0.5189572 0.7950726
vn 0.3139164 -0.5189573 0.7950723
vn 0.313916 -0.5189573 0.7950726
vn 0.3139164 -0.5189573 0.7950724
vn 0.313916 -0.5189573 0.7950724
vn 0.313916 -0.5189573 0.7950726
vn 0.3139164 -0.5189572 0.7950723
vn 0.121165 -0.5303421 0.8390808
vn 0.3139385 -0.5189547 0.7950653
vn -0.4475658 -0.4443243 0.7760547
vn -0.4475669 -0.4443239 0.7760542
vn -0.4475673 -0.4443238 0.7760541
vn -0.4475684 -0.4443233 0.7760537
vn -0.4475666 -0.4443241 0.7760544
vn -0.4475652 -0.4443249 0.7760549
vn -0.4475627 -0.4443258 0.7760555
vn -0.4475228 -0.4443437 0.7760684
vn -0.4475478 -0.4443325 0.7760604
vn -0.447573 -0.4443213 0.7760522
vn -0.4475694 -0.4443229 0.7760535
vn -0.4475668 -0.444324 0.7760543
vn -0.4475662 -0.4443242 0.7760544
vn -0.447566 -0.4443243 0.7760546
vn -0.4475616 -0.4443257 0.7760563
vn -0.2918993 -0.486557 0.8234423
vn -0.7546634 -0.2996798 0.5836739
vn -0.7546634 -0.2996798 0.5836739
vn -0.7546634 -0.2996798 0.5836739
vn -0.06996015 -0.8477691 -0.5257311
vn 0.4475666 0.4443242 -0.7760543
vn -0.06996015 -0.8477691 -0.5257311
vn 0.7449154 -0.3949263 0.5377123
vn -0.5433238 -0.8392683 -0.02068683
vn -0.4829408 -0.8692675 -0.1055575
vn -0.7577268 -0.3591557 0.5448462
vn -0.7546634 -0.2996798 0.5836739
vn -0.7546634 -0.2996798 0.5836739
vn -0.7546634 -0.2996798 0.5836739
vn -0.7578555 -0.3854083 0.5264177
vn -0.06996015 -0.8477691 -0.5257311
vn -0.7554851 -0.3103938 0.5769732
vn -0.7546634 -0.2996798 0.5836739
vn -0.7569725 -0.4165605 0.5034581
vn -0.7546677 -0.299677 0.5836698
vn -0.7491055 -0.2482349 0.6141828
vn 0.4475666 0.4443241 -0.7760543
vn -0.7546788 -0.2996695 0.5836592
vn 0.06995491 0.8477671 0.5257352
vn 0.06996015 0.8477691 0.5257311
vn 0.06995986 0.8477693 0.5257308
vn 0 0 0
vn 0.4475665 0.4443242 -0.7760544
vn 0.4475666 0.4443241 -0.7760544
vn 0.4475666 0.4443242 -0.7760544
vn 0.06995986 0.8477693 0.5257308
vn 0.06995986 0.8477693 0.5257308
vn 0.6523716 -0.4375839 0.6188148
vn 0.6523716 -0.4375838 0.6188147
vn 0.6523716 -0.4375839 0.6188148
vn 0.6523716 -0.4375839 0.6188148
vn 0.6523716 -0.4375839 0.6188148
vn 0.6523716 -0.4375839 0.6188148
vn 0.6523716 -0.4375839 0.6188148
vn 0.6523716 -0.4375839 0.6188148
vn 0.6523716 -0.4375839 0.6188148
vn -0.06996015 -0.8477691 -0.5257311
vn -0.06996015 -0.8477691 -0.5257311
vn -0.06996015 -0.8477691 -0.5257311
vn -0.06996015 -0.8477691 -0.5257311
vn -0.06996015 -0.8477691 -0.5257311
vn -0.06996015 -0.8477691 -0.5257311
vn -0.06996015 -0.8477691 -0.5257311
vn -0.06996015 -0.8477691 -0.5257311
vn -0.06996015 -0.8477691 -0.5257311
vn -0.06996015 -0.8477691 -0.5257311
vn -0.06996015 -0.8477691 -0.5257311
vn -0.06996015 -0.8477691 -0.5257311
vn -0.06996015 -0.8477691 -0.5257311
vn -0.06996014 -0.8477691 -0.5257311
vn -0.06996015 -0.8477691 -0.5257311
vn -0.06996015 -0.8477691 -0.5257311
vn -0.06996014 -0.8477691 -0.5257311
vn -0.06996015 -0.8477691 -0.5257311
vn -0.06996015 -0.8477691 -0.5257311
vn -0.06996015 -0.8477691 -0.5257311
vn -0.06996014 -0.8477691 -0.5257311
vn -0.06996015 -0.8477691 -0.5257311
vn -0.06996015 -0.8477691 -0.5257311
vn -0.06996015 -0.8477691 -0.5257311
vn -0.06996015 -0.8477691 -0.5257311
vn -0.06996015 -0.8477691 -0.5257311
vn -0.06996015 -0.8477691 -0.5257311
vn -0.06996015 -0.8477691 -0.5257311
vn -0.06996015 -0.8477691 -0.5257311
vn -0.06996015 -0.8477691 -0.5257311
vn -0.06996015 -0.8477691 -0.5257311
vn -0.06996014 -0.8477691 -0.5257311
vn -0.06996015 -0.8477691 -0.5257311
vn -0.06996014 -0.8477691 -0.5257311
vn -0.06996014 -0.8477691 -0.5257311
vn -0.06996015 -0.8477691 -0.5257311
vn -0.06996014 -0.8477691 -0.5257311
vn -0.06996014 -0.8477691 -0.5257311
vn -0.9468699 -0.1094122 0.3024343
vn -0.9954671 0.02529298 0.09168213
vn -0.975681 0.1678999 -0.1409119
vn -0.9468697 -0.1094121 0.3024342
vn -0.749459 0.3924833 -0.5331682
vn -0.5430229 0.4744599 -0.6928305
vn -0.3139158 0.5189573 -0.7950725
vn -0.3139159 0.5189573 -0.7950726
vn -0.9468698 -0.1094122 0.3024344
vn 0.6523716 -0.4375839 0.6188148
vn 0.6523716 -0.4375839 0.6188148
vn 0.6523716 -0.4375839 0.6188148
vn 0.6523716 -0.4375839 0.6188148
vn 0.6523716 -0.4375839 0.6188148
vn 0.6523716 -0.4375839 0.6188148
vn 0.6523716 -0.4375839 0.6188148
vn 0.6523716 -0.4375838 0.6188147
vn 0.7531692 0.4653825 -0.464925
vn 0.06995959 0.8477689 0.5257316
vn 0.06996001 0.8477692 0.525731
vn 0.06995991 0.8477692 0.525731
vn 0.06996001 0.8477693 0.525731
vn 0.06996001 0.8477693 0.525731
vn 0.06995983 0.8477691 0.5257312
vn 0.06995983 0.8477691 0.5257312
vn 0.06995983 0.8477691 0.5257312
vn 0.06995983 0.8477691 0.5257312
vn 0.06995983 0.8477691 0.5257312
vn 0.06995983 0.8477691 0.5257312
vn 0.06995983 0.8477691 0.5257312
vn 0.06995983 0.8477691 0.5257312
vn 0.06995985 0.8477693 0.525731
vn 0.06995995 0.8477693 0.525731
vn 0.06995985 0.8477693 0.525731
vn 0.06995985 0.8477693 0.525731
vn 0.06995985 0.8477693 0.525731
vn 0.06995985 0.8477693 0.525731
vn 0.06995985 0.8477693 0.525731
vn 0.06995985 0.8477693 0.525731
vn 0.06995985 0.8477693 0.525731
vn 0.06996003 0.8477693 0.5257309
vn 0.06996004 0.8477693 0.5257308
vn 0.06996004 0.8477693 0.5257308
vn 0.06996004 0.8477693 0.5257308
vn 0.06996004 0.8477693 0.5257308
vn 0.06996004 0.8477693 0.5257308
vn 0.06996004 0.8477693 0.5257308
vn 0.06996008 0.8477693 0.5257309
vn 0.0699603 0.8477693 0.5257308
vn 0.0699603 0.8477693 0.5257308
vn 0.0699603 0.8477693 0.5257308
vn 0.0699603 0.8477693 0.5257308
vn 0.0699603 0.8477693 0.5257308
vn 0.0699603 0.8477693 0.5257308
vn 0.0699603 0.8477693 0.5257308
vn 0.06996029 0.8477693 0.5257308
vn 0.06996001 0.8477693 0.525731
vn 0.06996001 0.8477693 0.525731
vn 0.06996001 0.8477692 0.525731

f 1//1 2//2 3//3
f 4//4 1//1 3//3
f 3//3 5//5 4//4
f 3//3 6//6 5//5
f 5//5 6//6 7//7
f 8//8 7//7 6//6
f 9//9 8//8 6//6
f 10//10 9//9 6//6
f 9//9 10//10 11//11
f 11//11 10//10 12//12
f 13//13 11//11 12//12
f 13//13 12//12 14//14
f 13//13 14//14 15//15
f 15//15 14//14 16//16
f 15//15 16//16 17//17
f 18//18 17//17 16//16
f 19//19 17//17 18//18
f 19//19 18//18 20//20
f 21//21 19//19 20//20
f 22//22 19//19 21//21
f 22//22 21//21 23//23
f 24//24 22//22 23//23
f 24//24 23//23 25//25
f 26//26 24//24 25//25
f 26//26 25//25 27//27
f 28//28 26//26 27//27
f 28//28 27//27 29//29
f 29//29 27//27 30//30
f 31//31 29//29 30//30
f 31//31 30//30 32//32
f 33//33 31//31 32//32
f 33//33 32//32 34//34
f 35//35 33//33 34//34
f 35//35 34//34 36//36
f 37//37 35//35 36//36
f 37//37 36//36 38//38
f 39//39 37//37 38//38
f 39//39 38//38 40//40
f 41//41 39//39 40//40
f 41//41 40//40 42//42
f 41//41 42//42 43//43
f 43//43 42//42 44//44
f 45//45 43//43 44//44
f 45//45 44//44 46//46
f 47//47 45//45 46//46
f 48//48 45//45 47//47
f 48//48 47//47 49//49
f 50//50 48//48 49//49
f 50//50 49//49 51//51
f 52//52 50//50 51//51
f 52//52 51//51 53//53
f 54//54 52//52 53//53
f 55//55 54//54 53//53
f 55//55 53//53 56//56
f 55//55 56//56 57//57
f 57//57 56//56 58//58
f 57//57 58//58 59//59
f 59//59 58//58 60//60
f 59//59 60//60 61//61
f 61//61 60//60 62//62
f 61//61 62//62 63//63
f 63//63 62//62 64//64
f 63//63 64//64 65//65
f 65//65 64//64 66//66
f 65//65 66//66 67//67
f 68//68 67//67 66//66
f 69//69 67//67 68//68
f 69//69 68//68 70//70
f 71//71 69//69 70//70
f 72//72 71//71 73//73
f 74//74 75//75 76//76
f 77//77 74//74 76//76
f 75//75 77//77 76//76
f 78//78 75//75 74//74
f 79//79 75//75 78//78
f 78//78 74//74 80//80
f 81//81 78//78 80//80
f 82//82 78//78 81//81
f 82//82 83//83 78//78
f 83//83 84//84 79//79
f 84//84 85//85 79//79
f 80//80 74//74 86//86
f 87//87 80//80 86//86
f 81//81 80//80 87//87
f 86//86 74//74 88//88
f 88//88 74//74 77//77
f 86//86 88//88 89//89
f 90//90 86//86 89//89
f 87//87 86//86 90//90
f 75//75 91//91 77//77
f 90//90 89//89 92//92
f 90//90 92//92 93//93
f 94//94 90//90 93//93
f 95//95 83//83 82//82
f 95//95 82//82 81//81
f 95//95 81//81 87//87
f 95//95 87//87 90//90
f 95//95 96//96 83//83
f 97//97 91//91 75//75
f 97//97 98//98 91//91
f 97//97 99//99 98//98
f 100//100 95//95 101//101
f 102//102 103//103 104//104
f 102//102 104//104 105//105
f 102//102 105//105 106//106
f 106//106 105//105 107//107
f 108//108 102//102 106//106
f 109//109 102//102 108//108
f 110//110 108//108 106//106
f 111//111 112//112 113//113
f 111//111 113//113 114//114
f 111//111 114//114 115//115
f 111//111 115//115 116//116
f 111//111 116//116 117//117
f 117//117 118//118 111//111
f 118//118 119//119 111//111
f 120//120 111//111 119//119
f 120//120 121//121 111//111
f 121//121 122//122 111//111
f 111//111 122//122 123//123
f 114//114 113//113 124//124
f 124//124 113//113 125//125
f 125//125 113//113 126//126
f 126//126 113//113 127//127
f 127//127 113//113 128//128
f 128//128 113//113 129//129
f 129//129 113//113 130//130
f 130//130 113//113 131//131
f 131//131 113//113 132//132
f 132//132 113//113 133//133
f 133//133 113//113 134//134
f 133//133 134//134 135//135
f 135//135 134//134 136//136
f 134//134 137//137 136//136
f 137//137 134//134 138//138
f 138//138 134//134 139//139
f 139//139 134//134 140//140
f 140//140 134//134 141//141
f 134//134 142//142 141//141
f 134//134 143//143 142//142
f 134//134 144//144 143//143
f 144//144 134//134 145//145
f 145//145 134//134 146//146
f 147//147 134//134 148//148
f 149//149 150//150 151//151
f 149//149 152//152 150//150
f 151//151 150//150 153//153
f 151//151 153//153 154//154
f 154//154 153//153 155//155
f 154//154 155//155 156//156
f 152//152 157//157 150//150
f 158//158 159//159 160//160
f 161//161 159//159 158//158
f 162//162 159//159 161//161
f 163//163 162//162 161//161
f 164//164 162//162 163//163
f 165//165 162//162 164//164
f 9//9 166//166 8//8
f 166//166 9//9 167//167
f 168//168 169//169 170//170
f 168//168 171//171 169//169
f 172//172 169//169 173//173
f 174//174 169//169 172//172
f 169//169 174//174 175//175
f 176//176 169//169 175//175
f 177//177 169//169 176//176
f 178//178 169//169 177//177
f 178//178 179//179 169//169
f 179//179 180//180 169//169
f 180//180 181//181 169//169
f 182//182 181//181 180//180
f 182//182 183//183 181//181
f 183//183 184//184 181//181
f 184//184 185//185 181//181
f 185//185 186//186 181//181
f 186//186 187//187 181//181
f 187//187 188//188 181//181
f 188//188 189//189 181//181
f 181//181 189//189 190//190
f 181//181 190//190 191//191
f 192//192 181//181 191//191
f 193//193 181//181 192//192
f 194//194 181//181 193//193
f 195//195 181//181 194//194
f 195//195 196//196 181//181
f 196//196 197//197 198//198
f 196//196 198//198 199//199
f 199//199 200//200 196//196
f 196//196 200//200 201//201
f 201//201 202//202 196//196
f 196//196 202//202 203//203
f 196//196 203//203 204//204
f 205//205 196//196 206//206
f 207//207 196//196 205//205
