v 107.5566 -94.83731 19.22021
v 101.7785 -101.5508 4.888356
v 107.5566 -94.83731 19.22021
v 107.5566 -94.83731 19.22021
v 109.5156 -92.51524 17.34267
v 110.2993 -91.58642 16.59165
v 110.2993 -91.58642 16.59165
v 104.5212 -98.2999 2.25979
v 98.74313 -105.0134 -12.07207
v 110.5248 -91.67248 16.54101
v 100.7734 -105.7879 -12.52777
v 110.5529 -91.68317 16.53472
v 101.0257 -105.8842 -12.5844
v 110.5607 -91.68617 16.53296
v 101.0965 -105.9112 -12.6003
v 110.6492 -91.71992 16.5131
v 101.8926 -106.2149 -12.77898
v 111.7397 -92.13595 16.26833
v 102.0137 -106.2611 -12.80617
v 112.7737 -92.5304 16.03625
v 112.8926 -92.57578 16.00955
v 102.1418 -106.31 -12.83493
v 113.1407 -92.67043 15.95386
v 102.1694 -106.3205 -12.84111
v 113.7986 -92.92142 15.80619
v 102.2425 -106.3484 -12.85752
v 113.9612 -92.84953 15.70698
v 103.1376 -105.9526 -13.40381
v 103.7055 -105.7015 -13.75039
v 114.0015 -92.8317 15.68237
v 104.0685 -105.5409 -13.97193
v 114.0135 -92.82639 15.67504
v 104.1765 -105.4932 -14.03785
v 114.1042 -92.78628 15.61968
v 104.993 -105.1322 -14.53614
v 115.145 -92.32607 14.9845
v 105.1086 -105.081 -14.60671
v 116.0048 -91.94586 14.45974
v 105.2042 -105.0388 -14.66502
v 116.8547 -91.57005 13.94107
v 105.2986 -104.997 -14.72265
v 116.8801 -91.46989 13.88391
v 105.5271 -104.0955 -15.23707
v 116.937 -91.24545 13.75584
v 106.039 -102.0755 -16.38966
v 117.0957 -90.61929 13.39856
v 117.1591 -90.36888 13.25568
v 106.0637 -101.9781 -16.44523
v 117.3755 -89.51503 12.76847
v 106.0877 -101.8833 -16.49936
v 117.5537 -88.81197 12.3673
v 106.1075 -101.8051 -16.54394
v 117.6774 -88.32395 12.08884
v 106.1212 -101.7509 -16.57488
v 106.1212 -101.7509 -16.57488
v 117.5649 -88.13142 12.044
v 105.1088 -100.0182 -16.97836
v 117.5318 -88.07476 12.03081
v 104.8108 -99.5082 -17.09713
v 117.5284 -88.06898 12.02946
v 104.7804 -99.45613 -17.10925
v 117.5268 -88.06629 12.02884
v 104.7663 -99.43199 -17.11487
v 117.5248 -88.0629 12.02805
v 104.7485 -99.40147 -17.12198
v 117.4881 -88.00002 12.0134
v 104.4178 -98.83552 -17.25377
v 115.7846 -85.08463 11.33451
v 104.2285 -98.51158 -17.3292
v 115.7846 -85.08463 11.33451
v 104.2285 -98.51158 -17.3292
v 115.7846 -85.08463 11.33451
v 115.7846 -85.08463 11.33451
v 116.5683 -84.15579 10.58349
v 118.5273 -81.83372 8.705946
v 118.5273 -81.83372 8.705946
v 118.5273 -81.83372 8.705946
v 115.7846 -85.08463 11.33451
v 115.7846 -85.08463 11.33451
v 115.7846 -85.08463 11.33451
v 104.2285 -98.51158 -17.3292
v 104.2285 -98.51158 -17.3292
v 104.2285 -98.51158 -17.3292
v 115.7846 -85.08463 11.33451
v 122.3128 -88.31238 10.21459
v 115.7846 -85.08463 11.33451
v 104.2285 -98.51158 -17.3292
v 115.7846 -85.08463 11.33451
v 110.0066 -91.7981 -2.997347
v 104.2285 -98.51158 -17.3292
v 112.7493 -88.54721 -5.625913
v 104.2285 -98.51158 -17.32919
v 104.2285 -98.51158 -17.3292
v 105.0121 -97.58276 -18.08022
v 110.7567 -101.7393 -18.44912
v 104.2285 -98.51158 -17.3292
v 122.3128 -88.31238 10.21459
v 106.9712 -95.26069 -19.95777
v 110.7567 -101.7393 -18.44912
v 106.1212 -101.7509 -16.57488
v 106.1212 -101.7509 -16.57488
v 101.7785 -101.5508 4.888356
v 107.5566 -94.83731 19.22021
v 107.5566 -94.83731 19.22021
v 109.5156 -92.51524 17.34267
v 104.5212 -98.2999 2.25979
v 110.2993 -91.58642 16.59165
v 97.60707 -106.3599 -10.98328
v 96.00044 -108.2643 -9.443501
v 98.74313 -105.0134 -12.07207
v 107.5566 -94.83731 19.22021
v 114.5553 -97.50731 17.6493
v 120.6675 -94.80459 13.91905
v 113.7986 -92.92142 15.80619
v 113.1407 -92.67043 15.95386
v 112.8926 -92.57578 16.00955
v 112.7737 -92.5304 16.03625
v 111.7397 -92.13595 16.26833
v 110.6492 -91.71992 16.5131
v 110.5607 -91.68617 16.53296
v 110.5529 -91.68317 16.53472
v 110.5248 -91.67248 16.54101
v 110.2993 -91.58642 16.59165
v 113.9612 -92.84953 15.70698
v 114.0015 -92.8317 15.68237
v 114.0135 -92.82639 15.67504
v 114.1042 -92.78628 15.61968
v 115.145 -92.32607 14.9845
v 116.0048 -91.94586 14.45974
v 116.8547 -91.57005 13.94107
v 116.8801 -91.46989 13.88391
v 116.937 -91.24545 13.75584
v 117.0957 -90.61929 13.39856
v 122.3128 -88.31238 10.21459
v 117.1591 -90.36888 13.25568
v 117.3755 -89.51503 12.76847
v 117.5537 -88.81197 12.3673
v 117.6774 -88.32395 12.08884
v 117.5649 -88.13142 12.044
v 117.5318 -88.07476 12.03081
v 117.5284 -88.06898 12.02946
v 117.5268 -88.06629 12.02884
v 117.5248 -88.0629 12.02805
v 117.4881 -88.00002 12.0134
v 115.7846 -85.08463 11.33451
v 115.7846 -85.08463 11.33451
v 115.7846 -85.08463 11.33451
v 118.5273 -81.83372 8.705946
v 107.5566 -94.83731 19.22021
v 102.9992 -110.9343 -11.01441
v 114.5553 -97.50731 17.6493
v 101.7785 -101.5508 4.888356
v 109.1114 -108.2316 -14.74466
v 120.6675 -94.80459 13.91905
v 110.7567 -101.7393 -18.44912
v 122.3128 -88.31238 10.21459
v 96.00044 -108.2643 -9.443501
v 118.5273 -81.83372 8.705946
v 110.0066 -91.7981 -2.997347
v 115.7846 -85.08463 11.33451
v 112.7493 -88.54721 -5.625913
v 104.2285 -98.51158 -17.32919
v 106.9712 -95.26069 -19.95777
v 105.0121 -97.58276 -18.08022
v 104.2285 -98.51158 -17.3292
v 98.74313 -105.0134 -12.07207
v 102.9992 -110.9343 -11.01441
v 97.60707 -106.3599 -10.98328
v 102.9992 -110.9343 -11.01441
v 96.00044 -108.2643 -9.443501
v 98.74313 -105.0134 -12.07207
v 100.7734 -105.7879 -12.52777
v 98.74313 -105.0134 -12.07207
v 101.0257 -105.8842 -12.5844
v 101.0965 -105.9112 -12.6003
v 101.8926 -106.2149 -12.77898
v 102.0137 -106.2611 -12.80617
v 102.1418 -106.31 -12.83493
v 102.1694 -106.3205 -12.84111
v 102.2425 -106.3484 -12.85752
v 109.1114 -108.2316 -14.74466
v 103.1376 -105.9526 -13.40381
v 103.7055 -105.7015 -13.75039
v 104.0685 -105.5409 -13.97193
v 104.1765 -105.4932 -14.03785
v 104.993 -105.1322 -14.53614
v 105.1086 -105.081 -14.60671
v 105.2042 -105.0388 -14.66502
v 105.2986 -104.997 -14.72265
v 105.5271 -104.0955 -15.23707
v 106.039 -102.0755 -16.38966
v 106.0637 -101.9781 -16.44523
v 106.0877 -101.8833 -16.49936
v 106.1075 -101.8051 -16.54394
v 106.1212 -101.7509 -16.57488
v 110.7567 -101.7393 -18.44912
v 106.1212 -101.7509 -16.57488
v 105.1088 -100.0182 -16.97836
v 104.8108 -99.5082 -17.09713
v 104.7804 -99.45613 -17.10925
v 104.7663 -99.43199 -17.11487
v 104.7485 -99.40147 -17.12198
v 104.4178 -98.83552 -17.25377
v 104.2285 -98.51158 -17.3292
v 105.0121 -97.58276 -18.08022
v 104.2285 -98.51158 -17.3292
v 106.9712 -95.26069 -19.95777

vn -0.5485372 -0.6501787 0.5257134
vn -0.5485372 -0.6501788 0.5257133
vn -0.1932917 -0.2343314 0.9527472
vn 0.34295 0.3984706 0.8506506
vn 0.34295 0.3984706 0.8506506
vn 0.2149603 0.8482493 -0.4840097
vn 0.5915247 0.6999965 -0.4001296
vn -0.6103439 0.7828923 -0.1206634
vn 0.2149644 0.8482475 -0.4840108
vn 0.2149652 0.8482473 -0.484011
vn 0.2149649 0.8482473 -0.484011
vn 0.2149639 0.8482477 -0.4840108
vn 0.2149629 0.8482479 -0.4840106
vn 0.2149684 0.8482462 -0.4840114
vn 0.2149658 0.8482471 -0.484011
vn 0.2149653 0.8482472 -0.4840109
vn 0.2149654 0.8482473 -0.484011
vn 0.2149655 0.8482472 -0.484011
vn 0.2149652 0.8482472 -0.4840109
vn 0.2149655 0.8482472 -0.484011
vn 0.2149645 0.8482475 -0.4840108
vn 0.214963 0.848248 -0.4840105
vn 0.214965 0.8482473 -0.4840108
vn 0.2149659 0.8482471 -0.4840111
vn 0.07458067 0.891161 -0.4475153
vn -0.4615178 0.8602111 -0.2168829
vn -0.4945959 0.8464759 -0.1971132
vn -0.4945951 0.8464761 -0.1971135
vn -0.4945949 0.8464763 -0.1971137
vn -0.4945932 0.8464772 -0.1971146
vn -0.4945921 0.8464776 -0.1971151
vn -0.4945907 0.8464782 -0.1971158
vn -0.4945931 0.8464772 -0.1971146
vn -0.494594 0.8464766 -0.1971142
vn -0.4945945 0.8464765 -0.197114
vn -0.4945946 0.8464764 -0.197114
vn -0.4945936 0.8464767 -0.1971144
vn -0.4945942 0.8464766 -0.1971142
vn -0.4945952 0.8464761 -0.1971136
vn -0.5460849 0.8213986 -0.1646078
vn -0.8982511 0.4040567 0.172868
vn -0.914426 0.3488526 0.2052485
vn -0.9144263 0.3488517 0.205249
vn -0.9144264 0.3488511 0.2052493
vn -0.9144264 0.3488511 0.2052493
vn -0.9144262 0.3488515 0.2052491
vn -0.9144261 0.348852 0.2052489
vn -0.9144263 0.3488516 0.2052491
vn -0.9144262 0.3488519 0.205249
vn -0.9144262 0.3488516 0.2052491
vn -0.9144263 0.3488517 0.2052491
vn -0.9144261 0.348852 0.2052489
vn -0.9388568 0.1748506 0.2966061
vn -0.9144211 0.3488718 0.2052376
vn -0.7986003 -0.353126 0.4873804
vn -0.7985996 -0.353127 0.4873806
vn -0.7985995 -0.3531275 0.4873807
vn -0.7985988 -0.3531285 0.4873808
vn -0.7985998 -0.3531267 0.4873806
vn -0.7986006 -0.3531253 0.4873806
vn -0.7986017 -0.3531228 0.4873802
vn -0.7986223 -0.3530822 0.4873761
vn -0.7986095 -0.3531077 0.4873786
vn -0.7985965 -0.3531332 0.4873814
vn -0.7985985 -0.3531296 0.4873809
vn -0.7985997 -0.3531269 0.4873806
vn -0.7986 -0.3531264 0.4873805
vn -0.7986001 -0.3531262 0.4873805
vn -0.7986026 -0.353122 0.4873794
vn -0.8701679 -0.2063378 0.4474736
vn -0.5485373 -0.6501788 0.5257132
vn -0.5485373 -0.6501788 0.5257132
vn -0.5485373 -0.6501788 0.5257132
vn 0.34295 0.3984706 0.8506506
vn 0.7985998 0.3531267 -0.4873807
vn 0.34295 0.3984706 0.8506506
vn -0.6848012 0.7259181 -0.06395657
vn -0.09547859 -0.1192736 0.9882599
vn -0.02566564 -0.03705302 0.9989837
vn -0.5227848 -0.6202248 0.5848225
vn -0.5485373 -0.6501788 0.5257132
vn -0.5485373 -0.6501788 0.5257132
vn -0.5485373 -0.6501788 0.5257132
vn -0.5102949 -0.6056771 0.6105362
vn 0.34295 0.3984706 0.8506506
vn -0.5441549 -0.6450771 0.536443
vn -0.5485373 -0.6501788 0.5257132
vn -0.4945238 -0.587292 0.6407296
vn -0.5485322 -0.6501831 0.5257131
vn -0.5681342 -0.6729348 0.4736901
vn 0.7985998 0.3531267 -0.4873806
vn -0.5485193 -0.6501942 0.5257131
vn -0.3429538 -0.3984751 -0.850647
vn -0.34295 -0.3984706 -0.8506506
vn -0.3429497 -0.3984709 -0.8506506
vn 0 0 0
vn 0.7985999 0.3531267 -0.4873806
vn 0.7985998 0.3531267 -0.4873806
vn 0.7985999 0.3531267 -0.4873807
vn -0.3429497 -0.3984709 -0.8506506
vn -0.3429497 -0.3984709 -0.8506506
vn -0.7625563 0.6469069 0.004402685
vn -0.7625563 0.6469068 0.004402685
vn -0.7625563 0.6469069 0.004402685
vn -0.7625563 0.6469069 0.004402685
vn -0.7625563 0.6469069 0.004402685
vn -0.7625563 0.6469069 0.004402685
vn -0.7625563 0.6469069 0.004402685
vn -0.7625563 0.6469069 0.004402685
vn -0.7625563 0.6469069 0.004402685
vn 0.34295 0.3984706 0.8506506
vn 0.34295 0.3984706 0.8506506
vn 0.34295 0.3984706 0.8506506
vn 0.34295 0.3984706 0.8506506
vn 0.34295 0.3984706 0.8506506
vn 0.34295 0.3984706 0.8506506
vn 0.34295 0.3984706 0.8506506
vn 0.34295 0.3984706 0.8506506
vn 0.34295 0.3984706 0.8506506
vn 0.34295 0.3984706 0.8506506
vn 0.34295 0.3984706 0.8506506
vn 0.34295 0.3984706 0.8506506
vn 0.34295 0.3984706 0.8506506
vn 0.34295 0.3984706 0.8506505
vn 0.34295 0.3984706 0.8506506
vn 0.34295 0.3984706 0.8506506
vn 0.34295 0.3984706 0.8506505
vn 0.34295 0.3984706 0.8506506
vn 0.34295 0.3984706 0.8506506
vn 0.34295 0.3984706 0.8506506
vn 0.34295 0.3984706 0.8506505
vn 0.34295 0.3984706 0.8506506
vn 0.34295 0.3984706 0.8506506
vn 0.34295 0.3984706 0.8506506
vn 0.34295 0.3984706 0.8506506
vn 0.34295 0.3984706 0.8506506
vn 0.34295 0.3984706 0.8506506
vn 0.34295 0.3984706 0.8506506
vn 0.34295 0.3984706 0.8506506
vn 0.34295 0.3984706 0.8506506
vn 0.34295 0.3984706 0.8506506
vn 0.34295 0.3984706 0.8506505
vn 0.34295 0.3984706 0.8506506
vn 0.34295 0.3984706 0.8506505
vn 0.34295 0.3984706 0.8506505
vn 0.34295 0.3984706 0.8506506
vn 0.34295 0.3984706 0.8506505
vn 0.34295 0.3984706 0.8506505
vn -0.2149649 -0.8482474 0.484011
vn 0.02311157 -0.9088752 0.4164275
vn 0.2767128 -0.9082422 0.3138886
vn -0.2149648 -0.8482473 0.4840109
vn 0.6803647 -0.7297547 0.06754237
vn 0.8304155 -0.5519001 -0.07626499
vn 0.9144262 -0.3488515 -0.2052492
vn 0.9144263 -0.3488515 -0.2052492
vn -0.2149649 -0.8482473 0.4840109
vn -0.7625563 0.6469069 0.004402685
vn -0.7625563 0.6469069 0.004402685
vn -0.7625563 0.6469069 0.004402685
vn -0.7625563 0.6469069 0.004402685
vn -0.7625563 0.6469069 0.004402685
vn -0.7625563 0.6469069 0.004402685
vn -0.7625563 0.6469069 0.004402677
vn -0.7625563 0.6469068 0.004402677
vn 0.4675871 0.5558568 -0.6873031
vn -0.3429504 -0.3984711 -0.8506503
vn -0.3429498 -0.3984708 -0.8506505
vn -0.3429499 -0.3984709 -0.8506505
vn -0.3429498 -0.3984708 -0.8506506
vn -0.3429498 -0.3984708 -0.8506506
vn -0.3429501 -0.3984709 -0.8506504
vn -0.3429501 -0.3984709 -0.8506504
vn -0.3429501 -0.3984709 -0.8506504
vn -0.3429501 -0.3984709 -0.8506504
vn -0.3429501 -0.3984709 -0.8506504
vn -0.34295 -0.3984709 -0.8506504
vn -0.3429501 -0.3984709 -0.8506504
vn -0.34295 -0.3984709 -0.8506504
vn -0.3429498 -0.3984709 -0.8506505
vn -0.3429497 -0.3984708 -0.8506506
vn -0.3429498 -0.3984709 -0.8506505
vn -0.3429498 -0.3984709 -0.8506505
vn -0.3429498 -0.3984709 -0.8506505
vn -0.3429498 -0.3984709 -0.8506505
vn -0.3429498 -0.3984709 -0.8506505
vn -0.3429498 -0.3984709 -0.8506505
vn -0.3429498 -0.3984709 -0.8506505
vn -0.3429497 -0.3984708 -0.8506507
vn -0.3429497 -0.3984708 -0.8506507
vn -0.3429497 -0.3984708 -0.8506507
vn -0.3429497 -0.3984708 -0.8506507
vn -0.3429497 -0.3984708 -0.8506507
vn -0.3429497 -0.3984708 -0.8506507
vn -0.3429497 -0.3984708 -0.8506507
vn -0.3429497 -0.3984707 -0.8506507
vn -0.3429497 -0.3984705 -0.8506508
vn -0.3429497 -0.3984705 -0.8506508
vn -0.3429497 -0.3984705 -0.8506508
vn -0.3429497 -0.3984705 -0.8506508
vn -0.3429497 -0.3984705 -0.8506508
vn -0.3429497 -0.3984705 -0.8506508
vn -0.3429497 -0.3984705 -0.8506508
vn -0.3429497 -0.3984705 -0.8506507
vn -0.3429498 -0.3984708 -0.8506506
vn -0.3429498 -0.3984708 -0.8506506
vn -0.3429498 -0.3984708 -0.8506505

f 1//1 2//2 3//3
f 4//4 1//1 3//3
f 3//3 5//5 4//4
f 3//3 6//6 5//5
f 5//5 6//6 7//7
f 8//8 7//7 6//6
f 9//9 8//8 6//6
f 10//10 9//9 6//6
f 9//9 10//10 11//11
f 11//11 10//10 12//12
f 13//13 11//11 12//12
f 13//13 12//12 14//14
f 13//13 14//14 15//15
f 15//15 14//14 16//16
f 15//15 16//16 17//17
f 18//18 17//17 16//16
f 19//19 17//17 18//18
f 19//19 18//18 20//20
f 21//21 19//19 20//20
f 22//22 19//19 21//21
f 22//22 21//21 23//23
f 24//24 22//22 23//23
f 24//24 23//23 25//25
f 26//26 24//24 25//25
f 26//26 25//25 27//27
f 28//28 26//26 27//27
f 28//28 27//27 29//29
f 29//29 27//27 30//30
f 31//31 29//29 30//30
f 31//31 30//30 32//32
f 33//33 31//31 32//32
f 33//33 32//32 34//34
f 35//35 33//33 34//34
f 35//35 34//34 36//36
f 37//37 35//35 36//36
f 37//37 36//36 38//38
f 39//39 37//37 38//38
f 39//39 38//38 40//40
f 41//41 39//39 40//40
f 41//41 40//40 42//42
f 41//41 42//42 43//43
f 43//43 42//42 44//44
f 45//45 43//43 44//44
f 45//45 44//44 46//46
f 47//47 45//45 46//46
f 48//48 45//45 47//47
f 48//48 47//47 49//49
f 50//50 48//48 49//49
f 50//50 49//49 51//51
f 52//52 50//50 51//51
f 52//52 51//51 53//53
f 54//54 52//52 53//53
f 55//55 54//54 53//53
f 55//55 53//53 56//56
f 55//55 56//56 57//57
f 57//57 56//56 58//58
f 57//57 58//58 59//59
f 59//59 58//58 60//60
f 59//59 60//60 61//61
f 61//61 60//60 62//62
f 61//61 62//62 63//63
f 63//63 62//62 64//64
f 63//63 64//64 65//65
f 65//65 64//64 66//66
f 65//65 66//66 67//67
f 68//68 67//67 66//66
f 69//69 67//67 68//68
f 69//69 68//68 70//70
f 71//71 69//69 70//70
f 72//72 71//71 73//73
f 74//74 75//75 76//76
f 77//77 74//74 76//76
f 75//75 77//77 76//76
f 78//78 75//75 74//74
f 79//79 75//75 78//78
f 78//78 74//74 80//80
f 81//81 78//78 80//80
f 82//82 78//78 81//81
f 82//82 83//83 78//78
f 83//83 84//84 79//79
f 84//84 85//85 79//79
f 80//80 74//74 86//86
f 87//87 80//80 86//86
f 81//81 80//80 87//87
f 86//86 74//74 88//88
f 88//88 74//74 77//77
f 86//86 88//88 89//89
f 90//90 86//86 89//89
f 87//87 86//86 90//90
f 75//75 91//91 77//77
f 90//90 89//89 92//92
f 90//90 92//92 93//93
f 94//94 90//90 93//93
f 95//95 83//83 82//82
f 95//95 82//82 81//81
f 95//95 81//81 87//87
f 95//95 87//87 90//90
f 95//95 96//96 83//83
f 97//97 91//91 75//75
f 97//97 98//98 91//91
f 97//97 99//99 98//98
f 100//100 95//95 101//101
f 102//102 103//103 104//104
f 102//102 104//104 105//105
f 102//102 105//105 106//106
f 106//106 105//105 107//107
f 108//108 102//102 106//106
f 109//109 102//102 108//108
f 110//110 108//108 106//106
f 111//111 112//112 113//113
f 111//111 113//113 114//114
f 111//111 114//114 115//115
f 111//111 115//115 116//116
f 111//111 116//116 117//117
f 117//117 118//118 111//111
f 118//118 119//119 111//111
f 120//120 111//111 119//119
f 120//120 121//121 111//111
f 121//121 122//122 111//111
f 111//111 122//122 123//123
f 114//114 113//113 124//124
f 124//124 113//113 125//125
f 125//125 113//113 126//126
f 126//126 113//113 127//127
f 127//127 113//113 128//128
f 128//128 113//113 129//129
f 129//129 113//113 130//130
f 130//130 113//113 131//131
f 131//131 113//113 132//132
f 132//132 113//113 133//133
f 133//133 113//113 134//134
f 133//133 134//134 135//135
f 135//135 134//134 136//136
f 134//134 137//137 136//136
f 137//137 134//134 138//138
f 138//138 134//134 139//139
f 139//139 134//134 140//140
f 140//140 134//134 141//141
f 134//134 142//142 141//141
f 134//134 143//143 142//142
f 134//134 144//144 143//143
f 144//144 134//134 145//145
f 145//145 134//134 146//146
f 147//147 134//134 148//148
f 149//149 150//150 151//151
f 149//149 152//152 150//150
f 151//151 150//150 153//153
f 151//151 153//153 154//154
f 154//154 153//153 155//155
f 154//154 155//155 156//156
f 152//152 157//157 150//150
f 158//158 159//159 160//160
f 161//161 159//159 158//158
f 162//162 159//159 161//161
f 163//163 162//162 161//161
f 164//164 162//162 163//163
f 165//165 162//162 164//164
f 9//9 166//166 8//8
f 166//166 9//9 167//167
f 168//168 169//169 170//170
f 168//168 171//171 169//169
f 172//172 169//169 173//173
f 174//174 169//169 172//172
f 169//169 174//174 175//175
f 176//176 169//169 175//175
f 177//177 169//169 176//176
f 178//178 169//169 177//177
f 178//178 179//179 169//169
f 179//179 180//180 169//169
f 180//180 181//181 169//169
f 182//182 181//181 180//180
f 182//182 183//183 181//181
f 183//183 184//184 181//181
f 184//184 185//185 181//181
f 185//185 186//186 181//181
f 186//186 187//187 181//181
f 187//187 188//188 181//181
f 188//188 189//189 181//181
f 181//181 189//189 190//190
f 181//181 190//190 191//191
f 192//192 181//181 191//191
f 193//193 181//181 192//192
f 194//194 181//181 193//193
f 195//195 181//181 194//194
f 195//195 196//196 181//181
f 196//196 197//197 198//198
f 196//196 198//198 199//199
f 199//199 200//200 196//196
f 196//196 200//200 201//201
f 201//201 202//202 196//196
f 196//196 202//202 203//203
f 196//196 203//203 204//204
f 205//205 196//196 206//206
f 207//207 196//196 205//205
