v 99.5891 -62.02119 -84.22211
v 106.0956 -46.48014 -84.22211
v 99.5891 -62.02119 -84.22211
v 99.5891 -62.02119 -84.22211
v 101.376 -62.76932 -81.22173
v 102.0908 -63.06857 -80.02157
v 102.0908 -63.06857 -80.02157
v 108.5973 -47.52752 -80.02158
v 115.1039 -31.98646 -80.02158
v 102.3146 -63.16229 -80.06588
v 117.1185 -32.82994 -80.42042
v 102.3425 -63.17393 -80.07139
v 117.3689 -32.93476 -80.46998
v 102.3503 -63.17721 -80.07294
v 117.4392 -32.96418 -80.48389
v 102.438 -63.21395 -80.09031
v 118.2291 -33.29491 -80.64027
v 103.5202 -63.66702 -80.30454
v 118.3494 -33.34525 -80.66408
v 104.5462 -64.09659 -80.50766
v 104.6643 -64.146 -80.53102
v 118.4765 -33.39847 -80.68924
v 104.9105 -64.24908 -80.57976
v 118.5039 -33.40992 -80.69466
v 105.5633 -64.52241 -80.70901
v 118.5764 -33.4403 -80.70901
v 105.7178 -64.58707 -80.59326
v 119.4269 -33.79638 -80.07172
v 119.9665 -34.02229 -79.66739
v 105.7561 -64.60312 -80.56455
v 120.3114 -34.16669 -79.40894
v 105.7675 -64.60789 -80.556
v 120.4141 -34.20967 -79.33203
v 105.8537 -64.64398 -80.49142
v 121.1898 -34.53446 -78.75073
v 106.8426 -65.05801 -79.75041
v 121.2997 -34.58046 -78.6684
v 107.6596 -65.40005 -79.13822
v 121.3905 -34.61847 -78.60037
v 108.4671 -65.73814 -78.53313
v 121.4802 -34.65603 -78.53314
v 108.4867 -65.74634 -78.41695
v 121.6563 -34.72977 -77.4876
v 108.5306 -65.76469 -78.15667
v 122.0509 -34.89497 -75.14501
v 108.6529 -65.8159 -77.4305
v 108.7018 -65.83638 -77.1401
v 122.0699 -34.90293 -75.03206
v 108.8686 -65.90621 -76.14986
v 122.0885 -34.91069 -74.92204
v 109.0059 -65.96371 -75.33451
v 122.1037 -34.91708 -74.83144
v 109.1013 -66.00362 -74.76854
v 122.1143 -34.92151 -74.76855
v 122.1143 -34.92151 -74.76855
v 108.982 -65.95368 -74.58144
v 121.0407 -34.47204 -73.08466
v 108.9469 -65.93898 -74.52637
v 120.7248 -34.33974 -72.58903
v 108.9433 -65.93748 -74.52074
v 120.6925 -34.32624 -72.53844
v 108.9416 -65.93678 -74.51814
v 120.6775 -34.31997 -72.51497
v 108.9395 -65.93591 -74.51485
v 120.6586 -34.31206 -72.48531
v 108.9006 -65.91959 -74.45374
v 120.308 -34.16525 -71.9353
v 107.0942 -65.16333 -71.62048
v 120.1073 -34.08121 -71.6205
v 107.0942 -65.16333 -71.62048
v 120.1073 -34.08121 -71.6205
v 107.0942 -65.16333 -71.62048
v 107.0942 -65.16333 -71.62048
v 107.809 -65.46258 -70.42033
v 109.5959 -66.21071 -67.41994
v 109.5959 -66.21071 -67.41994
v 109.5959 -66.21071 -67.41994
v 107.0942 -65.16333 -71.62048
v 107.0942 -65.16333 -71.62048
v 107.0942 -65.16333 -71.62048
v 120.1073 -34.08121 -71.6205
v 120.1073 -34.08121 -71.6205
v 120.1073 -34.08121 -71.6205
v 107.0942 -65.16333 -71.62048
v 113.61 -67.8913 -73.71605
v 107.0942 -65.16333 -71.62048
v 120.1073 -34.08121 -71.6205
v 107.0942 -65.16333 -71.62048
v 113.6007 -49.62227 -71.62049
v 120.1073 -34.08121 -71.6205
v 116.1024 -50.66965 -67.41995
v 120.1073 -34.08123 -71.6205
v 120.1073 -34.08121 -71.6205
v 120.822 -34.38047 -70.42034
v 126.6231 -36.80919 -73.71606
v 120.1073 -34.08121 -71.6205
v 113.61 -67.8913 -73.71605
v 122.609 -35.12859 -67.41995
v 126.6231 -36.80919 -73.71606
v 122.1143 -34.92151 -74.76855
v 122.1143 -34.92151 -74.76855
v 106.0956 -46.48014 -84.22211
v 99.5891 -62.02119 -84.22211
v 99.5891 -62.02119 -84.22211
v 101.376 -62.76932 -81.22173
v 108.5973 -47.52752 -80.02158
v 102.0908 -63.06857 -80.02157
v 114.0676 -31.55262 -81.76151
v 112.6022 -30.93908 -84.22212
v 115.1039 -31.98646 -80.02158
v 99.5891 -62.02119 -84.22211
v 106.5342 -64.92886 -85.59698
v 112.3418 -67.36034 -81.24522
v 105.5633 -64.52241 -80.70901
v 104.9105 -64.24908 -80.57976
v 104.6643 -64.146 -80.53102
v 104.5462 -64.09659 -80.50766
v 103.5202 -63.66702 -80.30454
v 102.438 -63.21395 -80.09031
v 102.3503 -63.17721 -80.07294
v 102.3425 -63.17393 -80.07139
v 102.3146 -63.16229 -80.06588
v 102.0908 -63.06857 -80.02157
v 105.7178 -64.58707 -80.59326
v 105.7561 -64.60312 -80.56455
v 105.7675 -64.60789 -80.556
v 105.8537 -64.64398 -80.49142
v 106.8426 -65.05801 -79.75041
v 107.6596 -65.40005 -79.13822
v 108.4671 -65.73814 -78.53313
v 108.4867 -65.74634 -78.41695
v 108.5306 -65.76469 -78.15667
v 108.6529 -65.8159 -77.4305
v 113.61 -67.8913 -73.71605
v 108.7018 -65.83638 -77.1401
v 108.8686 -65.90621 -76.14986
v 109.0059 -65.96371 -75.33451
v 109.1013 -66.00362 -74.76854
v 108.982 -65.95368 -74.58144
v 108.9469 -65.93898 -74.52637
v 108.9433 -65.93748 -74.52074
v 108.9416 -65.93678 -74.51814
v 108.9395 -65.93591 -74.51485
v 108.9006 -65.91959 -74.45374
v 107.0942 -65.16333 -71.62048
v 107.0942 -65.16333 -71.62048
v 107.0942 -65.16333 -71.62048
v 109.5959 -66.21071 -67.41994
v 99.5891 -62.02119 -84.22211
v 119.5472 -33.84676 -85.59699
v 106.5342 -64.92886 -85.59698
v 106.0956 -46.48014 -84.22211
v 125.3549 -36.27823 -81.24524
v 112.3418 -67.36034 -81.24522
v 126.6231 -36.80919 -73.71606
v 113.61 -67.8913 -73.71605
v 112.6022 -30.93908 -84.22212
v 109.5959 -66.21071 -67.41994
v 113.6007 -49.62227 -71.62049
v 107.0942 -65.16333 -71.62048
v 116.1024 -50.66965 -67.41995
v 120.1073 -34.08123 -71.6205
v 122.609 -35.12859 -67.41995
v 120.822 -34.38047 -70.42034
v 120.1073 -34.08121 -71.6205
v 115.1039 -31.98646 -80.02158
v 119.5472 -33.84676 -85.59699
v 114.0676 -31.55262 -81.76151
v 119.5472 -33.84676 -85.59699
v 112.6022 -30.93908 -84.22212
v 115.1039 -31.98646 -80.02158
v 117.1185 -32.82994 -80.42042
v 115.1039 -31.98646 -80.02158
v 117.3689 -32.93476 -80.46998
v 117.4392 -32.96418 -80.48389
v 118.2291 -33.29491 -80.64027
v 118.3494 -33.34525 -80.66408
v 118.4765 -33.39847 -80.68924
v 118.5039 -33.40992 -80.69466
v 118.5764 -33.4403 -80.70901
v 125.3549 -36.27823 -81.24524
v 119.4269 -33.79638 -80.07172
v 119.9665 -34.02229 -79.66739
v 120.3114 -34.16669 -79.40894
v 120.4141 -34.20967 -79.33203
v 121.1898 -34.53446 -78.75073
v 121.2997 -34.58046 -78.6684
v 121.3905 -34.61847 -78.60037
v 121.4802 -34.65603 -78.53314
v 121.6563 -34.72977 -77.4876
v 122.0509 -34.89497 -75.14501
v 122.0699 -34.90293 -75.03206
v 122.0885 -34.91069 -74.92204
v 122.1037 -34.91708 -74.83144
v 122.1143 -34.92151 -74.76855
v 126.6231 -36.80919 -73.71606
v 122.1143 -34.92151 -74.76855
v 121.0407 -34.47204 -73.08466
v 120.7248 -34.33974 -72.58903
v 120.6925 -34.32624 -72.53844
v 120.6775 -34.31997 -72.51497
v 120.6586 -34.31206 -72.48531
v 120.308 -34.16525 -71.9353
v 120.1073 -34.08121 -71.6205
v 120.822 -34.38047 -70.42034
v 120.1073 -34.08121 -71.6205
v 122.609 -35.12859 -67.41995

vn -0.5003393 0.2094749 -0.8401076
vn -0.5003393 0.2094751 -0.8401076
vn -0.6312132 -0.4412576 -0.6378571
vn -0.3861875 -0.9224204 2.980232E-07
vn -0.3861875 -0.9224204 2.980232E-07
vn 0.1656949 -0.06937067 0.9837343
vn 0.4406956 -0.3378197 0.8316643
vn -0.6338199 0.2653602 0.7265372
vn 0.1656992 -0.06937217 0.9837334
vn 0.1657 -0.06937253 0.9837333
vn 0.1656997 -0.06937236 0.9837333
vn 0.1656988 -0.0693719 0.9837335
vn 0.1656979 -0.06937144 0.9837337
vn 0.1657029 -0.06937419 0.9837326
vn 0.1657005 -0.06937287 0.9837332
vn 0.1657 -0.06937262 0.9837332
vn 0.1657002 -0.0693727 0.9837333
vn 0.1657002 -0.06937273 0.9837332
vn 0.1657 -0.0693726 0.9837332
vn 0.1657003 -0.06937272 0.9837332
vn 0.1656992 -0.06937228 0.9837334
vn 0.1656978 -0.06937164 0.9837337
vn 0.1656997 -0.06937257 0.9837332
vn 0.1657006 -0.0693729 0.9837332
vn 0.02693645 -0.01127687 0.9995737
vn -0.4929987 0.206403 0.8451924
vn -0.5244741 0.2195808 0.8226247
vn -0.5244735 0.2195805 0.822625
vn -0.5244733 0.2195804 0.8226253
vn -0.5244718 0.2195796 0.8226265
vn -0.5244708 0.2195791 0.8226272
vn -0.5244696 0.2195784 0.8226281
vn -0.5244716 0.2195795 0.8226266
vn -0.5244724 0.21958 0.8226258
vn -0.524473 0.2195803 0.8226256
vn -0.524473 0.2195804 0.8226255
vn -0.5244721 0.2195799 0.8226261
vn -0.5244727 0.2195801 0.8226258
vn -0.5244735 0.2195806 0.8226251
vn -0.5732793 0.2400139 0.7834184
vn -0.894506 0.3745008 0.2441485
vn -0.9074153 0.3799054 0.1796369
vn -0.9074155 0.3799055 0.1796358
vn -0.9074156 0.3799056 0.1796352
vn -0.9074156 0.3799056 0.1796351
vn -0.9074154 0.3799055 0.1796356
vn -0.9074154 0.3799053 0.1796361
vn -0.9074155 0.3799055 0.1796357
vn -0.9074155 0.3799054 0.179636
vn -0.9074154 0.3799054 0.1796357
vn -0.9074156 0.3799054 0.1796357
vn -0.9074154 0.3799053 0.1796361
vn -0.9222751 0.3861265 -0.01774668
vn -0.9074116 0.3799037 0.179659
vn -0.7588072 0.3176875 -0.5685827
vn -0.7588064 0.3176872 -0.5685837
vn -0.7588063 0.3176872 -0.5685842
vn -0.7588055 0.317687 -0.5685851
vn -0.7588067 0.3176873 -0.5685835
vn -0.7588078 0.3176874 -0.5685822
vn -0.7588091 0.3176877 -0.5685799
vn -0.7588351 0.3176925 -0.5685427
vn -0.7588189 0.3176896 -0.568566
vn -0.7588026 0.3176864 -0.5685895
vn -0.758805 0.3176869 -0.5685861
vn -0.7588065 0.3176872 -0.5685837
vn -0.7588068 0.3176874 -0.5685832
vn -0.758807 0.3176874 -0.568583
vn -0.7588096 0.3176886 -0.5685788
vn -0.8359422 0.3499815 -0.4227454
vn -0.5003392 0.2094752 -0.8401076
vn -0.5003392 0.2094752 -0.8401076
vn -0.5003392 0.2094752 -0.8401076
vn -0.3861875 -0.9224204 2.980232E-07
vn 0.7588067 -0.3176872 0.5685835
vn -0.3861875 -0.9224204 2.980232E-07
vn -0.7033359 0.2944643 0.6470004
vn -0.6186062 -0.5653548 -0.5456193
vn -0.6009408 -0.6441141 -0.473273
vn -0.526513 0.1434088 -0.8379845
vn -0.5003392 0.2094752 -0.8401076
vn -0.5003392 0.2094752 -0.8401076
vn -0.5003392 0.2094752 -0.8401076
vn -0.5374563 0.1133493 -0.8356391
vn -0.3861875 -0.9224204 2.980232E-07
vn -0.5051939 0.1977796 -0.8400372
vn -0.5003392 0.2094752 -0.8401076
vn -0.5499257 0.07692 -0.8316641
vn -0.5003341 0.2094731 -0.8401113
vn -0.4762443 0.2644791 -0.8385954
vn 0.7588067 -0.3176872 0.5685834
vn -0.5003209 0.2094676 -0.8401205
vn 0.386184 0.9224219 -6.130686E-06
vn 0.3861875 0.9224204 -2.980232E-07
vn 0.3861878 0.9224203 -5.321227E-07
vn 0 0 0
vn 0.7588068 -0.3176873 0.5685834
vn 0.7588068 -0.3176873 0.5685835
vn 0.7588068 -0.3176873 0.5685835
vn 0.3861878 0.9224203 -5.321227E-07
vn 0.3861878 0.9224203 -5.321227E-07
vn -0.7749323 0.3244392 0.5424199
vn -0.7749322 0.3244392 0.5424199
vn -0.7749323 0.3244392 0.5424199
vn -0.7749323 0.3244392 0.5424199
vn -0.7749323 0.3244392 0.5424199
vn -0.7749323 0.3244392 0.5424199
vn -0.7749323 0.3244392 0.5424199
vn -0.7749323 0.3244392 0.5424199
vn -0.7749323 0.3244392 0.5424199
vn -0.3861875 -0.9224204 2.980232E-07
vn -0.3861875 -0.9224204 2.980232E-07
vn -0.3861875 -0.9224204 2.980232E-07
vn -0.3861875 -0.9224204 2.980232E-07
vn -0.3861875 -0.9224204 2.980232E-07
vn -0.3861875 -0.9224204 2.980232E-07
vn -0.3861875 -0.9224204 2.980232E-07
vn -0.3861875 -0.9224204 2.980232E-07
vn -0.3861875 -0.9224204 2.980232E-07
vn -0.3861875 -0.9224204 2.980232E-07
vn -0.3861875 -0.9224204 2.980232E-07
vn -0.3861875 -0.9224204 2.980232E-07
vn -0.3861875 -0.9224204 2.980232E-07
vn -0.3861874 -0.9224204 2.980232E-07
vn -0.3861875 -0.9224204 2.980232E-07
vn -0.3861875 -0.9224204 2.980232E-07
vn -0.3861874 -0.9224204 2.980232E-07
vn -0.3861875 -0.9224204 2.980232E-07
vn -0.3861875 -0.9224204 2.980232E-07
vn -0.3861875 -0.9224204 2.980232E-07
vn -0.3861874 -0.9224204 2.980232E-07
vn -0.3861875 -0.9224204 2.980232E-07
vn -0.3861875 -0.9224204 2.980232E-07
vn -0.3861875 -0.9224204 2.980232E-07
vn -0.3861875 -0.9224204 2.980232E-07
vn -0.3861875 -0.9224204 2.980232E-07
vn -0.3861875 -0.9224204 2.980232E-07
vn -0.3861875 -0.9224204 2.980232E-07
vn -0.3861875 -0.9224204 2.980232E-07
vn -0.3861875 -0.9224204 2.980232E-07
vn -0.3861875 -0.9224204 2.980232E-07
vn -0.3861874 -0.9224204 2.980232E-07
vn -0.3861875 -0.9224204 2.980232E-07
vn -0.3861874 -0.9224204 2.980232E-07
vn -0.3861874 -0.9224204 2.980232E-07
vn -0.3861875 -0.9224204 2.980232E-07
vn -0.3861874 -0.9224204 2.980232E-07
vn -0.3861874 -0.9224204 2.980232E-07
vn -0.1656997 0.06937236 -0.9837334
vn 0.06900574 -0.02889113 -0.9971979
vn 0.315678 -0.1321647 -0.939617
vn -0.1656996 0.06937234 -0.9837332
vn 0.6992165 -0.2927396 -0.6522269
vn 0.8360829 -0.3500409 -0.4224179
vn 0.9074155 -0.3799054 -0.1796355
vn 0.9074156 -0.3799054 -0.1796356
vn -0.1656997 0.06937246 -0.9837333
vn -0.7749323 0.3244392 0.5424199
vn -0.7749323 0.3244392 0.5424199
vn -0.7749323 0.3244392 0.5424199
vn -0.7749323 0.3244392 0.5424199
vn -0.7749323 0.3244392 0.5424199
vn -0.7749323 0.3244392 0.5424199
vn -0.7749323 0.3244392 0.5424199
vn -0.7749322 0.3244392 0.5424199
vn 0.5682619 -0.01805259 0.8226497
vn 0.3861871 0.9224206 -9.1698E-07
vn 0.3861876 0.9224203 -4.150729E-07
vn 0.3861876 0.9224204 -5.185242E-07
vn 0.3861876 0.9224204 -4.150729E-07
vn 0.3861876 0.9224204 -4.150729E-07
vn 0.3861874 0.9224204 -6.229697E-07
vn 0.3861874 0.9224204 -6.229698E-07
vn 0.3861874 0.9224204 -6.229694E-07
vn 0.3861874 0.9224204 -6.229698E-07
vn 0.3861874 0.9224204 -6.229698E-07
vn 0.3861874 0.9224204 -6.229697E-07
vn 0.3861874 0.9224204 -6.229691E-07
vn 0.3861874 0.9224204 -6.229703E-07
vn 0.3861876 0.9224204 -5.702332E-07
vn 0.3861877 0.9224203 -4.635566E-07
vn 0.3861876 0.9224204 -5.697522E-07
vn 0.3861876 0.9224204 -5.697527E-07
vn 0.3861876 0.9224204 -5.697535E-07
vn 0.3861876 0.9224204 -5.69753E-07
vn 0.3861876 0.9224204 -5.69753E-07
vn 0.3861876 0.9224204 -5.697528E-07
vn 0.3861876 0.9224204 -5.697523E-07
vn 0.3861878 0.9224203 -3.786247E-07
vn 0.3861878 0.9224203 -3.573604E-07
vn 0.3861878 0.9224203 -3.573602E-07
vn 0.3861878 0.9224203 -3.573606E-07
vn 0.3861878 0.9224203 -3.573598E-07
vn 0.3861878 0.9224203 -3.573602E-07
vn 0.3861878 0.9224203 -3.573604E-07
vn 0.3861877 0.9224203 -3.310151E-07
vn 0.3861877 0.9224203 -1.102088E-07
vn 0.3861877 0.9224203 -1.102086E-07
vn 0.3861877 0.9224203 -1.102082E-07
vn 0.3861877 0.9224203 -1.102154E-07
vn 0.3861877 0.9224203 -1.102075E-07
vn 0.3861877 0.9224203 -1.10208E-07
vn 0.3861877 0.9224203 -1.102095E-07
vn 0.3861877 0.9224203 -1.102107E-07
vn 0.3861876 0.9224204 -4.150729E-07
vn 0.3861876 0.9224204 -4.150729E-07
vn 0.3861876 0.9224203 -4.150729E-07

f 1//1 2//2 3//3
f 4//4 1//1 3//3
f 3//3 5//5 4//4
f 3//3 6//6 5//5
f 5//5 6//6 7//7
f 8//8 7//7 6//6
f 9//9 8//8 6//6
f 10//10 9//9 6//6
f 9//9 10//10 11//11
f 11//11 10//10 12//12
f 13//13 11//11 12//12
f 13//13 12//12 14//14
f 13//13 14//14 15//15
f 15//15 14//14 16//16
f 15//15 16//16 17//17
f 18//18 17//17 16//16
f 19//19 17//17 18//18
f 19//19 18//18 20//20
f 21//21 19//19 20//20
f 22//22 19//19 21//21
f 22//22 21//21 23//23
f 24//24 22//22 23//23
f 24//24 23//23 25//25
f 26//26 24//24 25//25
f 26//26 25//25 27//27
f 28//28 26//26 27//27
f 28//28 27//27 29//29
f 29//29 27//27 30//30
f 31//31 29//29 30//30
f 31//31 30//30 32//32
f 33//33 31//31 32//32
f 33//33 32//32 34//34
f 35//35 33//33 34//34
f 35//35 34//34 36//36
f 37//37 35//35 36//36
f 37//37 36//36 38//38
f 39//39 37//37 38//38
f 39//39 38//38 40//40
f 41//41 39//39 40//40
f 41//41 40//40 42//42
f 41//41 42//42 43//43
f 43//43 42//42 44//44
f 45//45 43//43 44//44
f 45//45 44//44 46//46
f 47//47 45//45 46//46
f 48//48 45//45 47//47
f 48//48 47//47 49//49
f 50//50 48//48 49//49
f 50//50 49//49 51//51
f 52//52 50//50 51//51
f 52//52 51//51 53//53
f 54//54 52//52 53//53
f 55//55 54//54 53//53
f 55//55 53//53 56//56
f 55//55 56//56 57//57
f 57//57 56//56 58//58
f 57//57 58//58 59//59
f 59//59 58//58 60//60
f 59//59 60//60 61//61
f 61//61 60//60 62//62
f 61//61 62//62 63//63
f 63//63 62//62 64//64
f 63//63 64//64 65//65
f 65//65 64//64 66//66
f 65//65 66//66 67//67
f 68//68 67//67 66//66
f 69//69 67//67 68//68
f 69//69 68//68 70//70
f 71//71 69//69 70//70
f 72//72 71//71 73//73
f 74//74 75//75 76//76
f 77//77 74//74 76//76
f 75//75 77//77 76//76
f 78//78 75//75 74//74
f 79//79 75//75 78//78
f 78//78 74//74 80//80
f 81//81 78//78 80//80
f 82//82 78//78 81//81
f 82//82 83//83 78//78
f 83//83 84//84 79//79
f 84//84 85//85 79//79
f 80//80 74//74 86//86
f 87//87 80//80 86//86
f 81//81 80//80 87//87
f 86//86 74//74 88//88
f 88//88 74//74 77//77
f 86//86 88//88 89//89
f 90//90 86//86 89//89
f 87//87 86//86 90//90
f 75//75 91//91 77//77
f 90//90 89//89 92//92
f 90//90 92//92 93//93
f 94//94 90//90 93//93
f 95//95 83//83 82//82
f 95//95 82//82 81//81
f 95//95 81//81 87//87
f 95//95 87//87 90//90
f 95//95 96//96 83//83
f 97//97 91//91 75//75
f 97//97 98//98 91//91
f 97//97 99//99 98//98
f 100//100 95//95 101//101
f 102//102 103//103 104//104
f 102//102 104//104 105//105
f 102//102 105//105 106//106
f 106//106 105//105 107//107
f 108//108 102//102 106//106
f 109//109 102//102 108//108
f 110//110 108//108 106//106
f 111//111 112//112 113//113
f 111//111 113//113 114//114
f 111//111 114//114 115//115
f 111//111 115//115 116//116
f 111//111 116//116 117//117
f 117//117 118//118 111//111
f 118//118 119//119 111//111
f 120//120 111//111 119//119
f 120//120 121//121 111//111
f 121//121 122//122 111//111
f 111//111 122//122 123//123
f 114//114 113//113 124//124
f 124//124 113//113 125//125
f 125//125 113//113 126//126
f 126//126 113//113 127//127
f 127//127 113//113 128//128
f 128//128 113//113 129//129
f 129//129 113//113 130//130
f 130//130 113//113 131//131
f 131//131 113//113 132//132
f 132//132 113//113 133//133
f 133//133 113//113 134//134
f 133//133 134//134 135//135
f 135//135 134//134 136//136
f 134//134 137//137 136//136
f 137//137 134//134 138//138
f 138//138 134//134 139//139
f 139//139 134//134 140//140
f 140//140 134//134 141//141
f 134//134 142//142 141//141
f 134//134 143//143 142//142
f 134//134 144//144 143//143
f 144//144 134//134 145//145
f 145//145 134//134 146//146
f 147//147 134//134 148//148
f 149//149 150//150 151//151
f 149//149 152//152 150//150
f 151//151 150//150 153//153
f 151//151 153//153 154//154
f 154//154 153//153 155//155
f 154//154 155//155 156//156
f 152//152 157//157 150//150
f 158//158 159//159 160//160
f 161//161 159//159 158//158
f 162//162 159//159 161//161
f 163//163 162//162 161//161
f 164//164 162//162 163//163
f 165//165 162//162 164//164
f 9//9 166//166 8//8
f 166//166 9//9 167//167
f 168//168 169//169 170//170
f 168//168 171//171 169//169
f 172//172 169//169 173//173
f 174//174 169//169 172//172
f 169//169 174//174 175//175
f 176//176 169//169 175//175
f 177//177 169//169 176//176
f 178//178 169//169 177//177
f 178//178 179//179 169//169
f 179//179 180//180 169//169
f 180//180 181//181 169//169
f 182//182 181//181 180//180
f 182//182 183//183 181//181
f 183//183 184//184 181//181
f 184//184 185//185 181//181
f 185//185 186//186 181//181
f 186//186 187//187 181//181
f 187//187 188//188 181//181
f 188//188 189//189 181//181
f 181//181 189//189 190//190
f 181//181 190//190 191//191
f 192//192 181//181 191//191
f 193//193 181//181 192//192
f 194//194 181//181 193//193
f 195//195 181//181 194//194
f 195//195 196//196 181//181
f 196//196 197//197 198//198
f 196//196 198//198 199//199
f 199//199 200//200 196//196
f 196//196 200//200 201//201
f 201//201 202//202 196//196
f 196//196 202//202 203//203
f 196//196 203//203 204//204
f 205//205 196//196 206//206
f 207//207 196//196 205//205
