v 70.03093 124.5053 8.707747
v 61.86052 127.9259 -5.624111
v 70.03093 124.5053 8.707747
v 70.03092 124.5053 8.707747
v 67.19185 125.5878 10.58465
v 66.05621 126.0209 11.33542
v 66.05621 126.0209 11.33542
v 57.8858 129.4415 -2.996439
v 49.71539 132.8622 -17.3283
v 66.06425 126.2617 11.38831
v 49.78775 135.0296 -16.85223
v 66.06525 126.2916 11.39489
v 49.79674 135.299 -16.79308
v 66.06553 126.3 11.39673
v 49.79926 135.3746 -16.77647
v 66.06868 126.3944 11.41747
v 49.82763 136.2244 -16.58981
v 66.10754 127.5586 11.67318
v 49.83195 136.3538 -16.56139
v 66.14439 128.6624 11.91563
v 66.14864 128.7894 11.94352
v 49.83651 136.4905 -16.53135
v 66.15748 129.0543 12.00169
v 49.83749 136.5199 -16.52489
v 66.18092 129.7566 12.15596
v 49.8401 136.598 -16.50775
v 66.05982 129.8861 12.25592
v 49.17327 137.3112 -15.95736
v 48.75021 137.7638 -15.60817
v 66.02978 129.9183 12.28072
v 48.4798 138.053 -15.38498
v 66.02084 129.9278 12.2881
v 48.39932 138.1391 -15.31855
v 65.95325 130.0001 12.34388
v 47.79109 138.7897 -14.81653
v 65.17792 130.8295 12.98383
v 47.70494 138.8818 -14.74542
v 64.53737 131.5146 13.51253
v 47.63377 138.958 -14.68668
v 63.90424 132.1918 14.0351
v 47.56342 139.0332 -14.62861
v 63.80104 132.1828 14.09179
v 46.63458 138.9521 -14.11844
v 63.5698 132.1626 14.2188
v 44.55345 138.7706 -12.97535
v 62.92468 132.1063 14.57313
v 62.66669 132.0838 14.71484
v 44.4531 138.7618 -12.92024
v 61.78698 132.0071 15.19803
v 44.35536 138.7533 -12.86655
v 61.06263 131.9439 15.59588
v 44.27487 138.7462 -12.82234
v 60.55983 131.9 15.87206
v 44.21901 138.7414 -12.79166
v 44.21901 138.7414 -12.79166
v 60.41403 131.7307 15.91477
v 42.90688 137.218 -12.40722
v 60.37112 131.6809 15.92734
v 42.52067 136.7696 -12.29407
v 60.36674 131.6758 15.92863
v 42.48124 136.7238 -12.28252
v 60.36471 131.6734 15.92922
v 42.46296 136.7026 -12.27716
v 60.36214 131.6705 15.92997
v 42.43985 136.6758 -12.27039
v 60.31452 131.6152 15.94393
v 42.01127 136.1782 -12.14482
v 58.10679 129.052 16.59076
v 41.76596 135.8934 -12.07295
v 58.10678 129.052 16.59076
v 41.76596 135.8934 -12.07295
v 58.10678 129.052 16.59076
v 58.10678 129.052 16.59076
v 56.97115 129.4851 17.34153
v 54.13207 130.5676 19.21844
v 54.13207 130.5676 19.21844
v 54.13207 130.5676 19.21844
v 58.10678 129.052 16.59076
v 58.10678 129.052 16.59076
v 58.10678 129.052 16.59076
v 41.76596 135.8934 -12.07295
v 41.76596 135.8934 -12.07295
v 41.76596 135.8934 -12.07295
v 58.10678 129.052 16.59076
v 59.03815 136.2635 17.78102
v 58.10678 129.052 16.59076
v 41.76596 135.8934 -12.07295
v 58.10678 129.052 16.59076
v 49.93637 132.4727 2.258906
v 41.76596 135.8934 -12.07295
v 45.96166 133.9883 4.886578
v 41.76597 135.8934 -12.07294
v 41.76596 135.8934 -12.07295
v 40.63033 136.3265 -11.32219
v 42.69733 143.1049 -10.88269
v 41.76596 135.8934 -12.07295
v 59.03815 136.2635 17.78102
v 37.79125 137.409 -9.445278
v 42.69733 143.1049 -10.88269
v 44.21901 138.7414 -12.79166
v 44.21901 138.7414 -12.79166
v 61.86052 127.9259 -5.624111
v 70.03093 124.5053 8.707747
v 70.03092 124.5053 8.707747
v 67.19185 125.5878 10.58465
v 57.8858 129.4415 -2.996439
v 66.05621 126.0209 11.33542
v 51.36177 132.2345 -18.41671
v 53.69011 131.3466 -19.95597
v 49.71539 132.8622 -17.3283
v 70.03093 124.5053 8.707747
v 70.28034 131.9768 10.34884
v 65.72698 136.8472 14.10711
v 66.18092 129.7566 12.15596
v 66.15748 129.0543 12.00169
v 66.14864 128.7894 11.94352
v 66.14439 128.6624 11.91563
v 66.10754 127.5586 11.67318
v 66.06868 126.3944 11.41747
v 66.06553 126.3 11.39673
v 66.06525 126.2916 11.39489
v 66.06425 126.2617 11.38831
v 66.05621 126.0209 11.33542
v 66.05982 129.8861 12.25592
v 66.02978 129.9183 12.28072
v 66.02084 129.9278 12.2881
v 65.95325 130.0001 12.34388
v 65.17792 130.8295 12.98383
v 64.53737 131.5146 13.51253
v 63.90424 132.1918 14.0351
v 63.80104 132.1828 14.09179
v 63.5698 132.1626 14.2188
v 62.92468 132.1063 14.57313
v 59.03815 136.2635 17.78102
v 62.66669 132.0838 14.71484
v 61.78698 132.0071 15.19803
v 61.06263 131.9439 15.59588
v 60.55983 131.9 15.87206
v 60.41403 131.7307 15.91477
v 60.37112 131.6809 15.92734
v 60.36674 131.6758 15.92863
v 60.36471 131.6734 15.92922
v 60.36214 131.6705 15.92997
v 60.31452 131.6152 15.94393
v 58.10679 129.052 16.59076
v 58.10678 129.052 16.59076
v 58.10678 129.052 16.59076
v 54.13207 130.5676 19.21844
v 70.03093 124.5053 8.707747
v 53.93953 138.8181 -18.31487
v 70.28034 131.9768 10.34884
v 61.86052 127.9259 -5.624111
v 49.38617 143.6886 -14.5566
v 65.72698 136.8472 14.10711
v 42.69733 143.1049 -10.88269
v 59.03815 136.2635 17.78102
v 53.69011 131.3466 -19.95597
v 54.13207 130.5676 19.21844
v 49.93637 132.4727 2.258906
v 58.10678 129.052 16.59076
v 45.96166 133.9883 4.886578
v 41.76597 135.8934 -12.07294
v 37.79125 137.409 -9.445278
v 40.63033 136.3265 -11.32219
v 41.76596 135.8934 -12.07295
v 49.71539 132.8622 -17.3283
v 53.93953 138.8181 -18.31487
v 51.36177 132.2345 -18.41671
v 53.93953 138.8181 -18.31487
v 53.69011 131.3466 -19.95597
v 49.71539 132.8622 -17.3283
v 49.78775 135.0296 -16.85223
v 49.71539 132.8622 -17.3283
v 49.79674 135.299 -16.79308
v 49.79926 135.3746 -16.77647
v 49.82763 136.2244 -16.58981
v 49.83195 136.3538 -16.56139
v 49.83651 136.4905 -16.53135
v 49.83749 136.5199 -16.52489
v 49.8401 136.598 -16.50775
v 49.38617 143.6886 -14.5566
v 49.17327 137.3112 -15.95736
v 48.75021 137.7638 -15.60817
v 48.4798 138.053 -15.38498
v 48.39932 138.1391 -15.31855
v 47.79109 138.7897 -14.81653
v 47.70494 138.8818 -14.74542
v 47.63377 138.958 -14.68668
v 47.56342 139.0332 -14.62861
v 46.63458 138.9521 -14.11844
v 44.55345 138.7706 -12.97535
v 44.4531 138.7618 -12.92024
v 44.35536 138.7533 -12.86655
v 44.27487 138.7462 -12.82234
v 44.21901 138.7414 -12.79166
v 42.69733 143.1049 -10.88269
v 44.21901 138.7414 -12.79166
v 42.90688 137.218 -12.40722
v 42.52067 136.7696 -12.29407
v 42.48124 136.7238 -12.28252
v 42.46296 136.7026 -12.27716
v 42.43985 136.6758 -12.27039
v 42.01127 136.1782 -12.14482
v 41.76596 135.8934 -12.07295
v 40.63033 136.3265 -11.32219
v 41.76596 135.8934 -12.07295
v 37.79125 137.409 -9.445278

vn 0.7949424 -0.3031192 -0.5255337
vn 0.7949423 -0.3031192 -0.5255339
vn 0.9191633 -0.3622761 0.1545808
vn 0.4849453 -0.2030312 0.8506506
vn 0.4849453 -0.2030312 0.8506506
vn -0.8739375 -0.07626557 0.4800178
vn -0.7183713 0.2713598 0.6405522
vn -0.543028 -0.8323583 0.110908
vn -0.8739375 -0.07626099 0.4800186
vn -0.8739375 -0.07626018 0.4800188
vn -0.8739375 -0.0762605 0.4800187
vn -0.8739377 -0.07626148 0.4800184
vn -0.8739377 -0.0762625 0.4800181
vn -0.8739372 -0.07625697 0.4800199
vn -0.8739374 -0.07625962 0.480019
vn -0.8739374 -0.07626013 0.4800189
vn -0.8739375 -0.07625999 0.480019
vn -0.8739374 -0.0762599 0.4800189
vn -0.8739374 -0.07626019 0.4800189
vn -0.8739375 -0.07625985 0.4800189
vn -0.8739375 -0.07626099 0.4800187
vn -0.8739375 -0.07626252 0.4800183
vn -0.8739374 -0.0762604 0.4800188
vn -0.8739374 -0.07625955 0.4800191
vn -0.8688544 -0.2226302 0.4421859
vn -0.6648058 -0.7175516 0.2077337
vn -0.6410087 -0.7442023 0.1878064
vn -0.6410092 -0.7442017 0.1878068
vn -0.6410094 -0.7442015 0.187807
vn -0.6410106 -0.7442003 0.1878082
vn -0.6410112 -0.7441995 0.1878088
vn -0.6410121 -0.7441984 0.1878099
vn -0.6410106 -0.7442002 0.1878082
vn -0.6410099 -0.7442008 0.1878075
vn -0.6410097 -0.7442013 0.1878072
vn -0.6410096 -0.7442012 0.1878071
vn -0.6410102 -0.7442005 0.1878077
vn -0.6410099 -0.744201 0.1878074
vn -0.6410092 -0.7442017 0.1878068
vn -0.6004626 -0.7844713 0.1550802
vn -0.09017704 -0.9791028 -0.1822811
vn -0.0325889 -0.9761984 -0.2144181
vn -0.03258798 -0.9761983 -0.2144186
vn -0.03258739 -0.9761983 -0.214419
vn -0.03258738 -0.9761982 -0.214419
vn -0.03258775 -0.9761982 -0.2144187
vn -0.03258818 -0.9761983 -0.2144184
vn -0.03258781 -0.9761983 -0.2144187
vn -0.03258813 -0.9761984 -0.2144185
vn -0.03258782 -0.9761983 -0.2144186
vn -0.03258784 -0.9761984 -0.2144186
vn -0.03258821 -0.9761983 -0.2144184
vn 0.1402741 -0.9420272 -0.304809
vn -0.03260855 -0.9762001 -0.2144072
vn 0.594924 -0.6363523 -0.4910414
vn 0.5949247 -0.6363513 -0.4910416
vn 0.594925 -0.636351 -0.4910418
vn 0.5949257 -0.63635 -0.4910421
vn 0.5949245 -0.6363516 -0.4910415
vn 0.5949237 -0.636353 -0.491041
vn 0.5949219 -0.636355 -0.4910402
vn 0.5948957 -0.6363898 -0.4910269
vn 0.5949122 -0.636368 -0.4910353
vn 0.5949289 -0.6363461 -0.4910436
vn 0.5949264 -0.6363493 -0.4910425
vn 0.5949247 -0.6363514 -0.4910416
vn 0.5949243 -0.6363519 -0.4910415
vn 0.5949242 -0.6363521 -0.4910414
vn 0.5949209 -0.6363558 -0.4910406
vn 0.4791379 -0.7520257 -0.4526419
vn 0.7949423 -0.3031192 -0.525534
vn 0.7949423 -0.3031192 -0.525534
vn 0.7949423 -0.3031192 -0.525534
vn 0.4849453 -0.2030312 0.8506506
vn -0.5949246 0.6363516 0.4910414
vn 0.4849453 -0.2030312 0.8506506
vn -0.4647677 -0.8837836 0.05401879
vn 0.8850349 -0.3512483 0.3055128
vn 0.8485006 -0.33851 0.4067653
vn 0.8273882 -0.3167783 -0.463768
vn 0.7949423 -0.3031192 -0.525534
vn 0.7949423 -0.3031192 -0.525534
vn 0.7949423 -0.3031192 -0.525534
vn 0.8406647 -0.3224196 -0.4351195
vn 0.4849453 -0.2030312 0.8506506
vn 0.8010174 -0.3056712 -0.51472
vn 0.7949423 -0.3031192 -0.525534
vn 0.8555343 -0.3287856 -0.399952
vn 0.7949446 -0.303113 -0.5255339
vn 0.7643934 -0.2903761 -0.5756604
vn -0.5949245 0.6363516 0.4910415
vn 0.7949509 -0.3030971 -0.5255337
vn -0.4849398 0.2030291 -0.8506542
vn -0.4849453 0.2030312 -0.8506506
vn -0.4849451 0.2030316 -0.8506506
vn 0 0 0
vn -0.5949246 0.6363517 0.4910415
vn -0.5949245 0.6363516 0.4910415
vn -0.5949246 0.6363517 0.4910415
vn -0.4849451 0.2030316 -0.8506506
vn -0.4849451 0.2030316 -0.8506506
vn -0.3645483 -0.9310733 -0.01440193
vn -0.3645483 -0.9310732 -0.01440193
vn -0.3645483 -0.9310733 -0.01440193
vn -0.3645483 -0.9310733 -0.01440193
vn -0.3645483 -0.9310733 -0.01440193
vn -0.3645483 -0.9310733 -0.01440193
vn -0.3645483 -0.9310733 -0.01440193
vn -0.3645483 -0.9310733 -0.01440193
vn -0.3645483 -0.9310733 -0.01440193
vn 0.4849453 -0.2030312 0.8506506
vn 0.4849453 -0.2030312 0.8506506
vn 0.4849453 -0.2030312 0.8506506
vn 0.4849453 -0.2030312 0.8506506
vn 0.4849453 -0.2030312 0.8506506
vn 0.4849453 -0.2030312 0.8506506
vn 0.4849453 -0.2030312 0.8506506
vn 0.4849453 -0.2030312 0.8506506
vn 0.4849453 -0.2030312 0.8506506
vn 0.4849453 -0.2030312 0.8506506
vn 0.4849453 -0.2030312 0.8506506
vn 0.4849453 -0.2030312 0.8506506
vn 0.4849453 -0.2030312 0.8506506
vn 0.4849452 -0.2030312 0.8506505
vn 0.4849453 -0.2030312 0.8506506
vn 0.4849453 -0.2030312 0.8506506
vn 0.4849452 -0.2030312 0.8506505
vn 0.4849453 -0.2030312 0.8506506
vn 0.4849453 -0.2030312 0.8506506
vn 0.4849453 -0.2030312 0.8506506
vn 0.4849452 -0.2030312 0.8506505
vn 0.4849453 -0.2030312 0.8506506
vn 0.4849453 -0.2030312 0.8506506
vn 0.4849453 -0.2030312 0.8506506
vn 0.4849453 -0.2030312 0.8506506
vn 0.4849453 -0.2030312 0.8506506
vn 0.4849453 -0.2030312 0.8506506
vn 0.4849453 -0.2030312 0.8506506
vn 0.4849453 -0.2030312 0.8506506
vn 0.4849453 -0.2030312 0.8506506
vn 0.4849453 -0.2030312 0.8506506
vn 0.4849452 -0.2030312 0.8506505
vn 0.4849453 -0.2030312 0.8506506
vn 0.4849452 -0.2030312 0.8506505
vn 0.4849452 -0.2030312 0.8506505
vn 0.4849453 -0.2030312 0.8506506
vn 0.4849452 -0.2030312 0.8506505
vn 0.4849452 -0.2030312 0.8506505
vn 0.8739376 0.07626054 -0.4800187
vn 0.8538036 0.3204946 -0.4102475
vn 0.7705537 0.559221 -0.3058092
vn 0.8739374 0.07626057 -0.4800186
vn 0.4698496 0.8808647 -0.05761258
vn 0.2523953 0.9637821 0.08614574
vn 0.03258768 0.9761983 0.2144187
vn 0.0325877 0.9761983 0.2144187
vn 0.8739375 0.07626046 -0.4800188
vn -0.3645483 -0.9310733 -0.01440193
vn -0.3645483 -0.9310733 -0.01440193
vn -0.3645483 -0.9310733 -0.01440193
vn -0.3645483 -0.9310733 -0.01440193
vn -0.3645483 -0.9310733 -0.01440193
vn -0.3645483 -0.9310733 -0.01440193
vn -0.3645483 -0.9310733 -0.01440194
vn -0.3645483 -0.9310732 -0.01440194
vn -0.8767713 0.3379955 0.3420986
vn -0.4849447 0.203031 -0.850651
vn -0.4849452 0.2030314 -0.8506505
vn -0.4849451 0.2030314 -0.8506507
vn -0.4849452 0.2030314 -0.8506506
vn -0.4849452 0.2030314 -0.8506506
vn -0.484945 0.2030312 -0.8506508
vn -0.484945 0.2030312 -0.8506508
vn -0.484945 0.2030312 -0.8506508
vn -0.484945 0.2030312 -0.8506508
vn -0.484945 0.2030312 -0.8506508
vn -0.484945 0.2030312 -0.8506507
vn -0.484945 0.2030312 -0.8506508
vn -0.484945 0.2030312 -0.8506507
vn -0.4849451 0.2030314 -0.8506507
vn -0.4849452 0.2030315 -0.8506506
vn -0.4849451 0.2030314 -0.8506507
vn -0.4849451 0.2030314 -0.8506507
vn -0.4849451 0.2030314 -0.8506507
vn -0.4849451 0.2030314 -0.8506507
vn -0.4849451 0.2030314 -0.8506507
vn -0.4849451 0.2030314 -0.8506507
vn -0.4849451 0.2030314 -0.8506507
vn -0.4849452 0.2030315 -0.8506505
vn -0.4849453 0.2030315 -0.8506505
vn -0.4849453 0.2030315 -0.8506505
vn -0.4849453 0.2030315 -0.8506505
vn -0.4849453 0.2030315 -0.8506505
vn -0.4849453 0.2030315 -0.8506505
vn -0.4849453 0.2030315 -0.8506505
vn -0.4849453 0.2030314 -0.8506505
vn -0.4849455 0.2030314 -0.8506504
vn -0.4849455 0.2030314 -0.8506504
vn -0.4849455 0.2030314 -0.8506504
vn -0.4849455 0.2030314 -0.8506504
vn -0.4849455 0.2030314 -0.8506504
vn -0.4849455 0.2030314 -0.8506504
vn -0.4849455 0.2030314 -0.8506504
vn -0.4849454 0.2030314 -0.8506504
vn -0.4849452 0.2030314 -0.8506506
vn -0.4849452 0.2030314 -0.8506506
vn -0.4849452 0.2030314 -0.8506505

f 1//1 2//2 3//3
f 4//4 1//1 3//3
f 3//3 5//5 4//4
f 3//3 6//6 5//5
f 5//5 6//6 7//7
f 8//8 7//7 6//6
f 9//9 8//8 6//6
f 10//10 9//9 6//6
f 9//9 10//10 11//11
f 11//11 10//10 12//12
f 13//13 11//11 12//12
f 13//13 12//12 14//14
f 13//13 14//14 15//15
f 15//15 14//14 16//16
f 15//15 16//16 17//17
f 18//18 17//17 16//16
f 19//19 17//17 18//18
f 19//19 18//18 20//20
f 21//21 19//19 20//20
f 22//22 19//19 21//21
f 22//22 21//21 23//23
f 24//24 22//22 23//23
f 24//24 23//23 25//25
f 26//26 24//24 25//25
f 26//26 25//25 27//27
f 28//28 26//26 27//27
f 28//28 27//27 29//29
f 29//29 27//27 30//30
f 31//31 29//29 30//30
f 31//31 30//30 32//32
f 33//33 31//31 32//32
f 33//33 32//32 34//34
f 35//35 33//33 34//34
f 35//35 34//34 36//36
f 37//37 35//35 36//36
f 37//37 36//36 38//38
f 39//39 37//37 38//38
f 39//39 38//38 40//40
f 41//41 39//39 40//40
f 41//41 40//40 42//42
f 41//41 42//42 43//43
f 43//43 42//42 44//44
f 45//45 43//43 44//44
f 45//45 44//44 46//46
f 47//47 45//45 46//46
f 48//48 45//45 47//47
f 48//48 47//47 49//49
f 50//50 48//48 49//49
f 50//50 49//49 51//51
f 52//52 50//50 51//51
f 52//52 51//51 53//53
f 54//54 52//52 53//53
f 55//55 54//54 53//53
f 55//55 53//53 56//56
f 55//55 56//56 57//57
f 57//57 56//56 58//58
f 57//57 58//58 59//59
f 59//59 58//58 60//60
f 59//59 60//60 61//61
f 61//61 60//60 62//62
f 61//61 62//62 63//63
f 63//63 62//62 64//64
f 63//63 64//64 65//65
f 65//65 64//64 66//66
f 65//65 66//66 67//67
f 68//68 67//67 66//66
f 69//69 67//67 68//68
f 69//69 68//68 70//70
f 71//71 69//69 70//70
f 72//72 71//71 73//73
f 74//74 75//75 76//76
f 77//77 74//74 76//76
f 75//75 77//77 76//76
f 78//78 75//75 74//74
f 79//79 75//75 78//78
f 78//78 74//74 80//80
f 81//81 78//78 80//80
f 82//82 78//78 81//81
f 82//82 83//83 78//78
f 83//83 84//84 79//79
f 84//84 85//85 79//79
f 80//80 74//74 86//86
f 87//87 80//80 86//86
f 81//81 80//80 87//87
f 86//86 74//74 88//88
f 88//88 74//74 77//77
f 86//86 88//88 89//89
f 90//90 86//86 89//89
f 87//87 86//86 90//90
f 75//75 91//91 77//77
f 90//90 89//89 92//92
f 90//90 92//92 93//93
f 94//94 90//90 93//93
f 95//95 83//83 82//82
f 95//95 82//82 81//81
f 95//95 81//81 87//87
f 95//95 87//87 90//90
f 95//95 96//96 83//83
f 97//97 91//91 75//75
f 97//97 98//98 91//91
f 97//97 99//99 98//98
f 100//100 95//95 101//101
f 102//102 103//103 104//104
f 102//102 104//104 105//105
f 102//102 105//105 106//106
f 106//106 105//105 107//107
f 108//108 102//102 106//106
f 109//109 102//102 108//108
f 110//110 108//108 106//106
f 111//111 112//112 113//113
f 111//111 113//113 114//114
f 111//111 114//114 115//115
f 111//111 115//115 116//116
f 111//111 116//116 117//117
f 117//117 118//118 111//111
f 118//118 119//119 111//111
f 120//120 111//111 119//119
f 120//120 121//121 111//111
f 121//121 122//122 111//111
f 111//111 122//122 123//123
f 114//114 113//113 124//124
f 124//124 113//113 125//125
f 125//125 113//113 126//126
f 126//126 113//113 127//127
f 127//127 113//113 128//128
f 128//128 113//113 129//129
f 129//129 113//113 130//130
f 130//130 113//113 131//131
f 131//131 113//113 132//132
f 132//132 113//113 133//133
f 133//133 113//113 134//134
f 133//133 134//134 135//135
f 135//135 134//134 136//136
f 134//134 137//137 136//136
f 137//137 134//134 138//138
f 138//138 134//134 139//139
f 139//139 134//134 140//140
f 140//140 134//134 141//141
f 134//134 142//142 141//141
f 134//134 143//143 142//142
f 134//134 144//144 143//143
f 144//144 134//134 145//145
f 145//145 134//134 146//146
f 147//147 134//134 148//148
f 149//149 150//150 151//151
f 149//149 152//152 150//150
f 151//151 150//150 153//153
f 151//151 153//153 154//154
f 154//154 153//153 155//155
f 154//154 155//155 156//156
f 152//152 157//157 150//150
f 158//158 159//159 160//160
f 161//161 159//159 158//158
f 162//162 159//159 161//161
f 163//163 162//162 161//161
f 164//164 162//162 163//163
f 165//165 162//162 164//164
f 9//9 166//166 8//8
f 166//166 9//9 167//167
f 168//168 169//169 170//170
f 168//168 171//171 169//169
f 172//172 169//169 173//173
f 174//174 169//169 172//172
f 169//169 174//174 175//175
f 176//176 169//169 175//175
f 177//177 169//169 176//176
f 178//178 169//169 177//177
f 178//178 179//179 169//169
f 179//179 180//180 169//169
f 180//180 181//181 169//169
f 182//182 181//181 180//180
f 182//182 183//183 181//181
f 183//183 184//184 181//181
f 184//184 185//185 181//181
f 185//185 186//186 181//181
f 186//186 187//187 181//181
f 187//187 188//188 181//181
f 188//188 189//189 181//181
f 181//181 189//189 190//190
f 181//181 190//190 191//191
f 192//192 181//181 191//191
f 193//193 181//181 192//192
f 194//194 181//181 193//193
f 195//195 181//181 194//194
f 195//195 196//196 181//181
f 196//196 197//197 198//198
f 196//196 198//198 199//199
f 199//199 200//200 196//196
f 196//196 200//200 201//201
f 201//201 202//202 196//196
f 196//196 202//202 203//203
f 196//196 203//203 204//204
f 205//205 196//196 206//206
f 207//207 196//196 205//205
