v 31.42423 109.7252 85.8561
v 40.66727 94.5126 96.85739
v 31.42423 109.7252 85.8561
v 31.42423 109.7252 85.8561
v 34.38011 110.0967 83.88637
v 35.56246 110.2453 83.09847
v 35.56246 110.2453 83.09847
v 44.80551 95.03271 94.09976
v 54.04856 79.82013 105.1011
v 35.71951 110.4098 83.19401
v 55.46203 81.30076 105.9609
v 35.73903 110.4303 83.20588
v 55.63767 81.48474 106.0677
v 35.74451 110.436 83.20921
v 55.68699 81.5364 106.0977
v 35.80609 110.5005 83.24667
v 56.2412 82.11695 106.4349
v 36.56532 111.2958 83.70853
v 56.32556 82.20531 106.4862
v 37.28516 112.0499 84.14642
v 37.36798 112.1366 84.1968
v 56.41475 82.29874 106.5405
v 37.5407 112.3175 84.30187
v 56.43394 82.31884 106.5521
v 37.99873 112.7973 84.58051
v 56.48483 82.37215 106.5831
v 38.18135 112.8698 84.52724
v 57.49041 82.771 106.2898
v 58.1284 83.02405 106.1037
v 38.22666 112.8877 84.51402
v 58.53619 83.1858 105.9847
v 38.24015 112.8931 84.51008
v 58.65755 83.23393 105.9493
v 38.34206 112.9335 84.48035
v 59.57477 83.59774 105.6817
v 39.51128 113.3973 84.13928
v 59.70468 83.64927 105.6438
v 40.47723 113.7804 83.85751
v 59.81201 83.69184 105.6125
v 41.43199 114.1591 83.57899
v 59.91809 83.73392 105.5816
v 41.50665 114.1398 83.48956
v 60.58994 83.56001 104.7766
v 41.6739 114.0965 83.28916
v 62.09527 83.17033 102.973
v 42.14053 113.9757 82.73009
v 42.32714 113.9274 82.5065
v 62.16785 83.15155 102.8861
v 42.96346 113.7627 81.74412
v 62.23856 83.13325 102.8014
v 43.48739 113.627 81.11637
v 62.29677 83.11818 102.7316
v 43.85108 113.5329 80.68063
v 62.33718 83.10772 102.6832
v 62.33718 83.10772 102.6832
v 43.85036 113.3993 80.49654
v 62.33068 81.90562 101.0264
v 43.85015 113.36 80.44235
v 62.32877 81.5518 100.5387
v 43.85012 113.356 80.43682
v 62.32857 81.51567 100.489
v 43.85011 113.3541 80.43426
v 62.32848 81.49892 100.4659
v 43.85011 113.3518 80.43102
v 62.32837 81.47775 100.4367
v 43.84987 113.3082 80.37088
v 62.32624 81.08511 99.89554
v 43.83893 111.2856 77.58321
v 62.32503 80.86037 99.58579
v 43.83893 111.2856 77.58321
v 62.32503 80.86037 99.58579
v 43.83893 111.2856 77.58321
v 43.83893 111.2856 77.58321
v 45.02128 111.4342 76.79532
v 47.97716 111.8057 74.82558
v 47.97716 111.8057 74.82558
v 47.97716 111.8057 74.82558
v 43.83893 111.2856 77.58321
v 43.83893 111.2856 77.58321
v 43.83893 111.2856 77.58321
v 62.32503 80.86037 99.58579
v 62.32503 80.86037 99.58579
v 62.32503 80.86037 99.58579
v 43.83893 111.2856 77.58321
v 48.00147 116.3004 81.02041
v 43.83893 111.2856 77.58321
v 62.32503 80.86037 99.58579
v 43.83893 111.2856 77.58321
v 53.08198 96.07296 88.5845
v 62.32503 80.86037 99.58579
v 57.22021 96.59309 85.82687
v 62.32502 80.86039 99.58578
v 62.32503 80.86037 99.58579
v 63.50738 81.00898 98.7979
v 66.48756 85.87518 103.023
v 62.32503 80.86037 99.58579
v 48.00147 116.3004 81.02041
v 66.46326 81.38049 96.82816
v 66.48756 85.87518 103.023
v 62.33718 83.10772 102.6832
v 62.33718 83.10772 102.6832
v 40.66727 94.5126 96.85739
v 31.42423 109.7252 85.8561
v 31.42423 109.7252 85.8561
v 34.38011 110.0967 83.88637
v 44.80551 95.03271 94.09976
v 35.56246 110.2453 83.09847
v 52.33445 79.60469 106.2433
v 49.91032 79.3 107.8587
v 54.04856 79.82013 105.1011
v 31.42423 109.7252 85.8561
v 36.29678 114.8292 88.82017
v 43.16329 117.5528 86.81715
v 37.99873 112.7973 84.58051
v 37.5407 112.3175 84.30187
v 37.36798 112.1366 84.1968
v 37.28516 112.0499 84.14642
v 36.56532 111.2958 83.70853
v 35.80609 110.5005 83.24667
v 35.74451 110.436 83.20921
v 35.73903 110.4303 83.20588
v 35.71951 110.4098 83.19401
v 35.56246 110.2453 83.09847
v 38.18135 112.8698 84.52724
v 38.22666 112.8877 84.51402
v 38.24015 112.8931 84.51008
v 38.34206 112.9335 84.48035
v 39.51128 113.3973 84.13928
v 40.47723 113.7804 83.85751
v 41.43199 114.1591 83.57899
v 41.50665 114.1398 83.48956
v 41.6739 114.0965 83.28916
v 42.14053 113.9757 82.73009
v 48.00147 116.3004 81.02041
v 42.32714 113.9274 82.5065
v 42.96346 113.7627 81.74412
v 43.48739 113.627 81.11637
v 43.85108 113.5329 80.68063
v 43.85036 113.3993 80.49654
v 43.85015 113.36 80.44235
v 43.85012 113.356 80.43682
v 43.85011 113.3541 80.43426
v 43.85011 113.3518 80.43102
v 43.84987 113.3082 80.37088
v 43.83893 111.2856 77.58321
v 43.83893 111.2856 77.58321
v 43.83893 111.2856 77.58321
v 47.97716 111.8057 74.82558
v 31.42423 109.7252 85.8561
v 54.78287 84.40405 110.8228
v 36.29678 114.8292 88.82017
v 40.66727 94.5126 96.85739
v 61.64939 87.12758 108.8197
v 43.16329 117.5528 86.81715
v 66.48756 85.87518 103.023
v 48.00147 116.3004 81.02041
v 49.91032 79.3 107.8587
v 47.97716 111.8057 74.82558
v 53.08198 96.07296 88.5845
v 43.83893 111.2856 77.58321
v 57.22021 96.59309 85.82687
v 62.32502 80.86039 99.58578
v 66.46326 81.38049 96.82816
v 63.50738 81.00898 98.7979
v 62.32503 80.86037 99.58579
v 54.04856 79.82013 105.1011
v 54.78287 84.40405 110.8228
v 52.33445 79.60469 106.2433
v 54.78287 84.40405 110.8228
v 49.91032 79.3 107.8587
v 54.04856 79.82013 105.1011
v 55.46203 81.30076 105.9609
v 54.04856 79.82013 105.1011
v 55.63767 81.48474 106.0677
v 55.68699 81.5364 106.0977
v 56.2412 82.11695 106.4349
v 56.32556 82.20531 106.4862
v 56.41475 82.29874 106.5405
v 56.43394 82.31884 106.5521
v 56.48483 82.37215 106.5831
v 61.64939 87.12758 108.8197
v 57.49041 82.771 106.2898
v 58.1284 83.02405 106.1037
v 58.53619 83.1858 105.9847
v 58.65755 83.23393 105.9493
v 59.57477 83.59774 105.6817
v 59.70468 83.64927 105.6438
v 59.81201 83.69184 105.6125
v 59.91809 83.73392 105.5816
v 60.58994 83.56001 104.7766
v 62.09527 83.17033 102.973
v 62.16785 83.15155 102.8861
v 62.23856 83.13325 102.8014
v 62.29677 83.11818 102.7316
v 62.33718 83.10772 102.6832
v 66.48756 85.87518 103.023
v 62.33718 83.10772 102.6832
v 62.33068 81.90562 101.0264
v 62.32877 81.5518 100.5387
v 62.32857 81.51567 100.489
v 62.32848 81.49892 100.4659
v 62.32837 81.47775 100.4367
v 62.32624 81.08511 99.89554
v 62.32503 80.86037 99.58579
v 63.50738 81.00898 98.7979
v 62.32503 80.86037 99.58579
v 66.46326 81.38049 96.82816

vn -0.8276465 -0.1040241 0.5515254
vn -0.8276464 -0.1040242 0.5515255
vn -0.9158555 0.3941316 0.07660846
vn -0.4417079 0.7269809 -0.5257308
vn -0.4417079 0.7269809 -0.5257308
vn 0.6321344 -0.1636369 -0.757383
vn 0.7568613 0.2057893 -0.6203321
vn -0.1396422 -0.6345638 -0.7601504
vn 0.6321375 -0.163634 -0.757381
vn 0.6321381 -0.1636334 -0.7573808
vn 0.6321378 -0.1636337 -0.7573809
vn 0.6321372 -0.1636344 -0.7573813
vn 0.6321365 -0.1636351 -0.7573816
vn 0.63214 -0.1636309 -0.7573797
vn 0.6321384 -0.1636329 -0.7573806
vn 0.632138 -0.1636333 -0.7573807
vn 0.6321382 -0.1636332 -0.7573808
vn 0.6321382 -0.1636331 -0.7573807
vn 0.632138 -0.1636333 -0.7573808
vn 0.6321383 -0.1636331 -0.7573807
vn 0.6321375 -0.1636339 -0.7573811
vn 0.6321365 -0.163635 -0.7573817
vn 0.6321378 -0.1636334 -0.7573808
vn 0.6321384 -0.1636329 -0.7573806
vn 0.5288817 -0.2623478 -0.8071294
vn 0.03352012 -0.5722134 -0.8194194
vn -0.003177671 -0.5872595 -0.8093925
vn -0.003176952 -0.5872592 -0.8093926
vn -0.003176669 -0.5872591 -0.8093928
vn -0.003174861 -0.5872583 -0.8093935
vn -0.00317373 -0.5872577 -0.8093938
vn -0.003172315 -0.5872569 -0.8093944
vn -0.003174736 -0.5872582 -0.8093935
vn -0.003175718 -0.5872586 -0.809393
vn -0.003176211 -0.587259 -0.8093929
vn -0.003176263 -0.587259 -0.8093928
vn -0.003175278 -0.5872585 -0.8093932
vn -0.003175861 -0.5872588 -0.809393
vn -0.003176925 -0.5872592 -0.8093927
vn -0.06221877 -0.6094068 -0.7904127
vn -0.5935346 -0.6762187 -0.4364002
vn -0.6366278 -0.6668757 -0.3872748
vn -0.6366285 -0.6668756 -0.387274
vn -0.6366289 -0.6668755 -0.3872735
vn -0.6366289 -0.6668755 -0.3872735
vn -0.6366286 -0.6668755 -0.3872738
vn -0.6366283 -0.6668755 -0.3872743
vn -0.6366286 -0.6668755 -0.3872739
vn -0.6366284 -0.6668756 -0.3872742
vn -0.6366286 -0.6668755 -0.3872739
vn -0.6366286 -0.6668755 -0.387274
vn -0.6366283 -0.6668755 -0.3872743
vn -0.7487171 -0.6215518 -0.2304261
vn -0.6366136 -0.6668794 -0.3872919
vn -0.8971534 -0.3558459 0.261705
vn -0.8971533 -0.3558452 0.2617061
vn -0.8971534 -0.355845 0.2617065
vn -0.8971532 -0.3558443 0.2617075
vn -0.8971534 -0.3558454 0.2617057
vn -0.8971536 -0.3558462 0.2617043
vn -0.8971536 -0.3558475 0.2617019
vn -0.8971562 -0.35587 0.2616623
vn -0.8971546 -0.355856 0.2616872
vn -0.897153 -0.3558417 0.261712
vn -0.8971533 -0.3558438 0.2617085
vn -0.8971533 -0.3558452 0.261706
vn -0.8971533 -0.3558456 0.2617055
vn -0.8971534 -0.3558457 0.2617052
vn -0.8971534 -0.3558488 0.2617012
vn -0.885008 -0.4491928 0.1224207
vn -0.8276463 -0.1040243 0.5515256
vn -0.8276463 -0.1040243 0.5515256
vn -0.8276463 -0.1040243 0.5515256
vn -0.4417079 0.7269809 -0.5257308
vn 0.8971534 0.3558453 -0.2617057
vn -0.4417079 0.7269809 -0.5257308
vn -0.2357619 -0.6594573 -0.7138154
vn -0.8733976 0.4852306 -0.04156574
vn -0.8312008 0.5420437 -0.123668
vn -0.8569376 -0.05211019 0.5127792
vn -0.8276463 -0.1040243 0.5515256
vn -0.8276463 -0.1040243 0.5515256
vn -0.8276463 -0.1040243 0.5515256
vn -0.8687412 -0.02859007 0.4944404
vn -0.4417079 0.7269809 -0.5257308
vn -0.8331754 -0.09481402 0.5448202
vn -0.8276463 -0.1040243 0.5515256
vn -0.8817949 -0.0001682458 0.4716329
vn -0.8276441 -0.1040198 0.5515299
vn -0.79963 -0.1474817 0.5821005
vn 0.8971533 0.3558453 -0.2617057
vn -0.8276381 -0.1040083 0.5515409
vn 0.4417022 -0.7269816 0.5257347
vn 0.4417079 -0.7269809 0.5257308
vn 0.4417081 -0.7269806 0.5257311
vn 0 0 0
vn 0.8971534 0.3558454 -0.2617057
vn 0.8971534 0.3558454 -0.2617057
vn 0.8971534 0.3558454 -0.2617057
vn 0.4417081 -0.7269806 0.5257311
vn 0.4417081 -0.7269806 0.5257311
vn -0.3462597 -0.6787325 -0.6476313
vn -0.3462597 -0.6787325 -0.6476313
vn -0.3462597 -0.6787325 -0.6476313
vn -0.3462597 -0.6787325 -0.6476313
vn -0.3462597 -0.6787325 -0.6476313
vn -0.3462597 -0.6787325 -0.6476313
vn -0.3462597 -0.6787325 -0.6476313
vn -0.3462597 -0.6787325 -0.6476313
vn -0.3462597 -0.6787325 -0.6476313
vn -0.4417079 0.7269809 -0.5257308
vn -0.4417079 0.7269809 -0.5257308
vn -0.4417079 0.7269809 -0.5257308
vn -0.4417079 0.7269809 -0.5257308
vn -0.4417079 0.7269809 -0.5257308
vn -0.4417079 0.7269809 -0.5257308
vn -0.4417079 0.7269809 -0.5257308
vn -0.4417079 0.7269809 -0.5257308
vn -0.4417079 0.7269809 -0.5257308
vn -0.4417079 0.7269809 -0.5257308
vn -0.4417079 0.7269809 -0.5257308
vn -0.4417079 0.7269809 -0.5257308
vn -0.4417079 0.7269809 -0.5257308
vn -0.4417079 0.7269809 -0.5257308
vn -0.4417079 0.7269809 -0.5257308
vn -0.4417079 0.7269809 -0.5257308
vn -0.4417079 0.7269809 -0.5257308
vn -0.4417079 0.7269809 -0.5257308
vn -0.4417079 0.7269809 -0.5257308
vn -0.4417079 0.7269809 -0.5257308
vn -0.4417079 0.7269809 -0.5257308
vn -0.4417079 0.7269809 -0.5257308
vn -0.4417079 0.7269809 -0.5257308
vn -0.4417079 0.7269809 -0.5257308
vn -0.4417079 0.7269809 -0.5257308
vn -0.4417079 0.7269809 -0.5257308
vn -0.4417079 0.7269809 -0.5257308
vn -0.4417079 0.7269809 -0.5257308
vn -0.4417079 0.7269809 -0.5257308
vn -0.4417079 0.7269809 -0.5257308
vn -0.4417079 0.7269809 -0.5257308
vn -0.4417079 0.7269809 -0.5257308
vn -0.4417079 0.7269809 -0.5257308
vn -0.4417079 0.7269809 -0.5257308
vn -0.4417079 0.7269809 -0.5257308
vn -0.4417079 0.7269809 -0.5257308
vn -0.4417079 0.7269809 -0.5257308
vn -0.4417079 0.7269809 -0.5257308
vn -0.6321378 0.1636337 0.757381
vn -0.4507256 0.3268578 0.8306687
vn -0.2236601 0.4782643 0.8492581
vn -0.6321377 0.1636337 0.7573808
vn 0.2298056 0.6581262 0.7169793
vn 0.4562059 0.6865818 0.566111
vn 0.6366287 0.6668754 0.3872738
vn 0.6366287 0.6668755 0.3872738
vn -0.6321378 0.1636336 0.7573809
vn -0.3462597 -0.6787325 -0.6476313
vn -0.3462597 -0.6787325 -0.6476313
vn -0.3462597 -0.6787325 -0.6476313
vn -0.3462597 -0.6787325 -0.6476313
vn -0.3462597 -0.6787325 -0.6476313
vn -0.3462597 -0.6787325 -0.6476313
vn -0.3462597 -0.6787325 -0.6476313
vn -0.3462597 -0.6787325 -0.6476313
vn 0.9000271 -0.04557127 -0.4334448
vn 0.4417073 -0.726981 0.5257313
vn 0.4417079 -0.7269807 0.525731
vn 0.4417079 -0.7269807 0.525731
vn 0.441708 -0.7269807 0.525731
vn 0.441708 -0.7269807 0.525731
vn 0.4417077 -0.7269809 0.5257311
vn 0.4417077 -0.7269809 0.5257311
vn 0.4417077 -0.7269809 0.5257311
vn 0.4417077 -0.7269809 0.5257311
vn 0.4417077 -0.7269809 0.5257311
vn 0.4417077 -0.7269808 0.5257311
vn 0.4417077 -0.7269809 0.5257311
vn 0.4417077 -0.7269808 0.5257311
vn 0.4417079 -0.7269807 0.5257311
vn 0.441708 -0.7269807 0.525731
vn 0.4417079 -0.7269807 0.5257311
vn 0.4417079 -0.7269807 0.5257311
vn 0.4417079 -0.7269807 0.5257311
vn 0.4417079 -0.7269807 0.5257311
vn 0.4417079 -0.7269807 0.5257311
vn 0.4417079 -0.7269807 0.5257311
vn 0.4417079 -0.7269807 0.5257311
vn 0.4417081 -0.7269807 0.525731
vn 0.4417081 -0.7269807 0.525731
vn 0.4417081 -0.7269807 0.525731
vn 0.4417081 -0.7269807 0.525731
vn 0.4417081 -0.7269807 0.525731
vn 0.4417081 -0.7269807 0.525731
vn 0.4417081 -0.7269807 0.525731
vn 0.4417081 -0.7269807 0.5257309
vn 0.4417082 -0.7269808 0.5257307
vn 0.4417082 -0.7269808 0.5257307
vn 0.4417082 -0.7269808 0.5257307
vn 0.4417082 -0.7269808 0.5257307
vn 0.4417082 -0.7269808 0.5257307
vn 0.4417082 -0.7269808 0.5257307
vn 0.4417082 -0.7269808 0.5257307
vn 0.4417082 -0.7269807 0.5257307
vn 0.441708 -0.7269807 0.525731
vn 0.441708 -0.7269807 0.525731
vn 0.4417079 -0.7269807 0.525731

f 1//1 2//2 3//3
f 4//4 1//1 3//3
f 3//3 5//5 4//4
f 3//3 6//6 5//5
f 5//5 6//6 7//7
f 8//8 7//7 6//6
f 9//9 8//8 6//6
f 10//10 9//9 6//6
f 9//9 10//10 11//11
f 11//11 10//10 12//12
f 13//13 11//11 12//12
f 13//13 12//12 14//14
f 13//13 14//14 15//15
f 15//15 14//14 16//16
f 15//15 16//16 17//17
f 18//18 17//17 16//16
f 19//19 17//17 18//18
f 19//19 18//18 20//20
f 21//21 19//19 20//20
f 22//22 19//19 21//21
f 22//22 21//21 23//23
f 24//24 22//22 23//23
f 24//24 23//23 25//25
f 26//26 24//24 25//25
f 26//26 25//25 27//27
f 28//28 26//26 27//27
f 28//28 27//27 29//29
f 29//29 27//27 30//30
f 31//31 29//29 30//30
f 31//31 30//30 32//32
f 33//33 31//31 32//32
f 33//33 32//32 34//34
f 35//35 33//33 34//34
f 35//35 34//34 36//36
f 37//37 35//35 36//36
f 37//37 36//36 38//38
f 39//39 37//37 38//38
f 39//39 38//38 40//40
f 41//41 39//39 40//40
f 41//41 40//40 42//42
f 41//41 42//42 43//43
f 43//43 42//42 44//44
f 45//45 43//43 44//44
f 45//45 44//44 46//46
f 47//47 45//45 46//46
f 48//48 45//45 47//47
f 48//48 47//47 49//49
f 50//50 48//48 49//49
f 50//50 49//49 51//51
f 52//52 50//50 51//51
f 52//52 51//51 53//53
f 54//54 52//52 53//53
f 55//55 54//54 53//53
f 55//55 53//53 56//56
f 55//55 56//56 57//57
f 57//57 56//56 58//58
f 57//57 58//58 59//59
f 59//59 58//58 60//60
f 59//59 60//60 61//61
f 61//61 60//60 62//62
f 61//61 62//62 63//63
f 63//63 62//62 64//64
f 63//63 64//64 65//65
f 65//65 64//64 66//66
f 65//65 66//66 67//67
f 68//68 67//67 66//66
f 69//69 67//67 68//68
f 69//69 68//68 70//70
f 71//71 69//69 70//70
f 72//72 71//71 73//73
f 74//74 75//75 76//76
f 77//77 74//74 76//76
f 75//75 77//77 76//76
f 78//78 75//75 74//74
f 79//79 75//75 78//78
f 78//78 74//74 80//80
f 81//81 78//78 80//80
f 82//82 78//78 81//81
f 82//82 83//83 78//78
f 83//83 84//84 79//79
f 84//84 85//85 79//79
f 80//80 74//74 86//86
f 87//87 80//80 86//86
f 81//81 80//80 87//87
f 86//86 74//74 88//88
f 88//88 74//74 77//77
f 86//86 88//88 89//89
f 90//90 86//86 89//89
f 87//87 86//86 90//90
f 75//75 91//91 77//77
f 90//90 89//89 92//92
f 90//90 92//92 93//93
f 94//94 90//90 93//93
f 95//95 83//83 82//82
f 95//95 82//82 81//81
f 95//95 81//81 87//87
f 95//95 87//87 90//90
f 95//95 96//96 83//83
f 97//97 91//91 75//75
f 97//97 98//98 91//91
f 97//97 99//99 98//98
f 100//100 95//95 101//101
f 102//102 103//103 104//104
f 102//102 104//104 105//105
f 102//102 105//105 106//106
f 106//106 105//105 107//107
f 108//108 102//102 106//106
f 109//109 102//102 108//108
f 110//110 108//108 106//106
f 111//111 112//112 113//113
f 111//111 113//113 114//114
f 111//111 114//114 115//115
f 111//111 115//115 116//116
f 111//111 116//116 117//117
f 117//117 118//118 111//111
f 118//118 119//119 111//111
f 120//120 111//111 119//119
f 120//120 121//121 111//111
f 121//121 122//122 111//111
f 111//111 122//122 123//123
f 114//114 113//113 124//124
f 124//124 113//113 125//125
f 125//125 113//113 126//126
f 126//126 113//113 127//127
f 127//127 113//113 128//128
f 128//128 113//113 129//129
f 129//129 113//113 130//130
f 130//130 113//113 131//131
f 131//131 113//113 132//132
f 132//132 113//113 133//133
f 133//133 113//113 134//134
f 133//133 134//134 135//135
f 135//135 134//134 136//136
f 134//134 137//137 136//136
f 137//137 134//134 138//138
f 138//138 134//134 139//139
f 139//139 134//134 140//140
f 140//140 134//134 141//141
f 134//134 142//142 141//141
f 134//134 143//143 142//142
f 134//134 144//144 143//143
f 144//144 134//134 145//145
f 145//145 134//134 146//146
f 147//147 134//134 148//148
f 149//149 150//150 151//151
f 149//149 152//152 150//150
f 151//151 150//150 153//153
f 151//151 153//153 154//154
f 154//154 153//153 155//155
f 154//154 155//155 156//156
f 152//152 157//157 150//150
f 158//158 159//159 160//160
f 161//161 159//159 158//158
f 162//162 159//159 161//161
f 163//163 162//162 161//161
f 164//164 162//162 163//163
f 165//165 162//162 164//164
f 9//9 166//166 8//8
f 166//166 9//9 167//167
f 168//168 169//169 170//170
f 168//168 171//171 169//169
f 172//172 169//169 173//173
f 174//174 169//169 172//172
f 169//169 174//174 175//175
f 176//176 169//169 175//175
f 177//177 169//169 176//176
f 178//178 169//169 177//177
f 178//178 179//179 169//169
f 179//179 180//180 169//169
f 180//180 181//181 169//169
f 182//182 181//181 180//180
f 182//182 183//183 181//181
f 183//183 184//184 181//181
f 184//184 185//185 181//181
f 185//185 186//186 181//181
f 186//186 187//187 181//181
f 187//187 188//188 181//181
f 188//188 189//189 181//181
f 181//181 189//189 190//190
f 181//181 190//190 191//191
f 192//192 181//181 191//191
f 193//193 181//181 192//192
f 194//194 181//181 193//193
f 195//195 181//181 194//194
f 195//195 196//196 181//181
f 196//196 197//197 198//198
f 196//196 198//198 199//199
f 199//199 200//200 196//196
f 196//196 200//200 201//201
f 201//201 202//202 196//196
f 196//196 202//202 203//203
f 196//196 203//203 204//204
f 205//205 196//196 206//206
f 207//207 196//196 205//205
