v 31.04943 -140.9115 19.21826
v 39.67006 -138.8765 4.886418
v 31.04943 -140.9115 19.21826
v 31.04943 -140.9115 19.21826
v 28.1172 -141.7081 17.34141
v 26.94431 -142.0268 16.59067
v 26.94431 -142.0268 16.59067
v 35.56493 -139.9917 2.258824
v 44.18555 -137.9566 -12.07302
v 26.80909 -141.8273 16.53765
v 42.96857 -136.162 -12.55021
v 26.79229 -141.8026 16.53106
v 42.81734 -135.939 -12.6095
v 26.78757 -141.7956 16.52921
v 42.77489 -135.8764 -12.62615
v 26.73455 -141.7174 16.50842
v 42.29771 -135.1727 -12.81325
v 26.08086 -140.7534 16.25211
v 42.22508 -135.0656 -12.84173
v 25.46109 -139.8395 16.00909
v 25.38979 -139.7343 15.98113
v 42.1483 -134.9524 -12.87184
v 25.24108 -139.515 15.92282
v 42.13177 -134.928 -12.87832
v 24.84671 -138.9335 15.76819
v 42.08796 -134.8634 -12.8955
v 24.67259 -138.9001 15.6682
v 41.12914 -134.6795 -13.44611
v 40.52083 -134.5628 -13.79544
v 24.62938 -138.8918 15.64339
v 40.13201 -134.4882 -14.01872
v 24.61653 -138.8893 15.63601
v 40.01629 -134.466 -14.08517
v 24.51936 -138.8707 15.5802
v 39.14173 -134.2982 -14.5874
v 23.40452 -138.6568 14.94
v 39.01786 -134.2744 -14.65854
v 22.48349 -138.4801 14.41109
v 38.91552 -134.2548 -14.7173
v 21.57313 -138.3055 13.8883
v 38.81437 -134.2354 -14.77539
v 21.495 -138.3736 13.83164
v 38.11118 -134.8478 -15.28533
v 21.31994 -138.526 13.70469
v 36.53562 -136.22 -16.42787
v 20.83154 -138.9514 13.35052
v 20.63622 -139.1215 13.20889
v 36.45965 -136.2862 -16.48296
v 19.97022 -139.7015 12.72592
v 36.38565 -136.3506 -16.53662
v 19.42184 -140.1791 12.32825
v 36.32472 -136.4037 -16.58081
v 19.04118 -140.5107 12.05221
v 36.28242 -136.4406 -16.61148
v 36.28242 -136.4406 -16.61148
v 19.02293 -140.7333 12.00961
v 36.11814 -138.4446 -16.99486
v 19.01756 -140.7989 11.99708
v 36.06979 -139.0344 -17.1077
v 19.01701 -140.8056 11.9958
v 36.06485 -139.0947 -17.11922
v 19.01676 -140.8087 11.9952
v 36.06256 -139.1226 -17.12456
v 19.01643 -140.8126 11.99445
v 36.05967 -139.1579 -17.13131
v 19.01047 -140.8853 11.98054
v 36.00601 -139.8125 -17.25654
v 18.73405 -144.2572 11.33548
v 35.97529 -140.1871 -17.32821
v 18.73405 -144.2572 11.33548
v 35.97529 -140.1871 -17.32821
v 18.73405 -144.2572 11.33548
v 18.73405 -144.2572 11.33548
v 17.56116 -144.5758 10.58474
v 14.62893 -145.3724 8.707888
v 14.62893 -145.3724 8.707888
v 14.62893 -145.3724 8.707889
v 18.73405 -144.2572 11.33548
v 18.73405 -144.2572 11.33548
v 18.73405 -144.2572 11.33548
v 35.97529 -140.1871 -17.32821
v 35.97529 -140.1871 -17.32821
v 35.97529 -140.1871 -17.32821
v 18.73405 -144.2572 11.33548
v 15.24319 -137.8793 10.14135
v 18.73405 -144.2572 11.33548
v 35.97529 -140.1871 -17.32821
v 18.73405 -144.2572 11.33548
v 27.35468 -142.2222 -2.996366
v 35.97529 -140.1871 -17.32821
v 23.24955 -143.3374 -5.623959
v 35.97528 -140.1871 -17.3282
v 35.97529 -140.1871 -17.32821
v 34.8024 -140.5057 -18.07895
v 32.48443 -133.8092 -18.52234
v 35.97529 -140.1871 -17.32821
v 15.24319 -137.8793 10.14135
v 31.87017 -141.3023 -19.9558
v 32.48443 -133.8092 -18.52234
v 36.28242 -136.4406 -16.61148
v 36.28242 -136.4406 -16.61148
v 39.67006 -138.8765 4.886418
v 31.04943 -140.9115 19.21826
v 31.04943 -140.9115 19.21826
v 28.1172 -141.7081 17.34141
v 35.56493 -139.9917 2.258824
v 26.94431 -142.0268 16.59067
v 45.88595 -137.4947 -10.98464
v 48.29068 -136.8414 -9.445429
v 44.18555 -137.9566 -12.07302
v 31.04943 -140.9115 19.21826
v 26.85424 -134.725 17.57331
v 20.30708 -133.469 13.81353
v 24.84671 -138.9335 15.76819
v 25.24108 -139.515 15.92282
v 25.38979 -139.7343 15.98113
v 25.46109 -139.8395 16.00909
v 26.08086 -140.7534 16.25211
v 26.73455 -141.7174 16.50842
v 26.78757 -141.7956 16.52921
v 26.79229 -141.8026 16.53106
v 26.80909 -141.8273 16.53765
v 26.94431 -142.0268 16.59067
v 24.67259 -138.9001 15.6682
v 24.62938 -138.8918 15.64339
v 24.61653 -138.8893 15.63601
v 24.51936 -138.8707 15.5802
v 23.40452 -138.6568 14.94
v 22.48349 -138.4801 14.41109
v 21.57313 -138.3055 13.8883
v 21.495 -138.3736 13.83164
v 21.31994 -138.526 13.70469
v 20.83154 -138.9514 13.35052
v 15.24319 -137.8793 10.14135
v 20.63622 -139.1215 13.20889
v 19.97022 -139.7015 12.72592
v 19.42184 -140.1791 12.32825
v 19.04118 -140.5107 12.05221
v 19.02293 -140.7333 12.00961
v 19.01756 -140.7989 11.99708
v 19.01701 -140.8056 11.9958
v 19.01676 -140.8087 11.9952
v 19.01643 -140.8126 11.99445
v 19.01047 -140.8853 11.98054
v 18.73405 -144.2572 11.33548
v 18.73405 -144.2572 11.33548
v 18.73405 -144.2572 11.33548
v 14.62893 -145.3724 8.707888
v 31.04943 -140.9115 19.21826
v 44.09549 -130.6549 -11.09038
v 26.85424 -134.725 17.57331
v 39.67006 -138.8765 4.886418
v 37.54832 -129.3989 -14.85016
v 20.30708 -133.469 13.81353
v 32.48443 -133.8092 -18.52234
v 15.24319 -137.8793 10.14135
v 48.29068 -136.8414 -9.445429
v 14.62893 -145.3724 8.707889
v 27.35468 -142.2222 -2.996366
v 18.73405 -144.2572 11.33548
v 23.24955 -143.3374 -5.623959
v 35.97528 -140.1871 -17.3282
v 31.87017 -141.3023 -19.9558
v 34.8024 -140.5057 -18.07895
v 35.97529 -140.1871 -17.32821
v 44.18555 -137.9566 -12.07302
v 44.09549 -130.6549 -11.09038
v 45.88595 -137.4947 -10.98464
v 44.09549 -130.6549 -11.09038
v 48.29068 -136.8414 -9.445429
v 44.18555 -137.9566 -12.07302
v 42.96857 -136.162 -12.55021
v 44.18555 -137.9566 -12.07302
v 42.81734 -135.939 -12.6095
v 42.77489 -135.8764 -12.62615
v 42.29771 -135.1727 -12.81325
v 42.22508 -135.0656 -12.84173
v 42.1483 -134.9524 -12.87184
v 42.13177 -134.928 -12.87832
v 42.08796 -134.8634 -12.8955
v 37.54832 -129.3989 -14.85016
v 41.12914 -134.6795 -13.44611
v 40.52083 -134.5628 -13.79544
v 40.13201 -134.4882 -14.01872
v 40.01629 -134.466 -14.08517
v 39.14173 -134.2982 -14.5874
v 39.01786 -134.2744 -14.65854
v 38.91552 -134.2548 -14.7173
v 38.81437 -134.2354 -14.77539
v 38.11118 -134.8478 -15.28533
v 36.53562 -136.22 -16.42787
v 36.45965 -136.2862 -16.48296
v 36.38565 -136.3506 -16.53662
v 36.32472 -136.4037 -16.58081
v 36.28242 -136.4406 -16.61148
v 32.48443 -133.8092 -18.52234
v 36.28242 -136.4406 -16.61148
v 36.11814 -138.4446 -16.99486
v 36.06979 -139.0344 -17.1077
v 36.06485 -139.0947 -17.11922
v 36.06256 -139.1226 -17.12456
v 36.05967 -139.1579 -17.13131
v 36.00601 -139.8125 -17.25654
v 35.97529 -140.1871 -17.32821
v 34.8024 -140.5057 -18.07895
v 35.97529 -140.1871 -17.32821
v 31.87017 -141.3023 -19.9558

vn 0.8210245 0.2230448 0.5255188
vn 0.8210246 0.2230448 0.5255186
vn 0.2903799 0.09074043 0.9525995
vn -0.5116673 -0.1207881 0.8506508
vn -0.5116673 -0.1207881 0.8506508
vn -0.6616262 -0.5762386 -0.4797917
vn -0.8851337 -0.2378851 -0.3999368
vn 0.05083185 -0.9925901 -0.1103675
vn -0.6616285 -0.5762348 -0.4797929
vn -0.6616291 -0.5762342 -0.4797931
vn -0.6616288 -0.5762345 -0.479793
vn -0.6616282 -0.5762353 -0.4797929
vn -0.6616276 -0.5762361 -0.4797927
vn -0.6616311 -0.5762315 -0.4797934
vn -0.6616294 -0.5762337 -0.4797931
vn -0.6616291 -0.5762341 -0.479793
vn -0.6616293 -0.576234 -0.4797931
vn -0.6616293 -0.5762339 -0.479793
vn -0.6616291 -0.5762342 -0.479793
vn -0.6616293 -0.5762339 -0.4797931
vn -0.6616286 -0.5762348 -0.4797928
vn -0.6616277 -0.5762361 -0.4797925
vn -0.661629 -0.5762343 -0.4797929
vn -0.6616295 -0.5762336 -0.4797931
vn -0.5713842 -0.6915611 -0.4418864
vn -0.1151768 -0.9714895 -0.2072257
vn -0.08025542 -0.9790208 -0.1872899
vn -0.08025613 -0.9790206 -0.1872903
vn -0.08025642 -0.9790206 -0.1872904
vn -0.0802583 -0.9790204 -0.1872913
vn -0.08025945 -0.9790201 -0.1872919
vn -0.080261 -0.9790198 -0.1872925
vn -0.08025845 -0.9790203 -0.1872914
vn -0.08025733 -0.9790204 -0.1872909
vn -0.08025683 -0.9790206 -0.1872907
vn -0.08025671 -0.9790205 -0.1872907
vn -0.08025774 -0.9790203 -0.1872912
vn -0.08025717 -0.9790205 -0.1872909
vn -0.08025612 -0.9790207 -0.1872903
vn -0.02377968 -0.9876986 -0.1545519
vn 0.5032807 -0.8445669 0.1827995
vn 0.5481267 -0.8083102 0.2149227
vn 0.5481275 -0.8083097 0.2149232
vn 0.5481279 -0.8083093 0.2149235
vn 0.5481279 -0.8083092 0.2149235
vn 0.5481276 -0.8083094 0.2149233
vn 0.5481272 -0.8083098 0.2149232
vn 0.5481275 -0.8083096 0.2149233
vn 0.5481273 -0.8083098 0.2149232
vn 0.5481275 -0.8083095 0.2149233
vn 0.5481275 -0.8083096 0.2149234
vn 0.5481272 -0.8083098 0.2149231
vn 0.6677631 -0.6789031 0.3052594
vn 0.5481118 -0.8083232 0.214912
vn 0.855427 -0.1641021 0.4912386
vn 0.855427 -0.1641008 0.4912387
vn 0.8554272 -0.1641004 0.4912388
vn 0.8554273 -0.1640992 0.4912389
vn 0.8554271 -0.1641013 0.4912387
vn 0.8554268 -0.1641029 0.4912387
vn 0.8554264 -0.1641056 0.4912384
vn 0.8554199 -0.1641506 0.4912347
vn 0.855424 -0.1641223 0.491237
vn 0.855428 -0.164094 0.4912395
vn 0.8554275 -0.1640981 0.491239
vn 0.855427 -0.1641009 0.4912387
vn 0.855427 -0.1641016 0.4912387
vn 0.855427 -0.1641018 0.4912386
vn 0.8554267 -0.1641067 0.4912376
vn 0.8298948 -0.3257847 0.4529228
vn 0.8210247 0.2230448 0.5255185
vn 0.8210247 0.2230448 0.5255185
vn 0.8210247 0.2230448 0.5255185
vn -0.5116673 -0.1207881 0.8506508
vn -0.855427 0.1641012 -0.4912389
vn -0.5116673 -0.1207881 0.8506508
vn 0.1443616 -0.9880795 -0.05346879
vn 0.144158 0.05301322 0.9881336
vn 0.03977349 0.02585448 0.9988742
vn 0.7825963 0.2138992 0.5846283
vn 0.8210247 0.2230448 0.5255185
vn 0.8210247 0.2230448 0.5255185
vn 0.8210247 0.2230448 0.5255185
vn 0.7639546 0.2094169 0.6103426
vn -0.5116673 -0.1207881 0.8506508
vn 0.814481 0.2214918 0.5362484
vn 0.8210247 0.2230448 0.5255185
vn 0.7404123 0.2037211 0.6405369
vn 0.821023 0.2230512 0.5255184
vn 0.8502633 0.2299008 0.4734957
vn -0.855427 0.1641012 -0.4912388
vn 0.8210187 0.2230677 0.5255181
vn 0.511673 0.1207896 -0.8506472
vn 0.5116673 0.1207881 -0.8506508
vn 0.5116671 0.1207885 -0.8506508
vn 0 0 0
vn -0.855427 0.1641013 -0.4912388
vn -0.855427 0.1641013 -0.4912388
vn -0.8554271 0.1641013 -0.4912388
vn 0.5116671 0.1207885 -0.8506508
vn 0.5116671 0.1207885 -0.8506508
vn 0.2532097 -0.9672959 0.01495464
vn 0.2532097 -0.9672959 0.01495464
vn 0.2532097 -0.9672959 0.01495464
vn 0.2532097 -0.9672959 0.01495464
vn 0.2532097 -0.9672959 0.01495464
vn 0.2532097 -0.9672959 0.01495464
vn 0.2532097 -0.9672959 0.01495464
vn 0.2532097 -0.9672959 0.01495464
vn 0.2532097 -0.9672959 0.01495464
vn -0.5116673 -0.1207881 0.8506508
vn -0.5116673 -0.1207881 0.8506508
vn -0.5116673 -0.1207881 0.8506508
vn -0.5116673 -0.1207881 0.8506508
vn -0.5116673 -0.1207881 0.8506508
vn -0.5116673 -0.1207881 0.8506508
vn -0.5116673 -0.1207881 0.8506508
vn -0.5116673 -0.1207881 0.8506508
vn -0.5116673 -0.1207881 0.8506508
vn -0.5116673 -0.1207881 0.8506508
vn -0.5116673 -0.1207881 0.8506508
vn -0.5116673 -0.1207881 0.8506508
vn -0.5116673 -0.1207881 0.8506508
vn -0.5116672 -0.120788 0.8506508
vn -0.5116673 -0.1207881 0.8506508
vn -0.5116673 -0.1207881 0.8506508
vn -0.5116672 -0.120788 0.8506508
vn -0.5116673 -0.1207881 0.8506508
vn -0.5116673 -0.1207881 0.8506508
vn -0.5116673 -0.1207881 0.8506508
vn -0.5116672 -0.120788 0.8506508
vn -0.5116673 -0.1207881 0.8506508
vn -0.5116673 -0.1207881 0.8506508
vn -0.5116673 -0.1207881 0.8506508
vn -0.5116673 -0.1207881 0.8506508
vn -0.5116673 -0.1207881 0.8506508
vn -0.5116673 -0.1207881 0.8506508
vn -0.5116673 -0.1207881 0.8506508
vn -0.5116673 -0.1207881 0.8506508
vn -0.5116673 -0.1207881 0.8506508
vn -0.5116673 -0.1207881 0.8506508
vn -0.5116672 -0.120788 0.8506508
vn -0.5116673 -0.1207881 0.8506508
vn -0.5116672 -0.120788 0.8506508
vn -0.5116672 -0.120788 0.8506508
vn -0.5116673 -0.1207881 0.8506508
vn -0.5116672 -0.120788 0.8506508
vn -0.5116672 -0.120788 0.8506508
vn 0.6616288 0.5762345 0.479793
vn 0.5016257 0.7618088 0.4099015
vn 0.2938395 0.9057672 0.3053593
vn 0.6616287 0.5762345 0.4797929
vn -0.1385356 0.9887123 0.05706295
vn -0.3631245 0.927699 -0.08669116
vn -0.5481276 0.8083094 -0.2149234
vn -0.5481276 0.8083095 -0.2149234
vn 0.6616289 0.5762344 0.479793
vn 0.2532097 -0.9672959 0.01495464
vn 0.2532097 -0.9672959 0.01495464
vn 0.2532097 -0.9672959 0.01495464
vn 0.2532097 -0.9672959 0.01495464
vn 0.2532097 -0.9672959 0.01495464
vn 0.2532097 -0.9672959 0.01495464
vn 0.2532097 -0.9672959 0.01495464
vn 0.2532097 -0.9672959 0.01495464
vn -0.7001957 -0.1939136 -0.6871125
vn 0.5116678 0.1207882 -0.8506505
vn 0.5116672 0.1207883 -0.8506508
vn 0.5116673 0.1207883 -0.8506508
vn 0.5116672 0.1207883 -0.8506508
vn 0.5116672 0.1207883 -0.8506508
vn 0.5116675 0.1207882 -0.8506507
vn 0.5116675 0.1207882 -0.8506507
vn 0.5116675 0.1207882 -0.8506507
vn 0.5116675 0.1207882 -0.8506507
vn 0.5116675 0.1207882 -0.8506507
vn 0.5116674 0.1207882 -0.8506507
vn 0.5116675 0.1207882 -0.8506507
vn 0.5116674 0.1207882 -0.8506507
vn 0.5116673 0.1207884 -0.8506508
vn 0.5116672 0.1207884 -0.8506508
vn 0.5116673 0.1207884 -0.8506508
vn 0.5116673 0.1207884 -0.8506508
vn 0.5116673 0.1207884 -0.8506508
vn 0.5116673 0.1207884 -0.8506508
vn 0.5116673 0.1207884 -0.8506508
vn 0.5116673 0.1207884 -0.8506508
vn 0.5116673 0.1207884 -0.8506508
vn 0.5116671 0.1207883 -0.8506509
vn 0.5116671 0.1207883 -0.8506509
vn 0.5116671 0.1207883 -0.8506509
vn 0.5116671 0.1207883 -0.8506509
vn 0.5116671 0.1207883 -0.8506509
vn 0.5116671 0.1207883 -0.8506509
vn 0.5116671 0.1207883 -0.8506509
vn 0.5116671 0.1207883 -0.8506509
vn 0.511667 0.1207881 -0.850651
vn 0.511667 0.1207881 -0.850651
vn 0.511667 0.1207881 -0.850651
vn 0.511667 0.1207881 -0.850651
vn 0.511667 0.1207881 -0.850651
vn 0.511667 0.1207881 -0.850651
vn 0.511667 0.1207881 -0.850651
vn 0.511667 0.1207881 -0.850651
vn 0.5116672 0.1207883 -0.8506508
vn 0.5116672 0.1207883 -0.8506508
vn 0.5116672 0.1207883 -0.8506508

f 1//1 2//2 3//3
f 4//4 1//1 3//3
f 3//3 5//5 4//4
f 3//3 6//6 5//5
f 5//5 6//6 7//7
f 8//8 7//7 6//6
f 9//9 8//8 6//6
f 10//10 9//9 6//6
f 9//9 10//10 11//11
f 11//11 10//10 12//12
f 13//13 11//11 12//12
f 13//13 12//12 14//14
f 13//13 14//14 15//15
f 15//15 14//14 16//16
f 15//15 16//16 17//17
f 18//18 17//17 16//16
f 19//19 17//17 18//18
f 19//19 18//18 20//20
f 21//21 19//19 20//20
f 22//22 19//19 21//21
f 22//22 21//21 23//23
f 24//24 22//22 23//23
f 24//24 23//23 25//25
f 26//26 24//24 25//25
f 26//26 25//25 27//27
f 28//28 26//26 27//27
f 28//28 27//27 29//29
f 29//29 27//27 30//30
f 31//31 29//29 30//30
f 31//31 30//30 32//32
f 33//33 31//31 32//32
f 33//33 32//32 34//34
f 35//35 33//33 34//34
f 35//35 34//34 36//36
f 37//37 35//35 36//36
f 37//37 36//36 38//38
f 39//39 37//37 38//38
f 39//39 38//38 40//40
f 41//41 39//39 40//40
f 41//41 40//40 42//42
f 41//41 42//42 43//43
f 43//43 42//42 44//44
f 45//45 43//43 44//44
f 45//45 44//44 46//46
f 47//47 45//45 46//46
f 48//48 45//45 47//47
f 48//48 47//47 49//49
f 50//50 48//48 49//49
f 50//50 49//49 51//51
f 52//52 50//50 51//51
f 52//52 51//51 53//53
f 54//54 52//52 53//53
f 55//55 54//54 53//53
f 55//55 53//53 56//56
f 55//55 56//56 57//57
f 57//57 56//56 58//58
f 57//57 58//58 59//59
f 59//59 58//58 60//60
f 59//59 60//60 61//61
f 61//61 60//60 62//62
f 61//61 62//62 63//63
f 63//63 62//62 64//64
f 63//63 64//64 65//65
f 65//65 64//64 66//66
f 65//65 66//66 67//67
f 68//68 67//67 66//66
f 69//69 67//67 68//68
f 69//69 68//68 70//70
f 71//71 69//69 70//70
f 72//72 71//71 73//73
f 74//74 75//75 76//76
f 77//77 74//74 76//76
f 75//75 77//77 76//76
f 78//78 75//75 74//74
f 79//79 75//75 78//78
f 78//78 74//74 80//80
f 81//81 78//78 80//80
f 82//82 78//78 81//81
f 82//82 83//83 78//78
f 83//83 84//84 79//79
f 84//84 85//85 79//79
f 80//80 74//74 86//86
f 87//87 80//80 86//86
f 81//81 80//80 87//87
f 86//86 74//74 88//88
f 88//88 74//74 77//77
f 86//86 88//88 89//89
f 90//90 86//86 89//89
f 87//87 86//86 90//90
f 75//75 91//91 77//77
f 90//90 89//89 92//92
f 90//90 92//92 93//93
f 94//94 90//90 93//93
f 95//95 83//83 82//82
f 95//95 82//82 81//81
f 95//95 81//81 87//87
f 95//95 87//87 90//90
f 95//95 96//96 83//83
f 97//97 91//91 75//75
f 97//97 98//98 91//91
f 97//97 99//99 98//98
f 100//100 95//95 101//101
f 102//102 103//103 104//104
f 102//102 104//104 105//105
f 102//102 105//105 106//106
f 106//106 105//105 107//107
f 108//108 102//102 106//106
f 109//109 102//102 108//108
f 110//110 108//108 106//106
f 111//111 112//112 113//113
f 111//111 113//113 114//114
f 111//111 114//114 115//115
f 111//111 115//115 116//116
f 111//111 116//116 117//117
f 117//117 118//118 111//111
f 118//118 119//119 111//111
f 120//120 111//111 119//119
f 120//120 121//121 111//111
f 121//121 122//122 111//111
f 111//111 122//122 123//123
f 114//114 113//113 124//124
f 124//124 113//113 125//125
f 125//125 113//113 126//126
f 126//126 113//113 127//127
f 127//127 113//113 128//128
f 128//128 113//113 129//129
f 129//129 113//113 130//130
f 130//130 113//113 131//131
f 131//131 113//113 132//132
f 132//132 113//113 133//133
f 133//133 113//113 134//134
f 133//133 134//134 135//135
f 135//135 134//134 136//136
f 134//134 137//137 136//136
f 137//137 134//134 138//138
f 138//138 134//134 139//139
f 139//139 134//134 140//140
f 140//140 134//134 141//141
f 134//134 142//142 141//141
f 134//134 143//143 142//142
f 134//134 144//144 143//143
f 144//144 134//134 145//145
f 145//145 134//134 146//146
f 147//147 134//134 148//148
f 149//149 150//150 151//151
f 149//149 152//152 150//150
f 151//151 150//150 153//153
f 151//151 153//153 154//154
f 154//154 153//153 155//155
f 154//154 155//155 156//156
f 152//152 157//157 150//150
f 158//158 159//159 160//160
f 161//161 159//159 158//158
f 162//162 159//159 161//161
f 163//163 162//162 161//161
f 164//164 162//162 163//163
f 165//165 162//162 164//164
f 9//9 166//166 8//8
f 166//166 9//9 167//167
f 168//168 169//169 170//170
f 168//168 171//171 169//169
f 172//172 169//169 173//173
f 174//174 169//169 172//172
f 169//169 174//174 175//175
f 176//176 169//169 175//175
f 177//177 169//169 176//176
f 178//178 169//169 177//177
f 178//178 179//179 169//169
f 179//179 180//180 169//169
f 180//180 181//181 169//169
f 182//182 181//181 180//180
f 182//182 183//183 181//181
f 183//183 184//184 181//181
f 184//184 185//185 181//181
f 185//185 186//186 181//181
f 186//186 187//187 181//181
f 187//187 188//188 181//181
f 188//188 189//189 181//181
f 181//181 189//189 190//190
f 181//181 190//190 191//191
f 192//192 181//181 191//191
f 193//193 181//181 192//192
f 194//194 181//181 193//193
f 195//195 181//181 194//194
f 195//195 196//196 181//181
f 196//196 197//197 198//198
f 196//196 198//198 199//199
f 199//199 200//200 196//196
f 196//196 200//200 201//201
f 201//201 202//202 196//196
f 196//196 202//202 203//203
f 196//196 203//203 204//204
f 205//205 196//196 206//206
f 207//207 196//196 205//205
