v -99.17355 105.5304 8.707749
v -104.9516 98.81689 -5.62411
v -99.17355 105.5304 8.707749
v -99.17355 105.5304 8.70775
v -101.0808 103.1651 10.58466
v -101.8437 102.219 11.33543
v -101.8437 102.219 11.33543
v -107.6218 95.50549 -2.996429
v -113.3998 88.79202 -17.32829
v -102.0703 102.3011 11.38831
v -115.4388 89.53085 -16.85237
v -102.0984 102.3113 11.39488
v -115.6921 89.62266 -16.79323
v -102.1063 102.3141 11.39673
v -115.7632 89.64843 -16.77663
v -102.1952 102.3463 11.41746
v -116.5627 89.93813 -16.59002
v -103.2903 102.7432 11.67309
v -116.6844 89.98222 -16.56162
v -104.3287 103.1194 11.91547
v -104.4482 103.1627 11.94335
v -116.813 90.02883 -16.53159
v -104.6973 103.253 12.0015
v -116.8407 90.03886 -16.52513
v -105.358 103.4924 12.15573
v -116.9141 90.06547 -16.50799
v -105.5186 103.4173 12.25568
v -117.7986 89.65182 -15.95763
v -118.3598 89.38937 -15.60846
v -105.5585 103.3987 12.28047
v -118.7184 89.22163 -15.38527
v -105.5704 103.3931 12.28785
v -118.8252 89.17171 -15.31885
v -105.66 103.3512 12.34363
v -119.632 88.7944 -14.81686
v -106.6884 102.8702 12.98355
v -119.7462 88.74096 -14.74575
v -107.538 102.4729 13.51222
v -119.8406 88.69681 -14.68701
v -108.3778 102.0801 14.03477
v -119.9339 88.65317 -14.62895
v -108.4012 101.9792 14.09146
v -120.144 87.74479 -14.11874
v -108.4535 101.753 14.21847
v -120.6147 85.7095 -12.97559
v -108.5994 101.1221 14.57283
v -108.6577 100.8698 14.71454
v -120.6374 85.61137 -12.92047
v -108.8567 100.0095 15.19776
v -120.6595 85.51578 -12.86678
v -109.0205 99.30111 15.59564
v -120.6777 85.43707 -12.82257
v -109.1342 98.80938 15.87183
v -120.6903 85.38243 -12.79189
v -120.6903 85.38243 -12.79189
v -109.0183 98.61841 15.91456
v -119.6472 83.66368 -12.40732
v -108.9842 98.56219 15.92714
v -119.3402 83.15778 -12.29412
v -108.9807 98.55646 15.92842
v -119.3089 83.10614 -12.28257
v -108.9791 98.55379 15.92902
v -119.2943 83.08219 -12.27721
v -108.9771 98.55043 15.92977
v -119.2759 83.05193 -12.27044
v -108.9392 98.48805 15.94373
v -118.9352 82.49052 -12.14482
v -107.1841 95.59615 16.59079
v -118.7402 82.1692 -12.07293
v -107.1841 95.59615 16.59079
v -118.7402 82.1692 -12.07293
v -107.1841 95.59615 16.59079
v -107.1841 95.59615 16.59079
v -107.947 94.65003 17.34156
v -109.8543 92.28474 19.21847
v -109.8543 92.28474 19.21847
v -109.8543 92.28474 19.21847
v -107.1841 95.59615 16.59079
v -107.1841 95.59615 16.59079
v -107.1841 95.59615 16.59079
v -118.7402 82.1692 -12.07293
v -118.7402 82.1692 -12.07293
v -118.7402 82.1692 -12.07293
v -107.1841 95.59615 16.59079
v -113.7545 98.7112 17.78055
v -107.1841 95.59615 16.59079
v -118.7402 82.1692 -12.07293
v -107.1841 95.59615 16.59079
v -112.9622 88.88268 2.258932
v -118.7402 82.1692 -12.07293
v -115.6324 85.57127 4.886612
v -118.7402 82.1692 -12.07291
v -118.7402 82.1692 -12.07293
v -119.5031 81.22308 -11.32216
v -125.3106 85.28426 -10.88317
v -118.7402 82.1692 -12.07293
v -113.7545 98.7112 17.78055
v -121.4104 78.8578 -9.445246
v -125.3106 85.28426 -10.88317
v -120.6903 85.38243 -12.79189
v -120.6903 85.38243 -12.79189
v -104.9516 98.81689 -5.62411
v -99.17355 105.5304 8.707749
v -99.17355 105.5304 8.70775
v -101.0808 103.1651 10.58466
v -107.6218 95.50549 -2.996429
v -101.8437 102.219 11.33543
v -112.2938 90.16365 -18.41671
v -110.7297 92.10342 -19.95597
v -113.3998 88.79202 -17.32829
v -99.17355 105.5304 8.707749
v -106.2021 108.0773 10.34834
v -112.2417 105.2527 14.10642
v -105.358 103.4924 12.15573
v -104.6973 103.253 12.0015
v -104.4482 103.1627 11.94335
v -104.3287 103.1194 11.91547
v -103.2903 102.7432 11.67309
v -102.1952 102.3463 11.41746
v -102.1063 102.3141 11.39673
v -102.0984 102.3113 11.39488
v -102.0703 102.3011 11.38831
v -101.8437 102.219 11.33543
v -105.5186 103.4173 12.25568
v -105.5585 103.3987 12.28047
v -105.5704 103.3931 12.28785
v -105.66 103.3512 12.34363
v -106.6884 102.8702 12.98355
v -107.538 102.4729 13.51222
v -108.3778 102.0801 14.03477
v -108.4012 101.9792 14.09146
v -108.4535 101.753 14.21847
v -108.5994 101.1221 14.57283
v -113.7545 98.7112 17.78055
v -108.6577 100.8698 14.71454
v -108.8567 100.0095 15.19776
v -109.0205 99.30111 15.59564
v -109.1342 98.80938 15.87183
v -109.0183 98.61841 15.91456
v -108.9842 98.56219 15.92714
v -108.9807 98.55646 15.92842
v -108.9791 98.55379 15.92902
v -108.9771 98.55043 15.92977
v -108.9392 98.48805 15.94373
v -107.1841 95.59615 16.59079
v -107.1841 95.59615 16.59079
v -107.1841 95.59615 16.59079
v -109.8543 92.28474 19.21847
v -99.17355 105.5304 8.707749
v -117.7582 94.65033 -18.31537
v -106.2021 108.0773 10.34834
v -104.9516 98.81689 -5.62411
v -123.7978 91.82574 -14.55729
v -112.2417 105.2527 14.10642
v -125.3106 85.28426 -10.88317
v -113.7545 98.7112 17.78055
v -110.7297 92.10342 -19.95597
v -109.8543 92.28474 19.21847
v -112.9622 88.88268 2.258932
v -107.1841 95.59615 16.59079
v -115.6324 85.57127 4.886612
v -118.7402 82.1692 -12.07291
v -121.4104 78.8578 -9.445246
v -119.5031 81.22308 -11.32216
v -118.7402 82.1692 -12.07293
v -113.3998 88.79202 -17.32829
v -117.7582 94.65033 -18.31537
v -112.2938 90.16365 -18.41671
v -117.7582 94.65033 -18.31537
v -110.7297 92.10342 -19.95597
v -113.3998 88.79202 -17.32829
v -115.4388 89.53085 -16.85237
v -113.3998 88.79202 -17.32829
v -115.6921 89.62266 -16.79323
v -115.7632 89.64843 -16.77663
v -116.5627 89.93813 -16.59002
v -116.6844 89.98222 -16.56162
v -116.813 90.02883 -16.53159
v -116.8407 90.03886 -16.52513
v -116.9141 90.06547 -16.50799
v -123.7978 91.82574 -14.55729
v -117.7986 89.65182 -15.95763
v -118.3598 89.38937 -15.60846
v -118.7184 89.22163 -15.38527
v -118.8252 89.17171 -15.31885
v -119.632 88.7944 -14.81686
v -119.7462 88.74096 -14.74575
v -119.8406 88.69681 -14.68701
v -119.9339 88.65317 -14.62895
v -120.144 87.74479 -14.11874
v -120.6147 85.7095 -12.97559
v -120.6374 85.61137 -12.92047
v -120.6595 85.51578 -12.86678
v -120.6777 85.43707 -12.82257
v -120.6903 85.38243 -12.79189
v -125.3106 85.28426 -10.88317
v -120.6903 85.38243 -12.79189
v -119.6472 83.66368 -12.40732
v -119.3402 83.15778 -12.29412
v -119.3089 83.10614 -12.28257
v -119.2943 83.08219 -12.27721
v -119.2759 83.05193 -12.27044
v -118.9352 82.49052 -12.14482
v -118.7402 82.1692 -12.07293
v -119.5031 81.22308 -11.32216
v -118.7402 82.1692 -12.07293
v -121.4104 78.8578 -9.445246

vn 0.5340375 0.6622813 -0.5255354
vn 0.5340375 0.6622812 -0.5255356
vn 0.6286602 0.7621624 0.1545795
vn 0.3429499 0.3984705 0.8506507
vn 0.3429499 0.3984705 0.8506507
vn -0.1976515 -0.8546867 0.4800465
vn -0.4801698 -0.5992728 0.6405539
vn 0.623721 -0.7737287 0.1109772
vn -0.1976558 -0.8546852 0.4800472
vn -0.1976566 -0.854685 0.4800475
vn -0.1976563 -0.8546851 0.4800473
vn -0.1976554 -0.8546855 0.4800471
vn -0.1976544 -0.8546858 0.4800467
vn -0.1976595 -0.8546837 0.4800485
vn -0.1976571 -0.8546847 0.4800477
vn -0.1976566 -0.8546849 0.4800475
vn -0.1976568 -0.8546849 0.4800476
vn -0.1976568 -0.8546848 0.4800476
vn -0.1976566 -0.8546849 0.4800475
vn -0.1976569 -0.8546849 0.4800476
vn -0.1976558 -0.8546852 0.4800473
vn -0.1976544 -0.8546857 0.4800469
vn -0.1976563 -0.8546849 0.4800475
vn -0.1976572 -0.8546847 0.4800477
vn -0.05688221 -0.8950992 0.442224
vn 0.4768877 -0.8540479 0.2077987
vn 0.5095904 -0.8396558 0.1878724
vn 0.5095897 -0.8396559 0.1878728
vn 0.5095895 -0.8396561 0.187873
vn 0.5095879 -0.8396569 0.1878742
vn 0.5095869 -0.8396572 0.1878749
vn 0.5095856 -0.8396578 0.1878759
vn 0.5095878 -0.8396569 0.1878743
vn 0.5095886 -0.8396564 0.1878735
vn 0.5095891 -0.8396564 0.1878732
vn 0.5095891 -0.8396563 0.1878731
vn 0.5095882 -0.8396566 0.1878737
vn 0.5095888 -0.8396565 0.1878734
vn 0.5095897 -0.839656 0.1878728
vn 0.5604227 -0.8135452 0.1551477
vn 0.9032815 -0.3884337 -0.1822146
vn 0.9183229 -0.3327698 -0.2143534
vn 0.9183232 -0.3327689 -0.2143539
vn 0.9183233 -0.3327684 -0.2143543
vn 0.9183232 -0.3327683 -0.2143542
vn 0.9183231 -0.3327686 -0.214354
vn 0.918323 -0.3327691 -0.2143537
vn 0.9183232 -0.3327687 -0.2143539
vn 0.9183232 -0.3327691 -0.2143538
vn 0.9183231 -0.3327687 -0.2143539
vn 0.9183232 -0.3327688 -0.2143539
vn 0.918323 -0.3327691 -0.2143537
vn 0.9392664 -0.1578144 -0.3047512
vn 0.9183185 -0.332789 -0.2143425
vn 0.7891167 0.3690504 -0.4910159
vn 0.789116 0.3690514 -0.4910161
vn 0.7891159 0.3690518 -0.4910163
vn 0.7891151 0.3690528 -0.4910166
vn 0.7891163 0.3690512 -0.4910161
vn 0.7891173 0.3690499 -0.4910156
vn 0.7891187 0.3690477 -0.4910147
vn 0.7891437 0.369012 -0.4910015
vn 0.7891281 0.3690344 -0.4910099
vn 0.7891124 0.369057 -0.4910181
vn 0.7891146 0.3690537 -0.491017
vn 0.7891161 0.3690514 -0.4910161
vn 0.7891164 0.3690509 -0.4910159
vn 0.7891166 0.3690507 -0.4910159
vn 0.7891192 0.3690464 -0.491015
vn 0.8633302 0.2231796 -0.4526057
vn 0.5340374 0.6622812 -0.5255357
vn 0.5340374 0.6622812 -0.5255357
vn 0.5340374 0.6622812 -0.5255357
vn 0.3429499 0.3984705 0.8506507
vn -0.7891163 -0.3690512 0.4910159
vn 0.3429499 0.3984705 0.8506507
vn 0.6968229 -0.715201 0.05408917
vn 0.6076145 0.7331215 0.3055118
vn 0.5842009 0.702319 0.4067644
vn 0.5570541 0.6889184 -0.4637697
vn 0.5340374 0.6622812 -0.5255357
vn 0.5340374 0.6622812 -0.5255357
vn 0.5340374 0.6622812 -0.5255357
vn 0.5665217 0.699802 -0.4351211
vn 0.3429499 0.3984705 0.8506507
vn 0.5383419 0.6672703 -0.5147218
vn 0.5340374 0.6622812 -0.5255357
vn 0.5771705 0.7119771 -0.3999537
vn 0.5340323 0.6622853 -0.5255356
vn 0.5124778 0.6371654 -0.5756621
vn -0.7891163 -0.3690512 0.491016
vn 0.5340192 0.6622961 -0.5255354
vn -0.3429462 -0.3984659 -0.8506544
vn -0.3429499 -0.3984705 -0.8506507
vn -0.3429502 -0.3984702 -0.8506507
vn 0 0 0
vn -0.7891164 -0.3690512 0.491016
vn -0.7891163 -0.3690512 0.491016
vn -0.7891164 -0.3690512 0.491016
vn -0.3429502 -0.3984702 -0.8506507
vn -0.3429502 -0.3984702 -0.8506507
vn 0.7727804 -0.6345118 -0.01433117
vn 0.7727803 -0.6345118 -0.01433117
vn 0.7727804 -0.6345118 -0.01433117
vn 0.7727804 -0.6345118 -0.01433117
vn 0.7727804 -0.6345118 -0.01433117
vn 0.7727804 -0.6345118 -0.01433117
vn 0.7727804 -0.6345118 -0.01433117
vn 0.7727804 -0.6345118 -0.01433117
vn 0.7727804 -0.6345118 -0.01433117
vn 0.3429499 0.3984705 0.8506507
vn 0.3429499 0.3984705 0.8506507
vn 0.3429499 0.3984705 0.8506507
vn 0.3429499 0.3984705 0.8506507
vn 0.3429499 0.3984705 0.8506507
vn 0.3429499 0.3984705 0.8506507
vn 0.3429499 0.3984705 0.8506507
vn 0.3429499 0.3984705 0.8506507
vn 0.3429499 0.3984705 0.8506507
vn 0.3429499 0.3984705 0.8506507
vn 0.3429499 0.3984705 0.8506507
vn 0.3429499 0.3984705 0.8506507
vn 0.3429499 0.3984705 0.8506507
vn 0.3429498 0.3984705 0.8506507
vn 0.3429499 0.3984705 0.8506507
vn 0.3429499 0.3984705 0.8506507
vn 0.3429498 0.3984705 0.8506507
vn 0.3429499 0.3984705 0.8506507
vn 0.3429499 0.3984705 0.8506507
vn 0.3429499 0.3984705 0.8506507
vn 0.3429498 0.3984705 0.8506507
vn 0.3429499 0.3984705 0.8506507
vn 0.3429499 0.3984705 0.8506507
vn 0.3429499 0.3984705 0.8506507
vn 0.3429499 0.3984705 0.8506507
vn 0.3429499 0.3984705 0.8506507
vn 0.3429499 0.3984705 0.8506507
vn 0.3429499 0.3984705 0.8506507
vn 0.3429499 0.3984705 0.8506507
vn 0.3429499 0.3984705 0.8506507
vn 0.3429499 0.3984705 0.8506507
vn 0.3429498 0.3984705 0.8506507
vn 0.3429499 0.3984705 0.8506507
vn 0.3429498 0.3984705 0.8506507
vn 0.3429498 0.3984705 0.8506507
vn 0.3429499 0.3984705 0.8506507
vn 0.3429498 0.3984705 0.8506507
vn 0.3429498 0.3984705 0.8506507
vn 0.1976563 0.8546852 -0.4800474
vn -0.04084317 0.9110394 -0.4102916
vn -0.2936173 0.905668 -0.3058666
vn 0.1976562 0.854685 -0.4800473
vn -0.6924759 0.7191315 -0.0576829
vn -0.8385603 0.5379663 0.08607588
vn -0.9183232 0.3327686 0.2143539
vn -0.9183232 0.3327686 0.2143539
vn 0.1976563 0.854685 -0.4800474
vn 0.7727804 -0.6345118 -0.01433117
vn 0.7727804 -0.6345118 -0.01433117
vn 0.7727804 -0.6345118 -0.01433117
vn 0.7727804 -0.6345118 -0.01433117
vn 0.7727804 -0.6345118 -0.01433117
vn 0.7727804 -0.6345118 -0.01433117
vn 0.7727804 -0.6345118 -0.01433118
vn 0.7727803 -0.6345118 -0.01433118
vn -0.5924911 -0.7293296 0.3421003
vn -0.3429495 -0.39847 -0.8506511
vn -0.34295 -0.3984703 -0.8506507
vn -0.34295 -0.3984703 -0.8506508
vn -0.34295 -0.3984703 -0.8506507
vn -0.34295 -0.3984703 -0.8506507
vn -0.3429498 -0.3984702 -0.8506509
vn -0.3429498 -0.3984702 -0.8506509
vn -0.3429498 -0.3984702 -0.8506509
vn -0.3429498 -0.3984702 -0.8506509
vn -0.3429498 -0.3984702 -0.8506509
vn -0.3429498 -0.3984702 -0.8506508
vn -0.3429498 -0.3984702 -0.8506509
vn -0.3429498 -0.3984702 -0.8506508
vn -0.34295 -0.3984702 -0.8506508
vn -0.3429501 -0.3984703 -0.8506507
vn -0.34295 -0.3984702 -0.8506508
vn -0.34295 -0.3984702 -0.8506508
vn -0.34295 -0.3984702 -0.8506508
vn -0.34295 -0.3984702 -0.8506508
vn -0.34295 -0.3984702 -0.8506508
vn -0.34295 -0.3984702 -0.8506508
vn -0.34295 -0.3984702 -0.8506508
vn -0.3429502 -0.3984704 -0.8506507
vn -0.3429502 -0.3984704 -0.8506507
vn -0.3429502 -0.3984704 -0.8506507
vn -0.3429502 -0.3984704 -0.8506507
vn -0.3429502 -0.3984704 -0.8506507
vn -0.3429502 -0.3984704 -0.8506507
vn -0.3429502 -0.3984704 -0.8506507
vn -0.3429501 -0.3984704 -0.8506507
vn -0.3429501 -0.3984706 -0.8506505
vn -0.3429501 -0.3984706 -0.8506505
vn -0.3429501 -0.3984706 -0.8506505
vn -0.3429501 -0.3984706 -0.8506505
vn -0.3429501 -0.3984706 -0.8506505
vn -0.3429501 -0.3984706 -0.8506505
vn -0.3429501 -0.3984706 -0.8506505
vn -0.3429501 -0.3984706 -0.8506505
vn -0.34295 -0.3984703 -0.8506507
vn -0.34295 -0.3984703 -0.8506507
vn -0.34295 -0.3984703 -0.8506507

f 1//1 2//2 3//3
f 4//4 1//1 3//3
f 3//3 5//5 4//4
f 3//3 6//6 5//5
f 5//5 6//6 7//7
f 8//8 7//7 6//6
f 9//9 8//8 6//6
f 10//10 9//9 6//6
f 9//9 10//10 11//11
f 11//11 10//10 12//12
f 13//13 11//11 12//12
f 13//13 12//12 14//14
f 13//13 14//14 15//15
f 15//15 14//14 16//16
f 15//15 16//16 17//17
f 18//18 17//17 16//16
f 19//19 17//17 18//18
f 19//19 18//18 20//20
f 21//21 19//19 20//20
f 22//22 19//19 21//21
f 22//22 21//21 23//23
f 24//24 22//22 23//23
f 24//24 23//23 25//25
f 26//26 24//24 25//25
f 26//26 25//25 27//27
f 28//28 26//26 27//27
f 28//28 27//27 29//29
f 29//29 27//27 30//30
f 31//31 29//29 30//30
f 31//31 30//30 32//32
f 33//33 31//31 32//32
f 33//33 32//32 34//34
f 35//35 33//33 34//34
f 35//35 34//34 36//36
f 37//37 35//35 36//36
f 37//37 36//36 38//38
f 39//39 37//37 38//38
f 39//39 38//38 40//40
f 41//41 39//39 40//40
f 41//41 40//40 42//42
f 41//41 42//42 43//43
f 43//43 42//42 44//44
f 45//45 43//43 44//44
f 45//45 44//44 46//46
f 47//47 45//45 46//46
f 48//48 45//45 47//47
f 48//48 47//47 49//49
f 50//50 48//48 49//49
f 50//50 49//49 51//51
f 52//52 50//50 51//51
f 52//52 51//51 53//53
f 54//54 52//52 53//53
f 55//55 54//54 53//53
f 55//55 53//53 56//56
f 55//55 56//56 57//57
f 57//57 56//56 58//58
f 57//57 58//58 59//59
f 59//59 58//58 60//60
f 59//59 60//60 61//61
f 61//61 60//60 62//62
f 61//61 62//62 63//63
f 63//63 62//62 64//64
f 63//63 64//64 65//65
f 65//65 64//64 66//66
f 65//65 66//66 67//67
f 68//68 67//67 66//66
f 69//69 67//67 68//68
f 69//69 68//68 70//70
f 71//71 69//69 70//70
f 72//72 71//71 73//73
f 74//74 75//75 76//76
f 77//77 74//74 76//76
f 75//75 77//77 76//76
f 78//78 75//75 74//74
f 79//79 75//75 78//78
f 78//78 74//74 80//80
f 81//81 78//78 80//80
f 82//82 78//78 81//81
f 82//82 83//83 78//78
f 83//83 84//84 79//79
f 84//84 85//85 79//79
f 80//80 74//74 86//86
f 87//87 80//80 86//86
f 81//81 80//80 87//87
f 86//86 74//74 88//88
f 88//88 74//74 77//77
f 86//86 88//88 89//89
f 90//90 86//86 89//89
f 87//87 86//86 90//90
f 75//75 91//91 77//77
f 90//90 89//89 92//92
f 90//90 92//92 93//93
f 94//94 90//90 93//93
f 95//95 83//83 82//82
f 95//95 82//82 81//81
f 95//95 81//81 87//87
f 95//95 87//87 90//90
f 95//95 96//96 83//83
f 97//97 91//91 75//75
f 97//97 98//98 91//91
f 97//97 99//99 98//98
f 100//100 95//95 101//101
f 102//102 103//103 104//104
f 102//102 104//104 105//105
f 102//102 105//105 106//106
f 106//106 105//105 107//107
f 108//108 102//102 106//106
f 109//109 102//102 108//108
f 110//110 108//108 106//106
f 111//111 112//112 113//113
f 111//111 113//113 114//114
f 111//111 114//114 115//115
f 111//111 115//115 116//116
f 111//111 116//116 117//117
f 117//117 118//118 111//111
f 118//118 119//119 111//111
f 120//120 111//111 119//119
f 120//120 121//121 111//111
f 121//121 122//122 111//111
f 111//111 122//122 123//123
f 114//114 113//113 124//124
f 124//124 113//113 125//125
f 125//125 113//113 126//126
f 126//126 113//113 127//127
f 127//127 113//113 128//128
f 128//128 113//113 129//129
f 129//129 113//113 130//130
f 130//130 113//113 131//131
f 131//131 113//113 132//132
f 132//132 113//113 133//133
f 133//133 113//113 134//134
f 133//133 134//134 135//135
f 135//135 134//134 136//136
f 134//134 137//137 136//136
f 137//137 134//134 138//138
f 138//138 134//134 139//139
f 139//139 134//134 140//140
f 140//140 134//134 141//141
f 134//134 142//142 141//141
f 134//134 143//143 142//142
f 134//134 144//144 143//143
f 144//144 134//134 145//145
f 145//145 134//134 146//146
f 147//147 134//134 148//148
f 149//149 150//150 151//151
f 149//149 152//152 150//150
f 151//151 150//150 153//153
f 151//151 153//153 154//154
f 154//154 153//153 155//155
f 154//154 155//155 156//156
f 152//152 157//157 150//150
f 158//158 159//159 160//160
f 161//161 159//159 158//158
f 162//162 159//159 161//161
f 163//163 162//162 161//161
f 164//164 162//162 163//163
f 165//165 162//162 164//164
f 9//9 166//166 8//8
f 166//166 9//9 167//167
f 168//168 169//169 170//170
f 168//168 171//171 169//169
f 172//172 169//169 173//173
f 174//174 169//169 172//172
f 169//169 174//174 175//175
f 176//176 169//169 175//175
f 177//177 169//169 176//176
f 178//178 169//169 177//177
f 178//178 179//179 169//169
f 179//179 180//180 169//169
f 180//180 181//181 169//169
f 182//182 181//181 180//180
f 182//182 183//183 181//181
f 183//183 184//184 181//181
f 184//184 185//185 181//181
f 185//185 186//186 181//181
f 186//186 187//187 181//181
f 187//187 188//188 181//181
f 188//188 189//189 181//181
f 181//181 189//189 190//190
f 181//181 190//190 191//191
f 192//192 181//181 191//191
f 193//193 181//181 192//192
f 194//194 181//181 193//193
f 195//195 181//181 194//194
f 195//195 196//196 181//181
f 196//196 197//197 198//198
f 196//196 198//198 199//199
f 199//199 200//200 196//196
f 196//196 200//200 201//201
f 201//201 202//202 196//196
f 196//196 202//202 203//203
f 196//196 203//203 204//204
f 205//205 196//196 206//206
f 207//207 196//196 205//205
