v 117.5585 51.04089 62.60056
v 118.4633 62.00492 44.8001
v 117.5585 51.04089 62.60056
v 117.5585 51.04089 62.60056
v 115.4192 53.52312 64.02072
v 114.5634 54.51601 64.58879
v 114.5634 54.51601 64.58879
v 115.4682 65.48003 46.78833
v 116.373 76.44407 28.98786
v 114.6891 54.69384 64.70471
v 117.5042 78.04454 30.03116
v 114.7047 54.71593 64.71912
v 117.6447 78.24342 30.1608
v 114.7091 54.72214 64.72316
v 117.6842 78.29926 30.1972
v 114.7584 54.79187 64.76862
v 118.1277 78.9268 30.60627
v 115.366 55.65155 65.32901
v 118.1952 79.02232 30.66854
v 115.9421 56.46663 65.86033
v 116.0083 56.56039 65.92146
v 118.2666 79.12331 30.73436
v 116.1466 56.75597 66.04894
v 118.2819 79.14504 30.74853
v 116.5131 57.2746 66.38702
v 118.3227 79.20267 30.78609
v 116.4627 57.44366 66.48859
v 118.0453 80.13358 31.34538
v 117.8694 80.72418 31.70022
v 116.4502 57.48561 66.51379
v 117.7569 81.1017 31.92703
v 116.4465 57.49809 66.52129
v 117.7234 81.21404 31.99453
v 116.4184 57.59244 66.57797
v 117.4704 82.06316 32.50467
v 116.0959 58.67483 67.22827
v 117.4346 82.18343 32.57693
v 115.8295 59.56906 67.76553
v 117.405 82.28278 32.63662
v 115.5662 60.45293 68.29655
v 117.3758 82.38099 32.69563
v 115.4647 60.50651 68.32439
v 116.4624 82.86319 32.94621
v 115.2373 60.62655 68.38677
v 114.4158 83.9436 33.50765
v 114.6029 60.96146 68.56081
v 114.3492 61.09539 68.63042
v 114.3172 83.99569 33.53472
v 113.4841 61.55209 68.86774
v 114.221 84.04643 33.56109
v 112.7718 61.92813 69.06316
v 114.1419 84.08822 33.5828
v 112.2774 62.18916 69.1988
v 114.087 84.11722 33.59787
v 114.087 84.11722 33.59787
v 112.0573 62.14619 69.16115
v 112.1056 83.73053 33.25898
v 111.9925 62.13354 69.15006
v 111.5224 83.61671 33.15924
v 111.9858 62.13226 69.14893
v 111.4629 83.60509 33.14905
v 111.9828 62.13166 69.14841
v 111.4353 83.5997 33.14433
v 111.9789 62.1309 69.14774
v 111.4004 83.5929 33.13836
v 111.907 62.11687 69.13544
v 110.7532 83.46658 33.02767
v 108.5733 61.46623 68.56525
v 110.3828 83.39429 32.96432
v 108.5733 61.46623 68.56524
v 110.3828 83.39429 32.96432
v 108.5733 61.46623 68.56524
v 108.5733 61.46623 68.56524
v 107.7175 62.45912 69.13331
v 105.5782 64.94135 70.55347
v 105.5782 64.94135 70.55347
v 105.5782 64.94135 70.55347
v 108.5733 61.46623 68.56524
v 108.5733 61.46623 68.56524
v 108.5733 61.46623 68.56524
v 110.3828 83.39429 32.96432
v 110.3828 83.39429 32.96432
v 110.3828 83.39429 32.96432
v 108.5733 61.46623 68.56524
v 112.9865 66.3872 71.82058
v 108.5733 61.46623 68.56524
v 110.3828 83.39429 32.96432
v 108.5733 61.46623 68.56524
v 109.478 72.43027 50.76478
v 110.3828 83.39429 32.96432
v 106.483 75.90538 52.753
v 110.3828 83.39429 32.96433
v 110.3828 83.39429 32.96432
v 109.5271 84.38718 33.53238
v 114.796 88.31525 36.21966
v 110.3828 83.39429 32.96432
v 112.9865 66.3872 71.82058
v 107.3877 86.86941 34.95254
v 114.796 88.31525 36.21966
v 114.087 84.11722 33.59787
v 114.087 84.11722 33.59787
v 118.4633 62.00492 44.8001
v 117.5585 51.04089 62.60056
v 117.5585 51.04089 62.60056
v 115.4192 53.52312 64.02072
v 115.4682 65.48003 46.78833
v 114.5634 54.51601 64.58879
v 117.6136 75.00462 28.16431
v 119.3681 72.96896 26.99964
v 116.373 76.44407 28.98786
v 117.5585 51.04089 62.60056
v 121.4578 56.55809 66.19703
v 119.564 62.91474 70.01608
v 116.5131 57.2746 66.38702
v 116.1466 56.75597 66.04894
v 116.0083 56.56039 65.92146
v 115.9421 56.46663 65.86033
v 115.366 55.65155 65.32901
v 114.7584 54.79187 64.76862
v 114.7091 54.72214 64.72316
v 114.7047 54.71593 64.71912
v 114.6891 54.69384 64.70471
v 114.5634 54.51601 64.58879
v 116.4627 57.44366 66.48859
v 116.4502 57.48561 66.51379
v 116.4465 57.49809 66.52129
v 116.4184 57.59244 66.57797
v 116.0959 58.67483 67.22827
v 115.8295 59.56906 67.76553
v 115.5662 60.45293 68.29655
v 115.4647 60.50651 68.32439
v 115.2373 60.62655 68.38677
v 114.6029 60.96146 68.56081
v 112.9865 66.3872 71.82058
v 114.3492 61.09539 68.63042
v 113.4841 61.55209 68.86774
v 112.7718 61.92813 69.06316
v 112.2774 62.18916 69.1988
v 112.0573 62.14619 69.16115
v 111.9925 62.13354 69.15006
v 111.9858 62.13226 69.14893
v 111.9828 62.13166 69.14841
v 111.9789 62.1309 69.14774
v 111.907 62.11687 69.13544
v 108.5733 61.46623 68.56525
v 108.5733 61.46623 68.56524
v 108.5733 61.46623 68.56524
v 105.5782 64.94135 70.55347
v 117.5585 51.04089 62.60056
v 123.2674 78.48615 30.5961
v 121.4578 56.55809 66.19703
v 118.4633 62.00492 44.8001
v 121.3736 84.8428 34.41516
v 119.564 62.91474 70.01608
v 114.796 88.31525 36.21966
v 112.9865 66.3872 71.82058
v 119.3681 72.96896 26.99964
v 105.5782 64.94135 70.55347
v 109.478 72.43027 50.76478
v 108.5733 61.46623 68.56524
v 106.483 75.90538 52.753
v 110.3828 83.39429 32.96433
v 107.3877 86.86941 34.95254
v 109.5271 84.38718 33.53238
v 110.3828 83.39429 32.96432
v 116.373 76.44407 28.98786
v 123.2674 78.48615 30.5961
v 117.6136 75.00462 28.16431
v 123.2674 78.48615 30.5961
v 119.3681 72.96896 26.99964
v 116.373 76.44407 28.98786
v 117.5042 78.04454 30.03116
v 116.373 76.44407 28.98786
v 117.6447 78.24342 30.1608
v 117.6842 78.29926 30.1972
v 118.1277 78.9268 30.60627
v 118.1952 79.02232 30.66854
v 118.2666 79.12331 30.73436
v 118.2819 79.14504 30.74853
v 118.3227 79.20267 30.78609
v 121.3736 84.8428 34.41516
v 118.0453 80.13358 31.34538
v 117.8694 80.72418 31.70022
v 117.7569 81.1017 31.92703
v 117.7234 81.21404 31.99453
v 117.4704 82.06316 32.50467
v 117.4346 82.18343 32.57693
v 117.405 82.28278 32.63662
v 117.3758 82.38099 32.69563
v 116.4624 82.86319 32.94621
v 114.4158 83.9436 33.50765
v 114.3172 83.99569 33.53472
v 114.221 84.04643 33.56109
v 114.1419 84.08822 33.5828
v 114.087 84.11722 33.59787
v 114.796 88.31525 36.21966
v 114.087 84.11722 33.59787
v 112.1056 83.73053 33.25898
v 111.5224 83.61671 33.15924
v 111.4629 83.60509 33.14905
v 111.4353 83.5997 33.14433
v 111.4004 83.5929 33.13836
v 110.7532 83.46658 33.02767
v 110.3828 83.39429 32.96432
v 109.5271 84.38718 33.53238
v 110.3828 83.39429 32.96432
v 107.3877 86.86941 34.95254

vn 0.5990177 -0.6950226 -0.3976447
vn 0.5990177 -0.6950226 -0.3976448
vn 0.4266695 -0.8686827 0.2516813
vn -0.04323769 -0.5239504 0.8506506
vn -0.04323769 -0.5239504 0.8506506
vn -0.859404 0.4536948 0.2357665
vn -0.5991122 0.6139396 0.5139485
vn -0.9190204 -0.3130771 -0.23955
vn -0.8594016 0.4536983 0.2357684
vn -0.8594012 0.4536989 0.2357689
vn -0.8594014 0.4536987 0.2357686
vn -0.8594019 0.453698 0.2357681
vn -0.8594024 0.4536972 0.2357675
vn -0.8593995 0.4537011 0.2357708
vn -0.8594009 0.4536993 0.2357692
vn -0.8594012 0.4536989 0.2357689
vn -0.8594012 0.4536991 0.235769
vn -0.859401 0.4536991 0.2357691
vn -0.8594012 0.4536988 0.2357689
vn -0.859401 0.4536991 0.2357691
vn -0.8594016 0.4536983 0.2357685
vn -0.8594024 0.4536971 0.2357677
vn -0.8594013 0.4536987 0.2357688
vn -0.8594009 0.4536993 0.2357693
vn -0.9264138 0.3397797 0.1621953
vn -0.9772485 -0.1547825 -0.1450096
vn -0.9679378 -0.1889109 -0.1655575
vn -0.9679378 -0.1889102 -0.165557
vn -0.967938 -0.18891 -0.1655569
vn -0.9679386 -0.1889084 -0.1655557
vn -0.9679388 -0.1889073 -0.165555
vn -0.9679393 -0.188906 -0.1655539
vn -0.9679386 -0.1889082 -0.1655556
vn -0.9679382 -0.1889091 -0.1655563
vn -0.9679382 -0.1889096 -0.1655567
vn -0.9679381 -0.1889096 -0.1655568
vn -0.9679383 -0.1889087 -0.1655561
vn -0.9679382 -0.1889092 -0.1655565
vn -0.9679379 -0.1889102 -0.1655571
vn -0.9495531 -0.2431647 -0.1980401
vn -0.5650613 -0.6893516 -0.4533214
vn -0.5094712 -0.7208555 -0.4699003
vn -0.5094703 -0.7208561 -0.4699006
vn -0.5094697 -0.7208564 -0.4699008
vn -0.5094697 -0.7208564 -0.4699008
vn -0.5094701 -0.7208561 -0.4699006
vn -0.5094706 -0.720856 -0.4699004
vn -0.5094702 -0.7208562 -0.4699006
vn -0.5094706 -0.720856 -0.4699005
vn -0.5094702 -0.7208561 -0.4699005
vn -0.5094703 -0.7208562 -0.4699005
vn -0.5094706 -0.7208559 -0.4699004
vn -0.3301215 -0.7961287 -0.5071478
vn -0.5094906 -0.7208454 -0.4698949
vn 0.2474385 -0.8305357 -0.4989836
vn 0.2474397 -0.8305354 -0.4989834
vn 0.2474402 -0.8305354 -0.4989834
vn 0.2474413 -0.830535 -0.4989832
vn 0.2474394 -0.8305356 -0.4989834
vn 0.2474378 -0.8305361 -0.4989835
vn 0.2474351 -0.8305367 -0.4989837
vn 0.2473911 -0.8305482 -0.4989864
vn 0.2474187 -0.830541 -0.4989848
vn 0.2474464 -0.8305338 -0.4989829
vn 0.2474425 -0.8305348 -0.4989833
vn 0.2474396 -0.8305355 -0.4989834
vn 0.247439 -0.8305356 -0.4989835
vn 0.2474388 -0.8305357 -0.4989836
vn 0.2474339 -0.8305366 -0.4989845
vn 0.08179697 -0.850445 -0.519666
vn 0.5990177 -0.6950225 -0.397645
vn 0.5990177 -0.6950225 -0.397645
vn 0.5990177 -0.6950225 -0.397645
vn -0.04323769 -0.5239504 0.8506506
vn -0.2474394 0.8305357 0.4989833
vn -0.04323769 -0.5239504 0.8506506
vn -0.8706352 -0.3978605 -0.2893122
vn 0.3561628 -0.8497998 0.3885721
vn 0.3017319 -0.8244377 0.4788114
vn 0.5944319 -0.7304922 -0.3362022
vn 0.5990177 -0.6950225 -0.397645
vn 0.5990177 -0.6950225 -0.397645
vn 0.5990177 -0.6950225 -0.397645
vn 0.591378 -0.745294 -0.3079107
vn -0.04323769 -0.5239504 0.8506506
vn 0.5984176 -0.7016044 -0.3868432
vn 0.5990177 -0.6950225 -0.397645
vn 0.5868826 -0.7621349 -0.2733483
vn 0.599023 -0.6950192 -0.3976427
vn 0.6005381 -0.6623065 -0.448
vn -0.2474394 0.8305355 0.4989834
vn 0.5990367 -0.6950108 -0.3976369
vn 0.04324184 0.5239456 -0.8506534
vn 0.04323769 0.5239504 -0.8506506
vn 0.04323803 0.5239506 -0.8506504
vn 0 0 0
vn -0.2474393 0.8305357 0.4989834
vn -0.2474394 0.8305356 0.4989834
vn -0.2474394 0.8305357 0.4989834
vn 0.04323803 0.5239506 -0.8506504
vn 0.04323803 0.5239506 -0.8506504
vn -0.7995676 -0.4923615 -0.3439068
vn -0.7995675 -0.4923615 -0.3439068
vn -0.7995676 -0.4923615 -0.3439068
vn -0.7995676 -0.4923615 -0.3439068
vn -0.7995676 -0.4923615 -0.3439068
vn -0.7995676 -0.4923615 -0.3439068
vn -0.7995676 -0.4923615 -0.3439068
vn -0.7995676 -0.4923615 -0.3439068
vn -0.7995676 -0.4923615 -0.3439068
vn -0.04323769 -0.5239504 0.8506506
vn -0.04323769 -0.5239504 0.8506506
vn -0.04323769 -0.5239504 0.8506506
vn -0.04323769 -0.5239504 0.8506506
vn -0.04323769 -0.5239504 0.8506506
vn -0.04323769 -0.5239504 0.8506506
vn -0.04323769 -0.5239504 0.8506506
vn -0.04323769 -0.5239504 0.8506506
vn -0.04323769 -0.5239504 0.8506506
vn -0.04323769 -0.5239504 0.8506506
vn -0.04323769 -0.5239504 0.8506506
vn -0.04323769 -0.5239504 0.8506506
vn -0.04323769 -0.5239504 0.8506506
vn -0.04323768 -0.5239504 0.8506505
vn -0.04323769 -0.5239504 0.8506506
vn -0.04323769 -0.5239504 0.8506506
vn -0.04323768 -0.5239504 0.8506505
vn -0.04323769 -0.5239504 0.8506506
vn -0.04323769 -0.5239504 0.8506506
vn -0.04323769 -0.5239504 0.8506506
vn -0.04323768 -0.5239504 0.8506505
vn -0.04323769 -0.5239504 0.8506506
vn -0.04323769 -0.5239504 0.8506506
vn -0.04323769 -0.5239504 0.8506506
vn -0.04323769 -0.5239504 0.8506506
vn -0.04323769 -0.5239504 0.8506506
vn -0.04323769 -0.5239504 0.8506506
vn -0.04323769 -0.5239504 0.8506506
vn -0.04323769 -0.5239504 0.8506506
vn -0.04323769 -0.5239504 0.8506506
vn -0.04323769 -0.5239504 0.8506506
vn -0.04323768 -0.5239504 0.8506505
vn -0.04323769 -0.5239504 0.8506506
vn -0.04323768 -0.5239504 0.8506505
vn -0.04323768 -0.5239504 0.8506505
vn -0.04323769 -0.5239504 0.8506506
vn -0.04323768 -0.5239504 0.8506505
vn -0.04323768 -0.5239504 0.8506505
vn 0.8594015 -0.4536987 -0.2357686
vn 0.9602594 -0.2567925 -0.1093596
vn 0.9990512 -0.02712002 0.03407669
vn 0.8594013 -0.4536986 -0.2357686
vn 0.8739833 0.3926738 0.2862876
vn 0.7101237 0.5827952 0.3950622
vn 0.5094701 0.7208562 0.4699005
vn 0.5094701 0.7208562 0.4699005
vn 0.8594013 -0.4536987 -0.2357687
vn -0.7995676 -0.4923615 -0.3439068
vn -0.7995676 -0.4923615 -0.3439068
vn -0.7995676 -0.4923615 -0.3439068
vn -0.7995676 -0.4923615 -0.3439068
vn -0.7995676 -0.4923615 -0.3439068
vn -0.7995676 -0.4923615 -0.3439068
vn -0.7995676 -0.4923615 -0.3439068
vn -0.7995675 -0.4923615 -0.3439068
vn -0.5778011 0.7868383 0.2168672
vn 0.04323813 0.5239499 -0.8506509
vn 0.04323786 0.5239505 -0.8506505
vn 0.04323794 0.5239505 -0.8506505
vn 0.04323786 0.5239505 -0.8506505
vn 0.04323786 0.5239505 -0.8506505
vn 0.04323797 0.5239503 -0.8506507
vn 0.04323797 0.5239503 -0.8506507
vn 0.04323797 0.5239503 -0.8506507
vn 0.04323797 0.5239503 -0.8506507
vn 0.04323797 0.5239503 -0.8506507
vn 0.04323797 0.5239502 -0.8506506
vn 0.04323797 0.5239503 -0.8506507
vn 0.04323797 0.5239502 -0.8506506
vn 0.04323801 0.5239505 -0.8506505
vn 0.04323793 0.5239506 -0.8506505
vn 0.04323801 0.5239505 -0.8506505
vn 0.04323801 0.5239505 -0.8506505
vn 0.04323801 0.5239505 -0.8506505
vn 0.04323801 0.5239505 -0.8506505
vn 0.04323801 0.5239505 -0.8506505
vn 0.04323801 0.5239505 -0.8506505
vn 0.04323801 0.5239505 -0.8506505
vn 0.04323787 0.5239506 -0.8506505
vn 0.04323785 0.5239506 -0.8506504
vn 0.04323785 0.5239506 -0.8506504
vn 0.04323785 0.5239506 -0.8506504
vn 0.04323785 0.5239506 -0.8506504
vn 0.04323785 0.5239506 -0.8506504
vn 0.04323785 0.5239506 -0.8506504
vn 0.04323781 0.5239506 -0.8506505
vn 0.0432376 0.5239507 -0.8506504
vn 0.0432376 0.5239507 -0.8506504
vn 0.0432376 0.5239507 -0.8506504
vn 0.0432376 0.5239507 -0.8506504
vn 0.0432376 0.5239507 -0.8506504
vn 0.0432376 0.5239507 -0.8506504
vn 0.0432376 0.5239507 -0.8506504
vn 0.0432376 0.5239506 -0.8506504
vn 0.04323786 0.5239505 -0.8506505
vn 0.04323786 0.5239505 -0.8506505
vn 0.04323786 0.5239505 -0.8506505

f 1//1 2//2 3//3
f 4//4 1//1 3//3
f 3//3 5//5 4//4
f 3//3 6//6 5//5
f 5//5 6//6 7//7
f 8//8 7//7 6//6
f 9//9 8//8 6//6
f 10//10 9//9 6//6
f 9//9 10//10 11//11
f 11//11 10//10 12//12
f 13//13 11//11 12//12
f 13//13 12//12 14//14
f 13//13 14//14 15//15
f 15//15 14//14 16//16
f 15//15 16//16 17//17
f 18//18 17//17 16//16
f 19//19 17//17 18//18
f 19//19 18//18 20//20
f 21//21 19//19 20//20
f 22//22 19//19 21//21
f 22//22 21//21 23//23
f 24//24 22//22 23//23
f 24//24 23//23 25//25
f 26//26 24//24 25//25
f 26//26 25//25 27//27
f 28//28 26//26 27//27
f 28//28 27//27 29//29
f 29//29 27//27 30//30
f 31//31 29//29 30//30
f 31//31 30//30 32//32
f 33//33 31//31 32//32
f 33//33 32//32 34//34
f 35//35 33//33 34//34
f 35//35 34//34 36//36
f 37//37 35//35 36//36
f 37//37 36//36 38//38
f 39//39 37//37 38//38
f 39//39 38//38 40//40
f 41//41 39//39 40//40
f 41//41 40//40 42//42
f 41//41 42//42 43//43
f 43//43 42//42 44//44
f 45//45 43//43 44//44
f 45//45 44//44 46//46
f 47//47 45//45 46//46
f 48//48 45//45 47//47
f 48//48 47//47 49//49
f 50//50 48//48 49//49
f 50//50 49//49 51//51
f 52//52 50//50 51//51
f 52//52 51//51 53//53
f 54//54 52//52 53//53
f 55//55 54//54 53//53
f 55//55 53//53 56//56
f 55//55 56//56 57//57
f 57//57 56//56 58//58
f 57//57 58//58 59//59
f 59//59 58//58 60//60
f 59//59 60//60 61//61
f 61//61 60//60 62//62
f 61//61 62//62 63//63
f 63//63 62//62 64//64
f 63//63 64//64 65//65
f 65//65 64//64 66//66
f 65//65 66//66 67//67
f 68//68 67//67 66//66
f 69//69 67//67 68//68
f 69//69 68//68 70//70
f 71//71 69//69 70//70
f 72//72 71//71 73//73
f 74//74 75//75 76//76
f 77//77 74//74 76//76
f 75//75 77//77 76//76
f 78//78 75//75 74//74
f 79//79 75//75 78//78
f 78//78 74//74 80//80
f 81//81 78//78 80//80
f 82//82 78//78 81//81
f 82//82 83//83 78//78
f 83//83 84//84 79//79
f 84//84 85//85 79//79
f 80//80 74//74 86//86
f 87//87 80//80 86//86
f 81//81 80//80 87//87
f 86//86 74//74 88//88
f 88//88 74//74 77//77
f 86//86 88//88 89//89
f 90//90 86//86 89//89
f 87//87 86//86 90//90
f 75//75 91//91 77//77
f 90//90 89//89 92//92
f 90//90 92//92 93//93
f 94//94 90//90 93//93
f 95//95 83//83 82//82
f 95//95 82//82 81//81
f 95//95 81//81 87//87
f 95//95 87//87 90//90
f 95//95 96//96 83//83
f 97//97 91//91 75//75
f 97//97 98//98 91//91
f 97//97 99//99 98//98
f 100//100 95//95 101//101
f 102//102 103//103 104//104
f 102//102 104//104 105//105
f 102//102 105//105 106//106
f 106//106 105//105 107//107
f 108//108 102//102 106//106
f 109//109 102//102 108//108
f 110//110 108//108 106//106
f 111//111 112//112 113//113
f 111//111 113//113 114//114
f 111//111 114//114 115//115
f 111//111 115//115 116//116
f 111//111 116//116 117//117
f 117//117 118//118 111//111
f 118//118 119//119 111//111
f 120//120 111//111 119//119
f 120//120 121//121 111//111
f 121//121 122//122 111//111
f 111//111 122//122 123//123
f 114//114 113//113 124//124
f 124//124 113//113 125//125
f 125//125 113//113 126//126
f 126//126 113//113 127//127
f 127//127 113//113 128//128
f 128//128 113//113 129//129
f 129//129 113//113 130//130
f 130//130 113//113 131//131
f 131//131 113//113 132//132
f 132//132 113//113 133//133
f 133//133 113//113 134//134
f 133//133 134//134 135//135
f 135//135 134//134 136//136
f 134//134 137//137 136//136
f 137//137 134//134 138//138
f 138//138 134//134 139//139
f 139//139 134//134 140//140
f 140//140 134//134 141//141
f 134//134 142//142 141//141
f 134//134 143//143 142//142
f 134//134 144//144 143//143
f 144//144 134//134 145//145
f 145//145 134//134 146//146
f 147//147 134//134 148//148
f 149//149 150//150 151//151
f 149//149 152//152 150//150
f 151//151 150//150 153//153
f 151//151 153//153 154//154
f 154//154 153//153 155//155
f 154//154 155//155 156//156
f 152//152 157//157 150//150
f 158//158 159//159 160//160
f 161//161 159//159 158//158
f 162//162 159//159 161//161
f 163//163 162//162 161//161
f 164//164 162//162 163//163
f 165//165 162//162 164//164
f 9//9 166//166 8//8
f 166//166 9//9 167//167
f 168//168 169//169 170//170
f 168//168 171//171 169//169
f 172//172 169//169 173//173
f 174//174 169//169 172//172
f 169//169 174//174 175//175
f 176//176 169//169 175//175
f 177//177 169//169 176//176
f 178//178 169//169 177//177
f 178//178 179//179 169//169
f 179//179 180//180 169//169
f 180//180 181//181 169//169
f 182//182 181//181 180//180
f 182//182 183//183 181//181
f 183//183 184//184 181//181
f 184//184 185//185 181//181
f 185//185 186//186 181//181
f 186//186 187//187 181//181
f 187//187 188//188 181//181
f 188//188 189//189 181//181
f 181//181 189//189 190//190
f 181//181 190//190 191//191
f 192//192 181//181 191//191
f 193//193 181//181 192//192
f 194//194 181//181 193//193
f 195//195 181//181 194//194
f 195//195 196//196 181//181
f 196//196 197//197 198//198
f 196//196 198//198 199//199
f 199//199 200//200 196//196
f 196//196 200//200 201//201
f 201//201 202//202 196//196
f 196//196 202//202 203//203
f 196//196 203//203 204//204
f 205//205 196//196 206//206
f 207//207 196//196 205//205
