v -115.7438 20.54487 86.18483
v -106.5007 5.332276 97.1861
v -115.7438 20.54487 86.18483
v -115.7438 20.54487 86.18482
v -117.2919 18.0949 84.09769
v -117.9111 17.11491 83.26283
v -117.9111 17.11491 83.26283
v -108.6681 1.90232 94.26411
v -99.42503 -13.31028 105.2654
v -117.773 17.05704 83.06677
v -98.1821 -13.83109 103.5009
v -117.7558 17.04985 83.04241
v -98.02765 -13.8958 103.2817
v -117.751 17.04784 83.03558
v -97.98428 -13.91397 103.2201
v -117.6969 17.02515 82.9587
v -97.49693 -14.11818 102.5283
v -117.0292 16.7454 82.01094
v -97.42274 -14.14926 102.423
v -116.3962 16.48016 81.11234
v -116.3234 16.44965 81.00896
v -97.34432 -14.18213 102.3116
v -116.1715 16.38601 80.79335
v -97.32745 -14.1892 102.2877
v -115.7688 16.21724 80.22157
v -97.28269 -14.20795 102.2241
v -115.7891 16.09059 80.06352
v -97.39464 -14.90534 101.3538
v -97.46567 -15.3478 100.8017
v -115.7941 16.05916 80.02431
v -97.51106 -15.63062 100.4487
v -115.7956 16.04981 80.01263
v -97.52457 -15.71478 100.3437
v -115.807 15.97913 79.92443
v -97.62669 -16.35089 99.54987
v -115.9371 15.16825 78.91251
v -97.64115 -16.44099 99.43744
v -116.0447 14.49834 78.0765
v -97.6531 -16.51543 99.34454
v -116.151 13.83619 77.25018
v -97.66491 -16.589 99.25273
v -116.2338 13.75998 77.21435
v -98.41002 -17.27489 98.93031
v -116.4193 13.58922 77.13408
v -100.0795 -18.81168 98.20789
v -116.9368 13.11285 76.91015
v -117.1437 12.92234 76.82059
v -100.16 -18.88578 98.17306
v -117.8494 12.27272 76.51522
v -100.2384 -18.95795 98.13913
v -118.4305 11.73784 76.26378
v -100.303 -19.01739 98.11119
v -118.8338 11.36655 76.08924
v -100.3478 -19.05864 98.0918
v -100.3478 -19.05864 98.0918
v -119.0366 11.30048 76.16826
v -102.1728 -19.65321 98.80299
v -119.0963 11.28104 76.19152
v -102.71 -19.82821 99.01233
v -119.1024 11.27905 76.19389
v -102.7648 -19.84608 99.0337
v -119.1052 11.27813 76.195
v -102.7903 -19.85436 99.04361
v -119.1088 11.27697 76.19639
v -102.8224 -19.86483 99.05613
v -119.175 11.25539 76.2222
v -103.4185 -20.05903 99.28843
v -122.2458 10.255 77.41883
v -103.7597 -20.17019 99.42139
v -122.2458 10.255 77.41883
v -103.7597 -20.17019 99.42139
v -122.2458 10.255 77.41883
v -122.2458 10.255 77.41883
v -122.865 9.275013 76.58397
v -124.4131 6.825045 74.49683
v -124.4131 6.825045 74.49683
v -124.4131 6.825046 74.49683
v -122.2458 10.255 77.41883
v -122.2458 10.255 77.41883
v -122.2458 10.255 77.41883
v -103.7597 -20.17019 99.42139
v -103.7597 -20.17019 99.42139
v -103.7597 -20.17019 99.42139
v -122.2458 10.255 77.41883
v -117.5892 9.048138 71.83765
v -122.2458 10.255 77.41883
v -103.7597 -20.17019 99.42139
v -122.2458 10.255 77.41883
v -113.0028 -4.957596 88.42011
v -103.7597 -20.17019 99.42139
v -115.1701 -8.38755 85.49812
v -103.7597 -20.17017 99.42138
v -103.7597 -20.17019 99.42139
v -104.379 -21.15018 98.58653
v -99.10318 -21.37705 93.84021
v -103.7597 -20.17019 99.42139
v -117.5892 9.048138 71.83765
v -105.9271 -23.60014 96.49939
v -99.10318 -21.37705 93.84021
v -100.3478 -19.05864 98.0918
v -100.3478 -19.05864 98.0918
v -106.5007 5.332276 97.1861
v -115.7438 20.54487 86.18483
v -115.7438 20.54487 86.18482
v -117.2919 18.0949 84.09769
v -108.6681 1.90232 94.26411
v -117.9111 17.11491 83.26283
v -98.52729 -11.88954 106.4757
v -97.25769 -9.880319 108.1874
v -99.42503 -13.31028 105.2654
v -115.7438 20.54487 86.18483
v -111.4591 18.74952 80.10231
v -112.2235 13.98742 74.15952
v -115.7688 16.21724 80.22157
v -116.1715 16.38601 80.79335
v -116.3234 16.44965 81.00896
v -116.3962 16.48016 81.11234
v -117.0292 16.7454 82.01094
v -117.6969 17.02515 82.9587
v -117.751 17.04784 83.03558
v -117.7558 17.04985 83.04241
v -117.773 17.05704 83.06677
v -117.9111 17.11491 83.26283
v -115.7891 16.09059 80.06352
v -115.7941 16.05916 80.02431
v -115.7956 16.04981 80.01263
v -115.807 15.97913 79.92443
v -115.9371 15.16825 78.91251
v -116.0447 14.49834 78.0765
v -116.151 13.83619 77.25018
v -116.2338 13.75998 77.21435
v -116.4193 13.58922 77.13408
v -116.9368 13.11285 76.91015
v -117.5892 9.048138 71.83765
v -117.1437 12.92234 76.82059
v -117.8494 12.27272 76.51522
v -118.4305 11.73784 76.26378
v -118.8338 11.36655 76.08924
v -119.0366 11.30048 76.16826
v -119.0963 11.28104 76.19152
v -119.1024 11.27905 76.19389
v -119.1052 11.27813 76.195
v -119.1088 11.27697 76.19639
v -119.175 11.25539 76.2222
v -122.2458 10.255 77.41883
v -122.2458 10.255 77.41883
v -122.2458 10.255 77.41883
v -124.4131 6.825045 74.49683
v -115.7438 20.54487 86.18483
v -92.97301 -11.67567 102.1049
v -111.4591 18.74952 80.10231
v -106.5007 5.332276 97.1861
v -93.73743 -16.43777 96.16208
v -112.2235 13.98742 74.15952
v -99.10318 -21.37705 93.84021
v -117.5892 9.048138 71.83765
v -97.25769 -9.880319 108.1874
v -124.4131 6.825046 74.49683
v -113.0028 -4.957596 88.42011
v -122.2458 10.255 77.41883
v -115.1701 -8.38755 85.49812
v -103.7597 -20.17017 99.42138
v -105.9271 -23.60014 96.49939
v -104.379 -21.15018 98.58653
v -103.7597 -20.17019 99.42139
v -99.42503 -13.31028 105.2654
v -92.97301 -11.67567 102.1049
v -98.52729 -11.88954 106.4757
v -92.97301 -11.67567 102.1049
v -97.25769 -9.880319 108.1874
v -99.42503 -13.31028 105.2654
v -98.1821 -13.83109 103.5009
v -99.42503 -13.31028 105.2654
v -98.02765 -13.8958 103.2817
v -97.98428 -13.91397 103.2201
v -97.49693 -14.11818 102.5283
v -97.42274 -14.14926 102.423
v -97.34432 -14.18213 102.3116
v -97.32745 -14.1892 102.2877
v -97.28269 -14.20795 102.2241
v -93.73743 -16.43777 96.16208
v -97.39464 -14.90534 101.3538
v -97.46567 -15.3478 100.8017
v -97.51106 -15.63062 100.4487
v -97.52457 -15.71478 100.3437
v -97.62669 -16.35089 99.54987
v -97.64115 -16.44099 99.43744
v -97.6531 -16.51543 99.34454
v -97.66491 -16.589 99.25273
v -98.41002 -17.27489 98.93031
v -100.0795 -18.81168 98.20789
v -100.16 -18.88578 98.17306
v -100.2384 -18.95795 98.13913
v -100.303 -19.01739 98.11119
v -100.3478 -19.05864 98.0918
v -99.10318 -21.37705 93.84021
v -100.3478 -19.05864 98.0918
v -102.1728 -19.65321 98.80299
v -102.71 -19.82821 99.01233
v -102.7648 -19.84608 99.0337
v -102.7903 -19.85436 99.04361
v -102.8224 -19.86483 99.05613
v -103.4185 -20.05903 99.28843
v -103.7597 -20.17019 99.42139
v -104.379 -21.15018 98.58653
v -103.7597 -20.17019 99.42139
v -105.9271 -23.60014 96.49939

vn 0.4334681 0.685991 0.5843989
vn 0.4334682 0.6859909 0.584399
vn 0.04165442 0.9939563 0.101568
vn -0.4417073 0.7269816 -0.5257307
vn -0.4417073 0.7269816 -0.5257307
vn -0.7010706 -0.6453462 -0.3033623
vn -0.4915785 -0.5762857 -0.6528751
vn -0.8660054 -0.1924108 0.4615332
vn -0.7010679 -0.6453475 -0.3033658
vn -0.7010675 -0.6453477 -0.3033665
vn -0.7010676 -0.6453477 -0.3033662
vn -0.7010682 -0.6453475 -0.3033653
vn -0.7010687 -0.6453472 -0.3033645
vn -0.7010658 -0.6453482 -0.3033694
vn -0.7010672 -0.6453477 -0.303367
vn -0.7010674 -0.6453477 -0.3033665
vn -0.7010674 -0.6453477 -0.3033667
vn -0.7010673 -0.6453477 -0.3033668
vn -0.7010675 -0.6453477 -0.3033665
vn -0.7010673 -0.6453478 -0.3033668
vn -0.7010679 -0.6453475 -0.3033659
vn -0.7010688 -0.6453471 -0.3033646
vn -0.7010676 -0.6453475 -0.3033664
vn -0.7010671 -0.6453478 -0.3033671
vn -0.777486 -0.6025832 -0.1800265
vn -0.8949214 -0.3156657 0.3153905
vn -0.8915823 -0.2904598 0.34744
vn -0.8915823 -0.2904603 0.3474393
vn -0.8915824 -0.2904605 0.3474391
vn -0.8915828 -0.2904617 0.3474374
vn -0.8915828 -0.2904624 0.3474363
vn -0.8915831 -0.2904633 0.3474349
vn -0.8915827 -0.2904617 0.3474372
vn -0.8915824 -0.2904611 0.3474382
vn -0.8915825 -0.2904608 0.3474388
vn -0.8915824 -0.2904608 0.3474388
vn -0.8915825 -0.2904614 0.3474379
vn -0.8915825 -0.2904611 0.3474384
vn -0.8915823 -0.2904603 0.3474393
vn -0.8830753 -0.2488787 0.3977911
vn -0.6048554 0.1914837 0.772971
vn -0.5598214 0.2345724 0.7947175
vn -0.5598206 0.2345731 0.7947178
vn -0.5598201 0.2345735 0.7947181
vn -0.5598201 0.2345735 0.794718
vn -0.5598204 0.2345733 0.7947178
vn -0.5598208 0.234573 0.7947177
vn -0.5598205 0.2345733 0.7947178
vn -0.5598208 0.234573 0.7947178
vn -0.5598205 0.2345732 0.7947178
vn -0.5598206 0.2345733 0.7947178
vn -0.5598208 0.234573 0.7947177
vn -0.4106865 0.3571491 0.8389167
vn -0.5598372 0.2345579 0.7947106
vn 0.09987662 0.6221979 0.7764628
vn 0.09987778 0.6221982 0.7764623
vn 0.09987821 0.6221984 0.7764623
vn 0.09987932 0.6221986 0.7764618
vn 0.0998774 0.6221982 0.7764625
vn 0.09987585 0.622198 0.776463
vn 0.09987327 0.6221973 0.7764637
vn 0.09983045 0.6221883 0.7764765
vn 0.09985734 0.6221939 0.7764685
vn 0.09988424 0.6221998 0.7764604
vn 0.0998804 0.6221989 0.7764617
vn 0.09987767 0.6221983 0.7764624
vn 0.09987711 0.6221981 0.7764626
vn 0.09987687 0.622198 0.7764627
vn 0.09987243 0.6221966 0.7764645
vn -0.05088894 0.564749 0.8236923
vn 0.4334683 0.6859908 0.5843991
vn 0.4334683 0.6859908 0.5843991
vn 0.4334683 0.6859908 0.5843991
vn -0.4417073 0.7269816 -0.5257307
vn -0.09987739 -0.6221983 -0.7764624
vn -0.4417073 0.7269816 -0.5257307
vn -0.8351656 -0.1191413 0.5369396
vn -0.05434886 0.9983174 -0.02021548
vn -0.1207535 0.9870981 -0.1051486
vn 0.4009899 0.7359084 0.5455696
vn 0.4334683 0.6859908 0.5843991
vn 0.4334683 0.6859908 0.5843991
vn 0.4334683 0.6859908 0.5843991
vn 0.3856656 0.757223 0.5271391
vn -0.4417073 0.7269816 -0.5257307
vn 0.4278356 0.6951414 0.5776983
vn 0.4334683 0.6859908 0.5843991
vn 0.3666448 0.7819068 0.504176
vn 0.4334735 0.6859909 0.584395
vn 0.4592121 0.641104 0.6149067
vn -0.09987739 -0.6221982 -0.7764624
vn 0.4334868 0.6859915 0.5843845
vn 0.4417103 -0.7269769 0.5257347
vn 0.4417073 -0.7269816 0.5257307
vn 0.4417076 -0.7269816 0.5257304
vn 0 0 0
vn -0.09987736 -0.6221983 -0.7764625
vn -0.09987739 -0.6221982 -0.7764625
vn -0.09987739 -0.6221983 -0.7764626
vn 0.4417076 -0.7269816 0.5257304
vn 0.4417076 -0.7269816 0.5257304
vn -0.7854936 -0.03024617 0.6181305
vn -0.7854935 -0.03024616 0.6181304
vn -0.7854936 -0.03024617 0.6181305
vn -0.7854936 -0.03024617 0.6181305
vn -0.7854936 -0.03024617 0.6181305
vn -0.7854936 -0.03024617 0.6181305
vn -0.7854936 -0.03024617 0.6181305
vn -0.7854936 -0.03024617 0.6181305
vn -0.7854936 -0.03024617 0.6181305
vn -0.4417073 0.7269816 -0.5257307
vn -0.4417073 0.7269816 -0.5257307
vn -0.4417073 0.7269816 -0.5257307
vn -0.4417073 0.7269816 -0.5257307
vn -0.4417073 0.7269816 -0.5257307
vn -0.4417073 0.7269816 -0.5257307
vn -0.4417073 0.7269816 -0.5257307
vn -0.4417073 0.7269816 -0.5257307
vn -0.4417073 0.7269816 -0.5257307
vn -0.4417073 0.7269816 -0.5257307
vn -0.4417073 0.7269816 -0.5257307
vn -0.4417073 0.7269816 -0.5257307
vn -0.4417073 0.7269816 -0.5257307
vn -0.4417073 0.7269816 -0.5257306
vn -0.4417073 0.7269816 -0.5257307
vn -0.4417073 0.7269816 -0.5257307
vn -0.4417073 0.7269816 -0.5257306
vn -0.4417073 0.7269816 -0.5257307
vn -0.4417073 0.7269816 -0.5257307
vn -0.4417073 0.7269816 -0.5257307
vn -0.4417073 0.7269816 -0.5257306
vn -0.4417073 0.7269816 -0.5257307
vn -0.4417073 0.7269816 -0.5257307
vn -0.4417073 0.7269816 -0.5257307
vn -0.4417073 0.7269816 -0.5257307
vn -0.4417073 0.7269816 -0.5257307
vn -0.4417073 0.7269816 -0.5257307
vn -0.4417073 0.7269816 -0.5257307
vn -0.4417073 0.7269816 -0.5257307
vn -0.4417073 0.7269816 -0.5257307
vn -0.4417073 0.7269816 -0.5257307
vn -0.4417073 0.7269816 -0.5257306
vn -0.4417073 0.7269816 -0.5257307
vn -0.4417073 0.7269816 -0.5257306
vn -0.4417073 0.7269816 -0.5257306
vn -0.4417073 0.7269816 -0.5257307
vn -0.4417073 0.7269816 -0.5257306
vn -0.4417073 0.7269816 -0.5257306
vn 0.7010677 0.6453477 0.3033662
vn 0.8197903 0.5651159 0.09267338
vn 0.8878816 0.438277 -0.1399286
vn 0.7010676 0.6453475 0.3033661
vn 0.8373988 0.1237873 -0.5323912
vn 0.7188247 -0.06386349 -0.6922519
vn 0.5598204 -0.2345733 -0.7947178
vn 0.5598205 -0.2345733 -0.7947178
vn 0.7010676 0.6453476 0.3033663
vn -0.7854936 -0.03024617 0.6181305
vn -0.7854936 -0.03024617 0.6181305
vn -0.7854936 -0.03024617 0.6181305
vn -0.7854936 -0.03024617 0.6181305
vn -0.7854936 -0.03024617 0.6181305
vn -0.7854936 -0.03024617 0.6181305
vn -0.7854936 -0.03024617 0.6181305
vn -0.7854935 -0.03024617 0.6181304
vn -0.334881 -0.8191696 -0.4656352
vn 0.4417076 -0.7269812 0.5257311
vn 0.4417074 -0.7269816 0.5257305
vn 0.4417075 -0.7269816 0.5257306
vn 0.4417075 -0.7269816 0.5257306
vn 0.4417075 -0.7269816 0.5257306
vn 0.4417075 -0.7269815 0.5257308
vn 0.4417075 -0.7269815 0.5257308
vn 0.4417075 -0.7269815 0.5257308
vn 0.4417075 -0.7269815 0.5257308
vn 0.4417075 -0.7269815 0.5257308
vn 0.4417075 -0.7269814 0.5257307
vn 0.4417075 -0.7269815 0.5257308
vn 0.4417075 -0.7269814 0.5257307
vn 0.4417076 -0.7269816 0.5257306
vn 0.4417075 -0.7269816 0.5257305
vn 0.4417076 -0.7269816 0.5257306
vn 0.4417076 -0.7269816 0.5257306
vn 0.4417076 -0.7269816 0.5257306
vn 0.4417076 -0.7269816 0.5257306
vn 0.4417076 -0.7269816 0.5257306
vn 0.4417076 -0.7269816 0.5257306
vn 0.4417076 -0.7269816 0.5257306
vn 0.4417075 -0.7269817 0.5257304
vn 0.4417075 -0.7269818 0.5257304
vn 0.4417075 -0.7269818 0.5257304
vn 0.4417075 -0.7269818 0.5257304
vn 0.4417075 -0.7269818 0.5257304
vn 0.4417075 -0.7269818 0.5257304
vn 0.4417075 -0.7269818 0.5257304
vn 0.4417074 -0.7269817 0.5257304
vn 0.4417073 -0.7269819 0.5257304
vn 0.4417073 -0.7269819 0.5257304
vn 0.4417073 -0.7269819 0.5257304
vn 0.4417073 -0.7269819 0.5257304
vn 0.4417073 -0.7269819 0.5257304
vn 0.4417073 -0.7269819 0.5257304
vn 0.4417073 -0.7269819 0.5257304
vn 0.4417072 -0.7269818 0.5257304
vn 0.4417075 -0.7269816 0.5257306
vn 0.4417075 -0.7269816 0.5257306
vn 0.4417074 -0.7269816 0.5257305

f 1//1 2//2 3//3
f 4//4 1//1 3//3
f 3//3 5//5 4//4
f 3//3 6//6 5//5
f 5//5 6//6 7//7
f 8//8 7//7 6//6
f 9//9 8//8 6//6
f 10//10 9//9 6//6
f 9//9 10//10 11//11
f 11//11 10//10 12//12
f 13//13 11//11 12//12
f 13//13 12//12 14//14
f 13//13 14//14 15//15
f 15//15 14//14 16//16
f 15//15 16//16 17//17
f 18//18 17//17 16//16
f 19//19 17//17 18//18
f 19//19 18//18 20//20
f 21//21 19//19 20//20
f 22//22 19//19 21//21
f 22//22 21//21 23//23
f 24//24 22//22 23//23
f 24//24 23//23 25//25
f 26//26 24//24 25//25
f 26//26 25//25 27//27
f 28//28 26//26 27//27
f 28//28 27//27 29//29
f 29//29 27//27 30//30
f 31//31 29//29 30//30
f 31//31 30//30 32//32
f 33//33 31//31 32//32
f 33//33 32//32 34//34
f 35//35 33//33 34//34
f 35//35 34//34 36//36
f 37//37 35//35 36//36
f 37//37 36//36 38//38
f 39//39 37//37 38//38
f 39//39 38//38 40//40
f 41//41 39//39 40//40
f 41//41 40//40 42//42
f 41//41 42//42 43//43
f 43//43 42//42 44//44
f 45//45 43//43 44//44
f 45//45 44//44 46//46
f 47//47 45//45 46//46
f 48//48 45//45 47//47
f 48//48 47//47 49//49
f 50//50 48//48 49//49
f 50//50 49//49 51//51
f 52//52 50//50 51//51
f 52//52 51//51 53//53
f 54//54 52//52 53//53
f 55//55 54//54 53//53
f 55//55 53//53 56//56
f 55//55 56//56 57//57
f 57//57 56//56 58//58
f 57//57 58//58 59//59
f 59//59 58//58 60//60
f 59//59 60//60 61//61
f 61//61 60//60 62//62
f 61//61 62//62 63//63
f 63//63 62//62 64//64
f 63//63 64//64 65//65
f 65//65 64//64 66//66
f 65//65 66//66 67//67
f 68//68 67//67 66//66
f 69//69 67//67 68//68
f 69//69 68//68 70//70
f 71//71 69//69 70//70
f 72//72 71//71 73//73
f 74//74 75//75 76//76
f 77//77 74//74 76//76
f 75//75 77//77 76//76
f 78//78 75//75 74//74
f 79//79 75//75 78//78
f 78//78 74//74 80//80
f 81//81 78//78 80//80
f 82//82 78//78 81//81
f 82//82 83//83 78//78
f 83//83 84//84 79//79
f 84//84 85//85 79//79
f 80//80 74//74 86//86
f 87//87 80//80 86//86
f 81//81 80//80 87//87
f 86//86 74//74 88//88
f 88//88 74//74 77//77
f 86//86 88//88 89//89
f 90//90 86//86 89//89
f 87//87 86//86 90//90
f 75//75 91//91 77//77
f 90//90 89//89 92//92
f 90//90 92//92 93//93
f 94//94 90//90 93//93
f 95//95 83//83 82//82
f 95//95 82//82 81//81
f 95//95 81//81 87//87
f 95//95 87//87 90//90
f 95//95 96//96 83//83
f 97//97 91//91 75//75
f 97//97 98//98 91//91
f 97//97 99//99 98//98
f 100//100 95//95 101//101
f 102//102 103//103 104//104
f 102//102 104//104 105//105
f 102//102 105//105 106//106
f 106//106 105//105 107//107
f 108//108 102//102 106//106
f 109//109 102//102 108//108
f 110//110 108//108 106//106
f 111//111 112//112 113//113
f 111//111 113//113 114//114
f 111//111 114//114 115//115
f 111//111 115//115 116//116
f 111//111 116//116 117//117
f 117//117 118//118 111//111
f 118//118 119//119 111//111
f 120//120 111//111 119//119
f 120//120 121//121 111//111
f 121//121 122//122 111//111
f 111//111 122//122 123//123
f 114//114 113//113 124//124
f 124//124 113//113 125//125
f 125//125 113//113 126//126
f 126//126 113//113 127//127
f 127//127 113//113 128//128
f 128//128 113//113 129//129
f 129//129 113//113 130//130
f 130//130 113//113 131//131
f 131//131 113//113 132//132
f 132//132 113//113 133//133
f 133//133 113//113 134//134
f 133//133 134//134 135//135
f 135//135 134//134 136//136
f 134//134 137//137 136//136
f 137//137 134//134 138//138
f 138//138 134//134 139//139
f 139//139 134//134 140//140
f 140//140 134//134 141//141
f 134//134 142//142 141//141
f 134//134 143//143 142//142
f 134//134 144//144 143//143
f 144//144 134//134 145//145
f 145//145 134//134 146//146
f 147//147 134//134 148//148
f 149//149 150//150 151//151
f 149//149 152//152 150//150
f 151//151 150//150 153//153
f 151//151 153//153 154//154
f 154//154 153//153 155//155
f 154//154 155//155 156//156
f 152//152 157//157 150//150
f 158//158 159//159 160//160
f 161//161 159//159 158//158
f 162//162 159//159 161//161
f 163//163 162//162 161//161
f 164//164 162//162 163//163
f 165//165 162//162 164//164
f 9//9 166//166 8//8
f 166//166 9//9 167//167
f 168//168 169//169 170//170
f 168//168 171//171 169//169
f 172//172 169//169 173//173
f 174//174 169//169 172//172
f 169//169 174//174 175//175
f 176//176 169//169 175//175
f 177//177 169//169 176//176
f 178//178 169//169 177//177
f 178//178 179//179 169//169
f 179//179 180//180 169//169
f 180//180 181//181 169//169
f 182//182 181//181 180//180
f 182//182 183//183 181//181
f 183//183 184//184 181//181
f 184//184 185//185 181//181
f 185//185 186//186 181//181
f 186//186 187//187 181//181
f 187//187 188//188 181//181
f 188//188 189//189 181//181
f 181//181 189//189 190//190
f 181//181 190//190 191//191
f 192//192 181//181 191//191
f 193//193 181//181 192//192
f 194//194 181//181 193//193
f 195//195 181//181 194//194
f 195//195 196//196 181//181
f 196//196 197//197 198//198
f 196//196 198//198 199//199
f 199//199 200//200 196//196
f 196//196 200//200 201//201
f 201//201 202//202 196//196
f 196//196 202//202 203//203
f 196//196 203//203 204//204
f 205//205 196//196 206//206
f 207//207 196//196 205//205
