v 7.65097 -56.81082 132.7852
v 25.53444 -45.94498 132.7852
v 7.65097 -56.81082 132.7852
v 7.65097 -56.81082 132.7852
v 5.88456 -53.90358 133.8728
v 5.177995 -52.74069 134.3078
v 5.177995 -52.74069 134.3078
v 23.06146 -41.87486 134.3078
v 40.94493 -31.00902 134.3078
v 5.167342 -52.72316 134.5537
v 40.84906 -30.85123 136.5204
v 5.166019 -52.72098 134.5842
v 40.83715 -30.83162 136.7953
v 5.165648 -52.72037 134.5928
v 40.83381 -30.82611 136.8725
v 5.16147 -52.71349 134.6892
v 40.79622 -30.76425 137.74
v 5.109976 -52.62874 135.8776
v 40.79049 -30.75483 137.8721
v 5.061152 -52.54838 137.0044
v 5.055534 -52.53914 137.1341
v 40.78444 -30.74487 138.0117
v 5.04382 -52.51986 137.4044
v 40.78314 -30.74273 138.0417
v 5.012753 -52.46873 138.1214
v 40.77969 -30.73705 138.1214
v 4.932057 -52.33591 138.2529
v 40.33535 -30.00573 138.8453
v 40.05344 -29.54175 139.3046
v 4.912036 -52.30296 138.2855
v 39.87324 -29.24518 139.5982
v 4.906077 -52.29315 138.2952
v 39.81962 -29.15692 139.6855
v 4.861045 -52.21904 138.3686
v 39.41431 -28.48986 140.3458
v 4.344395 -51.36871 139.2103
v 39.35691 -28.39538 140.4393
v 3.917561 -50.66621 139.9057
v 39.30949 -28.31732 140.5166
v 3.49567 -49.97184 140.593
v 39.26261 -28.24017 140.593
v 3.434563 -49.87127 140.5832
v 38.71264 -27.33501 140.5046
v 3.297647 -49.64593 140.5612
v 37.4804 -25.30693 140.3066
v 2.915674 -49.01726 140.4998
v 2.762915 -48.76585 140.4752
v 37.42098 -25.20914 140.297
v 2.242037 -47.90856 140.3915
v 37.36311 -25.11389 140.2877
v 1.813148 -47.20268 140.3226
v 37.31545 -25.03546 140.2801
v 1.515436 -46.71269 140.2748
v 37.28237 -24.98102 140.2747
v 37.28237 -24.98101 140.2747
v 1.439159 -46.58715 140.1011
v 36.59589 -23.85117 138.712
v 1.41671 -46.5502 140.05
v 36.39383 -23.51862 138.252
v 1.414417 -46.54643 140.0448
v 36.3732 -23.48466 138.205
v 1.413355 -46.54468 140.0424
v 36.36364 -23.46892 138.1833
v 1.41201 -46.54247 140.0393
v 36.35155 -23.44902 138.1557
v 1.387096 -46.50146 139.9826
v 36.12732 -23.07998 137.6453
v 0.2320461 -44.60043 137.3531
v 35.99898 -22.86876 137.3531
v 0.2320442 -44.60043 137.3531
v 35.99898 -22.86876 137.3531
v 0.2320442 -44.60043 137.3531
v 0.2320442 -44.60043 137.3531
v -0.4745216 -43.43753 137.7882
v -2.240932 -40.5303 138.8758
v -2.240932 -40.5303 138.8758
v -2.240931 -40.5303 138.8758
v 0.2320442 -44.60043 137.3531
v 0.2320442 -44.60043 137.3531
v 0.2320442 -44.60043 137.3531
v 35.99898 -22.86876 137.3531
v 35.99898 -22.86876 137.3531
v 35.99898 -22.86876 137.3531
v 0.2320442 -44.60043 137.3531
v 0.3258533 -44.75482 144.7191
v 0.2320442 -44.60043 137.3531
v 35.99898 -22.86876 137.3531
v 0.2320442 -44.60043 137.3531
v 18.11551 -33.73459 137.3531
v 35.99898 -22.86876 137.3531
v 15.64254 -29.66446 138.8758
v 35.99896 -22.86876 137.3531
v 35.99898 -22.86876 137.3531
v 35.29242 -21.70586 137.7882
v 36.09279 -23.02315 144.719
v 35.99898 -22.86876 137.3531
v 0.3258533 -44.75482 144.7191
v 33.52601 -18.79863 138.8758
v 36.09279 -23.02315 144.719
v 37.28237 -24.98101 140.2747
v 37.28237 -24.98102 140.2747
v 25.53444 -45.94498 132.7852
v 7.65097 -56.81082 132.7852
v 7.65097 -56.81082 132.7852
v 5.88456 -53.90358 133.8728
v 23.06146 -41.87486 134.3078
v 5.177995 -52.74069 134.3078
v 41.96928 -32.69492 133.6771
v 43.41791 -35.07914 132.7852
v 40.94493 -31.00902 134.3078
v 7.65097 -56.81082 132.7852
v 7.320484 -56.26689 140.4123
v 4.286322 -51.27313 145.3555
v 5.012753 -52.46873 138.1214
v 5.04382 -52.51986 137.4044
v 5.055534 -52.53914 137.1341
v 5.061152 -52.54838 137.0044
v 5.109976 -52.62874 135.8776
v 5.16147 -52.71349 134.6892
v 5.165648 -52.72037 134.5928
v 5.166019 -52.72098 134.5842
v 5.167342 -52.72316 134.5537
v 5.177995 -52.74069 134.3078
v 4.932057 -52.33591 138.2529
v 4.912036 -52.30296 138.2855
v 4.906077 -52.29315 138.2952
v 4.861045 -52.21904 138.3686
v 4.344395 -51.36871 139.2103
v 3.917561 -50.66621 139.9057
v 3.49567 -49.97184 140.593
v 3.434563 -49.87127 140.5832
v 3.297647 -49.64593 140.5612
v 2.915674 -49.01726 140.4998
v 0.3258533 -44.75482 144.7191
v 2.762915 -48.76585 140.4752
v 2.242037 -47.90856 140.3915
v 1.813148 -47.20268 140.3226
v 1.515436 -46.71269 140.2748
v 1.439159 -46.58715 140.1011
v 1.41671 -46.5502 140.05
v 1.414417 -46.54643 140.0448
v 1.413355 -46.54468 140.0424
v 1.41201 -46.54247 140.0393
v 1.387096 -46.50146 139.9826
v 0.2320461 -44.60043 137.3531
v 0.2320442 -44.60043 137.3531
v 0.2320442 -44.60043 137.3531
v -2.240932 -40.5303 138.8758
v 7.65097 -56.81082 132.7852
v 43.08742 -34.53522 140.4123
v 7.320484 -56.26689 140.4123
v 25.53444 -45.94498 132.7852
v 40.05325 -29.54145 145.3555
v 4.286322 -51.27313 145.3555
v 36.09279 -23.02315 144.719
v 0.3258533 -44.75482 144.7191
v 43.41791 -35.07914 132.7852
v -2.240931 -40.5303 138.8758
v 18.11551 -33.73459 137.3531
v 0.2320442 -44.60043 137.3531
v 15.64254 -29.66446 138.8758
v 35.99896 -22.86876 137.3531
v 33.52601 -18.79863 138.8758
v 35.29242 -21.70586 137.7882
v 35.99898 -22.86876 137.3531
v 40.94493 -31.00902 134.3078
v 43.08742 -34.53522 140.4123
v 41.96928 -32.69492 133.6771
v 43.08742 -34.53522 140.4123
v 43.41791 -35.07914 132.7852
v 40.94493 -31.00902 134.3078
v 40.84906 -30.85123 136.5204
v 40.94493 -31.00902 134.3078
v 40.83715 -30.83162 136.7953
v 40.83381 -30.82611 136.8725
v 40.79622 -30.76425 137.74
v 40.79049 -30.75483 137.8721
v 40.78444 -30.74487 138.0117
v 40.78314 -30.74273 138.0417
v 40.77969 -30.73705 138.1214
v 40.05325 -29.54145 145.3555
v 40.33535 -30.00573 138.8453
v 40.05344 -29.54175 139.3046
v 39.87324 -29.24518 139.5982
v 39.81962 -29.15692 139.6855
v 39.41431 -28.48986 140.3458
v 39.35691 -28.39538 140.4393
v 39.30949 -28.31732 140.5166
v 39.26261 -28.24017 140.593
v 38.71264 -27.33501 140.5046
v 37.4804 -25.30693 140.3066
v 37.42098 -25.20914 140.297
v 37.36311 -25.11389 140.2877
v 37.31545 -25.03546 140.2801
v 37.28237 -24.98102 140.2747
v 36.09279 -23.02315 144.719
v 37.28237 -24.98101 140.2747
v 36.59589 -23.85117 138.712
v 36.39383 -23.51862 138.252
v 36.3732 -23.48466 138.205
v 36.36364 -23.46892 138.1833
v 36.35155 -23.44902 138.1557
v 36.12732 -23.07998 137.6453
v 35.99898 -22.86876 137.3531
v 35.29242 -21.70586 137.7882
v 35.99898 -22.86876 137.3531
v 33.52601 -18.79863 138.8758

vn 0.4945944 -0.8140258 -0.3045303
vn 0.4945945 -0.8140257 -0.3045303
vn -0.1806533 -0.9559829 -0.2312165
vn -0.8546175 -0.5192581 2.30968E-07
vn -0.8546175 -0.5192581 2.30968E-07
vn -0.5174595 0.8516571 -0.08316261
vn -0.6104848 0.7324103 0.3014697
vn -0.2711436 0.4462597 -0.8528383
vn -0.5174595 0.8516575 -0.08315799
vn -0.5174596 0.8516576 -0.08315716
vn -0.5174595 0.8516576 -0.08315749
vn -0.5174594 0.8516576 -0.08315852
vn -0.5174593 0.8516575 -0.08315957
vn -0.51746 0.8516576 -0.0831538
vn -0.5174597 0.8516576 -0.08315656
vn -0.5174596 0.8516575 -0.08315709
vn -0.5174597 0.8516576 -0.08315695
vn -0.5174596 0.8516576 -0.08315686
vn -0.5174596 0.8516576 -0.08315715
vn -0.5174596 0.8516576 -0.08315681
vn -0.5174596 0.8516575 -0.08315798
vn -0.5174594 0.8516574 -0.08315954
vn -0.5174596 0.8516575 -0.08315735
vn -0.5174597 0.8516576 -0.08315649
vn -0.5050266 0.8311947 -0.2325159
vn -0.3512994 0.5781837 -0.736405
vn -0.3353652 0.5519586 -0.7634605
vn -0.3353656 0.551959 -0.7634599
vn -0.3353657 0.5519593 -0.7634597
vn -0.3353667 0.5519606 -0.7634584
vn -0.3353673 0.5519614 -0.7634575
vn -0.3353681 0.5519623 -0.7634565
vn -0.3353668 0.5519606 -0.7634583
vn -0.3353662 0.5519599 -0.763459
vn -0.3353659 0.5519596 -0.7634595
vn -0.3353658 0.5519596 -0.7634594
vn -0.3353663 0.5519602 -0.7634587
vn -0.3353661 0.5519599 -0.7634592
vn -0.3353656 0.5519591 -0.7634599
vn -0.308546 0.5078183 -0.8043134
vn 0.008945298 -0.01472287 -0.9998518
vn 0.0431794 -0.0710669 -0.9965366
vn 0.04317999 -0.07106781 -0.9965365
vn 0.04318038 -0.07106838 -0.9965365
vn 0.04318035 -0.07106839 -0.9965364
vn 0.04318011 -0.07106803 -0.9965364
vn 0.04317972 -0.07106762 -0.9965365
vn 0.04318001 -0.07106797 -0.9965365
vn 0.04317981 -0.07106768 -0.9965366
vn 0.04317997 -0.07106796 -0.9965364
vn 0.04317996 -0.07106796 -0.9965366
vn 0.04317972 -0.07106758 -0.9965365
vn 0.1443066 -0.2375066 -0.9606073
vn 0.04316768 -0.07104776 -0.9965385
vn 0.396432 -0.6524653 -0.6458567
vn 0.3964324 -0.652466 -0.6458556
vn 0.3964327 -0.6524663 -0.6458554
vn 0.3964331 -0.6524668 -0.6458544
vn 0.3964323 -0.6524659 -0.645856
vn 0.3964315 -0.6524652 -0.6458573
vn 0.3964303 -0.6524637 -0.6458593
vn 0.3964103 -0.6524417 -0.6458939
vn 0.396423 -0.6524555 -0.6458722
vn 0.3964354 -0.6524695 -0.6458504
vn 0.3964337 -0.6524675 -0.6458536
vn 0.3964324 -0.652466 -0.6458557
vn 0.3964321 -0.6524656 -0.6458562
vn 0.3964321 -0.6524655 -0.6458564
vn 0.3964305 -0.6524627 -0.6458603
vn 0.334651 -0.5507835 -0.7646218
vn 0.4945947 -0.8140256 -0.3045303
vn 0.4945947 -0.8140256 -0.3045303
vn 0.4945947 -0.8140256 -0.3045303
vn -0.8546175 -0.5192581 2.30968E-07
vn -0.3964322 0.6524659 0.645856
vn -0.8546175 -0.5192581 2.30968E-07
vn -0.2210665 0.3638406 -0.9048479
vn -0.3286232 -0.9235201 -0.1977812
vn -0.4274724 -0.8876011 -0.1715564
vn 0.432625 -0.8488612 -0.3037606
vn 0.4945947 -0.8140256 -0.3045303
vn 0.4945947 -0.8140256 -0.3045303
vn 0.4945947 -0.8140256 -0.3045303
vn 0.4039361 -0.8631808 -0.3029104
vn -0.8546175 -0.5192581 2.30968E-07
vn 0.4837319 -0.8205343 -0.3045113
vn 0.4945947 -0.8140256 -0.3045303
vn 0.3687626 -0.8792784 -0.3014695
vn 0.4945957 -0.8140273 -0.3045239
vn 0.5450161 -0.7813814 -0.3039749
vn -0.3964322 0.6524659 0.645856
vn 0.4945984 -0.8140317 -0.3045077
vn 0.8546209 0.5192525 -2.345247E-06
vn 0.8546175 0.5192581 -2.30968E-07
vn 0.8546175 0.519258 1.801164E-07
vn 0 0 0
vn -0.3964322 0.6524659 0.645856
vn -0.3964323 0.6524659 0.645856
vn -0.3964323 0.6524659 0.6458561
vn 0.8546175 0.519258 1.801164E-07
vn 0.8546175 0.519258 1.801164E-07
vn -0.1581299 0.2602567 -0.9525027
vn -0.1581299 0.2602567 -0.9525027
vn -0.1581299 0.2602567 -0.9525027
vn -0.1581299 0.2602567 -0.9525027
vn -0.1581299 0.2602567 -0.9525027
vn -0.1581299 0.2602567 -0.9525027
vn -0.1581299 0.2602567 -0.9525027
vn -0.1581299 0.2602567 -0.9525027
vn -0.1581299 0.2602567 -0.9525027
vn -0.8546175 -0.5192581 2.30968E-07
vn -0.8546175 -0.5192581 2.30968E-07
vn -0.8546175 -0.5192581 2.30968E-07
vn -0.8546175 -0.5192581 2.30968E-07
vn -0.8546175 -0.5192581 2.30968E-07
vn -0.8546175 -0.5192581 2.30968E-07
vn -0.8546175 -0.5192581 2.30968E-07
vn -0.8546175 -0.5192581 2.30968E-07
vn -0.8546175 -0.5192581 2.30968E-07
vn -0.8546175 -0.5192581 2.30968E-07
vn -0.8546175 -0.5192581 2.30968E-07
vn -0.8546175 -0.5192581 2.30968E-07
vn -0.8546175 -0.5192581 2.30968E-07
vn -0.8546174 -0.5192581 2.30968E-07
vn -0.8546175 -0.5192581 2.30968E-07
vn -0.8546175 -0.5192581 2.30968E-07
vn -0.8546174 -0.5192581 2.30968E-07
vn -0.8546175 -0.5192581 2.30968E-07
vn -0.8546175 -0.5192581 2.30968E-07
vn -0.8546175 -0.5192581 2.30968E-07
vn -0.8546174 -0.5192581 2.30968E-07
vn -0.8546175 -0.5192581 2.30968E-07
vn -0.8546175 -0.5192581 2.30968E-07
vn -0.8546175 -0.5192581 2.30968E-07
vn -0.8546175 -0.5192581 2.30968E-07
vn -0.8546175 -0.5192581 2.30968E-07
vn -0.8546175 -0.5192581 2.30968E-07
vn -0.8546175 -0.5192581 2.30968E-07
vn -0.8546175 -0.5192581 2.30968E-07
vn -0.8546175 -0.5192581 2.30968E-07
vn -0.8546175 -0.5192581 2.30968E-07
vn -0.8546174 -0.5192581 2.30968E-07
vn -0.8546175 -0.5192581 2.30968E-07
vn -0.8546174 -0.5192581 2.30968E-07
vn -0.8546174 -0.5192581 2.30968E-07
vn -0.8546175 -0.5192581 2.30968E-07
vn -0.8546174 -0.5192581 2.30968E-07
vn -0.8546174 -0.5192581 2.30968E-07
vn 0.5174595 -0.8516576 0.08315754
vn 0.4897492 -0.8060505 0.3323076
vn 0.4246677 -0.6989365 0.575452
vn 0.5174595 -0.8516575 0.08315756
vn 0.2242914 -0.3691481 0.9018998
vn 0.08899641 -0.1464737 0.9852031
vn -0.04318004 0.0710681 0.9965364
vn -0.04318003 0.07106809 0.9965365
vn 0.5174596 -0.8516575 0.08315744
vn -0.1581299 0.2602567 -0.9525027
vn -0.1581299 0.2602567 -0.9525027
vn -0.1581299 0.2602567 -0.9525027
vn -0.1581299 0.2602567 -0.9525027
vn -0.1581299 0.2602567 -0.9525027
vn -0.1581299 0.2602567 -0.9525027
vn -0.1581299 0.2602567 -0.9525027
vn -0.1581299 0.2602567 -0.9525027
vn -0.3109977 0.9024169 0.2982019
vn 0.8546178 0.5192575 -4.553333E-07
vn 0.8546175 0.5192581 -2.542579E-08
vn 0.8546176 0.519258 -4.238316E-08
vn 0.8546175 0.5192581 -2.542579E-08
vn 0.8546175 0.5192581 -2.542579E-08
vn 0.8546177 0.5192579 -2.034993E-07
vn 0.8546177 0.5192579 -2.034995E-07
vn 0.8546177 0.5192579 -2.034989E-07
vn 0.8546177 0.5192579 -2.034996E-07
vn 0.8546177 0.5192579 -2.034997E-07
vn 0.8546176 0.5192578 -2.034991E-07
vn 0.8546177 0.5192579 -2.034972E-07
vn 0.8546176 0.5192578 -2.035018E-07
vn 0.8546176 0.519258 1.918875E-08
vn 0.8546175 0.5192581 5.971268E-08
vn 0.8546176 0.519258 2.121755E-08
vn 0.8546176 0.519258 2.121753E-08
vn 0.8546176 0.519258 2.121758E-08
vn 0.8546176 0.519258 2.121758E-08
vn 0.8546176 0.519258 2.121759E-08
vn 0.8546176 0.519258 2.121763E-08
vn 0.8546176 0.519258 2.121782E-08
vn 0.8546175 0.5192581 9.049949E-08
vn 0.8546175 0.5192582 9.820774E-08
vn 0.8546175 0.5192582 9.820781E-08
vn 0.8546175 0.5192582 9.820723E-08
vn 0.8546175 0.5192582 9.820857E-08
vn 0.8546175 0.5192582 9.820787E-08
vn 0.8546175 0.5192582 9.820762E-08
vn 0.8546175 0.5192582 2.558697E-08
vn 0.8546174 0.5192584 -1.762896E-08
vn 0.8546174 0.5192584 -1.762897E-08
vn 0.8546174 0.5192584 -1.762901E-08
vn 0.8546174 0.5192584 -1.762841E-08
vn 0.8546174 0.5192584 -1.762899E-08
vn 0.8546174 0.5192584 -1.762904E-08
vn 0.8546174 0.5192584 -1.762897E-08
vn 0.8546173 0.5192583 -1.762898E-08
vn 0.8546175 0.5192581 -2.542579E-08
vn 0.8546175 0.5192581 -2.542577E-08
vn 0.8546175 0.5192581 -2.542578E-08

f 1//1 2//2 3//3
f 4//4 1//1 3//3
f 3//3 5//5 4//4
f 3//3 6//6 5//5
f 5//5 6//6 7//7
f 8//8 7//7 6//6
f 9//9 8//8 6//6
f 10//10 9//9 6//6
f 9//9 10//10 11//11
f 11//11 10//10 12//12
f 13//13 11//11 12//12
f 13//13 12//12 14//14
f 13//13 14//14 15//15
f 15//15 14//14 16//16
f 15//15 16//16 17//17
f 18//18 17//17 16//16
f 19//19 17//17 18//18
f 19//19 18//18 20//20
f 21//21 19//19 20//20
f 22//22 19//19 21//21
f 22//22 21//21 23//23
f 24//24 22//22 23//23
f 24//24 23//23 25//25
f 26//26 24//24 25//25
f 26//26 25//25 27//27
f 28//28 26//26 27//27
f 28//28 27//27 29//29
f 29//29 27//27 30//30
f 31//31 29//29 30//30
f 31//31 30//30 32//32
f 33//33 31//31 32//32
f 33//33 32//32 34//34
f 35//35 33//33 34//34
f 35//35 34//34 36//36
f 37//37 35//35 36//36
f 37//37 36//36 38//38
f 39//39 37//37 38//38
f 39//39 38//38 40//40
f 41//41 39//39 40//40
f 41//41 40//40 42//42
f 41//41 42//42 43//43
f 43//43 42//42 44//44
f 45//45 43//43 44//44
f 45//45 44//44 46//46
f 47//47 45//45 46//46
f 48//48 45//45 47//47
f 48//48 47//47 49//49
f 50//50 48//48 49//49
f 50//50 49//49 51//51
f 52//52 50//50 51//51
f 52//52 51//51 53//53
f 54//54 52//52 53//53
f 55//55 54//54 53//53
f 55//55 53//53 56//56
f 55//55 56//56 57//57
f 57//57 56//56 58//58
f 57//57 58//58 59//59
f 59//59 58//58 60//60
f 59//59 60//60 61//61
f 61//61 60//60 62//62
f 61//61 62//62 63//63
f 63//63 62//62 64//64
f 63//63 64//64 65//65
f 65//65 64//64 66//66
f 65//65 66//66 67//67
f 68//68 67//67 66//66
f 69//69 67//67 68//68
f 69//69 68//68 70//70
f 71//71 69//69 70//70
f 72//72 71//71 73//73
f 74//74 75//75 76//76
f 77//77 74//74 76//76
f 75//75 77//77 76//76
f 78//78 75//75 74//74
f 79//79 75//75 78//78
f 78//78 74//74 80//80
f 81//81 78//78 80//80
f 82//82 78//78 81//81
f 82//82 83//83 78//78
f 83//83 84//84 79//79
f 84//84 85//85 79//79
f 80//80 74//74 86//86
f 87//87 80//80 86//86
f 81//81 80//80 87//87
f 86//86 74//74 88//88
f 88//88 74//74 77//77
f 86//86 88//88 89//89
f 90//90 86//86 89//89
f 87//87 86//86 90//90
f 75//75 91//91 77//77
f 90//90 89//89 92//92
f 90//90 92//92 93//93
f 94//94 90//90 93//93
f 95//95 83//83 82//82
f 95//95 82//82 81//81
f 95//95 81//81 87//87
f 95//95 87//87 90//90
f 95//95 96//96 83//83
f 97//97 91//91 75//75
f 97//97 98//98 91//91
f 97//97 99//99 98//98
f 100//100 95//95 101//101
f 102//102 103//103 104//104
f 102//102 104//104 105//105
f 102//102 105//105 106//106
f 106//106 105//105 107//107
f 108//108 102//102 106//106
f 109//109 102//102 108//108
f 110//110 108//108 106//106
f 111//111 112//112 113//113
f 111//111 113//113 114//114
f 111//111 114//114 115//115
f 111//111 115//115 116//116
f 111//111 116//116 117//117
f 117//117 118//118 111//111
f 118//118 119//119 111//111
f 120//120 111//111 119//119
f 120//120 121//121 111//111
f 121//121 122//122 111//111
f 111//111 122//122 123//123
f 114//114 113//113 124//124
f 124//124 113//113 125//125
f 125//125 113//113 126//126
f 126//126 113//113 127//127
f 127//127 113//113 128//128
f 128//128 113//113 129//129
f 129//129 113//113 130//130
f 130//130 113//113 131//131
f 131//131 113//113 132//132
f 132//132 113//113 133//133
f 133//133 113//113 134//134
f 133//133 134//134 135//135
f 135//135 134//134 136//136
f 134//134 137//137 136//136
f 137//137 134//134 138//138
f 138//138 134//134 139//139
f 139//139 134//134 140//140
f 140//140 134//134 141//141
f 134//134 142//142 141//141
f 134//134 143//143 142//142
f 134//134 144//144 143//143
f 144//144 134//134 145//145
f 145//145 134//134 146//146
f 147//147 134//134 148//148
f 149//149 150//150 151//151
f 149//149 152//152 150//150
f 151//151 150//150 153//153
f 151//151 153//153 154//154
f 154//154 153//153 155//155
f 154//154 155//155 156//156
f 152//152 157//157 150//150
f 158//158 159//159 160//160
f 161//161 159//159 158//158
f 162//162 159//159 161//161
f 163//163 162//162 161//161
f 164//164 162//162 163//163
f 165//165 162//162 164//164
f 9//9 166//166 8//8
f 166//166 9//9 167//167
f 168//168 169//169 170//170
f 168//168 171//171 169//169
f 172//172 169//169 173//173
f 174//174 169//169 172//172
f 169//169 174//174 175//175
f 176//176 169//169 175//175
f 177//177 169//169 176//176
f 178//178 169//169 177//177
f 178//178 179//179 169//169
f 179//179 180//180 169//169
f 180//180 181//181 169//169
f 182//182 181//181 180//180
f 182//182 183//183 181//181
f 183//183 184//184 181//181
f 184//184 185//185 181//181
f 185//185 186//186 181//181
f 186//186 187//187 181//181
f 187//187 188//188 181//181
f 188//188 189//189 181//181
f 181//181 189//189 190//190
f 181//181 190//190 191//191
f 192//192 181//181 191//191
f 193//193 181//181 192//192
f 194//194 181//181 193//193
f 195//195 181//181 194//194
f 195//195 196//196 181//181
f 196//196 197//197 198//198
f 196//196 198//198 199//199
f 199//199 200//200 196//196
f 196//196 200//200 201//201
f 201//201 202//202 196//196
f 196//196 202//202 203//203
f 196//196 203//203 204//204
f 205//205 196//196 206//206
f 207//207 196//196 205//205
