v 31.09562 139.2965 -13.42432
v 10.2408 141.0175 -13.42431
v 31.09562 139.2965 -13.42432
v 31.09562 139.2965 -13.42432
v 31.03473 138.5587 -16.91817
v 31.01037 138.2635 -18.31572
v 31.01037 138.2635 -18.31572
v 10.15556 139.9845 -18.3157
v -10.69925 141.7055 -18.31569
v 30.99043 138.0218 -18.36082
v -10.87877 139.5301 -18.72167
v 30.98795 137.9918 -18.36643
v -10.90108 139.2598 -18.77212
v 30.98725 137.9834 -18.368
v -10.90734 139.1839 -18.78628
v 30.97943 137.8886 -18.38569
v -10.97774 138.3309 -18.94546
v 30.883 136.7201 -18.60375
v -10.98845 138.201 -18.96969
v 30.79158 135.6122 -18.81051
v 30.78106 135.4847 -18.83429
v -10.99978 138.0638 -18.9953
v 30.75912 135.2189 -18.8839
v -11.00221 138.0343 -19.00082
v 30.70095 134.514 -19.01546
v -11.00868 137.9559 -19.01543
v 30.69147 134.3992 -19.18328
v -11.06084 137.3238 -19.93956
v -11.09394 136.9227 -20.52586
v 30.68913 134.3707 -19.22492
v -11.11509 136.6664 -20.90062
v 30.68843 134.3622 -19.23731
v -11.12139 136.5901 -21.01215
v 30.68314 134.2981 -19.33097
v -11.16897 136.0135 -21.85507
v 30.62248 133.5631 -20.40548
v -11.17571 135.9319 -21.97446
v 30.57237 132.9559 -21.29319
v -11.18128 135.8644 -22.0731
v 30.52285 132.3557 -22.17061
v -11.18678 135.7977 -22.17059
v 30.52462 132.3773 -22.28671
v -11.1708 135.9914 -23.2155
v 30.5286 132.4255 -22.54684
v -11.13499 136.4253 -25.55668
v 30.5397 132.56 -23.27257
v 30.54414 132.6138 -23.5628
v -11.13326 136.4463 -25.66956
v 30.55928 132.7972 -24.55244
v -11.13158 136.4666 -25.77952
v 30.57174 132.9483 -25.3673
v -11.13019 136.4834 -25.87006
v 30.58039 133.0531 -25.93293
v -11.12923 136.4951 -25.93291
v -11.12923 136.4951 -25.93291
v 30.59581 133.24 -26.06164
v -10.99043 138.177 -27.09127
v 30.60035 133.295 -26.09952
v -10.94958 138.6721 -27.43222
v 30.60082 133.3006 -26.10339
v -10.94541 138.7226 -27.46702
v 30.60103 133.3032 -26.10518
v -10.94348 138.7461 -27.48316
v 30.6013 133.3065 -26.10745
v -10.94103 138.7757 -27.50356
v 30.60634 133.3676 -26.14949
v -10.89569 139.3251 -27.88192
v 30.83988 136.1976 -28.0985
v -10.86975 139.6395 -28.09848
v 30.83988 136.1976 -28.0985
v -10.86975 139.6395 -28.09848
v 30.83988 136.1976 -28.0985
v 30.83988 136.1976 -28.0985
v 30.81552 135.9024 -29.49604
v 30.75463 135.1646 -32.98989
v 30.75463 135.1646 -32.98989
v 30.75463 135.1646 -32.98989
v 30.83988 136.1976 -28.0985
v 30.83988 136.1976 -28.0985
v 30.83988 136.1976 -28.0985
v -10.86975 139.6395 -28.09848
v -10.86975 139.6395 -28.09848
v -10.86975 139.6395 -28.09848
v 30.83988 136.1976 -28.0985
v 30.23566 128.8757 -28.65876
v 30.83988 136.1976 -28.0985
v -10.86975 139.6395 -28.09848
v 30.83988 136.1976 -28.0985
v 9.985064 137.9186 -28.09849
v -10.86975 139.6395 -28.09848
v 9.899818 136.8856 -32.98988
v -10.86973 139.6395 -28.09848
v -10.86975 139.6395 -28.09848
v -10.8941 139.3444 -29.49602
v -11.47396 132.3176 -28.65873
v -10.86975 139.6395 -28.09848
v 30.23566 128.8757 -28.65876
v -10.95499 138.6066 -32.98987
v -11.47396 132.3176 -28.65873
v -11.12923 136.4951 -25.93291
v -11.12923 136.4951 -25.93291
v 10.2408 141.0175 -13.42431
v 31.09562 139.2965 -13.42432
v 31.09562 139.2965 -13.42432
v 31.03473 138.5587 -16.91817
v 10.15556 139.9845 -18.3157
v 31.01037 138.2635 -18.31572
v -10.66394 142.1334 -16.28961
v -10.61401 142.7385 -13.4243
v -10.69925 141.7055 -18.31569
v 31.09562 139.2965 -13.42432
v 30.47677 131.7974 -14.82381
v 30.12057 127.4809 -21.13412
v 30.70095 134.514 -19.01546
v 30.75912 135.2189 -18.8839
v 30.78106 135.4847 -18.83429
v 30.79158 135.6122 -18.81051
v 30.883 136.7201 -18.60375
v 30.97943 137.8886 -18.38569
v 30.98725 137.9834 -18.368
v 30.98795 137.9918 -18.36643
v 30.99043 138.0218 -18.36082
v 31.01037 138.2635 -18.31572
v 30.69147 134.3992 -19.18328
v 30.68913 134.3707 -19.22492
v 30.68843 134.3622 -19.23731
v 30.68314 134.2981 -19.33097
v 30.62248 133.5631 -20.40548
v 30.57237 132.9559 -21.29319
v 30.52285 132.3557 -22.17061
v 30.52462 132.3773 -22.28671
v 30.5286 132.4255 -22.54684
v 30.5397 132.56 -23.27257
v 30.23566 128.8757 -28.65876
v 30.54414 132.6138 -23.5628
v 30.55928 132.7972 -24.55244
v 30.57174 132.9483 -25.3673
v 30.58039 133.0531 -25.93293
v 30.59581 133.24 -26.06164
v 30.60035 133.295 -26.09952
v 30.60082 133.3006 -26.10339
v 30.60103 133.3032 -26.10518
v 30.6013 133.3065 -26.10745
v 30.60634 133.3676 -26.14949
v 30.83988 136.1976 -28.0985
v 30.83988 136.1976 -28.0985
v 30.83988 136.1976 -28.0985
v 30.75463 135.1646 -32.98989
v 31.09562 139.2965 -13.42432
v -11.23285 135.2393 -14.82378
v 30.47677 131.7974 -14.82381
v 10.2408 141.0175 -13.42431
v -11.58906 130.9229 -21.13409
v 30.12057 127.4809 -21.13412
v -11.47396 132.3176 -28.65873
v 30.23566 128.8757 -28.65876
v -10.61401 142.7385 -13.4243
v 30.75463 135.1646 -32.98989
v 9.985064 137.9186 -28.09849
v 30.83988 136.1976 -28.0985
v 9.899818 136.8856 -32.98988
v -10.86973 139.6395 -28.09848
v -10.95499 138.6066 -32.98987
v -10.8941 139.3444 -29.49602
v -10.86975 139.6395 -28.09848
v -10.69925 141.7055 -18.31569
v -11.23285 135.2393 -14.82378
v -10.66394 142.1334 -16.28961
v -11.23285 135.2393 -14.82378
v -10.61401 142.7385 -13.4243
v -10.69925 141.7055 -18.31569
v -10.87877 139.5301 -18.72167
v -10.69925 141.7055 -18.31569
v -10.90108 139.2598 -18.77212
v -10.90734 139.1839 -18.78628
v -10.97774 138.3309 -18.94546
v -10.98845 138.201 -18.96969
v -10.99978 138.0638 -18.9953
v -11.00221 138.0343 -19.00082
v -11.00868 137.9559 -19.01543
v -11.58906 130.9229 -21.13409
v -11.06084 137.3238 -19.93956
v -11.09394 136.9227 -20.52586
v -11.11509 136.6664 -20.90062
v -11.12139 136.5901 -21.01215
v -11.16897 136.0135 -21.85507
v -11.17571 135.9319 -21.97446
v -11.18128 135.8644 -22.0731
v -11.18678 135.7977 -22.17059
v -11.1708 135.9914 -23.2155
v -11.13499 136.4253 -25.55668
v -11.13326 136.4463 -25.66956
v -11.13158 136.4666 -25.77952
v -11.13019 136.4834 -25.87006
v -11.12923 136.4951 -25.93291
v -11.47396 132.3176 -28.65873
v -11.12923 136.4951 -25.93291
v -10.99043 138.177 -27.09127
v -10.94958 138.6721 -27.43222
v -10.94541 138.7226 -27.46702
v -10.94348 138.7461 -27.48316
v -10.94103 138.7757 -27.50356
v -10.89569 139.3251 -27.88192
v -10.86975 139.6395 -28.09848
v -10.8941 139.3444 -29.49602
v -10.86975 139.6395 -28.09848
v -10.95499 138.6066 -32.98987

vn 0.01704969 0.2065963 0.9782777
vn 0.01704953 0.2065963 0.9782777
vn 0.6615314 0.103337 0.7427636
vn 0.9966124 -0.08224246 -4.107133E-07
vn 0.9966124 -0.08224246 -4.107133E-07
vn 0.01503811 0.1822371 -0.9831396
vn 0.1240641 -0.2161508 -0.9684458
vn 0.07409868 0.8979306 -0.4338548
vn 0.01503745 0.1822326 -0.9831404
vn 0.01503743 0.1822318 -0.9831407
vn 0.01503742 0.1822321 -0.9831406
vn 0.01503742 0.1822331 -0.9831404
vn 0.01503744 0.1822341 -0.9831402
vn 0.01503756 0.1822284 -0.9831412
vn 0.0150375 0.1822312 -0.9831408
vn 0.0150375 0.1822317 -0.9831406
vn 0.0150375 0.1822316 -0.9831408
vn 0.0150375 0.1822315 -0.9831407
vn 0.01503751 0.1822317 -0.9831406
vn 0.01503746 0.1822314 -0.9831407
vn 0.01503756 0.1822326 -0.9831405
vn 0.01503764 0.1822341 -0.9831402
vn 0.01503758 0.1822319 -0.9831405
vn 0.01503749 0.1822311 -0.9831408
vn 0.02706122 0.3279341 -0.944313
vn 0.06584669 0.7979342 -0.5991371
vn 0.06780697 0.8216892 -0.5658879
vn 0.06780696 0.8216887 -0.5658885
vn 0.06780697 0.8216885 -0.5658888
vn 0.06780703 0.8216875 -0.5658906
vn 0.06780705 0.8216866 -0.5658916
vn 0.06780718 0.8216856 -0.5658929
vn 0.06780705 0.8216873 -0.5658907
vn 0.06780692 0.8216879 -0.5658896
vn 0.0678069 0.8216884 -0.5658892
vn 0.06780684 0.8216883 -0.5658891
vn 0.06780688 0.8216876 -0.56589
vn 0.0678069 0.8216881 -0.5658895
vn 0.06780691 0.8216887 -0.5658885
vn 0.07072306 0.8570265 -0.5103958
vn 0.08167185 0.9896984 0.1175878
vn 0.08085592 0.9798102 0.1828502
vn 0.08085588 0.9798101 0.1828512
vn 0.08085583 0.97981 0.1828519
vn 0.08085586 0.9798099 0.1828519
vn 0.08085588 0.9798099 0.1828515
vn 0.08085602 0.9798101 0.1828509
vn 0.08085594 0.9798101 0.1828514
vn 0.08085597 0.9798102 0.182851
vn 0.08085597 0.97981 0.1828513
vn 0.08085598 0.9798101 0.1828513
vn 0.08085599 0.9798101 0.1828509
vn 0.07630707 0.9246847 0.3730087
vn 0.08085635 0.9798144 0.182828
vn 0.04654068 0.563973 0.8244807
vn 0.04654055 0.5639719 0.8244814
vn 0.04654049 0.5639716 0.8244817
vn 0.04654029 0.5639706 0.8244823
vn 0.04654064 0.5639723 0.8244812
vn 0.04654104 0.5639736 0.8244804
vn 0.04654149 0.5639758 0.8244787
vn 0.04655016 0.5640125 0.8244531
vn 0.04654467 0.5639895 0.8244693
vn 0.04653939 0.5639663 0.8244854
vn 0.04654006 0.5639697 0.8244831
vn 0.04654059 0.563972 0.8244814
vn 0.04654066 0.5639725 0.824481
vn 0.04654067 0.5639728 0.8244809
vn 0.04654095 0.5639769 0.8244781
vn 0.05724175 0.6936495 0.7180347
vn 0.01704934 0.2065963 0.9782777
vn 0.01704934 0.2065963 0.9782777
vn 0.01704934 0.2065963 0.9782777
vn 0.9966124 -0.08224246 -4.107133E-07
vn -0.04654076 -0.5639722 -0.8244812
vn 0.9966124 -0.08224246 -4.107133E-07
vn 0.07755768 0.9398459 -0.3326779
vn 0.7688893 0.07164031 0.6353557
vn 0.8330252 0.04843539 0.5511108
vn 0.08781458 0.200231 0.9758054
vn 0.01704934 0.2065963 0.9782777
vn 0.01704934 0.2065963 0.9782777
vn 0.01704934 0.2065963 0.9782777
vn 0.1196124 0.1970263 0.9730743
vn 0.9966124 -0.08224246 -4.107133E-07
vn 0.02966871 0.2055439 0.9781981
vn 0.01704934 0.2065963 0.9782777
vn 0.1578202 0.1928891 0.9684455
vn 0.01704881 0.2065899 0.9782791
vn -0.04282032 0.2111555 0.9765142
vn -0.04654069 -0.5639722 -0.8244812
vn 0.01704744 0.2065733 0.9782826
vn -0.9966123 0.0822439 7.202656E-06
vn -0.9966124 0.08224246 4.107133E-07
vn -0.9966124 0.08224204 5.001799E-07
vn 0 0 0
vn -0.04654069 -0.5639723 -0.8244812
vn -0.04654065 -0.5639723 -0.8244812
vn -0.04654068 -0.5639723 -0.8244813
vn -0.9966124 0.08224204 5.001799E-07
vn -0.9966124 0.08224204 5.001799E-07
vn 0.08045577 0.9749637 -0.2072986
vn 0.08045577 0.9749636 -0.2072986
vn 0.08045577 0.9749637 -0.2072986
vn 0.08045577 0.9749637 -0.2072986
vn 0.08045577 0.9749637 -0.2072986
vn 0.08045577 0.9749637 -0.2072986
vn 0.08045577 0.9749637 -0.2072986
vn 0.08045577 0.9749637 -0.2072986
vn 0.08045577 0.9749637 -0.2072986
vn 0.9966124 -0.08224246 -4.107133E-07
vn 0.9966124 -0.08224246 -4.107133E-07
vn 0.9966124 -0.08224246 -4.107133E-07
vn 0.9966124 -0.08224246 -4.107133E-07
vn 0.9966124 -0.08224246 -4.107133E-07
vn 0.9966124 -0.08224246 -4.107133E-07
vn 0.9966124 -0.08224246 -4.107133E-07
vn 0.9966124 -0.08224246 -4.107133E-07
vn 0.9966124 -0.08224246 -4.107133E-07
vn 0.9966124 -0.08224246 -4.107133E-07
vn 0.9966124 -0.08224246 -4.107133E-07
vn 0.9966124 -0.08224246 -4.107133E-07
vn 0.9966124 -0.08224246 -4.107133E-07
vn 0.9966123 -0.08224245 -4.107132E-07
vn 0.9966124 -0.08224246 -4.107133E-07
vn 0.9966124 -0.08224246 -4.107133E-07
vn 0.9966123 -0.08224245 -4.107132E-07
vn 0.9966124 -0.08224246 -4.107133E-07
vn 0.9966124 -0.08224246 -4.107133E-07
vn 0.9966124 -0.08224246 -4.107133E-07
vn 0.9966123 -0.08224245 -4.107132E-07
vn 0.9966124 -0.08224246 -4.107133E-07
vn 0.9966124 -0.08224246 -4.107133E-07
vn 0.9966124 -0.08224246 -4.107133E-07
vn 0.9966124 -0.08224246 -4.107133E-07
vn 0.9966124 -0.08224246 -4.107133E-07
vn 0.9966124 -0.08224246 -4.107133E-07
vn 0.9966124 -0.08224246 -4.107133E-07
vn 0.9966124 -0.08224246 -4.107133E-07
vn 0.9966124 -0.08224246 -4.107133E-07
vn 0.9966124 -0.08224246 -4.107133E-07
vn 0.9966123 -0.08224245 -4.107132E-07
vn 0.9966124 -0.08224246 -4.107133E-07
vn 0.9966123 -0.08224245 -4.107132E-07
vn 0.9966123 -0.08224245 -4.107132E-07
vn 0.9966124 -0.08224246 -4.107133E-07
vn 0.9966123 -0.08224245 -4.107132E-07
vn 0.9966123 -0.08224245 -4.107132E-07
vn -0.01503742 -0.1822321 0.9831406
vn -0.03498362 -0.4239389 0.9050149
vn -0.05384379 -0.6524848 0.7558866
vn -0.01503744 -0.1822321 0.9831405
vn -0.07736777 -0.9375444 0.3391531
vn -0.0820316 -0.9940583 0.07154799
vn -0.08085597 -0.9798099 -0.1828515
vn -0.08085598 -0.97981 -0.1828515
vn -0.01503749 -0.182232 0.9831406
vn 0.08045577 0.9749637 -0.2072986
vn 0.08045577 0.9749637 -0.2072986
vn 0.08045577 0.9749637 -0.2072986
vn 0.08045577 0.9749637 -0.2072986
vn 0.08045577 0.9749637 -0.2072986
vn 0.08045577 0.9749637 -0.2072986
vn 0.08045577 0.9749637 -0.2072986
vn 0.08045576 0.9749636 -0.2072986
vn -0.2188111 -0.1856241 -0.9579486
vn -0.9966124 0.08224261 1.131468E-06
vn -0.9966123 0.08224224 4.554466E-07
vn -0.9966124 0.08224226 5.683265E-07
vn -0.9966124 0.08224225 4.554466E-07
vn -0.9966124 0.08224225 4.554466E-07
vn -0.9966124 0.0822424 7.354639E-07
vn -0.9966124 0.0822424 7.35464E-07
vn -0.9966124 0.0822424 7.354635E-07
vn -0.9966124 0.0822424 7.354641E-07
vn -0.9966124 0.0822424 7.354641E-07
vn -0.9966123 0.08224239 7.354637E-07
vn -0.9966124 0.0822424 7.354624E-07
vn -0.9966123 0.08224239 7.354654E-07
vn -0.9966124 0.08224219 5.988821E-07
vn -0.9966124 0.08224216 4.739757E-07
vn -0.9966124 0.08224219 5.976372E-07
vn -0.9966124 0.08224219 5.976377E-07
vn -0.9966124 0.08224219 5.976385E-07
vn -0.9966124 0.08224219 5.97638E-07
vn -0.9966124 0.08224219 5.976379E-07
vn -0.9966124 0.08224219 5.976378E-07
vn -0.9966124 0.08224219 5.976372E-07
vn -0.9966124 0.08224214 3.750754E-07
vn -0.9966124 0.08224214 3.503138E-07
vn -0.9966124 0.08224214 3.503136E-07
vn -0.9966124 0.08224214 3.503142E-07
vn -0.9966124 0.08224214 3.503128E-07
vn -0.9966124 0.08224214 3.503135E-07
vn -0.9966124 0.08224214 3.503138E-07
vn -0.9966124 0.08224221 3.499783E-07
vn -0.9966124 0.08224227 1.383707E-07
vn -0.9966124 0.08224227 1.383705E-07
vn -0.9966124 0.08224227 1.383702E-07
vn -0.9966124 0.08224227 1.383773E-07
vn -0.9966124 0.08224227 1.383694E-07
vn -0.9966124 0.08224227 1.3837E-07
vn -0.9966124 0.08224227 1.383715E-07
vn -0.9966123 0.08224227 1.383727E-07
vn -0.9966124 0.08224225 4.554466E-07
vn -0.9966124 0.08224225 4.554466E-07
vn -0.9966123 0.08224224 4.554466E-07

f 1//1 2//2 3//3
f 4//4 1//1 3//3
f 3//3 5//5 4//4
f 3//3 6//6 5//5
f 5//5 6//6 7//7
f 8//8 7//7 6//6
f 9//9 8//8 6//6
f 10//10 9//9 6//6
f 9//9 10//10 11//11
f 11//11 10//10 12//12
f 13//13 11//11 12//12
f 13//13 12//12 14//14
f 13//13 14//14 15//15
f 15//15 14//14 16//16
f 15//15 16//16 17//17
f 18//18 17//17 16//16
f 19//19 17//17 18//18
f 19//19 18//18 20//20
f 21//21 19//19 20//20
f 22//22 19//19 21//21
f 22//22 21//21 23//23
f 24//24 22//22 23//23
f 24//24 23//23 25//25
f 26//26 24//24 25//25
f 26//26 25//25 27//27
f 28//28 26//26 27//27
f 28//28 27//27 29//29
f 29//29 27//27 30//30
f 31//31 29//29 30//30
f 31//31 30//30 32//32
f 33//33 31//31 32//32
f 33//33 32//32 34//34
f 35//35 33//33 34//34
f 35//35 34//34 36//36
f 37//37 35//35 36//36
f 37//37 36//36 38//38
f 39//39 37//37 38//38
f 39//39 38//38 40//40
f 41//41 39//39 40//40
f 41//41 40//40 42//42
f 41//41 42//42 43//43
f 43//43 42//42 44//44
f 45//45 43//43 44//44
f 45//45 44//44 46//46
f 47//47 45//45 46//46
f 48//48 45//45 47//47
f 48//48 47//47 49//49
f 50//50 48//48 49//49
f 50//50 49//49 51//51
f 52//52 50//50 51//51
f 52//52 51//51 53//53
f 54//54 52//52 53//53
f 55//55 54//54 53//53
f 55//55 53//53 56//56
f 55//55 56//56 57//57
f 57//57 56//56 58//58
f 57//57 58//58 59//59
f 59//59 58//58 60//60
f 59//59 60//60 61//61
f 61//61 60//60 62//62
f 61//61 62//62 63//63
f 63//63 62//62 64//64
f 63//63 64//64 65//65
f 65//65 64//64 66//66
f 65//65 66//66 67//67
f 68//68 67//67 66//66
f 69//69 67//67 68//68
f 69//69 68//68 70//70
f 71//71 69//69 70//70
f 72//72 71//71 73//73
f 74//74 75//75 76//76
f 77//77 74//74 76//76
f 75//75 77//77 76//76
f 78//78 75//75 74//74
f 79//79 75//75 78//78
f 78//78 74//74 80//80
f 81//81 78//78 80//80
f 82//82 78//78 81//81
f 82//82 83//83 78//78
f 83//83 84//84 79//79
f 84//84 85//85 79//79
f 80//80 74//74 86//86
f 87//87 80//80 86//86
f 81//81 80//80 87//87
f 86//86 74//74 88//88
f 88//88 74//74 77//77
f 86//86 88//88 89//89
f 90//90 86//86 89//89
f 87//87 86//86 90//90
f 75//75 91//91 77//77
f 90//90 89//89 92//92
f 90//90 92//92 93//93
f 94//94 90//90 93//93
f 95//95 83//83 82//82
f 95//95 82//82 81//81
f 95//95 81//81 87//87
f 95//95 87//87 90//90
f 95//95 96//96 83//83
f 97//97 91//91 75//75
f 97//97 98//98 91//91
f 97//97 99//99 98//98
f 100//100 95//95 101//101
f 102//102 103//103 104//104
f 102//102 104//104 105//105
f 102//102 105//105 106//106
f 106//106 105//105 107//107
f 108//108 102//102 106//106
f 109//109 102//102 108//108
f 110//110 108//108 106//106
f 111//111 112//112 113//113
f 111//111 113//113 114//114
f 111//111 114//114 115//115
f 111//111 115//115 116//116
f 111//111 116//116 117//117
f 117//117 118//118 111//111
f 118//118 119//119 111//111
f 120//120 111//111 119//119
f 120//120 121//121 111//111
f 121//121 122//122 111//111
f 111//111 122//122 123//123
f 114//114 113//113 124//124
f 124//124 113//113 125//125
f 125//125 113//113 126//126
f 126//126 113//113 127//127
f 127//127 113//113 128//128
f 128//128 113//113 129//129
f 129//129 113//113 130//130
f 130//130 113//113 131//131
f 131//131 113//113 132//132
f 132//132 113//113 133//133
f 133//133 113//113 134//134
f 133//133 134//134 135//135
f 135//135 134//134 136//136
f 134//134 137//137 136//136
f 137//137 134//134 138//138
f 138//138 134//134 139//139
f 139//139 134//134 140//140
f 140//140 134//134 141//141
f 134//134 142//142 141//141
f 134//134 143//143 142//142
f 134//134 144//144 143//143
f 144//144 134//134 145//145
f 145//145 134//134 146//146
f 147//147 134//134 148//148
f 149//149 150//150 151//151
f 149//149 152//152 150//150
f 151//151 150//150 153//153
f 151//151 153//153 154//154
f 154//154 153//153 155//155
f 154//154 155//155 156//156
f 152//152 157//157 150//150
f 158//158 159//159 160//160
f 161//161 159//159 158//158
f 162//162 159//159 161//161
f 163//163 162//162 161//161
f 164//164 162//162 163//163
f 165//165 162//162 164//164
f 9//9 166//166 8//8
f 166//166 9//9 167//167
f 168//168 169//169 170//170
f 168//168 171//171 169//169
f 172//172 169//169 173//173
f 174//174 169//169 172//172
f 169//169 174//174 175//175
f 176//176 169//169 175//175
f 177//177 169//169 176//176
f 178//178 169//169 177//177
f 178//178 179//179 169//169
f 179//179 180//180 169//169
f 180//180 181//181 169//169
f 182//182 181//181 180//180
f 182//182 183//183 181//181
f 183//183 184//184 181//181
f 184//184 185//185 181//181
f 185//185 186//186 181//181
f 186//186 187//187 181//181
f 187//187 188//188 181//181
f 188//188 189//189 181//181
f 181//181 189//189 190//190
f 181//181 190//190 191//191
f 192//192 181//181 191//191
f 193//193 181//181 192//192
f 194//194 181//181 193//193
f 195//195 181//181 194//194
f 195//195 196//196 181//181
f 196//196 197//197 198//198
f 196//196 198//198 199//199
f 199//199 200//200 196//196
f 196//196 200//200 201//201
f 201//201 202//202 196//196
f 196//196 202//202 203//203
f 196//196 203//203 204//204
f 205//205 196//196 206//206
f 207//207 196//196 205//205
