v 48.41821 24.50991 -134.0034
v 32.55787 38.16038 -134.0034
v 48.41821 24.50991 -134.0034
v 48.41821 24.50991 -134.0034
v 46.16637 21.89353 -134.9193
v 45.26564 20.84697 -135.2857
v 45.26564 20.84697 -135.2857
v 29.4053 34.49744 -135.2857
v 13.54496 48.1479 -135.2857
v 45.16798 20.73351 -135.0896
v 12.66609 47.12675 -133.521
v 45.15585 20.71941 -135.0653
v 12.55688 46.99986 -133.3017
v 45.15244 20.71545 -135.0584
v 12.52622 46.96423 -133.2401
v 45.11416 20.67097 -134.9815
v 12.18161 46.56384 -132.5482
v 44.64208 20.12247 -134.0336
v 12.12916 46.50289 -132.4428
v 44.19449 19.60242 -133.1349
v 44.143 19.54259 -133.0315
v 12.07371 46.43846 -132.3315
v 44.03561 19.41781 -132.8158
v 12.06178 46.4246 -132.3075
v 43.75081 19.08691 -132.244
v 12.03013 46.38783 -132.244
v 43.6192 18.934 -132.2169
v 11.30546 45.54583 -132.095
v 10.84569 45.01163 -132.0004
v 43.58655 18.89606 -132.2102
v 10.55181 44.67019 -131.94
v 43.57683 18.88477 -132.2082
v 10.46435 44.56857 -131.922
v 43.50339 18.79943 -132.1931
v 9.803352 43.80056 -131.7861
v 42.66079 17.82042 -132.0198
v 9.70973 43.69178 -131.7668
v 41.96466 17.01161 -131.8767
v 9.632383 43.60191 -131.7509
v 41.27661 16.21216 -131.7352
v 9.555933 43.51308 -131.7352
v 41.21538 16.14102 -131.8069
v 9.00486 42.8728 -132.3801
v 41.07819 15.98162 -131.9674
v 7.770144 41.43819 -133.8252
v 40.69545 15.53691 -132.4153
v 40.54238 15.35907 -132.5945
v 7.710608 41.36902 -133.8948
v 40.02045 14.75265 -133.2053
v 7.652618 41.30164 -133.9627
v 39.59071 14.25333 -133.7083
v 7.604866 41.24615 -134.0186
v 39.2924 13.90672 -134.0574
v 7.571722 41.20765 -134.0574
v 7.57172 41.20765 -134.0574
v 39.27267 13.8838 -134.2828
v 7.394188 41.00137 -136.0862
v 39.26686 13.87706 -134.3492
v 7.341934 40.94066 -136.6833
v 39.26627 13.87637 -134.3559
v 7.336601 40.93446 -136.7443
v 39.266 13.87605 -134.3591
v 7.334126 40.93158 -136.7726
v 39.26565 13.87564 -134.363
v 7.330999 40.92795 -136.8083
v 39.25921 13.86816 -134.4367
v 7.273012 40.86058 -137.471
v 38.9605 13.52109 -137.8502
v 7.239822 40.82201 -137.8503
v 38.96049 13.52109 -137.8502
v 7.239822 40.82201 -137.8503
v 38.96049 13.52109 -137.8502
v 38.96049 13.52109 -137.8502
v 38.05976 12.47453 -138.2166
v 35.80793 9.858147 -139.1325
v 35.80793 9.858147 -139.1325
v 35.80793 9.858149 -139.1325
v 38.96049 13.52109 -137.8502
v 38.96049 13.52109 -137.8502
v 38.96049 13.52109 -137.8502
v 7.239822 40.82201 -137.8503
v 7.239822 40.82201 -137.8503
v 7.239822 40.82201 -137.8503
v 38.96049 13.52109 -137.8502
v 36.47173 10.62941 -131.5468
v 38.96049 13.52109 -137.8502
v 7.239822 40.82201 -137.8503
v 38.96049 13.52109 -137.8502
v 23.10016 27.17155 -137.8502
v 7.239822 40.82201 -137.8503
v 19.94759 23.50861 -139.1325
v 7.239838 40.822 -137.8503
v 7.239822 40.82201 -137.8503
v 6.339088 39.77546 -138.2166
v 4.751053 37.93034 -131.5468
v 7.239822 40.82201 -137.8503
v 36.47173 10.62941 -131.5468
v 4.087252 37.15907 -139.1325
v 4.751053 37.93034 -131.5468
v 7.57172 41.20765 -134.0574
v 7.571722 41.20765 -134.0574
v 32.55787 38.16038 -134.0034
v 48.41821 24.50991 -134.0034
v 48.41821 24.50991 -134.0034
v 46.16637 21.89353 -134.9193
v 29.4053 34.49744 -135.2857
v 45.26564 20.84697 -135.2857
v 14.8508 49.66514 -134.7546
v 16.69754 51.81084 -134.0034
v 13.54497 48.1479 -135.2857
v 48.41821 24.50991 -134.0034
v 45.38854 20.98978 -127.92
v 40.44015 15.24029 -126.9024
v 43.75081 19.08691 -132.244
v 44.03561 19.41781 -132.8158
v 44.143 19.54259 -133.0315
v 44.19449 19.60242 -133.1349
v 44.64208 20.12247 -134.0336
v 45.11416 20.67097 -134.9815
v 45.15244 20.71545 -135.0584
v 45.15585 20.71941 -135.0653
v 45.16798 20.73351 -135.0896
v 45.26564 20.84697 -135.2857
v 43.6192 18.934 -132.2169
v 43.58655 18.89606 -132.2102
v 43.57683 18.88477 -132.2082
v 43.50339 18.79943 -132.1931
v 42.66079 17.82042 -132.0198
v 41.96466 17.01161 -131.8767
v 41.27661 16.21216 -131.7352
v 41.21538 16.14102 -131.8069
v 41.07819 15.98162 -131.9674
v 40.69545 15.53691 -132.4153
v 36.47173 10.62941 -131.5468
v 40.54238 15.35907 -132.5945
v 40.02045 14.75265 -133.2053
v 39.59071 14.25333 -133.7083
v 39.2924 13.90672 -134.0574
v 39.27267 13.8838 -134.2828
v 39.26686 13.87706 -134.3492
v 39.26627 13.87637 -134.3559
v 39.266 13.87605 -134.3591
v 39.26565 13.87564 -134.363
v 39.25921 13.86816 -134.4367
v 38.9605 13.52109 -137.8502
v 38.96049 13.52109 -137.8502
v 38.96049 13.52109 -137.8502
v 35.80793 9.858147 -139.1325
v 48.41821 24.50991 -134.0034
v 13.66787 48.2907 -127.92
v 45.38854 20.98978 -127.92
v 32.55787 38.16038 -134.0034
v 8.719477 42.54121 -126.9024
v 40.44015 15.24029 -126.9024
v 4.751053 37.93034 -131.5468
v 36.47173 10.62941 -131.5468
v 16.69754 51.81084 -134.0034
v 35.80793 9.858149 -139.1325
v 23.10016 27.17155 -137.8502
v 38.96049 13.52109 -137.8502
v 19.94759 23.50861 -139.1325
v 7.239838 40.822 -137.8503
v 4.087252 37.15907 -139.1325
v 6.339088 39.77546 -138.2166
v 7.239822 40.82201 -137.8503
v 13.54497 48.1479 -135.2857
v 13.66787 48.2907 -127.92
v 14.8508 49.66514 -134.7546
v 13.66787 48.2907 -127.92
v 16.69754 51.81084 -134.0034
v 13.54497 48.1479 -135.2857
v 12.66609 47.12675 -133.521
v 13.54496 48.1479 -135.2857
v 12.55688 46.99986 -133.3017
v 12.52622 46.96423 -133.2401
v 12.18161 46.56384 -132.5482
v 12.12916 46.50289 -132.4428
v 12.07371 46.43846 -132.3315
v 12.06178 46.4246 -132.3075
v 12.03013 46.38783 -132.244
v 8.719477 42.54121 -126.9024
v 11.30546 45.54583 -132.095
v 10.84569 45.01163 -132.0004
v 10.55181 44.67019 -131.94
v 10.46435 44.56857 -131.922
v 9.803352 43.80056 -131.7861
v 9.70973 43.69178 -131.7668
v 9.632383 43.60191 -131.7509
v 9.555933 43.51308 -131.7352
v 9.00486 42.8728 -132.3801
v 7.770144 41.43819 -133.8252
v 7.710608 41.36902 -133.8948
v 7.652618 41.30164 -133.9627
v 7.604866 41.24615 -134.0186
v 7.571722 41.20765 -134.0574
v 4.751053 37.93034 -131.5468
v 7.57172 41.20765 -134.0574
v 7.394188 41.00137 -136.0862
v 7.341934 40.94066 -136.6833
v 7.336601 40.93446 -136.7443
v 7.334126 40.93158 -136.7726
v 7.330999 40.92795 -136.8083
v 7.273012 40.86058 -137.471
v 7.239822 40.82201 -137.8503
v 6.339088 39.77546 -138.2166
v 7.239822 40.82201 -137.8503
v 4.087252 37.15907 -139.1325

vn 0.6305141 0.7325875 0.2564527
vn 0.630514 0.7325876 0.2564527
vn 0.9719796 0.1316917 0.1947136
vn 0.7579356 -0.6523297 2.086163E-07
vn 0.7579356 -0.6523297 2.086163E-07
vn -0.518497 -0.6024368 -0.6068206
vn -0.5169889 -0.8174782 -0.2538753
vn 0.0126521 0.01469996 -0.999812
vn -0.518499 -0.6024387 -0.6068169
vn -0.5184994 -0.6024392 -0.6068164
vn -0.5184992 -0.602439 -0.6068166
vn -0.5184989 -0.6024385 -0.6068174
vn -0.5184985 -0.6024379 -0.6068182
vn -0.5185003 -0.602441 -0.6068136
vn -0.5184994 -0.6024395 -0.6068158
vn -0.5184993 -0.6024392 -0.6068162
vn -0.5184994 -0.6024394 -0.6068162
vn -0.5184994 -0.6024394 -0.6068161
vn -0.5184993 -0.6024392 -0.6068163
vn -0.5184994 -0.6024394 -0.6068161
vn -0.518499 -0.6024389 -0.6068169
vn -0.5184983 -0.6024381 -0.6068182
vn -0.5184991 -0.6024392 -0.6068164
vn -0.5184995 -0.6024396 -0.6068158
vn -0.452861 -0.526175 -0.719762
vn -0.1131003 -0.1314104 -0.9848553
vn -0.08672833 -0.1007691 -0.9911227
vn -0.08672881 -0.1007697 -0.9911225
vn -0.08672901 -0.1007699 -0.9911225
vn -0.08673026 -0.1007716 -0.9911223
vn -0.08673103 -0.1007726 -0.9911221
vn -0.08673195 -0.100774 -0.9911218
vn -0.08673033 -0.1007718 -0.9911222
vn -0.08672969 -0.1007707 -0.9911223
vn -0.08672938 -0.1007703 -0.9911225
vn -0.08672936 -0.1007702 -0.9911224
vn -0.08673002 -0.1007711 -0.9911222
vn -0.08672962 -0.1007706 -0.9911224
vn -0.08672886 -0.1007697 -0.9911225
vn -0.043987 -0.0511083 -0.9977241
vn 0.3607728 0.4191779 -0.8331466
vn 0.3958439 0.4599267 -0.7948429
vn 0.3958445 0.4599274 -0.7948423
vn 0.3958448 0.4599279 -0.7948419
vn 0.3958448 0.4599278 -0.7948418
vn 0.3958445 0.4599275 -0.7948421
vn 0.3958444 0.4599271 -0.7948424
vn 0.3958446 0.4599274 -0.7948422
vn 0.3958444 0.4599272 -0.7948424
vn 0.3958445 0.4599274 -0.7948421
vn 0.3958446 0.4599274 -0.7948422
vn 0.3958443 0.4599271 -0.7948424
vn 0.4902605 0.5696283 -0.6596731
vn 0.3958323 0.4599131 -0.7948565
vn 0.6465387 0.7512066 -0.1329544
vn 0.6465387 0.7512066 -0.1329531
vn 0.6465388 0.7512068 -0.1329527
vn 0.6465387 0.7512069 -0.1329515
vn 0.6465387 0.7512066 -0.1329535
vn 0.6465389 0.7512063 -0.1329551
vn 0.6465387 0.7512058 -0.1329578
vn 0.6465391 0.7511976 -0.1330027
vn 0.6465389 0.7512028 -0.1329746
vn 0.6465388 0.7512079 -0.1329463
vn 0.6465388 0.7512072 -0.1329504
vn 0.6465387 0.7512066 -0.1329532
vn 0.6465387 0.7512066 -0.1329538
vn 0.6465387 0.7512066 -0.1329541
vn 0.6465382 0.7512062 -0.1329591
vn 0.622874 0.7237108 -0.2971044
vn 0.6305138 0.7325877 0.2564527
vn 0.6305138 0.7325877 0.2564527
vn 0.6305138 0.7325877 0.2564527
vn 0.7579356 -0.6523297 2.086163E-07
vn -0.6465389 -0.7512066 0.1329535
vn 0.7579356 -0.6523297 2.086163E-07
vn 0.08393127 0.0975185 -0.9916885
vn 0.9858243 -0.02023722 0.1665569
vn 0.98142 -0.1262653 0.1444724
vn 0.682771 0.684389 0.2558047
vn 0.6305138 0.7325877 0.2564527
vn 0.6305138 0.7325877 0.2564527
vn 0.6305138 0.7325877 0.2564527
vn 0.7052296 0.6614994 0.2550887
vn 0.7579356 -0.6523297 2.086163E-07
vn 0.6400622 0.7242696 0.2564266
vn 0.6305138 0.7325877 0.2564527
vn 0.7313651 0.6329715 0.2538753
vn 0.6305128 0.7325864 0.2564591
vn 0.5838675 0.7704319 0.2559961
vn -0.6465387 -0.7512066 0.1329535
vn 0.6305099 0.7325831 0.2564756
vn -0.7579312 0.6523347 1.571872E-06
vn -0.7579356 0.6523297 -2.086163E-07
vn -0.7579356 0.6523296 2.085338E-07
vn 0 0 0
vn -0.6465388 -0.7512066 0.1329536
vn -0.6465388 -0.7512066 0.1329535
vn -0.6465389 -0.7512067 0.1329535
vn -0.7579356 0.6523296 2.085338E-07
vn -0.7579356 0.6523296 2.085338E-07
vn 0.1672919 0.1943743 -0.966557
vn 0.1672919 0.1943743 -0.9665569
vn 0.1672919 0.1943743 -0.966557
vn 0.1672919 0.1943743 -0.966557
vn 0.1672919 0.1943743 -0.966557
vn 0.1672919 0.1943743 -0.966557
vn 0.1672919 0.1943743 -0.966557
vn 0.1672919 0.1943743 -0.966557
vn 0.1672919 0.1943743 -0.966557
vn 0.7579356 -0.6523297 2.086163E-07
vn 0.7579356 -0.6523297 2.086163E-07
vn 0.7579356 -0.6523297 2.086163E-07
vn 0.7579356 -0.6523297 2.086163E-07
vn 0.7579356 -0.6523297 2.086163E-07
vn 0.7579356 -0.6523297 2.086163E-07
vn 0.7579356 -0.6523297 2.086163E-07
vn 0.7579356 -0.6523297 2.086163E-07
vn 0.7579356 -0.6523297 2.086163E-07
vn 0.7579356 -0.6523297 2.086163E-07
vn 0.7579356 -0.6523297 2.086163E-07
vn 0.7579356 -0.6523297 2.086163E-07
vn 0.7579356 -0.6523297 2.086163E-07
vn 0.7579355 -0.6523296 2.086162E-07
vn 0.7579356 -0.6523297 2.086163E-07
vn 0.7579356 -0.6523297 2.086163E-07
vn 0.7579355 -0.6523296 2.086162E-07
vn 0.7579356 -0.6523297 2.086163E-07
vn 0.7579356 -0.6523297 2.086163E-07
vn 0.7579356 -0.6523297 2.086163E-07
vn 0.7579355 -0.6523296 2.086162E-07
vn 0.7579356 -0.6523297 2.086163E-07
vn 0.7579356 -0.6523297 2.086163E-07
vn 0.7579356 -0.6523297 2.086163E-07
vn 0.7579356 -0.6523297 2.086163E-07
vn 0.7579356 -0.6523297 2.086163E-07
vn 0.7579356 -0.6523297 2.086163E-07
vn 0.7579356 -0.6523297 2.086163E-07
vn 0.7579356 -0.6523297 2.086163E-07
vn 0.7579356 -0.6523297 2.086163E-07
vn 0.7579356 -0.6523297 2.086163E-07
vn 0.7579355 -0.6523296 2.086162E-07
vn 0.7579356 -0.6523297 2.086163E-07
vn 0.7579355 -0.6523296 2.086162E-07
vn 0.7579355 -0.6523296 2.086162E-07
vn 0.7579356 -0.6523297 2.086163E-07
vn 0.7579355 -0.6523296 2.086162E-07
vn 0.7579355 -0.6523296 2.086162E-07
vn 0.5184993 0.602439 0.6068166
vn 0.401628 0.4666476 0.7879946
vn 0.2473106 0.2873479 0.925348
vn 0.5184991 0.6024389 0.6068166
vn -0.07948208 -0.09234901 0.9925495
vn -0.2519574 -0.2927463 0.9223976
vn -0.3958446 -0.4599275 0.7948421
vn -0.3958447 -0.4599275 0.7948421
vn 0.5184991 0.602439 0.6068165
vn 0.1672919 0.1943743 -0.966557
vn 0.1672919 0.1943743 -0.966557
vn 0.1672919 0.1943743 -0.966557
vn 0.1672919 0.1943743 -0.966557
vn 0.1672919 0.1943743 -0.966557
vn 0.1672919 0.1943743 -0.966557
vn 0.1672919 0.1943743 -0.966557
vn 0.1672919 0.1943743 -0.9665569
vn -0.7711231 -0.5850697 -0.2511236
vn -0.7579351 0.6523302 -1.967244E-08
vn -0.7579356 0.6523296 -4.126515E-11
vn -0.7579355 0.6523297 4.585733E-08
vn -0.7579356 0.6523296 -4.126385E-11
vn -0.7579356 0.6523296 -4.126385E-11
vn -0.7579354 0.6523299 -8.172708E-09
vn -0.7579354 0.6523299 -8.172767E-09
vn -0.7579354 0.6523299 -8.172599E-09
vn -0.7579354 0.6523299 -8.172876E-09
vn -0.7579354 0.6523299 -8.172916E-09
vn -0.7579353 0.6523298 -8.172581E-09
vn -0.7579354 0.6523299 -8.17154E-09
vn -0.7579353 0.6523298 -8.174128E-09
vn -0.7579355 0.6523297 1.176249E-07
vn -0.7579356 0.6523296 8.635342E-08
vn -0.7579356 0.6523297 1.187707E-07
vn -0.7579356 0.6523297 1.187709E-07
vn -0.7579356 0.6523297 1.187714E-07
vn -0.7579356 0.6523297 1.187711E-07
vn -0.7579356 0.6523297 1.187711E-07
vn -0.7579356 0.6523297 1.187711E-07
vn -0.7579356 0.6523297 1.187709E-07
vn -0.7579357 0.6523295 6.04269E-08
vn -0.7579357 0.6523295 5.393584E-08
vn -0.7579357 0.6523295 5.393579E-08
vn -0.7579357 0.6523295 5.393562E-08
vn -0.7579357 0.6523295 5.393605E-08
vn -0.7579357 0.6523295 5.393579E-08
vn -0.7579357 0.6523295 5.393574E-08
vn -0.7579357 0.6523295 -1.138201E-08
vn -0.7579358 0.6523294 -1.646991E-07
vn -0.7579358 0.6523294 -1.646992E-07
vn -0.7579358 0.6523294 -1.646995E-07
vn -0.7579358 0.6523294 -1.64695E-07
vn -0.7579358 0.6523294 -1.646998E-07
vn -0.7579358 0.6523294 -1.646996E-07
vn -0.7579358 0.6523294 -1.646987E-07
vn -0.7579358 0.6523294 -1.646981E-07
vn -0.7579356 0.6523296 -4.126473E-11
vn -0.7579356 0.6523296 -4.125321E-11
vn -0.7579356 0.6523296 -4.125141E-11

f 1//1 2//2 3//3
f 4//4 1//1 3//3
f 3//3 5//5 4//4
f 3//3 6//6 5//5
f 5//5 6//6 7//7
f 8//8 7//7 6//6
f 9//9 8//8 6//6
f 10//10 9//9 6//6
f 9//9 10//10 11//11
f 11//11 10//10 12//12
f 13//13 11//11 12//12
f 13//13 12//12 14//14
f 13//13 14//14 15//15
f 15//15 14//14 16//16
f 15//15 16//16 17//17
f 18//18 17//17 16//16
f 19//19 17//17 18//18
f 19//19 18//18 20//20
f 21//21 19//19 20//20
f 22//22 19//19 21//21
f 22//22 21//21 23//23
f 24//24 22//22 23//23
f 24//24 23//23 25//25
f 26//26 24//24 25//25
f 26//26 25//25 27//27
f 28//28 26//26 27//27
f 28//28 27//27 29//29
f 29//29 27//27 30//30
f 31//31 29//29 30//30
f 31//31 30//30 32//32
f 33//33 31//31 32//32
f 33//33 32//32 34//34
f 35//35 33//33 34//34
f 35//35 34//34 36//36
f 37//37 35//35 36//36
f 37//37 36//36 38//38
f 39//39 37//37 38//38
f 39//39 38//38 40//40
f 41//41 39//39 40//40
f 41//41 40//40 42//42
f 41//41 42//42 43//43
f 43//43 42//42 44//44
f 45//45 43//43 44//44
f 45//45 44//44 46//46
f 47//47 45//45 46//46
f 48//48 45//45 47//47
f 48//48 47//47 49//49
f 50//50 48//48 49//49
f 50//50 49//49 51//51
f 52//52 50//50 51//51
f 52//52 51//51 53//53
f 54//54 52//52 53//53
f 55//55 54//54 53//53
f 55//55 53//53 56//56
f 55//55 56//56 57//57
f 57//57 56//56 58//58
f 57//57 58//58 59//59
f 59//59 58//58 60//60
f 59//59 60//60 61//61
f 61//61 60//60 62//62
f 61//61 62//62 63//63
f 63//63 62//62 64//64
f 63//63 64//64 65//65
f 65//65 64//64 66//66
f 65//65 66//66 67//67
f 68//68 67//67 66//66
f 69//69 67//67 68//68
f 69//69 68//68 70//70
f 71//71 69//69 70//70
f 72//72 71//71 73//73
f 74//74 75//75 76//76
f 77//77 74//74 76//76
f 75//75 77//77 76//76
f 78//78 75//75 74//74
f 79//79 75//75 78//78
f 78//78 74//74 80//80
f 81//81 78//78 80//80
f 82//82 78//78 81//81
f 82//82 83//83 78//78
f 83//83 84//84 79//79
f 84//84 85//85 79//79
f 80//80 74//74 86//86
f 87//87 80//80 86//86
f 81//81 80//80 87//87
f 86//86 74//74 88//88
f 88//88 74//74 77//77
f 86//86 88//88 89//89
f 90//90 86//86 89//89
f 87//87 86//86 90//90
f 75//75 91//91 77//77
f 90//90 89//89 92//92
f 90//90 92//92 93//93
f 94//94 90//90 93//93
f 95//95 83//83 82//82
f 95//95 82//82 81//81
f 95//95 81//81 87//87
f 95//95 87//87 90//90
f 95//95 96//96 83//83
f 97//97 91//91 75//75
f 97//97 98//98 91//91
f 97//97 99//99 98//98
f 100//100 95//95 101//101
f 102//102 103//103 104//104
f 102//102 104//104 105//105
f 102//102 105//105 106//106
f 106//106 105//105 107//107
f 108//108 102//102 106//106
f 109//109 102//102 108//108
f 110//110 108//108 106//106
f 111//111 112//112 113//113
f 111//111 113//113 114//114
f 111//111 114//114 115//115
f 111//111 115//115 116//116
f 111//111 116//116 117//117
f 117//117 118//118 111//111
f 118//118 119//119 111//111
f 120//120 111//111 119//119
f 120//120 121//121 111//111
f 121//121 122//122 111//111
f 111//111 122//122 123//123
f 114//114 113//113 124//124
f 124//124 113//113 125//125
f 125//125 113//113 126//126
f 126//126 113//113 127//127
f 127//127 113//113 128//128
f 128//128 113//113 129//129
f 129//129 113//113 130//130
f 130//130 113//113 131//131
f 131//131 113//113 132//132
f 132//132 113//113 133//133
f 133//133 113//113 134//134
f 133//133 134//134 135//135
f 135//135 134//134 136//136
f 134//134 137//137 136//136
f 137//137 134//134 138//138
f 138//138 134//134 139//139
f 139//139 134//134 140//140
f 140//140 134//134 141//141
f 134//134 142//142 141//141
f 134//134 143//143 142//142
f 134//134 144//144 143//143
f 144//144 134//134 145//145
f 145//145 134//134 146//146
f 147//147 134//134 148//148
f 149//149 150//150 151//151
f 149//149 152//152 150//150
f 151//151 150//150 153//153
f 151//151 153//153 154//154
f 154//154 153//153 155//155
f 154//154 155//155 156//156
f 152//152 157//157 150//150
f 158//158 159//159 160//160
f 161//161 159//159 158//158
f 162//162 159//159 161//161
f 163//163 162//162 161//161
f 164//164 162//162 163//163
f 165//165 162//162 164//164
f 9//9 166//166 8//8
f 166//166 9//9 167//167
f 168//168 169//169 170//170
f 168//168 171//171 169//169
f 172//172 169//169 173//173
f 174//174 169//169 172//172
f 169//169 174//174 175//175
f 176//176 169//169 175//175
f 177//177 169//169 176//176
f 178//178 169//169 177//177
f 178//178 179//179 169//169
f 179//179 180//180 169//169
f 180//180 181//181 169//169
f 182//182 181//181 180//180
f 182//182 183//183 181//181
f 183//183 184//184 181//181
f 184//184 185//185 181//181
f 185//185 186//186 181//181
f 186//186 187//187 181//181
f 187//187 188//188 181//181
f 188//188 189//189 181//181
f 181//181 189//189 190//190
f 181//181 190//190 191//191
f 192//192 181//181 191//191
f 193//193 181//181 192//192
f 194//194 181//181 193//193
f 195//195 181//181 194//194
f 195//195 196//196 181//181
f 196//196 197//197 198//198
f 196//196 198//198 199//199
f 199//199 200//200 196//196
f 196//196 200//200 201//201
f 201//201 202//202 196//196
f 196//196 202//202 203//203
f 196//196 203//203 204//204
f 205//205 196//196 206//206
f 207//207 196//196 205//205
