v -107.8985 -92.95609 -32.98722
v -92.03818 -106.6065 -32.98721
v -107.8985 -92.95609 -32.98722
v -107.8985 -92.95609 -32.98722
v -108.3844 -93.52065 -29.49433
v -108.5788 -93.74648 -28.09717
v -108.5788 -93.74648 -28.09717
v -92.71844 -107.3969 -28.09717
v -76.8581 -121.0474 -28.09716
v -108.737 -93.93034 -28.05238
v -78.28236 -122.7022 -27.69401
v -108.7567 -93.95319 -28.04681
v -78.45934 -122.9079 -27.64391
v -108.7622 -93.9596 -28.04525
v -78.50903 -122.9656 -27.62984
v -108.8243 -94.0317 -28.02769
v -79.06747 -123.6144 -27.47177
v -109.5893 -94.92057 -27.81114
v -79.15248 -123.7132 -27.44771
v -110.3146 -95.76334 -27.60582
v -110.3981 -95.86029 -27.5822
v -79.24234 -123.8176 -27.42227
v -110.5721 -96.0625 -27.53294
v -79.26168 -123.8401 -27.4168
v -111.0336 -96.59875 -27.4023
v -79.31297 -123.8997 -27.40228
v -111.1089 -96.68622 -27.23462
v -79.7275 -124.3813 -26.47898
v -79.9905 -124.6869 -25.8932
v -111.1276 -96.70792 -27.19302
v -80.15862 -124.8822 -25.51877
v -111.1332 -96.71439 -27.18064
v -80.20864 -124.9404 -25.40734
v -111.1752 -96.7632 -27.08706
v -80.58675 -125.3797 -24.56517
v -111.6572 -97.32322 -26.01351
v -80.64031 -125.4419 -24.44588
v -112.0554 -97.78589 -25.12659
v -80.68456 -125.4933 -24.34734
v -112.449 -98.2432 -24.24994
v -80.72829 -125.5441 -24.24993
v -112.435 -98.22695 -24.13382
v -80.6024 -125.3979 -23.20477
v -112.4036 -98.19054 -23.87362
v -80.32033 -125.0701 -20.86303
v -112.3162 -98.08894 -23.14772
v -112.2812 -98.04832 -22.85742
v -80.30673 -125.0543 -20.75012
v -112.162 -97.90978 -21.86755
v -80.29348 -125.0389 -20.64013
v -112.0638 -97.79572 -21.05249
v -80.28258 -125.0263 -20.54957
v -111.9957 -97.71653 -20.48672
v -80.275 -125.0175 -20.48671
v -80.275 -125.0175 -20.48671
v -111.8735 -97.57453 -20.35777
v -79.17506 -123.7394 -19.32617
v -111.8375 -97.53273 -20.31982
v -78.8513 -123.3633 -18.98458
v -111.8338 -97.52847 -20.31594
v -78.81824 -123.3249 -18.94971
v -111.8321 -97.52649 -20.31415
v -78.80292 -123.3071 -18.93353
v -111.83 -97.52399 -20.31188
v -78.78355 -123.2845 -18.9131
v -111.79 -97.4776 -20.26976
v -78.42427 -122.8671 -18.53403
v -109.9393 -95.32726 -18.31708
v -78.21863 -122.6282 -18.31706
v -109.9393 -95.32726 -18.31708
v -78.21863 -122.6282 -18.31706
v -109.9393 -95.32726 -18.31708
v -109.9393 -95.32726 -18.31708
v -110.1337 -95.55308 -16.91992
v -110.6196 -96.11765 -13.42703
v -110.6196 -96.11764 -13.42703
v -110.6196 -96.11764 -13.42703
v -109.9393 -95.32726 -18.31708
v -109.9393 -95.32726 -18.31708
v -109.9393 -95.32726 -18.31708
v -78.21863 -122.6282 -18.31706
v -78.21863 -122.6282 -18.31706
v -78.21863 -122.6282 -18.31706
v -109.9393 -95.32726 -18.31708
v -114.7323 -100.8962 -17.76632
v -109.9393 -95.32726 -18.31708
v -78.21863 -122.6282 -18.31706
v -109.9393 -95.32726 -18.31708
v -94.07896 -108.9777 -18.31707
v -78.21863 -122.6282 -18.31706
v -94.75923 -109.7681 -13.42702
v -78.21864 -122.6282 -18.31706
v -78.21863 -122.6282 -18.31706
v -78.41299 -122.854 -16.91991
v -83.01164 -128.1971 -17.76631
v -78.21863 -122.6282 -18.31706
v -114.7323 -100.8962 -17.76632
v -78.8989 -123.4186 -13.42702
v -83.01164 -128.1971 -17.76631
v -80.275 -125.0175 -20.48671
v -80.275 -125.0175 -20.48671
v -92.03818 -106.6065 -32.98721
v -107.8985 -92.95609 -32.98722
v -107.8985 -92.95609 -32.98722
v -108.3844 -93.52065 -29.49433
v -92.71844 -107.3969 -28.09717
v -108.5788 -93.74648 -28.09717
v -76.57632 -120.72 -30.12268
v -76.17784 -120.257 -32.98721
v -76.8581 -121.0474 -28.09716
v -107.8985 -92.95609 -32.98722
v -112.8082 -98.66064 -31.59747
v -115.6389 -101.9495 -25.29277
v -111.0336 -96.59875 -27.4023
v -110.5721 -96.0625 -27.53294
v -110.3981 -95.86029 -27.5822
v -110.3146 -95.76334 -27.60582
v -109.5893 -94.92057 -27.81114
v -108.8243 -94.0317 -28.02769
v -108.7622 -93.9596 -28.04525
v -108.7567 -93.95319 -28.04681
v -108.737 -93.93034 -28.05238
v -108.5788 -93.74648 -28.09717
v -111.1089 -96.68622 -27.23462
v -111.1276 -96.70792 -27.19302
v -111.1332 -96.71439 -27.18064
v -111.1752 -96.7632 -27.08706
v -111.6572 -97.32322 -26.01351
v -112.0554 -97.78589 -25.12659
v -112.449 -98.2432 -24.24994
v -112.435 -98.22695 -24.13382
v -112.4036 -98.19054 -23.87362
v -112.3162 -98.08894 -23.14772
v -114.7323 -100.8962 -17.76632
v -112.2812 -98.04832 -22.85742
v -112.162 -97.90978 -21.86755
v -112.0638 -97.79572 -21.05249
v -111.9957 -97.71653 -20.48672
v -111.8735 -97.57453 -20.35777
v -111.8375 -97.53273 -20.31982
v -111.8338 -97.52847 -20.31594
v -111.8321 -97.52649 -20.31415
v -111.83 -97.52399 -20.31188
v -111.79 -97.4776 -20.26976
v -109.9393 -95.32726 -18.31708
v -109.9393 -95.32726 -18.31708
v -109.9393 -95.32726 -18.31708
v -110.6196 -96.11765 -13.42703
v -107.8985 -92.95609 -32.98722
v -81.08756 -125.9616 -31.59746
v -112.8082 -98.66064 -31.59747
v -92.03818 -106.6065 -32.98721
v -83.91821 -129.2505 -25.29275
v -115.6389 -101.9495 -25.29277
v -83.01164 -128.1971 -17.76631
v -114.7323 -100.8962 -17.76632
v -76.17784 -120.257 -32.98721
v -110.6196 -96.11764 -13.42703
v -94.07896 -108.9777 -18.31707
v -109.9393 -95.32726 -18.31708
v -94.75923 -109.7681 -13.42702
v -78.21864 -122.6282 -18.31706
v -78.8989 -123.4186 -13.42702
v -78.41299 -122.854 -16.91991
v -78.21863 -122.6282 -18.31706
v -76.8581 -121.0474 -28.09716
v -81.08756 -125.9616 -31.59746
v -76.57632 -120.72 -30.12268
v -81.08756 -125.9616 -31.59746
v -76.17784 -120.257 -32.98721
v -76.8581 -121.0474 -28.09716
v -78.28236 -122.7022 -27.69401
v -76.8581 -121.0474 -28.09716
v -78.45934 -122.9079 -27.64391
v -78.50903 -122.9656 -27.62984
v -79.06747 -123.6144 -27.47177
v -79.15248 -123.7132 -27.44771
v -79.24234 -123.8176 -27.42227
v -79.26168 -123.8401 -27.4168
v -79.31297 -123.8997 -27.40228
v -83.91821 -129.2505 -25.29275
v -79.7275 -124.3813 -26.47898
v -79.9905 -124.6869 -25.8932
v -80.15862 -124.8822 -25.51877
v -80.20864 -124.9404 -25.40734
v -80.58675 -125.3797 -24.56517
v -80.64031 -125.4419 -24.44588
v -80.68456 -125.4933 -24.34734
v -80.72829 -125.5441 -24.24993
v -80.6024 -125.3979 -23.20477
v -80.32033 -125.0701 -20.86303
v -80.30673 -125.0543 -20.75012
v -80.29348 -125.0389 -20.64013
v -80.28258 -125.0263 -20.54957
v -80.275 -125.0175 -20.48671
v -83.01164 -128.1971 -17.76631
v -80.275 -125.0175 -20.48671
v -79.17506 -123.7394 -19.32617
v -78.8513 -123.3633 -18.98458
v -78.81824 -123.3249 -18.94971
v -78.80292 -123.3071 -18.93353
v -78.78355 -123.2845 -18.9131
v -78.42427 -122.8671 -18.53403
v -78.21863 -122.6282 -18.31706
v -78.41299 -122.854 -16.91991
v -78.21863 -122.6282 -18.31706
v -78.8989 -123.4186 -13.42702

vn 0.1360524 0.1580781 -0.9780088
vn 0.1360525 0.158078 -0.9780088
vn -0.3899589 0.544552 -0.74256
vn -0.7579355 0.6523296 -4.731119E-07
vn -0.7579355 0.6523296 -4.731119E-07
vn 0.1184527 0.1376296 0.9833754
vn -0.2418734 -0.06423591 0.9681794
vn 0.5873712 0.6824608 0.4350199
vn 0.11845 0.137626 0.9833761
vn 0.1184494 0.1376254 0.9833764
vn 0.1184496 0.1376256 0.9833763
vn 0.1184504 0.1376263 0.9833761
vn 0.1184511 0.1376271 0.9833759
vn 0.1184469 0.1376231 0.983377
vn 0.1184489 0.137625 0.9833765
vn 0.1184493 0.1376254 0.9833763
vn 0.1184492 0.1376253 0.9833765
vn 0.1184491 0.1376252 0.9833764
vn 0.1184493 0.1376254 0.9833764
vn 0.1184491 0.1376252 0.9833764
vn 0.1184499 0.1376261 0.9833762
vn 0.1184509 0.1376272 0.9833759
vn 0.1184494 0.1376256 0.9833763
vn 0.1184489 0.137625 0.9833765
vn 0.2138511 0.2484718 0.9447379
vn 0.5217794 0.6062503 0.6001722
vn 0.5373563 0.6243489 0.5669539
vn 0.5373558 0.6243485 0.5669546
vn 0.5373558 0.6243485 0.5669549
vn 0.5373549 0.6243477 0.5669566
vn 0.5373544 0.6243472 0.5669576
vn 0.5373535 0.6243466 0.566959
vn 0.5373548 0.6243476 0.5669567
vn 0.5373553 0.624348 0.5669557
vn 0.5373557 0.6243483 0.5669553
vn 0.5373557 0.6243482 0.5669551
vn 0.5373552 0.6243477 0.566956
vn 0.5373555 0.6243481 0.5669556
vn 0.537356 0.6243485 0.5669546
vn 0.560533 0.6512777 0.5115078
vn 0.647903 0.7527918 -0.1163032
vn 0.6414858 0.7453358 -0.1815783
vn 0.6414857 0.7453356 -0.1815794
vn 0.6414856 0.7453355 -0.18158
vn 0.6414856 0.7453355 -0.18158
vn 0.6414856 0.7453355 -0.1815796
vn 0.6414856 0.7453357 -0.1815791
vn 0.6414856 0.7453356 -0.1815795
vn 0.6414857 0.7453358 -0.1815792
vn 0.6414856 0.7453356 -0.1815795
vn 0.6414856 0.7453357 -0.1815795
vn 0.6414856 0.7453357 -0.181579
vn 0.605564 0.7035987 -0.3718082
vn 0.6414884 0.7453389 -0.1815561
vn 0.3698425 0.429716 -0.8237481
vn 0.3698418 0.4297151 -0.8237487
vn 0.3698416 0.4297149 -0.8237491
vn 0.369841 0.429714 -0.8237497
vn 0.369842 0.4297155 -0.8237486
vn 0.3698427 0.4297167 -0.8237478
vn 0.3698439 0.4297185 -0.823746
vn 0.3698639 0.4297504 -0.8237205
vn 0.3698514 0.4297304 -0.8237365
vn 0.3698387 0.4297104 -0.8237527
vn 0.3698406 0.4297132 -0.8237504
vn 0.3698418 0.4297152 -0.8237487
vn 0.3698421 0.4297156 -0.8237484
vn 0.3698423 0.4297158 -0.8237482
vn 0.3698451 0.4297189 -0.8237454
vn 0.4546319 0.528232 -0.7171339
vn 0.1360526 0.1580779 -0.9780088
vn 0.1360526 0.1580779 -0.9780088
vn 0.1360526 0.1580779 -0.9780088
vn -0.7579355 0.6523296 -4.731119E-07
vn -0.3698418 -0.4297155 0.8237486
vn -0.7579355 0.6523296 -4.731119E-07
vn 0.6148921 0.714437 0.3338975
vn -0.487967 0.5986923 -0.6351817
vn -0.5495759 0.6280203 -0.5509601
vn 0.08185825 0.2040257 -0.9755372
vn 0.1360526 0.1580779 -0.9780088
vn 0.1360526 0.1580779 -0.9780088
vn 0.1360526 0.1580779 -0.9780088
vn 0.05725961 0.2244287 -0.9728069
vn -0.7579355 0.6523296 -4.731119E-07
vn 0.1264475 0.16633 -0.9779292
vn 0.1360526 0.1580779 -0.9780088
vn 0.027497 0.2487424 -0.9681793
vn 0.1360484 0.1580729 -0.9780102
vn 0.181311 0.118621 -0.9762456
vn -0.3698419 -0.4297155 0.8237485
vn 0.1360376 0.1580603 -0.9780138
vn 0.7579364 -0.6523286 -6.316964E-06
vn 0.7579355 -0.6523296 4.731119E-07
vn 0.7579352 -0.65233 3.830991E-07
vn 0 0 0
vn -0.369842 -0.4297155 0.8237486
vn -0.369842 -0.4297155 0.8237486
vn -0.369842 -0.4297155 0.8237486
vn 0.7579352 -0.65233 3.830991E-07
vn 0.7579352 -0.65233 3.830991E-07
vn 0.6379841 0.7412674 0.2085639
vn 0.6379841 0.7412674 0.2085639
vn 0.6379841 0.7412674 0.2085639
vn 0.6379841 0.7412674 0.2085639
vn 0.6379841 0.7412674 0.2085639
vn 0.6379841 0.7412674 0.2085639
vn 0.6379841 0.7412674 0.2085639
vn 0.6379841 0.7412674 0.2085639
vn 0.6379841 0.7412674 0.2085639
vn -0.7579355 0.6523296 -4.731119E-07
vn -0.7579355 0.6523296 -4.731119E-07
vn -0.7579355 0.6523296 -4.731119E-07
vn -0.7579355 0.6523296 -4.731119E-07
vn -0.7579355 0.6523296 -4.731119E-07
vn -0.7579355 0.6523296 -4.731119E-07
vn -0.7579355 0.6523296 -4.731119E-07
vn -0.7579355 0.6523296 -4.731119E-07
vn -0.7579355 0.6523296 -4.731119E-07
vn -0.7579355 0.6523296 -4.731119E-07
vn -0.7579355 0.6523296 -4.731119E-07
vn -0.7579355 0.6523296 -4.731119E-07
vn -0.7579355 0.6523296 -4.731119E-07
vn -0.7579354 0.6523296 -4.731118E-07
vn -0.7579355 0.6523296 -4.731119E-07
vn -0.7579355 0.6523296 -4.731119E-07
vn -0.7579354 0.6523296 -4.731118E-07
vn -0.7579355 0.6523296 -4.731119E-07
vn -0.7579355 0.6523296 -4.731119E-07
vn -0.7579355 0.6523296 -4.731119E-07
vn -0.7579354 0.6523296 -4.731118E-07
vn -0.7579355 0.6523296 -4.731119E-07
vn -0.7579355 0.6523296 -4.731119E-07
vn -0.7579355 0.6523296 -4.731119E-07
vn -0.7579355 0.6523296 -4.731119E-07
vn -0.7579355 0.6523296 -4.731119E-07
vn -0.7579355 0.6523296 -4.731119E-07
vn -0.7579355 0.6523296 -4.731119E-07
vn -0.7579355 0.6523296 -4.731119E-07
vn -0.7579355 0.6523296 -4.731119E-07
vn -0.7579355 0.6523296 -4.731119E-07
vn -0.7579354 0.6523296 -4.731118E-07
vn -0.7579355 0.6523296 -4.731119E-07
vn -0.7579354 0.6523296 -4.731118E-07
vn -0.7579354 0.6523296 -4.731118E-07
vn -0.7579355 0.6523296 -4.731119E-07
vn -0.7579354 0.6523296 -4.731118E-07
vn -0.7579354 0.6523296 -4.731118E-07
vn -0.1184497 -0.1376256 -0.9833764
vn -0.2767239 -0.321523 -0.9055644
vn -0.4264437 -0.4954808 -0.7567328
vn -0.1184497 -0.1376257 -0.9833762
vn -0.6133802 -0.7126804 -0.3403697
vn -0.650597 -0.7559221 -0.07283815
vn -0.6414855 -0.7453356 0.1815796
vn -0.6414856 -0.7453356 0.1815796
vn -0.1184495 -0.1376256 -0.9833763
vn 0.6379841 0.7412674 0.2085639
vn 0.6379841 0.7412674 0.2085639
vn 0.6379841 0.7412674 0.2085639
vn 0.6379841 0.7412674 0.2085639
vn 0.6379841 0.7412674 0.2085639
vn 0.6379841 0.7412674 0.2085639
vn 0.6379841 0.7412674 0.2085639
vn 0.6379841 0.7412674 0.2085639
vn 0.02048622 -0.2870874 0.9576854
vn 0.7579356 -0.6523295 -2.474447E-07
vn 0.7579353 -0.6523297 4.281055E-07
vn 0.7579353 -0.6523298 3.15233E-07
vn 0.7579353 -0.6523298 4.281055E-07
vn 0.7579353 -0.6523298 4.281055E-07
vn 0.7579354 -0.6523297 1.482834E-07
vn 0.7579354 -0.6523297 1.482832E-07
vn 0.7579354 -0.6523297 1.482838E-07
vn 0.7579354 -0.6523297 1.482832E-07
vn 0.7579354 -0.6523297 1.482831E-07
vn 0.7579354 -0.6523296 1.482834E-07
vn 0.7579354 -0.6523297 1.482848E-07
vn 0.7579354 -0.6523296 1.482818E-07
vn 0.7579353 -0.6523299 2.845934E-07
vn 0.7579353 -0.6523299 4.094632E-07
vn 0.7579353 -0.6523299 2.858358E-07
vn 0.7579353 -0.6523299 2.858353E-07
vn 0.7579353 -0.6523299 2.858345E-07
vn 0.7579353 -0.6523299 2.85835E-07
vn 0.7579353 -0.6523299 2.85835E-07
vn 0.7579353 -0.6523299 2.858351E-07
vn 0.7579353 -0.6523299 2.858357E-07
vn 0.7579353 -0.6523299 5.083364E-07
vn 0.7579353 -0.6523299 5.330912E-07
vn 0.7579353 -0.6523299 5.330914E-07
vn 0.7579353 -0.6523299 5.330908E-07
vn 0.7579353 -0.6523299 5.330922E-07
vn 0.7579353 -0.6523299 5.330915E-07
vn 0.7579353 -0.6523299 5.330912E-07
vn 0.7579353 -0.6523298 5.335212E-07
vn 0.7579353 -0.6523298 7.452124E-07
vn 0.7579353 -0.6523298 7.452126E-07
vn 0.7579353 -0.6523298 7.45213E-07
vn 0.7579353 -0.6523298 7.452057E-07
vn 0.7579353 -0.6523298 7.452138E-07
vn 0.7579353 -0.6523298 7.452131E-07
vn 0.7579353 -0.6523298 7.452117E-07
vn 0.7579353 -0.6523297 7.452104E-07
vn 0.7579353 -0.6523298 4.281055E-07
vn 0.7579353 -0.6523298 4.281055E-07
vn 0.7579353 -0.6523297 4.281055E-07

f 1//1 2//2 3//3
f 4//4 1//1 3//3
f 3//3 5//5 4//4
f 3//3 6//6 5//5
f 5//5 6//6 7//7
f 8//8 7//7 6//6
f 9//9 8//8 6//6
f 10//10 9//9 6//6
f 9//9 10//10 11//11
f 11//11 10//10 12//12
f 13//13 11//11 12//12
f 13//13 12//12 14//14
f 13//13 14//14 15//15
f 15//15 14//14 16//16
f 15//15 16//16 17//17
f 18//18 17//17 16//16
f 19//19 17//17 18//18
f 19//19 18//18 20//20
f 21//21 19//19 20//20
f 22//22 19//19 21//21
f 22//22 21//21 23//23
f 24//24 22//22 23//23
f 24//24 23//23 25//25
f 26//26 24//24 25//25
f 26//26 25//25 27//27
f 28//28 26//26 27//27
f 28//28 27//27 29//29
f 29//29 27//27 30//30
f 31//31 29//29 30//30
f 31//31 30//30 32//32
f 33//33 31//31 32//32
f 33//33 32//32 34//34
f 35//35 33//33 34//34
f 35//35 34//34 36//36
f 37//37 35//35 36//36
f 37//37 36//36 38//38
f 39//39 37//37 38//38
f 39//39 38//38 40//40
f 41//41 39//39 40//40
f 41//41 40//40 42//42
f 41//41 42//42 43//43
f 43//43 42//42 44//44
f 45//45 43//43 44//44
f 45//45 44//44 46//46
f 47//47 45//45 46//46
f 48//48 45//45 47//47
f 48//48 47//47 49//49
f 50//50 48//48 49//49
f 50//50 49//49 51//51
f 52//52 50//50 51//51
f 52//52 51//51 53//53
f 54//54 52//52 53//53
f 55//55 54//54 53//53
f 55//55 53//53 56//56
f 55//55 56//56 57//57
f 57//57 56//56 58//58
f 57//57 58//58 59//59
f 59//59 58//58 60//60
f 59//59 60//60 61//61
f 61//61 60//60 62//62
f 61//61 62//62 63//63
f 63//63 62//62 64//64
f 63//63 64//64 65//65
f 65//65 64//64 66//66
f 65//65 66//66 67//67
f 68//68 67//67 66//66
f 69//69 67//67 68//68
f 69//69 68//68 70//70
f 71//71 69//69 70//70
f 72//72 71//71 73//73
f 74//74 75//75 76//76
f 77//77 74//74 76//76
f 75//75 77//77 76//76
f 78//78 75//75 74//74
f 79//79 75//75 78//78
f 78//78 74//74 80//80
f 81//81 78//78 80//80
f 82//82 78//78 81//81
f 82//82 83//83 78//78
f 83//83 84//84 79//79
f 84//84 85//85 79//79
f 80//80 74//74 86//86
f 87//87 80//80 86//86
f 81//81 80//80 87//87
f 86//86 74//74 88//88
f 88//88 74//74 77//77
f 86//86 88//88 89//89
f 90//90 86//86 89//89
f 87//87 86//86 90//90
f 75//75 91//91 77//77
f 90//90 89//89 92//92
f 90//90 92//92 93//93
f 94//94 90//90 93//93
f 95//95 83//83 82//82
f 95//95 82//82 81//81
f 95//95 81//81 87//87
f 95//95 87//87 90//90
f 95//95 96//96 83//83
f 97//97 91//91 75//75
f 97//97 98//98 91//91
f 97//97 99//99 98//98
f 100//100 95//95 101//101
f 102//102 103//103 104//104
f 102//102 104//104 105//105
f 102//102 105//105 106//106
f 106//106 105//105 107//107
f 108//108 102//102 106//106
f 109//109 102//102 108//108
f 110//110 108//108 106//106
f 111//111 112//112 113//113
f 111//111 113//113 114//114
f 111//111 114//114 115//115
f 111//111 115//115 116//116
f 111//111 116//116 117//117
f 117//117 118//118 111//111
f 118//118 119//119 111//111
f 120//120 111//111 119//119
f 120//120 121//121 111//111
f 121//121 122//122 111//111
f 111//111 122//122 123//123
f 114//114 113//113 124//124
f 124//124 113//113 125//125
f 125//125 113//113 126//126
f 126//126 113//113 127//127
f 127//127 113//113 128//128
f 128//128 113//113 129//129
f 129//129 113//113 130//130
f 130//130 113//113 131//131
f 131//131 113//113 132//132
f 132//132 113//113 133//133
f 133//133 113//113 134//134
f 133//133 134//134 135//135
f 135//135 134//134 136//136
f 134//134 137//137 136//136
f 137//137 134//134 138//138
f 138//138 134//134 139//139
f 139//139 134//134 140//140
f 140//140 134//134 141//141
f 134//134 142//142 141//141
f 134//134 143//143 142//142
f 134//134 144//144 143//143
f 144//144 134//134 145//145
f 145//145 134//134 146//146
f 147//147 134//134 148//148
f 149//149 150//150 151//151
f 149//149 152//152 150//150
f 151//151 150//150 153//153
f 151//151 153//153 154//154
f 154//154 153//153 155//155
f 154//154 155//155 156//156
f 152//152 157//157 150//150
f 158//158 159//159 160//160
f 161//161 159//159 158//158
f 162//162 159//159 161//161
f 163//163 162//162 161//161
f 164//164 162//162 163//163
f 165//165 162//162 164//164
f 9//9 166//166 8//8
f 166//166 9//9 167//167
f 168//168 169//169 170//170
f 168//168 171//171 169//169
f 172//172 169//169 173//173
f 174//174 169//169 172//172
f 169//169 174//174 175//175
f 176//176 169//169 175//175
f 177//177 169//169 176//176
f 178//178 169//169 177//177
f 178//178 179//179 169//169
f 179//179 180//180 169//169
f 180//180 181//181 169//169
f 182//182 181//181 180//180
f 182//182 183//183 181//181
f 183//183 184//184 181//181
f 184//184 185//185 181//181
f 185//185 186//186 181//181
f 186//186 187//187 181//181
f 187//187 188//188 181//181
f 188//188 189//189 181//181
f 181//181 189//189 190//190
f 181//181 190//190 191//191
f 192//192 181//181 191//191
f 193//193 181//181 192//192
f 194//194 181//181 193//193
f 195//195 181//181 194//194
f 195//195 196//196 181//181
f 196//196 197//197 198//198
f 196//196 198//198 199//199
f 199//199 200//200 196//196
f 196//196 200//200 201//201
f 201//201 202//202 196//196
f 196//196 202//202 203//203
f 196//196 203//203 204//204
f 205//205 196//196 206//206
f 207//207 196//196 205//205
