v -141.8929 -13.06551 32.34739
v -137.0851 -33.43144 32.34739
v -141.8929 -13.06551 32.34739
v -141.8929 -13.06551 32.34739
v -142.4347 -13.19341 28.81961
v -142.6514 -13.24457 27.4085
v -142.6514 -13.24457 27.4085
v -137.8436 -33.6105 27.4085
v -133.0359 -53.97643 27.4085
v -142.4466 -13.19623 27.27972
v -131.1928 -53.54134 26.2495
v -142.4212 -13.19022 27.26372
v -130.9638 -53.48728 26.10547
v -142.414 -13.18853 27.25922
v -130.8995 -53.4721 26.06504
v -142.3337 -13.16958 27.20873
v -130.1768 -53.3015 25.6106
v -141.3437 -12.93587 26.58619
v -130.0668 -53.27554 25.54143
v -140.4051 -12.71429 25.99594
v -140.2971 -12.6888 25.92803
v -129.9506 -53.24809 25.4683
v -140.0719 -12.63564 25.78641
v -129.9255 -53.24218 25.45256
v -139.4747 -12.49464 25.41083
v -129.8592 -53.22651 25.41083
v -139.4283 -12.4837 25.21293
v -129.6039 -53.16625 24.32109
v -129.442 -53.12802 23.62971
v -139.4168 -12.48099 25.16383
v -129.3384 -53.10358 23.1878
v -139.4134 -12.48018 25.14921
v -129.3076 -53.09631 23.05628
v -139.3875 -12.47407 25.03877
v -129.0748 -53.04135 22.06229
v -139.0907 -12.40401 23.7717
v -129.0418 -53.03356 21.92151
v -138.8455 -12.34612 22.72491
v -129.0146 -53.02713 21.8052
v -138.6031 -12.28891 21.69024
v -128.9877 -53.02077 21.69024
v -138.6631 -12.30307 21.58951
v -129.5276 -53.14824 20.78371
v -138.7976 -12.3348 21.36383
v -130.7375 -53.43385 18.75259
v -139.1726 -12.42334 20.73422
v -139.3226 -12.45874 20.48242
v -130.7958 -53.44762 18.65465
v -139.834 -12.57947 19.62385
v -130.8526 -53.46103 18.55926
v -140.2551 -12.67887 18.91691
v -130.8994 -53.47208 18.48071
v -140.5474 -12.74788 18.42619
v -130.9319 -53.47974 18.42619
v -130.9319 -53.47974 18.42618
v -140.7626 -12.79868 18.37296
v -132.8688 -53.93698 17.9472
v -140.8259 -12.81363 18.3573
v -133.4389 -54.07156 17.80622
v -140.8324 -12.81516 18.3557
v -133.4971 -54.0853 17.79182
v -140.8354 -12.81587 18.35496
v -133.5241 -54.09167 17.78515
v -140.8392 -12.81676 18.35402
v -133.5582 -54.09973 17.77671
v -140.9095 -12.83336 18.33664
v -134.1908 -54.24908 17.62026
v -144.1684 -13.60269 17.53072
v -134.5529 -54.33456 17.53072
v -144.1684 -13.60269 17.53072
v -134.5529 -54.33456 17.53072
v -144.1684 -13.60269 17.53072
v -144.1684 -13.60269 17.53072
v -144.3852 -13.65385 16.11961
v -144.927 -13.78176 12.59183
v -144.927 -13.78176 12.59183
v -144.927 -13.78176 12.59183
v -144.1684 -13.60269 17.53072
v -144.1684 -13.60269 17.53072
v -144.1684 -13.60269 17.53072
v -134.5529 -54.33456 17.53072
v -134.5529 -54.33456 17.53072
v -134.5529 -54.33456 17.53072
v -144.1684 -13.60269 17.53072
v -137.6848 -12.07212 14.38276
v -144.1684 -13.60269 17.53072
v -134.5529 -54.33456 17.53072
v -144.1684 -13.60269 17.53072
v -139.3607 -33.96863 17.53072
v -134.5529 -54.33456 17.53072
v -140.1192 -34.14769 12.59183
v -134.553 -54.33454 17.53072
v -134.5529 -54.33456 17.53072
v -134.7697 -54.38572 16.11961
v -128.0694 -52.80399 14.38276
v -134.5529 -54.33456 17.53072
v -137.6848 -12.07212 14.38276
v -135.3115 -54.51362 12.59183
v -128.0694 -52.80399 14.38276
v -130.9319 -53.47974 18.42618
v -130.9319 -53.47974 18.42619
v -137.0851 -33.43144 32.34739
v -141.8929 -13.06551 32.34739
v -141.8929 -13.06551 32.34739
v -142.4347 -13.19341 28.81961
v -137.8436 -33.6105 27.4085
v -142.6514 -13.24457 27.4085
v -132.7217 -53.90227 29.45425
v -132.2774 -53.79737 32.34739
v -133.0359 -53.97643 27.4085
v -141.8929 -13.06551 32.34739
v -135.5394 -11.56566 28.35205
v -133.7964 -11.15418 20.91086
v -139.4747 -12.49464 25.41083
v -140.0719 -12.63564 25.78641
v -140.2971 -12.6888 25.92803
v -140.4051 -12.71429 25.99594
v -141.3437 -12.93587 26.58619
v -142.3337 -13.16958 27.20873
v -142.414 -13.18853 27.25922
v -142.4212 -13.19022 27.26372
v -142.4466 -13.19623 27.27972
v -142.6514 -13.24457 27.4085
v -139.4283 -12.4837 25.21293
v -139.4168 -12.48099 25.16383
v -139.4134 -12.48018 25.14921
v -139.3875 -12.47407 25.03877
v -139.0907 -12.40401 23.7717
v -138.8455 -12.34612 22.72491
v -138.6031 -12.28891 21.69024
v -138.6631 -12.30307 21.58951
v -138.7976 -12.3348 21.36383
v -139.1726 -12.42334 20.73422
v -137.6848 -12.07212 14.38276
v -139.3226 -12.45874 20.48242
v -139.834 -12.57947 19.62385
v -140.2551 -12.67887 18.91691
v -140.5474 -12.74788 18.42619
v -140.7626 -12.79868 18.37296
v -140.8259 -12.81363 18.3573
v -140.8324 -12.81516 18.3557
v -140.8354 -12.81587 18.35496
v -140.8392 -12.81676 18.35402
v -140.9095 -12.83336 18.33664
v -144.1684 -13.60269 17.53072
v -144.1684 -13.60269 17.53072
v -144.1684 -13.60269 17.53072
v -144.927 -13.78176 12.59183
v -141.8929 -13.06551 32.34739
v -125.9239 -52.29752 28.35205
v -135.5394 -11.56566 28.35205
v -137.0851 -33.43144 32.34739
v -124.1809 -51.88605 20.91086
v -133.7964 -11.15418 20.91086
v -128.0694 -52.80399 14.38276
v -137.6848 -12.07212 14.38276
v -132.2774 -53.79737 32.34739
v -144.927 -13.78176 12.59183
v -139.3607 -33.96863 17.53072
v -144.1684 -13.60269 17.53072
v -140.1192 -34.14769 12.59183
v -134.553 -54.33454 17.53072
v -135.3115 -54.51362 12.59183
v -134.7697 -54.38572 16.11961
v -134.5529 -54.33456 17.53072
v -133.0359 -53.97643 27.4085
v -125.9239 -52.29752 28.35205
v -132.7217 -53.90227 29.45425
v -125.9239 -52.29752 28.35205
v -132.2774 -53.79737 32.34739
v -133.0359 -53.97643 27.4085
v -131.1928 -53.54134 26.2495
v -133.0359 -53.97643 27.4085
v -130.9638 -53.48728 26.10547
v -130.8995 -53.4721 26.06504
v -130.1768 -53.3015 25.6106
v -130.0668 -53.27554 25.54143
v -129.9506 -53.24809 25.4683
v -129.9255 -53.24218 25.45256
v -129.8592 -53.22651 25.41083
v -124.1809 -51.88605 20.91086
v -129.6039 -53.16625 24.32109
v -129.442 -53.12802 23.62971
v -129.3384 -53.10358 23.1878
v -129.3076 -53.09631 23.05628
v -129.0748 -53.04135 22.06229
v -129.0418 -53.03356 21.92151
v -129.0146 -53.02713 21.8052
v -128.9877 -53.02077 21.69024
v -129.5276 -53.14824 20.78371
v -130.7375 -53.43385 18.75259
v -130.7958 -53.44762 18.65465
v -130.8526 -53.46103 18.55926
v -130.8994 -53.47208 18.48071
v -130.9319 -53.47974 18.42619
v -128.0694 -52.80399 14.38276
v -130.9319 -53.47974 18.42618
v -132.8688 -53.93698 17.9472
v -133.4389 -54.07156 17.80622
v -133.4971 -54.0853 17.79182
v -133.5241 -54.09167 17.78515
v -133.5582 -54.09973 17.77671
v -134.1908 -54.24908 17.62026
v -134.5529 -54.33456 17.53072
v -134.7697 -54.38572 16.11961
v -134.5529 -54.33456 17.53072
v -135.3115 -54.51362 12.59183

vn 0.1517045 0.0358129 0.987777
vn 0.1517045 0.03581275 0.987777
vn -0.03433834 0.6605729 0.7499763
vn -0.2297527 0.9732491 1.192093E-07
vn -0.2297527 0.9732491 1.192093E-07
vn -0.5080547 -0.1199352 -0.8529339
vn -0.1826718 0.1021854 -0.9778494
vn -0.9698629 -0.2289536 -0.0833448
vn -0.5080508 -0.1199346 -0.8529363
vn -0.5080501 -0.1199344 -0.8529367
vn -0.5080504 -0.1199345 -0.8529366
vn -0.5080512 -0.1199348 -0.852936
vn -0.5080521 -0.1199351 -0.8529354
vn -0.5080474 -0.1199333 -0.8529385
vn -0.5080497 -0.1199342 -0.852937
vn -0.50805 -0.1199343 -0.8529367
vn -0.50805 -0.1199343 -0.8529369
vn -0.5080498 -0.1199343 -0.8529369
vn -0.5080501 -0.1199343 -0.8529367
vn -0.5080498 -0.1199343 -0.8529369
vn -0.5080508 -0.1199345 -0.8529363
vn -0.5080521 -0.1199348 -0.8529354
vn -0.5080503 -0.1199343 -0.8529366
vn -0.5080496 -0.1199342 -0.8529371
vn -0.6274468 -0.14812 -0.7644418
vn -0.936123 -0.2209886 -0.2735651
vn -0.9462297 -0.2233746 -0.2339947
vn -0.9462294 -0.2233745 -0.2339955
vn -0.9462294 -0.2233744 -0.2339958
vn -0.946229 -0.2233742 -0.2339979
vn -0.9462287 -0.223374 -0.2339991
vn -0.9462283 -0.2233737 -0.2340008
vn -0.9462289 -0.2233741 -0.233998
vn -0.9462291 -0.2233744 -0.2339969
vn -0.9462293 -0.2233745 -0.2339963
vn -0.9462292 -0.2233745 -0.2339962
vn -0.946229 -0.2233744 -0.2339973
vn -0.9462292 -0.2233744 -0.2339967
vn -0.9462295 -0.2233745 -0.2339955
vn -0.9591668 -0.2264286 -0.1694975
vn -0.8618309 -0.2034507 0.4646026
vn -0.8301203 -0.1959648 0.5220135
vn -0.8301198 -0.1959648 0.5220145
vn -0.8301194 -0.1959647 0.5220151
vn -0.8301194 -0.1959647 0.5220151
vn -0.8301196 -0.1959647 0.5220147
vn -0.8301199 -0.1959646 0.5220142
vn -0.8301197 -0.1959647 0.5220146
vn -0.8301199 -0.1959647 0.5220143
vn -0.8301197 -0.1959646 0.5220146
vn -0.8301198 -0.1959646 0.5220146
vn -0.8301199 -0.1959647 0.5220142
vn -0.7137222 -0.1684869 0.6798624
vn -0.8301318 -0.1959675 0.5219944
vn -0.2277376 -0.05376155 0.9722373
vn -0.2277364 -0.0537613 0.9722375
vn -0.227736 -0.05376124 0.9722378
vn -0.2277348 -0.05376107 0.9722379
vn -0.2277368 -0.05376134 0.9722375
vn -0.2277384 -0.05376142 0.9722372
vn -0.227741 -0.05376176 0.9722365
vn -0.2277851 -0.0537664 0.9722258
vn -0.2277575 -0.05376355 0.9722326
vn -0.2277297 -0.05376045 0.9722393
vn -0.2277337 -0.05376099 0.9722383
vn -0.2277365 -0.0537613 0.9722375
vn -0.2277371 -0.05376141 0.9722373
vn -0.2277373 -0.05376147 0.9722373
vn -0.2277421 -0.05376266 0.9722362
vn -0.3830279 -0.09042064 0.9193007
vn 0.1517046 0.03581256 0.987777
vn 0.1517046 0.03581256 0.987777
vn 0.1517046 0.03581256 0.987777
vn -0.2297527 0.9732491 1.192093E-07
vn 0.2277368 0.0537612 -0.9722375
vn -0.2297527 0.9732491 1.192093E-07
vn -0.9729155 -0.2296742 0.02618044
vn -0.07617555 0.7633101 0.6415255
vn -0.1043636 0.8242922 0.5564626
vn 0.1349975 0.1048704 0.9852807
vn 0.1517046 0.03581256 0.987777
vn 0.1517046 0.03581256 0.987777
vn 0.1517046 0.03581256 0.987777
vn 0.1272325 0.1358693 0.982523
vn -0.2297527 0.9732491 1.192093E-07
vn 0.1487775 0.04813281 0.9876987
vn 0.1517046 0.03581256 0.987777
vn 0.1176879 0.1730908 0.9778493
vn 0.1517109 0.03581407 0.9877759
vn 0.1652317 -0.02268625 0.9859939
vn 0.2277367 0.05376127 -0.9722375
vn 0.1517273 0.03581793 0.9877733
vn 0.2297537 -0.9732488 6.738685E-06
vn 0.2297527 -0.9732491 -1.192093E-07
vn 0.2297531 -0.973249 -1.86482E-07
vn 0 0 0
vn 0.2277368 0.0537613 -0.9722375
vn 0.2277368 0.05376133 -0.9722375
vn 0.2277368 0.05376131 -0.9722376
vn 0.2297531 -0.973249 -1.86482E-07
vn 0.2297531 -0.973249 -1.86482E-07
vn -0.961353 -0.2269446 0.1558743
vn -0.9613529 -0.2269446 0.1558742
vn -0.961353 -0.2269446 0.1558743
vn -0.961353 -0.2269446 0.1558743
vn -0.961353 -0.2269446 0.1558743
vn -0.961353 -0.2269446 0.1558743
vn -0.961353 -0.2269446 0.1558743
vn -0.961353 -0.2269446 0.1558743
vn -0.961353 -0.2269446 0.1558743
vn -0.2297527 0.9732491 1.192093E-07
vn -0.2297527 0.9732491 1.192093E-07
vn -0.2297527 0.9732491 1.192093E-07
vn -0.2297527 0.9732491 1.192093E-07
vn -0.2297527 0.9732491 1.192093E-07
vn -0.2297527 0.9732491 1.192093E-07
vn -0.2297527 0.9732491 1.192093E-07
vn -0.2297527 0.9732491 1.192093E-07
vn -0.2297527 0.9732491 1.192093E-07
vn -0.2297527 0.9732491 1.192093E-07
vn -0.2297527 0.9732491 1.192093E-07
vn -0.2297527 0.9732491 1.192093E-07
vn -0.2297527 0.9732491 1.192093E-07
vn -0.2297527 0.973249 1.192093E-07
vn -0.2297527 0.9732491 1.192093E-07
vn -0.2297527 0.9732491 1.192093E-07
vn -0.2297527 0.973249 1.192093E-07
vn -0.2297527 0.9732491 1.192093E-07
vn -0.2297527 0.9732491 1.192093E-07
vn -0.2297527 0.9732491 1.192093E-07
vn -0.2297527 0.973249 1.192093E-07
vn -0.2297527 0.9732491 1.192093E-07
vn -0.2297527 0.9732491 1.192093E-07
vn -0.2297527 0.9732491 1.192093E-07
vn -0.2297527 0.9732491 1.192093E-07
vn -0.2297527 0.9732491 1.192093E-07
vn -0.2297527 0.9732491 1.192093E-07
vn -0.2297527 0.9732491 1.192093E-07
vn -0.2297527 0.9732491 1.192093E-07
vn -0.2297527 0.9732491 1.192093E-07
vn -0.2297527 0.9732491 1.192093E-07
vn -0.2297527 0.973249 1.192093E-07
vn -0.2297527 0.9732491 1.192093E-07
vn -0.2297527 0.973249 1.192093E-07
vn -0.2297527 0.973249 1.192093E-07
vn -0.2297527 0.9732491 1.192093E-07
vn -0.2297527 0.973249 1.192093E-07
vn -0.2297527 0.973249 1.192093E-07
vn 0.5080504 0.1199345 0.8529366
vn 0.70135 0.1655663 0.6933225
vn 0.8579581 0.2025364 0.4721092
vn 0.5080504 0.1199345 0.8529364
vn 0.9730677 0.2297101 -0.01930761
vn 0.9315694 0.2199136 -0.2895112
vn 0.8301196 0.1959646 -0.5220147
vn 0.8301197 0.1959646 -0.5220147
vn 0.5080503 0.1199344 0.8529366
vn -0.961353 -0.2269446 0.1558743
vn -0.961353 -0.2269446 0.1558743
vn -0.961353 -0.2269446 0.1558743
vn -0.961353 -0.2269446 0.1558743
vn -0.961353 -0.2269446 0.1558743
vn -0.961353 -0.2269446 0.1558743
vn -0.961353 -0.2269446 0.1558743
vn -0.9613529 -0.2269446 0.1558742
vn -0.1019575 -0.2324462 -0.9672505
vn 0.2297528 -0.9732491 6.085441E-07
vn 0.2297529 -0.973249 -1.528457E-07
vn 0.2297529 -0.973249 -4.5398E-08
vn 0.2297529 -0.973249 -1.528457E-07
vn 0.2297529 -0.973249 -1.528457E-07
vn 0.2297529 -0.973249 1.625323E-07
vn 0.2297529 -0.973249 1.625325E-07
vn 0.2297529 -0.973249 1.625318E-07
vn 0.2297529 -0.973249 1.625326E-07
vn 0.2297529 -0.973249 1.625327E-07
vn 0.2297528 -0.973249 1.625322E-07
vn 0.2297529 -0.973249 1.625303E-07
vn 0.2297528 -0.973249 1.625347E-07
vn 0.229753 -0.973249 -4.006972E-08
vn 0.229753 -0.973249 -1.667783E-07
vn 0.229753 -0.973249 -4.191604E-08
vn 0.229753 -0.973249 -4.191555E-08
vn 0.229753 -0.973249 -4.191487E-08
vn 0.229753 -0.973249 -4.19153E-08
vn 0.229753 -0.973249 -4.191535E-08
vn 0.229753 -0.973249 -4.191547E-08
vn 0.229753 -0.973249 -4.191607E-08
vn 0.229753 -0.973249 -2.66639E-07
vn 0.229753 -0.973249 -2.916411E-07
vn 0.229753 -0.973249 -2.916413E-07
vn 0.229753 -0.973249 -2.916405E-07
vn 0.229753 -0.973249 -2.916423E-07
vn 0.229753 -0.973249 -2.916414E-07
vn 0.229753 -0.973249 -2.91641E-07
vn 0.2297529 -0.973249 -2.658664E-07
vn 0.2297528 -0.9732491 -4.403586E-07
vn 0.2297528 -0.9732491 -4.403588E-07
vn 0.2297528 -0.9732491 -4.403591E-07
vn 0.2297528 -0.9732491 -4.403529E-07
vn 0.2297528 -0.9732491 -4.403598E-07
vn 0.2297528 -0.9732491 -4.403593E-07
vn 0.2297528 -0.9732491 -4.40358E-07
vn 0.2297527 -0.973249 -4.403569E-07
vn 0.2297529 -0.973249 -1.528457E-07
vn 0.2297529 -0.973249 -1.528457E-07
vn 0.2297529 -0.973249 -1.528457E-07

f 1//1 2//2 3//3
f 4//4 1//1 3//3
f 3//3 5//5 4//4
f 3//3 6//6 5//5
f 5//5 6//6 7//7
f 8//8 7//7 6//6
f 9//9 8//8 6//6
f 10//10 9//9 6//6
f 9//9 10//10 11//11
f 11//11 10//10 12//12
f 13//13 11//11 12//12
f 13//13 12//12 14//14
f 13//13 14//14 15//15
f 15//15 14//14 16//16
f 15//15 16//16 17//17
f 18//18 17//17 16//16
f 19//19 17//17 18//18
f 19//19 18//18 20//20
f 21//21 19//19 20//20
f 22//22 19//19 21//21
f 22//22 21//21 23//23
f 24//24 22//22 23//23
f 24//24 23//23 25//25
f 26//26 24//24 25//25
f 26//26 25//25 27//27
f 28//28 26//26 27//27
f 28//28 27//27 29//29
f 29//29 27//27 30//30
f 31//31 29//29 30//30
f 31//31 30//30 32//32
f 33//33 31//31 32//32
f 33//33 32//32 34//34
f 35//35 33//33 34//34
f 35//35 34//34 36//36
f 37//37 35//35 36//36
f 37//37 36//36 38//38
f 39//39 37//37 38//38
f 39//39 38//38 40//40
f 41//41 39//39 40//40
f 41//41 40//40 42//42
f 41//41 42//42 43//43
f 43//43 42//42 44//44
f 45//45 43//43 44//44
f 45//45 44//44 46//46
f 47//47 45//45 46//46
f 48//48 45//45 47//47
f 48//48 47//47 49//49
f 50//50 48//48 49//49
f 50//50 49//49 51//51
f 52//52 50//50 51//51
f 52//52 51//51 53//53
f 54//54 52//52 53//53
f 55//55 54//54 53//53
f 55//55 53//53 56//56
f 55//55 56//56 57//57
f 57//57 56//56 58//58
f 57//57 58//58 59//59
f 59//59 58//58 60//60
f 59//59 60//60 61//61
f 61//61 60//60 62//62
f 61//61 62//62 63//63
f 63//63 62//62 64//64
f 63//63 64//64 65//65
f 65//65 64//64 66//66
f 65//65 66//66 67//67
f 68//68 67//67 66//66
f 69//69 67//67 68//68
f 69//69 68//68 70//70
f 71//71 69//69 70//70
f 72//72 71//71 73//73
f 74//74 75//75 76//76
f 77//77 74//74 76//76
f 75//75 77//77 76//76
f 78//78 75//75 74//74
f 79//79 75//75 78//78
f 78//78 74//74 80//80
f 81//81 78//78 80//80
f 82//82 78//78 81//81
f 82//82 83//83 78//78
f 83//83 84//84 79//79
f 84//84 85//85 79//79
f 80//80 74//74 86//86
f 87//87 80//80 86//86
f 81//81 80//80 87//87
f 86//86 74//74 88//88
f 88//88 74//74 77//77
f 86//86 88//88 89//89
f 90//90 86//86 89//89
f 87//87 86//86 90//90
f 75//75 91//91 77//77
f 90//90 89//89 92//92
f 90//90 92//92 93//93
f 94//94 90//90 93//93
f 95//95 83//83 82//82
f 95//95 82//82 81//81
f 95//95 81//81 87//87
f 95//95 87//87 90//90
f 95//95 96//96 83//83
f 97//97 91//91 75//75
f 97//97 98//98 91//91
f 97//97 99//99 98//98
f 100//100 95//95 101//101
f 102//102 103//103 104//104
f 102//102 104//104 105//105
f 102//102 105//105 106//106
f 106//106 105//105 107//107
f 108//108 102//102 106//106
f 109//109 102//102 108//108
f 110//110 108//108 106//106
f 111//111 112//112 113//113
f 111//111 113//113 114//114
f 111//111 114//114 115//115
f 111//111 115//115 116//116
f 111//111 116//116 117//117
f 117//117 118//118 111//111
f 118//118 119//119 111//111
f 120//120 111//111 119//119
f 120//120 121//121 111//111
f 121//121 122//122 111//111
f 111//111 122//122 123//123
f 114//114 113//113 124//124
f 124//124 113//113 125//125
f 125//125 113//113 126//126
f 126//126 113//113 127//127
f 127//127 113//113 128//128
f 128//128 113//113 129//129
f 129//129 113//113 130//130
f 130//130 113//113 131//131
f 131//131 113//113 132//132
f 132//132 113//113 133//133
f 133//133 113//113 134//134
f 133//133 134//134 135//135
f 135//135 134//134 136//136
f 134//134 137//137 136//136
f 137//137 134//134 138//138
f 138//138 134//134 139//139
f 139//139 134//134 140//140
f 140//140 134//134 141//141
f 134//134 142//142 141//141
f 134//134 143//143 142//142
f 134//134 144//144 143//143
f 144//144 134//134 145//145
f 145//145 134//134 146//146
f 147//147 134//134 148//148
f 149//149 150//150 151//151
f 149//149 152//152 150//150
f 151//151 150//150 153//153
f 151//151 153//153 154//154
f 154//154 153//153 155//155
f 154//154 155//155 156//156
f 152//152 157//157 150//150
f 158//158 159//159 160//160
f 161//161 159//159 158//158
f 162//162 159//159 161//161
f 163//163 162//162 161//161
f 164//164 162//162 163//163
f 165//165 162//162 164//164
f 9//9 166//166 8//8
f 166//166 9//9 167//167
f 168//168 169//169 170//170
f 168//168 171//171 169//169
f 172//172 169//169 173//173
f 174//174 169//169 172//172
f 169//169 174//174 175//175
f 176//176 169//169 175//175
f 177//177 169//169 176//176
f 178//178 169//169 177//177
f 178//178 179//179 169//169
f 179//179 180//180 169//169
f 180//180 181//181 169//169
f 182//182 181//181 180//180
f 182//182 183//183 181//181
f 183//183 184//184 181//181
f 184//184 185//185 181//181
f 185//185 186//186 181//181
f 186//186 187//187 181//181
f 187//187 188//188 181//181
f 188//188 189//189 181//181
f 181//181 189//189 190//190
f 181//181 190//190 191//191
f 192//192 181//181 191//191
f 193//193 181//181 192//192
f 194//194 181//181 193//193
f 195//195 181//181 194//194
f 195//195 196//196 181//181
f 196//196 197//197 198//198
f 196//196 198//198 199//199
f 199//199 200//200 196//196
f 196//196 200//200 201//201
f 201//201 202//202 196//196
f 196//196 202//202 203//203
f 196//196 203//203 204//204
f 205//205 196//196 206//206
f 207//207 196//196 205//205
