v -38.92948 -12.82168 138.8844
v -23.06915 -26.47213 138.8844
v -38.92948 -12.82168 138.8844
v -38.92948 -12.82168 138.8844
v -41.14793 -15.39928 137.7937
v -42.03531 -16.43032 137.3574
v -42.03531 -16.43032 137.3574
v -26.17498 -30.08077 137.3574
v -10.31464 -43.73122 137.3574
v -42.04855 -16.4457 137.1116
v -10.43378 -43.86964 135.1447
v -42.05019 -16.44761 137.081
v -10.44858 -43.88685 134.8698
v -42.05066 -16.44814 137.0724
v -10.45274 -43.89168 134.7926
v -42.05585 -16.45417 136.976
v -10.49945 -43.94595 133.925
v -42.11984 -16.52852 135.7875
v -10.50656 -43.95421 133.7929
v -42.18051 -16.59902 134.6606
v -42.18749 -16.60713 134.531
v -10.51408 -43.96294 133.6533
v -42.20205 -16.62404 134.2606
v -10.5157 -43.96482 133.6232
v -42.24065 -16.6689 133.5436
v -10.51998 -43.96981 133.5436
v -42.34195 -16.78659 133.412
v -11.07777 -44.6179 132.8189
v -11.43166 -45.02908 132.3591
v -42.36708 -16.8158 133.3793
v -11.65786 -45.29189 132.0652
v -42.37457 -16.82449 133.3696
v -11.72518 -45.37011 131.9778
v -42.43109 -16.89017 133.2961
v -12.23395 -45.96125 131.3168
v -43.07965 -17.64372 132.4535
v -12.30601 -46.04498 131.2231
v -43.61546 -18.26627 131.7574
v -12.36555 -46.11415 131.1458
v -44.14506 -18.88161 131.0693
v -12.42439 -46.18253 131.0693
v -44.22184 -18.97082 131.079
v -13.11535 -46.98534 131.1568
v -44.39385 -19.17068 131.1008
v -14.6635 -48.78412 131.3526
v -44.87375 -19.72827 131.1615
v -45.06567 -19.95126 131.1858
v -14.73815 -48.87086 131.3621
v -45.72009 -20.71162 131.2686
v -14.81086 -48.95534 131.3713
v -46.25893 -21.33769 131.3368
v -14.87073 -49.0249 131.3789
v -46.63296 -21.77228 131.3841
v -14.91229 -49.07319 131.3841
v -14.91229 -49.07319 131.3841
v -46.72889 -21.88374 131.5576
v -15.77563 -50.07629 132.9457
v -46.75712 -21.91654 131.6087
v -16.02974 -50.37154 133.4053
v -46.76 -21.91989 131.6139
v -16.05568 -50.40168 133.4523
v -46.76134 -21.92144 131.6163
v -16.06771 -50.41566 133.474
v -46.76303 -21.92341 131.6194
v -16.08291 -50.43332 133.5015
v -46.79436 -21.95981 131.6761
v -16.3649 -50.76096 134.0116
v -48.24697 -23.64758 134.3035
v -16.52631 -50.94849 134.3035
v -48.24697 -23.64758 134.3035
v -16.52631 -50.94849 134.3035
v -48.24697 -23.64758 134.3035
v -48.24697 -23.64758 134.3035
v -49.13435 -24.67862 133.8672
v -51.35281 -27.25622 132.7766
v -51.35281 -27.25622 132.7766
v -51.35281 -27.25622 132.7766
v -48.24697 -23.64758 134.3035
v -48.24697 -23.64758 134.3035
v -48.24697 -23.64758 134.3035
v -16.52631 -50.94849 134.3035
v -16.52631 -50.94849 134.3035
v -16.52631 -50.94849 134.3035
v -48.24697 -23.64758 134.3035
v -48.12478 -23.50561 126.9378
v -48.24697 -23.64758 134.3035
v -16.52631 -50.94849 134.3035
v -48.24697 -23.64758 134.3035
v -32.38664 -37.29804 134.3035
v -16.52631 -50.94849 134.3035
v -35.49247 -40.90667 132.7766
v -16.52632 -50.94848 134.3035
v -16.52631 -50.94849 134.3035
v -17.41368 -51.97953 133.8672
v -16.40411 -50.80652 126.9378
v -16.52631 -50.94849 134.3035
v -48.12478 -23.50561 126.9378
v -19.63214 -54.55713 132.7766
v -16.40411 -50.80652 126.9378
v -14.91229 -49.07319 131.3841
v -14.91229 -49.07319 131.3841
v -23.06915 -26.47213 138.8844
v -38.92948 -12.82168 138.8844
v -38.92948 -12.82168 138.8844
v -41.14793 -15.39928 137.7937
v -26.17498 -30.08077 137.3574
v -42.03531 -16.43032 137.3574
v -9.028166 -42.23648 137.9899
v -7.208813 -40.12259 138.8844
v -10.31464 -43.73122 137.3574
v -38.92948 -12.82168 138.8844
v -39.34016 -13.29885 131.2566
v -43.14898 -17.72428 126.3082
v -42.24065 -16.6689 133.5436
v -42.20205 -16.62404 134.2606
v -42.18749 -16.60713 134.531
v -42.18051 -16.59902 134.6606
v -42.11984 -16.52852 135.7875
v -42.05585 -16.45417 136.976
v -42.05066 -16.44814 137.0724
v -42.05019 -16.44761 137.081
v -42.04855 -16.4457 137.1116
v -42.03531 -16.43032 137.3574
v -42.34195 -16.78659 133.412
v -42.36708 -16.8158 133.3793
v -42.37457 -16.82449 133.3696
v -42.43109 -16.89017 133.2961
v -43.07965 -17.64372 132.4535
v -43.61546 -18.26627 131.7574
v -44.14506 -18.88161 131.0693
v -44.22184 -18.97082 131.079
v -44.39385 -19.17068 131.1008
v -44.87375 -19.72827 131.1615
v -48.12478 -23.50561 126.9378
v -45.06567 -19.95126 131.1858
v -45.72009 -20.71162 131.2686
v -46.25893 -21.33769 131.3368
v -46.63296 -21.77228 131.3841
v -46.72889 -21.88374 131.5576
v -46.75712 -21.91654 131.6087
v -46.76 -21.91989 131.6139
v -46.76134 -21.92144 131.6163
v -46.76303 -21.92341 131.6194
v -46.79436 -21.95981 131.6761
v -48.24697 -23.64758 134.3035
v -48.24697 -23.64758 134.3035
v -48.24697 -23.64758 134.3035
v -51.35281 -27.25622 132.7766
v -38.92948 -12.82168 138.8844
v -7.619495 -40.59975 131.2567
v -39.34016 -13.29885 131.2566
v -23.06915 -26.47213 138.8844
v -11.42831 -45.02518 126.3082
v -43.14898 -17.72428 126.3082
v -16.40411 -50.80652 126.9378
v -48.12478 -23.50561 126.9378
v -7.208813 -40.12259 138.8844
v -51.35281 -27.25622 132.7766
v -32.38664 -37.29804 134.3035
v -48.24697 -23.64758 134.3035
v -35.49247 -40.90667 132.7766
v -16.52632 -50.94848 134.3035
v -19.63214 -54.55713 132.7766
v -17.41368 -51.97953 133.8672
v -16.52631 -50.94849 134.3035
v -10.31464 -43.73122 137.3574
v -7.619495 -40.59975 131.2567
v -9.028166 -42.23648 137.9899
v -7.619495 -40.59975 131.2567
v -7.208813 -40.12259 138.8844
v -10.31464 -43.73122 137.3574
v -10.43378 -43.86964 135.1447
v -10.31464 -43.73122 137.3574
v -10.44858 -43.88685 134.8698
v -10.45274 -43.89168 134.7926
v -10.49945 -43.94595 133.925
v -10.50656 -43.95421 133.7929
v -10.51408 -43.96294 133.6533
v -10.5157 -43.96482 133.6232
v -10.51998 -43.96981 133.5436
v -11.42831 -45.02518 126.3082
v -11.07777 -44.6179 132.8189
v -11.43166 -45.02908 132.3591
v -11.65786 -45.29189 132.0652
v -11.72518 -45.37011 131.9778
v -12.23395 -45.96125 131.3168
v -12.30601 -46.04498 131.2231
v -12.36555 -46.11415 131.1458
v -12.42439 -46.18253 131.0693
v -13.11535 -46.98534 131.1568
v -14.6635 -48.78412 131.3526
v -14.73815 -48.87086 131.3621
v -14.81086 -48.95534 131.3713
v -14.87073 -49.0249 131.3789
v -14.91229 -49.07319 131.3841
v -16.40411 -50.80652 126.9378
v -14.91229 -49.07319 131.3841
v -15.77563 -50.07629 132.9457
v -16.02974 -50.37154 133.4053
v -16.05568 -50.40168 133.4523
v -16.06771 -50.41566 133.474
v -16.08291 -50.43332 133.5015
v -16.3649 -50.76096 134.0116
v -16.52631 -50.94849 134.3035
v -17.41368 -51.97953 133.8672
v -16.52631 -50.94849 134.3035
v -19.63214 -54.55713 132.7766

vn 0.6211654 0.7217269 0.3053915
vn 0.6211655 0.7217268 0.3053915
vn -0.02163358 0.9725062 0.2318703
vn -0.7579354 0.6523296 -3.278255E-07
vn -0.7579354 0.6523296 -3.278255E-07
vn -0.6501188 -0.7553667 0.08226138
vn -0.7221108 -0.6222199 -0.3023223
vn -0.3411332 -0.3963593 0.8523658
vn -0.6501188 -0.7553671 0.08225676
vn -0.6501189 -0.7553672 0.08225592
vn -0.6501189 -0.7553672 0.08225626
vn -0.6501188 -0.7553672 0.08225728
vn -0.6501186 -0.7553671 0.08225833
vn -0.6501194 -0.7553672 0.08225256
vn -0.650119 -0.7553672 0.08225533
vn -0.6501189 -0.7553671 0.08225586
vn -0.6501191 -0.7553672 0.08225571
vn -0.650119 -0.7553672 0.08225562
vn -0.6501189 -0.7553671 0.08225591
vn -0.650119 -0.7553672 0.08225557
vn -0.6501189 -0.7553671 0.08225674
vn -0.6501188 -0.755367 0.0822583
vn -0.6501189 -0.755367 0.08225612
vn -0.6501191 -0.7553672 0.08225525
vn -0.6345879 -0.7373216 0.2316363
vn -0.441762 -0.513279 0.7357928
vn -0.4217603 -0.4900393 0.7628762
vn -0.4217607 -0.4900397 0.7628755
vn -0.4217609 -0.4900399 0.7628754
vn -0.4217621 -0.490041 0.7628741
vn -0.4217628 -0.4900417 0.7628732
vn -0.4217638 -0.4900425 0.762872
vn -0.4217622 -0.4900411 0.7628739
vn -0.4217614 -0.4900405 0.7628746
vn -0.4217612 -0.4900402 0.7628751
vn -0.421761 -0.4900402 0.7628751
vn -0.4217617 -0.4900407 0.7628743
vn -0.4217614 -0.4900404 0.7628748
vn -0.4217607 -0.4900397 0.7628756
vn -0.3880922 -0.4509206 0.8037757
vn 0.01064787 0.01237186 0.9998669
vn 0.05365717 0.06234401 0.9966114
vn 0.05365789 0.0623448 0.9966113
vn 0.05365838 0.06234531 0.9966113
vn 0.05365835 0.06234532 0.9966112
vn 0.05365805 0.062345 0.9966112
vn 0.0536576 0.06234466 0.9966112
vn 0.05365795 0.06234497 0.9966113
vn 0.05365769 0.0623447 0.9966114
vn 0.0536579 0.06234496 0.9966112
vn 0.05365789 0.06234496 0.9966114
vn 0.0536576 0.06234463 0.9966112
vn 0.1807216 0.2099791 0.9608583
vn 0.05364246 0.06232705 0.9966132
vn 0.4976453 0.5782097 0.6465468
vn 0.4976459 0.5782102 0.6465458
vn 0.4976462 0.5782105 0.6465455
vn 0.4976467 0.5782109 0.6465445
vn 0.4976457 0.5782101 0.6465462
vn 0.4976448 0.5782096 0.6465474
vn 0.4976434 0.5782083 0.6465495
vn 0.4976201 0.5781898 0.646584
vn 0.4976348 0.5782015 0.6465623
vn 0.4976493 0.5782132 0.6465406
vn 0.4976473 0.5782115 0.6465437
vn 0.4976458 0.5782102 0.6465459
vn 0.4976455 0.5782099 0.6465464
vn 0.4976454 0.5782098 0.6465466
vn 0.4976434 0.5782074 0.6465505
vn 0.4199615 0.4879496 0.7652043
vn 0.6211657 0.7217267 0.3053915
vn 0.6211657 0.7217267 0.3053915
vn 0.6211657 0.7217267 0.3053915
vn -0.7579354 0.6523296 -3.278255E-07
vn -0.4976456 -0.5782102 -0.6465461
vn -0.7579354 0.6523296 -3.278255E-07
vn -0.2782535 -0.3232999 0.9044625
vn -0.1729036 0.9647618 0.1983405
vn -0.2762883 0.9455509 0.1720415
vn 0.5657453 0.7662501 0.3046197
vn 0.6211657 0.7217267 0.3053915
vn 0.6211657 0.7217267 0.3053915
vn 0.6211657 0.7217267 0.3053915
vn 0.5397924 0.7850795 0.3037671
vn -0.7579354 0.6523296 -3.278255E-07
vn 0.6115168 0.7299281 0.3053725
vn 0.6211657 0.7217267 0.3053915
vn 0.5077344 0.8067263 0.3023221
vn 0.621167 0.7217282 0.3053852
vn 0.665554 0.681259 0.3048346
vn -0.4976456 -0.5782102 -0.6465461
vn 0.6211704 0.7217321 0.305369
vn 0.7579398 -0.6523246 2.448084E-06
vn 0.7579354 -0.6523296 3.278255E-07
vn 0.7579355 -0.6523296 -8.313987E-08
vn 0 0 0
vn -0.4976456 -0.5782102 -0.6465462
vn -0.4976457 -0.5782102 -0.6465462
vn -0.4976457 -0.5782102 -0.6465462
vn 0.7579355 -0.6523296 -8.313987E-08
vn 0.7579355 -0.6523296 -8.313987E-08
vn -0.1992161 -0.231467 0.9522269
vn -0.1992161 -0.231467 0.9522269
vn -0.1992161 -0.231467 0.9522269
vn -0.1992161 -0.231467 0.9522269
vn -0.1992161 -0.231467 0.9522269
vn -0.1992161 -0.231467 0.9522269
vn -0.1992161 -0.231467 0.9522269
vn -0.1992161 -0.231467 0.9522269
vn -0.1992161 -0.231467 0.9522269
vn -0.7579354 0.6523296 -3.278255E-07
vn -0.7579354 0.6523296 -3.278255E-07
vn -0.7579354 0.6523296 -3.278255E-07
vn -0.7579354 0.6523296 -3.278255E-07
vn -0.7579354 0.6523296 -3.278255E-07
vn -0.7579354 0.6523296 -3.278255E-07
vn -0.7579354 0.6523296 -3.278255E-07
vn -0.7579354 0.6523296 -3.278255E-07
vn -0.7579354 0.6523296 -3.278255E-07
vn -0.7579354 0.6523296 -3.278255E-07
vn -0.7579354 0.6523296 -3.278255E-07
vn -0.7579354 0.6523296 -3.278255E-07
vn -0.7579354 0.6523296 -3.278255E-07
vn -0.7579354 0.6523296 -3.278255E-07
vn -0.7579354 0.6523296 -3.278255E-07
vn -0.7579354 0.6523296 -3.278255E-07
vn -0.7579354 0.6523296 -3.278255E-07
vn -0.7579354 0.6523296 -3.278255E-07
vn -0.7579354 0.6523296 -3.278255E-07
vn -0.7579354 0.6523296 -3.278255E-07
vn -0.7579354 0.6523296 -3.278255E-07
vn -0.7579354 0.6523296 -3.278255E-07
vn -0.7579354 0.6523296 -3.278255E-07
vn -0.7579354 0.6523296 -3.278255E-07
vn -0.7579354 0.6523296 -3.278255E-07
vn -0.7579354 0.6523296 -3.278255E-07
vn -0.7579354 0.6523296 -3.278255E-07
vn -0.7579354 0.6523296 -3.278255E-07
vn -0.7579354 0.6523296 -3.278255E-07
vn -0.7579354 0.6523296 -3.278255E-07
vn -0.7579354 0.6523296 -3.278255E-07
vn -0.7579354 0.6523296 -3.278255E-07
vn -0.7579354 0.6523296 -3.278255E-07
vn -0.7579354 0.6523296 -3.278255E-07
vn -0.7579354 0.6523296 -3.278255E-07
vn -0.7579354 0.6523296 -3.278255E-07
vn -0.7579354 0.6523296 -3.278255E-07
vn -0.7579354 0.6523296 -3.278255E-07
vn 0.6501189 0.7553673 -0.08225629
vn 0.6154541 0.7150905 -0.3314546
vn 0.5338376 0.6202608 -0.5747122
vn 0.6501188 0.7553671 -0.08225632
vn 0.2823029 0.3280049 -0.9015087
vn 0.1123849 0.1305786 -0.9850478
vn -0.053658 -0.06234508 -0.9966112
vn -0.05365798 -0.06234508 -0.9966112
vn 0.6501189 0.7553671 -0.08225621
vn -0.1992161 -0.231467 0.9522269
vn -0.1992161 -0.231467 0.9522269
vn -0.1992161 -0.231467 0.9522269
vn -0.1992161 -0.231467 0.9522269
vn -0.1992161 -0.231467 0.9522269
vn -0.1992161 -0.231467 0.9522269
vn -0.1992161 -0.231467 0.9522269
vn -0.1992161 -0.231467 0.9522269
vn -0.4545459 -0.8390233 -0.2990453
vn 0.7579359 -0.6523291 5.528254E-07
vn 0.7579354 -0.6523296 1.223428E-07
vn 0.7579355 -0.6523295 1.394013E-07
vn 0.7579355 -0.6523296 1.223429E-07
vn 0.7579355 -0.6523296 1.223429E-07
vn 0.7579356 -0.6523294 3.006546E-07
vn 0.7579356 -0.6523294 3.006547E-07
vn 0.7579356 -0.6523294 3.006542E-07
vn 0.7579356 -0.6523294 3.006549E-07
vn 0.7579356 -0.6523294 3.006549E-07
vn 0.7579356 -0.6523293 3.006543E-07
vn 0.7579356 -0.6523294 3.006524E-07
vn 0.7579356 -0.6523293 3.006571E-07
vn 0.7579356 -0.6523295 7.786278E-08
vn 0.7579355 -0.6523296 3.722904E-08
vn 0.7579356 -0.6523295 7.583303E-08
vn 0.7579356 -0.6523295 7.583306E-08
vn 0.7579356 -0.6523295 7.583301E-08
vn 0.7579356 -0.6523295 7.583301E-08
vn 0.7579356 -0.6523295 7.583299E-08
vn 0.7579356 -0.6523295 7.583295E-08
vn 0.7579356 -0.6523295 7.583277E-08
vn 0.7579354 -0.6523296 6.355149E-09
vn 0.7579354 -0.6523297 -1.374902E-09
vn 0.7579354 -0.6523297 -1.374963E-09
vn 0.7579354 -0.6523297 -1.37439E-09
vn 0.7579354 -0.6523297 -1.375723E-09
vn 0.7579354 -0.6523297 -1.375025E-09
vn 0.7579354 -0.6523297 -1.374776E-09
vn 0.7579354 -0.6523297 7.12389E-08
vn 0.7579353 -0.6523298 1.142585E-07
vn 0.7579353 -0.6523298 1.142585E-07
vn 0.7579353 -0.6523298 1.142586E-07
vn 0.7579353 -0.6523298 1.14258E-07
vn 0.7579353 -0.6523298 1.142586E-07
vn 0.7579353 -0.6523298 1.142586E-07
vn 0.7579353 -0.6523298 1.142585E-07
vn 0.7579352 -0.6523298 1.142585E-07
vn 0.7579355 -0.6523296 1.223429E-07
vn 0.7579355 -0.6523296 1.223428E-07
vn 0.7579354 -0.6523296 1.223428E-07

f 1//1 2//2 3//3
f 4//4 1//1 3//3
f 3//3 5//5 4//4
f 3//3 6//6 5//5
f 5//5 6//6 7//7
f 8//8 7//7 6//6
f 9//9 8//8 6//6
f 10//10 9//9 6//6
f 9//9 10//10 11//11
f 11//11 10//10 12//12
f 13//13 11//11 12//12
f 13//13 12//12 14//14
f 13//13 14//14 15//15
f 15//15 14//14 16//16
f 15//15 16//16 17//17
f 18//18 17//17 16//16
f 19//19 17//17 18//18
f 19//19 18//18 20//20
f 21//21 19//19 20//20
f 22//22 19//19 21//21
f 22//22 21//21 23//23
f 24//24 22//22 23//23
f 24//24 23//23 25//25
f 26//26 24//24 25//25
f 26//26 25//25 27//27
f 28//28 26//26 27//27
f 28//28 27//27 29//29
f 29//29 27//27 30//30
f 31//31 29//29 30//30
f 31//31 30//30 32//32
f 33//33 31//31 32//32
f 33//33 32//32 34//34
f 35//35 33//33 34//34
f 35//35 34//34 36//36
f 37//37 35//35 36//36
f 37//37 36//36 38//38
f 39//39 37//37 38//38
f 39//39 38//38 40//40
f 41//41 39//39 40//40
f 41//41 40//40 42//42
f 41//41 42//42 43//43
f 43//43 42//42 44//44
f 45//45 43//43 44//44
f 45//45 44//44 46//46
f 47//47 45//45 46//46
f 48//48 45//45 47//47
f 48//48 47//47 49//49
f 50//50 48//48 49//49
f 50//50 49//49 51//51
f 52//52 50//50 51//51
f 52//52 51//51 53//53
f 54//54 52//52 53//53
f 55//55 54//54 53//53
f 55//55 53//53 56//56
f 55//55 56//56 57//57
f 57//57 56//56 58//58
f 57//57 58//58 59//59
f 59//59 58//58 60//60
f 59//59 60//60 61//61
f 61//61 60//60 62//62
f 61//61 62//62 63//63
f 63//63 62//62 64//64
f 63//63 64//64 65//65
f 65//65 64//64 66//66
f 65//65 66//66 67//67
f 68//68 67//67 66//66
f 69//69 67//67 68//68
f 69//69 68//68 70//70
f 71//71 69//69 70//70
f 72//72 71//71 73//73
f 74//74 75//75 76//76
f 77//77 74//74 76//76
f 75//75 77//77 76//76
f 78//78 75//75 74//74
f 79//79 75//75 78//78
f 78//78 74//74 80//80
f 81//81 78//78 80//80
f 82//82 78//78 81//81
f 82//82 83//83 78//78
f 83//83 84//84 79//79
f 84//84 85//85 79//79
f 80//80 74//74 86//86
f 87//87 80//80 86//86
f 81//81 80//80 87//87
f 86//86 74//74 88//88
f 88//88 74//74 77//77
f 86//86 88//88 89//89
f 90//90 86//86 89//89
f 87//87 86//86 90//90
f 75//75 91//91 77//77
f 90//90 89//89 92//92
f 90//90 92//92 93//93
f 94//94 90//90 93//93
f 95//95 83//83 82//82
f 95//95 82//82 81//81
f 95//95 81//81 87//87
f 95//95 87//87 90//90
f 95//95 96//96 83//83
f 97//97 91//91 75//75
f 97//97 98//98 91//91
f 97//97 99//99 98//98
f 100//100 95//95 101//101
f 102//102 103//103 104//104
f 102//102 104//104 105//105
f 102//102 105//105 106//106
f 106//106 105//105 107//107
f 108//108 102//102 106//106
f 109//109 102//102 108//108
f 110//110 108//108 106//106
f 111//111 112//112 113//113
f 111//111 113//113 114//114
f 111//111 114//114 115//115
f 111//111 115//115 116//116
f 111//111 116//116 117//117
f 117//117 118//118 111//111
f 118//118 119//119 111//111
f 120//120 111//111 119//119
f 120//120 121//121 111//111
f 121//121 122//122 111//111
f 111//111 122//122 123//123
f 114//114 113//113 124//124
f 124//124 113//113 125//125
f 125//125 113//113 126//126
f 126//126 113//113 127//127
f 127//127 113//113 128//128
f 128//128 113//113 129//129
f 129//129 113//113 130//130
f 130//130 113//113 131//131
f 131//131 113//113 132//132
f 132//132 113//113 133//133
f 133//133 113//113 134//134
f 133//133 134//134 135//135
f 135//135 134//134 136//136
f 134//134 137//137 136//136
f 137//137 134//134 138//138
f 138//138 134//134 139//139
f 139//139 134//134 140//140
f 140//140 134//134 141//141
f 134//134 142//142 141//141
f 134//134 143//143 142//142
f 134//134 144//144 143//143
f 144//144 134//134 145//145
f 145//145 134//134 146//146
f 147//147 134//134 148//148
f 149//149 150//150 151//151
f 149//149 152//152 150//150
f 151//151 150//150 153//153
f 151//151 153//153 154//154
f 154//154 153//153 155//155
f 154//154 155//155 156//156
f 152//152 157//157 150//150
f 158//158 159//159 160//160
f 161//161 159//159 158//158
f 162//162 159//159 161//161
f 163//163 162//162 161//161
f 164//164 162//162 163//163
f 165//165 162//162 164//164
f 9//9 166//166 8//8
f 166//166 9//9 167//167
f 168//168 169//169 170//170
f 168//168 171//171 169//169
f 172//172 169//169 173//173
f 174//174 169//169 172//172
f 169//169 174//174 175//175
f 176//176 169//169 175//175
f 177//177 169//169 176//176
f 178//178 169//169 177//177
f 178//178 179//179 169//169
f 179//179 180//180 169//169
f 180//180 181//181 169//169
f 182//182 181//181 180//180
f 182//182 183//183 181//181
f 183//183 184//184 181//181
f 184//184 185//185 181//181
f 185//185 186//186 181//181
f 186//186 187//187 181//181
f 187//187 188//188 181//181
f 188//188 189//189 181//181
f 181//181 189//189 190//190
f 181//181 190//190 191//191
f 192//192 181//181 191//191
f 193//193 181//181 192//192
f 194//194 181//181 193//193
f 195//195 181//181 194//194
f 195//195 196//196 181//181
f 196//196 197//197 198//198
f 196//196 198//198 199//199
f 199//199 200//200 196//196
f 196//196 200//200 201//201
f 201//201 202//202 196//196
f 196//196 202//202 203//203
f 196//196 203//203 204//204
f 205//205 196//196 206//206
f 207//207 196//196 205//205
