v -71.89864 -109.0342 66.65953
v -84.66842 -98.04367 66.65955
v -71.89864 -109.0342 66.65953
v -71.89864 -109.0342 66.65953
v -70.64323 -107.5756 69.66809
v -70.14107 -106.9921 70.87152
v -70.14107 -106.9921 70.87152
v -82.91085 -96.00158 70.87153
v -95.68063 -85.01105 70.87154
v -69.98264 -106.808 70.82823
v -94.25477 -83.35436 70.48196
v -69.96295 -106.7852 70.82285
v -94.07759 -83.14849 70.43355
v -69.95743 -106.7787 70.82134
v -94.02784 -83.0907 70.41996
v -69.89531 -106.7066 70.80437
v -93.46877 -82.44111 70.2672
v -69.12942 -105.8167 70.59511
v -93.38367 -82.34223 70.24395
v -68.40327 -104.973 70.3967
v -68.31973 -104.8759 70.37388
v -93.2937 -82.2377 70.21937
v -68.14549 -104.6735 70.32627
v -93.27434 -82.21521 70.21408
v -67.68344 -104.1366 70.20003
v -93.223 -82.15556 70.20005
v -67.57453 -104.0101 70.31647
v -92.62329 -81.45876 70.84126
v -92.24281 -81.01669 71.24805
v -67.54751 -103.9787 70.34537
v -91.9996 -80.73411 71.50808
v -67.53947 -103.9693 70.35397
v -91.92723 -80.65002 71.58546
v -67.47868 -103.8987 70.41895
v -91.38021 -80.01444 72.17032
v -66.78139 -103.0885 71.16448
v -91.30273 -79.92442 72.25316
v -66.20531 -102.4192 71.78042
v -91.23872 -79.85005 72.32159
v -65.63589 -101.7576 72.38921
v -91.17546 -79.77654 72.38924
v -65.62238 -101.7419 72.50547
v -91.0538 -79.63519 73.43557
v -65.59209 -101.7067 72.76596
v -90.78123 -79.3185 75.77996
v -65.5076 -101.6085 73.49268
v -65.47381 -101.5693 73.7833
v -90.76808 -79.30322 75.893
v -65.35859 -101.4354 74.77429
v -90.75528 -79.28835 76.00311
v -65.26372 -101.3252 75.59027
v -90.74474 -79.2761 76.09377
v -65.19786 -101.2486 76.15668
v -90.73743 -79.2676 76.1567
v -90.73743 -79.2676 76.1567
v -65.28274 -101.3473 76.34322
v -91.5013 -80.15514 77.83565
v -65.30772 -101.3763 76.39813
v -91.72614 -80.41637 78.32983
v -65.31027 -101.3793 76.40374
v -91.74908 -80.44304 78.38027
v -65.31145 -101.3806 76.40634
v -91.75973 -80.45541 78.40367
v -65.31295 -101.3824 76.40963
v -91.77318 -80.47104 78.43324
v -65.34067 -101.4146 76.47056
v -92.02269 -80.76094 78.98164
v -66.62593 -102.9079 79.29549
v -92.1655 -80.92686 79.29552
v -66.62593 -102.9079 79.29549
v -92.1655 -80.92686 79.29552
v -66.62593 -102.9079 79.29549
v -66.62593 -102.9079 79.29549
v -66.12377 -102.3245 80.49892
v -64.86836 -100.8658 83.50748
v -64.86836 -100.8658 83.50748
v -64.86836 -100.8658 83.50748
v -66.62593 -102.9079 79.29549
v -66.62593 -102.9079 79.29549
v -66.62593 -102.9079 79.29549
v -92.1655 -80.92686 79.29552
v -92.1655 -80.92686 79.29552
v -92.1655 -80.92686 79.29552
v -66.62593 -102.9079 79.29549
v -62.01223 -97.54729 77.22985
v -66.62593 -102.9079 79.29549
v -92.1655 -80.92686 79.29552
v -66.62593 -102.9079 79.29549
v -79.39571 -91.91739 79.2955
v -92.1655 -80.92686 79.29552
v -77.63815 -89.8753 83.50748
v -92.16548 -80.92687 79.29552
v -92.1655 -80.92686 79.29552
v -91.66333 -80.34341 80.49894
v -87.55179 -75.56625 77.22987
v -92.1655 -80.92686 79.29552
v -62.01223 -97.54729 77.22985
v -90.40793 -78.88477 83.5075
v -87.55179 -75.56625 77.22987
v -90.73743 -79.2676 76.1567
v -90.73743 -79.2676 76.1567
v -84.66842 -98.04367 66.65955
v -71.89864 -109.0342 66.65953
v -71.89864 -109.0342 66.65953
v -70.64323 -107.5756 69.66809
v -82.91085 -96.00158 70.87153
v -70.14107 -106.9921 70.87152
v -96.40864 -85.85692 69.12688
v -97.4382 -87.05315 66.65956
v -95.68063 -85.01105 70.87154
v -71.89864 -109.0342 66.65953
v -66.98338 -103.3232 65.31655
v -62.8883 -98.56518 69.69492
v -67.68344 -104.1366 70.20003
v -68.14549 -104.6735 70.32627
v -68.31973 -104.8759 70.37388
v -68.40327 -104.973 70.3967
v -69.12942 -105.8167 70.59511
v -69.89531 -106.7066 70.80437
v -69.95743 -106.7787 70.82134
v -69.96295 -106.7852 70.82285
v -69.98264 -106.808 70.82823
v -70.14107 -106.9921 70.87152
v -67.57453 -104.0101 70.31647
v -67.54751 -103.9787 70.34537
v -67.53947 -103.9693 70.35397
v -67.47868 -103.8987 70.41895
v -66.78139 -103.0885 71.16448
v -66.20531 -102.4192 71.78042
v -65.63589 -101.7576 72.38921
v -65.62238 -101.7419 72.50547
v -65.59209 -101.7067 72.76596
v -65.5076 -101.6085 73.49268
v -62.01223 -97.54729 77.22985
v -65.47381 -101.5693 73.7833
v -65.35859 -101.4354 74.77429
v -65.26372 -101.3252 75.59027
v -65.19786 -101.2486 76.15668
v -65.28274 -101.3473 76.34322
v -65.30772 -101.3763 76.39813
v -65.31027 -101.3793 76.40374
v -65.31145 -101.3806 76.40634
v -65.31295 -101.3824 76.40963
v -65.34067 -101.4146 76.47056
v -66.62593 -102.9079 79.29549
v -66.62593 -102.9079 79.29549
v -66.62593 -102.9079 79.29549
v -64.86836 -100.8658 83.50748
v -71.89864 -109.0342 66.65953
v -92.52294 -81.34216 65.31657
v -66.98338 -103.3232 65.31655
v -84.66842 -98.04367 66.65955
v -88.42786 -76.58413 69.69495
v -62.8883 -98.56518 69.69492
v -87.55179 -75.56625 77.22987
v -62.01223 -97.54729 77.22985
v -97.4382 -87.05315 66.65956
v -64.86836 -100.8658 83.50748
v -79.39571 -91.91739 79.2955
v -66.62593 -102.9079 79.29549
v -77.63815 -89.8753 83.50748
v -92.16548 -80.92687 79.29552
v -90.40793 -78.88477 83.5075
v -91.66333 -80.34341 80.49894
v -92.1655 -80.92686 79.29552
v -95.68063 -85.01105 70.87154
v -92.52294 -81.34216 65.31657
v -96.40864 -85.85692 69.12688
v -92.52294 -81.34216 65.31657
v -97.4382 -87.05315 66.65956
v -95.68063 -85.01105 70.87154
v -94.25477 -83.35436 70.48196
v -95.68063 -85.01105 70.87154
v -94.07759 -83.14849 70.43355
v -94.02784 -83.0907 70.41996
v -93.46877 -82.44111 70.2672
v -93.38367 -82.34223 70.24395
v -93.2937 -82.2377 70.21937
v -93.27434 -82.21521 70.21408
v -93.223 -82.15556 70.20005
v -88.42786 -76.58413 69.69495
v -92.62329 -81.45876 70.84126
v -92.24281 -81.01669 71.24805
v -91.9996 -80.73411 71.50808
v -91.92723 -80.65002 71.58546
v -91.38021 -80.01444 72.17032
v -91.30273 -79.92442 72.25316
v -91.23872 -79.85005 72.32159
v -91.17546 -79.77654 72.38924
v -91.0538 -79.63519 73.43557
v -90.78123 -79.3185 75.77996
v -90.76808 -79.30322 75.893
v -90.75528 -79.28835 76.00311
v -90.74474 -79.2761 76.09377
v -90.73743 -79.2676 76.1567
v -87.55179 -75.56625 77.22987
v -90.73743 -79.2676 76.1567
v -91.5013 -80.15514 77.83565
v -91.72614 -80.41637 78.32983
v -91.74908 -80.44304 78.38027
v -91.75973 -80.45541 78.40367
v -91.77318 -80.47104 78.43324
v -92.02269 -80.76094 78.98164
v -92.1655 -80.92686 79.29552
v -91.66333 -80.34341 80.49894
v -92.1655 -80.92686 79.29552
v -90.40793 -78.88477 83.5075

vn -0.351513 -0.4084191 -0.8423969
vn -0.3515131 -0.408419 -0.8423969
vn 0.2263689 -0.7346252 -0.639596
vn 0.7579353 -0.6523297 -9.341165E-07
vn 0.7579353 -0.6523297 -9.341165E-07
vn 0.1144606 0.1329893 0.9844859
vn 0.4551685 0.3120609 0.8339303
vn -0.4502359 -0.5231253 0.7236211
vn 0.1144634 0.132993 0.9844851
vn 0.1144639 0.1329936 0.984485
vn 0.1144637 0.1329934 0.984485
vn 0.114463 0.1329927 0.9844853
vn 0.1144622 0.1329919 0.9844854
vn 0.1144664 0.1329958 0.9844844
vn 0.1144644 0.132994 0.9844849
vn 0.114464 0.1329936 0.984485
vn 0.1144642 0.1329937 0.984485
vn 0.1144642 0.1329937 0.9844849
vn 0.114464 0.1329935 0.984485
vn 0.1144642 0.1329938 0.984485
vn 0.1144635 0.1329929 0.9844851
vn 0.1144624 0.1329918 0.9844854
vn 0.1144639 0.1329933 0.984485
vn 0.1144645 0.132994 0.9844849
vn 0.01628852 0.01892434 0.9996883
vn -0.3509767 -0.4077972 0.8429216
vn -0.3731734 -0.4335872 0.8202096
vn -0.3731729 -0.4335867 0.82021
vn -0.3731727 -0.4335865 0.8202103
vn -0.3731715 -0.4335853 0.8202115
vn -0.3731707 -0.4335845 0.8202122
vn -0.3731697 -0.4335836 0.8202131
vn -0.3731714 -0.4335853 0.8202116
vn -0.3731721 -0.4335858 0.8202108
vn -0.3731726 -0.4335862 0.8202106
vn -0.3731726 -0.4335862 0.8202105
vn -0.3731719 -0.4335855 0.8202111
vn -0.3731723 -0.433586 0.8202108
vn -0.373173 -0.4335867 0.8202101
vn -0.4075795 -0.4735632 0.7807797
vn -0.6332575 -0.7357757 0.2400401
vn -0.6422086 -0.7461759 0.1754698
vn -0.6422088 -0.7461761 0.1754687
vn -0.6422089 -0.7461761 0.1754681
vn -0.6422089 -0.7461761 0.1754681
vn -0.6422088 -0.746176 0.1754685
vn -0.6422086 -0.7461761 0.175469
vn -0.6422088 -0.7461761 0.1754686
vn -0.6422087 -0.7461761 0.175469
vn -0.6422087 -0.7461761 0.1754686
vn -0.6422088 -0.7461762 0.1754686
vn -0.6422086 -0.746176 0.1754691
vn -0.6521721 -0.7577523 -0.02198019
vn -0.642206 -0.746173 0.175492
vn -0.5350484 -0.6216668 -0.5720609
vn -0.5350479 -0.6216661 -0.5720619
vn -0.5350478 -0.621666 -0.5720623
vn -0.5350474 -0.6216654 -0.5720633
vn -0.535048 -0.6216664 -0.5720616
vn -0.5350485 -0.6216673 -0.5720603
vn -0.5350492 -0.6216686 -0.572058
vn -0.5350618 -0.6216919 -0.5720209
vn -0.535054 -0.6216773 -0.5720442
vn -0.5350459 -0.6216627 -0.5720676
vn -0.5350471 -0.6216648 -0.5720642
vn -0.5350479 -0.6216663 -0.5720618
vn -0.5350481 -0.6216665 -0.5720613
vn -0.5350482 -0.6216667 -0.5720611
vn -0.5350502 -0.6216688 -0.572057
vn -0.59 -0.6855147 -0.4265789
vn -0.3515133 -0.4084189 -0.8423969
vn -0.3515133 -0.4084189 -0.8423969
vn -0.3515133 -0.4084189 -0.8423969
vn 0.7579353 -0.6523297 -9.341165E-07
vn 0.5350479 0.6216664 0.5720617
vn 0.7579353 -0.6523297 -9.341165E-07
vn -0.4991771 -0.5799895 0.6437659
vn 0.348033 -0.7612798 -0.547107
vn 0.4281964 -0.7690496 -0.4745636
vn -0.2967744 -0.4537341 -0.840268
vn -0.3515133 -0.4084189 -0.8423969
vn -0.3515133 -0.4084189 -0.8423969
vn -0.3515133 -0.4084189 -0.8423969
vn -0.2715742 -0.4734382 -0.8379163
vn 0.7579353 -0.6523297 -9.341165E-07
vn -0.3418904 -0.4166504 -0.8423262
vn -0.3515133 -0.4084189 -0.8423969
vn -0.2407922 -0.4965674 -0.8339304
vn -0.3515096 -0.4084146 -0.8424004
vn -0.3963834 -0.368511 -0.8408804
vn 0.5350479 0.6216664 0.5720616
vn -0.3515003 -0.4084038 -0.8424096
vn -0.7579377 0.6523269 -4.914439E-06
vn -0.7579353 0.6523297 9.341165E-07
vn -0.757935 0.65233 7.015545E-07
vn 0 0 0
vn 0.535048 0.6216664 0.5720616
vn 0.535048 0.6216664 0.5720616
vn 0.5350481 0.6216665 0.5720617
vn -0.757935 0.65233 7.015545E-07
vn -0.757935 0.65233 7.015545E-07
vn -0.5495202 -0.6384826 0.5388576
vn -0.5495202 -0.6384826 0.5388576
vn -0.5495202 -0.6384826 0.5388576
vn -0.5495202 -0.6384826 0.5388576
vn -0.5495202 -0.6384826 0.5388576
vn -0.5495202 -0.6384826 0.5388576
vn -0.5495202 -0.6384826 0.5388576
vn -0.5495202 -0.6384826 0.5388576
vn -0.5495202 -0.6384826 0.5388576
vn 0.7579353 -0.6523297 -9.341165E-07
vn 0.7579353 -0.6523297 -9.341165E-07
vn 0.7579353 -0.6523297 -9.341165E-07
vn 0.7579353 -0.6523297 -9.341165E-07
vn 0.7579353 -0.6523297 -9.341165E-07
vn 0.7579353 -0.6523297 -9.341165E-07
vn 0.7579353 -0.6523297 -9.341165E-07
vn 0.7579353 -0.6523297 -9.341165E-07
vn 0.7579353 -0.6523297 -9.341165E-07
vn 0.7579353 -0.6523297 -9.341165E-07
vn 0.7579353 -0.6523297 -9.341165E-07
vn 0.7579353 -0.6523297 -9.341165E-07
vn 0.7579353 -0.6523297 -9.341165E-07
vn 0.7579353 -0.6523297 -9.341165E-07
vn 0.7579353 -0.6523297 -9.341165E-07
vn 0.7579353 -0.6523297 -9.341165E-07
vn 0.7579353 -0.6523297 -9.341165E-07
vn 0.7579353 -0.6523297 -9.341165E-07
vn 0.7579353 -0.6523297 -9.341165E-07
vn 0.7579353 -0.6523297 -9.341165E-07
vn 0.7579353 -0.6523297 -9.341165E-07
vn 0.7579353 -0.6523297 -9.341165E-07
vn 0.7579353 -0.6523297 -9.341165E-07
vn 0.7579353 -0.6523297 -9.341165E-07
vn 0.7579353 -0.6523297 -9.341165E-07
vn 0.7579353 -0.6523297 -9.341165E-07
vn 0.7579353 -0.6523297 -9.341165E-07
vn 0.7579353 -0.6523297 -9.341165E-07
vn 0.7579353 -0.6523297 -9.341165E-07
vn 0.7579353 -0.6523297 -9.341165E-07
vn 0.7579353 -0.6523297 -9.341165E-07
vn 0.7579353 -0.6523297 -9.341165E-07
vn 0.7579353 -0.6523297 -9.341165E-07
vn 0.7579353 -0.6523297 -9.341165E-07
vn 0.7579353 -0.6523297 -9.341165E-07
vn 0.7579353 -0.6523297 -9.341165E-07
vn 0.7579353 -0.6523297 -9.341165E-07
vn 0.7579353 -0.6523297 -9.341165E-07
vn -0.1144637 -0.1329933 -0.9844851
vn 0.05155414 0.05990117 -0.9968721
vn 0.2258385 0.2624004 -0.9381593
vn -0.1144636 -0.1329933 -0.984485
vn 0.4962783 0.5766215 -0.6490113
vn 0.5924338 0.6883433 -0.4185761
vn 0.6422087 0.7461761 -0.1754684
vn 0.6422087 0.7461761 -0.1754685
vn -0.1144638 -0.1329933 -0.984485
vn -0.5495202 -0.6384826 0.5388576
vn -0.5495202 -0.6384826 0.5388576
vn -0.5495202 -0.6384826 0.5388576
vn -0.5495202 -0.6384826 0.5388576
vn -0.5495202 -0.6384826 0.5388576
vn -0.5495202 -0.6384826 0.5388576
vn -0.5495202 -0.6384826 0.5388576
vn -0.5495202 -0.6384826 0.5388576
vn 0.1904971 0.5322261 0.8248916
vn -0.7579356 0.6523294 3.134733E-07
vn -0.7579352 0.6523298 8.178355E-07
vn -0.7579352 0.6523298 7.141925E-07
vn -0.7579352 0.6523299 8.178355E-07
vn -0.7579352 0.6523299 8.178355E-07
vn -0.7579353 0.6523297 6.089218E-07
vn -0.7579353 0.6523297 6.089217E-07
vn -0.7579353 0.6523297 6.089221E-07
vn -0.7579353 0.6523297 6.089217E-07
vn -0.7579353 0.6523297 6.089217E-07
vn -0.7579353 0.6523296 6.089217E-07
vn -0.7579353 0.6523297 6.089224E-07
vn -0.7579353 0.6523296 6.089211E-07
vn -0.7579352 0.6523299 6.626948E-07
vn -0.7579352 0.6523299 7.696703E-07
vn -0.7579352 0.6523299 6.631853E-07
vn -0.7579352 0.6523299 6.631848E-07
vn -0.7579352 0.6523299 6.63184E-07
vn -0.7579352 0.6523299 6.631845E-07
vn -0.7579352 0.6523299 6.631846E-07
vn -0.7579352 0.6523299 6.631847E-07
vn -0.7579352 0.6523299 6.631852E-07
vn -0.7579351 0.65233 8.548336E-07
vn -0.7579351 0.65233 8.761558E-07
vn -0.7579351 0.65233 8.76156E-07
vn -0.7579351 0.65233 8.761556E-07
vn -0.7579351 0.65233 8.761565E-07
vn -0.7579351 0.65233 8.761561E-07
vn -0.7579351 0.65233 8.761559E-07
vn -0.7579352 0.6523299 9.022125E-07
vn -0.7579351 0.6523299 1.12308E-06
vn -0.7579351 0.6523299 1.12308E-06
vn -0.7579351 0.6523299 1.12308E-06
vn -0.7579351 0.6523299 1.123073E-06
vn -0.7579351 0.6523299 1.123081E-06
vn -0.7579351 0.6523299 1.123081E-06
vn -0.7579351 0.6523299 1.123079E-06
vn -0.7579351 0.6523299 1.123078E-06
vn -0.7579352 0.6523299 8.178355E-07
vn -0.7579352 0.6523299 8.178355E-07
vn -0.7579352 0.6523298 8.178355E-07

f 1//1 2//2 3//3
f 4//4 1//1 3//3
f 3//3 5//5 4//4
f 3//3 6//6 5//5
f 5//5 6//6 7//7
f 8//8 7//7 6//6
f 9//9 8//8 6//6
f 10//10 9//9 6//6
f 9//9 10//10 11//11
f 11//11 10//10 12//12
f 13//13 11//11 12//12
f 13//13 12//12 14//14
f 13//13 14//14 15//15
f 15//15 14//14 16//16
f 15//15 16//16 17//17
f 18//18 17//17 16//16
f 19//19 17//17 18//18
f 19//19 18//18 20//20
f 21//21 19//19 20//20
f 22//22 19//19 21//21
f 22//22 21//21 23//23
f 24//24 22//22 23//23
f 24//24 23//23 25//25
f 26//26 24//24 25//25
f 26//26 25//25 27//27
f 28//28 26//26 27//27
f 28//28 27//27 29//29
f 29//29 27//27 30//30
f 31//31 29//29 30//30
f 31//31 30//30 32//32
f 33//33 31//31 32//32
f 33//33 32//32 34//34
f 35//35 33//33 34//34
f 35//35 34//34 36//36
f 37//37 35//35 36//36
f 37//37 36//36 38//38
f 39//39 37//37 38//38
f 39//39 38//38 40//40
f 41//41 39//39 40//40
f 41//41 40//40 42//42
f 41//41 42//42 43//43
f 43//43 42//42 44//44
f 45//45 43//43 44//44
f 45//45 44//44 46//46
f 47//47 45//45 46//46
f 48//48 45//45 47//47
f 48//48 47//47 49//49
f 50//50 48//48 49//49
f 50//50 49//49 51//51
f 52//52 50//50 51//51
f 52//52 51//51 53//53
f 54//54 52//52 53//53
f 55//55 54//54 53//53
f 55//55 53//53 56//56
f 55//55 56//56 57//57
f 57//57 56//56 58//58
f 57//57 58//58 59//59
f 59//59 58//58 60//60
f 59//59 60//60 61//61
f 61//61 60//60 62//62
f 61//61 62//62 63//63
f 63//63 62//62 64//64
f 63//63 64//64 65//65
f 65//65 64//64 66//66
f 65//65 66//66 67//67
f 68//68 67//67 66//66
f 69//69 67//67 68//68
f 69//69 68//68 70//70
f 71//71 69//69 70//70
f 72//72 71//71 73//73
f 74//74 75//75 76//76
f 77//77 74//74 76//76
f 75//75 77//77 76//76
f 78//78 75//75 74//74
f 79//79 75//75 78//78
f 78//78 74//74 80//80
f 81//81 78//78 80//80
f 82//82 78//78 81//81
f 82//82 83//83 78//78
f 83//83 84//84 79//79
f 84//84 85//85 79//79
f 80//80 74//74 86//86
f 87//87 80//80 86//86
f 81//81 80//80 87//87
f 86//86 74//74 88//88
f 88//88 74//74 77//77
f 86//86 88//88 89//89
f 90//90 86//86 89//89
f 87//87 86//86 90//90
f 75//75 91//91 77//77
f 90//90 89//89 92//92
f 90//90 92//92 93//93
f 94//94 90//90 93//93
f 95//95 83//83 82//82
f 95//95 82//82 81//81
f 95//95 81//81 87//87
f 95//95 87//87 90//90
f 95//95 96//96 83//83
f 97//97 91//91 75//75
f 97//97 98//98 91//91
f 97//97 99//99 98//98
f 100//100 95//95 101//101
f 102//102 103//103 104//104
f 102//102 104//104 105//105
f 102//102 105//105 106//106
f 106//106 105//105 107//107
f 108//108 102//102 106//106
f 109//109 102//102 108//108
f 110//110 108//108 106//106
f 111//111 112//112 113//113
f 111//111 113//113 114//114
f 111//111 114//114 115//115
f 111//111 115//115 116//116
f 111//111 116//116 117//117
f 117//117 118//118 111//111
f 118//118 119//119 111//111
f 120//120 111//111 119//119
f 120//120 121//121 111//111
f 121//121 122//122 111//111
f 111//111 122//122 123//123
f 114//114 113//113 124//124
f 124//124 113//113 125//125
f 125//125 113//113 126//126
f 126//126 113//113 127//127
f 127//127 113//113 128//128
f 128//128 113//113 129//129
f 129//129 113//113 130//130
f 130//130 113//113 131//131
f 131//131 113//113 132//132
f 132//132 113//113 133//133
f 133//133 113//113 134//134
f 133//133 134//134 135//135
f 135//135 134//134 136//136
f 134//134 137//137 136//136
f 137//137 134//134 138//138
f 138//138 134//134 139//139
f 139//139 134//134 140//140
f 140//140 134//134 141//141
f 134//134 142//142 141//141
f 134//134 143//143 142//142
f 134//134 144//144 143//143
f 144//144 134//134 145//145
f 145//145 134//134 146//146
f 147//147 134//134 148//148
f 149//149 150//150 151//151
f 149//149 152//152 150//150
f 151//151 150//150 153//153
f 151//151 153//153 154//154
f 154//154 153//153 155//155
f 154//154 155//155 156//156
f 152//152 157//157 150//150
f 158//158 159//159 160//160
f 161//161 159//159 158//158
f 162//162 159//159 161//161
f 163//163 162//162 161//161
f 164//164 162//162 163//163
f 165//165 162//162 164//164
f 9//9 166//166 8//8
f 166//166 9//9 167//167
f 168//168 169//169 170//170
f 168//168 171//171 169//169
f 172//172 169//169 173//173
f 174//174 169//169 172//172
f 169//169 174//174 175//175
f 176//176 169//169 175//175
f 177//177 169//169 176//176
f 178//178 169//169 177//177
f 178//178 179//179 169//169
f 179//179 180//180 169//169
f 180//180 181//181 169//169
f 182//182 181//181 180//180
f 182//182 183//183 181//181
f 183//183 184//184 181//181
f 184//184 185//185 181//181
f 185//185 186//186 181//181
f 186//186 187//187 181//181
f 187//187 188//188 181//181
f 188//188 189//189 181//181
f 181//181 189//189 190//190
f 181//181 190//190 191//191
f 192//192 181//181 191//191
f 193//193 181//181 192//192
f 194//194 181//181 193//193
f 195//195 181//181 194//194
f 195//195 196//196 181//181
f 196//196 197//197 198//198
f 196//196 198//198 199//199
f 199//199 200//200 196//196
f 196//196 200//200 201//201
f 201//201 202//202 196//196
f 196//196 202//202 203//203
f 196//196 203//203 204//204
f 205//205 196//196 206//206
f 207//207 196//196 205//205
