v -121.4127 -47.04287 -67.2117
v -125.2836 -30.64546 -67.2117
v -121.4127 -47.04287 -67.2117
v -121.4127 -47.04287 -67.21171
v -119.6445 -46.62544 -70.28646
v -118.9372 -46.45847 -71.51637
v -118.9372 -46.45847 -71.51637
v -122.8081 -30.06106 -71.51636
v -126.679 -13.66365 -71.51636
v -119.0814 -46.49252 -71.71358
v -127.977 -13.97008 -73.29136
v -119.0993 -46.49675 -71.73809
v -128.1383 -14.00816 -73.51192
v -119.1043 -46.49793 -71.74497
v -128.1836 -14.01885 -73.57385
v -119.1609 -46.51128 -71.8223
v -128.6926 -14.139 -74.26982
v -119.8581 -46.67588 -72.77573
v -128.7701 -14.15729 -74.37576
v -120.5192 -46.83194 -73.6797
v -120.5953 -46.84989 -73.78368
v -128.852 -14.17662 -74.48775
v -120.7539 -46.88734 -74.00058
v -128.8696 -14.18078 -74.51186
v -121.1745 -46.98663 -74.57578
v -128.9163 -14.19182 -74.57577
v -121.1467 -46.98006 -74.77731
v -128.763 -14.15563 -75.6855
v -128.6658 -14.13266 -76.38956
v -121.1398 -46.97843 -74.82731
v -128.6036 -14.11799 -76.83959
v -121.1377 -46.97795 -74.84219
v -128.5851 -14.11362 -76.97352
v -121.1222 -46.97428 -74.95466
v -128.4453 -14.08061 -77.98574
v -120.9439 -46.9322 -76.24497
v -128.4254 -14.07594 -78.12911
v -120.7967 -46.89744 -77.31098
v -128.4091 -14.07207 -78.24755
v -120.6511 -46.86308 -78.36463
v -128.3929 -14.06825 -78.36462
v -120.5592 -46.84138 -78.43558
v -127.566 -13.87304 -79.00308
v -120.3533 -46.79279 -78.59452
v -125.7131 -13.43564 -80.43359
v -119.779 -46.6572 -79.03795
v -119.5493 -46.60297 -79.21529
v -125.6238 -13.41455 -80.50256
v -118.7661 -46.41808 -79.81998
v -125.5367 -13.394 -80.56976
v -118.1212 -46.26584 -80.31787
v -125.4651 -13.37709 -80.62508
v -117.6735 -46.16017 -80.66348
v -125.4153 -13.36535 -80.66348
v -125.4153 -13.36535 -80.66348
v -117.4544 -46.10843 -80.63152
v -123.4429 -12.89972 -80.37581
v -117.3899 -46.0932 -80.62211
v -122.8623 -12.76266 -80.29114
v -117.3833 -46.09165 -80.62115
v -122.8031 -12.74867 -80.28249
v -117.3802 -46.09093 -80.6207
v -122.7756 -12.74219 -80.27849
v -117.3764 -46.09002 -80.62015
v -122.7409 -12.73399 -80.27341
v -117.3048 -46.07312 -80.6097
v -122.0966 -12.5819 -80.17946
v -113.986 -45.28967 -80.12569
v -121.7278 -12.49485 -80.12568
v -113.986 -45.28967 -80.12569
v -121.7278 -12.49485 -80.12568
v -113.986 -45.28967 -80.12569
v -113.986 -45.28967 -80.12569
v -113.2787 -45.1227 -81.35559
v -111.5105 -44.70527 -84.43034
v -111.5105 -44.70527 -84.43034
v -111.5105 -44.70527 -84.43034
v -113.986 -45.28967 -80.12569
v -113.986 -45.28967 -80.12569
v -113.986 -45.28967 -80.12569
v -121.7278 -12.49485 -80.12568
v -121.7278 -12.49485 -80.12568
v -121.7278 -12.49485 -80.12568
v -113.986 -45.28967 -80.12569
v -118.8855 -46.44627 -85.50594
v -113.986 -45.28967 -80.12569
v -121.7278 -12.49485 -80.12568
v -113.986 -45.28967 -80.12569
v -117.8569 -28.89225 -80.12568
v -121.7278 -12.49485 -80.12568
v -115.3814 -28.30785 -84.43034
v -121.7278 -12.49486 -80.12568
v -121.7278 -12.49485 -80.12568
v -121.0205 -12.32788 -81.35558
v -126.6273 -13.65145 -85.50594
v -121.7278 -12.49485 -80.12568
v -118.8855 -46.44627 -85.50594
v -119.2523 -11.91045 -84.43034
v -126.6273 -13.65145 -85.50594
v -125.4153 -13.36535 -80.66348
v -125.4153 -13.36535 -80.66348
v -125.2836 -30.64546 -67.2117
v -121.4127 -47.04287 -67.2117
v -121.4127 -47.04287 -67.21171
v -119.6445 -46.62544 -70.28646
v -122.8081 -30.06106 -71.51636
v -118.9372 -46.45847 -71.51637
v -127.7044 -13.90572 -69.73331
v -129.1545 -14.24805 -67.21169
v -126.679 -13.66365 -71.51636
v -121.4127 -47.04287 -67.2117
v -125.8874 -48.09921 -73.33052
v -124.8406 -47.85208 -80.90825
v -121.1745 -46.98663 -74.57578
v -120.7539 -46.88734 -74.00058
v -120.5953 -46.84989 -73.78368
v -120.5192 -46.83194 -73.6797
v -119.8581 -46.67588 -72.77573
v -119.1609 -46.51128 -71.8223
v -119.1043 -46.49793 -71.74497
v -119.0993 -46.49675 -71.73809
v -119.0814 -46.49252 -71.71358
v -118.9372 -46.45847 -71.51637
v -121.1467 -46.98006 -74.77731
v -121.1398 -46.97843 -74.82731
v -121.1377 -46.97795 -74.84219
v -121.1222 -46.97428 -74.95466
v -120.9439 -46.9322 -76.24497
v -120.7967 -46.89744 -77.31098
v -120.6511 -46.86308 -78.36463
v -120.5592 -46.84138 -78.43558
v -120.3533 -46.79279 -78.59452
v -119.779 -46.6572 -79.03795
v -118.8855 -46.44627 -85.50594
v -119.5493 -46.60297 -79.21529
v -118.7661 -46.41808 -79.81998
v -118.1212 -46.26584 -80.31787
v -117.6735 -46.16017 -80.66348
v -117.4544 -46.10843 -80.63152
v -117.3899 -46.0932 -80.62211
v -117.3833 -46.09165 -80.62115
v -117.3802 -46.09093 -80.6207
v -117.3764 -46.09002 -80.62015
v -117.3048 -46.07312 -80.6097
v -113.986 -45.28967 -80.12569
v -113.986 -45.28967 -80.12569
v -113.986 -45.28967 -80.12569
v -111.5105 -44.70527 -84.43034
v -121.4127 -47.04287 -67.2117
v -133.6292 -15.30439 -73.33051
v -125.8874 -48.09921 -73.33052
v -125.2836 -30.64546 -67.2117
v -132.5824 -15.05727 -80.90824
v -124.8406 -47.85208 -80.90825
v -126.6273 -13.65145 -85.50594
v -118.8855 -46.44627 -85.50594
v -129.1545 -14.24805 -67.21169
v -111.5105 -44.70527 -84.43034
v -117.8569 -28.89225 -80.12568
v -113.986 -45.28967 -80.12569
v -115.3814 -28.30785 -84.43034
v -121.7278 -12.49486 -80.12568
v -119.2523 -11.91045 -84.43034
v -121.0205 -12.32788 -81.35558
v -121.7278 -12.49485 -80.12568
v -126.679 -13.66365 -71.51636
v -133.6292 -15.30439 -73.33051
v -127.7044 -13.90572 -69.73331
v -133.6292 -15.30439 -73.33051
v -129.1545 -14.24805 -67.21169
v -126.679 -13.66365 -71.51636
v -127.977 -13.97008 -73.29136
v -126.679 -13.66365 -71.51636
v -128.1383 -14.00816 -73.51192
v -128.1836 -14.01885 -73.57385
v -128.6926 -14.139 -74.26982
v -128.7701 -14.15729 -74.37576
v -128.852 -14.17662 -74.48775
v -128.8696 -14.18078 -74.51186
v -128.9163 -14.19182 -74.57577
v -132.5824 -15.05727 -80.90824
v -128.763 -14.15563 -75.6855
v -128.6658 -14.13266 -76.38956
v -128.6036 -14.11799 -76.83959
v -128.5851 -14.11362 -76.97352
v -128.4453 -14.08061 -77.98574
v -128.4254 -14.07594 -78.12911
v -128.4091 -14.07207 -78.24755
v -128.3929 -14.06825 -78.36462
v -127.566 -13.87304 -79.00308
v -125.7131 -13.43564 -80.43359
v -125.6238 -13.41455 -80.50256
v -125.5367 -13.394 -80.56976
v -125.4651 -13.37709 -80.62508
v -125.4153 -13.36535 -80.66348
v -126.6273 -13.65145 -85.50594
v -125.4153 -13.36535 -80.66348
v -123.4429 -12.89972 -80.37581
v -122.8623 -12.76266 -80.29114
v -122.8031 -12.74867 -80.28249
v -122.7756 -12.74219 -80.27849
v -122.7409 -12.73399 -80.27341
v -122.0966 -12.5819 -80.17946
v -121.7278 -12.49485 -80.12568
v -121.0205 -12.32788 -81.35558
v -121.7278 -12.49485 -80.12568
v -119.2523 -11.91045 -84.43034

vn -0.4951125 -0.1168807 0.8609313
vn -0.4951126 -0.1168805 0.8609313
vn -0.2263964 -0.7221242 0.6536677
vn 0.2297528 -0.9732492 -1.490116E-07
vn 0.2297528 -0.9732492 -1.490116E-07
vn 0.778078 0.1836791 -0.6007136
vn 0.5226285 -0.02193237 -0.8522786
vn 0.9315611 0.2199116 0.2895389
vn 0.7780751 0.1836788 -0.6007172
vn 0.7780747 0.1836786 -0.600718
vn 0.7780749 0.1836787 -0.6007177
vn 0.7780755 0.1836789 -0.6007168
vn 0.7780761 0.1836791 -0.6007159
vn 0.7780728 0.1836777 -0.6007206
vn 0.7780744 0.1836784 -0.6007184
vn 0.7780746 0.1836785 -0.600718
vn 0.7780746 0.1836785 -0.6007181
vn 0.7780745 0.1836785 -0.6007181
vn 0.7780747 0.1836785 -0.6007179
vn 0.7780745 0.1836785 -0.6007182
vn 0.7780752 0.1836787 -0.6007172
vn 0.7780761 0.1836789 -0.600716
vn 0.7780748 0.1836785 -0.6007177
vn 0.7780743 0.1836784 -0.6007185
vn 0.857357 0.2023945 -0.4732606
vn 0.9683781 0.2286029 0.09992204
vn 0.9635902 0.2274727 0.1405355
vn 0.9635902 0.2274727 0.1405347
vn 0.9635903 0.2274727 0.1405344
vn 0.9635907 0.2274726 0.1405323
vn 0.9635909 0.2274726 0.140531
vn 0.9635911 0.2274724 0.1405293
vn 0.9635907 0.2274726 0.1405322
vn 0.9635904 0.2274727 0.1405333
vn 0.9635904 0.2274728 0.1405339
vn 0.9635903 0.2274728 0.140534
vn 0.9635904 0.2274727 0.1405328
vn 0.9635905 0.2274728 0.1405335
vn 0.9635903 0.2274728 0.1405347
vn 0.9524986 0.2248544 0.2053947
vn 0.6347095 0.1498344 0.7580857
vn 0.5846489 0.1380167 0.7994606
vn 0.5846481 0.1380165 0.7994613
vn 0.5846475 0.1380164 0.7994618
vn 0.5846475 0.1380164 0.7994617
vn 0.5846478 0.1380165 0.7994614
vn 0.5846483 0.1380164 0.7994611
vn 0.584648 0.1380164 0.7994614
vn 0.5846483 0.1380165 0.7994612
vn 0.584648 0.1380164 0.7994614
vn 0.584648 0.1380164 0.7994614
vn 0.5846483 0.1380165 0.7994611
vn 0.4198517 0.09911324 0.9021649
vn 0.5846664 0.1380208 0.7994471
vn -0.1367733 -0.03228799 0.9900762
vn -0.1367745 -0.03228823 0.9900759
vn -0.136775 -0.0322883 0.990076
vn -0.1367761 -0.03228847 0.9900757
vn -0.1367741 -0.0322882 0.9900761
vn -0.1367725 -0.03228812 0.9900764
vn -0.1367698 -0.03228776 0.9900766
vn -0.1367249 -0.03228293 0.990083
vn -0.1367531 -0.0322859 0.990079
vn -0.1367813 -0.03228913 0.9900751
vn -0.1367773 -0.03228857 0.9900756
vn -0.1367744 -0.03228824 0.9900759
vn -0.1367738 -0.03228812 0.9900761
vn -0.1367736 -0.03228806 0.9900761
vn -0.1367687 -0.03228685 0.9900768
vn 0.02657614 0.006273584 0.9996273
vn -0.4951126 -0.1168803 0.8609313
vn -0.4951126 -0.1168803 0.8609313
vn -0.4951126 -0.1168803 0.8609313
vn 0.2297528 -0.9732492 -1.490116E-07
vn 0.1367742 0.03228834 -0.9900761
vn 0.2297528 -0.9732492 -1.490116E-07
vn 0.8951395 0.2113136 0.3925203
vn -0.1468555 -0.8159608 0.5591436
vn -0.08909468 -0.8699617 0.4850041
vn -0.4775377 -0.1857333 0.8587555
vn -0.4951126 -0.1168803 0.8609313
vn -0.4951126 -0.1168803 0.8609313
vn -0.4951126 -0.1168803 0.8609313
vn -0.468814 -0.2165059 0.856352
vn 0.2297528 -0.9732492 -1.490116E-07
vn -0.4921587 -0.1291942 0.8608652
vn -0.4951126 -0.1168803 0.8609313
vn -0.4576445 -0.2533438 0.8522784
vn -0.4951182 -0.1168816 0.8609279
vn -0.5080194 -0.05823508 0.8593749
vn 0.1367741 0.03228826 -0.990076
vn -0.4951324 -0.116885 0.8609192
vn -0.2297562 0.9732484 6.126247E-06
vn -0.2297528 0.9732492 1.490116E-07
vn -0.2297531 0.9732491 -7.054423E-08
vn 0 0 0
vn 0.1367741 0.03228824 -0.9900761
vn 0.1367741 0.03228821 -0.9900761
vn 0.1367741 0.03228824 -0.9900761
vn -0.2297531 0.9732491 -7.054423E-08
vn -0.2297531 0.9732491 -7.054423E-08
vn 0.8379005 0.1978013 0.5087216
vn 0.8379004 0.1978012 0.5087216
vn 0.8379005 0.1978013 0.5087216
vn 0.8379005 0.1978013 0.5087216
vn 0.8379005 0.1978013 0.5087216
vn 0.8379005 0.1978013 0.5087216
vn 0.8379005 0.1978013 0.5087216
vn 0.8379005 0.1978013 0.5087216
vn 0.8379005 0.1978013 0.5087216
vn 0.2297528 -0.9732492 -1.490116E-07
vn 0.2297528 -0.9732492 -1.490116E-07
vn 0.2297528 -0.9732492 -1.490116E-07
vn 0.2297528 -0.9732492 -1.490116E-07
vn 0.2297528 -0.9732492 -1.490116E-07
vn 0.2297528 -0.9732492 -1.490116E-07
vn 0.2297528 -0.9732492 -1.490116E-07
vn 0.2297528 -0.9732492 -1.490116E-07
vn 0.2297528 -0.9732492 -1.490116E-07
vn 0.2297528 -0.9732492 -1.490116E-07
vn 0.2297528 -0.9732492 -1.490116E-07
vn 0.2297528 -0.9732492 -1.490116E-07
vn 0.2297528 -0.9732492 -1.490116E-07
vn 0.2297528 -0.9732491 -1.490116E-07
vn 0.2297528 -0.9732492 -1.490116E-07
vn 0.2297528 -0.9732492 -1.490116E-07
vn 0.2297528 -0.9732491 -1.490116E-07
vn 0.2297528 -0.9732492 -1.490116E-07
vn 0.2297528 -0.9732492 -1.490116E-07
vn 0.2297528 -0.9732492 -1.490116E-07
vn 0.2297528 -0.9732491 -1.490116E-07
vn 0.2297528 -0.9732492 -1.490116E-07
vn 0.2297528 -0.9732492 -1.490116E-07
vn 0.2297528 -0.9732492 -1.490116E-07
vn 0.2297528 -0.9732492 -1.490116E-07
vn 0.2297528 -0.9732492 -1.490116E-07
vn 0.2297528 -0.9732492 -1.490116E-07
vn 0.2297528 -0.9732492 -1.490116E-07
vn 0.2297528 -0.9732492 -1.490116E-07
vn 0.2297528 -0.9732492 -1.490116E-07
vn 0.2297528 -0.9732492 -1.490116E-07
vn 0.2297528 -0.9732491 -1.490116E-07
vn 0.2297528 -0.9732492 -1.490116E-07
vn 0.2297528 -0.9732491 -1.490116E-07
vn 0.2297528 -0.9732491 -1.490116E-07
vn 0.2297528 -0.9732492 -1.490116E-07
vn 0.2297528 -0.9732491 -1.490116E-07
vn 0.2297528 -0.9732491 -1.490116E-07
vn -0.778075 -0.1836787 0.6007177
vn -0.9005722 -0.2125963 0.3791734
vn -0.9668767 -0.2282486 0.1142452
vn -0.7780749 -0.1836787 0.6007175
vn -0.8977445 -0.2119285 -0.3861882
vn -0.7623079 -0.1799562 -0.6216935
vn -0.5846478 -0.1380164 -0.7994614
vn -0.5846479 -0.1380164 -0.7994615
vn -0.7780749 -0.1836786 0.6007177
vn 0.8379005 0.1978013 0.5087216
vn 0.8379005 0.1978013 0.5087216
vn 0.8379005 0.1978013 0.5087216
vn 0.8379005 0.1978013 0.5087216
vn 0.8379005 0.1978013 0.5087216
vn 0.8379005 0.1978013 0.5087216
vn 0.8379005 0.1978013 0.5087216
vn 0.8379004 0.1978013 0.5087216
vn 0.4382294 0.3118294 -0.8430406
vn -0.2297531 0.9732491 7.833103E-07
vn -0.2297529 0.9732491 3.923369E-08
vn -0.229753 0.9732491 1.262178E-07
vn -0.229753 0.9732491 3.92337E-08
vn -0.229753 0.9732491 3.92337E-08
vn -0.229753 0.9732491 3.474404E-07
vn -0.229753 0.9732491 3.474405E-07
vn -0.229753 0.9732491 3.474398E-07
vn -0.229753 0.9732491 3.474407E-07
vn -0.229753 0.9732491 3.474408E-07
vn -0.229753 0.9732491 3.474401E-07
vn -0.229753 0.9732491 3.474379E-07
vn -0.229753 0.9732491 3.474431E-07
vn -0.2297531 0.9732491 1.048013E-07
vn -0.229753 0.9732491 -6.237854E-09
vn -0.2297531 0.9732491 1.025903E-07
vn -0.2297531 0.9732491 1.025907E-07
vn -0.2297531 0.9732491 1.025912E-07
vn -0.2297531 0.9732491 1.025908E-07
vn -0.2297531 0.9732491 1.025908E-07
vn -0.2297531 0.9732491 1.025907E-07
vn -0.2297531 0.9732491 1.025902E-07
vn -0.229753 0.9732491 -9.327483E-08
vn -0.229753 0.9732491 -1.150664E-07
vn -0.229753 0.9732491 -1.150665E-07
vn -0.229753 0.9732491 -1.150657E-07
vn -0.229753 0.9732491 -1.150676E-07
vn -0.229753 0.9732491 -1.150666E-07
vn -0.229753 0.9732491 -1.150662E-07
vn -0.2297529 0.9732491 -6.593909E-08
vn -0.2297527 0.9732492 -1.780302E-07
vn -0.2297527 0.9732492 -1.780303E-07
vn -0.2297527 0.9732492 -1.780305E-07
vn -0.2297527 0.9732492 -1.780261E-07
vn -0.2297527 0.9732492 -1.78031E-07
vn -0.2297527 0.9732492 -1.780306E-07
vn -0.2297527 0.9732492 -1.780297E-07
vn -0.2297527 0.9732491 -1.780288E-07
vn -0.229753 0.9732491 3.923369E-08
vn -0.229753 0.9732491 3.923368E-08
vn -0.2297529 0.9732491 3.923369E-08

f 1//1 2//2 3//3
f 4//4 1//1 3//3
f 3//3 5//5 4//4
f 3//3 6//6 5//5
f 5//5 6//6 7//7
f 8//8 7//7 6//6
f 9//9 8//8 6//6
f 10//10 9//9 6//6
f 9//9 10//10 11//11
f 11//11 10//10 12//12
f 13//13 11//11 12//12
f 13//13 12//12 14//14
f 13//13 14//14 15//15
f 15//15 14//14 16//16
f 15//15 16//16 17//17
f 18//18 17//17 16//16
f 19//19 17//17 18//18
f 19//19 18//18 20//20
f 21//21 19//19 20//20
f 22//22 19//19 21//21
f 22//22 21//21 23//23
f 24//24 22//22 23//23
f 24//24 23//23 25//25
f 26//26 24//24 25//25
f 26//26 25//25 27//27
f 28//28 26//26 27//27
f 28//28 27//27 29//29
f 29//29 27//27 30//30
f 31//31 29//29 30//30
f 31//31 30//30 32//32
f 33//33 31//31 32//32
f 33//33 32//32 34//34
f 35//35 33//33 34//34
f 35//35 34//34 36//36
f 37//37 35//35 36//36
f 37//37 36//36 38//38
f 39//39 37//37 38//38
f 39//39 38//38 40//40
f 41//41 39//39 40//40
f 41//41 40//40 42//42
f 41//41 42//42 43//43
f 43//43 42//42 44//44
f 45//45 43//43 44//44
f 45//45 44//44 46//46
f 47//47 45//45 46//46
f 48//48 45//45 47//47
f 48//48 47//47 49//49
f 50//50 48//48 49//49
f 50//50 49//49 51//51
f 52//52 50//50 51//51
f 52//52 51//51 53//53
f 54//54 52//52 53//53
f 55//55 54//54 53//53
f 55//55 53//53 56//56
f 55//55 56//56 57//57
f 57//57 56//56 58//58
f 57//57 58//58 59//59
f 59//59 58//58 60//60
f 59//59 60//60 61//61
f 61//61 60//60 62//62
f 61//61 62//62 63//63
f 63//63 62//62 64//64
f 63//63 64//64 65//65
f 65//65 64//64 66//66
f 65//65 66//66 67//67
f 68//68 67//67 66//66
f 69//69 67//67 68//68
f 69//69 68//68 70//70
f 71//71 69//69 70//70
f 72//72 71//71 73//73
f 74//74 75//75 76//76
f 77//77 74//74 76//76
f 75//75 77//77 76//76
f 78//78 75//75 74//74
f 79//79 75//75 78//78
f 78//78 74//74 80//80
f 81//81 78//78 80//80
f 82//82 78//78 81//81
f 82//82 83//83 78//78
f 83//83 84//84 79//79
f 84//84 85//85 79//79
f 80//80 74//74 86//86
f 87//87 80//80 86//86
f 81//81 80//80 87//87
f 86//86 74//74 88//88
f 88//88 74//74 77//77
f 86//86 88//88 89//89
f 90//90 86//86 89//89
f 87//87 86//86 90//90
f 75//75 91//91 77//77
f 90//90 89//89 92//92
f 90//90 92//92 93//93
f 94//94 90//90 93//93
f 95//95 83//83 82//82
f 95//95 82//82 81//81
f 95//95 81//81 87//87
f 95//95 87//87 90//90
f 95//95 96//96 83//83
f 97//97 91//91 75//75
f 97//97 98//98 91//91
f 97//97 99//99 98//98
f 100//100 95//95 101//101
f 102//102 103//103 104//104
f 102//102 104//104 105//105
f 102//102 105//105 106//106
f 106//106 105//105 107//107
f 108//108 102//102 106//106
f 109//109 102//102 108//108
f 110//110 108//108 106//106
f 111//111 112//112 113//113
f 111//111 113//113 114//114
f 111//111 114//114 115//115
f 111//111 115//115 116//116
f 111//111 116//116 117//117
f 117//117 118//118 111//111
f 118//118 119//119 111//111
f 120//120 111//111 119//119
f 120//120 121//121 111//111
f 121//121 122//122 111//111
f 111//111 122//122 123//123
f 114//114 113//113 124//124
f 124//124 113//113 125//125
f 125//125 113//113 126//126
f 126//126 113//113 127//127
f 127//127 113//113 128//128
f 128//128 113//113 129//129
f 129//129 113//113 130//130
f 130//130 113//113 131//131
f 131//131 113//113 132//132
f 132//132 113//113 133//133
f 133//133 113//113 134//134
f 133//133 134//134 135//135
f 135//135 134//134 136//136
f 134//134 137//137 136//136
f 137//137 134//134 138//138
f 138//138 134//134 139//139
f 139//139 134//134 140//140
f 140//140 134//134 141//141
f 134//134 142//142 141//141
f 134//134 143//143 142//142
f 134//134 144//144 143//143
f 144//144 134//134 145//145
f 145//145 134//134 146//146
f 147//147 134//134 148//148
f 149//149 150//150 151//151
f 149//149 152//152 150//150
f 151//151 150//150 153//153
f 151//151 153//153 154//154
f 154//154 153//153 155//155
f 154//154 155//155 156//156
f 152//152 157//157 150//150
f 158//158 159//159 160//160
f 161//161 159//159 158//158
f 162//162 159//159 161//161
f 163//163 162//162 161//161
f 164//164 162//162 163//163
f 165//165 162//162 164//164
f 9//9 166//166 8//8
f 166//166 9//9 167//167
f 168//168 169//169 170//170
f 168//168 171//171 169//169
f 172//172 169//169 173//173
f 174//174 169//169 172//172
f 169//169 174//174 175//175
f 176//176 169//169 175//175
f 177//177 169//169 176//176
f 178//178 169//169 177//177
f 178//178 179//179 169//169
f 179//179 180//180 169//169
f 180//180 181//181 169//169
f 182//182 181//181 180//180
f 182//182 183//183 181//181
f 183//183 184//184 181//181
f 184//184 185//185 181//181
f 185//185 186//186 181//181
f 186//186 187//187 181//181
f 187//187 188//188 181//181
f 188//188 189//189 181//181
f 181//181 189//189 190//190
f 181//181 190//190 191//191
f 192//192 181//181 191//191
f 193//193 181//181 192//192
f 194//194 181//181 193//193
f 195//195 181//181 194//194
f 195//195 196//196 181//181
f 196//196 197//197 198//198
f 196//196 198//198 199//199
f 199//199 200//200 196//196
f 196//196 200//200 201//201
f 201//201 202//202 196//196
f 196//196 202//202 203//203
f 196//196 203//203 204//204
f 205//205 196//196 206//206
f 207//207 196//196 205//205
