v -29.38056 121.4547 -71.29534
v -22.20408 129.793 -53.49486
v -29.38056 121.4547 -71.29534
v -29.38056 121.4547 -71.29534
v -32.6493 121.2329 -69.87362
v -33.95679 121.1442 -69.30493
v -33.95679 121.1442 -69.30493
v -26.78031 129.4825 -51.50446
v -19.60384 137.8208 -33.70398
v -33.995 120.9298 -69.18909
v -19.94775 135.891 -32.66135
v -33.99975 120.9032 -69.17469
v -19.99048 135.6512 -32.53178
v -34.00108 120.8957 -69.17065
v -20.00248 135.5838 -32.49541
v -34.01607 120.8116 -69.12523
v -20.13733 134.8271 -32.0866
v -34.20079 119.775 -68.56519
v -20.15785 134.712 -32.02438
v -34.37594 118.7922 -68.0342
v -34.39609 118.6792 -67.97312
v -20.17955 134.5902 -31.95859
v -34.43811 118.4434 -67.84572
v -20.18422 134.564 -31.94443
v -34.54956 117.818 -67.50785
v -20.1966 134.4945 -31.90689
v -34.7052 117.735 -67.40623
v -21.05368 134.0377 -31.34737
v -21.59744 133.7479 -30.99238
v -34.74382 117.7145 -67.38103
v -21.94501 133.5627 -30.76548
v -34.75532 117.7083 -67.37352
v -22.04844 133.5075 -30.69795
v -34.84218 117.662 -67.31682
v -22.83021 133.0909 -30.18759
v -35.83872 117.1309 -66.66624
v -22.94094 133.0318 -30.11531
v -36.66202 116.6921 -66.12877
v -23.03241 132.9831 -30.05559
v -37.47578 116.2583 -65.59752
v -23.12283 132.9349 -29.99656
v -37.5852 116.2929 -65.56961
v -24.10753 133.2461 -29.74534
v -37.83034 116.3704 -65.50706
v -26.31382 133.9434 -29.18248
v -38.51425 116.5865 -65.33259
v -38.78776 116.673 -65.26281
v -26.4202 133.977 -29.15534
v -39.72038 116.9677 -65.02489
v -26.52383 134.0097 -29.12891
v -40.48829 117.2104 -64.82898
v -26.60915 134.0367 -29.10714
v -41.02133 117.3789 -64.69299
v -26.66838 134.0554 -29.09203
v -26.66838 134.0554 -29.09203
v -41.14542 117.5658 -64.7305
v -27.78521 135.7373 -29.42962
v -41.18195 117.6208 -64.74154
v -28.11393 136.2324 -29.52898
v -41.18568 117.6264 -64.74267
v -28.14749 136.2829 -29.53913
v -41.1874 117.629 -64.74319
v -28.16305 136.3064 -29.54383
v -41.18959 117.6323 -64.74385
v -28.18272 136.336 -29.54978
v -41.23013 117.6933 -64.7561
v -28.54751 136.8853 -29.66005
v -43.10926 120.5232 -65.32412
v -28.75631 137.1998 -29.72316
v -43.10926 120.5232 -65.32412
v -28.75631 137.1998 -29.72316
v -43.10926 120.5232 -65.32412
v -43.10926 120.5232 -65.32412
v -44.41676 120.4345 -64.75543
v -47.68549 120.2127 -63.33371
v -47.68549 120.2127 -63.33371
v -47.68549 120.2127 -63.33371
v -43.10926 120.5232 -65.32412
v -43.10926 120.5232 -65.32412
v -43.10926 120.5232 -65.32412
v -28.75631 137.1998 -29.72316
v -28.75631 137.1998 -29.72316
v -28.75631 137.1998 -29.72316
v -43.10926 120.5232 -65.32412
v -43.50964 113.9241 -62.07145
v -43.10926 120.5232 -65.32412
v -28.75631 137.1998 -29.72316
v -43.10926 120.5232 -65.32412
v -35.93278 128.8615 -47.52364
v -28.75631 137.1998 -29.72316
v -40.50901 128.551 -45.53323
v -28.75631 137.1998 -29.72318
v -28.75631 137.1998 -29.72316
v -30.0638 137.1111 -29.15447
v -29.15668 130.6006 -26.47049
v -28.75631 137.1998 -29.72316
v -43.50964 113.9241 -62.07145
v -33.33254 136.8893 -27.73275
v -29.15668 130.6006 -26.47049
v -26.66838 134.0554 -29.09203
v -26.66838 134.0554 -29.09203
v -22.20408 129.793 -53.49486
v -29.38056 121.4547 -71.29534
v -29.38056 121.4547 -71.29534
v -32.6493 121.2329 -69.87362
v -26.78031 129.4825 -51.50446
v -33.95679 121.1442 -69.30493
v -17.7083 137.9494 -34.52843
v -15.0276 138.1313 -35.69438
v -19.60384 137.8208 -33.70398
v -29.38056 121.4547 -71.29534
v -30.56609 114.8023 -67.70117
v -36.41854 111.683 -63.88051
v -34.54956 117.818 -67.50785
v -34.43811 118.4434 -67.84572
v -34.39609 118.6792 -67.97312
v -34.37594 118.7922 -68.0342
v -34.20079 119.775 -68.56519
v -34.01607 120.8116 -69.12523
v -34.00108 120.8957 -69.17065
v -33.99975 120.9032 -69.17469
v -33.995 120.9298 -69.18909
v -33.95679 121.1442 -69.30493
v -34.7052 117.735 -67.40623
v -34.74382 117.7145 -67.38103
v -34.75532 117.7083 -67.37352
v -34.84218 117.662 -67.31682
v -35.83872 117.1309 -66.66624
v -36.66202 116.6921 -66.12877
v -37.47578 116.2583 -65.59752
v -37.5852 116.2929 -65.56961
v -37.83034 116.3704 -65.50706
v -38.51425 116.5865 -65.33259
v -43.50964 113.9241 -62.07145
v -38.78776 116.673 -65.26281
v -39.72038 116.9677 -65.02489
v -40.48829 117.2104 -64.82898
v -41.02133 117.3789 -64.69299
v -41.14542 117.5658 -64.7305
v -41.18195 117.6208 -64.74154
v -41.18568 117.6264 -64.74267
v -41.1874 117.629 -64.74319
v -41.18959 117.6323 -64.74385
v -41.23013 117.6933 -64.7561
v -43.10926 120.5232 -65.32412
v -43.10926 120.5232 -65.32412
v -43.10926 120.5232 -65.32412
v -47.68549 120.2127 -63.33371
v -29.38056 121.4547 -71.29534
v -16.21313 131.4788 -32.10022
v -30.56609 114.8023 -67.70117
v -22.20408 129.793 -53.49486
v -22.06559 128.3595 -28.27955
v -36.41854 111.683 -63.88051
v -29.15668 130.6006 -26.47049
v -43.50964 113.9241 -62.07145
v -15.0276 138.1313 -35.69438
v -47.68549 120.2127 -63.33371
v -35.93278 128.8615 -47.52364
v -43.10926 120.5232 -65.32412
v -40.50901 128.551 -45.53323
v -28.75631 137.1998 -29.72318
v -33.33254 136.8893 -27.73275
v -30.0638 137.1111 -29.15447
v -28.75631 137.1998 -29.72316
v -19.60384 137.8208 -33.70398
v -16.21313 131.4788 -32.10022
v -17.7083 137.9494 -34.52843
v -16.21313 131.4788 -32.10022
v -15.0276 138.1313 -35.69438
v -19.60384 137.8208 -33.70398
v -19.94775 135.891 -32.66135
v -19.60384 137.8208 -33.70398
v -19.99048 135.6512 -32.53178
v -20.00248 135.5838 -32.49541
v -20.13733 134.8271 -32.0866
v -20.15785 134.712 -32.02438
v -20.17955 134.5902 -31.95859
v -20.18422 134.564 -31.94443
v -20.1966 134.4945 -31.90689
v -22.06559 128.3595 -28.27955
v -21.05368 134.0377 -31.34737
v -21.59744 133.7479 -30.99238
v -21.94501 133.5627 -30.76548
v -22.04844 133.5075 -30.69795
v -22.83021 133.0909 -30.18759
v -22.94094 133.0318 -30.11531
v -23.03241 132.9831 -30.05559
v -23.12283 132.9349 -29.99656
v -24.10753 133.2461 -29.74534
v -26.31382 133.9434 -29.18248
v -26.4202 133.977 -29.15534
v -26.52383 134.0097 -29.12891
v -26.60915 134.0367 -29.10714
v -26.66838 134.0554 -29.09203
v -29.15668 130.6006 -26.47049
v -26.66838 134.0554 -29.09203
v -27.78521 135.7373 -29.42962
v -28.11393 136.2324 -29.52898
v -28.14749 136.2829 -29.53913
v -28.16305 136.3064 -29.54383
v -28.18272 136.336 -29.54978
v -28.54751 136.8853 -29.66005
v -28.75631 137.1998 -29.72316
v -30.0638 137.1111 -29.15447
v -28.75631 137.1998 -29.72316
v -33.33254 136.8893 -27.73275

vn 0.9152458 0.06209861 -0.3980816
vn 0.9152459 0.06209867 -0.3980815
vn 0.4717177 -0.2121718 -0.8558421
vn -0.34295 -0.3984699 -0.850651
vn -0.34295 -0.3984699 -0.850651
vn -0.9264938 0.2928172 0.2363629
vn -0.9545478 -0.1178267 0.2737805
vn -0.422905 0.8741005 -0.238955
vn -0.9264944 0.2928132 0.2363653
vn -0.9264947 0.2928125 0.2363657
vn -0.9264945 0.2928128 0.2363655
vn -0.9264944 0.2928137 0.2363651
vn -0.9264941 0.2928147 0.2363647
vn -0.9264953 0.2928094 0.2363669
vn -0.9264947 0.2928119 0.2363658
vn -0.9264946 0.2928124 0.2363656
vn -0.9264947 0.2928123 0.2363657
vn -0.9264947 0.2928122 0.2363657
vn -0.9264946 0.2928125 0.2363656
vn -0.9264947 0.2928122 0.2363658
vn -0.9264945 0.2928132 0.2363652
vn -0.9264942 0.2928146 0.2363645
vn -0.9264945 0.2928126 0.2363654
vn -0.9264948 0.2928119 0.2363659
vn -0.8925315 0.4205639 0.1628304
vn -0.5764194 0.8043001 -0.1443672
vn -0.5456 0.8216575 -0.1649231
vn -0.5456006 0.8216571 -0.1649227
vn -0.5456009 0.821657 -0.1649226
vn -0.5456026 0.8216562 -0.1649217
vn -0.5456036 0.8216555 -0.1649211
vn -0.5456049 0.8216547 -0.1649204
vn -0.5456027 0.821656 -0.1649216
vn -0.5456017 0.8216565 -0.164922
vn -0.5456013 0.8216569 -0.1649223
vn -0.5456011 0.8216569 -0.1649223
vn -0.545602 0.8216563 -0.1649218
vn -0.5456016 0.8216567 -0.1649221
vn -0.5456006 0.8216572 -0.1649227
vn -0.4940892 0.8467 -0.1974209
vn 0.09343164 0.8866103 -0.4529822
vn 0.1548958 0.8691853 -0.4695999
vn 0.1548968 0.8691851 -0.4696002
vn 0.1548974 0.8691849 -0.4696003
vn 0.1548974 0.8691849 -0.4696003
vn 0.154897 0.8691849 -0.4696002
vn 0.1548965 0.8691851 -0.4696002
vn 0.1548969 0.869185 -0.4696003
vn 0.1548966 0.8691851 -0.4696002
vn 0.1548969 0.869185 -0.4696003
vn 0.1548969 0.869185 -0.4696003
vn 0.1548964 0.8691851 -0.4696002
vn 0.3344394 0.7944373 -0.5069711
vn 0.1548749 0.8691919 -0.4695947
vn 0.7646592 0.4075569 -0.4991932
vn 0.7646598 0.4075558 -0.4991929
vn 0.7646602 0.4075556 -0.4991929
vn 0.7646608 0.4075545 -0.4991925
vn 0.7646596 0.4075562 -0.4991931
vn 0.7646587 0.4075574 -0.4991936
vn 0.764657 0.4075595 -0.4991942
vn 0.7646304 0.4075945 -0.4992065
vn 0.7646472 0.4075726 -0.4991988
vn 0.7646639 0.4075505 -0.4991913
vn 0.7646615 0.4075537 -0.4991923
vn 0.7646598 0.4075559 -0.499193
vn 0.7646594 0.4075564 -0.4991931
vn 0.7646593 0.4075567 -0.4991932
vn 0.7646566 0.4075608 -0.4991939
vn 0.662457 0.5394384 -0.5197663
vn 0.915246 0.06209875 -0.3980814
vn 0.915246 0.06209875 -0.3980814
vn 0.915246 0.06209875 -0.3980814
vn -0.34295 -0.3984699 -0.850651
vn -0.7646596 -0.4075561 0.4991932
vn -0.34295 -0.3984699 -0.850651
vn -0.3286002 0.8992459 -0.2887539
vn 0.3336426 -0.2626626 -0.9053679
vn 0.2322503 -0.2942403 -0.9270828
vn 0.8885667 0.03363092 -0.4575132
vn 0.915246 0.06209875 -0.3980814
vn 0.915246 0.06209875 -0.3980814
vn 0.915246 0.06209875 -0.3980814
vn 0.875053 0.02072498 -0.4835833
vn -0.34295 -0.3984699 -0.850651
vn 0.9108285 0.05705313 -0.4088233
vn 0.915246 0.06209875 -0.3980814
vn 0.8575467 0.005122481 -0.5143806
vn 0.9152473 0.06209268 -0.3980791
vn 0.9341874 0.08590583 -0.3462864
vn -0.7646596 -0.4075561 0.4991931
vn 0.915251 0.06207711 -0.3980732
vn 0.3429564 0.3984703 0.8506482
vn 0.34295 0.3984699 0.850651
vn 0.3429501 0.3984695 0.8506511
vn 0 0 0
vn -0.7646596 -0.4075562 0.4991931
vn -0.7646596 -0.4075562 0.4991931
vn -0.7646596 -0.4075562 0.4991932
vn 0.3429501 0.3984695 0.8506511
vn 0.3429501 0.3984695 0.8506511
vn -0.2114477 0.9150768 -0.343401
vn -0.2114477 0.9150767 -0.343401
vn -0.2114477 0.9150768 -0.343401
vn -0.2114477 0.9150768 -0.343401
vn -0.2114477 0.9150768 -0.343401
vn -0.2114477 0.9150768 -0.343401
vn -0.2114477 0.9150768 -0.343401
vn -0.2114477 0.9150768 -0.343401
vn -0.2114477 0.9150768 -0.343401
vn -0.34295 -0.3984699 -0.850651
vn -0.34295 -0.3984699 -0.850651
vn -0.34295 -0.3984699 -0.850651
vn -0.34295 -0.3984699 -0.850651
vn -0.34295 -0.3984699 -0.850651
vn -0.34295 -0.3984699 -0.850651
vn -0.34295 -0.3984699 -0.850651
vn -0.34295 -0.3984699 -0.850651
vn -0.34295 -0.3984699 -0.850651
vn -0.34295 -0.3984699 -0.850651
vn -0.34295 -0.3984699 -0.850651
vn -0.34295 -0.3984699 -0.850651
vn -0.34295 -0.3984699 -0.850651
vn -0.34295 -0.3984699 -0.850651
vn -0.34295 -0.3984699 -0.850651
vn -0.34295 -0.3984699 -0.850651
vn -0.34295 -0.3984699 -0.850651
vn -0.34295 -0.3984699 -0.850651
vn -0.34295 -0.3984699 -0.850651
vn -0.34295 -0.3984699 -0.850651
vn -0.34295 -0.3984699 -0.850651
vn -0.34295 -0.3984699 -0.850651
vn -0.34295 -0.3984699 -0.850651
vn -0.34295 -0.3984699 -0.850651
vn -0.34295 -0.3984699 -0.850651
vn -0.34295 -0.3984699 -0.850651
vn -0.34295 -0.3984699 -0.850651
vn -0.34295 -0.3984699 -0.850651
vn -0.34295 -0.3984699 -0.850651
vn -0.34295 -0.3984699 -0.850651
vn -0.34295 -0.3984699 -0.850651
vn -0.34295 -0.3984699 -0.850651
vn -0.34295 -0.3984699 -0.850651
vn -0.34295 -0.3984699 -0.850651
vn -0.34295 -0.3984699 -0.850651
vn -0.34295 -0.3984699 -0.850651
vn -0.34295 -0.3984699 -0.850651
vn -0.34295 -0.3984699 -0.850651
vn 0.9264946 -0.2928129 -0.2363655
vn 0.8572725 -0.5029722 -0.110013
vn 0.7211388 -0.6919846 0.03340997
vn 0.9264944 -0.2928129 -0.2363655
vn 0.3346421 -0.8979838 0.2857269
vn 0.08427919 -0.9149707 0.3946209
vn -0.154897 -0.8691849 0.4696003
vn -0.154897 -0.869185 0.4696003
vn 0.9264945 -0.2928127 -0.2363655
vn -0.2114477 0.9150768 -0.343401
vn -0.2114477 0.9150768 -0.343401
vn -0.2114477 0.9150768 -0.343401
vn -0.2114477 0.9150768 -0.343401
vn -0.2114477 0.9150768 -0.343401
vn -0.2114477 0.9150768 -0.343401
vn -0.2114477 0.9150768 -0.343401
vn -0.2114477 0.9150767 -0.343401
vn -0.8266754 0.0200026 0.5623236
vn 0.3429507 0.39847 0.8506507
vn 0.3429501 0.3984697 0.850651
vn 0.3429502 0.3984697 0.850651
vn 0.3429501 0.3984697 0.8506511
vn 0.3429501 0.3984697 0.8506511
vn 0.3429503 0.3984698 0.8506509
vn 0.3429503 0.3984698 0.8506509
vn 0.3429503 0.3984698 0.8506509
vn 0.3429503 0.3984698 0.8506509
vn 0.3429503 0.3984698 0.8506509
vn 0.3429503 0.3984698 0.8506509
vn 0.3429503 0.3984698 0.8506509
vn 0.3429503 0.3984698 0.8506509
vn 0.3429502 0.3984696 0.8506511
vn 0.3429501 0.3984696 0.8506511
vn 0.3429502 0.3984696 0.8506511
vn 0.3429502 0.3984696 0.8506511
vn 0.3429502 0.3984696 0.8506511
vn 0.3429502 0.3984696 0.8506511
vn 0.3429502 0.3984696 0.8506511
vn 0.3429502 0.3984696 0.8506511
vn 0.3429502 0.3984696 0.8506511
vn 0.34295 0.3984696 0.8506511
vn 0.34295 0.3984696 0.8506511
vn 0.34295 0.3984696 0.8506511
vn 0.34295 0.3984696 0.8506511
vn 0.34295 0.3984696 0.8506511
vn 0.34295 0.3984696 0.8506511
vn 0.34295 0.3984696 0.8506511
vn 0.34295 0.3984697 0.8506511
vn 0.3429498 0.3984698 0.8506511
vn 0.3429498 0.3984698 0.8506511
vn 0.3429498 0.3984698 0.8506511
vn 0.3429498 0.3984698 0.8506511
vn 0.3429498 0.3984698 0.8506511
vn 0.3429498 0.3984698 0.8506511
vn 0.3429498 0.3984698 0.8506511
vn 0.3429498 0.3984697 0.8506511
vn 0.3429501 0.3984697 0.8506511
vn 0.3429501 0.3984697 0.8506511
vn 0.3429501 0.3984697 0.850651

f 1//1 2//2 3//3
f 4//4 1//1 3//3
f 3//3 5//5 4//4
f 3//3 6//6 5//5
f 5//5 6//6 7//7
f 8//8 7//7 6//6
f 9//9 8//8 6//6
f 10//10 9//9 6//6
f 9//9 10//10 11//11
f 11//11 10//10 12//12
f 13//13 11//11 12//12
f 13//13 12//12 14//14
f 13//13 14//14 15//15
f 15//15 14//14 16//16
f 15//15 16//16 17//17
f 18//18 17//17 16//16
f 19//19 17//17 18//18
f 19//19 18//18 20//20
f 21//21 19//19 20//20
f 22//22 19//19 21//21
f 22//22 21//21 23//23
f 24//24 22//22 23//23
f 24//24 23//23 25//25
f 26//26 24//24 25//25
f 26//26 25//25 27//27
f 28//28 26//26 27//27
f 28//28 27//27 29//29
f 29//29 27//27 30//30
f 31//31 29//29 30//30
f 31//31 30//30 32//32
f 33//33 31//31 32//32
f 33//33 32//32 34//34
f 35//35 33//33 34//34
f 35//35 34//34 36//36
f 37//37 35//35 36//36
f 37//37 36//36 38//38
f 39//39 37//37 38//38
f 39//39 38//38 40//40
f 41//41 39//39 40//40
f 41//41 40//40 42//42
f 41//41 42//42 43//43
f 43//43 42//42 44//44
f 45//45 43//43 44//44
f 45//45 44//44 46//46
f 47//47 45//45 46//46
f 48//48 45//45 47//47
f 48//48 47//47 49//49
f 50//50 48//48 49//49
f 50//50 49//49 51//51
f 52//52 50//50 51//51
f 52//52 51//51 53//53
f 54//54 52//52 53//53
f 55//55 54//54 53//53
f 55//55 53//53 56//56
f 55//55 56//56 57//57
f 57//57 56//56 58//58
f 57//57 58//58 59//59
f 59//59 58//58 60//60
f 59//59 60//60 61//61
f 61//61 60//60 62//62
f 61//61 62//62 63//63
f 63//63 62//62 64//64
f 63//63 64//64 65//65
f 65//65 64//64 66//66
f 65//65 66//66 67//67
f 68//68 67//67 66//66
f 69//69 67//67 68//68
f 69//69 68//68 70//70
f 71//71 69//69 70//70
f 72//72 71//71 73//73
f 74//74 75//75 76//76
f 77//77 74//74 76//76
f 75//75 77//77 76//76
f 78//78 75//75 74//74
f 79//79 75//75 78//78
f 78//78 74//74 80//80
f 81//81 78//78 80//80
f 82//82 78//78 81//81
f 82//82 83//83 78//78
f 83//83 84//84 79//79
f 84//84 85//85 79//79
f 80//80 74//74 86//86
f 87//87 80//80 86//86
f 81//81 80//80 87//87
f 86//86 74//74 88//88
f 88//88 74//74 77//77
f 86//86 88//88 89//89
f 90//90 86//86 89//89
f 87//87 86//86 90//90
f 75//75 91//91 77//77
f 90//90 89//89 92//92
f 90//90 92//92 93//93
f 94//94 90//90 93//93
f 95//95 83//83 82//82
f 95//95 82//82 81//81
f 95//95 81//81 87//87
f 95//95 87//87 90//90
f 95//95 96//96 83//83
f 97//97 91//91 75//75
f 97//97 98//98 91//91
f 97//97 99//99 98//98
f 100//100 95//95 101//101
f 102//102 103//103 104//104
f 102//102 104//104 105//105
f 102//102 105//105 106//106
f 106//106 105//105 107//107
f 108//108 102//102 106//106
f 109//109 102//102 108//108
f 110//110 108//108 106//106
f 111//111 112//112 113//113
f 111//111 113//113 114//114
f 111//111 114//114 115//115
f 111//111 115//115 116//116
f 111//111 116//116 117//117
f 117//117 118//118 111//111
f 118//118 119//119 111//111
f 120//120 111//111 119//119
f 120//120 121//121 111//111
f 121//121 122//122 111//111
f 111//111 122//122 123//123
f 114//114 113//113 124//124
f 124//124 113//113 125//125
f 125//125 113//113 126//126
f 126//126 113//113 127//127
f 127//127 113//113 128//128
f 128//128 113//113 129//129
f 129//129 113//113 130//130
f 130//130 113//113 131//131
f 131//131 113//113 132//132
f 132//132 113//113 133//133
f 133//133 113//113 134//134
f 133//133 134//134 135//135
f 135//135 134//134 136//136
f 134//134 137//137 136//136
f 137//137 134//134 138//138
f 138//138 134//134 139//139
f 139//139 134//134 140//140
f 140//140 134//134 141//141
f 134//134 142//142 141//141
f 134//134 143//143 142//142
f 134//134 144//144 143//143
f 144//144 134//134 145//145
f 145//145 134//134 146//146
f 147//147 134//134 148//148
f 149//149 150//150 151//151
f 149//149 152//152 150//150
f 151//151 150//150 153//153
f 151//151 153//153 154//154
f 154//154 153//153 155//155
f 154//154 155//155 156//156
f 152//152 157//157 150//150
f 158//158 159//159 160//160
f 161//161 159//159 158//158
f 162//162 159//159 161//161
f 163//163 162//162 161//161
f 164//164 162//162 163//163
f 165//165 162//162 164//164
f 9//9 166//166 8//8
f 166//166 9//9 167//167
f 168//168 169//169 170//170
f 168//168 171//171 169//169
f 172//172 169//169 173//173
f 174//174 169//169 172//172
f 169//169 174//174 175//175
f 176//176 169//169 175//175
f 177//177 169//169 176//176
f 178//178 169//169 177//177
f 178//178 179//179 169//169
f 179//179 180//180 169//169
f 180//180 181//181 169//169
f 182//182 181//181 180//180
f 182//182 183//183 181//181
f 183//183 184//184 181//181
f 184//184 185//185 181//181
f 185//185 186//186 181//181
f 186//186 187//187 181//181
f 187//187 188//188 181//181
f 188//188 189//189 181//181
f 181//181 189//189 190//190
f 181//181 190//190 191//191
f 192//192 181//181 191//191
f 193//193 181//181 192//192
f 194//194 181//181 193//193
f 195//195 181//181 194//194
f 195//195 196//196 181//181
f 196//196 197//197 198//198
f 196//196 198//198 199//199
f 199//199 200//200 196//196
f 196//196 200//200 201//201
f 201//201 202//202 196//196
f 196//196 202//202 203//203
f 196//196 203//203 204//204
f 205//205 196//196 206//206
f 207//207 196//196 205//205
