v -64.86836 -100.8658 83.50748
v -77.63815 -89.87529 83.50749
v -64.86836 -100.8658 83.50748
v -64.86836 -100.8658 83.50748
v -66.12377 -102.3245 80.49892
v -66.62593 -102.9079 79.29549
v -66.62593 -102.9079 79.29549
v -79.39571 -91.91739 79.29551
v -92.16549 -80.92686 79.29552
v -66.78436 -103.092 79.33878
v -93.59135 -82.58356 79.6851
v -66.80405 -103.1149 79.34415
v -93.76853 -82.78942 79.73351
v -66.80958 -103.1213 79.34566
v -93.81828 -82.84722 79.74711
v -66.8717 -103.1935 79.36264
v -94.37736 -83.4968 79.89986
v -67.63758 -104.0833 79.5719
v -94.46246 -83.59568 79.92312
v -68.36374 -104.927 79.77031
v -68.44727 -105.0241 79.79313
v -94.55242 -83.70021 79.94769
v -68.62151 -105.2266 79.84074
v -94.57178 -83.7227 79.95299
v -69.08356 -105.7634 79.96698
v -94.62312 -83.78236 79.96701
v -69.19247 -105.8899 79.85054
v -95.22283 -84.47915 79.32581
v -95.60331 -84.92123 78.91901
v -69.21949 -105.9213 79.82165
v -95.84651 -85.2038 78.65899
v -69.22754 -105.9307 79.81305
v -95.91889 -85.2879 78.5816
v -69.28831 -106.0013 79.74806
v -96.4659 -85.92347 77.99674
v -69.98561 -106.8115 79.00253
v -96.54338 -86.01349 77.91391
v -70.5617 -107.4808 78.38659
v -96.60739 -86.08786 77.84547
v -71.1311 -108.1424 77.77779
v -96.67066 -86.16137 77.77782
v -71.14462 -108.1581 77.66154
v -96.79231 -86.30272 76.73149
v -71.1749 -108.1933 77.40105
v -97.0649 -86.61942 74.38711
v -71.2594 -108.2915 76.67433
v -71.29319 -108.3307 76.38371
v -97.07803 -86.63469 74.27407
v -71.40841 -108.4646 75.39272
v -97.09084 -86.64957 74.16396
v -71.50328 -108.5749 74.57674
v -97.10138 -86.66181 74.0733
v -71.56914 -108.6514 74.01033
v -97.1087 -86.67031 74.01037
v -97.1087 -86.67031 74.01036
v -71.48426 -108.5527 73.82378
v -96.34483 -85.78278 72.33142
v -71.45928 -108.5237 73.76888
v -96.11999 -85.52154 71.83724
v -71.45673 -108.5208 73.76327
v -96.09703 -85.49487 71.78679
v -71.45555 -108.5194 73.76067
v -96.0864 -85.48251 71.7634
v -71.45406 -108.5177 73.75739
v -96.07294 -85.46687 71.73383
v -71.42633 -108.4854 73.69645
v -95.82343 -85.17698 71.18543
v -70.14107 -106.9921 70.87152
v -95.68063 -85.01105 70.87155
v -70.14107 -106.9921 70.87152
v -95.68063 -85.01105 70.87155
v -70.14107 -106.9921 70.87152
v -70.14107 -106.9921 70.87152
v -70.64323 -107.5756 69.6681
v -71.89864 -109.0342 66.65953
v -71.89864 -109.0342 66.65953
v -71.89864 -109.0342 66.65954
v -70.14107 -106.9921 70.87152
v -70.14107 -106.9921 70.87152
v -70.14107 -106.9921 70.87152
v -95.68063 -85.01105 70.87155
v -95.68063 -85.01105 70.87155
v -95.68063 -85.01105 70.87155
v -70.14107 -106.9921 70.87152
v -74.75478 -112.3527 72.93716
v -70.14107 -106.9921 70.87152
v -95.68063 -85.01105 70.87155
v -70.14107 -106.9921 70.87152
v -82.91085 -96.00157 70.87154
v -95.68063 -85.01105 70.87155
v -84.66842 -98.04367 66.65955
v -95.68062 -85.01106 70.87155
v -95.68063 -85.01105 70.87155
v -96.18279 -85.59451 69.66813
v -100.2943 -90.37167 72.93719
v -95.68063 -85.01105 70.87155
v -74.75478 -112.3527 72.93716
v -97.43819 -87.05315 66.65957
v -100.2943 -90.37167 72.93719
v -97.1087 -86.67031 74.01036
v -97.1087 -86.67031 74.01037
v -77.63815 -89.87529 83.50749
v -64.86836 -100.8658 83.50748
v -64.86836 -100.8658 83.50748
v -66.12377 -102.3245 80.49892
v -79.39571 -91.91739 79.29551
v -66.62593 -102.9079 79.29549
v -91.43748 -80.08099 81.04018
v -90.40792 -78.88477 83.50751
v -92.16549 -80.92686 79.29552
v -64.86836 -100.8658 83.50748
v -69.78362 -106.5768 84.85046
v -73.87871 -111.3348 80.47208
v -69.08356 -105.7634 79.96698
v -68.62151 -105.2266 79.84074
v -68.44727 -105.0241 79.79313
v -68.36374 -104.927 79.77031
v -67.63758 -104.0833 79.5719
v -66.8717 -103.1935 79.36264
v -66.80958 -103.1213 79.34566
v -66.80405 -103.1149 79.34415
v -66.78436 -103.092 79.33878
v -66.62593 -102.9079 79.29549
v -69.19247 -105.8899 79.85054
v -69.21949 -105.9213 79.82165
v -69.22754 -105.9307 79.81305
v -69.28831 -106.0013 79.74806
v -69.98561 -106.8115 79.00253
v -70.5617 -107.4808 78.38659
v -71.1311 -108.1424 77.77779
v -71.14462 -108.1581 77.66154
v -71.1749 -108.1933 77.40105
v -71.2594 -108.2915 76.67433
v -74.75478 -112.3527 72.93716
v -71.29319 -108.3307 76.38371
v -71.40841 -108.4646 75.39272
v -71.50328 -108.5749 74.57674
v -71.56914 -108.6514 74.01033
v -71.48426 -108.5527 73.82378
v -71.45928 -108.5237 73.76888
v -71.45673 -108.5208 73.76327
v -71.45555 -108.5194 73.76067
v -71.45406 -108.5177 73.75739
v -71.42633 -108.4854 73.69645
v -70.14107 -106.9921 70.87152
v -70.14107 -106.9921 70.87152
v -70.14107 -106.9921 70.87152
v -71.89864 -109.0342 66.65953
v -64.86836 -100.8658 83.50748
v -95.32318 -84.59576 84.85049
v -69.78362 -106.5768 84.85046
v -77.63815 -89.87529 83.50749
v -99.41826 -89.35378 80.47211
v -73.87871 -111.3348 80.47208
v -100.2943 -90.37167 72.93719
v -74.75478 -112.3527 72.93716
v -90.40792 -78.88477 83.50751
v -71.89864 -109.0342 66.65954
v -82.91085 -96.00157 70.87154
v -70.14107 -106.9921 70.87152
v -84.66842 -98.04367 66.65955
v -95.68062 -85.01106 70.87155
v -97.43819 -87.05315 66.65957
v -96.18279 -85.59451 69.66813
v -95.68063 -85.01105 70.87155
v -92.16549 -80.92686 79.29552
v -95.32318 -84.59576 84.85049
v -91.43748 -80.08099 81.04018
v -95.32318 -84.59576 84.85049
v -90.40792 -78.88477 83.50751
v -92.16549 -80.92686 79.29552
v -93.59135 -82.58356 79.6851
v -92.16549 -80.92686 79.29552
v -93.76853 -82.78942 79.73351
v -93.81828 -82.84722 79.74711
v -94.37736 -83.4968 79.89986
v -94.46246 -83.59568 79.92312
v -94.55242 -83.70021 79.94769
v -94.57178 -83.7227 79.95299
v -94.62312 -83.78236 79.96701
v -99.41826 -89.35378 80.47211
v -95.22283 -84.47915 79.32581
v -95.60331 -84.92123 78.91901
v -95.84651 -85.2038 78.65899
v -95.91889 -85.2879 78.5816
v -96.4659 -85.92347 77.99674
v -96.54338 -86.01349 77.91391
v -96.60739 -86.08786 77.84547
v -96.67066 -86.16137 77.77782
v -96.79231 -86.30272 76.73149
v -97.0649 -86.61942 74.38711
v -97.07803 -86.63469 74.27407
v -97.09084 -86.64957 74.16396
v -97.10138 -86.66181 74.0733
v -97.1087 -86.67031 74.01037
v -100.2943 -90.37167 72.93719
v -97.1087 -86.67031 74.01036
v -96.34483 -85.78278 72.33142
v -96.11999 -85.52154 71.83724
v -96.09703 -85.49487 71.78679
v -96.0864 -85.48251 71.7634
v -96.07294 -85.46687 71.73383
v -95.82343 -85.17698 71.18543
v -95.68063 -85.01105 70.87155
v -96.18279 -85.59451 69.66813
v -95.68063 -85.01105 70.87155
v -97.43819 -87.05315 66.65957

vn 0.3515138 0.4084185 0.8423968
vn 0.3515137 0.4084186 0.8423968
vn 0.7601466 -0.1144359 0.6395948
vn 0.7579352 -0.6523298 -7.5344E-07
vn 0.7579352 -0.6523298 -7.5344E-07
vn -0.1144607 -0.1329894 -0.9844859
vn -0.2407926 -0.4965672 -0.8339305
vn 0.4502357 0.5231254 -0.7236211
vn -0.1144639 -0.1329927 -0.9844851
vn -0.1144644 -0.1329934 -0.984485
vn -0.1144642 -0.1329931 -0.984485
vn -0.1144636 -0.1329923 -0.9844852
vn -0.1144629 -0.1329914 -0.9844853
vn -0.1144662 -0.1329962 -0.9844844
vn -0.1144647 -0.1329939 -0.9844849
vn -0.1144644 -0.1329935 -0.9844849
vn -0.1144645 -0.1329936 -0.984485
vn -0.1144645 -0.1329937 -0.9844849
vn -0.1144643 -0.1329934 -0.984485
vn -0.1144646 -0.1329937 -0.9844849
vn -0.1144638 -0.1329928 -0.9844851
vn -0.1144628 -0.1329916 -0.9844853
vn -0.1144641 -0.1329933 -0.984485
vn -0.1144647 -0.132994 -0.9844849
vn -0.01628877 -0.0189243 -0.9996883
vn 0.3509764 0.4077972 -0.8429217
vn 0.3731731 0.4335873 -0.8202097
vn 0.3731726 0.4335867 -0.8202101
vn 0.3731725 0.4335866 -0.8202103
vn 0.3731715 0.4335852 -0.8202116
vn 0.3731709 0.4335843 -0.8202122
vn 0.3731701 0.4335831 -0.8202132
vn 0.3731714 0.433585 -0.8202116
vn 0.3731719 0.4335859 -0.8202109
vn 0.3731722 0.4335863 -0.8202106
vn 0.3731722 0.4335864 -0.8202105
vn 0.3731716 0.4335856 -0.8202112
vn 0.373172 0.4335861 -0.8202109
vn 0.3731726 0.4335868 -0.8202101
vn 0.4075792 0.4735634 -0.7807797
vn 0.6332574 0.7357757 -0.2400402
vn 0.6422086 0.7461758 -0.1754699
vn 0.6422087 0.7461761 -0.1754688
vn 0.6422088 0.7461762 -0.1754681
vn 0.6422088 0.7461761 -0.1754681
vn 0.6422087 0.746176 -0.1754686
vn 0.6422087 0.7461759 -0.1754691
vn 0.6422088 0.7461761 -0.1754687
vn 0.6422088 0.746176 -0.175469
vn 0.6422088 0.7461759 -0.1754687
vn 0.6422088 0.7461761 -0.1754687
vn 0.6422087 0.7461759 -0.1754691
vn 0.6521723 0.7577521 0.02198009
vn 0.6422061 0.7461728 -0.1754921
vn 0.5350486 0.6216666 0.5720608
vn 0.5350481 0.621666 0.5720618
vn 0.5350479 0.621666 0.5720623
vn 0.5350474 0.6216654 0.5720631
vn 0.5350483 0.6216663 0.5720615
vn 0.5350492 0.6216668 0.5720602
vn 0.5350503 0.6216677 0.5720579
vn 0.5350715 0.6216837 0.5720208
vn 0.5350582 0.6216738 0.5720441
vn 0.535045 0.6216636 0.5720675
vn 0.5350469 0.6216651 0.5720642
vn 0.5350481 0.6216661 0.5720617
vn 0.5350484 0.6216663 0.5720612
vn 0.5350485 0.6216665 0.572061
vn 0.5350503 0.6216687 0.5720569
vn 0.5900002 0.6855146 0.4265788
vn 0.3515136 0.4084187 0.8423968
vn 0.3515136 0.4084187 0.8423968
vn 0.3515136 0.4084187 0.8423968
vn 0.7579352 -0.6523298 -7.5344E-07
vn -0.5350484 -0.6216661 -0.5720615
vn 0.7579352 -0.6523298 -7.5344E-07
vn 0.4991769 0.5799895 -0.643766
vn 0.8046235 -0.2307734 0.5471057
vn 0.8242454 -0.3088855 0.4745622
vn 0.4044758 0.3610392 0.8402678
vn 0.3515136 0.4084187 0.8423968
vn 0.3515136 0.4084187 0.8423968
vn 0.3515136 0.4084187 0.8423968
vn 0.4277132 0.3390546 0.837916
vn 0.7579352 -0.6523298 -7.5344E-07
vn 0.3610864 0.4001291 0.8423261
vn 0.3515136 0.4084187 0.8423968
vn 0.4551689 0.3120606 0.8339301
vn 0.3515099 0.4084145 0.8424004
vn 0.3053682 0.4468449 0.8408804
vn -0.5350483 -0.6216661 -0.5720615
vn 0.3515006 0.4084036 0.8424095
vn -0.7579328 0.6523326 6.601995E-06
vn -0.7579352 0.6523298 7.5344E-07
vn -0.7579355 0.6523295 9.860021E-07
vn 0 0 0
vn -0.5350484 -0.6216662 -0.5720615
vn -0.5350483 -0.6216662 -0.5720615
vn -0.5350484 -0.6216663 -0.5720615
vn -0.7579355 0.6523295 9.860021E-07
vn -0.7579355 0.6523295 9.860021E-07
vn 0.5495201 0.6384826 -0.5388577
vn 0.5495201 0.6384826 -0.5388577
vn 0.5495201 0.6384826 -0.5388577
vn 0.5495201 0.6384826 -0.5388577
vn 0.5495201 0.6384826 -0.5388577
vn 0.5495201 0.6384826 -0.5388577
vn 0.5495201 0.6384826 -0.5388577
vn 0.5495201 0.6384826 -0.5388577
vn 0.5495201 0.6384826 -0.5388577
vn 0.7579352 -0.6523298 -7.5344E-07
vn 0.7579352 -0.6523298 -7.5344E-07
vn 0.7579352 -0.6523298 -7.5344E-07
vn 0.7579352 -0.6523298 -7.5344E-07
vn 0.7579352 -0.6523298 -7.5344E-07
vn 0.7579352 -0.6523298 -7.5344E-07
vn 0.7579352 -0.6523298 -7.5344E-07
vn 0.7579352 -0.6523298 -7.5344E-07
vn 0.7579352 -0.6523298 -7.5344E-07
vn 0.7579352 -0.6523298 -7.5344E-07
vn 0.7579352 -0.6523298 -7.5344E-07
vn 0.7579352 -0.6523298 -7.5344E-07
vn 0.7579352 -0.6523298 -7.5344E-07
vn 0.7579352 -0.6523297 -7.534399E-07
vn 0.7579352 -0.6523298 -7.5344E-07
vn 0.7579352 -0.6523298 -7.5344E-07
vn 0.7579352 -0.6523297 -7.534399E-07
vn 0.7579352 -0.6523298 -7.5344E-07
vn 0.7579352 -0.6523298 -7.5344E-07
vn 0.7579352 -0.6523298 -7.5344E-07
vn 0.7579352 -0.6523297 -7.534399E-07
vn 0.7579352 -0.6523298 -7.5344E-07
vn 0.7579352 -0.6523298 -7.5344E-07
vn 0.7579352 -0.6523298 -7.5344E-07
vn 0.7579352 -0.6523298 -7.5344E-07
vn 0.7579352 -0.6523298 -7.5344E-07
vn 0.7579352 -0.6523298 -7.5344E-07
vn 0.7579352 -0.6523298 -7.5344E-07
vn 0.7579352 -0.6523298 -7.5344E-07
vn 0.7579352 -0.6523298 -7.5344E-07
vn 0.7579352 -0.6523298 -7.5344E-07
vn 0.7579352 -0.6523297 -7.534399E-07
vn 0.7579352 -0.6523298 -7.5344E-07
vn 0.7579352 -0.6523297 -7.534399E-07
vn 0.7579352 -0.6523297 -7.534399E-07
vn 0.7579352 -0.6523298 -7.5344E-07
vn 0.7579352 -0.6523297 -7.534399E-07
vn 0.7579352 -0.6523297 -7.534399E-07
vn 0.1144642 0.1329931 0.9844851
vn -0.0515537 -0.05990137 0.9968721
vn -0.2258382 -0.2624006 0.9381593
vn 0.1144641 0.132993 0.9844849
vn -0.4962781 -0.5766215 0.6490114
vn -0.5924337 -0.6883432 0.4185761
vn -0.6422088 -0.746176 0.1754685
vn -0.6422088 -0.746176 0.1754686
vn 0.1144642 0.1329932 0.984485
vn 0.5495201 0.6384826 -0.5388577
vn 0.5495201 0.6384826 -0.5388577
vn 0.5495201 0.6384826 -0.5388577
vn 0.5495201 0.6384826 -0.5388577
vn 0.5495201 0.6384826 -0.5388577
vn 0.5495201 0.6384826 -0.5388577
vn 0.5495201 0.6384826 -0.5388577
vn 0.5495201 0.6384826 -0.5388577
vn -0.4979205 -0.2676371 -0.8248912
vn -0.757935 0.6523301 1.374083E-06
vn -0.7579353 0.6523296 8.69721E-07
vn -0.7579353 0.6523297 9.733641E-07
vn -0.7579353 0.6523296 8.69721E-07
vn -0.7579353 0.6523296 8.69721E-07
vn -0.7579352 0.6523298 1.078635E-06
vn -0.7579352 0.6523298 1.078635E-06
vn -0.7579352 0.6523298 1.078634E-06
vn -0.7579352 0.6523298 1.078635E-06
vn -0.7579352 0.6523298 1.078635E-06
vn -0.7579352 0.6523298 1.078635E-06
vn -0.7579352 0.6523298 1.078634E-06
vn -0.7579352 0.6523298 1.078635E-06
vn -0.7579353 0.6523296 1.024862E-06
vn -0.7579354 0.6523296 9.178863E-07
vn -0.7579353 0.6523296 1.024371E-06
vn -0.7579353 0.6523296 1.024372E-06
vn -0.7579353 0.6523296 1.024373E-06
vn -0.7579353 0.6523296 1.024372E-06
vn -0.7579353 0.6523296 1.024372E-06
vn -0.7579353 0.6523296 1.024372E-06
vn -0.7579353 0.6523296 1.024371E-06
vn -0.7579355 0.6523296 8.327229E-07
vn -0.7579355 0.6523295 8.114007E-07
vn -0.7579355 0.6523295 8.114005E-07
vn -0.7579355 0.6523295 8.114009E-07
vn -0.7579355 0.6523295 8.114001E-07
vn -0.7579355 0.6523295 8.114005E-07
vn -0.7579355 0.6523295 8.114007E-07
vn -0.7579354 0.6523296 7.85344E-07
vn -0.7579354 0.6523296 5.644767E-07
vn -0.7579354 0.6523296 5.644765E-07
vn -0.7579354 0.6523296 5.644761E-07
vn -0.7579354 0.6523296 5.644833E-07
vn -0.7579354 0.6523296 5.644753E-07
vn -0.7579354 0.6523296 5.644759E-07
vn -0.7579354 0.6523296 5.644774E-07
vn -0.7579354 0.6523295 5.644785E-07
vn -0.7579353 0.6523296 8.69721E-07
vn -0.7579353 0.6523296 8.69721E-07
vn -0.7579353 0.6523296 8.69721E-07

f 1//1 2//2 3//3
f 4//4 1//1 3//3
f 3//3 5//5 4//4
f 3//3 6//6 5//5
f 5//5 6//6 7//7
f 8//8 7//7 6//6
f 9//9 8//8 6//6
f 10//10 9//9 6//6
f 9//9 10//10 11//11
f 11//11 10//10 12//12
f 13//13 11//11 12//12
f 13//13 12//12 14//14
f 13//13 14//14 15//15
f 15//15 14//14 16//16
f 15//15 16//16 17//17
f 18//18 17//17 16//16
f 19//19 17//17 18//18
f 19//19 18//18 20//20
f 21//21 19//19 20//20
f 22//22 19//19 21//21
f 22//22 21//21 23//23
f 24//24 22//22 23//23
f 24//24 23//23 25//25
f 26//26 24//24 25//25
f 26//26 25//25 27//27
f 28//28 26//26 27//27
f 28//28 27//27 29//29
f 29//29 27//27 30//30
f 31//31 29//29 30//30
f 31//31 30//30 32//32
f 33//33 31//31 32//32
f 33//33 32//32 34//34
f 35//35 33//33 34//34
f 35//35 34//34 36//36
f 37//37 35//35 36//36
f 37//37 36//36 38//38
f 39//39 37//37 38//38
f 39//39 38//38 40//40
f 41//41 39//39 40//40
f 41//41 40//40 42//42
f 41//41 42//42 43//43
f 43//43 42//42 44//44
f 45//45 43//43 44//44
f 45//45 44//44 46//46
f 47//47 45//45 46//46
f 48//48 45//45 47//47
f 48//48 47//47 49//49
f 50//50 48//48 49//49
f 50//50 49//49 51//51
f 52//52 50//50 51//51
f 52//52 51//51 53//53
f 54//54 52//52 53//53
f 55//55 54//54 53//53
f 55//55 53//53 56//56
f 55//55 56//56 57//57
f 57//57 56//56 58//58
f 57//57 58//58 59//59
f 59//59 58//58 60//60
f 59//59 60//60 61//61
f 61//61 60//60 62//62
f 61//61 62//62 63//63
f 63//63 62//62 64//64
f 63//63 64//64 65//65
f 65//65 64//64 66//66
f 65//65 66//66 67//67
f 68//68 67//67 66//66
f 69//69 67//67 68//68
f 69//69 68//68 70//70
f 71//71 69//69 70//70
f 72//72 71//71 73//73
f 74//74 75//75 76//76
f 77//77 74//74 76//76
f 75//75 77//77 76//76
f 78//78 75//75 74//74
f 79//79 75//75 78//78
f 78//78 74//74 80//80
f 81//81 78//78 80//80
f 82//82 78//78 81//81
f 82//82 83//83 78//78
f 83//83 84//84 79//79
f 84//84 85//85 79//79
f 80//80 74//74 86//86
f 87//87 80//80 86//86
f 81//81 80//80 87//87
f 86//86 74//74 88//88
f 88//88 74//74 77//77
f 86//86 88//88 89//89
f 90//90 86//86 89//89
f 87//87 86//86 90//90
f 75//75 91//91 77//77
f 90//90 89//89 92//92
f 90//90 92//92 93//93
f 94//94 90//90 93//93
f 95//95 83//83 82//82
f 95//95 82//82 81//81
f 95//95 81//81 87//87
f 95//95 87//87 90//90
f 95//95 96//96 83//83
f 97//97 91//91 75//75
f 97//97 98//98 91//91
f 97//97 99//99 98//98
f 100//100 95//95 101//101
f 102//102 103//103 104//104
f 102//102 104//104 105//105
f 102//102 105//105 106//106
f 106//106 105//105 107//107
f 108//108 102//102 106//106
f 109//109 102//102 108//108
f 110//110 108//108 106//106
f 111//111 112//112 113//113
f 111//111 113//113 114//114
f 111//111 114//114 115//115
f 111//111 115//115 116//116
f 111//111 116//116 117//117
f 117//117 118//118 111//111
f 118//118 119//119 111//111
f 120//120 111//111 119//119
f 120//120 121//121 111//111
f 121//121 122//122 111//111
f 111//111 122//122 123//123
f 114//114 113//113 124//124
f 124//124 113//113 125//125
f 125//125 113//113 126//126
f 126//126 113//113 127//127
f 127//127 113//113 128//128
f 128//128 113//113 129//129
f 129//129 113//113 130//130
f 130//130 113//113 131//131
f 131//131 113//113 132//132
f 132//132 113//113 133//133
f 133//133 113//113 134//134
f 133//133 134//134 135//135
f 135//135 134//134 136//136
f 134//134 137//137 136//136
f 137//137 134//134 138//138
f 138//138 134//134 139//139
f 139//139 134//134 140//140
f 140//140 134//134 141//141
f 134//134 142//142 141//141
f 134//134 143//143 142//142
f 134//134 144//144 143//143
f 144//144 134//134 145//145
f 145//145 134//134 146//146
f 147//147 134//134 148//148
f 149//149 150//150 151//151
f 149//149 152//152 150//150
f 151//151 150//150 153//153
f 151//151 153//153 154//154
f 154//154 153//153 155//155
f 154//154 155//155 156//156
f 152//152 157//157 150//150
f 158//158 159//159 160//160
f 161//161 159//159 158//158
f 162//162 159//159 161//161
f 163//163 162//162 161//161
f 164//164 162//162 163//163
f 165//165 162//162 164//164
f 9//9 166//166 8//8
f 166//166 9//9 167//167
f 168//168 169//169 170//170
f 168//168 171//171 169//169
f 172//172 169//169 173//173
f 174//174 169//169 172//172
f 169//169 174//174 175//175
f 176//176 169//169 175//175
f 177//177 169//169 176//176
f 178//178 169//169 177//177
f 178//178 179//179 169//169
f 179//179 180//180 169//169
f 180//180 181//181 169//169
f 182//182 181//181 180//180
f 182//182 183//183 181//181
f 183//183 184//184 181//181
f 184//184 185//185 181//181
f 185//185 186//186 181//181
f 186//186 187//187 181//181
f 187//187 188//188 181//181
f 188//188 189//189 181//181
f 181//181 189//189 190//190
f 181//181 190//190 191//191
f 192//192 181//181 191//191
f 193//193 181//181 192//192
f 194//194 181//181 193//193
f 195//195 181//181 194//194
f 195//195 196//196 181//181
f 196//196 197//197 198//198
f 196//196 198//198 199//199
f 199//199 200//200 196//196
f 196//196 200//200 201//201
f 201//201 202//202 196//196
f 196//196 202//202 203//203
f 196//196 203//203 204//204
f 205//205 196//196 206//206
f 207//207 196//196 205//205
