v 56.19914 -91.6308 -97.52277
v 73.52343 -87.54109 -86.52147
v 56.19914 -91.6308 -97.52277
v 56.19914 -91.6308 -97.52277
v 56.77199 -88.71764 -99.50782
v 57.00113 -87.55237 -100.3018
v 57.00113 -87.55237 -100.3018
v 74.32542 -83.46266 -89.30054
v 91.6497 -79.37296 -78.29924
v 56.89378 -87.35126 -100.2076
v 90.68353 -77.56305 -77.45058
v 56.88044 -87.32628 -100.1958
v 90.56347 -77.33814 -77.34512
v 56.87669 -87.31926 -100.1925
v 90.52976 -77.275 -77.31551
v 56.8346 -87.24041 -100.1556
v 90.15092 -76.56534 -76.98276
v 56.31563 -86.26823 -99.69972
v 90.09326 -76.45732 -76.93211
v 55.82358 -85.34649 -99.26752
v 55.76697 -85.24046 -99.2178
v 90.0323 -76.34312 -76.87856
v 55.64891 -85.01929 -99.1141
v 90.01918 -76.31855 -76.86704
v 55.33582 -84.43279 -98.83909
v 89.98439 -76.25338 -76.83649
v 55.32412 -84.23698 -98.89346
v 89.91996 -75.17516 -77.13583
v 89.87907 -74.4911 -77.32576
v 55.32121 -84.18839 -98.90694
v 89.85294 -74.05385 -77.44716
v 55.32035 -84.17393 -98.91096
v 89.84517 -73.92372 -77.48328
v 55.31382 -84.06466 -98.94129
v 89.78639 -72.94025 -77.75633
v 55.2389 -82.81099 -99.28936
v 89.77807 -72.80095 -77.79501
v 55.177 -81.77525 -99.57692
v 89.77119 -72.68587 -77.82696
v 55.11582 -80.75153 -99.86115
v 89.76439 -72.57212 -77.85854
v 55.15761 -80.68714 -99.95088
v 90.14049 -71.99263 -78.66621
v 55.25124 -80.54288 -100.152
v 90.98315 -70.69426 -80.47588
v 55.51245 -80.1404 -100.7129
v 55.61691 -79.97945 -100.9373
v 91.02379 -70.63165 -80.56313
v 55.97311 -79.43061 -101.7022
v 91.06336 -70.57067 -80.64812
v 56.26641 -78.97871 -102.3321
v 91.09595 -70.52046 -80.71811
v 56.47 -78.66502 -102.7693
v 91.11858 -70.4856 -80.76669
v 91.11858 -70.4856 -80.76669
v 56.59689 -78.70843 -102.953
v 92.26064 -70.87634 -82.4199
v 56.63425 -78.72121 -103.007
v 92.59679 -70.99136 -82.90649
v 56.63806 -78.72251 -103.0126
v 92.6311 -71.0031 -82.95618
v 56.63982 -78.72312 -103.0151
v 92.64702 -71.00854 -82.97921
v 56.64206 -78.72388 -103.0184
v 92.66713 -71.01542 -83.00832
v 56.68351 -78.73806 -103.0784
v 93.04017 -71.14305 -83.54831
v 58.6051 -79.39551 -105.86
v 93.25368 -71.21609 -83.85738
v 58.6051 -79.39551 -105.86
v 93.25368 -71.21609 -83.85738
v 58.6051 -79.39551 -105.86
v 58.6051 -79.39551 -105.86
v 58.83424 -78.23024 -106.654
v 59.40709 -75.31708 -108.6391
v 59.40709 -75.31708 -108.6391
v 59.40709 -75.31708 -108.6391
v 58.6051 -79.39551 -105.86
v 58.6051 -79.39551 -105.86
v 58.6051 -79.39551 -105.86
v 93.25368 -71.21609 -83.85738
v 93.25368 -71.21609 -83.85738
v 93.25368 -71.21609 -83.85738
v 58.6051 -79.39551 -105.86
v 55.13688 -73.85609 -102.4577
v 58.6051 -79.39551 -105.86
v 93.25368 -71.21609 -83.85738
v 58.6051 -79.39551 -105.86
v 75.92939 -75.3058 -94.85869
v 93.25368 -71.21609 -83.85738
v 76.73138 -71.22737 -97.63776
v 93.25366 -71.2161 -83.85739
v 93.25368 -71.21609 -83.85738
v 93.48282 -70.05083 -84.65141
v 89.78545 -65.67668 -80.45506
v 93.25368 -71.21609 -83.85738
v 55.13688 -73.85609 -102.4577
v 94.05566 -67.13766 -86.63646
v 89.78545 -65.67668 -80.45506
v 91.11858 -70.4856 -80.76669
v 91.11858 -70.4856 -80.76669
v 73.52343 -87.54109 -86.52147
v 56.19914 -91.6308 -97.52277
v 56.19914 -91.6308 -97.52277
v 56.77199 -88.71764 -99.50782
v 74.32542 -83.46266 -89.30054
v 57.00113 -87.55237 -100.3018
v 91.31751 -81.0623 -77.14811
v 90.84772 -83.45139 -75.52016
v 91.6497 -79.37296 -78.29924
v 56.19914 -91.6308 -97.52277
v 52.86852 -85.39164 -94.59727
v 52.42852 -78.02911 -96.64137
v 55.33582 -84.43279 -98.83909
v 55.64891 -85.01929 -99.1141
v 55.76697 -85.24046 -99.2178
v 55.82358 -85.34649 -99.26752
v 56.31563 -86.26823 -99.69972
v 56.8346 -87.24041 -100.1556
v 56.87669 -87.31926 -100.1925
v 56.88044 -87.32628 -100.1958
v 56.89378 -87.35126 -100.2076
v 57.00113 -87.55237 -100.3018
v 55.32412 -84.23698 -98.89346
v 55.32121 -84.18839 -98.90694
v 55.32035 -84.17393 -98.91096
v 55.31382 -84.06466 -98.94129
v 55.2389 -82.81099 -99.28936
v 55.177 -81.77525 -99.57692
v 55.11582 -80.75153 -99.86115
v 55.15761 -80.68714 -99.95088
v 55.25124 -80.54288 -100.152
v 55.51245 -80.1404 -100.7129
v 55.13688 -73.85609 -102.4577
v 55.61691 -79.97945 -100.9373
v 55.97311 -79.43061 -101.7022
v 56.26641 -78.97871 -102.3321
v 56.47 -78.66502 -102.7693
v 56.59689 -78.70843 -102.953
v 56.63425 -78.72121 -103.007
v 56.63806 -78.72251 -103.0126
v 56.63982 -78.72312 -103.0151
v 56.64206 -78.72388 -103.0184
v 56.68351 -78.73806 -103.0784
v 58.6051 -79.39551 -105.86
v 58.6051 -79.39551 -105.86
v 58.6051 -79.39551 -105.86
v 59.40709 -75.31708 -108.6391
v 56.19914 -91.6308 -97.52277
v 87.5171 -77.21223 -72.59466
v 52.86852 -85.39164 -94.59727
v 73.52343 -87.54109 -86.52147
v 87.07709 -69.84971 -74.63876
v 52.42852 -78.02911 -96.64137
v 89.78545 -65.67668 -80.45506
v 55.13688 -73.85609 -102.4577
v 90.84772 -83.45139 -75.52016
v 59.40709 -75.31708 -108.6391
v 75.92939 -75.3058 -94.85869
v 58.6051 -79.39551 -105.86
v 76.73138 -71.22737 -97.63776
v 93.25366 -71.2161 -83.85739
v 94.05566 -67.13766 -86.63646
v 93.48282 -70.05083 -84.65141
v 93.25368 -71.21609 -83.85738
v 91.6497 -79.37296 -78.29924
v 87.5171 -77.21223 -72.59466
v 91.31751 -81.0623 -77.14811
v 87.5171 -77.21223 -72.59466
v 90.84772 -83.45139 -75.52016
v 91.6497 -79.37296 -78.29924
v 90.68353 -77.56305 -77.45058
v 91.6497 -79.37296 -78.29924
v 90.56347 -77.33814 -77.34512
v 90.52976 -77.275 -77.31551
v 90.15092 -76.56534 -76.98276
v 90.09326 -76.45732 -76.93211
v 90.0323 -76.34312 -76.87856
v 90.01918 -76.31855 -76.86704
v 89.98439 -76.25338 -76.83649
v 87.07709 -69.84971 -74.63876
v 89.91996 -75.17516 -77.13583
v 89.87907 -74.4911 -77.32576
v 89.85294 -74.05385 -77.44716
v 89.84517 -73.92372 -77.48328
v 89.78639 -72.94025 -77.75633
v 89.77807 -72.80095 -77.79501
v 89.77119 -72.68587 -77.82696
v 89.76439 -72.57212 -77.85854
v 90.14049 -71.99263 -78.66621
v 90.98315 -70.69426 -80.47588
v 91.02379 -70.63165 -80.56313
v 91.06336 -70.57067 -80.64812
v 91.09595 -70.52046 -80.71811
v 91.11858 -70.4856 -80.76669
v 89.78545 -65.67668 -80.45506
v 91.11858 -70.4856 -80.76669
v 92.26064 -70.87634 -82.4199
v 92.59679 -70.99136 -82.90649
v 92.6311 -71.0031 -82.95618
v 92.64702 -71.00854 -82.97921
v 92.66713 -71.01542 -83.00832
v 93.04017 -71.14305 -83.54831
v 93.25368 -71.21609 -83.85738
v 93.48282 -70.05083 -84.65141
v 93.25368 -71.21609 -83.85738
v 94.05566 -67.13766 -86.63646

vn -0.1603975 -0.8156859 0.555814
vn -0.1603974 -0.8156858 0.5558141
vn -0.6605694 -0.746505 0.07986428
vn -0.827895 -0.1954393 -0.5257313
vn -0.827895 -0.1954393 -0.5257313
vn 0.3538666 0.5452273 -0.7599379
vn 0.04170333 0.7798486 -0.6245776
vn 0.5601804 -0.3350274 -0.7575978
vn 0.3538648 0.545231 -0.759936
vn 0.3538644 0.5452318 -0.7599357
vn 0.3538646 0.5452315 -0.7599358
vn 0.3538651 0.5452307 -0.7599362
vn 0.3538656 0.5452298 -0.7599365
vn 0.3538626 0.5452344 -0.7599347
vn 0.3538641 0.5452322 -0.7599356
vn 0.3538643 0.5452318 -0.7599357
vn 0.3538643 0.545232 -0.7599357
vn 0.3538642 0.545232 -0.7599356
vn 0.3538643 0.5452318 -0.7599357
vn 0.3538642 0.5452321 -0.7599356
vn 0.3538647 0.5452311 -0.7599361
vn 0.3538654 0.5452298 -0.7599366
vn 0.3538644 0.5452315 -0.7599358
vn 0.353864 0.5452323 -0.7599356
vn 0.4154532 0.4160376 -0.8088952
vn 0.5551112 -0.1513826 -0.8178844
vn 0.5579295 -0.1908881 -0.8076364
vn 0.5579293 -0.1908873 -0.8076365
vn 0.5579293 -0.190887 -0.8076367
vn 0.5579292 -0.1908851 -0.8076374
vn 0.557929 -0.1908838 -0.8076377
vn 0.5579287 -0.1908822 -0.8076382
vn 0.5579291 -0.1908849 -0.8076374
vn 0.5579292 -0.190886 -0.8076369
vn 0.5579294 -0.1908866 -0.8076368
vn 0.5579294 -0.1908866 -0.8076367
vn 0.5579292 -0.1908855 -0.807637
vn 0.5579293 -0.1908862 -0.8076369
vn 0.5579295 -0.1908873 -0.8076366
vn 0.5605034 -0.2537875 -0.788307
vn 0.4575657 -0.7774355 -0.4315412
vn 0.4351671 -0.815184 -0.3822363
vn 0.4351668 -0.8151847 -0.3822355
vn 0.4351666 -0.815185 -0.382235
vn 0.4351665 -0.815185 -0.382235
vn 0.4351667 -0.8151847 -0.3822353
vn 0.4351668 -0.8151845 -0.3822358
vn 0.4351667 -0.8151847 -0.3822354
vn 0.4351668 -0.8151846 -0.3822357
vn 0.4351666 -0.8151847 -0.3822354
vn 0.4351667 -0.8151848 -0.3822355
vn 0.4351668 -0.8151844 -0.3822358
vn 0.3568988 -0.9066455 -0.2249829
vn 0.435175 -0.8151718 -0.3822535
vn 0.05748942 -0.9619596 0.2670744
vn 0.05748874 -0.9619593 0.2670754
vn 0.05748853 -0.9619593 0.2670758
vn 0.05748793 -0.9619589 0.2670768
vn 0.05748893 -0.9619595 0.2670751
vn 0.05748959 -0.9619599 0.2670737
vn 0.05749088 -0.9619603 0.2670712
vn 0.05751147 -0.9619701 0.2670318
vn 0.05749861 -0.961964 0.2670566
vn 0.05748548 -0.9619579 0.2670814
vn 0.05748745 -0.9619588 0.2670779
vn 0.05748878 -0.9619594 0.2670753
vn 0.0574891 -0.9619595 0.2670748
vn 0.05748925 -0.9619595 0.2670746
vn 0.05749211 -0.9619605 0.2670706
vn 0.1501391 -0.9803429 0.1280084
vn -0.1603972 -0.8156858 0.5558142
vn -0.1603972 -0.8156858 0.5558142
vn -0.1603972 -0.8156858 0.5558142
vn -0.827895 -0.1954393 -0.5257313
vn -0.05748878 0.9619595 -0.2670751
vn -0.827895 -0.1954393 -0.5257313
vn 0.5537468 -0.4338572 -0.7107267
vn -0.7336972 -0.6783689 -0.03878084
vn -0.7743824 -0.620991 -0.1212524
vn -0.218813 -0.8275102 0.5170569
vn -0.1603972 -0.8156858 0.5558142
vn -0.1603972 -0.8156858 0.5558142
vn -0.1603972 -0.8156858 0.5558142
vn -0.2448195 -0.831478 0.4987062
vn -0.827895 -0.1954393 -0.5257313
vn -0.1708651 -0.8180984 0.5491086
vn -0.1603972 -0.8156858 0.5558142
vn -0.2758672 -0.835127 0.4758784
vn -0.1604008 -0.8156822 0.5558185
vn -0.1104029 -0.8024763 0.5863814
vn -0.05748885 0.9619594 -0.2670751
vn -0.1604099 -0.8156729 0.5558295
vn 0.8278939 0.1954336 0.5257352
vn 0.827895 0.1954393 0.5257313
vn 0.8278947 0.1954395 0.5257316
vn 0 0 0
vn -0.0574889 0.9619595 -0.267075
vn -0.05748891 0.9619595 -0.2670751
vn -0.0574889 0.9619595 -0.2670751
vn 0.8278947 0.1954395 0.5257316
vn 0.8278947 0.1954395 0.5257316
vn 0.5374596 -0.5444817 -0.6439542
vn 0.5374596 -0.5444816 -0.6439541
vn 0.5374596 -0.5444817 -0.6439542
vn 0.5374596 -0.5444817 -0.6439542
vn 0.5374596 -0.5444817 -0.6439542
vn 0.5374596 -0.5444817 -0.6439542
vn 0.5374596 -0.5444817 -0.6439542
vn 0.5374596 -0.5444817 -0.6439542
vn 0.5374596 -0.5444817 -0.6439542
vn -0.827895 -0.1954393 -0.5257313
vn -0.827895 -0.1954393 -0.5257313
vn -0.827895 -0.1954393 -0.5257313
vn -0.827895 -0.1954393 -0.5257313
vn -0.827895 -0.1954393 -0.5257313
vn -0.827895 -0.1954393 -0.5257313
vn -0.827895 -0.1954393 -0.5257313
vn -0.827895 -0.1954393 -0.5257313
vn -0.827895 -0.1954393 -0.5257313
vn -0.827895 -0.1954393 -0.5257313
vn -0.827895 -0.1954393 -0.5257313
vn -0.827895 -0.1954393 -0.5257313
vn -0.827895 -0.1954393 -0.5257313
vn -0.8278949 -0.1954393 -0.5257313
vn -0.827895 -0.1954393 -0.5257313
vn -0.827895 -0.1954393 -0.5257313
vn -0.8278949 -0.1954393 -0.5257313
vn -0.827895 -0.1954393 -0.5257313
vn -0.827895 -0.1954393 -0.5257313
vn -0.827895 -0.1954393 -0.5257313
vn -0.8278949 -0.1954393 -0.5257313
vn -0.827895 -0.1954393 -0.5257313
vn -0.827895 -0.1954393 -0.5257313
vn -0.827895 -0.1954393 -0.5257313
vn -0.827895 -0.1954393 -0.5257313
vn -0.827895 -0.1954393 -0.5257313
vn -0.827895 -0.1954393 -0.5257313
vn -0.827895 -0.1954393 -0.5257313
vn -0.827895 -0.1954393 -0.5257313
vn -0.827895 -0.1954393 -0.5257313
vn -0.827895 -0.1954393 -0.5257313
vn -0.8278949 -0.1954393 -0.5257313
vn -0.827895 -0.1954393 -0.5257313
vn -0.8278949 -0.1954393 -0.5257313
vn -0.8278949 -0.1954393 -0.5257313
vn -0.827895 -0.1954393 -0.5257313
vn -0.8278949 -0.1954393 -0.5257313
vn -0.8278949 -0.1954393 -0.5257313
vn -0.3538646 -0.5452315 0.7599359
vn -0.4523549 -0.3215148 0.8318673
vn -0.525289 -0.05842134 0.848916
vn -0.3538646 -0.5452314 0.7599358
vn -0.5543469 0.4278006 0.7139232
vn -0.5104706 0.6509291 0.5618818
vn -0.4351666 0.8151848 0.3822353
vn -0.4351666 0.8151848 0.3822354
vn -0.3538645 -0.5452315 0.7599359
vn 0.5374596 -0.5444817 -0.6439542
vn 0.5374596 -0.5444817 -0.6439542
vn 0.5374596 -0.5444817 -0.6439542
vn 0.5374596 -0.5444817 -0.6439542
vn 0.5374596 -0.5444817 -0.6439542
vn 0.5374596 -0.5444817 -0.6439542
vn 0.5374596 -0.5444817 -0.6439542
vn 0.5374596 -0.5444816 -0.6439541
vn 0.3249637 0.8383711 -0.4376442
vn 0.8278949 0.1954387 0.5257317
vn 0.8278948 0.1954394 0.5257314
vn 0.8278949 0.1954393 0.5257316
vn 0.8278949 0.1954394 0.5257315
vn 0.8278949 0.1954394 0.5257315
vn 0.8278949 0.1954391 0.5257316
vn 0.8278949 0.1954391 0.5257316
vn 0.8278949 0.1954391 0.5257316
vn 0.8278949 0.1954391 0.5257316
vn 0.8278949 0.1954391 0.5257316
vn 0.8278948 0.1954391 0.5257316
vn 0.8278949 0.1954391 0.5257316
vn 0.8278948 0.1954391 0.5257316
vn 0.8278948 0.1954393 0.5257316
vn 0.8278948 0.1954394 0.5257316
vn 0.8278948 0.1954393 0.5257316
vn 0.8278948 0.1954393 0.5257316
vn 0.8278948 0.1954393 0.5257316
vn 0.8278948 0.1954393 0.5257316
vn 0.8278948 0.1954393 0.5257316
vn 0.8278948 0.1954393 0.5257316
vn 0.8278948 0.1954393 0.5257316
vn 0.8278949 0.1954395 0.5257315
vn 0.8278949 0.1954395 0.5257315
vn 0.8278949 0.1954395 0.5257315
vn 0.8278949 0.1954395 0.5257315
vn 0.8278949 0.1954395 0.5257315
vn 0.8278949 0.1954395 0.5257315
vn 0.8278949 0.1954395 0.5257315
vn 0.8278949 0.1954395 0.5257314
vn 0.827895 0.1954396 0.5257313
vn 0.827895 0.1954396 0.5257313
vn 0.827895 0.1954396 0.5257313
vn 0.827895 0.1954396 0.5257313
vn 0.827895 0.1954396 0.5257313
vn 0.827895 0.1954396 0.5257313
vn 0.827895 0.1954396 0.5257313
vn 0.8278949 0.1954396 0.5257312
vn 0.8278949 0.1954394 0.5257315
vn 0.8278949 0.1954394 0.5257315
vn 0.8278948 0.1954394 0.5257314

f 1//1 2//2 3//3
f 4//4 1//1 3//3
f 3//3 5//5 4//4
f 3//3 6//6 5//5
f 5//5 6//6 7//7
f 8//8 7//7 6//6
f 9//9 8//8 6//6
f 10//10 9//9 6//6
f 9//9 10//10 11//11
f 11//11 10//10 12//12
f 13//13 11//11 12//12
f 13//13 12//12 14//14
f 13//13 14//14 15//15
f 15//15 14//14 16//16
f 15//15 16//16 17//17
f 18//18 17//17 16//16
f 19//19 17//17 18//18
f 19//19 18//18 20//20
f 21//21 19//19 20//20
f 22//22 19//19 21//21
f 22//22 21//21 23//23
f 24//24 22//22 23//23
f 24//24 23//23 25//25
f 26//26 24//24 25//25
f 26//26 25//25 27//27
f 28//28 26//26 27//27
f 28//28 27//27 29//29
f 29//29 27//27 30//30
f 31//31 29//29 30//30
f 31//31 30//30 32//32
f 33//33 31//31 32//32
f 33//33 32//32 34//34
f 35//35 33//33 34//34
f 35//35 34//34 36//36
f 37//37 35//35 36//36
f 37//37 36//36 38//38
f 39//39 37//37 38//38
f 39//39 38//38 40//40
f 41//41 39//39 40//40
f 41//41 40//40 42//42
f 41//41 42//42 43//43
f 43//43 42//42 44//44
f 45//45 43//43 44//44
f 45//45 44//44 46//46
f 47//47 45//45 46//46
f 48//48 45//45 47//47
f 48//48 47//47 49//49
f 50//50 48//48 49//49
f 50//50 49//49 51//51
f 52//52 50//50 51//51
f 52//52 51//51 53//53
f 54//54 52//52 53//53
f 55//55 54//54 53//53
f 55//55 53//53 56//56
f 55//55 56//56 57//57
f 57//57 56//56 58//58
f 57//57 58//58 59//59
f 59//59 58//58 60//60
f 59//59 60//60 61//61
f 61//61 60//60 62//62
f 61//61 62//62 63//63
f 63//63 62//62 64//64
f 63//63 64//64 65//65
f 65//65 64//64 66//66
f 65//65 66//66 67//67
f 68//68 67//67 66//66
f 69//69 67//67 68//68
f 69//69 68//68 70//70
f 71//71 69//69 70//70
f 72//72 71//71 73//73
f 74//74 75//75 76//76
f 77//77 74//74 76//76
f 75//75 77//77 76//76
f 78//78 75//75 74//74
f 79//79 75//75 78//78
f 78//78 74//74 80//80
f 81//81 78//78 80//80
f 82//82 78//78 81//81
f 82//82 83//83 78//78
f 83//83 84//84 79//79
f 84//84 85//85 79//79
f 80//80 74//74 86//86
f 87//87 80//80 86//86
f 81//81 80//80 87//87
f 86//86 74//74 88//88
f 88//88 74//74 77//77
f 86//86 88//88 89//89
f 90//90 86//86 89//89
f 87//87 86//86 90//90
f 75//75 91//91 77//77
f 90//90 89//89 92//92
f 90//90 92//92 93//93
f 94//94 90//90 93//93
f 95//95 83//83 82//82
f 95//95 82//82 81//81
f 95//95 81//81 87//87
f 95//95 87//87 90//90
f 95//95 96//96 83//83
f 97//97 91//91 75//75
f 97//97 98//98 91//91
f 97//97 99//99 98//98
f 100//100 95//95 101//101
f 102//102 103//103 104//104
f 102//102 104//104 105//105
f 102//102 105//105 106//106
f 106//106 105//105 107//107
f 108//108 102//102 106//106
f 109//109 102//102 108//108
f 110//110 108//108 106//106
f 111//111 112//112 113//113
f 111//111 113//113 114//114
f 111//111 114//114 115//115
f 111//111 115//115 116//116
f 111//111 116//116 117//117
f 117//117 118//118 111//111
f 118//118 119//119 111//111
f 120//120 111//111 119//119
f 120//120 121//121 111//111
f 121//121 122//122 111//111
f 111//111 122//122 123//123
f 114//114 113//113 124//124
f 124//124 113//113 125//125
f 125//125 113//113 126//126
f 126//126 113//113 127//127
f 127//127 113//113 128//128
f 128//128 113//113 129//129
f 129//129 113//113 130//130
f 130//130 113//113 131//131
f 131//131 113//113 132//132
f 132//132 113//113 133//133
f 133//133 113//113 134//134
f 133//133 134//134 135//135
f 135//135 134//134 136//136
f 134//134 137//137 136//136
f 137//137 134//134 138//138
f 138//138 134//134 139//139
f 139//139 134//134 140//140
f 140//140 134//134 141//141
f 134//134 142//142 141//141
f 134//134 143//143 142//142
f 134//134 144//144 143//143
f 144//144 134//134 145//145
f 145//145 134//134 146//146
f 147//147 134//134 148//148
f 149//149 150//150 151//151
f 149//149 152//152 150//150
f 151//151 150//150 153//153
f 151//151 153//153 154//154
f 154//154 153//153 155//155
f 154//154 155//155 156//156
f 152//152 157//157 150//150
f 158//158 159//159 160//160
f 161//161 159//159 158//158
f 162//162 159//159 161//161
f 163//163 162//162 161//161
f 164//164 162//162 163//163
f 165//165 162//162 164//164
f 9//9 166//166 8//8
f 166//166 9//9 167//167
f 168//168 169//169 170//170
f 168//168 171//171 169//169
f 172//172 169//169 173//173
f 174//174 169//169 172//172
f 169//169 174//174 175//175
f 176//176 169//169 175//175
f 177//177 169//169 176//176
f 178//178 169//169 177//177
f 178//178 179//179 169//169
f 179//179 180//180 169//169
f 180//180 181//181 169//169
f 182//182 181//181 180//180
f 182//182 183//183 181//181
f 183//183 184//184 181//181
f 184//184 185//185 181//181
f 185//185 186//186 181//181
f 186//186 187//187 181//181
f 187//187 188//188 181//181
f 188//188 189//189 181//181
f 181//181 189//189 190//190
f 181//181 190//190 191//191
f 192//192 181//181 191//191
f 193//193 181//181 192//192
f 194//194 181//181 193//193
f 195//195 181//181 194//194
f 195//195 196//196 181//181
f 196//196 197//197 198//198
f 196//196 198//198 199//199
f 199//199 200//200 196//196
f 196//196 200//200 201//201
f 201//201 202//202 196//196
f 196//196 202//202 203//203
f 196//196 203//203 204//204
f 205//205 196//196 206//206
f 207//207 196//196 205//205
