v -138.0578 28.80812 -35.55856
v -132.3453 19.40622 -53.35902
v -138.0578 28.80812 -35.55856
v -138.0578 28.80811 -35.55856
v -138.9857 25.64449 -34.18536
v -139.3568 24.37905 -33.63608
v -139.3568 24.37905 -33.63608
v -133.6443 14.97715 -51.43655
v -127.9318 5.575249 -69.23702
v -139.5925 24.32187 -33.6815
v -130.0525 5.060645 -69.64581
v -139.6217 24.31476 -33.68715
v -130.3161 4.996697 -69.6966
v -139.63 24.31277 -33.68873
v -130.39 4.978744 -69.71086
v -139.7224 24.29035 -33.70654
v -131.2216 4.776969 -69.87115
v -140.8615 24.01394 -33.92612
v -131.3481 4.746257 -69.89555
v -141.9415 23.75186 -34.1343
v -142.0658 23.72171 -34.15825
v -131.482 4.713787 -69.92134
v -142.3249 23.65883 -34.2082
v -131.5108 4.7068 -69.92689
v -143.0122 23.49207 -34.34067
v -131.5871 4.688272 -69.9416
v -143.1332 23.33452 -34.29629
v -132.2535 3.820753 -69.69724
v -132.6762 3.270362 -69.54221
v -143.1632 23.29543 -34.28528
v -132.9464 2.91856 -69.44312
v -143.1721 23.2838 -34.282
v -133.0269 2.813862 -69.41362
v -143.2397 23.19588 -34.25724
v -133.6347 2.022573 -69.19073
v -144.0144 22.18719 -33.97311
v -133.7207 1.910496 -69.15916
v -144.6545 21.35386 -33.73837
v -133.7919 1.817904 -69.13307
v -145.2872 20.53018 -33.50636
v -133.8622 1.726383 -69.1073
v -145.2737 20.42829 -33.4482
v -133.7405 0.8093872 -68.58392
v -145.2434 20.2 -33.31791
v -133.468 -1.245204 -67.41127
v -145.1589 19.56312 -32.95441
v -145.1252 19.30841 -32.80904
v -133.4549 -1.34427 -67.35472
v -145.0099 18.43992 -32.31334
v -133.4421 -1.440767 -67.29965
v -144.9151 17.72481 -31.9052
v -133.4315 -1.520226 -67.2543
v -144.8493 17.22842 -31.62188
v -133.4242 -1.575379 -67.22282
v -133.4242 -1.57538 -67.22282
v -144.6772 17.12693 -31.51307
v -131.876 -2.488724 -66.24356
v -144.6266 17.09706 -31.48104
v -131.4203 -2.757555 -65.95532
v -144.6214 17.09402 -31.47778
v -131.3738 -2.785 -65.9259
v -144.619 17.0926 -31.47626
v -131.3522 -2.797728 -65.91225
v -144.616 17.09081 -31.47434
v -131.325 -2.813811 -65.895
v -144.5598 17.05767 -31.4388
v -130.8193 -3.112138 -65.57515
v -141.9549 15.52091 -29.79114
v -130.5298 -3.28289 -65.39207
v -141.9549 15.52091 -29.79114
v -130.5298 -3.28289 -65.39207
v -141.9549 15.52091 -29.79114
v -141.9549 15.52091 -29.79114
v -142.326 14.25546 -29.24186
v -143.2539 11.09184 -27.86866
v -143.2539 11.09184 -27.86866
v -143.2539 11.09184 -27.86866
v -141.9549 15.52091 -29.79114
v -141.9549 15.52091 -29.79114
v -141.9549 15.52091 -29.79114
v -130.5298 -3.28289 -65.39207
v -130.5298 -3.28289 -65.39207
v -130.5298 -3.28289 -65.39207
v -141.9549 15.52091 -29.79114
v -149.0427 14.50686 -31.53015
v -141.9549 15.52091 -29.79114
v -130.5298 -3.28289 -65.39207
v -141.9549 15.52091 -29.79114
v -136.2424 6.119008 -47.59161
v -130.5298 -3.28289 -65.39207
v -137.5414 1.689941 -45.66914
v -130.5298 -3.282881 -65.39206
v -130.5298 -3.28289 -65.39207
v -130.901 -4.548337 -64.8428
v -137.6176 -4.296936 -67.13109
v -130.5298 -3.28289 -65.39207
v -149.0427 14.50686 -31.53015
v -131.8289 -7.711956 -63.4696
v -137.6176 -4.296936 -67.13109
v -133.4242 -1.57538 -67.22282
v -133.4242 -1.575379 -67.22282
v -132.3453 19.40622 -53.35902
v -138.0578 28.80812 -35.55856
v -138.0578 28.80811 -35.55856
v -138.9857 25.64449 -34.18536
v -133.6443 14.97715 -51.43655
v -139.3568 24.37905 -33.63608
v -127.3937 7.40983 -70.03334
v -126.6327 10.00432 -71.1595
v -127.9318 5.575249 -69.23702
v -138.0578 28.80812 -35.55856
v -145.3685 27.03416 -36.96772
v -149.9186 21.11039 -35.2991
v -143.0122 23.49207 -34.34067
v -142.3249 23.65883 -34.2082
v -142.0658 23.72171 -34.15825
v -141.9415 23.75186 -34.1343
v -140.8615 24.01394 -33.92612
v -139.7224 24.29035 -33.70654
v -139.63 24.31277 -33.68873
v -139.6217 24.31476 -33.68715
v -139.5925 24.32187 -33.6815
v -139.3568 24.37905 -33.63608
v -143.1332 23.33452 -34.29629
v -143.1632 23.29543 -34.28528
v -143.1721 23.2838 -34.282
v -143.2397 23.19588 -34.25724
v -144.0144 22.18719 -33.97311
v -144.6545 21.35386 -33.73837
v -145.2872 20.53018 -33.50636
v -145.2737 20.42829 -33.4482
v -145.2434 20.2 -33.31791
v -145.1589 19.56312 -32.95441
v -149.0427 14.50686 -31.53015
v -145.1252 19.30841 -32.80904
v -145.0099 18.43992 -32.31334
v -144.9151 17.72481 -31.9052
v -144.8493 17.22842 -31.62188
v -144.6772 17.12693 -31.51307
v -144.6266 17.09706 -31.48104
v -144.6214 17.09402 -31.47778
v -144.619 17.0926 -31.47626
v -144.616 17.09081 -31.47434
v -144.5598 17.05767 -31.4388
v -141.9549 15.52091 -29.79114
v -141.9549 15.52091 -29.79114
v -141.9549 15.52091 -29.79114
v -143.2539 11.09184 -27.86866
v -138.0578 28.80812 -35.55856
v -133.9434 8.230364 -72.56866
v -145.3685 27.03416 -36.96772
v -132.3453 19.40622 -53.35902
v -138.4935 2.306589 -70.90004
v -149.9186 21.11039 -35.2991
v -137.6176 -4.296936 -67.13109
v -149.0427 14.50686 -31.53015
v -126.6327 10.00432 -71.1595
v -143.2539 11.09184 -27.86866
v -136.2424 6.119008 -47.59161
v -141.9549 15.52091 -29.79114
v -137.5414 1.689941 -45.66914
v -130.5298 -3.282881 -65.39206
v -131.8289 -7.711956 -63.4696
v -130.901 -4.548337 -64.8428
v -130.5298 -3.28289 -65.39207
v -127.9318 5.575249 -69.23702
v -133.9434 8.230364 -72.56866
v -127.3937 7.40983 -70.03334
v -133.9434 8.230364 -72.56866
v -126.6327 10.00432 -71.1595
v -127.9318 5.575249 -69.23702
v -130.0525 5.060645 -69.64581
v -127.9318 5.575249 -69.23702
v -130.3161 4.996697 -69.6966
v -130.39 4.978744 -69.71086
v -131.2216 4.776969 -69.87115
v -131.3481 4.746257 -69.89555
v -131.482 4.713787 -69.92134
v -131.5108 4.7068 -69.92689
v -131.5871 4.688272 -69.9416
v -138.4935 2.306589 -70.90004
v -132.2535 3.820753 -69.69724
v -132.6762 3.270362 -69.54221
v -132.9464 2.91856 -69.44312
v -133.0269 2.813862 -69.41362
v -133.6347 2.022573 -69.19073
v -133.7207 1.910496 -69.15916
v -133.7919 1.817904 -69.13307
v -133.8622 1.726383 -69.1073
v -133.7405 0.8093872 -68.58392
v -133.468 -1.245204 -67.41127
v -133.4549 -1.34427 -67.35472
v -133.4421 -1.440767 -67.29965
v -133.4315 -1.520226 -67.2543
v -133.4242 -1.575379 -67.22282
v -137.6176 -4.296936 -67.13109
v -133.4242 -1.57538 -67.22282
v -131.876 -2.488724 -66.24356
v -131.4203 -2.757555 -65.95532
v -131.3738 -2.785 -65.9259
v -131.3522 -2.797728 -65.91225
v -131.325 -2.813811 -65.895
v -130.8193 -3.112138 -65.57515
v -130.5298 -3.28289 -65.39207
v -130.901 -4.548337 -64.8428
v -130.5298 -3.28289 -65.39207
v -131.8289 -7.711956 -63.4696

vn 0.2598057 0.8858134 -0.384494
vn 0.2598058 0.8858134 -0.3844941
vn 0.01959937 0.9649594 0.2616661
vn -0.2729906 0.449299 0.8506507
vn -0.2729906 0.449299 0.8506507
vn 0.1144438 -0.8627904 0.4924382
vn -0.2958013 -0.8133702 0.50093
vn 0.8379869 -0.3232366 0.4396544
vn 0.1144394 -0.8627915 0.4924371
vn 0.1144386 -0.8627918 0.492437
vn 0.1144389 -0.8627917 0.492437
vn 0.1144399 -0.8627915 0.4924372
vn 0.114441 -0.8627913 0.4924373
vn 0.1144353 -0.8627924 0.4924367
vn 0.114438 -0.8627919 0.492437
vn 0.1144385 -0.8627917 0.4924371
vn 0.1144384 -0.8627919 0.4924371
vn 0.1144383 -0.8627918 0.492437
vn 0.1144386 -0.8627917 0.4924371
vn 0.1144383 -0.8627919 0.492437
vn 0.1144394 -0.8627916 0.4924372
vn 0.1144409 -0.8627912 0.4924375
vn 0.1144388 -0.8627917 0.4924372
vn 0.1144379 -0.8627919 0.492437
vn 0.2572024 -0.8179612 0.5145742
vn 0.7313914 -0.4774757 0.4869122
vn 0.7563404 -0.4461921 0.4783952
vn 0.7563398 -0.4461927 0.4783954
vn 0.7563397 -0.4461929 0.4783955
vn 0.7563384 -0.4461945 0.4783961
vn 0.7563376 -0.4461954 0.4783964
vn 0.7563365 -0.4461966 0.478397
vn 0.7563383 -0.4461946 0.4783962
vn 0.756339 -0.4461937 0.4783957
vn 0.7563394 -0.4461933 0.4783956
vn 0.7563394 -0.4461932 0.4783955
vn 0.7563387 -0.4461941 0.4783958
vn 0.7563392 -0.4461936 0.4783957
vn 0.7563398 -0.4461927 0.4783954
vn 0.7938284 -0.3942836 0.4630087
vn 0.9606551 0.1743483 0.2162053
vn 0.9551859 0.231777 0.1841173
vn 0.9551859 0.231778 0.1841168
vn 0.9551858 0.2317786 0.1841164
vn 0.9551858 0.2317785 0.1841164
vn 0.9551858 0.2317782 0.1841166
vn 0.9551858 0.2317778 0.184117
vn 0.9551858 0.2317781 0.1841167
vn 0.9551859 0.2317778 0.1841169
vn 0.9551858 0.2317781 0.1841168
vn 0.9551859 0.2317781 0.1841168
vn 0.9551858 0.2317777 0.184117
vn 0.9139031 0.3972594 0.08346403
vn 0.9551885 0.2317576 0.1841285
vn 0.594498 0.7739777 -0.2180153
vn 0.594497 0.7739782 -0.218016
vn 0.5944968 0.7739785 -0.2180162
vn 0.5944958 0.7739788 -0.2180169
vn 0.5944974 0.7739781 -0.2180157
vn 0.5944986 0.7739776 -0.2180147
vn 0.5945005 0.7739763 -0.2180132
vn 0.5945332 0.7739587 -0.2179867
vn 0.5945128 0.7739698 -0.2180034
vn 0.5944921 0.773981 -0.2180199
vn 0.5944951 0.7739794 -0.2180176
vn 0.5944971 0.7739782 -0.2180159
vn 0.5944976 0.7739779 -0.2180156
vn 0.5944978 0.7739778 -0.2180155
vn 0.5945017 0.7739756 -0.2180131
vn 0.7127962 0.6882963 -0.1347958
vn 0.2598058 0.8858133 -0.3844943
vn 0.2598058 0.8858133 -0.3844943
vn 0.2598058 0.8858133 -0.3844943
vn -0.2729906 0.449299 0.8506507
vn -0.5944973 -0.7739782 0.2180157
vn -0.2729906 0.449299 0.8506507
vn 0.8846506 -0.2301773 0.4054773
vn -0.0388455 0.9169472 0.3971131
vn -0.07918898 0.870241 0.4862199
vn 0.2397535 0.9154969 -0.3230847
vn 0.2598058 0.8858133 -0.3844943
vn 0.2598058 0.8858133 -0.3844943
vn 0.2598058 0.8858133 -0.3844943
vn 0.2303052 0.9273807 -0.2948299
vn -0.2729906 0.449299 0.8506507
vn 0.2563334 0.8914312 -0.3736894
vn 0.2598058 0.8858133 -0.3844943
vn 0.2185879 0.9404508 -0.2603298
vn 0.2597997 0.8858141 -0.3844967
vn 0.2757221 0.8572392 -0.4348775
vn -0.5944973 -0.7739781 0.2180157
vn 0.2597839 0.885816 -0.3845028
vn 0.2729924 -0.4492929 -0.8506534
vn 0.2729906 -0.449299 -0.8506507
vn 0.2729902 -0.449299 -0.8506508
vn 0 0 0
vn -0.5944974 -0.7739781 0.2180157
vn -0.5944974 -0.7739781 0.2180157
vn -0.5944974 -0.7739782 0.2180157
vn 0.2729902 -0.449299 -0.8506508
vn 0.2729902 -0.449299 -0.8506508
vn 0.9262705 -0.1160407 0.3585491
vn 0.9262705 -0.1160407 0.3585491
vn 0.9262705 -0.1160407 0.3585491
vn 0.9262705 -0.1160407 0.3585491
vn 0.9262705 -0.1160407 0.3585491
vn 0.9262705 -0.1160407 0.3585491
vn 0.9262705 -0.1160407 0.3585491
vn 0.9262705 -0.1160407 0.3585491
vn 0.9262705 -0.1160407 0.3585491
vn -0.2729906 0.449299 0.8506507
vn -0.2729906 0.449299 0.8506507
vn -0.2729906 0.449299 0.8506507
vn -0.2729906 0.449299 0.8506507
vn -0.2729906 0.449299 0.8506507
vn -0.2729906 0.449299 0.8506507
vn -0.2729906 0.449299 0.8506507
vn -0.2729906 0.449299 0.8506507
vn -0.2729906 0.449299 0.8506507
vn -0.2729906 0.449299 0.8506507
vn -0.2729906 0.449299 0.8506507
vn -0.2729906 0.449299 0.8506507
vn -0.2729906 0.449299 0.8506507
vn -0.2729906 0.449299 0.8506506
vn -0.2729906 0.449299 0.8506507
vn -0.2729906 0.449299 0.8506507
vn -0.2729906 0.449299 0.8506506
vn -0.2729906 0.449299 0.8506507
vn -0.2729906 0.449299 0.8506507
vn -0.2729906 0.449299 0.8506507
vn -0.2729906 0.449299 0.8506506
vn -0.2729906 0.449299 0.8506507
vn -0.2729906 0.449299 0.8506507
vn -0.2729906 0.449299 0.8506507
vn -0.2729906 0.449299 0.8506507
vn -0.2729906 0.449299 0.8506507
vn -0.2729906 0.449299 0.8506507
vn -0.2729906 0.449299 0.8506507
vn -0.2729906 0.449299 0.8506507
vn -0.2729906 0.449299 0.8506507
vn -0.2729906 0.449299 0.8506507
vn -0.2729906 0.449299 0.8506506
vn -0.2729906 0.449299 0.8506507
vn -0.2729906 0.449299 0.8506506
vn -0.2729906 0.449299 0.8506506
vn -0.2729906 0.449299 0.8506507
vn -0.2729906 0.449299 0.8506506
vn -0.2729906 0.449299 0.8506506
vn -0.114439 0.8627918 -0.4924371
vn -0.3521233 0.7762078 -0.5229825
vn -0.5815427 0.6273128 -0.5179641
vn -0.114439 0.8627916 -0.492437
vn -0.8820313 0.2361061 -0.4077682
vn -0.9531004 -0.006205644 -0.3025909
vn -0.9551858 -0.2317782 -0.1841167
vn -0.9551858 -0.2317782 -0.1841167
vn -0.1144389 0.8627917 -0.4924371
vn 0.9262705 -0.1160407 0.3585491
vn 0.9262705 -0.1160407 0.3585491
vn 0.9262705 -0.1160407 0.3585491
vn 0.9262705 -0.1160407 0.3585491
vn 0.9262705 -0.1160407 0.3585491
vn 0.9262705 -0.1160407 0.3585491
vn 0.9262705 -0.1160407 0.3585491
vn 0.9262705 -0.1160407 0.3585491
vn -0.1990436 -0.9585248 0.2039898
vn 0.2729908 -0.4492984 -0.8506509
vn 0.2729904 -0.449299 -0.8506507
vn 0.2729904 -0.4492989 -0.8506508
vn 0.2729904 -0.449299 -0.8506507
vn 0.2729904 -0.449299 -0.8506507
vn 0.2729906 -0.4492987 -0.8506508
vn 0.2729906 -0.4492987 -0.8506508
vn 0.2729906 -0.4492987 -0.8506508
vn 0.2729906 -0.4492987 -0.8506508
vn 0.2729906 -0.4492987 -0.8506508
vn 0.2729906 -0.4492987 -0.8506508
vn 0.2729906 -0.4492987 -0.8506508
vn 0.2729906 -0.4492987 -0.8506508
vn 0.2729904 -0.4492989 -0.8506508
vn 0.2729903 -0.449299 -0.8506508
vn 0.2729904 -0.4492989 -0.8506508
vn 0.2729904 -0.4492989 -0.8506508
vn 0.2729904 -0.4492989 -0.8506508
vn 0.2729904 -0.4492989 -0.8506508
vn 0.2729904 -0.4492989 -0.8506508
vn 0.2729904 -0.4492989 -0.8506508
vn 0.2729904 -0.4492989 -0.8506508
vn 0.2729903 -0.4492991 -0.8506507
vn 0.2729903 -0.4492991 -0.8506507
vn 0.2729903 -0.4492991 -0.8506507
vn 0.2729903 -0.4492991 -0.8506507
vn 0.2729903 -0.4492991 -0.8506507
vn 0.2729903 -0.4492991 -0.8506507
vn 0.2729903 -0.4492991 -0.8506507
vn 0.2729904 -0.4492991 -0.8506507
vn 0.2729904 -0.4492993 -0.8506506
vn 0.2729904 -0.4492993 -0.8506506
vn 0.2729904 -0.4492993 -0.8506506
vn 0.2729904 -0.4492993 -0.8506506
vn 0.2729904 -0.4492993 -0.8506506
vn 0.2729904 -0.4492993 -0.8506506
vn 0.2729904 -0.4492993 -0.8506506
vn 0.2729904 -0.4492992 -0.8506505
vn 0.2729904 -0.449299 -0.8506507
vn 0.2729904 -0.449299 -0.8506507
vn 0.2729904 -0.449299 -0.8506507

f 1//1 2//2 3//3
f 4//4 1//1 3//3
f 3//3 5//5 4//4
f 3//3 6//6 5//5
f 5//5 6//6 7//7
f 8//8 7//7 6//6
f 9//9 8//8 6//6
f 10//10 9//9 6//6
f 9//9 10//10 11//11
f 11//11 10//10 12//12
f 13//13 11//11 12//12
f 13//13 12//12 14//14
f 13//13 14//14 15//15
f 15//15 14//14 16//16
f 15//15 16//16 17//17
f 18//18 17//17 16//16
f 19//19 17//17 18//18
f 19//19 18//18 20//20
f 21//21 19//19 20//20
f 22//22 19//19 21//21
f 22//22 21//21 23//23
f 24//24 22//22 23//23
f 24//24 23//23 25//25
f 26//26 24//24 25//25
f 26//26 25//25 27//27
f 28//28 26//26 27//27
f 28//28 27//27 29//29
f 29//29 27//27 30//30
f 31//31 29//29 30//30
f 31//31 30//30 32//32
f 33//33 31//31 32//32
f 33//33 32//32 34//34
f 35//35 33//33 34//34
f 35//35 34//34 36//36
f 37//37 35//35 36//36
f 37//37 36//36 38//38
f 39//39 37//37 38//38
f 39//39 38//38 40//40
f 41//41 39//39 40//40
f 41//41 40//40 42//42
f 41//41 42//42 43//43
f 43//43 42//42 44//44
f 45//45 43//43 44//44
f 45//45 44//44 46//46
f 47//47 45//45 46//46
f 48//48 45//45 47//47
f 48//48 47//47 49//49
f 50//50 48//48 49//49
f 50//50 49//49 51//51
f 52//52 50//50 51//51
f 52//52 51//51 53//53
f 54//54 52//52 53//53
f 55//55 54//54 53//53
f 55//55 53//53 56//56
f 55//55 56//56 57//57
f 57//57 56//56 58//58
f 57//57 58//58 59//59
f 59//59 58//58 60//60
f 59//59 60//60 61//61
f 61//61 60//60 62//62
f 61//61 62//62 63//63
f 63//63 62//62 64//64
f 63//63 64//64 65//65
f 65//65 64//64 66//66
f 65//65 66//66 67//67
f 68//68 67//67 66//66
f 69//69 67//67 68//68
f 69//69 68//68 70//70
f 71//71 69//69 70//70
f 72//72 71//71 73//73
f 74//74 75//75 76//76
f 77//77 74//74 76//76
f 75//75 77//77 76//76
f 78//78 75//75 74//74
f 79//79 75//75 78//78
f 78//78 74//74 80//80
f 81//81 78//78 80//80
f 82//82 78//78 81//81
f 82//82 83//83 78//78
f 83//83 84//84 79//79
f 84//84 85//85 79//79
f 80//80 74//74 86//86
f 87//87 80//80 86//86
f 81//81 80//80 87//87
f 86//86 74//74 88//88
f 88//88 74//74 77//77
f 86//86 88//88 89//89
f 90//90 86//86 89//89
f 87//87 86//86 90//90
f 75//75 91//91 77//77
f 90//90 89//89 92//92
f 90//90 92//92 93//93
f 94//94 90//90 93//93
f 95//95 83//83 82//82
f 95//95 82//82 81//81
f 95//95 81//81 87//87
f 95//95 87//87 90//90
f 95//95 96//96 83//83
f 97//97 91//91 75//75
f 97//97 98//98 91//91
f 97//97 99//99 98//98
f 100//100 95//95 101//101
f 102//102 103//103 104//104
f 102//102 104//104 105//105
f 102//102 105//105 106//106
f 106//106 105//105 107//107
f 108//108 102//102 106//106
f 109//109 102//102 108//108
f 110//110 108//108 106//106
f 111//111 112//112 113//113
f 111//111 113//113 114//114
f 111//111 114//114 115//115
f 111//111 115//115 116//116
f 111//111 116//116 117//117
f 117//117 118//118 111//111
f 118//118 119//119 111//111
f 120//120 111//111 119//119
f 120//120 121//121 111//111
f 121//121 122//122 111//111
f 111//111 122//122 123//123
f 114//114 113//113 124//124
f 124//124 113//113 125//125
f 125//125 113//113 126//126
f 126//126 113//113 127//127
f 127//127 113//113 128//128
f 128//128 113//113 129//129
f 129//129 113//113 130//130
f 130//130 113//113 131//131
f 131//131 113//113 132//132
f 132//132 113//113 133//133
f 133//133 113//113 134//134
f 133//133 134//134 135//135
f 135//135 134//134 136//136
f 134//134 137//137 136//136
f 137//137 134//134 138//138
f 138//138 134//134 139//139
f 139//139 134//134 140//140
f 140//140 134//134 141//141
f 134//134 142//142 141//141
f 134//134 143//143 142//142
f 134//134 144//144 143//143
f 144//144 134//134 145//145
f 145//145 134//134 146//146
f 147//147 134//134 148//148
f 149//149 150//150 151//151
f 149//149 152//152 150//150
f 151//151 150//150 153//153
f 151//151 153//153 154//154
f 154//154 153//153 155//155
f 154//154 155//155 156//156
f 152//152 157//157 150//150
f 158//158 159//159 160//160
f 161//161 159//159 158//158
f 162//162 159//159 161//161
f 163//163 162//162 161//161
f 164//164 162//162 163//163
f 165//165 162//162 164//164
f 9//9 166//166 8//8
f 166//166 9//9 167//167
f 168//168 169//169 170//170
f 168//168 171//171 169//169
f 172//172 169//169 173//173
f 174//174 169//169 172//172
f 169//169 174//174 175//175
f 176//176 169//169 175//175
f 177//177 169//169 176//176
f 178//178 169//169 177//177
f 178//178 179//179 169//169
f 179//179 180//180 169//169
f 180//180 181//181 169//169
f 182//182 181//181 180//180
f 182//182 183//183 181//181
f 183//183 184//184 181//181
f 184//184 185//185 181//181
f 185//185 186//186 181//181
f 186//186 187//187 181//181
f 187//187 188//188 181//181
f 188//188 189//189 181//181
f 181//181 189//189 190//190
f 181//181 190//190 191//191
f 192//192 181//181 191//191
f 193//193 181//181 192//192
f 194//194 181//181 193//193
f 195//195 181//181 194//194
f 195//195 196//196 181//181
f 196//196 197//197 198//198
f 196//196 198//198 199//199
f 199//199 200//200 196//196
f 196//196 200//200 201//201
f 201//201 202//202 196//196
f 196//196 202//202 203//203
f 196//196 203//203 204//204
f 205//205 196//196 206//206
f 207//207 196//196 205//205
