v -33.71271 -54.16251 -131.0736
v -43.06181 -65.02514 -122.216
v -33.71271 -54.16251 -131.0736
v -33.71271 -54.16251 -131.0736
v -36.4527 -51.87332 -131.1583
v -37.5487 -50.95764 -131.1921
v -37.5487 -50.95764 -131.1921
v -46.8978 -61.82027 -122.3346
v -56.24691 -72.6829 -113.477
v -37.69445 -50.99205 -131.3882
v -57.55864 -72.99262 -115.2413
v -37.71255 -50.99633 -131.4126
v -57.72164 -73.03111 -115.4606
v -37.71764 -50.99753 -131.4194
v -57.7674 -73.04192 -115.5221
v -37.77479 -51.01102 -131.4962
v -58.28173 -73.16336 -116.2139
v -38.47937 -51.17739 -132.444
v -58.36002 -73.18185 -116.3192
v -39.1474 -51.33512 -133.3425
v -39.22425 -51.35327 -133.4459
v -58.44278 -73.20139 -116.4306
v -39.38454 -51.39112 -133.6615
v -58.46059 -73.20559 -116.4545
v -39.8096 -51.49149 -134.2332
v -58.50782 -73.21674 -116.518
v -39.97894 -51.40339 -134.3039
v -59.44027 -72.73164 -116.9073
v -60.03185 -72.42387 -117.1543
v -40.02095 -51.38153 -134.3214
v -60.40998 -72.22714 -117.3122
v -40.03346 -51.37502 -134.3267
v -60.52252 -72.1686 -117.3591
v -40.12796 -51.32586 -134.3661
v -61.37303 -71.72612 -117.7142
v -41.21214 -50.76182 -134.8187
v -61.4935 -71.66345 -117.7645
v -42.10785 -50.29583 -135.1927
v -61.59302 -71.61168 -117.8061
v -42.99317 -49.83524 -135.5623
v -61.69139 -71.5605 -117.8471
v -43.06234 -49.74649 -135.5264
v -62.31387 -70.76172 -117.5246
v -43.2173 -49.54763 -135.4461
v -63.7086 -68.97198 -116.8018
v -43.64964 -48.99284 -135.2221
v -43.82254 -48.77097 -135.1325
v -63.77585 -68.88569 -116.767
v -44.41211 -48.01444 -134.827
v -63.84135 -68.80164 -116.733
v -44.89754 -47.39152 -134.5754
v -63.89529 -68.73242 -116.7051
v -45.23452 -46.95911 -134.4008
v -63.93273 -68.68437 -116.6857
v -63.93273 -68.68437 -116.6857
v -45.23369 -46.81581 -134.2242
v -63.92533 -67.39462 -115.0961
v -45.23345 -46.77363 -134.1722
v -63.92315 -67.015 -114.6283
v -45.23343 -46.76932 -134.1669
v -63.92293 -66.97624 -114.5805
v -45.23341 -46.76733 -134.1645
v -63.92283 -66.95827 -114.5584
v -45.2334 -46.7648 -134.1613
v -63.9227 -66.93556 -114.5304
v -45.23313 -46.71799 -134.1037
v -63.92028 -66.51428 -114.0112
v -45.22068 -44.5479 -131.4292
v -63.9189 -66.27316 -113.714
v -45.22068 -44.5479 -131.4292
v -63.9189 -66.27316 -113.714
v -45.22068 -44.5479 -131.4292
v -45.22068 -44.5479 -131.4292
v -46.31668 -43.63223 -131.4631
v -49.05667 -41.34304 -131.5477
v -49.05667 -41.34304 -131.5477
v -49.05667 -41.34304 -131.5477
v -45.22068 -44.5479 -131.4292
v -45.22068 -44.5479 -131.4292
v -45.22068 -44.5479 -131.4292
v -63.9189 -66.27316 -113.714
v -63.9189 -66.27316 -113.714
v -63.9189 -66.27316 -113.714
v -45.22068 -44.5479 -131.4292
v -49.08434 -46.16546 -137.491
v -45.22068 -44.5479 -131.4292
v -63.9189 -66.27316 -113.714
v -45.22068 -44.5479 -131.4292
v -54.56979 -55.41053 -122.5716
v -63.9189 -66.27316 -113.714
v -58.40578 -52.20567 -122.6901
v -63.91889 -66.27316 -113.714
v -63.9189 -66.27316 -113.714
v -65.01489 -65.35749 -113.7479
v -67.78255 -67.89072 -119.7758
v -63.9189 -66.27316 -113.714
v -49.08434 -46.16546 -137.491
v -67.75489 -63.0683 -113.8326
v -67.78255 -67.89072 -119.7758
v -63.93273 -68.68437 -116.6857
v -63.93273 -68.68437 -116.6857
v -43.06181 -65.02514 -122.216
v -33.71271 -54.16251 -131.0736
v -33.71271 -54.16251 -131.0736
v -36.4527 -51.87332 -131.1583
v -46.8978 -61.82027 -122.3346
v -37.5487 -50.95764 -131.1921
v -54.65799 -74.0104 -113.4279
v -52.41092 -75.88776 -113.3585
v -56.24691 -72.6829 -113.477
v -33.71271 -54.16251 -131.0736
v -38.23452 -55.23019 -137.1557
v -44.60165 -51.91771 -139.8139
v -39.8096 -51.49149 -134.2332
v -39.38454 -51.39112 -133.6615
v -39.22425 -51.35327 -133.4459
v -39.1474 -51.33512 -133.3425
v -38.47937 -51.17739 -132.444
v -37.77479 -51.01102 -131.4962
v -37.71764 -50.99753 -131.4194
v -37.71255 -50.99633 -131.4126
v -37.69445 -50.99205 -131.3882
v -37.5487 -50.95764 -131.1921
v -39.97894 -51.40339 -134.3039
v -40.02095 -51.38153 -134.3214
v -40.03346 -51.37502 -134.3267
v -40.12796 -51.32586 -134.3661
v -41.21214 -50.76182 -134.8187
v -42.10785 -50.29583 -135.1927
v -42.99317 -49.83524 -135.5623
v -43.06234 -49.74649 -135.5264
v -43.2173 -49.54763 -135.4461
v -43.64964 -48.99284 -135.2221
v -49.08434 -46.16546 -137.491
v -43.82254 -48.77097 -135.1325
v -44.41211 -48.01444 -134.827
v -44.89754 -47.39152 -134.5754
v -45.23452 -46.95911 -134.4008
v -45.23369 -46.81581 -134.2242
v -45.23345 -46.77363 -134.1722
v -45.23343 -46.76932 -134.1669
v -45.23341 -46.76733 -134.1645
v -45.2334 -46.7648 -134.1613
v -45.23313 -46.71799 -134.1037
v -45.22068 -44.5479 -131.4292
v -45.22068 -44.5479 -131.4292
v -45.22068 -44.5479 -131.4292
v -49.05667 -41.34304 -131.5477
v -33.71271 -54.16251 -131.0736
v -56.93273 -76.95545 -119.4406
v -38.23452 -55.23019 -137.1557
v -43.06181 -65.02514 -122.216
v -63.29987 -73.64296 -122.0987
v -44.60165 -51.91771 -139.8139
v -67.78255 -67.89072 -119.7758
v -49.08434 -46.16546 -137.491
v -52.41092 -75.88776 -113.3585
v -49.05667 -41.34304 -131.5477
v -54.56979 -55.41053 -122.5716
v -45.22068 -44.5479 -131.4292
v -58.40578 -52.20567 -122.6901
v -63.91889 -66.27316 -113.714
v -67.75489 -63.0683 -113.8326
v -65.01489 -65.35749 -113.7479
v -63.9189 -66.27316 -113.714
v -56.24691 -72.6829 -113.477
v -56.93273 -76.95545 -119.4406
v -54.65799 -74.0104 -113.4279
v -56.93273 -76.95545 -119.4406
v -52.41092 -75.88776 -113.3585
v -56.24691 -72.6829 -113.477
v -57.55864 -72.99262 -115.2413
v -56.24691 -72.6829 -113.477
v -57.72164 -73.03111 -115.4606
v -57.7674 -73.04192 -115.5221
v -58.28173 -73.16336 -116.2139
v -58.36002 -73.18185 -116.3192
v -58.44278 -73.20139 -116.4306
v -58.46059 -73.20559 -116.4545
v -58.50782 -73.21674 -116.518
v -63.29987 -73.64296 -122.0987
v -59.44027 -72.73164 -116.9073
v -60.03185 -72.42387 -117.1543
v -60.40998 -72.22714 -117.3122
v -60.52252 -72.1686 -117.3591
v -61.37303 -71.72612 -117.7142
v -61.4935 -71.66345 -117.7645
v -61.59302 -71.61168 -117.8061
v -61.69139 -71.5605 -117.8471
v -62.31387 -70.76172 -117.5246
v -63.7086 -68.97198 -116.8018
v -63.77585 -68.88569 -116.767
v -63.84135 -68.80164 -116.733
v -63.89529 -68.73242 -116.7051
v -63.93273 -68.68437 -116.6857
v -67.78255 -67.89072 -119.7758
v -63.93273 -68.68437 -116.6857
v -63.92533 -67.39462 -115.0961
v -63.92315 -67.015 -114.6283
v -63.92293 -66.97624 -114.5805
v -63.92283 -66.95827 -114.5584
v -63.9227 -66.93556 -114.5304
v -63.92028 -66.51428 -114.0112
v -63.9189 -66.27316 -113.714
v -65.01489 -65.35749 -113.7479
v -63.9189 -66.27316 -113.714
v -67.75489 -63.0683 -113.8326

vn 0.7671978 -0.6409726 0.02370416
vn 0.7671978 -0.6409727 0.02370424
vn 0.9436273 -0.06707285 -0.3241434
vn 0.5549052 0.6447382 -0.525731
vn 0.5549052 0.6447382 -0.525731
vn -0.5856875 0.7515674 0.3035075
vn -0.6810117 0.7257104 -0.09781559
vn 0.1301484 0.5568922 0.8203245
vn -0.5856903 0.7515665 0.303504
vn -0.5856909 0.7515665 0.3035033
vn -0.5856907 0.7515665 0.3035036
vn -0.5856901 0.7515666 0.3035044
vn -0.5856895 0.7515666 0.3035053
vn -0.5856926 0.7515663 0.3035004
vn -0.5856912 0.7515665 0.3035027
vn -0.5856908 0.7515665 0.3035032
vn -0.585691 0.7515666 0.3035031
vn -0.585691 0.7515665 0.303503
vn -0.5856908 0.7515665 0.3035032
vn -0.585691 0.7515665 0.303503
vn -0.5856903 0.7515666 0.3035039
vn -0.5856894 0.7515668 0.3035052
vn -0.5856906 0.7515665 0.3035034
vn -0.5856912 0.7515665 0.3035027
vn -0.489878 0.7640093 0.4198924
vn -0.03041309 0.647253 0.7616683
vn 0.003616336 0.630078 0.7765235
vn 0.003615675 0.6300783 0.7765231
vn 0.003615415 0.6300786 0.7765231
vn 0.003613761 0.6300796 0.7765223
vn 0.003612725 0.6300802 0.7765217
vn 0.003611445 0.630081 0.776521
vn 0.00361365 0.6300796 0.7765222
vn 0.003614535 0.630079 0.7765226
vn 0.003614983 0.6300787 0.7765229
vn 0.003615023 0.6300786 0.7765229
vn 0.003614124 0.6300792 0.7765225
vn 0.003614662 0.6300789 0.7765228
vn 0.003615642 0.6300784 0.7765232
vn 0.05836208 0.6002263 0.7976981
vn 0.5508723 0.1887824 0.8129583
vn 0.5908012 0.1395008 0.7946656
vn 0.5908019 0.1395 0.7946654
vn 0.5908023 0.1394995 0.7946652
vn 0.5908023 0.1394995 0.7946652
vn 0.590802 0.1394998 0.7946652
vn 0.5908018 0.1395003 0.7946653
vn 0.590802 0.1394999 0.7946653
vn 0.5908018 0.1395002 0.7946655
vn 0.590802 0.1395 0.7946652
vn 0.5908021 0.1395 0.7946653
vn 0.5908017 0.1395003 0.7946654
vn 0.694636 -0.0113433 0.7192721
vn 0.5907881 0.1395178 0.7946725
vn 0.831906 -0.4327963 0.347304
vn 0.8319058 -0.4327971 0.347303
vn 0.831906 -0.4327975 0.3473027
vn 0.8319058 -0.4327983 0.3473018
vn 0.831906 -0.4327969 0.3473033
vn 0.8319062 -0.4327957 0.3473044
vn 0.8319063 -0.4327937 0.3473064
vn 0.8319095 -0.4327616 0.3473386
vn 0.8319075 -0.4327818 0.3473184
vn 0.8319055 -0.432802 0.3472981
vn 0.8319058 -0.4327991 0.3473011
vn 0.8319059 -0.432797 0.3473031
vn 0.831906 -0.4327967 0.3473035
vn 0.831906 -0.4327965 0.3473038
vn 0.831906 -0.4327934 0.3473077
vn 0.8207561 -0.3211324 0.4724763
vn 0.7671977 -0.6409728 0.02370434
vn 0.7671977 -0.6409728 0.02370434
vn 0.7671977 -0.6409728 0.02370434
vn 0.5549052 0.6447382 -0.525731
vn -0.831906 0.4327968 -0.3473032
vn 0.5549052 0.6447382 -0.525731
vn 0.2192625 0.4962618 0.8400288
vn 0.9202128 0.07396535 -0.3843667
vn 0.890673 0.1716043 -0.4210154
vn 0.8046843 -0.5935449 -0.01370823
vn 0.7671977 -0.6409728 0.02370434
vn 0.7671977 -0.6409728 0.02370434
vn 0.7671977 -0.6409728 0.02370434
vn 0.8202737 -0.5711537 -0.03057344
vn 0.5549052 0.6447382 -0.525731
vn 0.7741649 -0.6327546 0.0170499
vn 0.7671977 -0.6409728 0.02370434
vn 0.8379623 -0.5433509 -0.05088348
vn 0.7671955 -0.6409755 0.0236987
vn 0.732494 -0.6785302 0.05522208
vn -0.831906 0.4327968 -0.3473032
vn 0.76719 -0.6409826 0.02368423
vn -0.5548999 -0.6447427 0.5257312
vn -0.5549052 -0.6447382 0.525731
vn -0.5549054 -0.6447384 0.5257307
vn 0 0 0
vn -0.831906 0.4327968 -0.3473033
vn -0.831906 0.4327969 -0.3473033
vn -0.8319061 0.4327969 -0.3473033
vn -0.5549054 -0.6447384 0.5257307
vn -0.5549054 -0.6447384 0.5257307
vn 0.321696 0.416493 0.8503208
vn 0.321696 0.416493 0.8503207
vn 0.321696 0.416493 0.8503208
vn 0.321696 0.416493 0.8503208
vn 0.321696 0.416493 0.8503208
vn 0.321696 0.416493 0.8503208
vn 0.321696 0.416493 0.8503208
vn 0.321696 0.416493 0.8503208
vn 0.321696 0.416493 0.8503208
vn 0.5549052 0.6447382 -0.525731
vn 0.5549052 0.6447382 -0.525731
vn 0.5549052 0.6447382 -0.525731
vn 0.5549052 0.6447382 -0.525731
vn 0.5549052 0.6447382 -0.525731
vn 0.5549052 0.6447382 -0.525731
vn 0.5549052 0.6447382 -0.525731
vn 0.5549052 0.6447382 -0.525731
vn 0.5549052 0.6447382 -0.525731
vn 0.5549052 0.6447382 -0.525731
vn 0.5549052 0.6447382 -0.525731
vn 0.5549052 0.6447382 -0.525731
vn 0.5549052 0.6447382 -0.525731
vn 0.5549052 0.6447382 -0.525731
vn 0.5549052 0.6447382 -0.525731
vn 0.5549052 0.6447382 -0.525731
vn 0.5549052 0.6447382 -0.525731
vn 0.5549052 0.6447382 -0.525731
vn 0.5549052 0.6447382 -0.525731
vn 0.5549052 0.6447382 -0.525731
vn 0.5549052 0.6447382 -0.525731
vn 0.5549052 0.6447382 -0.525731
vn 0.5549052 0.6447382 -0.525731
vn 0.5549052 0.6447382 -0.525731
vn 0.5549052 0.6447382 -0.525731
vn 0.5549052 0.6447382 -0.525731
vn 0.5549052 0.6447382 -0.525731
vn 0.5549052 0.6447382 -0.525731
vn 0.5549052 0.6447382 -0.525731
vn 0.5549052 0.6447382 -0.525731
vn 0.5549052 0.6447382 -0.525731
vn 0.5549052 0.6447382 -0.525731
vn 0.5549052 0.6447382 -0.525731
vn 0.5549052 0.6447382 -0.525731
vn 0.5549052 0.6447382 -0.525731
vn 0.5549052 0.6447382 -0.525731
vn 0.5549052 0.6447382 -0.525731
vn 0.5549052 0.6447382 -0.525731
vn 0.5856907 -0.7515665 -0.3035036
vn 0.4173677 -0.7624243 -0.494483
vn 0.2067459 -0.7190039 -0.6635432
vn 0.5856906 -0.7515664 -0.3035036
vn -0.2137405 -0.5002471 -0.8390876
vn -0.4236052 -0.3249108 -0.8455719
vn -0.5908021 -0.1394998 -0.7946652
vn -0.5908021 -0.1394999 -0.7946652
vn 0.5856906 -0.7515665 -0.3035035
vn 0.321696 0.416493 0.8503208
vn 0.321696 0.416493 0.8503208
vn 0.321696 0.416493 0.8503208
vn 0.321696 0.416493 0.8503208
vn 0.321696 0.416493 0.8503208
vn 0.321696 0.416493 0.8503208
vn 0.321696 0.416493 0.8503208
vn 0.321696 0.4164929 0.8503207
vn -0.8637913 0.4968982 0.08340809
vn -0.5549046 -0.6447387 0.525731
vn -0.5549052 -0.6447383 0.5257308
vn -0.5549052 -0.6447384 0.5257308
vn -0.5549053 -0.6447383 0.5257308
vn -0.5549053 -0.6447383 0.5257308
vn -0.554905 -0.6447385 0.5257309
vn -0.554905 -0.6447385 0.5257309
vn -0.554905 -0.6447385 0.5257309
vn -0.554905 -0.6447385 0.5257309
vn -0.554905 -0.6447385 0.5257309
vn -0.554905 -0.6447384 0.5257309
vn -0.554905 -0.6447385 0.5257309
vn -0.554905 -0.6447384 0.5257309
vn -0.5549052 -0.6447384 0.5257308
vn -0.5549053 -0.6447384 0.5257308
vn -0.5549052 -0.6447384 0.5257308
vn -0.5549052 -0.6447384 0.5257308
vn -0.5549052 -0.6447384 0.5257308
vn -0.5549052 -0.6447384 0.5257308
vn -0.5549052 -0.6447384 0.5257308
vn -0.5549052 -0.6447384 0.5257308
vn -0.5549052 -0.6447384 0.5257308
vn -0.5549054 -0.6447383 0.5257308
vn -0.5549054 -0.6447383 0.5257308
vn -0.5549054 -0.6447383 0.5257308
vn -0.5549054 -0.6447383 0.5257308
vn -0.5549054 -0.6447383 0.5257308
vn -0.5549054 -0.6447383 0.5257308
vn -0.5549054 -0.6447383 0.5257308
vn -0.5549054 -0.6447383 0.5257308
vn -0.5549055 -0.6447381 0.5257309
vn -0.5549055 -0.6447381 0.5257309
vn -0.5549055 -0.6447381 0.5257309
vn -0.5549055 -0.6447381 0.5257309
vn -0.5549055 -0.6447381 0.5257309
vn -0.5549055 -0.6447381 0.5257309
vn -0.5549055 -0.6447381 0.5257309
vn -0.5549055 -0.644738 0.5257309
vn -0.5549053 -0.6447383 0.5257308
vn -0.5549053 -0.6447383 0.5257308
vn -0.5549052 -0.6447383 0.5257308

f 1//1 2//2 3//3
f 4//4 1//1 3//3
f 3//3 5//5 4//4
f 3//3 6//6 5//5
f 5//5 6//6 7//7
f 8//8 7//7 6//6
f 9//9 8//8 6//6
f 10//10 9//9 6//6
f 9//9 10//10 11//11
f 11//11 10//10 12//12
f 13//13 11//11 12//12
f 13//13 12//12 14//14
f 13//13 14//14 15//15
f 15//15 14//14 16//16
f 15//15 16//16 17//17
f 18//18 17//17 16//16
f 19//19 17//17 18//18
f 19//19 18//18 20//20
f 21//21 19//19 20//20
f 22//22 19//19 21//21
f 22//22 21//21 23//23
f 24//24 22//22 23//23
f 24//24 23//23 25//25
f 26//26 24//24 25//25
f 26//26 25//25 27//27
f 28//28 26//26 27//27
f 28//28 27//27 29//29
f 29//29 27//27 30//30
f 31//31 29//29 30//30
f 31//31 30//30 32//32
f 33//33 31//31 32//32
f 33//33 32//32 34//34
f 35//35 33//33 34//34
f 35//35 34//34 36//36
f 37//37 35//35 36//36
f 37//37 36//36 38//38
f 39//39 37//37 38//38
f 39//39 38//38 40//40
f 41//41 39//39 40//40
f 41//41 40//40 42//42
f 41//41 42//42 43//43
f 43//43 42//42 44//44
f 45//45 43//43 44//44
f 45//45 44//44 46//46
f 47//47 45//45 46//46
f 48//48 45//45 47//47
f 48//48 47//47 49//49
f 50//50 48//48 49//49
f 50//50 49//49 51//51
f 52//52 50//50 51//51
f 52//52 51//51 53//53
f 54//54 52//52 53//53
f 55//55 54//54 53//53
f 55//55 53//53 56//56
f 55//55 56//56 57//57
f 57//57 56//56 58//58
f 57//57 58//58 59//59
f 59//59 58//58 60//60
f 59//59 60//60 61//61
f 61//61 60//60 62//62
f 61//61 62//62 63//63
f 63//63 62//62 64//64
f 63//63 64//64 65//65
f 65//65 64//64 66//66
f 65//65 66//66 67//67
f 68//68 67//67 66//66
f 69//69 67//67 68//68
f 69//69 68//68 70//70
f 71//71 69//69 70//70
f 72//72 71//71 73//73
f 74//74 75//75 76//76
f 77//77 74//74 76//76
f 75//75 77//77 76//76
f 78//78 75//75 74//74
f 79//79 75//75 78//78
f 78//78 74//74 80//80
f 81//81 78//78 80//80
f 82//82 78//78 81//81
f 82//82 83//83 78//78
f 83//83 84//84 79//79
f 84//84 85//85 79//79
f 80//80 74//74 86//86
f 87//87 80//80 86//86
f 81//81 80//80 87//87
f 86//86 74//74 88//88
f 88//88 74//74 77//77
f 86//86 88//88 89//89
f 90//90 86//86 89//89
f 87//87 86//86 90//90
f 75//75 91//91 77//77
f 90//90 89//89 92//92
f 90//90 92//92 93//93
f 94//94 90//90 93//93
f 95//95 83//83 82//82
f 95//95 82//82 81//81
f 95//95 81//81 87//87
f 95//95 87//87 90//90
f 95//95 96//96 83//83
f 97//97 91//91 75//75
f 97//97 98//98 91//91
f 97//97 99//99 98//98
f 100//100 95//95 101//101
f 102//102 103//103 104//104
f 102//102 104//104 105//105
f 102//102 105//105 106//106
f 106//106 105//105 107//107
f 108//108 102//102 106//106
f 109//109 102//102 108//108
f 110//110 108//108 106//106
f 111//111 112//112 113//113
f 111//111 113//113 114//114
f 111//111 114//114 115//115
f 111//111 115//115 116//116
f 111//111 116//116 117//117
f 117//117 118//118 111//111
f 118//118 119//119 111//111
f 120//120 111//111 119//119
f 120//120 121//121 111//111
f 121//121 122//122 111//111
f 111//111 122//122 123//123
f 114//114 113//113 124//124
f 124//124 113//113 125//125
f 125//125 113//113 126//126
f 126//126 113//113 127//127
f 127//127 113//113 128//128
f 128//128 113//113 129//129
f 129//129 113//113 130//130
f 130//130 113//113 131//131
f 131//131 113//113 132//132
f 132//132 113//113 133//133
f 133//133 113//113 134//134
f 133//133 134//134 135//135
f 135//135 134//134 136//136
f 134//134 137//137 136//136
f 137//137 134//134 138//138
f 138//138 134//134 139//139
f 139//139 134//134 140//140
f 140//140 134//134 141//141
f 134//134 142//142 141//141
f 134//134 143//143 142//142
f 134//134 144//144 143//143
f 144//144 134//134 145//145
f 145//145 134//134 146//146
f 147//147 134//134 148//148
f 149//149 150//150 151//151
f 149//149 152//152 150//150
f 151//151 150//150 153//153
f 151//151 153//153 154//154
f 154//154 153//153 155//155
f 154//154 155//155 156//156
f 152//152 157//157 150//150
f 158//158 159//159 160//160
f 161//161 159//159 158//158
f 162//162 159//159 161//161
f 163//163 162//162 161//161
f 164//164 162//162 163//163
f 165//165 162//162 164//164
f 9//9 166//166 8//8
f 166//166 9//9 167//167
f 168//168 169//169 170//170
f 168//168 171//171 169//169
f 172//172 169//169 173//173
f 174//174 169//169 172//172
f 169//169 174//174 175//175
f 176//176 169//169 175//175
f 177//177 169//169 176//176
f 178//178 169//169 177//177
f 178//178 179//179 169//169
f 179//179 180//180 169//169
f 180//180 181//181 169//169
f 182//182 181//181 180//180
f 182//182 183//183 181//181
f 183//183 184//184 181//181
f 184//184 185//185 181//181
f 185//185 186//186 181//181
f 186//186 187//187 181//181
f 187//187 188//188 181//181
f 188//188 189//189 181//181
f 181//181 189//189 190//190
f 181//181 190//190 191//191
f 192//192 181//181 191//191
f 193//193 181//181 192//192
f 194//194 181//181 193//193
f 195//195 181//181 194//194
f 195//195 196//196 181//181
f 196//196 197//197 198//198
f 196//196 198//198 199//199
f 199//199 200//200 196//196
f 196//196 200//200 201//201
f 201//201 202//202 196//196
f 196//196 202//202 203//203
f 196//196 203//203 204//204
f 205//205 196//196 206//206
f 207//207 196//196 205//205
