v 139.9019 -13.91174 27.00872
v 134.1894 -4.509841 44.80918
v 139.9019 -13.91174 27.00872
v 139.9019 -13.91174 27.00872
v 139.0897 -17.08786 28.42565
v 138.7648 -18.35831 28.99242
v 138.7648 -18.35831 28.99242
v 133.0523 -8.956414 46.79287
v 127.3398 0.4454832 64.59333
v 138.9564 -18.46168 29.10849
v 129.064 -0.4847746 65.638
v 138.9802 -18.47452 29.12291
v 129.2782 -0.6003733 65.76781
v 138.9869 -18.47813 29.12696
v 129.3384 -0.6328278 65.80426
v 139.062 -18.51865 29.17248
v 130.0144 -0.9975796 66.21387
v 139.9881 -19.01833 29.73361
v 130.1173 -1.053099 66.27621
v 140.8662 -19.49209 30.26563
v 140.9672 -19.54659 30.32684
v 130.2261 -1.111794 66.34213
v 141.1779 -19.66026 30.45449
v 130.2495 -1.124425 66.35632
v 141.7366 -19.96172 30.79302
v 130.3116 -1.15792 66.39393
v 141.7667 -20.13559 30.8945
v 130.4771 -2.115357 66.95273
v 130.582 -2.722798 67.30725
v 141.7742 -20.17873 30.91968
v 130.6491 -3.111067 67.53386
v 141.7764 -20.19157 30.92717
v 130.6691 -3.226616 67.6013
v 141.7931 -20.2886 30.9838
v 130.82 -4.099925 68.111
v 141.9855 -21.40184 31.63353
v 130.8414 -4.223619 68.18319
v 142.1444 -22.32156 32.17031
v 130.859 -4.325809 68.24283
v 142.3015 -23.23061 32.70087
v 130.8765 -4.426815 68.30179
v 142.2345 -23.32379 32.72857
v 130.273 -5.265422 68.55105
v 142.0842 -23.53256 32.79062
v 128.9208 -7.144377 69.10954
v 141.6651 -24.11501 32.96375
v 141.4975 -24.34793 33.03298
v 128.8556 -7.234974 69.13647
v 140.9259 -25.14219 33.26906
v 128.7921 -7.323223 69.1627
v 140.4553 -25.79616 33.46345
v 128.7398 -7.395888 69.1843
v 140.1286 -26.25012 33.59838
v 128.7035 -7.446327 69.1993
v 128.7035 -7.446328 69.1993
v 139.9124 -26.30964 33.56043
v 126.7576 -7.981943 68.85772
v 139.8487 -26.32715 33.54926
v 126.1849 -8.139593 68.75719
v 139.8422 -26.32894 33.54812
v 126.1264 -8.155687 68.74692
v 139.8392 -26.32977 33.54759
v 126.0993 -8.163153 68.74216
v 139.8354 -26.33082 33.54692
v 126.065 -8.172584 68.73615
v 139.7648 -26.35026 33.53453
v 125.4294 -8.347532 68.62457
v 136.4907 -27.25146 32.9598
v 125.0657 -8.447668 68.56071
v 136.4907 -27.25146 32.9598
v 125.0657 -8.447668 68.56071
v 136.4907 -27.25146 32.9598
v 136.4907 -27.25146 32.9598
v 136.1658 -28.52191 33.52657
v 135.3536 -31.69804 34.9435
v 135.3536 -31.69804 34.9435
v 135.3536 -31.69804 34.9435
v 136.4907 -27.25146 32.9598
v 136.4907 -27.25146 32.9598
v 136.4907 -27.25146 32.9598
v 125.0657 -8.447668 68.56071
v 125.0657 -8.447668 68.56071
v 125.0657 -8.447668 68.56071
v 136.4907 -27.25146 32.9598
v 142.6294 -29.69536 36.22066
v 136.4907 -27.25146 32.9598
v 125.0657 -8.447668 68.56071
v 136.4907 -27.25146 32.9598
v 130.7782 -17.84956 50.76026
v 125.0657 -8.447668 68.56071
v 129.6411 -22.29614 52.74395
v 125.0657 -8.447677 68.5607
v 125.0657 -8.447668 68.56071
v 124.7408 -9.718116 69.12749
v 131.2043 -10.89156 71.82156
v 125.0657 -8.447668 68.56071
v 142.6294 -29.69536 36.22066
v 123.9286 -12.89424 70.54441
v 131.2043 -10.89156 71.82156
v 128.7035 -7.446328 69.1993
v 128.7035 -7.446327 69.1993
v 134.1894 -4.509841 44.80918
v 139.9019 -13.91174 27.00872
v 139.9019 -13.91174 27.00872
v 139.0897 -17.08786 28.42565
v 133.0523 -8.956414 46.79287
v 138.7648 -18.35831 28.99242
v 127.8108 2.287316 63.77165
v 128.4769 4.892056 62.60963
v 127.3398 0.4454832 64.59333
v 139.9019 -13.91174 27.00872
v 145.8455 -17.11855 30.60992
v 146.9753 -23.65633 34.42563
v 141.7366 -19.96172 30.79302
v 141.1779 -19.66026 30.45449
v 140.9672 -19.54659 30.32684
v 140.8662 -19.49209 30.26563
v 139.9881 -19.01833 29.73361
v 139.062 -18.51865 29.17248
v 138.9869 -18.47813 29.12696
v 138.9802 -18.47452 29.12291
v 138.9564 -18.46168 29.10849
v 138.7648 -18.35831 28.99242
v 141.7667 -20.13559 30.8945
v 141.7742 -20.17873 30.91968
v 141.7764 -20.19157 30.92717
v 141.7931 -20.2886 30.9838
v 141.9855 -21.40184 31.63353
v 142.1444 -22.32156 32.17031
v 142.3015 -23.23061 32.70087
v 142.2345 -23.32379 32.72857
v 142.0842 -23.53256 32.79062
v 141.6651 -24.11501 32.96375
v 142.6294 -29.69536 36.22066
v 141.4975 -24.34793 33.03298
v 140.9259 -25.14219 33.26906
v 140.4553 -25.79616 33.46345
v 140.1286 -26.25012 33.59838
v 139.9124 -26.30964 33.56043
v 139.8487 -26.32715 33.54926
v 139.8422 -26.32894 33.54812
v 139.8392 -26.32977 33.54759
v 139.8354 -26.33082 33.54692
v 139.7648 -26.35026 33.53453
v 136.4907 -27.25146 32.9598
v 136.4907 -27.25146 32.9598
v 136.4907 -27.25146 32.9598
v 135.3536 -31.69804 34.9435
v 139.9019 -13.91174 27.00872
v 134.4205 1.68525 66.21083
v 145.8455 -17.11855 30.60992
v 134.1894 -4.509841 44.80918
v 135.5502 -4.85254 70.02654
v 146.9753 -23.65633 34.42563
v 131.2043 -10.89156 71.82156
v 142.6294 -29.69536 36.22066
v 128.4769 4.892056 62.60963
v 135.3536 -31.69804 34.9435
v 130.7782 -17.84956 50.76026
v 136.4907 -27.25146 32.9598
v 129.6411 -22.29614 52.74395
v 125.0657 -8.447677 68.5607
v 123.9286 -12.89424 70.54441
v 124.7408 -9.718116 69.12749
v 125.0657 -8.447668 68.56071
v 127.3398 0.4454832 64.59333
v 134.4205 1.68525 66.21083
v 127.8108 2.287316 63.77165
v 134.4205 1.68525 66.21083
v 128.4769 4.892056 62.60963
v 127.3398 0.4454832 64.59333
v 129.064 -0.4847746 65.638
v 127.3398 0.4454832 64.59333
v 129.2782 -0.6003733 65.76781
v 129.3384 -0.6328278 65.80426
v 130.0144 -0.9975796 66.21387
v 130.1173 -1.053099 66.27621
v 130.2261 -1.111794 66.34213
v 130.2495 -1.124425 66.35632
v 130.3116 -1.15792 66.39393
v 135.5502 -4.85254 70.02654
v 130.4771 -2.115357 66.95273
v 130.582 -2.722798 67.30725
v 130.6491 -3.111067 67.53386
v 130.6691 -3.226616 67.6013
v 130.82 -4.099925 68.111
v 130.8414 -4.223619 68.18319
v 130.859 -4.325809 68.24283
v 130.8765 -4.426815 68.30179
v 130.273 -5.265422 68.55105
v 128.9208 -7.144377 69.10954
v 128.8556 -7.234974 69.13647
v 128.7921 -7.323223 69.1627
v 128.7398 -7.395888 69.1843
v 128.7035 -7.446327 69.1993
v 131.2043 -10.89156 71.82156
v 128.7035 -7.446328 69.1993
v 126.7576 -7.981943 68.85772
v 126.1849 -8.139593 68.75719
v 126.1264 -8.155687 68.74692
v 126.0993 -8.163153 68.74216
v 126.065 -8.172584 68.73615
v 125.4294 -8.347532 68.62457
v 125.0657 -8.447668 68.56071
v 124.7408 -9.718116 69.12749
v 125.0657 -8.447668 68.56071
v 123.9286 -12.89424 70.54441

vn 0.227415 0.8893145 -0.3967392
vn 0.227415 0.8893146 -0.3967391
vn 0.3503264 0.3828182 -0.8548225
vn 0.2729909 -0.449299 -0.8506505
vn 0.2729909 -0.449299 -0.8506505
vn -0.5678213 -0.7890342 0.2345291
vn -0.1865226 -0.9439172 0.2724516
vn -0.9620157 -0.1286476 -0.2407806
vn -0.5678177 -0.789036 0.2345315
vn -0.5678171 -0.7890365 0.2345319
vn -0.5678173 -0.7890363 0.2345317
vn -0.5678182 -0.7890358 0.2345313
vn -0.5678189 -0.7890353 0.2345309
vn -0.5678144 -0.789038 0.2345331
vn -0.5678166 -0.7890367 0.234532
vn -0.567817 -0.7890365 0.2345318
vn -0.5678169 -0.7890366 0.2345319
vn -0.5678168 -0.7890366 0.2345319
vn -0.567817 -0.7890365 0.2345318
vn -0.5678168 -0.7890366 0.234532
vn -0.5678177 -0.7890361 0.2345314
vn -0.5678189 -0.7890354 0.2345307
vn -0.5678172 -0.7890363 0.2345316
vn -0.5678165 -0.7890368 0.2345321
vn -0.6784528 -0.7168123 0.1608789
vn -0.9437921 -0.2963802 -0.1463387
vn -0.9506251 -0.2616607 -0.1668698
vn -0.9506249 -0.2616614 -0.1668694
vn -0.9506249 -0.2616617 -0.1668692
vn -0.9506246 -0.2616636 -0.1668683
vn -0.9506243 -0.2616647 -0.1668677
vn -0.950624 -0.2616662 -0.1668671
vn -0.9506245 -0.2616637 -0.1668683
vn -0.9506246 -0.2616626 -0.1668687
vn -0.9506249 -0.2616621 -0.166869
vn -0.9506248 -0.261662 -0.1668689
vn -0.9506246 -0.261663 -0.1668684
vn -0.9506248 -0.2616625 -0.1668688
vn -0.9506249 -0.2616614 -0.1668693
vn -0.958279 -0.2048722 -0.1993207
vn -0.8123403 0.3660176 -0.4540204
vn -0.7765698 0.4189881 -0.4705191
vn -0.7765692 0.418989 -0.4705194
vn -0.7765689 0.4189896 -0.4705195
vn -0.7765688 0.4189896 -0.4705195
vn -0.776569 0.4189892 -0.4705194
vn -0.7765693 0.4189887 -0.4705194
vn -0.7765691 0.4189891 -0.4705195
vn -0.7765694 0.4189889 -0.4705194
vn -0.7765691 0.4189891 -0.4705195
vn -0.7765692 0.4189891 -0.4705195
vn -0.7765693 0.4189887 -0.4705194
vn -0.6494437 0.5662646 -0.5075109
vn -0.7765825 0.4189703 -0.4705139
vn -0.14761 0.8542029 -0.4985465
vn -0.1476088 0.8542032 -0.4985462
vn -0.1476084 0.8542035 -0.4985462
vn -0.1476073 0.8542038 -0.4985458
vn -0.1476092 0.8542032 -0.4985464
vn -0.1476106 0.8542027 -0.4985469
vn -0.1476132 0.8542017 -0.4985475
vn -0.1476546 0.8541874 -0.4985599
vn -0.1476287 0.8541965 -0.4985521
vn -0.1476025 0.8542054 -0.4985445
vn -0.1476063 0.8542042 -0.4985455
vn -0.1476089 0.8542032 -0.4985463
vn -0.1476095 0.854203 -0.4985464
vn -0.1476097 0.854203 -0.4985465
vn -0.1476145 0.8542017 -0.4985472
vn -0.3047689 0.7982998 -0.5194548
vn 0.2274149 0.8893147 -0.3967389
vn 0.2274149 0.8893147 -0.3967389
vn 0.2274149 0.8893147 -0.3967389
vn 0.2729909 -0.449299 -0.8506505
vn 0.1476091 -0.8542031 0.4985465
vn 0.2729909 -0.449299 -0.8506505
vn -0.956378 -0.03115313 -0.2904662
vn 0.3552779 0.2359342 -0.9044957
vn 0.3536642 0.1297744 -0.9263262
vn 0.2462359 0.855145 -0.4561741
vn 0.2274149 0.8893147 -0.3967389
vn 0.2274149 0.8893147 -0.3967389
vn 0.2274149 0.8893147 -0.3967389
vn 0.2543241 0.8383055 -0.4822479
vn 0.2729909 -0.449299 -0.8506505
vn 0.2308482 0.8835543 -0.407481
vn 0.2274149 0.8893147 -0.3967389
vn 0.263736 0.8168361 -0.5130516
vn 0.2274211 0.8893141 -0.3967366
vn 0.2106196 0.9146864 -0.3449464
vn 0.1476091 -0.8542031 0.4985464
vn 0.227437 0.8893127 -0.3967308
vn -0.2729893 0.4493052 0.8506477
vn -0.2729909 0.449299 0.8506505
vn -0.2729905 0.4492989 0.8506506
vn 0 0 0
vn 0.1476092 -0.8542032 0.4985464
vn 0.1476092 -0.8542032 0.4985464
vn 0.1476092 -0.8542032 0.4985464
vn -0.2729905 0.4492989 0.8506506
vn -0.2729905 0.4492989 0.8506506
vn -0.9347504 0.08514463 -0.344952
vn -0.9347504 0.08514463 -0.344952
vn -0.9347504 0.08514463 -0.344952
vn -0.9347504 0.08514463 -0.344952
vn -0.9347504 0.08514463 -0.344952
vn -0.9347504 0.08514463 -0.344952
vn -0.9347504 0.08514463 -0.344952
vn -0.9347504 0.08514463 -0.344952
vn -0.9347504 0.08514463 -0.344952
vn 0.2729909 -0.449299 -0.8506505
vn 0.2729909 -0.449299 -0.8506505
vn 0.2729909 -0.449299 -0.8506505
vn 0.2729909 -0.449299 -0.8506505
vn 0.2729909 -0.449299 -0.8506505
vn 0.2729909 -0.449299 -0.8506505
vn 0.2729909 -0.449299 -0.8506505
vn 0.2729909 -0.449299 -0.8506505
vn 0.2729909 -0.449299 -0.8506505
vn 0.2729909 -0.449299 -0.8506505
vn 0.2729909 -0.449299 -0.8506505
vn 0.2729909 -0.449299 -0.8506505
vn 0.2729909 -0.449299 -0.8506505
vn 0.2729909 -0.4492989 -0.8506504
vn 0.2729909 -0.449299 -0.8506505
vn 0.2729909 -0.449299 -0.8506505
vn 0.2729909 -0.4492989 -0.8506504
vn 0.2729909 -0.449299 -0.8506505
vn 0.2729909 -0.449299 -0.8506505
vn 0.2729909 -0.449299 -0.8506505
vn 0.2729909 -0.4492989 -0.8506504
vn 0.2729909 -0.449299 -0.8506505
vn 0.2729909 -0.449299 -0.8506505
vn 0.2729909 -0.449299 -0.8506505
vn 0.2729909 -0.449299 -0.8506505
vn 0.2729909 -0.449299 -0.8506505
vn 0.2729909 -0.449299 -0.8506505
vn 0.2729909 -0.449299 -0.8506505
vn 0.2729909 -0.449299 -0.8506505
vn 0.2729909 -0.449299 -0.8506505
vn 0.2729909 -0.449299 -0.8506505
vn 0.2729909 -0.4492989 -0.8506504
vn 0.2729909 -0.449299 -0.8506505
vn 0.2729909 -0.4492989 -0.8506504
vn 0.2729909 -0.4492989 -0.8506504
vn 0.2729909 -0.449299 -0.8506505
vn 0.2729909 -0.4492989 -0.8506504
vn 0.2729909 -0.4492989 -0.8506504
vn 0.5678174 0.7890363 -0.2345317
vn 0.7456433 0.6575337 -0.1080064
vn 0.8824612 0.4690467 0.03545688
vn 0.5678173 0.7890362 -0.2345317
vn 0.9570704 0.03729028 0.2874469
vn 0.8948617 -0.2059792 0.3959737
vn 0.7765689 -0.4189892 0.4705195
vn 0.776569 -0.4189892 0.4705195
vn 0.5678173 0.7890363 -0.2345317
vn -0.9347504 0.08514463 -0.344952
vn -0.9347504 0.08514463 -0.344952
vn -0.9347504 0.08514463 -0.344952
vn -0.9347504 0.08514463 -0.344952
vn -0.9347504 0.08514463 -0.344952
vn -0.9347504 0.08514463 -0.344952
vn -0.9347504 0.08514464 -0.344952
vn -0.9347504 0.08514463 -0.344952
vn -0.2780525 -0.7797151 0.561009
vn -0.2729907 0.4492996 0.8506502
vn -0.2729907 0.4492989 0.8506505
vn -0.2729907 0.4492991 0.8506505
vn -0.2729907 0.449299 0.8506505
vn -0.2729907 0.449299 0.8506505
vn -0.2729907 0.4492992 0.8506504
vn -0.2729907 0.4492992 0.8506504
vn -0.2729907 0.4492992 0.8506504
vn -0.2729907 0.4492992 0.8506504
vn -0.2729907 0.4492992 0.8506504
vn -0.2729907 0.4492992 0.8506504
vn -0.2729907 0.4492992 0.8506504
vn -0.2729907 0.4492992 0.8506504
vn -0.2729906 0.4492991 0.8506505
vn -0.2729906 0.449299 0.8506506
vn -0.2729906 0.4492991 0.8506505
vn -0.2729906 0.4492991 0.8506505
vn -0.2729906 0.4492991 0.8506505
vn -0.2729906 0.4492991 0.8506505
vn -0.2729906 0.4492991 0.8506505
vn -0.2729906 0.4492991 0.8506505
vn -0.2729906 0.4492991 0.8506505
vn -0.2729906 0.4492989 0.8506506
vn -0.2729906 0.4492989 0.8506507
vn -0.2729906 0.4492989 0.8506507
vn -0.2729906 0.4492989 0.8506507
vn -0.2729906 0.4492989 0.8506507
vn -0.2729906 0.4492989 0.8506507
vn -0.2729906 0.4492989 0.8506507
vn -0.2729907 0.4492989 0.8506506
vn -0.2729909 0.4492987 0.8506507
vn -0.2729909 0.4492987 0.8506507
vn -0.2729909 0.4492987 0.8506507
vn -0.2729909 0.4492987 0.8506507
vn -0.2729909 0.4492987 0.8506507
vn -0.2729909 0.4492987 0.8506507
vn -0.2729909 0.4492987 0.8506507
vn -0.2729909 0.4492987 0.8506506
vn -0.2729907 0.449299 0.8506505
vn -0.2729907 0.449299 0.8506505
vn -0.2729907 0.4492989 0.8506505

f 1//1 2//2 3//3
f 4//4 1//1 3//3
f 3//3 5//5 4//4
f 3//3 6//6 5//5
f 5//5 6//6 7//7
f 8//8 7//7 6//6
f 9//9 8//8 6//6
f 10//10 9//9 6//6
f 9//9 10//10 11//11
f 11//11 10//10 12//12
f 13//13 11//11 12//12
f 13//13 12//12 14//14
f 13//13 14//14 15//15
f 15//15 14//14 16//16
f 15//15 16//16 17//17
f 18//18 17//17 16//16
f 19//19 17//17 18//18
f 19//19 18//18 20//20
f 21//21 19//19 20//20
f 22//22 19//19 21//21
f 22//22 21//21 23//23
f 24//24 22//22 23//23
f 24//24 23//23 25//25
f 26//26 24//24 25//25
f 26//26 25//25 27//27
f 28//28 26//26 27//27
f 28//28 27//27 29//29
f 29//29 27//27 30//30
f 31//31 29//29 30//30
f 31//31 30//30 32//32
f 33//33 31//31 32//32
f 33//33 32//32 34//34
f 35//35 33//33 34//34
f 35//35 34//34 36//36
f 37//37 35//35 36//36
f 37//37 36//36 38//38
f 39//39 37//37 38//38
f 39//39 38//38 40//40
f 41//41 39//39 40//40
f 41//41 40//40 42//42
f 41//41 42//42 43//43
f 43//43 42//42 44//44
f 45//45 43//43 44//44
f 45//45 44//44 46//46
f 47//47 45//45 46//46
f 48//48 45//45 47//47
f 48//48 47//47 49//49
f 50//50 48//48 49//49
f 50//50 49//49 51//51
f 52//52 50//50 51//51
f 52//52 51//51 53//53
f 54//54 52//52 53//53
f 55//55 54//54 53//53
f 55//55 53//53 56//56
f 55//55 56//56 57//57
f 57//57 56//56 58//58
f 57//57 58//58 59//59
f 59//59 58//58 60//60
f 59//59 60//60 61//61
f 61//61 60//60 62//62
f 61//61 62//62 63//63
f 63//63 62//62 64//64
f 63//63 64//64 65//65
f 65//65 64//64 66//66
f 65//65 66//66 67//67
f 68//68 67//67 66//66
f 69//69 67//67 68//68
f 69//69 68//68 70//70
f 71//71 69//69 70//70
f 72//72 71//71 73//73
f 74//74 75//75 76//76
f 77//77 74//74 76//76
f 75//75 77//77 76//76
f 78//78 75//75 74//74
f 79//79 75//75 78//78
f 78//78 74//74 80//80
f 81//81 78//78 80//80
f 82//82 78//78 81//81
f 82//82 83//83 78//78
f 83//83 84//84 79//79
f 84//84 85//85 79//79
f 80//80 74//74 86//86
f 87//87 80//80 86//86
f 81//81 80//80 87//87
f 86//86 74//74 88//88
f 88//88 74//74 77//77
f 86//86 88//88 89//89
f 90//90 86//86 89//89
f 87//87 86//86 90//90
f 75//75 91//91 77//77
f 90//90 89//89 92//92
f 90//90 92//92 93//93
f 94//94 90//90 93//93
f 95//95 83//83 82//82
f 95//95 82//82 81//81
f 95//95 81//81 87//87
f 95//95 87//87 90//90
f 95//95 96//96 83//83
f 97//97 91//91 75//75
f 97//97 98//98 91//91
f 97//97 99//99 98//98
f 100//100 95//95 101//101
f 102//102 103//103 104//104
f 102//102 104//104 105//105
f 102//102 105//105 106//106
f 106//106 105//105 107//107
f 108//108 102//102 106//106
f 109//109 102//102 108//108
f 110//110 108//108 106//106
f 111//111 112//112 113//113
f 111//111 113//113 114//114
f 111//111 114//114 115//115
f 111//111 115//115 116//116
f 111//111 116//116 117//117
f 117//117 118//118 111//111
f 118//118 119//119 111//111
f 120//120 111//111 119//119
f 120//120 121//121 111//111
f 121//121 122//122 111//111
f 111//111 122//122 123//123
f 114//114 113//113 124//124
f 124//124 113//113 125//125
f 125//125 113//113 126//126
f 126//126 113//113 127//127
f 127//127 113//113 128//128
f 128//128 113//113 129//129
f 129//129 113//113 130//130
f 130//130 113//113 131//131
f 131//131 113//113 132//132
f 132//132 113//113 133//133
f 133//133 113//113 134//134
f 133//133 134//134 135//135
f 135//135 134//134 136//136
f 134//134 137//137 136//136
f 137//137 134//134 138//138
f 138//138 134//134 139//139
f 139//139 134//134 140//140
f 140//140 134//134 141//141
f 134//134 142//142 141//141
f 134//134 143//143 142//142
f 134//134 144//144 143//143
f 144//144 134//134 145//145
f 145//145 134//134 146//146
f 147//147 134//134 148//148
f 149//149 150//150 151//151
f 149//149 152//152 150//150
f 151//151 150//150 153//153
f 151//151 153//153 154//154
f 154//154 153//153 155//155
f 154//154 155//155 156//156
f 152//152 157//157 150//150
f 158//158 159//159 160//160
f 161//161 159//159 158//158
f 162//162 159//159 161//161
f 163//163 162//162 161//161
f 164//164 162//162 163//163
f 165//165 162//162 164//164
f 9//9 166//166 8//8
f 166//166 9//9 167//167
f 168//168 169//169 170//170
f 168//168 171//171 169//169
f 172//172 169//169 173//173
f 174//174 169//169 172//172
f 169//169 174//174 175//175
f 176//176 169//169 175//175
f 177//177 169//169 176//176
f 178//178 169//169 177//177
f 178//178 179//179 169//169
f 179//179 180//180 169//169
f 180//180 181//181 169//169
f 182//182 181//181 180//180
f 182//182 183//183 181//181
f 183//183 184//184 181//181
f 184//184 185//185 181//181
f 185//185 186//186 181//181
f 186//186 187//187 181//181
f 187//187 188//188 181//181
f 188//188 189//189 181//181
f 181//181 189//189 190//190
f 181//181 190//190 191//191
f 192//192 181//181 191//191
f 193//193 181//181 192//192
f 194//194 181//181 193//193
f 195//195 181//181 194//194
f 195//195 196//196 181//181
f 196//196 197//197 198//198
f 196//196 198//198 199//199
f 199//199 200//200 196//196
f 196//196 200//200 201//201
f 201//201 202//202 196//196
f 196//196 202//202 203//203
f 196//196 203//203 204//204
f 205//205 196//196 206//206
f 207//207 196//196 205//205
