v -128.7116 26.1158 62.61002
v -135.8881 17.77753 44.80956
v -128.7116 26.1158 62.61002
v -128.7116 26.11579 62.61003
v -128.4307 22.84946 64.02681
v -128.3183 21.54293 64.59353
v -128.3183 21.54293 64.59353
v -135.4948 13.20467 46.79306
v -142.6712 4.866407 28.99259
v -128.5242 21.47234 64.70961
v -144.5245 4.231157 30.03731
v -128.5498 21.46357 64.72404
v -144.7548 4.152218 30.16714
v -128.557 21.46111 64.72809
v -144.8194 4.130056 30.20358
v -128.6377 21.43344 64.7736
v -145.5461 3.880977 30.61322
v -129.6332 21.09222 65.33476
v -145.6567 3.843064 30.67557
v -130.577 20.7687 65.86681
v -130.6856 20.73148 65.92802
v -145.7736 3.802982 30.74149
v -130.912 20.65386 66.05568
v -145.7988 3.794357 30.75567
v -131.5126 20.44801 66.39423
v -145.8655 3.771484 30.79329
v -131.5707 20.2814 66.4957
v -146.1855 2.854067 31.35207
v -146.3886 2.272017 31.70658
v -131.5851 20.24006 66.52088
v -146.5184 1.899978 31.93318
v -131.5894 20.22776 66.52837
v -146.557 1.789259 32.00062
v -131.6218 20.13478 66.58501
v -146.849 0.9524536 32.51029
v -131.994 19.06807 67.23471
v -146.8903 0.833931 32.58248
v -132.3014 18.18681 67.77147
v -146.9245 0.7360125 32.64212
v -132.6053 17.31575 68.30201
v -146.9582 0.6392279 32.70107
v -132.5544 17.21284 68.3297
v -146.5003 -0.286931 32.95028
v -132.4404 16.98227 68.39175
v -145.4742 -2.362053 33.50866
v -132.1223 16.33902 68.56483
v -131.9951 16.08177 68.63405
v -145.4247 -2.46211 33.53558
v -131.5614 15.2046 68.87008
v -145.3765 -2.559571 33.56181
v -131.2043 14.48235 69.06442
v -145.3368 -2.639823 33.5834
v -130.9564 13.98099 69.19933
v -145.3093 -2.695527 33.59839
v -145.3093 -2.695529 33.59839
v -130.7528 13.88686 69.16136
v -143.4775 -3.542701 33.2567
v -130.6929 13.85916 69.15019
v -142.9383 -3.792055 33.15613
v -130.6868 13.85633 69.14905
v -142.8832 -3.817511 33.14586
v -130.684 13.85502 69.14851
v -142.8577 -3.829316 33.1411
v -130.6804 13.85336 69.14785
v -142.8255 -3.844234 33.13508
v -130.6139 13.82261 69.13545
v -142.2271 -4.120948 33.02348
v -127.5317 12.39719 68.56054
v -141.8846 -4.279329 32.9596
v -127.5317 12.39719 68.56054
v -141.8846 -4.279329 32.9596
v -127.5317 12.39719 68.56054
v -127.5317 12.39719 68.56054
v -127.4193 11.09066 69.12726
v -127.1384 7.824326 70.54404
v -127.1384 7.824326 70.54404
v -127.1384 7.824327 70.54404
v -127.5317 12.39719 68.56054
v -127.5317 12.39719 68.56054
v -127.5317 12.39719 68.56054
v -141.8846 -4.279329 32.9596
v -141.8846 -4.279329 32.9596
v -141.8846 -4.279329 32.9596
v -127.5317 12.39719 68.56054
v -133.9877 10.99193 71.82162
v -127.5317 12.39719 68.56054
v -141.8846 -4.279329 32.9596
v -127.5317 12.39719 68.56054
v -134.7082 4.05893 50.76007
v -141.8846 -4.279329 32.9596
v -134.3149 -0.5139351 52.74357
v -141.8846 -4.279322 32.95961
v -141.8846 -4.279329 32.9596
v -141.7723 -5.585861 33.52631
v -148.3407 -5.684593 36.22068
v -141.8846 -4.279329 32.9596
v -133.9877 10.99193 71.82162
v -141.4914 -8.852195 34.9431
v -148.3407 -5.684593 36.22068
v -145.3093 -2.695529 33.59839
v -145.3093 -2.695527 33.59839
v -135.8881 17.77753 44.80956
v -128.7116 26.1158 62.61002
v -128.7116 26.11579 62.61003
v -128.4307 22.84946 64.02681
v -135.4948 13.20467 46.79306
v -128.3183 21.54293 64.59353
v -142.8341 6.760551 28.17099
v -143.0645 9.439274 27.00908
v -142.6712 4.866407 28.99259
v -128.7116 26.1158 62.61002
v -135.1001 23.92595 66.21143
v -137.2856 17.66144 70.02699
v -131.5126 20.44801 66.39423
v -130.912 20.65386 66.05568
v -130.6856 20.73148 65.92802
v -130.577 20.7687 65.86681
v -129.6332 21.09222 65.33476
v -128.6377 21.43344 64.7736
v -128.557 21.46111 64.72809
v -128.5498 21.46357 64.72404
v -128.5242 21.47234 64.70961
v -128.3183 21.54293 64.59353
v -131.5707 20.2814 66.4957
v -131.5851 20.24006 66.52088
v -131.5894 20.22776 66.52837
v -131.6218 20.13478 66.58501
v -131.994 19.06807 67.23471
v -132.3014 18.18681 67.77147
v -132.6053 17.31575 68.30201
v -132.5544 17.21284 68.3297
v -132.4404 16.98227 68.39175
v -132.1223 16.33902 68.56483
v -133.9877 10.99193 71.82162
v -131.9951 16.08177 68.63405
v -131.5614 15.2046 68.87008
v -131.2043 14.48235 69.06442
v -130.9564 13.98099 69.19933
v -130.7528 13.88686 69.16136
v -130.6929 13.85916 69.15019
v -130.6868 13.85633 69.14905
v -130.684 13.85502 69.14851
v -130.6804 13.85336 69.14785
v -130.6139 13.82261 69.13545
v -127.5317 12.39719 68.56054
v -127.5317 12.39719 68.56054
v -127.5317 12.39719 68.56054
v -127.1384 7.824326 70.54404
v -128.7116 26.1158 62.61002
v -149.453 7.24943 30.61049
v -135.1001 23.92595 66.21143
v -135.8881 17.77753 44.80956
v -151.6385 0.9849176 34.42605
v -137.2856 17.66144 70.02699
v -148.3407 -5.684593 36.22068
v -133.9877 10.99193 71.82162
v -143.0645 9.439274 27.00908
v -127.1384 7.824327 70.54404
v -134.7082 4.05893 50.76007
v -127.5317 12.39719 68.56054
v -134.3149 -0.5139351 52.74357
v -141.8846 -4.279322 32.95961
v -141.4914 -8.852195 34.9431
v -141.7723 -5.585861 33.52631
v -141.8846 -4.279329 32.9596
v -142.6712 4.866407 28.99259
v -149.453 7.24943 30.61049
v -142.8341 6.760551 28.17099
v -149.453 7.24943 30.61049
v -143.0645 9.439274 27.00908
v -142.6712 4.866407 28.99259
v -144.5245 4.231157 30.03731
v -142.6712 4.866407 28.99259
v -144.7548 4.152218 30.16714
v -144.8194 4.130056 30.20358
v -145.5461 3.880977 30.61322
v -145.6567 3.843064 30.67557
v -145.7736 3.802982 30.74149
v -145.7988 3.794357 30.75567
v -145.8655 3.771484 30.79329
v -151.6385 0.9849176 34.42605
v -146.1855 2.854067 31.35207
v -146.3886 2.272017 31.70658
v -146.5184 1.899978 31.93318
v -146.557 1.789259 32.00062
v -146.849 0.9524536 32.51029
v -146.8903 0.833931 32.58248
v -146.9245 0.7360125 32.64212
v -146.9582 0.6392279 32.70107
v -146.5003 -0.286931 32.95028
v -145.4742 -2.362053 33.50866
v -145.4247 -2.46211 33.53558
v -145.3765 -2.559571 33.56181
v -145.3368 -2.639823 33.5834
v -145.3093 -2.695527 33.59839
v -148.3407 -5.684593 36.22068
v -145.3093 -2.695529 33.59839
v -143.4775 -3.542701 33.2567
v -142.9383 -3.792055 33.15613
v -142.8832 -3.817511 33.14586
v -142.8577 -3.829316 33.1411
v -142.8255 -3.844234 33.13508
v -142.2271 -4.120948 33.02348
v -141.8846 -4.279329 32.9596
v -141.7723 -5.585861 33.52631
v -141.8846 -4.279329 32.9596
v -141.4914 -8.852195 34.9431

vn -0.07865794 0.9145723 -0.3966999
vn -0.07865799 0.9145722 -0.3967
vn 0.1634671 0.9537157 0.252399
vn 0.3429498 0.3984699 0.850651
vn 0.3429498 0.3984699 0.850651
vn 0.4308874 -0.8714109 0.234477
vn 0.1263679 -0.8490283 0.5130132
vn 0.9279295 -0.2845123 -0.2408319
vn 0.4308834 -0.8714123 0.2344789
vn 0.4308828 -0.8714126 0.2344794
vn 0.430883 -0.8714125 0.2344792
vn 0.4308838 -0.8714123 0.2344786
vn 0.4308847 -0.8714119 0.234478
vn 0.4308801 -0.8714134 0.2344813
vn 0.4308823 -0.8714127 0.2344797
vn 0.4308827 -0.8714125 0.2344794
vn 0.4308826 -0.8714127 0.2344795
vn 0.4308825 -0.8714126 0.2344796
vn 0.4308828 -0.8714125 0.2344794
vn 0.4308825 -0.8714127 0.2344796
vn 0.4308834 -0.8714123 0.234479
vn 0.4308847 -0.8714119 0.2344782
vn 0.4308829 -0.8714124 0.2344794
vn 0.4308822 -0.8714128 0.2344798
vn 0.5518533 -0.8182874 0.1608234
vn 0.8824756 -0.4469964 -0.1463943
vn 0.8949037 -0.4138648 -0.1669247
vn 0.8949033 -0.4138654 -0.1669243
vn 0.8949033 -0.4138657 -0.1669241
vn 0.8949028 -0.4138674 -0.1669229
vn 0.8949024 -0.4138684 -0.1669222
vn 0.894902 -0.4138697 -0.1669212
vn 0.8949028 -0.4138675 -0.1669228
vn 0.8949029 -0.4138665 -0.1669236
vn 0.8949032 -0.4138662 -0.1669239
vn 0.8949031 -0.4138661 -0.166924
vn 0.8949028 -0.413867 -0.1669233
vn 0.8949031 -0.4138665 -0.1669237
vn 0.8949034 -0.4138655 -0.1669243
vn 0.9117566 -0.3590963 -0.1993744
vn 0.8613108 0.2279993 -0.4540491
vn 0.8347014 0.2861153 -0.4705444
vn 0.8347009 0.2861162 -0.4705447
vn 0.8347006 0.2861168 -0.4705449
vn 0.8347006 0.2861168 -0.4705448
vn 0.8347008 0.2861164 -0.4705447
vn 0.8347011 0.286116 -0.4705445
vn 0.8347009 0.2861164 -0.4705447
vn 0.8347011 0.2861161 -0.4705446
vn 0.8347009 0.2861163 -0.4705446
vn 0.834701 0.2861164 -0.4705446
vn 0.8347011 0.2861159 -0.4705445
vn 0.7334207 0.452231 -0.5075251
vn 0.8347111 0.2860957 -0.470539
vn 0.2855426 0.8184964 -0.4985272
vn 0.2855414 0.8184969 -0.498527
vn 0.285541 0.8184972 -0.498527
vn 0.2855398 0.8184975 -0.4985269
vn 0.2855418 0.8184968 -0.4985271
vn 0.2855434 0.8184963 -0.4985271
vn 0.2855459 0.8184952 -0.4985273
vn 0.2855883 0.8184787 -0.4985301
vn 0.2855617 0.8184891 -0.4985284
vn 0.285535 0.8184996 -0.4985265
vn 0.2855388 0.818498 -0.4985269
vn 0.2855415 0.8184969 -0.498527
vn 0.285542 0.8184966 -0.4985271
vn 0.2855423 0.8184966 -0.4985272
vn 0.2855468 0.8184944 -0.4985281
vn 0.4314181 0.7376013 -0.5194451
vn -0.07865805 0.9145722 -0.3967001
vn -0.07865805 0.9145722 -0.3967001
vn -0.07865805 0.9145722 -0.3967001
vn 0.3429498 0.3984699 0.850651
vn -0.2855418 -0.8184969 0.4985269
vn 0.3429498 0.3984699 0.850651
vn 0.9383388 -0.1874096 -0.2905142
vn 0.2096908 0.896975 0.3891861
vn 0.2390399 0.8444463 0.479344
vn -0.05409303 0.9405718 -0.3352597
vn -0.07865805 0.9145722 -0.3967001
vn -0.07865805 0.9145722 -0.3967001
vn -0.07865805 0.9145722 -0.3967001
vn -0.04291493 0.9507511 -0.3069708
vn 0.3429498 0.3984699 0.850651
vn -0.07430354 0.9195443 -0.3858984
vn -0.07865805 0.9145722 -0.3967001
vn -0.02936708 0.9617324 -0.2724129
vn -0.07866426 0.9145727 -0.3966979
vn -0.09911334 0.8889977 -0.4470569
vn -0.2855417 -0.8184968 0.498527
vn -0.07868019 0.9145738 -0.396692
vn -0.3429504 -0.3984636 -0.8506538
vn -0.3429498 -0.3984699 -0.850651
vn -0.3429502 -0.3984699 -0.8506509
vn 0 0 0
vn -0.2855418 -0.8184968 0.4985271
vn -0.2855418 -0.8184968 0.4985271
vn -0.2855418 -0.8184969 0.4985271
vn -0.3429502 -0.3984699 -0.8506509
vn -0.3429502 -0.3984699 -0.8506509
vn 0.9360548 -0.06913774 -0.3449953
vn 0.9360548 -0.06913774 -0.3449953
vn 0.9360548 -0.06913774 -0.3449953
vn 0.9360548 -0.06913774 -0.3449953
vn 0.9360548 -0.06913774 -0.3449953
vn 0.9360548 -0.06913774 -0.3449953
vn 0.9360548 -0.06913774 -0.3449953
vn 0.9360548 -0.06913774 -0.3449953
vn 0.9360548 -0.06913774 -0.3449953
vn 0.3429498 0.3984699 0.850651
vn 0.3429498 0.3984699 0.850651
vn 0.3429498 0.3984699 0.850651
vn 0.3429498 0.3984699 0.850651
vn 0.3429498 0.3984699 0.850651
vn 0.3429498 0.3984699 0.850651
vn 0.3429498 0.3984699 0.850651
vn 0.3429498 0.3984699 0.850651
vn 0.3429498 0.3984699 0.850651
vn 0.3429498 0.3984699 0.850651
vn 0.3429498 0.3984699 0.850651
vn 0.3429498 0.3984699 0.850651
vn 0.3429498 0.3984699 0.850651
vn 0.3429498 0.3984699 0.850651
vn 0.3429498 0.3984699 0.850651
vn 0.3429498 0.3984699 0.850651
vn 0.3429498 0.3984699 0.850651
vn 0.3429498 0.3984699 0.850651
vn 0.3429498 0.3984699 0.850651
vn 0.3429498 0.3984699 0.850651
vn 0.3429498 0.3984699 0.850651
vn 0.3429498 0.3984699 0.850651
vn 0.3429498 0.3984699 0.850651
vn 0.3429498 0.3984699 0.850651
vn 0.3429498 0.3984699 0.850651
vn 0.3429498 0.3984699 0.850651
vn 0.3429498 0.3984699 0.850651
vn 0.3429498 0.3984699 0.850651
vn 0.3429498 0.3984699 0.850651
vn 0.3429498 0.3984699 0.850651
vn 0.3429498 0.3984699 0.850651
vn 0.3429498 0.3984699 0.850651
vn 0.3429498 0.3984699 0.850651
vn 0.3429498 0.3984699 0.850651
vn 0.3429498 0.3984699 0.850651
vn 0.3429498 0.3984699 0.850651
vn 0.3429498 0.3984699 0.850651
vn 0.3429498 0.3984699 0.850651
vn -0.430883 0.8714126 -0.2344792
vn -0.6278455 0.7708161 -0.1079492
vn -0.7936893 0.607286 0.03551488
vn -0.430883 0.8714124 -0.2344791
vn -0.9380165 0.1935773 0.2874951
vn -0.9164998 -0.0566013 0.3960113
vn -0.8347008 -0.2861165 0.4705446
vn -0.8347009 -0.2861165 0.4705446
vn -0.430883 0.8714125 -0.2344792
vn 0.9360548 -0.06913774 -0.3449953
vn 0.9360548 -0.06913774 -0.3449953
vn 0.9360548 -0.06913774 -0.3449953
vn 0.9360548 -0.06913774 -0.3449953
vn 0.9360548 -0.06913774 -0.3449953
vn 0.9360548 -0.06913774 -0.3449953
vn 0.9360548 -0.06913774 -0.3449953
vn 0.9360548 -0.06913774 -0.3449953
vn 0.007472237 -0.9763778 0.2159419
vn -0.3429499 -0.3984693 -0.8506513
vn -0.34295 -0.3984699 -0.8506509
vn -0.34295 -0.3984698 -0.850651
vn -0.34295 -0.3984699 -0.850651
vn -0.34295 -0.3984699 -0.850651
vn -0.34295 -0.3984697 -0.8506511
vn -0.34295 -0.3984697 -0.8506511
vn -0.34295 -0.3984697 -0.8506511
vn -0.34295 -0.3984697 -0.8506511
vn -0.34295 -0.3984697 -0.8506511
vn -0.3429499 -0.3984696 -0.8506511
vn -0.34295 -0.3984697 -0.8506511
vn -0.3429499 -0.3984696 -0.8506511
vn -0.3429501 -0.3984698 -0.850651
vn -0.3429501 -0.3984699 -0.850651
vn -0.3429501 -0.3984698 -0.850651
vn -0.3429501 -0.3984698 -0.850651
vn -0.3429501 -0.3984698 -0.850651
vn -0.3429501 -0.3984698 -0.850651
vn -0.3429501 -0.3984698 -0.850651
vn -0.3429501 -0.3984698 -0.850651
vn -0.3429501 -0.3984698 -0.850651
vn -0.3429501 -0.39847 -0.8506509
vn -0.3429501 -0.39847 -0.8506509
vn -0.3429501 -0.39847 -0.8506509
vn -0.3429501 -0.39847 -0.8506509
vn -0.3429501 -0.39847 -0.8506509
vn -0.3429501 -0.39847 -0.8506509
vn -0.3429501 -0.39847 -0.8506509
vn -0.34295 -0.39847 -0.8506509
vn -0.3429499 -0.3984702 -0.8506509
vn -0.3429499 -0.3984702 -0.8506509
vn -0.3429499 -0.3984702 -0.8506509
vn -0.3429499 -0.3984702 -0.8506509
vn -0.3429499 -0.3984702 -0.8506509
vn -0.3429499 -0.3984702 -0.8506509
vn -0.3429499 -0.3984702 -0.8506509
vn -0.3429499 -0.3984702 -0.8506508
vn -0.34295 -0.3984699 -0.850651
vn -0.34295 -0.3984699 -0.850651
vn -0.34295 -0.3984699 -0.8506509

f 1//1 2//2 3//3
f 4//4 1//1 3//3
f 3//3 5//5 4//4
f 3//3 6//6 5//5
f 5//5 6//6 7//7
f 8//8 7//7 6//6
f 9//9 8//8 6//6
f 10//10 9//9 6//6
f 9//9 10//10 11//11
f 11//11 10//10 12//12
f 13//13 11//11 12//12
f 13//13 12//12 14//14
f 13//13 14//14 15//15
f 15//15 14//14 16//16
f 15//15 16//16 17//17
f 18//18 17//17 16//16
f 19//19 17//17 18//18
f 19//19 18//18 20//20
f 21//21 19//19 20//20
f 22//22 19//19 21//21
f 22//22 21//21 23//23
f 24//24 22//22 23//23
f 24//24 23//23 25//25
f 26//26 24//24 25//25
f 26//26 25//25 27//27
f 28//28 26//26 27//27
f 28//28 27//27 29//29
f 29//29 27//27 30//30
f 31//31 29//29 30//30
f 31//31 30//30 32//32
f 33//33 31//31 32//32
f 33//33 32//32 34//34
f 35//35 33//33 34//34
f 35//35 34//34 36//36
f 37//37 35//35 36//36
f 37//37 36//36 38//38
f 39//39 37//37 38//38
f 39//39 38//38 40//40
f 41//41 39//39 40//40
f 41//41 40//40 42//42
f 41//41 42//42 43//43
f 43//43 42//42 44//44
f 45//45 43//43 44//44
f 45//45 44//44 46//46
f 47//47 45//45 46//46
f 48//48 45//45 47//47
f 48//48 47//47 49//49
f 50//50 48//48 49//49
f 50//50 49//49 51//51
f 52//52 50//50 51//51
f 52//52 51//51 53//53
f 54//54 52//52 53//53
f 55//55 54//54 53//53
f 55//55 53//53 56//56
f 55//55 56//56 57//57
f 57//57 56//56 58//58
f 57//57 58//58 59//59
f 59//59 58//58 60//60
f 59//59 60//60 61//61
f 61//61 60//60 62//62
f 61//61 62//62 63//63
f 63//63 62//62 64//64
f 63//63 64//64 65//65
f 65//65 64//64 66//66
f 65//65 66//66 67//67
f 68//68 67//67 66//66
f 69//69 67//67 68//68
f 69//69 68//68 70//70
f 71//71 69//69 70//70
f 72//72 71//71 73//73
f 74//74 75//75 76//76
f 77//77 74//74 76//76
f 75//75 77//77 76//76
f 78//78 75//75 74//74
f 79//79 75//75 78//78
f 78//78 74//74 80//80
f 81//81 78//78 80//80
f 82//82 78//78 81//81
f 82//82 83//83 78//78
f 83//83 84//84 79//79
f 84//84 85//85 79//79
f 80//80 74//74 86//86
f 87//87 80//80 86//86
f 81//81 80//80 87//87
f 86//86 74//74 88//88
f 88//88 74//74 77//77
f 86//86 88//88 89//89
f 90//90 86//86 89//89
f 87//87 86//86 90//90
f 75//75 91//91 77//77
f 90//90 89//89 92//92
f 90//90 92//92 93//93
f 94//94 90//90 93//93
f 95//95 83//83 82//82
f 95//95 82//82 81//81
f 95//95 81//81 87//87
f 95//95 87//87 90//90
f 95//95 96//96 83//83
f 97//97 91//91 75//75
f 97//97 98//98 91//91
f 97//97 99//99 98//98
f 100//100 95//95 101//101
f 102//102 103//103 104//104
f 102//102 104//104 105//105
f 102//102 105//105 106//106
f 106//106 105//105 107//107
f 108//108 102//102 106//106
f 109//109 102//102 108//108
f 110//110 108//108 106//106
f 111//111 112//112 113//113
f 111//111 113//113 114//114
f 111//111 114//114 115//115
f 111//111 115//115 116//116
f 111//111 116//116 117//117
f 117//117 118//118 111//111
f 118//118 119//119 111//111
f 120//120 111//111 119//119
f 120//120 121//121 111//111
f 121//121 122//122 111//111
f 111//111 122//122 123//123
f 114//114 113//113 124//124
f 124//124 113//113 125//125
f 125//125 113//113 126//126
f 126//126 113//113 127//127
f 127//127 113//113 128//128
f 128//128 113//113 129//129
f 129//129 113//113 130//130
f 130//130 113//113 131//131
f 131//131 113//113 132//132
f 132//132 113//113 133//133
f 133//133 113//113 134//134
f 133//133 134//134 135//135
f 135//135 134//134 136//136
f 134//134 137//137 136//136
f 137//137 134//134 138//138
f 138//138 134//134 139//139
f 139//139 134//134 140//140
f 140//140 134//134 141//141
f 134//134 142//142 141//141
f 134//134 143//143 142//142
f 134//134 144//144 143//143
f 144//144 134//134 145//145
f 145//145 134//134 146//146
f 147//147 134//134 148//148
f 149//149 150//150 151//151
f 149//149 152//152 150//150
f 151//151 150//150 153//153
f 151//151 153//153 154//154
f 154//154 153//153 155//155
f 154//154 155//155 156//156
f 152//152 157//157 150//150
f 158//158 159//159 160//160
f 161//161 159//159 158//158
f 162//162 159//159 161//161
f 163//163 162//162 161//161
f 164//164 162//162 163//163
f 165//165 162//162 164//164
f 9//9 166//166 8//8
f 166//166 9//9 167//167
f 168//168 169//169 170//170
f 168//168 171//171 169//169
f 172//172 169//169 173//173
f 174//174 169//169 172//172
f 169//169 174//174 175//175
f 176//176 169//169 175//175
f 177//177 169//169 176//176
f 178//178 169//169 177//177
f 178//178 179//179 169//169
f 179//179 180//180 169//169
f 180//180 181//181 169//169
f 182//182 181//181 180//180
f 182//182 183//183 181//181
f 183//183 184//184 181//181
f 184//184 185//185 181//181
f 185//185 186//186 181//181
f 186//186 187//187 181//181
f 187//187 188//188 181//181
f 188//188 189//189 181//181
f 181//181 189//189 190//190
f 181//181 190//190 191//191
f 192//192 181//181 191//191
f 193//193 181//181 192//192
f 194//194 181//181 193//193
f 195//195 181//181 194//194
f 195//195 196//196 181//181
f 196//196 197//197 198//198
f 196//196 198//198 199//199
f 199//199 200//200 196//196
f 196//196 200//200 201//201
f 201//201 202//202 196//196
f 196//196 202//202 203//203
f 196//196 203//203 204//204
f 205//205 196//196 206//206
f 207//207 196//196 205//205
