v -125.1753 73.03112 -13.40234
v -133.2565 53.72883 -13.40235
v -125.1753 73.03112 -13.40234
v -125.1753 73.03112 -13.40234
v -124.5275 72.7599 -16.90404
v -124.2683 72.65142 -18.30472
v -124.2683 72.65142 -18.30472
v -132.3496 53.34913 -18.30472
v -140.4308 34.04684 -18.30473
v -124.0451 72.55795 -18.35246
v -138.4216 33.20562 -18.73443
v -124.0173 72.54633 -18.35839
v -138.1719 33.10109 -18.78783
v -124.0096 72.54308 -18.36006
v -138.1018 33.07174 -18.80282
v -123.922 72.50642 -18.37878
v -137.3139 32.7419 -18.9713
v -122.8428 72.05457 -18.60959
v -137.194 32.6917 -18.99695
v -121.8195 71.62616 -18.82842
v -121.7018 71.57687 -18.8536
v -137.0672 32.63862 -19.02406
v -121.4562 71.47408 -18.9061
v -137.04 32.6272 -19.0299
v -120.8051 71.20148 -19.04535
v -136.9676 32.59691 -19.04537
v -120.7006 71.15771 -19.21442
v -136.3919 32.35585 -19.97634
v -136.0266 32.20292 -20.56699
v -120.6746 71.14685 -19.25637
v -135.7931 32.10516 -20.94452
v -120.6669 71.14362 -19.26885
v -135.7236 32.07607 -21.05688
v -120.6086 71.11919 -19.3632
v -135.1984 31.8562 -21.90604
v -119.9391 70.83891 -20.44567
v -135.124 31.82506 -22.02632
v -119.386 70.60735 -21.33995
v -135.0626 31.79933 -22.12568
v -118.8393 70.37848 -22.22388
v -135.0018 31.7739 -22.2239
v -118.8604 70.38731 -22.33974
v -135.1916 31.85334 -23.26662
v -118.9077 70.40708 -22.59933
v -135.6167 32.03133 -25.60293
v -119.0394 70.46225 -23.32354
v -119.0921 70.48431 -23.61317
v -135.6372 32.03991 -25.71558
v -119.2719 70.55956 -24.60074
v -135.6572 32.04826 -25.82531
v -119.4198 70.62151 -25.4139
v -135.6736 32.05515 -25.91566
v -119.5225 70.66451 -25.97836
v -135.685 32.05993 -25.97838
v -135.685 32.05993 -25.97838
v -119.6968 70.73746 -26.10502
v -137.2533 32.71652 -27.11831
v -119.7481 70.75893 -26.1423
v -137.7149 32.90978 -27.45383
v -119.7533 70.76112 -26.1461
v -137.762 32.92951 -27.48808
v -119.7557 70.76214 -26.14787
v -137.7839 32.93866 -27.50397
v -119.7588 70.76343 -26.1501
v -137.8115 32.95022 -27.52404
v -119.8157 70.78725 -26.19147
v -138.3238 33.16469 -27.89638
v -122.4545 71.89201 -28.10947
v -138.617 33.28744 -28.10949
v -122.4545 71.89201 -28.10947
v -138.617 33.28744 -28.10949
v -122.4545 71.89201 -28.10947
v -122.4545 71.89201 -28.10947
v -122.1953 71.78352 -29.51015
v -121.5475 71.51231 -33.01185
v -121.5475 71.51231 -33.01185
v -121.5475 71.51231 -33.01185
v -122.4545 71.89201 -28.10947
v -122.4545 71.89201 -28.10947
v -122.4545 71.89201 -28.10947
v -138.617 33.28744 -28.10949
v -138.617 33.28744 -28.10949
v -138.617 33.28744 -28.10949
v -122.4545 71.89201 -28.10947
v -115.6836 69.05729 -28.74963
v -122.4545 71.89201 -28.10947
v -138.617 33.28744 -28.10949
v -122.4545 71.89201 -28.10947
v -130.5357 52.58972 -28.10948
v -138.617 33.28744 -28.10949
v -129.6288 52.21002 -33.01186
v -138.6169 33.28745 -28.10949
v -138.617 33.28744 -28.10949
v -138.3578 33.17895 -29.51017
v -131.8461 30.45272 -28.74965
v -138.617 33.28744 -28.10949
v -115.6836 69.05729 -28.74963
v -137.71 32.90773 -33.01186
v -131.8461 30.45272 -28.74965
v -135.685 32.05993 -25.97838
v -135.685 32.05993 -25.97838
v -133.2565 53.72883 -13.40235
v -125.1753 73.03112 -13.40234
v -125.1753 73.03112 -13.40234
v -124.5275 72.7599 -16.90404
v -132.3496 53.34913 -18.30472
v -124.2683 72.65142 -18.30472
v -140.8065 34.20412 -16.2741
v -141.3378 34.42654 -13.40235
v -140.4308 34.04684 -18.30473
v -125.1753 73.03112 -13.40234
v -118.2489 70.13126 -14.88361
v -114.3173 68.48524 -21.24067
v -120.8051 71.20148 -19.04535
v -121.4562 71.47408 -18.9061
v -121.7018 71.57687 -18.8536
v -121.8195 71.62616 -18.82842
v -122.8428 72.05457 -18.60959
v -123.922 72.50642 -18.37878
v -124.0096 72.54308 -18.36006
v -124.0173 72.54633 -18.35839
v -124.0451 72.55795 -18.35246
v -124.2683 72.65142 -18.30472
v -120.7006 71.15771 -19.21442
v -120.6746 71.14685 -19.25637
v -120.6669 71.14362 -19.26885
v -120.6086 71.11919 -19.3632
v -119.9391 70.83891 -20.44567
v -119.386 70.60735 -21.33995
v -118.8393 70.37848 -22.22388
v -118.8604 70.38731 -22.33974
v -118.9077 70.40708 -22.59933
v -119.0394 70.46225 -23.32354
v -115.6836 69.05729 -28.74963
v -119.0921 70.48431 -23.61317
v -119.2719 70.55956 -24.60074
v -119.4198 70.62151 -25.4139
v -119.5225 70.66451 -25.97836
v -119.6968 70.73746 -26.10502
v -119.7481 70.75893 -26.1423
v -119.7533 70.76112 -26.1461
v -119.7557 70.76214 -26.14787
v -119.7588 70.76343 -26.1501
v -119.8157 70.78725 -26.19147
v -122.4545 71.89201 -28.10947
v -122.4545 71.89201 -28.10947
v -122.4545 71.89201 -28.10947
v -121.5475 71.51231 -33.01185
v -125.1753 73.03112 -13.40234
v -134.4113 31.52668 -14.88363
v -118.2489 70.13126 -14.88361
v -133.2565 53.72883 -13.40235
v -130.4798 29.88066 -21.24068
v -114.3173 68.48524 -21.24067
v -131.8461 30.45272 -28.74965
v -115.6836 69.05729 -28.74963
v -141.3378 34.42654 -13.40235
v -121.5475 71.51231 -33.01185
v -130.5357 52.58972 -28.10948
v -122.4545 71.89201 -28.10947
v -129.6288 52.21002 -33.01186
v -138.6169 33.28745 -28.10949
v -137.71 32.90773 -33.01186
v -138.3578 33.17895 -29.51017
v -138.617 33.28744 -28.10949
v -140.4308 34.04684 -18.30473
v -134.4113 31.52668 -14.88363
v -140.8065 34.20412 -16.2741
v -134.4113 31.52668 -14.88363
v -141.3378 34.42654 -13.40235
v -140.4308 34.04684 -18.30473
v -138.4216 33.20562 -18.73443
v -140.4308 34.04684 -18.30473
v -138.1719 33.10109 -18.78783
v -138.1018 33.07174 -18.80282
v -137.3139 32.7419 -18.9713
v -137.194 32.6917 -18.99695
v -137.0672 32.63862 -19.02406
v -137.04 32.6272 -19.0299
v -136.9676 32.59691 -19.04537
v -130.4798 29.88066 -21.24068
v -136.3919 32.35585 -19.97634
v -136.0266 32.20292 -20.56699
v -135.7931 32.10516 -20.94452
v -135.7236 32.07607 -21.05688
v -135.1984 31.8562 -21.90604
v -135.124 31.82506 -22.02632
v -135.0626 31.79933 -22.12568
v -135.0018 31.7739 -22.2239
v -135.1916 31.85334 -23.26662
v -135.6167 32.03133 -25.60293
v -135.6372 32.03991 -25.71558
v -135.6572 32.04826 -25.82531
v -135.6736 32.05515 -25.91566
v -135.685 32.05993 -25.97838
v -131.8461 30.45272 -28.74965
v -135.685 32.05993 -25.97838
v -137.2533 32.71652 -27.11831
v -137.7149 32.90978 -27.45383
v -137.762 32.92951 -27.48808
v -137.7839 32.93866 -27.50397
v -137.8115 32.95022 -27.52404
v -138.3238 33.16469 -27.89638
v -138.617 33.28744 -28.10949
v -138.3578 33.17895 -29.51017
v -138.617 33.28744 -28.10949
v -137.71 32.90773 -33.01186

vn -0.1813872 0.07594107 0.9804752
vn -0.1813873 0.07594093 0.9804752
vn 0.1136079 0.6579614 0.7444326
vn 0.3861876 0.9224201 5.364418E-07
vn 0.3861876 0.9224201 5.364418E-07
vn -0.1785271 0.07474398 -0.9810919
vn 0.2341794 0.05527219 -0.9706209
vn -0.8353896 0.3497508 -0.4240263
vn -0.178523 0.07474197 -0.9810927
vn -0.1785222 0.07474169 -0.981093
vn -0.1785226 0.07474178 -0.9810929
vn -0.1785235 0.07474209 -0.9810927
vn -0.1785245 0.07474244 -0.9810924
vn -0.178519 0.07474079 -0.9810936
vn -0.1785216 0.07474157 -0.981093
vn -0.1785221 0.07474173 -0.9810929
vn -0.178522 0.0747417 -0.981093
vn -0.1785219 0.07474165 -0.981093
vn -0.1785222 0.07474175 -0.9810929
vn -0.1785219 0.07474161 -0.981093
vn -0.1785229 0.07474206 -0.9810928
vn -0.1785244 0.07474261 -0.9810924
vn -0.1785223 0.07474189 -0.9810928
vn -0.1785216 0.07474154 -0.9810931
vn -0.3129802 0.131035 -0.9406769
vn -0.7445016 0.3116989 -0.5903904
vn -0.7661533 0.3207637 -0.5568839
vn -0.7661527 0.3207635 -0.5568845
vn -0.7661526 0.3207635 -0.5568848
vn -0.7661515 0.3207632 -0.5568866
vn -0.7661508 0.320763 -0.5568876
vn -0.7661498 0.3207628 -0.5568891
vn -0.7661514 0.3207632 -0.5568867
vn -0.766152 0.3207633 -0.5568857
vn -0.7661524 0.3207634 -0.5568853
vn -0.7661524 0.3207633 -0.5568852
vn -0.7661518 0.3207631 -0.5568861
vn -0.7661522 0.3207633 -0.5568856
vn -0.7661528 0.3207635 -0.5568846
vn -0.798301 0.3342229 -0.5010094
vn -0.9147867 0.3829916 0.1283854
vn -0.9049802 0.3788859 0.1935359
vn -0.9049801 0.3788858 0.193537
vn -0.90498 0.3788857 0.1935377
vn -0.9049799 0.3788857 0.1935377
vn -0.9049799 0.3788858 0.1935373
vn -0.9049801 0.378886 0.1935367
vn -0.9049801 0.3788859 0.1935372
vn -0.9049801 0.3788859 0.1935368
vn -0.9049799 0.3788859 0.1935371
vn -0.9049801 0.3788859 0.1935371
vn -0.9049801 0.3788859 0.1935367
vn -0.8520531 0.3567271 0.3830814
vn -0.9049842 0.3788877 0.1935138
vn -0.5136832 0.2150624 0.8305888
vn -0.5136822 0.2150619 0.8305894
vn -0.5136819 0.2150618 0.8305898
vn -0.513681 0.2150612 0.8305904
vn -0.5136825 0.2150621 0.8305892
vn -0.5136837 0.2150629 0.8305885
vn -0.5136856 0.215064 0.8305868
vn -0.5137181 0.2150837 0.8305616
vn -0.5136978 0.2150713 0.8305774
vn -0.5136772 0.2150591 0.8305933
vn -0.5136803 0.2150608 0.8305911
vn -0.5136823 0.215062 0.8305894
vn -0.5136828 0.2150622 0.8305891
vn -0.513683 0.2150623 0.8305889
vn -0.5136869 0.2150638 0.8305861
vn -0.6347672 0.2657563 0.7255648
vn -0.1813873 0.07594076 0.9804752
vn -0.1813873 0.07594076 0.9804752
vn -0.1813873 0.07594076 0.9804752
vn 0.3861876 0.9224201 5.364418E-07
vn 0.5136824 -0.2150622 -0.8305893
vn 0.3861876 0.9224201 5.364418E-07
vn -0.8731669 0.3655668 -0.3223979
vn 0.1758495 0.7507219 0.6367835
vn 0.2168914 0.8049025 0.5523495
vn -0.1534907 0.1412859 0.9779974
vn -0.1813873 0.07594076 0.9804752
vn -0.1813873 0.07594076 0.9804752
vn -0.1813873 0.07594076 0.9804752
vn -0.1406442 0.1705486 0.9752601
vn 0.3861876 0.9224201 5.364418E-07
vn -0.1764876 0.08761761 0.9803954
vn -0.1813873 0.07594076 0.9804752
vn -0.1249491 0.2056274 0.9706209
vn -0.1813814 0.07593825 0.9804764
vn -0.2042418 0.02041761 0.9787075
vn 0.5136825 -0.2150621 -0.8305892
vn -0.181366 0.0759318 0.9804798
vn -0.3861888 -0.9224196 6.270758E-06
vn -0.3861876 -0.9224201 -5.364418E-07
vn -0.3861872 -0.9224203 -4.515741E-07
vn 0 0 0
vn 0.5136825 -0.2150622 -0.8305892
vn 0.5136825 -0.2150621 -0.8305892
vn 0.5136825 -0.2150622 -0.8305893
vn -0.3861872 -0.9224203 -4.515741E-07
vn -0.3861872 -0.9224203 -4.515741E-07
vn -0.9044101 0.3786474 -0.1966426
vn -0.9044101 0.3786474 -0.1966426
vn -0.9044101 0.3786474 -0.1966426
vn -0.9044101 0.3786474 -0.1966426
vn -0.9044101 0.3786474 -0.1966426
vn -0.9044101 0.3786474 -0.1966426
vn -0.9044101 0.3786474 -0.1966426
vn -0.9044101 0.3786474 -0.1966426
vn -0.9044101 0.3786474 -0.1966426
vn 0.3861876 0.9224201 5.364418E-07
vn 0.3861876 0.9224201 5.364418E-07
vn 0.3861876 0.9224201 5.364418E-07
vn 0.3861876 0.9224201 5.364418E-07
vn 0.3861876 0.9224201 5.364418E-07
vn 0.3861876 0.9224201 5.364418E-07
vn 0.3861876 0.9224201 5.364418E-07
vn 0.3861876 0.9224201 5.364418E-07
vn 0.3861876 0.9224201 5.364418E-07
vn 0.3861876 0.9224201 5.364418E-07
vn 0.3861876 0.9224201 5.364418E-07
vn 0.3861876 0.9224201 5.364418E-07
vn 0.3861876 0.9224201 5.364418E-07
vn 0.3861876 0.9224201 5.364417E-07
vn 0.3861876 0.9224201 5.364418E-07
vn 0.3861876 0.9224201 5.364418E-07
vn 0.3861876 0.9224201 5.364417E-07
vn 0.3861876 0.9224201 5.364418E-07
vn 0.3861876 0.9224201 5.364418E-07
vn 0.3861876 0.9224201 5.364418E-07
vn 0.3861876 0.9224201 5.364417E-07
vn 0.3861876 0.9224201 5.364418E-07
vn 0.3861876 0.9224201 5.364418E-07
vn 0.3861876 0.9224201 5.364418E-07
vn 0.3861876 0.9224201 5.364418E-07
vn 0.3861876 0.9224201 5.364418E-07
vn 0.3861876 0.9224201 5.364418E-07
vn 0.3861876 0.9224201 5.364418E-07
vn 0.3861876 0.9224201 5.364418E-07
vn 0.3861876 0.9224201 5.364418E-07
vn 0.3861876 0.9224201 5.364418E-07
vn 0.3861876 0.9224201 5.364417E-07
vn 0.3861876 0.9224201 5.364418E-07
vn 0.3861876 0.9224201 5.364417E-07
vn 0.3861876 0.9224201 5.364417E-07
vn 0.3861876 0.9224201 5.364418E-07
vn 0.3861876 0.9224201 5.364417E-07
vn 0.3861876 0.9224201 5.364417E-07
vn 0.1785226 -0.0747418 0.9810929
vn 0.4014384 -0.1680695 0.9003331
vn 0.6114612 -0.2559992 0.7487185
vn 0.1785226 -0.07474181 0.9810928
vn 0.8711019 -0.3647023 0.3288978
vn 0.9207198 -0.3854757 0.06069157
vn 0.9049799 -0.3788859 -0.1935373
vn 0.90498 -0.3788859 -0.1935373
vn 0.1785225 -0.07474183 0.9810929
vn -0.9044101 0.3786474 -0.1966426
vn -0.9044101 0.3786474 -0.1966426
vn -0.9044101 0.3786474 -0.1966426
vn -0.9044101 0.3786474 -0.1966426
vn -0.9044101 0.3786474 -0.1966426
vn -0.9044101 0.3786474 -0.1966426
vn -0.9044101 0.3786474 -0.1966426
vn -0.9044101 0.3786474 -0.1966426
vn 0.09929802 -0.2614323 -0.9601005
vn -0.3861877 -0.9224201 1.859319E-07
vn -0.3861874 -0.9224201 -4.940079E-07
vn -0.3861874 -0.9224202 -3.810733E-07
vn -0.3861874 -0.9224202 -4.94008E-07
vn -0.3861874 -0.9224202 -4.94008E-07
vn -0.3861875 -0.9224201 -2.123676E-07
vn -0.3861875 -0.9224201 -2.123675E-07
vn -0.3861875 -0.9224201 -2.12368E-07
vn -0.3861875 -0.9224201 -2.123674E-07
vn -0.3861875 -0.9224201 -2.123673E-07
vn -0.3861875 -0.9224201 -2.123677E-07
vn -0.3861875 -0.9224201 -2.12369E-07
vn -0.3861875 -0.9224201 -2.12366E-07
vn -0.3861873 -0.9224203 -3.512264E-07
vn -0.3861873 -0.9224203 -4.764312E-07
vn -0.3861873 -0.9224203 -3.524921E-07
vn -0.3861873 -0.9224203 -3.524915E-07
vn -0.3861873 -0.9224203 -3.524908E-07
vn -0.3861873 -0.9224203 -3.524912E-07
vn -0.3861873 -0.9224203 -3.524913E-07
vn -0.3861873 -0.9224203 -3.524914E-07
vn -0.3861873 -0.9224203 -3.52492E-07
vn -0.3861873 -0.9224203 -5.755537E-07
vn -0.3861873 -0.9224203 -6.00371E-07
vn -0.3861873 -0.9224203 -6.003712E-07
vn -0.3861873 -0.9224203 -6.003706E-07
vn -0.3861873 -0.9224203 -6.003719E-07
vn -0.3861873 -0.9224203 -6.003713E-07
vn -0.3861873 -0.9224203 -6.00371E-07
vn -0.3861873 -0.9224203 -5.99912E-07
vn -0.3861874 -0.9224202 -8.108019E-07
vn -0.3861874 -0.9224202 -8.108021E-07
vn -0.3861874 -0.9224202 -8.108025E-07
vn -0.3861874 -0.9224202 -8.107953E-07
vn -0.3861874 -0.9224202 -8.108033E-07
vn -0.3861874 -0.9224202 -8.108027E-07
vn -0.3861874 -0.9224202 -8.108012E-07
vn -0.3861874 -0.9224201 -8.108E-07
vn -0.3861874 -0.9224202 -4.94008E-07
vn -0.3861874 -0.9224202 -4.94008E-07
vn -0.3861874 -0.9224201 -4.940079E-07

f 1//1 2//2 3//3
f 4//4 1//1 3//3
f 3//3 5//5 4//4
f 3//3 6//6 5//5
f 5//5 6//6 7//7
f 8//8 7//7 6//6
f 9//9 8//8 6//6
f 10//10 9//9 6//6
f 9//9 10//10 11//11
f 11//11 10//10 12//12
f 13//13 11//11 12//12
f 13//13 12//12 14//14
f 13//13 14//14 15//15
f 15//15 14//14 16//16
f 15//15 16//16 17//17
f 18//18 17//17 16//16
f 19//19 17//17 18//18
f 19//19 18//18 20//20
f 21//21 19//19 20//20
f 22//22 19//19 21//21
f 22//22 21//21 23//23
f 24//24 22//22 23//23
f 24//24 23//23 25//25
f 26//26 24//24 25//25
f 26//26 25//25 27//27
f 28//28 26//26 27//27
f 28//28 27//27 29//29
f 29//29 27//27 30//30
f 31//31 29//29 30//30
f 31//31 30//30 32//32
f 33//33 31//31 32//32
f 33//33 32//32 34//34
f 35//35 33//33 34//34
f 35//35 34//34 36//36
f 37//37 35//35 36//36
f 37//37 36//36 38//38
f 39//39 37//37 38//38
f 39//39 38//38 40//40
f 41//41 39//39 40//40
f 41//41 40//40 42//42
f 41//41 42//42 43//43
f 43//43 42//42 44//44
f 45//45 43//43 44//44
f 45//45 44//44 46//46
f 47//47 45//45 46//46
f 48//48 45//45 47//47
f 48//48 47//47 49//49
f 50//50 48//48 49//49
f 50//50 49//49 51//51
f 52//52 50//50 51//51
f 52//52 51//51 53//53
f 54//54 52//52 53//53
f 55//55 54//54 53//53
f 55//55 53//53 56//56
f 55//55 56//56 57//57
f 57//57 56//56 58//58
f 57//57 58//58 59//59
f 59//59 58//58 60//60
f 59//59 60//60 61//61
f 61//61 60//60 62//62
f 61//61 62//62 63//63
f 63//63 62//62 64//64
f 63//63 64//64 65//65
f 65//65 64//64 66//66
f 65//65 66//66 67//67
f 68//68 67//67 66//66
f 69//69 67//67 68//68
f 69//69 68//68 70//70
f 71//71 69//69 70//70
f 72//72 71//71 73//73
f 74//74 75//75 76//76
f 77//77 74//74 76//76
f 75//75 77//77 76//76
f 78//78 75//75 74//74
f 79//79 75//75 78//78
f 78//78 74//74 80//80
f 81//81 78//78 80//80
f 82//82 78//78 81//81
f 82//82 83//83 78//78
f 83//83 84//84 79//79
f 84//84 85//85 79//79
f 80//80 74//74 86//86
f 87//87 80//80 86//86
f 81//81 80//80 87//87
f 86//86 74//74 88//88
f 88//88 74//74 77//77
f 86//86 88//88 89//89
f 90//90 86//86 89//89
f 87//87 86//86 90//90
f 75//75 91//91 77//77
f 90//90 89//89 92//92
f 90//90 92//92 93//93
f 94//94 90//90 93//93
f 95//95 83//83 82//82
f 95//95 82//82 81//81
f 95//95 81//81 87//87
f 95//95 87//87 90//90
f 95//95 96//96 83//83
f 97//97 91//91 75//75
f 97//97 98//98 91//91
f 97//97 99//99 98//98
f 100//100 95//95 101//101
f 102//102 103//103 104//104
f 102//102 104//104 105//105
f 102//102 105//105 106//106
f 106//106 105//105 107//107
f 108//108 102//102 106//106
f 109//109 102//102 108//108
f 110//110 108//108 106//106
f 111//111 112//112 113//113
f 111//111 113//113 114//114
f 111//111 114//114 115//115
f 111//111 115//115 116//116
f 111//111 116//116 117//117
f 117//117 118//118 111//111
f 118//118 119//119 111//111
f 120//120 111//111 119//119
f 120//120 121//121 111//111
f 121//121 122//122 111//111
f 111//111 122//122 123//123
f 114//114 113//113 124//124
f 124//124 113//113 125//125
f 125//125 113//113 126//126
f 126//126 113//113 127//127
f 127//127 113//113 128//128
f 128//128 113//113 129//129
f 129//129 113//113 130//130
f 130//130 113//113 131//131
f 131//131 113//113 132//132
f 132//132 113//113 133//133
f 133//133 113//113 134//134
f 133//133 134//134 135//135
f 135//135 134//134 136//136
f 134//134 137//137 136//136
f 137//137 134//134 138//138
f 138//138 134//134 139//139
f 139//139 134//134 140//140
f 140//140 134//134 141//141
f 134//134 142//142 141//141
f 134//134 143//143 142//142
f 134//134 144//144 143//143
f 144//144 134//134 145//145
f 145//145 134//134 146//146
f 147//147 134//134 148//148
f 149//149 150//150 151//151
f 149//149 152//152 150//150
f 151//151 150//150 153//153
f 151//151 153//153 154//154
f 154//154 153//153 155//155
f 154//154 155//155 156//156
f 152//152 157//157 150//150
f 158//158 159//159 160//160
f 161//161 159//159 158//158
f 162//162 159//159 161//161
f 163//163 162//162 161//161
f 164//164 162//162 163//163
f 165//165 162//162 164//164
f 9//9 166//166 8//8
f 166//166 9//9 167//167
f 168//168 169//169 170//170
f 168//168 171//171 169//169
f 172//172 169//169 173//173
f 174//174 169//169 172//172
f 169//169 174//174 175//175
f 176//176 169//169 175//175
f 177//177 169//169 176//176
f 178//178 169//169 177//177
f 178//178 179//179 169//169
f 179//179 180//180 169//169
f 180//180 181//181 169//169
f 182//182 181//181 180//180
f 182//182 183//183 181//181
f 183//183 184//184 181//181
f 184//184 185//185 181//181
f 185//185 186//186 181//181
f 186//186 187//187 181//181
f 187//187 188//188 181//181
f 188//188 189//189 181//181
f 181//181 189//189 190//190
f 181//181 190//190 191//191
f 192//192 181//181 191//191
f 193//193 181//181 192//192
f 194//194 181//181 193//193
f 195//195 181//181 194//194
f 195//195 196//196 181//181
f 196//196 197//197 198//198
f 196//196 198//198 199//199
f 199//199 200//200 196//196
f 196//196 200//200 201//201
f 201//201 202//202 196//196
f 196//196 202//202 203//203
f 196//196 203//203 204//204
f 205//205 196//196 206//206
f 207//207 196//196 205//205
