v -39.93002 -8.029593 138.3418
v -31.84877 11.27271 138.3418
v -39.93002 -8.029593 138.3418
v -39.93002 -8.029593 138.3418
v -43.1188 -6.694551 137.4449
v -44.39432 -6.160534 137.0862
v -44.39432 -6.160534 137.0862
v -36.31307 13.14177 137.0862
v -28.23182 32.44407 137.0862
v -44.53141 -6.10314 137.2831
v -29.46561 32.96062 138.8583
v -44.54844 -6.096008 137.3075
v -29.61893 33.02481 139.0785
v -44.55323 -6.094006 137.3144
v -29.66197 33.04283 139.1403
v -44.60698 -6.071503 137.3916
v -30.14574 33.24537 139.8352
v -45.2697 -5.794043 138.3435
v -30.21937 33.27619 139.9409
v -45.89804 -5.530977 139.246
v -45.97032 -5.500715 139.3498
v -30.29722 33.30878 140.0527
v -46.12109 -5.437593 139.5663
v -30.31397 33.3158 140.0768
v -46.5209 -5.270206 140.1406
v -30.35839 33.3344 140.1406
v -46.70686 -5.192352 140.1688
v -31.38235 33.76309 140.2957
v -32.03199 34.03508 140.3942
v -46.75299 -5.173035 140.1758
v -32.44723 34.20892 140.4571
v -46.76672 -5.167288 140.1778
v -32.5708 34.26066 140.4758
v -46.8705 -5.12384 140.1936
v -33.50478 34.65169 140.6173
v -48.06107 -4.625385 140.3739
v -33.63707 34.70707 140.6373
v -49.04468 -4.213581 140.5229
v -33.74636 34.75283 140.6539
v -50.01688 -3.806549 140.6702
v -33.85438 34.79805 140.6702
v -50.10383 -3.770149 140.5991
v -34.63688 35.12566 140.03
v -50.29863 -3.688591 140.4397
v -36.39012 35.85969 138.5954
v -50.84211 -3.461056 139.995
v -51.05945 -3.37006 139.8171
v -36.47466 35.89508 138.5262
v -51.80056 -3.059782 139.2107
v -36.557 35.92956 138.4588
v -52.41079 -2.8043 138.7114
v -36.62481 35.95794 138.4033
v -52.83437 -2.626957 138.3648
v -36.67187 35.97765 138.3648
v -36.67187 35.97765 138.3648
v -52.86341 -2.614801 138.1395
v -36.93319 36.08706 136.3375
v -52.87196 -2.611223 138.0732
v -37.01011 36.11926 135.7408
v -52.87283 -2.610857 138.0665
v -37.01796 36.12254 135.6799
v -52.87323 -2.610689 138.0633
v -37.0216 36.12407 135.6517
v -52.87374 -2.610474 138.0594
v -37.0262 36.126 135.616
v -52.88323 -2.606504 137.9858
v -37.11156 36.16173 134.9538
v -53.32292 -2.422419 134.5748
v -37.16042 36.18219 134.5748
v -53.32292 -2.422419 134.5748
v -37.16042 36.18219 134.5748
v -53.32292 -2.422419 134.5748
v -53.32292 -2.422419 134.5748
v -54.59843 -1.888403 134.216
v -57.78722 -0.5533609 133.3191
v -57.78722 -0.5533609 133.3191
v -57.78722 -0.5533619 133.3191
v -53.32292 -2.422419 134.5748
v -53.32292 -2.422419 134.5748
v -53.32292 -2.422419 134.5748
v -37.16042 36.18219 134.5748
v -37.16042 36.18219 134.5748
v -37.16042 36.18219 134.5748
v -53.32292 -2.422419 134.5748
v -56.81013 -0.9624386 140.8991
v -53.32292 -2.422419 134.5748
v -37.16042 36.18219 134.5748
v -53.32292 -2.422419 134.5748
v -45.24167 16.87988 134.5748
v -37.16042 36.18219 134.5748
v -49.70596 18.74894 133.3191
v -37.16042 36.18217 134.5748
v -37.16042 36.18219 134.5748
v -38.43593 36.7162 134.216
v -40.64762 37.64216 140.8991
v -37.16042 36.18219 134.5748
v -56.81013 -0.9624386 140.8991
v -41.62471 38.05124 133.3191
v -40.64762 37.64216 140.8991
v -36.67187 35.97765 138.3648
v -36.67187 35.97765 138.3648
v -31.84877 11.27271 138.3418
v -39.93002 -8.029593 138.3418
v -39.93002 -8.029593 138.3418
v -43.1188 -6.694551 137.4449
v -36.31307 13.14177 137.0862
v -44.39432 -6.160534 137.0862
v -26.38264 31.66988 137.6063
v -23.76752 30.57501 138.3418
v -28.23182 32.44407 137.0862
v -39.93002 -8.029593 138.3418
v -44.18318 -6.248934 144.4507
v -51.17515 -3.321623 145.51
v -46.5209 -5.270206 140.1406
v -46.12109 -5.437593 139.5663
v -45.97032 -5.500715 139.3498
v -45.89804 -5.530977 139.246
v -45.2697 -5.794043 138.3435
v -44.60698 -6.071503 137.3916
v -44.55323 -6.094006 137.3144
v -44.54844 -6.096008 137.3075
v -44.53141 -6.10314 137.2831
v -44.39432 -6.160534 137.0862
v -46.70686 -5.192352 140.1688
v -46.75299 -5.173035 140.1758
v -46.76672 -5.167288 140.1778
v -46.8705 -5.12384 140.1936
v -48.06107 -4.625385 140.3739
v -49.04468 -4.213581 140.5229
v -50.01688 -3.806549 140.6702
v -50.10383 -3.770149 140.5991
v -50.29863 -3.688591 140.4397
v -50.84211 -3.461056 139.995
v -56.81013 -0.9624386 140.8991
v -51.05945 -3.37006 139.8171
v -51.80056 -3.059782 139.2107
v -52.41079 -2.8043 138.7114
v -52.83437 -2.626957 138.3648
v -52.86341 -2.614801 138.1395
v -52.87196 -2.611223 138.0732
v -52.87283 -2.610857 138.0665
v -52.87323 -2.610689 138.0633
v -52.87374 -2.610474 138.0594
v -52.88323 -2.606504 137.9858
v -53.32292 -2.422419 134.5748
v -53.32292 -2.422419 134.5748
v -53.32292 -2.422419 134.5748
v -57.78722 -0.5533609 133.3191
v -39.93002 -8.029593 138.3418
v -28.02068 32.35567 144.4507
v -44.18318 -6.248934 144.4507
v -31.84877 11.27271 138.3418
v -35.01265 35.28298 145.51
v -51.17515 -3.321623 145.51
v -40.64762 37.64216 140.8991
v -56.81013 -0.9624386 140.8991
v -23.76752 30.57501 138.3418
v -57.78722 -0.5533619 133.3191
v -45.24167 16.87988 134.5748
v -53.32292 -2.422419 134.5748
v -49.70596 18.74894 133.3191
v -37.16042 36.18217 134.5748
v -41.62471 38.05124 133.3191
v -38.43593 36.7162 134.216
v -37.16042 36.18219 134.5748
v -28.23182 32.44407 137.0862
v -28.02068 32.35567 144.4507
v -26.38264 31.66988 137.6063
v -28.02068 32.35567 144.4507
v -23.76752 30.57501 138.3418
v -28.23182 32.44407 137.0862
v -29.46561 32.96062 138.8583
v -28.23182 32.44407 137.0862
v -29.61893 33.02481 139.0785
v -29.66197 33.04283 139.1403
v -30.14574 33.24537 139.8352
v -30.21937 33.27619 139.9409
v -30.29722 33.30878 140.0527
v -30.31397 33.3158 140.0768
v -30.35839 33.3344 140.1406
v -35.01265 35.28298 145.51
v -31.38235 33.76309 140.2957
v -32.03199 34.03508 140.3942
v -32.44723 34.20892 140.4571
v -32.5708 34.26066 140.4758
v -33.50478 34.65169 140.6173
v -33.63707 34.70707 140.6373
v -33.74636 34.75283 140.6539
v -33.85438 34.79805 140.6702
v -34.63688 35.12566 140.03
v -36.39012 35.85969 138.5954
v -36.47466 35.89508 138.5262
v -36.557 35.92956 138.4588
v -36.62481 35.95794 138.4033
v -36.67187 35.97765 138.3648
v -40.64762 37.64216 140.8991
v -36.67187 35.97765 138.3648
v -36.93319 36.08706 136.3375
v -37.01011 36.11926 135.7408
v -37.01796 36.12254 135.6799
v -37.0216 36.12407 135.6517
v -37.0262 36.126 135.616
v -37.11156 36.16173 134.9538
v -37.16042 36.18219 134.5748
v -38.43593 36.7162 134.216
v -37.16042 36.18219 134.5748
v -41.62471 38.05124 133.3191

vn 0.8928584 -0.3738115 0.2511356
vn 0.8928585 -0.3738114 0.2511356
vn 0.4265813 -0.8841217 0.1906762
vn -0.3861876 -0.9224204 -2.756715E-07
vn -0.3861876 -0.9224204 -2.756715E-07
vn -0.7362414 0.3082406 -0.6024421
vn -0.9385001 0.2396045 -0.2486117
vn 0.01282066 -0.005367278 -0.9999034
vn -0.7362438 0.3082419 -0.6024384
vn -0.7362444 0.3082421 -0.6024379
vn -0.7362441 0.3082421 -0.6024381
vn -0.7362436 0.3082419 -0.6024389
vn -0.7362429 0.3082417 -0.6024397
vn -0.7362464 0.3082425 -0.6024351
vn -0.7362447 0.3082421 -0.6024373
vn -0.7362444 0.308242 -0.6024377
vn -0.7362446 0.3082421 -0.6024377
vn -0.7362446 0.3082421 -0.6024376
vn -0.7362444 0.308242 -0.6024378
vn -0.7362446 0.3082421 -0.6024376
vn -0.736244 0.3082418 -0.6024384
vn -0.736243 0.3082415 -0.6024397
vn -0.7362443 0.3082419 -0.6024379
vn -0.7362448 0.3082421 -0.6024373
vn -0.6440036 0.2696237 -0.7159349
vn -0.1649197 0.06904687 -0.9838873
vn -0.1276609 0.05344791 -0.9903768
vn -0.1276617 0.05344817 -0.9903766
vn -0.127662 0.05344829 -0.9903767
vn -0.127664 0.05344895 -0.9903764
vn -0.1276652 0.05344936 -0.9903762
vn -0.1276668 0.05344981 -0.9903759
vn -0.1276641 0.05344898 -0.9903764
vn -0.127663 0.05344868 -0.9903764
vn -0.1276624 0.05344852 -0.9903767
vn -0.1276623 0.05344854 -0.9903765
vn -0.1276634 0.05344888 -0.9903764
vn -0.1276628 0.05344865 -0.9903765
vn -0.1276617 0.05344823 -0.9903767
vn -0.06725736 0.0281589 -0.9973384
vn 0.5059149 -0.21181 -0.8361741
vn 0.5557002 -0.2326535 -0.7981665
vn 0.5557011 -0.2326539 -0.7981659
vn 0.5557016 -0.232654 -0.7981656
vn 0.5557016 -0.232654 -0.7981655
vn 0.5557012 -0.2326539 -0.7981657
vn 0.5557008 -0.2326539 -0.798166
vn 0.5557011 -0.232654 -0.7981659
vn 0.5557009 -0.2326539 -0.7981661
vn 0.5557011 -0.232654 -0.7981658
vn 0.5557011 -0.232654 -0.7981659
vn 0.5557007 -0.2326538 -0.7981661
vn 0.6898923 -0.2888356 -0.6637945
vn 0.5556836 -0.2326467 -0.7981801
vn 0.9135433 -0.3824712 -0.1384006
vn 0.9135434 -0.3824712 -0.1383994
vn 0.9135436 -0.3824712 -0.1383989
vn 0.9135437 -0.3824711 -0.1383977
vn 0.9135435 -0.3824713 -0.1383998
vn 0.9135432 -0.3824715 -0.1384014
vn 0.9135426 -0.3824715 -0.1384041
vn 0.9135347 -0.3824743 -0.1384489
vn 0.9135398 -0.3824725 -0.1384208
vn 0.9135447 -0.382471 -0.1383926
vn 0.913544 -0.3824711 -0.1383966
vn 0.9135435 -0.3824712 -0.1383995
vn 0.9135433 -0.3824712 -0.1384001
vn 0.9135433 -0.3824712 -0.1384004
vn 0.9135427 -0.3824709 -0.1384053
vn 0.8792488 -0.3681131 -0.3023488
vn 0.8928586 -0.3738112 0.2511356
vn 0.8928586 -0.3738112 0.2511356
vn 0.8928586 -0.3738112 0.2511356
vn -0.3861876 -0.9224204 -2.756715E-07
vn -0.9135434 0.3824714 0.1383997
vn -0.3861876 -0.9224204 -2.756715E-07
vn 0.1136519 -0.04758208 -0.9923807
vn 0.2862253 -0.9441782 0.1631033
vn 0.1839147 -0.9727076 0.1414766
vn 0.8631639 -0.4384036 0.2505009
vn 0.8928586 -0.3738112 0.2511356
vn 0.8928586 -0.3738112 0.2511356
vn 0.8928586 -0.3738112 0.2511356
vn 0.8483312 -0.4668347 0.2497998
vn -0.3861876 -0.9224204 -2.756715E-07
vn 0.887898 -0.3854626 0.2511099
vn 0.8928586 -0.3738112 0.2511356
vn 0.8292697 -0.5005041 0.2486115
vn 0.892857 -0.3738106 0.2511421
vn 0.9144337 -0.3177525 0.2506886
vn -0.9135433 0.3824713 0.1383997
vn 0.8928531 -0.373809 0.2511585
vn 0.3861938 0.9224178 2.019245E-06
vn 0.3861876 0.9224204 2.756715E-07
vn 0.3861875 0.9224204 6.934236E-07
vn 0 0 0
vn -0.9135435 0.3824713 0.1383998
vn -0.9135435 0.3824713 0.1383998
vn -0.9135435 0.3824713 0.1383998
vn 0.3861875 0.9224204 6.934236E-07
vn 0.3861875 0.9224204 6.934236E-07
vn 0.2316527 -0.09698527 -0.967952
vn 0.2316527 -0.09698526 -0.967952
vn 0.2316527 -0.09698527 -0.967952
vn 0.2316527 -0.09698527 -0.967952
vn 0.2316527 -0.09698527 -0.967952
vn 0.2316527 -0.09698527 -0.967952
vn 0.2316527 -0.09698527 -0.967952
vn 0.2316527 -0.09698527 -0.967952
vn 0.2316527 -0.09698527 -0.967952
vn -0.3861876 -0.9224204 -2.756715E-07
vn -0.3861876 -0.9224204 -2.756715E-07
vn -0.3861876 -0.9224204 -2.756715E-07
vn -0.3861876 -0.9224204 -2.756715E-07
vn -0.3861876 -0.9224204 -2.756715E-07
vn -0.3861876 -0.9224204 -2.756715E-07
vn -0.3861876 -0.9224204 -2.756715E-07
vn -0.3861876 -0.9224204 -2.756715E-07
vn -0.3861876 -0.9224204 -2.756715E-07
vn -0.3861876 -0.9224204 -2.756715E-07
vn -0.3861876 -0.9224204 -2.756715E-07
vn -0.3861876 -0.9224204 -2.756715E-07
vn -0.3861876 -0.9224204 -2.756715E-07
vn -0.3861876 -0.9224203 -2.756715E-07
vn -0.3861876 -0.9224204 -2.756715E-07
vn -0.3861876 -0.9224204 -2.756715E-07
vn -0.3861876 -0.9224203 -2.756715E-07
vn -0.3861876 -0.9224204 -2.756715E-07
vn -0.3861876 -0.9224204 -2.756715E-07
vn -0.3861876 -0.9224204 -2.756715E-07
vn -0.3861876 -0.9224203 -2.756715E-07
vn -0.3861876 -0.9224204 -2.756715E-07
vn -0.3861876 -0.9224204 -2.756715E-07
vn -0.3861876 -0.9224204 -2.756715E-07
vn -0.3861876 -0.9224204 -2.756715E-07
vn -0.3861876 -0.9224204 -2.756715E-07
vn -0.3861876 -0.9224204 -2.756715E-07
vn -0.3861876 -0.9224204 -2.756715E-07
vn -0.3861876 -0.9224204 -2.756715E-07
vn -0.3861876 -0.9224204 -2.756715E-07
vn -0.3861876 -0.9224204 -2.756715E-07
vn -0.3861876 -0.9224203 -2.756715E-07
vn -0.3861876 -0.9224204 -2.756715E-07
vn -0.3861876 -0.9224203 -2.756715E-07
vn -0.3861876 -0.9224203 -2.756715E-07
vn -0.3861876 -0.9224204 -2.756715E-07
vn -0.3861876 -0.9224203 -2.756715E-07
vn -0.3861876 -0.9224203 -2.756715E-07
vn 0.7362442 -0.3082421 0.6024382
vn 0.5719048 -0.2394385 0.7845982
vn 0.3543937 -0.1483736 0.92325
vn 0.7362441 -0.308242 0.6024381
vn -0.1073563 0.04494632 0.9932043
vn -0.3515952 0.1472013 0.9245068
vn -0.5557012 0.232654 0.7981657
vn -0.5557012 0.232654 0.7981657
vn 0.7362442 -0.308242 0.602438
vn 0.2316527 -0.09698527 -0.967952
vn 0.2316527 -0.09698527 -0.967952
vn 0.2316527 -0.09698527 -0.967952
vn 0.2316527 -0.09698527 -0.967952
vn 0.2316527 -0.09698527 -0.967952
vn 0.2316527 -0.09698527 -0.967952
vn 0.2316527 -0.09698526 -0.967952
vn 0.2316527 -0.09698525 -0.967952
vn -0.7959845 0.5531129 -0.2459168
vn 0.3861882 0.9224201 4.606979E-07
vn 0.3861875 0.9224203 4.845475E-07
vn 0.3861876 0.9224204 5.298777E-07
vn 0.3861875 0.9224204 4.845475E-07
vn 0.3861875 0.9224204 4.845475E-07
vn 0.3861878 0.9224203 4.746687E-07
vn 0.3861878 0.9224203 4.746687E-07
vn 0.3861878 0.9224203 4.746688E-07
vn 0.3861878 0.9224203 4.746686E-07
vn 0.3861878 0.9224203 4.746685E-07
vn 0.3861878 0.9224202 4.746688E-07
vn 0.3861878 0.9224203 4.746699E-07
vn 0.3861878 0.9224202 4.746673E-07
vn 0.3861876 0.9224204 6.016554E-07
vn 0.3861875 0.9224204 5.710669E-07
vn 0.3861876 0.9224204 6.02812E-07
vn 0.3861876 0.9224204 6.028123E-07
vn 0.3861876 0.9224204 6.028127E-07
vn 0.3861876 0.9224204 6.028125E-07
vn 0.3861876 0.9224204 6.028125E-07
vn 0.3861876 0.9224204 6.028125E-07
vn 0.3861876 0.9224204 6.028123E-07
vn 0.3861874 0.9224204 5.456779E-07
vn 0.3861874 0.9224204 5.393214E-07
vn 0.3861874 0.9224204 5.393214E-07
vn 0.3861874 0.9224204 5.393212E-07
vn 0.3861874 0.9224204 5.393217E-07
vn 0.3861874 0.9224204 5.393214E-07
vn 0.3861874 0.9224204 5.393214E-07
vn 0.3861874 0.9224204 4.738251E-07
vn 0.3861873 0.9224205 3.213877E-07
vn 0.3861873 0.9224205 3.213875E-07
vn 0.3861873 0.9224205 3.213873E-07
vn 0.3861873 0.9224205 3.213917E-07
vn 0.3861873 0.9224205 3.213869E-07
vn 0.3861873 0.9224205 3.213872E-07
vn 0.3861873 0.9224205 3.21388E-07
vn 0.3861873 0.9224204 3.213887E-07
vn 0.3861875 0.9224204 4.845475E-07
vn 0.3861875 0.9224204 4.845475E-07
vn 0.3861875 0.9224203 4.845475E-07

f 1//1 2//2 3//3
f 4//4 1//1 3//3
f 3//3 5//5 4//4
f 3//3 6//6 5//5
f 5//5 6//6 7//7
f 8//8 7//7 6//6
f 9//9 8//8 6//6
f 10//10 9//9 6//6
f 9//9 10//10 11//11
f 11//11 10//10 12//12
f 13//13 11//11 12//12
f 13//13 12//12 14//14
f 13//13 14//14 15//15
f 15//15 14//14 16//16
f 15//15 16//16 17//17
f 18//18 17//17 16//16
f 19//19 17//17 18//18
f 19//19 18//18 20//20
f 21//21 19//19 20//20
f 22//22 19//19 21//21
f 22//22 21//21 23//23
f 24//24 22//22 23//23
f 24//24 23//23 25//25
f 26//26 24//24 25//25
f 26//26 25//25 27//27
f 28//28 26//26 27//27
f 28//28 27//27 29//29
f 29//29 27//27 30//30
f 31//31 29//29 30//30
f 31//31 30//30 32//32
f 33//33 31//31 32//32
f 33//33 32//32 34//34
f 35//35 33//33 34//34
f 35//35 34//34 36//36
f 37//37 35//35 36//36
f 37//37 36//36 38//38
f 39//39 37//37 38//38
f 39//39 38//38 40//40
f 41//41 39//39 40//40
f 41//41 40//40 42//42
f 41//41 42//42 43//43
f 43//43 42//42 44//44
f 45//45 43//43 44//44
f 45//45 44//44 46//46
f 47//47 45//45 46//46
f 48//48 45//45 47//47
f 48//48 47//47 49//49
f 50//50 48//48 49//49
f 50//50 49//49 51//51
f 52//52 50//50 51//51
f 52//52 51//51 53//53
f 54//54 52//52 53//53
f 55//55 54//54 53//53
f 55//55 53//53 56//56
f 55//55 56//56 57//57
f 57//57 56//56 58//58
f 57//57 58//58 59//59
f 59//59 58//58 60//60
f 59//59 60//60 61//61
f 61//61 60//60 62//62
f 61//61 62//62 63//63
f 63//63 62//62 64//64
f 63//63 64//64 65//65
f 65//65 64//64 66//66
f 65//65 66//66 67//67
f 68//68 67//67 66//66
f 69//69 67//67 68//68
f 69//69 68//68 70//70
f 71//71 69//69 70//70
f 72//72 71//71 73//73
f 74//74 75//75 76//76
f 77//77 74//74 76//76
f 75//75 77//77 76//76
f 78//78 75//75 74//74
f 79//79 75//75 78//78
f 78//78 74//74 80//80
f 81//81 78//78 80//80
f 82//82 78//78 81//81
f 82//82 83//83 78//78
f 83//83 84//84 79//79
f 84//84 85//85 79//79
f 80//80 74//74 86//86
f 87//87 80//80 86//86
f 81//81 80//80 87//87
f 86//86 74//74 88//88
f 88//88 74//74 77//77
f 86//86 88//88 89//89
f 90//90 86//86 89//89
f 87//87 86//86 90//90
f 75//75 91//91 77//77
f 90//90 89//89 92//92
f 90//90 92//92 93//93
f 94//94 90//90 93//93
f 95//95 83//83 82//82
f 95//95 82//82 81//81
f 95//95 81//81 87//87
f 95//95 87//87 90//90
f 95//95 96//96 83//83
f 97//97 91//91 75//75
f 97//97 98//98 91//91
f 97//97 99//99 98//98
f 100//100 95//95 101//101
f 102//102 103//103 104//104
f 102//102 104//104 105//105
f 102//102 105//105 106//106
f 106//106 105//105 107//107
f 108//108 102//102 106//106
f 109//109 102//102 108//108
f 110//110 108//108 106//106
f 111//111 112//112 113//113
f 111//111 113//113 114//114
f 111//111 114//114 115//115
f 111//111 115//115 116//116
f 111//111 116//116 117//117
f 117//117 118//118 111//111
f 118//118 119//119 111//111
f 120//120 111//111 119//119
f 120//120 121//121 111//111
f 121//121 122//122 111//111
f 111//111 122//122 123//123
f 114//114 113//113 124//124
f 124//124 113//113 125//125
f 125//125 113//113 126//126
f 126//126 113//113 127//127
f 127//127 113//113 128//128
f 128//128 113//113 129//129
f 129//129 113//113 130//130
f 130//130 113//113 131//131
f 131//131 113//113 132//132
f 132//132 113//113 133//133
f 133//133 113//113 134//134
f 133//133 134//134 135//135
f 135//135 134//134 136//136
f 134//134 137//137 136//136
f 137//137 134//134 138//138
f 138//138 134//134 139//139
f 139//139 134//134 140//140
f 140//140 134//134 141//141
f 134//134 142//142 141//141
f 134//134 143//143 142//142
f 134//134 144//144 143//143
f 144//144 134//134 145//145
f 145//145 134//134 146//146
f 147//147 134//134 148//148
f 149//149 150//150 151//151
f 149//149 152//152 150//150
f 151//151 150//150 153//153
f 151//151 153//153 154//154
f 154//154 153//153 155//155
f 154//154 155//155 156//156
f 152//152 157//157 150//150
f 158//158 159//159 160//160
f 161//161 159//159 158//158
f 162//162 159//159 161//161
f 163//163 162//162 161//161
f 164//164 162//162 163//163
f 165//165 162//162 164//164
f 9//9 166//166 8//8
f 166//166 9//9 167//167
f 168//168 169//169 170//170
f 168//168 171//171 169//169
f 172//172 169//169 173//173
f 174//174 169//169 172//172
f 169//169 174//174 175//175
f 176//176 169//169 175//175
f 177//177 169//169 176//176
f 178//178 169//169 177//177
f 178//178 179//179 169//169
f 179//179 180//180 169//169
f 180//180 181//181 169//169
f 182//182 181//181 180//180
f 182//182 183//183 181//181
f 183//183 184//184 181//181
f 184//184 185//185 181//181
f 185//185 186//186 181//181
f 186//186 187//187 181//181
f 187//187 188//188 181//181
f 188//188 189//189 181//181
f 181//181 189//189 190//190
f 181//181 190//190 191//191
f 192//192 181//181 191//191
f 193//193 181//181 192//192
f 194//194 181//181 193//193
f 195//195 181//181 194//194
f 195//195 196//196 181//181
f 196//196 197//197 198//198
f 196//196 198//198 199//199
f 199//199 200//200 196//196
f 196//196 200//200 201//201
f 201//201 202//202 196//196
f 196//196 202//202 203//203
f 196//196 203//203 204//204
f 205//205 196//196 206//206
f 207//207 196//196 205//205
