v -93.60726 109.8442 12.68381
v -75.72379 120.7101 12.6838
v -93.60726 109.8442 12.68381
v -93.60726 109.8442 12.68381
v -93.22548 109.2159 16.17874
v -93.07276 108.9645 17.57671
v -93.07276 108.9645 17.57671
v -75.18929 119.8304 17.5767
v -57.30581 130.6962 17.57669
v -92.94685 108.7573 17.62217
v -56.17267 128.8313 17.98586
v -92.93121 108.7316 17.62782
v -56.03187 128.5995 18.0367
v -92.92682 108.7243 17.62941
v -55.99233 128.5345 18.05097
v -92.87746 108.6431 17.64723
v -55.54803 127.8032 18.21141
v -92.2688 107.6413 17.86701
v -55.48041 127.6919 18.23582
v -91.69173 106.6916 18.07538
v -91.62534 106.5823 18.09936
v -55.40891 127.5742 18.26164
v -91.48687 106.3544 18.14935
v -55.39352 127.5489 18.2672
v -91.11967 105.7501 18.28194
v -55.35273 127.4818 18.28193
v -91.06 105.6518 18.44994
v -55.02407 126.9408 19.20698
v -54.81556 126.5977 19.79387
v -91.04518 105.6275 18.49162
v -54.68228 126.3783 20.169
v -91.04078 105.6202 18.50402
v -54.64262 126.313 20.28065
v -91.00747 105.5654 18.59777
v -54.34284 125.8196 21.12441
v -90.62534 104.9365 19.67336
v -54.30038 125.7498 21.24392
v -90.30963 104.4169 20.56195
v -54.2653 125.692 21.34265
v -89.99758 103.9033 21.44026
v -54.23063 125.635 21.44024
v -90.00888 103.9219 21.55633
v -54.33233 125.8024 22.48486
v -90.0342 103.9635 21.81639
v -54.56021 126.1774 24.82541
v -90.10484 104.0798 22.54191
v -90.13309 104.1263 22.83207
v -54.5712 126.1955 24.93826
v -90.22942 104.2848 23.82143
v -54.5819 126.2131 25.04819
v -90.30872 104.4154 24.63607
v -54.59071 126.2276 25.13871
v -90.36378 104.506 25.20155
v -54.59683 126.2377 25.20153
v -54.59682 126.2377 25.20154
v -90.46125 104.6664 25.32998
v -55.47405 127.6814 26.35743
v -90.48994 104.7136 25.36779
v -55.73225 128.1064 26.69765
v -90.49287 104.7184 25.37165
v -55.75861 128.1498 26.73238
v -90.49422 104.7207 25.37343
v -55.77083 128.1699 26.74849
v -90.49594 104.7235 25.3757
v -55.78628 128.1953 26.76885
v -90.52778 104.7759 25.41765
v -56.07281 128.6669 27.1464
v -92.00376 107.2051 27.36251
v -56.23681 128.9368 27.3625
v -92.00376 107.2051 27.36251
v -56.23681 128.9368 27.3625
v -92.00376 107.2051 27.36251
v -92.00376 107.2051 27.36251
v -91.85104 106.9538 28.76048
v -91.46926 106.3254 32.25541
v -91.46926 106.3254 32.25541
v -91.46926 106.3254 32.25541
v -92.00376 107.2051 27.36251
v -92.00376 107.2051 27.36251
v -92.00376 107.2051 27.36251
v -56.23681 128.9368 27.3625
v -56.23681 128.9368 27.3625
v -56.23681 128.9368 27.3625
v -92.00376 107.2051 27.36251
v -88.1893 100.9271 27.93349
v -92.00376 107.2051 27.36251
v -56.23681 128.9368 27.3625
v -92.00376 107.2051 27.36251
v -74.12029 118.071 27.3625
v -56.23681 128.9368 27.3625
v -73.58578 117.1913 32.2554
v -56.23682 128.9368 27.3625
v -56.23681 128.9368 27.3625
v -56.08409 128.6855 28.76046
v -52.42235 122.6588 27.93348
v -56.23681 128.9368 27.3625
v -88.1893 100.9271 27.93349
v -55.70231 128.0571 32.25539
v -52.42235 122.6588 27.93348
v -54.59682 126.2377 25.20154
v -54.59683 126.2377 25.20153
v -75.72379 120.7101 12.6838
v -93.60726 109.8442 12.68381
v -93.60726 109.8442 12.68381
v -93.22548 109.2159 16.17874
v -75.18929 119.8304 17.5767
v -93.07276 108.9645 17.57671
v -57.52721 131.0606 15.54999
v -57.84031 131.5759 12.68379
v -57.30581 130.6962 17.57669
v -93.60726 109.8442 12.68381
v -89.7011 103.4153 14.09428
v -87.45691 99.72173 20.41091
v -91.11967 105.7501 18.28194
v -91.48687 106.3544 18.14935
v -91.62534 106.5823 18.09936
v -91.69173 106.6916 18.07538
v -92.2688 107.6413 17.86701
v -92.87746 108.6431 17.64723
v -92.92682 108.7243 17.62941
v -92.93121 108.7316 17.62782
v -92.94685 108.7573 17.62217
v -93.07276 108.9645 17.57671
v -91.06 105.6518 18.44994
v -91.04518 105.6275 18.49162
v -91.04078 105.6202 18.50402
v -91.00747 105.5654 18.59777
v -90.62534 104.9365 19.67336
v -90.30963 104.4169 20.56195
v -89.99758 103.9033 21.44026
v -90.00888 103.9219 21.55633
v -90.0342 103.9635 21.81639
v -90.10484 104.0798 22.54191
v -88.1893 100.9271 27.93349
v -90.13309 104.1263 22.83207
v -90.22942 104.2848 23.82143
v -90.30872 104.4154 24.63607
v -90.36378 104.506 25.20155
v -90.46125 104.6664 25.32998
v -90.48994 104.7136 25.36779
v -90.49287 104.7184 25.37165
v -90.49422 104.7207 25.37343
v -90.49594 104.7235 25.3757
v -90.52778 104.7759 25.41765
v -92.00376 107.2051 27.36251
v -92.00376 107.2051 27.36251
v -92.00376 107.2051 27.36251
v -91.46926 106.3254 32.25541
v -93.60726 109.8442 12.68381
v -53.93415 125.147 14.09426
v -89.7011 103.4153 14.09428
v -75.72379 120.7101 12.6838
v -51.68996 121.4534 20.41089
v -87.45691 99.72173 20.41091
v -52.42235 122.6588 27.93348
v -88.1893 100.9271 27.93349
v -57.84031 131.5759 12.68379
v -91.46926 106.3254 32.25541
v -74.12029 118.071 27.3625
v -92.00376 107.2051 27.36251
v -73.58578 117.1913 32.2554
v -56.23682 128.9368 27.3625
v -55.70231 128.0571 32.25539
v -56.08409 128.6855 28.76046
v -56.23681 128.9368 27.3625
v -57.30581 130.6962 17.57669
v -53.93415 125.147 14.09426
v -57.52721 131.0606 15.54999
v -53.93415 125.147 14.09426
v -57.84031 131.5759 12.68379
v -57.30581 130.6962 17.57669
v -56.17267 128.8313 17.98586
v -57.30581 130.6962 17.57669
v -56.03187 128.5995 18.0367
v -55.99233 128.5345 18.05097
v -55.54803 127.8032 18.21141
v -55.48041 127.6919 18.23582
v -55.40891 127.5742 18.26164
v -55.39352 127.5489 18.2672
v -55.35273 127.4818 18.28193
v -51.68996 121.4534 20.41089
v -55.02407 126.9408 19.20698
v -54.81556 126.5977 19.79387
v -54.68228 126.3783 20.169
v -54.64262 126.313 20.28065
v -54.34284 125.8196 21.12441
v -54.30038 125.7498 21.24392
v -54.2653 125.692 21.34265
v -54.23063 125.635 21.44024
v -54.33233 125.8024 22.48486
v -54.56021 126.1774 24.82541
v -54.5712 126.1955 24.93826
v -54.5819 126.2131 25.04819
v -54.59071 126.2276 25.13871
v -54.59683 126.2377 25.20153
v -52.42235 122.6588 27.93348
v -54.59682 126.2377 25.20154
v -55.47405 127.6814 26.35743
v -55.73225 128.1064 26.69765
v -55.75861 128.1498 26.73238
v -55.77083 128.1699 26.74849
v -55.78628 128.1953 26.76885
v -56.07281 128.6669 27.1464
v -56.23681 128.9368 27.3625
v -56.08409 128.6855 28.76046
v -56.23681 128.9368 27.3625
v -55.70231 128.0571 32.25539

vn -0.1069004 0.1759398 -0.9785793
vn -0.1069003 0.1759399 -0.9785793
vn -0.6373422 -0.204345 -0.7429926
vn -0.8546174 -0.5192582 2.384186E-07
vn -0.8546174 -0.5192582 2.384186E-07
vn -0.09569471 0.157499 0.9828716
vn -0.01503524 -0.2476058 0.9687443
vn -0.4681708 0.7705362 0.4325389
vn -0.0956921 0.1574953 0.9828724
vn -0.09569171 0.1574946 0.9828727
vn -0.09569185 0.1574949 0.9828725
vn -0.0956923 0.1574958 0.9828724
vn -0.09569278 0.1574967 0.9828721
vn -0.09569034 0.1574915 0.9828733
vn -0.09569151 0.157494 0.9828727
vn -0.09569173 0.1574945 0.9828726
vn -0.09569169 0.1574944 0.9828727
vn -0.09569164 0.1574943 0.9828727
vn -0.09569177 0.1574945 0.9828726
vn -0.09569158 0.1574942 0.9828727
vn -0.09569219 0.1574952 0.9828725
vn -0.09569295 0.1574966 0.9828721
vn -0.09569192 0.1574947 0.9828725
vn -0.09569147 0.1574939 0.9828728
vn -0.1715766 0.282389 0.9438316
vn -0.4161957 0.6849934 0.5979675
vn -0.4285474 0.7053224 0.5646836
vn -0.4285471 0.705322 0.5646842
vn -0.4285471 0.7053218 0.5646845
vn -0.4285466 0.7053208 0.5646862
vn -0.4285462 0.7053201 0.5646873
vn -0.4285459 0.7053191 0.5646886
vn -0.4285465 0.7053207 0.5646864
vn -0.4285467 0.7053213 0.5646853
vn -0.4285469 0.7053217 0.5646849
vn -0.4285468 0.7053217 0.5646848
vn -0.4285465 0.705321 0.5646857
vn -0.4285468 0.7053214 0.5646852
vn -0.4285471 0.705322 0.5646842
vn -0.4469168 0.7355556 0.5091398
vn -0.5155661 0.848541 -0.1190375
vn -0.5103647 0.8399802 -0.1842853
vn -0.5103646 0.8399801 -0.1842864
vn -0.5103645 0.83998 -0.1842871
vn -0.5103645 0.8399799 -0.184287
vn -0.5103645 0.83998 -0.1842866
vn -0.5103647 0.83998 -0.1842861
vn -0.5103646 0.8399801 -0.1842865
vn -0.5103647 0.8399801 -0.1842862
vn -0.5103646 0.8399799 -0.1842865
vn -0.5103647 0.8399801 -0.1842865
vn -0.5103647 0.83998 -0.184286
vn -0.481499 0.7924715 -0.3743629
vn -0.5103669 0.8399837 -0.1842632
vn -0.293218 0.4825901 -0.825306
vn -0.2932174 0.4825892 -0.8253067
vn -0.2932172 0.4825889 -0.825307
vn -0.2932165 0.4825881 -0.8253076
vn -0.2932176 0.4825895 -0.8253065
vn -0.2932186 0.4825905 -0.8253057
vn -0.29322 0.4825922 -0.825304
vn -0.2932442 0.4826212 -0.8252785
vn -0.2932289 0.4826031 -0.8252946
vn -0.2932138 0.4825847 -0.8253106
vn -0.293216 0.4825874 -0.8253083
vn -0.2932175 0.4825892 -0.8253067
vn -0.2932177 0.4825897 -0.8253063
vn -0.2932179 0.4825899 -0.8253062
vn -0.29322 0.4825935 -0.8253034
vn -0.360863 0.5939233 -0.7190501
vn -0.1069001 0.17594 -0.9785793
vn -0.1069001 0.17594 -0.9785793
vn -0.1069001 0.17594 -0.9785793
vn -0.8546174 -0.5192582 2.384186E-07
vn 0.2932177 -0.4825894 0.8253065
vn -0.8546174 -0.5192582 2.384186E-07
vn -0.489933 0.8063532 0.3313008
vn -0.7192723 -0.2805732 -0.6355517
vn -0.7663235 -0.3299057 -0.5512809
vn -0.1673497 0.1386026 -0.9761063
vn -0.1069001 0.17594 -0.9785793
vn -0.1069001 0.17594 -0.9785793
vn -0.1069001 0.17594 -0.9785793
vn -0.1943594 0.1215192 -0.9733743
vn -0.8546174 -0.5192582 2.384186E-07
vn -0.1177166 0.1693552 -0.9784997
vn -0.1069001 0.17594 -0.9785793
vn -0.2266869 0.1007375 -0.968744
vn -0.1068968 0.1759344 -0.9785807
vn -0.05539131 0.2067945 -0.9768152
vn 0.2932176 -0.4825894 0.8253065
vn -0.1068881 0.1759202 -0.9785842
vn 0.8546167 0.5192594 -7.032456E-06
vn 0.8546174 0.5192582 -2.384186E-07
vn 0.8546177 0.5192578 -3.272687E-07
vn 0 0 0
vn 0.2932177 -0.4825895 0.8253065
vn 0.2932176 -0.4825895 0.8253065
vn 0.2932177 -0.4825895 0.8253066
vn 0.8546177 0.5192578 -3.272687E-07
vn 0.8546177 0.5192578 -3.272687E-07
vn -0.5081351 0.836311 0.2058702
vn -0.5081351 0.836311 0.2058702
vn -0.5081351 0.836311 0.2058702
vn -0.5081351 0.836311 0.2058702
vn -0.5081351 0.836311 0.2058702
vn -0.5081351 0.836311 0.2058702
vn -0.5081351 0.836311 0.2058702
vn -0.5081351 0.836311 0.2058702
vn -0.5081351 0.836311 0.2058702
vn -0.8546174 -0.5192582 2.384186E-07
vn -0.8546174 -0.5192582 2.384186E-07
vn -0.8546174 -0.5192582 2.384186E-07
vn -0.8546174 -0.5192582 2.384186E-07
vn -0.8546174 -0.5192582 2.384186E-07
vn -0.8546174 -0.5192582 2.384186E-07
vn -0.8546174 -0.5192582 2.384186E-07
vn -0.8546174 -0.5192582 2.384186E-07
vn -0.8546174 -0.5192582 2.384186E-07
vn -0.8546174 -0.5192582 2.384186E-07
vn -0.8546174 -0.5192582 2.384186E-07
vn -0.8546174 -0.5192582 2.384186E-07
vn -0.8546174 -0.5192582 2.384186E-07
vn -0.8546174 -0.5192581 2.384186E-07
vn -0.8546174 -0.5192582 2.384186E-07
vn -0.8546174 -0.5192582 2.384186E-07
vn -0.8546174 -0.5192581 2.384186E-07
vn -0.8546174 -0.5192582 2.384186E-07
vn -0.8546174 -0.5192582 2.384186E-07
vn -0.8546174 -0.5192582 2.384186E-07
vn -0.8546174 -0.5192581 2.384186E-07
vn -0.8546174 -0.5192582 2.384186E-07
vn -0.8546174 -0.5192582 2.384186E-07
vn -0.8546174 -0.5192582 2.384186E-07
vn -0.8546174 -0.5192582 2.384186E-07
vn -0.8546174 -0.5192582 2.384186E-07
vn -0.8546174 -0.5192582 2.384186E-07
vn -0.8546174 -0.5192582 2.384186E-07
vn -0.8546174 -0.5192582 2.384186E-07
vn -0.8546174 -0.5192582 2.384186E-07
vn -0.8546174 -0.5192582 2.384186E-07
vn -0.8546174 -0.5192581 2.384186E-07
vn -0.8546174 -0.5192582 2.384186E-07
vn -0.8546174 -0.5192581 2.384186E-07
vn -0.8546174 -0.5192581 2.384186E-07
vn -0.8546174 -0.5192582 2.384186E-07
vn -0.8546174 -0.5192581 2.384186E-07
vn -0.8546174 -0.5192581 2.384186E-07
vn 0.09569187 -0.1574949 -0.9828726
vn 0.2215674 -0.3646662 -0.9043929
vn 0.340532 -0.5604631 -0.7549299
vn 0.09569189 -0.1574949 -0.9828724
vn 0.4887388 -0.8043877 -0.3377793
vn 0.517981 -0.8525156 -0.07009169
vn 0.5103646 -0.8399799 0.1842866
vn 0.5103647 -0.83998 0.1842866
vn 0.09569189 -0.1574948 -0.9828725
vn -0.5081351 0.836311 0.2058702
vn -0.5081351 0.836311 0.2058702
vn -0.5081351 0.836311 0.2058702
vn -0.5081351 0.836311 0.2058702
vn -0.5081351 0.836311 0.2058702
vn -0.5081351 0.836311 0.2058702
vn -0.5081351 0.836311 0.2058702
vn -0.5081351 0.836311 0.2058702
vn 0.2779977 -0.06697674 0.9582439
vn 0.8546174 0.5192583 -9.593955E-07
vn 0.8546175 0.519258 -2.828436E-07
vn 0.8546175 0.519258 -3.957317E-07
vn 0.8546175 0.519258 -2.828437E-07
vn 0.8546175 0.519258 -2.828437E-07
vn 0.8546175 0.5192581 -5.630807E-07
vn 0.8546175 0.5192581 -5.630808E-07
vn 0.8546175 0.5192581 -5.630803E-07
vn 0.8546175 0.5192581 -5.630809E-07
vn 0.8546175 0.5192581 -5.630809E-07
vn 0.8546174 0.5192581 -5.630806E-07
vn 0.8546175 0.5192581 -5.630793E-07
vn 0.8546174 0.5192581 -5.630822E-07
vn 0.8546176 0.519258 -4.261924E-07
vn 0.8546176 0.5192579 -3.012451E-07
vn 0.8546176 0.519258 -4.249447E-07
vn 0.8546176 0.519258 -4.249452E-07
vn 0.8546176 0.519258 -4.24946E-07
vn 0.8546176 0.519258 -4.249455E-07
vn 0.8546176 0.519258 -4.249455E-07
vn 0.8546176 0.519258 -4.249453E-07
vn 0.8546176 0.519258 -4.249447E-07
vn 0.8546176 0.5192579 -2.023143E-07
vn 0.8546176 0.5192579 -1.77545E-07
vn 0.8546176 0.5192579 -1.775448E-07
vn 0.8546176 0.5192579 -1.775455E-07
vn 0.8546176 0.5192579 -1.775441E-07
vn 0.8546176 0.5192579 -1.775447E-07
vn 0.8546176 0.5192579 -1.775451E-07
vn 0.8546176 0.519258 -1.773162E-07
vn 0.8546175 0.519258 3.419656E-08
vn 0.8546175 0.519258 3.419677E-08
vn 0.8546175 0.519258 3.419713E-08
vn 0.8546175 0.519258 3.418994E-08
vn 0.8546175 0.519258 3.41979E-08
vn 0.8546175 0.519258 3.419732E-08
vn 0.8546175 0.519258 3.419582E-08
vn 0.8546175 0.519258 3.419462E-08
vn 0.8546175 0.519258 -2.828436E-07
vn 0.8546175 0.519258 -2.828436E-07
vn 0.8546175 0.519258 -2.828436E-07

f 1//1 2//2 3//3
f 4//4 1//1 3//3
f 3//3 5//5 4//4
f 3//3 6//6 5//5
f 5//5 6//6 7//7
f 8//8 7//7 6//6
f 9//9 8//8 6//6
f 10//10 9//9 6//6
f 9//9 10//10 11//11
f 11//11 10//10 12//12
f 13//13 11//11 12//12
f 13//13 12//12 14//14
f 13//13 14//14 15//15
f 15//15 14//14 16//16
f 15//15 16//16 17//17
f 18//18 17//17 16//16
f 19//19 17//17 18//18
f 19//19 18//18 20//20
f 21//21 19//19 20//20
f 22//22 19//19 21//21
f 22//22 21//21 23//23
f 24//24 22//22 23//23
f 24//24 23//23 25//25
f 26//26 24//24 25//25
f 26//26 25//25 27//27
f 28//28 26//26 27//27
f 28//28 27//27 29//29
f 29//29 27//27 30//30
f 31//31 29//29 30//30
f 31//31 30//30 32//32
f 33//33 31//31 32//32
f 33//33 32//32 34//34
f 35//35 33//33 34//34
f 35//35 34//34 36//36
f 37//37 35//35 36//36
f 37//37 36//36 38//38
f 39//39 37//37 38//38
f 39//39 38//38 40//40
f 41//41 39//39 40//40
f 41//41 40//40 42//42
f 41//41 42//42 43//43
f 43//43 42//42 44//44
f 45//45 43//43 44//44
f 45//45 44//44 46//46
f 47//47 45//45 46//46
f 48//48 45//45 47//47
f 48//48 47//47 49//49
f 50//50 48//48 49//49
f 50//50 49//49 51//51
f 52//52 50//50 51//51
f 52//52 51//51 53//53
f 54//54 52//52 53//53
f 55//55 54//54 53//53
f 55//55 53//53 56//56
f 55//55 56//56 57//57
f 57//57 56//56 58//58
f 57//57 58//58 59//59
f 59//59 58//58 60//60
f 59//59 60//60 61//61
f 61//61 60//60 62//62
f 61//61 62//62 63//63
f 63//63 62//62 64//64
f 63//63 64//64 65//65
f 65//65 64//64 66//66
f 65//65 66//66 67//67
f 68//68 67//67 66//66
f 69//69 67//67 68//68
f 69//69 68//68 70//70
f 71//71 69//69 70//70
f 72//72 71//71 73//73
f 74//74 75//75 76//76
f 77//77 74//74 76//76
f 75//75 77//77 76//76
f 78//78 75//75 74//74
f 79//79 75//75 78//78
f 78//78 74//74 80//80
f 81//81 78//78 80//80
f 82//82 78//78 81//81
f 82//82 83//83 78//78
f 83//83 84//84 79//79
f 84//84 85//85 79//79
f 80//80 74//74 86//86
f 87//87 80//80 86//86
f 81//81 80//80 87//87
f 86//86 74//74 88//88
f 88//88 74//74 77//77
f 86//86 88//88 89//89
f 90//90 86//86 89//89
f 87//87 86//86 90//90
f 75//75 91//91 77//77
f 90//90 89//89 92//92
f 90//90 92//92 93//93
f 94//94 90//90 93//93
f 95//95 83//83 82//82
f 95//95 82//82 81//81
f 95//95 81//81 87//87
f 95//95 87//87 90//90
f 95//95 96//96 83//83
f 97//97 91//91 75//75
f 97//97 98//98 91//91
f 97//97 99//99 98//98
f 100//100 95//95 101//101
f 102//102 103//103 104//104
f 102//102 104//104 105//105
f 102//102 105//105 106//106
f 106//106 105//105 107//107
f 108//108 102//102 106//106
f 109//109 102//102 108//108
f 110//110 108//108 106//106
f 111//111 112//112 113//113
f 111//111 113//113 114//114
f 111//111 114//114 115//115
f 111//111 115//115 116//116
f 111//111 116//116 117//117
f 117//117 118//118 111//111
f 118//118 119//119 111//111
f 120//120 111//111 119//119
f 120//120 121//121 111//111
f 121//121 122//122 111//111
f 111//111 122//122 123//123
f 114//114 113//113 124//124
f 124//124 113//113 125//125
f 125//125 113//113 126//126
f 126//126 113//113 127//127
f 127//127 113//113 128//128
f 128//128 113//113 129//129
f 129//129 113//113 130//130
f 130//130 113//113 131//131
f 131//131 113//113 132//132
f 132//132 113//113 133//133
f 133//133 113//113 134//134
f 133//133 134//134 135//135
f 135//135 134//134 136//136
f 134//134 137//137 136//136
f 137//137 134//134 138//138
f 138//138 134//134 139//139
f 139//139 134//134 140//140
f 140//140 134//134 141//141
f 134//134 142//142 141//141
f 134//134 143//143 142//142
f 134//134 144//144 143//143
f 144//144 134//134 145//145
f 145//145 134//134 146//146
f 147//147 134//134 148//148
f 149//149 150//150 151//151
f 149//149 152//152 150//150
f 151//151 150//150 153//153
f 151//151 153//153 154//154
f 154//154 153//153 155//155
f 154//154 155//155 156//156
f 152//152 157//157 150//150
f 158//158 159//159 160//160
f 161//161 159//159 158//158
f 162//162 159//159 161//161
f 163//163 162//162 161//161
f 164//164 162//162 163//163
f 165//165 162//162 164//164
f 9//9 166//166 8//8
f 166//166 9//9 167//167
f 168//168 169//169 170//170
f 168//168 171//171 169//169
f 172//172 169//169 173//173
f 174//174 169//169 172//172
f 169//169 174//174 175//175
f 176//176 169//169 175//175
f 177//177 169//169 176//176
f 178//178 169//169 177//177
f 178//178 179//179 169//169
f 179//179 180//180 169//169
f 180//180 181//181 169//169
f 182//182 181//181 180//180
f 182//182 183//183 181//181
f 183//183 184//184 181//181
f 184//184 185//185 181//181
f 185//185 186//186 181//181
f 186//186 187//187 181//181
f 187//187 188//188 181//181
f 188//188 189//189 181//181
f 181//181 189//189 190//190
f 181//181 190//190 191//191
f 192//192 181//181 191//191
f 193//193 181//181 192//192
f 194//194 181//181 193//193
f 195//195 181//181 194//194
f 195//195 196//196 181//181
f 196//196 197//197 198//198
f 196//196 198//198 199//199
f 199//199 200//200 196//196
f 196//196 200//200 201//201
f 201//201 202//202 196//196
f 196//196 202//202 203//203
f 196//196 203//203 204//204
f 205//205 196//196 206//206
f 207//207 196//196 205//205
