v 73.22564 117.4902 32.27376
v 89.08597 103.8398 32.27377
v 73.22564 117.4902 32.27376
v 73.22564 117.4902 32.27376
v 73.68445 118.0233 28.77227
v 73.86797 118.2365 27.37168
v 73.86797 118.2365 27.37168
v 89.7283 104.5861 27.37169
v 105.5886 90.93563 27.3717
v 74.02586 118.42 27.32401
v 107.0097 92.58672 26.94265
v 74.04548 118.4428 27.31808
v 107.1862 92.79189 26.88933
v 74.05099 118.4492 27.31642
v 107.2358 92.84949 26.87436
v 74.1129 118.5211 27.29773
v 107.793 93.49687 26.70613
v 74.87619 119.408 27.06726
v 107.8778 93.59541 26.68052
v 75.59988 120.2488 26.84876
v 75.68314 120.3456 26.82362
v 107.9675 93.69958 26.65345
v 75.85678 120.5473 26.77119
v 107.9868 93.722 26.64762
v 76.31727 121.0824 26.63216
v 108.0379 93.78145 26.63218
v 76.39125 121.1683 26.46312
v 108.4453 94.25475 25.70139
v 108.7037 94.55504 25.11086
v 76.4096 121.1896 26.42118
v 108.8689 94.74698 24.7334
v 76.41506 121.196 26.4087
v 108.9181 94.8041 24.62107
v 76.45635 121.244 26.31437
v 109.2897 95.23582 23.77207
v 76.92999 121.7943 25.23212
v 109.3423 95.29696 23.65182
v 77.3213 122.2489 24.33801
v 109.3858 95.34748 23.55247
v 77.70807 122.6983 23.45426
v 109.4287 95.39741 23.45428
v 77.69318 122.681 23.3384
v 109.2948 95.24174 22.41149
v 77.65983 122.6423 23.07879
v 108.9946 94.89295 20.07505
v 77.56677 122.5341 22.35454
v 77.52956 122.4909 22.06489
v 108.9801 94.87613 19.96239
v 77.40267 122.3435 21.07726
v 108.966 94.85975 19.85266
v 77.29819 122.2221 20.26405
v 108.9544 94.84626 19.7623
v 77.22566 122.1378 19.69956
v 108.9463 94.8369 19.69958
v 108.9463 94.8369 19.69958
v 77.10246 121.9947 19.57285
v 107.8375 93.54852 18.55915
v 77.06618 121.9525 19.53555
v 107.5111 93.1693 18.22348
v 77.06248 121.9482 19.53174
v 107.4778 93.13058 18.18921
v 77.06077 121.9462 19.52998
v 107.4623 93.11263 18.17332
v 77.0586 121.9437 19.52774
v 107.4428 93.08995 18.15323
v 77.01836 121.8969 19.48635
v 107.0806 92.66912 17.78073
v 75.15263 119.7292 17.56751
v 106.8733 92.42825 17.56753
v 75.15263 119.7292 17.56751
v 106.8733 92.42825 17.56753
v 75.15263 119.7292 17.56751
v 75.15263 119.7292 17.56751
v 75.33614 119.9424 16.16691
v 75.79495 120.4755 12.66542
v 75.79495 120.4755 12.66542
v 75.79495 120.4755 12.66543
v 75.15263 119.7292 17.56751
v 75.15263 119.7292 17.56751
v 75.15263 119.7292 17.56751
v 106.8733 92.42825 17.56753
v 106.8733 92.42825 17.56753
v 106.8733 92.42825 17.56753
v 75.15263 119.7292 17.56751
v 79.94102 125.2928 16.92953
v 75.15263 119.7292 17.56751
v 106.8733 92.42825 17.56753
v 75.15263 119.7292 17.56751
v 91.01296 106.0787 17.56752
v 106.8733 92.42825 17.56753
v 91.65529 106.825 12.66543
v 106.8733 92.42827 17.56753
v 106.8733 92.42825 17.56753
v 107.0568 92.64149 16.16693
v 111.6617 97.99185 16.92955
v 106.8733 92.42825 17.56753
v 79.94102 125.2928 16.92953
v 107.5156 93.17457 12.66544
v 111.6617 97.99185 16.92955
v 108.9463 94.8369 19.69958
v 108.9463 94.8369 19.69958
v 89.08597 103.8398 32.27377
v 73.22564 117.4902 32.27376
v 73.22564 117.4902 32.27376
v 73.68445 118.0233 28.77227
v 89.7283 104.5861 27.37169
v 73.86797 118.2365 27.37168
v 105.3226 90.6265 29.40221
v 104.9463 90.18932 32.27378
v 105.5886 90.93563 27.3717
v 73.22564 117.4902 32.27376
v 78.12424 123.1819 30.79472
v 80.90585 126.4138 24.43893
v 76.31727 121.0824 26.63216
v 75.85678 120.5473 26.77119
v 75.68314 120.3456 26.82362
v 75.59988 120.2488 26.84876
v 74.87619 119.408 27.06726
v 74.1129 118.5211 27.29773
v 74.05099 118.4492 27.31642
v 74.04548 118.4428 27.31808
v 74.02586 118.42 27.32401
v 73.86797 118.2365 27.37168
v 76.39125 121.1683 26.46312
v 76.4096 121.1896 26.42118
v 76.41506 121.196 26.4087
v 76.45635 121.244 26.31437
v 76.92999 121.7943 25.23212
v 77.3213 122.2489 24.33801
v 77.70807 122.6983 23.45426
v 77.69318 122.681 23.3384
v 77.65983 122.6423 23.07879
v 77.56677 122.5341 22.35454
v 79.94102 125.2928 16.92953
v 77.52956 122.4909 22.06489
v 77.40267 122.3435 21.07726
v 77.29819 122.2221 20.26405
v 77.22566 122.1378 19.69956
v 77.10246 121.9947 19.57285
v 77.06618 121.9525 19.53555
v 77.06248 121.9482 19.53174
v 77.06077 121.9462 19.52998
v 77.0586 121.9437 19.52774
v 77.01836 121.8969 19.48635
v 75.15263 119.7292 17.56751
v 75.15263 119.7292 17.56751
v 75.15263 119.7292 17.56751
v 75.79495 120.4755 12.66542
v 73.22564 117.4902 32.27376
v 109.8449 95.88097 30.79474
v 78.12424 123.1819 30.79472
v 89.08597 103.8398 32.27377
v 112.6265 99.11288 24.43895
v 80.90585 126.4138 24.43893
v 111.6617 97.99185 16.92955
v 79.94102 125.2928 16.92953
v 104.9463 90.18932 32.27378
v 75.79495 120.4755 12.66543
v 91.01296 106.0787 17.56752
v 75.15263 119.7292 17.56751
v 91.65529 106.825 12.66543
v 106.8733 92.42827 17.56753
v 107.5156 93.17457 12.66544
v 107.0568 92.64149 16.16693
v 106.8733 92.42825 17.56753
v 105.5886 90.93563 27.3717
v 109.8449 95.88097 30.79474
v 105.3226 90.6265 29.40221
v 109.8449 95.88097 30.79474
v 104.9463 90.18932 32.27378
v 105.5886 90.93563 27.3717
v 107.0097 92.58672 26.94265
v 105.5886 90.93563 27.3717
v 107.1862 92.79189 26.88933
v 107.2358 92.84949 26.87436
v 107.793 93.49687 26.70613
v 107.8778 93.59541 26.68052
v 107.9675 93.69958 26.65345
v 107.9868 93.722 26.64762
v 108.0379 93.78145 26.63218
v 112.6265 99.11288 24.43895
v 108.4453 94.25475 25.70139
v 108.7037 94.55504 25.11086
v 108.8689 94.74698 24.7334
v 108.9181 94.8041 24.62107
v 109.2897 95.23582 23.77207
v 109.3423 95.29696 23.65182
v 109.3858 95.34748 23.55247
v 109.4287 95.39741 23.45428
v 109.2948 95.24174 22.41149
v 108.9946 94.89295 20.07505
v 108.9801 94.87613 19.96239
v 108.966 94.85975 19.85266
v 108.9544 94.84626 19.7623
v 108.9463 94.8369 19.69958
v 111.6617 97.99185 16.92955
v 108.9463 94.8369 19.69958
v 107.8375 93.54852 18.55915
v 107.5111 93.1693 18.22348
v 107.4778 93.13058 18.18921
v 107.4623 93.11263 18.17332
v 107.4428 93.08995 18.15323
v 107.0806 92.66912 17.78073
v 106.8733 92.42825 17.56753
v 107.0568 92.64149 16.16693
v 106.8733 92.42825 17.56753
v 107.5156 93.17457 12.66544

vn -0.1284661 -0.1492622 0.9804168
vn -0.128466 -0.1492623 0.9804168
vn -0.5907963 0.3112018 0.7443877
vn -0.7579355 0.6523296 -3.352761E-07
vn -0.7579355 0.6523296 -3.352761E-07
vn -0.1260633 -0.1464723 -0.9811493
vn 0.01998665 0.2400155 -0.9705634
vn -0.5906998 -0.6863289 -0.4242949
vn -0.1260601 -0.1464691 -0.9811501
vn -0.1260596 -0.1464684 -0.9811504
vn -0.1260598 -0.1464687 -0.9811503
vn -0.1260604 -0.1464695 -0.9811501
vn -0.126061 -0.1464703 -0.9811498
vn -0.1260577 -0.1464656 -0.981151
vn -0.1260593 -0.1464679 -0.9811504
vn -0.1260596 -0.1464683 -0.9811503
vn -0.1260595 -0.1464682 -0.9811504
vn -0.1260595 -0.1464681 -0.9811504
vn -0.1260596 -0.1464684 -0.9811503
vn -0.1260594 -0.1464681 -0.9811504
vn -0.1260602 -0.146469 -0.9811502
vn -0.1260611 -0.1464702 -0.9811498
vn -0.1260598 -0.1464685 -0.9811502
vn -0.1260592 -0.1464678 -0.9811504
vn -0.2211553 -0.2569591 -0.9407775
vn -0.5263922 -0.6116107 -0.5906298
vn -0.5417106 -0.629409 -0.5571302
vn -0.5417102 -0.6294085 -0.5571308
vn -0.5417101 -0.6294084 -0.5571311
vn -0.5417095 -0.6294075 -0.5571329
vn -0.5417091 -0.6294068 -0.5571339
vn -0.5417086 -0.629406 -0.5571353
vn -0.5417095 -0.6294073 -0.557133
vn -0.5417097 -0.6294079 -0.5571319
vn -0.54171 -0.6294083 -0.5571316
vn -0.5417099 -0.6294083 -0.5571314
vn -0.5417095 -0.6294077 -0.5571324
vn -0.5417098 -0.6294081 -0.5571319
vn -0.5417102 -0.6294086 -0.5571309
vn -0.564456 -0.6558367 -0.501266
vn -0.6469559 -0.7516919 0.1280914
vn -0.6400334 -0.7436487 0.193245
vn -0.6400333 -0.7436486 0.1932461
vn -0.6400332 -0.7436486 0.1932468
vn -0.6400332 -0.7436485 0.1932468
vn -0.6400332 -0.7436485 0.1932463
vn -0.6400334 -0.7436485 0.1932458
vn -0.6400334 -0.7436485 0.1932463
vn -0.6400334 -0.7436486 0.1932459
vn -0.6400334 -0.7436485 0.1932462
vn -0.6400334 -0.7436486 0.1932462
vn -0.6400334 -0.7436485 0.1932458
vn -0.6026406 -0.7002019 0.3828075
vn -0.6400363 -0.743652 0.1932229
vn -0.3634343 -0.4222701 0.8304237
vn -0.3634335 -0.4222693 0.8304243
vn -0.3634333 -0.4222691 0.8304247
vn -0.3634325 -0.4222684 0.8304252
vn -0.3634338 -0.4222696 0.8304241
vn -0.3634349 -0.4222704 0.8304233
vn -0.3634366 -0.4222719 0.8304217
vn -0.3634654 -0.4222967 0.8303965
vn -0.3634473 -0.4222812 0.8304123
vn -0.3634293 -0.4222655 0.8304282
vn -0.3634318 -0.4222678 0.830426
vn -0.3634336 -0.4222694 0.8304242
vn -0.363434 -0.4222697 0.8304239
vn -0.3634341 -0.4222699 0.8304238
vn -0.3634368 -0.4222732 0.830421
vn -0.4490437 -0.521739 0.7253608
vn -0.1284659 -0.1492624 0.9804168
vn -0.1284659 -0.1492624 0.9804168
vn -0.1284659 -0.1492624 0.9804168
vn -0.7579355 0.6523296 -3.352761E-07
vn 0.3634339 0.4222694 -0.8304241
vn -0.7579355 0.6523296 -3.352761E-07
vn -0.6174353 -0.7173926 -0.3226786
vn -0.6597622 0.3990858 0.636745
vn -0.698592 0.4548806 0.552316
vn -0.1819918 -0.1025379 0.9779391
vn -0.1284659 -0.1492624 0.9804168
vn -0.1284659 -0.1492624 0.9804168
vn -0.1284659 -0.1492624 0.9804168
vn -0.205852 -0.08127683 0.975202
vn -0.7579355 0.6523296 -3.352761E-07
vn -0.1380571 -0.1409942 0.9803371
vn -0.1284659 -0.1492624 0.9804168
vn -0.234363 -0.05550896 0.9705631
vn -0.1284616 -0.1492575 0.9804181
vn -0.0827223 -0.1881555 0.9786493
vn 0.3634338 0.4222695 -0.8304241
vn -0.1284508 -0.1492449 0.9804215
vn 0.7579346 -0.6523306 7.142071E-06
vn 0.7579355 -0.6523296 3.352761E-07
vn 0.7579357 -0.6523292 4.202693E-07
vn 0 0 0
vn 0.3634339 0.4222696 -0.8304241
vn 0.3634338 0.4222696 -0.8304241
vn 0.3634339 0.4222696 -0.8304242
vn 0.7579357 -0.6523292 4.202693E-07
vn 0.7579357 -0.6523292 4.202693E-07
vn -0.6395547 -0.7430928 -0.1969334
vn -0.6395547 -0.7430928 -0.1969333
vn -0.6395547 -0.7430928 -0.1969334
vn -0.6395547 -0.7430928 -0.1969334
vn -0.6395547 -0.7430928 -0.1969334
vn -0.6395547 -0.7430928 -0.1969334
vn -0.6395547 -0.7430928 -0.1969334
vn -0.6395547 -0.7430928 -0.1969334
vn -0.6395547 -0.7430928 -0.1969334
vn -0.7579355 0.6523296 -3.352761E-07
vn -0.7579355 0.6523296 -3.352761E-07
vn -0.7579355 0.6523296 -3.352761E-07
vn -0.7579355 0.6523296 -3.352761E-07
vn -0.7579355 0.6523296 -3.352761E-07
vn -0.7579355 0.6523296 -3.352761E-07
vn -0.7579355 0.6523296 -3.352761E-07
vn -0.7579355 0.6523296 -3.352761E-07
vn -0.7579355 0.6523296 -3.352761E-07
vn -0.7579355 0.6523296 -3.352761E-07
vn -0.7579355 0.6523296 -3.352761E-07
vn -0.7579355 0.6523296 -3.352761E-07
vn -0.7579355 0.6523296 -3.352761E-07
vn -0.7579354 0.6523295 -3.352761E-07
vn -0.7579355 0.6523296 -3.352761E-07
vn -0.7579355 0.6523296 -3.352761E-07
vn -0.7579354 0.6523295 -3.352761E-07
vn -0.7579355 0.6523296 -3.352761E-07
vn -0.7579355 0.6523296 -3.352761E-07
vn -0.7579355 0.6523296 -3.352761E-07
vn -0.7579354 0.6523295 -3.352761E-07
vn -0.7579355 0.6523296 -3.352761E-07
vn -0.7579355 0.6523296 -3.352761E-07
vn -0.7579355 0.6523296 -3.352761E-07
vn -0.7579355 0.6523296 -3.352761E-07
vn -0.7579355 0.6523296 -3.352761E-07
vn -0.7579355 0.6523296 -3.352761E-07
vn -0.7579355 0.6523296 -3.352761E-07
vn -0.7579355 0.6523296 -3.352761E-07
vn -0.7579355 0.6523296 -3.352761E-07
vn -0.7579355 0.6523296 -3.352761E-07
vn -0.7579354 0.6523295 -3.352761E-07
vn -0.7579355 0.6523296 -3.352761E-07
vn -0.7579354 0.6523295 -3.352761E-07
vn -0.7579354 0.6523295 -3.352761E-07
vn -0.7579355 0.6523296 -3.352761E-07
vn -0.7579354 0.6523295 -3.352761E-07
vn -0.7579354 0.6523295 -3.352761E-07
vn 0.1260598 0.1464687 0.9811503
vn 0.28372 0.3296525 0.9004622
vn 0.4322762 0.5022583 0.7489151
vn 0.1260598 0.1464687 0.9811502
vn 0.6159737 0.7156943 0.3291778
vn 0.6511152 0.7565246 0.06098754
vn 0.6400333 0.7436485 -0.1932464
vn 0.6400334 0.7436485 -0.1932464
vn 0.1260598 0.1464686 0.9811502
vn -0.6395547 -0.7430928 -0.1969334
vn -0.6395547 -0.7430928 -0.1969334
vn -0.6395547 -0.7430928 -0.1969334
vn -0.6395547 -0.7430928 -0.1969334
vn -0.6395547 -0.7430928 -0.1969334
vn -0.6395547 -0.7430928 -0.1969334
vn -0.6395547 -0.7430928 -0.1969334
vn -0.6395547 -0.7430928 -0.1969333
vn 0.2795079 0.01386628 -0.9600433
vn 0.7579353 -0.6523296 1.057607E-06
vn 0.7579355 -0.6523293 3.777727E-07
vn 0.7579356 -0.6523294 4.90706E-07
vn 0.7579356 -0.6523294 3.777727E-07
vn 0.7579356 -0.6523294 3.777727E-07
vn 0.7579355 -0.6523295 6.593693E-07
vn 0.7579355 -0.6523295 6.593694E-07
vn 0.7579355 -0.6523295 6.593689E-07
vn 0.7579355 -0.6523295 6.593695E-07
vn 0.7579355 -0.6523295 6.593696E-07
vn 0.7579355 -0.6523294 6.593692E-07
vn 0.7579355 -0.6523295 6.593679E-07
vn 0.7579355 -0.6523294 6.593709E-07
vn 0.7579356 -0.6523293 5.205723E-07
vn 0.7579356 -0.6523293 3.953754E-07
vn 0.7579356 -0.6523293 5.193072E-07
vn 0.7579356 -0.6523293 5.193078E-07
vn 0.7579356 -0.6523293 5.193085E-07
vn 0.7579356 -0.6523293 5.193081E-07
vn 0.7579356 -0.6523293 5.19308E-07
vn 0.7579356 -0.6523293 5.193079E-07
vn 0.7579356 -0.6523293 5.193073E-07
vn 0.7579356 -0.6523293 2.962588E-07
vn 0.7579356 -0.6523293 2.71443E-07
vn 0.7579356 -0.6523293 2.714428E-07
vn 0.7579356 -0.6523293 2.714435E-07
vn 0.7579356 -0.6523293 2.71442E-07
vn 0.7579356 -0.6523293 2.714427E-07
vn 0.7579356 -0.6523293 2.71443E-07
vn 0.7579356 -0.6523293 2.718804E-07
vn 0.7579356 -0.6523294 6.097054E-08
vn 0.7579356 -0.6523294 6.097033E-08
vn 0.7579356 -0.6523294 6.096997E-08
vn 0.7579356 -0.6523294 6.097714E-08
vn 0.7579356 -0.6523294 6.09692E-08
vn 0.7579356 -0.6523294 6.096978E-08
vn 0.7579356 -0.6523294 6.097127E-08
vn 0.7579355 -0.6523294 6.097247E-08
vn 0.7579356 -0.6523294 3.777727E-07
vn 0.7579356 -0.6523294 3.777727E-07
vn 0.7579355 -0.6523293 3.777727E-07

f 1//1 2//2 3//3
f 4//4 1//1 3//3
f 3//3 5//5 4//4
f 3//3 6//6 5//5
f 5//5 6//6 7//7
f 8//8 7//7 6//6
f 9//9 8//8 6//6
f 10//10 9//9 6//6
f 9//9 10//10 11//11
f 11//11 10//10 12//12
f 13//13 11//11 12//12
f 13//13 12//12 14//14
f 13//13 14//14 15//15
f 15//15 14//14 16//16
f 15//15 16//16 17//17
f 18//18 17//17 16//16
f 19//19 17//17 18//18
f 19//19 18//18 20//20
f 21//21 19//19 20//20
f 22//22 19//19 21//21
f 22//22 21//21 23//23
f 24//24 22//22 23//23
f 24//24 23//23 25//25
f 26//26 24//24 25//25
f 26//26 25//25 27//27
f 28//28 26//26 27//27
f 28//28 27//27 29//29
f 29//29 27//27 30//30
f 31//31 29//29 30//30
f 31//31 30//30 32//32
f 33//33 31//31 32//32
f 33//33 32//32 34//34
f 35//35 33//33 34//34
f 35//35 34//34 36//36
f 37//37 35//35 36//36
f 37//37 36//36 38//38
f 39//39 37//37 38//38
f 39//39 38//38 40//40
f 41//41 39//39 40//40
f 41//41 40//40 42//42
f 41//41 42//42 43//43
f 43//43 42//42 44//44
f 45//45 43//43 44//44
f 45//45 44//44 46//46
f 47//47 45//45 46//46
f 48//48 45//45 47//47
f 48//48 47//47 49//49
f 50//50 48//48 49//49
f 50//50 49//49 51//51
f 52//52 50//50 51//51
f 52//52 51//51 53//53
f 54//54 52//52 53//53
f 55//55 54//54 53//53
f 55//55 53//53 56//56
f 55//55 56//56 57//57
f 57//57 56//56 58//58
f 57//57 58//58 59//59
f 59//59 58//58 60//60
f 59//59 60//60 61//61
f 61//61 60//60 62//62
f 61//61 62//62 63//63
f 63//63 62//62 64//64
f 63//63 64//64 65//65
f 65//65 64//64 66//66
f 65//65 66//66 67//67
f 68//68 67//67 66//66
f 69//69 67//67 68//68
f 69//69 68//68 70//70
f 71//71 69//69 70//70
f 72//72 71//71 73//73
f 74//74 75//75 76//76
f 77//77 74//74 76//76
f 75//75 77//77 76//76
f 78//78 75//75 74//74
f 79//79 75//75 78//78
f 78//78 74//74 80//80
f 81//81 78//78 80//80
f 82//82 78//78 81//81
f 82//82 83//83 78//78
f 83//83 84//84 79//79
f 84//84 85//85 79//79
f 80//80 74//74 86//86
f 87//87 80//80 86//86
f 81//81 80//80 87//87
f 86//86 74//74 88//88
f 88//88 74//74 77//77
f 86//86 88//88 89//89
f 90//90 86//86 89//89
f 87//87 86//86 90//90
f 75//75 91//91 77//77
f 90//90 89//89 92//92
f 90//90 92//92 93//93
f 94//94 90//90 93//93
f 95//95 83//83 82//82
f 95//95 82//82 81//81
f 95//95 81//81 87//87
f 95//95 87//87 90//90
f 95//95 96//96 83//83
f 97//97 91//91 75//75
f 97//97 98//98 91//91
f 97//97 99//99 98//98
f 100//100 95//95 101//101
f 102//102 103//103 104//104
f 102//102 104//104 105//105
f 102//102 105//105 106//106
f 106//106 105//105 107//107
f 108//108 102//102 106//106
f 109//109 102//102 108//108
f 110//110 108//108 106//106
f 111//111 112//112 113//113
f 111//111 113//113 114//114
f 111//111 114//114 115//115
f 111//111 115//115 116//116
f 111//111 116//116 117//117
f 117//117 118//118 111//111
f 118//118 119//119 111//111
f 120//120 111//111 119//119
f 120//120 121//121 111//111
f 121//121 122//122 111//111
f 111//111 122//122 123//123
f 114//114 113//113 124//124
f 124//124 113//113 125//125
f 125//125 113//113 126//126
f 126//126 113//113 127//127
f 127//127 113//113 128//128
f 128//128 113//113 129//129
f 129//129 113//113 130//130
f 130//130 113//113 131//131
f 131//131 113//113 132//132
f 132//132 113//113 133//133
f 133//133 113//113 134//134
f 133//133 134//134 135//135
f 135//135 134//134 136//136
f 134//134 137//137 136//136
f 137//137 134//134 138//138
f 138//138 134//134 139//139
f 139//139 134//134 140//140
f 140//140 134//134 141//141
f 134//134 142//142 141//141
f 134//134 143//143 142//142
f 134//134 144//144 143//143
f 144//144 134//134 145//145
f 145//145 134//134 146//146
f 147//147 134//134 148//148
f 149//149 150//150 151//151
f 149//149 152//152 150//150
f 151//151 150//150 153//153
f 151//151 153//153 154//154
f 154//154 153//153 155//155
f 154//154 155//155 156//156
f 152//152 157//157 150//150
f 158//158 159//159 160//160
f 161//161 159//159 158//158
f 162//162 159//159 161//161
f 163//163 162//162 161//161
f 164//164 162//162 163//163
f 165//165 162//162 164//164
f 9//9 166//166 8//8
f 166//166 9//9 167//167
f 168//168 169//169 170//170
f 168//168 171//171 169//169
f 172//172 169//169 173//173
f 174//174 169//169 172//172
f 169//169 174//174 175//175
f 176//176 169//169 175//175
f 177//177 169//169 176//176
f 178//178 169//169 177//177
f 178//178 179//179 169//169
f 179//179 180//180 169//169
f 180//180 181//181 169//169
f 182//182 181//181 180//180
f 182//182 183//183 181//181
f 183//183 184//184 181//181
f 184//184 185//185 181//181
f 185//185 186//186 181//181
f 186//186 187//187 181//181
f 187//187 188//188 181//181
f 188//188 189//189 181//181
f 181//181 189//189 190//190
f 181//181 190//190 191//191
f 192//192 181//181 191//191
f 193//193 181//181 192//192
f 194//194 181//181 193//193
f 195//195 181//181 194//194
f 195//195 196//196 181//181
f 196//196 197//197 198//198
f 196//196 198//198 199//199
f 199//199 200//200 196//196
f 196//196 200//200 201//201
f 201//201 202//202 196//196
f 196//196 202//202 203//203
f 196//196 203//203 204//204
f 205//205 196//196 206//206
f 207//207 196//196 205//205
