v -36.55676 15.94814 -139.6294
v -18.67329 26.81398 -139.6294
v -36.55676 15.94814 -139.6294
v -36.55677 15.94814 -139.6294
v -38.32222 18.85379 -138.536
v -39.0284 20.01606 -138.0987
v -39.0284 20.01606 -138.0987
v -21.14492 30.8819 -138.0987
v -3.261444 41.74774 -138.0987
v -39.03883 20.03323 -137.8528
v -3.355366 41.90232 -135.8858
v -39.04013 20.03537 -137.8223
v -3.367037 41.92153 -135.6109
v -39.04049 20.03596 -137.8137
v -3.370314 41.92692 -135.5337
v -39.04458 20.0427 -137.7173
v -3.407141 41.98753 -134.666
v -39.09503 20.12573 -136.5287
v -3.412745 41.99676 -134.5339
v -39.14286 20.20446 -135.4017
v -39.14837 20.21351 -135.2721
v -3.418673 42.00652 -134.3943
v -39.15984 20.2324 -135.0016
v -3.419947 42.00861 -134.3643
v -39.19028 20.28249 -134.2846
v -3.423328 42.01418 -134.2846
v -39.27086 20.41512 -134.1528
v -3.867035 42.74445 -133.5592
v -4.14854 43.20776 -133.099
v -39.29085 20.44802 -134.1202
v -4.328476 43.50391 -132.8049
v -39.2968 20.45782 -134.1104
v -4.382025 43.59204 -132.7173
v -39.34177 20.53183 -134.0369
v -4.786741 44.25814 -132.0557
v -39.85768 21.38093 -133.1935
v -4.844065 44.35249 -131.962
v -40.2839 22.08242 -132.4967
v -4.891422 44.43044 -131.8846
v -40.70518 22.77579 -131.808
v -4.938232 44.50748 -131.8081
v -40.7663 22.87638 -131.8177
v -5.488277 45.41277 -131.8947
v -40.90324 23.10175 -131.8392
v -6.720692 47.44112 -132.0887
v -41.28526 23.73051 -131.8994
v -41.43804 23.98196 -131.9234
v -6.780115 47.53893 -132.098
v -41.95899 24.83936 -132.0054
v -6.837997 47.63419 -132.1071
v -42.38794 25.54535 -132.0729
v -6.88566 47.71264 -132.1146
v -42.68569 26.0354 -132.1198
v -6.918743 47.76708 -132.1198
v -6.918743 47.76709 -132.1198
v -42.76212 26.16119 -132.2932
v -7.606602 48.89919 -133.6804
v -42.78462 26.19822 -132.3442
v -7.809065 49.23241 -134.1397
v -42.78691 26.202 -132.3494
v -7.829733 49.26643 -134.1866
v -42.78798 26.20375 -132.3519
v -7.839318 49.2822 -134.2083
v -42.78933 26.20596 -132.3549
v -7.851431 49.30214 -134.2358
v -42.81429 26.24705 -132.4115
v -8.076108 49.67192 -134.7455
v -43.97166 28.15189 -135.0372
v -8.204705 49.88357 -135.0373
v -43.97166 28.15189 -135.0372
v -8.204705 49.88357 -135.0373
v -43.97166 28.15189 -135.0372
v -43.97166 28.15189 -135.0372
v -44.67783 29.31415 -134.5999
v -46.44329 32.21981 -133.5065
v -46.44329 32.21981 -133.5065
v -46.44328 32.2198 -133.5065
v -43.97166 28.15189 -135.0372
v -43.97166 28.15189 -135.0372
v -43.97166 28.15189 -135.0372
v -8.204705 49.88357 -135.0373
v -8.204705 49.88357 -135.0373
v -8.204705 49.88357 -135.0373
v -43.97166 28.15189 -135.0372
v -43.87136 27.98683 -127.6716
v -43.97166 28.15189 -135.0372
v -8.204705 49.88357 -135.0373
v -43.97166 28.15189 -135.0372
v -26.08818 39.01773 -135.0373
v -8.204705 49.88357 -135.0373
v -28.55981 43.08565 -133.5065
v -8.204723 49.88356 -135.0373
v -8.204705 49.88357 -135.0373
v -8.910884 51.04583 -134.5999
v -8.104413 49.71851 -127.6717
v -8.204705 49.88357 -135.0373
v -43.87136 27.98683 -127.6716
v -10.67633 53.95149 -133.5065
v -8.104413 49.71851 -127.6717
v -6.918743 47.76709 -132.1198
v -6.918743 47.76708 -132.1198
v -18.67329 26.81398 -139.6294
v -36.55676 15.94814 -139.6294
v -36.55677 15.94814 -139.6294
v -38.32222 18.85379 -138.536
v -21.14492 30.8819 -138.0987
v -39.0284 20.01606 -138.0987
v -2.237659 40.06275 -138.7328
v -0.7898121 37.67982 -139.6294
v -3.261444 41.74774 -138.0987
v -36.55676 15.94814 -139.6294
v -36.88054 16.48102 -132.0012
v -39.91034 21.46761 -127.0481
v -39.19028 20.28249 -134.2846
v -39.15984 20.2324 -135.0016
v -39.14837 20.21351 -135.2721
v -39.14286 20.20446 -135.4017
v -39.09503 20.12573 -136.5287
v -39.04458 20.0427 -137.7173
v -39.04049 20.03596 -137.8137
v -39.04013 20.03537 -137.8223
v -39.03883 20.03323 -137.8528
v -39.0284 20.01606 -138.0987
v -39.27086 20.41512 -134.1528
v -39.29085 20.44802 -134.1202
v -39.2968 20.45782 -134.1104
v -39.34177 20.53183 -134.0369
v -39.85768 21.38093 -133.1935
v -40.2839 22.08242 -132.4967
v -40.70518 22.77579 -131.808
v -40.7663 22.87638 -131.8177
v -40.90324 23.10175 -131.8392
v -41.28526 23.73051 -131.8994
v -43.87136 27.98683 -127.6716
v -41.43804 23.98196 -131.9234
v -41.95899 24.83936 -132.0054
v -42.38794 25.54535 -132.0729
v -42.68569 26.0354 -132.1198
v -42.76212 26.16119 -132.2932
v -42.78462 26.19822 -132.3442
v -42.78691 26.202 -132.3494
v -42.78798 26.20375 -132.3519
v -42.78933 26.20596 -132.3549
v -42.81429 26.24705 -132.4115
v -43.97166 28.15189 -135.0372
v -43.97166 28.15189 -135.0372
v -43.97166 28.15189 -135.0372
v -46.44329 32.21981 -133.5065
v -36.55676 15.94814 -139.6294
v -1.113585 38.2127 -132.0012
v -36.88054 16.48102 -132.0012
v -18.67329 26.81398 -139.6294
v -4.143393 43.1993 -127.0481
v -39.91034 21.46761 -127.0481
v -8.104413 49.71851 -127.6717
v -43.87136 27.98683 -127.6716
v -0.7898121 37.67982 -139.6294
v -46.44328 32.2198 -133.5065
v -26.08818 39.01773 -135.0373
v -43.97166 28.15189 -135.0372
v -28.55981 43.08565 -133.5065
v -8.204723 49.88356 -135.0373
v -10.67633 53.95149 -133.5065
v -8.910884 51.04583 -134.5999
v -8.204705 49.88357 -135.0373
v -3.261444 41.74774 -138.0987
v -1.113585 38.2127 -132.0012
v -2.237659 40.06275 -138.7328
v -1.113585 38.2127 -132.0012
v -0.7898121 37.67982 -139.6294
v -3.261444 41.74774 -138.0987
v -3.355366 41.90232 -135.8858
v -3.261444 41.74774 -138.0987
v -3.367037 41.92153 -135.6109
v -3.370314 41.92692 -135.5337
v -3.407141 41.98753 -134.666
v -3.412745 41.99676 -134.5339
v -3.418673 42.00652 -134.3943
v -3.419947 42.00861 -134.3643
v -3.423328 42.01418 -134.2846
v -4.143393 43.1993 -127.0481
v -3.867035 42.74445 -133.5592
v -4.14854 43.20776 -133.099
v -4.328476 43.50391 -132.8049
v -4.382025 43.59204 -132.7173
v -4.786741 44.25814 -132.0557
v -4.844065 44.35249 -131.962
v -4.891422 44.43044 -131.8846
v -4.938232 44.50748 -131.8081
v -5.488277 45.41277 -131.8947
v -6.720692 47.44112 -132.0887
v -6.780115 47.53893 -132.098
v -6.837997 47.63419 -132.1071
v -6.88566 47.71264 -132.1146
v -6.918743 47.76708 -132.1198
v -8.104413 49.71851 -127.6717
v -6.918743 47.76709 -132.1198
v -7.606602 48.89919 -133.6804
v -7.809065 49.23241 -134.1397
v -7.829733 49.26643 -134.1866
v -7.839318 49.2822 -134.2083
v -7.851431 49.30214 -134.2358
v -8.076108 49.67192 -134.7455
v -8.204705 49.88357 -135.0373
v -8.910884 51.04583 -134.5999
v -8.204705 49.88357 -135.0373
v -10.67633 53.95149 -133.5065

vn 0.4943255 -0.8135835 -0.3061442
vn 0.4943256 -0.8135834 -0.3061442
vn -0.1808574 -0.9556471 -0.2324416
vn -0.8546174 -0.5192581 5.140901E-07
vn -0.8546174 -0.5192581 5.140901E-07
vn -0.5175319 0.8517762 -0.08147348
vn -0.6102186 0.7319724 0.3030674
vn -0.271894 0.4474943 -0.851952
vn -0.5175318 0.8517767 -0.08146887
vn -0.5175319 0.8517768 -0.08146803
vn -0.5175319 0.8517768 -0.08146837
vn -0.5175318 0.8517768 -0.08146939
vn -0.5175316 0.8517767 -0.08147044
vn -0.5175324 0.8517768 -0.08146466
vn -0.5175321 0.8517768 -0.08146743
vn -0.5175319 0.8517767 -0.08146796
vn -0.5175321 0.8517768 -0.08146782
vn -0.517532 0.8517767 -0.08146773
vn -0.517532 0.8517767 -0.08146802
vn -0.517532 0.8517768 -0.08146768
vn -0.5175319 0.8517767 -0.08146885
vn -0.5175318 0.8517765 -0.08147041
vn -0.517532 0.8517767 -0.08146822
vn -0.5175321 0.8517768 -0.08146736
vn -0.5052305 0.8315303 -0.2308671
vn -0.3519472 0.5792494 -0.7352572
vn -0.3360368 0.5530636 -0.7623647
vn -0.3360371 0.553064 -0.7623641
vn -0.3360373 0.5530643 -0.762364
vn -0.3360383 0.5530656 -0.7623627
vn -0.3360388 0.5530664 -0.7623617
vn -0.3360397 0.5530673 -0.7623606
vn -0.3360384 0.5530657 -0.7623625
vn -0.3360377 0.5530649 -0.7623632
vn -0.3360375 0.5530646 -0.7623637
vn -0.3360373 0.5530646 -0.7623637
vn -0.3360379 0.5530652 -0.7623629
vn -0.3360376 0.5530649 -0.7623634
vn -0.3360371 0.5530641 -0.7623641
vn -0.3092535 0.5089825 -0.803305
vn 0.008065098 -0.01327464 -0.9998794
vn 0.04230207 -0.0696234 -0.996676
vn 0.04230265 -0.0696243 -0.996676
vn 0.04230304 -0.06962487 -0.9966759
vn 0.04230301 -0.06962488 -0.9966758
vn 0.04230278 -0.06962452 -0.9966758
vn 0.04230238 -0.06962411 -0.9966759
vn 0.04230268 -0.06962447 -0.9966759
vn 0.04230247 -0.06962416 -0.996676
vn 0.04230263 -0.06962445 -0.9966758
vn 0.04230262 -0.06962445 -0.996676
vn 0.04230238 -0.06962407 -0.9966759
vn 0.1434607 -0.2361149 -0.9610769
vn 0.04229034 -0.06960426 -0.9966778
vn 0.3958628 -0.651529 -0.6471497
vn 0.3958632 -0.6515296 -0.6471486
vn 0.3958635 -0.6515299 -0.6471484
vn 0.3958639 -0.6515304 -0.6471474
vn 0.3958631 -0.6515294 -0.647149
vn 0.3958623 -0.6515288 -0.6471503
vn 0.3958611 -0.6515273 -0.6471523
vn 0.3958411 -0.6515052 -0.6471868
vn 0.3958537 -0.6515191 -0.6471652
vn 0.3958662 -0.6515331 -0.6471434
vn 0.3958645 -0.651531 -0.6471466
vn 0.3958632 -0.6515296 -0.6471487
vn 0.3958629 -0.6515293 -0.6471492
vn 0.3958629 -0.6515291 -0.6471494
vn 0.3958613 -0.6515263 -0.6471533
vn 0.3339773 -0.5496752 -0.765713
vn 0.4943258 -0.8135833 -0.3061442
vn 0.4943258 -0.8135833 -0.3061442
vn 0.4943258 -0.8135833 -0.3061442
vn -0.8546174 -0.5192581 5.140901E-07
vn -0.395863 0.6515296 0.647149
vn -0.8546174 -0.5192581 5.140901E-07
vn -0.2218627 0.3651507 -0.9041249
vn -0.3287978 -0.9232328 -0.1988292
vn -0.4276239 -0.8873519 -0.1724654
vn 0.4323568 -0.84842 -0.3053705
vn 0.4943258 -0.8135833 -0.3061442
vn 0.4943258 -0.8135833 -0.3061442
vn 0.4943258 -0.8135833 -0.3061442
vn 0.4036686 -0.8627409 -0.3045157
vn -0.8546174 -0.5192581 5.140901E-07
vn 0.483463 -0.820092 -0.3061251
vn 0.4943258 -0.8135833 -0.3061442
vn 0.3684964 -0.8788405 -0.3030672
vn 0.4943268 -0.813585 -0.3061379
vn 0.5447477 -0.7809399 -0.3055859
vn -0.395863 0.6515294 0.6471489
vn 0.4943295 -0.8135895 -0.3061217
vn 0.8546209 0.5192525 -2.639574E-06
vn 0.8546174 0.5192581 -5.140901E-07
vn 0.8546175 0.519258 -1.03229E-07
vn 0 0 0
vn -0.395863 0.6515294 0.647149
vn -0.3958631 0.6515294 0.647149
vn -0.3958631 0.6515295 0.647149
vn 0.8546175 0.519258 -1.03229E-07
vn 0.8546175 0.519258 -1.03229E-07
vn -0.1589682 0.2616359 -0.9519851
vn -0.1589682 0.2616359 -0.9519851
vn -0.1589682 0.2616359 -0.9519851
vn -0.1589682 0.2616359 -0.9519851
vn -0.1589682 0.2616359 -0.9519851
vn -0.1589682 0.2616359 -0.9519851
vn -0.1589682 0.2616359 -0.9519851
vn -0.1589682 0.2616359 -0.9519851
vn -0.1589682 0.2616359 -0.9519851
vn -0.8546174 -0.5192581 5.140901E-07
vn -0.8546174 -0.5192581 5.140901E-07
vn -0.8546174 -0.5192581 5.140901E-07
vn -0.8546174 -0.5192581 5.140901E-07
vn -0.8546174 -0.5192581 5.140901E-07
vn -0.8546174 -0.5192581 5.140901E-07
vn -0.8546174 -0.5192581 5.140901E-07
vn -0.8546174 -0.5192581 5.140901E-07
vn -0.8546174 -0.5192581 5.140901E-07
vn -0.8546174 -0.5192581 5.140901E-07
vn -0.8546174 -0.5192581 5.140901E-07
vn -0.8546174 -0.5192581 5.140901E-07
vn -0.8546174 -0.5192581 5.140901E-07
vn -0.8546174 -0.5192581 5.1409E-07
vn -0.8546174 -0.5192581 5.140901E-07
vn -0.8546174 -0.5192581 5.140901E-07
vn -0.8546174 -0.5192581 5.1409E-07
vn -0.8546174 -0.5192581 5.140901E-07
vn -0.8546174 -0.5192581 5.140901E-07
vn -0.8546174 -0.5192581 5.140901E-07
vn -0.8546174 -0.5192581 5.1409E-07
vn -0.8546174 -0.5192581 5.140901E-07
vn -0.8546174 -0.5192581 5.140901E-07
vn -0.8546174 -0.5192581 5.140901E-07
vn -0.8546174 -0.5192581 5.140901E-07
vn -0.8546174 -0.5192581 5.140901E-07
vn -0.8546174 -0.5192581 5.140901E-07
vn -0.8546174 -0.5192581 5.140901E-07
vn -0.8546174 -0.5192581 5.140901E-07
vn -0.8546174 -0.5192581 5.140901E-07
vn -0.8546174 -0.5192581 5.140901E-07
vn -0.8546174 -0.5192581 5.1409E-07
vn -0.8546174 -0.5192581 5.140901E-07
vn -0.8546174 -0.5192581 5.1409E-07
vn -0.8546174 -0.5192581 5.1409E-07
vn -0.8546174 -0.5192581 5.140901E-07
vn -0.8546174 -0.5192581 5.1409E-07
vn -0.8546174 -0.5192581 5.1409E-07
vn 0.5175319 -0.8517768 0.0814684
vn 0.4900409 -0.8065307 0.3307086
vn 0.4251736 -0.699769 0.574065
vn 0.5175318 -0.8517767 0.08146843
vn 0.2250849 -0.3704539 0.9011663
vn 0.08986356 -0.1479005 0.9849111
vn -0.04230271 0.06962459 0.9966758
vn -0.04230269 0.06962458 0.9966759
vn 0.5175319 -0.8517767 0.08146831
vn -0.1589682 0.2616359 -0.9519851
vn -0.1589682 0.2616359 -0.9519851
vn -0.1589682 0.2616359 -0.9519851
vn -0.1589682 0.2616359 -0.9519851
vn -0.1589682 0.2616359 -0.9519851
vn -0.1589682 0.2616359 -0.9519851
vn -0.1589682 0.2616359 -0.9519851
vn -0.1589682 0.2616359 -0.9519851
vn -0.3107344 0.9019837 0.2997822
vn 0.8546178 0.5192575 -7.396445E-07
vn 0.8546174 0.519258 -3.086595E-07
vn 0.8546175 0.519258 -3.258063E-07
vn 0.8546175 0.5192581 -3.086595E-07
vn 0.8546175 0.5192581 -3.086595E-07
vn 0.8546176 0.5192578 -4.871793E-07
vn 0.8546176 0.5192578 -4.871795E-07
vn 0.8546176 0.5192578 -4.87179E-07
vn 0.8546176 0.5192578 -4.871796E-07
vn 0.8546176 0.5192578 -4.871797E-07
vn 0.8546175 0.5192578 -4.871791E-07
vn 0.8546176 0.5192578 -4.871771E-07
vn 0.8546175 0.5192578 -4.871818E-07
vn 0.8546175 0.519258 -2.642971E-07
vn 0.8546175 0.519258 -2.235673E-07
vn 0.8546175 0.519258 -2.622665E-07
vn 0.8546175 0.519258 -2.622665E-07
vn 0.8546175 0.519258 -2.622664E-07
vn 0.8546175 0.519258 -2.622664E-07
vn 0.8546175 0.519258 -2.622664E-07
vn 0.8546175 0.519258 -2.622664E-07
vn 0.8546175 0.519258 -2.622662E-07
vn 0.8546174 0.5192581 -1.926174E-07
vn 0.8546174 0.5192581 -1.848683E-07
vn 0.8546174 0.5192581 -1.848682E-07
vn 0.8546174 0.5192581 -1.848688E-07
vn 0.8546174 0.5192581 -1.848674E-07
vn 0.8546174 0.5192581 -1.848681E-07
vn 0.8546174 0.5192581 -1.848684E-07
vn 0.8546174 0.5192581 -2.574759E-07
vn 0.8546173 0.5192583 -3.003239E-07
vn 0.8546173 0.5192583 -3.003239E-07
vn 0.8546173 0.5192583 -3.00324E-07
vn 0.8546173 0.5192583 -3.003234E-07
vn 0.8546173 0.5192583 -3.00324E-07
vn 0.8546173 0.5192583 -3.00324E-07
vn 0.8546173 0.5192583 -3.003239E-07
vn 0.8546172 0.5192583 -3.003239E-07
vn 0.8546175 0.5192581 -3.086595E-07
vn 0.8546175 0.5192581 -3.086595E-07
vn 0.8546174 0.519258 -3.086595E-07

f 1//1 2//2 3//3
f 4//4 1//1 3//3
f 3//3 5//5 4//4
f 3//3 6//6 5//5
f 5//5 6//6 7//7
f 8//8 7//7 6//6
f 9//9 8//8 6//6
f 10//10 9//9 6//6
f 9//9 10//10 11//11
f 11//11 10//10 12//12
f 13//13 11//11 12//12
f 13//13 12//12 14//14
f 13//13 14//14 15//15
f 15//15 14//14 16//16
f 15//15 16//16 17//17
f 18//18 17//17 16//16
f 19//19 17//17 18//18
f 19//19 18//18 20//20
f 21//21 19//19 20//20
f 22//22 19//19 21//21
f 22//22 21//21 23//23
f 24//24 22//22 23//23
f 24//24 23//23 25//25
f 26//26 24//24 25//25
f 26//26 25//25 27//27
f 28//28 26//26 27//27
f 28//28 27//27 29//29
f 29//29 27//27 30//30
f 31//31 29//29 30//30
f 31//31 30//30 32//32
f 33//33 31//31 32//32
f 33//33 32//32 34//34
f 35//35 33//33 34//34
f 35//35 34//34 36//36
f 37//37 35//35 36//36
f 37//37 36//36 38//38
f 39//39 37//37 38//38
f 39//39 38//38 40//40
f 41//41 39//39 40//40
f 41//41 40//40 42//42
f 41//41 42//42 43//43
f 43//43 42//42 44//44
f 45//45 43//43 44//44
f 45//45 44//44 46//46
f 47//47 45//45 46//46
f 48//48 45//45 47//47
f 48//48 47//47 49//49
f 50//50 48//48 49//49
f 50//50 49//49 51//51
f 52//52 50//50 51//51
f 52//52 51//51 53//53
f 54//54 52//52 53//53
f 55//55 54//54 53//53
f 55//55 53//53 56//56
f 55//55 56//56 57//57
f 57//57 56//56 58//58
f 57//57 58//58 59//59
f 59//59 58//58 60//60
f 59//59 60//60 61//61
f 61//61 60//60 62//62
f 61//61 62//62 63//63
f 63//63 62//62 64//64
f 63//63 64//64 65//65
f 65//65 64//64 66//66
f 65//65 66//66 67//67
f 68//68 67//67 66//66
f 69//69 67//67 68//68
f 69//69 68//68 70//70
f 71//71 69//69 70//70
f 72//72 71//71 73//73
f 74//74 75//75 76//76
f 77//77 74//74 76//76
f 75//75 77//77 76//76
f 78//78 75//75 74//74
f 79//79 75//75 78//78
f 78//78 74//74 80//80
f 81//81 78//78 80//80
f 82//82 78//78 81//81
f 82//82 83//83 78//78
f 83//83 84//84 79//79
f 84//84 85//85 79//79
f 80//80 74//74 86//86
f 87//87 80//80 86//86
f 81//81 80//80 87//87
f 86//86 74//74 88//88
f 88//88 74//74 77//77
f 86//86 88//88 89//89
f 90//90 86//86 89//89
f 87//87 86//86 90//90
f 75//75 91//91 77//77
f 90//90 89//89 92//92
f 90//90 92//92 93//93
f 94//94 90//90 93//93
f 95//95 83//83 82//82
f 95//95 82//82 81//81
f 95//95 81//81 87//87
f 95//95 87//87 90//90
f 95//95 96//96 83//83
f 97//97 91//91 75//75
f 97//97 98//98 91//91
f 97//97 99//99 98//98
f 100//100 95//95 101//101
f 102//102 103//103 104//104
f 102//102 104//104 105//105
f 102//102 105//105 106//106
f 106//106 105//105 107//107
f 108//108 102//102 106//106
f 109//109 102//102 108//108
f 110//110 108//108 106//106
f 111//111 112//112 113//113
f 111//111 113//113 114//114
f 111//111 114//114 115//115
f 111//111 115//115 116//116
f 111//111 116//116 117//117
f 117//117 118//118 111//111
f 118//118 119//119 111//111
f 120//120 111//111 119//119
f 120//120 121//121 111//111
f 121//121 122//122 111//111
f 111//111 122//122 123//123
f 114//114 113//113 124//124
f 124//124 113//113 125//125
f 125//125 113//113 126//126
f 126//126 113//113 127//127
f 127//127 113//113 128//128
f 128//128 113//113 129//129
f 129//129 113//113 130//130
f 130//130 113//113 131//131
f 131//131 113//113 132//132
f 132//132 113//113 133//133
f 133//133 113//113 134//134
f 133//133 134//134 135//135
f 135//135 134//134 136//136
f 134//134 137//137 136//136
f 137//137 134//134 138//138
f 138//138 134//134 139//139
f 139//139 134//134 140//140
f 140//140 134//134 141//141
f 134//134 142//142 141//141
f 134//134 143//143 142//142
f 134//134 144//144 143//143
f 144//144 134//134 145//145
f 145//145 134//134 146//146
f 147//147 134//134 148//148
f 149//149 150//150 151//151
f 149//149 152//152 150//150
f 151//151 150//150 153//153
f 151//151 153//153 154//154
f 154//154 153//153 155//155
f 154//154 155//155 156//156
f 152//152 157//157 150//150
f 158//158 159//159 160//160
f 161//161 159//159 158//158
f 162//162 159//159 161//161
f 163//163 162//162 161//161
f 164//164 162//162 163//163
f 165//165 162//162 164//164
f 9//9 166//166 8//8
f 166//166 9//9 167//167
f 168//168 169//169 170//170
f 168//168 171//171 169//169
f 172//172 169//169 173//173
f 174//174 169//169 172//172
f 169//169 174//174 175//175
f 176//176 169//169 175//175
f 177//177 169//169 176//176
f 178//178 169//169 177//177
f 178//178 179//179 169//169
f 179//179 180//180 169//169
f 180//180 181//181 169//169
f 182//182 181//181 180//180
f 182//182 183//183 181//181
f 183//183 184//184 181//181
f 184//184 185//185 181//181
f 185//185 186//186 181//181
f 186//186 187//187 181//181
f 187//187 188//188 181//181
f 188//188 189//189 181//181
f 181//181 189//189 190//190
f 181//181 190//190 191//191
f 192//192 181//181 191//191
f 193//193 181//181 192//192
f 194//194 181//181 193//193
f 195//195 181//181 194//194
f 195//195 196//196 181//181
f 196//196 197//197 198//198
f 196//196 198//198 199//199
f 199//199 200//200 196//196
f 196//196 200//200 201//201
f 201//201 202//202 196//196
f 196//196 202//202 203//203
f 196//196 203//203 204//204
f 205//205 196//196 206//206
f 207//207 196//196 205//205
