v 7.071077 90.00006 92.92892
v 7.071079 49.99998 92.92892
v 7.071077 90.00006 92.92892
v 7.071076 90.00006 92.92892
v 4.545693 90.00006 95.45431
v 3.535539 90.00006 96.46445
v 3.535539 90.00006 96.46445
v 3.535541 49.99998 96.46446
v 3.535541 9.999905 96.46446
v 3.307623 90.00006 96.37006
v 1.484302 9.999905 95.61481
v 3.279302 90.00006 96.35832
v 1.229407 9.999905 95.50923
v 3.271351 90.00006 96.35503
v 1.157843 9.999905 95.47958
v 3.181986 90.00006 96.31801
v 0.3535572 9.999905 95.14644
v 2.080184 90.00006 95.86163
v 0.2311356 9.999905 95.09573
v 1.035538 90.00006 95.42892
v 0.9153622 90.00006 95.37914
v 0.1017109 9.999905 95.04212
v 0.6647084 90.00006 95.27532
v 0.07386089 9.999905 95.03059
v 2.233784E-06 90.00006 94.99998
v 3.413896E-06 9.999905 94.99999
v -0.1880574 90.00006 95.07789
v -1.035533 9.999905 95.42892
v -1.692521 9.999905 95.70107
v -0.2347167 90.00006 95.09721
v -2.112461 9.999905 95.87501
v -0.248603 90.00006 95.10297
v -2.237436 9.999905 95.92677
v -0.3535517 90.00006 95.14644
v -3.181982 9.999905 96.31802
v -1.557597 90.00006 95.64517
v -3.315764 9.999905 96.37343
v -2.552329 90.00006 96.0572
v -3.42629 9.999905 96.41921
v -3.535535 90.00006 96.46446
v -3.535535 9.999905 96.46446
v -3.580727 90.00006 96.57356
v -3.942261 9.999905 97.44638
v -3.681983 90.00006 96.81802
v -4.853557 9.999905 99.64645
v -3.964468 90.00006 97.49999
v -4.07744 90.00006 97.77273
v -4.897497 9.999905 99.75253
v -4.462653 90.00006 98.70271
v -4.940298 9.999905 99.85586
v -4.779834 90.00006 99.46846
v -4.97554 9.999905 99.94094
v -5.000006 90.00006 99.99999
v -5.000003 9.999905 100
v -5.000005 9.999905 100
v -4.912968 90.00006 100.2101
v -4.216663 9.999905 101.8912
v -4.887348 90.00006 100.272
v -3.986094 9.999905 102.4478
v -4.884734 90.00006 100.2783
v -3.962557 9.999905 102.5046
v -4.88352 90.00006 100.2812
v -3.951643 9.999905 102.531
v -4.881989 90.00006 100.2849
v -3.937847 9.999905 102.5643
v -4.853559 90.00006 100.3535
v -3.681982 9.999905 103.182
v -3.535538 90.00006 103.5355
v -3.535537 9.999905 103.5355
v -3.535537 90.00006 103.5355
v -3.535536 9.999905 103.5355
v -3.535537 90.00006 103.5355
v -3.535537 90.00006 103.5355
v -4.545691 90.00006 104.5457
v -7.071075 90.00006 107.0711
v -7.071075 90.00006 107.0711
v -7.071074 90.00006 107.0711
v -3.535537 90.00006 103.5355
v -3.535537 90.00006 103.5355
v -3.535537 90.00006 103.5355
v -3.535536 9.999905 103.5355
v -3.535536 9.999905 103.5355
v -3.535536 9.999905 103.5355
v -3.535537 90.00006 103.5355
v -10.00001 90.00006 100
v -3.535537 90.00006 103.5355
v -3.535536 9.999905 103.5355
v -3.535537 90.00006 103.5355
v -3.535537 49.99998 103.5355
v -3.535536 9.999905 103.5355
v -7.071074 49.99998 107.0711
v -3.535536 9.999943 103.5355
v -3.535536 9.999905 103.5355
v -4.545689 9.999905 104.5457
v -10.00001 9.999912 100
v -3.535537 9.999905 103.5355
v -10.00001 90.00006 100
v -7.071073 9.999905 107.0711
v -10.00001 9.999912 100
v -5.000005 9.999905 100
v -5.000003 9.999905 100
v 7.071079 49.99998 92.92892
v 7.071077 90.00006 92.92892
v 7.071076 90.00006 92.92892
v 4.545693 90.00006 95.45431
v 3.535541 49.99998 96.46446
v 3.535539 90.00006 96.46445
v 5.00001 9.999905 94.99999
v 7.071079 9.999905 92.92892
v 3.535541 9.999905 96.46446
v 7.071077 90.00006 92.92892
v 1.095819E-06 90.00006 89.99998
v -7.071074 90.00006 92.92892
v 2.233784E-06 90.00006 94.99998
v 0.6647084 90.00006 95.27532
v 0.9153622 90.00006 95.37914
v 1.035538 90.00006 95.42892
v 2.080184 90.00006 95.86163
v 3.181986 90.00006 96.31801
v 3.271351 90.00006 96.35503
v 3.279302 90.00006 96.35832
v 3.307623 90.00006 96.37006
v 3.535539 90.00006 96.46445
v -0.1880574 90.00006 95.07789
v -0.2347167 90.00006 95.09721
v -0.248603 90.00006 95.10297
v -0.3535517 90.00006 95.14644
v -1.557597 90.00006 95.64517
v -2.552329 90.00006 96.0572
v -3.535535 90.00006 96.46446
v -3.580727 90.00006 96.57356
v -3.681983 90.00006 96.81802
v -3.964468 90.00006 97.49999
v -10.00001 90.00006 100
v -4.07744 90.00006 97.77273
v -4.462653 90.00006 98.70271
v -4.779834 90.00006 99.46846
v -5.000006 90.00006 99.99999
v -4.912968 90.00006 100.2101
v -4.887348 90.00006 100.272
v -4.884734 90.00006 100.2783
v -4.88352 90.00006 100.2812
v -4.881989 90.00006 100.2849
v -4.853559 90.00006 100.3535
v -3.535538 90.00006 103.5355
v -3.535537 90.00006 103.5355
v -3.535537 90.00006 103.5355
v -7.071075 90.00006 107.0711
v 7.071077 90.00006 92.92892
v 3.793218E-06 9.999912 89.99998
v 1.095819E-06 90.00006 89.99998
v 7.071079 49.99998 92.92892
v -7.071072 9.999912 92.92892
v -7.071074 90.00006 92.92892
v -10.00001 9.999912 100
v -10.00001 90.00006 100
v 7.071079 9.999905 92.92892
v -7.071074 90.00006 107.0711
v -3.535537 49.99998 103.5355
v -3.535537 90.00006 103.5355
v -7.071074 49.99998 107.0711
v -3.535536 9.999943 103.5355
v -7.071073 9.999905 107.0711
v -4.545689 9.999905 104.5457
v -3.535536 9.999905 103.5355
v 3.535541 9.999905 96.46446
v 3.793218E-06 9.999912 89.99998
v 5.00001 9.999905 94.99999
v 3.793218E-06 9.999912 89.99998
v 7.071079 9.999905 92.92892
v 3.535541 9.999905 96.46446
v 1.484302 9.999905 95.61481
v 3.535541 9.999905 96.46446
v 1.229407 9.999905 95.50923
v 1.157843 9.999905 95.47958
v 0.3535572 9.999905 95.14644
v 0.2311356 9.999905 95.09573
v 0.1017109 9.999905 95.04212
v 0.07386089 9.999905 95.03059
v 3.413896E-06 9.999905 94.99999
v -7.071072 9.999912 92.92892
v -1.035533 9.999905 95.42892
v -1.692521 9.999905 95.70107
v -2.112461 9.999905 95.87501
v -2.237436 9.999905 95.92677
v -3.181982 9.999905 96.31802
v -3.315764 9.999905 96.37343
v -3.42629 9.999905 96.41921
v -3.535535 9.999905 96.46446
v -3.942261 9.999905 97.44638
v -4.853557 9.999905 99.64645
v -4.897497 9.999905 99.75253
v -4.940298 9.999905 99.85586
v -4.97554 9.999905 99.94094
v -5.000003 9.999905 100
v -10.00001 9.999912 100
v -5.000005 9.999905 100
v -4.216663 9.999905 101.8912
v -3.986094 9.999905 102.4478
v -3.962557 9.999905 102.5046
v -3.951643 9.999905 102.531
v -3.937847 9.999905 102.5643
v -3.681982 9.999905 103.182
v -3.535537 9.999905 103.5355
v -4.545689 9.999905 104.5457
v -3.535536 9.999905 103.5355
v -7.071073 9.999905 107.0711

vn 0.7071069 5.340572E-07 -0.7071069
vn 0.7071069 3.814695E-07 -0.7071069
vn 0.5368756 0.6507914 -0.5368757
vn 0 1 -1.192093E-07
vn 0 1 -1.192093E-07
vn -0.382679 -1.102438E-07 0.9238815
vn -0.7000003 0.141421 0.7000002
vn 0.5187978 -3.04115E-07 0.854897
vn -0.3826833 -3.880582E-07 0.9238797
vn -0.3826841 -3.469366E-07 0.9238795
vn -0.3826838 -3.856786E-07 0.9238796
vn -0.3826828 -4.692625E-07 0.92388
vn -0.3826818 -5.277749E-07 0.9238803
vn -0.3826872 6.394161E-08 0.9238781
vn -0.3826846 -2.236217E-07 0.9238792
vn -0.3826841 -2.716898E-07 0.9238794
vn -0.3826843 -2.54541E-07 0.9238794
vn -0.3826844 -2.533782E-07 0.9238793
vn -0.3826841 -2.673402E-07 0.9238794
vn -0.3826844 -2.865349E-07 0.9238793
vn -0.3826833 -2.807483E-07 0.9238797
vn -0.3826818 -3.234353E-07 0.9238803
vn -0.3826839 -2.129452E-07 0.9238794
vn -0.3826847 -2.267612E-07 0.9238792
vn -0.2389548 -2.45684E-07 0.9710309
vn 0.3445769 -3.169698E-07 0.9387581
vn 0.3826855 -3.739897E-07 0.9238788
vn 0.3826847 -3.345014E-07 0.923879
vn 0.3826844 -3.148024E-07 0.9238792
vn 0.3826825 -1.614793E-07 0.9238801
vn 0.3826813 -7.70235E-08 0.9238805
vn 0.3826797 1.392183E-07 0.9238811
vn 0.3826824 -1.273895E-07 0.9238801
vn 0.3826834 -3.05623E-07 0.9238796
vn 0.382684 -3.647262E-07 0.9238794
vn 0.3826841 -4.234627E-07 0.9238793
vn 0.382683 -3.248867E-07 0.9238797
vn 0.3826836 -3.455437E-07 0.9238796
vn 0.3826847 -3.863743E-07 0.9238791
vn 0.4426627 -3.979258E-07 0.8966883
vn 0.8966181 -2.328838E-07 0.4428052
vn 0.9238791 -1.888251E-07 0.3826849
vn 0.9238795 -2.162703E-07 0.3826839
vn 0.9238798 -2.569585E-07 0.3826833
vn 0.9238797 -2.28482E-07 0.3826832
vn 0.9238796 -2.107279E-07 0.3826836
vn 0.9238793 -8.455361E-08 0.3826842
vn 0.9238796 -1.540191E-07 0.3826838
vn 0.9238795 -1.315614E-07 0.3826841
vn 0.9238795 -1.240439E-07 0.3826838
vn 0.9238796 -1.171063E-07 0.3826838
vn 0.9238793 -1.084215E-07 0.3826842
vn 0.9811764 -3.330193E-08 0.1931148
vn 0.9238704 -1.063866E-07 0.3827057
vn 0.9238799 1.047355E-07 -0.382683
vn 0.9238793 5.970507E-08 -0.3826842
vn 0.9238793 2.284092E-08 -0.3826846
vn 0.9238787 -8.5104E-08 -0.3826857
vn 0.9238796 1.160884E-07 -0.3826838
vn 0.9238803 4.044773E-07 -0.3826824
vn 0.9238812 6.834608E-07 -0.3826798
vn 0.9238985 6.299339E-06 -0.382638
vn 0.9238877 2.716602E-06 -0.3826643
vn 0.9238768 -6.36752E-07 -0.3826906
vn 0.9238784 -2.474786E-07 -0.3826868
vn 0.9238794 9.013021E-08 -0.3826841
vn 0.9238797 1.157311E-07 -0.3826835
vn 0.9238798 1.155118E-07 -0.3826833
vn 0.9238818 4.553077E-08 -0.3826787
vn 0.9749304 2.963057E-08 -0.2225109
vn 0.7071069 1.907347E-07 -0.7071069
vn 0.7071069 1.907347E-07 -0.7071069
vn 0.7071069 1.907347E-07 -0.7071069
vn 0 1 -1.192093E-07
vn -0.9238796 -2.479948E-07 0.3826839
vn 0 1 -1.192093E-07
vn 0.6092142 -2.859725E-07 0.7930059
vn 0.4592404 0.7603925 -0.4592404
vn 0.3983475 0.8262196 -0.3983476
vn 0.7053199 0.07104921 -0.7053199
vn 0.7071069 1.90735E-07 -0.7071069
vn 0.7071069 1.907347E-07 -0.7071069
vn 0.7071069 1.907344E-07 -0.7071069
vn 0.7033459 0.1030029 -0.7033458
vn 0 1 -1.192093E-07
vn 0.7070543 0.01266336 -0.7070462
vn 0.7071069 1.907357E-07 -0.7071069
vn 0.7000002 0.1414215 -0.7000001
vn 0.7071022 1.907366E-07 -0.7071116
vn 0.7058268 -0.06004161 -0.7058356
vn -0.9238795 -1.776699E-07 0.3826838
vn 0.7070902 1.907404E-07 -0.7071236
vn 4.909271E-06 -1 -4.790061E-06
vn 0 -1 1.192093E-07
vn -3.051757E-07 -1 -1.859663E-07
vn 0 0 0
vn -0.9238796 -1.674791E-07 0.3826838
vn -0.9238796 -1.321837E-07 0.3826838
vn -0.9238797 -1.572884E-07 0.3826839
vn -3.051757E-07 -1 -1.859663E-07
vn -3.051757E-07 -1 -1.859663E-07
vn 0.7071069 -2.384186E-07 0.7071068
vn 0.7071068 -2.384185E-07 0.7071068
vn 0.7071069 -2.384186E-07 0.7071068
vn 0.7071069 -2.384186E-07 0.7071068
vn 0.7071069 -2.384186E-07 0.7071068
vn 0.7071069 -2.384186E-07 0.7071068
vn 0.7071069 -2.384186E-07 0.7071068
vn 0.7071069 -2.384186E-07 0.7071068
vn 0.7071069 -2.384186E-07 0.7071068
vn 0 1 -1.192093E-07
vn 0 1 -1.192093E-07
vn 0 1 -1.192093E-07
vn 0 1 -1.192093E-07
vn 0 1 -1.192093E-07
vn 0 1 -1.192093E-07
vn 0 1 -1.192093E-07
vn 0 1 -1.192093E-07
vn 0 1 -1.192093E-07
vn 0 1 -1.192093E-07
vn 0 1 -1.192093E-07
vn 0 1 -1.192093E-07
vn 0 1 -1.192093E-07
vn 0 1 -1.192093E-07
vn 0 1 -1.192093E-07
vn 0 1 -1.192093E-07
vn 0 1 -1.192093E-07
vn 0 1 -1.192093E-07
vn 0 1 -1.192093E-07
vn 0 1 -1.192093E-07
vn 0 1 -1.192093E-07
vn 0 1 -1.192093E-07
vn 0 1 -1.192093E-07
vn 0 1 -1.192093E-07
vn 0 1 -1.192093E-07
vn 0 1 -1.192093E-07
vn 0 1 -1.192093E-07
vn 0 1 -1.192093E-07
vn 0 1 -1.192093E-07
vn 0 1 -1.192093E-07
vn 0 1 -1.192093E-07
vn 0 1 -1.192093E-07
vn 0 1 -1.192093E-07
vn 0 1 -1.192093E-07
vn 0 1 -1.192093E-07
vn 0 1 -1.192093E-07
vn 0 1 -1.192093E-07
vn 0 1 -1.192093E-07
vn 0.3826838 3.884084E-07 -0.9238796
vn 0.1367738 3.812143E-07 -0.9906024
vn -0.1367737 3.569708E-07 -0.9906024
vn 0.3826837 3.693574E-07 -0.9238795
vn -0.6037482 2.712009E-07 -0.7971752
vn -0.7971753 1.916725E-07 -0.6037481
vn -0.9238796 1.173804E-07 -0.3826836
vn -0.9238796 1.10135E-07 -0.3826837
vn 0.3826838 3.026979E-07 -0.9238795
vn 0.7071069 -2.384186E-07 0.7071068
vn 0.7071069 -2.384186E-07 0.7071068
vn 0.7071069 -2.384186E-07 0.7071068
vn 0.7071069 -2.384186E-07 0.7071068
vn 0.7071069 -2.384186E-07 0.7071068
vn 0.7071069 -2.384186E-07 0.7071068
vn 0.7071069 -2.475885E-07 0.7071068
vn 0.7071068 -2.475885E-07 0.7071068
vn -0.6924129 -0.2028033 0.6924129
vn 5.209673E-07 -1 -4.017579E-07
vn -1.525878E-07 -1 -3.337851E-08
vn -8.63167E-08 -1 -1.249312E-07
vn -1.525878E-07 -1 -3.337852E-08
vn -1.525878E-07 -1 -3.337852E-08
vn 1.264078E-07 -1 -1.859663E-07
vn 1.26408E-07 -1 -1.859664E-07
vn 1.264073E-07 -1 -1.859662E-07
vn 1.264082E-07 -1 -1.859663E-07
vn 1.264083E-07 -1 -1.859663E-07
vn 1.264076E-07 -1 -1.859664E-07
vn 1.264054E-07 -1 -1.859662E-07
vn 1.264107E-07 -1 -1.859663E-07
vn -1.241254E-07 -1 -1.859663E-07
vn -2.157918E-07 -1 -9.658253E-08
vn -1.264081E-07 -1 -1.859658E-07
vn -1.264079E-07 -1 -1.859663E-07
vn -1.264076E-07 -1 -1.85967E-07
vn -1.264078E-07 -1 -1.859666E-07
vn -1.264078E-07 -1 -1.859665E-07
vn -1.264079E-07 -1 -1.859665E-07
vn -1.264083E-07 -1 -1.85966E-07
vn -2.872777E-07 -1 -2.509653E-08
vn -3.051757E-07 -1 -7.198699E-09
vn -3.051759E-07 -1 -7.198559E-09
vn -3.051751E-07 -1 -7.19881E-09
vn -3.051769E-07 -1 -7.198287E-09
vn -3.05176E-07 -1 -7.198499E-09
vn -3.051756E-07 -1 -7.198659E-09
vn -2.441406E-07 -1 3.289261E-08
vn -3.051757E-07 -1 2.456174E-07
vn -3.051759E-07 -1 2.456176E-07
vn -3.05176E-07 -1 2.456179E-07
vn -3.051732E-07 -1 2.456112E-07
vn -3.051763E-07 -1 2.456186E-07
vn -3.05176E-07 -1 2.456181E-07
vn -3.051754E-07 -1 2.456167E-07
vn -3.051748E-07 -1 2.456156E-07
vn -1.525878E-07 -1 -3.337851E-08
vn -1.525878E-07 -1 -3.337852E-08
vn -1.525878E-07 -1 -3.337852E-08

f 1//1 2//2 3//3
f 4//4 1//1 3//3
f 3//3 5//5 4//4
f 3//3 6//6 5//5
f 5//5 6//6 7//7
f 8//8 7//7 6//6
f 9//9 8//8 6//6
f 10//10 9//9 6//6
f 9//9 10//10 11//11
f 11//11 10//10 12//12
f 13//13 11//11 12//12
f 13//13 12//12 14//14
f 13//13 14//14 15//15
f 15//15 14//14 16//16
f 15//15 16//16 17//17
f 18//18 17//17 16//16
f 19//19 17//17 18//18
f 19//19 18//18 20//20
f 21//21 19//19 20//20
f 22//22 19//19 21//21
f 22//22 21//21 23//23
f 24//24 22//22 23//23
f 24//24 23//23 25//25
f 26//26 24//24 25//25
f 26//26 25//25 27//27
f 28//28 26//26 27//27
f 28//28 27//27 29//29
f 29//29 27//27 30//30
f 31//31 29//29 30//30
f 31//31 30//30 32//32
f 33//33 31//31 32//32
f 33//33 32//32 34//34
f 35//35 33//33 34//34
f 35//35 34//34 36//36
f 37//37 35//35 36//36
f 37//37 36//36 38//38
f 39//39 37//37 38//38
f 39//39 38//38 40//40
f 41//41 39//39 40//40
f 41//41 40//40 42//42
f 41//41 42//42 43//43
f 43//43 42//42 44//44
f 45//45 43//43 44//44
f 45//45 44//44 46//46
f 47//47 45//45 46//46
f 48//48 45//45 47//47
f 48//48 47//47 49//49
f 50//50 48//48 49//49
f 50//50 49//49 51//51
f 52//52 50//50 51//51
f 52//52 51//51 53//53
f 54//54 52//52 53//53
f 55//55 54//54 53//53
f 55//55 53//53 56//56
f 55//55 56//56 57//57
f 57//57 56//56 58//58
f 57//57 58//58 59//59
f 59//59 58//58 60//60
f 59//59 60//60 61//61
f 61//61 60//60 62//62
f 61//61 62//62 63//63
f 63//63 62//62 64//64
f 63//63 64//64 65//65
f 65//65 64//64 66//66
f 65//65 66//66 67//67
f 68//68 67//67 66//66
f 69//69 67//67 68//68
f 69//69 68//68 70//70
f 71//71 69//69 70//70
f 72//72 71//71 73//73
f 74//74 75//75 76//76
f 77//77 74//74 76//76
f 75//75 77//77 76//76
f 78//78 75//75 74//74
f 79//79 75//75 78//78
f 78//78 74//74 80//80
f 81//81 78//78 80//80
f 82//82 78//78 81//81
f 82//82 83//83 78//78
f 83//83 84//84 79//79
f 84//84 85//85 79//79
f 80//80 74//74 86//86
f 87//87 80//80 86//86
f 81//81 80//80 87//87
f 86//86 74//74 88//88
f 88//88 74//74 77//77
f 86//86 88//88 89//89
f 90//90 86//86 89//89
f 87//87 86//86 90//90
f 75//75 91//91 77//77
f 90//90 89//89 92//92
f 90//90 92//92 93//93
f 94//94 90//90 93//93
f 95//95 83//83 82//82
f 95//95 82//82 81//81
f 95//95 81//81 87//87
f 95//95 87//87 90//90
f 95//95 96//96 83//83
f 97//97 91//91 75//75
f 97//97 98//98 91//91
f 97//97 99//99 98//98
f 100//100 95//95 101//101
f 102//102 103//103 104//104
f 102//102 104//104 105//105
f 102//102 105//105 106//106
f 106//106 105//105 107//107
f 108//108 102//102 106//106
f 109//109 102//102 108//108
f 110//110 108//108 106//106
f 111//111 112//112 113//113
f 111//111 113//113 114//114
f 111//111 114//114 115//115
f 111//111 115//115 116//116
f 111//111 116//116 117//117
f 117//117 118//118 111//111
f 118//118 119//119 111//111
f 120//120 111//111 119//119
f 120//120 121//121 111//111
f 121//121 122//122 111//111
f 111//111 122//122 123//123
f 114//114 113//113 124//124
f 124//124 113//113 125//125
f 125//125 113//113 126//126
f 126//126 113//113 127//127
f 127//127 113//113 128//128
f 128//128 113//113 129//129
f 129//129 113//113 130//130
f 130//130 113//113 131//131
f 131//131 113//113 132//132
f 132//132 113//113 133//133
f 133//133 113//113 134//134
f 133//133 134//134 135//135
f 135//135 134//134 136//136
f 134//134 137//137 136//136
f 137//137 134//134 138//138
f 138//138 134//134 139//139
f 139//139 134//134 140//140
f 140//140 134//134 141//141
f 134//134 142//142 141//141
f 134//134 143//143 142//142
f 134//134 144//144 143//143
f 144//144 134//134 145//145
f 145//145 134//134 146//146
f 147//147 134//134 148//148
f 149//149 150//150 151//151
f 149//149 152//152 150//150
f 151//151 150//150 153//153
f 151//151 153//153 154//154
f 154//154 153//153 155//155
f 154//154 155//155 156//156
f 152//152 157//157 150//150
f 158//158 159//159 160//160
f 161//161 159//159 158//158
f 162//162 159//159 161//161
f 163//163 162//162 161//161
f 164//164 162//162 163//163
f 165//165 162//162 164//164
f 9//9 166//166 8//8
f 166//166 9//9 167//167
f 168//168 169//169 170//170
f 168//168 171//171 169//169
f 172//172 169//169 173//173
f 174//174 169//169 172//172
f 169//169 174//174 175//175
f 176//176 169//169 175//175
f 177//177 169//169 176//176
f 178//178 169//169 177//177
f 178//178 179//179 169//169
f 179//179 180//180 169//169
f 180//180 181//181 169//169
f 182//182 181//181 180//180
f 182//182 183//183 181//181
f 183//183 184//184 181//181
f 184//184 185//185 181//181
f 185//185 186//186 181//181
f 186//186 187//187 181//181
f 187//187 188//188 181//181
f 188//188 189//189 181//181
f 181//181 189//189 190//190
f 181//181 190//190 191//191
f 192//192 181//181 191//191
f 193//193 181//181 192//192
f 194//194 181//181 193//193
f 195//195 181//181 194//194
f 195//195 196//196 181//181
f 196//196 197//197 198//198
f 196//196 198//198 199//199
f 199//199 200//200 196//196
f 196//196 200//200 201//201
f 201//201 202//202 196//196
f 196//196 202//202 203//203
f 196//196 203//203 204//204
f 205//205 196//196 206//206
f 207//207 196//196 205//205
