v 92.92892 90.00006 7.07107
v 92.92892 49.99998 7.071078
v 92.92892 90.00006 7.07107
v 92.92892 90.00006 7.071069
v 95.45431 90.00006 4.545686
v 96.46446 90.00006 3.535532
v 96.46446 90.00006 3.535532
v 96.46446 49.99998 3.535541
v 96.46446 9.999905 3.535548
v 96.69238 90.00006 3.629938
v 98.5157 9.999905 4.3852
v 96.7207 90.00006 3.64167
v 98.77059 9.999905 4.490779
v 96.72865 90.00006 3.644963
v 98.84216 9.999905 4.520423
v 96.81802 90.00006 3.68198
v 99.64645 9.999905 4.853569
v 97.91982 90.00006 4.138361
v 99.76887 9.999905 4.904279
v 98.96446 90.00006 4.571069
v 99.08464 90.00006 4.620848
v 99.89829 9.999905 4.957887
v 99.33529 90.00006 4.724672
v 99.92614 9.999905 4.969422
v 100 90.00006 5.000003
v 100 9.999905 5.000016
v 100.1881 90.00006 4.922105
v 101.0355 9.999905 4.571082
v 101.6925 9.999905 4.298947
v 100.2347 90.00006 4.902777
v 102.1125 9.999905 4.125003
v 100.2486 90.00006 4.897025
v 102.2374 9.999905 4.073237
v 100.3536 90.00006 4.853555
v 103.182 9.999905 3.681994
v 101.5576 90.00006 4.354821
v 103.3158 9.999905 3.626579
v 102.5523 90.00006 3.94279
v 103.4263 9.999905 3.580798
v 103.5355 90.00006 3.535531
v 103.5355 9.999905 3.535547
v 103.5807 90.00006 3.426429
v 103.9423 9.999905 2.553625
v 103.682 90.00006 3.181978
v 104.8536 9.999905 0.3535619
v 103.9645 90.00006 2.499997
v 104.0774 90.00006 2.22726
v 104.8975 9.999905 0.2474814
v 104.4627 90.00006 1.297276
v 104.9403 9.999905 0.1441519
v 104.7798 90.00006 0.5315341
v 104.9755 9.999905 0.05906697
v 105 90.00006 -5.484875E-06
v 105 9.999905 9.615271E-06
v 105 9.999905 8.266571E-06
v 104.913 90.00006 -0.2101335
v 104.2167 9.999905 -1.891145
v 104.8873 90.00006 -0.271983
v 103.9861 9.999905 -2.447783
v 104.8847 90.00006 -0.2782975
v 103.9626 9.999905 -2.504608
v 104.8835 90.00006 -0.2812248
v 103.9516 9.999905 -2.53096
v 104.882 90.00006 -0.284926
v 103.9378 9.999905 -2.564264
v 104.8536 90.00006 -0.3535591
v 103.682 9.999905 -3.181975
v 103.5355 90.00006 -3.53554
v 103.5355 9.999905 -3.535529
v 103.5355 90.00006 -3.535543
v 103.5355 9.999905 -3.535529
v 103.5355 90.00006 -3.535543
v 103.5355 90.00006 -3.535543
v 104.5457 90.00006 -4.545698
v 107.0711 90.00006 -7.071081
v 107.0711 90.00006 -7.071081
v 107.0711 90.00006 -7.071081
v 103.5355 90.00006 -3.535543
v 103.5355 90.00006 -3.535543
v 103.5355 90.00006 -3.535543
v 103.5355 9.999905 -3.535529
v 103.5355 9.999905 -3.535529
v 103.5355 9.999905 -3.535529
v 103.5355 90.00006 -3.535543
v 110 90.00006 -6.201371E-06
v 103.5355 90.00006 -3.535543
v 103.5355 9.999905 -3.535529
v 103.5355 90.00006 -3.535543
v 103.5355 49.99998 -3.535537
v 103.5355 9.999905 -3.535529
v 107.0711 49.99998 -7.071073
v 103.5355 9.999943 -3.53553
v 103.5355 9.999905 -3.53553
v 104.5457 9.999905 -4.545682
v 110 9.999912 8.730185E-06
v 103.5355 9.999905 -3.535529
v 110 90.00006 -6.201371E-06
v 107.0711 9.999905 -7.071066
v 110 9.999912 8.730185E-06
v 105 9.999905 8.266571E-06
v 105 9.999905 9.615271E-06
v 92.92892 49.99998 7.071078
v 92.92892 90.00006 7.07107
v 92.92892 90.00006 7.071069
v 95.45431 90.00006 4.545686
v 96.46446 49.99998 3.535541
v 96.46446 90.00006 3.535532
v 94.99999 9.999905 5.000017
v 92.92892 9.999905 7.071086
v 96.46446 9.999905 3.535548
v 92.92892 90.00006 7.07107
v 100 90.00006 10.00001
v 107.0711 90.00006 7.071069
v 100 90.00006 5.000003
v 99.33529 90.00006 4.724672
v 99.08464 90.00006 4.620848
v 98.96446 90.00006 4.571069
v 97.91982 90.00006 4.138361
v 96.81802 90.00006 3.68198
v 96.72865 90.00006 3.644963
v 96.7207 90.00006 3.64167
v 96.69238 90.00006 3.629938
v 96.46446 90.00006 3.535532
v 100.1881 90.00006 4.922105
v 100.2347 90.00006 4.902777
v 100.2486 90.00006 4.897025
v 100.3536 90.00006 4.853555
v 101.5576 90.00006 4.354821
v 102.5523 90.00006 3.94279
v 103.5355 90.00006 3.535531
v 103.5807 90.00006 3.426429
v 103.682 90.00006 3.181978
v 103.9645 90.00006 2.499997
v 110 90.00006 -6.201371E-06
v 104.0774 90.00006 2.22726
v 104.4627 90.00006 1.297276
v 104.7798 90.00006 0.5315341
v 105 90.00006 -5.484875E-06
v 104.913 90.00006 -0.2101335
v 104.8873 90.00006 -0.271983
v 104.8847 90.00006 -0.2782975
v 104.8835 90.00006 -0.2812248
v 104.882 90.00006 -0.284926
v 104.8536 90.00006 -0.3535591
v 103.5355 90.00006 -3.53554
v 103.5355 90.00006 -3.535543
v 103.5355 90.00006 -3.535543
v 107.0711 90.00006 -7.071081
v 92.92892 90.00006 7.07107
v 100 9.999912 10.00002
v 100 90.00006 10.00001
v 92.92892 49.99998 7.071078
v 107.0711 9.999912 7.071084
v 107.0711 90.00006 7.071069
v 110 9.999912 8.730185E-06
v 110 90.00006 -6.201371E-06
v 92.92892 9.999905 7.071086
v 107.0711 90.00006 -7.071081
v 103.5355 49.99998 -3.535537
v 103.5355 90.00006 -3.535543
v 107.0711 49.99998 -7.071073
v 103.5355 9.999943 -3.53553
v 107.0711 9.999905 -7.071066
v 104.5457 9.999905 -4.545682
v 103.5355 9.999905 -3.53553
v 96.46446 9.999905 3.535548
v 100 9.999912 10.00002
v 94.99999 9.999905 5.000017
v 100 9.999912 10.00002
v 92.92892 9.999905 7.071086
v 96.46446 9.999905 3.535548
v 98.5157 9.999905 4.3852
v 96.46446 9.999905 3.535548
v 98.77059 9.999905 4.490779
v 98.84216 9.999905 4.520423
v 99.64645 9.999905 4.853569
v 99.76887 9.999905 4.904279
v 99.89829 9.999905 4.957887
v 99.92614 9.999905 4.969422
v 100 9.999905 5.000016
v 107.0711 9.999912 7.071084
v 101.0355 9.999905 4.571082
v 101.6925 9.999905 4.298947
v 102.1125 9.999905 4.125003
v 102.2374 9.999905 4.073237
v 103.182 9.999905 3.681994
v 103.3158 9.999905 3.626579
v 103.4263 9.999905 3.580798
v 103.5355 9.999905 3.535547
v 103.9423 9.999905 2.553625
v 104.8536 9.999905 0.3535619
v 104.8975 9.999905 0.2474814
v 104.9403 9.999905 0.1441519
v 104.9755 9.999905 0.05906697
v 105 9.999905 9.615271E-06
v 110 9.999912 8.730185E-06
v 105 9.999905 8.266571E-06
v 104.2167 9.999905 -1.891145
v 103.9861 9.999905 -2.447783
v 103.9626 9.999905 -2.504608
v 103.9516 9.999905 -2.53096
v 103.9378 9.999905 -2.564264
v 103.682 9.999905 -3.181975
v 103.5355 9.999905 -3.535529
v 104.5457 9.999905 -4.545682
v 103.5355 9.999905 -3.535529
v 107.0711 9.999905 -7.071066

vn -0.7071067 5.340572E-07 0.7071069
vn -0.7071067 3.814695E-07 0.7071069
vn -0.5368754 0.6507914 0.5368755
vn 0 1 -1.192093E-07
vn 0 1 -1.192093E-07
vn 0.3826788 -1.102438E-07 -0.9238815
vn 0.7 0.141421 -0.7000002
vn -0.5187979 -3.04115E-07 -0.854897
vn 0.3826831 -3.880582E-07 -0.9238797
vn 0.3826839 -3.469366E-07 -0.9238795
vn 0.3826835 -3.856786E-07 -0.9238796
vn 0.3826826 -4.692625E-07 -0.92388
vn 0.3826816 -5.277749E-07 -0.9238803
vn 0.382687 6.394161E-08 -0.9238781
vn 0.3826844 -2.236217E-07 -0.9238792
vn 0.3826839 -2.716898E-07 -0.9238794
vn 0.3826841 -2.54541E-07 -0.9238794
vn 0.3826841 -2.533782E-07 -0.9238793
vn 0.3826838 -2.673402E-07 -0.9238794
vn 0.3826842 -2.865349E-07 -0.9238793
vn 0.3826831 -2.807483E-07 -0.9238797
vn 0.3826816 -3.234353E-07 -0.9238803
vn 0.3826836 -2.129452E-07 -0.9238794
vn 0.3826845 -2.267612E-07 -0.9238792
vn 0.2389546 -2.45684E-07 -0.9710309
vn -0.344577 -3.169698E-07 -0.9387581
vn -0.3826856 -3.739897E-07 -0.9238788
vn -0.3826848 -3.345014E-07 -0.923879
vn -0.3826845 -3.148024E-07 -0.9238792
vn -0.3826826 -1.614793E-07 -0.9238801
vn -0.3826814 -7.70235E-08 -0.9238805
vn -0.3826798 1.392183E-07 -0.9238811
vn -0.3826824 -1.273895E-07 -0.9238801
vn -0.3826835 -3.05623E-07 -0.9238796
vn -0.3826841 -3.647262E-07 -0.9238794
vn -0.3826841 -4.234627E-07 -0.9238793
vn -0.3826831 -3.248867E-07 -0.9238797
vn -0.3826837 -3.455437E-07 -0.9238796
vn -0.3826848 -3.863743E-07 -0.9238791
vn -0.4426628 -3.979258E-07 -0.8966883
vn -0.896618 -2.328838E-07 -0.4428052
vn -0.923879 -1.888251E-07 -0.3826849
vn -0.9238794 -2.162703E-07 -0.3826839
vn -0.9238797 -2.569585E-07 -0.3826833
vn -0.9238797 -2.28482E-07 -0.3826832
vn -0.9238794 -2.107279E-07 -0.3826836
vn -0.9238793 -8.455361E-08 -0.3826842
vn -0.9238795 -1.540191E-07 -0.3826838
vn -0.9238794 -1.315614E-07 -0.3826841
vn -0.9238794 -1.240439E-07 -0.3826838
vn -0.9238795 -1.171063E-07 -0.3826838
vn -0.9238793 -1.084215E-07 -0.3826842
vn -0.9811763 -3.330193E-08 -0.1931148
vn -0.9238704 -1.063866E-07 -0.3827057
vn -0.9238797 1.047355E-07 0.382683
vn -0.9238791 5.970507E-08 0.3826842
vn -0.9238791 2.284092E-08 0.3826846
vn -0.9238785 -8.5104E-08 0.3826857
vn -0.9238794 1.160884E-07 0.3826838
vn -0.9238801 4.044773E-07 0.3826824
vn -0.923881 6.834608E-07 0.3826798
vn -0.9238983 6.299339E-06 0.382638
vn -0.9238875 2.716602E-06 0.3826643
vn -0.9238766 -6.36752E-07 0.3826906
vn -0.9238782 -2.474786E-07 0.3826868
vn -0.9238792 9.013021E-08 0.3826841
vn -0.9238794 1.157311E-07 0.3826835
vn -0.9238796 1.155118E-07 0.3826833
vn -0.9238815 4.553077E-08 0.3826787
vn -0.9749302 2.963057E-08 0.2225109
vn -0.7071067 1.907347E-07 0.7071069
vn -0.7071067 1.907347E-07 0.7071069
vn -0.7071067 1.907347E-07 0.7071069
vn 0 1 -1.192093E-07
vn 0.9238793 -2.479948E-07 -0.3826839
vn 0 1 -1.192093E-07
vn -0.6092142 -2.859725E-07 -0.7930059
vn -0.4592402 0.7603925 0.4592403
vn -0.3983474 0.8262196 0.3983474
vn -0.7053197 0.07104921 0.7053199
vn -0.7071067 1.90735E-07 0.7071069
vn -0.7071067 1.907347E-07 0.7071069
vn -0.7071067 1.907344E-07 0.7071069
vn -0.7033457 0.1030029 0.7033458
vn 0 1 -1.192093E-07
vn -0.7070541 0.01266336 0.7070462
vn -0.7071067 1.907357E-07 0.7071069
vn -0.6999999 0.1414215 0.7
vn -0.707102 1.907366E-07 0.7071116
vn -0.7058266 -0.06004161 0.7058356
vn 0.9238793 -1.776699E-07 -0.3826838
vn -0.70709 1.907404E-07 0.7071236
vn -4.909269E-06 -1 5.02848E-06
vn 0 -1 1.192093E-07
vn 3.051757E-07 -1 4.243849E-07
vn 0 0 0
vn 0.9238794 -1.674791E-07 -0.3826838
vn 0.9238794 -1.321837E-07 -0.3826838
vn 0.9238794 -1.572884E-07 -0.3826839
vn 3.051757E-07 -1 4.243849E-07
vn 3.051757E-07 -1 4.243849E-07
vn -0.7071069 -2.384186E-07 -0.7071068
vn -0.7071068 -2.384185E-07 -0.7071068
vn -0.7071069 -2.384186E-07 -0.7071068
vn -0.7071069 -2.384186E-07 -0.7071068
vn -0.7071069 -2.384186E-07 -0.7071068
vn -0.7071069 -2.384186E-07 -0.7071068
vn -0.7071069 -2.384186E-07 -0.7071068
vn -0.7071069 -2.384186E-07 -0.7071068
vn -0.7071069 -2.384186E-07 -0.7071068
vn 0 1 -1.192093E-07
vn 0 1 -1.192093E-07
vn 0 1 -1.192093E-07
vn 0 1 -1.192093E-07
vn 0 1 -1.192093E-07
vn 0 1 -1.192093E-07
vn 0 1 -1.192093E-07
vn 0 1 -1.192093E-07
vn 0 1 -1.192093E-07
vn 0 1 -1.192093E-07
vn 0 1 -1.192093E-07
vn 0 1 -1.192093E-07
vn 0 1 -1.192093E-07
vn 0 1 -1.192093E-07
vn 0 1 -1.192093E-07
vn 0 1 -1.192093E-07
vn 0 1 -1.192093E-07
vn 0 1 -1.192093E-07
vn 0 1 -1.192093E-07
vn 0 1 -1.192093E-07
vn 0 1 -1.192093E-07
vn 0 1 -1.192093E-07
vn 0 1 -1.192093E-07
vn 0 1 -1.192093E-07
vn 0 1 -1.192093E-07
vn 0 1 -1.192093E-07
vn 0 1 -1.192093E-07
vn 0 1 -1.192093E-07
vn 0 1 -1.192093E-07
vn 0 1 -1.192093E-07
vn 0 1 -1.192093E-07
vn 0 1 -1.192093E-07
vn 0 1 -1.192093E-07
vn 0 1 -1.192093E-07
vn 0 1 -1.192093E-07
vn 0 1 -1.192093E-07
vn 0 1 -1.192093E-07
vn 0 1 -1.192093E-07
vn -0.3826835 3.884084E-07 0.9238796
vn -0.1367736 3.812143E-07 0.9906024
vn 0.1367739 3.569708E-07 0.9906024
vn -0.3826834 3.693574E-07 0.9238795
vn 0.6037483 2.712009E-07 0.7971752
vn 0.7971753 1.916725E-07 0.6037481
vn 0.9238794 1.173804E-07 0.3826836
vn 0.9238795 1.10135E-07 0.3826837
vn -0.3826836 3.026979E-07 0.9238795
vn -0.7071069 -2.384186E-07 -0.7071068
vn -0.7071069 -2.384186E-07 -0.7071068
vn -0.7071069 -2.384186E-07 -0.7071068
vn -0.7071069 -2.384186E-07 -0.7071068
vn -0.7071069 -2.384186E-07 -0.7071068
vn -0.7071069 -2.384186E-07 -0.7071068
vn -0.7071069 -2.475885E-07 -0.7071068
vn -0.7071068 -2.475885E-07 -0.7071068
vn 0.6924127 -0.2028033 -0.6924129
vn -5.209671E-07 -1 6.401765E-07
vn 1.525878E-07 -1 2.717971E-07
vn 8.631672E-08 -1 3.633498E-07
vn 1.525878E-07 -1 2.717971E-07
vn 1.525878E-07 -1 2.717971E-07
vn -1.264078E-07 -1 4.243849E-07
vn -1.264079E-07 -1 4.24385E-07
vn -1.264073E-07 -1 4.243848E-07
vn -1.264081E-07 -1 4.243849E-07
vn -1.264082E-07 -1 4.243849E-07
vn -1.264076E-07 -1 4.243849E-07
vn -1.264053E-07 -1 4.243848E-07
vn -1.264106E-07 -1 4.243849E-07
vn 1.241254E-07 -1 4.243849E-07
vn 2.157918E-07 -1 3.350011E-07
vn 1.264082E-07 -1 4.243844E-07
vn 1.264079E-07 -1 4.243849E-07
vn 1.264076E-07 -1 4.243856E-07
vn 1.264078E-07 -1 4.243851E-07
vn 1.264078E-07 -1 4.243851E-07
vn 1.264079E-07 -1 4.24385E-07
vn 1.264084E-07 -1 4.243846E-07
vn 2.872777E-07 -1 2.635151E-07
vn 3.051757E-07 -1 2.456173E-07
vn 3.051759E-07 -1 2.456171E-07
vn 3.051751E-07 -1 2.456174E-07
vn 3.051769E-07 -1 2.456169E-07
vn 3.051759E-07 -1 2.456171E-07
vn 3.051756E-07 -1 2.456172E-07
vn 2.441406E-07 -1 2.05526E-07
vn 3.051757E-07 -1 -7.198806E-09
vn 3.051758E-07 -1 -7.198997E-09
vn 3.051759E-07 -1 -7.199348E-09
vn 3.051731E-07 -1 -7.192586E-09
vn 3.051763E-07 -1 -7.200021E-09
vn 3.05176E-07 -1 -7.199529E-09
vn 3.051753E-07 -1 -7.198152E-09
vn 3.051748E-07 -1 -7.197084E-09
vn 1.525878E-07 -1 2.717971E-07
vn 1.525878E-07 -1 2.717971E-07
vn 1.525878E-07 -1 2.717971E-07

f 1//1 2//2 3//3
f 4//4 1//1 3//3
f 3//3 5//5 4//4
f 3//3 6//6 5//5
f 5//5 6//6 7//7
f 8//8 7//7 6//6
f 9//9 8//8 6//6
f 10//10 9//9 6//6
f 9//9 10//10 11//11
f 11//11 10//10 12//12
f 13//13 11//11 12//12
f 13//13 12//12 14//14
f 13//13 14//14 15//15
f 15//15 14//14 16//16
f 15//15 16//16 17//17
f 18//18 17//17 16//16
f 19//19 17//17 18//18
f 19//19 18//18 20//20
f 21//21 19//19 20//20
f 22//22 19//19 21//21
f 22//22 21//21 23//23
f 24//24 22//22 23//23
f 24//24 23//23 25//25
f 26//26 24//24 25//25
f 26//26 25//25 27//27
f 28//28 26//26 27//27
f 28//28 27//27 29//29
f 29//29 27//27 30//30
f 31//31 29//29 30//30
f 31//31 30//30 32//32
f 33//33 31//31 32//32
f 33//33 32//32 34//34
f 35//35 33//33 34//34
f 35//35 34//34 36//36
f 37//37 35//35 36//36
f 37//37 36//36 38//38
f 39//39 37//37 38//38
f 39//39 38//38 40//40
f 41//41 39//39 40//40
f 41//41 40//40 42//42
f 41//41 42//42 43//43
f 43//43 42//42 44//44
f 45//45 43//43 44//44
f 45//45 44//44 46//46
f 47//47 45//45 46//46
f 48//48 45//45 47//47
f 48//48 47//47 49//49
f 50//50 48//48 49//49
f 50//50 49//49 51//51
f 52//52 50//50 51//51
f 52//52 51//51 53//53
f 54//54 52//52 53//53
f 55//55 54//54 53//53
f 55//55 53//53 56//56
f 55//55 56//56 57//57
f 57//57 56//56 58//58
f 57//57 58//58 59//59
f 59//59 58//58 60//60
f 59//59 60//60 61//61
f 61//61 60//60 62//62
f 61//61 62//62 63//63
f 63//63 62//62 64//64
f 63//63 64//64 65//65
f 65//65 64//64 66//66
f 65//65 66//66 67//67
f 68//68 67//67 66//66
f 69//69 67//67 68//68
f 69//69 68//68 70//70
f 71//71 69//69 70//70
f 72//72 71//71 73//73
f 74//74 75//75 76//76
f 77//77 74//74 76//76
f 75//75 77//77 76//76
f 78//78 75//75 74//74
f 79//79 75//75 78//78
f 78//78 74//74 80//80
f 81//81 78//78 80//80
f 82//82 78//78 81//81
f 82//82 83//83 78//78
f 83//83 84//84 79//79
f 84//84 85//85 79//79
f 80//80 74//74 86//86
f 87//87 80//80 86//86
f 81//81 80//80 87//87
f 86//86 74//74 88//88
f 88//88 74//74 77//77
f 86//86 88//88 89//89
f 90//90 86//86 89//89
f 87//87 86//86 90//90
f 75//75 91//91 77//77
f 90//90 89//89 92//92
f 90//90 92//92 93//93
f 94//94 90//90 93//93
f 95//95 83//83 82//82
f 95//95 82//82 81//81
f 95//95 81//81 87//87
f 95//95 87//87 90//90
f 95//95 96//96 83//83
f 97//97 91//91 75//75
f 97//97 98//98 91//91
f 97//97 99//99 98//98
f 100//100 95//95 101//101
f 102//102 103//103 104//104
f 102//102 104//104 105//105
f 102//102 105//105 106//106
f 106//106 105//105 107//107
f 108//108 102//102 106//106
f 109//109 102//102 108//108
f 110//110 108//108 106//106
f 111//111 112//112 113//113
f 111//111 113//113 114//114
f 111//111 114//114 115//115
f 111//111 115//115 116//116
f 111//111 116//116 117//117
f 117//117 118//118 111//111
f 118//118 119//119 111//111
f 120//120 111//111 119//119
f 120//120 121//121 111//111
f 121//121 122//122 111//111
f 111//111 122//122 123//123
f 114//114 113//113 124//124
f 124//124 113//113 125//125
f 125//125 113//113 126//126
f 126//126 113//113 127//127
f 127//127 113//113 128//128
f 128//128 113//113 129//129
f 129//129 113//113 130//130
f 130//130 113//113 131//131
f 131//131 113//113 132//132
f 132//132 113//113 133//133
f 133//133 113//113 134//134
f 133//133 134//134 135//135
f 135//135 134//134 136//136
f 134//134 137//137 136//136
f 137//137 134//134 138//138
f 138//138 134//134 139//139
f 139//139 134//134 140//140
f 140//140 134//134 141//141
f 134//134 142//142 141//141
f 134//134 143//143 142//142
f 134//134 144//144 143//143
f 144//144 134//134 145//145
f 145//145 134//134 146//146
f 147//147 134//134 148//148
f 149//149 150//150 151//151
f 149//149 152//152 150//150
f 151//151 150//150 153//153
f 151//151 153//153 154//154
f 154//154 153//153 155//155
f 154//154 155//155 156//156
f 152//152 157//157 150//150
f 158//158 159//159 160//160
f 161//161 159//159 158//158
f 162//162 159//159 161//161
f 163//163 162//162 161//161
f 164//164 162//162 163//163
f 165//165 162//162 164//164
f 9//9 166//166 8//8
f 166//166 9//9 167//167
f 168//168 169//169 170//170
f 168//168 171//171 169//169
f 172//172 169//169 173//173
f 174//174 169//169 172//172
f 169//169 174//174 175//175
f 176//176 169//169 175//175
f 177//177 169//169 176//176
f 178//178 169//169 177//177
f 178//178 179//179 169//169
f 179//179 180//180 169//169
f 180//180 181//181 169//169
f 182//182 181//181 180//180
f 182//182 183//183 181//181
f 183//183 184//184 181//181
f 184//184 185//185 181//181
f 185//185 186//186 181//181
f 186//186 187//187 181//181
f 187//187 188//188 181//181
f 188//188 189//189 181//181
f 181//181 189//189 190//190
f 181//181 190//190 191//191
f 192//192 181//181 191//191
f 193//193 181//181 192//192
f 194//194 181//181 193//193
f 195//195 181//181 194//194
f 195//195 196//196 181//181
f 196//196 197//197 198//198
f 196//196 198//198 199//199
f 199//199 200//200 196//196
f 196//196 200//200 201//201
f 201//201 202//202 196//196
f 196//196 202//202 203//203
f 196//196 203//203 204//204
f 205//205 196//196 206//206
f 207//207 196//196 205//205
