v 92.92892 92.92892 90.00002
v 92.92892 92.92892 49.99998
v 92.92892 92.92892 90.00002
v 92.92892 92.92892 90.00002
v 95.45431 95.45431 90.00002
v 96.46446 96.46446 90.00002
v 96.46446 96.46446 90.00002
v 96.46446 96.46446 49.99998
v 96.46446 96.46445 9.999943
v 96.69238 96.37006 90.00002
v 98.5157 95.61481 9.999943
v 96.7207 96.35832 90.00002
v 98.77059 95.50922 9.999943
v 96.72865 96.35503 90.00002
v 98.84216 95.47958 9.999943
v 96.81802 96.31802 90.00002
v 99.64645 95.14644 9.999943
v 97.91982 95.86163 90.00002
v 99.76887 95.09573 9.999943
v 98.96446 95.42892 90.00002
v 99.08464 95.37915 90.00002
v 99.89829 95.04211 9.999943
v 99.3353 95.27532 90.00002
v 99.92614 95.03058 9.999943
v 100 94.99999 90.00002
v 100 94.99998 9.999943
v 100.1881 95.07789 90.00002
v 101.0355 95.42892 9.999943
v 101.6925 95.70106 9.999943
v 100.2347 95.09722 90.00002
v 102.1125 95.875 9.999943
v 100.2486 95.10297 90.00002
v 102.2374 95.92677 9.999943
v 100.3536 95.14644 90.00002
v 103.182 96.31801 9.999943
v 101.5576 95.64517 90.00002
v 103.3158 96.37343 9.999943
v 102.5523 96.05721 90.00002
v 103.4263 96.4192 9.999943
v 103.5355 96.46446 90.00002
v 103.5355 96.46445 9.999943
v 103.5807 96.57356 90.00002
v 103.9423 97.44638 9.999943
v 103.682 96.81802 90.00002
v 104.8536 99.64645 9.999943
v 103.9645 97.5 90.00002
v 104.0774 97.77274 90.00002
v 104.8975 99.75253 9.999943
v 104.4627 98.70272 90.00002
v 104.9403 99.85585 9.999943
v 104.7798 99.46846 90.00002
v 104.9755 99.94094 9.999943
v 105 100 90.00002
v 105 99.99999 9.999943
v 105 100 9.999943
v 104.913 100.2101 90.00002
v 104.2167 101.8912 9.999943
v 104.8873 100.272 90.00002
v 103.9861 102.4478 9.999943
v 104.8847 100.2783 90.00002
v 103.9626 102.5046 9.999943
v 104.8835 100.2812 90.00002
v 103.9516 102.531 9.999943
v 104.882 100.2849 90.00002
v 103.9378 102.5643 9.999943
v 104.8536 100.3536 90.00002
v 103.682 103.182 9.999943
v 103.5355 103.5355 90.00002
v 103.5355 103.5355 9.999943
v 103.5355 103.5355 90.00002
v 103.5355 103.5355 9.999943
v 103.5355 103.5355 90.00002
v 103.5355 103.5355 90.00002
v 104.5457 104.5457 90.00002
v 107.0711 107.0711 90.00002
v 107.0711 107.0711 90.00002
v 107.0711 107.0711 90.00002
v 103.5355 103.5355 90.00002
v 103.5355 103.5355 90.00002
v 103.5355 103.5355 90.00002
v 103.5355 103.5355 9.999943
v 103.5355 103.5355 9.999943
v 103.5355 103.5355 9.999943
v 103.5355 103.5355 90.00002
v 110 100 90.00002
v 103.5355 103.5355 90.00002
v 103.5355 103.5355 9.999943
v 103.5355 103.5355 90.00002
v 103.5355 103.5355 49.99998
v 103.5355 103.5355 9.999943
v 107.0711 107.0711 49.99998
v 103.5355 103.5355 9.999985
v 103.5355 103.5355 9.999943
v 104.5457 104.5457 9.999943
v 110 99.99999 9.99995
v 103.5355 103.5355 9.999943
v 110 100 90.00002
v 107.0711 107.0711 9.999943
v 110 99.99999 9.99995
v 105 100 9.999943
v 105 99.99999 9.999943
v 92.92892 92.92892 49.99998
v 92.92892 92.92892 90.00002
v 92.92892 92.92892 90.00002
v 95.45431 95.45431 90.00002
v 96.46446 96.46446 49.99998
v 96.46446 96.46446 90.00002
v 94.99999 94.99998 9.999943
v 92.92892 92.92892 9.999943
v 96.46446 96.46445 9.999943
v 92.92892 92.92892 90.00002
v 100 89.99998 90.00002
v 107.0711 92.92892 90.00002
v 100 94.99999 90.00002
v 99.3353 95.27532 90.00002
v 99.08464 95.37915 90.00002
v 98.96446 95.42892 90.00002
v 97.91982 95.86163 90.00002
v 96.81802 96.31802 90.00002
v 96.72865 96.35503 90.00002
v 96.7207 96.35832 90.00002
v 96.69238 96.37006 90.00002
v 96.46446 96.46446 90.00002
v 100.1881 95.07789 90.00002
v 100.2347 95.09722 90.00002
v 100.2486 95.10297 90.00002
v 100.3536 95.14644 90.00002
v 101.5576 95.64517 90.00002
v 102.5523 96.05721 90.00002
v 103.5355 96.46446 90.00002
v 103.5807 96.57356 90.00002
v 103.682 96.81802 90.00002
v 103.9645 97.5 90.00002
v 110 100 90.00002
v 104.0774 97.77274 90.00002
v 104.4627 98.70272 90.00002
v 104.7798 99.46846 90.00002
v 105 100 90.00002
v 104.913 100.2101 90.00002
v 104.8873 100.272 90.00002
v 104.8847 100.2783 90.00002
v 104.8835 100.2812 90.00002
v 104.882 100.2849 90.00002
v 104.8536 100.3536 90.00002
v 103.5355 103.5355 90.00002
v 103.5355 103.5355 90.00002
v 103.5355 103.5355 90.00002
v 107.0711 107.0711 90.00002
v 92.92892 92.92892 90.00002
v 100 89.99998 9.99995
v 100 89.99998 90.00002
v 92.92892 92.92892 49.99998
v 107.0711 92.92892 9.99995
v 107.0711 92.92892 90.00002
v 110 99.99999 9.99995
v 110 100 90.00002
v 92.92892 92.92892 9.999943
v 107.0711 107.0711 90.00002
v 103.5355 103.5355 49.99998
v 103.5355 103.5355 90.00002
v 107.0711 107.0711 49.99998
v 103.5355 103.5355 9.999985
v 107.0711 107.0711 9.999943
v 104.5457 104.5457 9.999943
v 103.5355 103.5355 9.999943
v 96.46446 96.46445 9.999943
v 100 89.99998 9.99995
v 94.99999 94.99998 9.999943
v 100 89.99998 9.99995
v 92.92892 92.92892 9.999943
v 96.46446 96.46445 9.999943
v 98.5157 95.61481 9.999943
v 96.46446 96.46445 9.999943
v 98.77059 95.50922 9.999943
v 98.84216 95.47958 9.999943
v 99.64645 95.14644 9.999943
v 99.76887 95.09573 9.999943
v 99.89829 95.04211 9.999943
v 99.92614 95.03058 9.999943
v 100 94.99998 9.999943
v 107.0711 92.92892 9.99995
v 101.0355 95.42892 9.999943
v 101.6925 95.70106 9.999943
v 102.1125 95.875 9.999943
v 102.2374 95.92677 9.999943
v 103.182 96.31801 9.999943
v 103.3158 96.37343 9.999943
v 103.4263 96.4192 9.999943
v 103.5355 96.46445 9.999943
v 103.9423 97.44638 9.999943
v 104.8536 99.64645 9.999943
v 104.8975 99.75253 9.999943
v 104.9403 99.85585 9.999943
v 104.9755 99.94094 9.999943
v 105 99.99999 9.999943
v 110 99.99999 9.99995
v 105 100 9.999943
v 104.2167 101.8912 9.999943
v 103.9861 102.4478 9.999943
v 103.9626 102.5046 9.999943
v 103.9516 102.531 9.999943
v 103.9378 102.5643 9.999943
v 103.682 103.182 9.999943
v 103.5355 103.5355 9.999943
v 104.5457 104.5457 9.999943
v 103.5355 103.5355 9.999943
v 107.0711 107.0711 9.999943

vn -0.7071067 -0.7071069 5.340572E-07
vn -0.7071067 -0.7071069 3.814694E-07
vn -0.5368754 -0.5368755 0.6507913
vn 0 0 1
vn 0 0 1
vn 0.3826788 0.9238815 -6.462383E-08
vn 0.7 0.7000002 0.141421
vn -0.5187979 0.8548968 -1.883212E-07
vn 0.3826831 0.9238797 -3.424387E-07
vn 0.3826839 0.9238794 -3.013172E-07
vn 0.3826835 0.9238795 -3.400592E-07
vn 0.3826826 0.9238799 -4.236429E-07
vn 0.3826816 0.9238803 -4.821552E-07
vn 0.382687 0.9238781 1.095606E-07
vn 0.3826844 0.9238791 -1.780023E-07
vn 0.3826839 0.9238793 -2.260704E-07
vn 0.3826841 0.9238794 -2.089216E-07
vn 0.3826841 0.9238793 -2.077588E-07
vn 0.3826838 0.9238794 -2.217208E-07
vn 0.3826842 0.9238793 -2.409156E-07
vn 0.3826831 0.9238797 -2.351288E-07
vn 0.3826816 0.9238803 -2.778156E-07
vn 0.3826836 0.9238794 -1.673258E-07
vn 0.3826845 0.9238791 -1.811419E-07
vn 0.2389546 0.9710308 -1.839746E-07
vn -0.344577 0.938758 -2.087927E-07
vn -0.3826856 0.9238787 -2.638545E-07
vn -0.3826848 0.9238789 -2.243663E-07
vn -0.3826845 0.9238791 -2.046673E-07
vn -0.3826826 0.92388 -5.134434E-08
vn -0.3826814 0.9238804 3.311141E-08
vn -0.3826798 0.923881 2.493531E-07
vn -0.3826824 0.92388 -1.725448E-08
vn -0.3826835 0.9238794 -1.95488E-07
vn -0.3826841 0.9238794 -2.545912E-07
vn -0.3826841 0.9238792 -3.133276E-07
vn -0.3826831 0.9238796 -2.147517E-07
vn -0.3826837 0.9238795 -2.354086E-07
vn -0.3826848 0.923879 -2.762392E-07
vn -0.4426628 0.8966882 -2.850269E-07
vn -0.896618 0.4428051 -1.199789E-07
vn -0.923879 0.3826848 -7.869002E-08
vn -0.9238794 0.3826838 -1.061353E-07
vn -0.9238797 0.3826832 -1.468234E-07
vn -0.9238797 0.3826831 -1.18347E-07
vn -0.9238794 0.3826835 -1.005928E-07
vn -0.9238793 0.3826841 2.558145E-08
vn -0.9238795 0.3826836 -4.388408E-08
vn -0.9238794 0.382684 -2.142637E-08
vn -0.9238794 0.3826836 -1.39089E-08
vn -0.9238795 0.3826837 -6.971242E-09
vn -0.9238793 0.3826841 1.713521E-09
vn -0.9811763 0.1931147 6.568339E-08
vn -0.9238704 0.3827056 3.749556E-09
vn -0.9238797 -0.3826831 1.50355E-07
vn -0.9238791 -0.3826842 1.053244E-07
vn -0.9238791 -0.3826847 6.84602E-08
vn -0.9238785 -0.3826858 -3.948485E-08
vn -0.9238794 -0.3826839 1.617077E-07
vn -0.9238801 -0.3826824 4.500968E-07
vn -0.923881 -0.3826798 7.290805E-07
vn -0.9238983 -0.3826381 6.344963E-06
vn -0.9238875 -0.3826643 2.762223E-06
vn -0.9238766 -0.3826906 -5.911333E-07
vn -0.9238782 -0.3826869 -2.018595E-07
vn -0.9238792 -0.3826841 1.357495E-07
vn -0.9238794 -0.3826836 1.613505E-07
vn -0.9238796 -0.3826834 1.611312E-07
vn -0.9238815 -0.3826787 9.115076E-08
vn -0.9749302 -0.222511 9.305477E-08
vn -0.7071067 -0.7071069 1.907347E-07
vn -0.7071067 -0.7071069 1.907347E-07
vn -0.7071067 -0.7071069 1.907347E-07
vn 0 0 1
vn 0.9238793 0.3826839 -2.936142E-07
vn 0 0 1
vn -0.6092142 0.7930058 -1.677742E-07
vn -0.4592402 -0.4592403 0.7603924
vn -0.3983474 -0.3983475 0.8262195
vn -0.7053197 -0.7053199 0.0710492
vn -0.7071067 -0.7071069 1.90735E-07
vn -0.7071067 -0.7071069 1.907347E-07
vn -0.7071067 -0.7071069 1.907343E-07
vn -0.7033457 -0.7033458 0.1030029
vn 0 0 1
vn -0.7070541 -0.7070462 0.01266336
vn -0.7071067 -0.7071069 1.907357E-07
vn -0.6999999 -0.7000001 0.1414215
vn -0.707102 -0.7071116 1.907357E-07
vn -0.7058266 -0.7058356 -0.06004161
vn 0.9238793 0.3826839 -2.232892E-07
vn -0.70709 -0.7071236 1.907375E-07
vn -4.909269E-06 -4.909271E-06 -1
vn 0 0 -1
vn 3.051757E-07 -3.051756E-07 -1
vn 0 0 0
vn 0.9238794 0.3826839 -2.130985E-07
vn 0.9238794 0.3826839 -1.778031E-07
vn 0.9238794 0.3826839 -2.029077E-07
vn 3.051757E-07 -3.051756E-07 -1
vn 3.051757E-07 -3.051756E-07 -1
vn -0.7071069 0.7071067 -1.192093E-07
vn -0.7071068 0.7071066 -1.192092E-07
vn -0.7071069 0.7071067 -1.192093E-07
vn -0.7071069 0.7071067 -1.192093E-07
vn -0.7071069 0.7071067 -1.192093E-07
vn -0.7071069 0.7071067 -1.192092E-07
vn -0.7071069 0.7071067 -1.192093E-07
vn -0.7071069 0.7071067 -1.192093E-07
vn -0.7071069 0.7071067 -1.192093E-07
vn 0 0 1
vn 0 0 1
vn 0 0 1
vn 0 0 1
vn 0 0 1
vn 0 0 1
vn 0 0 1
vn 0 0 1
vn 0 0 1
vn 0 0 1
vn 0 0 1
vn 0 0 1
vn 0 0 1
vn 0 0 0.9999999
vn 0 0 1
vn 0 0 1
vn 0 0 0.9999999
vn 0 0 1
vn 0 0 1
vn 0 0 1
vn 0 0 0.9999999
vn 0 0 1
vn 0 0 1
vn 0 0 1
vn 0 0 1
vn 0 0 1
vn 0 0 1
vn 0 0 1
vn 0 0 1
vn 0 0 1
vn 0 0 1
vn 0 0 0.9999999
vn 0 0 1
vn 0 0 0.9999999
vn 0 0 0.9999999
vn 0 0 1
vn 0 0 0.9999999
vn 0 0 0.9999999
vn -0.3826835 -0.9238796 3.42789E-07
vn -0.1367736 -0.9906024 3.092419E-07
vn 0.1367739 -0.9906023 2.619401E-07
vn -0.3826834 -0.9238794 3.23738E-07
vn 0.6037483 -0.7971751 1.531119E-07
vn 0.7971753 -0.603748 7.358348E-08
vn 0.9238794 -0.3826835 7.245398E-09
vn 0.9238795 -0.3826835 0
vn -0.3826836 -0.9238794 2.570785E-07
vn -0.7071069 0.7071067 -1.192093E-07
vn -0.7071069 0.7071067 -1.192093E-07
vn -0.7071069 0.7071067 -1.192093E-07
vn -0.7071069 0.7071067 -1.192093E-07
vn -0.7071069 0.7071067 -1.192093E-07
vn -0.7071069 0.7071067 -1.192093E-07
vn -0.7071069 0.7071067 -1.283792E-07
vn -0.7071068 0.7071066 -1.283792E-07
vn 0.6924127 0.6924129 -0.2028032
vn -5.209671E-07 -5.209672E-07 -1
vn 1.525878E-07 -1.525878E-07 -0.9999999
vn 8.631672E-08 -2.441405E-07 -1
vn 1.525878E-07 -1.525878E-07 -1
vn 1.525878E-07 -1.525878E-07 -1
vn -1.264078E-07 -3.051756E-07 -1
vn -1.264079E-07 -3.051756E-07 -1
vn -1.264073E-07 -3.051754E-07 -1
vn -1.264081E-07 -3.051756E-07 -1
vn -1.264082E-07 -3.051756E-07 -1
vn -1.264076E-07 -3.051756E-07 -0.9999999
vn -1.264053E-07 -3.051755E-07 -1
vn -1.264106E-07 -3.051756E-07 -0.9999999
vn 1.241254E-07 -3.051756E-07 -1
vn 2.157918E-07 -2.157918E-07 -1
vn 1.264082E-07 -3.051751E-07 -1
vn 1.264079E-07 -3.051755E-07 -1
vn 1.264076E-07 -3.051763E-07 -1
vn 1.264078E-07 -3.051758E-07 -1
vn 1.264078E-07 -3.051758E-07 -1
vn 1.264079E-07 -3.051757E-07 -1
vn 1.264084E-07 -3.051753E-07 -1
vn 2.872777E-07 -1.443058E-07 -1
vn 3.051757E-07 -1.26408E-07 -1
vn 3.051759E-07 -1.264078E-07 -1
vn 3.051751E-07 -1.264081E-07 -1
vn 3.051769E-07 -1.264075E-07 -1
vn 3.051759E-07 -1.264078E-07 -1
vn 3.051756E-07 -1.264079E-07 -1
vn 2.441406E-07 -8.631665E-08 -1
vn 3.051757E-07 1.264081E-07 -1
vn 3.051758E-07 1.264083E-07 -1
vn 3.051759E-07 1.264087E-07 -1
vn 3.051731E-07 1.264019E-07 -1
vn 3.051763E-07 1.264093E-07 -1
vn 3.05176E-07 1.264088E-07 -1
vn 3.051753E-07 1.264075E-07 -1
vn 3.051748E-07 1.264064E-07 -0.9999999
vn 1.525878E-07 -1.525878E-07 -1
vn 1.525878E-07 -1.525878E-07 -1
vn 1.525878E-07 -1.525878E-07 -0.9999999

f 1//1 2//2 3//3
f 4//4 1//1 3//3
f 3//3 5//5 4//4
f 3//3 6//6 5//5
f 5//5 6//6 7//7
f 8//8 7//7 6//6
f 9//9 8//8 6//6
f 10//10 9//9 6//6
f 9//9 10//10 11//11
f 11//11 10//10 12//12
f 13//13 11//11 12//12
f 13//13 12//12 14//14
f 13//13 14//14 15//15
f 15//15 14//14 16//16
f 15//15 16//16 17//17
f 18//18 17//17 16//16
f 19//19 17//17 18//18
f 19//19 18//18 20//20
f 21//21 19//19 20//20
f 22//22 19//19 21//21
f 22//22 21//21 23//23
f 24//24 22//22 23//23
f 24//24 23//23 25//25
f 26//26 24//24 25//25
f 26//26 25//25 27//27
f 28//28 26//26 27//27
f 28//28 27//27 29//29
f 29//29 27//27 30//30
f 31//31 29//29 30//30
f 31//31 30//30 32//32
f 33//33 31//31 32//32
f 33//33 32//32 34//34
f 35//35 33//33 34//34
f 35//35 34//34 36//36
f 37//37 35//35 36//36
f 37//37 36//36 38//38
f 39//39 37//37 38//38
f 39//39 38//38 40//40
f 41//41 39//39 40//40
f 41//41 40//40 42//42
f 41//41 42//42 43//43
f 43//43 42//42 44//44
f 45//45 43//43 44//44
f 45//45 44//44 46//46
f 47//47 45//45 46//46
f 48//48 45//45 47//47
f 48//48 47//47 49//49
f 50//50 48//48 49//49
f 50//50 49//49 51//51
f 52//52 50//50 51//51
f 52//52 51//51 53//53
f 54//54 52//52 53//53
f 55//55 54//54 53//53
f 55//55 53//53 56//56
f 55//55 56//56 57//57
f 57//57 56//56 58//58
f 57//57 58//58 59//59
f 59//59 58//58 60//60
f 59//59 60//60 61//61
f 61//61 60//60 62//62
f 61//61 62//62 63//63
f 63//63 62//62 64//64
f 63//63 64//64 65//65
f 65//65 64//64 66//66
f 65//65 66//66 67//67
f 68//68 67//67 66//66
f 69//69 67//67 68//68
f 69//69 68//68 70//70
f 71//71 69//69 70//70
f 72//72 71//71 73//73
f 74//74 75//75 76//76
f 77//77 74//74 76//76
f 75//75 77//77 76//76
f 78//78 75//75 74//74
f 79//79 75//75 78//78
f 78//78 74//74 80//80
f 81//81 78//78 80//80
f 82//82 78//78 81//81
f 82//82 83//83 78//78
f 83//83 84//84 79//79
f 84//84 85//85 79//79
f 80//80 74//74 86//86
f 87//87 80//80 86//86
f 81//81 80//80 87//87
f 86//86 74//74 88//88
f 88//88 74//74 77//77
f 86//86 88//88 89//89
f 90//90 86//86 89//89
f 87//87 86//86 90//90
f 75//75 91//91 77//77
f 90//90 89//89 92//92
f 90//90 92//92 93//93
f 94//94 90//90 93//93
f 95//95 83//83 82//82
f 95//95 82//82 81//81
f 95//95 81//81 87//87
f 95//95 87//87 90//90
f 95//95 96//96 83//83
f 97//97 91//91 75//75
f 97//97 98//98 91//91
f 97//97 99//99 98//98
f 100//100 95//95 101//101
f 102//102 103//103 104//104
f 102//102 104//104 105//105
f 102//102 105//105 106//106
f 106//106 105//105 107//107
f 108//108 102//102 106//106
f 109//109 102//102 108//108
f 110//110 108//108 106//106
f 111//111 112//112 113//113
f 111//111 113//113 114//114
f 111//111 114//114 115//115
f 111//111 115//115 116//116
f 111//111 116//116 117//117
f 117//117 118//118 111//111
f 118//118 119//119 111//111
f 120//120 111//111 119//119
f 120//120 121//121 111//111
f 121//121 122//122 111//111
f 111//111 122//122 123//123
f 114//114 113//113 124//124
f 124//124 113//113 125//125
f 125//125 113//113 126//126
f 126//126 113//113 127//127
f 127//127 113//113 128//128
f 128//128 113//113 129//129
f 129//129 113//113 130//130
f 130//130 113//113 131//131
f 131//131 113//113 132//132
f 132//132 113//113 133//133
f 133//133 113//113 134//134
f 133//133 134//134 135//135
f 135//135 134//134 136//136
f 134//134 137//137 136//136
f 137//137 134//134 138//138
f 138//138 134//134 139//139
f 139//139 134//134 140//140
f 140//140 134//134 141//141
f 134//134 142//142 141//141
f 134//134 143//143 142//142
f 134//134 144//144 143//143
f 144//144 134//134 145//145
f 145//145 134//134 146//146
f 147//147 134//134 148//148
f 149//149 150//150 151//151
f 149//149 152//152 150//150
f 151//151 150//150 153//153
f 151//151 153//153 154//154
f 154//154 153//153 155//155
f 154//154 155//155 156//156
f 152//152 157//157 150//150
f 158//158 159//159 160//160
f 161//161 159//159 158//158
f 162//162 159//159 161//161
f 163//163 162//162 161//161
f 164//164 162//162 163//163
f 165//165 162//162 164//164
f 9//9 166//166 8//8
f 166//166 9//9 167//167
f 168//168 169//169 170//170
f 168//168 171//171 169//169
f 172//172 169//169 173//173
f 174//174 169//169 172//172
f 169//169 174//174 175//175
f 176//176 169//169 175//175
f 177//177 169//169 176//176
f 178//178 169//169 177//177
f 178//178 179//179 169//169
f 179//179 180//180 169//169
f 180//180 181//181 169//169
f 182//182 181//181 180//180
f 182//182 183//183 181//181
f 183//183 184//184 181//181
f 184//184 185//185 181//181
f 185//185 186//186 181//181
f 186//186 187//187 181//181
f 187//187 188//188 181//181
f 188//188 189//189 181//181
f 181//181 189//189 190//190
f 181//181 190//190 191//191
f 192//192 181//181 191//191
f 193//193 181//181 192//192
f 194//194 181//181 193//193
f 195//195 181//181 194//194
f 195//195 196//196 181//181
f 196//196 197//197 198//198
f 196//196 198//198 199//199
f 199//199 200//200 196//196
f 196//196 200//200 201//201
f 201//201 202//202 196//196
f 196//196 202//202 203//203
f 196//196 203//203 204//204
f 205//205 196//196 206//206
f 207//207 196//196 205//205
