v 92.92892 7.071075 90.00002
v 92.92892 7.071077 49.99998
v 92.92892 7.071075 90.00002
v 92.92892 7.071074 90.00002
v 95.45431 4.545692 90.00002
v 96.46446 3.535538 90.00002
v 96.46446 3.535538 90.00002
v 96.46446 3.53554 49.99998
v 96.46445 3.53554 9.999943
v 96.37006 3.307622 90.00002
v 95.61481 1.484301 9.999943
v 96.35833 3.279301 90.00002
v 95.50922 1.229406 9.999943
v 96.35503 3.27135 90.00002
v 95.47958 1.157843 9.999943
v 96.31802 3.181985 90.00002
v 95.14644 0.3535565 9.999943
v 95.86163 2.080184 90.00002
v 95.09573 0.2311349 9.999943
v 95.42892 1.035537 90.00002
v 95.37915 0.9153615 90.00002
v 95.04212 0.1017102 9.999943
v 95.27532 0.6647076 90.00002
v 95.03058 0.07386023 9.999943
v 94.99999 1.580507E-06 90.00002
v 94.99998 2.592031E-06 9.999943
v 95.07789 -0.188058 90.00002
v 95.42892 -1.035533 9.999943
v 95.70106 -1.692521 9.999943
v 95.09722 -0.2347172 90.00002
v 95.875 -2.112462 9.999943
v 95.10297 -0.2486036 90.00002
v 95.92677 -2.237436 9.999943
v 95.14644 -0.3535523 90.00002
v 96.31801 -3.181982 9.999943
v 95.64517 -1.557597 90.00002
v 96.37343 -3.315764 9.999943
v 96.05721 -2.55233 90.00002
v 96.4192 -3.42629 9.999943
v 96.46446 -3.535536 90.00002
v 96.46445 -3.535535 9.999943
v 96.57357 -3.580727 90.00002
v 97.44638 -3.942261 9.999943
v 96.81802 -3.681983 90.00002
v 99.64644 -4.853557 9.999943
v 97.5 -3.964468 90.00002
v 97.77274 -4.07744 90.00002
v 99.75253 -4.897497 9.999943
v 98.70272 -4.462652 90.00002
v 99.85585 -4.940298 9.999943
v 99.46846 -4.779834 90.00002
v 99.94093 -4.97554 9.999943
v 100 -5.000005 90.00002
v 99.99999 -5.000003 9.999943
v 99.99999 -5.000004 9.999943
v 100.2101 -4.912968 90.00002
v 101.8912 -4.216662 9.999943
v 100.272 -4.887348 90.00002
v 102.4478 -3.986094 9.999943
v 100.2783 -4.884733 90.00002
v 102.5046 -3.962556 9.999943
v 100.2812 -4.88352 90.00002
v 102.531 -3.951642 9.999943
v 100.2849 -4.881988 90.00002
v 102.5643 -3.937846 9.999943
v 100.3536 -4.853558 90.00002
v 103.182 -3.681981 9.999943
v 103.5355 -3.535537 90.00002
v 103.5355 -3.535536 9.999943
v 103.5355 -3.535537 90.00002
v 103.5355 -3.535535 9.999943
v 103.5355 -3.535536 90.00002
v 103.5355 -3.535537 90.00002
v 104.5457 -4.54569 90.00002
v 107.0711 -7.071074 90.00002
v 107.0711 -7.071074 90.00002
v 107.0711 -7.071072 90.00002
v 103.5355 -3.535536 90.00002
v 103.5355 -3.535537 90.00002
v 103.5355 -3.535536 90.00002
v 103.5355 -3.535535 9.999943
v 103.5355 -3.535535 9.999943
v 103.5355 -3.535535 9.999943
v 103.5355 -3.535537 90.00002
v 100 -10.00001 90.00002
v 103.5355 -3.535536 90.00002
v 103.5355 -3.535535 9.999943
v 103.5355 -3.535536 90.00002
v 103.5355 -3.535536 49.99998
v 103.5355 -3.535535 9.999943
v 107.0711 -7.071072 49.99998
v 103.5355 -3.535535 9.999985
v 103.5355 -3.535535 9.999943
v 104.5457 -4.545687 9.999943
v 99.99999 -10.00001 9.99995
v 103.5355 -3.535536 9.999943
v 100 -10.00001 90.00002
v 107.0711 -7.071071 9.999943
v 99.99999 -10.00001 9.99995
v 99.99999 -5.000004 9.999943
v 99.99999 -5.000003 9.999943
v 92.92892 7.071077 49.99998
v 92.92892 7.071075 90.00002
v 92.92892 7.071074 90.00002
v 95.45431 4.545692 90.00002
v 96.46446 3.53554 49.99998
v 96.46446 3.535538 90.00002
v 94.99999 5.000009 9.999943
v 92.92892 7.071078 9.999943
v 96.46445 3.53554 9.999943
v 92.92892 7.071075 90.00002
v 89.99999 -2.107345E-07 90.00002
v 92.92892 -7.071074 90.00002
v 94.99999 1.580507E-06 90.00002
v 95.27532 0.6647076 90.00002
v 95.37915 0.9153615 90.00002
v 95.42892 1.035537 90.00002
v 95.86163 2.080184 90.00002
v 96.31802 3.181985 90.00002
v 96.35503 3.27135 90.00002
v 96.35833 3.279301 90.00002
v 96.37006 3.307622 90.00002
v 96.46446 3.535538 90.00002
v 95.07789 -0.188058 90.00002
v 95.09722 -0.2347172 90.00002
v 95.10297 -0.2486036 90.00002
v 95.14644 -0.3535523 90.00002
v 95.64517 -1.557597 90.00002
v 96.05721 -2.55233 90.00002
v 96.46446 -3.535536 90.00002
v 96.57357 -3.580727 90.00002
v 96.81802 -3.681983 90.00002
v 97.5 -3.964468 90.00002
v 100 -10.00001 90.00002
v 97.77274 -4.07744 90.00002
v 98.70272 -4.462652 90.00002
v 99.46846 -4.779834 90.00002
v 100 -5.000005 90.00002
v 100.2101 -4.912968 90.00002
v 100.272 -4.887348 90.00002
v 100.2783 -4.884733 90.00002
v 100.2812 -4.88352 90.00002
v 100.2849 -4.881988 90.00002
v 100.3536 -4.853558 90.00002
v 103.5355 -3.535537 90.00002
v 103.5355 -3.535537 90.00002
v 103.5355 -3.535537 90.00002
v 107.0711 -7.071074 90.00002
v 92.92892 7.071075 90.00002
v 89.99998 2.486664E-06 9.99995
v 89.99999 -2.107345E-07 90.00002
v 92.92892 7.071077 49.99998
v 92.92892 -7.071072 9.99995
v 92.92892 -7.071074 90.00002
v 99.99999 -10.00001 9.99995
v 100 -10.00001 90.00002
v 92.92892 7.071078 9.999943
v 107.0711 -7.071072 90.00002
v 103.5355 -3.535536 49.99998
v 103.5355 -3.535536 90.00002
v 107.0711 -7.071072 49.99998
v 103.5355 -3.535535 9.999985
v 107.0711 -7.071071 9.999943
v 104.5457 -4.545687 9.999943
v 103.5355 -3.535535 9.999943
v 96.46445 3.53554 9.999943
v 89.99998 2.486664E-06 9.99995
v 94.99999 5.000009 9.999943
v 89.99998 2.486664E-06 9.99995
v 92.92892 7.071078 9.999943
v 96.46445 3.53554 9.999943
v 95.61481 1.484301 9.999943
v 96.46445 3.53554 9.999943
v 95.50922 1.229406 9.999943
v 95.47958 1.157843 9.999943
v 95.14644 0.3535565 9.999943
v 95.09573 0.2311349 9.999943
v 95.04212 0.1017102 9.999943
v 95.03058 0.07386023 9.999943
v 94.99998 2.592031E-06 9.999943
v 92.92892 -7.071072 9.99995
v 95.42892 -1.035533 9.999943
v 95.70106 -1.692521 9.999943
v 95.875 -2.112462 9.999943
v 95.92677 -2.237436 9.999943
v 96.31801 -3.181982 9.999943
v 96.37343 -3.315764 9.999943
v 96.4192 -3.42629 9.999943
v 96.46445 -3.535535 9.999943
v 97.44638 -3.942261 9.999943
v 99.64644 -4.853557 9.999943
v 99.75253 -4.897497 9.999943
v 99.85585 -4.940298 9.999943
v 99.94093 -4.97554 9.999943
v 99.99999 -5.000003 9.999943
v 99.99999 -10.00001 9.99995
v 99.99999 -5.000004 9.999943
v 101.8912 -4.216662 9.999943
v 102.4478 -3.986094 9.999943
v 102.5046 -3.962556 9.999943
v 102.531 -3.951642 9.999943
v 102.5643 -3.937846 9.999943
v 103.182 -3.681981 9.999943
v 103.5355 -3.535536 9.999943
v 104.5457 -4.545687 9.999943
v 103.5355 -3.535535 9.999943
v 107.0711 -7.071071 9.999943

vn -0.7071068 0.7071068 5.340572E-07
vn -0.7071068 0.7071068 3.814694E-07
vn -0.5368755 0.5368755 0.6507913
vn 0 0 1
vn 0 0 1
vn 0.9238814 -0.3826789 -6.462383E-08
vn 0.7000001 -0.7000001 0.141421
vn 0.8548969 0.5187978 -1.883212E-07
vn 0.9238796 -0.3826832 -3.424387E-07
vn 0.9238794 -0.382684 -3.013172E-07
vn 0.9238794 -0.3826836 -3.400592E-07
vn 0.9238799 -0.3826827 -4.236429E-07
vn 0.9238802 -0.3826817 -4.821552E-07
vn 0.9238781 -0.3826871 1.095606E-07
vn 0.9238791 -0.3826845 -1.780023E-07
vn 0.9238793 -0.382684 -2.260704E-07
vn 0.9238793 -0.3826842 -2.089216E-07
vn 0.9238792 -0.3826842 -2.077588E-07
vn 0.9238793 -0.3826839 -2.217208E-07
vn 0.9238792 -0.3826843 -2.409156E-07
vn 0.9238796 -0.3826832 -2.351288E-07
vn 0.9238802 -0.3826817 -2.778156E-07
vn 0.9238793 -0.3826837 -1.673258E-07
vn 0.9238791 -0.3826846 -1.811419E-07
vn 0.9710308 -0.2389547 -1.839746E-07
vn 0.938758 0.3445769 -2.087927E-07
vn 0.9238787 0.3826855 -2.638545E-07
vn 0.9238789 0.3826847 -2.243663E-07
vn 0.9238791 0.3826844 -2.046673E-07
vn 0.92388 0.3826825 -5.134434E-08
vn 0.9238804 0.3826813 3.311141E-08
vn 0.9238811 0.3826797 2.493531E-07
vn 0.92388 0.3826824 -1.725448E-08
vn 0.9238794 0.3826834 -1.95488E-07
vn 0.9238794 0.382684 -2.545912E-07
vn 0.9238793 0.382684 -3.133276E-07
vn 0.9238796 0.3826829 -2.147517E-07
vn 0.9238795 0.3826836 -2.354086E-07
vn 0.923879 0.3826847 -2.762392E-07
vn 0.8966882 0.4426627 -2.850269E-07
vn 0.4428052 0.8966179 -1.199789E-07
vn 0.3826849 0.9238789 -7.869002E-08
vn 0.3826839 0.9238794 -1.061353E-07
vn 0.3826832 0.9238797 -1.468234E-07
vn 0.3826832 0.9238796 -1.18347E-07
vn 0.3826836 0.9238794 -1.005928E-07
vn 0.3826841 0.9238792 2.558145E-08
vn 0.3826837 0.9238794 -4.388408E-08
vn 0.3826841 0.9238793 -2.142637E-08
vn 0.3826837 0.9238793 -1.39089E-08
vn 0.3826838 0.9238794 -6.971242E-09
vn 0.3826842 0.9238792 1.713521E-09
vn 0.1931148 0.9811762 6.568339E-08
vn 0.3827057 0.9238703 3.749556E-09
vn -0.382683 0.9238797 1.50355E-07
vn -0.3826841 0.9238791 1.053244E-07
vn -0.3826846 0.9238791 6.84602E-08
vn -0.3826857 0.9238786 -3.948485E-08
vn -0.3826838 0.9238794 1.617077E-07
vn -0.3826824 0.9238801 4.500968E-07
vn -0.3826798 0.923881 7.290805E-07
vn -0.3826379 0.9238983 6.344963E-06
vn -0.3826642 0.9238876 2.762223E-06
vn -0.3826905 0.9238766 -5.911333E-07
vn -0.3826867 0.9238782 -2.018595E-07
vn -0.3826841 0.9238792 1.357495E-07
vn -0.3826835 0.9238794 1.613505E-07
vn -0.3826832 0.9238796 1.611312E-07
vn -0.3826786 0.9238815 9.115076E-08
vn -0.2225109 0.9749302 9.305477E-08
vn -0.7071068 0.7071068 1.907347E-07
vn -0.7071068 0.7071068 1.907347E-07
vn -0.7071068 0.7071068 1.907347E-07
vn 0 0 1
vn 0.3826838 -0.9238794 -2.936142E-07
vn 0 0 1
vn 0.7930058 0.6092141 -1.677742E-07
vn -0.4592403 0.4592403 0.7603924
vn -0.3983474 0.3983474 0.8262195
vn -0.7053198 0.7053198 0.0710492
vn -0.7071068 0.7071068 1.90735E-07
vn -0.7071068 0.7071068 1.907347E-07
vn -0.7071068 0.7071068 1.907343E-07
vn -0.7033457 0.7033457 0.1030029
vn 0 0 1
vn -0.707046 0.7070541 0.01266336
vn -0.7071068 0.7071068 1.907357E-07
vn -0.7 0.7 0.1414215
vn -0.7071115 0.7071021 1.907357E-07
vn -0.7058355 0.7058266 -0.06004161
vn 0.3826838 -0.9238793 -2.232892E-07
vn -0.7071235 0.70709 1.907375E-07
vn -4.90927E-06 4.90927E-06 -1
vn 0 0 -1
vn -3.051756E-07 -3.051756E-07 -1
vn 0 0 0
vn 0.3826838 -0.9238794 -2.130985E-07
vn 0.3826838 -0.9238794 -1.778031E-07
vn 0.3826838 -0.9238794 -2.029077E-07
vn -3.051756E-07 -3.051756E-07 -1
vn -3.051756E-07 -3.051756E-07 -1
vn 0.7071068 0.7071068 -1.192093E-07
vn 0.7071067 0.7071068 -1.192092E-07
vn 0.7071068 0.7071068 -1.192093E-07
vn 0.7071068 0.7071068 -1.192093E-07
vn 0.7071068 0.7071068 -1.192093E-07
vn 0.7071068 0.7071068 -1.192092E-07
vn 0.7071068 0.7071068 -1.192093E-07
vn 0.7071068 0.7071068 -1.192093E-07
vn 0.7071068 0.7071068 -1.192093E-07
vn 0 0 1
vn 0 0 1
vn 0 0 1
vn 0 0 1
vn 0 0 1
vn 0 0 1
vn 0 0 1
vn 0 0 1
vn 0 0 1
vn 0 0 1
vn 0 0 1
vn 0 0 1
vn 0 0 1
vn 0 0 0.9999999
vn 0 0 1
vn 0 0 1
vn 0 0 0.9999999
vn 0 0 1
vn 0 0 1
vn 0 0 1
vn 0 0 0.9999999
vn 0 0 1
vn 0 0 1
vn 0 0 1
vn 0 0 1
vn 0 0 1
vn 0 0 1
vn 0 0 1
vn 0 0 1
vn 0 0 1
vn 0 0 1
vn 0 0 0.9999999
vn 0 0 1
vn 0 0 0.9999999
vn 0 0 0.9999999
vn 0 0 1
vn 0 0 0.9999999
vn 0 0 0.9999999
vn -0.9238796 0.3826836 3.42789E-07
vn -0.9906023 0.1367737 3.092419E-07
vn -0.9906023 -0.1367738 2.619401E-07
vn -0.9238794 0.3826835 3.23738E-07
vn -0.7971752 -0.6037481 1.531119E-07
vn -0.6037481 -0.7971752 7.358348E-08
vn -0.3826836 -0.9238794 7.245398E-09
vn -0.3826836 -0.9238794 0
vn -0.9238794 0.3826837 2.570785E-07
vn 0.7071068 0.7071068 -1.192093E-07
vn 0.7071068 0.7071068 -1.192093E-07
vn 0.7071068 0.7071068 -1.192093E-07
vn 0.7071068 0.7071068 -1.192093E-07
vn 0.7071068 0.7071068 -1.192093E-07
vn 0.7071068 0.7071068 -1.192093E-07
vn 0.7071068 0.7071068 -1.283792E-07
vn 0.7071067 0.7071068 -1.283792E-07
vn 0.6924127 -0.6924127 -0.2028032
vn -5.209671E-07 5.209671E-07 -1
vn -1.525878E-07 -1.525878E-07 -0.9999999
vn -2.441405E-07 -8.63167E-08 -1
vn -1.525878E-07 -1.525878E-07 -1
vn -1.525878E-07 -1.525878E-07 -1
vn -3.051756E-07 1.264078E-07 -1
vn -3.051756E-07 1.26408E-07 -1
vn -3.051754E-07 1.264073E-07 -1
vn -3.051756E-07 1.264082E-07 -1
vn -3.051756E-07 1.264082E-07 -1
vn -3.051756E-07 1.264076E-07 -0.9999999
vn -3.051755E-07 1.264053E-07 -1
vn -3.051756E-07 1.264107E-07 -0.9999999
vn -3.051756E-07 -1.241254E-07 -1
vn -2.157918E-07 -2.157918E-07 -1
vn -3.051751E-07 -1.264081E-07 -1
vn -3.051755E-07 -1.264079E-07 -1
vn -3.051763E-07 -1.264076E-07 -1
vn -3.051758E-07 -1.264078E-07 -1
vn -3.051758E-07 -1.264078E-07 -1
vn -3.051757E-07 -1.264079E-07 -1
vn -3.051753E-07 -1.264083E-07 -1
vn -1.443058E-07 -2.872777E-07 -1
vn -1.26408E-07 -3.051757E-07 -1
vn -1.264078E-07 -3.051758E-07 -1
vn -1.264081E-07 -3.051751E-07 -1
vn -1.264076E-07 -3.051768E-07 -1
vn -1.264078E-07 -3.051759E-07 -1
vn -1.264079E-07 -3.051756E-07 -1
vn -8.631667E-08 -2.441405E-07 -1
vn 1.264081E-07 -3.051757E-07 -1
vn 1.264083E-07 -3.051758E-07 -1
vn 1.264086E-07 -3.051759E-07 -1
vn 1.264019E-07 -3.051731E-07 -1
vn 1.264093E-07 -3.051763E-07 -1
vn 1.264088E-07 -3.05176E-07 -1
vn 1.264074E-07 -3.051753E-07 -1
vn 1.264063E-07 -3.051748E-07 -0.9999999
vn -1.525878E-07 -1.525878E-07 -1
vn -1.525878E-07 -1.525878E-07 -1
vn -1.525878E-07 -1.525878E-07 -0.9999999

f 1//1 2//2 3//3
f 4//4 1//1 3//3
f 3//3 5//5 4//4
f 3//3 6//6 5//5
f 5//5 6//6 7//7
f 8//8 7//7 6//6
f 9//9 8//8 6//6
f 10//10 9//9 6//6
f 9//9 10//10 11//11
f 11//11 10//10 12//12
f 13//13 11//11 12//12
f 13//13 12//12 14//14
f 13//13 14//14 15//15
f 15//15 14//14 16//16
f 15//15 16//16 17//17
f 18//18 17//17 16//16
f 19//19 17//17 18//18
f 19//19 18//18 20//20
f 21//21 19//19 20//20
f 22//22 19//19 21//21
f 22//22 21//21 23//23
f 24//24 22//22 23//23
f 24//24 23//23 25//25
f 26//26 24//24 25//25
f 26//26 25//25 27//27
f 28//28 26//26 27//27
f 28//28 27//27 29//29
f 29//29 27//27 30//30
f 31//31 29//29 30//30
f 31//31 30//30 32//32
f 33//33 31//31 32//32
f 33//33 32//32 34//34
f 35//35 33//33 34//34
f 35//35 34//34 36//36
f 37//37 35//35 36//36
f 37//37 36//36 38//38
f 39//39 37//37 38//38
f 39//39 38//38 40//40
f 41//41 39//39 40//40
f 41//41 40//40 42//42
f 41//41 42//42 43//43
f 43//43 42//42 44//44
f 45//45 43//43 44//44
f 45//45 44//44 46//46
f 47//47 45//45 46//46
f 48//48 45//45 47//47
f 48//48 47//47 49//49
f 50//50 48//48 49//49
f 50//50 49//49 51//51
f 52//52 50//50 51//51
f 52//52 51//51 53//53
f 54//54 52//52 53//53
f 55//55 54//54 53//53
f 55//55 53//53 56//56
f 55//55 56//56 57//57
f 57//57 56//56 58//58
f 57//57 58//58 59//59
f 59//59 58//58 60//60
f 59//59 60//60 61//61
f 61//61 60//60 62//62
f 61//61 62//62 63//63
f 63//63 62//62 64//64
f 63//63 64//64 65//65
f 65//65 64//64 66//66
f 65//65 66//66 67//67
f 68//68 67//67 66//66
f 69//69 67//67 68//68
f 69//69 68//68 70//70
f 71//71 69//69 70//70
f 72//72 71//71 73//73
f 74//74 75//75 76//76
f 77//77 74//74 76//76
f 75//75 77//77 76//76
f 78//78 75//75 74//74
f 79//79 75//75 78//78
f 78//78 74//74 80//80
f 81//81 78//78 80//80
f 82//82 78//78 81//81
f 82//82 83//83 78//78
f 83//83 84//84 79//79
f 84//84 85//85 79//79
f 80//80 74//74 86//86
f 87//87 80//80 86//86
f 81//81 80//80 87//87
f 86//86 74//74 88//88
f 88//88 74//74 77//77
f 86//86 88//88 89//89
f 90//90 86//86 89//89
f 87//87 86//86 90//90
f 75//75 91//91 77//77
f 90//90 89//89 92//92
f 90//90 92//92 93//93
f 94//94 90//90 93//93
f 95//95 83//83 82//82
f 95//95 82//82 81//81
f 95//95 81//81 87//87
f 95//95 87//87 90//90
f 95//95 96//96 83//83
f 97//97 91//91 75//75
f 97//97 98//98 91//91
f 97//97 99//99 98//98
f 100//100 95//95 101//101
f 102//102 103//103 104//104
f 102//102 104//104 105//105
f 102//102 105//105 106//106
f 106//106 105//105 107//107
f 108//108 102//102 106//106
f 109//109 102//102 108//108
f 110//110 108//108 106//106
f 111//111 112//112 113//113
f 111//111 113//113 114//114
f 111//111 114//114 115//115
f 111//111 115//115 116//116
f 111//111 116//116 117//117
f 117//117 118//118 111//111
f 118//118 119//119 111//111
f 120//120 111//111 119//119
f 120//120 121//121 111//111
f 121//121 122//122 111//111
f 111//111 122//122 123//123
f 114//114 113//113 124//124
f 124//124 113//113 125//125
f 125//125 113//113 126//126
f 126//126 113//113 127//127
f 127//127 113//113 128//128
f 128//128 113//113 129//129
f 129//129 113//113 130//130
f 130//130 113//113 131//131
f 131//131 113//113 132//132
f 132//132 113//113 133//133
f 133//133 113//113 134//134
f 133//133 134//134 135//135
f 135//135 134//134 136//136
f 134//134 137//137 136//136
f 137//137 134//134 138//138
f 138//138 134//134 139//139
f 139//139 134//134 140//140
f 140//140 134//134 141//141
f 134//134 142//142 141//141
f 134//134 143//143 142//142
f 134//134 144//144 143//143
f 144//144 134//134 145//145
f 145//145 134//134 146//146
f 147//147 134//134 148//148
f 149//149 150//150 151//151
f 149//149 152//152 150//150
f 151//151 150//150 153//153
f 151//151 153//153 154//154
f 154//154 153//153 155//155
f 154//154 155//155 156//156
f 152//152 157//157 150//150
f 158//158 159//159 160//160
f 161//161 159//159 158//158
f 162//162 159//159 161//161
f 163//163 162//162 161//161
f 164//164 162//162 163//163
f 165//165 162//162 164//164
f 9//9 166//166 8//8
f 166//166 9//9 167//167
f 168//168 169//169 170//170
f 168//168 171//171 169//169
f 172//172 169//169 173//173
f 174//174 169//169 172//172
f 169//169 174//174 175//175
f 176//176 169//169 175//175
f 177//177 169//169 176//176
f 178//178 169//169 177//177
f 178//178 179//179 169//169
f 179//179 180//180 169//169
f 180//180 181//181 169//169
f 182//182 181//181 180//180
f 182//182 183//183 181//181
f 183//183 184//184 181//181
f 184//184 185//185 181//181
f 185//185 186//186 181//181
f 186//186 187//187 181//181
f 187//187 188//188 181//181
f 188//188 189//189 181//181
f 181//181 189//189 190//190
f 181//181 190//190 191//191
f 192//192 181//181 191//191
f 193//193 181//181 192//192
f 194//194 181//181 193//193
f 195//195 181//181 194//194
f 195//195 196//196 181//181
f 196//196 197//197 198//198
f 196//196 198//198 199//199
f 199//199 200//200 196//196
f 196//196 200//200 201//201
f 201//201 202//202 196//196
f 196//196 202//202 203//203
f 196//196 203//203 204//204
f 205//205 196//196 206//206
f 207//207 196//196 205//205
