v 90.00005 7.071074 7.071071
v 49.99998 7.071076 7.071077
v 90.00005 7.071074 7.071071
v 90.00005 7.071073 7.07107
v 90.00005 4.545691 4.545688
v 90.00005 3.535537 3.535534
v 90.00005 3.535537 3.535534
v 49.99998 3.53554 3.53554
v 9.999916 3.53554 3.535545
v 90.00005 3.307622 3.62994
v 9.999916 1.484301 4.385197
v 90.00005 3.279301 3.641671
v 9.999916 1.229406 4.490777
v 90.00005 3.271349 3.644965
v 9.999916 1.157842 4.52042
v 90.00005 3.181984 3.681981
v 9.999916 0.3535561 4.853566
v 90.00005 2.080183 4.138363
v 9.999916 0.2311345 4.904276
v 90.00005 1.035536 4.571071
v 90.00005 0.9153609 4.620849
v 9.999916 0.1017097 4.957884
v 90.00005 0.6647071 4.724674
v 9.999916 0.07385962 4.969419
v 90.00005 9.693773E-07 5.000004
v 9.999916 1.980902E-06 5.000014
v 90.00005 -0.1880584 4.922107
v 9.999916 -1.035533 4.57108
v 9.999916 -1.692521 4.298944
v 90.00005 -0.2347177 4.902779
v 9.999916 -2.112462 4.125001
v 90.00005 -0.2486041 4.897027
v 9.999916 -2.237436 4.073235
v 90.00005 -0.3535528 4.853557
v 9.999916 -3.181982 3.681992
v 90.00005 -1.557598 4.354824
v 9.999916 -3.315764 3.626577
v 90.00005 -2.55233 3.942793
v 9.999916 -3.426291 3.580796
v 90.00005 -3.535536 3.535534
v 9.999916 -3.535535 3.535545
v 90.00005 -3.580727 3.426431
v 9.999916 -3.942261 2.553623
v 90.00005 -3.681983 3.18198
v 9.999916 -4.853556 0.3535601
v 90.00005 -3.964468 2.5
v 90.00005 -4.07744 2.227263
v 9.999916 -4.897496 0.2474799
v 90.00005 -4.462652 1.297279
v 9.999916 -4.940297 0.1441503
v 90.00005 -4.779834 0.5315369
v 9.999916 -4.975539 0.05906555
v 90.00005 -5.000005 -2.468482E-06
v 9.999916 -5.000003 8.031869E-06
v 9.999916 -5.000004 6.683169E-06
v 90.00005 -4.912968 -0.2101305
v 9.999916 -4.216662 -1.891146
v 90.00005 -4.887348 -0.27198
v 9.999916 -3.986093 -2.447784
v 90.00005 -4.884733 -0.2782942
v 9.999916 -3.962556 -2.504609
v 90.00005 -4.883519 -0.2812217
v 9.999916 -3.951642 -2.530961
v 90.00005 -4.881988 -0.2849229
v 9.999916 -3.937845 -2.564265
v 90.00005 -4.853558 -0.353556
v 9.999916 -3.681981 -3.181976
v 90.00005 -3.535537 -3.535537
v 9.999916 -3.535535 -3.535531
v 90.00005 -3.535536 -3.53554
v 9.999916 -3.535535 -3.535531
v 90.00005 -3.535536 -3.53554
v 90.00005 -3.535536 -3.53554
v 90.00005 -4.54569 -4.545694
v 90.00004 -7.071073 -7.071077
v 90.00004 -7.071072 -7.071077
v 90.00004 -7.071071 -7.071076
v 90.00005 -3.535536 -3.53554
v 90.00005 -3.535536 -3.53554
v 90.00005 -3.535536 -3.53554
v 9.999916 -3.535535 -3.535531
v 9.999916 -3.535535 -3.535531
v 9.999916 -3.535535 -3.535531
v 90.00005 -3.535536 -3.53554
v 90.00005 -10.00001 -2.552776E-06
v 90.00005 -3.535536 -3.53554
v 9.999916 -3.535535 -3.535531
v 90.00005 -3.535536 -3.53554
v 49.99998 -3.535535 -3.535536
v 9.999916 -3.535535 -3.535531
v 49.99998 -7.07107 -7.071072
v 9.999958 -3.535535 -3.535531
v 9.999916 -3.535535 -3.535531
v 9.999916 -4.545687 -4.545683
v 9.999924 -10.00001 7.610399E-06
v 9.999916 -3.535535 -3.535531
v 90.00005 -10.00001 -2.552776E-06
v 9.999916 -7.07107 -7.071067
v 9.999924 -10.00001 7.610399E-06
v 9.999916 -5.000004 6.683169E-06
v 9.999916 -5.000003 8.031869E-06
v 49.99998 7.071076 7.071077
v 90.00005 7.071074 7.071071
v 90.00005 7.071073 7.07107
v 90.00005 4.545691 4.545688
v 49.99998 3.53554 3.53554
v 90.00005 3.535537 3.535534
v 9.999916 5.000008 5.000013
v 9.99992 7.071076 7.071082
v 9.999916 3.53554 3.535545
v 90.00005 7.071074 7.071071
v 90.00005 -1.095819E-06 10.00001
v 90.00005 -7.071074 7.071073
v 90.00005 9.693773E-07 5.000004
v 90.00005 0.6647071 4.724674
v 90.00005 0.9153609 4.620849
v 90.00005 1.035536 4.571071
v 90.00005 2.080183 4.138363
v 90.00005 3.181984 3.681981
v 90.00005 3.271349 3.644965
v 90.00005 3.279301 3.641671
v 90.00005 3.307622 3.62994
v 90.00005 3.535537 3.535534
v 90.00005 -0.1880584 4.922107
v 90.00005 -0.2347177 4.902779
v 90.00005 -0.2486041 4.897027
v 90.00005 -0.3535528 4.853557
v 90.00005 -1.557598 4.354824
v 90.00005 -2.55233 3.942793
v 90.00005 -3.535536 3.535534
v 90.00005 -3.580727 3.426431
v 90.00005 -3.681983 3.18198
v 90.00005 -3.964468 2.5
v 90.00005 -10.00001 -2.552776E-06
v 90.00005 -4.07744 2.227263
v 90.00005 -4.462652 1.297279
v 90.00005 -4.779834 0.5315369
v 90.00005 -5.000005 -2.468482E-06
v 90.00005 -4.912968 -0.2101305
v 90.00005 -4.887348 -0.27198
v 90.00005 -4.884733 -0.2782942
v 90.00005 -4.883519 -0.2812217
v 90.00005 -4.881988 -0.2849229
v 90.00005 -4.853558 -0.353556
v 90.00005 -3.535537 -3.535537
v 90.00005 -3.535536 -3.53554
v 90.00005 -3.535536 -3.53554
v 90.00004 -7.071073 -7.071077
v 90.00005 7.071074 7.071071
v 9.999924 1.60158E-06 10.00002
v 90.00005 -1.095819E-06 10.00001
v 49.99998 7.071076 7.071077
v 9.999924 -7.071073 7.071082
v 90.00005 -7.071074 7.071073
v 9.999924 -10.00001 7.610399E-06
v 90.00005 -10.00001 -2.552776E-06
v 9.99992 7.071076 7.071082
v 90.00004 -7.071071 -7.071076
v 49.99998 -3.535535 -3.535536
v 90.00005 -3.535536 -3.53554
v 49.99998 -7.07107 -7.071072
v 9.999958 -3.535535 -3.535531
v 9.999916 -7.07107 -7.071067
v 9.999916 -4.545687 -4.545683
v 9.999916 -3.535535 -3.535531
v 9.999916 3.53554 3.535545
v 9.999924 1.60158E-06 10.00002
v 9.999916 5.000008 5.000013
v 9.999924 1.60158E-06 10.00002
v 9.99992 7.071076 7.071082
v 9.999916 3.53554 3.535545
v 9.999916 1.484301 4.385197
v 9.999916 3.53554 3.535545
v 9.999916 1.229406 4.490777
v 9.999916 1.157842 4.52042
v 9.999916 0.3535561 4.853566
v 9.999916 0.2311345 4.904276
v 9.999916 0.1017097 4.957884
v 9.999916 0.07385962 4.969419
v 9.999916 1.980902E-06 5.000014
v 9.999924 -7.071073 7.071082
v 9.999916 -1.035533 4.57108
v 9.999916 -1.692521 4.298944
v 9.999916 -2.112462 4.125001
v 9.999916 -2.237436 4.073235
v 9.999916 -3.181982 3.681992
v 9.999916 -3.315764 3.626577
v 9.999916 -3.426291 3.580796
v 9.999916 -3.535535 3.535545
v 9.999916 -3.942261 2.553623
v 9.999916 -4.853556 0.3535601
v 9.999916 -4.897496 0.2474799
v 9.999916 -4.940297 0.1441503
v 9.999916 -4.975539 0.05906555
v 9.999916 -5.000003 8.031869E-06
v 9.999924 -10.00001 7.610399E-06
v 9.999916 -5.000004 6.683169E-06
v 9.999916 -4.216662 -1.891146
v 9.999916 -3.986093 -2.447784
v 9.999916 -3.962556 -2.504609
v 9.999916 -3.951642 -2.530961
v 9.999916 -3.937845 -2.564265
v 9.999916 -3.681981 -3.181976
v 9.999916 -3.535535 -3.535531
v 9.999916 -4.545687 -4.545683
v 9.999916 -3.535535 -3.535531
v 9.999916 -7.07107 -7.071067

vn 5.936619E-07 0.7071068 0.7071069
vn 4.410741E-07 0.7071068 0.7071069
vn 0.6507914 0.5368755 0.5368755
vn 1 0 -5.960464E-08
vn 1 0 -5.960464E-08
vn -1.196912E-07 -0.3826789 -0.9238815
vn 0.1414209 -0.7000001 -0.7000002
vn -2.024867E-07 0.5187978 -0.8548969
vn -3.975063E-07 -0.3826831 -0.9238797
vn -3.563847E-07 -0.382684 -0.9238794
vn -3.951267E-07 -0.3826836 -0.9238796
vn -4.787104E-07 -0.3826827 -0.92388
vn -5.372227E-07 -0.3826817 -0.9238803
vn 5.449299E-08 -0.3826871 -0.9238781
vn -2.330699E-07 -0.3826845 -0.9238792
vn -2.81138E-07 -0.382684 -0.9238793
vn -2.639892E-07 -0.3826842 -0.9238794
vn -2.628263E-07 -0.3826842 -0.9238793
vn -2.767883E-07 -0.3826839 -0.9238794
vn -2.959831E-07 -0.3826843 -0.9238793
vn -2.901963E-07 -0.3826832 -0.9238797
vn -3.328831E-07 -0.3826817 -0.9238803
vn -2.223934E-07 -0.3826837 -0.9238794
vn -2.362095E-07 -0.3826846 -0.9238792
vn -2.349717E-07 -0.2389547 -0.9710308
vn -2.338356E-07 0.344577 -0.9387581
vn -2.866641E-07 0.3826855 -0.9238787
vn -2.471759E-07 0.3826847 -0.923879
vn -2.27477E-07 0.3826844 -0.9238791
vn -7.415412E-08 0.3826825 -0.92388
vn 1.030157E-08 0.3826813 -0.9238805
vn 2.265432E-07 0.3826797 -0.9238811
vn -4.006426E-08 0.3826824 -0.92388
vn -2.182977E-07 0.3826834 -0.9238795
vn -2.774009E-07 0.382684 -0.9238794
vn -3.361373E-07 0.3826841 -0.9238793
vn -2.375614E-07 0.382683 -0.9238797
vn -2.582184E-07 0.3826836 -0.9238796
vn -2.990488E-07 0.3826847 -0.923879
vn -3.041627E-07 0.4426627 -0.8966883
vn -1.008521E-07 0.8966179 -0.4428051
vn -5.58804E-08 0.9238789 -0.3826848
vn -8.332559E-08 0.9238794 -0.3826838
vn -1.240137E-07 0.9238797 -0.3826832
vn -9.553727E-08 0.9238796 -0.3826832
vn -7.778313E-08 0.9238794 -0.3826836
vn 4.839112E-08 0.9238792 -0.3826841
vn -2.107439E-08 0.9238794 -0.3826837
vn 1.383305E-09 0.9238794 -0.3826841
vn 8.900789E-09 0.9238794 -0.3826837
vn 1.583845E-08 0.9238795 -0.3826838
vn 2.452319E-08 0.9238792 -0.3826841
vn 9.88977E-08 0.9811762 -0.1931148
vn 2.655794E-08 0.9238703 -0.3827056
vn 2.054225E-07 0.9238797 0.3826831
vn 1.603919E-07 0.9238791 0.3826842
vn 1.235277E-07 0.9238791 0.3826847
vn 1.558272E-08 0.9238786 0.3826858
vn 2.167753E-07 0.9238794 0.3826839
vn 5.051643E-07 0.9238801 0.3826824
vn 7.84148E-07 0.923881 0.3826798
vn 6.40003E-06 0.9238983 0.382638
vn 2.81729E-06 0.9238876 0.3826643
vn -5.360657E-07 0.9238766 0.3826906
vn -1.467919E-07 0.9238783 0.3826868
vn 1.908171E-07 0.9238793 0.3826841
vn 2.16418E-07 0.9238794 0.3826836
vn 2.161988E-07 0.9238796 0.3826833
vn 1.462182E-07 0.9238815 0.3826787
vn 1.435231E-07 0.9749302 0.222511
vn 2.503393E-07 0.7071068 0.7071069
vn 2.503394E-07 0.7071068 0.7071069
vn 2.503394E-07 0.7071068 0.7071069
vn 1 0 -5.960464E-08
vn -3.486817E-07 -0.9238794 -0.3826839
vn 1 0 -5.960464E-08
vn -1.755204E-07 0.6092141 -0.7930058
vn 0.7603925 0.4592403 0.4592403
vn 0.8262196 0.3983474 0.3983474
vn 0.07104927 0.7053198 0.7053199
vn 2.503397E-07 0.7071068 0.7071069
vn 2.503393E-07 0.7071068 0.7071069
vn 2.50339E-07 0.7071068 0.7071069
vn 0.1030029 0.7033457 0.7033458
vn 1 0 -5.960464E-08
vn 0.01266342 0.7070541 0.7070462
vn 2.503404E-07 0.7071068 0.7071069
vn 0.1414216 0.7 0.7
vn 2.503404E-07 0.7071021 0.7071116
vn -0.06004155 0.7058266 0.7058356
vn -2.783568E-07 -0.9238793 -0.3826839
vn 2.503422E-07 0.70709 0.7071236
vn -1 4.90927E-06 4.968875E-06
vn -1 0 5.960464E-08
vn -1 -3.051756E-07 3.647802E-07
vn 0 0 0
vn -2.68166E-07 -0.9238794 -0.3826838
vn -2.328706E-07 -0.9238794 -0.3826839
vn -2.579752E-07 -0.9238794 -0.3826839
vn -1 -3.051756E-07 3.647802E-07
vn -1 -3.051756E-07 3.647802E-07
vn -1.192093E-07 0.7071068 -0.7071068
vn -1.192092E-07 0.7071068 -0.7071067
vn -1.192093E-07 0.7071068 -0.7071068
vn -1.192093E-07 0.7071068 -0.7071068
vn -1.192093E-07 0.7071068 -0.7071068
vn -1.192093E-07 0.7071068 -0.7071068
vn -1.192093E-07 0.7071068 -0.7071068
vn -1.192093E-07 0.7071068 -0.7071068
vn -1.192093E-07 0.7071068 -0.7071068
vn 1 0 -5.960464E-08
vn 1 0 -5.960464E-08
vn 1 0 -5.960464E-08
vn 1 0 -5.960464E-08
vn 1 0 -5.960464E-08
vn 1 0 -5.960464E-08
vn 1 0 -5.960464E-08
vn 1 0 -5.960464E-08
vn 1 0 -5.960464E-08
vn 1 0 -5.960464E-08
vn 1 0 -5.960464E-08
vn 1 0 -5.960464E-08
vn 1 0 -5.960464E-08
vn 1 0 -5.960464E-08
vn 1 0 -5.960464E-08
vn 1 0 -5.960464E-08
vn 1 0 -5.960464E-08
vn 1 0 -5.960464E-08
vn 1 0 -5.960464E-08
vn 1 0 -5.960464E-08
vn 1 0 -5.960464E-08
vn 1 0 -5.960464E-08
vn 1 0 -5.960464E-08
vn 1 0 -5.960464E-08
vn 1 0 -5.960464E-08
vn 1 0 -5.960464E-08
vn 1 0 -5.960464E-08
vn 1 0 -5.960464E-08
vn 1 0 -5.960464E-08
vn 1 0 -5.960464E-08
vn 1 0 -5.960464E-08
vn 1 0 -5.960464E-08
vn 1 0 -5.960464E-08
vn 1 0 -5.960464E-08
vn 1 0 -5.960464E-08
vn 1 0 -5.960464E-08
vn 1 0 -5.960464E-08
vn 1 0 -5.960464E-08
vn 3.978566E-07 0.3826836 0.9238796
vn 3.567572E-07 0.1367736 0.9906024
vn 2.979263E-07 -0.1367738 0.9906024
vn 3.788055E-07 0.3826835 0.9238795
vn 1.612643E-07 -0.6037482 0.7971752
vn 6.543114E-08 -0.7971752 0.6037481
vn -1.55643E-08 -0.9238794 0.3826835
vn -2.28097E-08 -0.9238795 0.3826836
vn 3.12146E-07 0.3826837 0.9238795
vn -1.192093E-07 0.7071068 -0.7071068
vn -1.192093E-07 0.7071068 -0.7071068
vn -1.192093E-07 0.7071068 -0.7071068
vn -1.192093E-07 0.7071068 -0.7071068
vn -1.192093E-07 0.7071068 -0.7071068
vn -1.192093E-07 0.7071068 -0.7071068
vn -1.283792E-07 0.7071068 -0.7071068
vn -1.283792E-07 0.7071068 -0.7071067
vn -0.2028033 -0.6924127 -0.6924129
vn -1 5.209671E-07 5.805719E-07
vn -1 -1.525878E-07 2.121924E-07
vn -1 -8.631671E-08 3.037451E-07
vn -1 -1.525878E-07 2.121924E-07
vn -1 -1.525878E-07 2.121924E-07
vn -1 1.264078E-07 3.647803E-07
vn -1 1.26408E-07 3.647803E-07
vn -1 1.264073E-07 3.647801E-07
vn -1 1.264082E-07 3.647803E-07
vn -1 1.264082E-07 3.647803E-07
vn -1 1.264076E-07 3.647803E-07
vn -1 1.264053E-07 3.647802E-07
vn -1 1.264107E-07 3.647802E-07
vn -1 -1.241254E-07 3.647802E-07
vn -1 -2.157918E-07 2.753964E-07
vn -1 -1.264081E-07 3.647797E-07
vn -1 -1.264079E-07 3.647802E-07
vn -1 -1.264076E-07 3.647809E-07
vn -1 -1.264078E-07 3.647805E-07
vn -1 -1.264078E-07 3.647804E-07
vn -1 -1.264079E-07 3.647804E-07
vn -1 -1.264083E-07 3.647799E-07
vn -1 -2.872777E-07 2.039104E-07
vn -1 -3.051757E-07 1.860126E-07
vn -1 -3.051758E-07 1.860125E-07
vn -1 -3.051751E-07 1.860127E-07
vn -1 -3.051768E-07 1.860122E-07
vn -1 -3.051759E-07 1.860124E-07
vn -1 -3.051756E-07 1.860126E-07
vn -1 -2.441405E-07 1.459213E-07
vn -1 -3.051757E-07 -6.680346E-08
vn -1 -3.051758E-07 -6.680365E-08
vn -1 -3.051759E-07 -6.6804E-08
vn -1 -3.051731E-07 -6.679723E-08
vn -1 -3.051763E-07 -6.680467E-08
vn -1 -3.05176E-07 -6.680418E-08
vn -1 -3.051753E-07 -6.680281E-08
vn -1 -3.051748E-07 -6.680173E-08
vn -1 -1.525878E-07 2.121924E-07
vn -1 -1.525878E-07 2.121924E-07
vn -1 -1.525878E-07 2.121924E-07

f 1//1 2//2 3//3
f 4//4 1//1 3//3
f 3//3 5//5 4//4
f 3//3 6//6 5//5
f 5//5 6//6 7//7
f 8//8 7//7 6//6
f 9//9 8//8 6//6
f 10//10 9//9 6//6
f 9//9 10//10 11//11
f 11//11 10//10 12//12
f 13//13 11//11 12//12
f 13//13 12//12 14//14
f 13//13 14//14 15//15
f 15//15 14//14 16//16
f 15//15 16//16 17//17
f 18//18 17//17 16//16
f 19//19 17//17 18//18
f 19//19 18//18 20//20
f 21//21 19//19 20//20
f 22//22 19//19 21//21
f 22//22 21//21 23//23
f 24//24 22//22 23//23
f 24//24 23//23 25//25
f 26//26 24//24 25//25
f 26//26 25//25 27//27
f 28//28 26//26 27//27
f 28//28 27//27 29//29
f 29//29 27//27 30//30
f 31//31 29//29 30//30
f 31//31 30//30 32//32
f 33//33 31//31 32//32
f 33//33 32//32 34//34
f 35//35 33//33 34//34
f 35//35 34//34 36//36
f 37//37 35//35 36//36
f 37//37 36//36 38//38
f 39//39 37//37 38//38
f 39//39 38//38 40//40
f 41//41 39//39 40//40
f 41//41 40//40 42//42
f 41//41 42//42 43//43
f 43//43 42//42 44//44
f 45//45 43//43 44//44
f 45//45 44//44 46//46
f 47//47 45//45 46//46
f 48//48 45//45 47//47
f 48//48 47//47 49//49
f 50//50 48//48 49//49
f 50//50 49//49 51//51
f 52//52 50//50 51//51
f 52//52 51//51 53//53
f 54//54 52//52 53//53
f 55//55 54//54 53//53
f 55//55 53//53 56//56
f 55//55 56//56 57//57
f 57//57 56//56 58//58
f 57//57 58//58 59//59
f 59//59 58//58 60//60
f 59//59 60//60 61//61
f 61//61 60//60 62//62
f 61//61 62//62 63//63
f 63//63 62//62 64//64
f 63//63 64//64 65//65
f 65//65 64//64 66//66
f 65//65 66//66 67//67
f 68//68 67//67 66//66
f 69//69 67//67 68//68
f 69//69 68//68 70//70
f 71//71 69//69 70//70
f 72//72 71//71 73//73
f 74//74 75//75 76//76
f 77//77 74//74 76//76
f 75//75 77//77 76//76
f 78//78 75//75 74//74
f 79//79 75//75 78//78
f 78//78 74//74 80//80
f 81//81 78//78 80//80
f 82//82 78//78 81//81
f 82//82 83//83 78//78
f 83//83 84//84 79//79
f 84//84 85//85 79//79
f 80//80 74//74 86//86
f 87//87 80//80 86//86
f 81//81 80//80 87//87
f 86//86 74//74 88//88
f 88//88 74//74 77//77
f 86//86 88//88 89//89
f 90//90 86//86 89//89
f 87//87 86//86 90//90
f 75//75 91//91 77//77
f 90//90 89//89 92//92
f 90//90 92//92 93//93
f 94//94 90//90 93//93
f 95//95 83//83 82//82
f 95//95 82//82 81//81
f 95//95 81//81 87//87
f 95//95 87//87 90//90
f 95//95 96//96 83//83
f 97//97 91//91 75//75
f 97//97 98//98 91//91
f 97//97 99//99 98//98
f 100//100 95//95 101//101
f 102//102 103//103 104//104
f 102//102 104//104 105//105
f 102//102 105//105 106//106
f 106//106 105//105 107//107
f 108//108 102//102 106//106
f 109//109 102//102 108//108
f 110//110 108//108 106//106
f 111//111 112//112 113//113
f 111//111 113//113 114//114
f 111//111 114//114 115//115
f 111//111 115//115 116//116
f 111//111 116//116 117//117
f 117//117 118//118 111//111
f 118//118 119//119 111//111
f 120//120 111//111 119//119
f 120//120 121//121 111//111
f 121//121 122//122 111//111
f 111//111 122//122 123//123
f 114//114 113//113 124//124
f 124//124 113//113 125//125
f 125//125 113//113 126//126
f 126//126 113//113 127//127
f 127//127 113//113 128//128
f 128//128 113//113 129//129
f 129//129 113//113 130//130
f 130//130 113//113 131//131
f 131//131 113//113 132//132
f 132//132 113//113 133//133
f 133//133 113//113 134//134
f 133//133 134//134 135//135
f 135//135 134//134 136//136
f 134//134 137//137 136//136
f 137//137 134//134 138//138
f 138//138 134//134 139//139
f 139//139 134//134 140//140
f 140//140 134//134 141//141
f 134//134 142//142 141//141
f 134//134 143//143 142//142
f 134//134 144//144 143//143
f 144//144 134//134 145//145
f 145//145 134//134 146//146
f 147//147 134//134 148//148
f 149//149 150//150 151//151
f 149//149 152//152 150//150
f 151//151 150//150 153//153
f 151//151 153//153 154//154
f 154//154 153//153 155//155
f 154//154 155//155 156//156
f 152//152 157//157 150//150
f 158//158 159//159 160//160
f 161//161 159//159 158//158
f 162//162 159//159 161//161
f 163//163 162//162 161//161
f 164//164 162//162 163//163
f 165//165 162//162 164//164
f 9//9 166//166 8//8
f 166//166 9//9 167//167
f 168//168 169//169 170//170
f 168//168 171//171 169//169
f 172//172 169//169 173//173
f 174//174 169//169 172//172
f 169//169 174//174 175//175
f 176//176 169//169 175//175
f 177//177 169//169 176//176
f 178//178 169//169 177//177
f 178//178 179//179 169//169
f 179//179 180//180 169//169
f 180//180 181//181 169//169
f 182//182 181//181 180//180
f 182//182 183//183 181//181
f 183//183 184//184 181//181
f 184//184 185//185 181//181
f 185//185 186//186 181//181
f 186//186 187//187 181//181
f 187//187 188//188 181//181
f 188//188 189//189 181//181
f 181//181 189//189 190//190
f 181//181 190//190 191//191
f 192//192 181//181 191//191
f 193//193 181//181 192//192
f 194//194 181//181 193//193
f 195//195 181//181 194//194
f 195//195 196//196 181//181
f 196//196 197//197 198//198
f 196//196 198//198 199//199
f 199//199 200//200 196//196
f 196//196 200//200 201//201
f 201//201 202//202 196//196
f 196//196 202//202 203//203
f 196//196 203//203 204//204
f 205//205 196//196 206//206
f 207//207 196//196 205//205
