v 9.999943 92.92892 92.92892
v 50.00002 92.92892 92.92892
v 9.999943 92.92892 92.92892
v 9.999943 92.92892 92.92892
v 9.999943 95.45431 95.4543
v 9.999943 96.46446 96.46445
v 9.999943 96.46446 96.46445
v 50.00002 96.46446 96.46446
v 90.00009 96.46445 96.46446
v 9.999943 96.37006 96.69238
v 90.00009 95.61481 98.5157
v 9.999943 96.35833 96.7207
v 90.00009 95.50922 98.7706
v 9.999943 96.35503 96.72865
v 90.00009 95.47958 98.84216
v 9.999943 96.31802 96.81801
v 90.00009 95.14644 99.64645
v 9.999943 95.86163 97.91982
v 90.00009 95.09573 99.76887
v 9.999943 95.42892 98.96446
v 9.999943 95.37915 99.08463
v 90.00009 95.04212 99.89829
v 9.999943 95.27532 99.33529
v 90.00009 95.03059 99.92615
v 9.999943 94.99999 99.99999
v 90.00009 94.99998 100
v 9.999943 95.07789 100.1881
v 90.00009 95.42892 101.0355
v 90.00009 95.70106 101.6925
v 9.999943 95.09722 100.2347
v 90.00009 95.875 102.1125
v 9.999943 95.10297 100.2486
v 90.00009 95.92677 102.2374
v 9.999943 95.14644 100.3535
v 90.00009 96.31801 103.182
v 9.999943 95.64517 101.5576
v 90.00009 96.37343 103.3158
v 9.999943 96.05721 102.5523
v 90.00009 96.4192 103.4263
v 9.999943 96.46446 103.5355
v 90.00009 96.46445 103.5355
v 9.999943 96.57356 103.5807
v 90.00009 97.44638 103.9423
v 9.999943 96.81802 103.682
v 90.00009 99.64644 104.8536
v 9.999943 97.5 103.9645
v 9.999943 97.77274 104.0774
v 90.00009 99.75253 104.8975
v 9.999943 98.70272 104.4626
v 90.00009 99.85585 104.9403
v 9.999943 99.46846 104.7798
v 90.00009 99.94093 104.9755
v 9.999943 100 105
v 90.00009 99.99999 105
v 90.00009 99.99999 105
v 9.999943 100.2101 104.913
v 90.00009 101.8912 104.2167
v 9.999943 100.272 104.8873
v 90.00009 102.4478 103.9861
v 9.999943 100.2783 104.8847
v 90.00009 102.5046 103.9626
v 9.999943 100.2812 104.8835
v 90.00009 102.531 103.9516
v 9.999943 100.2849 104.882
v 90.00009 102.5643 103.9379
v 9.999943 100.3536 104.8536
v 90.00009 103.182 103.682
v 9.999943 103.5355 103.5355
v 90.00009 103.5355 103.5355
v 9.999943 103.5355 103.5355
v 90.00009 103.5355 103.5355
v 9.999943 103.5355 103.5355
v 9.999943 103.5355 103.5355
v 9.999943 104.5457 104.5457
v 9.999939 107.0711 107.0711
v 9.999939 107.0711 107.0711
v 9.999939 107.0711 107.0711
v 9.999943 103.5355 103.5355
v 9.999943 103.5355 103.5355
v 9.999943 103.5355 103.5355
v 90.00009 103.5355 103.5355
v 90.00009 103.5355 103.5355
v 90.00009 103.5355 103.5355
v 9.999943 103.5355 103.5355
v 9.999943 100 110
v 9.999943 103.5355 103.5355
v 90.00009 103.5355 103.5355
v 9.999943 103.5355 103.5355
v 50.00002 103.5355 103.5355
v 90.00009 103.5355 103.5355
v 50.00002 107.0711 107.0711
v 90.00006 103.5355 103.5355
v 90.00009 103.5355 103.5355
v 90.00009 104.5457 104.5457
v 90.00009 99.99999 110
v 90.00009 103.5355 103.5355
v 9.999943 100 110
v 90.00009 107.0711 107.0711
v 90.00009 99.99999 110
v 90.00009 99.99999 105
v 90.00009 99.99999 105
v 50.00002 92.92892 92.92892
v 9.999943 92.92892 92.92892
v 9.999943 92.92892 92.92892
v 9.999943 95.45431 95.4543
v 50.00002 96.46446 96.46446
v 9.999943 96.46446 96.46445
v 90.00009 94.99999 95
v 90.0001 92.92892 92.92892
v 90.00009 96.46445 96.46446
v 9.999943 92.92892 92.92892
v 9.999943 89.99999 100
v 9.999943 92.92892 107.0711
v 9.999943 94.99999 99.99999
v 9.999943 95.27532 99.33529
v 9.999943 95.37915 99.08463
v 9.999943 95.42892 98.96446
v 9.999943 95.86163 97.91982
v 9.999943 96.31802 96.81801
v 9.999943 96.35503 96.72865
v 9.999943 96.35833 96.7207
v 9.999943 96.37006 96.69238
v 9.999943 96.46446 96.46445
v 9.999943 95.07789 100.1881
v 9.999943 95.09722 100.2347
v 9.999943 95.10297 100.2486
v 9.999943 95.14644 100.3535
v 9.999943 95.64517 101.5576
v 9.999943 96.05721 102.5523
v 9.999943 96.46446 103.5355
v 9.999943 96.57356 103.5807
v 9.999943 96.81802 103.682
v 9.999943 97.5 103.9645
v 9.999943 100 110
v 9.999943 97.77274 104.0774
v 9.999943 98.70272 104.4626
v 9.999943 99.46846 104.7798
v 9.999943 100 105
v 9.999943 100.2101 104.913
v 9.999943 100.272 104.8873
v 9.999943 100.2783 104.8847
v 9.999943 100.2812 104.8835
v 9.999943 100.2849 104.882
v 9.999943 100.3536 104.8536
v 9.999943 103.5355 103.5355
v 9.999943 103.5355 103.5355
v 9.999943 103.5355 103.5355
v 9.999939 107.0711 107.0711
v 9.999943 92.92892 92.92892
v 90.00009 89.99998 100
v 9.999943 89.99999 100
v 50.00002 92.92892 92.92892
v 90.00009 92.92892 107.0711
v 9.999943 92.92892 107.0711
v 90.00009 99.99999 110
v 9.999943 100 110
v 90.0001 92.92892 92.92892
v 9.999939 107.0711 107.0711
v 50.00002 103.5355 103.5355
v 9.999943 103.5355 103.5355
v 50.00002 107.0711 107.0711
v 90.00006 103.5355 103.5355
v 90.00009 107.0711 107.0711
v 90.00009 104.5457 104.5457
v 90.00009 103.5355 103.5355
v 90.00009 96.46445 96.46446
v 90.00009 89.99998 100
v 90.00009 94.99999 95
v 90.00009 89.99998 100
v 90.0001 92.92892 92.92892
v 90.00009 96.46445 96.46446
v 90.00009 95.61481 98.5157
v 90.00009 96.46445 96.46446
v 90.00009 95.50922 98.7706
v 90.00009 95.47958 98.84216
v 90.00009 95.14644 99.64645
v 90.00009 95.09573 99.76887
v 90.00009 95.04212 99.89829
v 90.00009 95.03059 99.92615
v 90.00009 94.99998 100
v 90.00009 92.92892 107.0711
v 90.00009 95.42892 101.0355
v 90.00009 95.70106 101.6925
v 90.00009 95.875 102.1125
v 90.00009 95.92677 102.2374
v 90.00009 96.31801 103.182
v 90.00009 96.37343 103.3158
v 90.00009 96.4192 103.4263
v 90.00009 96.46445 103.5355
v 90.00009 97.44638 103.9423
v 90.00009 99.64644 104.8536
v 90.00009 99.75253 104.8975
v 90.00009 99.85585 104.9403
v 90.00009 99.94093 104.9755
v 90.00009 99.99999 105
v 90.00009 99.99999 110
v 90.00009 99.99999 105
v 90.00009 101.8912 104.2167
v 90.00009 102.4478 103.9861
v 90.00009 102.5046 103.9626
v 90.00009 102.531 103.9516
v 90.00009 102.5643 103.9379
v 90.00009 103.182 103.682
v 90.00009 103.5355 103.5355
v 90.00009 104.5457 104.5457
v 90.00009 103.5355 103.5355
v 90.00009 107.0711 107.0711

vn -4.148479E-07 -0.7071069 -0.7071068
vn -2.622602E-07 -0.7071069 -0.7071068
vn -0.6507913 -0.5368755 -0.5368756
vn -1 0 -1.192093E-07
vn -1 0 -1.192093E-07
vn -4.551097E-08 0.9238815 0.3826789
vn -0.1414211 0.7000002 0.7000001
vn 1.599902E-07 0.8548968 -0.5187979
vn 2.323038E-07 0.9238797 0.3826832
vn 1.911821E-07 0.9238794 0.382684
vn 2.299242E-07 0.9238795 0.3826837
vn 3.13508E-07 0.9238799 0.3826827
vn 3.720203E-07 0.9238803 0.3826817
vn -2.196958E-07 0.9238781 0.3826871
vn 6.786728E-08 0.9238791 0.3826845
vn 1.159354E-07 0.9238793 0.382684
vn 9.878658E-08 0.9238794 0.3826842
vn 9.762378E-08 0.9238793 0.3826842
vn 1.115858E-07 0.9238794 0.382684
vn 1.307805E-07 0.9238793 0.3826843
vn 1.249938E-07 0.9238797 0.3826832
vn 1.676807E-07 0.9238803 0.3826817
vn 5.719082E-08 0.9238794 0.3826838
vn 7.100687E-08 0.9238791 0.3826846
vn 8.19805E-08 0.9710308 0.2389548
vn 1.58707E-07 0.938758 -0.344577
vn 2.182354E-07 0.9238787 -0.3826855
vn 1.78747E-07 0.9238789 -0.3826847
vn 1.590481E-07 0.9238791 -0.3826845
vn 5.72481E-09 0.92388 -0.3826826
vn -7.873109E-08 0.9238804 -0.3826813
vn -2.949729E-07 0.923881 -0.3826798
vn -2.836507E-08 0.92388 -0.3826824
vn 1.498686E-07 0.9238794 -0.3826835
vn 2.089718E-07 0.9238794 -0.3826841
vn 2.677083E-07 0.9238792 -0.3826841
vn 1.691322E-07 0.9238796 -0.382683
vn 1.897893E-07 0.9238795 -0.3826837
vn 2.306199E-07 0.923879 -0.3826848
vn 2.467554E-07 0.8966882 -0.4426627
vn 1.582324E-07 0.4428051 -0.8966181
vn 1.243093E-07 0.3826848 -0.923879
vn 1.517546E-07 0.3826838 -0.9238795
vn 1.924429E-07 0.3826832 -0.9238798
vn 1.639664E-07 0.3826831 -0.9238797
vn 1.462122E-07 0.3826835 -0.9238795
vn 2.003788E-08 0.3826841 -0.9238793
vn 8.950347E-08 0.3826836 -0.9238796
vn 6.704571E-08 0.382684 -0.9238794
vn 5.952828E-08 0.3826836 -0.9238794
vn 5.259062E-08 0.3826837 -0.9238796
vn 4.390581E-08 0.3826841 -0.9238793
vn 7.452023E-10 0.1931147 -0.9811763
vn 4.186721E-08 0.3827056 -0.9238704
vn -4.022003E-08 -0.3826831 -0.9238798
vn 4.810646E-09 -0.3826842 -0.9238792
vn 4.167488E-08 -0.3826847 -0.9238792
vn 1.4962E-07 -0.3826858 -0.9238786
vn -5.157271E-08 -0.3826839 -0.9238795
vn -3.399619E-07 -0.3826824 -0.9238802
vn -6.189458E-07 -0.3826798 -0.9238811
vn -6.234831E-06 -0.3826381 -0.9238985
vn -2.65209E-06 -0.3826643 -0.9238876
vn 7.012687E-07 -0.3826906 -0.9238767
vn 3.119947E-07 -0.3826869 -0.9238783
vn -2.561451E-08 -0.3826841 -0.9238793
vn -5.121551E-08 -0.3826836 -0.9238796
vn -5.099625E-08 -0.3826834 -0.9238797
vn 1.898401E-08 -0.3826787 -0.9238816
vn 7.881962E-09 -0.222511 -0.9749303
vn -7.152541E-08 -0.7071069 -0.7071068
vn -7.152543E-08 -0.7071069 -0.7071068
vn -7.152543E-08 -0.7071069 -0.7071068
vn -1 0 -1.192093E-07
vn 1.834792E-07 0.3826839 0.9238794
vn -1 0 -1.192093E-07
vn 1.522817E-07 0.7930058 -0.6092142
vn -0.7603924 -0.4592403 -0.4592404
vn -0.8262196 -0.3983475 -0.3983476
vn -0.07104909 -0.7053199 -0.7053199
vn -7.152574E-08 -0.7071069 -0.7071068
vn -7.152541E-08 -0.7071069 -0.7071068
vn -7.152507E-08 -0.7071069 -0.7071068
vn -0.1030028 -0.7033458 -0.7033458
vn -1 0 -1.192093E-07
vn -0.01266325 -0.7070462 -0.7070542
vn -7.152645E-08 -0.7071069 -0.7071068
vn -0.1414214 -0.7000001 -0.7
vn -7.152648E-08 -0.7071116 -0.7071021
vn 0.06004173 -0.7058356 -0.7058267
vn 1.131542E-07 0.3826839 0.9238794
vn -7.152826E-08 -0.7071236 -0.7070901
vn 1 -4.909271E-06 -4.790061E-06
vn 1 0 1.192093E-07
vn 1 -3.051756E-07 4.24385E-07
vn 0 0 0
vn 1.029635E-07 0.3826839 0.9238795
vn 6.766808E-08 0.3826839 0.9238795
vn 9.277269E-08 0.3826839 0.9238796
vn 1 -3.051756E-07 4.24385E-07
vn 1 -3.051756E-07 4.24385E-07
vn 1.192093E-07 0.7071067 -0.7071069
vn 1.192092E-07 0.7071066 -0.7071068
vn 1.192093E-07 0.7071067 -0.7071069
vn 1.192093E-07 0.7071067 -0.7071069
vn 1.192093E-07 0.7071067 -0.7071069
vn 1.192093E-07 0.7071067 -0.7071069
vn 1.192093E-07 0.7071067 -0.7071069
vn 1.192093E-07 0.7071067 -0.7071069
vn 1.192093E-07 0.7071067 -0.7071069
vn -1 0 -1.192093E-07
vn -1 0 -1.192093E-07
vn -1 0 -1.192093E-07
vn -1 0 -1.192093E-07
vn -1 0 -1.192093E-07
vn -1 0 -1.192093E-07
vn -1 0 -1.192093E-07
vn -1 0 -1.192093E-07
vn -1 0 -1.192093E-07
vn -1 0 -1.192093E-07
vn -1 0 -1.192093E-07
vn -1 0 -1.192093E-07
vn -1 0 -1.192093E-07
vn -1 0 -1.192093E-07
vn -1 0 -1.192093E-07
vn -1 0 -1.192093E-07
vn -1 0 -1.192093E-07
vn -1 0 -1.192093E-07
vn -1 0 -1.192093E-07
vn -1 0 -1.192093E-07
vn -1 0 -1.192093E-07
vn -1 0 -1.192093E-07
vn -1 0 -1.192093E-07
vn -1 0 -1.192093E-07
vn -1 0 -1.192093E-07
vn -1 0 -1.192093E-07
vn -1 0 -1.192093E-07
vn -1 0 -1.192093E-07
vn -1 0 -1.192093E-07
vn -1 0 -1.192093E-07
vn -1 0 -1.192093E-07
vn -1 0 -1.192093E-07
vn -1 0 -1.192093E-07
vn -1 0 -1.192093E-07
vn -1 0 -1.192093E-07
vn -1 0 -1.192093E-07
vn -1 0 -1.192093E-07
vn -1 0 -1.192093E-07
vn -2.32654E-07 -0.9238796 -0.3826837
vn -2.142112E-07 -0.9906024 -0.1367737
vn -1.899677E-07 -0.9906023 0.1367738
vn -2.13603E-07 -0.9238794 -0.3826835
vn -1.368072E-07 -0.7971751 0.6037482
vn -8.988817E-08 -0.603748 0.7971753
vn -5.286479E-08 -0.3826835 0.9238795
vn -4.561939E-08 -0.3826835 0.9238796
vn -1.469434E-07 -0.9238794 -0.3826837
vn 1.192093E-07 0.7071067 -0.7071069
vn 1.192093E-07 0.7071067 -0.7071069
vn 1.192093E-07 0.7071067 -0.7071069
vn 1.192093E-07 0.7071067 -0.7071069
vn 1.192093E-07 0.7071067 -0.7071069
vn 1.192093E-07 0.7071067 -0.7071069
vn 1.283792E-07 0.7071067 -0.7071069
vn 1.283792E-07 0.7071066 -0.7071068
vn 0.2028031 0.6924129 0.6924128
vn 1 -5.209672E-07 -4.017579E-07
vn 1 -1.525878E-07 2.717971E-07
vn 1 -2.441405E-07 2.05526E-07
vn 1 -1.525878E-07 2.717971E-07
vn 1 -1.525878E-07 2.717971E-07
vn 1 -3.051756E-07 -7.198519E-09
vn 1 -3.051756E-07 -7.19869E-09
vn 1 -3.051754E-07 -7.198006E-09
vn 1 -3.051756E-07 -7.19887E-09
vn 1 -3.051756E-07 -7.198951E-09
vn 1 -3.051756E-07 -7.198315E-09
vn 1 -3.051755E-07 -7.196037E-09
vn 1 -3.051756E-07 -7.201379E-09
vn 1 -3.051756E-07 2.433347E-07
vn 1 -2.157918E-07 3.350011E-07
vn 1 -3.051751E-07 2.456175E-07
vn 1 -3.051755E-07 2.456172E-07
vn 1 -3.051763E-07 2.456169E-07
vn 1 -3.051758E-07 2.456171E-07
vn 1 -3.051758E-07 2.456171E-07
vn 1 -3.051757E-07 2.456172E-07
vn 1 -3.051753E-07 2.456176E-07
vn 1 -1.443058E-07 4.06487E-07
vn 1 -1.26408E-07 4.24385E-07
vn 1 -1.264078E-07 4.243851E-07
vn 1 -1.264081E-07 4.243844E-07
vn 1 -1.264075E-07 4.243861E-07
vn 1 -1.264078E-07 4.243853E-07
vn 1 -1.264079E-07 4.243849E-07
vn 1 -8.631665E-08 3.633498E-07
vn 1 1.264081E-07 4.24385E-07
vn 1 1.264083E-07 4.243851E-07
vn 1 1.264087E-07 4.243852E-07
vn 1 1.264019E-07 4.243824E-07
vn 1 1.264093E-07 4.243856E-07
vn 1 1.264088E-07 4.243853E-07
vn 1 1.264075E-07 4.243847E-07
vn 1 1.264064E-07 4.243841E-07
vn 1 -1.525878E-07 2.717971E-07
vn 1 -1.525878E-07 2.717971E-07
vn 1 -1.525878E-07 2.717971E-07

f 1//1 2//2 3//3
f 4//4 1//1 3//3
f 3//3 5//5 4//4
f 3//3 6//6 5//5
f 5//5 6//6 7//7
f 8//8 7//7 6//6
f 9//9 8//8 6//6
f 10//10 9//9 6//6
f 9//9 10//10 11//11
f 11//11 10//10 12//12
f 13//13 11//11 12//12
f 13//13 12//12 14//14
f 13//13 14//14 15//15
f 15//15 14//14 16//16
f 15//15 16//16 17//17
f 18//18 17//17 16//16
f 19//19 17//17 18//18
f 19//19 18//18 20//20
f 21//21 19//19 20//20
f 22//22 19//19 21//21
f 22//22 21//21 23//23
f 24//24 22//22 23//23
f 24//24 23//23 25//25
f 26//26 24//24 25//25
f 26//26 25//25 27//27
f 28//28 26//26 27//27
f 28//28 27//27 29//29
f 29//29 27//27 30//30
f 31//31 29//29 30//30
f 31//31 30//30 32//32
f 33//33 31//31 32//32
f 33//33 32//32 34//34
f 35//35 33//33 34//34
f 35//35 34//34 36//36
f 37//37 35//35 36//36
f 37//37 36//36 38//38
f 39//39 37//37 38//38
f 39//39 38//38 40//40
f 41//41 39//39 40//40
f 41//41 40//40 42//42
f 41//41 42//42 43//43
f 43//43 42//42 44//44
f 45//45 43//43 44//44
f 45//45 44//44 46//46
f 47//47 45//45 46//46
f 48//48 45//45 47//47
f 48//48 47//47 49//49
f 50//50 48//48 49//49
f 50//50 49//49 51//51
f 52//52 50//50 51//51
f 52//52 51//51 53//53
f 54//54 52//52 53//53
f 55//55 54//54 53//53
f 55//55 53//53 56//56
f 55//55 56//56 57//57
f 57//57 56//56 58//58
f 57//57 58//58 59//59
f 59//59 58//58 60//60
f 59//59 60//60 61//61
f 61//61 60//60 62//62
f 61//61 62//62 63//63
f 63//63 62//62 64//64
f 63//63 64//64 65//65
f 65//65 64//64 66//66
f 65//65 66//66 67//67
f 68//68 67//67 66//66
f 69//69 67//67 68//68
f 69//69 68//68 70//70
f 71//71 69//69 70//70
f 72//72 71//71 73//73
f 74//74 75//75 76//76
f 77//77 74//74 76//76
f 75//75 77//77 76//76
f 78//78 75//75 74//74
f 79//79 75//75 78//78
f 78//78 74//74 80//80
f 81//81 78//78 80//80
f 82//82 78//78 81//81
f 82//82 83//83 78//78
f 83//83 84//84 79//79
f 84//84 85//85 79//79
f 80//80 74//74 86//86
f 87//87 80//80 86//86
f 81//81 80//80 87//87
f 86//86 74//74 88//88
f 88//88 74//74 77//77
f 86//86 88//88 89//89
f 90//90 86//86 89//89
f 87//87 86//86 90//90
f 75//75 91//91 77//77
f 90//90 89//89 92//92
f 90//90 92//92 93//93
f 94//94 90//90 93//93
f 95//95 83//83 82//82
f 95//95 82//82 81//81
f 95//95 81//81 87//87
f 95//95 87//87 90//90
f 95//95 96//96 83//83
f 97//97 91//91 75//75
f 97//97 98//98 91//91
f 97//97 99//99 98//98
f 100//100 95//95 101//101
f 102//102 103//103 104//104
f 102//102 104//104 105//105
f 102//102 105//105 106//106
f 106//106 105//105 107//107
f 108//108 102//102 106//106
f 109//109 102//102 108//108
f 110//110 108//108 106//106
f 111//111 112//112 113//113
f 111//111 113//113 114//114
f 111//111 114//114 115//115
f 111//111 115//115 116//116
f 111//111 116//116 117//117
f 117//117 118//118 111//111
f 118//118 119//119 111//111
f 120//120 111//111 119//119
f 120//120 121//121 111//111
f 121//121 122//122 111//111
f 111//111 122//122 123//123
f 114//114 113//113 124//124
f 124//124 113//113 125//125
f 125//125 113//113 126//126
f 126//126 113//113 127//127
f 127//127 113//113 128//128
f 128//128 113//113 129//129
f 129//129 113//113 130//130
f 130//130 113//113 131//131
f 131//131 113//113 132//132
f 132//132 113//113 133//133
f 133//133 113//113 134//134
f 133//133 134//134 135//135
f 135//135 134//134 136//136
f 134//134 137//137 136//136
f 137//137 134//134 138//138
f 138//138 134//134 139//139
f 139//139 134//134 140//140
f 140//140 134//134 141//141
f 134//134 142//142 141//141
f 134//134 143//143 142//142
f 134//134 144//144 143//143
f 144//144 134//134 145//145
f 145//145 134//134 146//146
f 147//147 134//134 148//148
f 149//149 150//150 151//151
f 149//149 152//152 150//150
f 151//151 150//150 153//153
f 151//151 153//153 154//154
f 154//154 153//153 155//155
f 154//154 155//155 156//156
f 152//152 157//157 150//150
f 158//158 159//159 160//160
f 161//161 159//159 158//158
f 162//162 159//159 161//161
f 163//163 162//162 161//161
f 164//164 162//162 163//163
f 165//165 162//162 164//164
f 9//9 166//166 8//8
f 166//166 9//9 167//167
f 168//168 169//169 170//170
f 168//168 171//171 169//169
f 172//172 169//169 173//173
f 174//174 169//169 172//172
f 169//169 174//174 175//175
f 176//176 169//169 175//175
f 177//177 169//169 176//176
f 178//178 169//169 177//177
f 178//178 179//179 169//169
f 179//179 180//180 169//169
f 180//180 181//181 169//169
f 182//182 181//181 180//180
f 182//182 183//183 181//181
f 183//183 184//184 181//181
f 184//184 185//185 181//181
f 185//185 186//186 181//181
f 186//186 187//187 181//181
f 187//187 188//188 181//181
f 188//188 189//189 181//181
f 181//181 189//189 190//190
f 181//181 190//190 191//191
f 192//192 181//181 191//191
f 193//193 181//181 192//192
f 194//194 181//181 193//193
f 195//195 181//181 194//194
f 195//195 196//196 181//181
f 196//196 197//197 198//198
f 196//196 198//198 199//199
f 199//199 200//200 196//196
f 196//196 200//200 201//201
f 201//201 202//202 196//196
f 196//196 202//202 203//203
f 196//196 203//203 204//204
f 205//205 196//196 206//206
f 207//207 196//196 205//205
