v 7.071074 90.00005 7.071071
v 7.071077 49.99998 7.071075
v 7.071074 90.00005 7.071071
v 7.071073 90.00005 7.07107
v 4.54569 90.00005 4.545689
v 3.535536 90.00005 3.535535
v 3.535536 90.00005 3.535535
v 3.53554 49.99998 3.535539
v 3.535542 9.999916 3.535542
v 3.629942 90.00005 3.307619
v 4.385194 9.999916 1.484303
v 3.641674 90.00005 3.279299
v 4.490774 9.999916 1.229408
v 3.644967 90.00005 3.271347
v 4.520417 9.999916 1.157844
v 3.681984 90.00005 3.181982
v 4.853563 9.999916 0.3535582
v 4.138365 90.00005 2.080181
v 4.904273 9.999916 0.2311368
v 4.571073 90.00005 1.035534
v 4.620852 90.00005 0.9153584
v 4.957881 9.999916 0.1017121
v 4.724676 90.00005 0.6647047
v 4.969417 9.999916 0.07386196
v 5.000007 90.00005 -1.456958E-06
v 5.000011 9.999916 4.491532E-06
v 4.922109 90.00005 -0.1880609
v 4.571076 9.999916 -1.035531
v 4.298942 9.999916 -1.692519
v 4.902781 90.00005 -0.2347201
v 4.124998 9.999916 -2.112459
v 4.897029 90.00005 -0.2486065
v 4.073232 9.999916 -2.237434
v 4.853559 90.00005 -0.3535552
v 3.681989 9.999916 -3.181979
v 4.354825 90.00005 -1.5576
v 3.626574 9.999916 -3.315762
v 3.942794 90.00005 -2.552332
v 3.580793 9.999916 -3.426288
v 3.535536 90.00005 -3.535538
v 3.535542 9.999916 -3.535532
v 3.426433 90.00005 -3.580729
v 2.553621 9.999916 -3.942259
v 3.181983 90.00005 -3.681985
v 0.3535574 9.999916 -4.853554
v 2.500001 90.00005 -3.96447
v 2.227265 90.00005 -4.077442
v 0.2474769 9.999916 -4.897493
v 1.297281 90.00005 -4.462654
v 0.1441475 9.999916 -4.940294
v 0.531539 90.00005 -4.779836
v 0.05906262 9.999916 -4.975537
v -4.636159E-07 90.00005 -5.000007
v 5.099769E-06 9.999916 -5
v 3.751069E-06 9.999916 -5.000001
v -0.2101285 90.00005 -4.91297
v -1.891149 9.999916 -4.216659
v -0.2719778 90.00005 -4.88735
v -2.447787 9.999916 -3.98609
v -0.2782922 90.00005 -4.884735
v -2.504612 9.999916 -3.962553
v -0.2812196 90.00005 -4.883521
v -2.530964 9.999916 -3.951639
v -0.2849209 90.00005 -4.88199
v -2.564268 9.999916 -3.937843
v -0.353554 90.00005 -4.85356
v -3.181979 9.999916 -3.681978
v -3.535534 90.00005 -3.535538
v -3.535533 9.999916 -3.535532
v -3.535538 90.00005 -3.535538
v -3.535533 9.999916 -3.535532
v -3.535538 90.00005 -3.535538
v -3.535538 90.00005 -3.535538
v -4.545692 90.00005 -4.545691
v -7.071075 90.00005 -7.071074
v -7.071075 90.00005 -7.071074
v -7.071074 90.00005 -7.071073
v -3.535538 90.00005 -3.535538
v -3.535538 90.00005 -3.535538
v -3.535538 90.00005 -3.535538
v -3.535533 9.999916 -3.535532
v -3.535533 9.999916 -3.535532
v -3.535533 9.999916 -3.535532
v -3.535538 90.00005 -3.535538
v -9.272318E-07 90.00005 -10.00001
v -3.535538 90.00005 -3.535538
v -3.535533 9.999916 -3.535532
v -3.535538 90.00005 -3.535538
v -3.535536 49.99998 -3.535535
v -3.535533 9.999916 -3.535532
v -7.071072 49.99998 -7.07107
v -3.535534 9.999958 -3.535532
v -3.535534 9.999916 -3.535532
v -4.545686 9.999916 -4.545684
v 4.80474E-06 9.999924 -10
v -3.535533 9.999916 -3.535532
v -9.272318E-07 90.00005 -10.00001
v -7.071069 9.999916 -7.071067
v 4.80474E-06 9.999924 -10
v 3.751069E-06 9.999916 -5.000001
v 5.099769E-06 9.999916 -5
v 7.071077 49.99998 7.071075
v 7.071074 90.00005 7.071071
v 7.071073 90.00005 7.07107
v 4.54569 90.00005 4.545689
v 3.53554 49.99998 3.535539
v 3.535536 90.00005 3.535535
v 5.00001 9.999916 5.00001
v 7.07108 9.999916 7.071079
v 3.535542 9.999916 3.535542
v 7.071074 90.00005 7.071071
v 10.00001 90.00005 -3.564301E-06
v 7.071074 90.00005 -7.071076
v 5.000007 90.00005 -1.456958E-06
v 4.724676 90.00005 0.6647047
v 4.620852 90.00005 0.9153584
v 4.571073 90.00005 1.035534
v 4.138365 90.00005 2.080181
v 3.681984 90.00005 3.181982
v 3.644967 90.00005 3.271347
v 3.641674 90.00005 3.279299
v 3.629942 90.00005 3.307619
v 3.535536 90.00005 3.535535
v 4.922109 90.00005 -0.1880609
v 4.902781 90.00005 -0.2347201
v 4.897029 90.00005 -0.2486065
v 4.853559 90.00005 -0.3535552
v 4.354825 90.00005 -1.5576
v 3.942794 90.00005 -2.552332
v 3.535536 90.00005 -3.535538
v 3.426433 90.00005 -3.580729
v 3.181983 90.00005 -3.681985
v 2.500001 90.00005 -3.96447
v -9.272318E-07 90.00005 -10.00001
v 2.227265 90.00005 -4.077442
v 1.297281 90.00005 -4.462654
v 0.531539 90.00005 -4.779836
v -4.636159E-07 90.00005 -5.000007
v -0.2101285 90.00005 -4.91297
v -0.2719778 90.00005 -4.88735
v -0.2782922 90.00005 -4.884735
v -0.2812196 90.00005 -4.883521
v -0.2849209 90.00005 -4.88199
v -0.353554 90.00005 -4.85356
v -3.535534 90.00005 -3.535538
v -3.535538 90.00005 -3.535538
v -3.535538 90.00005 -3.535538
v -7.071075 90.00005 -7.071074
v 7.071074 90.00005 7.071071
v 10.00002 9.999924 3.564301E-06
v 10.00001 90.00005 -3.564301E-06
v 7.071077 49.99998 7.071075
v 7.071078 9.999928 -7.071069
v 7.071074 90.00005 -7.071076
v 4.80474E-06 9.999924 -10
v -9.272318E-07 90.00005 -10.00001
v 7.07108 9.999916 7.071079
v -7.071074 90.00005 -7.071073
v -3.535536 49.99998 -3.535535
v -3.535538 90.00005 -3.535538
v -7.071072 49.99998 -7.07107
v -3.535534 9.999958 -3.535532
v -7.071069 9.999916 -7.071067
v -4.545686 9.999916 -4.545684
v -3.535534 9.999916 -3.535532
v 3.535542 9.999916 3.535542
v 10.00002 9.999924 3.564301E-06
v 5.00001 9.999916 5.00001
v 10.00002 9.999924 3.564301E-06
v 7.07108 9.999916 7.071079
v 3.535542 9.999916 3.535542
v 4.385194 9.999916 1.484303
v 3.535542 9.999916 3.535542
v 4.490774 9.999916 1.229408
v 4.520417 9.999916 1.157844
v 4.853563 9.999916 0.3535582
v 4.904273 9.999916 0.2311368
v 4.957881 9.999916 0.1017121
v 4.969417 9.999916 0.07386196
v 5.000011 9.999916 4.491532E-06
v 7.071078 9.999928 -7.071069
v 4.571076 9.999916 -1.035531
v 4.298942 9.999916 -1.692519
v 4.124998 9.999916 -2.112459
v 4.073232 9.999916 -2.237434
v 3.681989 9.999916 -3.181979
v 3.626574 9.999916 -3.315762
v 3.580793 9.999916 -3.426288
v 3.535542 9.999916 -3.535532
v 2.553621 9.999916 -3.942259
v 0.3535574 9.999916 -4.853554
v 0.2474769 9.999916 -4.897493
v 0.1441475 9.999916 -4.940294
v 0.05906262 9.999916 -4.975537
v 5.099769E-06 9.999916 -5
v 4.80474E-06 9.999924 -10
v 3.751069E-06 9.999916 -5.000001
v -1.891149 9.999916 -4.216659
v -2.447787 9.999916 -3.98609
v -2.504612 9.999916 -3.962553
v -2.530964 9.999916 -3.951639
v -2.564268 9.999916 -3.937843
v -3.181979 9.999916 -3.681978
v -3.535533 9.999916 -3.535532
v -4.545686 9.999916 -4.545684
v -3.535533 9.999916 -3.535532
v -7.071069 9.999916 -7.071067

vn 0.7071069 5.340572E-07 0.7071068
vn 0.7071069 3.814694E-07 0.7071068
vn 0.5368756 0.6507914 0.5368754
vn 0 1 -5.960464E-08
vn 0 1 -5.960464E-08
vn -0.9238815 -8.743381E-08 -0.3826789
vn -0.7000003 0.141421 -0.7000001
vn -0.854897 -2.462181E-07 0.5187979
vn -0.9238797 -3.652485E-07 -0.3826831
vn -0.9238795 -3.241269E-07 -0.3826839
vn -0.9238796 -3.628689E-07 -0.3826836
vn -0.92388 -4.464527E-07 -0.3826827
vn -0.9238803 -5.04965E-07 -0.3826817
vn -0.9238782 8.67511E-08 -0.382687
vn -0.9238793 -2.00812E-07 -0.3826845
vn -0.9238794 -2.488801E-07 -0.382684
vn -0.9238794 -2.317313E-07 -0.3826841
vn -0.9238793 -2.305685E-07 -0.3826842
vn -0.9238794 -2.445305E-07 -0.3826839
vn -0.9238794 -2.637252E-07 -0.3826843
vn -0.9238798 -2.579385E-07 -0.3826832
vn -0.9238803 -3.006255E-07 -0.3826817
vn -0.9238795 -1.901355E-07 -0.3826837
vn -0.9238793 -2.039516E-07 -0.3826846
vn -0.9710309 -2.148293E-07 -0.2389547
vn -0.9387581 -2.628813E-07 0.344577
vn -0.9238788 -3.189221E-07 0.3826856
vn -0.923879 -2.794338E-07 0.3826848
vn -0.9238792 -2.597349E-07 0.3826845
vn -0.92388 -1.064118E-07 0.3826826
vn -0.9238805 -2.195605E-08 0.3826813
vn -0.9238811 1.942857E-07 0.3826798
vn -0.92388 -7.232197E-08 0.3826824
vn -0.9238795 -2.505555E-07 0.3826835
vn -0.9238794 -3.096587E-07 0.3826841
vn -0.9238793 -3.683952E-07 0.3826841
vn -0.9238797 -2.698192E-07 0.382683
vn -0.9238796 -2.904762E-07 0.3826837
vn -0.923879 -3.313067E-07 0.3826848
vn -0.8966883 -3.414763E-07 0.4426628
vn -0.4428051 -1.764313E-07 0.896618
vn -0.3826848 -1.337576E-07 0.923879
vn -0.3826838 -1.612028E-07 0.9238794
vn -0.3826832 -2.018909E-07 0.9238797
vn -0.3826832 -1.734145E-07 0.9238797
vn -0.3826835 -1.556603E-07 0.9238795
vn -0.3826841 -2.948608E-08 0.9238793
vn -0.3826837 -9.89516E-08 0.9238795
vn -0.3826841 -7.64939E-08 0.9238794
vn -0.3826837 -6.897641E-08 0.9238794
vn -0.3826838 -6.203877E-08 0.9238796
vn -0.3826841 -5.335401E-08 0.9238793
vn -0.1931147 1.619073E-08 0.9811763
vn -0.3827056 -5.131851E-08 0.9238704
vn 0.3826831 1.275453E-07 0.9238797
vn 0.3826843 8.251473E-08 0.9238792
vn 0.3826847 4.565056E-08 0.9238791
vn 0.3826858 -6.229443E-08 0.9238786
vn 0.3826839 1.38898E-07 0.9238794
vn 0.3826825 4.27287E-07 0.9238801
vn 0.3826799 7.062706E-07 0.9238811
vn 0.3826381 6.322151E-06 0.9238984
vn 0.3826643 2.739413E-06 0.9238876
vn 0.3826907 -6.139426E-07 0.9238766
vn 0.3826869 -2.24669E-07 0.9238783
vn 0.3826842 1.129399E-07 0.9238793
vn 0.3826836 1.385408E-07 0.9238795
vn 0.3826834 1.383215E-07 0.9238796
vn 0.3826787 6.834077E-08 0.9238816
vn 0.222511 6.134267E-08 0.9749303
vn 0.7071069 1.907347E-07 0.7071068
vn 0.7071069 1.907347E-07 0.7071068
vn 0.7071069 1.907347E-07 0.7071068
vn 0 1 -5.960464E-08
vn -0.382684 -2.708045E-07 -0.9238794
vn 0 1 -5.960464E-08
vn -0.7930058 -2.268734E-07 0.6092142
vn 0.4592404 0.7603925 0.4592402
vn 0.3983475 0.8262196 0.3983474
vn 0.7053199 0.07104921 0.7053198
vn 0.7071069 1.90735E-07 0.7071068
vn 0.7071069 1.907347E-07 0.7071068
vn 0.7071069 1.907344E-07 0.7071068
vn 0.7033459 0.1030029 0.7033457
vn 0 1 -5.960464E-08
vn 0.7070462 0.01266336 0.7070541
vn 0.7071069 1.907357E-07 0.7071068
vn 0.7000002 0.1414215 0.7
vn 0.7071117 1.907362E-07 0.7071021
vn 0.7058357 -0.06004161 0.7058266
vn -0.3826839 -2.004796E-07 -0.9238793
vn 0.7071237 1.907389E-07 0.70709
vn 4.909271E-06 -1 4.968874E-06
vn 0 -1 5.960464E-08
vn 3.051756E-07 -1 -2.45571E-07
vn 0 0 0
vn -0.3826839 -1.902888E-07 -0.9238794
vn -0.3826839 -1.549934E-07 -0.9238794
vn -0.382684 -1.80098E-07 -0.9238795
vn 3.051756E-07 -1 -2.45571E-07
vn 3.051756E-07 -1 -2.45571E-07
vn -0.7071068 -1.788139E-07 0.7071069
vn -0.7071067 -1.788139E-07 0.7071068
vn -0.7071068 -1.788139E-07 0.7071069
vn -0.7071068 -1.788139E-07 0.7071069
vn -0.7071068 -1.788139E-07 0.7071069
vn -0.7071068 -1.788139E-07 0.7071069
vn -0.7071068 -1.788139E-07 0.7071069
vn -0.7071068 -1.788139E-07 0.7071069
vn -0.7071068 -1.788139E-07 0.7071069
vn 0 1 -5.960464E-08
vn 0 1 -5.960464E-08
vn 0 1 -5.960464E-08
vn 0 1 -5.960464E-08
vn 0 1 -5.960464E-08
vn 0 1 -5.960464E-08
vn 0 1 -5.960464E-08
vn 0 1 -5.960464E-08
vn 0 1 -5.960464E-08
vn 0 1 -5.960464E-08
vn 0 1 -5.960464E-08
vn 0 1 -5.960464E-08
vn 0 1 -5.960464E-08
vn 0 1 -5.960464E-08
vn 0 1 -5.960464E-08
vn 0 1 -5.960464E-08
vn 0 1 -5.960464E-08
vn 0 1 -5.960464E-08
vn 0 1 -5.960464E-08
vn 0 1 -5.960464E-08
vn 0 1 -5.960464E-08
vn 0 1 -5.960464E-08
vn 0 1 -5.960464E-08
vn 0 1 -5.960464E-08
vn 0 1 -5.960464E-08
vn 0 1 -5.960464E-08
vn 0 1 -5.960464E-08
vn 0 1 -5.960464E-08
vn 0 1 -5.960464E-08
vn 0 1 -5.960464E-08
vn 0 1 -5.960464E-08
vn 0 1 -5.960464E-08
vn 0 1 -5.960464E-08
vn 0 1 -5.960464E-08
vn 0 1 -5.960464E-08
vn 0 1 -5.960464E-08
vn 0 1 -5.960464E-08
vn 0 1 -5.960464E-08
vn 0.9238797 3.655987E-07 0.3826836
vn 0.9906024 3.452281E-07 0.1367736
vn 0.9906024 3.094554E-07 -0.1367738
vn 0.9238795 3.465477E-07 0.3826835
vn 0.7971752 2.121564E-07 -0.6037483
vn 0.6037481 1.32628E-07 -0.7971753
vn 0.3826835 6.231291E-08 -0.9238795
vn 0.3826836 5.506752E-08 -0.9238796
vn 0.9238796 2.798882E-07 0.3826836
vn -0.7071068 -1.788139E-07 0.7071069
vn -0.7071068 -1.788139E-07 0.7071069
vn -0.7071068 -1.788139E-07 0.7071069
vn -0.7071068 -1.788139E-07 0.7071069
vn -0.7071068 -1.788139E-07 0.7071069
vn -0.7071068 -1.788139E-07 0.7071069
vn -0.7071068 -1.879839E-07 0.7071069
vn -0.7071067 -1.879839E-07 0.7071068
vn -0.6924129 -0.2028032 -0.6924127
vn 5.209673E-07 -1 5.805718E-07
vn 1.525878E-07 -1 -9.298316E-08
vn 2.441405E-07 -1 -2.671208E-08
vn 1.525878E-07 -1 -9.298317E-08
vn 1.525878E-07 -1 -9.298317E-08
vn 3.051756E-07 -1 1.860124E-07
vn 3.051757E-07 -1 1.860126E-07
vn 3.051755E-07 -1 1.860119E-07
vn 3.051757E-07 -1 1.860128E-07
vn 3.051757E-07 -1 1.860129E-07
vn 3.051757E-07 -1 1.860122E-07
vn 3.051755E-07 -1 1.8601E-07
vn 3.051756E-07 -1 1.860153E-07
vn 3.051756E-07 -1 -6.452077E-08
vn 2.157918E-07 -1 -1.561872E-07
vn 3.051751E-07 -1 -6.680352E-08
vn 3.051755E-07 -1 -6.680325E-08
vn 3.051763E-07 -1 -6.680293E-08
vn 3.051759E-07 -1 -6.680315E-08
vn 3.051758E-07 -1 -6.680319E-08
vn 3.051757E-07 -1 -6.680327E-08
vn 3.051753E-07 -1 -6.680371E-08
vn 1.443058E-07 -1 -2.276731E-07
vn 1.26408E-07 -1 -2.455711E-07
vn 1.264078E-07 -1 -2.455712E-07
vn 1.264081E-07 -1 -2.455704E-07
vn 1.264076E-07 -1 -2.455722E-07
vn 1.264078E-07 -1 -2.455713E-07
vn 1.264079E-07 -1 -2.45571E-07
vn 8.631666E-08 -1 -1.845359E-07
vn -1.264081E-07 -1 -2.45571E-07
vn -1.264083E-07 -1 -2.455712E-07
vn -1.264087E-07 -1 -2.455713E-07
vn -1.264019E-07 -1 -2.455685E-07
vn -1.264093E-07 -1 -2.455716E-07
vn -1.264088E-07 -1 -2.455713E-07
vn -1.264075E-07 -1 -2.455707E-07
vn -1.264064E-07 -1 -2.455701E-07
vn 1.525878E-07 -1 -9.298318E-08
vn 1.525878E-07 -1 -9.298319E-08
vn 1.525878E-07 -1 -9.298318E-08

f 1//1 2//2 3//3
f 4//4 1//1 3//3
f 3//3 5//5 4//4
f 3//3 6//6 5//5
f 5//5 6//6 7//7
f 8//8 7//7 6//6
f 9//9 8//8 6//6
f 10//10 9//9 6//6
f 9//9 10//10 11//11
f 11//11 10//10 12//12
f 13//13 11//11 12//12
f 13//13 12//12 14//14
f 13//13 14//14 15//15
f 15//15 14//14 16//16
f 15//15 16//16 17//17
f 18//18 17//17 16//16
f 19//19 17//17 18//18
f 19//19 18//18 20//20
f 21//21 19//19 20//20
f 22//22 19//19 21//21
f 22//22 21//21 23//23
f 24//24 22//22 23//23
f 24//24 23//23 25//25
f 26//26 24//24 25//25
f 26//26 25//25 27//27
f 28//28 26//26 27//27
f 28//28 27//27 29//29
f 29//29 27//27 30//30
f 31//31 29//29 30//30
f 31//31 30//30 32//32
f 33//33 31//31 32//32
f 33//33 32//32 34//34
f 35//35 33//33 34//34
f 35//35 34//34 36//36
f 37//37 35//35 36//36
f 37//37 36//36 38//38
f 39//39 37//37 38//38
f 39//39 38//38 40//40
f 41//41 39//39 40//40
f 41//41 40//40 42//42
f 41//41 42//42 43//43
f 43//43 42//42 44//44
f 45//45 43//43 44//44
f 45//45 44//44 46//46
f 47//47 45//45 46//46
f 48//48 45//45 47//47
f 48//48 47//47 49//49
f 50//50 48//48 49//49
f 50//50 49//49 51//51
f 52//52 50//50 51//51
f 52//52 51//51 53//53
f 54//54 52//52 53//53
f 55//55 54//54 53//53
f 55//55 53//53 56//56
f 55//55 56//56 57//57
f 57//57 56//56 58//58
f 57//57 58//58 59//59
f 59//59 58//58 60//60
f 59//59 60//60 61//61
f 61//61 60//60 62//62
f 61//61 62//62 63//63
f 63//63 62//62 64//64
f 63//63 64//64 65//65
f 65//65 64//64 66//66
f 65//65 66//66 67//67
f 68//68 67//67 66//66
f 69//69 67//67 68//68
f 69//69 68//68 70//70
f 71//71 69//69 70//70
f 72//72 71//71 73//73
f 74//74 75//75 76//76
f 77//77 74//74 76//76
f 75//75 77//77 76//76
f 78//78 75//75 74//74
f 79//79 75//75 78//78
f 78//78 74//74 80//80
f 81//81 78//78 80//80
f 82//82 78//78 81//81
f 82//82 83//83 78//78
f 83//83 84//84 79//79
f 84//84 85//85 79//79
f 80//80 74//74 86//86
f 87//87 80//80 86//86
f 81//81 80//80 87//87
f 86//86 74//74 88//88
f 88//88 74//74 77//77
f 86//86 88//88 89//89
f 90//90 86//86 89//89
f 87//87 86//86 90//90
f 75//75 91//91 77//77
f 90//90 89//89 92//92
f 90//90 92//92 93//93
f 94//94 90//90 93//93
f 95//95 83//83 82//82
f 95//95 82//82 81//81
f 95//95 81//81 87//87
f 95//95 87//87 90//90
f 95//95 96//96 83//83
f 97//97 91//91 75//75
f 97//97 98//98 91//91
f 97//97 99//99 98//98
f 100//100 95//95 101//101
f 102//102 103//103 104//104
f 102//102 104//104 105//105
f 102//102 105//105 106//106
f 106//106 105//105 107//107
f 108//108 102//102 106//106
f 109//109 102//102 108//108
f 110//110 108//108 106//106
f 111//111 112//112 113//113
f 111//111 113//113 114//114
f 111//111 114//114 115//115
f 111//111 115//115 116//116
f 111//111 116//116 117//117
f 117//117 118//118 111//111
f 118//118 119//119 111//111
f 120//120 111//111 119//119
f 120//120 121//121 111//111
f 121//121 122//122 111//111
f 111//111 122//122 123//123
f 114//114 113//113 124//124
f 124//124 113//113 125//125
f 125//125 113//113 126//126
f 126//126 113//113 127//127
f 127//127 113//113 128//128
f 128//128 113//113 129//129
f 129//129 113//113 130//130
f 130//130 113//113 131//131
f 131//131 113//113 132//132
f 132//132 113//113 133//133
f 133//133 113//113 134//134
f 133//133 134//134 135//135
f 135//135 134//134 136//136
f 134//134 137//137 136//136
f 137//137 134//134 138//138
f 138//138 134//134 139//139
f 139//139 134//134 140//140
f 140//140 134//134 141//141
f 134//134 142//142 141//141
f 134//134 143//143 142//142
f 134//134 144//144 143//143
f 144//144 134//134 145//145
f 145//145 134//134 146//146
f 147//147 134//134 148//148
f 149//149 150//150 151//151
f 149//149 152//152 150//150
f 151//151 150//150 153//153
f 151//151 153//153 154//154
f 154//154 153//153 155//155
f 154//154 155//155 156//156
f 152//152 157//157 150//150
f 158//158 159//159 160//160
f 161//161 159//159 158//158
f 162//162 159//159 161//161
f 163//163 162//162 161//161
f 164//164 162//162 163//163
f 165//165 162//162 164//164
f 9//9 166//166 8//8
f 166//166 9//9 167//167
f 168//168 169//169 170//170
f 168//168 171//171 169//169
f 172//172 169//169 173//173
f 174//174 169//169 172//172
f 169//169 174//174 175//175
f 176//176 169//169 175//175
f 177//177 169//169 176//176
f 178//178 169//169 177//177
f 178//178 179//179 169//169
f 179//179 180//180 169//169
f 180//180 181//181 169//169
f 182//182 181//181 180//180
f 182//182 183//183 181//181
f 183//183 184//184 181//181
f 184//184 185//185 181//181
f 185//185 186//186 181//181
f 186//186 187//187 181//181
f 187//187 188//188 181//181
f 188//188 189//189 181//181
f 181//181 189//189 190//190
f 181//181 190//190 191//191
f 192//192 181//181 191//191
f 193//193 181//181 192//192
f 194//194 181//181 193//193
f 195//195 181//181 194//194
f 195//195 196//196 181//181
f 196//196 197//197 198//198
f 196//196 198//198 199//199
f 199//199 200//200 196//196
f 196//196 200//200 201//201
f 201//201 202//202 196//196
f 196//196 202//202 203//203
f 196//196 203//203 204//204
f 205//205 196//196 206//206
f 207//207 196//196 205//205
