v 92.92892 90.00005 92.92892
v 92.92892 49.99998 92.92892
v 92.92892 90.00005 92.92892
v 92.92892 90.00005 92.92892
v 95.45431 90.00005 95.45431
v 96.46446 90.00005 96.46446
v 96.46446 90.00005 96.46446
v 96.46446 49.99998 96.46446
v 96.46445 9.999916 96.46446
v 96.37006 90.00005 96.69238
v 95.61481 9.999916 98.5157
v 96.35833 90.00005 96.7207
v 95.50922 9.999916 98.7706
v 96.35503 90.00005 96.72865
v 95.47958 9.999916 98.84216
v 96.31802 90.00005 96.81802
v 95.14644 9.999916 99.64645
v 95.86163 90.00005 97.91982
v 95.09573 9.999916 99.76887
v 95.42892 90.00005 98.96446
v 95.37915 90.00005 99.08463
v 95.04212 9.999916 99.89829
v 95.27532 90.00005 99.33529
v 95.03059 9.999916 99.92614
v 94.99999 90.00005 99.99999
v 94.99999 9.999916 100
v 95.07789 90.00005 100.1881
v 95.42892 9.999916 101.0355
v 95.70106 9.999916 101.6925
v 95.09722 90.00005 100.2347
v 95.875 9.999916 102.1125
v 95.10297 90.00005 100.2486
v 95.92677 9.999916 102.2374
v 95.14644 90.00005 100.3535
v 96.31801 9.999916 103.182
v 95.64517 90.00005 101.5576
v 96.37343 9.999916 103.3158
v 96.05721 90.00005 102.5523
v 96.4192 9.999916 103.4263
v 96.46446 90.00005 103.5355
v 96.46445 9.999916 103.5355
v 96.57357 90.00005 103.5807
v 97.44638 9.999916 103.9423
v 96.81802 90.00005 103.682
v 99.64645 9.999916 104.8536
v 97.5 90.00005 103.9645
v 97.77274 90.00005 104.0774
v 99.75253 9.999916 104.8975
v 98.70272 90.00005 104.4626
v 99.85585 9.999916 104.9403
v 99.46846 90.00005 104.7798
v 99.94094 9.999916 104.9755
v 100 90.00005 105
v 99.99999 9.999916 105
v 100 9.999916 105
v 100.2101 90.00005 104.913
v 101.8912 9.999916 104.2167
v 100.272 90.00005 104.8873
v 102.4478 9.999916 103.9861
v 100.2783 90.00005 104.8847
v 102.5046 9.999916 103.9626
v 100.2812 90.00005 104.8835
v 102.531 9.999916 103.9516
v 100.2849 90.00005 104.882
v 102.5643 9.999916 103.9379
v 100.3536 90.00005 104.8536
v 103.182 9.999916 103.682
v 103.5355 90.00005 103.5355
v 103.5355 9.999916 103.5355
v 103.5355 90.00005 103.5355
v 103.5355 9.999916 103.5355
v 103.5355 90.00005 103.5355
v 103.5355 90.00005 103.5355
v 104.5457 90.00005 104.5457
v 107.0711 90.00005 107.0711
v 107.0711 90.00005 107.0711
v 107.0711 90.00005 107.0711
v 103.5355 90.00005 103.5355
v 103.5355 90.00005 103.5355
v 103.5355 90.00005 103.5355
v 103.5355 9.999916 103.5355
v 103.5355 9.999916 103.5355
v 103.5355 9.999916 103.5355
v 103.5355 90.00005 103.5355
v 100 90.00005 110
v 103.5355 90.00005 103.5355
v 103.5355 9.999916 103.5355
v 103.5355 90.00005 103.5355
v 103.5355 49.99998 103.5355
v 103.5355 9.999916 103.5355
v 107.0711 49.99998 107.0711
v 103.5355 9.999958 103.5355
v 103.5355 9.999916 103.5355
v 104.5457 9.999916 104.5457
v 99.99999 9.999924 110
v 103.5355 9.999916 103.5355
v 100 90.00005 110
v 107.0711 9.999916 107.0711
v 99.99999 9.999924 110
v 100 9.999916 105
v 99.99999 9.999916 105
v 92.92892 49.99998 92.92892
v 92.92892 90.00005 92.92892
v 92.92892 90.00005 92.92892
v 95.45431 90.00005 95.45431
v 96.46446 49.99998 96.46446
v 96.46446 90.00005 96.46446
v 94.99999 9.999916 94.99999
v 92.92892 9.999916 92.92892
v 96.46445 9.999916 96.46446
v 92.92892 90.00005 92.92892
v 89.99999 90.00005 100
v 92.92892 90.00005 107.0711
v 94.99999 90.00005 99.99999
v 95.27532 90.00005 99.33529
v 95.37915 90.00005 99.08463
v 95.42892 90.00005 98.96446
v 95.86163 90.00005 97.91982
v 96.31802 90.00005 96.81802
v 96.35503 90.00005 96.72865
v 96.35833 90.00005 96.7207
v 96.37006 90.00005 96.69238
v 96.46446 90.00005 96.46446
v 95.07789 90.00005 100.1881
v 95.09722 90.00005 100.2347
v 95.10297 90.00005 100.2486
v 95.14644 90.00005 100.3535
v 95.64517 90.00005 101.5576
v 96.05721 90.00005 102.5523
v 96.46446 90.00005 103.5355
v 96.57357 90.00005 103.5807
v 96.81802 90.00005 103.682
v 97.5 90.00005 103.9645
v 100 90.00005 110
v 97.77274 90.00005 104.0774
v 98.70272 90.00005 104.4626
v 99.46846 90.00005 104.7798
v 100 90.00005 105
v 100.2101 90.00005 104.913
v 100.272 90.00005 104.8873
v 100.2783 90.00005 104.8847
v 100.2812 90.00005 104.8835
v 100.2849 90.00005 104.882
v 100.3536 90.00005 104.8536
v 103.5355 90.00005 103.5355
v 103.5355 90.00005 103.5355
v 103.5355 90.00005 103.5355
v 107.0711 90.00005 107.0711
v 92.92892 90.00005 92.92892
v 89.99998 9.999924 100
v 89.99999 90.00005 100
v 92.92892 49.99998 92.92892
v 92.92892 9.999928 107.0711
v 92.92892 90.00005 107.0711
v 99.99999 9.999924 110
v 100 90.00005 110
v 92.92892 9.999916 92.92892
v 107.0711 90.00005 107.0711
v 103.5355 49.99998 103.5355
v 103.5355 90.00005 103.5355
v 107.0711 49.99998 107.0711
v 103.5355 9.999958 103.5355
v 107.0711 9.999916 107.0711
v 104.5457 9.999916 104.5457
v 103.5355 9.999916 103.5355
v 96.46445 9.999916 96.46446
v 89.99998 9.999924 100
v 94.99999 9.999916 94.99999
v 89.99998 9.999924 100
v 92.92892 9.999916 92.92892
v 96.46445 9.999916 96.46446
v 95.61481 9.999916 98.5157
v 96.46445 9.999916 96.46446
v 95.50922 9.999916 98.7706
v 95.47958 9.999916 98.84216
v 95.14644 9.999916 99.64645
v 95.09573 9.999916 99.76887
v 95.04212 9.999916 99.89829
v 95.03059 9.999916 99.92614
v 94.99999 9.999916 100
v 92.92892 9.999928 107.0711
v 95.42892 9.999916 101.0355
v 95.70106 9.999916 101.6925
v 95.875 9.999916 102.1125
v 95.92677 9.999916 102.2374
v 96.31801 9.999916 103.182
v 96.37343 9.999916 103.3158
v 96.4192 9.999916 103.4263
v 96.46445 9.999916 103.5355
v 97.44638 9.999916 103.9423
v 99.64645 9.999916 104.8536
v 99.75253 9.999916 104.8975
v 99.85585 9.999916 104.9403
v 99.94094 9.999916 104.9755
v 99.99999 9.999916 105
v 99.99999 9.999924 110
v 100 9.999916 105
v 101.8912 9.999916 104.2167
v 102.4478 9.999916 103.9861
v 102.5046 9.999916 103.9626
v 102.531 9.999916 103.9516
v 102.5643 9.999916 103.9379
v 103.182 9.999916 103.682
v 103.5355 9.999916 103.5355
v 104.5457 9.999916 104.5457
v 103.5355 9.999916 103.5355
v 107.0711 9.999916 107.0711

vn -0.7071068 5.340572E-07 -0.7071068
vn -0.7071068 3.814694E-07 -0.7071068
vn -0.5368755 0.6507914 -0.5368755
vn 0 1 -5.960464E-08
vn 0 1 -5.960464E-08
vn 0.9238815 -8.743381E-08 0.3826789
vn 0.7000002 0.141421 0.7000001
vn 0.8548969 -2.462181E-07 -0.5187979
vn 0.9238796 -3.652485E-07 0.3826831
vn 0.9238794 -3.241269E-07 0.3826839
vn 0.9238795 -3.628689E-07 0.3826836
vn 0.9238799 -4.464527E-07 0.3826827
vn 0.9238802 -5.04965E-07 0.3826817
vn 0.9238781 8.67511E-08 0.382687
vn 0.9238791 -2.00812E-07 0.3826845
vn 0.9238793 -2.488801E-07 0.382684
vn 0.9238794 -2.317313E-07 0.3826841
vn 0.9238792 -2.305685E-07 0.3826842
vn 0.9238793 -2.445305E-07 0.3826839
vn 0.9238793 -2.637252E-07 0.3826843
vn 0.9238797 -2.579385E-07 0.3826832
vn 0.9238802 -3.006255E-07 0.3826817
vn 0.9238794 -1.901355E-07 0.3826837
vn 0.9238791 -2.039516E-07 0.3826846
vn 0.9710308 -2.148293E-07 0.2389547
vn 0.9387581 -2.628813E-07 -0.344577
vn 0.9238787 -3.189221E-07 -0.3826856
vn 0.923879 -2.794338E-07 -0.3826848
vn 0.9238791 -2.597349E-07 -0.3826845
vn 0.92388 -1.064118E-07 -0.3826826
vn 0.9238804 -2.195605E-08 -0.3826813
vn 0.9238811 1.942857E-07 -0.3826798
vn 0.92388 -7.232197E-08 -0.3826824
vn 0.9238794 -2.505555E-07 -0.3826835
vn 0.9238794 -3.096587E-07 -0.3826841
vn 0.9238793 -3.683952E-07 -0.3826841
vn 0.9238797 -2.698192E-07 -0.382683
vn 0.9238795 -2.904762E-07 -0.3826837
vn 0.923879 -3.313067E-07 -0.3826848
vn 0.8966882 -3.414763E-07 -0.4426628
vn 0.4428052 -1.764313E-07 -0.896618
vn 0.3826848 -1.337576E-07 -0.923879
vn 0.3826839 -1.612028E-07 -0.9238794
vn 0.3826832 -2.018909E-07 -0.9238797
vn 0.3826832 -1.734145E-07 -0.9238797
vn 0.3826836 -1.556603E-07 -0.9238795
vn 0.3826841 -2.948608E-08 -0.9238793
vn 0.3826837 -9.89516E-08 -0.9238795
vn 0.3826841 -7.64939E-08 -0.9238794
vn 0.3826837 -6.897641E-08 -0.9238794
vn 0.3826838 -6.203877E-08 -0.9238796
vn 0.3826841 -5.335401E-08 -0.9238793
vn 0.1931148 1.619073E-08 -0.9811763
vn 0.3827057 -5.131851E-08 -0.9238704
vn -0.382683 1.275453E-07 -0.9238797
vn -0.3826842 8.251473E-08 -0.9238792
vn -0.3826846 4.565056E-08 -0.9238791
vn -0.3826857 -6.229443E-08 -0.9238786
vn -0.3826838 1.38898E-07 -0.9238794
vn -0.3826824 4.27287E-07 -0.9238801
vn -0.3826798 7.062706E-07 -0.9238811
vn -0.382638 6.322151E-06 -0.9238984
vn -0.3826642 2.739413E-06 -0.9238876
vn -0.3826906 -6.139426E-07 -0.9238766
vn -0.3826868 -2.24669E-07 -0.9238783
vn -0.3826841 1.129399E-07 -0.9238793
vn -0.3826835 1.385408E-07 -0.9238795
vn -0.3826833 1.383215E-07 -0.9238796
vn -0.3826786 6.834077E-08 -0.9238816
vn -0.2225109 6.134267E-08 -0.9749303
vn -0.7071068 1.907347E-07 -0.7071068
vn -0.7071068 1.907347E-07 -0.7071068
vn -0.7071068 1.907347E-07 -0.7071068
vn 0 1 -5.960464E-08
vn 0.3826839 -2.708045E-07 0.9238794
vn 0 1 -5.960464E-08
vn 0.7930058 -2.268734E-07 -0.6092142
vn -0.4592403 0.7603925 -0.4592403
vn -0.3983475 0.8262196 -0.3983475
vn -0.7053198 0.07104921 -0.7053198
vn -0.7071068 1.90735E-07 -0.7071068
vn -0.7071068 1.907347E-07 -0.7071068
vn -0.7071068 1.907344E-07 -0.7071068
vn -0.7033458 0.1030029 -0.7033457
vn 0 1 -5.960464E-08
vn -0.7070461 0.01266336 -0.7070541
vn -0.7071068 1.907357E-07 -0.7071068
vn -0.7 0.1414215 -0.7
vn -0.7071115 1.907362E-07 -0.7071021
vn -0.7058356 -0.06004161 -0.7058266
vn 0.3826838 -2.004796E-07 0.9238793
vn -0.7071236 1.907389E-07 -0.70709
vn -4.90927E-06 -1 -4.849665E-06
vn 0 -1 5.960464E-08
vn -3.051756E-07 -1 3.647803E-07
vn 0 0 0
vn 0.3826838 -1.902888E-07 0.9238794
vn 0.3826838 -1.549934E-07 0.9238794
vn 0.3826838 -1.80098E-07 0.9238795
vn -3.051756E-07 -1 3.647803E-07
vn -3.051756E-07 -1 3.647803E-07
vn 0.7071068 -1.788139E-07 -0.7071069
vn 0.7071067 -1.788139E-07 -0.7071068
vn 0.7071068 -1.788139E-07 -0.7071069
vn 0.7071068 -1.788139E-07 -0.7071069
vn 0.7071068 -1.788139E-07 -0.7071069
vn 0.7071068 -1.788139E-07 -0.7071069
vn 0.7071068 -1.788139E-07 -0.7071069
vn 0.7071068 -1.788139E-07 -0.7071069
vn 0.7071068 -1.788139E-07 -0.7071069
vn 0 1 -5.960464E-08
vn 0 1 -5.960464E-08
vn 0 1 -5.960464E-08
vn 0 1 -5.960464E-08
vn 0 1 -5.960464E-08
vn 0 1 -5.960464E-08
vn 0 1 -5.960464E-08
vn 0 1 -5.960464E-08
vn 0 1 -5.960464E-08
vn 0 1 -5.960464E-08
vn 0 1 -5.960464E-08
vn 0 1 -5.960464E-08
vn 0 1 -5.960464E-08
vn 0 1 -5.960464E-08
vn 0 1 -5.960464E-08
vn 0 1 -5.960464E-08
vn 0 1 -5.960464E-08
vn 0 1 -5.960464E-08
vn 0 1 -5.960464E-08
vn 0 1 -5.960464E-08
vn 0 1 -5.960464E-08
vn 0 1 -5.960464E-08
vn 0 1 -5.960464E-08
vn 0 1 -5.960464E-08
vn 0 1 -5.960464E-08
vn 0 1 -5.960464E-08
vn 0 1 -5.960464E-08
vn 0 1 -5.960464E-08
vn 0 1 -5.960464E-08
vn 0 1 -5.960464E-08
vn 0 1 -5.960464E-08
vn 0 1 -5.960464E-08
vn 0 1 -5.960464E-08
vn 0 1 -5.960464E-08
vn 0 1 -5.960464E-08
vn 0 1 -5.960464E-08
vn 0 1 -5.960464E-08
vn 0 1 -5.960464E-08
vn -0.9238796 3.655987E-07 -0.3826836
vn -0.9906024 3.452281E-07 -0.1367736
vn -0.9906023 3.094554E-07 0.1367738
vn -0.9238794 3.465477E-07 -0.3826835
vn -0.7971752 2.121564E-07 0.6037483
vn -0.6037481 1.32628E-07 0.7971753
vn -0.3826836 6.231291E-08 0.9238795
vn -0.3826836 5.506752E-08 0.9238796
vn -0.9238794 2.798882E-07 -0.3826836
vn 0.7071068 -1.788139E-07 -0.7071069
vn 0.7071068 -1.788139E-07 -0.7071069
vn 0.7071068 -1.788139E-07 -0.7071069
vn 0.7071068 -1.788139E-07 -0.7071069
vn 0.7071068 -1.788139E-07 -0.7071069
vn 0.7071068 -1.788139E-07 -0.7071069
vn 0.7071068 -1.879839E-07 -0.7071069
vn 0.7071067 -1.879839E-07 -0.7071068
vn 0.6924128 -0.2028032 0.6924127
vn -5.209672E-07 -1 -4.613625E-07
vn -1.525878E-07 -1 2.121924E-07
vn -2.441405E-07 -1 1.459214E-07
vn -1.525878E-07 -1 2.121925E-07
vn -1.525878E-07 -1 2.121925E-07
vn -3.051756E-07 -1 -6.680315E-08
vn -3.051756E-07 -1 -6.680332E-08
vn -3.051754E-07 -1 -6.680263E-08
vn -3.051756E-07 -1 -6.680349E-08
vn -3.051756E-07 -1 -6.680358E-08
vn -3.051756E-07 -1 -6.680294E-08
vn -3.051755E-07 -1 -6.680067E-08
vn -3.051756E-07 -1 -6.6806E-08
vn -3.051756E-07 -1 1.837301E-07
vn -2.157918E-07 -1 2.753965E-07
vn -3.051751E-07 -1 1.860128E-07
vn -3.051755E-07 -1 1.860125E-07
vn -3.051763E-07 -1 1.860122E-07
vn -3.051758E-07 -1 1.860124E-07
vn -3.051758E-07 -1 1.860125E-07
vn -3.051757E-07 -1 1.860126E-07
vn -3.051753E-07 -1 1.86013E-07
vn -1.443058E-07 -1 3.468823E-07
vn -1.26408E-07 -1 3.647804E-07
vn -1.264078E-07 -1 3.647805E-07
vn -1.264081E-07 -1 3.647797E-07
vn -1.264076E-07 -1 3.647815E-07
vn -1.264078E-07 -1 3.647806E-07
vn -1.264079E-07 -1 3.647802E-07
vn -8.631667E-08 -1 3.037452E-07
vn 1.264081E-07 -1 3.647803E-07
vn 1.264083E-07 -1 3.647804E-07
vn 1.264086E-07 -1 3.647806E-07
vn 1.264019E-07 -1 3.647778E-07
vn 1.264093E-07 -1 3.647809E-07
vn 1.264088E-07 -1 3.647806E-07
vn 1.264074E-07 -1 3.6478E-07
vn 1.264064E-07 -1 3.647794E-07
vn -1.525878E-07 -1 2.121925E-07
vn -1.525878E-07 -1 2.121925E-07
vn -1.525878E-07 -1 2.121925E-07

f 1//1 2//2 3//3
f 4//4 1//1 3//3
f 3//3 5//5 4//4
f 3//3 6//6 5//5
f 5//5 6//6 7//7
f 8//8 7//7 6//6
f 9//9 8//8 6//6
f 10//10 9//9 6//6
f 9//9 10//10 11//11
f 11//11 10//10 12//12
f 13//13 11//11 12//12
f 13//13 12//12 14//14
f 13//13 14//14 15//15
f 15//15 14//14 16//16
f 15//15 16//16 17//17
f 18//18 17//17 16//16
f 19//19 17//17 18//18
f 19//19 18//18 20//20
f 21//21 19//19 20//20
f 22//22 19//19 21//21
f 22//22 21//21 23//23
f 24//24 22//22 23//23
f 24//24 23//23 25//25
f 26//26 24//24 25//25
f 26//26 25//25 27//27
f 28//28 26//26 27//27
f 28//28 27//27 29//29
f 29//29 27//27 30//30
f 31//31 29//29 30//30
f 31//31 30//30 32//32
f 33//33 31//31 32//32
f 33//33 32//32 34//34
f 35//35 33//33 34//34
f 35//35 34//34 36//36
f 37//37 35//35 36//36
f 37//37 36//36 38//38
f 39//39 37//37 38//38
f 39//39 38//38 40//40
f 41//41 39//39 40//40
f 41//41 40//40 42//42
f 41//41 42//42 43//43
f 43//43 42//42 44//44
f 45//45 43//43 44//44
f 45//45 44//44 46//46
f 47//47 45//45 46//46
f 48//48 45//45 47//47
f 48//48 47//47 49//49
f 50//50 48//48 49//49
f 50//50 49//49 51//51
f 52//52 50//50 51//51
f 52//52 51//51 53//53
f 54//54 52//52 53//53
f 55//55 54//54 53//53
f 55//55 53//53 56//56
f 55//55 56//56 57//57
f 57//57 56//56 58//58
f 57//57 58//58 59//59
f 59//59 58//58 60//60
f 59//59 60//60 61//61
f 61//61 60//60 62//62
f 61//61 62//62 63//63
f 63//63 62//62 64//64
f 63//63 64//64 65//65
f 65//65 64//64 66//66
f 65//65 66//66 67//67
f 68//68 67//67 66//66
f 69//69 67//67 68//68
f 69//69 68//68 70//70
f 71//71 69//69 70//70
f 72//72 71//71 73//73
f 74//74 75//75 76//76
f 77//77 74//74 76//76
f 75//75 77//77 76//76
f 78//78 75//75 74//74
f 79//79 75//75 78//78
f 78//78 74//74 80//80
f 81//81 78//78 80//80
f 82//82 78//78 81//81
f 82//82 83//83 78//78
f 83//83 84//84 79//79
f 84//84 85//85 79//79
f 80//80 74//74 86//86
f 87//87 80//80 86//86
f 81//81 80//80 87//87
f 86//86 74//74 88//88
f 88//88 74//74 77//77
f 86//86 88//88 89//89
f 90//90 86//86 89//89
f 87//87 86//86 90//90
f 75//75 91//91 77//77
f 90//90 89//89 92//92
f 90//90 92//92 93//93
f 94//94 90//90 93//93
f 95//95 83//83 82//82
f 95//95 82//82 81//81
f 95//95 81//81 87//87
f 95//95 87//87 90//90
f 95//95 96//96 83//83
f 97//97 91//91 75//75
f 97//97 98//98 91//91
f 97//97 99//99 98//98
f 100//100 95//95 101//101
f 102//102 103//103 104//104
f 102//102 104//104 105//105
f 102//102 105//105 106//106
f 106//106 105//105 107//107
f 108//108 102//102 106//106
f 109//109 102//102 108//108
f 110//110 108//108 106//106
f 111//111 112//112 113//113
f 111//111 113//113 114//114
f 111//111 114//114 115//115
f 111//111 115//115 116//116
f 111//111 116//116 117//117
f 117//117 118//118 111//111
f 118//118 119//119 111//111
f 120//120 111//111 119//119
f 120//120 121//121 111//111
f 121//121 122//122 111//111
f 111//111 122//122 123//123
f 114//114 113//113 124//124
f 124//124 113//113 125//125
f 125//125 113//113 126//126
f 126//126 113//113 127//127
f 127//127 113//113 128//128
f 128//128 113//113 129//129
f 129//129 113//113 130//130
f 130//130 113//113 131//131
f 131//131 113//113 132//132
f 132//132 113//113 133//133
f 133//133 113//113 134//134
f 133//133 134//134 135//135
f 135//135 134//134 136//136
f 134//134 137//137 136//136
f 137//137 134//134 138//138
f 138//138 134//134 139//139
f 139//139 134//134 140//140
f 140//140 134//134 141//141
f 134//134 142//142 141//141
f 134//134 143//143 142//142
f 134//134 144//144 143//143
f 144//144 134//134 145//145
f 145//145 134//134 146//146
f 147//147 134//134 148//148
f 149//149 150//150 151//151
f 149//149 152//152 150//150
f 151//151 150//150 153//153
f 151//151 153//153 154//154
f 154//154 153//153 155//155
f 154//154 155//155 156//156
f 152//152 157//157 150//150
f 158//158 159//159 160//160
f 161//161 159//159 158//158
f 162//162 159//159 161//161
f 163//163 162//162 161//161
f 164//164 162//162 163//163
f 165//165 162//162 164//164
f 9//9 166//166 8//8
f 166//166 9//9 167//167
f 168//168 169//169 170//170
f 168//168 171//171 169//169
f 172//172 169//169 173//173
f 174//174 169//169 172//172
f 169//169 174//174 175//175
f 176//176 169//169 175//175
f 177//177 169//169 176//176
f 178//178 169//169 177//177
f 178//178 179//179 169//169
f 179//179 180//180 169//169
f 180//180 181//181 169//169
f 182//182 181//181 180//180
f 182//182 183//183 181//181
f 183//183 184//184 181//181
f 184//184 185//185 181//181
f 185//185 186//186 181//181
f 186//186 187//187 181//181
f 187//187 188//188 181//181
f 188//188 189//189 181//181
f 181//181 189//189 190//190
f 181//181 190//190 191//191
f 192//192 181//181 191//191
f 193//193 181//181 192//192
f 194//194 181//181 193//193
f 195//195 181//181 194//194
f 195//195 196//196 181//181
f 196//196 197//197 198//198
f 196//196 198//198 199//199
f 199//199 200//200 196//196
f 196//196 200//200 201//201
f 201//201 202//202 196//196
f 196//196 202//202 203//203
f 196//196 203//203 204//204
f 205//205 196//196 206//206
f 207//207 196//196 205//205
