v 9.999962 92.92892 7.071071
v 50.00002 92.92892 7.071077
v 9.999962 92.92892 7.071071
v 9.999962 92.92892 7.07107
v 9.999958 95.45431 4.545688
v 9.999958 96.46446 3.535534
v 9.999958 96.46446 3.535534
v 50.00002 96.46446 3.53554
v 90.00008 96.46446 3.535545
v 9.999958 96.69238 3.62994
v 90.00008 98.5157 4.385196
v 9.999958 96.7207 3.641671
v 90.00008 98.77059 4.490776
v 9.999958 96.72865 3.644965
v 90.00008 98.84216 4.520419
v 9.999958 96.81802 3.681981
v 90.00008 99.64645 4.853566
v 9.999958 97.91982 4.138363
v 90.00008 99.76887 4.904275
v 9.999958 98.96446 4.57107
v 9.999958 99.08464 4.620849
v 90.00008 99.89829 4.957883
v 9.999958 99.3353 4.724674
v 90.00008 99.92614 4.969419
v 9.999958 100 5.000004
v 90.00008 100 5.000013
v 9.999958 100.1881 4.922106
v 90.00008 101.0355 4.571079
v 90.00008 101.6925 4.298944
v 9.999958 100.2347 4.902778
v 90.00008 102.1125 4.125
v 9.999958 100.2486 4.897027
v 90.00008 102.2374 4.073234
v 9.999958 100.3536 4.853557
v 90.00008 103.182 3.681991
v 9.999958 101.5576 4.354823
v 90.00008 103.3158 3.626576
v 9.999958 102.5523 3.942792
v 90.00008 103.4263 3.580795
v 9.999958 103.5355 3.535533
v 90.00008 103.5355 3.535544
v 9.999958 103.5807 3.42643
v 90.00008 103.9423 2.553622
v 9.999958 103.682 3.18198
v 90.00008 104.8536 0.3535596
v 9.999958 103.9645 2.499999
v 9.999958 104.0774 2.227263
v 90.00008 104.8975 0.2474792
v 9.999958 104.4627 1.297278
v 90.00008 104.9403 0.1441496
v 9.999958 104.7798 0.5315365
v 90.00008 104.9755 0.05906488
v 9.999958 105 -2.974244E-06
v 90.00008 105 7.357519E-06
v 90.00008 105 6.00882E-06
v 9.999958 104.913 -0.210131
v 90.00008 104.2167 -1.891147
v 9.999958 104.8873 -0.2719805
v 90.00008 103.9861 -2.447785
v 9.999958 104.8847 -0.2782947
v 90.00008 103.9626 -2.50461
v 9.999958 104.8835 -0.2812223
v 90.00008 103.9516 -2.530962
v 9.999958 104.882 -0.2849234
v 90.00008 103.9378 -2.564265
v 9.999958 104.8536 -0.3535565
v 90.00008 103.682 -3.181976
v 9.999958 103.5355 -3.535537
v 90.00008 103.5355 -3.535531
v 9.999958 103.5355 -3.53554
v 90.00008 103.5355 -3.535531
v 9.999958 103.5355 -3.53554
v 9.999958 103.5355 -3.53554
v 9.999958 104.5457 -4.545694
v 9.999958 107.0711 -7.071077
v 9.999958 107.0711 -7.071077
v 9.999958 107.0711 -7.071076
v 9.999958 103.5355 -3.53554
v 9.999958 103.5355 -3.53554
v 9.999958 103.5355 -3.53554
v 90.00008 103.5355 -3.535531
v 90.00008 103.5355 -3.535531
v 90.00008 103.5355 -3.535531
v 9.999958 103.5355 -3.53554
v 9.999958 110 -3.564301E-06
v 9.999958 103.5355 -3.53554
v 90.00008 103.5355 -3.535531
v 9.999958 103.5355 -3.53554
v 50.00002 103.5355 -3.535536
v 90.00008 103.5355 -3.535531
v 50.00002 107.0711 -7.071072
v 90.00005 103.5355 -3.535531
v 90.00008 103.5355 -3.535531
v 90.00008 104.5457 -4.545683
v 90.00008 110 6.2617E-06
v 90.00008 103.5355 -3.535531
v 9.999958 110 -3.564301E-06
v 90.00008 107.0711 -7.071067
v 90.00008 110 6.2617E-06
v 90.00008 105 6.00882E-06
v 90.00008 105 7.357519E-06
v 50.00002 92.92892 7.071077
v 9.999962 92.92892 7.071071
v 9.999962 92.92892 7.07107
v 9.999958 95.45431 4.545688
v 50.00002 96.46446 3.53554
v 9.999958 96.46446 3.535534
v 90.00008 94.99999 5.000013
v 90.00008 92.92892 7.071082
v 90.00008 96.46446 3.535545
v 9.999962 92.92892 7.071071
v 9.999958 100 10.00001
v 9.999958 107.0711 7.071071
v 9.999958 100 5.000004
v 9.999958 99.3353 4.724674
v 9.999958 99.08464 4.620849
v 9.999958 98.96446 4.57107
v 9.999958 97.91982 4.138363
v 9.999958 96.81802 3.681981
v 9.999958 96.72865 3.644965
v 9.999958 96.7207 3.641671
v 9.999958 96.69238 3.62994
v 9.999958 96.46446 3.535534
v 9.999958 100.1881 4.922106
v 9.999958 100.2347 4.902778
v 9.999958 100.2486 4.897027
v 9.999958 100.3536 4.853557
v 9.999958 101.5576 4.354823
v 9.999958 102.5523 3.942792
v 9.999958 103.5355 3.535533
v 9.999958 103.5807 3.42643
v 9.999958 103.682 3.18198
v 9.999958 103.9645 2.499999
v 9.999958 110 -3.564301E-06
v 9.999958 104.0774 2.227263
v 9.999958 104.4627 1.297278
v 9.999958 104.7798 0.5315365
v 9.999958 105 -2.974244E-06
v 9.999958 104.913 -0.210131
v 9.999958 104.8873 -0.2719805
v 9.999958 104.8847 -0.2782947
v 9.999958 104.8835 -0.2812223
v 9.999958 104.882 -0.2849234
v 9.999958 104.8536 -0.3535565
v 9.999958 103.5355 -3.535537
v 9.999958 103.5355 -3.53554
v 9.999958 103.5355 -3.53554
v 9.999958 107.0711 -7.071077
v 9.999962 92.92892 7.071071
v 90.00008 100 10.00002
v 9.999958 100 10.00001
v 50.00002 92.92892 7.071077
v 90.00008 107.0711 7.071081
v 9.999958 107.0711 7.071071
v 90.00008 110 6.2617E-06
v 9.999958 110 -3.564301E-06
v 90.00008 92.92892 7.071082
v 9.999958 107.0711 -7.071076
v 50.00002 103.5355 -3.535536
v 9.999958 103.5355 -3.53554
v 50.00002 107.0711 -7.071072
v 90.00005 103.5355 -3.535531
v 90.00008 107.0711 -7.071067
v 90.00008 104.5457 -4.545683
v 90.00008 103.5355 -3.535531
v 90.00008 96.46446 3.535545
v 90.00008 100 10.00002
v 90.00008 94.99999 5.000013
v 90.00008 100 10.00002
v 90.00008 92.92892 7.071082
v 90.00008 96.46446 3.535545
v 90.00008 98.5157 4.385196
v 90.00008 96.46446 3.535545
v 90.00008 98.77059 4.490776
v 90.00008 98.84216 4.520419
v 90.00008 99.64645 4.853566
v 90.00008 99.76887 4.904275
v 90.00008 99.89829 4.957883
v 90.00008 99.92614 4.969419
v 90.00008 100 5.000013
v 90.00008 107.0711 7.071081
v 90.00008 101.0355 4.571079
v 90.00008 101.6925 4.298944
v 90.00008 102.1125 4.125
v 90.00008 102.2374 4.073234
v 90.00008 103.182 3.681991
v 90.00008 103.3158 3.626576
v 90.00008 103.4263 3.580795
v 90.00008 103.5355 3.535544
v 90.00008 103.9423 2.553622
v 90.00008 104.8536 0.3535596
v 90.00008 104.8975 0.2474792
v 90.00008 104.9403 0.1441496
v 90.00008 104.9755 0.05906488
v 90.00008 105 7.357519E-06
v 90.00008 110 6.2617E-06
v 90.00008 105 6.00882E-06
v 90.00008 104.2167 -1.891147
v 90.00008 103.9861 -2.447785
v 90.00008 103.9626 -2.50461
v 90.00008 103.9516 -2.530962
v 90.00008 103.9378 -2.564265
v 90.00008 103.682 -3.181976
v 90.00008 103.5355 -3.535531
v 90.00008 104.5457 -4.545683
v 90.00008 103.5355 -3.535531
v 90.00008 107.0711 -7.071067

vn -4.744525E-07 -0.7071068 0.7071069
vn -3.218648E-07 -0.7071068 0.7071069
vn -0.6507913 -0.5368755 0.5368755
vn -1 0 -5.960464E-08
vn -1 0 -5.960464E-08
vn 9.55643E-09 0.3826788 -0.9238815
vn -0.141421 0.7000001 -0.7000002
vn 1.741557E-07 -0.5187979 -0.8548969
vn 2.873713E-07 0.3826831 -0.9238797
vn 2.462496E-07 0.3826839 -0.9238794
vn 2.849917E-07 0.3826836 -0.9238796
vn 3.685755E-07 0.3826827 -0.92388
vn 4.270878E-07 0.3826816 -0.9238803
vn -1.646282E-07 0.382687 -0.9238781
vn 1.229348E-07 0.3826844 -0.9238792
vn 1.710029E-07 0.3826839 -0.9238793
vn 1.538541E-07 0.3826841 -0.9238794
vn 1.526913E-07 0.3826842 -0.9238793
vn 1.666533E-07 0.3826839 -0.9238794
vn 1.858481E-07 0.3826842 -0.9238793
vn 1.800613E-07 0.3826831 -0.9238797
vn 2.227482E-07 0.3826817 -0.9238803
vn 1.122583E-07 0.3826837 -0.9238794
vn 1.260744E-07 0.3826845 -0.9238792
vn 1.329776E-07 0.2389547 -0.9710308
vn 1.837499E-07 -0.3445771 -0.9387581
vn 2.410449E-07 -0.3826856 -0.9238787
vn 2.015566E-07 -0.3826848 -0.923879
vn 1.818577E-07 -0.3826846 -0.9238791
vn 2.853458E-08 -0.3826827 -0.92388
vn -5.592125E-08 -0.3826814 -0.9238805
vn -2.72163E-07 -0.3826798 -0.9238811
vn -5.555298E-09 -0.3826825 -0.92388
vn 1.726783E-07 -0.3826835 -0.9238795
vn 2.317815E-07 -0.3826841 -0.9238794
vn 2.90518E-07 -0.3826842 -0.9238793
vn 1.91942E-07 -0.3826831 -0.9238797
vn 2.125989E-07 -0.3826838 -0.9238796
vn 2.534296E-07 -0.3826848 -0.923879
vn 2.658911E-07 -0.4426628 -0.8966883
vn 1.391057E-07 -0.8966181 -0.4428051
vn 1.014997E-07 -0.923879 -0.3826848
vn 1.28945E-07 -0.9238795 -0.3826838
vn 1.696331E-07 -0.9238798 -0.3826832
vn 1.411567E-07 -0.9238797 -0.3826832
vn 1.234025E-07 -0.9238795 -0.3826836
vn -2.771784E-09 -0.9238793 -0.3826841
vn 6.669378E-08 -0.9238796 -0.3826837
vn 4.423604E-08 -0.9238794 -0.3826841
vn 3.671859E-08 -0.9238795 -0.3826837
vn 2.978093E-08 -0.9238796 -0.3826838
vn 2.109614E-08 -0.9238793 -0.3826841
vn -3.24691E-08 -0.9811763 -0.1931148
vn 1.905883E-08 -0.9238704 -0.3827056
vn -9.528752E-08 -0.9238797 0.3826831
vn -5.025687E-08 -0.9238792 0.3826842
vn -1.339266E-08 -0.9238791 0.3826847
vn 9.455241E-08 -0.9238786 0.3826858
vn -1.066402E-07 -0.9238794 0.3826839
vn -3.950293E-07 -0.9238802 0.3826824
vn -6.740132E-07 -0.9238811 0.3826798
vn -6.289898E-06 -0.9238984 0.382638
vn -2.707156E-06 -0.9238876 0.3826643
vn 6.46201E-07 -0.9238767 0.3826906
vn 2.569271E-07 -0.9238783 0.3826868
vn -8.068203E-08 -0.9238793 0.3826841
vn -1.06283E-07 -0.9238795 0.3826836
vn -1.060637E-07 -0.9238797 0.3826833
vn -3.608337E-08 -0.9238816 0.3826787
vn -4.25864E-08 -0.9749303 0.222511
vn -1.311301E-07 -0.7071068 0.7071069
vn -1.311301E-07 -0.7071068 0.7071069
vn -1.311301E-07 -0.7071068 0.7071069
vn -1 0 -5.960464E-08
vn 2.385466E-07 0.9238794 -0.3826839
vn -1 0 -5.960464E-08
vn 1.60028E-07 -0.6092142 -0.7930058
vn -0.7603924 -0.4592403 0.4592403
vn -0.8262195 -0.3983474 0.3983474
vn -0.07104915 -0.7053198 0.7053199
vn -1.311304E-07 -0.7071068 0.7071069
vn -1.311301E-07 -0.7071068 0.7071069
vn -1.311297E-07 -0.7071068 0.7071069
vn -0.1030028 -0.7033457 0.7033458
vn -1 0 -5.960464E-08
vn -0.0126633 -0.7070541 0.7070462
vn -1.311311E-07 -0.7071068 0.7071069
vn -0.1414215 -0.7 0.7
vn -1.311311E-07 -0.7071021 0.7071116
vn 0.06004167 -0.7058266 0.7058356
vn 1.682217E-07 0.9238794 -0.3826839
vn -1.311329E-07 -0.70709 0.7071236
vn 1 -4.90927E-06 4.968875E-06
vn 1 0 5.960464E-08
vn 1 3.051757E-07 3.647802E-07
vn 0 0 0
vn 1.58031E-07 0.9238795 -0.3826838
vn 1.227356E-07 0.9238794 -0.3826839
vn 1.478402E-07 0.9238795 -0.3826839
vn 1 3.051757E-07 3.647802E-07
vn 1 3.051757E-07 3.647802E-07
vn 1.192093E-07 -0.7071069 -0.7071068
vn 1.192092E-07 -0.7071069 -0.7071067
vn 1.192093E-07 -0.7071069 -0.7071068
vn 1.192093E-07 -0.7071069 -0.7071068
vn 1.192093E-07 -0.7071069 -0.7071068
vn 1.192093E-07 -0.7071069 -0.7071068
vn 1.192093E-07 -0.7071069 -0.7071068
vn 1.192093E-07 -0.7071069 -0.7071068
vn 1.192093E-07 -0.7071069 -0.7071068
vn -1 0 -5.960464E-08
vn -1 0 -5.960464E-08
vn -1 0 -5.960464E-08
vn -1 0 -5.960464E-08
vn -1 0 -5.960464E-08
vn -1 0 -5.960464E-08
vn -1 0 -5.960464E-08
vn -1 0 -5.960464E-08
vn -1 0 -5.960464E-08
vn -1 0 -5.960464E-08
vn -1 0 -5.960464E-08
vn -1 0 -5.960464E-08
vn -1 0 -5.960464E-08
vn -1 0 -5.960464E-08
vn -1 0 -5.960464E-08
vn -1 0 -5.960464E-08
vn -1 0 -5.960464E-08
vn -1 0 -5.960464E-08
vn -1 0 -5.960464E-08
vn -1 0 -5.960464E-08
vn -1 0 -5.960464E-08
vn -1 0 -5.960464E-08
vn -1 0 -5.960464E-08
vn -1 0 -5.960464E-08
vn -1 0 -5.960464E-08
vn -1 0 -5.960464E-08
vn -1 0 -5.960464E-08
vn -1 0 -5.960464E-08
vn -1 0 -5.960464E-08
vn -1 0 -5.960464E-08
vn -1 0 -5.960464E-08
vn -1 0 -5.960464E-08
vn -1 0 -5.960464E-08
vn -1 0 -5.960464E-08
vn -1 0 -5.960464E-08
vn -1 0 -5.960464E-08
vn -1 0 -5.960464E-08
vn -1 0 -5.960464E-08
vn -2.877215E-07 -0.3826836 0.9238796
vn -2.617265E-07 -0.1367736 0.9906024
vn -2.259539E-07 0.1367739 0.9906024
vn -2.686705E-07 -0.3826835 0.9238795
vn -1.449596E-07 0.6037483 0.7971752
vn -8.173582E-08 0.7971753 0.6037481
vn -3.005509E-08 0.9238796 0.3826835
vn -2.28097E-08 0.9238796 0.3826836
vn -2.02011E-07 -0.3826836 0.9238795
vn 1.192093E-07 -0.7071069 -0.7071068
vn 1.192093E-07 -0.7071069 -0.7071068
vn 1.192093E-07 -0.7071069 -0.7071068
vn 1.192093E-07 -0.7071069 -0.7071068
vn 1.192093E-07 -0.7071069 -0.7071068
vn 1.192093E-07 -0.7071069 -0.7071068
vn 1.283792E-07 -0.7071069 -0.7071068
vn 1.283792E-07 -0.7071069 -0.7071067
vn 0.2028032 0.6924127 -0.6924129
vn 1 -5.209671E-07 5.805719E-07
vn 1 1.525878E-07 2.121924E-07
vn 1 8.631673E-08 3.037451E-07
vn 1 1.525878E-07 2.121924E-07
vn 1 1.525878E-07 2.121924E-07
vn 1 -1.264078E-07 3.647803E-07
vn 1 -1.26408E-07 3.647803E-07
vn 1 -1.264073E-07 3.647801E-07
vn 1 -1.264081E-07 3.647803E-07
vn 1 -1.264082E-07 3.647803E-07
vn 1 -1.264076E-07 3.647803E-07
vn 1 -1.264053E-07 3.647802E-07
vn 1 -1.264106E-07 3.647802E-07
vn 1 1.241254E-07 3.647802E-07
vn 1 2.157918E-07 2.753964E-07
vn 1 1.264082E-07 3.647797E-07
vn 1 1.264079E-07 3.647802E-07
vn 1 1.264076E-07 3.647809E-07
vn 1 1.264078E-07 3.647805E-07
vn 1 1.264079E-07 3.647804E-07
vn 1 1.264079E-07 3.647804E-07
vn 1 1.264084E-07 3.647799E-07
vn 1 2.872777E-07 2.039104E-07
vn 1 3.051757E-07 1.860126E-07
vn 1 3.051759E-07 1.860125E-07
vn 1 3.051751E-07 1.860127E-07
vn 1 3.051769E-07 1.860122E-07
vn 1 3.05176E-07 1.860124E-07
vn 1 3.051756E-07 1.860126E-07
vn 1 2.441406E-07 1.459213E-07
vn 1 3.051757E-07 -6.680346E-08
vn 1 3.051758E-07 -6.680365E-08
vn 1 3.051759E-07 -6.6804E-08
vn 1 3.051731E-07 -6.679723E-08
vn 1 3.051763E-07 -6.680467E-08
vn 1 3.05176E-07 -6.680418E-08
vn 1 3.051753E-07 -6.680281E-08
vn 1 3.051748E-07 -6.680173E-08
vn 1 1.525878E-07 2.121924E-07
vn 1 1.525878E-07 2.121924E-07
vn 1 1.525878E-07 2.121924E-07

f 1//1 2//2 3//3
f 4//4 1//1 3//3
f 3//3 5//5 4//4
f 3//3 6//6 5//5
f 5//5 6//6 7//7
f 8//8 7//7 6//6
f 9//9 8//8 6//6
f 10//10 9//9 6//6
f 9//9 10//10 11//11
f 11//11 10//10 12//12
f 13//13 11//11 12//12
f 13//13 12//12 14//14
f 13//13 14//14 15//15
f 15//15 14//14 16//16
f 15//15 16//16 17//17
f 18//18 17//17 16//16
f 19//19 17//17 18//18
f 19//19 18//18 20//20
f 21//21 19//19 20//20
f 22//22 19//19 21//21
f 22//22 21//21 23//23
f 24//24 22//22 23//23
f 24//24 23//23 25//25
f 26//26 24//24 25//25
f 26//26 25//25 27//27
f 28//28 26//26 27//27
f 28//28 27//27 29//29
f 29//29 27//27 30//30
f 31//31 29//29 30//30
f 31//31 30//30 32//32
f 33//33 31//31 32//32
f 33//33 32//32 34//34
f 35//35 33//33 34//34
f 35//35 34//34 36//36
f 37//37 35//35 36//36
f 37//37 36//36 38//38
f 39//39 37//37 38//38
f 39//39 38//38 40//40
f 41//41 39//39 40//40
f 41//41 40//40 42//42
f 41//41 42//42 43//43
f 43//43 42//42 44//44
f 45//45 43//43 44//44
f 45//45 44//44 46//46
f 47//47 45//45 46//46
f 48//48 45//45 47//47
f 48//48 47//47 49//49
f 50//50 48//48 49//49
f 50//50 49//49 51//51
f 52//52 50//50 51//51
f 52//52 51//51 53//53
f 54//54 52//52 53//53
f 55//55 54//54 53//53
f 55//55 53//53 56//56
f 55//55 56//56 57//57
f 57//57 56//56 58//58
f 57//57 58//58 59//59
f 59//59 58//58 60//60
f 59//59 60//60 61//61
f 61//61 60//60 62//62
f 61//61 62//62 63//63
f 63//63 62//62 64//64
f 63//63 64//64 65//65
f 65//65 64//64 66//66
f 65//65 66//66 67//67
f 68//68 67//67 66//66
f 69//69 67//67 68//68
f 69//69 68//68 70//70
f 71//71 69//69 70//70
f 72//72 71//71 73//73
f 74//74 75//75 76//76
f 77//77 74//74 76//76
f 75//75 77//77 76//76
f 78//78 75//75 74//74
f 79//79 75//75 78//78
f 78//78 74//74 80//80
f 81//81 78//78 80//80
f 82//82 78//78 81//81
f 82//82 83//83 78//78
f 83//83 84//84 79//79
f 84//84 85//85 79//79
f 80//80 74//74 86//86
f 87//87 80//80 86//86
f 81//81 80//80 87//87
f 86//86 74//74 88//88
f 88//88 74//74 77//77
f 86//86 88//88 89//89
f 90//90 86//86 89//89
f 87//87 86//86 90//90
f 75//75 91//91 77//77
f 90//90 89//89 92//92
f 90//90 92//92 93//93
f 94//94 90//90 93//93
f 95//95 83//83 82//82
f 95//95 82//82 81//81
f 95//95 81//81 87//87
f 95//95 87//87 90//90
f 95//95 96//96 83//83
f 97//97 91//91 75//75
f 97//97 98//98 91//91
f 97//97 99//99 98//98
f 100//100 95//95 101//101
f 102//102 103//103 104//104
f 102//102 104//104 105//105
f 102//102 105//105 106//106
f 106//106 105//105 107//107
f 108//108 102//102 106//106
f 109//109 102//102 108//108
f 110//110 108//108 106//106
f 111//111 112//112 113//113
f 111//111 113//113 114//114
f 111//111 114//114 115//115
f 111//111 115//115 116//116
f 111//111 116//116 117//117
f 117//117 118//118 111//111
f 118//118 119//119 111//111
f 120//120 111//111 119//119
f 120//120 121//121 111//111
f 121//121 122//122 111//111
f 111//111 122//122 123//123
f 114//114 113//113 124//124
f 124//124 113//113 125//125
f 125//125 113//113 126//126
f 126//126 113//113 127//127
f 127//127 113//113 128//128
f 128//128 113//113 129//129
f 129//129 113//113 130//130
f 130//130 113//113 131//131
f 131//131 113//113 132//132
f 132//132 113//113 133//133
f 133//133 113//113 134//134
f 133//133 134//134 135//135
f 135//135 134//134 136//136
f 134//134 137//137 136//136
f 137//137 134//134 138//138
f 138//138 134//134 139//139
f 139//139 134//134 140//140
f 140//140 134//134 141//141
f 134//134 142//142 141//141
f 134//134 143//143 142//142
f 134//134 144//144 143//143
f 144//144 134//134 145//145
f 145//145 134//134 146//146
f 147//147 134//134 148//148
f 149//149 150//150 151//151
f 149//149 152//152 150//150
f 151//151 150//150 153//153
f 151//151 153//153 154//154
f 154//154 153//153 155//155
f 154//154 155//155 156//156
f 152//152 157//157 150//150
f 158//158 159//159 160//160
f 161//161 159//159 158//158
f 162//162 159//159 161//161
f 163//163 162//162 161//161
f 164//164 162//162 163//163
f 165//165 162//162 164//164
f 9//9 166//166 8//8
f 166//166 9//9 167//167
f 168//168 169//169 170//170
f 168//168 171//171 169//169
f 172//172 169//169 173//173
f 174//174 169//169 172//172
f 169//169 174//174 175//175
f 176//176 169//169 175//175
f 177//177 169//169 176//176
f 178//178 169//169 177//177
f 178//178 179//179 169//169
f 179//179 180//180 169//169
f 180//180 181//181 169//169
f 182//182 181//181 180//180
f 182//182 183//183 181//181
f 183//183 184//184 181//181
f 184//184 185//185 181//181
f 185//185 186//186 181//181
f 186//186 187//187 181//181
f 187//187 188//188 181//181
f 188//188 189//189 181//181
f 181//181 189//189 190//190
f 181//181 190//190 191//191
f 192//192 181//181 191//191
f 193//193 181//181 192//192
f 194//194 181//181 193//193
f 195//195 181//181 194//194
f 195//195 196//196 181//181
f 196//196 197//197 198//198
f 196//196 198//198 199//199
f 199//199 200//200 196//196
f 196//196 200//200 201//201
f 201//201 202//202 196//196
f 196//196 202//202 203//203
f 196//196 203//203 204//204
f 205//205 196//196 206//206
f 207//207 196//196 205//205
