v 90.00003 -10.00001 -4.768375E-06
v 49.99998 -10.00001 -1.192092E-06
v 90.00003 -10.00001 -4.968375E-06
v 90.00003 -10.00001 -4.768375E-06
v 90.00003 -6.428577 -4.342627E-06
v 90.00003 -5.000004 -4.372328E-06
v 90.00003 -5.000004 -4.172328E-06
v 49.99998 -5.000008 -5.960457E-07
v 9.999928 -5.00001 2.900237E-06
v 90.00003 -4.905598 -0.2279194
v 9.999928 -4.150359 -2.051237
v 90.00003 -4.893868 -0.2562411
v 9.999928 -4.044777 -2.306131
v 90.00003 -4.890574 -0.2641927
v 9.999928 -4.015135 -2.377695
v 90.00003 -4.853558 -0.3535579
v 9.999928 -3.681989 -3.181981
v 90.00003 -4.397177 -1.455359
v 9.999928 -3.631281 -3.304403
v 90.00003 -3.964471 -2.500006
v 90.00003 -3.914693 -2.620182
v 9.999928 -3.577671 -3.433827
v 90.00003 -3.810869 -2.870836
v 9.999928 -3.566134 -3.461677
v 90.00003 -3.535539 -3.535543
v 9.999928 -3.535542 -3.535535
v 90.00003 -3.347479 -3.613439
v 9.999928 -2.500006 -3.964467
v 9.999928 -1.843017 -4.236599
v 90.00003 -3.300818 -3.632765
v 9.999928 -1.423078 -4.410545
v 90.00003 -3.286932 -3.638517
v 9.999928 -1.298103 -4.462311
v 90.00003 -3.181984 -3.681989
v 9.999928 -0.353558 -4.853555
v 90.00003 -1.977938 -4.180719
v 9.999928 -0.2197751 -4.908969
v 90.00003 -0.9832064 -4.592751
v 9.999928 -0.1092494 -4.954751
v 90.00003 5.960464E-07 -5.000007
v 9.999928 -4.172328E-06 -5.000001
v 90.00003 0.1091031 -4.954815
v 9.999928 0.9819179 -4.593277
v 90.00003 0.3535545 -4.853561
v 9.999928 3.18198 -3.68198
v 90.00003 1.035535 -4.571074
v 90.00003 1.308272 -4.458105
v 9.999928 3.28806 -3.63804
v 90.00003 2.238256 -4.072892
v 9.999928 3.39139 -3.59524
v 90.00003 3.003998 -3.755712
v 9.999928 3.476474 -3.559996
v 90.00003 3.535538 -3.535542
v 9.999928 3.535532 -3.535534
v 9.999928 3.535534 -3.535534
v 90.00003 3.622576 -3.325414
v 9.999928 4.318874 -1.644381
v 90.00003 3.648194 -3.263564
v 9.999928 4.54944 -1.087742
v 90.00003 3.65081 -3.25725
v 9.999928 4.572978 -1.030917
v 90.00003 3.652022 -3.254322
v 9.999928 4.583894 -1.004566
v 90.00003 3.653557 -3.250622
v 9.999928 4.597688 -0.9712611
v 90.00003 3.681984 -3.181988
v 9.999928 4.853552 -0.3535498
v 90.00003 5.000002 -5.941355E-06
v 9.999928 5 3.754429E-06
v 90.00003 5.000004 -3.209442E-06
v 9.999928 5 4.057975E-06
v 90.00003 5.000004 -3.02099E-06
v 90.00003 5.000004 -3.180234E-06
v 90.00003 6.428577 -2.809935E-06
v 90.00003 10.00001 -2.584188E-06
v 90.00003 10.00001 -2.384188E-06
v 90.00003 10.00001 -2.384188E-06
v 90.00003 5.000004 -3.02099E-06
v 90.00003 5.000004 -3.180234E-06
v 90.00003 5.000004 -2.99101E-06
v 9.999928 5 4.082245E-06
v 9.999928 5 4.078914E-06
v 9.999928 5 4.057975E-06
v 90.00003 5.000004 -3.209442E-06
v 90.00003 7.071076 -7.071079
v 90.00003 5.000004 -2.990234E-06
v 9.999928 5 4.082331E-06
v 90.00003 5.000004 -2.980235E-06
v 49.99998 5.000002 5.960488E-07
v 9.999928 5 4.092331E-06
v 49.99997 10 1.192095E-06
v 9.999969 5 4.172327E-06
v 9.999928 5 4.172331E-06
v 9.999928 6.428571 4.34263E-06
v 9.999935 7.071071 -7.071071
v 9.999928 5 3.754429E-06
v 90.00003 7.071076 -7.071079
v 9.999924 10 4.768378E-06
v 9.999935 7.071071 -7.071071
v 9.999928 3.535534 -3.535534
v 9.999928 3.535532 -3.535534
v 49.99998 -10.00001 -1.192092E-06
v 90.00003 -10.00001 -4.768375E-06
v 90.00003 -10.00001 -4.768375E-06
v 90.00003 -6.428577 -4.342627E-06
v 49.99998 -5.000008 -5.960457E-07
v 90.00003 -5.000004 -4.172328E-06
v 9.999928 -7.071081 2.733346E-06
v 9.999928 -10.00001 2.38419E-06
v 9.999928 -5.00001 2.980237E-06
v 90.00003 -10.00001 -4.968375E-06
v 90.00003 -7.071073 -7.071081
v 90.00003 1.78814E-06 -10.00001
v 90.00003 -3.535539 -3.535543
v 90.00003 -3.810869 -2.870836
v 90.00003 -3.914693 -2.620182
v 90.00003 -3.964471 -2.500006
v 90.00003 -4.397177 -1.455359
v 90.00003 -4.853558 -0.3535579
v 90.00003 -4.890574 -0.2641927
v 90.00003 -4.893868 -0.2562411
v 90.00003 -4.905598 -0.2279194
v 90.00003 -5.000004 -4.372328E-06
v 90.00003 -3.347479 -3.613439
v 90.00003 -3.300818 -3.632765
v 90.00003 -3.286932 -3.638517
v 90.00003 -3.181984 -3.681989
v 90.00003 -1.977938 -4.180719
v 90.00003 -0.9832064 -4.592751
v 90.00003 5.960464E-07 -5.000007
v 90.00003 0.1091031 -4.954815
v 90.00003 0.3535545 -4.853561
v 90.00003 1.035535 -4.571074
v 90.00003 7.071076 -7.071079
v 90.00003 1.308272 -4.458105
v 90.00003 2.238256 -4.072892
v 90.00003 3.003998 -3.755712
v 90.00003 3.535538 -3.535542
v 90.00003 3.622576 -3.325414
v 90.00003 3.648194 -3.263564
v 90.00003 3.65081 -3.25725
v 90.00003 3.652022 -3.254322
v 90.00003 3.653557 -3.250622
v 90.00003 3.681984 -3.181988
v 90.00003 5.000002 -5.941355E-06
v 90.00003 5.000004 -3.209442E-06
v 90.00003 5.000004 -3.180234E-06
v 90.00003 10.00001 -2.584188E-06
v 90.00003 -10.00001 -4.968375E-06
v 9.999935 -7.071079 -7.071073
v 90.00003 -7.071073 -7.071081
v 49.99998 -10.00001 -1.192092E-06
v 9.999935 -2.980234E-06 -10.00001
v 90.00003 1.78814E-06 -10.00001
v 9.999935 7.071071 -7.071071
v 90.00003 7.071076 -7.071079
v 9.999928 -10.00001 2.38419E-06
v 90.00003 10.00001 -2.384188E-06
v 49.99998 5.000002 5.960488E-07
v 90.00003 5.000004 -2.980235E-06
v 49.99997 10 1.192095E-06
v 9.999969 5 4.172327E-06
v 9.999924 10 4.768378E-06
v 9.999928 6.428571 4.34263E-06
v 9.999928 5 4.172331E-06
v 9.999928 -5.00001 2.980237E-06
v 9.999935 -7.071079 -7.071073
v 9.999928 -7.071081 2.733346E-06
v 9.999935 -7.071079 -7.071073
v 9.999928 -10.00001 2.38419E-06
v 9.999928 -5.00001 2.980237E-06
v 9.999928 -4.150359 -2.051237
v 9.999928 -5.00001 2.900237E-06
v 9.999928 -4.044777 -2.306131
v 9.999928 -4.015135 -2.377695
v 9.999928 -3.681989 -3.181981
v 9.999928 -3.631281 -3.304403
v 9.999928 -3.577671 -3.433827
v 9.999928 -3.566134 -3.461677
v 9.999928 -3.535542 -3.535535
v 9.999935 -2.980234E-06 -10.00001
v 9.999928 -2.500006 -3.964467
v 9.999928 -1.843017 -4.236599
v 9.999928 -1.423078 -4.410545
v 9.999928 -1.298103 -4.462311
v 9.999928 -0.353558 -4.853555
v 9.999928 -0.2197751 -4.908969
v 9.999928 -0.1092494 -4.954751
v 9.999928 -4.172328E-06 -5.000001
v 9.999928 0.9819179 -4.593277
v 9.999928 3.18198 -3.68198
v 9.999928 3.28806 -3.63804
v 9.999928 3.39139 -3.59524
v 9.999928 3.476474 -3.559996
v 9.999928 3.535532 -3.535534
v 9.999935 7.071071 -7.071071
v 9.999928 3.535534 -3.535534
v 9.999928 4.318874 -1.644381
v 9.999928 4.54944 -1.087742
v 9.999928 4.572978 -1.030917
v 9.999928 4.583894 -1.004566
v 9.999928 4.597688 -0.9712611
v 9.999928 4.853552 -0.3535498
v 9.999928 5 3.754429E-06
v 9.999928 6.428571 4.34263E-06
v 9.999928 5 4.092331E-06
v 9.999924 10 4.768378E-06

vn 6.532665E-07 -1 -1.192093E-07
vn 5.006788E-07 -1 -1.192093E-07
vn 0.6507915 -0.7592567 -1.680908E-07
vn 1 0 -1.192093E-07
vn 1 0 -1.192093E-07
vn -1.747586E-07 0.9238777 0.3826881
vn 0.1414209 0.9899498 1.011525E-07
vn -2.166522E-07 0.2376578 0.9713489
vn -4.525738E-07 0.9238794 0.3826838
vn -4.114522E-07 0.9238798 0.3826831
vn -4.501942E-07 0.9238796 0.3826834
vn -5.337779E-07 0.9238793 0.3826843
vn -5.922902E-07 0.9238788 0.3826853
vn -5.746029E-10 0.9238811 0.3826799
vn -2.881374E-07 0.92388 0.3826825
vn -3.362055E-07 0.9238797 0.382683
vn -3.190567E-07 0.9238799 0.3826829
vn -3.178939E-07 0.9238799 0.3826828
vn -3.318559E-07 0.9238797 0.382683
vn -3.510507E-07 0.9238799 0.3826827
vn -3.452638E-07 0.9238794 0.3826838
vn -3.879506E-07 0.9238788 0.3826852
vn -2.774609E-07 0.9238796 0.3826832
vn -2.91277E-07 0.92388 0.3826824
vn -2.859688E-07 0.855589 0.5176561
vn -2.588785E-07 0.4201493 0.907455
vn -3.094737E-07 0.3826813 0.9238806
vn -2.699855E-07 0.382682 0.9238802
vn -2.502867E-07 0.3826823 0.9238801
vn -9.696389E-08 0.3826843 0.9238794
vn -1.250827E-08 0.3826854 0.9238788
vn 2.037332E-07 0.382687 0.9238781
vn -6.287404E-08 0.3826844 0.9238793
vn -2.411074E-07 0.3826832 0.9238796
vn -3.002106E-07 0.3826828 0.92388
vn -3.58947E-07 0.3826827 0.9238799
vn -2.603712E-07 0.3826837 0.9238794
vn -2.810281E-07 0.3826831 0.9238798
vn -3.218585E-07 0.382682 0.9238802
vn -3.232984E-07 0.3210444 0.9470643
vn -8.172533E-08 -0.3208943 0.9471152
vn -3.307079E-08 -0.3826822 0.9238802
vn -6.051592E-08 -0.3826832 0.9238798
vn -1.01204E-07 -0.3826839 0.9238796
vn -7.272755E-08 -0.3826839 0.9238795
vn -5.497344E-08 -0.3826835 0.9238796
vn 7.120078E-08 -0.3826829 0.9238799
vn 1.735296E-09 -0.3826834 0.9238797
vn 2.419298E-08 -0.3826831 0.9238799
vn 3.171048E-08 -0.3826833 0.9238797
vn 3.864814E-08 -0.3826834 0.9238798
vn 4.733285E-08 -0.3826829 0.9238799
vn 1.32112E-07 -0.5572438 0.8303492
vn 4.936632E-08 -0.3826614 0.9238888
vn 2.6049E-07 -0.9238795 0.3826838
vn 2.154595E-07 -0.9238799 0.3826826
vn 1.785953E-07 -0.9238802 0.3826823
vn 7.065027E-08 -0.9238806 0.3826811
vn 2.718428E-07 -0.9238799 0.382683
vn 5.602318E-07 -0.9238793 0.3826846
vn 8.392154E-07 -0.9238781 0.382687
vn 6.455097E-06 -0.9238608 0.3827288
vn 2.872358E-06 -0.9238718 0.3827026
vn -4.80998E-07 -0.9238827 0.3826763
vn -9.172434E-08 -0.9238811 0.3826801
vn 2.458846E-07 -0.9238799 0.3826827
vn 2.714856E-07 -0.9238797 0.3826833
vn 2.712663E-07 -0.9238796 0.3826836
vn 2.012856E-07 -0.9238777 0.3826882
vn 1.939915E-07 -0.846719 0.5320408
vn 3.09944E-07 -1 -1.192093E-07
vn 3.09944E-07 -1 -1.192093E-07
vn 3.09944E-07 -1 -1.192093E-07
vn 1 0 -1.192093E-07
vn -4.037492E-07 0.9238799 -0.382683
vn 1 0 -1.192093E-07
vn -1.832667E-07 0.1299602 0.9915193
vn 0.7603926 -0.6494639 -1.68068E-07
vn 0.8262197 -0.5633484 -1.656494E-07
vn 0.07104933 -0.9974729 -1.273777E-07
vn 3.099443E-07 -1 -1.192093E-07
vn 3.09944E-07 -1 -1.192093E-07
vn 3.099437E-07 -1 -1.192093E-07
vn 0.103003 -0.9946812 -1.308541E-07
vn 1 0 -1.192093E-07
vn 0.01266348 -0.99992 5.625314E-06
vn 3.09945E-07 -1 -1.192093E-07
vn 0.1414216 -0.9899496 -1.348699E-07
vn 3.099451E-07 -1 -6.748391E-06
vn -0.06004149 -0.998196 -6.380794E-06
vn -3.334243E-07 0.9238798 -0.382683
vn 3.099468E-07 -1 -2.376598E-05
vn -1 -6.942756E-06 1.192085E-07
vn -1 0 1.192093E-07
vn -1 1.028975E-13 -3.123743E-07
vn 0 0 0
vn -3.232335E-07 0.9238799 -0.3826831
vn -2.879381E-07 0.9238799 -0.382683
vn -3.130428E-07 0.9238799 -0.3826831
vn -1 1.028975E-13 -3.123743E-07
vn -1 1.028975E-13 -3.123743E-07
vn -1.192093E-07 -2.384186E-07 1
vn -1.192092E-07 -2.384186E-07 1
vn -1.192093E-07 -2.384186E-07 1
vn -1.192093E-07 -2.384186E-07 1
vn -1.192093E-07 -2.384186E-07 1
vn -1.192093E-07 -2.384186E-07 1
vn -1.192093E-07 -2.384186E-07 1
vn -1.192093E-07 -2.384186E-07 1
vn -1.192093E-07 -2.384186E-07 1
vn 1 0 -1.192093E-07
vn 1 0 -1.192093E-07
vn 1 0 -1.192093E-07
vn 1 0 -1.192093E-07
vn 1 0 -1.192093E-07
vn 1 0 -1.192093E-07
vn 1 0 -1.192093E-07
vn 1 0 -1.192093E-07
vn 1 0 -1.192093E-07
vn 1 0 -1.192093E-07
vn 1 0 -1.192093E-07
vn 1 0 -1.192093E-07
vn 1 0 -1.192093E-07
vn 1 0 -1.192093E-07
vn 1 0 -1.192093E-07
vn 1 0 -1.192093E-07
vn 1 0 -1.192093E-07
vn 1 0 -1.192093E-07
vn 1 0 -1.192093E-07
vn 1 0 -1.192093E-07
vn 1 0 -1.192093E-07
vn 1 0 -1.192093E-07
vn 1 0 -1.192093E-07
vn 1 0 -1.192093E-07
vn 1 0 -1.192093E-07
vn 1 0 -1.192093E-07
vn 1 0 -1.192093E-07
vn 1 0 -1.192093E-07
vn 1 0 -1.192093E-07
vn 1 0 -1.192093E-07
vn 1 0 -1.192093E-07
vn 1 0 -1.192093E-07
vn 1 0 -1.192093E-07
vn 1 0 -1.192093E-07
vn 1 0 -1.192093E-07
vn 1 0 -1.192093E-07
vn 1 0 -1.192093E-07
vn 1 0 -1.192093E-07
vn 4.529241E-07 -0.9238797 -0.3826834
vn 4.042726E-07 -0.7971752 -0.6037482
vn 3.339125E-07 -0.6037478 -0.7971754
vn 4.33873E-07 -0.9238795 -0.3826834
vn 1.694166E-07 -0.1367734 -0.9906025
vn 5.727881E-08 0.1367738 -0.9906025
vn -3.8374E-08 0.3826835 -0.9238796
vn -4.561939E-08 0.3826835 -0.9238797
vn 3.672135E-07 -0.9238796 -0.3826833
vn -1.192093E-07 -2.384186E-07 1
vn -1.192093E-07 -2.384186E-07 1
vn -1.192093E-07 -2.384186E-07 1
vn -1.192093E-07 -2.384186E-07 1
vn -1.192093E-07 -2.384186E-07 1
vn -1.192093E-07 -2.384186E-07 1
vn -1.283792E-07 -2.384186E-07 1
vn -1.283792E-07 -2.384186E-07 1
vn -0.2028034 0.9792196 1.409081E-07
vn -1 -7.367589E-07 1.192092E-07
vn -1 5.144875E-14 -9.658246E-08
vn -1 -1.115982E-07 -1.144593E-07
vn -1 5.144876E-14 -9.658247E-08
vn -1 5.144876E-14 -9.658247E-08
vn -1 -3.051755E-07 -7.198674E-09
vn -1 -3.051757E-07 -7.198574E-09
vn -1 -3.051751E-07 -7.198915E-09
vn -1 -3.051758E-07 -7.198432E-09
vn -1 -3.051759E-07 -7.198375E-09
vn -1 -3.051754E-07 -7.198837E-09
vn -1 -3.051737E-07 -7.200365E-09
vn -1 -3.051776E-07 -7.196663E-09
vn -1 -1.280218E-07 -1.843524E-07
vn -1 7.275955E-14 -1.859664E-07
vn -1 -1.264073E-07 -1.859662E-07
vn -1 -1.264078E-07 -1.859663E-07
vn -1 -1.264085E-07 -1.859666E-07
vn -1 -1.264081E-07 -1.859665E-07
vn -1 -1.26408E-07 -1.859665E-07
vn -1 -1.264079E-07 -1.859665E-07
vn -1 -1.264073E-07 -1.859665E-07
vn -1 1.010964E-07 -1.859663E-07
vn -1 1.264079E-07 -1.859665E-07
vn -1 1.264081E-07 -1.859665E-07
vn -1 1.264074E-07 -1.859661E-07
vn -1 1.26409E-07 -1.85967E-07
vn -1 1.264083E-07 -1.859665E-07
vn -1 1.264079E-07 -1.859664E-07
vn -1 1.115984E-07 -1.144593E-07
vn -1 3.051759E-07 -7.198487E-09
vn -1 3.051761E-07 -7.198416E-09
vn -1 3.051764E-07 -7.19826E-09
vn -1 3.051696E-07 -7.201059E-09
vn -1 3.051771E-07 -7.198047E-09
vn -1 3.051766E-07 -7.198175E-09
vn -1 3.051751E-07 -7.1987E-09
vn -1 3.05174E-07 -7.199063E-09
vn -1 5.490143E-14 -9.658247E-08
vn -1 6.353314E-14 -9.658248E-08
vn -1 5.144876E-14 -9.658248E-08

f 1//1 2//2 3//3
f 4//4 1//1 3//3
f 3//3 5//5 4//4
f 3//3 6//6 5//5
f 5//5 6//6 7//7
f 8//8 7//7 6//6
f 9//9 8//8 6//6
f 10//10 9//9 6//6
f 9//9 10//10 11//11
f 11//11 10//10 12//12
f 13//13 11//11 12//12
f 13//13 12//12 14//14
f 13//13 14//14 15//15
f 15//15 14//14 16//16
f 15//15 16//16 17//17
f 18//18 17//17 16//16
f 19//19 17//17 18//18
f 19//19 18//18 20//20
f 21//21 19//19 20//20
f 22//22 19//19 21//21
f 22//22 21//21 23//23
f 24//24 22//22 23//23
f 24//24 23//23 25//25
f 26//26 24//24 25//25
f 26//26 25//25 27//27
f 28//28 26//26 27//27
f 28//28 27//27 29//29
f 29//29 27//27 30//30
f 31//31 29//29 30//30
f 31//31 30//30 32//32
f 33//33 31//31 32//32
f 33//33 32//32 34//34
f 35//35 33//33 34//34
f 35//35 34//34 36//36
f 37//37 35//35 36//36
f 37//37 36//36 38//38
f 39//39 37//37 38//38
f 39//39 38//38 40//40
f 41//41 39//39 40//40
f 41//41 40//40 42//42
f 41//41 42//42 43//43
f 43//43 42//42 44//44
f 45//45 43//43 44//44
f 45//45 44//44 46//46
f 47//47 45//45 46//46
f 48//48 45//45 47//47
f 48//48 47//47 49//49
f 50//50 48//48 49//49
f 50//50 49//49 51//51
f 52//52 50//50 51//51
f 52//52 51//51 53//53
f 54//54 52//52 53//53
f 55//55 54//54 53//53
f 55//55 53//53 56//56
f 55//55 56//56 57//57
f 57//57 56//56 58//58
f 57//57 58//58 59//59
f 59//59 58//58 60//60
f 59//59 60//60 61//61
f 61//61 60//60 62//62
f 61//61 62//62 63//63
f 63//63 62//62 64//64
f 63//63 64//64 65//65
f 65//65 64//64 66//66
f 65//65 66//66 67//67
f 68//68 67//67 66//66
f 69//69 67//67 68//68
f 69//69 68//68 70//70
f 71//71 69//69 70//70
f 72//72 71//71 73//73
f 74//74 75//75 76//76
f 77//77 74//74 76//76
f 75//75 77//77 76//76
f 78//78 75//75 74//74
f 79//79 75//75 78//78
f 78//78 74//74 80//80
f 81//81 78//78 80//80
f 82//82 78//78 81//81
f 82//82 83//83 78//78
f 83//83 84//84 79//79
f 84//84 85//85 79//79
f 80//80 74//74 86//86
f 87//87 80//80 86//86
f 81//81 80//80 87//87
f 86//86 74//74 88//88
f 88//88 74//74 77//77
f 86//86 88//88 89//89
f 90//90 86//86 89//89
f 87//87 86//86 90//90
f 75//75 91//91 77//77
f 90//90 89//89 92//92
f 90//90 92//92 93//93
f 94//94 90//90 93//93
f 95//95 83//83 82//82
f 95//95 82//82 81//81
f 95//95 81//81 87//87
f 95//95 87//87 90//90
f 95//95 96//96 83//83
f 97//97 91//91 75//75
f 97//97 98//98 91//91
f 97//97 99//99 98//98
f 100//100 95//95 101//101
f 102//102 103//103 104//104
f 102//102 104//104 105//105
f 102//102 105//105 106//106
f 106//106 105//105 107//107
f 108//108 102//102 106//106
f 109//109 102//102 108//108
f 110//110 108//108 106//106
f 111//111 112//112 113//113
f 111//111 113//113 114//114
f 111//111 114//114 115//115
f 111//111 115//115 116//116
f 111//111 116//116 117//117
f 117//117 118//118 111//111
f 118//118 119//119 111//111
f 120//120 111//111 119//119
f 120//120 121//121 111//111
f 121//121 122//122 111//111
f 111//111 122//122 123//123
f 114//114 113//113 124//124
f 124//124 113//113 125//125
f 125//125 113//113 126//126
f 126//126 113//113 127//127
f 127//127 113//113 128//128
f 128//128 113//113 129//129
f 129//129 113//113 130//130
f 130//130 113//113 131//131
f 131//131 113//113 132//132
f 132//132 113//113 133//133
f 133//133 113//113 134//134
f 133//133 134//134 135//135
f 135//135 134//134 136//136
f 134//134 137//137 136//136
f 137//137 134//134 138//138
f 138//138 134//134 139//139
f 139//139 134//134 140//140
f 140//140 134//134 141//141
f 134//134 142//142 141//141
f 134//134 143//143 142//142
f 134//134 144//144 143//143
f 144//144 134//134 145//145
f 145//145 134//134 146//146
f 147//147 134//134 148//148
f 149//149 150//150 151//151
f 149//149 152//152 150//150
f 151//151 150//150 153//153
f 151//151 153//153 154//154
f 154//154 153//153 155//155
f 154//154 155//155 156//156
f 152//152 157//157 150//150
f 158//158 159//159 160//160
f 161//161 159//159 158//158
f 162//162 159//159 161//161
f 163//163 162//162 161//161
f 164//164 162//162 163//163
f 165//165 162//162 164//164
f 9//9 166//166 8//8
f 166//166 9//9 167//167
f 168//168 169//169 170//170
f 168//168 171//171 169//169
f 172//172 169//169 173//173
f 174//174 169//169 172//172
f 169//169 174//174 175//175
f 176//176 169//169 175//175
f 177//177 169//169 176//176
f 178//178 169//169 177//177
f 178//178 179//179 169//169
f 179//179 180//180 169//169
f 180//180 181//181 169//169
f 182//182 181//181 180//180
f 182//182 183//183 181//181
f 183//183 184//184 181//181
f 184//184 185//185 181//181
f 185//185 186//186 181//181
f 186//186 187//187 181//181
f 187//187 188//188 181//181
f 188//188 189//189 181//181
f 181//181 189//189 190//190
f 181//181 190//190 191//191
f 192//192 181//181 191//191
f 193//193 181//181 192//192
f 194//194 181//181 193//193
f 195//195 181//181 194//194
f 195//195 196//196 181//181
f 196//196 197//197 198//198
f 196//196 198//198 199//199
f 199//199 200//200 196//196
f 196//196 200//200 201//201
f 201//201 202//202 196//196
f 196//196 202//202 203//203
f 196//196 203//203 204//204
f 205//205 196//196 206//206
f 207//207 196//196 205//205
